<?xml version="1.0" encoding="utf-8" standalone="no"?>
<!DOCTYPE svg PUBLIC "-//W3C//DTD SVG 1.1//EN"
  "http://www.w3.org/Graphics/SVG/1.1/DTD/svg11.dtd">
<svg xmlns:xlink="http://www.w3.org/1999/xlink" width="269.026562pt" height="98.796701pt" viewBox="0 0 269.026562 98.796701" xmlns="http://www.w3.org/2000/svg" version="1.1">
 <metadata>
  <rdf:RDF xmlns:dc="http://purl.org/dc/elements/1.1/" xmlns:cc="http://creativecommons.org/ns#" xmlns:rdf="http://www.w3.org/1999/02/22-rdf-syntax-ns#">
   <cc:Work>
    <dc:type rdf:resource="http://purl.org/dc/dcmitype/StillImage"/>
    <dc:date>2024-10-29T14:57:49.002496</dc:date>
    <dc:format>image/svg+xml</dc:format>
    <dc:creator>
     <cc:Agent>
      <dc:title>Matplotlib v3.8.4, https://matplotlib.org/</dc:title>
     </cc:Agent>
    </dc:creator>
   </cc:Work>
  </rdf:RDF>
 </metadata>
 <defs>
  <style type="text/css">*{stroke-linejoin: round; stroke-linecap: butt}</style>
 </defs>
 <g id="figure_1">
  <g id="patch_1">
   <path d="M -0 98.796701 
L 269.026563 98.796701 
L 269.026563 0 
L -0 0 
L -0 98.796701 
z
" style="fill: none"/>
  </g>
  <g id="axes_1">
   <g id="patch_2">
    <path d="M 27.916563 73.513888 
L 261.826563 73.513888 
L 261.826563 10.955808 
L 27.916563 10.955808 
L 27.916563 73.513888 
z
" style="fill: none"/>
   </g>
   <g id="PathCollection_1">
    <defs>
     <path id="mc95168c86a" d="M 0.927647 1.936492 
L -0.927647 1.936492 
L -0.927647 1.699204 
L -0.158686 1.699204 
L -0.158686 -1.048887 
Q -0.158686 -1.086704 -0.194279 -1.128971 
Q -0.229873 -1.17198 -0.263241 -1.17198 
Q -0.315148 -1.17198 -0.381885 -1.105984 
Q -0.614724 -0.863505 -0.837181 -0.716684 
L -0.927647 -0.811599 
Q -0.249152 -1.400369 -0.025953 -1.936492 
L 0.021504 -1.936492 
Q 0.254343 -1.39073 0.927647 -0.80715 
L 0.837923 -0.712234 
Q 0.648093 -0.844967 0.381885 -1.100793 
Q 0.31589 -1.167531 0.249152 -1.167531 
Q 0.154237 -1.167531 0.154237 -1.044437 
L 0.154237 1.699204 
L 0.927647 1.699204 
L 0.927647 1.936492 
z
" style="stroke: #000000; stroke-width: 0.1"/>
    </defs>
    <g clip-path="url(#p8492b3b263)">
     <use xlink:href="#mc95168c86a" x="103.644608" y="66.811237" style="stroke: #000000; stroke-width: 0.1"/>
     <use xlink:href="#mc95168c86a" x="141.06514" y="66.811237" style="stroke: #000000; stroke-width: 0.1"/>
     <use xlink:href="#mc95168c86a" x="178.470466" y="66.811237" style="stroke: #000000; stroke-width: 0.1"/>
     <use xlink:href="#mc95168c86a" x="215.875792" y="66.811237" style="stroke: #000000; stroke-width: 0.1"/>
    </g>
   </g>
   <g id="PathCollection_2">
    <defs>
     <path id="m99c847caa3" d="M 0.927647 0.175371 
L 0.837923 0.270286 
Q 0.648093 0.137553 0.381885 -0.119015 
Q 0.31589 -0.18501 0.249152 -0.18501 
Q 0.154237 -0.18501 0.154237 -0.061917 
L 0.154237 1.936492 
L -0.158686 1.936492 
L -0.158686 -0.066366 
Q -0.158686 -0.104184 -0.194279 -0.147193 
Q -0.229873 -0.190201 -0.263241 -0.190201 
Q -0.315148 -0.190201 -0.381885 -0.123464 
Q -0.614724 0.118273 -0.837181 0.265837 
L -0.927647 0.170921 
Q -0.401165 -0.285116 -0.158686 -0.688506 
L -0.158686 -1.048887 
Q -0.158686 -1.086704 -0.194279 -1.128971 
Q -0.229873 -1.17198 -0.263241 -1.17198 
Q -0.315148 -1.17198 -0.381885 -1.105984 
Q -0.614724 -0.863505 -0.837181 -0.716684 
L -0.927647 -0.811599 
Q -0.249152 -1.400369 -0.025953 -1.936492 
L 0.021504 -1.936492 
Q 0.254343 -1.39073 0.927647 -0.80715 
L 0.837923 -0.712234 
Q 0.648093 -0.844967 0.381885 -1.100793 
Q 0.31589 -1.167531 0.249152 -1.167531 
Q 0.154237 -1.167531 0.154237 -1.044437 
L 0.154237 -0.692955 
Q 0.405614 -0.279926 0.927647 0.175371 
z
" style="stroke: #000000; stroke-width: 0.1"/>
    </defs>
    <g clip-path="url(#p8492b3b263)">
     <use xlink:href="#m99c847caa3" x="103.644608" y="60.108585" style="stroke: #000000; stroke-width: 0.1"/>
    </g>
   </g>
   <g id="matplotlib.axis_1">
    <g id="xtick_1">
     <g id="line2d_1">
      <defs>
       <path id="m9d60a6e52a" d="M 0 0 
L 0 1.5 
" style="stroke: #000000; stroke-width: 0.5"/>
      </defs>
      <g>
       <use xlink:href="#m9d60a6e52a" x="27.916563" y="73.513888" style="stroke: #000000; stroke-width: 0.5"/>
      </g>
     </g>
     <g id="text_1">
      <!-- 0 -->
      <g transform="translate(26.916563 81.291388) scale(0.04 -0.04)">
       <defs>
        <path id="TimesNewRomanPSMT-30" d="M 231 2094 
Q 231 2819 450 3342 
Q 669 3866 1031 4122 
Q 1313 4325 1613 4325 
Q 2100 4325 2488 3828 
Q 2972 3213 2972 2159 
Q 2972 1422 2759 906 
Q 2547 391 2217 158 
Q 1888 -75 1581 -75 
Q 975 -75 572 641 
Q 231 1244 231 2094 
z
M 844 2016 
Q 844 1141 1059 588 
Q 1238 122 1591 122 
Q 1759 122 1940 273 
Q 2122 425 2216 781 
Q 2359 1319 2359 2297 
Q 2359 3022 2209 3506 
Q 2097 3866 1919 4016 
Q 1791 4119 1609 4119 
Q 1397 4119 1231 3928 
Q 1006 3669 925 3112 
Q 844 2556 844 2016 
z
" transform="scale(0.015625)"/>
       </defs>
       <use xlink:href="#TimesNewRomanPSMT-30"/>
      </g>
     </g>
    </g>
    <g id="xtick_2">
     <g id="line2d_2">
      <g>
       <use xlink:href="#m9d60a6e52a" x="78.601286" y="73.513888" style="stroke: #000000; stroke-width: 0.5"/>
      </g>
     </g>
     <g id="text_2">
      <!-- 10 -->
      <g transform="translate(76.601286 81.291388) scale(0.04 -0.04)">
       <defs>
        <path id="TimesNewRomanPSMT-31" d="M 750 3822 
L 1781 4325 
L 1884 4325 
L 1884 747 
Q 1884 391 1914 303 
Q 1944 216 2037 169 
Q 2131 122 2419 116 
L 2419 0 
L 825 0 
L 825 116 
Q 1125 122 1212 167 
Q 1300 213 1334 289 
Q 1369 366 1369 747 
L 1369 3034 
Q 1369 3497 1338 3628 
Q 1316 3728 1258 3775 
Q 1200 3822 1119 3822 
Q 1003 3822 797 3725 
L 750 3822 
z
" transform="scale(0.015625)"/>
       </defs>
       <use xlink:href="#TimesNewRomanPSMT-31"/>
       <use xlink:href="#TimesNewRomanPSMT-30" x="50"/>
      </g>
     </g>
    </g>
    <g id="xtick_3">
     <g id="line2d_3">
      <g>
       <use xlink:href="#m9d60a6e52a" x="129.28601" y="73.513888" style="stroke: #000000; stroke-width: 0.5"/>
      </g>
     </g>
     <g id="text_3">
      <!-- 20 -->
      <g transform="translate(127.28601 81.291388) scale(0.04 -0.04)">
       <defs>
        <path id="TimesNewRomanPSMT-32" d="M 2934 816 
L 2638 0 
L 138 0 
L 138 116 
Q 1241 1122 1691 1759 
Q 2141 2397 2141 2925 
Q 2141 3328 1894 3587 
Q 1647 3847 1303 3847 
Q 991 3847 742 3664 
Q 494 3481 375 3128 
L 259 3128 
Q 338 3706 661 4015 
Q 984 4325 1469 4325 
Q 1984 4325 2329 3994 
Q 2675 3663 2675 3213 
Q 2675 2891 2525 2569 
Q 2294 2063 1775 1497 
Q 997 647 803 472 
L 1909 472 
Q 2247 472 2383 497 
Q 2519 522 2628 598 
Q 2738 675 2819 816 
L 2934 816 
z
" transform="scale(0.015625)"/>
       </defs>
       <use xlink:href="#TimesNewRomanPSMT-32"/>
       <use xlink:href="#TimesNewRomanPSMT-30" x="50"/>
      </g>
     </g>
    </g>
    <g id="xtick_4">
     <g id="line2d_4">
      <g>
       <use xlink:href="#m9d60a6e52a" x="179.970734" y="73.513888" style="stroke: #000000; stroke-width: 0.5"/>
      </g>
     </g>
     <g id="text_4">
      <!-- 30 -->
      <g transform="translate(177.970734 81.291388) scale(0.04 -0.04)">
       <defs>
        <path id="TimesNewRomanPSMT-33" d="M 325 3431 
Q 506 3859 782 4092 
Q 1059 4325 1472 4325 
Q 1981 4325 2253 3994 
Q 2459 3747 2459 3466 
Q 2459 3003 1878 2509 
Q 2269 2356 2469 2072 
Q 2669 1788 2669 1403 
Q 2669 853 2319 450 
Q 1863 -75 997 -75 
Q 569 -75 414 31 
Q 259 138 259 259 
Q 259 350 332 419 
Q 406 488 509 488 
Q 588 488 669 463 
Q 722 447 909 348 
Q 1097 250 1169 231 
Q 1284 197 1416 197 
Q 1734 197 1970 444 
Q 2206 691 2206 1028 
Q 2206 1275 2097 1509 
Q 2016 1684 1919 1775 
Q 1784 1900 1550 2001 
Q 1316 2103 1072 2103 
L 972 2103 
L 972 2197 
Q 1219 2228 1467 2375 
Q 1716 2522 1828 2728 
Q 1941 2934 1941 3181 
Q 1941 3503 1739 3701 
Q 1538 3900 1238 3900 
Q 753 3900 428 3381 
L 325 3431 
z
" transform="scale(0.015625)"/>
       </defs>
       <use xlink:href="#TimesNewRomanPSMT-33"/>
       <use xlink:href="#TimesNewRomanPSMT-30" x="50"/>
      </g>
     </g>
    </g>
    <g id="xtick_5">
     <g id="line2d_5">
      <g>
       <use xlink:href="#m9d60a6e52a" x="230.655457" y="73.513888" style="stroke: #000000; stroke-width: 0.5"/>
      </g>
     </g>
     <g id="text_5">
      <!-- 40 -->
      <g transform="translate(228.655457 81.291388) scale(0.04 -0.04)">
       <defs>
        <path id="TimesNewRomanPSMT-34" d="M 2978 1563 
L 2978 1119 
L 2409 1119 
L 2409 0 
L 1894 0 
L 1894 1119 
L 100 1119 
L 100 1519 
L 2066 4325 
L 2409 4325 
L 2409 1563 
L 2978 1563 
z
M 1894 1563 
L 1894 3666 
L 406 1563 
L 1894 1563 
z
" transform="scale(0.015625)"/>
       </defs>
       <use xlink:href="#TimesNewRomanPSMT-34"/>
       <use xlink:href="#TimesNewRomanPSMT-30" x="50"/>
      </g>
     </g>
    </g>
    <g id="text_6">
     <!-- Time (ms) -->
     <g transform="translate(132.396719 90.313263) scale(0.06 -0.06)">
      <defs>
       <path id="TimesNewRomanPSMT-54" d="M 3703 4238 
L 3750 3244 
L 3631 3244 
Q 3597 3506 3538 3619 
Q 3441 3800 3280 3886 
Q 3119 3972 2856 3972 
L 2259 3972 
L 2259 734 
Q 2259 344 2344 247 
Q 2463 116 2709 116 
L 2856 116 
L 2856 0 
L 1059 0 
L 1059 116 
L 1209 116 
Q 1478 116 1591 278 
Q 1659 378 1659 734 
L 1659 3972 
L 1150 3972 
Q 853 3972 728 3928 
Q 566 3869 450 3700 
Q 334 3531 313 3244 
L 194 3244 
L 244 4238 
L 3703 4238 
z
" transform="scale(0.015625)"/>
       <path id="TimesNewRomanPSMT-69" d="M 928 4444 
Q 1059 4444 1151 4351 
Q 1244 4259 1244 4128 
Q 1244 3997 1151 3903 
Q 1059 3809 928 3809 
Q 797 3809 703 3903 
Q 609 3997 609 4128 
Q 609 4259 701 4351 
Q 794 4444 928 4444 
z
M 1188 2947 
L 1188 647 
Q 1188 378 1227 289 
Q 1266 200 1342 156 
Q 1419 113 1622 113 
L 1622 0 
L 231 0 
L 231 113 
Q 441 113 512 153 
Q 584 194 626 287 
Q 669 381 669 647 
L 669 1750 
Q 669 2216 641 2353 
Q 619 2453 572 2492 
Q 525 2531 444 2531 
Q 356 2531 231 2484 
L 188 2597 
L 1050 2947 
L 1188 2947 
z
" transform="scale(0.015625)"/>
       <path id="TimesNewRomanPSMT-6d" d="M 1050 2338 
Q 1363 2650 1419 2697 
Q 1559 2816 1721 2881 
Q 1884 2947 2044 2947 
Q 2313 2947 2506 2790 
Q 2700 2634 2766 2338 
Q 3088 2713 3309 2830 
Q 3531 2947 3766 2947 
Q 3994 2947 4170 2830 
Q 4347 2713 4450 2447 
Q 4519 2266 4519 1878 
L 4519 647 
Q 4519 378 4559 278 
Q 4591 209 4675 161 
Q 4759 113 4950 113 
L 4950 0 
L 3538 0 
L 3538 113 
L 3597 113 
Q 3781 113 3884 184 
Q 3956 234 3988 344 
Q 4000 397 4000 647 
L 4000 1878 
Q 4000 2228 3916 2372 
Q 3794 2572 3525 2572 
Q 3359 2572 3192 2489 
Q 3025 2406 2788 2181 
L 2781 2147 
L 2788 2013 
L 2788 647 
Q 2788 353 2820 281 
Q 2853 209 2943 161 
Q 3034 113 3253 113 
L 3253 0 
L 1806 0 
L 1806 113 
Q 2044 113 2133 169 
Q 2222 225 2256 338 
Q 2272 391 2272 647 
L 2272 1878 
Q 2272 2228 2169 2381 
Q 2031 2581 1784 2581 
Q 1616 2581 1450 2491 
Q 1191 2353 1050 2181 
L 1050 647 
Q 1050 366 1089 281 
Q 1128 197 1204 155 
Q 1281 113 1516 113 
L 1516 0 
L 100 0 
L 100 113 
Q 297 113 375 155 
Q 453 197 493 289 
Q 534 381 534 647 
L 534 1741 
Q 534 2213 506 2350 
Q 484 2453 437 2492 
Q 391 2531 309 2531 
Q 222 2531 100 2484 
L 53 2597 
L 916 2947 
L 1050 2947 
L 1050 2338 
z
" transform="scale(0.015625)"/>
       <path id="TimesNewRomanPSMT-65" d="M 681 1784 
Q 678 1147 991 784 
Q 1303 422 1725 422 
Q 2006 422 2214 576 
Q 2422 731 2563 1106 
L 2659 1044 
Q 2594 616 2278 264 
Q 1963 -88 1488 -88 
Q 972 -88 605 314 
Q 238 716 238 1394 
Q 238 2128 614 2539 
Q 991 2950 1559 2950 
Q 2041 2950 2350 2633 
Q 2659 2316 2659 1784 
L 681 1784 
z
M 681 1966 
L 2006 1966 
Q 1991 2241 1941 2353 
Q 1863 2528 1708 2628 
Q 1553 2728 1384 2728 
Q 1125 2728 920 2526 
Q 716 2325 681 1966 
z
" transform="scale(0.015625)"/>
       <path id="TimesNewRomanPSMT-20" transform="scale(0.015625)"/>
       <path id="TimesNewRomanPSMT-28" d="M 1988 -1253 
L 1988 -1369 
Q 1516 -1131 1200 -813 
Q 750 -359 506 256 
Q 263 872 263 1534 
Q 263 2503 741 3301 
Q 1219 4100 1988 4444 
L 1988 4313 
Q 1603 4100 1356 3731 
Q 1109 3363 987 2797 
Q 866 2231 866 1616 
Q 866 947 969 400 
Q 1050 -31 1165 -292 
Q 1281 -553 1476 -793 
Q 1672 -1034 1988 -1253 
z
" transform="scale(0.015625)"/>
       <path id="TimesNewRomanPSMT-73" d="M 2050 2947 
L 2050 1972 
L 1947 1972 
Q 1828 2431 1642 2597 
Q 1456 2763 1169 2763 
Q 950 2763 815 2647 
Q 681 2531 681 2391 
Q 681 2216 781 2091 
Q 878 1963 1175 1819 
L 1631 1597 
Q 2266 1288 2266 781 
Q 2266 391 1970 151 
Q 1675 -88 1309 -88 
Q 1047 -88 709 6 
Q 606 38 541 38 
Q 469 38 428 -44 
L 325 -44 
L 325 978 
L 428 978 
Q 516 541 762 319 
Q 1009 97 1316 97 
Q 1531 97 1667 223 
Q 1803 350 1803 528 
Q 1803 744 1651 891 
Q 1500 1038 1047 1263 
Q 594 1488 453 1669 
Q 313 1847 313 2119 
Q 313 2472 555 2709 
Q 797 2947 1181 2947 
Q 1350 2947 1591 2875 
Q 1750 2828 1803 2828 
Q 1853 2828 1881 2850 
Q 1909 2872 1947 2947 
L 2050 2947 
z
" transform="scale(0.015625)"/>
       <path id="TimesNewRomanPSMT-29" d="M 144 4313 
L 144 4444 
Q 619 4209 934 3891 
Q 1381 3434 1625 2820 
Q 1869 2206 1869 1541 
Q 1869 572 1392 -226 
Q 916 -1025 144 -1369 
L 144 -1253 
Q 528 -1038 776 -670 
Q 1025 -303 1145 264 
Q 1266 831 1266 1447 
Q 1266 2113 1163 2663 
Q 1084 3094 967 3353 
Q 850 3613 656 3853 
Q 463 4094 144 4313 
z
" transform="scale(0.015625)"/>
      </defs>
      <use xlink:href="#TimesNewRomanPSMT-54"/>
      <use xlink:href="#TimesNewRomanPSMT-69" x="57.583984"/>
      <use xlink:href="#TimesNewRomanPSMT-6d" x="85.367188"/>
      <use xlink:href="#TimesNewRomanPSMT-65" x="163.150391"/>
      <use xlink:href="#TimesNewRomanPSMT-20" x="207.535156"/>
      <use xlink:href="#TimesNewRomanPSMT-28" x="232.535156"/>
      <use xlink:href="#TimesNewRomanPSMT-6d" x="265.835938"/>
      <use xlink:href="#TimesNewRomanPSMT-73" x="343.619141"/>
      <use xlink:href="#TimesNewRomanPSMT-29" x="382.535156"/>
     </g>
    </g>
   </g>
   <g id="matplotlib.axis_2">
    <g id="ytick_1">
     <g id="line2d_6">
      <defs>
       <path id="m51f8b29acb" d="M 0 0 
L -1.5 0 
" style="stroke: #000000; stroke-width: 0.5"/>
      </defs>
      <g>
       <use xlink:href="#m51f8b29acb" x="27.916563" y="69.045454" style="stroke: #000000; stroke-width: 0.5"/>
      </g>
     </g>
     <g id="text_7">
      <!-- −60 -->
      <g transform="translate(16.660938 70.434204) scale(0.04 -0.04)">
       <defs>
        <path id="TimesNewRomanPSMT-2212" d="M 3484 2000 
L 116 2000 
L 116 2256 
L 3484 2256 
L 3484 2000 
z
" transform="scale(0.015625)"/>
        <path id="TimesNewRomanPSMT-36" d="M 2869 4325 
L 2869 4209 
Q 2456 4169 2195 4045 
Q 1934 3922 1679 3669 
Q 1425 3416 1258 3105 
Q 1091 2794 978 2366 
Q 1428 2675 1881 2675 
Q 2316 2675 2634 2325 
Q 2953 1975 2953 1425 
Q 2953 894 2631 456 
Q 2244 -75 1606 -75 
Q 1172 -75 869 213 
Q 275 772 275 1663 
Q 275 2231 503 2743 
Q 731 3256 1154 3653 
Q 1578 4050 1965 4187 
Q 2353 4325 2688 4325 
L 2869 4325 
z
M 925 2138 
Q 869 1716 869 1456 
Q 869 1156 980 804 
Q 1091 453 1309 247 
Q 1469 100 1697 100 
Q 1969 100 2183 356 
Q 2397 613 2397 1088 
Q 2397 1622 2184 2012 
Q 1972 2403 1581 2403 
Q 1463 2403 1327 2353 
Q 1191 2303 925 2138 
z
" transform="scale(0.015625)"/>
       </defs>
       <use xlink:href="#TimesNewRomanPSMT-2212"/>
       <use xlink:href="#TimesNewRomanPSMT-36" x="56.396484"/>
       <use xlink:href="#TimesNewRomanPSMT-30" x="106.396484"/>
      </g>
     </g>
    </g>
    <g id="ytick_2">
     <g id="line2d_7">
      <g>
       <use xlink:href="#m51f8b29acb" x="27.916563" y="60.108585" style="stroke: #000000; stroke-width: 0.5"/>
      </g>
     </g>
     <g id="text_8">
      <!-- −40 -->
      <g transform="translate(16.660938 61.497335) scale(0.04 -0.04)">
       <use xlink:href="#TimesNewRomanPSMT-2212"/>
       <use xlink:href="#TimesNewRomanPSMT-34" x="56.396484"/>
       <use xlink:href="#TimesNewRomanPSMT-30" x="106.396484"/>
      </g>
     </g>
    </g>
    <g id="ytick_3">
     <g id="line2d_8">
      <g>
       <use xlink:href="#m51f8b29acb" x="27.916563" y="51.171717" style="stroke: #000000; stroke-width: 0.5"/>
      </g>
     </g>
     <g id="text_9">
      <!-- −20 -->
      <g transform="translate(16.660938 52.560467) scale(0.04 -0.04)">
       <use xlink:href="#TimesNewRomanPSMT-2212"/>
       <use xlink:href="#TimesNewRomanPSMT-32" x="56.396484"/>
       <use xlink:href="#TimesNewRomanPSMT-30" x="106.396484"/>
      </g>
     </g>
    </g>
    <g id="ytick_4">
     <g id="line2d_9">
      <g>
       <use xlink:href="#m51f8b29acb" x="27.916563" y="42.234848" style="stroke: #000000; stroke-width: 0.5"/>
      </g>
     </g>
     <g id="text_10">
      <!-- 0 -->
      <g transform="translate(20.916563 43.623598) scale(0.04 -0.04)">
       <use xlink:href="#TimesNewRomanPSMT-30"/>
      </g>
     </g>
    </g>
    <g id="ytick_5">
     <g id="line2d_10">
      <g>
       <use xlink:href="#m51f8b29acb" x="27.916563" y="33.297979" style="stroke: #000000; stroke-width: 0.5"/>
      </g>
     </g>
     <g id="text_11">
      <!-- 20 -->
      <g transform="translate(18.916563 34.686729) scale(0.04 -0.04)">
       <use xlink:href="#TimesNewRomanPSMT-32"/>
       <use xlink:href="#TimesNewRomanPSMT-30" x="50"/>
      </g>
     </g>
    </g>
    <g id="ytick_6">
     <g id="line2d_11">
      <g>
       <use xlink:href="#m51f8b29acb" x="27.916563" y="24.361111" style="stroke: #000000; stroke-width: 0.5"/>
      </g>
     </g>
     <g id="text_12">
      <!-- 40 -->
      <g transform="translate(18.916563 25.749861) scale(0.04 -0.04)">
       <use xlink:href="#TimesNewRomanPSMT-34"/>
       <use xlink:href="#TimesNewRomanPSMT-30" x="50"/>
      </g>
     </g>
    </g>
    <g id="ytick_7">
     <g id="line2d_12">
      <g>
       <use xlink:href="#m51f8b29acb" x="27.916563" y="15.424242" style="stroke: #000000; stroke-width: 0.5"/>
      </g>
     </g>
     <g id="text_13">
      <!-- 60 -->
      <g transform="translate(18.916563 16.812992) scale(0.04 -0.04)">
       <use xlink:href="#TimesNewRomanPSMT-36"/>
       <use xlink:href="#TimesNewRomanPSMT-30" x="50"/>
      </g>
     </g>
    </g>
    <g id="text_14">
     <!-- Amplitude [mT/m, μT] -->
     <g transform="translate(11.36625 70.087973) rotate(-90) scale(0.06 -0.06)">
      <defs>
       <path id="TimesNewRomanPSMT-41" d="M 2928 1419 
L 1288 1419 
L 1000 750 
Q 894 503 894 381 
Q 894 284 986 211 
Q 1078 138 1384 116 
L 1384 0 
L 50 0 
L 50 116 
Q 316 163 394 238 
Q 553 388 747 847 
L 2238 4334 
L 2347 4334 
L 3822 809 
Q 4000 384 4145 257 
Q 4291 131 4550 116 
L 4550 0 
L 2878 0 
L 2878 116 
Q 3131 128 3220 200 
Q 3309 272 3309 375 
Q 3309 513 3184 809 
L 2928 1419 
z
M 2841 1650 
L 2122 3363 
L 1384 1650 
L 2841 1650 
z
" transform="scale(0.015625)"/>
       <path id="TimesNewRomanPSMT-70" d="M -6 2578 
L 875 2934 
L 994 2934 
L 994 2266 
Q 1216 2644 1439 2795 
Q 1663 2947 1909 2947 
Q 2341 2947 2628 2609 
Q 2981 2197 2981 1534 
Q 2981 794 2556 309 
Q 2206 -88 1675 -88 
Q 1444 -88 1275 -22 
Q 1150 25 994 166 
L 994 -706 
Q 994 -1000 1030 -1079 
Q 1066 -1159 1155 -1206 
Q 1244 -1253 1478 -1253 
L 1478 -1369 
L -22 -1369 
L -22 -1253 
L 56 -1253 
Q 228 -1256 350 -1188 
Q 409 -1153 442 -1076 
Q 475 -1000 475 -688 
L 475 2019 
Q 475 2297 450 2372 
Q 425 2447 370 2484 
Q 316 2522 222 2522 
Q 147 2522 31 2478 
L -6 2578 
z
M 994 2081 
L 994 1013 
Q 994 666 1022 556 
Q 1066 375 1236 237 
Q 1406 100 1666 100 
Q 1978 100 2172 344 
Q 2425 663 2425 1241 
Q 2425 1897 2138 2250 
Q 1938 2494 1663 2494 
Q 1513 2494 1366 2419 
Q 1253 2363 994 2081 
z
" transform="scale(0.015625)"/>
       <path id="TimesNewRomanPSMT-6c" d="M 1184 4444 
L 1184 647 
Q 1184 378 1223 290 
Q 1263 203 1344 158 
Q 1425 113 1647 113 
L 1647 0 
L 244 0 
L 244 113 
Q 441 113 512 153 
Q 584 194 625 287 
Q 666 381 666 647 
L 666 3247 
Q 666 3731 644 3842 
Q 622 3953 573 3993 
Q 525 4034 450 4034 
Q 369 4034 244 3984 
L 191 4094 
L 1044 4444 
L 1184 4444 
z
" transform="scale(0.015625)"/>
       <path id="TimesNewRomanPSMT-74" d="M 1031 3803 
L 1031 2863 
L 1700 2863 
L 1700 2644 
L 1031 2644 
L 1031 788 
Q 1031 509 1111 412 
Q 1191 316 1316 316 
Q 1419 316 1516 380 
Q 1613 444 1666 569 
L 1788 569 
Q 1678 263 1478 108 
Q 1278 -47 1066 -47 
Q 922 -47 784 33 
Q 647 113 581 261 
Q 516 409 516 719 
L 516 2644 
L 63 2644 
L 63 2747 
Q 234 2816 414 2980 
Q 594 3144 734 3369 
Q 806 3488 934 3803 
L 1031 3803 
z
" transform="scale(0.015625)"/>
       <path id="TimesNewRomanPSMT-75" d="M 2709 2863 
L 2709 1128 
Q 2709 631 2732 520 
Q 2756 409 2807 365 
Q 2859 322 2928 322 
Q 3025 322 3147 375 
L 3191 266 
L 2334 -88 
L 2194 -88 
L 2194 519 
Q 1825 119 1631 15 
Q 1438 -88 1222 -88 
Q 981 -88 804 51 
Q 628 191 559 409 
Q 491 628 491 1028 
L 491 2306 
Q 491 2509 447 2587 
Q 403 2666 317 2708 
Q 231 2750 6 2747 
L 6 2863 
L 1009 2863 
L 1009 947 
Q 1009 547 1148 422 
Q 1288 297 1484 297 
Q 1619 297 1789 381 
Q 1959 466 2194 703 
L 2194 2325 
Q 2194 2569 2105 2655 
Q 2016 2741 1734 2747 
L 1734 2863 
L 2709 2863 
z
" transform="scale(0.015625)"/>
       <path id="TimesNewRomanPSMT-64" d="M 2222 322 
Q 2013 103 1813 7 
Q 1613 -88 1381 -88 
Q 913 -88 563 304 
Q 213 697 213 1313 
Q 213 1928 600 2439 
Q 988 2950 1597 2950 
Q 1975 2950 2222 2709 
L 2222 3238 
Q 2222 3728 2198 3840 
Q 2175 3953 2125 3993 
Q 2075 4034 2000 4034 
Q 1919 4034 1784 3984 
L 1744 4094 
L 2597 4444 
L 2738 4444 
L 2738 1134 
Q 2738 631 2761 520 
Q 2784 409 2836 365 
Q 2888 322 2956 322 
Q 3041 322 3181 375 
L 3216 266 
L 2366 -88 
L 2222 -88 
L 2222 322 
z
M 2222 541 
L 2222 2016 
Q 2203 2228 2109 2403 
Q 2016 2578 1861 2667 
Q 1706 2756 1559 2756 
Q 1284 2756 1069 2509 
Q 784 2184 784 1559 
Q 784 928 1059 592 
Q 1334 256 1672 256 
Q 1956 256 2222 541 
z
" transform="scale(0.015625)"/>
       <path id="TimesNewRomanPSMT-5b" d="M 1900 -1269 
L 525 -1269 
L 525 4334 
L 1900 4334 
L 1900 4088 
L 994 4088 
L 994 -1025 
L 1900 -1025 
L 1900 -1269 
z
" transform="scale(0.015625)"/>
       <path id="TimesNewRomanPSMT-2f" d="M 1794 4444 
L 259 -88 
L 9 -88 
L 1544 4444 
L 1794 4444 
z
" transform="scale(0.015625)"/>
       <path id="TimesNewRomanPSMT-2c" d="M 344 -1066 
L 344 -928 
Q 666 -822 842 -598 
Q 1019 -375 1019 -125 
Q 1019 -66 991 -25 
Q 969 3 947 3 
Q 913 3 797 -59 
Q 741 -88 678 -88 
Q 525 -88 434 3 
Q 344 94 344 253 
Q 344 406 461 515 
Q 578 625 747 625 
Q 953 625 1114 445 
Q 1275 266 1275 -31 
Q 1275 -353 1051 -629 
Q 828 -906 344 -1066 
z
" transform="scale(0.015625)"/>
       <path id="TimesNewRomanPSMT-3bc" d="M 2275 519 
Q 1709 -88 1291 -88 
Q 1022 -88 791 119 
L 791 -47 
Q 791 -334 878 -625 
Q 978 -947 978 -1050 
Q 978 -1194 887 -1287 
Q 797 -1381 663 -1381 
Q 525 -1381 444 -1272 
Q 363 -1163 363 -1009 
Q 363 -897 444 -603 
Q 538 -278 538 28 
L 538 2863 
L 1053 2863 
L 1053 1009 
Q 1053 728 1101 597 
Q 1150 466 1273 383 
Q 1397 300 1553 300 
Q 1831 300 2275 681 
L 2275 2863 
L 2794 2863 
L 2794 691 
Q 2794 416 2850 311 
Q 2906 206 3041 206 
Q 3253 206 3316 622 
L 3428 622 
Q 3369 -88 2828 -88 
Q 2594 -88 2439 70 
Q 2284 228 2275 519 
z
" transform="scale(0.015625)"/>
       <path id="TimesNewRomanPSMT-5d" d="M 234 4334 
L 1609 4334 
L 1609 -1272 
L 234 -1272 
L 234 -1025 
L 1141 -1025 
L 1141 4088 
L 234 4088 
L 234 4334 
z
" transform="scale(0.015625)"/>
      </defs>
      <use xlink:href="#TimesNewRomanPSMT-41"/>
      <use xlink:href="#TimesNewRomanPSMT-6d" x="72.216797"/>
      <use xlink:href="#TimesNewRomanPSMT-70" x="150"/>
      <use xlink:href="#TimesNewRomanPSMT-6c" x="200"/>
      <use xlink:href="#TimesNewRomanPSMT-69" x="227.783203"/>
      <use xlink:href="#TimesNewRomanPSMT-74" x="255.566406"/>
      <use xlink:href="#TimesNewRomanPSMT-75" x="283.349609"/>
      <use xlink:href="#TimesNewRomanPSMT-64" x="333.349609"/>
      <use xlink:href="#TimesNewRomanPSMT-65" x="383.349609"/>
      <use xlink:href="#TimesNewRomanPSMT-20" x="427.734375"/>
      <use xlink:href="#TimesNewRomanPSMT-5b" x="452.734375"/>
      <use xlink:href="#TimesNewRomanPSMT-6d" x="486.035156"/>
      <use xlink:href="#TimesNewRomanPSMT-54" x="563.818359"/>
      <use xlink:href="#TimesNewRomanPSMT-2f" x="624.902344"/>
      <use xlink:href="#TimesNewRomanPSMT-6d" x="652.685547"/>
      <use xlink:href="#TimesNewRomanPSMT-2c" x="730.46875"/>
      <use xlink:href="#TimesNewRomanPSMT-20" x="755.46875"/>
      <use xlink:href="#TimesNewRomanPSMT-3bc" x="780.46875"/>
      <use xlink:href="#TimesNewRomanPSMT-54" x="834.082031"/>
      <use xlink:href="#TimesNewRomanPSMT-5d" x="895.166016"/>
     </g>
    </g>
   </g>
   <g id="line2d_13">
    <path d="M 27.916563 42.234848 
L 261.826563 42.234848 
" clip-path="url(#p8492b3b263)" style="fill: none; stroke: #555555; stroke-width: 0.5; stroke-linecap: square"/>
   </g>
   <g id="line2d_14">
    <path d="M 103.63954 42.234848 
L 103.715567 41.417483 
L 104.019675 44.28964 
L 104.121045 44.021453 
L 104.374468 41.128166 
L 104.627892 39.005907 
L 104.678577 38.950871 
L 104.729261 39.032598 
L 104.881315 40.015264 
L 105.590902 46.426779 
L 105.692271 46.104936 
L 105.89501 44.389218 
L 106.604596 37.309256 
L 106.705966 37.313862 
L 106.85802 37.976447 
L 107.111443 40.47858 
L 107.770345 47.548782 
L 107.922399 47.863141 
L 108.023768 47.676487 
L 108.226507 46.419114 
L 108.631985 41.621556 
L 109.088148 36.766405 
L 109.290886 36.026386 
L 109.392256 36.083238 
L 109.54431 36.694695 
L 109.797734 38.914977 
L 110.760743 48.858865 
L 110.862113 48.997297 
L 110.912798 48.96706 
L 111.064852 48.485871 
L 111.318275 46.518879 
L 111.977177 38.378191 
L 112.33197 35.443642 
L 112.534709 34.971589 
L 112.636078 35.103969 
L 112.838817 36.078834 
L 113.142925 39.008888 
L 114.105935 49.48804 
L 114.308674 49.966784 
L 114.410044 49.860003 
L 114.562098 49.275679 
L 114.815521 47.291652 
L 115.373053 40.406574 
L 115.879901 35.151557 
L 116.133324 34.111926 
L 116.234694 34.071887 
L 116.386748 34.420614 
L 116.640171 36.018366 
L 117.045649 40.526536 
L 117.856605 49.688984 
L 118.110028 50.755422 
L 118.211398 50.825346 
L 118.262083 50.782007 
L 118.414137 50.343604 
L 118.66756 48.658927 
L 119.073038 44.131281 
L 119.883994 34.757088 
L 120.188102 33.331155 
L 120.340156 33.272197 
L 120.49221 33.658804 
L 120.745634 35.22833 
L 121.151112 39.586993 
L 122.114122 50.474551 
L 122.367545 51.519634 
L 122.519599 51.584566 
L 122.671654 51.221649 
L 122.925077 49.722368 
L 123.330555 45.491333 
L 124.394934 33.530122 
L 124.648358 32.563181 
L 124.800412 32.525903 
L 124.952466 32.900104 
L 125.20589 34.385162 
L 125.611367 38.549433 
L 126.726431 51.175451 
L 127.03054 52.296679 
L 127.182594 52.267364 
L 127.334648 51.842178 
L 127.588072 50.308159 
L 127.993549 46.137314 
L 129.159298 32.958716 
L 129.463406 31.837692 
L 129.615461 31.847645 
L 129.767515 32.241184 
L 130.020938 33.702069 
L 130.426416 37.747345 
L 131.693534 51.958873 
L 131.997643 52.979756 
L 132.149697 52.935427 
L 132.301751 52.519844 
L 132.555175 51.048531 
L 132.960652 47.032444 
L 134.32914 31.96018 
L 134.582564 31.180499 
L 134.734618 31.192867 
L 134.886672 31.566586 
L 135.140096 32.952634 
L 135.545573 36.829868 
L 137.01543 52.907073 
L 137.268854 53.615886 
L 137.420908 53.573111 
L 137.623647 52.971931 
L 137.927755 50.985867 
L 138.383918 46.110451 
L 139.600351 32.153594 
L 139.90446 30.735192 
L 140.107198 30.5329 
L 140.259253 30.78238 
L 140.512676 31.936931 
L 140.867469 34.920886 
L 141.526371 43.035979 
L 142.286642 51.679443 
L 142.641435 53.79288 
L 142.894858 54.242037 
L 143.046912 54.064696 
L 143.249651 53.316438 
L 143.55376 51.184883 
L 144.060607 45.598218 
L 145.226356 32.040581 
L 145.581149 30.212311 
L 145.783888 29.938361 
L 145.935942 30.11525 
L 146.138681 30.851224 
L 146.442789 32.944843 
L 146.949636 38.457039 
L 148.16607 52.642301 
L 148.520863 54.502365 
L 148.723602 54.813729 
L 148.875656 54.673521 
L 149.078395 53.995716 
L 149.382503 52.000098 
L 149.838665 47.249304 
L 151.257838 31.023953 
L 151.612631 29.516103 
L 151.764685 29.379443 
L 151.916739 29.556534 
L 152.119478 30.271602 
L 152.423586 32.297711 
L 152.879749 37.051224 
L 154.349606 53.781057 
L 154.704399 55.236531 
L 154.856453 55.360163 
L 155.008507 55.176515 
L 155.211246 54.462621 
L 155.515354 52.456257 
L 155.971517 47.751185 
L 157.492059 30.442557 
L 157.846852 28.979982 
L 158.049591 28.864494 
L 158.201645 29.128756 
L 158.455068 30.21753 
L 158.809862 32.971779 
L 159.367393 39.389882 
L 160.533142 53.09626 
L 160.93862 55.435943 
L 161.192044 55.885984 
L 161.344098 55.7628 
L 161.546837 55.144751 
L 161.850945 53.30187 
L 162.307107 48.82803 
L 164.081073 29.310114 
L 164.385181 28.382367 
L 164.537235 28.348983 
L 164.689289 28.605213 
L 164.942713 29.658043 
L 165.297506 32.328125 
L 165.855038 38.613847 
L 167.122156 53.545616 
L 167.527634 55.893654 
L 167.781058 56.3867 
L 167.933112 56.303576 
L 168.135851 55.753567 
L 168.439959 54.034958 
L 168.896122 49.753097 
L 169.808447 38.158436 
L 170.518033 30.610536 
L 170.92351 28.311845 
L 171.176934 27.835579 
L 171.328988 27.922404 
L 171.531727 28.469863 
L 171.835836 30.170526 
L 172.291998 34.407199 
L 173.153638 45.323428 
L 173.913909 53.704165 
L 174.319387 56.206029 
L 174.572811 56.839082 
L 174.724865 56.853838 
L 174.876919 56.593631 
L 175.130343 55.565019 
L 175.485136 52.979239 
L 176.042668 46.853501 
L 177.46184 30.16466 
L 177.867318 27.86828 
L 178.120741 27.36172 
L 178.272795 27.418158 
L 178.475534 27.912175 
L 178.779643 29.511595 
L 179.18512 33.046565 
L 179.894707 41.706356 
L 180.857716 53.164204 
L 181.313879 56.365805 
L 181.617987 57.282215 
L 181.770041 57.344484 
L 181.922096 57.139978 
L 182.175519 56.218697 
L 182.530312 53.798198 
L 183.037159 48.509502 
L 184.76044 28.81744 
L 185.115233 27.195169 
L 185.317972 26.890302 
L 185.470026 26.968097 
L 185.672765 27.477569 
L 185.976873 29.073835 
L 186.382351 32.568221 
L 187.041253 40.486251 
L 188.156317 53.779067 
L 188.612479 56.875339 
L 188.916587 57.748762 
L 189.068642 57.800688 
L 189.220696 57.593696 
L 189.474119 56.685038 
L 189.828912 54.311039 
L 190.33576 49.11255 
L 192.16041 28.323531 
L 192.515203 26.739158 
L 192.717942 26.439114 
L 192.869996 26.511791 
L 193.072735 27.003147 
L 193.376843 28.551319 
L 193.782321 31.958185 
L 194.441222 39.761328 
L 195.657656 54.266892 
L 196.113818 57.315615 
L 196.417927 58.18751 
L 196.569981 58.249402 
L 196.722035 58.059488 
L 196.975458 57.193646 
L 197.330252 54.901855 
L 197.837099 49.829914 
L 199.813803 27.59741 
L 200.168596 26.199196 
L 200.371335 25.994371 
L 200.523389 26.130637 
L 200.726128 26.694651 
L 201.030236 28.323821 
L 201.486399 32.309916 
L 202.195985 40.933827 
L 203.311049 54.237762 
L 203.767211 57.476565 
L 204.07132 58.5249 
L 204.274059 58.687201 
L 204.426113 58.522833 
L 204.628852 57.92709 
L 204.93296 56.263289 
L 205.389123 52.252417 
L 206.098709 43.627848 
L 207.213773 30.260685 
L 207.72062 26.676334 
L 208.024728 25.697932 
L 208.227467 25.576878 
L 208.379521 25.768472 
L 208.632945 26.616248 
L 208.987738 28.846094 
L 209.494585 33.794175 
L 210.50828 46.729471 
L 211.268551 55.088178 
L 211.724713 58.103998 
L 212.028821 59.012361 
L 212.23156 59.092043 
L 212.383615 58.873046 
L 212.637038 57.987414 
L 212.991831 55.721664 
L 213.498678 50.752802 
L 214.512373 37.814047 
L 215.272644 29.392042 
L 215.728806 26.286826 
L 216.032915 25.297134 
L 216.235654 25.155249 
L 216.387708 25.324416 
L 216.641131 26.123242 
L 216.995924 28.266799 
L 217.502772 33.084296 
L 218.415097 44.628853 
L 219.276737 54.618308 
L 219.783584 58.262047 
L 220.138377 59.414159 
L 220.341116 59.50942 
L 220.49317 59.308646 
L 220.746594 58.464606 
L 221.101387 56.274687 
L 221.608234 51.423393 
L 222.520559 39.871246 
L 223.432884 29.377555 
L 223.939732 25.874551 
L 224.24384 24.894365 
L 224.446579 24.746863 
L 224.598633 24.905439 
L 224.852057 25.675281 
L 225.20685 27.759185 
L 225.713697 32.47553 
L 226.575337 43.268324 
L 227.538347 54.660815 
L 228.045194 58.439013 
L 228.399987 59.733996 
L 228.602726 59.92671 
L 228.75478 59.805058 
L 228.957519 59.291093 
L 229.261628 57.794125 
L 229.667105 54.574476 
L 230.275322 47.760443 
L 231.947918 27.973447 
L 232.40408 25.202438 
L 232.708189 24.411268 
L 232.860243 24.351382 
L 233.012297 24.517133 
L 233.265721 25.287609 
L 233.620514 27.351201 
L 234.127361 32.011579 
L 234.938317 42.069839 
L 236.002696 54.818979 
L 236.509543 58.670566 
L 236.864336 60.056558 
L 237.11776 60.318222 
L 237.269814 60.177742 
L 237.472553 59.646667 
L 237.776661 58.140635 
L 238.232824 54.44929 
L 238.891725 46.885633 
L 240.462951 28.149487 
L 240.919114 25.133409 
L 241.273907 24.055154 
L 241.476646 23.972681 
L 241.6287 24.16835 
L 241.882124 24.977102 
L 242.236917 27.070221 
L 242.743764 31.732921 
L 243.55472 41.76462 
L 244.669784 55.135991 
L 245.176631 58.989229 
L 245.531424 60.405409 
L 245.784847 60.704972 
L 245.936902 60.59346 
L 246.139641 60.107421 
L 246.443749 58.67961 
L 246.849227 55.586818 
L 247.457443 48.96329 
L 249.332778 26.946086 
L 249.788941 24.339069 
L 250.093049 23.623011 
L 250.245103 23.587459 
L 250.397157 23.768194 
L 250.650581 24.543003 
L 251.005374 26.573692 
L 251.461536 30.728803 
L 252.373862 40.69519 
L 252.67797 41.895138 
L 252.931393 42.212049 
L 253.210159 42.234848 
M 253.210159 42.234848 
L 253.210159 42.24142 
L 261.826563 42.234848 
L 261.826563 42.234848 
" clip-path="url(#p8492b3b263)" style="fill: none; stroke: #636efa; stroke-width: 0.5; stroke-linecap: square"/>
   </g>
   <g id="line2d_15">
    <path d="M 103.63954 42.234848 
L 103.816936 40.860801 
L 103.918306 41.28258 
L 104.323784 44.958243 
L 104.425153 44.610671 
L 104.678577 41.836003 
L 105.03337 38.53941 
L 105.084054 38.463586 
L 105.134739 38.507091 
L 105.286793 39.307311 
L 105.641586 43.518545 
L 105.996379 46.685391 
L 106.097749 46.835455 
L 106.148434 46.764466 
L 106.300488 45.999275 
L 106.604596 42.660754 
L 107.111443 37.305988 
L 107.263497 36.925719 
L 107.364867 37.092137 
L 107.567606 38.361334 
L 107.973084 43.220708 
L 108.429246 47.742574 
L 108.631985 48.152504 
L 108.733354 47.90763 
L 108.936093 46.588638 
L 109.341571 41.790473 
L 109.848418 36.429448 
L 110.051157 35.746091 
L 110.152527 35.813982 
L 110.304581 36.419846 
L 110.558005 38.591431 
L 111.571699 49.098983 
L 111.723753 49.231297 
L 111.875807 48.7942 
L 112.129231 46.924394 
L 112.636078 40.698929 
L 113.142925 35.538801 
L 113.396349 34.735001 
L 113.497719 34.827327 
L 113.649773 35.403486 
L 113.903196 37.402977 
L 114.460728 44.316762 
L 114.967576 49.36152 
L 115.220999 50.184922 
L 115.322369 50.124336 
L 115.474423 49.61803 
L 115.727846 47.768346 
L 116.184009 42.342174 
L 116.84291 35.049817 
L 117.096334 33.932501 
L 117.197703 33.849976 
L 117.248388 33.888948 
L 117.400442 34.322024 
L 117.653866 36.020116 
L 118.110028 41.249547 
L 118.819615 49.423759 
L 119.123723 50.923449 
L 119.275777 51.007183 
L 119.427831 50.635041 
L 119.681255 49.068011 
L 120.086733 44.68311 
L 120.999058 34.288936 
L 121.303166 33.083447 
L 121.404535 33.064008 
L 121.55659 33.398832 
L 121.810013 34.872896 
L 122.215491 39.104755 
L 123.229185 50.619926 
L 123.533294 51.765644 
L 123.634663 51.779317 
L 123.786717 51.450034 
L 124.040141 50.017655 
L 124.445619 45.885298 
L 125.560683 33.347269 
L 125.814106 32.386959 
L 125.966161 32.343947 
L 126.118215 32.705245 
L 126.371638 34.156349 
L 126.777116 38.25878 
L 127.942865 51.406218 
L 128.246973 52.476741 
L 128.348343 52.489897 
L 128.500397 52.18365 
L 128.75382 50.84361 
L 129.108613 47.499681 
L 130.527786 32.171349 
L 130.781209 31.627333 
L 130.882579 31.704318 
L 131.085318 32.357301 
L 131.389426 34.485041 
L 131.845589 39.591944 
L 132.859283 51.333541 
L 133.214076 53.032245 
L 133.36613 53.165457 
L 133.518184 52.930243 
L 133.720923 52.059995 
L 134.025032 49.683172 
L 134.582564 43.069557 
L 135.444204 33.150188 
L 135.798997 31.239237 
L 136.001736 30.987078 
L 136.15379 31.215548 
L 136.356529 32.062146 
L 136.660637 34.381853 
L 137.167484 40.242535 
L 138.130494 51.498106 
L 138.485287 53.476815 
L 138.688026 53.794367 
L 138.84008 53.626003 
L 139.042819 52.870042 
L 139.346928 50.693003 
L 139.853775 45.00621 
L 140.918154 32.575043 
L 141.272947 30.668544 
L 141.475686 30.374996 
L 141.62774 30.551161 
L 141.830479 31.304074 
L 142.134587 33.453141 
L 142.641435 39.075499 
L 143.756499 52.128174 
L 144.111292 54.058588 
L 144.314031 54.386722 
L 144.466085 54.246076 
L 144.668824 53.550945 
L 144.972932 51.500734 
L 145.429094 46.647676 
L 146.746897 31.515374 
L 147.10169 29.944333 
L 147.304429 29.819061 
L 147.456483 30.102645 
L 147.709907 31.269466 
L 148.0647 34.197733 
L 148.672917 41.528157 
L 149.585242 52.149855 
L 149.99072 54.542558 
L 150.244143 54.952844 
L 150.396197 54.776919 
L 150.598936 54.058315 
L 150.903045 52.017996 
L 151.359207 47.235458 
L 152.778379 30.967482 
L 153.133172 29.408302 
L 153.335911 29.25686 
L 153.487966 29.505051 
L 153.741389 30.587574 
L 154.096182 33.368092 
L 154.653714 39.851305 
L 155.718093 52.467597 
L 156.123571 54.961589 
L 156.376995 55.488175 
L 156.529049 55.399775 
L 156.731788 54.813751 
L 157.035896 52.989215 
L 157.492059 48.494943 
L 159.164655 29.869069 
L 159.468763 28.808032 
L 159.620817 28.718089 
L 159.772871 28.926341 
L 159.97561 29.658546 
L 160.279719 31.66417 
L 160.735881 36.329244 
L 162.357792 54.599553 
L 162.661901 55.827391 
L 162.864639 56.009244 
L 163.016694 55.804289 
L 163.219432 55.084612 
L 163.523541 53.111651 
L 163.979703 48.506846 
L 165.652299 29.648538 
L 165.956408 28.407238 
L 166.159146 28.204338 
L 166.311201 28.387433 
L 166.51394 29.071037 
L 166.818048 30.98005 
L 167.27421 35.490093 
L 169.048176 55.273379 
L 169.352284 56.379503 
L 169.555023 56.499301 
L 169.707077 56.259916 
L 169.960501 55.24982 
L 170.315294 52.660012 
L 170.872826 46.492258 
L 172.241313 30.429207 
L 172.646791 28.169952 
L 172.900215 27.712468 
L 173.052269 27.807544 
L 173.255008 28.362209 
L 173.559116 30.065894 
L 174.015279 34.294245 
L 174.876919 45.200531 
L 175.63719 53.650958 
L 176.042668 56.234268 
L 176.346776 56.981484 
L 176.49883 56.94763 
L 176.701569 56.479874 
L 177.005677 54.910593 
L 177.411155 51.398508 
L 178.120741 42.746519 
L 179.083751 31.313307 
L 179.539914 28.157695 
L 179.844022 27.28656 
L 179.996076 27.250633 
L 180.14813 27.483377 
L 180.401554 28.454355 
L 180.756347 30.944405 
L 181.263194 36.313476 
L 182.93579 55.471096 
L 183.290583 57.135423 
L 183.544007 57.469036 
L 183.696061 57.316376 
L 183.8988 56.706252 
L 184.202908 54.964075 
L 184.659071 50.756217 
L 185.470026 40.564951 
L 186.331667 30.661548 
L 186.787829 27.629425 
L 187.091937 26.813857 
L 187.243992 26.794399 
L 187.396046 27.035507 
L 187.649469 28.002989 
L 188.004262 30.457648 
L 188.51111 35.748783 
L 190.285075 55.990778 
L 190.639868 57.603846 
L 190.893292 57.923811 
L 191.045346 57.77314 
L 191.248085 57.177168 
L 191.552193 55.477382 
L 192.008356 51.359568 
L 192.768626 41.927303 
L 193.731636 30.598196 
L 194.187799 27.406355 
L 194.491907 26.433839 
L 194.694646 26.342245 
L 194.8467 26.56916 
L 195.100124 27.498327 
L 195.454917 29.876494 
L 195.961764 35.048806 
L 197.887784 56.734657 
L 198.242577 58.153611 
L 198.445315 58.366795 
L 198.59737 58.234855 
L 198.800109 57.673956 
L 199.104217 56.044124 
L 199.560379 52.04822 
L 200.269966 43.407906 
L 201.334345 30.625725 
L 201.841192 26.998038 
L 202.1453 26.013523 
L 202.348039 25.898729 
L 202.500093 26.100495 
L 202.753517 26.974776 
L 203.10831 29.257152 
L 203.615157 34.289798 
L 205.693231 57.410399 
L 206.048024 58.660069 
L 206.250763 58.788147 
L 206.402817 58.60001 
L 206.656241 57.754518 
L 207.011034 55.521347 
L 207.517881 50.560384 
L 208.58226 36.977219 
L 209.291846 29.320865 
L 209.748009 26.378876 
L 210.052117 25.533107 
L 210.204171 25.467749 
L 210.356226 25.643004 
L 210.609649 26.461083 
L 210.964442 28.647039 
L 211.471289 33.538201 
L 212.434299 45.794763 
L 213.245255 54.916116 
L 213.701417 58.053883 
L 214.005526 59.061382 
L 214.208265 59.212333 
L 214.360319 59.048294 
L 214.613742 58.254699 
L 214.968535 56.111979 
L 215.475383 51.286466 
L 216.387708 39.732084 
L 217.249348 29.791588 
L 217.756195 26.21704 
L 218.060304 25.208329 
L 218.263042 25.050249 
L 218.415097 25.205649 
L 218.617836 25.773898 
L 218.921944 27.367785 
L 219.378106 31.23547 
L 220.087693 39.684086 
L 221.354811 54.911257 
L 221.861658 58.458673 
L 222.165766 59.4626 
L 222.368505 59.623463 
L 222.520559 59.473338 
L 222.723298 58.916137 
L 223.027406 57.346116 
L 223.483569 53.523519 
L 224.14247 45.789005 
L 225.510958 29.305188 
L 226.017805 25.795178 
L 226.321914 24.803502 
L 226.524652 24.645194 
L 226.676707 24.794151 
L 226.879445 25.345804 
L 227.183554 26.89996 
L 227.639716 30.687747 
L 228.298618 38.37632 
L 229.71779 55.442207 
L 230.224637 58.902399 
L 230.528746 59.872995 
L 230.731484 60.022494 
L 230.883539 59.869921 
L 231.136962 59.118182 
L 231.491755 57.073581 
L 231.947918 52.968156 
L 232.708189 43.708805 
L 233.873937 29.643629 
L 234.380785 25.829545 
L 234.735578 24.481807 
L 234.938317 24.248635 
L 235.090371 24.33552 
L 235.29311 24.798165 
L 235.597218 26.210775 
L 236.002696 29.315015 
L 236.610912 35.990376 
L 238.384878 56.915913 
L 238.84104 59.609843 
L 239.145149 60.361894 
L 239.297203 60.407263 
L 239.449257 60.230664 
L 239.702681 59.450366 
L 240.057474 57.389097 
L 240.564321 52.75502 
L 241.375276 42.736352 
L 242.49034 29.37 
L 242.997188 25.534764 
L 243.351981 24.140359 
L 243.605404 23.860795 
L 243.757458 23.985848 
L 243.960197 24.491362 
L 244.264306 25.95037 
L 244.669784 29.08491 
L 245.278 35.758606 
L 247.10265 57.265687 
L 247.558813 59.958503 
L 247.862921 60.731947 
L 248.06566 60.767744 
L 248.268399 60.417831 
L 248.521823 59.450157 
L 248.876616 57.16733 
L 249.383463 52.312466 
L 250.295788 40.830518 
L 251.309482 28.911514 
L 251.613591 27.150383 
L 251.71496 27.093623 
L 251.867014 27.498732 
L 252.120438 29.275785 
L 252.627285 35.148595 
L 253.210159 42.234848 
M 253.210159 42.234848 
L 253.210159 41.829295 
L 261.826563 42.234848 
L 261.826563 42.234848 
" clip-path="url(#p8492b3b263)" style="fill: none; stroke: #ef553b; stroke-width: 0.5; stroke-linecap: square"/>
   </g>
   <g id="line2d_16">
    <path d="M 69.072558 42.234848 
L 70.846523 12.249641 
L 70.846523 12.249641 
L 72.620489 42.234848 
M 72.620489 42.234848 
L 73.228706 31.740015 
L 83.36565 31.740015 
L 83.973867 42.234848 
M 83.973867 42.234848 
L 85.798517 73.136254 
L 85.798517 73.136254 
L 87.623167 42.234848 
M 253.210159 42.234848 
L 254.984125 11.139077 
L 260.052597 11.139077 
L 261.826563 42.234848 
" clip-path="url(#p8492b3b263)" style="fill: none; stroke: #00cc96; stroke-width: 0.5; stroke-linecap: square"/>
   </g>
   <g id="line2d_17">
    <path d="M 28.42341 42.234848 
L 43.578142 42.127175 
L 43.679512 42.10343 
L 44.186359 42.004324 
L 44.287728 41.960137 
L 44.642521 41.851662 
L 44.743891 41.786329 
L 44.997314 41.686692 
L 45.098684 41.602119 
L 45.301423 41.508851 
L 45.402792 41.4068 
L 45.605531 41.296033 
L 45.706901 41.176794 
L 45.858955 41.092801 
L 45.960324 40.96051 
L 46.112378 40.868454 
L 46.213748 40.725293 
L 46.365802 40.626961 
L 46.467171 40.476109 
L 46.619226 40.373949 
L 46.720595 40.21954 
L 46.872649 40.116594 
L 46.974019 39.963575 
L 47.126073 39.863359 
L 47.227442 39.717258 
L 47.379496 39.623578 
L 47.480866 39.490189 
L 47.63292 39.406906 
L 47.734289 39.291919 
L 47.937028 39.190512 
L 48.038398 39.104381 
L 48.342506 38.998661 
L 48.443876 38.959735 
L 49.254831 39.056186 
L 49.356201 39.131298 
L 49.55894 39.222696 
L 49.660309 39.328829 
L 49.812363 39.406906 
L 49.913733 39.533598 
L 50.065787 39.623578 
L 50.167156 39.765292 
L 50.31921 39.863359 
L 50.42058 40.014297 
L 50.572634 40.116594 
L 50.674003 40.271079 
L 50.826058 40.373949 
L 50.927427 40.52677 
L 51.079481 40.626961 
L 51.180851 40.773636 
L 51.332905 40.868454 
L 51.434274 41.005411 
L 51.586328 41.092801 
L 51.687698 41.217459 
L 51.839752 41.296033 
L 51.941122 41.4068 
L 52.14386 41.508851 
L 52.24523 41.602119 
L 52.498654 41.712985 
L 52.600023 41.786329 
L 52.904131 41.890985 
L 53.005501 41.943986 
L 53.461663 42.054077 
L 53.563033 42.085256 
L 54.576727 42.195593 
L 54.678097 42.203757 
L 68.920504 42.234848 
L 68.920504 42.234848 
M 73.23124 42.234848 
L 73.337678 42.216256 
L 73.864799 42.105305 
L 73.971237 42.075429 
L 74.346304 41.964656 
L 74.452742 41.930795 
L 75.577942 42.041432 
L 75.68438 42.146269 
L 75.912462 42.039061 
L 76.0189 41.858327 
L 76.08479 41.748924 
L 76.191228 41.528978 
L 76.246981 41.420973 
L 76.353419 41.166688 
L 76.404103 41.056434 
L 76.510541 40.773148 
L 76.556158 40.665727 
L 76.662596 40.360018 
L 76.703143 40.260021 
L 76.809581 39.939266 
L 76.850129 39.835648 
L 76.956567 39.507462 
L 76.997115 39.402791 
L 77.103553 39.075616 
L 77.1441 38.972675 
L 77.250538 38.65546 
L 77.291086 38.557139 
L 77.397524 38.258996 
L 77.44314 38.155381 
L 77.549578 37.886325 
L 77.600263 37.783785 
L 77.706701 37.554085 
L 77.767523 37.451385 
L 77.87396 37.272645 
L 77.960124 37.166511 
L 78.066562 37.055525 
L 78.644368 37.166511 
L 78.750806 37.317727 
L 78.821765 37.424874 
L 78.928203 37.633999 
L 78.983956 37.739746 
L 79.090394 37.993391 
L 79.13601 38.092102 
L 79.242448 38.378781 
L 79.288064 38.487848 
L 79.394502 38.798273 
L 79.43505 38.899655 
L 79.541488 39.223812 
L 79.582036 39.328113 
L 79.688474 39.656941 
L 79.729021 39.761321 
L 79.835459 40.086128 
L 79.876007 40.187917 
L 79.982445 40.500712 
L 80.028061 40.611218 
L 80.134499 40.904225 
L 80.180115 41.00634 
L 80.286553 41.273402 
L 80.337238 41.376415 
L 80.443676 41.611811 
L 80.504498 41.720395 
L 80.610936 41.918631 
L 80.681894 42.023698 
L 80.788332 42.180959 
L 80.991071 42.072192 
L 81.097509 41.9834 
L 81.315453 41.873798 
L 81.421891 41.843901 
L 82.22271 41.953759 
L 82.329148 41.988144 
L 82.714352 42.098711 
L 82.820789 42.12683 
L 83.363116 42.233581 
L 83.363116 42.234848 
" clip-path="url(#p8492b3b263)" style="fill: none; stroke: #ab63fa; stroke-width: 0.5; stroke-linecap: square"/>
   </g>
   <g id="legend_1">
    <g id="line2d_18">
     <path d="M 32.416563 10.95 
L 34.916563 10.95 
L 37.416563 10.95 
" style="fill: none; stroke: #636efa; stroke-width: 0.5; stroke-linecap: square"/>
    </g>
    <g id="text_15">
     <!-- $G_{x}$ -->
     <g transform="translate(39.916563 12.7) scale(0.05 -0.05)">
      <defs>
       <path id="TimesNewRomanPSMT-47" d="M 3928 4334 
L 4038 2997 
L 3928 2997 
Q 3763 3497 3500 3750 
Q 3122 4116 2528 4116 
Q 1719 4116 1297 3475 
Q 944 2934 944 2188 
Q 944 1581 1178 1081 
Q 1413 581 1792 348 
Q 2172 116 2572 116 
Q 2806 116 3025 175 
Q 3244 234 3447 350 
L 3447 1575 
Q 3447 1894 3398 1992 
Q 3350 2091 3248 2142 
Q 3147 2194 2891 2194 
L 2891 2313 
L 4531 2313 
L 4531 2194 
L 4453 2194 
Q 4209 2194 4119 2031 
Q 4056 1916 4056 1575 
L 4056 278 
Q 3697 84 3347 -6 
Q 2997 -97 2569 -97 
Q 1341 -97 703 691 
Q 225 1281 225 2053 
Q 225 2613 494 3125 
Q 813 3734 1369 4063 
Q 1834 4334 2469 4334 
Q 2700 4334 2889 4296 
Q 3078 4259 3425 4131 
Q 3600 4066 3659 4066 
Q 3719 4066 3761 4120 
Q 3803 4175 3813 4334 
L 3928 4334 
z
" transform="scale(0.015625)"/>
       <path id="TimesNewRomanPSMT-78" d="M 84 2863 
L 1431 2863 
L 1431 2747 
Q 1303 2747 1251 2703 
Q 1200 2659 1200 2588 
Q 1200 2513 1309 2356 
Q 1344 2306 1413 2200 
L 1616 1875 
L 1850 2200 
Q 2075 2509 2075 2591 
Q 2075 2656 2022 2701 
Q 1969 2747 1850 2747 
L 1850 2863 
L 2819 2863 
L 2819 2747 
Q 2666 2738 2553 2663 
Q 2400 2556 2134 2200 
L 1744 1678 
L 2456 653 
Q 2719 275 2831 198 
Q 2944 122 3122 113 
L 3122 0 
L 1772 0 
L 1772 113 
Q 1913 113 1991 175 
Q 2050 219 2050 291 
Q 2050 363 1850 653 
L 1431 1266 
L 972 653 
Q 759 369 759 316 
Q 759 241 829 180 
Q 900 119 1041 113 
L 1041 0 
L 106 0 
L 106 113 
Q 219 128 303 191 
Q 422 281 703 653 
L 1303 1450 
L 759 2238 
Q 528 2575 401 2661 
Q 275 2747 84 2747 
L 84 2863 
z
" transform="scale(0.015625)"/>
      </defs>
      <use xlink:href="#TimesNewRomanPSMT-47" transform="translate(0 0.28125)"/>
      <use xlink:href="#TimesNewRomanPSMT-78" transform="translate(73.719609 -25.48125) scale(0.7)"/>
     </g>
    </g>
    <g id="line2d_19">
     <path d="M 50.616563 10.95 
L 53.116563 10.95 
L 55.616563 10.95 
" style="fill: none; stroke: #ef553b; stroke-width: 0.5; stroke-linecap: square"/>
    </g>
    <g id="text_16">
     <!-- $G_{y}$ -->
     <g transform="translate(58.116563 12.7) scale(0.05 -0.05)">
      <defs>
       <path id="TimesNewRomanPSMT-79" d="M 38 2863 
L 1372 2863 
L 1372 2747 
L 1306 2747 
Q 1166 2747 1095 2686 
Q 1025 2625 1025 2534 
Q 1025 2413 1128 2197 
L 1825 753 
L 2466 2334 
Q 2519 2463 2519 2588 
Q 2519 2644 2497 2672 
Q 2472 2706 2419 2726 
Q 2366 2747 2231 2747 
L 2231 2863 
L 3163 2863 
L 3163 2747 
Q 3047 2734 2984 2696 
Q 2922 2659 2847 2556 
Q 2819 2513 2741 2316 
L 1575 -541 
Q 1406 -956 1132 -1168 
Q 859 -1381 606 -1381 
Q 422 -1381 303 -1275 
Q 184 -1169 184 -1031 
Q 184 -900 270 -820 
Q 356 -741 506 -741 
Q 609 -741 788 -809 
Q 913 -856 944 -856 
Q 1038 -856 1148 -759 
Q 1259 -663 1372 -384 
L 1575 113 
L 547 2272 
Q 500 2369 397 2513 
Q 319 2622 269 2659 
Q 197 2709 38 2747 
L 38 2863 
z
" transform="scale(0.015625)"/>
      </defs>
      <use xlink:href="#TimesNewRomanPSMT-47" transform="translate(0 0.28125)"/>
      <use xlink:href="#TimesNewRomanPSMT-79" transform="translate(73.719609 -25.48125) scale(0.7)"/>
     </g>
    </g>
    <g id="line2d_20">
     <path d="M 68.816563 10.95 
L 71.316563 10.95 
L 73.816563 10.95 
" style="fill: none; stroke: #00cc96; stroke-width: 0.5; stroke-linecap: square"/>
    </g>
    <g id="text_17">
     <!-- $G_{z}$ -->
     <g transform="translate(76.316563 12.7) scale(0.05 -0.05)">
      <defs>
       <path id="TimesNewRomanPSMT-7a" d="M 2688 878 
L 2653 0 
L 128 0 
L 128 113 
L 2028 2644 
L 1091 2644 
Q 788 2644 694 2605 
Q 600 2566 541 2456 
Q 456 2300 444 2069 
L 319 2069 
L 338 2863 
L 2738 2863 
L 2738 2747 
L 819 209 
L 1863 209 
Q 2191 209 2308 264 
Q 2425 319 2497 456 
Q 2547 556 2581 878 
L 2688 878 
z
" transform="scale(0.015625)"/>
      </defs>
      <use xlink:href="#TimesNewRomanPSMT-47" transform="translate(0 0.28125)"/>
      <use xlink:href="#TimesNewRomanPSMT-7a" transform="translate(73.719609 -25.48125) scale(0.7)"/>
     </g>
    </g>
    <g id="line2d_21">
     <path d="M 86.816563 10.95 
L 89.316563 10.95 
L 91.816563 10.95 
" style="fill: none; stroke: #ab63fa; stroke-width: 0.5; stroke-linecap: square"/>
    </g>
    <g id="text_18">
     <!-- $|B_{1}|$ -->
     <g transform="translate(94.316563 12.7) scale(0.05 -0.05)">
      <defs>
       <path id="TimesNewRomanPSMT-7c" d="M 763 4444 
L 763 -1381 
L 503 -1381 
L 503 4444 
L 763 4444 
z
" transform="scale(0.015625)"/>
       <path id="TimesNewRomanPSMT-42" d="M 2956 2163 
Q 3397 2069 3616 1863 
Q 3919 1575 3919 1159 
Q 3919 844 3719 555 
Q 3519 266 3170 133 
Q 2822 0 2106 0 
L 106 0 
L 106 116 
L 266 116 
Q 531 116 647 284 
Q 719 394 719 750 
L 719 3488 
Q 719 3881 628 3984 
Q 506 4122 266 4122 
L 106 4122 
L 106 4238 
L 1938 4238 
Q 2450 4238 2759 4163 
Q 3228 4050 3475 3764 
Q 3722 3478 3722 3106 
Q 3722 2788 3528 2536 
Q 3334 2284 2956 2163 
z
M 1319 2331 
Q 1434 2309 1582 2298 
Q 1731 2288 1909 2288 
Q 2366 2288 2595 2386 
Q 2825 2484 2947 2687 
Q 3069 2891 3069 3131 
Q 3069 3503 2766 3765 
Q 2463 4028 1881 4028 
Q 1569 4028 1319 3959 
L 1319 2331 
z
M 1319 306 
Q 1681 222 2034 222 
Q 2600 222 2897 476 
Q 3194 731 3194 1106 
Q 3194 1353 3059 1581 
Q 2925 1809 2622 1940 
Q 2319 2072 1872 2072 
Q 1678 2072 1540 2065 
Q 1403 2059 1319 2044 
L 1319 306 
z
" transform="scale(0.015625)"/>
      </defs>
      <use xlink:href="#TimesNewRomanPSMT-7c" transform="translate(0 0.5625)"/>
      <use xlink:href="#TimesNewRomanPSMT-42" transform="translate(20.019531 0.5625)"/>
      <use xlink:href="#TimesNewRomanPSMT-31" transform="translate(88.221563 -25.2) scale(0.7)"/>
      <use xlink:href="#TimesNewRomanPSMT-7c" transform="translate(127.515312 0.5625)"/>
     </g>
    </g>
    <g id="PathCollection_3">
     <g>
      <use xlink:href="#mc95168c86a" x="109.216563" y="11.3875" style="stroke: #000000; stroke-width: 0.1"/>
     </g>
    </g>
    <g id="text_19">
     <!-- $Stitching \quad trigger$ -->
     <g transform="translate(114.216563 12.7) scale(0.05 -0.05)">
      <defs>
       <path id="TimesNewRomanPSMT-53" d="M 2934 4334 
L 2934 2869 
L 2819 2869 
Q 2763 3291 2617 3541 
Q 2472 3791 2203 3937 
Q 1934 4084 1647 4084 
Q 1322 4084 1109 3886 
Q 897 3688 897 3434 
Q 897 3241 1031 3081 
Q 1225 2847 1953 2456 
Q 2547 2138 2764 1967 
Q 2981 1797 3098 1565 
Q 3216 1334 3216 1081 
Q 3216 600 2842 251 
Q 2469 -97 1881 -97 
Q 1697 -97 1534 -69 
Q 1438 -53 1133 45 
Q 828 144 747 144 
Q 669 144 623 97 
Q 578 50 556 -97 
L 441 -97 
L 441 1356 
L 556 1356 
Q 638 900 775 673 
Q 913 447 1195 297 
Q 1478 147 1816 147 
Q 2206 147 2432 353 
Q 2659 559 2659 841 
Q 2659 997 2573 1156 
Q 2488 1316 2306 1453 
Q 2184 1547 1640 1851 
Q 1097 2156 867 2337 
Q 638 2519 519 2737 
Q 400 2956 400 3219 
Q 400 3675 750 4004 
Q 1100 4334 1641 4334 
Q 1978 4334 2356 4169 
Q 2531 4091 2603 4091 
Q 2684 4091 2736 4139 
Q 2788 4188 2819 4334 
L 2934 4334 
z
" transform="scale(0.015625)"/>
       <path id="TimesNewRomanPSMT-63" d="M 2631 1088 
Q 2516 522 2178 217 
Q 1841 -88 1431 -88 
Q 944 -88 581 321 
Q 219 731 219 1428 
Q 219 2103 620 2525 
Q 1022 2947 1584 2947 
Q 2006 2947 2278 2723 
Q 2550 2500 2550 2259 
Q 2550 2141 2473 2067 
Q 2397 1994 2259 1994 
Q 2075 1994 1981 2113 
Q 1928 2178 1911 2362 
Q 1894 2547 1784 2644 
Q 1675 2738 1481 2738 
Q 1169 2738 978 2506 
Q 725 2200 725 1697 
Q 725 1184 976 792 
Q 1228 400 1656 400 
Q 1963 400 2206 609 
Q 2378 753 2541 1131 
L 2631 1088 
z
" transform="scale(0.015625)"/>
       <path id="TimesNewRomanPSMT-68" d="M 1041 4444 
L 1041 2350 
Q 1388 2731 1591 2839 
Q 1794 2947 1997 2947 
Q 2241 2947 2416 2812 
Q 2591 2678 2675 2391 
Q 2734 2191 2734 1659 
L 2734 647 
Q 2734 375 2778 275 
Q 2809 200 2884 156 
Q 2959 113 3159 113 
L 3159 0 
L 1753 0 
L 1753 113 
L 1819 113 
Q 2019 113 2097 173 
Q 2175 234 2206 353 
Q 2216 403 2216 647 
L 2216 1659 
Q 2216 2128 2167 2275 
Q 2119 2422 2012 2495 
Q 1906 2569 1756 2569 
Q 1603 2569 1437 2487 
Q 1272 2406 1041 2159 
L 1041 647 
Q 1041 353 1073 281 
Q 1106 209 1195 161 
Q 1284 113 1503 113 
L 1503 0 
L 84 0 
L 84 113 
Q 275 113 384 172 
Q 447 203 484 290 
Q 522 378 522 647 
L 522 3238 
Q 522 3728 498 3840 
Q 475 3953 426 3993 
Q 378 4034 297 4034 
Q 231 4034 84 3984 
L 41 4094 
L 897 4444 
L 1041 4444 
z
" transform="scale(0.015625)"/>
       <path id="TimesNewRomanPSMT-6e" d="M 1034 2341 
Q 1538 2947 1994 2947 
Q 2228 2947 2397 2830 
Q 2566 2713 2666 2444 
Q 2734 2256 2734 1869 
L 2734 647 
Q 2734 375 2778 278 
Q 2813 200 2889 156 
Q 2966 113 3172 113 
L 3172 0 
L 1756 0 
L 1756 113 
L 1816 113 
Q 2016 113 2095 173 
Q 2175 234 2206 353 
Q 2219 400 2219 647 
L 2219 1819 
Q 2219 2209 2117 2386 
Q 2016 2563 1775 2563 
Q 1403 2563 1034 2156 
L 1034 647 
Q 1034 356 1069 288 
Q 1113 197 1189 155 
Q 1266 113 1500 113 
L 1500 0 
L 84 0 
L 84 113 
L 147 113 
Q 366 113 442 223 
Q 519 334 519 647 
L 519 1709 
Q 519 2225 495 2337 
Q 472 2450 423 2490 
Q 375 2531 294 2531 
Q 206 2531 84 2484 
L 38 2597 
L 900 2947 
L 1034 2947 
L 1034 2341 
z
" transform="scale(0.015625)"/>
       <path id="TimesNewRomanPSMT-67" d="M 966 1044 
Q 703 1172 562 1401 
Q 422 1631 422 1909 
Q 422 2334 742 2640 
Q 1063 2947 1563 2947 
Q 1972 2947 2272 2747 
L 2878 2747 
Q 3013 2747 3034 2739 
Q 3056 2731 3066 2713 
Q 3084 2684 3084 2613 
Q 3084 2531 3069 2500 
Q 3059 2484 3036 2475 
Q 3013 2466 2878 2466 
L 2506 2466 
Q 2681 2241 2681 1891 
Q 2681 1491 2375 1206 
Q 2069 922 1553 922 
Q 1341 922 1119 984 
Q 981 866 932 777 
Q 884 688 884 625 
Q 884 572 936 522 
Q 988 472 1138 450 
Q 1225 438 1575 428 
Q 2219 413 2409 384 
Q 2700 344 2873 169 
Q 3047 -6 3047 -263 
Q 3047 -616 2716 -925 
Q 2228 -1381 1444 -1381 
Q 841 -1381 425 -1109 
Q 191 -953 191 -784 
Q 191 -709 225 -634 
Q 278 -519 444 -313 
Q 466 -284 763 25 
Q 600 122 533 198 
Q 466 275 466 372 
Q 466 481 555 628 
Q 644 775 966 1044 
z
M 1509 2797 
Q 1278 2797 1122 2612 
Q 966 2428 966 2047 
Q 966 1553 1178 1281 
Q 1341 1075 1591 1075 
Q 1828 1075 1981 1253 
Q 2134 1431 2134 1813 
Q 2134 2309 1919 2591 
Q 1759 2797 1509 2797 
z
M 934 0 
Q 788 -159 713 -296 
Q 638 -434 638 -550 
Q 638 -700 819 -813 
Q 1131 -1006 1722 -1006 
Q 2284 -1006 2551 -807 
Q 2819 -609 2819 -384 
Q 2819 -222 2659 -153 
Q 2497 -84 2016 -72 
Q 1313 -53 934 0 
z
" transform="scale(0.015625)"/>
       <path id="TimesNewRomanPSMT-72" d="M 1038 2947 
L 1038 2303 
Q 1397 2947 1775 2947 
Q 1947 2947 2059 2842 
Q 2172 2738 2172 2600 
Q 2172 2478 2090 2393 
Q 2009 2309 1897 2309 
Q 1788 2309 1652 2417 
Q 1516 2525 1450 2525 
Q 1394 2525 1328 2463 
Q 1188 2334 1038 2041 
L 1038 669 
Q 1038 431 1097 309 
Q 1138 225 1241 169 
Q 1344 113 1538 113 
L 1538 0 
L 72 0 
L 72 113 
Q 291 113 397 181 
Q 475 231 506 341 
Q 522 394 522 644 
L 522 1753 
Q 522 2253 501 2348 
Q 481 2444 426 2487 
Q 372 2531 291 2531 
Q 194 2531 72 2484 
L 41 2597 
L 906 2947 
L 1038 2947 
z
" transform="scale(0.015625)"/>
      </defs>
      <use xlink:href="#TimesNewRomanPSMT-53" transform="translate(0 0.5625)"/>
      <use xlink:href="#TimesNewRomanPSMT-74" transform="translate(55.615234 0.5625)"/>
      <use xlink:href="#TimesNewRomanPSMT-69" transform="translate(83.398438 0.5625)"/>
      <use xlink:href="#TimesNewRomanPSMT-74" transform="translate(111.181641 0.5625)"/>
      <use xlink:href="#TimesNewRomanPSMT-63" transform="translate(138.964844 0.5625)"/>
      <use xlink:href="#TimesNewRomanPSMT-68" transform="translate(183.349609 0.5625)"/>
      <use xlink:href="#TimesNewRomanPSMT-69" transform="translate(233.349609 0.5625)"/>
      <use xlink:href="#TimesNewRomanPSMT-6e" transform="translate(261.132812 0.5625)"/>
      <use xlink:href="#TimesNewRomanPSMT-67" transform="translate(311.132812 0.5625)"/>
      <use xlink:href="#TimesNewRomanPSMT-74" transform="translate(458.544922 0.5625)"/>
      <use xlink:href="#TimesNewRomanPSMT-72" transform="translate(486.328125 0.5625)"/>
      <use xlink:href="#TimesNewRomanPSMT-69" transform="translate(519.628906 0.5625)"/>
      <use xlink:href="#TimesNewRomanPSMT-67" transform="translate(547.412109 0.5625)"/>
      <use xlink:href="#TimesNewRomanPSMT-67" transform="translate(597.412109 0.5625)"/>
      <use xlink:href="#TimesNewRomanPSMT-65" transform="translate(647.412109 0.5625)"/>
      <use xlink:href="#TimesNewRomanPSMT-72" transform="translate(691.796875 0.5625)"/>
     </g>
    </g>
    <g id="PathCollection_4">
     <g>
      <use xlink:href="#m99c847caa3" x="158.016562" y="11.3875" style="stroke: #000000; stroke-width: 0.1"/>
     </g>
    </g>
    <g id="text_20">
     <!-- $Standard \quad trigger$ -->
     <g transform="translate(163.016562 12.7) scale(0.05 -0.05)">
      <defs>
       <path id="TimesNewRomanPSMT-61" d="M 1822 413 
Q 1381 72 1269 19 
Q 1100 -59 909 -59 
Q 613 -59 420 144 
Q 228 347 228 678 
Q 228 888 322 1041 
Q 450 1253 767 1440 
Q 1084 1628 1822 1897 
L 1822 2009 
Q 1822 2438 1686 2597 
Q 1550 2756 1291 2756 
Q 1094 2756 978 2650 
Q 859 2544 859 2406 
L 866 2225 
Q 866 2081 792 2003 
Q 719 1925 600 1925 
Q 484 1925 411 2006 
Q 338 2088 338 2228 
Q 338 2497 613 2722 
Q 888 2947 1384 2947 
Q 1766 2947 2009 2819 
Q 2194 2722 2281 2516 
Q 2338 2381 2338 1966 
L 2338 994 
Q 2338 584 2353 492 
Q 2369 400 2405 369 
Q 2441 338 2488 338 
Q 2538 338 2575 359 
Q 2641 400 2828 588 
L 2828 413 
Q 2478 -56 2159 -56 
Q 2006 -56 1915 50 
Q 1825 156 1822 413 
z
M 1822 616 
L 1822 1706 
Q 1350 1519 1213 1441 
Q 966 1303 859 1153 
Q 753 1003 753 825 
Q 753 600 887 451 
Q 1022 303 1197 303 
Q 1434 303 1822 616 
z
" transform="scale(0.015625)"/>
      </defs>
      <use xlink:href="#TimesNewRomanPSMT-53" transform="translate(0 0.5625)"/>
      <use xlink:href="#TimesNewRomanPSMT-74" transform="translate(55.615234 0.5625)"/>
      <use xlink:href="#TimesNewRomanPSMT-61" transform="translate(83.398438 0.5625)"/>
      <use xlink:href="#TimesNewRomanPSMT-6e" transform="translate(127.783203 0.5625)"/>
      <use xlink:href="#TimesNewRomanPSMT-64" transform="translate(177.783203 0.5625)"/>
      <use xlink:href="#TimesNewRomanPSMT-61" transform="translate(227.783203 0.5625)"/>
      <use xlink:href="#TimesNewRomanPSMT-72" transform="translate(272.167969 0.5625)"/>
      <use xlink:href="#TimesNewRomanPSMT-64" transform="translate(305.46875 0.5625)"/>
      <use xlink:href="#TimesNewRomanPSMT-74" transform="translate(452.880859 0.5625)"/>
      <use xlink:href="#TimesNewRomanPSMT-72" transform="translate(480.664062 0.5625)"/>
      <use xlink:href="#TimesNewRomanPSMT-69" transform="translate(513.964844 0.5625)"/>
      <use xlink:href="#TimesNewRomanPSMT-67" transform="translate(541.748047 0.5625)"/>
      <use xlink:href="#TimesNewRomanPSMT-67" transform="translate(591.748047 0.5625)"/>
      <use xlink:href="#TimesNewRomanPSMT-65" transform="translate(641.748047 0.5625)"/>
      <use xlink:href="#TimesNewRomanPSMT-72" transform="translate(686.132812 0.5625)"/>
     </g>
    </g>
   </g>
  </g>
 </g>
 <defs>
  <clipPath id="p8492b3b263">
   <rect x="27.916563" y="10.955808" width="233.91" height="62.55808"/>
  </clipPath>
 </defs>
</svg>
