<?xml version="1.0" encoding="utf-8" standalone="no"?>
<!DOCTYPE svg PUBLIC "-//W3C//DTD SVG 1.1//EN"
  "http://www.w3.org/Graphics/SVG/1.1/DTD/svg11.dtd">
<svg xmlns:xlink="http://www.w3.org/1999/xlink" width="269.015312pt" height="98.796701pt" viewBox="0 0 269.015312 98.796701" xmlns="http://www.w3.org/2000/svg" version="1.1">
 <metadata>
  <rdf:RDF xmlns:dc="http://purl.org/dc/elements/1.1/" xmlns:cc="http://creativecommons.org/ns#" xmlns:rdf="http://www.w3.org/1999/02/22-rdf-syntax-ns#">
   <cc:Work>
    <dc:type rdf:resource="http://purl.org/dc/dcmitype/StillImage"/>
    <dc:date>2024-10-29T15:56:29.058169</dc:date>
    <dc:format>image/svg+xml</dc:format>
    <dc:creator>
     <cc:Agent>
      <dc:title>Matplotlib v3.8.4, https://matplotlib.org/</dc:title>
     </cc:Agent>
    </dc:creator>
   </cc:Work>
  </rdf:RDF>
 </metadata>
 <defs>
  <style type="text/css">*{stroke-linejoin: round; stroke-linecap: butt}</style>
 </defs>
 <g id="figure_1">
  <g id="patch_1">
   <path d="M 0 98.796701 
L 269.015312 98.796701 
L 269.015312 0 
L 0 0 
L 0 98.796701 
z
" style="fill: none"/>
  </g>
  <g id="axes_1">
   <g id="patch_2">
    <path d="M 27.905313 73.513888 
L 261.815313 73.513888 
L 261.815313 10.955808 
L 27.905313 10.955808 
L 27.905313 73.513888 
z
" style="fill: none"/>
   </g>
   <g id="PathCollection_1">
    <defs>
     <path id="m503fe73e82" d="M 0.927647 1.936492 
L -0.927647 1.936492 
L -0.927647 1.699204 
L -0.158686 1.699204 
L -0.158686 -1.048887 
Q -0.158686 -1.086704 -0.194279 -1.128971 
Q -0.229873 -1.17198 -0.263241 -1.17198 
Q -0.315148 -1.17198 -0.381885 -1.105984 
Q -0.614724 -0.863505 -0.837181 -0.716684 
L -0.927647 -0.811599 
Q -0.249152 -1.400369 -0.025953 -1.936492 
L 0.021504 -1.936492 
Q 0.254343 -1.39073 0.927647 -0.80715 
L 0.837923 -0.712234 
Q 0.648093 -0.844967 0.381885 -1.100793 
Q 0.31589 -1.167531 0.249152 -1.167531 
Q 0.154237 -1.167531 0.154237 -1.044437 
L 0.154237 1.699204 
L 0.927647 1.699204 
L 0.927647 1.936492 
z
" style="stroke: #000000; stroke-width: 0.1"/>
    </defs>
    <g clip-path="url(#pfdcfe79c4d)">
     <use xlink:href="#m503fe73e82" x="43.319669" y="66.811237" style="stroke: #000000; stroke-width: 0.1"/>
     <use xlink:href="#m503fe73e82" x="97.049226" y="66.811237" style="stroke: #000000; stroke-width: 0.1"/>
     <use xlink:href="#m503fe73e82" x="150.771466" y="66.811237" style="stroke: #000000; stroke-width: 0.1"/>
     <use xlink:href="#m503fe73e82" x="204.493706" y="66.811237" style="stroke: #000000; stroke-width: 0.1"/>
    </g>
   </g>
   <g id="PathCollection_2">
    <defs>
     <path id="md3ced37868" d="M 0.927647 0.175371 
L 0.837923 0.270286 
Q 0.648093 0.137553 0.381885 -0.119015 
Q 0.31589 -0.18501 0.249152 -0.18501 
Q 0.154237 -0.18501 0.154237 -0.061917 
L 0.154237 1.936492 
L -0.158686 1.936492 
L -0.158686 -0.066366 
Q -0.158686 -0.104184 -0.194279 -0.147193 
Q -0.229873 -0.190201 -0.263241 -0.190201 
Q -0.315148 -0.190201 -0.381885 -0.123464 
Q -0.614724 0.118273 -0.837181 0.265837 
L -0.927647 0.170921 
Q -0.401165 -0.285116 -0.158686 -0.688506 
L -0.158686 -1.048887 
Q -0.158686 -1.086704 -0.194279 -1.128971 
Q -0.229873 -1.17198 -0.263241 -1.17198 
Q -0.315148 -1.17198 -0.381885 -1.105984 
Q -0.614724 -0.863505 -0.837181 -0.716684 
L -0.927647 -0.811599 
Q -0.249152 -1.400369 -0.025953 -1.936492 
L 0.021504 -1.936492 
Q 0.254343 -1.39073 0.927647 -0.80715 
L 0.837923 -0.712234 
Q 0.648093 -0.844967 0.381885 -1.100793 
Q 0.31589 -1.167531 0.249152 -1.167531 
Q 0.154237 -1.167531 0.154237 -1.044437 
L 0.154237 -0.692955 
Q 0.405614 -0.279926 0.927647 0.175371 
z
" style="stroke: #000000; stroke-width: 0.1"/>
    </defs>
    <g clip-path="url(#pfdcfe79c4d)">
     <use xlink:href="#md3ced37868" x="43.319669" y="60.108585" style="stroke: #000000; stroke-width: 0.1"/>
    </g>
   </g>
   <g id="matplotlib.axis_1">
    <g id="xtick_1">
     <g id="line2d_1">
      <defs>
       <path id="m995776efda" d="M 0 0 
L 0 1.5 
" style="stroke: #000000; stroke-width: 0.5"/>
      </defs>
      <g>
       <use xlink:href="#m995776efda" x="27.905313" y="73.513888" style="stroke: #000000; stroke-width: 0.5"/>
      </g>
     </g>
     <g id="text_1">
      <!-- 0 -->
      <g transform="translate(26.905313 81.291388) scale(0.04 -0.04)">
       <defs>
        <path id="TimesNewRomanPSMT-30" d="M 231 2094 
Q 231 2819 450 3342 
Q 669 3866 1031 4122 
Q 1313 4325 1613 4325 
Q 2100 4325 2488 3828 
Q 2972 3213 2972 2159 
Q 2972 1422 2759 906 
Q 2547 391 2217 158 
Q 1888 -75 1581 -75 
Q 975 -75 572 641 
Q 231 1244 231 2094 
z
M 844 2016 
Q 844 1141 1059 588 
Q 1238 122 1591 122 
Q 1759 122 1940 273 
Q 2122 425 2216 781 
Q 2359 1319 2359 2297 
Q 2359 3022 2209 3506 
Q 2097 3866 1919 4016 
Q 1791 4119 1609 4119 
Q 1397 4119 1231 3928 
Q 1006 3669 925 3112 
Q 844 2556 844 2016 
z
" transform="scale(0.015625)"/>
       </defs>
       <use xlink:href="#TimesNewRomanPSMT-30"/>
      </g>
     </g>
    </g>
    <g id="xtick_2">
     <g id="line2d_2">
      <g>
       <use xlink:href="#m995776efda" x="76.677206" y="73.513888" style="stroke: #000000; stroke-width: 0.5"/>
      </g>
     </g>
     <g id="text_2">
      <!-- 20 -->
      <g transform="translate(74.677206 81.291388) scale(0.04 -0.04)">
       <defs>
        <path id="TimesNewRomanPSMT-32" d="M 2934 816 
L 2638 0 
L 138 0 
L 138 116 
Q 1241 1122 1691 1759 
Q 2141 2397 2141 2925 
Q 2141 3328 1894 3587 
Q 1647 3847 1303 3847 
Q 991 3847 742 3664 
Q 494 3481 375 3128 
L 259 3128 
Q 338 3706 661 4015 
Q 984 4325 1469 4325 
Q 1984 4325 2329 3994 
Q 2675 3663 2675 3213 
Q 2675 2891 2525 2569 
Q 2294 2063 1775 1497 
Q 997 647 803 472 
L 1909 472 
Q 2247 472 2383 497 
Q 2519 522 2628 598 
Q 2738 675 2819 816 
L 2934 816 
z
" transform="scale(0.015625)"/>
       </defs>
       <use xlink:href="#TimesNewRomanPSMT-32"/>
       <use xlink:href="#TimesNewRomanPSMT-30" x="50"/>
      </g>
     </g>
    </g>
    <g id="xtick_3">
     <g id="line2d_3">
      <g>
       <use xlink:href="#m995776efda" x="125.449099" y="73.513888" style="stroke: #000000; stroke-width: 0.5"/>
      </g>
     </g>
     <g id="text_3">
      <!-- 40 -->
      <g transform="translate(123.449099 81.291388) scale(0.04 -0.04)">
       <defs>
        <path id="TimesNewRomanPSMT-34" d="M 2978 1563 
L 2978 1119 
L 2409 1119 
L 2409 0 
L 1894 0 
L 1894 1119 
L 100 1119 
L 100 1519 
L 2066 4325 
L 2409 4325 
L 2409 1563 
L 2978 1563 
z
M 1894 1563 
L 1894 3666 
L 406 1563 
L 1894 1563 
z
" transform="scale(0.015625)"/>
       </defs>
       <use xlink:href="#TimesNewRomanPSMT-34"/>
       <use xlink:href="#TimesNewRomanPSMT-30" x="50"/>
      </g>
     </g>
    </g>
    <g id="xtick_4">
     <g id="line2d_4">
      <g>
       <use xlink:href="#m995776efda" x="174.220992" y="73.513888" style="stroke: #000000; stroke-width: 0.5"/>
      </g>
     </g>
     <g id="text_4">
      <!-- 60 -->
      <g transform="translate(172.220992 81.291388) scale(0.04 -0.04)">
       <defs>
        <path id="TimesNewRomanPSMT-36" d="M 2869 4325 
L 2869 4209 
Q 2456 4169 2195 4045 
Q 1934 3922 1679 3669 
Q 1425 3416 1258 3105 
Q 1091 2794 978 2366 
Q 1428 2675 1881 2675 
Q 2316 2675 2634 2325 
Q 2953 1975 2953 1425 
Q 2953 894 2631 456 
Q 2244 -75 1606 -75 
Q 1172 -75 869 213 
Q 275 772 275 1663 
Q 275 2231 503 2743 
Q 731 3256 1154 3653 
Q 1578 4050 1965 4187 
Q 2353 4325 2688 4325 
L 2869 4325 
z
M 925 2138 
Q 869 1716 869 1456 
Q 869 1156 980 804 
Q 1091 453 1309 247 
Q 1469 100 1697 100 
Q 1969 100 2183 356 
Q 2397 613 2397 1088 
Q 2397 1622 2184 2012 
Q 1972 2403 1581 2403 
Q 1463 2403 1327 2353 
Q 1191 2303 925 2138 
z
" transform="scale(0.015625)"/>
       </defs>
       <use xlink:href="#TimesNewRomanPSMT-36"/>
       <use xlink:href="#TimesNewRomanPSMT-30" x="50"/>
      </g>
     </g>
    </g>
    <g id="xtick_5">
     <g id="line2d_5">
      <g>
       <use xlink:href="#m995776efda" x="222.992885" y="73.513888" style="stroke: #000000; stroke-width: 0.5"/>
      </g>
     </g>
     <g id="text_5">
      <!-- 80 -->
      <g transform="translate(220.992885 81.291388) scale(0.04 -0.04)">
       <defs>
        <path id="TimesNewRomanPSMT-38" d="M 1228 2134 
Q 725 2547 579 2797 
Q 434 3047 434 3316 
Q 434 3728 753 4026 
Q 1072 4325 1600 4325 
Q 2113 4325 2425 4047 
Q 2738 3769 2738 3413 
Q 2738 3175 2569 2928 
Q 2400 2681 1866 2347 
Q 2416 1922 2594 1678 
Q 2831 1359 2831 1006 
Q 2831 559 2490 242 
Q 2150 -75 1597 -75 
Q 994 -75 656 303 
Q 388 606 388 966 
Q 388 1247 577 1523 
Q 766 1800 1228 2134 
z
M 1719 2469 
Q 2094 2806 2194 3001 
Q 2294 3197 2294 3444 
Q 2294 3772 2109 3958 
Q 1925 4144 1606 4144 
Q 1288 4144 1088 3959 
Q 888 3775 888 3528 
Q 888 3366 970 3203 
Q 1053 3041 1206 2894 
L 1719 2469 
z
M 1375 2016 
Q 1116 1797 991 1539 
Q 866 1281 866 981 
Q 866 578 1086 336 
Q 1306 94 1647 94 
Q 1984 94 2187 284 
Q 2391 475 2391 747 
Q 2391 972 2272 1150 
Q 2050 1481 1375 2016 
z
" transform="scale(0.015625)"/>
       </defs>
       <use xlink:href="#TimesNewRomanPSMT-38"/>
       <use xlink:href="#TimesNewRomanPSMT-30" x="50"/>
      </g>
     </g>
    </g>
    <g id="text_6">
     <!-- Time (ms) -->
     <g transform="translate(132.385469 90.313263) scale(0.06 -0.06)">
      <defs>
       <path id="TimesNewRomanPSMT-54" d="M 3703 4238 
L 3750 3244 
L 3631 3244 
Q 3597 3506 3538 3619 
Q 3441 3800 3280 3886 
Q 3119 3972 2856 3972 
L 2259 3972 
L 2259 734 
Q 2259 344 2344 247 
Q 2463 116 2709 116 
L 2856 116 
L 2856 0 
L 1059 0 
L 1059 116 
L 1209 116 
Q 1478 116 1591 278 
Q 1659 378 1659 734 
L 1659 3972 
L 1150 3972 
Q 853 3972 728 3928 
Q 566 3869 450 3700 
Q 334 3531 313 3244 
L 194 3244 
L 244 4238 
L 3703 4238 
z
" transform="scale(0.015625)"/>
       <path id="TimesNewRomanPSMT-69" d="M 928 4444 
Q 1059 4444 1151 4351 
Q 1244 4259 1244 4128 
Q 1244 3997 1151 3903 
Q 1059 3809 928 3809 
Q 797 3809 703 3903 
Q 609 3997 609 4128 
Q 609 4259 701 4351 
Q 794 4444 928 4444 
z
M 1188 2947 
L 1188 647 
Q 1188 378 1227 289 
Q 1266 200 1342 156 
Q 1419 113 1622 113 
L 1622 0 
L 231 0 
L 231 113 
Q 441 113 512 153 
Q 584 194 626 287 
Q 669 381 669 647 
L 669 1750 
Q 669 2216 641 2353 
Q 619 2453 572 2492 
Q 525 2531 444 2531 
Q 356 2531 231 2484 
L 188 2597 
L 1050 2947 
L 1188 2947 
z
" transform="scale(0.015625)"/>
       <path id="TimesNewRomanPSMT-6d" d="M 1050 2338 
Q 1363 2650 1419 2697 
Q 1559 2816 1721 2881 
Q 1884 2947 2044 2947 
Q 2313 2947 2506 2790 
Q 2700 2634 2766 2338 
Q 3088 2713 3309 2830 
Q 3531 2947 3766 2947 
Q 3994 2947 4170 2830 
Q 4347 2713 4450 2447 
Q 4519 2266 4519 1878 
L 4519 647 
Q 4519 378 4559 278 
Q 4591 209 4675 161 
Q 4759 113 4950 113 
L 4950 0 
L 3538 0 
L 3538 113 
L 3597 113 
Q 3781 113 3884 184 
Q 3956 234 3988 344 
Q 4000 397 4000 647 
L 4000 1878 
Q 4000 2228 3916 2372 
Q 3794 2572 3525 2572 
Q 3359 2572 3192 2489 
Q 3025 2406 2788 2181 
L 2781 2147 
L 2788 2013 
L 2788 647 
Q 2788 353 2820 281 
Q 2853 209 2943 161 
Q 3034 113 3253 113 
L 3253 0 
L 1806 0 
L 1806 113 
Q 2044 113 2133 169 
Q 2222 225 2256 338 
Q 2272 391 2272 647 
L 2272 1878 
Q 2272 2228 2169 2381 
Q 2031 2581 1784 2581 
Q 1616 2581 1450 2491 
Q 1191 2353 1050 2181 
L 1050 647 
Q 1050 366 1089 281 
Q 1128 197 1204 155 
Q 1281 113 1516 113 
L 1516 0 
L 100 0 
L 100 113 
Q 297 113 375 155 
Q 453 197 493 289 
Q 534 381 534 647 
L 534 1741 
Q 534 2213 506 2350 
Q 484 2453 437 2492 
Q 391 2531 309 2531 
Q 222 2531 100 2484 
L 53 2597 
L 916 2947 
L 1050 2947 
L 1050 2338 
z
" transform="scale(0.015625)"/>
       <path id="TimesNewRomanPSMT-65" d="M 681 1784 
Q 678 1147 991 784 
Q 1303 422 1725 422 
Q 2006 422 2214 576 
Q 2422 731 2563 1106 
L 2659 1044 
Q 2594 616 2278 264 
Q 1963 -88 1488 -88 
Q 972 -88 605 314 
Q 238 716 238 1394 
Q 238 2128 614 2539 
Q 991 2950 1559 2950 
Q 2041 2950 2350 2633 
Q 2659 2316 2659 1784 
L 681 1784 
z
M 681 1966 
L 2006 1966 
Q 1991 2241 1941 2353 
Q 1863 2528 1708 2628 
Q 1553 2728 1384 2728 
Q 1125 2728 920 2526 
Q 716 2325 681 1966 
z
" transform="scale(0.015625)"/>
       <path id="TimesNewRomanPSMT-20" transform="scale(0.015625)"/>
       <path id="TimesNewRomanPSMT-28" d="M 1988 -1253 
L 1988 -1369 
Q 1516 -1131 1200 -813 
Q 750 -359 506 256 
Q 263 872 263 1534 
Q 263 2503 741 3301 
Q 1219 4100 1988 4444 
L 1988 4313 
Q 1603 4100 1356 3731 
Q 1109 3363 987 2797 
Q 866 2231 866 1616 
Q 866 947 969 400 
Q 1050 -31 1165 -292 
Q 1281 -553 1476 -793 
Q 1672 -1034 1988 -1253 
z
" transform="scale(0.015625)"/>
       <path id="TimesNewRomanPSMT-73" d="M 2050 2947 
L 2050 1972 
L 1947 1972 
Q 1828 2431 1642 2597 
Q 1456 2763 1169 2763 
Q 950 2763 815 2647 
Q 681 2531 681 2391 
Q 681 2216 781 2091 
Q 878 1963 1175 1819 
L 1631 1597 
Q 2266 1288 2266 781 
Q 2266 391 1970 151 
Q 1675 -88 1309 -88 
Q 1047 -88 709 6 
Q 606 38 541 38 
Q 469 38 428 -44 
L 325 -44 
L 325 978 
L 428 978 
Q 516 541 762 319 
Q 1009 97 1316 97 
Q 1531 97 1667 223 
Q 1803 350 1803 528 
Q 1803 744 1651 891 
Q 1500 1038 1047 1263 
Q 594 1488 453 1669 
Q 313 1847 313 2119 
Q 313 2472 555 2709 
Q 797 2947 1181 2947 
Q 1350 2947 1591 2875 
Q 1750 2828 1803 2828 
Q 1853 2828 1881 2850 
Q 1909 2872 1947 2947 
L 2050 2947 
z
" transform="scale(0.015625)"/>
       <path id="TimesNewRomanPSMT-29" d="M 144 4313 
L 144 4444 
Q 619 4209 934 3891 
Q 1381 3434 1625 2820 
Q 1869 2206 1869 1541 
Q 1869 572 1392 -226 
Q 916 -1025 144 -1369 
L 144 -1253 
Q 528 -1038 776 -670 
Q 1025 -303 1145 264 
Q 1266 831 1266 1447 
Q 1266 2113 1163 2663 
Q 1084 3094 967 3353 
Q 850 3613 656 3853 
Q 463 4094 144 4313 
z
" transform="scale(0.015625)"/>
      </defs>
      <use xlink:href="#TimesNewRomanPSMT-54"/>
      <use xlink:href="#TimesNewRomanPSMT-69" x="57.583984"/>
      <use xlink:href="#TimesNewRomanPSMT-6d" x="85.367188"/>
      <use xlink:href="#TimesNewRomanPSMT-65" x="163.150391"/>
      <use xlink:href="#TimesNewRomanPSMT-20" x="207.535156"/>
      <use xlink:href="#TimesNewRomanPSMT-28" x="232.535156"/>
      <use xlink:href="#TimesNewRomanPSMT-6d" x="265.835938"/>
      <use xlink:href="#TimesNewRomanPSMT-73" x="343.619141"/>
      <use xlink:href="#TimesNewRomanPSMT-29" x="382.535156"/>
     </g>
    </g>
   </g>
   <g id="matplotlib.axis_2">
    <g id="ytick_1">
     <g id="line2d_6">
      <defs>
       <path id="m38701c4f51" d="M 0 0 
L -1.5 0 
" style="stroke: #000000; stroke-width: 0.5"/>
      </defs>
      <g>
       <use xlink:href="#m38701c4f51" x="27.905313" y="69.045454" style="stroke: #000000; stroke-width: 0.5"/>
      </g>
     </g>
     <g id="text_7">
      <!-- −60 -->
      <g transform="translate(16.649687 70.434204) scale(0.04 -0.04)">
       <defs>
        <path id="TimesNewRomanPSMT-2212" d="M 3484 2000 
L 116 2000 
L 116 2256 
L 3484 2256 
L 3484 2000 
z
" transform="scale(0.015625)"/>
       </defs>
       <use xlink:href="#TimesNewRomanPSMT-2212"/>
       <use xlink:href="#TimesNewRomanPSMT-36" x="56.396484"/>
       <use xlink:href="#TimesNewRomanPSMT-30" x="106.396484"/>
      </g>
     </g>
    </g>
    <g id="ytick_2">
     <g id="line2d_7">
      <g>
       <use xlink:href="#m38701c4f51" x="27.905313" y="60.108585" style="stroke: #000000; stroke-width: 0.5"/>
      </g>
     </g>
     <g id="text_8">
      <!-- −40 -->
      <g transform="translate(16.649687 61.497335) scale(0.04 -0.04)">
       <use xlink:href="#TimesNewRomanPSMT-2212"/>
       <use xlink:href="#TimesNewRomanPSMT-34" x="56.396484"/>
       <use xlink:href="#TimesNewRomanPSMT-30" x="106.396484"/>
      </g>
     </g>
    </g>
    <g id="ytick_3">
     <g id="line2d_8">
      <g>
       <use xlink:href="#m38701c4f51" x="27.905313" y="51.171717" style="stroke: #000000; stroke-width: 0.5"/>
      </g>
     </g>
     <g id="text_9">
      <!-- −20 -->
      <g transform="translate(16.649687 52.560467) scale(0.04 -0.04)">
       <use xlink:href="#TimesNewRomanPSMT-2212"/>
       <use xlink:href="#TimesNewRomanPSMT-32" x="56.396484"/>
       <use xlink:href="#TimesNewRomanPSMT-30" x="106.396484"/>
      </g>
     </g>
    </g>
    <g id="ytick_4">
     <g id="line2d_9">
      <g>
       <use xlink:href="#m38701c4f51" x="27.905313" y="42.234848" style="stroke: #000000; stroke-width: 0.5"/>
      </g>
     </g>
     <g id="text_10">
      <!-- 0 -->
      <g transform="translate(20.905313 43.623598) scale(0.04 -0.04)">
       <use xlink:href="#TimesNewRomanPSMT-30"/>
      </g>
     </g>
    </g>
    <g id="ytick_5">
     <g id="line2d_10">
      <g>
       <use xlink:href="#m38701c4f51" x="27.905313" y="33.297979" style="stroke: #000000; stroke-width: 0.5"/>
      </g>
     </g>
     <g id="text_11">
      <!-- 20 -->
      <g transform="translate(18.905313 34.686729) scale(0.04 -0.04)">
       <use xlink:href="#TimesNewRomanPSMT-32"/>
       <use xlink:href="#TimesNewRomanPSMT-30" x="50"/>
      </g>
     </g>
    </g>
    <g id="ytick_6">
     <g id="line2d_11">
      <g>
       <use xlink:href="#m38701c4f51" x="27.905313" y="24.361111" style="stroke: #000000; stroke-width: 0.5"/>
      </g>
     </g>
     <g id="text_12">
      <!-- 40 -->
      <g transform="translate(18.905313 25.749861) scale(0.04 -0.04)">
       <use xlink:href="#TimesNewRomanPSMT-34"/>
       <use xlink:href="#TimesNewRomanPSMT-30" x="50"/>
      </g>
     </g>
    </g>
    <g id="ytick_7">
     <g id="line2d_12">
      <g>
       <use xlink:href="#m38701c4f51" x="27.905313" y="15.424242" style="stroke: #000000; stroke-width: 0.5"/>
      </g>
     </g>
     <g id="text_13">
      <!-- 60 -->
      <g transform="translate(18.905313 16.812992) scale(0.04 -0.04)">
       <use xlink:href="#TimesNewRomanPSMT-36"/>
       <use xlink:href="#TimesNewRomanPSMT-30" x="50"/>
      </g>
     </g>
    </g>
    <g id="text_14">
     <!-- Amplitude [mT/m, mG] -->
     <g transform="translate(11.36625 71.147348) rotate(-90) scale(0.06 -0.06)">
      <defs>
       <path id="TimesNewRomanPSMT-41" d="M 2928 1419 
L 1288 1419 
L 1000 750 
Q 894 503 894 381 
Q 894 284 986 211 
Q 1078 138 1384 116 
L 1384 0 
L 50 0 
L 50 116 
Q 316 163 394 238 
Q 553 388 747 847 
L 2238 4334 
L 2347 4334 
L 3822 809 
Q 4000 384 4145 257 
Q 4291 131 4550 116 
L 4550 0 
L 2878 0 
L 2878 116 
Q 3131 128 3220 200 
Q 3309 272 3309 375 
Q 3309 513 3184 809 
L 2928 1419 
z
M 2841 1650 
L 2122 3363 
L 1384 1650 
L 2841 1650 
z
" transform="scale(0.015625)"/>
       <path id="TimesNewRomanPSMT-70" d="M -6 2578 
L 875 2934 
L 994 2934 
L 994 2266 
Q 1216 2644 1439 2795 
Q 1663 2947 1909 2947 
Q 2341 2947 2628 2609 
Q 2981 2197 2981 1534 
Q 2981 794 2556 309 
Q 2206 -88 1675 -88 
Q 1444 -88 1275 -22 
Q 1150 25 994 166 
L 994 -706 
Q 994 -1000 1030 -1079 
Q 1066 -1159 1155 -1206 
Q 1244 -1253 1478 -1253 
L 1478 -1369 
L -22 -1369 
L -22 -1253 
L 56 -1253 
Q 228 -1256 350 -1188 
Q 409 -1153 442 -1076 
Q 475 -1000 475 -688 
L 475 2019 
Q 475 2297 450 2372 
Q 425 2447 370 2484 
Q 316 2522 222 2522 
Q 147 2522 31 2478 
L -6 2578 
z
M 994 2081 
L 994 1013 
Q 994 666 1022 556 
Q 1066 375 1236 237 
Q 1406 100 1666 100 
Q 1978 100 2172 344 
Q 2425 663 2425 1241 
Q 2425 1897 2138 2250 
Q 1938 2494 1663 2494 
Q 1513 2494 1366 2419 
Q 1253 2363 994 2081 
z
" transform="scale(0.015625)"/>
       <path id="TimesNewRomanPSMT-6c" d="M 1184 4444 
L 1184 647 
Q 1184 378 1223 290 
Q 1263 203 1344 158 
Q 1425 113 1647 113 
L 1647 0 
L 244 0 
L 244 113 
Q 441 113 512 153 
Q 584 194 625 287 
Q 666 381 666 647 
L 666 3247 
Q 666 3731 644 3842 
Q 622 3953 573 3993 
Q 525 4034 450 4034 
Q 369 4034 244 3984 
L 191 4094 
L 1044 4444 
L 1184 4444 
z
" transform="scale(0.015625)"/>
       <path id="TimesNewRomanPSMT-74" d="M 1031 3803 
L 1031 2863 
L 1700 2863 
L 1700 2644 
L 1031 2644 
L 1031 788 
Q 1031 509 1111 412 
Q 1191 316 1316 316 
Q 1419 316 1516 380 
Q 1613 444 1666 569 
L 1788 569 
Q 1678 263 1478 108 
Q 1278 -47 1066 -47 
Q 922 -47 784 33 
Q 647 113 581 261 
Q 516 409 516 719 
L 516 2644 
L 63 2644 
L 63 2747 
Q 234 2816 414 2980 
Q 594 3144 734 3369 
Q 806 3488 934 3803 
L 1031 3803 
z
" transform="scale(0.015625)"/>
       <path id="TimesNewRomanPSMT-75" d="M 2709 2863 
L 2709 1128 
Q 2709 631 2732 520 
Q 2756 409 2807 365 
Q 2859 322 2928 322 
Q 3025 322 3147 375 
L 3191 266 
L 2334 -88 
L 2194 -88 
L 2194 519 
Q 1825 119 1631 15 
Q 1438 -88 1222 -88 
Q 981 -88 804 51 
Q 628 191 559 409 
Q 491 628 491 1028 
L 491 2306 
Q 491 2509 447 2587 
Q 403 2666 317 2708 
Q 231 2750 6 2747 
L 6 2863 
L 1009 2863 
L 1009 947 
Q 1009 547 1148 422 
Q 1288 297 1484 297 
Q 1619 297 1789 381 
Q 1959 466 2194 703 
L 2194 2325 
Q 2194 2569 2105 2655 
Q 2016 2741 1734 2747 
L 1734 2863 
L 2709 2863 
z
" transform="scale(0.015625)"/>
       <path id="TimesNewRomanPSMT-64" d="M 2222 322 
Q 2013 103 1813 7 
Q 1613 -88 1381 -88 
Q 913 -88 563 304 
Q 213 697 213 1313 
Q 213 1928 600 2439 
Q 988 2950 1597 2950 
Q 1975 2950 2222 2709 
L 2222 3238 
Q 2222 3728 2198 3840 
Q 2175 3953 2125 3993 
Q 2075 4034 2000 4034 
Q 1919 4034 1784 3984 
L 1744 4094 
L 2597 4444 
L 2738 4444 
L 2738 1134 
Q 2738 631 2761 520 
Q 2784 409 2836 365 
Q 2888 322 2956 322 
Q 3041 322 3181 375 
L 3216 266 
L 2366 -88 
L 2222 -88 
L 2222 322 
z
M 2222 541 
L 2222 2016 
Q 2203 2228 2109 2403 
Q 2016 2578 1861 2667 
Q 1706 2756 1559 2756 
Q 1284 2756 1069 2509 
Q 784 2184 784 1559 
Q 784 928 1059 592 
Q 1334 256 1672 256 
Q 1956 256 2222 541 
z
" transform="scale(0.015625)"/>
       <path id="TimesNewRomanPSMT-5b" d="M 1900 -1269 
L 525 -1269 
L 525 4334 
L 1900 4334 
L 1900 4088 
L 994 4088 
L 994 -1025 
L 1900 -1025 
L 1900 -1269 
z
" transform="scale(0.015625)"/>
       <path id="TimesNewRomanPSMT-2f" d="M 1794 4444 
L 259 -88 
L 9 -88 
L 1544 4444 
L 1794 4444 
z
" transform="scale(0.015625)"/>
       <path id="TimesNewRomanPSMT-2c" d="M 344 -1066 
L 344 -928 
Q 666 -822 842 -598 
Q 1019 -375 1019 -125 
Q 1019 -66 991 -25 
Q 969 3 947 3 
Q 913 3 797 -59 
Q 741 -88 678 -88 
Q 525 -88 434 3 
Q 344 94 344 253 
Q 344 406 461 515 
Q 578 625 747 625 
Q 953 625 1114 445 
Q 1275 266 1275 -31 
Q 1275 -353 1051 -629 
Q 828 -906 344 -1066 
z
" transform="scale(0.015625)"/>
       <path id="TimesNewRomanPSMT-47" d="M 3928 4334 
L 4038 2997 
L 3928 2997 
Q 3763 3497 3500 3750 
Q 3122 4116 2528 4116 
Q 1719 4116 1297 3475 
Q 944 2934 944 2188 
Q 944 1581 1178 1081 
Q 1413 581 1792 348 
Q 2172 116 2572 116 
Q 2806 116 3025 175 
Q 3244 234 3447 350 
L 3447 1575 
Q 3447 1894 3398 1992 
Q 3350 2091 3248 2142 
Q 3147 2194 2891 2194 
L 2891 2313 
L 4531 2313 
L 4531 2194 
L 4453 2194 
Q 4209 2194 4119 2031 
Q 4056 1916 4056 1575 
L 4056 278 
Q 3697 84 3347 -6 
Q 2997 -97 2569 -97 
Q 1341 -97 703 691 
Q 225 1281 225 2053 
Q 225 2613 494 3125 
Q 813 3734 1369 4063 
Q 1834 4334 2469 4334 
Q 2700 4334 2889 4296 
Q 3078 4259 3425 4131 
Q 3600 4066 3659 4066 
Q 3719 4066 3761 4120 
Q 3803 4175 3813 4334 
L 3928 4334 
z
" transform="scale(0.015625)"/>
       <path id="TimesNewRomanPSMT-5d" d="M 234 4334 
L 1609 4334 
L 1609 -1272 
L 234 -1272 
L 234 -1025 
L 1141 -1025 
L 1141 4088 
L 234 4088 
L 234 4334 
z
" transform="scale(0.015625)"/>
      </defs>
      <use xlink:href="#TimesNewRomanPSMT-41"/>
      <use xlink:href="#TimesNewRomanPSMT-6d" x="72.216797"/>
      <use xlink:href="#TimesNewRomanPSMT-70" x="150"/>
      <use xlink:href="#TimesNewRomanPSMT-6c" x="200"/>
      <use xlink:href="#TimesNewRomanPSMT-69" x="227.783203"/>
      <use xlink:href="#TimesNewRomanPSMT-74" x="255.566406"/>
      <use xlink:href="#TimesNewRomanPSMT-75" x="283.349609"/>
      <use xlink:href="#TimesNewRomanPSMT-64" x="333.349609"/>
      <use xlink:href="#TimesNewRomanPSMT-65" x="383.349609"/>
      <use xlink:href="#TimesNewRomanPSMT-20" x="427.734375"/>
      <use xlink:href="#TimesNewRomanPSMT-5b" x="452.734375"/>
      <use xlink:href="#TimesNewRomanPSMT-6d" x="486.035156"/>
      <use xlink:href="#TimesNewRomanPSMT-54" x="563.818359"/>
      <use xlink:href="#TimesNewRomanPSMT-2f" x="624.902344"/>
      <use xlink:href="#TimesNewRomanPSMT-6d" x="652.685547"/>
      <use xlink:href="#TimesNewRomanPSMT-2c" x="730.46875"/>
      <use xlink:href="#TimesNewRomanPSMT-20" x="755.46875"/>
      <use xlink:href="#TimesNewRomanPSMT-6d" x="780.46875"/>
      <use xlink:href="#TimesNewRomanPSMT-47" x="858.251953"/>
      <use xlink:href="#TimesNewRomanPSMT-5d" x="930.46875"/>
     </g>
    </g>
   </g>
   <g id="line2d_13">
    <path d="M 27.905313 42.234848 
L 261.815313 42.234848 
" clip-path="url(#pfdcfe79c4d)" style="fill: none; stroke: #555555; stroke-width: 0.5; stroke-linecap: square"/>
   </g>
   <g id="line2d_14">
    <path d="M 42.829512 42.234848 
L 42.841705 41.759519 
L 42.890477 42.769717 
L 42.939249 43.417428 
L 42.98802 42.720631 
L 43.10995 40.347326 
L 43.158722 40.731178 
L 43.35381 44.651538 
L 43.426968 44.016926 
L 43.670827 39.377466 
L 43.719599 39.770448 
L 44.01223 45.481126 
L 44.109774 44.469779 
L 44.402405 38.646717 
L 44.451177 38.871122 
L 44.597493 41.871513 
L 44.841352 46.129495 
L 44.91451 45.516103 
L 45.15837 39.646275 
L 45.304685 38.050939 
L 45.329071 38.141721 
L 45.426615 39.479203 
L 45.792404 46.696025 
L 45.841176 46.485418 
L 45.963106 44.428993 
L 46.304509 37.528696 
L 46.328895 37.531563 
L 46.402053 38.097048 
L 46.597141 42.530063 
L 46.865386 47.19251 
L 46.914158 47.041914 
L 47.036088 45.232245 
L 47.450649 37.045108 
L 47.475035 37.091414 
L 47.572578 38.100755 
L 47.86521 45.2927 
L 48.060297 47.644462 
L 48.133455 47.233269 
L 48.304157 43.902967 
L 48.669946 36.630946 
L 48.694332 36.615127 
L 48.718718 36.678931 
L 48.816262 37.693824 
L 49.084507 44.265826 
L 49.328367 48.051237 
L 49.377139 47.982277 
L 49.474682 46.9588 
L 49.742928 40.41186 
L 50.011173 36.213471 
L 50.059945 36.310546 
L 50.181875 37.780552 
L 50.718366 48.45207 
L 50.791523 48.141648 
L 50.937839 45.786368 
L 51.449944 35.836195 
L 51.523102 36.222063 
L 51.693803 39.228777 
L 52.181522 48.81818 
L 52.230294 48.694968 
L 52.352224 47.260843 
L 52.669241 39.345194 
L 52.937487 35.480215 
L 52.986259 35.562772 
L 53.108188 36.878298 
L 53.376434 43.406766 
L 53.693451 49.095259 
L 53.742223 49.156479 
L 53.766609 49.090139 
L 53.864153 48.200814 
L 54.083626 43.394931 
L 54.473801 35.312991 
L 54.522573 35.141256 
L 54.571345 35.221676 
L 54.693275 36.483383 
L 54.96152 42.889937 
L 55.302924 49.369293 
L 55.351695 49.495871 
L 55.400467 49.375839 
L 55.522397 48.04561 
L 55.790642 41.610248 
L 56.132046 34.994498 
L 56.205204 34.823366 
L 56.22959 34.886964 
L 56.351519 36.074244 
L 56.595379 41.658712 
L 56.985554 49.61135 
L 57.058712 49.807365 
L 57.083098 49.754551 
L 57.180641 48.967382 
L 57.400115 44.469309 
L 57.863448 34.684453 
L 57.936606 34.512041 
L 57.960992 34.570411 
L 58.058535 35.367817 
L 58.278009 39.842853 
L 58.765728 49.991193 
L 58.8145 50.115089 
L 58.863272 50.011639 
L 58.985201 48.795198 
L 59.229061 43.290256 
L 59.643622 34.525219 
L 59.71678 34.211102 
L 59.765552 34.279898 
L 59.887481 35.399092 
L 60.131341 40.756822 
L 60.570288 50.098725 
L 60.643446 50.403846 
L 60.692218 50.333903 
L 60.814147 49.227875 
L 61.058007 43.921633 
L 61.52134 34.164048 
L 61.594498 33.920031 
L 61.64327 34.026359 
L 61.765199 35.202407 
L 62.009059 40.558239 
L 62.472392 50.397543 
L 62.54555 50.686698 
L 62.594322 50.615103 
L 62.716251 49.534634 
L 62.960111 44.328901 
L 63.44783 33.923408 
L 63.520988 33.644785 
L 63.569759 33.719245 
L 63.691689 34.792749 
L 63.935549 39.956397 
L 64.447654 50.748776 
L 64.520811 50.962113 
L 64.569583 50.847915 
L 64.691513 49.694176 
L 64.935372 44.461232 
L 65.447477 33.619233 
L 65.520635 33.374292 
L 65.569407 33.463498 
L 65.691337 34.546163 
L 65.935196 39.657847 
L 66.471687 51.007844 
L 66.544845 51.227077 
L 66.593617 51.124327 
L 66.715547 50.021714 
L 66.959406 44.914409 
L 67.495897 33.401437 
L 67.593441 33.121114 
L 67.617827 33.173668 
L 67.739756 34.154131 
L 67.95923 38.450205 
L 68.568878 51.333438 
L 68.642036 51.478009 
L 68.666422 51.429287 
L 68.763966 50.758721 
L 68.959054 47.403766 
L 69.690632 32.860162 
L 69.739404 32.941112 
L 69.861334 33.95919 
L 70.080807 38.251002 
L 70.714842 51.598701 
L 70.788 51.725772 
L 70.812386 51.673757 
L 70.934315 50.723292 
L 71.153789 46.544612 
L 71.812209 32.727639 
L 71.860981 32.613873 
L 71.909753 32.686469 
L 72.031683 33.664627 
L 72.251156 37.855097 
L 72.909577 51.820841 
L 72.982735 51.974641 
L 73.007121 51.933894 
L 73.104665 51.31775 
L 73.299752 48.136752 
L 74.104488 32.376186 
L 74.177646 32.638093 
L 74.323962 34.325396 
L 74.616593 41.094816 
L 75.104312 51.638778 
L 75.226242 52.215648 
L 75.275014 52.133744 
L 75.396944 51.160909 
L 75.616417 47.04696 
L 76.32361 32.240106 
L 76.372381 32.137611 
L 76.421153 32.212746 
L 76.543083 33.160852 
L 76.762557 37.219491 
L 77.494135 52.379717 
L 77.542907 52.44684 
L 77.591679 52.338364 
L 77.713608 51.31903 
L 77.957468 46.589646 
L 78.640274 32.091329 
L 78.713432 31.90764 
L 78.762204 32.002102 
L 78.884134 32.980106 
L 79.103607 37.037185 
L 79.859572 52.620666 
L 79.908344 52.671559 
L 79.93273 52.632538 
L 80.030273 52.052682 
L 80.225361 49.044603 
L 81.103255 31.683718 
L 81.127641 31.713558 
L 81.225185 32.253167 
L 81.420272 35.176451 
L 82.322552 52.892638 
L 82.346938 52.851636 
L 82.444482 52.272697 
L 82.63957 49.299874 
L 83.54185 31.464039 
L 83.566236 31.494532 
L 83.663779 32.028285 
L 83.858867 34.908445 
L 84.3222 46.765655 
L 84.663603 52.695894 
L 84.785533 53.11034 
L 84.809919 53.069958 
L 84.907463 52.501572 
L 85.10255 49.578542 
L 85.565883 37.705197 
L 85.907287 31.710873 
L 86.029216 31.248385 
L 86.053602 31.277857 
L 86.151146 31.799689 
L 86.346234 34.62797 
L 86.785181 45.826026 
L 87.15097 52.713658 
L 87.297285 53.324159 
L 87.321671 53.285183 
L 87.419215 52.729954 
L 87.614303 49.859738 
L 88.05325 38.646652 
L 88.419039 31.701608 
L 88.565355 31.036882 
L 88.589741 31.065357 
L 88.687284 31.575788 
L 88.882372 34.354464 
L 89.296933 44.857847 
L 89.711494 52.934883 
L 89.85781 53.533588 
L 89.882196 53.495218 
L 89.97974 52.949612 
L 90.174827 50.12488 
L 90.589388 39.603584 
L 91.003949 31.476441 
L 91.150265 30.829625 
L 91.174651 30.858606 
L 91.272195 31.363945 
L 91.467282 34.105188 
L 91.857458 43.89739 
L 92.296405 52.93477 
L 92.467106 53.738132 
L 92.540264 53.502003 
L 92.68658 52.019193 
L 92.954825 46.462648 
L 93.662018 31.043164 
L 93.783947 30.626937 
L 93.808333 30.659228 
L 93.905877 31.170836 
L 94.100965 33.895687 
L 94.49114 43.646113 
L 94.930087 52.930633 
L 95.100788 53.943433 
L 95.125174 53.936815 
L 95.222718 53.529398 
L 95.39342 51.429925 
L 95.710437 44.094588 
L 96.271314 31.467058 
L 96.466401 30.430074 
L 96.539559 30.662048 
L 96.685875 32.112626 
L 96.95412 37.573478 
L 97.685699 53.665114 
L 97.807628 54.14399 
L 97.8564 54.07289 
L 97.97833 53.246736 
L 98.197804 49.666857 
L 99.173242 30.227849 
L 99.246399 30.38291 
L 99.392715 31.673411 
L 99.636574 36.298224 
L 100.465697 54.095535 
L 100.56324 54.336826 
L 100.587626 54.304612 
L 100.68517 53.808667 
L 100.880258 51.174103 
L 101.246047 42.244161 
L 101.758152 31.082298 
L 101.953239 30.036789 
L 102.026397 30.245802 
L 102.172713 31.623204 
L 102.440958 36.919133 
L 103.221309 54.073757 
L 103.343238 54.531547 
L 103.367624 54.514092 
L 103.465168 54.081887 
L 103.63587 52.004481 
L 103.952887 44.798812 
L 104.562536 30.954489 
L 104.757623 29.843384 
L 104.830781 30.018054 
L 104.977097 31.316532 
L 105.245342 36.473261 
L 106.074464 54.404755 
L 106.172008 54.720076 
L 106.22078 54.662607 
L 106.34271 53.898721 
L 106.562183 50.496409 
L 107.049902 37.949541 
L 107.440077 30.50843 
L 107.610779 29.655385 
L 107.635165 29.674962 
L 107.732709 30.107477 
L 107.90341 32.157788 
L 108.220428 39.283028 
L 108.878848 54.014374 
L 109.04955 54.906868 
L 109.073936 54.894096 
L 109.17148 54.490968 
L 109.342181 52.496207 
L 109.659199 45.450555 
L 110.317619 30.515721 
L 110.512707 29.471295 
L 110.585865 29.654375 
L 110.73218 30.942199 
L 111.000426 36.019388 
L 111.87832 54.837738 
L 111.975863 55.090321 
L 112.024635 55.007503 
L 112.146565 54.199502 
L 112.366039 50.781788 
L 112.853758 38.249546 
L 113.268319 30.199714 
L 113.43902 29.289373 
L 113.463406 29.296558 
L 113.56095 29.670239 
L 113.731652 31.592311 
L 114.048669 38.503621 
L 114.755861 54.38981 
L 114.926563 55.27139 
L 114.950949 55.260947 
L 115.048493 54.876757 
L 115.219194 52.946055 
L 115.536212 46.040851 
L 116.243404 30.064451 
L 116.438492 29.111915 
L 116.51165 29.31434 
L 116.657965 30.61444 
L 116.926211 35.647874 
L 117.828491 55.142555 
L 117.926034 55.449495 
L 117.974806 55.399676 
L 118.096736 54.687917 
L 118.31621 51.464828 
L 118.755157 40.399312 
L 119.242876 30.111527 
L 119.437963 28.933641 
L 119.462349 28.936124 
L 119.535507 29.145514 
L 119.681823 30.447356 
L 119.950068 35.45442 
L 120.876734 55.359597 
L 120.974278 55.626963 
L 121.02305 55.559914 
L 121.144979 54.813745 
L 121.364453 51.560405 
L 121.8034 40.4961 
L 122.291119 30.077964 
L 122.510592 28.755471 
L 122.58375 28.906828 
L 122.730066 30.08715 
L 122.973925 34.34199 
L 124.022521 55.769703 
L 124.071293 55.794447 
L 124.095679 55.757189 
L 124.217609 55.080763 
L 124.437082 51.957476 
L 124.851643 41.685789 
L 125.388134 29.942979 
L 125.607608 28.583081 
L 125.680765 28.714123 
L 125.827081 29.844821 
L 126.070941 34.008609 
L 127.143922 55.942096 
L 127.192694 55.96619 
L 127.21708 55.929226 
L 127.33901 55.260259 
L 127.558483 52.170076 
L 127.973044 41.951853 
L 128.509535 29.995208 
L 128.729009 28.427107 
L 128.777781 28.42923 
L 128.802167 28.478975 
L 128.924096 29.207493 
L 129.14357 32.380091 
L 129.558131 42.653185 
L 130.094622 54.569481 
L 130.314095 56.127364 
L 130.362867 56.125009 
L 130.387253 56.075444 
L 130.509183 55.350665 
L 130.728656 52.194061 
L 131.143218 41.946709 
L 131.679708 29.92977 
L 131.923568 28.245309 
L 131.996726 28.355432 
L 132.143041 29.42552 
L 132.386901 33.459454 
L 132.972164 48.593387 
L 133.362339 55.504432 
L 133.53304 56.30965 
L 133.557426 56.298129 
L 133.65497 55.934683 
L 133.825672 54.125091 
L 134.118303 48.166162 
L 134.996197 28.704362 
L 135.142513 28.078241 
L 135.166899 28.084151 
L 135.264443 28.423568 
L 135.435144 30.187582 
L 135.727775 36.077682 
L 136.630056 55.934428 
L 136.776371 56.475348 
L 136.800757 56.455676 
L 136.898301 56.063651 
L 137.069003 54.220625 
L 137.361634 48.24679 
L 138.239528 28.636273 
L 138.41023 27.912488 
L 138.434616 27.933658 
L 138.532159 28.32983 
L 138.702861 30.173304 
L 139.019878 36.747698 
L 139.873386 55.847908 
L 140.044088 56.63893 
L 140.068474 56.628236 
L 140.166018 56.275257 
L 140.336719 54.508124 
L 140.629351 48.652701 
L 141.556017 28.280371 
L 141.702332 27.749468 
L 141.726718 27.768975 
L 141.824262 28.155095 
L 141.994964 29.970031 
L 142.287595 35.872124 
L 143.214261 56.256156 
L 143.360577 56.801177 
L 143.384963 56.784661 
L 143.482507 56.412008 
L 143.653208 54.624952 
L 143.94584 48.769594 
L 144.872505 28.218562 
L 145.043207 27.59313 
L 145.140751 27.906615 
L 145.311453 29.591158 
L 145.604084 35.30573 
L 146.579522 56.538144 
L 146.701451 56.96011 
L 146.750223 56.916219 
L 146.872153 56.278142 
L 147.091627 53.352203 
L 147.481802 44.109591 
L 148.140222 29.070076 
L 148.384082 27.432763 
L 148.45724 27.523764 
L 148.579169 28.274109 
L 148.798643 31.369063 
L 149.188818 40.756285 
L 149.822853 55.302249 
L 150.066712 57.101805 
L 150.115484 57.107165 
L 150.13987 57.064623 
L 150.2618 56.404975 
L 150.481273 53.461973 
L 150.871448 44.229168 
L 151.529869 29.066695 
L 151.773728 27.287923 
L 151.8225 27.28504 
L 151.846886 27.328589 
L 151.968816 27.99083 
L 152.188289 30.92953 
L 152.578465 40.145396 
L 153.236885 55.385285 
L 153.480745 57.248212 
L 153.529517 57.270562 
L 153.553902 57.236979 
L 153.675832 56.625841 
L 153.87092 54.195128 
L 154.212323 46.618051 
L 154.992673 28.596134 
L 155.212147 27.132421 
L 155.260919 27.128491 
L 155.285305 27.171045 
L 155.407234 27.823949 
L 155.626708 30.731248 
L 156.016883 39.891109 
L 156.69969 55.639607 
L 156.943549 57.412929 
L 156.992321 57.420101 
L 157.016707 57.379394 
L 157.138637 56.737736 
L 157.35811 53.856534 
L 157.723899 45.393359 
L 158.455478 28.565597 
L 158.699337 26.965488 
L 158.772495 27.050236 
L 158.894425 27.772467 
L 159.113898 30.774171 
L 159.504073 40.001137 
L 160.18688 55.749339 
L 160.430739 57.55976 
L 160.479511 57.578178 
L 160.503897 57.543525 
L 160.625827 56.93593 
L 160.820915 54.53755 
L 161.162318 47.044827 
L 161.99144 28.090495 
L 162.210914 26.811395 
L 162.284071 26.903047 
L 162.406001 27.630851 
L 162.625475 30.626004 
L 163.01565 39.822627 
L 163.698456 55.716587 
L 163.942316 57.682541 
L 163.991088 57.737004 
L 164.03986 57.675648 
L 164.161789 57.020766 
L 164.381263 54.14962 
L 164.747052 45.744311 
L 165.503016 28.304816 
L 165.746876 26.66609 
L 165.820034 26.727803 
L 165.941963 27.401366 
L 166.161437 30.294928 
L 166.551612 39.366336 
L 167.28319 56.187899 
L 167.52705 57.873715 
L 167.575822 57.872791 
L 167.600208 57.829327 
L 167.722137 57.186751 
L 167.941611 54.35037 
L 168.3074 46.003137 
L 169.08775 28.065561 
L 169.33161 26.511434 
L 169.404768 26.594176 
L 169.526698 27.296667 
L 169.746171 30.221816 
L 170.136346 39.30119 
L 170.867925 56.215029 
L 171.111784 58.007565 
L 171.160556 58.032118 
L 171.184942 58.001765 
L 171.306872 57.427623 
L 171.501959 55.11603 
L 171.843362 47.793198 
L 172.721257 27.665938 
L 172.94073 26.36547 
L 173.013888 26.435145 
L 173.135818 27.111146 
L 173.355291 29.979528 
L 173.72108 38.324314 
L 174.501431 56.428497 
L 174.74529 58.161678 
L 174.794062 58.176929 
L 174.818448 58.142342 
L 174.940378 57.551166 
L 175.135465 55.226793 
L 175.476868 47.911536 
L 176.379149 27.385948 
L 176.598622 26.21255 
L 176.67178 26.321065 
L 176.818096 27.283016 
L 177.061955 30.910342 
L 177.500902 41.718427 
L 178.134937 56.202879 
L 178.403182 58.29987 
L 178.451954 58.327118 
L 178.500726 58.242821 
L 178.622656 57.549985 
L 178.842129 54.675342 
L 179.207918 46.357651 
L 180.012655 27.750904 
L 180.256514 26.083356 
L 180.305286 26.077253 
L 180.329672 26.115855 
L 180.451602 26.721109 
L 180.671075 29.447494 
L 181.036864 37.600921 
L 181.865986 56.80982 
L 182.109846 58.459938 
L 182.158618 58.463873 
L 182.183004 58.424385 
L 182.304934 57.81655 
L 182.524407 55.092745 
L 182.890196 46.9534 
L 183.719318 27.670147 
L 183.963178 25.947729 
L 184.01195 25.927307 
L 184.036336 25.958379 
L 184.158265 26.523015 
L 184.353353 28.779713 
L 184.694756 35.959379 
L 185.645808 57.519756 
L 185.865282 58.619554 
L 185.93844 58.496993 
L 186.084755 57.523831 
L 186.328615 53.920624 
L 186.767562 43.18462 
L 187.425982 28.025425 
L 187.694228 25.832198 
L 187.767386 25.792942 
L 187.791772 25.834397 
L 187.913701 26.446655 
L 188.133175 29.157837 
L 188.498964 37.250256 
L 189.352472 57.060941 
L 189.596332 58.739597 
L 189.645103 58.755123 
L 189.669489 58.722148 
L 189.791419 58.15334 
L 189.986507 55.907022 
L 190.32791 48.771976 
L 191.303348 26.703053 
L 191.522821 25.636929 
L 191.595979 25.764663 
L 191.742295 26.738726 
L 191.986154 30.32028 
L 192.425101 41.006592 
L 193.107908 56.712549 
L 193.376153 58.855028 
L 193.424925 58.903186 
L 193.473697 58.843627 
L 193.595627 58.227712 
L 193.8151 55.529653 
L 194.18089 47.484097 
L 195.058784 27.149562 
L 195.302643 25.515271 
L 195.351415 25.504888 
L 195.375801 25.539927 
L 195.497731 26.11385 
L 195.717204 28.737125 
L 196.082993 36.690671 
L 196.985273 57.502755 
L 197.229133 59.034428 
L 197.302291 58.980044 
L 197.42422 58.359617 
L 197.643694 55.666533 
L 198.009483 47.647811 
L 198.911763 26.878518 
L 199.155623 25.364652 
L 199.22878 25.422438 
L 199.35071 26.046268 
L 199.570184 28.738849 
L 199.935973 36.746431 
L 200.838253 57.587948 
L 201.082112 59.167605 
L 201.15527 59.13231 
L 201.2772 58.547448 
L 201.496674 55.924551 
L 201.862463 48.003834 
L 202.789129 26.696469 
L 203.032988 25.224032 
L 203.106146 25.290473 
L 203.228076 25.924235 
L 203.447549 28.621117 
L 203.813338 36.612491 
L 204.715618 57.585022 
L 204.959478 59.287055 
L 205.00825 59.317945 
L 205.057022 59.243754 
L 205.178951 58.603148 
L 205.398425 55.900949 
L 205.764214 47.914061 
L 206.69088 26.59597 
L 206.93474 25.090193 
L 207.007897 25.142248 
L 207.129827 25.748358 
L 207.349301 28.388398 
L 207.71509 36.296562 
L 208.641756 57.78767 
L 208.885615 59.431107 
L 208.934387 59.452292 
L 208.958773 59.423777 
L 209.080703 58.893085 
L 209.275791 56.754014 
L 209.592808 50.448895 
L 210.714561 25.631555 
L 210.885263 24.945991 
L 210.909649 24.951323 
L 211.007193 25.23161 
L 211.177894 26.6939 
L 211.470526 31.742533 
L 212.080174 47.623176 
L 212.567893 57.609065 
L 212.836139 59.563365 
L 212.884911 59.589298 
L 212.933682 59.511794 
L 213.055612 58.870103 
L 213.275086 56.188818 
L 213.640875 48.265377 
L 214.591927 26.353064 
L 214.835786 24.823277 
L 214.908944 24.860051 
L 215.030874 25.433126 
L 215.250347 27.996323 
L 215.591751 35.159991 
L 216.61596 58.492851 
L 216.835434 59.717542 
L 216.908592 59.66847 
L 217.030522 59.077167 
L 217.249995 56.489487 
L 217.615784 48.690865 
L 218.591222 26.205077 
L 218.835082 24.688877 
L 218.908239 24.726067 
L 219.030169 25.29597 
L 219.249643 27.842968 
L 219.591046 34.970243 
L 220.639642 58.727581 
L 220.859115 59.857701 
L 220.932273 59.779831 
L 221.054203 59.145178 
L 221.273676 56.497126 
L 221.639465 48.650175 
L 222.614903 26.127514 
L 222.858763 24.562737 
L 222.907535 24.549646 
L 222.931921 24.581167 
L 223.05385 25.116488 
L 223.248938 27.229927 
L 223.565955 33.442778 
L 224.736481 59.315048 
L 224.907182 59.991677 
L 224.931568 59.987777 
L 225.029112 59.719965 
L 225.199814 58.303304 
L 225.468059 53.890321 
L 225.980164 40.878673 
L 226.589813 27.080473 
L 226.882444 24.50534 
L 226.955602 24.411435 
L 227.004374 24.474737 
L 227.126303 25.069957 
L 227.345777 27.637458 
L 227.68718 34.750574 
L 228.760162 59.015441 
L 228.979635 60.122223 
L 229.052793 60.043116 
L 229.174723 59.413787 
L 229.394196 56.795307 
L 229.759986 49.020236 
L 230.784195 25.6314 
L 231.028055 24.282191 
L 231.101213 24.360043 
L 231.223142 24.985533 
L 231.442616 27.592625 
L 231.808405 35.345236 
L 232.832615 58.825966 
L 233.076474 60.247759 
L 233.149632 60.194012 
L 233.271562 59.609785 
L 233.491035 57.075738 
L 233.832439 50.026144 
L 234.929806 25.236805 
L 235.14928 24.151427 
L 235.222438 24.232971 
L 235.368753 25.058993 
L 235.612613 28.275156 
L 236.002788 37.080435 
L 236.905068 58.229216 
L 237.173313 60.317742 
L 237.246471 60.379505 
L 237.270857 60.350622 
L 237.392787 59.837753 
L 237.587875 57.787906 
L 237.904892 51.711299 
L 239.148575 24.548756 
L 239.319277 24.022543 
L 239.343663 24.045643 
L 239.441206 24.383433 
L 239.636294 26.201029 
L 239.928925 31.430417 
L 240.587346 48.624972 
L 241.075065 58.446583 
L 241.34331 60.459844 
L 241.416468 60.503706 
L 241.440854 60.469208 
L 241.562784 59.931178 
L 241.782257 57.493441 
L 242.123661 50.586579 
L 243.2698 24.85938 
L 243.489274 23.891961 
L 243.562431 24.007305 
L 243.708747 24.890209 
L 243.952607 28.167042 
L 244.342782 36.996845 
L 245.269448 58.598855 
L 245.537693 60.589812 
L 245.610851 60.630841 
L 245.635237 60.59574 
L 245.757167 60.057251 
L 245.97664 57.628386 
L 246.318043 50.748838 
L 247.488569 24.634509 
L 247.708042 23.767639 
L 247.805586 24.011053 
L 247.976288 25.351344 
L 248.244533 29.588234 
L 248.732252 41.70617 
L 249.415059 57.670098 
L 249.70769 60.553124 
L 249.805234 60.767981 
L 249.854006 60.730211 
L 249.975935 60.214448 
L 250.171023 58.184519 
L 250.48804 52.180115 
L 251.780495 24.107109 
L 251.926811 23.638698 
L 251.951197 23.644842 
L 252.048741 23.91027 
L 252.219443 25.281495 
L 252.487688 29.546641 
L 252.975407 41.672509 
L 253.682599 58.052912 
L 253.975231 60.741785 
L 254.072774 60.892405 
L 254.09716 60.869933 
L 254.21909 60.398726 
L 254.414178 58.443299 
L 254.731195 52.548256 
L 256.072422 23.833447 
L 256.194352 23.512695 
L 256.243124 23.551952 
L 256.365053 24.06719 
L 256.560141 26.084743 
L 256.852772 31.758464 
L 257.316105 41.378076 
L 257.535579 42.234585 
L 257.669702 42.234848 
M 257.669702 42.234848 
L 257.669702 42.237904 
L 261.815313 42.234848 
L 261.815313 42.234848 
" clip-path="url(#pfdcfe79c4d)" style="fill: none; stroke: #636efa; stroke-width: 0.5; stroke-linecap: square"/>
   </g>
   <g id="line2d_15">
    <path d="M 42.829512 42.234848 
L 42.890477 41.50711 
L 42.914863 41.924721 
L 43.012406 43.798228 
L 43.061178 43.329684 
L 43.23188 40.063529 
L 43.280652 40.495858 
L 43.500125 44.883258 
L 43.573283 44.27441 
L 43.841529 39.18251 
L 43.890301 39.566117 
L 44.207318 45.655475 
L 44.304862 44.605525 
L 44.621879 38.492352 
L 44.670651 38.799467 
L 44.816966 41.887319 
L 45.060826 46.283275 
L 45.085212 46.226485 
L 45.182756 44.975548 
L 45.548545 37.913644 
L 45.597317 38.192484 
L 45.743632 41.036284 
L 46.06065 46.816003 
L 46.133808 46.259918 
L 46.328895 41.800993 
L 46.597141 37.400509 
L 46.670298 37.898153 
L 46.841 41.534777 
L 47.158017 47.31025 
L 47.206789 47.122069 
L 47.328719 45.262996 
L 47.74328 36.936286 
L 47.792052 37.060308 
L 47.913982 38.734897 
L 48.377315 47.747618 
L 48.426087 47.527616 
L 48.572402 45.153051 
L 49.011349 36.508231 
L 49.035735 36.546994 
L 49.133279 37.456566 
L 49.377139 43.265229 
L 49.66977 48.158432 
L 49.718542 48.057738 
L 49.840471 46.561582 
L 50.376962 36.118764 
L 50.45012 36.533962 
L 50.620822 39.665392 
L 51.059769 48.52628 
L 51.084155 48.543327 
L 51.108541 48.489363 
L 51.206084 47.588608 
L 51.425558 42.6077 
L 51.766961 35.848019 
L 51.815733 35.74281 
L 51.840119 35.793674 
L 51.937663 36.664572 
L 52.157136 41.560731 
L 52.522926 48.817477 
L 52.571698 48.902352 
L 52.596083 48.844075 
L 52.693627 47.962155 
L 52.913101 43.099138 
L 53.303276 35.446813 
L 53.327662 35.392795 
L 53.376434 35.481118 
L 53.498363 36.796907 
L 53.766609 43.307858 
L 54.083626 49.143746 
L 54.132398 49.248486 
L 54.18117 49.098092 
L 54.3031 47.666085 
L 54.595731 40.433443 
L 54.888362 35.192322 
L 54.937134 35.055297 
L 54.985906 35.167653 
L 55.107836 36.491157 
L 55.376081 42.937825 
L 55.717485 49.43617 
L 55.766257 49.575549 
L 55.815028 49.471001 
L 55.936958 48.186598 
L 56.205204 41.81383 
L 56.570993 34.847393 
L 56.619765 34.735654 
L 56.668537 34.862725 
L 56.790466 36.178698 
L 57.058712 42.547244 
L 57.424501 49.711968 
L 57.497659 49.880365 
L 57.522045 49.81951 
L 57.619588 49.007272 
L 57.839062 44.491404 
L 58.302395 34.63847 
L 58.375553 34.431652 
L 58.424325 34.580249 
L 58.546254 35.90909 
L 58.8145 42.222026 
L 59.204675 49.991834 
L 59.277833 50.185904 
L 59.302219 50.13802 
L 59.399763 49.395971 
L 59.59485 45.675336 
L 60.155727 34.180254 
L 60.204499 34.148331 
L 60.228885 34.21534 
L 60.350814 35.349773 
L 60.594674 40.707554 
L 61.058007 50.294779 
L 61.131165 50.4746 
L 61.155551 50.425888 
L 61.253095 49.699302 
L 61.448182 46.062932 
L 62.033445 33.917182 
L 62.082217 33.854392 
L 62.106603 33.903215 
L 62.204146 34.621591 
L 62.399234 38.216614 
L 63.008883 50.719051 
L 63.057655 50.742731 
L 63.082041 50.675713 
L 63.20397 49.57889 
L 63.44783 44.369425 
L 63.935549 33.891819 
L 64.033092 33.580978 
L 64.057478 33.63236 
L 64.155022 34.344517 
L 64.35011 37.875029 
L 64.984144 50.977573 
L 65.032916 51.020897 
L 65.057302 50.96608 
L 65.179232 49.949346 
L 65.398705 45.537176 
L 65.959582 33.528533 
L 66.03274 33.30806 
L 66.081512 33.411795 
L 66.203442 34.52261 
L 66.447301 39.655459 
L 66.983792 51.051112 
L 67.05695 51.29167 
L 67.105722 51.204977 
L 67.227651 50.145985 
L 67.471511 45.110798 
L 68.032388 33.252309 
L 68.105546 33.049414 
L 68.154317 33.157867 
L 68.276247 34.256956 
L 68.520107 39.316031 
L 69.080983 51.293674 
L 69.154141 51.545836 
L 69.202913 51.47368 
L 69.324843 50.471197 
L 69.544316 46.186683 
L 70.178351 32.912539 
L 70.227123 32.798265 
L 70.275895 32.873983 
L 70.397824 33.874495 
L 70.617298 38.131043 
L 71.251333 51.620318 
L 71.32449 51.794222 
L 71.373262 51.675931 
L 71.495192 50.584622 
L 71.739052 45.618057 
L 72.324314 32.893299 
L 72.421858 32.552548 
L 72.47063 32.659256 
L 72.59256 33.713621 
L 72.836419 38.603353 
L 73.446068 51.754872 
L 73.543612 52.032841 
L 73.567998 51.988187 
L 73.665541 51.359551 
L 73.860629 48.168416 
L 74.665365 32.314073 
L 74.738523 32.549105 
L 74.884839 34.180982 
L 75.17747 40.877384 
L 75.665189 51.59235 
L 75.811505 52.26991 
L 75.835891 52.227581 
L 75.933434 51.618343 
L 76.128522 48.498009 
L 76.957644 32.079464 
L 76.98203 32.10636 
L 77.079574 32.650527 
L 77.274661 35.644175 
L 78.12817 52.50415 
L 78.152556 52.472302 
L 78.250099 51.913568 
L 78.445187 48.914123 
L 79.298695 31.851617 
L 79.347467 31.921941 
L 79.469397 32.838334 
L 79.68887 36.800711 
L 80.444834 52.634229 
L 80.493606 52.730771 
L 80.542378 52.656408 
L 80.664308 51.737989 
L 80.883782 47.793079 
L 81.664132 31.681416 
L 81.712904 31.630883 
L 81.73729 31.66907 
L 81.834833 32.239137 
L 82.029921 35.205307 
L 82.932201 52.948563 
L 82.956587 52.91016 
L 83.054131 52.343447 
L 83.249218 49.399378 
L 83.761323 36.34772 
L 84.078341 31.604966 
L 84.151498 31.408776 
L 84.20027 31.484918 
L 84.3222 32.386028 
L 84.541674 36.248862 
L 85.370796 53.14457 
L 85.419568 53.1517 
L 85.443954 53.093747 
L 85.565883 52.202358 
L 85.785357 48.371669 
L 86.614479 31.245885 
L 86.663251 31.197496 
L 86.687637 31.23427 
L 86.785181 31.782765 
L 86.980268 34.64898 
L 87.419215 45.863818 
L 87.785004 52.754912 
L 87.93132 53.378022 
L 87.955706 53.341839 
L 88.05325 52.799403 
L 88.248337 49.958435 
L 88.687284 38.766058 
L 89.07746 31.499139 
L 89.199389 30.98398 
L 89.248161 31.055704 
L 89.370091 31.920183 
L 89.589564 35.659557 
L 90.467459 53.566252 
L 90.51623 53.573206 
L 90.540616 53.517442 
L 90.662546 52.658234 
L 90.88202 48.943353 
L 91.7843 30.783388 
L 91.833072 30.817893 
L 91.930615 31.352303 
L 92.125703 34.136862 
L 92.540264 44.612782 
L 92.954825 52.980379 
L 93.125527 53.789669 
L 93.198685 53.558644 
L 93.345 52.089548 
L 93.613246 46.559549 
L 94.320438 31.04075 
L 94.442368 30.574461 
L 94.466754 30.596131 
L 94.564298 31.06442 
L 94.759385 33.707136 
L 95.125174 42.717449 
L 95.612893 53.114415 
L 95.783595 53.994915 
L 95.807981 53.969521 
L 95.905525 53.489823 
L 96.100612 50.840264 
L 96.490787 41.171943 
L 96.95412 31.343331 
L 97.124822 30.375738 
L 97.149208 30.387108 
L 97.246752 30.80849 
L 97.417453 32.913831 
L 97.734471 40.228098 
L 98.319733 53.277253 
L 98.490435 54.193153 
L 98.514821 54.175432 
L 98.612365 53.732089 
L 98.783066 51.602607 
L 99.12447 43.617766 
L 99.685346 31.162492 
L 99.856048 30.180744 
L 99.880434 30.187592 
L 99.977978 30.585137 
L 100.148679 32.632247 
L 100.465697 39.848629 
L 101.075345 53.478046 
L 101.246047 54.387613 
L 101.270433 54.371348 
L 101.367977 53.93959 
L 101.538678 51.848401 
L 101.855696 44.602019 
L 102.465344 30.93872 
L 102.636046 29.987115 
L 102.660432 29.996076 
L 102.757976 30.396179 
L 102.928677 32.427572 
L 103.245695 39.591372 
L 103.879729 53.722846 
L 104.050431 54.578943 
L 104.074817 54.557128 
L 104.172361 54.109117 
L 104.367448 51.588308 
L 104.733237 42.800617 
L 105.269728 30.931077 
L 105.464816 29.795949 
L 105.537974 29.959152 
L 105.684289 31.232467 
L 105.928149 35.765535 
L 106.830429 54.653916 
L 106.903587 54.763548 
L 106.927973 54.728494 
L 107.025516 54.233779 
L 107.220604 51.652501 
L 107.586393 42.842636 
L 108.122884 30.870032 
L 108.342357 29.613439 
L 108.415515 29.827144 
L 108.561831 31.182522 
L 108.830076 36.375224 
L 109.683584 54.686234 
L 109.781128 54.953191 
L 109.8299 54.875336 
L 109.95183 54.073021 
L 110.171303 50.645241 
L 110.659022 38.098886 
L 111.073583 30.211287 
L 111.244285 29.4257 
L 111.268671 29.452559 
L 111.366215 29.907475 
L 111.561302 32.386367 
L 111.902706 40.385286 
L 112.512354 54.038142 
L 112.707442 55.136442 
L 112.7806 54.980102 
L 112.926915 53.752468 
L 113.170775 49.349976 
L 114.121827 29.367757 
L 114.194985 29.244333 
L 114.243757 29.334655 
L 114.365686 30.154689 
L 114.58516 33.57251 
L 115.072879 46.095174 
L 115.48744 54.284267 
L 115.682527 55.316298 
L 115.755685 55.142348 
L 115.902001 53.893343 
L 116.14586 49.490186 
L 117.121298 29.156872 
L 117.194456 29.070814 
L 117.218842 29.110261 
L 117.340772 29.811781 
L 117.560245 33.024929 
L 117.999192 44.089144 
L 118.486911 54.346442 
L 118.681999 55.493507 
L 118.706385 55.486553 
L 118.803929 55.121852 
L 118.97463 53.24235 
L 119.291647 46.438737 
L 120.023226 29.862242 
L 120.218313 28.888517 
L 120.291471 29.073638 
L 120.437787 30.326601 
L 120.706032 35.258159 
L 121.657084 55.473332 
L 121.754628 55.665417 
L 121.779014 55.630006 
L 121.900944 54.957952 
L 122.120417 51.824877 
L 122.534978 41.525766 
L 123.047083 30.222786 
L 123.266557 28.718592 
L 123.339715 28.805409 
L 123.461644 29.604455 
L 123.681118 32.92262 
L 124.120065 44.017391 
L 124.607784 54.464448 
L 124.827257 55.843261 
L 124.900415 55.716887 
L 125.046731 54.592481 
L 125.29059 50.430988 
L 126.363572 28.564108 
L 126.412344 28.549739 
L 126.43673 28.59171 
L 126.55866 29.286648 
L 126.778133 32.422645 
L 127.192694 42.685073 
L 127.729185 54.534636 
L 127.948659 56.009079 
L 128.021816 55.922958 
L 128.143746 55.136993 
L 128.36322 51.870327 
L 128.802167 40.847788 
L 129.314272 29.781303 
L 129.533745 28.372371 
L 129.606903 28.477578 
L 129.728833 29.290578 
L 129.948306 32.588777 
L 130.387253 43.624293 
L 130.899358 54.723519 
L 131.118832 56.178446 
L 131.191989 56.092578 
L 131.313919 55.314631 
L 131.533393 52.080485 
L 131.947954 41.775896 
L 132.484445 29.833547 
L 132.728304 28.202092 
L 132.801462 28.326902 
L 132.947778 29.422801 
L 133.191637 33.486109 
L 133.801286 49.220259 
L 134.167075 55.539712 
L 134.337777 56.351033 
L 134.362162 56.340776 
L 134.459706 55.98325 
L 134.630408 54.186551 
L 134.923039 48.249866 
L 135.800933 28.707894 
L 135.971635 28.038595 
L 136.044793 28.223532 
L 136.191108 29.425072 
L 136.434968 33.609075 
L 137.556721 56.490014 
L 137.605493 56.509039 
L 137.629879 56.471397 
L 137.751809 55.817258 
L 137.971283 52.815566 
L 138.361458 43.430276 
L 138.971106 29.543251 
L 139.214966 27.874221 
L 139.288124 27.973228 
L 139.410053 28.754586 
L 139.629527 31.946453 
L 140.044088 42.155462 
L 140.604965 54.849736 
L 140.848824 56.665428 
L 140.897596 56.663343 
L 140.921982 56.61571 
L 141.043912 55.91779 
L 141.263385 52.865738 
L 141.653561 43.461356 
L 142.263209 29.498102 
L 142.507069 27.720512 
L 142.580226 27.778874 
L 142.702156 28.487498 
L 142.92163 31.547327 
L 143.311805 40.945993 
L 143.94584 55.284782 
L 144.165313 56.820976 
L 144.214085 56.830329 
L 144.238471 56.788926 
L 144.360401 56.126465 
L 144.579874 53.148529 
L 144.970049 43.837527 
L 145.604084 29.299795 
L 145.847943 27.55831 
L 145.921101 27.621502 
L 146.043031 28.331431 
L 146.262504 31.375596 
L 146.65268 40.73486 
L 147.286714 55.248318 
L 147.530574 56.990246 
L 147.603731 56.930354 
L 147.725661 56.228988 
L 147.945135 53.207006 
L 148.33531 43.88077 
L 148.969345 29.262933 
L 149.213204 27.412987 
L 149.261976 27.398009 
L 149.286362 27.435885 
L 149.408292 28.073757 
L 149.627765 30.986331 
L 150.01794 40.196513 
L 150.676361 55.367395 
L 150.92022 57.143288 
L 150.968992 57.144639 
L 150.993378 57.100202 
L 151.115308 56.432484 
L 151.334781 53.480879 
L 151.724956 44.246265 
L 152.383377 29.060567 
L 152.627236 27.252646 
L 152.676008 27.24275 
L 152.700394 27.282671 
L 152.822324 27.926032 
L 153.041798 30.830437 
L 153.431973 40.006719 
L 154.114779 55.649593 
L 154.358639 57.308552 
L 154.431797 57.234876 
L 154.553726 56.523405 
L 154.7732 53.518849 
L 155.163375 44.258716 
L 155.821796 29.010667 
L 156.065655 27.112327 
L 156.114427 27.079837 
L 156.163199 27.165768 
L 156.285128 27.891918 
L 156.504602 30.911673 
L 156.894777 40.174119 
L 157.577584 55.787064 
L 157.821443 57.460949 
L 157.894601 57.397756 
L 158.016531 56.70917 
L 158.236004 53.757043 
L 158.626179 44.572157 
L 159.308986 28.784357 
L 159.552845 26.950897 
L 159.601617 26.928512 
L 159.626003 26.961288 
L 159.747933 27.560761 
L 159.94302 29.950691 
L 160.284424 37.439781 
L 161.113546 56.367926 
L 161.333019 57.621521 
L 161.406177 57.519845 
L 161.552493 56.541214 
L 161.796352 52.815799 
L 162.259685 41.172327 
L 162.820562 28.700635 
L 163.064422 26.810061 
L 163.113194 26.772289 
L 163.161965 26.850603 
L 163.283895 27.548187 
L 163.503369 30.491433 
L 163.893544 39.630865 
L 164.600736 55.959363 
L 164.844596 57.74969 
L 164.893368 57.768114 
L 164.917754 57.734004 
L 165.039683 57.134291 
L 165.234771 54.763582 
L 165.576174 47.331771 
L 166.429682 27.857992 
L 166.649156 26.621274 
L 166.722314 26.721188 
L 166.868629 27.685409 
L 167.112489 31.363222 
L 167.551436 42.269436 
L 168.161084 56.00087 
L 168.404944 57.882918 
L 168.453716 57.923831 
L 168.502488 57.850319 
L 168.624417 57.171566 
L 168.843891 54.280774 
L 169.234066 45.230371 
L 169.965645 28.298169 
L 170.209504 26.499644 
L 170.258276 26.47463 
L 170.282662 26.504853 
L 170.404592 27.079334 
L 170.599679 29.394495 
L 170.941082 36.727226 
L 171.818976 56.807916 
L 172.03845 58.070029 
L 172.111608 57.986044 
L 172.233538 57.285428 
L 172.453011 54.374027 
L 172.843186 45.32637 
L 173.574765 28.289769 
L 173.818624 26.374715 
L 173.867396 26.322166 
L 173.916168 26.382439 
L 174.038098 27.021943 
L 174.257571 29.828036 
L 174.62336 38.104004 
L 175.428097 56.640195 
L 175.671956 58.214304 
L 175.745114 58.146643 
L 175.867044 57.47772 
L 176.086517 54.631258 
L 176.452306 46.325551 
L 177.257043 27.781008 
L 177.500902 26.184478 
L 177.57406 26.242712 
L 177.69599 26.893735 
L 177.915463 29.704453 
L 178.281252 37.962398 
L 179.085989 56.634785 
L 179.329848 58.345169 
L 179.37862 58.359441 
L 179.403006 58.32484 
L 179.524936 57.738271 
L 179.720023 55.435288 
L 180.061426 48.172949 
L 180.988092 27.151657 
L 181.207566 26.03007 
L 181.280724 26.150642 
L 181.427039 27.127822 
L 181.670899 30.756575 
L 182.109846 41.540143 
L 182.743881 56.173145 
L 183.012126 58.446387 
L 183.085284 58.502552 
L 183.10967 58.466115 
L 183.2316 57.874184 
L 183.451073 55.179619 
L 183.816862 47.076794 
L 184.67037 27.418987 
L 184.91423 25.891726 
L 184.987388 25.961938 
L 185.109317 26.622893 
L 185.328791 29.42279 
L 185.69458 37.625176 
L 186.523702 56.893671 
L 186.767562 58.626455 
L 186.816334 58.65118 
L 186.84072 58.622517 
L 186.962649 58.072406 
L 187.157737 55.845385 
L 187.49914 48.717863 
L 188.450192 26.980303 
L 188.669666 25.747924 
L 188.742823 25.822107 
L 188.864753 26.48492 
L 189.084227 29.274907 
L 189.450016 37.445249 
L 190.303524 57.164957 
L 190.547383 58.782142 
L 190.596155 58.785591 
L 190.620541 58.74666 
L 190.742471 58.149442 
L 190.961945 55.472389 
L 191.327734 47.433062 
L 192.205628 27.17129 
L 192.449487 25.611752 
L 192.522645 25.662909 
L 192.644575 26.283568 
L 192.864048 28.992473 
L 193.229838 37.055098 
L 194.107732 57.336804 
L 194.351591 58.924952 
L 194.424749 58.88485 
L 194.546679 58.284534 
L 194.766152 55.61503 
L 195.131941 47.605729 
L 196.009836 27.191258 
L 196.253695 25.489967 
L 196.302467 25.464997 
L 196.351239 25.547065 
L 196.473169 26.215282 
L 196.692642 28.989121 
L 197.058431 37.099989 
L 197.936325 57.416226 
L 198.180185 59.057183 
L 198.228957 59.070915 
L 198.253343 59.037803 
L 198.375272 58.475815 
L 198.57036 56.263197 
L 198.911763 49.216091 
L 199.911587 26.475893 
L 200.131061 25.323828 
L 200.204218 25.413368 
L 200.350534 26.300028 
L 200.594394 29.721593 
L 201.008955 39.550292 
L 201.740533 56.753385 
L 202.008778 59.112026 
L 202.081936 59.21648 
L 202.130708 59.153977 
L 202.252638 58.539346 
L 202.472111 55.870753 
L 202.837901 47.905109 
L 203.764567 26.63835 
L 204.008426 25.188366 
L 204.081584 25.260709 
L 204.203514 25.903101 
L 204.422987 28.611115 
L 204.788776 36.609488 
L 205.691056 57.597762 
L 205.934916 59.317782 
L 205.983688 59.353038 
L 206.03246 59.28341 
L 206.154389 58.654927 
L 206.373863 55.975398 
L 206.739652 48.018503 
L 207.666318 26.626914 
L 207.910177 25.062176 
L 207.983335 25.09496 
L 208.105265 25.668456 
L 208.324739 28.252135 
L 208.666142 35.471409 
L 209.665966 58.253105 
L 209.885439 59.482329 
L 209.958597 59.428544 
L 210.080527 58.822638 
L 210.3 56.191512 
L 210.665789 48.30867 
L 211.616841 26.417383 
L 211.860701 24.920551 
L 211.933859 24.970425 
L 212.055788 25.567929 
L 212.275262 28.179642 
L 212.641051 36.030596 
L 213.592103 58.024596 
L 213.835963 59.606926 
L 213.884734 59.618452 
L 213.90912 59.585493 
L 214.03105 59.036616 
L 214.226138 56.882502 
L 214.567541 49.987681 
L 215.640523 25.786259 
L 215.859996 24.776282 
L 215.933154 24.899313 
L 216.07947 25.829552 
L 216.323329 29.259492 
L 216.73789 39.016143 
L 217.51824 57.342066 
L 217.786486 59.652928 
L 217.859644 59.760434 
L 217.908416 59.704062 
L 218.030345 59.118542 
L 218.249819 56.543105 
L 218.591222 49.380238 
L 219.615432 25.956322 
L 219.834905 24.661008 
L 219.883677 24.650349 
L 219.908063 24.6833 
L 220.029993 25.227792 
L 220.225081 27.361587 
L 220.566484 34.202114 
L 221.663851 58.911309 
L 221.883325 59.893495 
L 221.956483 59.766247 
L 222.102798 58.835404 
L 222.346658 55.424054 
L 222.761219 45.71433 
L 223.565955 26.856381 
L 223.834201 24.606213 
L 223.907358 24.510274 
L 223.95613 24.572922 
L 224.07806 25.168941 
L 224.297534 27.74559 
L 224.663323 35.497004 
L 225.663147 58.518648 
L 225.907006 60.013387 
L 225.980164 59.975987 
L 226.102094 59.412285 
L 226.321567 56.894174 
L 226.66297 49.830843 
L 227.735952 25.514499 
L 227.955426 24.381666 
L 228.028583 24.452727 
L 228.150513 25.069788 
L 228.369987 27.670658 
L 228.735776 35.430387 
L 229.759986 58.814622 
L 230.003845 60.1553 
L 230.077003 60.073944 
L 230.198933 59.44183 
L 230.418406 56.821319 
L 230.784195 49.04866 
L 231.808405 25.627468 
L 232.052265 24.251159 
L 232.125422 24.319796 
L 232.247352 24.92931 
L 232.466826 27.50758 
L 232.832615 35.222393 
L 233.856825 58.788563 
L 234.100684 60.274009 
L 234.173842 60.240787 
L 234.295772 59.691127 
L 234.515245 57.216775 
L 234.856649 50.238009 
L 235.978402 25.0752 
L 236.197876 24.117375 
L 236.271033 24.241382 
L 236.417349 25.149141 
L 236.661209 28.4833 
L 237.07577 38.049965 
L 237.929278 58.078842 
L 238.197523 60.31278 
L 238.270681 60.417179 
L 238.319453 60.363351 
L 238.441383 59.799954 
L 238.660856 57.31281 
L 239.002259 50.337343 
L 240.124013 25.040503 
L 240.343486 23.989092 
L 240.416644 24.078263 
L 240.56296 24.913434 
L 240.806819 28.128195 
L 241.196995 36.909108 
L 242.123661 58.519361 
L 242.391906 60.498011 
L 242.465064 60.53289 
L 242.48945 60.495485 
L 242.61138 59.94376 
L 242.830853 57.485711 
L 243.172256 50.560273 
L 244.318396 24.832012 
L 244.537869 23.860001 
L 244.611027 23.973032 
L 244.757343 24.850308 
L 245.001202 28.115906 
L 245.391377 36.930022 
L 246.318043 58.579078 
L 246.586289 60.612382 
L 246.659447 60.666366 
L 246.683833 60.635659 
L 246.805762 60.119497 
L 247.00085 58.083049 
L 247.317867 52.058865 
L 248.610322 24.142333 
L 248.756638 23.733199 
L 248.781024 23.749725 
L 248.878568 24.057649 
L 249.049269 25.504548 
L 249.341901 30.386285 
L 249.902778 44.780146 
L 250.48804 57.898174 
L 250.780672 60.635141 
L 250.878215 60.799038 
L 250.926987 60.735983 
L 251.048917 60.158597 
L 251.268391 57.676899 
L 251.609794 50.758606 
L 252.780319 24.546925 
L 252.999793 23.606693 
L 253.072951 23.724543 
L 253.219266 24.602531 
L 253.463126 27.846545 
L 253.853301 36.603861 
L 254.804353 58.828794 
L 255.072598 60.860451 
L 255.145756 60.92076 
L 255.170142 60.892825 
L 255.292072 60.395197 
L 255.487159 58.402085 
L 255.804177 52.463168 
L 256.92593 27.036389 
L 256.974702 27.19486 
L 257.096632 28.620403 
L 257.413649 36.168045 
L 257.669702 42.234848 
M 257.669702 42.234848 
L 257.669702 42.203902 
L 261.815313 42.234848 
L 261.815313 42.234848 
" clip-path="url(#pfdcfe79c4d)" style="fill: none; stroke: #ef553b; stroke-width: 0.5; stroke-linecap: square"/>
   </g>
   <g id="line2d_16">
    <path d="M 27.905313 42.234848 
L 28.197944 31.740015 
L 33.075133 31.740015 
L 33.367765 42.234848 
M 33.367765 42.234848 
L 34.245659 73.136254 
L 34.245659 73.136254 
L 35.123553 42.234848 
M 257.669702 42.234848 
L 258.52321 11.139077 
L 260.961804 11.139077 
L 261.815313 42.234848 
" clip-path="url(#pfdcfe79c4d)" style="fill: none; stroke: #00cc96; stroke-width: 0.5; stroke-linecap: square"/>
   </g>
   <g id="line2d_17">
    <path d="M 28.199163 42.234848 
L 28.3089 42.189587 
L 28.523496 42.079126 
L 28.633233 42.00548 
L 28.791742 41.895341 
L 28.901478 41.82637 
L 29.279461 41.936545 
L 29.389197 42.160509 
L 29.479425 42.050734 
L 29.589162 41.60925 
L 29.613548 41.508491 
L 29.723285 40.9255 
L 29.742794 40.827623 
L 29.85253 40.135914 
L 29.869601 40.040599 
L 29.979337 39.287502 
L 29.996407 39.187805 
L 30.106144 38.432456 
L 30.123214 38.336739 
L 30.232951 37.64576 
L 30.254898 37.535638 
L 30.364635 36.980968 
L 30.393898 36.871209 
L 30.503635 36.52493 
L 30.571916 36.414054 
L 30.635319 36.375824 
L 30.681653 36.393142 
L 30.762126 36.50402 
L 30.871863 36.833735 
L 30.901126 36.939937 
L 31.010863 37.481934 
L 31.03281 37.590258 
L 31.142547 38.273492 
L 31.162056 38.384476 
L 31.271792 39.137955 
L 31.288863 39.237659 
L 31.398599 39.992601 
L 31.41567 40.088374 
L 31.525406 40.785007 
L 31.544915 40.883824 
L 31.654652 41.473892 
L 31.679038 41.576174 
L 31.788774 42.025753 
L 31.822915 42.130154 
L 31.857055 42.231457 
L 31.932652 42.049075 
L 31.996055 41.940228 
L 32.105792 41.819388 
L 32.534984 41.929436 
L 32.644721 42.008857 
L 32.822739 42.118888 
L 32.932475 42.175385 
L 33.073914 42.23344 
L 33.073914 42.234848 
" clip-path="url(#pfdcfe79c4d)" style="fill: none; stroke: #ab63fa; stroke-width: 0.5; stroke-linecap: square"/>
   </g>
   <g id="legend_1">
    <g id="line2d_18">
     <path d="M 32.405313 10.95 
L 34.905313 10.95 
L 37.405313 10.95 
" style="fill: none; stroke: #636efa; stroke-width: 0.5; stroke-linecap: square"/>
    </g>
    <g id="text_15">
     <!-- $G_{x}$ -->
     <g transform="translate(39.905313 12.7) scale(0.05 -0.05)">
      <defs>
       <path id="TimesNewRomanPSMT-78" d="M 84 2863 
L 1431 2863 
L 1431 2747 
Q 1303 2747 1251 2703 
Q 1200 2659 1200 2588 
Q 1200 2513 1309 2356 
Q 1344 2306 1413 2200 
L 1616 1875 
L 1850 2200 
Q 2075 2509 2075 2591 
Q 2075 2656 2022 2701 
Q 1969 2747 1850 2747 
L 1850 2863 
L 2819 2863 
L 2819 2747 
Q 2666 2738 2553 2663 
Q 2400 2556 2134 2200 
L 1744 1678 
L 2456 653 
Q 2719 275 2831 198 
Q 2944 122 3122 113 
L 3122 0 
L 1772 0 
L 1772 113 
Q 1913 113 1991 175 
Q 2050 219 2050 291 
Q 2050 363 1850 653 
L 1431 1266 
L 972 653 
Q 759 369 759 316 
Q 759 241 829 180 
Q 900 119 1041 113 
L 1041 0 
L 106 0 
L 106 113 
Q 219 128 303 191 
Q 422 281 703 653 
L 1303 1450 
L 759 2238 
Q 528 2575 401 2661 
Q 275 2747 84 2747 
L 84 2863 
z
" transform="scale(0.015625)"/>
      </defs>
      <use xlink:href="#TimesNewRomanPSMT-47" transform="translate(0 0.28125)"/>
      <use xlink:href="#TimesNewRomanPSMT-78" transform="translate(73.719609 -25.48125) scale(0.7)"/>
     </g>
    </g>
    <g id="line2d_19">
     <path d="M 50.605312 10.95 
L 53.105312 10.95 
L 55.605312 10.95 
" style="fill: none; stroke: #ef553b; stroke-width: 0.5; stroke-linecap: square"/>
    </g>
    <g id="text_16">
     <!-- $G_{y}$ -->
     <g transform="translate(58.105312 12.7) scale(0.05 -0.05)">
      <defs>
       <path id="TimesNewRomanPSMT-79" d="M 38 2863 
L 1372 2863 
L 1372 2747 
L 1306 2747 
Q 1166 2747 1095 2686 
Q 1025 2625 1025 2534 
Q 1025 2413 1128 2197 
L 1825 753 
L 2466 2334 
Q 2519 2463 2519 2588 
Q 2519 2644 2497 2672 
Q 2472 2706 2419 2726 
Q 2366 2747 2231 2747 
L 2231 2863 
L 3163 2863 
L 3163 2747 
Q 3047 2734 2984 2696 
Q 2922 2659 2847 2556 
Q 2819 2513 2741 2316 
L 1575 -541 
Q 1406 -956 1132 -1168 
Q 859 -1381 606 -1381 
Q 422 -1381 303 -1275 
Q 184 -1169 184 -1031 
Q 184 -900 270 -820 
Q 356 -741 506 -741 
Q 609 -741 788 -809 
Q 913 -856 944 -856 
Q 1038 -856 1148 -759 
Q 1259 -663 1372 -384 
L 1575 113 
L 547 2272 
Q 500 2369 397 2513 
Q 319 2622 269 2659 
Q 197 2709 38 2747 
L 38 2863 
z
" transform="scale(0.015625)"/>
      </defs>
      <use xlink:href="#TimesNewRomanPSMT-47" transform="translate(0 0.28125)"/>
      <use xlink:href="#TimesNewRomanPSMT-79" transform="translate(73.719609 -25.48125) scale(0.7)"/>
     </g>
    </g>
    <g id="line2d_20">
     <path d="M 68.805312 10.95 
L 71.305312 10.95 
L 73.805312 10.95 
" style="fill: none; stroke: #00cc96; stroke-width: 0.5; stroke-linecap: square"/>
    </g>
    <g id="text_17">
     <!-- $G_{z}$ -->
     <g transform="translate(76.305312 12.7) scale(0.05 -0.05)">
      <defs>
       <path id="TimesNewRomanPSMT-7a" d="M 2688 878 
L 2653 0 
L 128 0 
L 128 113 
L 2028 2644 
L 1091 2644 
Q 788 2644 694 2605 
Q 600 2566 541 2456 
Q 456 2300 444 2069 
L 319 2069 
L 338 2863 
L 2738 2863 
L 2738 2747 
L 819 209 
L 1863 209 
Q 2191 209 2308 264 
Q 2425 319 2497 456 
Q 2547 556 2581 878 
L 2688 878 
z
" transform="scale(0.015625)"/>
      </defs>
      <use xlink:href="#TimesNewRomanPSMT-47" transform="translate(0 0.28125)"/>
      <use xlink:href="#TimesNewRomanPSMT-7a" transform="translate(73.719609 -25.48125) scale(0.7)"/>
     </g>
    </g>
    <g id="line2d_21">
     <path d="M 86.805312 10.95 
L 89.305312 10.95 
L 91.805312 10.95 
" style="fill: none; stroke: #ab63fa; stroke-width: 0.5; stroke-linecap: square"/>
    </g>
    <g id="text_18">
     <!-- $|B_{1}|$ -->
     <g transform="translate(94.305312 12.7) scale(0.05 -0.05)">
      <defs>
       <path id="TimesNewRomanPSMT-7c" d="M 763 4444 
L 763 -1381 
L 503 -1381 
L 503 4444 
L 763 4444 
z
" transform="scale(0.015625)"/>
       <path id="TimesNewRomanPSMT-42" d="M 2956 2163 
Q 3397 2069 3616 1863 
Q 3919 1575 3919 1159 
Q 3919 844 3719 555 
Q 3519 266 3170 133 
Q 2822 0 2106 0 
L 106 0 
L 106 116 
L 266 116 
Q 531 116 647 284 
Q 719 394 719 750 
L 719 3488 
Q 719 3881 628 3984 
Q 506 4122 266 4122 
L 106 4122 
L 106 4238 
L 1938 4238 
Q 2450 4238 2759 4163 
Q 3228 4050 3475 3764 
Q 3722 3478 3722 3106 
Q 3722 2788 3528 2536 
Q 3334 2284 2956 2163 
z
M 1319 2331 
Q 1434 2309 1582 2298 
Q 1731 2288 1909 2288 
Q 2366 2288 2595 2386 
Q 2825 2484 2947 2687 
Q 3069 2891 3069 3131 
Q 3069 3503 2766 3765 
Q 2463 4028 1881 4028 
Q 1569 4028 1319 3959 
L 1319 2331 
z
M 1319 306 
Q 1681 222 2034 222 
Q 2600 222 2897 476 
Q 3194 731 3194 1106 
Q 3194 1353 3059 1581 
Q 2925 1809 2622 1940 
Q 2319 2072 1872 2072 
Q 1678 2072 1540 2065 
Q 1403 2059 1319 2044 
L 1319 306 
z
" transform="scale(0.015625)"/>
       <path id="TimesNewRomanPSMT-31" d="M 750 3822 
L 1781 4325 
L 1884 4325 
L 1884 747 
Q 1884 391 1914 303 
Q 1944 216 2037 169 
Q 2131 122 2419 116 
L 2419 0 
L 825 0 
L 825 116 
Q 1125 122 1212 167 
Q 1300 213 1334 289 
Q 1369 366 1369 747 
L 1369 3034 
Q 1369 3497 1338 3628 
Q 1316 3728 1258 3775 
Q 1200 3822 1119 3822 
Q 1003 3822 797 3725 
L 750 3822 
z
" transform="scale(0.015625)"/>
      </defs>
      <use xlink:href="#TimesNewRomanPSMT-7c" transform="translate(0 0.5625)"/>
      <use xlink:href="#TimesNewRomanPSMT-42" transform="translate(20.019531 0.5625)"/>
      <use xlink:href="#TimesNewRomanPSMT-31" transform="translate(88.221563 -25.2) scale(0.7)"/>
      <use xlink:href="#TimesNewRomanPSMT-7c" transform="translate(127.515312 0.5625)"/>
     </g>
    </g>
    <g id="PathCollection_3">
     <g>
      <use xlink:href="#m503fe73e82" x="109.205312" y="11.3875" style="stroke: #000000; stroke-width: 0.1"/>
     </g>
    </g>
    <g id="text_19">
     <!-- $Stitching \quad trigger$ -->
     <g transform="translate(114.205312 12.7) scale(0.05 -0.05)">
      <defs>
       <path id="TimesNewRomanPSMT-53" d="M 2934 4334 
L 2934 2869 
L 2819 2869 
Q 2763 3291 2617 3541 
Q 2472 3791 2203 3937 
Q 1934 4084 1647 4084 
Q 1322 4084 1109 3886 
Q 897 3688 897 3434 
Q 897 3241 1031 3081 
Q 1225 2847 1953 2456 
Q 2547 2138 2764 1967 
Q 2981 1797 3098 1565 
Q 3216 1334 3216 1081 
Q 3216 600 2842 251 
Q 2469 -97 1881 -97 
Q 1697 -97 1534 -69 
Q 1438 -53 1133 45 
Q 828 144 747 144 
Q 669 144 623 97 
Q 578 50 556 -97 
L 441 -97 
L 441 1356 
L 556 1356 
Q 638 900 775 673 
Q 913 447 1195 297 
Q 1478 147 1816 147 
Q 2206 147 2432 353 
Q 2659 559 2659 841 
Q 2659 997 2573 1156 
Q 2488 1316 2306 1453 
Q 2184 1547 1640 1851 
Q 1097 2156 867 2337 
Q 638 2519 519 2737 
Q 400 2956 400 3219 
Q 400 3675 750 4004 
Q 1100 4334 1641 4334 
Q 1978 4334 2356 4169 
Q 2531 4091 2603 4091 
Q 2684 4091 2736 4139 
Q 2788 4188 2819 4334 
L 2934 4334 
z
" transform="scale(0.015625)"/>
       <path id="TimesNewRomanPSMT-63" d="M 2631 1088 
Q 2516 522 2178 217 
Q 1841 -88 1431 -88 
Q 944 -88 581 321 
Q 219 731 219 1428 
Q 219 2103 620 2525 
Q 1022 2947 1584 2947 
Q 2006 2947 2278 2723 
Q 2550 2500 2550 2259 
Q 2550 2141 2473 2067 
Q 2397 1994 2259 1994 
Q 2075 1994 1981 2113 
Q 1928 2178 1911 2362 
Q 1894 2547 1784 2644 
Q 1675 2738 1481 2738 
Q 1169 2738 978 2506 
Q 725 2200 725 1697 
Q 725 1184 976 792 
Q 1228 400 1656 400 
Q 1963 400 2206 609 
Q 2378 753 2541 1131 
L 2631 1088 
z
" transform="scale(0.015625)"/>
       <path id="TimesNewRomanPSMT-68" d="M 1041 4444 
L 1041 2350 
Q 1388 2731 1591 2839 
Q 1794 2947 1997 2947 
Q 2241 2947 2416 2812 
Q 2591 2678 2675 2391 
Q 2734 2191 2734 1659 
L 2734 647 
Q 2734 375 2778 275 
Q 2809 200 2884 156 
Q 2959 113 3159 113 
L 3159 0 
L 1753 0 
L 1753 113 
L 1819 113 
Q 2019 113 2097 173 
Q 2175 234 2206 353 
Q 2216 403 2216 647 
L 2216 1659 
Q 2216 2128 2167 2275 
Q 2119 2422 2012 2495 
Q 1906 2569 1756 2569 
Q 1603 2569 1437 2487 
Q 1272 2406 1041 2159 
L 1041 647 
Q 1041 353 1073 281 
Q 1106 209 1195 161 
Q 1284 113 1503 113 
L 1503 0 
L 84 0 
L 84 113 
Q 275 113 384 172 
Q 447 203 484 290 
Q 522 378 522 647 
L 522 3238 
Q 522 3728 498 3840 
Q 475 3953 426 3993 
Q 378 4034 297 4034 
Q 231 4034 84 3984 
L 41 4094 
L 897 4444 
L 1041 4444 
z
" transform="scale(0.015625)"/>
       <path id="TimesNewRomanPSMT-6e" d="M 1034 2341 
Q 1538 2947 1994 2947 
Q 2228 2947 2397 2830 
Q 2566 2713 2666 2444 
Q 2734 2256 2734 1869 
L 2734 647 
Q 2734 375 2778 278 
Q 2813 200 2889 156 
Q 2966 113 3172 113 
L 3172 0 
L 1756 0 
L 1756 113 
L 1816 113 
Q 2016 113 2095 173 
Q 2175 234 2206 353 
Q 2219 400 2219 647 
L 2219 1819 
Q 2219 2209 2117 2386 
Q 2016 2563 1775 2563 
Q 1403 2563 1034 2156 
L 1034 647 
Q 1034 356 1069 288 
Q 1113 197 1189 155 
Q 1266 113 1500 113 
L 1500 0 
L 84 0 
L 84 113 
L 147 113 
Q 366 113 442 223 
Q 519 334 519 647 
L 519 1709 
Q 519 2225 495 2337 
Q 472 2450 423 2490 
Q 375 2531 294 2531 
Q 206 2531 84 2484 
L 38 2597 
L 900 2947 
L 1034 2947 
L 1034 2341 
z
" transform="scale(0.015625)"/>
       <path id="TimesNewRomanPSMT-67" d="M 966 1044 
Q 703 1172 562 1401 
Q 422 1631 422 1909 
Q 422 2334 742 2640 
Q 1063 2947 1563 2947 
Q 1972 2947 2272 2747 
L 2878 2747 
Q 3013 2747 3034 2739 
Q 3056 2731 3066 2713 
Q 3084 2684 3084 2613 
Q 3084 2531 3069 2500 
Q 3059 2484 3036 2475 
Q 3013 2466 2878 2466 
L 2506 2466 
Q 2681 2241 2681 1891 
Q 2681 1491 2375 1206 
Q 2069 922 1553 922 
Q 1341 922 1119 984 
Q 981 866 932 777 
Q 884 688 884 625 
Q 884 572 936 522 
Q 988 472 1138 450 
Q 1225 438 1575 428 
Q 2219 413 2409 384 
Q 2700 344 2873 169 
Q 3047 -6 3047 -263 
Q 3047 -616 2716 -925 
Q 2228 -1381 1444 -1381 
Q 841 -1381 425 -1109 
Q 191 -953 191 -784 
Q 191 -709 225 -634 
Q 278 -519 444 -313 
Q 466 -284 763 25 
Q 600 122 533 198 
Q 466 275 466 372 
Q 466 481 555 628 
Q 644 775 966 1044 
z
M 1509 2797 
Q 1278 2797 1122 2612 
Q 966 2428 966 2047 
Q 966 1553 1178 1281 
Q 1341 1075 1591 1075 
Q 1828 1075 1981 1253 
Q 2134 1431 2134 1813 
Q 2134 2309 1919 2591 
Q 1759 2797 1509 2797 
z
M 934 0 
Q 788 -159 713 -296 
Q 638 -434 638 -550 
Q 638 -700 819 -813 
Q 1131 -1006 1722 -1006 
Q 2284 -1006 2551 -807 
Q 2819 -609 2819 -384 
Q 2819 -222 2659 -153 
Q 2497 -84 2016 -72 
Q 1313 -53 934 0 
z
" transform="scale(0.015625)"/>
       <path id="TimesNewRomanPSMT-72" d="M 1038 2947 
L 1038 2303 
Q 1397 2947 1775 2947 
Q 1947 2947 2059 2842 
Q 2172 2738 2172 2600 
Q 2172 2478 2090 2393 
Q 2009 2309 1897 2309 
Q 1788 2309 1652 2417 
Q 1516 2525 1450 2525 
Q 1394 2525 1328 2463 
Q 1188 2334 1038 2041 
L 1038 669 
Q 1038 431 1097 309 
Q 1138 225 1241 169 
Q 1344 113 1538 113 
L 1538 0 
L 72 0 
L 72 113 
Q 291 113 397 181 
Q 475 231 506 341 
Q 522 394 522 644 
L 522 1753 
Q 522 2253 501 2348 
Q 481 2444 426 2487 
Q 372 2531 291 2531 
Q 194 2531 72 2484 
L 41 2597 
L 906 2947 
L 1038 2947 
z
" transform="scale(0.015625)"/>
      </defs>
      <use xlink:href="#TimesNewRomanPSMT-53" transform="translate(0 0.5625)"/>
      <use xlink:href="#TimesNewRomanPSMT-74" transform="translate(55.615234 0.5625)"/>
      <use xlink:href="#TimesNewRomanPSMT-69" transform="translate(83.398438 0.5625)"/>
      <use xlink:href="#TimesNewRomanPSMT-74" transform="translate(111.181641 0.5625)"/>
      <use xlink:href="#TimesNewRomanPSMT-63" transform="translate(138.964844 0.5625)"/>
      <use xlink:href="#TimesNewRomanPSMT-68" transform="translate(183.349609 0.5625)"/>
      <use xlink:href="#TimesNewRomanPSMT-69" transform="translate(233.349609 0.5625)"/>
      <use xlink:href="#TimesNewRomanPSMT-6e" transform="translate(261.132812 0.5625)"/>
      <use xlink:href="#TimesNewRomanPSMT-67" transform="translate(311.132812 0.5625)"/>
      <use xlink:href="#TimesNewRomanPSMT-74" transform="translate(458.544922 0.5625)"/>
      <use xlink:href="#TimesNewRomanPSMT-72" transform="translate(486.328125 0.5625)"/>
      <use xlink:href="#TimesNewRomanPSMT-69" transform="translate(519.628906 0.5625)"/>
      <use xlink:href="#TimesNewRomanPSMT-67" transform="translate(547.412109 0.5625)"/>
      <use xlink:href="#TimesNewRomanPSMT-67" transform="translate(597.412109 0.5625)"/>
      <use xlink:href="#TimesNewRomanPSMT-65" transform="translate(647.412109 0.5625)"/>
      <use xlink:href="#TimesNewRomanPSMT-72" transform="translate(691.796875 0.5625)"/>
     </g>
    </g>
    <g id="PathCollection_4">
     <g>
      <use xlink:href="#md3ced37868" x="158.005313" y="11.3875" style="stroke: #000000; stroke-width: 0.1"/>
     </g>
    </g>
    <g id="text_20">
     <!-- $Standard \quad trigger$ -->
     <g transform="translate(163.005313 12.7) scale(0.05 -0.05)">
      <defs>
       <path id="TimesNewRomanPSMT-61" d="M 1822 413 
Q 1381 72 1269 19 
Q 1100 -59 909 -59 
Q 613 -59 420 144 
Q 228 347 228 678 
Q 228 888 322 1041 
Q 450 1253 767 1440 
Q 1084 1628 1822 1897 
L 1822 2009 
Q 1822 2438 1686 2597 
Q 1550 2756 1291 2756 
Q 1094 2756 978 2650 
Q 859 2544 859 2406 
L 866 2225 
Q 866 2081 792 2003 
Q 719 1925 600 1925 
Q 484 1925 411 2006 
Q 338 2088 338 2228 
Q 338 2497 613 2722 
Q 888 2947 1384 2947 
Q 1766 2947 2009 2819 
Q 2194 2722 2281 2516 
Q 2338 2381 2338 1966 
L 2338 994 
Q 2338 584 2353 492 
Q 2369 400 2405 369 
Q 2441 338 2488 338 
Q 2538 338 2575 359 
Q 2641 400 2828 588 
L 2828 413 
Q 2478 -56 2159 -56 
Q 2006 -56 1915 50 
Q 1825 156 1822 413 
z
M 1822 616 
L 1822 1706 
Q 1350 1519 1213 1441 
Q 966 1303 859 1153 
Q 753 1003 753 825 
Q 753 600 887 451 
Q 1022 303 1197 303 
Q 1434 303 1822 616 
z
" transform="scale(0.015625)"/>
      </defs>
      <use xlink:href="#TimesNewRomanPSMT-53" transform="translate(0 0.5625)"/>
      <use xlink:href="#TimesNewRomanPSMT-74" transform="translate(55.615234 0.5625)"/>
      <use xlink:href="#TimesNewRomanPSMT-61" transform="translate(83.398438 0.5625)"/>
      <use xlink:href="#TimesNewRomanPSMT-6e" transform="translate(127.783203 0.5625)"/>
      <use xlink:href="#TimesNewRomanPSMT-64" transform="translate(177.783203 0.5625)"/>
      <use xlink:href="#TimesNewRomanPSMT-61" transform="translate(227.783203 0.5625)"/>
      <use xlink:href="#TimesNewRomanPSMT-72" transform="translate(272.167969 0.5625)"/>
      <use xlink:href="#TimesNewRomanPSMT-64" transform="translate(305.46875 0.5625)"/>
      <use xlink:href="#TimesNewRomanPSMT-74" transform="translate(452.880859 0.5625)"/>
      <use xlink:href="#TimesNewRomanPSMT-72" transform="translate(480.664062 0.5625)"/>
      <use xlink:href="#TimesNewRomanPSMT-69" transform="translate(513.964844 0.5625)"/>
      <use xlink:href="#TimesNewRomanPSMT-67" transform="translate(541.748047 0.5625)"/>
      <use xlink:href="#TimesNewRomanPSMT-67" transform="translate(591.748047 0.5625)"/>
      <use xlink:href="#TimesNewRomanPSMT-65" transform="translate(641.748047 0.5625)"/>
      <use xlink:href="#TimesNewRomanPSMT-72" transform="translate(686.132812 0.5625)"/>
     </g>
    </g>
   </g>
  </g>
 </g>
 <defs>
  <clipPath id="pfdcfe79c4d">
   <rect x="27.905313" y="10.955808" width="233.91" height="62.55808"/>
  </clipPath>
 </defs>
</svg>
