<?xml version="1.0" encoding="utf-8" standalone="no"?>
<!DOCTYPE svg PUBLIC "-//W3C//DTD SVG 1.1//EN"
  "http://www.w3.org/Graphics/SVG/1.1/DTD/svg11.dtd">
<svg xmlns:xlink="http://www.w3.org/1999/xlink" width="269.026562pt" height="98.796701pt" viewBox="0 0 269.026562 98.796701" xmlns="http://www.w3.org/2000/svg" version="1.1">
 <metadata>
  <rdf:RDF xmlns:dc="http://purl.org/dc/elements/1.1/" xmlns:cc="http://creativecommons.org/ns#" xmlns:rdf="http://www.w3.org/1999/02/22-rdf-syntax-ns#">
   <cc:Work>
    <dc:type rdf:resource="http://purl.org/dc/dcmitype/StillImage"/>
    <dc:date>2024-10-29T14:57:28.098152</dc:date>
    <dc:format>image/svg+xml</dc:format>
    <dc:creator>
     <cc:Agent>
      <dc:title>Matplotlib v3.8.4, https://matplotlib.org/</dc:title>
     </cc:Agent>
    </dc:creator>
   </cc:Work>
  </rdf:RDF>
 </metadata>
 <defs>
  <style type="text/css">*{stroke-linejoin: round; stroke-linecap: butt}</style>
 </defs>
 <g id="figure_1">
  <g id="patch_1">
   <path d="M -0 98.796701 
L 269.026563 98.796701 
L 269.026563 0 
L -0 0 
L -0 98.796701 
z
" style="fill: none"/>
  </g>
  <g id="axes_1">
   <g id="patch_2">
    <path d="M 27.916563 73.513888 
L 261.826563 73.513888 
L 261.826563 10.955808 
L 27.916563 10.955808 
L 27.916563 73.513888 
z
" style="fill: none"/>
   </g>
   <g id="PathCollection_1">
    <defs>
     <path id="me75341e181" d="M 0.927647 1.936492 
L -0.927647 1.936492 
L -0.927647 1.699204 
L -0.158686 1.699204 
L -0.158686 -1.048887 
Q -0.158686 -1.086704 -0.194279 -1.128971 
Q -0.229873 -1.17198 -0.263241 -1.17198 
Q -0.315148 -1.17198 -0.381885 -1.105984 
Q -0.614724 -0.863505 -0.837181 -0.716684 
L -0.927647 -0.811599 
Q -0.249152 -1.400369 -0.025953 -1.936492 
L 0.021504 -1.936492 
Q 0.254343 -1.39073 0.927647 -0.80715 
L 0.837923 -0.712234 
Q 0.648093 -0.844967 0.381885 -1.100793 
Q 0.31589 -1.167531 0.249152 -1.167531 
Q 0.154237 -1.167531 0.154237 -1.044437 
L 0.154237 1.699204 
L 0.927647 1.699204 
L 0.927647 1.936492 
z
" style="stroke: #000000; stroke-width: 0.1"/>
    </defs>
    <g clip-path="url(#ped25408130)">
     <use xlink:href="#me75341e181" x="74.242773" y="66.811237" style="stroke: #000000; stroke-width: 0.1"/>
     <use xlink:href="#me75341e181" x="119.831038" y="66.811237" style="stroke: #000000; stroke-width: 0.1"/>
     <use xlink:href="#me75341e181" x="165.410002" y="66.811237" style="stroke: #000000; stroke-width: 0.1"/>
     <use xlink:href="#me75341e181" x="210.988965" y="66.811237" style="stroke: #000000; stroke-width: 0.1"/>
    </g>
   </g>
   <g id="PathCollection_2">
    <defs>
     <path id="m01811dd4c9" d="M 0.927647 0.175371 
L 0.837923 0.270286 
Q 0.648093 0.137553 0.381885 -0.119015 
Q 0.31589 -0.18501 0.249152 -0.18501 
Q 0.154237 -0.18501 0.154237 -0.061917 
L 0.154237 1.936492 
L -0.158686 1.936492 
L -0.158686 -0.066366 
Q -0.158686 -0.104184 -0.194279 -0.147193 
Q -0.229873 -0.190201 -0.263241 -0.190201 
Q -0.315148 -0.190201 -0.381885 -0.123464 
Q -0.614724 0.118273 -0.837181 0.265837 
L -0.927647 0.170921 
Q -0.401165 -0.285116 -0.158686 -0.688506 
L -0.158686 -1.048887 
Q -0.158686 -1.086704 -0.194279 -1.128971 
Q -0.229873 -1.17198 -0.263241 -1.17198 
Q -0.315148 -1.17198 -0.381885 -1.105984 
Q -0.614724 -0.863505 -0.837181 -0.716684 
L -0.927647 -0.811599 
Q -0.249152 -1.400369 -0.025953 -1.936492 
L 0.021504 -1.936492 
Q 0.254343 -1.39073 0.927647 -0.80715 
L 0.837923 -0.712234 
Q 0.648093 -0.844967 0.381885 -1.100793 
Q 0.31589 -1.167531 0.249152 -1.167531 
Q 0.154237 -1.167531 0.154237 -1.044437 
L 0.154237 -0.692955 
Q 0.405614 -0.279926 0.927647 0.175371 
z
" style="stroke: #000000; stroke-width: 0.1"/>
    </defs>
    <g clip-path="url(#ped25408130)">
     <use xlink:href="#m01811dd4c9" x="74.242773" y="60.108585" style="stroke: #000000; stroke-width: 0.1"/>
    </g>
   </g>
   <g id="matplotlib.axis_1">
    <g id="xtick_1">
     <g id="line2d_1">
      <defs>
       <path id="mc3cf63ac8c" d="M 0 0 
L 0 1.5 
" style="stroke: #000000; stroke-width: 0.5"/>
      </defs>
      <g>
       <use xlink:href="#mc3cf63ac8c" x="27.916563" y="73.513888" style="stroke: #000000; stroke-width: 0.5"/>
      </g>
     </g>
     <g id="text_1">
      <!-- 0 -->
      <g transform="translate(26.916563 81.291388) scale(0.04 -0.04)">
       <defs>
        <path id="TimesNewRomanPSMT-30" d="M 231 2094 
Q 231 2819 450 3342 
Q 669 3866 1031 4122 
Q 1313 4325 1613 4325 
Q 2100 4325 2488 3828 
Q 2972 3213 2972 2159 
Q 2972 1422 2759 906 
Q 2547 391 2217 158 
Q 1888 -75 1581 -75 
Q 975 -75 572 641 
Q 231 1244 231 2094 
z
M 844 2016 
Q 844 1141 1059 588 
Q 1238 122 1591 122 
Q 1759 122 1940 273 
Q 2122 425 2216 781 
Q 2359 1319 2359 2297 
Q 2359 3022 2209 3506 
Q 2097 3866 1919 4016 
Q 1791 4119 1609 4119 
Q 1397 4119 1231 3928 
Q 1006 3669 925 3112 
Q 844 2556 844 2016 
z
" transform="scale(0.015625)"/>
       </defs>
       <use xlink:href="#TimesNewRomanPSMT-30"/>
      </g>
     </g>
    </g>
    <g id="xtick_2">
     <g id="line2d_2">
      <g>
       <use xlink:href="#mc3cf63ac8c" x="58.92266" y="73.513888" style="stroke: #000000; stroke-width: 0.5"/>
      </g>
     </g>
     <g id="text_2">
      <!-- 10 -->
      <g transform="translate(56.92266 81.291388) scale(0.04 -0.04)">
       <defs>
        <path id="TimesNewRomanPSMT-31" d="M 750 3822 
L 1781 4325 
L 1884 4325 
L 1884 747 
Q 1884 391 1914 303 
Q 1944 216 2037 169 
Q 2131 122 2419 116 
L 2419 0 
L 825 0 
L 825 116 
Q 1125 122 1212 167 
Q 1300 213 1334 289 
Q 1369 366 1369 747 
L 1369 3034 
Q 1369 3497 1338 3628 
Q 1316 3728 1258 3775 
Q 1200 3822 1119 3822 
Q 1003 3822 797 3725 
L 750 3822 
z
" transform="scale(0.015625)"/>
       </defs>
       <use xlink:href="#TimesNewRomanPSMT-31"/>
       <use xlink:href="#TimesNewRomanPSMT-30" x="50"/>
      </g>
     </g>
    </g>
    <g id="xtick_3">
     <g id="line2d_3">
      <g>
       <use xlink:href="#mc3cf63ac8c" x="89.928758" y="73.513888" style="stroke: #000000; stroke-width: 0.5"/>
      </g>
     </g>
     <g id="text_3">
      <!-- 20 -->
      <g transform="translate(87.928758 81.291388) scale(0.04 -0.04)">
       <defs>
        <path id="TimesNewRomanPSMT-32" d="M 2934 816 
L 2638 0 
L 138 0 
L 138 116 
Q 1241 1122 1691 1759 
Q 2141 2397 2141 2925 
Q 2141 3328 1894 3587 
Q 1647 3847 1303 3847 
Q 991 3847 742 3664 
Q 494 3481 375 3128 
L 259 3128 
Q 338 3706 661 4015 
Q 984 4325 1469 4325 
Q 1984 4325 2329 3994 
Q 2675 3663 2675 3213 
Q 2675 2891 2525 2569 
Q 2294 2063 1775 1497 
Q 997 647 803 472 
L 1909 472 
Q 2247 472 2383 497 
Q 2519 522 2628 598 
Q 2738 675 2819 816 
L 2934 816 
z
" transform="scale(0.015625)"/>
       </defs>
       <use xlink:href="#TimesNewRomanPSMT-32"/>
       <use xlink:href="#TimesNewRomanPSMT-30" x="50"/>
      </g>
     </g>
    </g>
    <g id="xtick_4">
     <g id="line2d_4">
      <g>
       <use xlink:href="#mc3cf63ac8c" x="120.934855" y="73.513888" style="stroke: #000000; stroke-width: 0.5"/>
      </g>
     </g>
     <g id="text_4">
      <!-- 30 -->
      <g transform="translate(118.934855 81.291388) scale(0.04 -0.04)">
       <defs>
        <path id="TimesNewRomanPSMT-33" d="M 325 3431 
Q 506 3859 782 4092 
Q 1059 4325 1472 4325 
Q 1981 4325 2253 3994 
Q 2459 3747 2459 3466 
Q 2459 3003 1878 2509 
Q 2269 2356 2469 2072 
Q 2669 1788 2669 1403 
Q 2669 853 2319 450 
Q 1863 -75 997 -75 
Q 569 -75 414 31 
Q 259 138 259 259 
Q 259 350 332 419 
Q 406 488 509 488 
Q 588 488 669 463 
Q 722 447 909 348 
Q 1097 250 1169 231 
Q 1284 197 1416 197 
Q 1734 197 1970 444 
Q 2206 691 2206 1028 
Q 2206 1275 2097 1509 
Q 2016 1684 1919 1775 
Q 1784 1900 1550 2001 
Q 1316 2103 1072 2103 
L 972 2103 
L 972 2197 
Q 1219 2228 1467 2375 
Q 1716 2522 1828 2728 
Q 1941 2934 1941 3181 
Q 1941 3503 1739 3701 
Q 1538 3900 1238 3900 
Q 753 3900 428 3381 
L 325 3431 
z
" transform="scale(0.015625)"/>
       </defs>
       <use xlink:href="#TimesNewRomanPSMT-33"/>
       <use xlink:href="#TimesNewRomanPSMT-30" x="50"/>
      </g>
     </g>
    </g>
    <g id="xtick_5">
     <g id="line2d_5">
      <g>
       <use xlink:href="#mc3cf63ac8c" x="151.940953" y="73.513888" style="stroke: #000000; stroke-width: 0.5"/>
      </g>
     </g>
     <g id="text_5">
      <!-- 40 -->
      <g transform="translate(149.940953 81.291388) scale(0.04 -0.04)">
       <defs>
        <path id="TimesNewRomanPSMT-34" d="M 2978 1563 
L 2978 1119 
L 2409 1119 
L 2409 0 
L 1894 0 
L 1894 1119 
L 100 1119 
L 100 1519 
L 2066 4325 
L 2409 4325 
L 2409 1563 
L 2978 1563 
z
M 1894 1563 
L 1894 3666 
L 406 1563 
L 1894 1563 
z
" transform="scale(0.015625)"/>
       </defs>
       <use xlink:href="#TimesNewRomanPSMT-34"/>
       <use xlink:href="#TimesNewRomanPSMT-30" x="50"/>
      </g>
     </g>
    </g>
    <g id="xtick_6">
     <g id="line2d_6">
      <g>
       <use xlink:href="#mc3cf63ac8c" x="182.94705" y="73.513888" style="stroke: #000000; stroke-width: 0.5"/>
      </g>
     </g>
     <g id="text_6">
      <!-- 50 -->
      <g transform="translate(180.94705 81.291388) scale(0.04 -0.04)">
       <defs>
        <path id="TimesNewRomanPSMT-35" d="M 2778 4238 
L 2534 3706 
L 1259 3706 
L 981 3138 
Q 1809 3016 2294 2522 
Q 2709 2097 2709 1522 
Q 2709 1188 2573 903 
Q 2438 619 2231 419 
Q 2025 219 1772 97 
Q 1413 -75 1034 -75 
Q 653 -75 479 54 
Q 306 184 306 341 
Q 306 428 378 495 
Q 450 563 559 563 
Q 641 563 702 538 
Q 763 513 909 409 
Q 1144 247 1384 247 
Q 1750 247 2026 523 
Q 2303 800 2303 1197 
Q 2303 1581 2056 1914 
Q 1809 2247 1375 2428 
Q 1034 2569 447 2591 
L 1259 4238 
L 2778 4238 
z
" transform="scale(0.015625)"/>
       </defs>
       <use xlink:href="#TimesNewRomanPSMT-35"/>
       <use xlink:href="#TimesNewRomanPSMT-30" x="50"/>
      </g>
     </g>
    </g>
    <g id="xtick_7">
     <g id="line2d_7">
      <g>
       <use xlink:href="#mc3cf63ac8c" x="213.953148" y="73.513888" style="stroke: #000000; stroke-width: 0.5"/>
      </g>
     </g>
     <g id="text_7">
      <!-- 60 -->
      <g transform="translate(211.953148 81.291388) scale(0.04 -0.04)">
       <defs>
        <path id="TimesNewRomanPSMT-36" d="M 2869 4325 
L 2869 4209 
Q 2456 4169 2195 4045 
Q 1934 3922 1679 3669 
Q 1425 3416 1258 3105 
Q 1091 2794 978 2366 
Q 1428 2675 1881 2675 
Q 2316 2675 2634 2325 
Q 2953 1975 2953 1425 
Q 2953 894 2631 456 
Q 2244 -75 1606 -75 
Q 1172 -75 869 213 
Q 275 772 275 1663 
Q 275 2231 503 2743 
Q 731 3256 1154 3653 
Q 1578 4050 1965 4187 
Q 2353 4325 2688 4325 
L 2869 4325 
z
M 925 2138 
Q 869 1716 869 1456 
Q 869 1156 980 804 
Q 1091 453 1309 247 
Q 1469 100 1697 100 
Q 1969 100 2183 356 
Q 2397 613 2397 1088 
Q 2397 1622 2184 2012 
Q 1972 2403 1581 2403 
Q 1463 2403 1327 2353 
Q 1191 2303 925 2138 
z
" transform="scale(0.015625)"/>
       </defs>
       <use xlink:href="#TimesNewRomanPSMT-36"/>
       <use xlink:href="#TimesNewRomanPSMT-30" x="50"/>
      </g>
     </g>
    </g>
    <g id="xtick_8">
     <g id="line2d_8">
      <g>
       <use xlink:href="#mc3cf63ac8c" x="244.959245" y="73.513888" style="stroke: #000000; stroke-width: 0.5"/>
      </g>
     </g>
     <g id="text_8">
      <!-- 70 -->
      <g transform="translate(242.959245 81.291388) scale(0.04 -0.04)">
       <defs>
        <path id="TimesNewRomanPSMT-37" d="M 644 4238 
L 2916 4238 
L 2916 4119 
L 1503 -88 
L 1153 -88 
L 2419 3728 
L 1253 3728 
Q 900 3728 750 3644 
Q 488 3500 328 3200 
L 238 3234 
L 644 4238 
z
" transform="scale(0.015625)"/>
       </defs>
       <use xlink:href="#TimesNewRomanPSMT-37"/>
       <use xlink:href="#TimesNewRomanPSMT-30" x="50"/>
      </g>
     </g>
    </g>
    <g id="text_9">
     <!-- Time (ms) -->
     <g transform="translate(132.396719 90.313263) scale(0.06 -0.06)">
      <defs>
       <path id="TimesNewRomanPSMT-54" d="M 3703 4238 
L 3750 3244 
L 3631 3244 
Q 3597 3506 3538 3619 
Q 3441 3800 3280 3886 
Q 3119 3972 2856 3972 
L 2259 3972 
L 2259 734 
Q 2259 344 2344 247 
Q 2463 116 2709 116 
L 2856 116 
L 2856 0 
L 1059 0 
L 1059 116 
L 1209 116 
Q 1478 116 1591 278 
Q 1659 378 1659 734 
L 1659 3972 
L 1150 3972 
Q 853 3972 728 3928 
Q 566 3869 450 3700 
Q 334 3531 313 3244 
L 194 3244 
L 244 4238 
L 3703 4238 
z
" transform="scale(0.015625)"/>
       <path id="TimesNewRomanPSMT-69" d="M 928 4444 
Q 1059 4444 1151 4351 
Q 1244 4259 1244 4128 
Q 1244 3997 1151 3903 
Q 1059 3809 928 3809 
Q 797 3809 703 3903 
Q 609 3997 609 4128 
Q 609 4259 701 4351 
Q 794 4444 928 4444 
z
M 1188 2947 
L 1188 647 
Q 1188 378 1227 289 
Q 1266 200 1342 156 
Q 1419 113 1622 113 
L 1622 0 
L 231 0 
L 231 113 
Q 441 113 512 153 
Q 584 194 626 287 
Q 669 381 669 647 
L 669 1750 
Q 669 2216 641 2353 
Q 619 2453 572 2492 
Q 525 2531 444 2531 
Q 356 2531 231 2484 
L 188 2597 
L 1050 2947 
L 1188 2947 
z
" transform="scale(0.015625)"/>
       <path id="TimesNewRomanPSMT-6d" d="M 1050 2338 
Q 1363 2650 1419 2697 
Q 1559 2816 1721 2881 
Q 1884 2947 2044 2947 
Q 2313 2947 2506 2790 
Q 2700 2634 2766 2338 
Q 3088 2713 3309 2830 
Q 3531 2947 3766 2947 
Q 3994 2947 4170 2830 
Q 4347 2713 4450 2447 
Q 4519 2266 4519 1878 
L 4519 647 
Q 4519 378 4559 278 
Q 4591 209 4675 161 
Q 4759 113 4950 113 
L 4950 0 
L 3538 0 
L 3538 113 
L 3597 113 
Q 3781 113 3884 184 
Q 3956 234 3988 344 
Q 4000 397 4000 647 
L 4000 1878 
Q 4000 2228 3916 2372 
Q 3794 2572 3525 2572 
Q 3359 2572 3192 2489 
Q 3025 2406 2788 2181 
L 2781 2147 
L 2788 2013 
L 2788 647 
Q 2788 353 2820 281 
Q 2853 209 2943 161 
Q 3034 113 3253 113 
L 3253 0 
L 1806 0 
L 1806 113 
Q 2044 113 2133 169 
Q 2222 225 2256 338 
Q 2272 391 2272 647 
L 2272 1878 
Q 2272 2228 2169 2381 
Q 2031 2581 1784 2581 
Q 1616 2581 1450 2491 
Q 1191 2353 1050 2181 
L 1050 647 
Q 1050 366 1089 281 
Q 1128 197 1204 155 
Q 1281 113 1516 113 
L 1516 0 
L 100 0 
L 100 113 
Q 297 113 375 155 
Q 453 197 493 289 
Q 534 381 534 647 
L 534 1741 
Q 534 2213 506 2350 
Q 484 2453 437 2492 
Q 391 2531 309 2531 
Q 222 2531 100 2484 
L 53 2597 
L 916 2947 
L 1050 2947 
L 1050 2338 
z
" transform="scale(0.015625)"/>
       <path id="TimesNewRomanPSMT-65" d="M 681 1784 
Q 678 1147 991 784 
Q 1303 422 1725 422 
Q 2006 422 2214 576 
Q 2422 731 2563 1106 
L 2659 1044 
Q 2594 616 2278 264 
Q 1963 -88 1488 -88 
Q 972 -88 605 314 
Q 238 716 238 1394 
Q 238 2128 614 2539 
Q 991 2950 1559 2950 
Q 2041 2950 2350 2633 
Q 2659 2316 2659 1784 
L 681 1784 
z
M 681 1966 
L 2006 1966 
Q 1991 2241 1941 2353 
Q 1863 2528 1708 2628 
Q 1553 2728 1384 2728 
Q 1125 2728 920 2526 
Q 716 2325 681 1966 
z
" transform="scale(0.015625)"/>
       <path id="TimesNewRomanPSMT-20" transform="scale(0.015625)"/>
       <path id="TimesNewRomanPSMT-28" d="M 1988 -1253 
L 1988 -1369 
Q 1516 -1131 1200 -813 
Q 750 -359 506 256 
Q 263 872 263 1534 
Q 263 2503 741 3301 
Q 1219 4100 1988 4444 
L 1988 4313 
Q 1603 4100 1356 3731 
Q 1109 3363 987 2797 
Q 866 2231 866 1616 
Q 866 947 969 400 
Q 1050 -31 1165 -292 
Q 1281 -553 1476 -793 
Q 1672 -1034 1988 -1253 
z
" transform="scale(0.015625)"/>
       <path id="TimesNewRomanPSMT-73" d="M 2050 2947 
L 2050 1972 
L 1947 1972 
Q 1828 2431 1642 2597 
Q 1456 2763 1169 2763 
Q 950 2763 815 2647 
Q 681 2531 681 2391 
Q 681 2216 781 2091 
Q 878 1963 1175 1819 
L 1631 1597 
Q 2266 1288 2266 781 
Q 2266 391 1970 151 
Q 1675 -88 1309 -88 
Q 1047 -88 709 6 
Q 606 38 541 38 
Q 469 38 428 -44 
L 325 -44 
L 325 978 
L 428 978 
Q 516 541 762 319 
Q 1009 97 1316 97 
Q 1531 97 1667 223 
Q 1803 350 1803 528 
Q 1803 744 1651 891 
Q 1500 1038 1047 1263 
Q 594 1488 453 1669 
Q 313 1847 313 2119 
Q 313 2472 555 2709 
Q 797 2947 1181 2947 
Q 1350 2947 1591 2875 
Q 1750 2828 1803 2828 
Q 1853 2828 1881 2850 
Q 1909 2872 1947 2947 
L 2050 2947 
z
" transform="scale(0.015625)"/>
       <path id="TimesNewRomanPSMT-29" d="M 144 4313 
L 144 4444 
Q 619 4209 934 3891 
Q 1381 3434 1625 2820 
Q 1869 2206 1869 1541 
Q 1869 572 1392 -226 
Q 916 -1025 144 -1369 
L 144 -1253 
Q 528 -1038 776 -670 
Q 1025 -303 1145 264 
Q 1266 831 1266 1447 
Q 1266 2113 1163 2663 
Q 1084 3094 967 3353 
Q 850 3613 656 3853 
Q 463 4094 144 4313 
z
" transform="scale(0.015625)"/>
      </defs>
      <use xlink:href="#TimesNewRomanPSMT-54"/>
      <use xlink:href="#TimesNewRomanPSMT-69" x="57.583984"/>
      <use xlink:href="#TimesNewRomanPSMT-6d" x="85.367188"/>
      <use xlink:href="#TimesNewRomanPSMT-65" x="163.150391"/>
      <use xlink:href="#TimesNewRomanPSMT-20" x="207.535156"/>
      <use xlink:href="#TimesNewRomanPSMT-28" x="232.535156"/>
      <use xlink:href="#TimesNewRomanPSMT-6d" x="265.835938"/>
      <use xlink:href="#TimesNewRomanPSMT-73" x="343.619141"/>
      <use xlink:href="#TimesNewRomanPSMT-29" x="382.535156"/>
     </g>
    </g>
   </g>
   <g id="matplotlib.axis_2">
    <g id="ytick_1">
     <g id="line2d_9">
      <defs>
       <path id="md106bed9d2" d="M 0 0 
L -1.5 0 
" style="stroke: #000000; stroke-width: 0.5"/>
      </defs>
      <g>
       <use xlink:href="#md106bed9d2" x="27.916563" y="69.045454" style="stroke: #000000; stroke-width: 0.5"/>
      </g>
     </g>
     <g id="text_10">
      <!-- −60 -->
      <g transform="translate(16.660938 70.434204) scale(0.04 -0.04)">
       <defs>
        <path id="TimesNewRomanPSMT-2212" d="M 3484 2000 
L 116 2000 
L 116 2256 
L 3484 2256 
L 3484 2000 
z
" transform="scale(0.015625)"/>
       </defs>
       <use xlink:href="#TimesNewRomanPSMT-2212"/>
       <use xlink:href="#TimesNewRomanPSMT-36" x="56.396484"/>
       <use xlink:href="#TimesNewRomanPSMT-30" x="106.396484"/>
      </g>
     </g>
    </g>
    <g id="ytick_2">
     <g id="line2d_10">
      <g>
       <use xlink:href="#md106bed9d2" x="27.916563" y="60.108585" style="stroke: #000000; stroke-width: 0.5"/>
      </g>
     </g>
     <g id="text_11">
      <!-- −40 -->
      <g transform="translate(16.660938 61.497335) scale(0.04 -0.04)">
       <use xlink:href="#TimesNewRomanPSMT-2212"/>
       <use xlink:href="#TimesNewRomanPSMT-34" x="56.396484"/>
       <use xlink:href="#TimesNewRomanPSMT-30" x="106.396484"/>
      </g>
     </g>
    </g>
    <g id="ytick_3">
     <g id="line2d_11">
      <g>
       <use xlink:href="#md106bed9d2" x="27.916563" y="51.171717" style="stroke: #000000; stroke-width: 0.5"/>
      </g>
     </g>
     <g id="text_12">
      <!-- −20 -->
      <g transform="translate(16.660938 52.560467) scale(0.04 -0.04)">
       <use xlink:href="#TimesNewRomanPSMT-2212"/>
       <use xlink:href="#TimesNewRomanPSMT-32" x="56.396484"/>
       <use xlink:href="#TimesNewRomanPSMT-30" x="106.396484"/>
      </g>
     </g>
    </g>
    <g id="ytick_4">
     <g id="line2d_12">
      <g>
       <use xlink:href="#md106bed9d2" x="27.916563" y="42.234848" style="stroke: #000000; stroke-width: 0.5"/>
      </g>
     </g>
     <g id="text_13">
      <!-- 0 -->
      <g transform="translate(20.916563 43.623598) scale(0.04 -0.04)">
       <use xlink:href="#TimesNewRomanPSMT-30"/>
      </g>
     </g>
    </g>
    <g id="ytick_5">
     <g id="line2d_13">
      <g>
       <use xlink:href="#md106bed9d2" x="27.916563" y="33.297979" style="stroke: #000000; stroke-width: 0.5"/>
      </g>
     </g>
     <g id="text_14">
      <!-- 20 -->
      <g transform="translate(18.916563 34.686729) scale(0.04 -0.04)">
       <use xlink:href="#TimesNewRomanPSMT-32"/>
       <use xlink:href="#TimesNewRomanPSMT-30" x="50"/>
      </g>
     </g>
    </g>
    <g id="ytick_6">
     <g id="line2d_14">
      <g>
       <use xlink:href="#md106bed9d2" x="27.916563" y="24.361111" style="stroke: #000000; stroke-width: 0.5"/>
      </g>
     </g>
     <g id="text_15">
      <!-- 40 -->
      <g transform="translate(18.916563 25.749861) scale(0.04 -0.04)">
       <use xlink:href="#TimesNewRomanPSMT-34"/>
       <use xlink:href="#TimesNewRomanPSMT-30" x="50"/>
      </g>
     </g>
    </g>
    <g id="ytick_7">
     <g id="line2d_15">
      <g>
       <use xlink:href="#md106bed9d2" x="27.916563" y="15.424242" style="stroke: #000000; stroke-width: 0.5"/>
      </g>
     </g>
     <g id="text_16">
      <!-- 60 -->
      <g transform="translate(18.916563 16.812992) scale(0.04 -0.04)">
       <use xlink:href="#TimesNewRomanPSMT-36"/>
       <use xlink:href="#TimesNewRomanPSMT-30" x="50"/>
      </g>
     </g>
    </g>
    <g id="text_17">
     <!-- Amplitude [mT/m, μT] -->
     <g transform="translate(11.36625 70.087973) rotate(-90) scale(0.06 -0.06)">
      <defs>
       <path id="TimesNewRomanPSMT-41" d="M 2928 1419 
L 1288 1419 
L 1000 750 
Q 894 503 894 381 
Q 894 284 986 211 
Q 1078 138 1384 116 
L 1384 0 
L 50 0 
L 50 116 
Q 316 163 394 238 
Q 553 388 747 847 
L 2238 4334 
L 2347 4334 
L 3822 809 
Q 4000 384 4145 257 
Q 4291 131 4550 116 
L 4550 0 
L 2878 0 
L 2878 116 
Q 3131 128 3220 200 
Q 3309 272 3309 375 
Q 3309 513 3184 809 
L 2928 1419 
z
M 2841 1650 
L 2122 3363 
L 1384 1650 
L 2841 1650 
z
" transform="scale(0.015625)"/>
       <path id="TimesNewRomanPSMT-70" d="M -6 2578 
L 875 2934 
L 994 2934 
L 994 2266 
Q 1216 2644 1439 2795 
Q 1663 2947 1909 2947 
Q 2341 2947 2628 2609 
Q 2981 2197 2981 1534 
Q 2981 794 2556 309 
Q 2206 -88 1675 -88 
Q 1444 -88 1275 -22 
Q 1150 25 994 166 
L 994 -706 
Q 994 -1000 1030 -1079 
Q 1066 -1159 1155 -1206 
Q 1244 -1253 1478 -1253 
L 1478 -1369 
L -22 -1369 
L -22 -1253 
L 56 -1253 
Q 228 -1256 350 -1188 
Q 409 -1153 442 -1076 
Q 475 -1000 475 -688 
L 475 2019 
Q 475 2297 450 2372 
Q 425 2447 370 2484 
Q 316 2522 222 2522 
Q 147 2522 31 2478 
L -6 2578 
z
M 994 2081 
L 994 1013 
Q 994 666 1022 556 
Q 1066 375 1236 237 
Q 1406 100 1666 100 
Q 1978 100 2172 344 
Q 2425 663 2425 1241 
Q 2425 1897 2138 2250 
Q 1938 2494 1663 2494 
Q 1513 2494 1366 2419 
Q 1253 2363 994 2081 
z
" transform="scale(0.015625)"/>
       <path id="TimesNewRomanPSMT-6c" d="M 1184 4444 
L 1184 647 
Q 1184 378 1223 290 
Q 1263 203 1344 158 
Q 1425 113 1647 113 
L 1647 0 
L 244 0 
L 244 113 
Q 441 113 512 153 
Q 584 194 625 287 
Q 666 381 666 647 
L 666 3247 
Q 666 3731 644 3842 
Q 622 3953 573 3993 
Q 525 4034 450 4034 
Q 369 4034 244 3984 
L 191 4094 
L 1044 4444 
L 1184 4444 
z
" transform="scale(0.015625)"/>
       <path id="TimesNewRomanPSMT-74" d="M 1031 3803 
L 1031 2863 
L 1700 2863 
L 1700 2644 
L 1031 2644 
L 1031 788 
Q 1031 509 1111 412 
Q 1191 316 1316 316 
Q 1419 316 1516 380 
Q 1613 444 1666 569 
L 1788 569 
Q 1678 263 1478 108 
Q 1278 -47 1066 -47 
Q 922 -47 784 33 
Q 647 113 581 261 
Q 516 409 516 719 
L 516 2644 
L 63 2644 
L 63 2747 
Q 234 2816 414 2980 
Q 594 3144 734 3369 
Q 806 3488 934 3803 
L 1031 3803 
z
" transform="scale(0.015625)"/>
       <path id="TimesNewRomanPSMT-75" d="M 2709 2863 
L 2709 1128 
Q 2709 631 2732 520 
Q 2756 409 2807 365 
Q 2859 322 2928 322 
Q 3025 322 3147 375 
L 3191 266 
L 2334 -88 
L 2194 -88 
L 2194 519 
Q 1825 119 1631 15 
Q 1438 -88 1222 -88 
Q 981 -88 804 51 
Q 628 191 559 409 
Q 491 628 491 1028 
L 491 2306 
Q 491 2509 447 2587 
Q 403 2666 317 2708 
Q 231 2750 6 2747 
L 6 2863 
L 1009 2863 
L 1009 947 
Q 1009 547 1148 422 
Q 1288 297 1484 297 
Q 1619 297 1789 381 
Q 1959 466 2194 703 
L 2194 2325 
Q 2194 2569 2105 2655 
Q 2016 2741 1734 2747 
L 1734 2863 
L 2709 2863 
z
" transform="scale(0.015625)"/>
       <path id="TimesNewRomanPSMT-64" d="M 2222 322 
Q 2013 103 1813 7 
Q 1613 -88 1381 -88 
Q 913 -88 563 304 
Q 213 697 213 1313 
Q 213 1928 600 2439 
Q 988 2950 1597 2950 
Q 1975 2950 2222 2709 
L 2222 3238 
Q 2222 3728 2198 3840 
Q 2175 3953 2125 3993 
Q 2075 4034 2000 4034 
Q 1919 4034 1784 3984 
L 1744 4094 
L 2597 4444 
L 2738 4444 
L 2738 1134 
Q 2738 631 2761 520 
Q 2784 409 2836 365 
Q 2888 322 2956 322 
Q 3041 322 3181 375 
L 3216 266 
L 2366 -88 
L 2222 -88 
L 2222 322 
z
M 2222 541 
L 2222 2016 
Q 2203 2228 2109 2403 
Q 2016 2578 1861 2667 
Q 1706 2756 1559 2756 
Q 1284 2756 1069 2509 
Q 784 2184 784 1559 
Q 784 928 1059 592 
Q 1334 256 1672 256 
Q 1956 256 2222 541 
z
" transform="scale(0.015625)"/>
       <path id="TimesNewRomanPSMT-5b" d="M 1900 -1269 
L 525 -1269 
L 525 4334 
L 1900 4334 
L 1900 4088 
L 994 4088 
L 994 -1025 
L 1900 -1025 
L 1900 -1269 
z
" transform="scale(0.015625)"/>
       <path id="TimesNewRomanPSMT-2f" d="M 1794 4444 
L 259 -88 
L 9 -88 
L 1544 4444 
L 1794 4444 
z
" transform="scale(0.015625)"/>
       <path id="TimesNewRomanPSMT-2c" d="M 344 -1066 
L 344 -928 
Q 666 -822 842 -598 
Q 1019 -375 1019 -125 
Q 1019 -66 991 -25 
Q 969 3 947 3 
Q 913 3 797 -59 
Q 741 -88 678 -88 
Q 525 -88 434 3 
Q 344 94 344 253 
Q 344 406 461 515 
Q 578 625 747 625 
Q 953 625 1114 445 
Q 1275 266 1275 -31 
Q 1275 -353 1051 -629 
Q 828 -906 344 -1066 
z
" transform="scale(0.015625)"/>
       <path id="TimesNewRomanPSMT-3bc" d="M 2275 519 
Q 1709 -88 1291 -88 
Q 1022 -88 791 119 
L 791 -47 
Q 791 -334 878 -625 
Q 978 -947 978 -1050 
Q 978 -1194 887 -1287 
Q 797 -1381 663 -1381 
Q 525 -1381 444 -1272 
Q 363 -1163 363 -1009 
Q 363 -897 444 -603 
Q 538 -278 538 28 
L 538 2863 
L 1053 2863 
L 1053 1009 
Q 1053 728 1101 597 
Q 1150 466 1273 383 
Q 1397 300 1553 300 
Q 1831 300 2275 681 
L 2275 2863 
L 2794 2863 
L 2794 691 
Q 2794 416 2850 311 
Q 2906 206 3041 206 
Q 3253 206 3316 622 
L 3428 622 
Q 3369 -88 2828 -88 
Q 2594 -88 2439 70 
Q 2284 228 2275 519 
z
" transform="scale(0.015625)"/>
       <path id="TimesNewRomanPSMT-5d" d="M 234 4334 
L 1609 4334 
L 1609 -1272 
L 234 -1272 
L 234 -1025 
L 1141 -1025 
L 1141 4088 
L 234 4088 
L 234 4334 
z
" transform="scale(0.015625)"/>
      </defs>
      <use xlink:href="#TimesNewRomanPSMT-41"/>
      <use xlink:href="#TimesNewRomanPSMT-6d" x="72.216797"/>
      <use xlink:href="#TimesNewRomanPSMT-70" x="150"/>
      <use xlink:href="#TimesNewRomanPSMT-6c" x="200"/>
      <use xlink:href="#TimesNewRomanPSMT-69" x="227.783203"/>
      <use xlink:href="#TimesNewRomanPSMT-74" x="255.566406"/>
      <use xlink:href="#TimesNewRomanPSMT-75" x="283.349609"/>
      <use xlink:href="#TimesNewRomanPSMT-64" x="333.349609"/>
      <use xlink:href="#TimesNewRomanPSMT-65" x="383.349609"/>
      <use xlink:href="#TimesNewRomanPSMT-20" x="427.734375"/>
      <use xlink:href="#TimesNewRomanPSMT-5b" x="452.734375"/>
      <use xlink:href="#TimesNewRomanPSMT-6d" x="486.035156"/>
      <use xlink:href="#TimesNewRomanPSMT-54" x="563.818359"/>
      <use xlink:href="#TimesNewRomanPSMT-2f" x="624.902344"/>
      <use xlink:href="#TimesNewRomanPSMT-6d" x="652.685547"/>
      <use xlink:href="#TimesNewRomanPSMT-2c" x="730.46875"/>
      <use xlink:href="#TimesNewRomanPSMT-20" x="755.46875"/>
      <use xlink:href="#TimesNewRomanPSMT-3bc" x="780.46875"/>
      <use xlink:href="#TimesNewRomanPSMT-54" x="834.082031"/>
      <use xlink:href="#TimesNewRomanPSMT-5d" x="895.166016"/>
     </g>
    </g>
   </g>
   <g id="line2d_16">
    <path d="M 27.916563 42.234848 
L 261.826563 42.234848 
" clip-path="url(#ped25408130)" style="fill: none; stroke: #555555; stroke-width: 0.5; stroke-linecap: square"/>
   </g>
   <g id="line2d_17">
    <path d="M 74.239672 42.234848 
L 74.255175 41.675395 
L 74.317188 42.487842 
L 74.410206 43.690985 
L 74.441212 43.530836 
L 74.689261 39.919062 
L 74.751273 40.351734 
L 75.061334 45.202385 
L 75.154352 44.657586 
L 75.526425 38.737471 
L 75.619444 39.12739 
L 75.80548 42.406965 
L 76.084535 46.213206 
L 76.146547 45.995926 
L 76.301578 43.793279 
L 76.704657 37.843112 
L 76.797675 38.388678 
L 77.014718 42.217232 
L 77.324779 46.947833 
L 77.355785 47.012953 
L 77.386791 46.984312 
L 77.479809 46.353468 
L 77.696852 42.531313 
L 78.037919 37.191674 
L 78.099931 37.114113 
L 78.130938 37.205885 
L 78.254962 38.385782 
L 78.844078 47.696848 
L 78.937096 47.404837 
L 79.092127 45.45288 
L 79.681242 36.460842 
L 79.774261 36.881795 
L 79.960297 39.508587 
L 80.518407 48.301923 
L 80.580419 48.222359 
L 80.704444 47.213624 
L 80.983498 42.057114 
L 81.355572 36.116416 
L 81.44859 35.88256 
L 81.479596 35.945255 
L 81.60362 36.873237 
L 81.851669 41.204747 
L 82.285755 48.548989 
L 82.378773 48.863152 
L 82.409779 48.833157 
L 82.502797 48.344451 
L 82.688834 45.797819 
L 83.339962 35.364494 
L 83.401974 35.397355 
L 83.525998 36.224346 
L 83.774047 40.30381 
L 84.301151 49.156727 
L 84.394169 49.369872 
L 84.425175 49.315561 
L 84.5492 48.489429 
L 84.797248 44.470921 
L 85.355358 35.070468 
L 85.448377 34.856629 
L 85.479383 34.906614 
L 85.603407 35.697268 
L 85.82045 38.998457 
L 86.471578 49.751563 
L 86.53359 49.849936 
L 86.564596 49.810822 
L 86.68862 49.079104 
L 86.905663 45.899975 
L 87.587797 34.514704 
L 87.649809 34.391648 
L 87.680816 34.415841 
L 87.773834 34.827422 
L 87.95987 37.03927 
L 88.797035 50.295496 
L 88.828041 50.288227 
L 88.921059 49.935431 
L 89.107096 47.857 
L 89.541181 39.156855 
L 89.882248 34.320784 
L 90.006273 33.957931 
L 90.037279 34.002131 
L 90.161303 34.708936 
L 90.378346 37.730827 
L 91.184505 50.698084 
L 91.246517 50.697461 
L 91.339535 50.303662 
L 91.525572 48.215653 
L 91.928651 40.187306 
L 92.33173 34.008909 
L 92.455755 33.542769 
L 92.486761 33.554378 
L 92.579779 33.896412 
L 92.765816 35.867082 
L 93.137889 43.119756 
L 93.571974 50.3742 
L 93.758011 51.122652 
L 93.851029 50.822354 
L 94.037066 48.951396 
L 94.378133 42.486024 
L 94.87423 33.925994 
L 95.060267 33.148118 
L 95.153285 33.419214 
L 95.339322 35.213214 
L 95.680389 41.573006 
L 96.207492 50.733969 
L 96.393529 51.514031 
L 96.486547 51.25749 
L 96.641578 49.909326 
L 96.951639 44.553822 
L 97.571761 33.520174 
L 97.757797 32.76874 
L 97.850816 33.027138 
L 98.036852 34.752193 
L 98.377919 40.97248 
L 98.936029 50.921483 
L 99.153072 51.881508 
L 99.24609 51.60337 
L 99.432127 49.863904 
L 99.773194 43.664692 
L 100.362309 33.259486 
L 100.548346 32.402455 
L 100.610358 32.477986 
L 100.734383 33.166724 
L 100.951425 35.921267 
L 102.005633 52.242951 
L 102.098651 51.999885 
L 102.253681 50.735672 
L 102.532736 46.249839 
L 103.307889 32.601915 
L 103.462919 32.050373 
L 103.493925 32.071394 
L 103.586944 32.396911 
L 103.77298 34.164962 
L 104.114047 40.29434 
L 104.734169 51.494944 
L 104.951212 52.589948 
L 105.013224 52.518046 
L 105.137248 51.862723 
L 105.354291 49.225807 
L 105.819383 39.883236 
L 106.253468 32.77248 
L 106.470511 31.71094 
L 106.532523 31.786567 
L 106.656547 32.441137 
L 106.87359 35.055866 
L 107.338681 44.365944 
L 107.803773 51.956796 
L 108.020816 52.924281 
L 108.113834 52.715645 
L 108.268864 51.557033 
L 108.547919 47.319956 
L 109.447096 31.768366 
L 109.57112 31.38393 
L 109.602127 31.390728 
L 109.695145 31.658118 
L 109.881181 33.255666 
L 110.191242 38.436909 
L 110.966395 52.37424 
L 111.183438 53.245557 
L 111.276456 53.01312 
L 111.462492 51.494727 
L 111.772553 46.430271 
L 112.609718 31.686302 
L 112.795755 31.065475 
L 112.888773 31.294044 
L 113.074809 32.791158 
L 113.38487 37.803921 
L 114.253041 53.002998 
L 114.408072 53.561505 
L 114.439078 53.555166 
L 114.532096 53.299413 
L 114.718133 51.765391 
L 115.028194 46.736264 
L 115.896364 31.405934 
L 116.082401 30.752412 
L 116.175419 30.950013 
L 116.33045 32.03762 
L 116.609505 36.055342 
L 117.663712 53.696968 
L 117.75673 53.870131 
L 117.787736 53.850795 
L 117.911761 53.390924 
L 118.128803 51.201647 
L 118.500877 44.424334 
L 119.183011 31.92616 
L 119.431059 30.464658 
L 119.524078 30.533653 
L 119.679108 31.397594 
L 119.927157 34.531712 
L 120.454261 45.196126 
L 120.919352 52.836484 
L 121.167401 54.164063 
L 121.229413 54.125829 
L 121.353438 53.602426 
L 121.57048 51.345911 
L 121.942553 44.551245 
L 122.655694 31.559861 
L 122.903742 30.165878 
L 122.996761 30.246218 
L 123.151791 31.110655 
L 123.39984 34.207948 
L 123.895938 44.164248 
L 124.423041 53.080098 
L 124.67109 54.449533 
L 124.764108 54.366757 
L 124.919139 53.5068 
L 125.167188 50.433381 
L 125.663285 40.509623 
L 126.190389 31.434877 
L 126.438438 29.902002 
L 126.50045 29.873595 
L 126.531456 29.913822 
L 126.65548 30.433449 
L 126.872523 32.640786 
L 127.244596 39.317377 
L 128.019748 53.408789 
L 128.267797 54.735389 
L 128.360816 54.649497 
L 128.515846 53.80047 
L 128.763895 50.775964 
L 129.228986 41.590032 
L 129.818102 31.210764 
L 130.066151 29.635169 
L 130.128163 29.5876 
L 130.159169 29.617042 
L 130.283194 30.086459 
L 130.500236 32.188123 
L 130.872309 38.708901 
L 131.678468 53.535324 
L 131.926517 54.993053 
L 131.988529 55.013483 
L 132.019535 54.971054 
L 132.143559 54.454378 
L 132.360602 52.29101 
L 132.732675 45.726134 
L 133.538834 30.865945 
L 133.786883 29.352644 
L 133.848895 29.314004 
L 133.879901 29.346782 
L 134.003925 29.821932 
L 134.220968 31.907367 
L 134.593041 38.366556 
L 135.430206 53.785077 
L 135.678255 55.257878 
L 135.740267 55.289456 
L 135.771273 55.253689 
L 135.895297 54.770303 
L 136.11234 52.6839 
L 136.484413 46.245003 
L 137.352584 30.394814 
L 137.600633 29.058032 
L 137.693651 29.109686 
L 137.817675 29.65035 
L 138.034718 31.815601 
L 138.406791 38.320358 
L 139.274962 54.173536 
L 139.523011 55.538715 
L 139.585023 55.549002 
L 139.616029 55.503637 
L 139.740053 54.989234 
L 139.957096 52.876756 
L 140.329169 46.45017 
L 141.228346 30.086855 
L 141.476395 28.791709 
L 141.569413 28.848681 
L 141.693438 29.387195 
L 141.91048 31.526835 
L 142.282553 37.963873 
L 143.18173 54.411212 
L 143.429779 55.793675 
L 143.491791 55.814853 
L 143.522797 55.775894 
L 143.646822 55.29298 
L 143.863864 53.252315 
L 144.235938 46.946461 
L 145.16612 29.915922 
L 145.414169 28.546789 
L 145.476181 28.526016 
L 145.507188 28.564714 
L 145.631212 29.04357 
L 145.848255 31.067254 
L 146.220328 37.334026 
L 147.181517 54.809051 
L 147.429566 56.065356 
L 147.522584 56.008491 
L 147.677614 55.272903 
L 147.925663 52.551042 
L 148.359748 44.487891 
L 149.134901 30.20226 
L 149.413956 28.335699 
L 149.506974 28.277073 
L 149.53798 28.321774 
L 149.662005 28.818422 
L 149.879047 30.850356 
L 150.25112 37.088596 
L 151.243316 55.089322 
L 151.491364 56.318061 
L 151.584383 56.259967 
L 151.739413 55.533585 
L 151.987462 52.849876 
L 152.390541 45.516872 
L 153.227706 29.971306 
L 153.506761 28.095319 
L 153.599779 28.023405 
L 153.630785 28.062547 
L 153.754809 28.531838 
L 153.971852 30.500773 
L 154.312919 36.018885 
L 155.429139 55.772163 
L 155.646181 56.57742 
L 155.7392 56.456186 
L 155.89423 55.638094 
L 156.142279 52.849349 
L 156.576364 44.793506 
L 157.382523 29.854499 
L 157.661578 27.885068 
L 157.754596 27.77064 
L 157.785602 27.794538 
L 157.909627 28.198453 
L 158.126669 30.043513 
L 158.467736 35.387389 
L 159.645968 56.110329 
L 159.863011 56.820783 
L 159.956029 56.666097 
L 160.111059 55.804028 
L 160.359108 52.97615 
L 160.793194 44.915559 
L 161.599352 29.844283 
L 161.878407 27.712889 
L 162.002431 27.532485 
L 162.033438 27.56362 
L 162.157462 27.991142 
L 162.374505 29.856789 
L 162.715572 35.192311 
L 163.924809 56.385926 
L 164.141852 57.059067 
L 164.23487 56.895594 
L 164.389901 56.028868 
L 164.63795 53.215763 
L 165.072035 45.20267 
L 165.9092 29.569306 
L 166.188255 27.471873 
L 166.312279 27.29528 
L 166.343285 27.326161 
L 166.467309 27.747923 
L 166.684352 29.587438 
L 167.025419 34.861473 
L 168.265663 56.611947 
L 168.482706 57.295232 
L 168.575724 57.143183 
L 168.730755 56.303951 
L 168.978803 53.549928 
L 169.412889 45.629631 
L 170.281059 29.372638 
L 170.59112 27.162924 
L 170.684139 27.059138 
L 170.715145 27.083677 
L 170.839169 27.475821 
L 171.056212 29.251036 
L 171.397279 34.418861 
L 172.699535 56.986705 
L 172.885572 57.527502 
L 172.97859 57.403126 
L 173.13362 56.617382 
L 173.381669 53.958775 
L 173.784748 46.814964 
L 174.745938 28.893941 
L 175.024992 26.962166 
L 175.118011 26.827538 
L 175.149017 26.840897 
L 175.273041 27.184439 
L 175.459078 28.544418 
L 175.769139 32.795313 
L 176.389261 45.451716 
L 176.978377 55.537646 
L 177.257431 57.575769 
L 177.381456 57.752747 
L 177.412462 57.724727 
L 177.536486 57.325332 
L 177.753529 55.5612 
L 178.094596 50.450244 
L 179.458864 27.041814 
L 179.644901 26.603743 
L 179.737919 26.771234 
L 179.923956 27.865098 
L 180.203011 31.237254 
L 180.699108 40.757239 
L 181.474261 55.22776 
L 181.784322 57.741561 
L 181.908346 57.98077 
L 181.939352 57.969392 
L 182.063377 57.639964 
L 182.249413 56.317531 
L 182.559474 52.154981 
L 183.14859 40.2423 
L 183.768712 29.139619 
L 184.078773 26.623561 
L 184.233803 26.387156 
L 184.357828 26.706215 
L 184.543864 28.008232 
L 184.853925 32.130772 
L 185.412035 43.338418 
L 186.063163 55.232116 
L 186.373224 57.884367 
L 186.528255 58.201965 
L 186.559261 58.1813 
L 186.683285 57.81896 
L 186.900328 56.144048 
L 187.241395 51.196939 
L 188.698681 26.487861 
L 188.853712 26.157412 
L 188.884718 26.174913 
L 189.008742 26.52286 
L 189.225785 28.167249 
L 189.566852 33.063293 
L 190.342005 49.01271 
L 190.838102 56.622205 
L 191.117157 58.335278 
L 191.210175 58.417981 
L 191.241181 58.390077 
L 191.365206 58.002831 
L 191.582248 56.300439 
L 191.923316 51.345809 
L 192.76048 34.186844 
L 193.225572 27.471444 
L 193.504627 25.976229 
L 193.597645 25.965947 
L 193.721669 26.336464 
L 193.938712 28.004836 
L 194.279779 32.904535 
L 195.023925 48.240372 
L 195.551029 56.621289 
L 195.830084 58.492054 
L 195.954108 58.629907 
L 195.985114 58.595981 
L 196.109139 58.188475 
L 196.326181 56.465683 
L 196.667248 51.511186 
L 197.442401 35.539407 
L 197.938498 27.77359 
L 198.217553 25.882349 
L 198.341578 25.730343 
L 198.372584 25.760287 
L 198.496608 26.150295 
L 198.713651 27.838066 
L 199.054718 32.736792 
L 199.767858 47.438127 
L 200.325968 56.604946 
L 200.636029 58.725956 
L 200.760053 58.837916 
L 200.884078 58.518654 
L 201.070114 57.252647 
L 201.380175 53.258856 
L 201.907279 42.899361 
L 202.682431 28.511951 
L 203.023498 25.746837 
L 203.178529 25.522954 
L 203.302553 25.825941 
L 203.48859 27.06382 
L 203.798651 31.007635 
L 204.325755 41.315182 
L 205.100907 55.836986 
L 205.441974 58.754492 
L 205.597005 59.060283 
L 205.628011 59.041538 
L 205.752035 58.700936 
L 205.969078 57.112858 
L 206.310145 52.375683 
L 206.961273 39.06677 
L 207.581395 28.171763 
L 207.891456 25.624095 
L 208.046486 25.304764 
L 208.077492 25.320289 
L 208.201517 25.646527 
L 208.418559 27.204924 
L 208.72862 31.370365 
L 209.28673 42.498479 
L 210.030877 56.189774 
L 210.371944 59.000099 
L 210.526974 59.265539 
L 210.55798 59.239664 
L 210.682005 58.874006 
L 210.899047 57.256097 
L 211.240114 52.504641 
L 211.891242 39.203099 
L 212.511364 28.193254 
L 212.852431 25.375489 
L 213.007462 25.100195 
L 213.038468 25.123616 
L 213.162492 25.477987 
L 213.379535 27.071586 
L 213.720602 31.780724 
L 214.340724 44.386181 
L 214.991852 56.175113 
L 215.332919 59.126116 
L 215.48795 59.473464 
L 215.518956 59.464995 
L 215.64298 59.171477 
L 215.829017 57.970016 
L 216.139078 54.128212 
L 216.666181 43.967889 
L 217.503346 28.193216 
L 217.844413 25.246111 
L 218.03045 24.901954 
L 218.154474 25.188928 
L 218.340511 26.376653 
L 218.650572 30.189236 
L 219.146669 39.647348 
L 220.045846 56.580075 
L 220.386913 59.387676 
L 220.541944 59.67587 
L 220.57295 59.656409 
L 220.696974 59.32227 
L 220.914017 57.778633 
L 221.224078 53.680805 
L 221.782188 42.660358 
L 222.55734 28.160282 
L 222.898407 25.112486 
L 223.084444 24.69331 
L 223.177462 24.828387 
L 223.332492 25.558719 
L 223.580541 27.969007 
L 223.98362 34.554011 
L 225.316883 58.567996 
L 225.564931 59.815427 
L 225.65795 59.869164 
L 225.688956 59.836184 
L 225.81298 59.451362 
L 226.030023 57.834139 
L 226.37109 53.149574 
L 226.991212 40.604798 
L 227.673346 28.08345 
L 228.014413 24.967606 
L 228.20045 24.493291 
L 228.293468 24.596776 
L 228.448498 25.270008 
L 228.696547 27.58356 
L 229.06862 33.44243 
L 230.525907 59.166593 
L 230.773956 60.071921 
L 230.866974 59.998927 
L 231.022005 59.378278 
L 231.270053 57.148607 
L 231.642127 51.395473 
L 233.161425 24.975677 
L 233.378468 24.297812 
L 233.471486 24.380999 
L 233.626517 25.015633 
L 233.874566 27.259535 
L 234.246639 33.017961 
L 235.765938 59.536346 
L 235.98298 60.265304 
L 236.075998 60.20632 
L 236.231029 59.613971 
L 236.479078 57.438879 
L 236.851151 51.769943 
L 238.401456 24.790481 
L 238.618498 24.103787 
L 238.711517 24.179128 
L 238.866547 24.795661 
L 239.114596 27.000328 
L 239.486669 32.692509 
L 241.036974 59.737047 
L 241.254017 60.459254 
L 241.347035 60.401287 
L 241.502066 59.815797 
L 241.750114 57.663246 
L 242.122188 52.041717 
L 243.703498 24.574517 
L 243.920541 23.909857 
L 244.013559 23.990867 
L 244.16859 24.611578 
L 244.416639 26.810286 
L 244.788712 32.474668 
L 246.370023 59.970606 
L 246.587066 60.654075 
L 246.680084 60.583127 
L 246.835114 59.981367 
L 247.083163 57.816702 
L 247.455236 52.202 
L 249.067553 24.326565 
L 249.284596 23.71713 
L 249.377614 23.818277 
L 249.532645 24.467024 
L 249.780694 26.695428 
L 250.152767 32.373727 
L 251.765084 60.236764 
L 251.982127 60.847229 
L 252.075145 60.74837 
L 252.230175 60.105771 
L 252.478224 57.892206 
L 252.850297 52.241012 
L 254.462614 24.217372 
L 254.679657 23.532324 
L 254.772675 23.597073 
L 254.927706 24.181392 
L 255.175755 26.30281 
L 255.516822 31.516099 
L 256.074931 41.055941 
L 256.32298 42.162038 
L 256.509017 42.241031 
L 256.555526 42.234848 
M 256.555526 42.234848 
L 256.555526 42.241031 
L 261.826563 42.234848 
L 261.826563 42.234848 
" clip-path="url(#ped25408130)" style="fill: none; stroke: #636efa; stroke-width: 0.5; stroke-linecap: square"/>
   </g>
   <g id="line2d_18">
    <path d="M 74.239672 42.234848 
L 74.317188 41.266592 
L 74.348194 41.448564 
L 74.53423 44.15484 
L 74.596242 43.668549 
L 74.875297 39.581215 
L 74.906303 39.72213 
L 75.061334 42.258345 
L 75.309383 45.471937 
L 75.402401 44.700469 
L 75.80548 38.483253 
L 75.867492 38.727037 
L 76.022523 41.046344 
L 76.36359 46.408472 
L 76.394596 46.419359 
L 76.425602 46.32388 
L 76.549627 44.973712 
L 77.014718 37.644447 
L 77.045724 37.67291 
L 77.138742 38.324031 
L 77.355785 42.221686 
L 77.696852 47.178099 
L 77.758864 47.108203 
L 77.882889 45.94456 
L 78.472005 36.936688 
L 78.534017 37.158332 
L 78.689047 39.033256 
L 79.247157 47.8554 
L 79.278163 47.83953 
L 79.371181 47.32311 
L 79.557218 44.520627 
L 80.053316 36.379424 
L 80.115328 36.320519 
L 80.146334 36.404245 
L 80.270358 37.455166 
L 80.549413 42.688699 
L 80.921486 48.326914 
L 80.983498 48.452084 
L 81.014505 48.406615 
L 81.138529 47.528639 
L 81.386578 43.220069 
L 81.820663 35.986374 
L 81.913681 35.744085 
L 81.944688 35.801013 
L 82.068712 36.694033 
L 82.316761 40.951367 
L 82.781852 48.744799 
L 82.87487 48.99247 
L 82.905877 48.94272 
L 83.029901 48.101395 
L 83.27795 43.972316 
L 83.774047 35.514623 
L 83.867066 35.219934 
L 83.898072 35.249081 
L 83.99109 35.714017 
L 84.177127 38.151251 
L 84.890267 49.487976 
L 84.952279 49.427999 
L 85.076303 48.586913 
L 85.324352 44.576909 
L 85.882462 35.024876 
L 85.97548 34.735743 
L 86.006486 34.758541 
L 86.099505 35.181209 
L 86.285541 37.466335 
L 87.0917 49.964374 
L 87.184718 49.674288 
L 87.339748 48.107211 
L 87.680816 41.545723 
L 88.083895 34.869006 
L 88.238925 34.284859 
L 88.331944 34.605147 
L 88.51798 36.644558 
L 88.952066 45.331181 
L 89.293133 50.091714 
L 89.417157 50.397697 
L 89.448163 50.337418 
L 89.572188 49.562347 
L 89.78923 46.429888 
L 90.533377 33.980939 
L 90.595389 33.85098 
L 90.657401 33.93476 
L 90.781425 34.728572 
L 91.029474 38.432978 
L 91.742614 50.590605 
L 91.835633 50.827117 
L 91.866639 50.801771 
L 91.959657 50.415758 
L 92.145694 48.355074 
L 92.548773 40.357972 
L 92.951852 34.015892 
L 93.106883 33.441612 
L 93.137889 33.478715 
L 93.261913 34.128076 
L 93.478956 36.982453 
L 94.378133 51.221674 
L 94.440145 51.168604 
L 94.564169 50.474448 
L 94.781212 47.588964 
L 95.680389 33.077562 
L 95.742401 33.069765 
L 95.773407 33.139031 
L 95.897431 33.891764 
L 96.14548 37.384576 
L 96.982645 51.449976 
L 97.075663 51.606065 
L 97.106669 51.562482 
L 97.230694 50.91817 
L 97.447736 48.162248 
L 98.439931 32.673861 
L 98.53295 32.887486 
L 98.68798 34.144289 
L 98.967035 38.698727 
L 99.711181 51.568725 
L 99.835206 51.976848 
L 99.866212 51.964322 
L 99.95923 51.652197 
L 100.145267 49.861641 
L 100.486334 43.627929 
L 101.07545 33.20509 
L 101.261486 32.315185 
L 101.292492 32.323106 
L 101.385511 32.616735 
L 101.571547 34.354516 
L 101.912614 40.500731 
L 102.532736 51.475106 
L 102.718773 52.331174 
L 102.780785 52.264763 
L 102.904809 51.607357 
L 103.121852 48.934004 
L 103.61795 38.903965 
L 104.021029 32.741008 
L 104.207066 31.964422 
L 104.300084 32.160994 
L 104.455114 33.332249 
L 104.734169 37.655071 
L 105.571334 52.234231 
L 105.726364 52.670601 
L 105.819383 52.419153 
L 106.005419 50.811552 
L 106.31548 45.547472 
L 107.059627 32.351051 
L 107.245663 31.627795 
L 107.338681 31.833015 
L 107.493712 32.992289 
L 107.772767 37.243571 
L 108.671944 52.676197 
L 108.795968 53.006731 
L 108.826974 52.98554 
L 108.950998 52.488294 
L 109.168041 50.140987 
L 109.57112 42.40821 
L 110.12923 32.549237 
L 110.346273 31.316451 
L 110.408285 31.327138 
L 110.439291 31.39396 
L 110.594322 32.327826 
L 110.84237 35.669729 
L 111.927584 53.282823 
L 111.989596 53.323437 
L 112.020602 53.283067 
L 112.144627 52.72249 
L 112.361669 50.317113 
L 112.764748 42.584933 
L 113.353864 32.200458 
L 113.570907 30.999179 
L 113.632919 31.008979 
L 113.663925 31.073634 
L 113.818956 31.980712 
L 114.067005 35.243236 
L 115.21423 53.622016 
L 115.276242 53.620838 
L 115.307248 53.561285 
L 115.431273 52.936567 
L 115.648316 50.468764 
L 116.051395 42.729059 
L 116.640511 32.153499 
L 116.888559 30.688347 
L 116.981578 30.76799 
L 117.136608 31.66317 
L 117.384657 34.868283 
L 117.942767 46.225151 
L 118.376852 52.921641 
L 118.593895 53.942949 
L 118.655907 53.893841 
L 118.779931 53.340821 
L 118.996974 51.015238 
L 119.400053 43.45515 
L 120.051181 31.751006 
L 120.29923 30.382015 
L 120.361242 30.411781 
L 120.485267 30.921335 
L 120.702309 33.163981 
L 121.074383 39.956808 
L 121.787523 52.900063 
L 122.035572 54.236386 
L 122.097584 54.202691 
L 122.221608 53.690865 
L 122.438651 51.459888 
L 122.810724 44.702178 
L 123.523864 31.606669 
L 123.771913 30.10773 
L 123.833925 30.094552 
L 123.864931 30.143341 
L 123.988956 30.702722 
L 124.205998 32.992984 
L 124.578072 39.7867 
L 125.291212 52.923605 
L 125.539261 54.491186 
L 125.601273 54.526646 
L 125.632279 54.489632 
L 125.756303 53.980555 
L 125.973346 51.782778 
L 126.345419 45.104733 
L 127.120572 31.067581 
L 127.36862 29.799895 
L 127.461639 29.911971 
L 127.616669 30.806939 
L 127.864718 33.901676 
L 128.360816 43.816203 
L 128.887919 53.034365 
L 129.135968 54.735327 
L 129.228986 54.799942 
L 129.259992 54.750154 
L 129.384017 54.198991 
L 129.601059 51.962432 
L 129.973133 45.288578 
L 130.748285 31.045565 
L 130.996334 29.55096 
L 131.058346 29.522749 
L 131.089352 29.561575 
L 131.213377 30.065978 
L 131.430419 32.216342 
L 131.802492 38.778128 
L 132.608651 53.595062 
L 132.8567 55.059331 
L 132.918712 55.08332 
L 132.949718 55.042948 
L 133.073742 54.536161 
L 133.290785 52.394597 
L 133.662858 45.863781 
L 134.500023 30.597131 
L 134.748072 29.257667 
L 134.84109 29.316863 
L 134.965114 29.874538 
L 135.182157 32.084002 
L 135.55423 38.666771 
L 136.391395 53.95512 
L 136.639444 55.339058 
L 136.701456 55.34918 
L 136.732462 55.302968 
L 136.856486 54.780259 
L 137.073529 52.637566 
L 137.445602 46.147322 
L 138.313773 30.322353 
L 138.561822 28.991574 
L 138.65484 29.042783 
L 138.778864 29.580543 
L 138.995907 31.735539 
L 139.36798 38.219061 
L 140.236151 54.151962 
L 140.4842 55.590923 
L 140.546212 55.622068 
L 140.577218 55.587364 
L 140.701242 55.116482 
L 140.918285 53.078685 
L 141.290358 46.746002 
L 142.220541 29.908335 
L 142.46859 28.717141 
L 142.561608 28.811746 
L 142.716639 29.623286 
L 142.964688 32.484077 
L 143.398773 40.724337 
L 144.111913 53.858789 
L 144.390968 55.804289 
L 144.483986 55.877585 
L 144.514992 55.836279 
L 144.639017 55.345666 
L 144.856059 53.298017 
L 145.228133 46.994004 
L 146.189322 29.626847 
L 146.43737 28.459252 
L 146.530389 28.552848 
L 146.685419 29.350836 
L 146.933468 32.166358 
L 147.367553 40.32814 
L 148.1117 54.081774 
L 148.390755 56.046412 
L 148.483773 56.137155 
L 148.514779 56.102865 
L 148.638803 55.645772 
L 148.855846 53.672181 
L 149.196913 48.106402 
L 150.25112 29.195394 
L 150.468163 28.215279 
L 150.561181 28.270283 
L 150.716212 28.994386 
L 150.964261 31.681065 
L 151.36734 39.025799 
L 152.204505 54.514815 
L 152.483559 56.329337 
L 152.576578 56.377153 
L 152.607584 56.329712 
L 152.731608 55.826418 
L 152.948651 53.7983 
L 153.320724 47.592089 
L 154.343925 29.11701 
L 154.591974 27.959971 
L 154.684992 28.038995 
L 154.840023 28.791326 
L 155.088072 31.49354 
L 155.491151 38.818294 
L 156.359322 54.826408 
L 156.638377 56.583134 
L 156.731395 56.620261 
L 156.762401 56.57034 
L 156.917431 55.860034 
L 157.16548 53.228941 
L 157.568559 45.991273 
L 158.467736 29.445627 
L 158.746791 27.753825 
L 158.839809 27.734804 
L 158.963834 28.14007 
L 159.180877 29.982828 
L 159.521944 35.315822 
L 160.700175 56.119141 
L 160.917218 56.881278 
L 161.010236 56.750916 
L 161.165267 55.930531 
L 161.413316 53.166527 
L 161.847401 45.17822 
L 162.684566 29.612707 
L 162.96362 27.607146 
L 163.056639 27.468737 
L 163.087645 27.483357 
L 163.211669 27.844393 
L 163.428712 29.597669 
L 163.769779 34.793617 
L 165.010023 56.483526 
L 165.227066 57.116056 
L 165.320084 56.936816 
L 165.50612 55.783352 
L 165.785175 52.258208 
L 166.281273 42.513529 
L 166.963407 29.905198 
L 167.273468 27.42237 
L 167.397492 27.235223 
L 167.428498 27.263186 
L 167.552523 27.672186 
L 167.769566 29.486895 
L 168.110633 34.724114 
L 169.381883 56.79277 
L 169.567919 57.353661 
L 169.660938 57.234906 
L 169.815968 56.451783 
L 170.064017 53.782113 
L 170.467096 46.603938 
L 171.428285 28.847686 
L 171.70734 27.078404 
L 171.800358 27.00675 
L 171.831364 27.041798 
L 171.955389 27.474297 
L 172.172431 29.311295 
L 172.513498 34.54513 
L 173.815755 57.061699 
L 174.001791 57.584944 
L 174.094809 57.453208 
L 174.24984 56.657619 
L 174.497889 53.989871 
L 174.900968 46.844183 
L 175.893163 28.56369 
L 176.172218 26.842115 
L 176.265236 26.779428 
L 176.296242 26.816588 
L 176.420267 27.253146 
L 176.637309 29.081568 
L 176.978377 34.276607 
L 178.311639 57.300264 
L 178.497675 57.8124 
L 178.590694 57.680794 
L 178.745724 56.893658 
L 178.993773 54.256714 
L 179.396852 47.172899 
L 180.420053 28.325915 
L 180.699108 26.617939 
L 180.792127 26.552587 
L 180.823133 26.588028 
L 180.947157 27.013684 
L 181.1642 28.809794 
L 181.505267 33.938397 
L 182.869535 57.515364 
L 183.055572 58.036532 
L 183.14859 57.914945 
L 183.30362 57.151977 
L 183.551669 54.567677 
L 183.954748 47.568966 
L 185.008956 28.123412 
L 185.288011 26.403729 
L 185.381029 26.327188 
L 185.412035 26.358084 
L 185.536059 26.761918 
L 185.753102 28.508327 
L 186.094169 33.549715 
L 187.52045 57.872086 
L 187.706486 58.249886 
L 187.830511 57.943174 
L 188.016547 56.666995 
L 188.326608 52.597819 
L 188.884718 41.445302 
L 189.566852 28.98902 
L 189.876913 26.398912 
L 190.031944 26.104658 
L 190.06295 26.129145 
L 190.186974 26.503849 
L 190.404017 28.188932 
L 190.745084 33.128689 
L 191.551242 49.692322 
L 192.016334 56.681687 
L 192.295389 58.389633 
L 192.388407 58.472194 
L 192.419413 58.444427 
L 192.543438 58.058637 
L 192.76048 56.361911 
L 193.101547 51.420714 
L 193.907706 34.851552 
L 194.403803 27.485655 
L 194.682858 25.934557 
L 194.775877 25.903304 
L 194.806883 25.947797 
L 194.961913 26.5775 
L 195.209962 28.926284 
L 195.582035 34.985989 
L 196.822279 57.405713 
L 197.070328 58.648264 
L 197.163346 58.670114 
L 197.194352 58.622862 
L 197.349383 57.982178 
L 197.597431 55.625556 
L 197.969505 49.570496 
L 199.240755 26.796274 
L 199.488803 25.690412 
L 199.581822 25.71841 
L 199.705846 26.133227 
L 199.922889 27.858704 
L 200.263956 32.79812 
L 201.008102 48.145714 
L 201.535206 56.662798 
L 201.845267 58.778709 
L 201.969291 58.890871 
L 202.000297 58.851611 
L 202.124322 58.427306 
L 202.341364 56.692332 
L 202.682431 51.753121 
L 203.426578 36.406716 
L 203.953681 27.817111 
L 204.263742 25.617907 
L 204.387767 25.465733 
L 204.418773 25.494572 
L 204.542797 25.875959 
L 204.75984 27.534384 
L 205.100907 32.36617 
L 205.783041 46.382731 
L 206.372157 56.465156 
L 206.682218 58.868047 
L 206.837248 59.106335 
L 206.961273 58.819295 
L 207.147309 57.611359 
L 207.45737 53.725331 
L 207.984474 43.483708 
L 208.790633 28.393647 
L 209.1317 25.53876 
L 209.28673 25.254435 
L 209.317736 25.276755 
L 209.441761 25.629118 
L 209.658803 27.227906 
L 209.99987 31.960921 
L 210.650998 45.25574 
L 211.27112 56.256293 
L 211.612188 59.05433 
L 211.767218 59.316824 
L 211.860236 59.159502 
L 212.046273 58.148172 
L 212.325328 55.017889 
L 212.790419 46.580474 
L 213.782614 27.842619 
L 214.092675 25.351014 
L 214.247706 25.047356 
L 214.278712 25.064846 
L 214.402736 25.394936 
L 214.619779 26.945474 
L 214.92984 31.076078 
L 215.48795 42.150114 
L 216.232096 56.050336 
L 216.573163 59.11332 
L 216.7592 59.523038 
L 216.852218 59.378203 
L 217.007248 58.62475 
L 217.255297 56.163837 
L 217.658377 49.489701 
L 218.929627 26.362248 
L 219.208681 24.89131 
L 219.3017 24.858493 
L 219.332706 24.899172 
L 219.487736 25.486057 
L 219.735785 27.696119 
L 220.107858 33.478183 
L 221.565145 58.974497 
L 221.782188 59.72101 
L 221.875206 59.658099 
L 222.030236 59.044161 
L 222.278285 56.801131 
L 222.650358 50.993541 
L 224.107645 25.435895 
L 224.324688 24.653085 
L 224.417706 24.698018 
L 224.572736 25.279641 
L 224.820785 27.468195 
L 225.192858 33.202668 
L 226.681151 59.196414 
L 226.898194 59.92219 
L 226.991212 59.854592 
L 227.146242 59.238649 
L 227.394291 57.006119 
L 227.766364 51.233104 
L 229.254657 25.201699 
L 229.4717 24.451236 
L 229.564718 24.505992 
L 229.719748 25.098135 
L 229.967797 27.288944 
L 230.33987 33.003338 
L 231.859169 59.440643 
L 232.076212 60.122597 
L 232.16923 60.040161 
L 232.324261 59.405416 
L 232.572309 57.158169 
L 232.944383 51.390537 
L 234.463681 24.943655 
L 234.680724 24.250043 
L 234.773742 24.325382 
L 234.928773 24.94584 
L 235.176822 27.165654 
L 235.548895 32.891215 
L 237.068194 59.523142 
L 237.285236 60.306758 
L 237.378255 60.272552 
L 237.502279 59.881031 
L 237.719322 58.274954 
L 238.060389 53.650546 
L 238.649505 41.859036 
L 239.393651 27.929163 
L 239.765724 24.501849 
L 239.951761 24.052529 
L 240.044779 24.160353 
L 240.199809 24.82872 
L 240.447858 27.106826 
L 240.819931 32.87773 
L 242.370236 59.826796 
L 242.587279 60.510592 
L 242.680297 60.436925 
L 242.835328 59.826968 
L 243.083377 57.641201 
L 243.45545 51.986554 
L 245.036761 24.526709 
L 245.253803 23.862095 
L 245.346822 23.942169 
L 245.501852 24.560102 
L 245.749901 26.751705 
L 246.121974 32.402725 
L 247.734291 60.151636 
L 247.951334 60.704411 
L 248.044352 60.577855 
L 248.199383 59.886385 
L 248.447431 57.592038 
L 248.850511 51.254424 
L 250.338803 24.76572 
L 250.586852 23.699261 
L 250.67987 23.69451 
L 250.803895 24.025736 
L 251.020938 25.508466 
L 251.330998 29.43051 
L 251.858102 39.505092 
L 252.788285 57.203429 
L 253.160358 60.489479 
L 253.346395 60.894136 
L 253.439413 60.772358 
L 253.594444 60.093489 
L 253.842492 57.829143 
L 254.214566 52.124203 
L 255.60984 27.047774 
L 255.671852 27.157806 
L 255.795877 28.112027 
L 256.074931 32.70844 
L 256.555526 42.234848 
M 256.555526 42.234848 
L 256.555526 41.961442 
L 261.826563 42.234848 
L 261.826563 42.234848 
" clip-path="url(#ped25408130)" style="fill: none; stroke: #ef553b; stroke-width: 0.5; stroke-linecap: square"/>
   </g>
   <g id="line2d_19">
    <path d="M 53.093514 42.234848 
L 54.178727 12.249641 
L 54.178727 12.249641 
L 55.263941 42.234848 
M 55.263941 42.234848 
L 55.636014 31.740015 
L 61.837233 31.740015 
L 62.209306 42.234848 
M 62.209306 42.234848 
L 63.325526 73.136254 
L 63.325526 73.136254 
L 64.441745 42.234848 
M 256.555526 42.234848 
L 257.640739 11.139077 
L 260.741349 11.139077 
L 261.826563 42.234848 
" clip-path="url(#ped25408130)" style="fill: none; stroke: #00cc96; stroke-width: 0.5; stroke-linecap: square"/>
   </g>
   <g id="line2d_20">
    <path d="M 28.226623 42.234848 
L 37.497447 42.127175 
L 37.590465 42.094591 
L 37.900526 41.990285 
L 37.993544 41.927091 
L 38.179581 41.830748 
L 38.272599 41.738347 
L 38.42763 41.631267 
L 38.520648 41.508851 
L 38.644672 41.4068 
L 38.737691 41.257211 
L 38.830709 41.176794 
L 38.923727 41.005411 
L 39.016745 40.914847 
L 39.109764 40.725293 
L 39.202782 40.626961 
L 39.2958 40.425149 
L 39.388819 40.322571 
L 39.481837 40.116594 
L 39.574855 40.014297 
L 39.667873 39.814019 
L 39.760892 39.717258 
L 39.85391 39.533598 
L 39.946928 39.447933 
L 40.039947 39.291919 
L 40.163971 39.190512 
L 40.256989 39.079328 
L 40.474032 38.970595 
L 40.56705 38.940096 
L 40.939123 39.035001 
L 41.032142 39.131298 
L 41.156166 39.222696 
L 41.249184 39.367181 
L 41.342203 39.447933 
L 41.435221 39.623578 
L 41.528239 39.717258 
L 41.621258 39.913237 
L 41.714276 40.014297 
L 41.807294 40.21954 
L 41.900313 40.322571 
L 41.993331 40.52677 
L 42.086349 40.626961 
L 42.179367 40.821371 
L 42.272386 40.914847 
L 42.365404 41.092801 
L 42.458422 41.176794 
L 42.551441 41.333913 
L 42.675465 41.441792 
L 42.768483 41.572003 
L 42.892508 41.659456 
L 42.985526 41.762791 
L 43.171563 41.871735 
L 43.264581 41.943986 
L 43.543636 42.054077 
L 43.636654 42.094591 
L 44.318788 42.203757 
L 44.411806 42.212275 
L 53.000495 42.234848 
L 53.000495 42.234848 
M 55.637564 42.234848 
L 55.746085 42.203549 
L 56.053046 42.093351 
L 56.161567 42.042 
L 56.384811 41.932303 
L 56.493332 41.881669 
L 57.032838 41.99053 
L 57.14136 42.151611 
L 57.274686 42.046662 
L 57.383207 41.739466 
L 57.420415 41.632015 
L 57.528936 41.238234 
L 57.559942 41.130322 
L 57.668463 40.665727 
L 57.696369 40.556206 
L 57.80489 40.042234 
L 57.829695 39.939266 
L 57.938216 39.402791 
L 57.963021 39.298278 
L 58.071543 38.769508 
L 58.096348 38.669622 
L 58.204869 38.181018 
L 58.232774 38.07959 
L 58.341296 37.665054 
L 58.378503 37.554085 
L 58.487024 37.251169 
L 58.542835 37.143268 
L 58.651357 36.996126 
L 58.914909 37.105841 
L 59.02343 37.341317 
L 59.066838 37.451385 
L 59.17536 37.817443 
L 59.206366 37.921527 
L 59.314887 38.378781 
L 59.342793 38.487848 
L 59.451314 39.002007 
L 59.476119 39.10516 
L 59.58464 39.642007 
L 59.609445 39.74643 
L 59.717966 40.274376 
L 59.742771 40.374206 
L 59.851293 40.865291 
L 59.879198 40.968343 
L 59.98772 41.39879 
L 60.021826 41.507769 
L 60.130348 41.858327 
L 60.173756 41.968244 
L 60.282277 42.225614 
L 60.356692 42.115285 
L 60.465213 41.966375 
L 60.620244 41.855373 
L 60.728765 41.828924 
L 61.11014 41.939898 
L 61.218662 41.995966 
L 61.457409 42.10661 
L 61.56593 42.150382 
L 61.835683 42.233581 
L 61.835683 42.234848 
" clip-path="url(#ped25408130)" style="fill: none; stroke: #ab63fa; stroke-width: 0.5; stroke-linecap: square"/>
   </g>
   <g id="legend_1">
    <g id="line2d_21">
     <path d="M 32.416563 10.95 
L 34.916563 10.95 
L 37.416563 10.95 
" style="fill: none; stroke: #636efa; stroke-width: 0.5; stroke-linecap: square"/>
    </g>
    <g id="text_18">
     <!-- $G_{x}$ -->
     <g transform="translate(39.916563 12.7) scale(0.05 -0.05)">
      <defs>
       <path id="TimesNewRomanPSMT-47" d="M 3928 4334 
L 4038 2997 
L 3928 2997 
Q 3763 3497 3500 3750 
Q 3122 4116 2528 4116 
Q 1719 4116 1297 3475 
Q 944 2934 944 2188 
Q 944 1581 1178 1081 
Q 1413 581 1792 348 
Q 2172 116 2572 116 
Q 2806 116 3025 175 
Q 3244 234 3447 350 
L 3447 1575 
Q 3447 1894 3398 1992 
Q 3350 2091 3248 2142 
Q 3147 2194 2891 2194 
L 2891 2313 
L 4531 2313 
L 4531 2194 
L 4453 2194 
Q 4209 2194 4119 2031 
Q 4056 1916 4056 1575 
L 4056 278 
Q 3697 84 3347 -6 
Q 2997 -97 2569 -97 
Q 1341 -97 703 691 
Q 225 1281 225 2053 
Q 225 2613 494 3125 
Q 813 3734 1369 4063 
Q 1834 4334 2469 4334 
Q 2700 4334 2889 4296 
Q 3078 4259 3425 4131 
Q 3600 4066 3659 4066 
Q 3719 4066 3761 4120 
Q 3803 4175 3813 4334 
L 3928 4334 
z
" transform="scale(0.015625)"/>
       <path id="TimesNewRomanPSMT-78" d="M 84 2863 
L 1431 2863 
L 1431 2747 
Q 1303 2747 1251 2703 
Q 1200 2659 1200 2588 
Q 1200 2513 1309 2356 
Q 1344 2306 1413 2200 
L 1616 1875 
L 1850 2200 
Q 2075 2509 2075 2591 
Q 2075 2656 2022 2701 
Q 1969 2747 1850 2747 
L 1850 2863 
L 2819 2863 
L 2819 2747 
Q 2666 2738 2553 2663 
Q 2400 2556 2134 2200 
L 1744 1678 
L 2456 653 
Q 2719 275 2831 198 
Q 2944 122 3122 113 
L 3122 0 
L 1772 0 
L 1772 113 
Q 1913 113 1991 175 
Q 2050 219 2050 291 
Q 2050 363 1850 653 
L 1431 1266 
L 972 653 
Q 759 369 759 316 
Q 759 241 829 180 
Q 900 119 1041 113 
L 1041 0 
L 106 0 
L 106 113 
Q 219 128 303 191 
Q 422 281 703 653 
L 1303 1450 
L 759 2238 
Q 528 2575 401 2661 
Q 275 2747 84 2747 
L 84 2863 
z
" transform="scale(0.015625)"/>
      </defs>
      <use xlink:href="#TimesNewRomanPSMT-47" transform="translate(0 0.28125)"/>
      <use xlink:href="#TimesNewRomanPSMT-78" transform="translate(73.719609 -25.48125) scale(0.7)"/>
     </g>
    </g>
    <g id="line2d_22">
     <path d="M 50.616563 10.95 
L 53.116563 10.95 
L 55.616563 10.95 
" style="fill: none; stroke: #ef553b; stroke-width: 0.5; stroke-linecap: square"/>
    </g>
    <g id="text_19">
     <!-- $G_{y}$ -->
     <g transform="translate(58.116563 12.7) scale(0.05 -0.05)">
      <defs>
       <path id="TimesNewRomanPSMT-79" d="M 38 2863 
L 1372 2863 
L 1372 2747 
L 1306 2747 
Q 1166 2747 1095 2686 
Q 1025 2625 1025 2534 
Q 1025 2413 1128 2197 
L 1825 753 
L 2466 2334 
Q 2519 2463 2519 2588 
Q 2519 2644 2497 2672 
Q 2472 2706 2419 2726 
Q 2366 2747 2231 2747 
L 2231 2863 
L 3163 2863 
L 3163 2747 
Q 3047 2734 2984 2696 
Q 2922 2659 2847 2556 
Q 2819 2513 2741 2316 
L 1575 -541 
Q 1406 -956 1132 -1168 
Q 859 -1381 606 -1381 
Q 422 -1381 303 -1275 
Q 184 -1169 184 -1031 
Q 184 -900 270 -820 
Q 356 -741 506 -741 
Q 609 -741 788 -809 
Q 913 -856 944 -856 
Q 1038 -856 1148 -759 
Q 1259 -663 1372 -384 
L 1575 113 
L 547 2272 
Q 500 2369 397 2513 
Q 319 2622 269 2659 
Q 197 2709 38 2747 
L 38 2863 
z
" transform="scale(0.015625)"/>
      </defs>
      <use xlink:href="#TimesNewRomanPSMT-47" transform="translate(0 0.28125)"/>
      <use xlink:href="#TimesNewRomanPSMT-79" transform="translate(73.719609 -25.48125) scale(0.7)"/>
     </g>
    </g>
    <g id="line2d_23">
     <path d="M 68.816563 10.95 
L 71.316563 10.95 
L 73.816563 10.95 
" style="fill: none; stroke: #00cc96; stroke-width: 0.5; stroke-linecap: square"/>
    </g>
    <g id="text_20">
     <!-- $G_{z}$ -->
     <g transform="translate(76.316563 12.7) scale(0.05 -0.05)">
      <defs>
       <path id="TimesNewRomanPSMT-7a" d="M 2688 878 
L 2653 0 
L 128 0 
L 128 113 
L 2028 2644 
L 1091 2644 
Q 788 2644 694 2605 
Q 600 2566 541 2456 
Q 456 2300 444 2069 
L 319 2069 
L 338 2863 
L 2738 2863 
L 2738 2747 
L 819 209 
L 1863 209 
Q 2191 209 2308 264 
Q 2425 319 2497 456 
Q 2547 556 2581 878 
L 2688 878 
z
" transform="scale(0.015625)"/>
      </defs>
      <use xlink:href="#TimesNewRomanPSMT-47" transform="translate(0 0.28125)"/>
      <use xlink:href="#TimesNewRomanPSMT-7a" transform="translate(73.719609 -25.48125) scale(0.7)"/>
     </g>
    </g>
    <g id="line2d_24">
     <path d="M 86.816563 10.95 
L 89.316563 10.95 
L 91.816563 10.95 
" style="fill: none; stroke: #ab63fa; stroke-width: 0.5; stroke-linecap: square"/>
    </g>
    <g id="text_21">
     <!-- $|B_{1}|$ -->
     <g transform="translate(94.316563 12.7) scale(0.05 -0.05)">
      <defs>
       <path id="TimesNewRomanPSMT-7c" d="M 763 4444 
L 763 -1381 
L 503 -1381 
L 503 4444 
L 763 4444 
z
" transform="scale(0.015625)"/>
       <path id="TimesNewRomanPSMT-42" d="M 2956 2163 
Q 3397 2069 3616 1863 
Q 3919 1575 3919 1159 
Q 3919 844 3719 555 
Q 3519 266 3170 133 
Q 2822 0 2106 0 
L 106 0 
L 106 116 
L 266 116 
Q 531 116 647 284 
Q 719 394 719 750 
L 719 3488 
Q 719 3881 628 3984 
Q 506 4122 266 4122 
L 106 4122 
L 106 4238 
L 1938 4238 
Q 2450 4238 2759 4163 
Q 3228 4050 3475 3764 
Q 3722 3478 3722 3106 
Q 3722 2788 3528 2536 
Q 3334 2284 2956 2163 
z
M 1319 2331 
Q 1434 2309 1582 2298 
Q 1731 2288 1909 2288 
Q 2366 2288 2595 2386 
Q 2825 2484 2947 2687 
Q 3069 2891 3069 3131 
Q 3069 3503 2766 3765 
Q 2463 4028 1881 4028 
Q 1569 4028 1319 3959 
L 1319 2331 
z
M 1319 306 
Q 1681 222 2034 222 
Q 2600 222 2897 476 
Q 3194 731 3194 1106 
Q 3194 1353 3059 1581 
Q 2925 1809 2622 1940 
Q 2319 2072 1872 2072 
Q 1678 2072 1540 2065 
Q 1403 2059 1319 2044 
L 1319 306 
z
" transform="scale(0.015625)"/>
      </defs>
      <use xlink:href="#TimesNewRomanPSMT-7c" transform="translate(0 0.5625)"/>
      <use xlink:href="#TimesNewRomanPSMT-42" transform="translate(20.019531 0.5625)"/>
      <use xlink:href="#TimesNewRomanPSMT-31" transform="translate(88.221563 -25.2) scale(0.7)"/>
      <use xlink:href="#TimesNewRomanPSMT-7c" transform="translate(127.515312 0.5625)"/>
     </g>
    </g>
    <g id="PathCollection_3">
     <g>
      <use xlink:href="#me75341e181" x="109.216563" y="11.3875" style="stroke: #000000; stroke-width: 0.1"/>
     </g>
    </g>
    <g id="text_22">
     <!-- $Stitching \quad trigger$ -->
     <g transform="translate(114.216563 12.7) scale(0.05 -0.05)">
      <defs>
       <path id="TimesNewRomanPSMT-53" d="M 2934 4334 
L 2934 2869 
L 2819 2869 
Q 2763 3291 2617 3541 
Q 2472 3791 2203 3937 
Q 1934 4084 1647 4084 
Q 1322 4084 1109 3886 
Q 897 3688 897 3434 
Q 897 3241 1031 3081 
Q 1225 2847 1953 2456 
Q 2547 2138 2764 1967 
Q 2981 1797 3098 1565 
Q 3216 1334 3216 1081 
Q 3216 600 2842 251 
Q 2469 -97 1881 -97 
Q 1697 -97 1534 -69 
Q 1438 -53 1133 45 
Q 828 144 747 144 
Q 669 144 623 97 
Q 578 50 556 -97 
L 441 -97 
L 441 1356 
L 556 1356 
Q 638 900 775 673 
Q 913 447 1195 297 
Q 1478 147 1816 147 
Q 2206 147 2432 353 
Q 2659 559 2659 841 
Q 2659 997 2573 1156 
Q 2488 1316 2306 1453 
Q 2184 1547 1640 1851 
Q 1097 2156 867 2337 
Q 638 2519 519 2737 
Q 400 2956 400 3219 
Q 400 3675 750 4004 
Q 1100 4334 1641 4334 
Q 1978 4334 2356 4169 
Q 2531 4091 2603 4091 
Q 2684 4091 2736 4139 
Q 2788 4188 2819 4334 
L 2934 4334 
z
" transform="scale(0.015625)"/>
       <path id="TimesNewRomanPSMT-63" d="M 2631 1088 
Q 2516 522 2178 217 
Q 1841 -88 1431 -88 
Q 944 -88 581 321 
Q 219 731 219 1428 
Q 219 2103 620 2525 
Q 1022 2947 1584 2947 
Q 2006 2947 2278 2723 
Q 2550 2500 2550 2259 
Q 2550 2141 2473 2067 
Q 2397 1994 2259 1994 
Q 2075 1994 1981 2113 
Q 1928 2178 1911 2362 
Q 1894 2547 1784 2644 
Q 1675 2738 1481 2738 
Q 1169 2738 978 2506 
Q 725 2200 725 1697 
Q 725 1184 976 792 
Q 1228 400 1656 400 
Q 1963 400 2206 609 
Q 2378 753 2541 1131 
L 2631 1088 
z
" transform="scale(0.015625)"/>
       <path id="TimesNewRomanPSMT-68" d="M 1041 4444 
L 1041 2350 
Q 1388 2731 1591 2839 
Q 1794 2947 1997 2947 
Q 2241 2947 2416 2812 
Q 2591 2678 2675 2391 
Q 2734 2191 2734 1659 
L 2734 647 
Q 2734 375 2778 275 
Q 2809 200 2884 156 
Q 2959 113 3159 113 
L 3159 0 
L 1753 0 
L 1753 113 
L 1819 113 
Q 2019 113 2097 173 
Q 2175 234 2206 353 
Q 2216 403 2216 647 
L 2216 1659 
Q 2216 2128 2167 2275 
Q 2119 2422 2012 2495 
Q 1906 2569 1756 2569 
Q 1603 2569 1437 2487 
Q 1272 2406 1041 2159 
L 1041 647 
Q 1041 353 1073 281 
Q 1106 209 1195 161 
Q 1284 113 1503 113 
L 1503 0 
L 84 0 
L 84 113 
Q 275 113 384 172 
Q 447 203 484 290 
Q 522 378 522 647 
L 522 3238 
Q 522 3728 498 3840 
Q 475 3953 426 3993 
Q 378 4034 297 4034 
Q 231 4034 84 3984 
L 41 4094 
L 897 4444 
L 1041 4444 
z
" transform="scale(0.015625)"/>
       <path id="TimesNewRomanPSMT-6e" d="M 1034 2341 
Q 1538 2947 1994 2947 
Q 2228 2947 2397 2830 
Q 2566 2713 2666 2444 
Q 2734 2256 2734 1869 
L 2734 647 
Q 2734 375 2778 278 
Q 2813 200 2889 156 
Q 2966 113 3172 113 
L 3172 0 
L 1756 0 
L 1756 113 
L 1816 113 
Q 2016 113 2095 173 
Q 2175 234 2206 353 
Q 2219 400 2219 647 
L 2219 1819 
Q 2219 2209 2117 2386 
Q 2016 2563 1775 2563 
Q 1403 2563 1034 2156 
L 1034 647 
Q 1034 356 1069 288 
Q 1113 197 1189 155 
Q 1266 113 1500 113 
L 1500 0 
L 84 0 
L 84 113 
L 147 113 
Q 366 113 442 223 
Q 519 334 519 647 
L 519 1709 
Q 519 2225 495 2337 
Q 472 2450 423 2490 
Q 375 2531 294 2531 
Q 206 2531 84 2484 
L 38 2597 
L 900 2947 
L 1034 2947 
L 1034 2341 
z
" transform="scale(0.015625)"/>
       <path id="TimesNewRomanPSMT-67" d="M 966 1044 
Q 703 1172 562 1401 
Q 422 1631 422 1909 
Q 422 2334 742 2640 
Q 1063 2947 1563 2947 
Q 1972 2947 2272 2747 
L 2878 2747 
Q 3013 2747 3034 2739 
Q 3056 2731 3066 2713 
Q 3084 2684 3084 2613 
Q 3084 2531 3069 2500 
Q 3059 2484 3036 2475 
Q 3013 2466 2878 2466 
L 2506 2466 
Q 2681 2241 2681 1891 
Q 2681 1491 2375 1206 
Q 2069 922 1553 922 
Q 1341 922 1119 984 
Q 981 866 932 777 
Q 884 688 884 625 
Q 884 572 936 522 
Q 988 472 1138 450 
Q 1225 438 1575 428 
Q 2219 413 2409 384 
Q 2700 344 2873 169 
Q 3047 -6 3047 -263 
Q 3047 -616 2716 -925 
Q 2228 -1381 1444 -1381 
Q 841 -1381 425 -1109 
Q 191 -953 191 -784 
Q 191 -709 225 -634 
Q 278 -519 444 -313 
Q 466 -284 763 25 
Q 600 122 533 198 
Q 466 275 466 372 
Q 466 481 555 628 
Q 644 775 966 1044 
z
M 1509 2797 
Q 1278 2797 1122 2612 
Q 966 2428 966 2047 
Q 966 1553 1178 1281 
Q 1341 1075 1591 1075 
Q 1828 1075 1981 1253 
Q 2134 1431 2134 1813 
Q 2134 2309 1919 2591 
Q 1759 2797 1509 2797 
z
M 934 0 
Q 788 -159 713 -296 
Q 638 -434 638 -550 
Q 638 -700 819 -813 
Q 1131 -1006 1722 -1006 
Q 2284 -1006 2551 -807 
Q 2819 -609 2819 -384 
Q 2819 -222 2659 -153 
Q 2497 -84 2016 -72 
Q 1313 -53 934 0 
z
" transform="scale(0.015625)"/>
       <path id="TimesNewRomanPSMT-72" d="M 1038 2947 
L 1038 2303 
Q 1397 2947 1775 2947 
Q 1947 2947 2059 2842 
Q 2172 2738 2172 2600 
Q 2172 2478 2090 2393 
Q 2009 2309 1897 2309 
Q 1788 2309 1652 2417 
Q 1516 2525 1450 2525 
Q 1394 2525 1328 2463 
Q 1188 2334 1038 2041 
L 1038 669 
Q 1038 431 1097 309 
Q 1138 225 1241 169 
Q 1344 113 1538 113 
L 1538 0 
L 72 0 
L 72 113 
Q 291 113 397 181 
Q 475 231 506 341 
Q 522 394 522 644 
L 522 1753 
Q 522 2253 501 2348 
Q 481 2444 426 2487 
Q 372 2531 291 2531 
Q 194 2531 72 2484 
L 41 2597 
L 906 2947 
L 1038 2947 
z
" transform="scale(0.015625)"/>
      </defs>
      <use xlink:href="#TimesNewRomanPSMT-53" transform="translate(0 0.5625)"/>
      <use xlink:href="#TimesNewRomanPSMT-74" transform="translate(55.615234 0.5625)"/>
      <use xlink:href="#TimesNewRomanPSMT-69" transform="translate(83.398438 0.5625)"/>
      <use xlink:href="#TimesNewRomanPSMT-74" transform="translate(111.181641 0.5625)"/>
      <use xlink:href="#TimesNewRomanPSMT-63" transform="translate(138.964844 0.5625)"/>
      <use xlink:href="#TimesNewRomanPSMT-68" transform="translate(183.349609 0.5625)"/>
      <use xlink:href="#TimesNewRomanPSMT-69" transform="translate(233.349609 0.5625)"/>
      <use xlink:href="#TimesNewRomanPSMT-6e" transform="translate(261.132812 0.5625)"/>
      <use xlink:href="#TimesNewRomanPSMT-67" transform="translate(311.132812 0.5625)"/>
      <use xlink:href="#TimesNewRomanPSMT-74" transform="translate(458.544922 0.5625)"/>
      <use xlink:href="#TimesNewRomanPSMT-72" transform="translate(486.328125 0.5625)"/>
      <use xlink:href="#TimesNewRomanPSMT-69" transform="translate(519.628906 0.5625)"/>
      <use xlink:href="#TimesNewRomanPSMT-67" transform="translate(547.412109 0.5625)"/>
      <use xlink:href="#TimesNewRomanPSMT-67" transform="translate(597.412109 0.5625)"/>
      <use xlink:href="#TimesNewRomanPSMT-65" transform="translate(647.412109 0.5625)"/>
      <use xlink:href="#TimesNewRomanPSMT-72" transform="translate(691.796875 0.5625)"/>
     </g>
    </g>
    <g id="PathCollection_4">
     <g>
      <use xlink:href="#m01811dd4c9" x="158.016562" y="11.3875" style="stroke: #000000; stroke-width: 0.1"/>
     </g>
    </g>
    <g id="text_23">
     <!-- $Standard \quad trigger$ -->
     <g transform="translate(163.016562 12.7) scale(0.05 -0.05)">
      <defs>
       <path id="TimesNewRomanPSMT-61" d="M 1822 413 
Q 1381 72 1269 19 
Q 1100 -59 909 -59 
Q 613 -59 420 144 
Q 228 347 228 678 
Q 228 888 322 1041 
Q 450 1253 767 1440 
Q 1084 1628 1822 1897 
L 1822 2009 
Q 1822 2438 1686 2597 
Q 1550 2756 1291 2756 
Q 1094 2756 978 2650 
Q 859 2544 859 2406 
L 866 2225 
Q 866 2081 792 2003 
Q 719 1925 600 1925 
Q 484 1925 411 2006 
Q 338 2088 338 2228 
Q 338 2497 613 2722 
Q 888 2947 1384 2947 
Q 1766 2947 2009 2819 
Q 2194 2722 2281 2516 
Q 2338 2381 2338 1966 
L 2338 994 
Q 2338 584 2353 492 
Q 2369 400 2405 369 
Q 2441 338 2488 338 
Q 2538 338 2575 359 
Q 2641 400 2828 588 
L 2828 413 
Q 2478 -56 2159 -56 
Q 2006 -56 1915 50 
Q 1825 156 1822 413 
z
M 1822 616 
L 1822 1706 
Q 1350 1519 1213 1441 
Q 966 1303 859 1153 
Q 753 1003 753 825 
Q 753 600 887 451 
Q 1022 303 1197 303 
Q 1434 303 1822 616 
z
" transform="scale(0.015625)"/>
      </defs>
      <use xlink:href="#TimesNewRomanPSMT-53" transform="translate(0 0.5625)"/>
      <use xlink:href="#TimesNewRomanPSMT-74" transform="translate(55.615234 0.5625)"/>
      <use xlink:href="#TimesNewRomanPSMT-61" transform="translate(83.398438 0.5625)"/>
      <use xlink:href="#TimesNewRomanPSMT-6e" transform="translate(127.783203 0.5625)"/>
      <use xlink:href="#TimesNewRomanPSMT-64" transform="translate(177.783203 0.5625)"/>
      <use xlink:href="#TimesNewRomanPSMT-61" transform="translate(227.783203 0.5625)"/>
      <use xlink:href="#TimesNewRomanPSMT-72" transform="translate(272.167969 0.5625)"/>
      <use xlink:href="#TimesNewRomanPSMT-64" transform="translate(305.46875 0.5625)"/>
      <use xlink:href="#TimesNewRomanPSMT-74" transform="translate(452.880859 0.5625)"/>
      <use xlink:href="#TimesNewRomanPSMT-72" transform="translate(480.664062 0.5625)"/>
      <use xlink:href="#TimesNewRomanPSMT-69" transform="translate(513.964844 0.5625)"/>
      <use xlink:href="#TimesNewRomanPSMT-67" transform="translate(541.748047 0.5625)"/>
      <use xlink:href="#TimesNewRomanPSMT-67" transform="translate(591.748047 0.5625)"/>
      <use xlink:href="#TimesNewRomanPSMT-65" transform="translate(641.748047 0.5625)"/>
      <use xlink:href="#TimesNewRomanPSMT-72" transform="translate(686.132812 0.5625)"/>
     </g>
    </g>
   </g>
  </g>
 </g>
 <defs>
  <clipPath id="ped25408130">
   <rect x="27.916563" y="10.955808" width="233.91" height="62.55808"/>
  </clipPath>
 </defs>
</svg>
