<?xml version="1.0" encoding="utf-8" standalone="no"?>
<!DOCTYPE svg PUBLIC "-//W3C//DTD SVG 1.1//EN"
  "http://www.w3.org/Graphics/SVG/1.1/DTD/svg11.dtd">
<svg xmlns:xlink="http://www.w3.org/1999/xlink" width="141.48pt" height="79.2pt" viewBox="0 0 141.48 79.2" xmlns="http://www.w3.org/2000/svg" version="1.1">
 <metadata>
  <rdf:RDF xmlns:dc="http://purl.org/dc/elements/1.1/" xmlns:cc="http://creativecommons.org/ns#" xmlns:rdf="http://www.w3.org/1999/02/22-rdf-syntax-ns#">
   <cc:Work>
    <dc:type rdf:resource="http://purl.org/dc/dcmitype/StillImage"/>
    <dc:date>2024-10-29T22:45:58.138206</dc:date>
    <dc:format>image/svg+xml</dc:format>
    <dc:creator>
     <cc:Agent>
      <dc:title>Matplotlib v3.8.4, https://matplotlib.org/</dc:title>
     </cc:Agent>
    </dc:creator>
   </cc:Work>
  </rdf:RDF>
 </metadata>
 <defs>
  <style type="text/css">*{stroke-linejoin: round; stroke-linecap: butt}</style>
 </defs>
 <g id="figure_1">
  <g id="patch_1">
   <path d="M 0 79.2 
L 141.48 79.2 
L 141.48 0 
L 0 0 
L 0 79.2 
z
" style="fill: none"/>
  </g>
  <g id="axes_1">
   <g id="patch_2">
    <path d="M 0 26.4 
L 141.48 26.4 
L 141.48 0 
L 0 0 
L 0 26.4 
z
" style="fill: none"/>
   </g>
   <g id="matplotlib.axis_1">
    <g id="xtick_1"/>
    <g id="xtick_2"/>
    <g id="xtick_3"/>
    <g id="xtick_4"/>
   </g>
   <g id="matplotlib.axis_2">
    <g id="ytick_1"/>
    <g id="ytick_2"/>
   </g>
   <g id="line2d_1">
    <path d="M 6.430909 1.691293 
L 6.557121 1.568253 
L 6.604994 1.297255 
L 6.674628 1.545482 
L 6.709445 1.454725 
L 6.757318 1.64467 
L 6.770374 1.664333 
L 6.818248 1.510716 
L 6.957516 1.318139 
L 6.883529 1.579265 
L 6.98798 1.380075 
L 7.001037 1.394633 
L 7.040206 1.26426 
L 7.166417 1.213337 
L 7.214291 1.219917 
L 7.244755 1.280325 
L 7.984616 2.806453 
L 7.99332 2.798133 
L 8.041193 2.669549 
L 8.089067 2.852018 
L 8.097771 2.857339 
L 8.123884 2.746979 
L 8.202222 2.808127 
L 8.267503 2.53406 
L 8.319729 2.667326 
L 8.358898 2.481734 
L 8.511222 2.273956 
L 8.515574 2.275476 
L 8.559095 2.275025 
L 8.58956 2.190974 
L 8.746237 1.972444 
L 8.763645 1.994969 
L 8.79411 2.0414 
L 8.837631 1.903736 
L 8.968195 1.816387 
L 8.907265 2.013408 
L 8.972547 1.820489 
L 9.137927 2.091684 
L 9.16404 1.98413 
L 9.190153 1.901163 
L 9.24673 2.151449 
L 9.285899 2.040736 
L 9.298956 2.020229 
L 9.342477 2.175071 
L 9.486097 2.319808 
L 9.490449 2.318407 
L 9.542674 2.289332 
L 9.581843 2.386485 
L 9.721111 2.483032 
L 9.734168 2.464923 
L 9.773337 2.40649 
L 9.82121 2.53044 
L 9.834266 2.535722 
L 9.869083 2.431728 
L 9.886492 2.399051 
L 9.943069 2.557368 
L 9.977886 2.423229 
L 10.112802 2.27747 
L 10.056224 2.538166 
L 10.117154 2.280434 
L 10.165027 2.487198 
L 10.212901 2.239147 
L 10.339112 2.152167 
L 10.27383 2.390476 
L 10.347816 2.166452 
L 10.391338 2.289865 
L 10.443563 2.115125 
L 10.574127 2.070936 
L 10.500141 2.196222 
L 10.595887 2.103738 
L 10.626352 2.139189 
L 10.68293 2.044523 
L 10.687282 2.044292 
L 11.179071 2.398045 
L 11.313987 2.629862 
L 11.253057 2.310205 
L 11.322691 2.61446 
L 11.36186 2.451497 
L 11.405381 2.703641 
L 11.535945 2.895644 
L 11.470663 2.607074 
L 11.544649 2.887466 
L 11.583818 2.772212 
L 11.62734 2.950808 
L 11.770959 3.11448 
L 11.775312 3.112408 
L 11.823185 3.073357 
L 11.862354 3.17556 
L 12.001622 3.263965 
L 12.010326 3.254535 
L 12.171354 3.161382 
L 12.180059 3.172199 
L 12.22358 3.259333 
L 12.267101 3.113301 
L 12.397665 2.957999 
L 12.332383 3.199372 
L 12.415073 3.000046 
L 12.445538 3.10047 
L 12.489059 2.8689 
L 12.619623 2.629147 
L 12.554341 2.964312 
L 12.632679 2.658089 
L 12.667496 2.794817 
L 12.711017 2.521734 
L 12.841581 2.28456 
L 12.776299 2.597535 
L 12.854637 2.301856 
L 12.889454 2.393695 
L 12.932975 2.206054 
L 13.076595 2.014156 
L 13.0853 2.020798 
L 13.124469 2.060423 
L 13.16799 1.949992 
L 13.302905 1.873448 
L 13.31161 1.879384 
L 13.481342 1.963786 
L 13.494399 1.944537 
L 13.524864 1.906617 
L 13.572737 2.027733 
L 13.7033 2.178667 
L 13.633667 1.974835 
L 13.733765 2.106109 
L 13.751174 2.084858 
L 13.785991 2.243117 
L 13.925259 2.545813 
L 13.859977 2.219016 
L 13.938315 2.515667 
L 13.973132 2.389621 
L 14.012301 2.643462 
L 14.147217 2.937222 
L 14.081935 2.582403 
L 14.155921 2.92088 
L 14.190738 2.792083 
L 14.234259 3.030158 
L 14.373527 3.27228 
L 14.303893 2.997285 
L 14.382231 3.261523 
L 14.417048 3.197836 
L 14.460569 3.350674 
L 14.604189 3.520478 
L 14.612893 3.513834 
L 14.656415 3.467398 
L 14.704288 3.576945 
L 14.830499 3.61182 
L 14.756513 3.526628 
L 14.847908 3.581228 
L 15.000232 3.46893 
L 15.008936 3.475782 
L 15.052457 3.540694 
L 15.091627 3.418022 
L 15.226542 3.23813 
L 15.16126 3.458728 
L 15.243951 3.272273 
L 15.274416 3.35445 
L 15.317937 3.140897 
L 15.4485 2.910782 
L 15.383219 3.231496 
L 15.461557 2.943513 
L 15.496374 3.08885 
L 15.539895 2.815302 
L 15.670458 2.59649 
L 15.605177 2.929484 
L 15.679163 2.613474 
L 15.718332 2.759579 
L 15.761853 2.515656 
L 15.892416 2.338898 
L 15.827135 2.602163 
L 15.905473 2.357106 
L 15.94029 2.440623 
L 15.988163 2.269564 
L 16.127431 2.143925 
L 16.053445 2.302897 
L 16.136135 2.151915 
L 16.175304 2.194126 
L 16.223178 2.089467 
L 16.353741 2.043673 
L 16.284107 2.132945 
L 16.366797 2.060681 
L 16.523474 2.145191 
L 16.527826 2.142327 
L 16.575699 2.08439 
L 16.61922 2.203859 
L 16.749784 2.33473 
L 16.68015 2.144843 
L 16.775897 2.276674 
L 16.793305 2.246548 
L 16.836826 2.427087 
L 16.971742 2.685449 
L 16.90646 2.377711 
L 16.989151 2.639041 
L 17.019615 2.536138 
L 17.063137 2.81513 
L 17.1937 3.071773 
L 17.128418 2.708962 
L 17.206756 3.030561 
L 17.237221 2.899887 
L 17.285095 3.192814 
L 17.415658 3.398888 
L 17.350376 3.088819 
L 17.428715 3.368866 
L 17.459179 3.27869 
L 17.507053 3.48792 
L 17.641968 3.646129 
L 17.572335 3.44307 
L 17.655025 3.633248 
L 17.689842 3.585853 
L 17.733363 3.704465 
L 17.872631 3.803342 
L 17.881335 3.79399 
L 17.924856 3.739581 
L 17.981434 3.840559 
L 18.273026 3.687911 
L 18.294786 3.73868 
L 18.316547 3.763551 
L 18.360068 3.615907 
L 18.490632 3.462193 
L 18.42535 3.687356 
L 18.50804 3.500391 
L 18.538505 3.588747 
L 18.582026 3.376182 
L 18.71259 3.1703 
L 18.647308 3.475127 
L 18.725646 3.202772 
L 18.760463 3.346357 
L 18.808336 3.066284 
L 18.930196 2.902134 
L 18.869266 3.223282 
L 18.947604 2.947136 
L 18.982421 3.097364 
L 19.034647 2.812754 
L 19.043351 2.802409 
L 19.08252 2.961861 
L 19.095576 2.977422 
L 19.130393 2.802576 
L 19.204379 2.876378 
L 19.260957 2.680106 
L 19.274013 2.687092 
L 19.300126 2.770294 
L 19.321886 2.799075 
L 19.374112 2.658634 
L 19.51338 2.66518 
L 19.530788 2.707104 
L 19.604774 2.643559 
L 19.661352 2.727736 
L 19.996465 2.826312 
L 20.122676 2.883855 
L 20.04869 2.744864 
L 20.148789 2.813506 
L 20.17055 2.777027 
L 20.218423 2.945107 
L 20.231479 2.958366 
L 20.279353 2.823341 
L 20.283705 2.825114 
L 20.453437 3.128225 
L 20.488254 2.959544 
L 20.505663 2.920854 
L 20.549184 3.17667 
L 20.56224 3.20485 
L 20.610114 2.976274 
L 20.618818 2.979858 
L 20.636227 3.072641 
L 20.723269 3.03578 
L 20.775494 3.313298 
L 20.784199 3.317435 
L 20.810311 3.188126 
L 20.836424 3.095179 
L 20.893002 3.347368 
L 20.897354 3.342446 
L 20.945227 3.159195 
L 21.062734 3.216927 
L 21.232467 3.404714 
L 21.254227 3.369651 
L 21.284692 3.322561 
L 21.34127 3.444701 
L 22.250863 4.084953 
L 22.28568 3.916214 
L 22.298736 3.887019 
L 22.342257 4.110566 
L 22.355314 4.143351 
L 22.403187 3.915551 
L 22.411891 3.91027 
L 22.438004 4.047826 
L 22.464117 4.171032 
L 22.520694 3.921051 
L 22.564215 4.157208 
L 22.57292 4.176935 
L 22.612089 3.975713 
L 22.681723 4.149749 
L 22.733948 3.911866 
L 22.742652 3.905299 
L 22.773117 4.035412 
L 22.794878 4.096097 
L 22.851455 3.879546 
L 22.894976 4.003902 
L 22.908033 4.01197 
L 22.94285 3.880534 
L 23.08647 3.732101 
L 23.012484 3.906343 
L 23.090822 3.735004 
L 23.134343 3.775967 
L 23.16916 3.672506 
L 23.321484 3.455483 
L 23.338893 3.466159 
L 23.365005 3.457474 
L 23.391118 3.378583 
L 23.552146 3.115065 
L 23.573907 3.121911 
L 23.626132 2.984768 
L 23.769752 2.762191 
L 23.804569 2.783644 
L 23.856795 2.622071 
L 23.987358 2.45336 
L 23.917724 2.656149 
L 24.009119 2.512505 
L 24.035232 2.573304 
L 24.083105 2.36321 
L 24.096161 2.343246 
L 24.144035 2.509247 
L 24.148387 2.509223 
L 24.313767 2.231051 
L 24.344232 2.384673 
L 24.42257 2.245654 
L 24.474796 2.527943 
L 24.4835 2.528028 
L 24.505261 2.415468 
L 24.531373 2.295993 
L 24.587951 2.597794 
L 24.614064 2.509581 
L 24.640176 2.401413 
L 24.696754 2.69107 
L 24.705458 2.692347 
L 24.731571 2.586102 
L 24.748979 2.535028 
L 24.796853 2.768872 
L 24.931768 2.96962 
L 24.857782 2.71516 
L 24.949177 2.945698 
L 24.970937 2.919715 
L 25.010106 3.055804 
L 25.188543 3.396336 
L 25.232064 3.504746 
L 25.475783 4.110704 
L 25.728206 4.647432 
L 25.741262 4.638509 
L 25.763023 4.634566 
L 25.793488 4.733131 
L 25.945812 5.04561 
L 25.963221 5.010911 
L 25.989333 4.952457 
L 26.032854 5.130121 
L 26.163418 5.277259 
L 26.102488 5.037092 
L 26.172122 5.260403 
L 26.215643 5.073423 
L 26.267869 5.318301 
L 26.276573 5.315046 
L 26.293982 5.229286 
L 26.381024 5.308322 
L 26.433249 5.018624 
L 26.441954 5.018245 
L 26.463714 5.127187 
L 26.489827 5.23518 
L 26.542052 4.922063 
L 26.550757 4.912565 
L 26.585574 5.073506 
L 26.59863 5.102417 
L 26.637799 4.866961 
L 26.772715 4.592968 
L 26.707433 4.919622 
L 26.785771 4.615962 
L 26.816236 4.693773 
L 26.855405 4.496397 
L 27.007729 4.118551 
L 27.020786 4.126936 
L 27.042546 4.122091 
L 27.064307 4.045325 
L 27.329786 3.239084 
L 27.795463 2.228562 
L 27.843336 2.241615 
L 27.869449 2.158818 
L 28.008717 1.991658 
L 28.021773 2.012867 
L 28.174097 2.163344 
L 28.11752 1.966902 
L 28.178449 2.160388 
L 28.226323 1.983547 
L 28.269844 2.205097 
L 28.396055 2.378121 
L 28.335126 2.061577 
L 28.409112 2.347189 
L 28.443929 2.183646 
L 28.491802 2.496862 
L 28.618013 2.751445 
L 28.552732 2.369632 
L 28.635422 2.699054 
L 28.661535 2.594038 
L 28.709408 2.901389 
L 28.839971 3.235923 
L 28.770337 2.858936 
L 28.861732 3.19077 
L 28.883493 3.151017 
L 28.91831 3.338122 
L 29.074986 3.801068 
L 29.088042 3.791289 
L 29.105451 3.790871 
L 29.131563 3.880161 
L 29.340465 4.419032 
L 29.745212 5.269045 
L 29.766973 5.251532 
L 29.793086 5.261433 
L 29.82355 5.34368 
L 29.962818 5.476084 
L 29.980227 5.454525 
L 30.015044 5.407112 
L 30.067269 5.529128 
L 30.08903 5.505771 
L 30.115142 5.430085 
L 30.128199 5.418663 
L 30.17172 5.544398 
L 30.184776 5.557343 
L 30.223945 5.421912 
L 30.354509 5.334645 
L 30.293579 5.54792 
L 30.358861 5.341694 
L 30.402382 5.504955 
L 30.450256 5.270189 
L 30.463312 5.245602 
L 30.511185 5.445615 
L 30.537298 5.337395 
L 30.680918 5.033985 
L 30.62434 5.356474 
L 30.68527 5.035116 
L 30.733143 5.230814 
L 30.772312 4.985006 
L 30.902876 4.768033 
L 30.841946 5.087534 
L 30.91158 4.779658 
L 30.950749 4.917365 
L 30.99427 4.681728 
L 31.129186 4.453331 
L 31.059552 4.72344 
L 31.142243 4.472773 
L 31.172707 4.525597 
L 31.211876 4.369387 
L 31.364201 4.094348 
L 31.377257 4.104714 
L 31.40337 4.108694 
L 31.433834 4.013685 
L 31.599215 3.711485 
L 31.616624 3.715666 
L 31.664497 3.601239 
L 31.847286 3.340595 
L 32.008314 3.032665 
L 32.195455 2.856612 
L 32.365188 2.587234 
L 32.395653 2.67411 
L 32.413061 2.701841 
L 32.456583 2.537655 
L 32.473991 2.511538 
L 32.521864 2.685731 
L 32.526216 2.68696 
L 32.691597 2.49589 
L 32.71771 2.62875 
L 32.856978 2.886653 
L 32.796048 2.565039 
L 32.86133 2.88446 
L 32.909203 2.686499 
L 32.948372 2.955872 
L 33.083288 3.23309 
L 33.018006 2.862792 
L 33.091992 3.212482 
L 33.126809 3.094106 
L 33.165978 3.34372 
L 33.305246 3.71676 
L 33.318302 3.7 
L 33.344415 3.660039 
L 33.379232 3.824636 
L 33.557669 4.315119 
L 33.60119 4.438415 
L 33.866669 5.269941 
L 34.541248 6.674933 
L 34.571713 6.612116 
L 34.589121 6.599675 
L 34.62829 6.732162 
L 34.754502 6.801919 
L 34.697924 6.626929 
L 34.763206 6.792855 
L 34.924234 6.526117 
L 34.941643 6.582032 
L 34.972107 6.713605 
L 35.024333 6.415897 
L 35.146192 6.23042 
L 35.08091 6.580554 
L 35.167953 6.319403 
L 35.189713 6.408362 
L 35.237587 6.10113 
L 35.36815 5.807406 
L 35.298516 6.187073 
L 35.385559 5.859044 
L 35.411672 5.930232 
L 35.450841 5.676252 
L 35.590108 5.283057 
L 35.607517 5.30782 
L 35.629278 5.335535 
L 35.664094 5.173711 
L 35.829475 4.711075 
L 35.838179 4.712357 
L 35.8817 4.614562 
L 36.116715 4.020593 
L 36.31256 3.675663 
L 36.5998 3.307275 
L 36.621561 3.332423 
L 36.695547 3.268088 
L 36.760829 3.343565 
L 36.930561 3.285867 
L 36.94797 3.336418 
L 37.100294 3.580732 
L 37.108998 3.565292 
L 37.148167 3.448966 
L 37.187336 3.662705 
L 37.3179 3.910715 
L 37.25697 3.576457 
L 37.330956 3.884813 
L 37.365773 3.735418 
L 37.409294 4.018184 
L 37.539858 4.312415 
L 37.474576 3.923019 
L 37.552914 4.278627 
L 37.587731 4.142655 
L 37.6269 4.425322 
L 37.761816 4.755328 
L 37.692182 4.374779 
L 37.774872 4.722818 
L 37.805337 4.631031 
L 37.844506 4.868097 
L 37.988126 5.22401 
L 38.001183 5.203754 
L 38.022943 5.172209 
L 38.062112 5.332041 
L 38.218788 5.71656 
L 38.231845 5.710668 
L 38.257958 5.726539 
L 38.279718 5.807269 
L 38.479916 6.226399 
L 39.415621 7.743044 
L 39.450438 7.635499 
L 39.467847 7.611846 
L 39.507016 7.785507 
L 39.633227 7.879585 
L 39.57665 7.64286 
L 39.637579 7.875345 
L 39.798608 7.615337 
L 39.820368 7.703708 
L 39.850833 7.856548 
L 39.907411 7.556484 
L 39.911763 7.558361 
L 39.959636 7.787279 
L 40.003157 7.520631 
L 40.129369 7.352407 
L 40.068439 7.67056 
L 40.138073 7.3656 
L 40.177242 7.516638 
L 40.220763 7.278297 
L 40.355679 7.036992 
L 40.286045 7.331155 
L 40.368735 7.058801 
L 40.394848 7.110985 
L 40.434017 6.951306 
L 40.590694 6.593643 
L 40.60375 6.599247 
L 40.629863 6.581302 
L 40.651623 6.498695 
L 40.873581 5.962722 
L 41.147765 5.261049 
L 41.308793 4.985399 
L 41.578625 4.523316 
L 41.700484 4.420086 
L 41.735301 4.50612 
L 41.752709 4.520994 
L 41.796231 4.379463 
L 41.809287 4.372652 
L 41.844104 4.503576 
L 41.974667 4.611289 
L 41.913738 4.376699 
L 41.983372 4.592616 
L 42.022541 4.44008 
L 42.066062 4.677727 
L 42.196626 4.906092 
L 42.131344 4.563897 
L 42.209682 4.86524 
L 42.240147 4.739469 
L 42.283668 5.039484 
L 42.414232 5.404526 
L 42.34895 4.977137 
L 42.43164 5.36285 
L 42.457753 5.274553 
L 42.496922 5.550376 
L 42.640542 6.063453 
L 42.653598 6.036863 
L 42.675359 5.993601 
L 42.710176 6.198545 
L 42.866852 6.825757 
L 42.88426 6.813376 
L 42.901669 6.827768 
L 42.919077 6.909934 
L 43.184557 7.980229 
L 43.567543 9.052191 
L 43.711163 9.359395 
L 43.872191 9.642097 
L 43.893952 9.62514 
L 43.920065 9.631753 
L 43.95053 9.711779 
L 44.089797 9.810066 
L 44.098502 9.800992 
L 44.255178 9.712168 
L 44.263882 9.722694 
L 44.307403 9.820843 
L 44.355277 9.659413 
L 44.368333 9.652109 
L 44.407502 9.773699 
L 44.416206 9.780615 
L 44.446671 9.66047 
L 44.585939 9.42272 
L 44.525009 9.699488 
L 44.594643 9.43478 
L 44.633812 9.581805 
L 44.677334 9.334566 
L 44.807897 9.103948 
L 44.742615 9.446241 
L 44.820953 9.14427 
L 44.85577 9.278637 
L 44.899292 8.983197 
L 45.025503 8.742108 
L 44.960221 9.099249 
L 45.042912 8.792651 
L 45.073376 8.907341 
L 45.116898 8.625629 
L 45.247461 8.369654 
L 45.182179 8.696459 
L 45.260518 8.398132 
L 45.290982 8.485186 
L 45.334504 8.25254 
L 45.473771 7.988125 
L 45.486828 8.005448 
L 45.51294 8.036679 
L 45.55211 7.893242 
L 45.704434 7.598957 
L 45.721842 7.607928 
L 45.747955 7.599101 
L 45.774068 7.518318 
L 45.961209 7.221197 
L 46.022138 7.068454 
L 46.37466 6.600285 
L 46.422533 6.602241 
L 46.452998 6.523759 
L 46.592266 6.389268 
L 46.614027 6.420608 
L 46.640139 6.446723 
L 46.688013 6.329001 
L 46.814224 6.270388 
L 46.74459 6.400765 
L 46.82728 6.299957 
L 46.918675 6.248849 
L 46.975253 6.426204 
L 47.03183 6.272414 
L 47.075351 6.479439 
L 47.088408 6.499017 
L 47.136281 6.321955 
L 47.162394 6.423377 
L 47.306014 6.732428 
L 47.245084 6.405046 
L 47.314718 6.721 
L 47.358239 6.541683 
L 47.397408 6.813127 
L 47.527972 7.097942 
L 47.46269 6.712008 
L 47.541028 7.063978 
L 47.575845 6.927284 
L 47.615014 7.212354 
L 47.74993 7.57719 
L 47.680296 7.178889 
L 47.762986 7.549921 
L 47.793451 7.469762 
L 47.828268 7.687775 
L 47.971888 8.156299 
L 47.989296 8.135082 
L 48.011057 8.112693 
L 48.041522 8.254965 
L 48.228663 8.829539 
L 48.28524 9.067443 
L 48.568128 9.873738 
L 48.720452 10.297632 
L 48.933706 10.735252 
L 49.094735 11.016424 
L 49.116495 10.995553 
L 49.138256 10.989959 
L 49.177425 11.088019 
L 49.307988 11.18148 
L 49.321045 11.166911 
L 49.477721 11.02472 
L 49.490777 11.043618 
L 49.529947 11.130806 
L 49.573468 10.952989 
L 49.699679 10.76371 
L 49.634397 11.035941 
L 49.72144 10.821387 
L 49.747553 10.892633 
L 49.791074 10.637359 
L 49.921637 10.331368 
L 49.856356 10.704775 
L 49.939046 10.384356 
L 49.965158 10.478606 
L 50.00868 10.177024 
L 50.139243 9.80234 
L 50.073961 10.222662 
L 50.156652 9.848826 
L 50.182764 9.944876 
L 50.226286 9.631483 
L 50.361201 9.226951 
L 50.291567 9.646326 
L 50.37861 9.275091 
L 50.40037 9.341912 
L 50.443892 9.073128 
L 50.583159 8.674535 
L 50.600568 8.707772 
L 50.622329 8.743673 
L 50.657145 8.579532 
L 50.80947 8.191948 
L 50.822526 8.203037 
L 50.844287 8.219745 
L 50.879104 8.112015 
L 51.040132 7.805638 
L 51.053188 7.813667 
L 51.079301 7.815438 
L 51.114118 7.723621 
L 51.26209 7.559646 
L 51.275146 7.5692 
L 51.309963 7.580054 
L 51.353485 7.497962 
L 51.484048 7.460621 
L 51.510161 7.506274 
L 51.645077 7.523499 
L 51.571091 7.457298 
L 51.653781 7.515065 
L 51.69295 7.486161 
L 51.745175 7.573099 
L 52.067232 7.775641 
L 52.202148 7.913799 
L 52.132514 7.73249 
L 52.215204 7.886774 
L 52.250021 7.801493 
L 52.293542 7.983569 
L 52.419754 8.116961 
L 52.358824 7.879176 
L 52.43281 8.085985 
L 52.467627 7.944836 
L 52.519853 8.205132 
L 52.528557 8.217852 
L 52.563374 8.056915 
L 52.580782 8.009212 
L 52.628656 8.278832 
L 52.63736 8.294905 
L 52.676529 8.101088 
L 52.689585 8.068491 
L 52.733106 8.330334 
L 52.854966 8.434048 
L 52.798388 8.133053 
L 52.86367 8.421352 
L 52.907191 8.195909 
L 52.959417 8.488384 
L 52.968121 8.494064 
L 52.994234 8.359305 
L 53.015994 8.263457 
L 53.076924 8.547365 
L 53.129149 8.345247 
L 53.177023 8.595308 
L 53.185727 8.609069 
L 53.229248 8.447443 
L 53.237952 8.439353 
L 53.268417 8.573165 
L 53.346755 8.540871 
L 53.407685 8.761578 
L 53.512136 8.848264 
L 53.564361 8.798412 
L 54.621926 11.003993 
L 54.869997 11.55853 
L 54.887405 11.538245 
L 54.909166 11.518385 
L 54.943983 11.652596 
L 55.087603 11.937239 
L 55.100659 11.907794 
L 55.135476 11.811556 
L 55.178997 12.033087 
L 55.300857 12.145469 
L 55.244279 11.889241 
L 55.313913 12.117728 
L 55.357434 11.920727 
L 55.40966 12.182414 
L 55.414012 12.179946 
L 55.579392 11.848795 
L 55.605505 11.977987 
L 55.627266 12.058836 
L 55.679491 11.743053 
L 55.688195 11.731086 
L 55.727364 11.902509 
L 55.736069 11.914547 
L 55.766534 11.739325 
L 55.910153 11.352213 
L 55.918858 11.36704 
L 55.953675 11.464922 
L 55.988492 11.2621 
L 56.136464 10.809565 
L 56.153872 10.828299 
L 56.171281 10.83655 
L 56.197393 10.732388 
L 56.410647 10.053554 
L 56.828451 8.68873 
L 56.906789 8.448893 
L 57.263663 7.782128 
L 57.268015 7.784239 
L 57.307184 7.776693 
L 57.337649 7.704431 
L 57.472564 7.62018 
L 57.485621 7.637237 
L 57.637945 7.756214 
L 57.651001 7.740402 
L 57.685818 7.668965 
L 57.729339 7.823812 
L 57.859903 8.040295 
L 57.794621 7.778617 
L 57.881664 7.992285 
L 57.903424 7.935989 
L 57.946945 8.163017 
L 58.081861 8.505783 
L 58.012227 8.140262 
L 58.099269 8.45976 
L 58.125382 8.386239 
L 58.164551 8.661685 
L 58.299467 9.114404 
L 58.316875 9.074385 
L 58.342988 8.990426 
L 58.382157 9.281838 
L 58.521425 9.788451 
L 58.538834 9.741196 
L 58.560594 9.677529 
L 58.599763 9.942592 
L 58.743383 10.451309 
L 58.756439 10.424592 
L 58.7782 10.374991 
L 58.817369 10.585524 
L 58.965341 11.05593 
L 58.98275 11.037516 
L 59.000158 11.026083 
L 59.030623 11.142026 
L 59.196004 11.606957 
L 59.213412 11.599825 
L 59.248229 11.652367 
L 59.256933 11.688294 
L 59.426666 12.053756 
L 59.448426 12.046814 
L 59.500652 12.175897 
L 59.644272 12.38838 
L 59.674737 12.37561 
L 59.818357 12.561468 
L 59.970681 12.740313 
L 59.988089 12.723012 
L 60.014202 12.712085 
L 60.057723 12.804598 
L 60.188287 12.906391 
L 60.218752 12.864229 
L 60.240512 12.858078 
L 60.279681 12.952498 
L 60.410245 13.040004 
L 60.340611 12.91703 
L 60.427653 13.015122 
L 60.46247 12.957395 
L 60.510344 13.092631 
L 60.5234 13.099317 
L 60.566921 12.985125 
L 60.579977 12.991539 
L 60.601738 13.073465 
L 60.680076 12.995939 
L 60.736654 13.185134 
L 60.767119 13.089633 
L 60.793231 12.998497 
L 60.849809 13.212703 
L 60.862865 13.18188 
L 60.958612 13.223628 
L 61.015189 12.971821 
L 61.176218 13.183081 
L 61.202331 13.055764 
L 61.285021 13.118296 
L 61.341598 12.820811 
L 61.367711 12.916481 
L 61.393824 13.034293 
L 61.450401 12.743138 
L 61.459106 12.745743 
L 61.480866 12.845115 
L 61.502627 12.923311 
L 61.554852 12.650277 
L 61.676712 12.511767 
L 61.61143 12.790167 
L 61.698472 12.571085 
L 61.720233 12.628618 
L 61.768106 12.420901 
L 61.903022 12.207053 
L 61.829036 12.453623 
L 61.924782 12.233289 
L 61.942191 12.244894 
L 61.977008 12.132421 
L 62.155445 11.814453 
L 62.20767 11.690136 
L 62.460093 11.157442 
L 63.243474 9.970786 
L 63.269587 10.017427 
L 63.291348 10.03242 
L 63.334869 9.911643 
L 63.46108 9.862161 
L 63.395799 9.999714 
L 63.469785 9.878243 
L 63.626461 10.048224 
L 63.635165 10.030223 
L 63.674334 9.88231 
L 63.722208 10.105229 
L 63.844067 10.236901 
L 63.783137 9.944235 
L 63.861475 10.187839 
L 63.896292 10.046338 
L 63.944166 10.343273 
L 64.066025 10.517648 
L 64.000743 10.170601 
L 64.083434 10.448629 
L 64.113898 10.321907 
L 64.161772 10.65377 
L 64.283631 10.870655 
L 64.222701 10.505667 
L 64.305392 10.79892 
L 64.331504 10.707221 
L 64.375026 10.997267 
L 64.505589 11.277964 
L 64.440307 10.929281 
L 64.522998 11.236649 
L 64.54911 11.165176 
L 64.592631 11.405672 
L 64.731899 11.708004 
L 64.749308 11.679073 
L 64.766716 11.656776 
L 64.805885 11.808666 
L 64.962562 12.16949 
L 64.975618 12.161952 
L 64.997379 12.165871 
L 65.023491 12.251414 
L 65.219337 12.653413 
L 65.480464 13.210664 
L 65.680661 13.538007 
L 65.959197 14.009874 
L 66.050591 14.135338 
L 66.181155 14.281469 
L 66.224676 14.230848 
L 66.620719 14.589963 
L 66.646832 14.471971 
L 66.72517 14.612131 
L 66.773043 14.388196 
L 66.781747 14.379653 
L 66.812212 14.52987 
L 66.833973 14.61368 
L 66.89055 14.33658 
L 66.921015 14.47894 
L 66.942776 14.570641 
L 66.999353 14.286741 
L 67.003706 14.288792 
L 67.051579 14.512751 
L 67.0951 14.24599 
L 67.221312 14.106745 
L 67.160382 14.421469 
L 67.230016 14.125428 
L 67.269185 14.302385 
L 67.317058 14.015347 
L 67.44327 13.845356 
L 67.377988 14.154865 
L 67.456326 13.880956 
L 67.486791 13.98624 
L 67.534664 13.732666 
L 67.665228 13.508304 
L 67.595594 13.791433 
L 67.682636 13.537836 
L 67.708749 13.577703 
L 67.747918 13.402346 
L 67.89589 13.088253 
L 67.913299 13.09934 
L 67.935059 13.090868 
L 67.95682 13.017884 
L 68.178778 12.516207 
L 68.474722 11.790849 
L 68.540004 11.60561 
L 68.896877 10.837257 
L 68.979568 10.689233 
L 69.166709 10.464578 
L 69.445245 10.093739 
L 69.458301 10.118986 
L 69.49747 10.233292 
L 69.549695 10.047693 
L 69.567104 10.076458 
L 69.58016 10.141136 
L 69.658498 10.042017 
L 69.719428 10.287712 
L 69.771653 10.084361 
L 69.815175 10.336948 
L 69.941386 10.500392 
L 69.876104 10.171081 
L 69.954442 10.454876 
L 69.989259 10.305012 
L 70.032781 10.611188 
L 70.158992 10.869352 
L 70.09371 10.482796 
L 70.176401 10.815885 
L 70.202513 10.706285 
L 70.246034 10.995284 
L 70.38095 11.360793 
L 70.311316 10.966217 
L 70.394007 11.334037 
L 70.420119 11.253695 
L 70.459288 11.480838 
L 70.602908 11.959377 
L 70.620317 11.93736 
L 70.642077 11.912716 
L 70.672542 12.058991 
L 70.864035 12.666822 
L 71.255726 13.957769 
L 71.447219 14.483594 
L 71.712699 15.147872 
L 71.791037 15.352846 
L 72.169671 16.003064 
L 72.221897 16.118168 
L 72.361164 16.318838 
L 72.382925 16.284133 
L 72.409038 16.252297 
L 72.448207 16.390449 
L 72.57877 16.519535 
L 72.517841 16.321814 
L 72.587475 16.509016 
L 72.630996 16.361132 
L 72.678869 16.568994 
L 72.687573 16.58106 
L 72.72239 16.428591 
L 72.739799 16.370755 
L 72.796376 16.600223 
L 72.805081 16.583345 
L 72.961757 16.301094 
L 72.974813 16.334286 
L 73.013982 16.518435 
L 73.066208 16.226375 
L 73.074912 16.221082 
L 73.101025 16.34707 
L 73.122785 16.423927 
L 73.170659 16.123259 
L 73.292518 15.956577 
L 73.231588 16.288473 
L 73.309926 16.00935 
L 73.340391 16.12538 
L 73.383912 15.844789 
L 73.514476 15.576778 
L 73.449194 15.920824 
L 73.527532 15.603279 
L 73.557997 15.685994 
L 73.597166 15.465035 
L 73.740786 15.098852 
L 73.753843 15.112058 
L 73.775603 15.134089 
L 73.81042 14.993811 
L 73.993209 14.524665 
L 74.054139 14.301044 
L 74.432773 13.316771 
L 74.493703 13.155289 
L 74.737422 12.576083 
L 75.407648 11.616445 
L 75.433761 11.677531 
L 75.455521 11.716617 
L 75.507747 11.559735 
L 75.516451 11.555148 
L 75.551268 11.663697 
L 75.568676 11.695763 
L 75.620902 11.52947 
L 75.651367 11.621198 
L 75.729705 11.526427 
L 75.786282 11.75247 
L 75.799339 11.736772 
L 75.816747 11.648831 
L 75.84286 11.556487 
L 75.895085 11.821204 
L 75.90379 11.822767 
L 75.92555 11.724227 
L 75.951663 11.62487 
L 76.003888 11.920571 
L 76.012593 11.925585 
L 76.038705 11.799555 
L 76.060466 11.725371 
L 76.108339 12.035694 
L 76.230199 12.216593 
L 76.169269 11.864484 
L 76.247607 12.159228 
L 76.278072 12.035791 
L 76.321593 12.341858 
L 76.447804 12.617733 
L 76.386875 12.244514 
L 76.465213 12.576951 
L 76.495678 12.474181 
L 76.534847 12.739696 
L 76.674115 13.118569 
L 76.687171 13.088908 
L 76.713284 13.031427 
L 76.752453 13.260531 
L 76.900425 13.699632 
L 76.917833 13.683212 
L 76.935242 13.689325 
L 76.957002 13.780357 
L 77.183313 14.492562 
L 77.470553 15.434744 
L 77.544539 15.671212 
L 77.892708 16.651974 
L 78.671737 17.902121 
L 78.689146 17.86341 
L 78.723963 17.780201 
L 78.776188 17.956098 
L 78.811005 17.849739 
L 78.884991 17.981866 
L 78.941569 17.762567 
L 78.967682 17.849359 
L 78.998146 17.968116 
L 79.054724 17.708695 
L 79.106949 17.92498 
L 79.150471 17.665911 
L 79.27233 17.534542 
L 79.215752 17.842176 
L 79.285386 17.560542 
L 79.324555 17.73553 
L 79.368077 17.43768 
L 79.494288 17.224852 
L 79.433358 17.574147 
L 79.507344 17.258152 
L 79.542161 17.397863 
L 79.585682 17.105659 
L 79.716246 16.81774 
L 79.646612 17.175827 
L 79.733655 16.864775 
L 79.755415 16.926852 
L 79.798936 16.686938 
L 79.938204 16.313176 
L 79.955613 16.341681 
L 79.977373 16.368906 
L 80.01219 16.197105 
L 80.168866 15.735837 
L 80.186275 15.741566 
L 80.225444 15.639311 
L 80.495275 14.761225 
L 81.718221 12.060277 
L 81.726925 12.071468 
L 81.766094 12.143068 
L 81.813968 12.004019 
L 81.827024 11.994103 
L 81.870545 12.118001 
L 81.879249 12.123509 
L 81.914066 12.009088 
L 81.935827 11.967924 
L 81.988052 12.148125 
L 82.022869 12.035012 
L 82.040278 11.989423 
L 82.092503 12.208044 
L 82.101207 12.215685 
L 82.136024 12.079478 
L 82.149081 12.049809 
L 82.192602 12.271318 
L 82.323166 12.470115 
L 82.257884 12.156252 
L 82.336222 12.430042 
L 82.366687 12.303111 
L 82.410208 12.578543 
L 82.540771 12.89301 
L 82.47549 12.499505 
L 82.55818 12.841317 
L 82.584293 12.739213 
L 82.627814 13.044997 
L 82.76273 13.456246 
L 82.693096 13.020336 
L 82.780138 13.408379 
L 82.801899 13.34161 
L 82.841068 13.600231 
L 82.984688 14.146778 
L 83.002096 14.116177 
L 83.019505 14.089838 
L 83.049969 14.245777 
L 83.237111 14.936062 
L 83.284984 15.20369 
L 83.537407 16.230078 
L 84.756 19.680875 
L 85.212973 19.755009 
L 85.226029 19.685533 
L 85.365297 19.465628 
L 85.304367 19.724546 
L 85.374001 19.478201 
L 85.41317 19.622994 
L 85.456691 19.378043 
L 85.587255 19.15946 
L 85.521973 19.48981 
L 85.600311 19.19891 
L 85.630776 19.323192 
L 85.674297 19.046558 
L 85.804861 18.739258 
L 85.739579 19.118581 
L 85.817917 18.771797 
L 85.848382 18.904738 
L 85.891903 18.608466 
L 86.026819 18.259108 
L 85.957185 18.646837 
L 86.039875 18.293097 
L 86.065988 18.375498 
L 86.105157 18.141556 
L 86.248777 17.7086 
L 86.261834 17.730331 
L 86.287946 17.776874 
L 86.322763 17.592644 
L 86.470735 17.123978 
L 86.492496 17.1428 
L 86.509904 17.134274 
L 86.531665 17.041229 
L 86.740567 16.444749 
L 87.280229 14.969796 
L 87.432554 14.605126 
L 87.684977 14.100738 
L 88.137597 13.599539 
L 88.16371 13.65408 
L 88.18547 13.680475 
L 88.237696 13.546646 
L 88.255104 13.560325 
L 88.281217 13.641567 
L 88.298625 13.66183 
L 88.350851 13.525067 
L 88.394372 13.668821 
L 88.520583 13.751657 
L 88.459654 13.546653 
L 88.529288 13.736849 
L 88.572809 13.591725 
L 88.61633 13.811363 
L 88.738189 13.967989 
L 88.67726 13.675316 
L 88.755598 13.923545 
L 88.790415 13.793005 
L 88.833936 14.070962 
L 88.960147 14.304241 
L 88.894866 13.946167 
L 88.977556 14.246821 
L 89.008021 14.133741 
L 89.051542 14.444057 
L 89.177753 14.749347 
L 89.112472 14.355782 
L 89.199514 14.686311 
L 89.225627 14.606822 
L 89.264796 14.888955 
L 89.399712 15.287349 
L 89.41712 15.249035 
L 89.438881 15.188478 
L 89.47805 15.413639 
L 89.62167 15.904652 
L 89.639078 15.877831 
L 89.656487 15.850265 
L 89.691304 16.013431 
L 89.852332 16.574701 
L 89.86974 16.567778 
L 89.904557 16.666274 
L 90.165685 17.580102 
L 90.740164 19.178591 
L 90.896841 19.472853 
L 91.179728 19.998825 
L 91.358165 20.167149 
L 91.506137 20.340637 
L 91.523546 20.317189 
L 91.558363 20.254585 
L 91.610588 20.39242 
L 91.632349 20.363361 
L 91.654109 20.291246 
L 91.671518 20.271075 
L 91.719391 20.410064 
L 91.732447 20.409574 
L 91.762912 20.301331 
L 91.893476 20.216741 
L 91.832546 20.413374 
L 91.897828 20.221713 
L 91.945701 20.391476 
L 91.989223 20.17596 
L 92.111082 20.053693 
L 92.054504 20.336176 
L 92.124138 20.077599 
L 92.163307 20.235711 
L 92.211181 19.958362 
L 92.33304 19.796373 
L 92.27211 20.120891 
L 92.350448 19.851671 
L 92.380913 19.971604 
L 92.428787 19.661013 
L 92.550646 19.430205 
L 92.489716 19.798217 
L 92.572406 19.495449 
L 92.598519 19.583847 
L 92.64204 19.288362 
L 92.772604 18.986169 
L 92.707322 19.350898 
L 92.790012 19.032688 
L 92.816125 19.098224 
L 92.855294 18.854881 
L 92.994562 18.469426 
L 93.011971 18.496355 
L 93.029379 18.520563 
L 93.064196 18.372342 
L 93.229577 17.879059 
L 93.242633 17.882409 
L 93.281802 17.771466 
L 93.534225 16.9871 
L 93.912859 15.963286 
L 94.052127 15.643098 
L 94.369832 15.033161 
L 94.774579 14.598829 
L 94.939959 14.68259 
L 94.957368 14.64323 
L 94.987833 14.579165 
L 95.040058 14.739307 
L 95.053114 14.737689 
L 95.087931 14.63435 
L 95.096636 14.62731 
L 95.127101 14.737571 
L 95.266368 14.960913 
L 95.205439 14.702128 
L 95.275073 14.950555 
L 95.314242 14.818116 
L 95.353411 15.024358 
L 95.488326 15.305946 
L 95.423045 14.971955 
L 95.501383 15.269672 
L 95.531848 15.153358 
L 95.575369 15.431835 
L 95.705932 15.762054 
L 95.640651 15.370478 
L 95.723341 15.712008 
L 95.749454 15.609634 
L 95.792975 15.90847 
L 95.92789 16.291337 
L 95.858257 15.872383 
L 95.940947 16.252746 
L 95.96706 16.155966 
L 96.010581 16.452828 
L 96.145496 16.870433 
L 96.162905 16.836459 
L 96.184666 16.78132 
L 96.223835 17.003919 
L 96.371807 17.48761 
L 96.384863 17.469533 
L 96.406624 17.448998 
L 96.437088 17.593803 
L 96.602469 18.132862 
L 96.619877 18.130129 
L 96.663399 18.286921 
L 96.885357 18.928528 
L 97.150836 19.713792 
L 97.433724 20.382688 
L 97.716612 21.040013 
L 97.786245 21.184675 
L 98.04302 21.605475 
L 98.10395 21.652823 
L 98.117006 21.698679 
L 98.256274 21.868838 
L 98.273683 21.844538 
L 98.304148 21.800565 
L 98.347669 21.93245 
L 98.47388 22.001269 
L 98.412951 21.845954 
L 98.482585 21.987408 
L 98.639261 21.827239 
L 98.643613 21.833768 
L 98.687134 21.992025 
L 98.735007 21.769299 
L 98.856867 21.646492 
L 98.795937 21.927767 
L 98.869923 21.673838 
L 98.90474 21.82803 
L 98.952613 21.542268 
L 99.078825 21.332089 
L 99.013543 21.682556 
L 99.091881 21.364801 
L 99.126698 21.497415 
L 99.170219 21.196663 
L 99.296431 20.889796 
L 99.231149 21.276722 
L 99.318191 20.951747 
L 99.339952 21.029168 
L 99.383473 20.746211 
L 99.518389 20.353833 
L 99.535797 20.38923 
L 99.557558 20.444805 
L 99.596727 20.216841 
L 99.740347 19.718161 
L 99.757755 19.741172 
L 99.775164 19.765973 
L 99.809981 19.603317 
L 99.971009 19.052341 
L 99.988418 19.05637 
L 100.027587 18.925493 
L 100.275658 18.089468 
L 100.615123 17.130674 
L 100.954588 16.371022 
L 101.411561 15.781544 
L 101.415913 15.784429 
L 101.455082 15.797327 
L 101.498603 15.708957 
L 101.629167 15.655666 
L 101.650927 15.693552 
L 101.729266 15.616935 
L 101.790195 15.736893 
L 101.955576 15.64527 
L 101.972984 15.701347 
L 102.120956 15.924585 
L 102.125308 15.920719 
L 102.173182 15.772485 
L 102.212351 15.986191 
L 102.342914 16.178781 
L 102.277633 15.873119 
L 102.351619 16.157247 
L 102.390788 16.005253 
L 102.434309 16.289949 
L 102.56052 16.511979 
L 102.495239 16.163491 
L 102.577929 16.454824 
L 102.608394 16.340772 
L 102.651915 16.653036 
L 102.782478 16.944819 
L 102.712844 16.556376 
L 102.795535 16.904649 
L 102.826 16.802118 
L 102.865169 17.080613 
L 102.987028 17.309822 
L 103.000084 17.292933 
L 103.021845 17.260209 
L 103.05231 17.426396 
L 103.200282 17.946557 
L 103.21769 17.922684 
L 103.235099 17.897852 
L 103.269916 18.060451 
L 103.430944 18.621507 
L 103.448353 18.615638 
L 103.48317 18.727343 
L 103.753001 19.739385 
L 104.288312 21.577734 
L 104.640833 22.62366 
L 104.73658 22.858457 
L 105.093454 23.455797 
L 105.102158 23.4479 
L 105.132623 23.418679 
L 105.171792 23.52323 
L 105.302355 23.617692 
L 105.241426 23.487947 
L 105.31106 23.608802 
L 105.472088 23.449458 
L 105.485144 23.479382 
L 105.519961 23.588055 
L 105.567835 23.384192 
L 105.694046 23.230274 
L 105.628764 23.499728 
L 105.711455 23.286884 
L 105.737567 23.379549 
L 105.785441 23.099341 
L 105.911652 22.841869 
L 105.84637 23.210837 
L 105.933413 22.919958 
L 105.955173 22.997231 
L 105.998695 22.709516 
L 106.129258 22.35007 
L 106.063976 22.762732 
L 106.146667 22.394712 
L 106.172779 22.49373 
L 106.216301 22.181266 
L 106.351216 21.765468 
L 106.281582 22.194038 
L 106.368625 21.81109 
L 106.390385 21.873323 
L 106.429554 21.626141 
L 106.573174 21.1334 
L 106.590583 21.166828 
L 106.607991 21.194498 
L 106.642808 21.01467 
L 106.795132 20.47767 
L 106.812541 20.495471 
L 106.829949 20.501312 
L 106.856062 20.389949 
L 107.051907 19.799884 
L 107.334795 18.920679 
L 107.791768 17.824731 
L 108.788403 16.472304 
L 108.82322 16.551584 
L 108.840628 16.569049 
L 108.88415 16.438554 
L 108.897206 16.426817 
L 108.940727 16.559229 
L 108.953784 16.564335 
L 108.988601 16.437566 
L 109.006009 16.41068 
L 109.053882 16.589735 
L 109.062587 16.592742 
L 109.093051 16.47256 
L 109.114812 16.419351 
L 109.167037 16.64217 
L 109.175742 16.639995 
L 109.197502 16.551943 
L 109.223615 16.473792 
L 109.27584 16.728008 
L 109.284545 16.730071 
L 109.310657 16.617691 
L 109.332418 16.554522 
L 109.380291 16.829199 
L 109.502151 17.006802 
L 109.436869 16.670161 
L 109.519559 16.944765 
L 109.550024 16.830018 
L 109.593545 17.136589 
L 109.719757 17.420639 
L 109.654475 17.030969 
L 109.737165 17.372818 
L 109.76763 17.265248 
L 109.806799 17.549716 
L 109.941715 17.94019 
L 109.872081 17.529211 
L 109.959123 17.894654 
L 109.980884 17.830458 
L 110.020053 18.071308 
L 110.163673 18.573495 
L 110.181081 18.539328 
L 110.19849 18.509953 
L 110.233307 18.695634 
L 110.389983 19.27804 
L 110.407391 19.26308 
L 110.4248 19.275367 
L 110.442208 19.356963 
L 110.703336 20.398346 
L 111.425787 22.679749 
L 112.056845 23.928213 
L 112.078605 23.916973 
L 112.135183 24.019135 
L 112.270098 24.124414 
L 112.291859 24.093092 
L 112.322324 24.057583 
L 112.370197 24.169784 
L 112.374549 24.171702 
L 112.740127 23.92477 
L 112.870691 23.730243 
L 112.809761 23.991507 
L 112.883747 23.750344 
L 112.918564 23.873442 
L 112.962085 23.628388 
L 113.092649 23.362161 
L 113.027367 23.732893 
L 113.105705 23.395329 
L 113.140522 23.540375 
L 113.184044 23.230074 
L 113.310255 22.93848 
L 113.244973 23.329631 
L 113.327663 22.983396 
L 113.358128 23.088681 
L 113.397297 22.807561 
L 113.532213 22.427303 
L 113.462579 22.819645 
L 113.545269 22.457107 
L 113.571382 22.536914 
L 113.610551 22.306832 
L 113.754171 21.854732 
L 113.767228 21.879017 
L 113.788988 21.921483 
L 113.823805 21.748477 
L 113.976129 21.239548 
L 113.993538 21.255396 
L 114.010946 21.259459 
L 114.037059 21.152017 
L 114.237256 20.556461 
L 114.73775 19.077378 
L 115.046751 18.365522 
L 115.316582 17.836835 
L 115.39492 17.710207 
L 115.647343 17.411679 
L 115.690864 17.423531 
L 115.730033 17.336576 
L 115.860597 17.250987 
L 115.882357 17.286339 
L 115.90847 17.323509 
L 115.960696 17.209212 
L 115.9694 17.209419 
L 116.13478 17.356573 
L 116.160893 17.277286 
L 116.182654 17.22534 
L 116.234879 17.422206 
L 116.243583 17.427876 
L 116.2784 17.305816 
L 116.291457 17.28031 
L 116.334978 17.478095 
L 116.461189 17.654387 
L 116.40026 17.368479 
L 116.478598 17.613718 
L 116.509063 17.494309 
L 116.556936 17.77042 
L 116.683147 18.002239 
L 116.617866 17.643127 
L 116.700556 17.944877 
L 116.726669 17.837226 
L 116.774542 18.151775 
L 116.900753 18.448267 
L 116.835472 18.054447 
L 116.922514 18.378765 
L 116.944275 18.296023 
L 116.987796 18.587546 
L 117.122711 18.969959 
L 117.053078 18.563533 
L 117.135768 18.937756 
L 117.161881 18.852879 
L 117.20105 19.09372 
L 117.34467 19.560136 
L 117.357726 19.533693 
L 117.379487 19.48431 
L 117.418656 19.693986 
L 117.566628 20.187604 
L 117.584036 20.168168 
L 117.601445 20.160066 
L 117.627557 20.270066 
L 117.823403 20.860505 
L 118.08453 21.707692 
L 118.358713 22.517221 
L 118.445756 22.778008 
L 119.0507 24.1124 
L 119.33794 24.574856 
L 119.359701 24.55211 
L 119.381461 24.541137 
L 119.42063 24.644007 
L 119.555546 24.762766 
L 119.568603 24.748459 
L 119.607772 24.679536 
L 119.659997 24.806382 
L 119.677406 24.793536 
L 119.703518 24.714341 
L 119.720927 24.694176 
L 119.773152 24.826424 
L 119.816673 24.679944 
L 119.82973 24.657761 
L 119.881955 24.811501 
L 119.886307 24.810072 
L 120.164843 24.362802 
L 120.19966 24.506859 
L 120.212716 24.52601 
L 120.247533 24.312852 
L 120.382449 24.016539 
L 120.317167 24.372635 
L 120.391153 24.035545 
L 120.42597 24.176574 
L 120.469491 23.902608 
L 120.600055 23.579227 
L 120.534773 23.957738 
L 120.617463 23.620881 
L 120.643576 23.715592 
L 120.687097 23.429226 
L 120.822013 23.016845 
L 120.752379 23.441788 
L 120.839421 23.060922 
L 120.865534 23.13273 
L 120.904703 22.86315 
L 121.043971 22.424264 
L 121.061379 22.459363 
L 121.078788 22.492862 
L 121.117957 22.288881 
L 121.270281 21.790873 
L 121.28769 21.80776 
L 121.305098 21.799417 
L 121.326859 21.705872 
L 121.570577 20.89543 
L 121.844761 20.098231 
L 121.970972 19.764724 
L 123.037242 17.642079 
L 123.093819 17.659097 
L 123.128636 17.570053 
L 123.254848 17.509634 
L 123.189566 17.614586 
L 123.272256 17.535318 
L 123.359298 17.49612 
L 123.42458 17.627232 
L 123.476806 17.516658 
L 123.520327 17.675377 
L 123.642186 17.788375 
L 123.581257 17.567506 
L 123.663947 17.732394 
L 123.69006 17.650101 
L 123.737933 17.877906 
L 123.864144 18.073529 
L 123.798863 17.771285 
L 123.881553 18.017172 
L 123.907665 17.922075 
L 123.955539 18.208851 
L 124.08175 18.473114 
L 124.016468 18.106002 
L 124.103511 18.401892 
L 124.125271 18.323824 
L 124.168793 18.60906 
L 124.303708 18.971324 
L 124.234074 18.567526 
L 124.316765 18.932958 
L 124.342877 18.840117 
L 124.386399 19.132271 
L 124.521314 19.545021 
L 124.538723 19.502805 
L 124.560483 19.442712 
L 124.599652 19.684612 
L 124.743272 20.174295 
L 124.760681 20.142987 
L 124.778089 20.111059 
L 124.812906 20.279663 
L 124.969583 20.831846 
L 124.986991 20.814724 
L 125.000047 20.815577 
L 125.021808 20.896994 
L 125.265527 21.728384 
L 125.531006 22.527648 
L 125.626753 22.825201 
L 126.531993 24.736989 
L 126.601627 24.862253 
L 126.745247 24.994182 
L 126.784416 24.971435 
L 127.067304 25.190756 
L 127.097769 25.107758 
L 127.228333 25.039804 
L 127.167403 25.19916 
L 127.232685 25.043529 
L 127.280558 25.183212 
L 127.328431 24.99013 
L 127.341488 24.976267 
L 127.389361 25.125688 
L 127.419826 25.013319 
L 127.563446 24.784594 
L 127.502516 25.045171 
L 127.567798 24.790132 
L 127.611319 24.948058 
L 127.650488 24.71601 
L 127.781052 24.474532 
L 127.720122 24.813498 
L 127.789756 24.49253 
L 127.828925 24.650592 
L 127.868094 24.379788 
L 127.998658 24.063414 
L 127.933376 24.444209 
L 128.011714 24.093578 
L 128.046531 24.22554 
L 128.0857 23.954645 
L 128.220616 23.587503 
L 128.150982 23.983254 
L 128.238024 23.636109 
L 128.264137 23.712099 
L 128.303306 23.45166 
L 128.442574 23.044288 
L 128.459982 23.078039 
L 128.477391 23.109093 
L 128.512208 22.938206 
L 128.664532 22.431289 
L 128.68194 22.451826 
L 128.699349 22.458573 
L 128.725462 22.347281 
L 128.916955 21.767695 
L 129.047518 21.355107 
L 129.452265 20.075357 
L 129.613294 19.671077 
L 129.922294 18.91912 
L 130.540295 17.972992 
L 130.749197 17.867953 
L 130.875408 17.842209 
L 130.810127 17.956376 
L 130.884113 17.858567 
L 131.040789 18.029626 
L 131.049493 18.014671 
L 131.088662 17.898161 
L 131.136536 18.09319 
L 131.258395 18.224602 
L 131.197465 17.968284 
L 131.275803 18.182915 
L 131.31062 18.065727 
L 131.354142 18.313732 
L 131.480353 18.505887 
L 131.415071 18.188233 
L 131.493409 18.468305 
L 131.523874 18.340588 
L 131.571748 18.631363 
L 131.697959 18.890298 
L 131.632677 18.519399 
L 131.715368 18.840231 
L 131.745832 18.732 
L 131.789354 19.045335 
L 131.919917 19.356363 
L 131.850283 18.957574 
L 131.937326 19.296534 
L 131.963438 19.218028 
L 132.002607 19.495423 
L 132.137523 19.897665 
L 132.154932 19.857206 
L 132.176692 19.795433 
L 132.215861 20.024394 
L 132.359481 20.509285 
L 132.37689 20.486641 
L 132.394298 20.463455 
L 132.429115 20.625887 
L 132.590144 21.179206 
L 132.607552 21.17083 
L 132.642369 21.272048 
L 132.903496 22.197718 
L 133.721695 24.5455 
L 133.769568 24.656269 
L 133.921892 24.938195 
L 133.9393 24.901563 
L 133.969765 24.842044 
L 134.013287 25.026104 
L 134.139498 25.134342 
L 134.078568 24.890059 
L 134.148202 25.114003 
L 134.304879 24.878877 
L 134.248301 25.14926 
L 134.309231 24.885338 
L 134.357104 25.105919 
L 134.409329 24.83867 
L 134.418034 24.837496 
L 134.439794 24.936475 
L 134.465907 25.04576 
L 134.522484 24.772352 
L 134.531189 24.772972 
L 134.552949 24.862045 
L 134.579062 24.937382 
L 134.631287 24.695518 
L 134.639992 24.694105 
L 134.670457 24.803701 
L 134.687865 24.832445 
L 134.731386 24.637437 
L 134.857598 24.485155 
L 134.792316 24.687887 
L 134.875006 24.511438 
L 134.905471 24.572659 
L 134.948992 24.406473 
L 134.970753 24.357247 
L 135.02733 24.549011 
L 135.049091 24.583169 
L 135.049091 24.583169 
" clip-path="url(#pe7862f0897)" style="fill: none; stroke: #5f4690; stroke-width: 0.5; stroke-linecap: square"/>
   </g>
  </g>
  <g id="axes_2">
   <g id="patch_3">
    <path d="M 0 52.8 
L 141.48 52.8 
L 141.48 26.4 
L 0 26.4 
L 0 52.8 
z
" style="fill: none"/>
   </g>
   <g id="matplotlib.axis_3">
    <g id="xtick_5"/>
    <g id="xtick_6"/>
    <g id="xtick_7"/>
    <g id="xtick_8"/>
   </g>
   <g id="matplotlib.axis_4">
    <g id="ytick_3"/>
    <g id="ytick_4"/>
    <g id="ytick_5"/>
   </g>
   <g id="line2d_2">
    <path d="M 6.430909 39.820596 
L 6.953163 39.930097 
L 7.218643 40.047778 
L 7.414488 39.830308 
L 7.8497 39.348781 
L 8.023785 39.492318 
L 8.389363 40.213281 
L 8.680955 40.527428 
L 8.850687 40.4242 
L 9.10311 39.92731 
L 9.638421 38.885202 
L 9.816858 38.92347 
L 10.02576 39.26684 
L 10.896183 40.989711 
L 11.070268 40.809198 
L 11.348804 40.123474 
L 12.01903 38.433207 
L 12.210524 38.425606 
L 12.402017 38.700891 
L 12.728426 39.655202 
L 13.337722 41.369937 
L 13.550976 41.462454 
L 13.729413 41.267537 
L 13.999245 40.565045 
L 14.908837 37.932446 
L 15.087274 37.955526 
L 15.28312 38.263996 
L 15.605177 39.280342 
L 16.388558 41.834683 
L 16.606164 41.941428 
L 16.780249 41.75799 
L 17.037024 41.093283 
L 17.633264 38.698443 
L 18.046716 37.559738 
L 18.268674 37.438113 
L 18.442758 37.6144 
L 18.695181 38.260373 
L 19.182619 40.282969 
L 19.717929 42.149667 
L 19.974704 42.419123 
L 20.144437 42.313324 
L 20.366395 41.844594 
L 20.731973 40.449344 
L 21.56758 37.196111 
L 21.820003 36.954005 
L 21.989736 37.072584 
L 22.216046 37.570567 
L 22.581624 39.008312 
L 23.473808 42.63391 
L 23.726231 42.890859 
L 23.891612 42.787086 
L 24.11357 42.318242 
L 24.466091 40.948665 
L 25.493192 36.670657 
L 25.732558 36.471742 
L 25.902291 36.604812 
L 26.132953 37.137251 
L 26.498531 38.639136 
L 27.521279 43.101941 
L 27.773702 43.363213 
L 27.939083 43.261697 
L 28.156689 42.806287 
L 28.496154 41.483618 
L 29.74086 36.100767 
L 29.958466 35.99663 
L 30.132551 36.183164 
L 30.380622 36.842656 
L 30.776664 38.63737 
L 31.790708 43.44256 
L 32.069244 43.831593 
L 32.238977 43.769721 
L 32.443526 43.394951 
L 32.752527 42.277334 
L 33.327006 39.162702 
L 33.962416 36.155173 
L 34.275768 35.538224 
L 34.46291 35.533208 
L 34.650051 35.805041 
L 34.924234 36.668268 
L 35.372502 38.946684 
L 36.299504 43.690025 
L 36.612856 44.286232 
L 36.795645 44.280109 
L 36.982787 43.999384 
L 37.261322 43.104719 
L 37.709591 40.779412 
L 38.680113 35.664248 
L 38.993466 35.044995 
L 39.180607 35.040614 
L 39.367748 35.314498 
L 39.641932 36.185503 
L 40.077143 38.439784 
L 41.147765 44.195789 
L 41.452413 44.76773 
L 41.635202 44.760971 
L 41.822343 44.478843 
L 42.100879 43.576042 
L 42.536091 41.279027 
L 43.654586 35.123195 
L 43.963586 34.543276 
L 44.146375 34.553952 
L 44.337868 34.85009 
L 44.616404 35.768699 
L 45.051616 38.097669 
L 46.217984 44.657031 
L 46.526984 45.243556 
L 46.709773 45.236802 
L 46.896914 44.953835 
L 47.171098 44.064395 
L 47.597606 41.793781 
L 48.864072 34.57588 
L 49.164369 34.049279 
L 49.342805 34.073716 
L 49.534299 34.381658 
L 49.817186 35.33812 
L 50.248046 37.697818 
L 51.527569 45.154615 
L 51.832218 45.718195 
L 52.015007 45.704637 
L 52.2065 45.404404 
L 52.485036 44.475775 
L 52.911543 42.148398 
L 54.282461 34.070541 
L 54.578405 33.564503 
L 54.756842 33.593717 
L 54.952687 33.917634 
L 55.235575 34.892383 
L 55.666435 37.296254 
L 57.054761 45.650136 
L 57.355057 46.191184 
L 57.533494 46.174938 
L 57.724987 45.87524 
L 58.003523 44.944588 
L 58.421326 42.648697 
L 59.94892 33.46317 
L 60.227456 33.058724 
L 60.397188 33.114662 
L 60.597386 33.475958 
L 60.888978 34.537781 
L 61.332894 37.125988 
L 62.756037 46.05768 
L 63.065038 46.663681 
L 63.252179 46.66302 
L 63.43932 46.381861 
L 63.709151 45.504309 
L 64.113898 43.310059 
L 65.071365 36.387608 
L 65.619732 33.456634 
L 65.954845 32.643209 
L 66.159394 32.579327 
L 66.337831 32.796826 
L 66.590254 33.526939 
L 66.960184 35.377686 
L 67.599946 39.94461 
L 68.444257 45.572173 
L 68.8403 46.921721 
L 69.088371 47.160611 
L 69.253751 47.046935 
L 69.471357 46.567149 
L 69.789062 45.246448 
L 70.276499 42.118003 
L 71.6126 33.098296 
L 71.960769 32.179694 
L 72.174023 32.084329 
L 72.348108 32.276135 
L 72.591827 32.943925 
L 72.948701 34.671003 
L 73.52318 38.745052 
L 74.563337 46.03686 
L 74.95938 47.401801 
L 75.20745 47.646066 
L 75.372831 47.535069 
L 75.590437 47.056822 
L 75.908142 45.731628 
L 76.382523 42.662494 
L 77.853539 32.50857 
L 78.193004 31.668312 
L 78.397554 31.599191 
L 78.571639 31.803851 
L 78.819709 32.505842 
L 79.180935 34.296448 
L 79.751063 38.425989 
L 80.852149 46.396333 
L 81.252544 47.832117 
L 81.504967 48.110446 
L 81.670348 48.016689 
L 81.883601 47.573941 
L 82.192602 46.330189 
L 82.649574 43.426798 
L 84.333845 31.745513 
L 84.642845 31.125689 
L 84.829986 31.11929 
L 85.012775 31.384252 
L 85.278255 32.23156 
L 85.661241 34.302408 
L 86.292298 39.159559 
L 87.284582 46.562895 
L 87.706737 48.227016 
L 87.976569 48.585537 
L 88.146301 48.512777 
L 88.350851 48.118707 
L 88.646795 46.987067 
L 89.077655 44.340485 
L 89.935022 37.308197 
L 90.640066 32.414012 
L 91.049165 30.902546 
L 91.30594 30.605282 
L 91.475672 30.69799 
L 91.684574 31.127874 
L 91.989223 32.343688 
L 92.433139 35.159382 
L 93.403661 43.234646 
L 94.043423 47.477861 
L 94.435114 48.823372 
L 94.683184 49.063087 
L 94.848565 48.948828 
L 95.066171 48.465404 
L 95.379523 47.146636 
L 95.840848 44.103322 
L 97.686147 30.724948 
L 97.990795 30.139588 
L 98.173584 30.143091 
L 98.360725 30.424415 
L 98.630557 31.309997 
L 99.017895 33.45854 
L 99.627192 38.292785 
L 100.771799 47.344859 
L 101.202659 49.123179 
L 101.481195 49.526525 
L 101.650927 49.468252 
L 101.851125 49.102538 
L 102.142717 48.01947 
L 102.56052 45.483548 
L 103.265564 39.568304 
L 104.209974 32.081288 
L 104.65389 30.118601 
L 104.945482 29.630925 
L 105.119566 29.663633 
L 105.31106 29.980535 
L 105.589595 30.949247 
L 105.985638 33.240907 
L 106.616695 38.412058 
L 107.748247 47.607557 
L 108.187811 49.5249 
L 108.47505 49.993432 
L 108.649135 49.95638 
L 108.844981 49.623558 
L 109.123516 48.638595 
L 109.523911 46.293084 
L 110.154968 41.066084 
L 111.30828 31.580369 
L 111.752196 29.621623 
L 112.039436 29.142001 
L 112.217873 29.176064 
L 112.409366 29.49677 
L 112.687902 30.47151 
L 113.083945 32.777591 
L 113.701946 37.893696 
L 114.920539 48.041438 
L 115.360103 49.982371 
L 115.647343 50.464874 
L 115.82578 50.43202 
L 116.017273 50.111808 
L 116.295809 49.137027 
L 116.691852 46.825756 
L 117.305501 41.719399 
L 118.567615 31.088194 
L 119.011531 29.127072 
L 119.298771 28.649304 
L 119.472856 28.680751 
L 119.664349 28.996374 
L 119.938533 29.945783 
L 120.330223 32.210051 
L 120.930816 37.190185 
L 122.275621 48.600551 
L 122.710833 50.483473 
L 122.99372 50.937916 
L 123.167805 50.899299 
L 123.363651 50.564415 
L 123.642186 49.573885 
L 124.038229 47.237611 
L 124.647526 42.105272 
L 125.987979 30.588902 
L 126.427543 28.640613 
L 126.719135 28.154337 
L 126.893219 28.188312 
L 127.084713 28.507238 
L 127.363248 29.481615 
L 127.754939 31.77062 
L 128.351179 36.772198 
L 129.76997 49.052732 
L 130.205182 50.946475 
L 130.492422 51.408595 
L 130.666507 51.367332 
L 130.862352 51.029552 
L 131.14524 50.014307 
L 131.545635 47.624214 
L 132.150579 42.462794 
L 133.556314 30.145396 
L 133.969765 28.366634 
L 134.300526 27.788819 
L 134.63564 27.627777 
L 135.049091 27.6 
L 135.049091 27.6 
" clip-path="url(#p7920978a57)" style="fill: none; stroke: #1d6996; stroke-width: 0.5; stroke-linecap: square"/>
   </g>
   <g id="line2d_3">
    <path d="M 6.430909 39.820606 
L 6.835656 39.710357 
L 7.027149 39.735616 
L 7.619038 40.090245 
L 7.901925 39.606906 
L 8.228334 39.224511 
L 8.398067 39.320305 
L 8.65049 39.797896 
L 9.129223 40.640682 
L 9.303308 40.590141 
L 9.516562 40.227336 
L 10.27383 38.744182 
L 10.443563 38.873976 
L 10.695986 39.425338 
L 11.414086 41.110327 
L 11.58817 41.072142 
L 11.79272 40.73292 
L 12.180059 39.538685 
L 12.645735 38.354961 
L 12.854637 38.276113 
L 13.033074 38.479161 
L 13.31161 39.215234 
L 14.13416 41.564875 
L 14.321301 41.56983 
L 14.508443 41.299953 
L 14.813091 40.386926 
L 15.613881 37.866103 
L 15.822783 37.794782 
L 16.001219 38.006339 
L 16.271051 38.745816 
L 17.332968 42.067062 
L 17.507053 42.017576 
L 17.711602 41.658749 
L 18.042363 40.530888 
L 18.904083 37.442998 
L 19.130393 37.304057 
L 19.300126 37.465702 
L 19.543845 38.069108 
L 19.979056 39.868551 
L 20.605762 42.23519 
L 20.871241 42.549132 
L 21.040974 42.459345 
L 21.25858 42.019591 
L 21.606749 40.715021 
L 22.542455 37.014145 
L 22.781821 36.820278 
L 22.951554 36.957892 
L 23.186568 37.508299 
L 23.569555 39.084478 
L 24.435627 42.715855 
L 24.701106 43.023467 
L 24.866486 42.934145 
L 25.07974 42.50536 
L 25.414853 41.239553 
L 26.563813 36.461847 
L 26.781419 36.344019 
L 26.955504 36.520181 
L 27.199222 37.150382 
L 27.595265 38.899065 
L 28.526619 43.120984 
L 28.800802 43.494411 
L 28.970535 43.428827 
L 29.175085 43.048888 
L 29.488437 41.911006 
L 30.158664 38.368005 
L 30.672214 36.279144 
L 30.955101 35.861025 
L 31.124834 35.913061 
L 31.325032 36.265937 
L 31.625328 37.323375 
L 32.178047 40.268294 
L 32.830865 43.345438 
L 33.144217 43.945301 
L 33.327006 43.941877 
L 33.514148 43.66344 
L 33.792683 42.774132 
L 34.249656 40.43621 
L 35.124432 36.005504 
L 35.437784 35.397129 
L 35.620573 35.396881 
L 35.807714 35.671601 
L 36.081898 36.541977 
L 36.525814 38.821145 
L 37.487632 43.832145 
L 37.796633 44.427334 
L 37.979422 44.427292 
L 38.166563 44.150958 
L 38.440747 43.275801 
L 38.880311 40.995516 
L 39.911763 35.487519 
L 40.220763 34.900237 
L 40.403552 34.906778 
L 40.590694 35.189318 
L 40.864877 36.075377 
L 41.300089 38.361485 
L 42.392471 44.332837 
L 42.701471 44.916547 
L 42.88426 44.907229 
L 43.071402 44.620512 
L 43.349937 43.708548 
L 43.785149 41.38834 
L 44.929756 34.992018 
L 45.238757 34.407403 
L 45.421546 34.416985 
L 45.608687 34.703417 
L 45.882871 35.598887 
L 46.309378 37.874329 
L 47.541028 44.860414 
L 47.841324 45.398634 
L 48.019761 45.380042 
L 48.211254 45.076479 
L 48.48979 44.143622 
L 48.92065 41.798865 
L 50.182764 34.484139 
L 50.487413 33.922237 
L 50.670202 33.93798 
L 50.861695 34.240591 
L 51.140231 35.173745 
L 51.566738 37.504025 
L 52.902839 45.347605 
L 53.198783 45.868708 
L 53.37722 45.847739 
L 53.568713 45.541801 
L 53.847249 44.603712 
L 54.273757 42.257292 
L 55.675139 33.92254 
L 55.966731 33.431002 
L 56.145168 33.463573 
L 56.341013 33.791563 
L 56.623901 34.774687 
L 57.054761 37.199791 
L 58.473552 45.823478 
L 58.769496 46.348148 
L 58.947933 46.328431 
L 59.139426 46.023226 
L 59.417962 45.08224 
L 59.835765 42.764982 
L 61.38512 33.332977 
L 61.663655 32.925952 
L 61.833388 32.982087 
L 62.033585 33.344254 
L 62.325177 34.41038 
L 62.764741 36.985441 
L 64.227053 46.235639 
L 64.531702 46.817032 
L 64.714491 46.812183 
L 64.901632 46.52922 
L 65.171463 45.648255 
L 65.571858 43.472442 
L 66.424874 37.213295 
L 67.038523 33.605652 
L 67.399748 32.576379 
L 67.621707 32.446577 
L 67.791439 32.613505 
L 68.026454 33.218863 
L 68.370271 34.8075 
L 68.92299 38.595046 
L 69.980555 45.836996 
L 70.367894 47.106662 
L 70.60726 47.316765 
L 70.772641 47.193953 
L 70.994599 46.687678 
L 71.316656 45.314543 
L 71.812797 42.068755 
L 73.127137 33.057214 
L 73.484011 32.067884 
L 73.701617 31.953604 
L 73.87135 32.128452 
L 74.110716 32.761519 
L 74.458886 34.409207 
L 75.007253 38.256712 
L 76.138804 46.268814 
L 76.526143 47.569868 
L 76.769861 47.79771 
L 76.935242 47.680856 
L 77.152848 47.194819 
L 77.470553 45.858416 
L 77.949286 42.737723 
L 79.433358 32.404718 
L 79.772824 31.55419 
L 79.977373 31.4795 
L 80.151458 31.679952 
L 80.399529 32.376826 
L 80.760755 34.165829 
L 81.32653 38.27821 
L 82.462433 46.576613 
L 82.862828 48.003489 
L 83.115251 48.27295 
L 83.280632 48.172467 
L 83.493886 47.719868 
L 83.802886 46.46026 
L 84.259859 43.530315 
L 85.961537 31.626649 
L 86.270538 31.007139 
L 86.457679 31.002117 
L 86.64482 31.278308 
L 86.910299 32.137802 
L 87.297638 34.255959 
L 87.933047 39.193983 
L 88.929683 46.687452 
L 89.351838 48.368754 
L 89.62167 48.738778 
L 89.791402 48.673384 
L 89.995952 48.287413 
L 90.291896 47.165813 
L 90.718404 44.556946 
L 91.527898 37.887415 
L 92.280814 32.468787 
L 92.698618 30.837253 
L 92.964097 30.488979 
L 93.13383 30.562483 
L 93.338379 30.957527 
L 93.634324 32.093576 
L 94.065183 34.760038 
L 94.870325 41.481897 
L 95.640651 47.142191 
L 96.062806 48.841144 
L 96.33699 49.220728 
L 96.506722 49.153922 
L 96.711272 48.765481 
L 97.007216 47.637686 
L 97.433724 45.006751 
L 98.195345 38.616505 
L 99.030952 32.260944 
L 99.466163 30.431139 
L 99.744699 30.008299 
L 99.918784 30.059541 
L 100.118981 30.418723 
L 100.406221 31.472822 
L 100.819673 33.956531 
L 101.516012 39.756308 
L 102.469126 47.281171 
L 102.913042 49.219081 
L 103.200282 49.686159 
L 103.374367 49.647972 
L 103.570212 49.313469 
L 103.8531 48.306042 
L 104.257847 45.920458 
L 104.915017 40.478288 
L 105.972582 31.946057 
L 106.416498 29.995274 
L 106.703738 29.521832 
L 106.877823 29.556667 
L 107.073668 29.886741 
L 107.352204 30.869316 
L 107.752599 33.212153 
L 108.388008 38.46748 
L 109.519559 47.729592 
L 109.963475 49.682912 
L 110.250715 50.157826 
L 110.4248 50.124442 
L 110.616293 49.805993 
L 110.894829 48.83406 
L 111.290872 46.531734 
L 111.913225 41.38709 
L 113.11441 31.435589 
L 113.553974 29.506646 
L 113.841214 29.033371 
L 114.015298 29.068299 
L 114.206792 29.388094 
L 114.485327 30.363176 
L 114.88137 32.67466 
L 115.499371 37.813907 
L 116.739725 48.211977 
L 117.179289 50.152491 
L 117.466529 50.633155 
L 117.644966 50.59922 
L 117.840811 50.266686 
L 118.119347 49.279788 
L 118.519742 46.921072 
L 119.137743 41.737209 
L 120.399857 31.033155 
L 120.843773 29.046404 
L 121.135365 28.549785 
L 121.313802 28.581805 
L 121.505296 28.900703 
L 121.783831 29.875361 
L 122.179874 32.192529 
L 122.784819 37.259253 
L 124.125271 48.720671 
L 124.564836 50.645573 
L 124.852075 51.111962 
L 125.02616 51.072817 
L 125.222006 50.736787 
L 125.500541 49.744028 
L 125.896584 47.401835 
L 126.501529 42.292884 
L 127.868094 30.485293 
L 128.307658 28.540384 
L 128.594898 28.060439 
L 128.768983 28.091455 
L 128.960476 28.406818 
L 129.23466 29.357806 
L 129.62635 31.634223 
L 130.213886 36.556189 
L 131.684903 49.328829 
L 132.115762 51.159592 
L 132.39865 51.590569 
L 132.568383 51.541154 
L 132.764228 51.195472 
L 133.047116 50.168369 
L 133.447511 47.760923 
L 134.600823 40.22411 
L 134.905471 39.614427 
L 135.049091 39.556676 
L 135.049091 39.556676 
" clip-path="url(#p7920978a57)" style="fill: none; stroke: #38a6a5; stroke-width: 0.5; stroke-linecap: square"/>
   </g>
   <g id="line2d_4">
    <path d="M 6.430909 39.820569 
L 97.133428 39.591847 
L 112.257042 39.551455 
L 135.049091 39.494041 
L 135.049091 39.494041 
" clip-path="url(#p7920978a57)" style="fill: none; stroke: #0f8554; stroke-width: 0.5; stroke-linecap: square"/>
   </g>
  </g>
  <g id="axes_3">
   <g id="patch_4">
    <path d="M 0 79.2 
L 141.48 79.2 
L 141.48 52.8 
L 0 52.8 
L 0 79.2 
z
" style="fill: none"/>
   </g>
   <g id="matplotlib.axis_5">
    <g id="xtick_9"/>
    <g id="xtick_10"/>
    <g id="xtick_11"/>
    <g id="xtick_12"/>
   </g>
   <g id="matplotlib.axis_6">
    <g id="ytick_6"/>
    <g id="ytick_7"/>
   </g>
   <g id="line2d_5">
    <path d="M 6.430909 70.36212 
L 11.714382 70.491581 
L 18.081532 70.650635 
L 22.829695 70.752008 
L 31.921272 70.979695 
L 35.398615 71.060111 
L 76.752453 72.100061 
L 84.30338 72.292643 
L 88.537992 72.3688 
L 91.24501 72.450143 
L 98.556571 72.617135 
L 101.842421 72.690878 
L 104.423227 72.789104 
L 109.119164 72.88244 
L 111.96545 72.956555 
L 116.56564 73.071265 
L 118.937545 73.138673 
L 121.209352 73.139599 
L 124.625765 73.28592 
L 134.452851 73.513158 
L 135.049091 73.524811 
L 135.049091 73.524811 
" clip-path="url(#p9e4181ba59)" style="fill: none; stroke: #73af48; stroke-width: 0.5; stroke-linecap: square"/>
   </g>
   <g id="line2d_6">
    <path d="M 6.430909 70.361313 
L 7.671263 70.21273 
L 19.047703 68.769136 
L 20.527424 68.542901 
L 22.873216 68.283299 
L 35.868644 66.613348 
L 42.43164 65.764527 
L 44.372685 65.504031 
L 46.548745 65.283752 
L 49.029453 64.8961 
L 51.536274 64.654697 
L 54.491363 64.213541 
L 56.43676 64.055573 
L 65.571858 62.81497 
L 67.75227 62.58352 
L 71.808445 62.002822 
L 75.32931 61.600255 
L 77.949286 61.198568 
L 80.033951 61.056833 
L 84.795169 60.376936 
L 87.354215 60.084279 
L 90.126515 59.644882 
L 94.65272 59.144676 
L 97.747076 58.693023 
L 100.680405 58.400114 
L 103.909677 57.861101 
L 108.435881 57.387977 
L 111.290872 56.902585 
L 113.941312 56.770085 
L 115.260004 56.532556 
L 118.502333 55.993103 
L 120.739323 55.896333 
L 122.475818 55.628448 
L 125.426555 55.067645 
L 126.99767 55.02695 
L 128.573137 54.933437 
L 130.231295 54.585926 
L 132.668482 54.149864 
L 135.049091 54 
L 135.049091 54 
" clip-path="url(#p9e4181ba59)" style="fill: none; stroke: #edad08; stroke-width: 0.5; stroke-linecap: square"/>
   </g>
   <g id="line2d_7">
    <path d="M 6.430909 70.361696 
L 92.885759 70.573862 
L 135.049091 70.700823 
L 135.049091 70.700823 
" clip-path="url(#p9e4181ba59)" style="fill: none; stroke: #e17c05; stroke-width: 0.5; stroke-linecap: square"/>
   </g>
   <g id="line2d_8">
    <path d="M 6.430909 70.361327 
L 9.172744 70.524848 
L 17.581039 71.023305 
L 24.570542 71.459611 
L 38.379817 72.240201 
L 40.66468 72.419394 
L 45.138658 72.685148 
L 57.198381 73.372813 
L 60.453766 73.562714 
L 62.551488 73.707685 
L 78.55423 74.662728 
L 82.001109 74.897839 
L 84.46876 74.99188 
L 92.306927 75.461595 
L 94.722353 75.625274 
L 124.534371 77.424617 
L 127.036839 77.533772 
L 128.499151 77.58689 
L 130.401027 77.747999 
L 134.509428 77.984206 
L 135.049091 77.999454 
L 135.049091 77.999454 
" clip-path="url(#p9e4181ba59)" style="fill: none; stroke: #cc503e; stroke-width: 0.5; stroke-linecap: square"/>
   </g>
   <g id="line2d_9">
    <path d="M 6.430909 70.361695 
L 22.59468 70.528215 
L 31.825525 70.625275 
L 121.661972 71.558623 
L 133.125454 71.659923 
L 135.049091 71.662093 
L 135.049091 71.662093 
" clip-path="url(#p9e4181ba59)" style="fill: none; stroke: #94346e; stroke-width: 0.5; stroke-linecap: square"/>
   </g>
  </g>
 </g>
 <defs>
  <clipPath id="pe7862f0897">
   <rect x="0" y="0" width="141.48" height="26.4"/>
  </clipPath>
  <clipPath id="p7920978a57">
   <rect x="0" y="26.4" width="141.48" height="26.4"/>
  </clipPath>
  <clipPath id="p9e4181ba59">
   <rect x="0" y="52.8" width="141.48" height="26.4"/>
  </clipPath>
 </defs>
</svg>
