<?xml version="1.0" encoding="utf-8" standalone="no"?>
<!DOCTYPE svg PUBLIC "-//W3C//DTD SVG 1.1//EN"
  "http://www.w3.org/Graphics/SVG/1.1/DTD/svg11.dtd">
<svg xmlns:xlink="http://www.w3.org/1999/xlink" width="99.212598pt" height="51.023622pt" viewBox="0 0 99.212598 51.023622" xmlns="http://www.w3.org/2000/svg" version="1.1">
 <metadata>
  <rdf:RDF xmlns:dc="http://purl.org/dc/elements/1.1/" xmlns:cc="http://creativecommons.org/ns#" xmlns:rdf="http://www.w3.org/1999/02/22-rdf-syntax-ns#">
   <cc:Work>
    <dc:type rdf:resource="http://purl.org/dc/dcmitype/StillImage"/>
    <dc:date>2024-10-30T10:51:17.516107</dc:date>
    <dc:format>image/svg+xml</dc:format>
    <dc:creator>
     <cc:Agent>
      <dc:title>Matplotlib v3.8.4, https://matplotlib.org/</dc:title>
     </cc:Agent>
    </dc:creator>
   </cc:Work>
  </rdf:RDF>
 </metadata>
 <defs>
  <style type="text/css">*{stroke-linejoin: round; stroke-linecap: butt}</style>
 </defs>
 <g id="figure_1">
  <g id="patch_1">
   <path d="M 0 51.023622 
L 99.212598 51.023622 
L 99.212598 0 
L 0 0 
L 0 51.023622 
z
" style="fill: none"/>
  </g>
  <g id="axes_1">
   <g id="patch_2">
    <path d="M 0 51.023622 
L 99.212598 51.023622 
L 99.212598 -0 
L 0 -0 
L 0 51.023622 
z
" style="fill: none"/>
   </g>
   <g id="matplotlib.axis_1">
    <g id="xtick_1"/>
    <g id="xtick_2"/>
   </g>
   <g id="matplotlib.axis_2">
    <g id="ytick_1"/>
    <g id="ytick_2"/>
   </g>
   <g id="line2d_1">
    <path d="M 4.509664 30.802755 
L 4.671395 48.469789 
L 4.556317 29.567639 
L 4.721159 44.745903 
L 4.73671 45.26512 
L 4.758481 43.278464 
L 4.873559 18.926837 
L 4.935764 29.362792 
L 4.938874 29.540396 
L 4.963756 25.346935 
L 5.044621 2.319256 
L 5.094385 17.220927 
L 5.144148 47.505873 
L 5.228124 32.005908 
L 5.277888 38.520487 
L 5.343203 32.605667 
L 5.430289 37.522783 
L 5.567138 46.599023 
L 5.59202 45.216482 
L 5.691547 45.234797 
L 5.759972 41.477303 
L 5.763082 41.442311 
L 5.781744 42.233918 
L 5.828397 48.031057 
L 5.896822 42.984202 
L 5.921703 41.846315 
L 5.965247 46.380798 
L 5.974577 47.939794 
L 6.030561 37.620656 
L 6.145639 26.971495 
L 6.192293 32.891809 
L 6.388236 47.332688 
L 6.394457 46.284582 
L 6.438 35.816016 
L 6.503315 46.503415 
L 6.521976 48.452628 
L 6.562409 45.152447 
L 6.618393 47.147959 
L 6.640164 46.772952 
L 6.665046 47.476641 
L 6.677487 48.635887 
L 6.71481 43.898235 
L 6.72414 43.547291 
L 6.783234 45.885177 
L 6.805006 48.359215 
L 6.885872 45.266254 
L 6.888982 45.122317 
L 6.951186 47.182132 
L 6.982289 48.584423 
L 7.016501 46.185507 
L 7.050713 44.777714 
L 7.112918 47.111256 
L 7.184453 47.489401 
L 7.15024 46.123604 
L 7.224886 47.186582 
L 7.383507 41.737937 
L 7.259098 47.387026 
L 7.411499 43.74876 
L 7.448822 47.405259 
L 7.523467 44.581391 
L 7.585671 42.313451 
L 7.622994 44.882345 
L 7.682088 48.581473 
L 7.719411 43.160711 
L 7.728741 42.973232 
L 7.769174 45.803958 
L 7.803387 47.546406 
L 7.837599 43.994461 
L 7.859371 42.568763 
L 7.915355 44.265458 
L 7.946457 44.18937 
L 8.033543 47.550704 
L 7.99622 42.982626 
L 8.080196 44.856066 
L 8.117519 41.821329 
L 8.154841 46.157828 
L 8.198385 44.070372 
L 8.322793 48.098934 
L 8.344565 47.084563 
L 8.425431 46.053133 
L 8.394328 47.304279 
L 8.450312 47.100322 
L 8.549839 48.482238 
L 8.512517 46.91275 
L 8.56228 47.590261 
L 8.590272 45.65761 
L 8.664918 48.100122 
L 8.730232 47.331091 
L 8.857751 44.667304 
L 8.795547 47.860705 
L 8.885743 45.597714 
L 8.926176 48.539289 
L 9.035034 48.04925 
L 9.063026 47.575592 
L 9.134561 45.471576 
L 9.171883 47.357282 
L 9.193655 48.606628 
L 9.249639 45.117916 
L 9.283851 44.096436 
L 9.318064 45.56855 
L 9.352276 45.33791 
L 9.464244 48.514614 
L 9.501567 46.297679 
L 9.510897 46.082132 
L 9.55133 48.005498 
L 9.560661 48.424756 
L 9.625976 45.430158 
L 9.638416 44.787369 
L 9.706841 47.327583 
L 9.719282 48.168662 
L 9.775266 46.381861 
L 9.809479 46.917791 
L 9.868573 45.942774 
L 9.893454 47.622062 
L 9.915226 47.337466 
L 10.020973 48.581837 
L 9.955659 46.343908 
L 10.036525 47.867511 
L 10.092509 46.9456 
L 10.067627 48.61555 
L 10.151603 47.491793 
L 10.173374 48.604278 
L 10.244909 46.234532 
L 10.25424 46.14238 
L 10.285342 47.816162 
L 10.291563 47.76839 
L 10.347547 48.257331 
L 10.378649 47.424762 
L 10.406641 46.288134 
L 10.496837 46.816091 
L 10.509278 47.530545 
L 10.611915 48.231236 
L 10.54349 46.484247 
L 10.624356 47.710239 
L 10.652348 46.3453 
L 10.748765 46.669022 
L 10.801639 48.381028 
L 10.901166 47.731404 
L 10.913607 47.22401 
L 10.982031 48.256929 
L 10.988252 48.43267 
L 11.019354 46.225966 
L 11.050456 46.562548 
L 11.053567 46.470373 
L 11.087779 48.043177 
L 11.128212 47.446846 
L 11.177975 48.620097 
L 11.205967 46.913666 
L 11.224629 46.433147 
L 11.283723 47.938858 
L 11.308605 47.404872 
L 11.436124 44.686003 
L 11.333486 48.414804 
L 11.461005 45.491675 
L 11.607186 48.53494 
L 11.619627 48.557376 
L 11.638288 48.100417 
L 11.694272 46.246628 
L 11.756476 47.467506 
L 11.800019 47.133136 
L 11.824901 47.785555 
L 11.902657 48.627602 
L 11.868444 46.768652 
L 11.930649 47.504916 
L 11.980412 46.760277 
L 11.95242 47.965191 
L 11.999073 47.724042 
L 12.017735 48.645916 
L 12.08927 46.592566 
L 12.09238 46.458948 
L 12.160805 48.185905 
L 12.244781 48.497281 
L 12.22923 47.677039 
L 12.257222 47.786959 
L 12.313206 46.364109 
L 12.366079 47.843575 
L 12.387851 48.647481 
L 12.465606 47.751126 
L 12.490488 47.079802 
L 12.524701 48.549362 
L 12.565134 48.340022 
L 12.571354 48.557024 
L 12.633558 46.958334 
L 12.65533 45.831789 
L 12.686432 48.047572 
L 12.739306 47.35151 
L 12.745526 47.296331 
L 12.754857 47.442074 
L 12.826392 48.424994 
L 12.79529 46.710059 
L 12.869935 47.663744 
L 12.891707 47.114804 
L 12.93836 48.509696 
L 12.966352 48.032342 
L 13.016115 48.331222 
L 13.059658 46.957095 
L 13.062769 46.968172 
L 13.093871 46.922909 
L 13.121863 47.416246 
L 13.152965 47.177635 
L 13.21828 48.649103 
L 13.280484 48.084796 
L 13.292925 48.654948 
L 13.320917 47.162889 
L 13.352019 47.488023 
L 13.398672 46.431335 
L 13.451546 48.095797 
L 13.460877 47.579377 
L 13.575955 46.617992 
L 13.538632 48.2012 
L 13.588396 46.734239 
L 13.656821 47.964413 
L 13.728356 47.91737 
L 13.737686 48.07811 
L 13.771899 47.14161 
L 13.78123 47.158809 
L 13.880757 46.65673 
L 13.830993 48.470051 
L 13.893197 46.940247 
L 13.989614 48.184639 
L 14.017606 47.621291 
L 14.045598 47.055841 
L 14.07359 48.062455 
L 14.126464 47.529307 
L 14.21666 48.430406 
L 14.145125 47.124421 
L 14.244652 47.766319 
L 14.260203 47.396323 
L 14.291306 48.616916 
L 14.3504 48.004595 
L 14.397053 47.472874 
L 14.375282 48.574473 
L 14.421935 48.47156 
L 14.425045 48.533766 
L 14.481029 47.487398 
L 14.484139 47.510402 
L 14.537013 47.277198 
L 14.515241 48.136571 
L 14.580556 47.745744 
L 14.667642 48.597168 
L 14.686304 47.350258 
L 14.698744 47.311058 
L 14.720516 48.527951 
L 14.77339 46.905086 
L 14.816933 48.001996 
L 14.841815 47.122056 
L 14.869807 46.427081 
L 14.950672 47.08234 
L 14.975554 48.551501 
L 15.068861 47.586054 
L 15.183939 46.650554 
L 15.112404 48.49579 
L 15.190159 46.977054 
L 15.208821 48.456393 
L 15.314568 48.047037 
L 15.432756 47.354121 
L 15.398544 48.570856 
L 15.438977 47.42186 
L 15.494961 48.434893 
L 15.522953 46.660381 
L 15.538504 46.547272 
L 15.588267 47.447682 
L 15.647362 48.602681 
L 15.737558 48.32897 
L 15.799762 47.303332 
L 15.874408 47.997385 
L 15.989486 48.645174 
L 15.90551 47.672048 
L 15.992596 48.575832 
L 16.113895 47.149261 
L 16.126335 47.263521 
L 16.182319 48.663019 
L 16.244524 47.89775 
L 16.33783 47.387921 
L 16.303618 48.057031 
L 16.353382 47.855374 
L 16.393814 48.591913 
L 16.446688 47.219289 
L 16.459129 46.844884 
L 16.536885 47.760937 
L 16.552436 47.536852 
L 16.580428 47.128523 
L 16.670624 45.960494 
L 16.701726 46.352698 
L 16.704836 46.314528 
L 16.735939 47.254905 
L 16.785702 48.303647 
L 16.863458 47.984898 
L 16.888339 47.76189 
L 16.962985 48.477225 
L 16.966095 48.58016 
L 17.018969 47.787046 
L 17.056291 47.894518 
L 17.102945 48.653789 
L 17.171369 47.961446 
L 17.18381 47.510851 
L 17.255345 48.541939 
L 17.280227 47.923506 
L 17.357983 48.624163 
L 17.32377 47.84511 
L 17.398415 48.192231 
L 17.497943 46.972047 
L 17.532155 46.99514 
L 17.672115 48.416178 
L 17.684556 47.921006 
L 17.693886 47.804982 
L 17.756091 48.430392 
L 17.765421 48.615164 
L 17.840067 47.827149 
L 17.861838 47.0474 
L 17.942704 48.515996 
L 17.948924 48.468632 
L 17.998688 47.293388 
L 18.076443 47.990947 
L 18.144868 47.127553 
L 18.191522 48.277343 
L 18.225734 47.255968 
L 18.284828 48.616792 
L 18.300379 48.206535 
L 18.31282 48.473767 
L 18.331481 47.626792 
L 18.337702 47.568762 
L 18.359473 48.597666 
L 18.396796 48.334727 
L 18.45278 48.577961 
L 18.424788 47.467504 
L 18.502544 48.343935 
L 18.524315 47.361953 
L 18.570968 48.590048 
L 18.620732 47.858321 
L 18.676716 48.45839 
L 18.73892 48.177552 
L 18.751361 48.102548 
L 18.760692 48.153507 
L 18.766912 47.991964 
L 18.857109 48.555955 
L 18.860219 48.597462 
L 18.922423 47.96488 
L 19.009509 47.787861 
L 18.981517 48.294633 
L 19.02195 48.006031 
L 19.124588 48.524556 
L 19.053053 47.578561 
L 19.133918 48.238274 
L 19.211674 47.561093 
L 19.171241 48.564909 
L 19.252107 47.905167 
L 19.354744 47.672047 
L 19.314311 48.356837 
L 19.364075 47.88046 
L 19.379626 48.658128 
L 19.457381 47.141067 
L 19.472932 47.001335 
L 19.504034 47.87358 
L 19.510255 47.738467 
L 19.532026 48.628197 
L 19.553798 47.537758 
L 19.631553 48.265743 
L 19.643994 48.369771 
L 19.662656 48.014592 
L 19.71864 48.178642 
L 19.737301 47.689531 
L 19.774624 48.575314 
L 19.815056 48.336832 
L 19.818167 48.339679 
L 19.874151 47.655965 
L 19.855489 48.506542 
L 19.930135 48.240908 
L 20.020331 47.799223 
L 19.948796 48.577193 
L 20.042103 48.229813 
L 20.138519 48.657448 
L 20.110527 47.666523 
L 20.157181 48.344631 
L 20.203834 47.831085 
L 20.182062 48.603567 
L 20.259818 48.369888 
L 20.275369 48.541622 
L 20.346904 47.764047 
L 20.43399 47.498495 
L 20.365565 48.485911 
L 20.443321 47.764122 
L 20.558399 48.563232 
L 20.561509 48.467802 
L 20.667257 47.314145 
L 20.605052 48.638835 
L 20.679698 47.830398 
L 20.692138 48.651475 
L 20.788555 47.75625 
L 20.807217 47.426527 
L 20.85076 48.345013 
L 20.884972 47.806321 
L 20.900523 48.353806 
L 20.950287 47.545007 
L 20.987609 47.661707 
L 21.003161 47.007279 
L 21.031152 48.595542 
L 21.090247 48.280447 
L 21.161782 48.605308 
L 21.186663 47.930144 
L 21.28308 47.239011 
L 21.264419 48.580263 
L 21.301742 47.705902 
L 21.304852 47.691779 
L 21.326623 48.063377 
L 21.432371 48.526105 
L 21.373277 47.959011 
L 21.438591 48.295525 
L 21.451032 47.90311 
L 21.488355 48.538009 
L 21.550559 48.258165 
L 21.612764 48.595101 
L 21.650086 48.024846 
L 21.662527 47.781097 
L 21.718511 48.635141 
L 21.758944 48.029996 
L 21.790046 48.538421 
L 21.84292 47.846009 
L 21.883353 48.429356 
L 21.936227 48.644337 
L 22.010872 47.583828 
L 22.017092 47.463665 
L 22.066856 48.624439 
L 22.097958 48.261832 
L 22.144611 48.532732 
L 22.160162 47.778481 
L 22.172603 47.087122 
L 22.213036 48.518776 
L 22.2628 48.10839 
L 22.278351 47.744558 
L 22.325004 48.58364 
L 22.328114 48.624264 
L 22.399649 48.147944 
L 22.517838 47.220095 
L 22.446303 48.280908 
L 22.527168 47.421853 
L 22.580042 48.255864 
L 22.648467 48.095383 
L 22.713782 47.184132 
L 22.757325 48.006126 
L 22.841301 48.654084 
L 22.794647 47.860005 
L 22.875513 48.277323 
L 22.950158 47.50804 
L 22.993701 47.778972 
L 23.090118 48.658041 
L 23.127441 48.476848 
L 23.248739 47.805308 
L 23.282952 48.335879 
L 23.298503 48.533056 
L 23.379369 47.764549 
L 23.522439 48.619636 
L 23.525549 48.56054 
L 23.54421 47.915123 
L 23.618856 48.622564 
L 23.640627 48.128344 
L 23.749485 48.451169 
L 23.730823 47.858965 
L 23.755705 48.243837 
L 23.793028 47.962586 
L 23.808579 48.305502 
L 23.811689 48.291079 
L 23.82724 48.679041 
L 23.898775 47.736572 
L 23.911216 47.880863 
L 23.917437 47.88045 
L 23.920547 47.976437 
L 23.976531 48.524376 
L 24.010743 47.535784 
L 24.013854 47.552069 
L 24.023184 47.308135 
L 24.066727 48.575682 
L 24.082278 48.30285 
L 24.132042 48.624454 
L 24.156924 47.86584 
L 24.166254 47.974371 
L 24.169365 47.971918 
L 24.172475 48.058221 
L 24.175585 48.051129 
L 24.225348 48.553145 
L 24.272002 47.588105 
L 24.281332 47.387 
L 24.293773 47.908483 
L 24.38397 48.618213 
L 24.327986 47.756904 
L 24.405741 48.048561 
L 24.415072 47.904667 
L 24.467946 48.550984 
L 24.502158 48.228366 
L 24.539481 48.618208 
L 24.592354 47.671809 
L 24.595465 47.74836 
L 24.598575 47.740623 
L 24.607906 47.981527 
L 24.66389 48.636292 
L 24.716763 48.125838 
L 24.732314 47.434506 
L 24.797629 48.604907 
L 24.825621 48.289405 
L 24.862944 48.684786 
L 24.915817 47.797205 
L 24.937589 48.358328 
L 25.002903 47.968725 
L 24.971801 48.561835 
L 25.043336 48.366633 
L 25.111761 48.666373 
L 25.071328 47.982024 
L 25.130423 48.163438 
L 25.173966 48.662123 
L 25.248611 47.955822 
L 25.348138 48.663467 
L 25.363689 48.184218 
L 25.37924 48.089927 
L 25.419673 48.55095 
L 25.441445 48.674571 
L 25.463216 48.054095 
L 25.478767 47.622041 
L 25.559633 48.400335 
L 25.612507 48.571405 
L 25.631168 48.016381 
L 25.66538 48.276957 
L 25.699593 47.769865 
L 25.771128 48.375379 
L 25.777348 48.215063 
L 25.898647 47.608269 
L 25.817781 48.616125 
L 25.911088 47.871328 
L 25.93908 48.625277 
L 26.026166 48.31813 
L 26.144354 47.949395 
L 26.066599 48.630691 
L 26.147464 48.05775 
L 26.240771 48.607253 
L 26.209669 47.980253 
L 26.262543 48.294052 
L 26.334078 47.950738 
L 26.290535 48.623744 
L 26.3714 48.316233 
L 26.386951 48.670931 
L 26.492699 48.479115 
L 26.523801 48.130093 
L 26.545573 48.62443 
L 26.598446 48.563934 
L 26.691753 48.678451 
L 26.641989 48.290975 
L 26.701084 48.356419 
L 26.760178 48.172678 
L 26.744627 48.638947 
L 26.819272 48.234689 
L 26.893917 48.698413 
L 26.841044 47.957256 
L 26.93124 48.286414 
L 26.974783 47.952958 
L 26.953011 48.423341 
L 27.043208 48.158587 
L 27.105412 47.723396 
L 27.061869 48.394958 
L 27.161396 47.912374 
L 27.176947 48.522136 
L 27.273364 48.196785 
L 27.372891 47.502775 
L 27.320017 48.600512 
L 27.391552 47.925656 
L 27.456867 47.865175 
L 27.515961 48.660489 
L 27.603047 47.885934 
L 27.631039 48.466998 
L 27.659031 47.830601 
L 27.746118 48.434791 
L 27.752338 48.648508 
L 27.770999 48.055042 
L 27.848755 48.1627 
L 27.861196 47.917367 
L 27.876747 48.628949 
L 27.954502 48.303192 
L 28.050919 48.429265 
L 27.966943 48.02067 
L 28.054029 48.302024 
L 28.153556 47.965288 
L 28.116234 48.693529 
L 28.165997 48.11362 
L 28.234422 48.610516 
L 28.281075 48.332524 
L 28.324619 48.070444 
L 28.35261 48.535108 
L 28.405484 48.188139 
L 28.408594 48.18746 
L 28.501901 47.924401 
L 28.477019 48.528014 
L 28.517452 48.063153 
L 28.551665 48.613635 
L 28.635641 48.436079 
L 28.672963 48.186214 
L 28.648081 48.548598 
L 28.725837 48.444827 
L 28.784931 48.571742 
L 28.750719 47.713459 
L 28.828474 48.295273 
L 28.878238 48.169824 
L 28.856466 48.599458 
L 28.924891 48.492546 
L 28.949773 48.609071 
L 28.962214 48.063117 
L 28.971544 48.011571 
L 29.021308 48.569405 
L 29.027528 48.557184 
L 29.077292 48.683415 
L 29.099063 47.522443 
L 29.102174 47.544449 
L 29.105284 47.468271 
L 29.155047 48.555608 
L 29.176819 48.312444 
L 29.186149 48.56283 
L 29.235913 48.025906 
L 29.273236 48.268581 
L 29.285677 47.912106 
L 29.307448 48.678341 
L 29.378983 48.362096 
L 29.47229 48.650813 
L 29.487841 48.270881 
L 29.596699 48.136251 
L 29.522053 48.666896 
L 29.599809 48.139323 
L 29.62158 48.595226 
L 29.690005 48.031498 
L 29.705556 48.077087 
L 29.749099 47.760855 
L 29.795753 48.630014 
L 29.808193 48.465125 
L 29.851737 47.926374 
L 29.879729 48.482992 
L 29.929492 48.305908 
L 30.004137 48.651115 
L 29.948153 48.039514 
L 30.053901 48.433482 
L 30.116105 47.918511 
L 30.159648 48.65322 
L 30.259175 48.108645 
L 30.284057 48.584752 
L 30.290278 48.614268 
L 30.302718 48.291896 
L 30.305829 48.316162 
L 30.368033 47.993379 
L 30.386694 48.558408 
L 30.417797 48.250332 
L 30.498662 47.962843 
L 30.473781 48.406148 
L 30.514213 48.39425 
L 30.616851 48.65892 
L 30.591969 47.954645 
L 30.623071 48.467223 
L 30.663504 47.883609 
L 30.685276 48.61628 
L 30.738149 48.325661 
L 30.784803 47.750346 
L 30.822125 48.451298 
L 30.828346 48.69043 
L 30.89677 47.890201 
L 30.937203 48.6593 
L 30.940314 48.663788 
L 30.949644 48.517337 
L 30.983857 47.620954 
L 31.070943 48.158191 
L 31.102045 48.533343 
L 31.164249 47.872926 
L 31.17669 47.767212 
L 31.223344 48.367944 
L 31.257556 48.354036 
L 31.31354 48.480585 
L 31.276217 47.854808 
L 31.325981 48.079468 
L 31.357083 47.812553 
L 31.406847 48.443207 
L 31.428618 48.334012 
L 31.437949 48.635616 
L 31.462831 48.064638 
L 31.472161 47.808179 
L 31.493933 48.450012 
L 31.568578 48.274672 
L 31.671215 48.655832 
L 31.60279 47.824211 
L 31.680546 48.413138 
L 31.773853 48.165998 
L 31.708538 48.673712 
L 31.801845 48.289497 
L 31.907592 48.615924 
L 31.8796 48.282626 
L 31.916923 48.460113 
L 31.982237 48.06629 
L 31.944915 48.675343 
L 32.032001 48.297722 
L 32.087985 48.682522 
L 32.134638 48.192021 
L 32.153299 48.5748 
L 32.190622 48.18109 
L 32.243496 48.63442 
L 32.268378 48.306329 
L 32.330582 48.529415 
L 32.358574 48.087989 
L 32.371015 47.818058 
L 32.420778 48.680203 
L 32.454991 48.491796 
L 32.461211 48.509759 
L 32.470542 48.19379 
L 32.557628 47.91669 
L 32.498534 48.66551 
L 32.58251 48.126424 
L 32.635383 48.575341 
L 32.669596 48.013397 
L 32.675816 48.029548 
L 32.688257 47.689376 
L 32.766013 48.46717 
L 32.849989 48.656031 
L 32.803335 48.079738 
L 32.87487 48.542412 
L 32.899752 47.9237 
L 32.999279 48.241131 
L 33.080145 48.600504 
L 33.101917 48.133775 
L 33.120578 48.07801 
L 33.185892 48.538642 
L 33.251207 48.651929 
L 33.282309 48.191591 
L 33.332073 48.614967 
L 33.350734 48.02403 
L 33.397387 48.25476 
L 33.453371 48.147431 
L 33.4316 48.563117 
L 33.487584 48.460551 
L 33.590221 48.636463 
L 33.549788 47.963389 
L 33.599552 48.491375 
L 33.695969 48.285998 
L 33.608882 48.638546 
L 33.71152 48.469071 
L 33.783055 48.686057 
L 33.770614 48.389829 
L 33.823488 48.474626 
L 33.86392 48.196746 
L 33.910574 48.68543 
L 33.926125 48.495767 
L 33.947896 48.615895 
L 34.00077 48.309128 
L 34.028762 48.356198 
L 34.056754 48.221373 
L 34.084746 48.612859 
L 34.087856 48.667364 
L 34.174942 48.263487 
L 34.187383 48.530712 
L 34.290021 47.968846 
L 34.308682 48.229832 
L 34.333564 48.635143 
L 34.414429 48.13495 
L 34.473524 48.677128 
L 34.454862 48.119445 
L 34.548169 48.42805 
L 34.660137 48.23967 
L 34.601043 48.637891 
L 34.663247 48.248563 
L 34.768994 48.477498 
L 34.7099 48.063882 
L 34.775215 48.342004 
L 34.84364 47.841197 
L 34.809427 48.684577 
L 34.896513 48.05253 
L 34.946277 48.602711 
L 34.924505 47.702437 
L 35.011592 48.285853 
L 35.058245 48.068369 
L 35.073796 48.615585 
L 35.120449 48.349344 
L 35.232417 48.014285 
L 35.201315 48.692881 
L 35.238638 48.037998 
L 35.378598 48.686223 
L 35.27285 47.998098 
L 35.381708 48.626283 
L 35.468794 48.199229 
L 35.499896 48.401586 
L 35.590093 48.636708 
L 35.571431 48.035999 
L 35.618085 48.623091 
L 35.69895 48.107553 
L 35.739383 48.337897 
L 35.776706 48.595052 
L 35.823359 48.127179 
L 35.854461 48.47467 
L 35.863792 48.60874 
L 35.870012 48.352593 
L 35.904225 48.401108 
L 35.916666 48.16292 
L 35.938437 48.665518 
L 36.013082 48.351725 
L 36.053515 48.635668 
L 36.090838 48.199316 
L 36.12505 48.376351 
L 36.218357 48.107196 
L 36.153042 48.631743 
L 36.237018 48.353044 
L 36.293002 48.20786 
L 36.26501 48.677293 
L 36.339656 48.256826 
L 36.352096 48.644077 
L 36.448513 48.326408 
L 36.501387 48.054133 
L 36.523159 48.687327 
L 36.560481 48.283923 
L 36.582253 48.681135 
L 36.67867 48.554753 
L 36.706662 48.652611 
L 36.747094 48.296263 
L 36.778197 48.533764 
L 36.809299 48.075312 
L 36.793748 48.629002 
L 36.890165 48.476805 
L 36.955479 48.042272 
L 36.899495 48.602332 
L 36.992802 48.514862 
L 37.017684 48.652251 
L 37.064337 47.971018 
L 37.089219 48.172255 
L 37.092329 48.016962 
L 37.145203 48.631429 
L 37.194966 48.266594 
L 37.275832 48.610758 
L 37.300714 48.166949 
L 37.322485 47.949683 
L 37.359808 48.64848 
L 37.39091 48.439764 
L 37.493547 48.159236 
L 37.400241 48.624283 
L 37.502878 48.306834 
L 37.568193 48.698873 
L 37.583744 48.250868 
L 37.621066 48.651555 
L 37.742365 48.141406 
L 37.683271 48.679422 
L 37.745475 48.164304 
L 37.795239 48.608665 
L 37.866774 48.45748 
L 37.872994 48.181717 
L 37.919647 48.658652 
L 37.975631 48.554781 
L 38.087599 48.291177 
L 38.075158 48.641952 
L 38.090709 48.324845 
L 38.193347 48.618696 
L 38.143583 47.948035 
L 38.202677 48.430912 
L 38.205788 48.427893 
L 38.208898 48.550878 
L 38.271102 48.636301 
L 38.286653 48.361134 
L 38.308425 48.496047 
L 38.370629 48.24875 
L 38.398621 48.675926 
L 38.417283 48.513431 
L 38.423503 48.543856 
L 38.448385 47.929631 
L 38.451495 47.984272 
L 38.454605 47.914384 
L 38.535471 48.531365 
L 38.579014 48.648162 
L 38.607006 48.07452 
L 38.634998 48.351582 
L 38.638108 48.334325 
L 38.650549 48.621882 
L 38.706533 48.555184 
L 38.709643 48.629924 
L 38.737635 48.320866 
L 38.815391 48.531563 
L 38.849603 48.110865 
L 38.886926 48.663168 
L 38.927359 48.50427 
L 39.039327 48.087346 
L 39.005114 48.683988 
L 39.048657 48.311236 
L 39.08909 48.609998 
L 39.138854 48.085887 
L 39.160625 48.351463 
L 39.269483 48.545319 
L 39.207278 48.021692 
L 39.275703 48.400884 
L 39.291254 48.195377 
L 39.334797 48.600136 
L 39.341018 48.562792 
L 39.347238 48.695789 
L 39.397002 48.322627 
L 39.456096 48.673532 
L 39.571174 48.325104 
L 39.574284 48.450041 
L 39.577395 48.531517 
L 39.620938 48.241033 
L 39.683142 48.526397 
L 39.717355 48.168167 
L 39.751567 48.676273 
L 39.792 48.539071 
L 39.869755 48.341387 
L 39.916409 48.695205 
L 40.015936 48.213035 
L 40.037707 48.3257 
L 40.068809 48.257616 
L 40.099912 48.691356 
L 40.112353 48.612972 
L 40.118573 48.640149 
L 40.171447 48.205578 
L 40.246092 48.131275 
L 40.205659 48.663452 
L 40.258533 48.41789 
L 40.295855 48.675567 
L 40.339399 48.023759 
L 40.36117 48.311559 
L 40.460697 48.069277 
L 40.432705 48.687767 
L 40.473138 48.218813 
L 40.581996 48.615212 
L 40.544673 48.094492 
L 40.591326 48.467059 
L 40.64731 47.94193 
L 40.613098 48.580225 
L 40.697074 48.452759 
L 40.759278 48.604823 
L 40.718845 48.248203 
L 40.805932 48.457495 
L 40.824593 48.259339 
L 40.874356 48.565542 
L 40.902348 48.559228 
L 40.964553 48.679733 
L 40.949002 48.343959 
L 41.004986 48.454484 
L 41.032978 48.079387 
L 41.06097 48.604118 
L 41.110733 48.432819 
L 41.166717 48.654803 
L 41.182268 48.226795 
L 41.219591 48.350939 
L 41.263134 48.619024 
L 41.322228 48.152947 
L 41.325338 48.107652 
L 41.384433 48.560088 
L 41.424865 48.192812 
L 41.502621 48.603975 
L 41.539944 48.507443 
L 41.549274 48.16372 
L 41.567935 48.660341 
L 41.655022 48.212035 
L 41.698565 48.665721 
L 41.798092 48.487348 
L 41.835414 48.368539 
L 41.885178 48.65504 
L 41.903839 48.595352 
L 41.906949 48.669888 
L 41.956713 48.361248 
L 42.012697 48.597882 
L 42.05313 48.703077 
L 42.093563 48.502173 
L 42.149547 48.264785 
L 42.115334 48.545573 
L 42.205531 48.432825 
L 42.264625 48.659651 
L 42.227302 48.255529 
L 42.326829 48.523035 
L 42.445018 48.221626 
L 42.382813 48.607855 
L 42.448128 48.229114 
L 42.48234 48.117779 
L 42.497891 48.607288 
L 42.597418 48.688551 
L 42.547655 48.125855 
L 42.606749 48.663977 
L 42.656513 48.248724 
L 42.724937 48.463292 
L 42.774701 48.692286 
L 42.749819 48.051119 
L 42.827575 48.411909 
L 42.871118 48.123753 
L 42.886669 48.572079 
L 42.939543 48.313763 
L 43.029739 48.633211 
L 43.070172 48.611522 
L 43.101274 48.218964 
L 43.076392 48.676657 
L 43.18214 48.531078 
L 43.19147 48.6771 
L 43.253675 48.265387 
L 43.287887 48.480135 
L 43.290997 48.481396 
L 43.33143 48.221953 
L 43.368753 48.666781 
L 43.399855 48.447699 
L 43.455839 48.624669 
L 43.421627 48.359337 
L 43.486941 48.430254 
L 43.490051 48.353115 
L 43.521154 48.678055 
L 43.595799 48.387333 
L 43.60513 48.682828 
L 43.676665 48.118018 
L 43.704657 48.430794 
L 43.713987 48.203529 
L 43.788633 48.57352 
L 43.819735 48.39995 
L 43.947254 48.629627 
L 43.835286 48.334056 
L 43.950364 48.49448 
L 43.962805 48.385775 
L 44.006348 48.665442 
L 44.056112 48.597956 
L 44.065442 48.691886 
L 44.108985 48.311988 
L 44.124536 48.326936 
L 44.127647 48.197487 
L 44.220953 48.671657 
L 44.227174 48.604685 
L 44.339142 48.233311 
L 44.348472 48.321229 
L 44.432448 48.689573 
L 44.401346 48.200851 
L 44.46355 48.51247 
L 44.519534 48.590568 
L 44.500873 48.24915 
L 44.535085 48.363014 
L 44.622172 47.981616 
L 44.637723 48.444047 
L 44.640833 48.432303 
L 44.703037 48.691184 
L 44.668825 48.139505 
L 44.74347 48.17544 
L 44.74658 48.167339 
L 44.759021 48.443715 
L 44.867879 48.678141 
L 44.796344 48.141985 
L 44.874099 48.629872 
L 44.902091 47.993403 
L 45.001618 48.226421 
L 45.076264 48.696273 
L 45.116697 48.548791 
L 45.135358 48.25902 
L 45.194452 48.675932 
L 45.231775 48.324503 
L 45.259767 48.630836 
L 45.278428 48.299008 
L 45.343743 48.382847 
L 45.399727 48.355414 
L 45.359294 48.58564 
L 45.430829 48.579591 
L 45.437049 48.636217 
L 45.455711 48.259651 
L 45.530356 48.465743 
L 45.536576 48.461615 
L 45.542797 48.63899 
L 45.567678 48.668222 
L 45.601891 48.270772 
L 45.626773 48.104349 
L 45.673426 48.646458 
L 45.688977 48.500923 
L 45.763622 48.681343 
L 45.704528 48.300164 
L 45.800945 48.630392 
L 45.906692 48.417976 
L 45.816496 48.67687 
L 45.909803 48.470292 
L 45.912913 48.672002 
L 46.00622 48.214005 
L 46.01866 48.439036 
L 46.124408 48.268201 
L 46.068424 48.612819 
L 46.130628 48.371689 
L 46.233266 48.630562 
L 46.217714 48.283772 
L 46.242596 48.511728 
L 46.339013 48.161009 
L 46.273698 48.68824 
L 46.354564 48.473398 
L 46.376336 48.630311 
L 46.444761 48.273605 
L 46.450981 48.301684 
L 46.454091 48.268169 
L 46.485193 48.637919 
L 46.544288 48.440333 
L 46.58161 48.663344 
L 46.625153 48.171851 
L 46.659366 48.616758 
L 46.681137 48.134439 
L 46.777554 48.383511 
L 46.814877 48.229141 
L 46.789995 48.512498 
L 46.830428 48.434568 
L 46.880191 48.66565 
L 46.926845 48.126054 
L 46.982829 48.701137 
L 47.020151 48.048247 
L 47.063694 48.35801 
L 47.129009 47.889593 
L 47.157001 48.588208 
L 47.175662 48.226783 
L 47.194324 48.629028 
L 47.293851 48.404109 
L 47.312512 48.66894 
L 47.359165 48.176407 
L 47.405819 48.469831 
L 47.42759 48.121023 
L 47.477354 48.639284 
L 47.514676 48.529128 
L 47.617313 48.303717 
L 47.524007 48.669982 
L 47.635975 48.504091 
L 47.71062 48.672027 
L 47.663967 48.292565 
L 47.732392 48.369397 
L 47.738612 48.277598 
L 47.782155 48.650032 
L 47.835029 48.440737 
L 47.84436 48.698541 
L 47.863021 48.071169 
L 47.943887 48.430244 
L 48.021642 48.549847 
L 48.002981 48.082395 
L 48.037193 48.263629 
L 48.043414 48.188405 
L 48.121169 48.629547 
L 48.1305 48.554903 
L 48.142941 48.364125 
L 48.177153 48.661309 
L 48.239357 48.499944 
L 48.348215 48.683982 
L 48.320223 48.069822 
L 48.351325 48.551489 
L 48.457073 48.697836 
L 48.435301 48.377118 
L 48.460183 48.596322 
L 48.5566 48.146409 
L 48.481955 48.686994 
L 48.575261 48.523085 
L 48.649907 48.662217 
L 48.634355 48.380546 
L 48.659237 48.437704 
L 48.674788 48.222953 
L 48.69345 48.634095 
L 48.768095 48.431424 
L 48.880063 48.698638 
L 48.786756 48.131439 
L 48.883173 48.642636 
L 48.886283 48.649599 
L 48.917385 48.465583 
L 48.936047 48.103512 
L 48.9827 48.70244 
L 49.023133 48.48968 
L 49.029353 48.691153 
L 49.113329 48.252959 
L 49.12888 48.373539 
L 49.228407 47.923226 
L 49.178644 48.67452 
L 49.247069 48.208477 
L 49.253289 48.290309 
L 49.26262 48.165668 
L 49.281281 47.882815 
L 49.321714 48.633191 
L 49.365257 48.41641 
L 49.393249 48.668109 
L 49.439902 48.256284 
L 49.443013 48.297489 
L 49.449233 48.096301 
L 49.517658 48.640286 
L 49.54565 48.515676 
L 49.554981 48.674938 
L 49.635846 48.264826 
L 49.648287 48.352929 
L 49.698051 48.176013 
L 49.716712 48.521045 
L 49.735373 48.460433 
L 49.747814 48.668097 
L 49.83179 48.20604 
L 49.8349 48.27017 
L 49.906435 48.008978 
L 49.869113 48.500448 
L 49.915766 48.396269 
L 50.015293 48.646635 
L 49.940648 48.255249 
L 50.033954 48.579175 
L 50.089938 48.672912 
L 50.043285 48.487048 
L 50.096159 48.526841 
L 50.201906 48.285175 
L 50.152143 48.681428 
L 50.208127 48.420386 
L 50.304544 48.657818 
L 50.223678 48.335129 
L 50.316984 48.521598 
L 50.419622 48.286492 
L 50.323205 48.608887 
L 50.435173 48.334299 
L 50.503598 48.650713 
L 50.453834 48.292324 
L 50.550251 48.408985 
L 50.649778 48.197266 
L 50.628006 48.643057 
L 50.662219 48.338896 
L 50.764856 48.698676 
L 50.783518 48.592648 
L 50.811509 48.210486 
L 50.836391 48.669392 
L 50.901706 48.406563 
L 51.010564 48.686498 
L 50.951469 48.296422 
L 51.016784 48.515871 
L 51.054107 48.374523 
L 51.072768 48.672996 
L 51.122531 48.579611 
L 51.218948 48.64178 
L 51.156744 48.402417 
L 51.222059 48.520358 
L 51.278042 48.188421 
L 51.253161 48.631553 
L 51.343357 48.332008 
L 51.449105 48.642089 
L 51.455325 48.52646 
L 51.473986 48.193835 
L 51.483317 48.001828 
L 51.514419 48.704366 
L 51.576624 48.572725 
L 51.623277 48.674995 
L 51.641938 48.46882 
L 51.679261 48.574053 
L 51.766347 47.987972 
L 51.794339 48.266021 
L 51.825441 48.632167 
L 51.906307 48.376266 
L 51.980952 48.677302 
L 51.921858 48.309531 
L 52.021385 48.467055 
L 52.024495 48.391948 
L 52.064928 48.671593 
L 52.127133 48.532389 
L 52.180006 48.672515 
L 52.201778 48.420942 
L 52.295084 48.697129 
L 52.313746 48.336261 
L 52.410163 48.606988 
L 52.332407 48.236485 
L 52.431934 48.505592 
L 52.478587 48.310109 
L 52.50969 48.655895 
L 52.537682 48.583821 
L 52.686972 48.275691 
L 52.550122 48.687102 
L 52.696303 48.394818 
L 52.774058 48.652714 
L 52.789609 48.332684 
L 52.817601 48.601264 
L 52.836263 48.272334 
L 52.93268 48.504141 
L 52.982443 48.66205 
L 52.951341 48.312779 
L 52.997994 48.458159 
L 53.097521 48.111707 
L 53.07886 48.615777 
L 53.109962 48.357231 
L 53.209489 48.685854 
L 53.159726 48.159224 
L 53.22815 48.6486 
L 53.231261 48.671854 
L 53.287245 48.366191 
L 53.312126 48.06972 
L 53.35878 48.664255 
L 53.396102 48.33668 
L 53.439645 48.680579 
L 53.424094 48.289873 
L 53.520511 48.574317 
L 53.588936 48.155736 
L 53.567164 48.681069 
L 53.629369 48.501243 
L 53.657361 48.649275 
L 53.700904 47.95578 
L 53.728896 48.241396 
L 53.828423 47.949751 
L 53.797321 48.692801 
L 53.837754 48.174735 
L 53.912399 48.65067 
L 53.962162 48.573943 
L 53.971493 48.672266 
L 54.024367 48.288699 
L 54.06791 48.517369 
L 54.130114 48.699354 
L 54.114563 48.459062 
L 54.139445 48.454552 
L 54.198539 48.270226 
L 54.235862 48.609964 
L 54.254523 48.385029 
L 54.388263 48.67347 
L 54.263854 48.369001 
L 54.400703 48.621055 
L 54.441136 48.395591 
L 54.4909 48.685796 
L 54.512671 48.579392 
L 54.559325 48.674589 
L 54.593537 48.463593 
L 54.618419 48.489344 
L 54.696174 48.456855 
L 54.661962 48.675704 
L 54.702395 48.574621 
L 54.730387 48.693327 
L 54.717946 48.45418 
L 54.811252 48.518088 
L 54.842355 48.66271 
L 54.901449 48.257384 
L 54.92011 48.484674 
L 54.960543 48.326906 
L 54.938771 48.667713 
L 55.022747 48.57046 
L 55.047629 48.385465 
L 55.075621 48.61315 
L 55.100503 48.590303 
L 55.103613 48.686192 
L 55.178258 48.309833 
L 55.209361 48.537782 
L 55.302667 48.67267 
L 55.234242 48.348942 
L 55.324439 48.545402 
L 55.3431 48.424269 
L 55.371092 48.67933 
L 55.430186 48.605476 
L 55.461288 48.450751 
L 55.445737 48.669282 
L 55.467509 48.465543 
L 55.470619 48.363752 
L 55.498611 48.636535 
L 55.576367 48.516461 
L 55.595028 48.24197 
L 55.657232 48.661 
L 55.685224 48.522991 
L 55.790972 48.683616 
L 55.700775 48.364089 
L 55.800302 48.583323 
L 55.818964 48.208989 
L 55.853176 48.660256 
L 55.921601 48.377533 
L 55.996246 48.654464 
L 56.033569 48.43238 
L 56.039789 48.3443 
L 56.077112 48.670117 
L 56.145537 48.378879 
L 56.201521 48.316728 
L 56.176639 48.680653 
L 56.220182 48.551399 
L 56.232623 48.660156 
L 56.269946 48.427592 
L 56.322819 48.466349 
L 56.338371 48.238905 
L 56.400575 48.649314 
L 56.437898 48.251513 
L 56.444118 48.183974 
L 56.490771 48.679646 
L 56.521873 48.424926 
L 56.571637 48.675854 
L 56.559196 48.326687 
L 56.630731 48.398676 
L 56.655613 48.662264 
L 56.689825 48.324762 
L 56.75203 48.592439 
L 56.842226 48.375539 
L 56.773801 48.654056 
L 56.857777 48.550713 
L 56.870218 48.686077 
L 56.935533 48.368957 
L 56.963525 48.442914 
L 57.078603 48.684896 
L 57.084823 48.471905 
L 57.100374 48.288645 
L 57.122146 48.653534 
L 57.187461 48.617388 
L 57.190571 48.657486 
L 57.268326 48.525651 
L 57.299429 48.631855 
L 57.32742 48.686047 
L 57.339861 48.459821 
L 57.392735 48.552033 
L 57.414507 48.304679 
L 57.442499 48.601268 
L 57.517144 48.374392 
L 57.616671 48.644939 
L 57.542026 48.276138 
L 57.629112 48.525223 
L 57.663324 48.257158 
L 57.681986 48.675244 
L 57.74108 48.407783 
L 57.840607 48.674282 
L 57.818835 48.281696 
L 57.849937 48.382574 
L 57.88104 48.619389 
L 57.902811 48.075776 
L 57.918362 48.262297 
L 57.921473 48.143987 
L 57.946354 48.633004 
L 58.02722 48.251311 
L 58.151629 48.680641 
L 58.16718 48.559206 
L 58.185841 48.653083 
L 58.213833 48.311665 
L 58.31647 48.081624 
L 58.248046 48.619871 
L 58.322691 48.234263 
L 58.384895 48.654488 
L 58.443989 48.565996 
L 58.45021 48.692758 
L 58.531076 48.341891 
L 58.546627 48.505094 
L 58.59328 48.383294 
L 58.574619 48.682672 
L 58.636823 48.56171 
L 58.671036 48.683671 
L 58.692807 48.421581 
L 58.742571 48.498667 
L 58.758122 48.239394 
L 58.835877 48.674423 
L 58.848318 48.647743 
L 58.87942 48.4763 
L 58.922963 48.424606 
L 58.954066 48.674167 
L 58.982058 48.543101 
L 59.01316 48.665273 
L 59.084695 48.469967 
L 59.087805 48.516557 
L 59.125128 48.316509 
L 59.143789 48.59792 
L 59.193553 48.550604 
L 59.243316 48.653978 
L 59.29619 48.405204 
L 59.308631 48.607147 
L 59.321072 48.357944 
L 59.345953 48.568748 
L 59.349064 48.685568 
L 59.43615 48.219059 
L 59.451701 48.388958 
L 59.501464 48.667795 
L 59.482803 48.38236 
L 59.566779 48.630643 
L 59.672526 48.364857 
L 59.58855 48.687694 
L 59.688078 48.437163 
L 59.709849 48.601184 
L 59.697408 48.414158 
L 59.768943 48.398807 
L 59.824927 48.302627 
L 59.790715 48.67674 
L 59.87158 48.502063 
L 59.952446 48.680706 
L 59.924454 48.428716 
L 59.980438 48.499436 
L 59.995989 48.372761 
L 60.00221 48.656656 
L 60.086186 48.574115 
L 60.176382 48.678156 
L 60.120398 48.366685 
L 60.195043 48.552579 
L 60.29146 48.694567 
L 60.244807 48.430918 
L 60.300791 48.630446 
L 60.400318 48.676742 
L 60.412759 48.387849 
L 60.450081 48.667468 
L 60.521616 48.356776 
L 60.593152 48.63028 
L 60.611813 48.250506 
L 60.633584 48.397346 
L 60.661576 48.677064 
L 60.739332 48.416456 
L 60.742442 48.267037 
L 60.804647 48.697898 
L 60.84819 48.515573 
L 60.929055 48.367863 
L 60.901063 48.687194 
L 60.950827 48.467528 
L 61.028582 48.688976 
L 61.056574 48.422014 
L 61.124999 48.239149 
L 61.159212 48.650225 
L 61.162322 48.577281 
L 61.168542 48.673368 
L 61.252518 48.309717 
L 61.27429 48.626459 
L 61.386258 48.293579 
L 61.28051 48.685624 
L 61.398699 48.44545 
L 61.464013 48.672129 
L 61.448462 48.353762 
L 61.510666 48.576037 
L 61.597753 48.469038 
L 61.538658 48.662846 
L 61.610194 48.615686 
L 61.681729 48.66198 
L 61.694169 48.321555 
L 61.712831 48.631642 
L 61.799917 48.366833 
L 61.824799 48.531961 
L 61.887003 48.687425 
L 61.874562 48.46178 
L 61.936767 48.604864 
L 61.952318 48.45493 
L 61.970979 48.688441 
L 62.045624 48.543736 
L 62.048735 48.665839 
L 62.138931 48.155625 
L 62.154482 48.499366 
L 62.235348 48.652833 
L 62.254009 48.317235 
L 62.260229 48.401424 
L 62.359757 48.166788 
L 62.331765 48.688034 
L 62.375308 48.277865 
L 62.390859 48.118935 
L 62.449953 48.55845 
L 62.477945 48.389942 
L 62.518378 48.657484 
L 62.493496 48.335984 
L 62.589913 48.456258 
L 62.621015 48.392416 
L 62.633456 48.62901 
L 62.698771 48.441265 
L 62.732983 48.62883 
L 62.798298 48.288951 
L 62.810738 48.486463 
L 62.891604 48.414335 
L 62.857392 48.679639 
L 62.897825 48.495296 
L 62.904045 48.627199 
L 62.944478 48.183675 
L 63.009793 48.521376 
L 63.071997 48.255594 
L 63.11554 48.654094 
L 63.11865 48.596411 
L 63.187075 48.351489 
L 63.152863 48.670915 
L 63.230618 48.551497 
L 63.233728 48.678879 
L 63.314594 48.29466 
L 63.336366 48.534255 
L 63.342586 48.361261 
L 63.445223 48.631786 
L 63.53542 48.275491 
L 63.485656 48.668955 
L 63.569632 48.445902 
L 63.578963 48.561818 
L 63.662939 48.68199 
L 63.644277 48.515217 
L 63.68471 48.563242 
L 63.787348 48.453666 
L 63.715812 48.696234 
L 63.796678 48.456087 
L 63.806009 48.437879 
L 63.911756 48.683398 
L 64.008173 48.345254 
L 63.921087 48.695925 
L 64.033055 48.461129 
L 64.129472 48.671522 
L 64.123251 48.456501 
L 64.148133 48.605867 
L 64.204117 48.427394 
L 64.260101 48.688113 
L 64.281873 48.480812 
L 64.309865 48.69644 
L 64.372069 48.658528 
L 64.375179 48.668457 
L 64.3814 48.466805 
L 64.431163 48.513726 
L 64.490257 48.397457 
L 64.456045 48.680024 
L 64.540021 48.474415 
L 64.611556 48.682887 
L 64.549351 48.443801 
L 64.655099 48.628032 
L 64.695532 48.685995 
L 64.773287 48.402217 
L 64.8075 48.289363 
L 64.819941 48.663427 
L 64.863484 48.562731 
L 64.922578 48.441691 
L 64.978562 48.701729 
L 65.09675 48.416034 
L 65.112301 48.673364 
L 65.211828 48.566869 
L 65.227379 48.226669 
L 65.258482 48.649935 
L 65.323796 48.537488 
L 65.420213 48.138851 
L 65.339347 48.679566 
L 65.435764 48.533826 
L 65.466866 48.691047 
L 65.445095 48.403202 
L 65.544622 48.51159 
L 65.553953 48.29937 
L 65.597496 48.694478 
L 65.650369 48.546443 
L 65.737456 48.688044 
L 65.690802 48.366272 
L 65.759227 48.592233 
L 65.780999 48.38618 
L 65.843203 48.658227 
L 65.871195 48.531141 
L 65.896077 48.627642 
L 65.967612 48.421507 
L 65.983163 48.552189 
L 66.060918 48.672912 
L 66.023596 48.355996 
L 66.08891 48.521969 
L 66.092021 48.518864 
L 66.098241 48.664524 
L 66.101351 48.68287 
L 66.120013 48.444684 
L 66.163556 48.487922 
L 66.175997 48.321773 
L 66.238201 48.674826 
L 66.269303 48.568154 
L 66.297295 48.699356 
L 66.322177 48.304238 
L 66.378161 48.528287 
L 66.539892 48.649525 
L 66.555443 48.565848 
L 66.658081 48.400362 
L 66.567884 48.698435 
L 66.670522 48.467372 
L 66.738946 48.671235 
L 66.766938 48.315803 
L 66.776269 48.473032 
L 66.850914 48.250157 
L 66.798041 48.602401 
L 66.878906 48.50982 
L 66.882016 48.590882 
L 66.956662 48.321313 
L 66.984654 48.446972 
L 67.093511 48.182563 
L 67.07485 48.616252 
L 67.099732 48.25314 
L 67.124614 48.660785 
L 67.149495 48.219282 
L 67.21481 48.416511 
L 67.233471 48.311257 
L 67.280125 48.647358 
L 67.317447 48.456984 
L 67.36099 48.688049 
L 67.339219 48.347409 
L 67.432525 48.652789 
L 67.556934 48.249963 
L 67.606698 48.462864 
L 67.684453 48.664189 
L 67.656461 48.264304 
L 67.712445 48.5252 
L 67.808862 48.280502 
L 67.737327 48.616782 
L 67.824413 48.371066 
L 67.849295 48.473302 
L 67.852405 48.46028 
L 67.871066 48.687303 
L 67.939491 48.327692 
L 67.964373 48.553182 
L 68.020357 48.676228 
L 68.051459 48.403395 
L 68.054569 48.3505 
L 68.144766 48.683018 
L 68.182088 48.697831 
L 68.169648 48.456968 
L 68.219411 48.635051 
L 68.231852 48.658653 
L 68.334489 48.421257 
L 68.337599 48.396808 
L 68.415355 48.629212 
L 68.424686 48.556393 
L 68.437127 48.68745 
L 68.521102 48.428428 
L 68.527323 48.615604 
L 68.539764 48.417552 
L 68.611299 48.694417 
L 68.639291 48.524672 
L 68.642401 48.458212 
L 68.676613 48.681309 
L 68.745038 48.633285 
L 68.807243 48.419247 
L 68.754369 48.690618 
L 68.857006 48.603302 
L 68.884998 48.668632 
L 68.900549 48.39457 
L 68.947203 48.41011 
L 69.031179 48.33951 
L 69.140036 48.668874 
L 69.183579 48.440826 
L 69.19602 48.689773 
L 69.252004 48.508422 
L 69.317319 48.674114 
L 69.33287 48.395762 
L 69.354641 48.490703 
L 69.413736 48.44865 
L 69.382633 48.699033 
L 69.451058 48.6727 
L 69.457279 48.61372 
L 69.463499 48.416384 
L 69.497712 48.687667 
L 69.569247 48.528707 
L 69.591018 48.636914 
L 69.597239 48.452535 
L 69.631451 48.464435 
L 69.659443 48.341399 
L 69.678104 48.656536 
L 69.737199 48.575474 
L 69.870938 48.233198 
L 69.836726 48.651032 
L 69.874048 48.250238 
L 69.911371 48.662928 
L 69.880269 48.212937 
L 70.010898 48.513427 
L 70.017118 48.407361 
L 70.107315 48.625305 
L 70.153968 48.702853 
L 70.18196 48.382386 
L 70.213062 48.526423 
L 70.225503 48.259551 
L 70.315699 48.655086 
L 70.32192 48.551568 
L 70.452549 48.36078 
L 70.402786 48.694542 
L 70.45877 48.381969 
L 70.492982 48.628732 
L 70.533415 48.30592 
L 70.570737 48.461714 
L 70.586289 48.30472 
L 70.642273 48.649391 
L 70.670265 48.612534 
L 70.772902 48.479412 
L 70.698256 48.687441 
L 70.779122 48.570905 
L 70.853767 48.691858 
L 70.807114 48.463008 
L 70.88487 48.485243 
L 70.950184 48.402873 
L 70.919082 48.664408 
L 70.987507 48.492425 
L 70.996838 48.654026 
L 71.071483 48.332433 
L 71.096365 48.501199 
L 71.111916 48.383694 
L 71.127467 48.656318 
L 71.202112 48.559775 
L 71.239435 48.693173 
L 71.270537 48.442739 
L 71.323411 48.623507 
L 71.335852 48.42774 
L 71.351403 48.701054 
L 71.426048 48.660051 
L 71.494473 48.691276 
L 71.516244 48.50208 
L 71.538016 48.680851 
L 71.628212 48.408099 
L 71.656204 48.648151 
L 71.699747 48.313843 
L 71.74329 48.566891 
L 71.817936 48.626406 
L 71.765062 48.451424 
L 71.821046 48.510867 
L 71.858369 48.375228 
L 71.849038 48.691873 
L 71.929904 48.496644 
L 71.957896 48.568328 
L 71.939234 48.322644 
L 71.964116 48.3866 
L 72.004549 48.132866 
L 72.054312 48.6876 
L 72.069864 48.556251 
L 72.15695 48.498948 
L 72.181831 48.695672 
L 72.212934 48.431302 
L 72.293799 48.642579 
L 72.343563 48.347259 
L 72.374665 48.683087 
L 72.402657 48.488346 
L 72.458641 48.665089 
L 72.495964 48.418078 
L 72.514625 48.594277 
L 72.570609 48.311102 
L 72.58927 48.673652 
L 72.623483 48.647815 
L 72.682577 48.306062 
L 72.701238 48.68194 
L 72.751002 48.434402 
L 72.853639 48.625873 
L 72.794545 48.329509 
L 72.86297 48.503679 
L 72.884741 48.357032 
L 72.906513 48.679045 
L 72.962497 48.48429 
L 72.999819 48.391151 
L 73.077575 48.67211 
L 73.142889 48.375753 
L 73.180212 48.682959 
L 73.192653 48.543333 
L 73.223755 48.430226 
L 73.248637 48.636726 
L 73.332613 48.701755 
L 73.301511 48.490636 
L 73.354384 48.626167 
L 73.401038 48.423354 
L 73.363715 48.655033 
L 73.463242 48.641714 
L 73.556549 48.681532 
L 73.500565 48.469845 
L 73.565879 48.613341 
L 73.624974 48.536405 
L 73.606312 48.69028 
L 73.668517 48.589095 
L 73.72139 48.697283 
L 73.70895 48.482547 
L 73.774264 48.526152 
L 73.786705 48.40148 
L 73.870681 48.627858 
L 73.886232 48.494823 
L 73.976428 48.655111 
L 73.908004 48.426537 
L 74.00131 48.609291 
L 74.054184 48.471917 
L 74.072845 48.67527 
L 74.119499 48.530268 
L 74.225246 48.659889 
L 74.253238 48.55994 
L 74.27812 48.443862 
L 74.28434 48.6858 
L 74.358985 48.649574 
L 74.442961 48.292246 
L 74.498945 48.553402 
L 74.592252 48.6866 
L 74.554929 48.483467 
L 74.595362 48.517098 
L 74.598472 48.436052 
L 74.688669 48.699599 
L 74.70422 48.489539 
L 74.722881 48.665418 
L 74.781975 48.349163 
L 74.813078 48.50648 
L 74.921935 48.34796 
L 74.887723 48.655559 
L 74.925046 48.41842 
L 74.98725 48.660981 
L 75.027683 48.481384 
L 75.114769 48.239679 
L 75.077446 48.637897 
L 75.136541 48.423927 
L 75.164532 48.690143 
L 75.198745 48.163719 
L 75.257839 48.527877 
L 75.320043 48.280542 
L 75.295162 48.662792 
L 75.372917 48.413902 
L 75.475554 48.634703 
L 75.444452 48.272496 
L 75.484885 48.527782 
L 75.571971 48.691291 
L 75.5502 48.491631 
L 75.596853 48.66157 
L 75.659057 48.376315 
L 75.677719 48.684374 
L 75.708821 48.520486 
L 75.764805 48.679422 
L 75.730593 48.386602 
L 75.820789 48.583203 
L 75.882993 48.494125 
L 75.848781 48.679169 
L 75.929647 48.559821 
L 75.97941 48.683975 
L 75.994961 48.415674 
L 76.038504 48.548687 
L 76.044725 48.527494 
L 76.047835 48.556933 
L 76.144252 48.700321 
L 76.100709 48.465251 
L 76.159803 48.633073 
L 76.200236 48.679111 
L 76.209566 48.46428 
L 76.25622 48.630939 
L 76.309093 48.534833 
L 76.361967 48.688367 
L 76.365077 48.672883 
L 76.374408 48.691893 
L 76.489486 48.396105 
L 76.526809 48.674467 
L 76.570352 48.309569 
L 76.604564 48.533505 
L 76.710312 48.450395 
L 76.68854 48.694919 
L 76.716532 48.472267 
L 76.8285 48.677238 
L 76.83161 48.61976 
L 76.921807 48.454046 
L 76.903146 48.667046 
L 76.940468 48.625131 
L 77.064877 48.406962 
L 77.018224 48.672797 
L 77.074208 48.553808 
L 77.10531 48.684218 
L 77.127081 48.332587 
L 77.186176 48.631443 
L 77.226608 48.418926 
L 77.24527 48.644695 
L 77.295033 48.518492 
L 77.329246 48.695815 
L 77.372789 48.413734 
L 77.403891 48.494189 
L 77.419442 48.399766 
L 77.431883 48.663985 
L 77.497198 48.656262 
L 77.500308 48.681839 
L 77.5283 48.310354 
L 77.571843 48.451423 
L 77.574953 48.351738 
L 77.662039 48.685732 
L 77.680701 48.491023 
L 77.758456 48.704064 
L 77.721133 48.398989 
L 77.786448 48.412189 
L 77.792668 48.360232 
L 77.839322 48.660531 
L 77.854873 48.588045 
L 77.864203 48.684816 
L 77.95129 48.487029 
L 77.966841 48.616087 
L 78.072588 48.692081 
L 77.985502 48.328661 
L 78.075698 48.657714 
L 78.081919 48.369981 
L 78.113021 48.677664 
L 78.187666 48.542766 
L 78.296524 48.629398 
L 78.268532 48.41363 
L 78.299634 48.575771 
L 78.333847 48.491213 
L 78.352508 48.688927 
L 78.405382 48.663477 
L 78.486248 48.521998 
L 78.430264 48.694387 
L 78.52046 48.595745 
L 78.52357 48.693964 
L 78.532901 48.477692 
L 78.629318 48.558594 
L 78.644869 48.684362 
L 78.707073 48.492589 
L 78.741286 48.620279 
L 78.769278 48.494499 
L 78.747506 48.662123 
L 78.853253 48.533184 
L 78.859474 48.652245 
L 78.94656 48.479135 
L 78.965221 48.632291 
L 79.042977 48.428538 
L 79.030536 48.695574 
L 79.070969 48.594891 
L 79.114512 48.501028 
L 79.182937 48.690165 
L 79.217149 48.518751 
L 79.298015 48.547453 
L 79.388211 48.69293 
L 79.378881 48.537474 
L 79.406873 48.609562 
L 79.419314 48.434089 
L 79.459746 48.682431 
L 79.51573 48.577812 
L 79.577935 48.681966 
L 79.605927 48.440259 
L 79.624588 48.549748 
L 79.699233 48.317516 
L 79.65569 48.664317 
L 79.711674 48.607326 
L 79.79876 48.669012 
L 79.721005 48.502533 
L 79.801871 48.630619 
L 79.907618 48.45866 
L 79.870295 48.687823 
L 79.910728 48.477175 
L 79.997814 48.685006 
L 79.957382 48.370449 
L 80.019586 48.502785 
L 80.038247 48.407054 
L 80.106672 48.677746 
L 80.112893 48.685064 
L 80.131554 48.55169 
L 80.153325 48.222241 
L 80.209309 48.686881 
L 80.243522 48.449403 
L 80.330608 48.661023 
L 80.277734 48.233124 
L 80.35238 48.357025 
L 80.402143 48.675998 
L 80.467458 48.522111 
L 80.548323 48.685472 
L 80.476788 48.452807 
L 80.579426 48.609111 
L 80.616748 48.410568 
L 80.601197 48.666908 
L 80.688283 48.55932 
L 80.78781 48.687636 
L 80.744267 48.480737 
L 80.800251 48.588131 
L 80.905999 48.662589 
L 80.850015 48.474638 
L 80.912219 48.600042 
L 80.91844 48.500086 
L 80.986864 48.67816 
L 81.021077 48.536894 
L 81.098832 48.665758 
L 81.089502 48.46374 
L 81.133045 48.592023 
L 81.182808 48.493686 
L 81.157927 48.680005 
L 81.245013 48.528625 
L 81.338319 48.695021 
L 81.34765 48.44069 
L 81.356981 48.551871 
L 81.360091 48.472665 
L 81.444067 48.68814 
L 81.462728 48.652861 
L 81.478279 48.520579 
L 81.468949 48.67531 
L 81.49383 48.560515 
L 81.593357 48.484889 
L 81.556035 48.699232 
L 81.602688 48.509245 
L 81.711546 48.676091 
L 81.680444 48.451025 
L 81.714656 48.625361 
L 81.798632 48.431388 
L 81.814183 48.693679 
L 81.817293 48.587806 
L 81.9106 48.682711 
L 81.891938 48.374259 
L 81.923041 48.531821 
L 81.929261 48.388966 
L 81.944812 48.61131 
L 82.031898 48.57017 
L 82.112764 48.679382 
L 82.05989 48.395087 
L 82.131425 48.451105 
L 82.168748 48.408495 
L 82.181189 48.593211 
L 82.271385 48.678134 
L 82.283826 48.488686 
L 82.286936 48.5134 
L 82.361582 48.657209 
L 82.330479 48.421067 
L 82.408235 48.616735 
L 82.420676 48.679435 
L 82.470439 48.470241 
L 82.47666 48.519966 
L 82.538864 48.367582 
L 82.551305 48.696761 
L 82.585518 48.522953 
L 82.691265 48.699655 
L 82.641501 48.456581 
L 82.697485 48.609888 
L 82.75658 48.687681 
L 82.706816 48.470257 
L 82.775241 48.517977 
L 82.803233 48.363746 
L 82.849886 48.648672 
L 82.884099 48.55907 
L 82.89965 48.434159 
L 82.940083 48.684405 
L 82.989846 48.57759 
L 83.030279 48.662917 
L 83.04894 48.527594 
L 83.089373 48.562626 
L 83.092483 48.392855 
L 83.164018 48.695563 
L 83.198231 48.597404 
L 83.220002 48.644906 
L 83.257325 48.379829 
L 83.282207 48.520402 
L 83.291537 48.427663 
L 83.381734 48.659301 
L 83.384844 48.582711 
L 83.440828 48.687074 
L 83.453269 48.500983 
L 83.496812 48.587213 
L 83.527914 48.634221 
L 83.537245 48.527426 
L 83.540355 48.448294 
L 83.599449 48.665154 
L 83.642992 48.566572 
L 83.742519 48.682154 
L 83.670984 48.452737 
L 83.75185 48.590954 
L 83.75496 48.486475 
L 83.845157 48.698525 
L 83.857598 48.696972 
L 83.982006 48.459597 
L 83.991337 48.668387 
L 84.078423 48.341849 
L 84.093974 48.59579 
L 84.156179 48.420671 
L 84.118856 48.689937 
L 84.205942 48.533184 
L 84.3148 48.688235 
L 84.230824 48.496175 
L 84.333461 48.669534 
L 84.439209 48.498941 
L 84.386335 48.689188 
L 84.445429 48.600917 
L 84.544956 48.698303 
L 84.535626 48.478479 
L 84.554287 48.626476 
L 84.582279 48.382374 
L 84.622712 48.665532 
L 84.663145 48.662044 
L 84.781333 48.43443 
L 84.709798 48.681248 
L 84.784443 48.511368 
L 84.815545 48.697168 
L 84.88397 48.441072 
L 84.893301 48.496642 
L 85.005269 48.697289 
L 84.992828 48.465609 
L 85.014599 48.648983 
L 85.104796 48.493575 
L 85.092355 48.692205 
L 85.126567 48.632098 
L 85.16078 48.687226 
L 85.210543 48.508292 
L 85.232315 48.32748 
L 85.30074 48.617687 
L 85.316291 48.534796 
L 85.372275 48.684944 
L 85.334952 48.265468 
L 85.403377 48.514141 
L 85.406487 48.363188 
L 85.493573 48.666163 
L 85.509124 48.635816 
L 85.546447 48.368115 
L 85.642864 48.591743 
L 85.72995 48.682822 
L 85.661525 48.491064 
L 85.754832 48.594351 
L 85.785934 48.371643 
L 85.820146 48.66784 
L 85.86991 48.472164 
L 85.953886 48.67012 
L 85.991208 48.535368 
L 86.075184 48.439954 
L 86.0192 48.686219 
L 86.096956 48.639841 
L 86.168491 48.688609 
L 86.112507 48.501051 
L 86.199593 48.659207 
L 86.264908 48.491611 
L 86.274239 48.683831 
L 86.311561 48.615521 
L 86.355104 48.660305 
L 86.330222 48.516092 
L 86.370655 48.559191 
L 86.373766 48.417375 
L 86.454631 48.684739 
L 86.479513 48.606125 
L 86.544828 48.511823 
L 86.491954 48.671119 
L 86.57904 48.630127 
L 86.58215 48.696762 
L 86.635024 48.504293 
L 86.687898 48.618785 
L 86.771874 48.527358 
L 86.709669 48.697162 
L 86.784315 48.657137 
L 86.787425 48.687125 
L 86.812307 48.477954 
L 86.883842 48.625605 
L 86.961597 48.407963 
L 86.977148 48.691505 
L 86.99581 48.488992 
L 87.042463 48.671774 
L 87.061124 48.415026 
L 87.117108 48.606674 
L 87.232186 48.396197 
L 87.191753 48.671396 
L 87.241517 48.406118 
L 87.344154 48.650869 
L 87.28506 48.330327 
L 87.350375 48.394031 
L 87.496555 48.681821 
L 87.362816 48.233745 
L 87.508996 48.524918 
L 87.589862 48.474261 
L 87.527657 48.677519 
L 87.608523 48.575713 
L 87.614743 48.672804 
L 87.652066 48.405439 
L 87.71116 48.474574 
L 87.748483 48.329849 
L 87.736042 48.63278 
L 87.801357 48.599643 
L 87.826238 48.699755 
L 87.863561 48.358855 
L 87.903994 48.499342 
L 87.907104 48.480124 
L 87.959978 48.693393 
L 87.99419 48.572294 
L 88.071946 48.665544 
L 88.022182 48.403561 
L 88.099938 48.518069 
L 88.103048 48.519663 
L 88.112379 48.413768 
L 88.115489 48.408863 
L 88.118599 48.392463 
L 88.155922 48.629138 
L 88.190134 48.58257 
L 88.28033 48.680684 
L 88.252338 48.405427 
L 88.302102 48.625247 
L 88.382968 48.411727 
L 88.364306 48.656029 
L 88.41407 48.571198 
L 88.423401 48.693383 
L 88.498046 48.381662 
L 88.519817 48.473509 
L 88.522928 48.365509 
L 88.619344 48.692195 
L 88.625565 48.612412 
L 88.718871 48.676937 
L 88.687769 48.436839 
L 88.734423 48.608793 
L 88.84328 48.689246 
L 88.774855 48.416228 
L 88.849501 48.608201 
L 88.942807 48.420092 
L 88.861942 48.685433 
L 88.967689 48.468669 
L 88.992571 48.680682 
L 88.989461 48.463235 
L 89.104539 48.662532 
L 89.213396 48.473975 
L 89.160523 48.678615 
L 89.222727 48.569164 
L 89.306703 48.678211 
L 89.241388 48.468208 
L 89.340915 48.666004 
L 89.350246 48.532899 
L 89.434222 48.690709 
L 89.449773 48.599867 
L 89.511978 48.692321 
L 89.496426 48.5646 
L 89.558631 48.610699 
L 89.645717 48.698458 
L 89.673709 48.449083 
L 89.760795 48.686269 
L 89.695481 48.445284 
L 89.785677 48.538296 
L 89.801228 48.424697 
L 89.823 48.696294 
L 89.891424 48.631413 
L 89.990951 48.692448 
L 89.913196 48.473004 
L 89.997172 48.641711 
L 90.018943 48.384722 
L 90.056266 48.687207 
L 90.10914 48.59389 
L 90.208667 48.462017 
L 90.224218 48.691714 
L 90.25221 48.69488 
L 90.342406 48.436032 
L 90.417052 48.676358 
L 90.457484 48.654583 
L 90.53524 48.36801 
L 90.566342 48.599535 
L 90.603665 48.675166 
L 90.647208 48.467398 
L 90.67831 48.620388 
L 90.793388 48.412907 
L 90.805829 48.617153 
L 90.81205 48.497483 
L 90.914687 48.699816 
L 90.986222 48.388808 
L 91.029765 48.484226 
L 91.060867 48.699585 
L 91.10441 48.447834 
L 91.141733 48.571235 
L 91.191496 48.495626 
L 91.219488 48.686468 
L 91.23815 48.608395 
L 91.291023 48.674823 
L 91.275472 48.399363 
L 91.350118 48.634685 
L 91.390551 48.426624 
L 91.424763 48.690677 
L 91.458975 48.605539 
L 91.508739 48.69211 
L 91.549172 48.546858 
L 91.570943 48.65708 
L 91.701573 48.391671 
L 91.710903 48.490623 
L 91.766887 48.67593 
L 91.81354 48.440245 
L 91.822871 48.602438 
L 91.841532 48.474997 
L 91.888186 48.673453 
L 91.937949 48.531745 
L 92.043697 48.694736 
L 92.015705 48.525371 
L 92.053027 48.677336 
L 92.130783 48.474033 
L 92.062358 48.695451 
L 92.171216 48.533621 
L 92.273853 48.68665 
L 92.220979 48.495804 
L 92.283184 48.62291 
L 92.392041 48.488697 
L 92.329837 48.696679 
L 92.395152 48.629599 
L 92.444915 48.688544 
L 92.469797 48.416764 
L 92.497789 48.565349 
L 92.532001 48.687045 
L 92.609757 48.438736 
L 92.665741 48.683775 
L 92.715504 48.396521 
L 92.724835 48.585608 
L 92.843023 48.414577 
L 92.746606 48.69857 
L 92.846133 48.41982 
L 92.917669 48.683338 
L 92.880346 48.400426 
L 92.967432 48.567569 
L 93.045188 48.349671 
L 93.020306 48.670127 
L 93.0794 48.497492 
L 93.157155 48.680018 
L 93.185147 48.447948 
L 93.191368 48.512395 
L 93.244242 48.443994 
L 93.238021 48.673134 
L 93.284675 48.53654 
L 93.321997 48.675232 
L 93.35621 48.449923 
L 93.399753 48.665036 
L 93.415304 48.384014 
L 93.483729 48.673853 
L 93.514831 48.513215 
L 93.583256 48.680174 
L 93.524161 48.496418 
L 93.626799 48.595321 
L 93.720105 48.419757 
L 93.664121 48.662616 
L 93.729436 48.560824 
L 93.776089 48.695198 
L 93.754318 48.460882 
L 93.838294 48.587303 
L 93.860065 48.300172 
L 93.934711 48.691434 
L 93.940931 48.629067 
L 94.003135 48.694114 
L 94.015576 48.441301 
L 94.049789 48.617744 
L 94.133765 48.477316 
L 94.149316 48.684392 
L 94.152426 48.677041 
L 94.227071 48.698108 
L 94.217741 48.482005 
L 94.239512 48.566369 
L 94.314157 48.47306 
L 94.279945 48.680974 
L 94.34837 48.568313 
L 94.460338 48.690163 
L 94.3577 48.534025 
L 94.466558 48.646917 
L 94.475889 48.522489 
L 94.544314 48.683352 
L 94.575416 48.65948 
L 94.693604 48.521076 
L 94.606518 48.6941 
L 94.696714 48.540485 
L 94.699825 48.651207 
L 94.702935 48.607884 
" clip-path="url(#p9b100c7f80)" style="fill: none; stroke: #d62728; stroke-width: 0.5; stroke-linecap: square"/>
   </g>
  </g>
 </g>
 <defs>
  <clipPath id="p9b100c7f80">
   <rect x="0" y="-0" width="99.212598" height="51.023622"/>
  </clipPath>
 </defs>
</svg>
