<?xml version="1.0" encoding="utf-8" standalone="no"?>
<!DOCTYPE svg PUBLIC "-//W3C//DTD SVG 1.1//EN"
  "http://www.w3.org/Graphics/SVG/1.1/DTD/svg11.dtd">
<svg xmlns:xlink="http://www.w3.org/1999/xlink" width="99.212598pt" height="51.023622pt" viewBox="0 0 99.212598 51.023622" xmlns="http://www.w3.org/2000/svg" version="1.1">
 <metadata>
  <rdf:RDF xmlns:dc="http://purl.org/dc/elements/1.1/" xmlns:cc="http://creativecommons.org/ns#" xmlns:rdf="http://www.w3.org/1999/02/22-rdf-syntax-ns#">
   <cc:Work>
    <dc:type rdf:resource="http://purl.org/dc/dcmitype/StillImage"/>
    <dc:date>2024-10-30T10:51:18.788999</dc:date>
    <dc:format>image/svg+xml</dc:format>
    <dc:creator>
     <cc:Agent>
      <dc:title>Matplotlib v3.8.4, https://matplotlib.org/</dc:title>
     </cc:Agent>
    </dc:creator>
   </cc:Work>
  </rdf:RDF>
 </metadata>
 <defs>
  <style type="text/css">*{stroke-linejoin: round; stroke-linecap: butt}</style>
 </defs>
 <g id="figure_1">
  <g id="patch_1">
   <path d="M 0 51.023622 
L 99.212598 51.023622 
L 99.212598 0 
L 0 0 
L 0 51.023622 
z
" style="fill: none"/>
  </g>
  <g id="axes_1">
   <g id="patch_2">
    <path d="M 0 51.023622 
L 99.212598 51.023622 
L 99.212598 -0 
L 0 -0 
L 0 51.023622 
z
" style="fill: none"/>
   </g>
   <g id="matplotlib.axis_1">
    <g id="xtick_1"/>
    <g id="xtick_2"/>
   </g>
   <g id="matplotlib.axis_2">
    <g id="ytick_1"/>
    <g id="ytick_2"/>
   </g>
   <g id="line2d_1">
    <path d="M 4.509664 35.479126 
L 4.512774 35.752905 
L 4.553207 29.563882 
L 4.690056 2.319256 
L 4.73982 15.672864 
L 4.907772 45.446045 
L 4.910882 45.365105 
L 4.960645 40.627872 
L 5.007299 46.070819 
L 5.01974 48.006544 
L 5.078834 38.307776 
L 5.091275 37.332378 
L 5.144148 42.868287 
L 5.16592 46.962862 
L 5.215684 37.980867 
L 5.262337 44.818244 
L 5.405407 19.908261 
L 5.427178 22.006492 
L 5.501824 37.428661 
L 5.58891 31.590254 
L 5.703988 39.894995 
L 5.781744 47.942652 
L 5.822176 41.197955 
L 5.840838 39.288964 
L 5.893711 47.155354 
L 5.899932 47.996652 
L 5.934144 43.301555 
L 5.999459 46.009613 
L 6.210954 48.582662 
L 6.01812 45.843658 
L 6.223395 47.702261 
L 6.29804 41.924047 
L 6.360244 45.930995 
L 6.366465 45.940621 
L 6.372685 45.861621 
L 6.428669 44.83938 
L 6.453551 46.43034 
L 6.521976 48.398412 
L 6.543747 44.9042 
L 6.559299 43.890515 
L 6.609062 47.837531 
L 6.633944 47.445278 
L 6.661936 47.785237 
L 6.665046 47.894126 
L 6.72725 46.246928 
L 6.829888 42.416419 
L 6.86099 44.933303 
L 6.895202 43.798663 
L 6.985399 46.708686 
L 7.069375 44.772671 
L 7.00095 46.778627 
L 7.103587 46.305144 
L 7.162681 48.37806 
L 7.209335 46.101596 
L 7.243547 45.181984 
L 7.2902 46.437658 
L 7.405278 48.063603 
L 7.349294 44.395615 
L 7.411499 47.827527 
L 7.473703 46.05606 
L 7.442601 48.681001 
L 7.532797 47.469674 
L 7.57323 48.382716 
L 7.604333 46.479425 
L 7.632324 46.960683 
L 7.635435 46.915691 
L 7.688308 47.563551 
L 7.741182 48.563226 
L 7.775395 47.393182 
L 7.809607 48.343018 
L 7.946457 43.018281 
L 7.98689 45.585476 
L 8.011771 47.724173 
L 8.117519 47.38234 
L 8.13929 46.674633 
L 8.217046 48.125965 
L 8.223266 48.213589 
L 8.257479 47.08358 
L 8.26992 46.819359 
L 8.310352 48.366795 
L 8.360116 47.630568 
L 8.403659 46.108332 
L 8.431651 48.566771 
L 8.487635 46.844556 
L 8.540509 47.620045 
L 8.584052 46.005987 
L 8.593382 45.858264 
L 8.615154 46.624696 
L 8.680469 48.480407 
L 8.714681 46.408616 
L 8.783106 45.434603 
L 8.811098 46.46754 
L 8.947948 48.314024 
L 8.951058 48.185879 
L 9.038144 46.278098 
L 9.081687 46.88209 
L 9.178104 48.151876 
L 9.091018 46.819674 
L 9.193655 47.471331 
L 9.215427 46.021751 
L 9.305623 47.341893 
L 9.392709 46.672704 
L 9.339835 48.318524 
L 9.40826 47.398526 
L 9.436252 48.576696 
L 9.489126 46.425587 
L 9.504677 46.789058 
L 9.523338 46.987898 
L 9.538889 47.770508 
L 9.625976 48.677849 
L 9.653968 48.172878 
L 9.68818 47.116326 
L 9.737943 48.45544 
L 9.775266 48.67691 
L 9.821919 48.093149 
L 9.905895 46.719144 
L 9.936998 47.680126 
L 9.952549 48.247143 
L 10.005422 46.817391 
L 10.033414 47.02299 
L 10.132941 48.484772 
L 10.039635 47.001439 
L 10.24802 47.918946 
L 10.300893 47.186563 
L 10.322665 48.273198 
L 10.359987 47.740001 
L 10.419082 47.392424 
L 10.450184 48.000996 
L 10.475066 48.229893 
L 10.53727 47.238809 
L 10.54038 47.260562 
L 10.546601 47.196762 
L 10.583923 48.115184 
L 10.593254 48.394159 
L 10.671009 47.779947 
L 10.68034 47.780757 
L 10.736324 46.460167 
L 10.795418 47.582744 
L 10.873174 48.226619 
L 10.891835 47.074809 
L 10.944709 46.31771 
L 11.003803 46.747542 
L 11.069118 48.54318 
L 11.125102 47.223412 
L 11.187306 46.48409 
L 11.221518 47.534338 
L 11.233959 47.263397 
L 11.314825 46.985445 
L 11.286833 48.086401 
L 11.330376 47.494775 
L 11.414352 48.559216 
L 11.457895 48.225451 
L 11.485887 47.1507 
L 11.516989 48.502404 
L 11.572973 48.065828 
L 11.610296 48.476402 
L 11.66939 47.216894 
L 11.6725 47.145243 
L 11.703603 48.060952 
L 11.750256 47.882062 
L 11.862224 48.543906 
L 11.790689 47.650064 
L 11.868444 48.37402 
L 11.9462 47.53923 
L 11.896436 48.575378 
L 11.995963 47.96329 
L 12.002184 48.106199 
L 12.073719 47.174023 
L 12.076829 47.17435 
L 12.157695 46.526166 
L 12.182576 47.143036 
L 12.23234 46.890063 
L 12.306985 48.129008 
L 12.356749 48.64912 
L 12.384741 47.780042 
L 12.403402 47.238154 
L 12.443835 47.920686 
L 12.534031 48.666024 
L 12.484268 47.727378 
L 12.549582 47.846452 
L 12.642889 47.50491 
L 12.611787 48.406491 
L 12.65533 47.870845 
L 12.723755 48.667966 
L 12.698873 47.365976 
L 12.770408 48.32333 
L 12.80462 46.480974 
L 12.879266 48.231539 
L 12.882376 48.462228 
L 12.922809 47.198237 
L 12.991234 48.326182 
L 12.994344 48.405489 
L 13.047218 47.09177 
L 13.056548 47.164458 
L 13.059658 47.146327 
L 13.07832 47.573559 
L 13.103202 48.313556 
L 13.193398 47.813082 
L 13.292925 48.27389 
L 13.243161 47.295912 
L 13.302256 47.955565 
L 13.37068 47.300822 
L 13.417334 47.698725 
L 13.429775 48.257372 
L 13.457767 47.402525 
L 13.519971 47.460437 
L 13.6506 48.388036 
L 13.622608 47.441341 
L 13.656821 48.14326 
L 13.681702 47.29442 
L 13.762568 48.429572 
L 13.765678 48.358989 
L 13.830993 47.453678 
L 13.796781 48.691213 
L 13.896308 48.063992 
L 13.9243 48.439915 
L 13.946071 47.558991 
L 13.992725 47.85476 
L 13.998945 47.524757 
L 14.086031 48.190032 
L 14.101582 47.819109 
L 14.166897 48.623542 
L 14.126464 47.800393 
L 14.225991 48.224589 
L 14.313077 47.509466 
L 14.278865 48.383006 
L 14.341069 47.865757 
L 14.468588 47.29833 
L 14.418825 48.249916 
L 14.477919 47.350584 
L 14.524572 48.102579 
L 14.599217 47.58121 
L 14.670752 46.090131 
L 14.704965 47.639056 
L 14.820043 48.51561 
L 14.757839 47.37101 
L 14.826263 48.421826 
L 14.848035 48.504376 
L 14.872917 48.30001 
L 14.941342 47.608005 
L 14.91646 48.404401 
L 14.984885 48.030318 
L 15.003546 48.601528 
L 15.075081 47.774546 
L 15.103073 48.26984 
L 15.193269 47.804787 
L 15.146616 48.578535 
L 15.20571 48.246185 
L 15.211931 48.634499 
L 15.286576 47.202853 
L 15.311458 48.010073 
L 15.414095 47.103736 
L 15.355001 48.114864 
L 15.429646 47.600116 
L 15.516732 48.336088 
L 15.498071 47.530483 
L 15.554055 48.248806 
L 15.591378 47.16447 
L 15.647362 48.406207 
L 15.690905 47.53631 
L 15.697125 47.518724 
L 15.709566 47.69403 
L 15.777991 48.510422 
L 15.824644 48.148787 
L 15.877518 47.552331 
L 15.930392 48.201103 
L 16.029919 48.625504 
L 15.964604 47.430119 
L 16.04236 48.248621 
L 16.157438 47.458484 
L 16.176099 47.839818 
L 16.200981 48.499589 
L 16.288067 48.13313 
L 16.350271 47.303273 
L 16.384484 48.671373 
L 16.390704 48.614353 
L 16.403145 48.669188 
L 16.431137 47.878671 
L 16.437357 47.907611 
L 16.440468 47.781491 
L 16.512003 48.613485 
L 16.536885 48.292001 
L 16.61775 47.644711 
L 16.552436 48.436977 
L 16.630191 48.335598 
L 16.633301 48.605112 
L 16.651963 48.038466 
L 16.739049 48.274972 
L 16.785702 47.973958 
L 16.7546 48.443814 
L 16.835466 48.361921 
L 16.866568 48.654528 
L 16.934993 48.107974 
L 16.941213 48.212344 
L 16.947434 48.150518 
L 16.962985 48.531319 
L 16.981646 48.473295 
L 17.003418 48.686658 
L 17.04074 48.008219 
L 17.084283 48.316141 
L 17.221133 47.679059 
L 17.155818 48.637205 
L 17.230464 47.789457 
L 17.32688 48.669048 
L 17.289558 47.774089 
L 17.339321 48.015213 
L 17.395305 46.480463 
L 17.432628 48.196401 
L 17.445069 48.105111 
L 17.550816 48.593526 
L 17.479281 47.144452 
L 17.566367 48.568467 
L 17.569478 48.617597 
L 17.60058 48.12027 
L 17.653454 48.273386 
L 17.669005 48.034394 
L 17.737429 48.586632 
L 17.765421 48.20042 
L 17.787193 48.134357 
L 17.821405 48.426365 
L 17.846287 48.386943 
L 17.902271 48.668926 
L 17.939594 48.12032 
L 17.948924 48.12633 
L 17.952035 48.068807 
L 18.0329 48.559921 
L 18.048451 48.288203 
L 18.060892 48.548424 
L 18.132427 47.670466 
L 18.160419 48.346667 
L 18.16353 48.361672 
L 18.17597 47.908319 
L 18.256836 47.618345 
L 18.210183 48.289184 
L 18.269277 48.189141 
L 18.278608 48.66835 
L 18.303489 47.664986 
L 18.381245 48.467399 
L 18.415457 47.565258 
L 18.45278 48.548597 
L 18.499433 47.966828 
L 18.614512 48.642125 
L 18.552307 47.884465 
L 18.617622 48.54609 
L 18.679826 48.188116 
L 18.720259 48.640666 
L 18.72959 48.503971 
L 18.819786 48.032789 
L 18.73581 48.526301 
L 18.841558 48.398609 
L 18.850888 48.581935 
L 18.922423 47.871494 
L 18.947305 48.348404 
L 18.978407 48.051707 
L 18.987738 47.912895 
L 19.025061 48.605774 
L 19.074824 48.423179 
L 19.084155 48.675256 
L 19.105926 48.042118 
L 19.16191 48.321062 
L 19.183682 47.483937 
L 19.245886 48.607851 
L 19.270768 48.199526 
L 19.392067 48.622076 
L 19.342303 47.996645 
L 19.395177 48.606327 
L 19.457381 47.925666 
L 19.488483 48.666946 
L 19.528916 48.101043 
L 19.5849 48.617182 
L 19.538247 48.064646 
L 19.675097 48.29998 
L 19.687537 48.141271 
L 19.762183 48.567783 
L 19.777734 48.526687 
L 19.780844 48.574759 
L 19.821277 48.226497 
L 19.86793 48.226336 
L 19.917694 48.648692 
L 19.979898 48.013647 
L 20.038992 48.617946 
L 20.119858 48.496615 
L 20.175842 47.876935 
L 20.132299 48.535455 
L 20.244267 48.035945 
L 20.281589 48.582711 
L 20.350014 47.869295 
L 20.353125 47.976278 
L 20.359345 47.874902 
L 20.381116 48.47254 
L 20.458872 48.022973 
L 20.465092 48.017019 
L 20.468203 48.185908 
L 20.564619 48.674022 
L 20.511746 48.021204 
L 20.580171 48.28496 
L 20.685918 47.976336 
L 20.623714 48.520653 
L 20.704579 48.058405 
L 20.800996 48.631377 
L 20.732571 48.019429 
L 20.816547 48.177773 
L 20.828988 47.991865 
L 20.844539 48.579873 
L 20.919185 48.333533 
L 20.928515 48.556058 
L 21.012491 48.100476 
L 21.015601 48.080787 
L 21.043593 48.549377 
L 21.065365 48.385805 
L 21.115128 48.616025 
L 21.149341 47.86871 
L 21.158672 47.891271 
L 21.202215 48.592115 
L 21.180443 47.703164 
L 21.251978 47.899176 
L 21.267529 47.219376 
L 21.286191 48.091033 
L 21.363946 47.821655 
L 21.42615 48.535917 
L 21.482134 48.282198 
L 21.547449 48.005816 
L 21.503906 48.442048 
L 21.594102 48.200331 
L 21.730952 48.622169 
L 21.668748 48.188133 
L 21.734062 48.619218 
L 21.836699 48.230242 
L 21.799377 48.663192 
L 21.852251 48.442787 
L 21.874022 48.18221 
L 21.889573 48.564277 
L 21.933116 48.52347 
L 21.939337 48.670342 
L 22.026423 47.911206 
L 22.032643 48.030467 
L 22.038864 47.920702 
L 22.082407 48.368326 
L 22.107289 48.25701 
L 22.185044 48.649094 
L 22.138391 47.989997 
L 22.216146 48.191515 
L 22.228587 48.039526 
L 22.275241 48.672278 
L 22.321894 48.354828 
L 22.325004 48.360928 
L 22.328114 48.223393 
L 22.433862 48.060334 
L 22.368547 48.617057 
L 22.440082 48.183469 
L 22.443192 48.156707 
L 22.492956 48.636608 
L 22.520948 48.369254 
L 22.558271 48.660023 
L 22.576932 48.266857 
L 22.632916 48.463364 
L 22.651577 48.08715 
L 22.670238 48.652069 
L 22.747994 48.298177 
L 22.83197 47.915797 
L 22.775986 48.494152 
L 22.853741 48.424419 
L 22.863072 48.699061 
L 22.897285 48.173499 
L 22.959489 48.220362 
L 22.97815 48.224178 
L 22.993701 48.072079 
L 23.024804 48.579202 
L 23.083898 48.321381 
L 23.105669 48.229764 
L 23.115 48.519213 
L 23.146102 48.621849 
L 23.161653 48.148726 
L 23.186535 48.269755 
L 23.230078 47.924418 
L 23.25807 48.547796 
L 23.276731 48.450029 
L 23.373148 48.681317 
L 23.338936 48.239432 
L 23.39181 48.61281 
L 23.482006 47.339715 
L 23.39803 48.64961 
L 23.519329 47.874658 
L 23.606415 48.646193 
L 23.653068 48.480741 
L 23.783697 48.059277 
L 23.712162 48.635004 
L 23.793028 48.224874 
L 23.867673 48.677864 
L 23.908106 48.483111 
L 23.992082 48.2962 
L 23.932988 48.673111 
L 24.013854 48.566858 
L 24.054286 48.628942 
L 24.082278 48.1289 
L 24.085389 48.173066 
L 24.10094 47.973414 
L 24.156924 48.531905 
L 24.169365 48.442764 
L 24.181805 48.682739 
L 24.25334 48.055634 
L 24.262671 47.957467 
L 24.278222 48.341913 
L 24.312435 48.64754 
L 24.346647 48.068825 
L 24.380859 48.230224 
L 24.439954 47.834631 
L 24.405741 48.59243 
L 24.489717 48.204989 
L 24.551922 48.411036 
L 24.579914 48.071222 
L 24.583024 48.181871 
L 24.67633 47.958385 
L 24.617236 48.594451 
L 24.688771 48.338446 
L 24.707433 48.673671 
L 24.744755 48.261508 
L 24.803849 48.389347 
L 24.80696 48.396158 
L 24.81318 48.218783 
L 24.822511 48.032927 
L 24.847392 48.6677 
L 24.915817 48.450694 
L 24.95314 48.637941 
L 25.006014 48.19234 
L 25.024675 48.446831 
L 25.030895 48.58155 
L 25.061998 48.090933 
L 25.083769 48.188674 
L 25.108651 47.838395 
L 25.161525 48.271913 
L 25.214398 48.60525 
L 25.23617 48.007882 
L 25.264162 48.016523 
L 25.270382 47.938357 
L 25.332587 48.585903 
L 25.357469 48.386484 
L 25.369909 48.529498 
L 25.456996 48.108144 
L 25.463216 48.049348 
L 25.534751 48.587037 
L 25.537861 48.640734 
L 25.609396 48.055193 
L 25.621837 47.931942 
L 25.702703 48.607089 
L 25.715144 48.477391 
L 25.777348 47.835614 
L 25.740026 48.620706 
L 25.839553 48.296107 
L 25.861324 48.635908 
L 25.923529 48.171633 
L 25.967072 48.51109 
L 26.016835 47.85664 
L 26.038607 48.679962 
L 26.07904 48.415957 
L 26.166126 48.26605 
L 26.100811 48.664222 
L 26.172346 48.431273 
L 26.197228 48.649949 
L 26.250102 48.17686 
L 26.274983 48.186741 
L 26.281204 48.118108 
L 26.330967 48.676016 
L 26.358959 48.407745 
L 26.36829 48.644637 
L 26.461597 48.201477 
L 26.474038 47.951062 
L 26.561124 48.439626 
L 26.673092 48.147352 
L 26.610887 48.60137 
L 26.679312 48.271767 
L 26.710414 48.640727 
L 26.769508 48.045709 
L 26.872146 47.783429 
L 26.847264 48.515774 
L 26.878366 47.957754 
L 27.005885 48.610161 
L 27.07742 48.178376 
L 27.102302 48.663911 
L 27.124074 48.369889 
L 27.145845 48.279324 
L 27.161396 48.482118 
L 27.270254 48.679498 
L 27.254703 48.198211 
L 27.273364 48.64191 
L 27.410214 47.913985 
L 27.329348 48.683825 
L 27.419544 48.019575 
L 27.506631 48.667234 
L 27.556394 48.361838 
L 27.655921 47.999237 
L 27.587496 48.637243 
L 27.668362 48.170718 
L 27.708795 48.6821 
L 27.693244 48.007174 
L 27.78344 48.387751 
L 27.848755 47.8436 
L 27.823873 48.481307 
L 27.904739 47.997431 
L 27.932731 48.655179 
L 27.957613 47.962227 
L 28.026037 48.575937 
L 28.047809 48.06237 
L 28.110013 48.673828 
L 28.147336 48.136134 
L 28.231312 48.004606 
L 28.193989 48.609717 
L 28.246863 48.372279 
L 28.287296 48.648402 
L 28.271745 48.269971 
L 28.355721 48.375965 
L 28.377492 48.636787 
L 28.433476 48.095294 
L 28.439697 48.136705 
L 28.442807 48.078672 
L 28.498791 48.627152 
L 28.523673 48.582431 
L 28.526783 48.618296 
L 28.598318 48.193616 
L 28.604538 48.285505 
L 28.682294 48.024101 
L 28.648081 48.670885 
L 28.716506 48.22992 
L 28.781821 48.63919 
L 28.806703 48.185998 
L 28.828474 48.295925 
L 28.952883 48.672571 
L 28.91556 48.115205 
L 28.955993 48.583325 
L 29.030638 48.075109 
L 28.993316 48.658928 
L 29.067961 48.471948 
L 29.142606 48.249938 
L 29.099063 48.662271 
L 29.18926 48.294788 
L 29.291897 48.645474 
L 29.19548 48.273516 
L 29.310558 48.491204 
L 29.357212 47.922878 
L 29.394534 48.656993 
L 29.419416 48.444731 
L 29.459849 48.682149 
L 29.484731 48.241032 
L 29.518943 48.369312 
L 29.531384 48.169501 
L 29.568707 48.659708 
L 29.61225 48.51176 
L 29.658903 48.582656 
L 29.627801 48.242381 
L 29.705556 48.319811 
L 29.711777 48.174157 
L 29.801973 48.66374 
L 29.808193 48.605399 
L 29.923272 48.322042 
L 29.889059 48.681077 
L 29.926382 48.427968 
L 30.010358 48.636673 
L 29.982366 48.292158 
L 30.03524 48.396528 
L 30.153428 48.059628 
L 30.125436 48.698178 
L 30.156538 48.115176 
L 30.234294 48.604903 
L 30.162759 48.05825 
L 30.271616 48.192968 
L 30.287167 47.90436 
L 30.349372 48.63996 
L 30.380474 48.063859 
L 30.399135 48.589568 
L 30.501773 48.458022 
L 30.591969 48.679208 
L 30.529765 48.337623 
L 30.60441 48.50582 
L 30.644843 48.595161 
L 30.719488 48.174521 
L 30.800354 48.684956 
L 30.781692 48.142359 
L 30.834566 48.309487 
L 30.837676 48.266286 
L 30.850117 48.610694 
L 30.934093 48.414027 
L 30.943424 48.648425 
L 31.021179 48.188794 
L 31.042951 48.389961 
L 31.074053 48.678215 
L 31.055392 48.145789 
L 31.154919 48.387811 
L 31.248225 48.125679 
L 31.214013 48.596567 
L 31.263776 48.442942 
L 31.369524 48.669498 
L 31.30732 48.367712 
L 31.375744 48.649722 
L 31.475271 47.997017 
L 31.493933 48.414543 
L 31.605901 48.672509 
L 31.553027 48.111751 
L 31.615231 48.568198 
L 31.630782 48.231366 
L 31.661885 48.648092 
L 31.73653 48.267263 
L 31.764522 48.670558 
L 31.851608 48.492509 
L 31.907592 48.299926 
L 31.88582 48.640322 
L 31.966686 48.412253 
L 32.072434 48.666497 
L 32.02267 47.776753 
L 32.081764 48.561573 
L 32.094205 48.670477 
L 32.122197 48.297423 
L 32.140859 48.183631 
L 32.15952 48.486813 
L 32.224834 48.370078 
L 32.271488 48.59724 
L 32.29948 48.238555 
L 32.336802 48.470969 
L 32.346133 48.662996 
L 32.423889 48.238254 
L 32.44255 48.367518 
L 32.498534 48.180836 
L 32.507864 48.516779 
L 32.573179 48.669099 
L 32.548297 48.221484 
L 32.619832 48.573734 
L 32.710029 48.678673 
L 32.635383 48.286649 
L 32.719359 48.461075 
L 32.797115 48.210244 
L 32.778454 48.654108 
L 32.828217 48.498308 
L 32.918414 48.646114 
L 32.877981 48.232843 
L 32.940185 48.579997 
L 32.943295 48.606512 
L 32.983728 48.146688 
L 33.021051 48.344834 
L 33.024161 48.341212 
L 33.030381 48.494788 
L 33.120578 48.644981 
L 33.098806 48.082543 
L 33.139239 48.457138 
L 33.167231 48.192777 
L 33.201444 48.670071 
L 33.244987 48.512391 
L 33.269868 48.664856 
L 33.279199 48.325648 
L 33.282309 48.337762 
L 33.285419 48.097389 
L 33.388057 48.675864 
L 33.500025 48.326051 
L 33.468922 48.686217 
L 33.515576 48.389527 
L 33.57467 48.637129 
L 33.524906 48.314274 
L 33.633764 48.493941 
L 33.661756 48.681772 
L 33.71463 48.308336 
L 33.733291 47.982561 
L 33.795496 48.558413 
L 33.829708 48.190985 
L 33.885692 48.658531 
L 33.935455 48.144139 
L 33.938566 48.1533 
L 34.069195 48.667341 
L 33.963447 47.967096 
L 34.087856 48.580888 
L 34.190494 48.353431 
L 34.115848 48.695397 
L 34.196714 48.525221 
L 34.262029 48.671586 
L 34.28069 48.363588 
L 34.308682 48.595569 
L 34.383327 48.333123 
L 34.411319 48.678661 
L 34.42065 48.552645 
L 34.42687 48.679565 
L 34.482854 48.304933 
L 34.523287 48.488781 
L 34.604153 48.292543 
L 34.56994 48.694382 
L 34.629035 48.538927 
L 34.666357 48.677614 
L 34.725451 48.299733 
L 34.734782 48.142963 
L 34.750333 48.667908 
L 34.824978 48.501291 
L 34.837419 48.664558 
L 34.877852 48.299598 
L 34.905844 48.406026 
L 34.977379 48.083588 
L 34.927616 48.58112 
L 35.011592 48.435747 
L 35.048914 48.67958 
L 35.067576 48.154985 
L 35.117339 48.438415 
L 35.226197 48.16944 
L 35.204425 48.669272 
L 35.229307 48.227908 
L 35.307063 48.652392 
L 35.344385 48.464306 
L 35.359936 48.593009 
L 35.391038 48.103498 
L 35.394149 48.163728 
L 35.397259 48.075444 
L 35.484345 48.66425 
L 35.487455 48.50123 
L 35.499896 48.654262 
L 35.540329 48.090475 
L 35.596313 48.487136 
L 35.605644 48.444548 
L 35.618085 48.553522 
L 35.683399 48.678683 
L 35.652297 48.095422 
L 35.70206 48.306038 
L 35.714501 48.054998 
L 35.795367 48.638635 
L 35.804698 48.57872 
L 35.848241 48.677355 
L 35.857571 48.429793 
L 35.907335 48.277057 
L 35.935327 48.608006 
L 35.960209 48.567321 
L 35.994421 48.687903 
L 36.016193 48.431559 
L 36.065956 48.593021 
L 36.11883 48.351376 
L 36.097058 48.651446 
L 36.177924 48.524457 
L 36.202806 48.645261 
L 36.221467 48.474097 
L 36.237018 48.062472 
L 36.305443 48.674593 
L 36.327215 48.563369 
L 36.330325 48.588601 
L 36.383199 48.193226 
L 36.389419 48.20277 
L 36.392529 48.172299 
L 36.411191 48.672574 
L 36.464064 48.541509 
L 36.594694 48.203105 
L 36.495167 48.666415 
L 36.607135 48.437547 
L 36.709772 48.656978 
L 36.650678 48.308159 
L 36.719102 48.633834 
L 36.83107 48.134976 
L 36.806189 48.654647 
L 36.840401 48.355583 
L 36.939928 48.691665 
L 36.874613 48.092933 
L 36.955479 48.66451 
L 37.002132 48.156453 
L 36.9617 48.670135 
L 37.076778 48.496903 
L 37.089219 48.57923 
L 37.092329 48.400442 
L 37.10477 48.41408 
L 37.117211 48.216272 
L 37.207407 48.673851 
L 37.210517 48.490076 
L 37.275832 48.595987 
L 37.303824 48.34732 
L 37.313154 48.465391 
L 37.412681 48.196569 
L 37.381579 48.685405 
L 37.425122 48.286658 
L 37.502878 48.696618 
L 37.53398 48.361298 
L 37.561972 47.926046 
L 37.627287 48.694598 
L 37.636617 48.522689 
L 37.695712 48.64384 
L 37.664609 48.344424 
L 37.733034 48.489057 
L 37.779687 47.991162 
L 37.829451 48.590647 
L 37.845002 48.442662 
L 37.866774 48.096036 
L 37.894766 48.663586 
L 37.947639 48.47432 
L 38.059607 48.685356 
L 38.028505 48.379516 
L 38.068938 48.628369 
L 38.159134 48.338323 
L 38.134253 48.674209 
L 38.184016 48.523636 
L 38.295984 48.686226 
L 38.215118 48.181113 
L 38.299094 48.684241 
L 38.426613 48.359405 
L 38.439054 48.42212 
L 38.491928 48.672 
L 38.513699 48.324527 
L 38.544802 48.416774 
L 38.628778 48.167481 
L 38.579014 48.683685 
L 38.653659 48.375801 
L 38.681651 48.621589 
L 38.690982 48.308297 
L 38.768737 48.504918 
L 38.793619 47.956845 
L 38.865154 48.626426 
L 38.880705 48.468737 
L 38.914918 48.665865 
L 38.9398 48.146253 
L 38.989563 48.454135 
L 39.101531 48.097249 
L 39.051767 48.664295 
L 39.104641 48.173371 
L 39.22283 48.648264 
L 39.291254 48.254482 
L 39.241491 48.678113 
L 39.341018 48.578446 
L 39.353459 48.676833 
L 39.356569 48.494937 
L 39.421884 48.54046 
L 39.468537 48.148077 
L 39.536962 48.397061 
L 39.602276 48.597322 
L 39.65204 48.508816 
L 39.664481 48.684328 
L 39.717355 48.387873 
L 39.764008 48.597409 
L 39.879086 48.252067 
L 39.816882 48.642217 
L 39.885306 48.267503 
L 39.975503 48.682141 
L 40.000385 48.507014 
L 40.062589 48.569956 
L 40.043928 48.261984 
L 40.093691 48.435693 
L 40.177667 48.241291 
L 40.190108 48.654388 
L 40.196328 48.595244 
L 40.199439 48.634843 
L 40.270974 48.208252 
L 40.274084 48.235447 
L 40.280304 48.03442 
L 40.370501 48.509384 
L 40.432705 48.676734 
L 40.410934 48.286996 
L 40.479358 48.49096 
L 40.575775 48.367123 
L 40.541563 48.677744 
L 40.581996 48.55525 
L 40.585106 48.69874 
L 40.659751 48.106756 
L 40.687743 48.417094 
L 40.700184 48.153919 
L 40.774829 48.620515 
L 40.796601 48.429899 
L 40.843254 48.256968 
L 40.821483 48.645264 
L 40.874356 48.602233 
L 40.902348 48.672596 
L 40.911679 48.350705 
L 40.914789 48.273372 
L 40.983214 48.687009 
L 41.008096 48.606133 
L 41.011206 48.677664 
L 41.051639 48.33362 
L 41.113843 48.611701 
L 41.182268 48.329333 
L 41.191599 48.675767 
L 41.228922 48.470421 
L 41.288016 48.618067 
L 41.306677 48.339282 
L 41.309787 48.237765 
L 41.375102 48.641055 
L 41.409314 48.520298 
L 41.48396 48.629988 
L 41.440416 48.413915 
L 41.48707 48.538285 
L 41.552384 48.057125 
L 41.511952 48.645196 
L 41.599038 48.493181 
L 41.676793 48.672215 
L 41.648801 48.270801 
L 41.698565 48.421641 
L 41.751438 48.289803 
L 41.723446 48.666278 
L 41.801202 48.566756 
L 41.900729 48.663341 
L 41.822974 48.157022 
L 41.91317 48.628933 
L 41.981595 48.358651 
L 41.91939 48.644118 
L 42.022028 48.569754 
L 42.025138 48.689172 
L 42.124665 48.422021 
L 42.130885 48.560947 
L 42.239743 48.079786 
L 42.152657 48.691258 
L 42.258404 48.224889 
L 42.351711 48.643116 
L 42.379703 48.448683 
L 42.392144 48.195243 
L 42.454348 48.667864 
L 42.488561 48.49031 
L 42.507222 48.66395 
L 42.572537 48.310731 
L 42.575647 48.158014 
L 42.612969 48.649797 
L 42.675174 48.627248 
L 42.76226 48.231413 
L 42.737378 48.701405 
L 42.796472 48.454576 
L 42.855567 48.617436 
L 42.808913 48.378266 
L 42.883559 48.475313 
L 42.992416 48.249909 
L 42.90844 48.63518 
L 42.995526 48.278453 
L 43.104384 48.677204 
L 43.054621 48.261942 
L 43.110605 48.529774 
L 43.219462 48.37611 
L 43.163478 48.698411 
L 43.222573 48.462776 
L 43.253675 48.631498 
L 43.275446 48.355451 
L 43.33143 48.542883 
L 43.415406 48.262429 
L 43.390524 48.650857 
L 43.437178 48.633639 
L 43.511823 48.323344 
L 43.549146 48.576149 
L 43.633122 48.692182 
L 43.626901 48.416675 
L 43.648673 48.476021 
L 43.651783 48.367136 
L 43.667334 48.671971 
L 43.75753 48.511471 
L 43.794853 48.424443 
L 43.875719 48.677342 
L 43.972136 48.409947 
L 43.984576 48.698648 
L 43.990797 48.45882 
L 44.080993 48.634111 
L 44.059222 48.342468 
L 44.099655 48.511671 
L 44.205402 48.084416 
L 44.133867 48.686061 
L 44.220953 48.174448 
L 44.342252 48.624519 
L 44.345362 48.531482 
L 44.451109 48.349264 
L 44.392015 48.649248 
L 44.45422 48.533859 
L 44.503983 48.664372 
L 44.522645 48.335679 
L 44.559967 48.525687 
L 44.650164 48.281578 
L 44.569298 48.701103 
L 44.668825 48.429239 
L 44.690596 48.658004 
L 44.727919 48.368908 
L 44.780793 48.586657 
L 44.802564 48.224782 
L 44.836777 48.628707 
L 44.892761 48.42632 
L 44.939414 48.642474 
L 44.998508 48.264581 
L 45.051382 48.660988 
L 45.116697 48.487273 
L 45.135358 48.231778 
L 45.16957 48.684721 
L 45.225554 48.440175 
L 45.278428 48.697293 
L 45.262877 48.2148 
L 45.337522 48.576752 
L 45.427719 48.376303 
L 45.412167 48.689638 
L 45.44949 48.492004 
L 45.514805 48.681067 
L 45.477482 48.304362 
L 45.564568 48.606346 
L 45.642324 48.669633 
L 45.608111 48.363871 
L 45.660985 48.456283 
L 45.695197 48.149092 
L 45.741851 48.573467 
L 45.776063 48.382147 
L 45.850708 48.654577 
L 45.888031 48.453478 
L 45.894252 48.204076 
L 45.922244 48.641709 
L 45.993779 48.567395 
L 46.043542 48.674386 
L 46.083975 48.345769 
L 46.090195 48.291158 
L 46.161731 48.677686 
L 46.186612 48.446848 
L 46.239486 48.667955 
L 46.30169 48.6103 
L 46.351454 48.285713 
L 46.370115 48.654213 
L 46.410548 48.581547 
L 46.513185 48.658587 
L 46.466532 48.181724 
L 46.519406 48.575432 
L 46.562949 48.444942 
L 46.528736 48.678538 
L 46.590941 48.654514 
L 46.594051 48.68198 
L 46.656255 48.446408 
L 46.693578 48.612584 
L 46.758893 48.19226 
L 46.709129 48.636305 
L 46.805546 48.391678 
L 46.892632 48.675789 
L 46.827318 48.161194 
L 46.920624 48.585813 
L 47.013931 48.631324 
L 46.964167 48.260379 
L 47.020151 48.426821 
L 47.110348 48.303814 
L 47.051253 48.679375 
L 47.119678 48.488849 
L 47.194324 48.688107 
L 47.169442 48.481796 
L 47.231646 48.645661 
L 47.328063 48.357521 
L 47.29074 48.676224 
L 47.340504 48.562495 
L 47.393378 48.654671 
L 47.440031 48.364925 
L 47.443141 48.33652 
L 47.455582 48.63142 
L 47.530227 48.514509 
L 47.56755 48.683448 
L 47.539558 48.473778 
L 47.632865 48.475666 
L 47.639085 48.34694 
L 47.719951 48.679286 
L 47.738612 48.493729 
L 47.747943 48.67744 
L 47.797706 48.250759 
L 47.84747 48.549269 
L 47.946997 48.234302 
L 47.869241 48.673557 
L 47.956327 48.380241 
L 48.030973 48.167172 
L 48.071406 48.684982 
L 48.118059 48.285169 
L 48.183374 48.663655 
L 48.310893 48.296986 
L 48.214476 48.692804 
L 48.320223 48.442547 
L 48.351325 48.649654 
L 48.397979 48.09294 
L 48.435301 48.553282 
L 48.460183 48.66495 
L 48.481955 48.452264 
L 48.522388 48.483117 
L 48.531718 48.240528 
L 48.621915 48.608018 
L 48.628135 48.57933 
L 48.718331 48.678321 
L 48.709001 48.44416 
L 48.733882 48.60883 
L 48.83341 48.298684 
L 48.771205 48.616267 
L 48.84585 48.396195 
L 48.923606 48.348241 
L 48.960929 48.674974 
L 49.035574 48.057776 
L 49.082227 48.580982 
L 49.156872 48.675671 
L 49.107109 48.39658 
L 49.194195 48.616417 
L 49.293722 48.404992 
L 49.212856 48.678799 
L 49.299943 48.538316 
L 49.303053 48.691975 
L 49.352816 48.315417 
L 49.4088 48.443649 
L 49.433682 48.691105 
L 49.526989 48.528062 
L 49.610965 48.107269 
L 49.564311 48.606754 
L 49.638957 48.341152 
L 49.710492 48.69084 
L 49.750924 48.497866 
L 49.813129 48.430965 
L 49.794468 48.664408 
L 49.82868 48.620679 
L 49.8349 48.6931 
L 49.875333 48.413866 
L 49.918876 48.472905 
L 50.021514 48.171685 
L 49.928207 48.503555 
L 50.033954 48.258254 
L 50.096159 48.670574 
L 50.127261 48.220119 
L 50.145922 48.322177 
L 50.158363 48.279972 
L 50.192576 48.658946 
L 50.217457 48.518025 
L 50.267221 48.687742 
L 50.273441 48.457155 
L 50.326315 48.64832 
L 50.369858 48.254927 
L 50.419622 48.682634 
L 50.438283 48.611862 
L 50.516039 48.269313 
L 50.544031 48.700225 
L 50.550251 48.488085 
L 50.590684 48.683795 
L 50.637337 48.374794 
L 50.659109 48.44546 
L 50.724423 48.679311 
L 50.67155 48.399123 
L 50.767966 48.450637 
L 50.771077 48.375643 
L 50.848832 48.668594 
L 50.867493 48.609176 
L 50.876824 48.699592 
L 50.948359 48.393733 
L 50.973241 48.502116 
L 51.010564 48.390055 
L 50.998123 48.655647 
L 51.066548 48.490299 
L 51.09454 48.676596 
L 51.134972 48.295318 
L 51.172295 48.361325 
L 51.274932 48.228023 
L 51.190956 48.662394 
L 51.281153 48.334463 
L 51.309145 48.672734 
L 51.39001 48.341499 
L 51.393121 48.265674 
L 51.430443 48.661813 
L 51.489537 48.481917 
L 51.585954 48.661556 
L 51.517529 48.384944 
L 51.598395 48.473626 
L 51.607726 48.421294 
L 51.617056 48.497949 
L 51.620167 48.486059 
L 51.645048 48.695362 
L 51.722804 48.366174 
L 51.729024 48.444493 
L 51.831662 48.243936 
L 51.778788 48.657265 
L 51.834772 48.473583 
L 51.95296 48.671345 
L 51.893866 48.231848 
L 51.95607 48.62424 
L 52.064928 48.382336 
L 52.008944 48.68281 
L 52.068038 48.456316 
L 52.136463 48.664878 
L 52.08981 48.341428 
L 52.189337 48.567761 
L 52.285754 48.2536 
L 52.207998 48.696802 
L 52.301305 48.545903 
L 52.304415 48.613451 
L 52.382171 48.289146 
L 52.410163 48.506698 
L 52.494139 48.364053 
L 52.456816 48.680292 
L 52.5128 48.545638 
L 52.606106 48.693926 
L 52.531461 48.425285 
L 52.627878 48.595582 
L 52.634098 48.665628 
L 52.643429 48.454434 
L 52.65276 48.263651 
L 52.708744 48.686811 
L 52.733625 48.622993 
L 52.786499 48.688091 
L 52.758507 48.417858 
L 52.836263 48.616812 
L 52.920239 48.423033 
L 52.94201 48.685735 
L 52.94512 48.581555 
L 53.029096 48.679241 
L 52.991774 48.477144 
L 53.050868 48.530487 
L 53.091301 48.301091 
L 53.125513 48.67151 
L 53.159726 48.533657 
L 53.197048 48.684094 
L 53.181497 48.473536 
L 53.274804 48.527324 
L 53.309016 48.675909 
L 53.392992 48.289754 
L 53.396102 48.291744 
L 53.402323 48.213052 
L 53.405433 48.087616 
L 53.464527 48.686723 
L 53.50496 48.53073 
L 53.592046 48.312741 
L 53.545393 48.691923 
L 53.610708 48.597056 
L 53.626259 48.694379 
L 53.663581 48.352866 
L 53.691573 48.477431 
L 53.694683 48.386206 
L 53.759998 48.623695 
L 53.797321 48.593299 
L 53.831533 48.655199 
L 53.809762 48.38517 
L 53.906178 48.62831 
L 54.002595 48.32388 
L 53.93417 48.669848 
L 54.024367 48.448843 
L 54.130114 48.667956 
L 54.033697 48.387329 
L 54.142555 48.587747 
L 54.164327 48.455727 
L 54.20476 48.692608 
L 54.251413 48.532825 
L 54.254523 48.669456 
L 54.35405 48.277893 
L 54.360271 48.467929 
L 54.388263 48.167479 
L 54.462908 48.568233 
L 54.472238 48.677803 
L 54.484679 48.335084 
L 54.568655 48.419309 
L 54.584206 48.679628 
L 54.671293 48.318304 
L 54.674403 48.321995 
L 54.677513 48.253001 
L 54.717946 48.656212 
L 54.77704 48.485452 
L 54.826804 48.452987 
L 54.808142 48.692551 
L 54.873457 48.468817 
L 54.948102 48.660081 
L 54.926331 48.314434 
L 54.982315 48.525669 
L 55.100503 48.362713 
L 55.028968 48.686811 
L 55.106723 48.385944 
L 55.168928 48.689645 
L 55.153377 48.377487 
L 55.218691 48.470865 
L 55.246683 48.380976 
L 55.290226 48.688719 
L 55.318218 48.613585 
L 55.327549 48.678561 
L 55.414635 48.44788 
L 55.420856 48.527521 
L 55.511052 48.317834 
L 55.461288 48.694641 
L 55.529713 48.511628 
L 55.551485 48.699069 
L 55.563926 48.335046 
L 55.62924 48.490122 
L 55.638571 48.383037 
L 55.728767 48.691877 
L 55.741208 48.429484 
L 55.747429 48.378444 
L 55.756759 48.526401 
L 55.75987 48.468293 
L 55.803413 48.697951 
L 55.828294 48.360638 
L 55.871838 48.57963 
L 55.881168 48.302261 
L 55.921601 48.667463 
L 55.980695 48.49065 
L 56.039789 48.674605 
L 56.080222 48.359274 
L 56.089553 48.458177 
L 56.173529 48.638153 
L 56.114435 48.394157 
L 56.179749 48.506391 
L 56.18286 48.307591 
L 56.1953 48.690834 
L 56.291717 48.350018 
L 56.294827 48.299312 
L 56.375693 48.664553 
L 56.385024 48.569855 
L 56.428567 48.673052 
L 56.469 48.167243 
L 56.493882 48.548691 
L 56.562306 48.378299 
L 56.521873 48.619718 
L 56.60896 48.391643 
L 56.658723 48.702196 
L 56.720928 48.556066 
L 56.742699 48.420038 
L 56.764471 48.684613 
L 56.823565 48.662127 
L 56.836006 48.608898 
L 56.848447 48.390636 
L 56.932423 48.676745 
L 56.947974 48.536481 
L 56.966635 48.696032 
L 57.03195 48.325955 
L 57.059942 48.597131 
L 57.087934 48.40509 
L 57.143918 48.675591 
L 57.168799 48.57714 
L 57.221673 48.669518 
L 57.18435 48.49116 
L 57.271437 48.569314 
L 57.296318 48.30987 
L 57.370964 48.636822 
L 57.377184 48.605667 
L 57.417617 48.693136 
L 57.402066 48.458432 
L 57.430058 48.551655 
L 57.520254 48.341796 
L 57.451829 48.682988 
L 57.542026 48.498196 
L 57.551356 48.681843 
L 57.619781 48.330574 
L 57.653994 48.540585 
L 57.722418 48.659819 
L 57.7473 48.439676 
L 57.762851 48.510562 
L 57.859268 48.303976 
L 57.797064 48.68165 
L 57.871709 48.41068 
L 57.983677 48.674154 
L 57.896591 48.097124 
L 57.986787 48.645811 
L 58.101865 48.350998 
L 58.017889 48.677267 
L 58.104976 48.438227 
L 58.176511 48.687321 
L 58.226274 48.607092 
L 58.269817 48.446315 
L 58.248046 48.677548 
L 58.338242 48.513705 
L 58.372454 48.692551 
L 58.406667 48.41751 
L 58.45021 48.620906 
L 58.496863 48.347765 
L 58.534186 48.690627 
L 58.555957 48.588345 
L 58.639933 48.338083 
L 58.661705 48.676235 
L 58.702138 48.333284 
L 58.770563 48.621229 
L 58.801665 48.653148 
L 58.832767 48.456006 
L 58.863869 48.54158 
L 58.944735 48.287586 
L 58.960286 48.563512 
L 58.975837 48.502173 
L 59.075364 48.395199 
L 58.988278 48.664406 
L 59.078474 48.482708 
L 59.094025 48.667968 
L 59.168671 48.360266 
L 59.190442 48.588212 
L 59.240206 48.687576 
L 59.227765 48.338066 
L 59.29619 48.554764 
L 59.327292 48.386617 
L 59.308631 48.640388 
L 59.349064 48.549819 
L 59.426819 48.680887 
L 59.414378 48.405086 
L 59.457921 48.570362 
L 59.510795 48.412827 
L 59.476583 48.663739 
L 59.563669 48.57477 
L 59.656975 48.659464 
L 59.572999 48.458062 
L 59.675637 48.65018 
L 59.712959 48.325439 
L 59.684967 48.678554 
L 59.787605 48.556545 
L 59.793825 48.657379 
L 59.856029 48.459795 
L 59.896462 48.642557 
L 59.936895 48.485537 
L 59.961777 48.69201 
L 60.00843 48.505237 
L 60.079965 48.66038 
L 60.104847 48.400335 
L 60.107957 48.48128 
L 60.114178 48.38058 
L 60.1515 48.664997 
L 60.219925 48.404413 
L 60.235476 48.700146 
L 60.313232 48.349881 
L 60.335003 48.611603 
L 60.353665 48.70313 
L 60.375436 48.54333 
L 60.378546 48.44827 
L 60.43453 48.690034 
L 60.487404 48.47607 
L 60.552719 48.693094 
L 60.562049 48.398698 
L 60.621144 48.573712 
L 60.689568 48.315131 
L 60.720671 48.694831 
L 60.726891 48.613346 
L 60.739332 48.655762 
L 60.761103 48.365226 
L 60.826418 48.534703 
L 60.879292 48.464945 
L 60.85441 48.670004 
L 60.925945 48.598142 
L 60.935276 48.69621 
L 61.016141 48.372986 
L 61.034803 48.566171 
L 61.124999 48.330009 
L 61.056574 48.621156 
L 61.146771 48.507147 
L 61.230747 48.443583 
L 61.156101 48.654233 
L 61.243188 48.519199 
L 61.289841 48.698831 
L 61.327163 48.410479 
L 61.358266 48.694203 
L 61.439131 48.392613 
L 61.488895 48.450573 
L 61.55421 48.679265 
L 61.526218 48.375175 
L 61.600863 48.477871 
L 61.607083 48.419098 
L 61.628855 48.683977 
L 61.691059 48.56653 
L 61.694169 48.678739 
L 61.784366 48.456007 
L 61.799917 48.521659 
L 61.899444 48.663732 
L 61.905664 48.407633 
L 61.98964 48.630317 
L 61.946097 48.360865 
L 62.026963 48.521208 
L 62.114049 48.343444 
L 62.089167 48.673198 
L 62.135821 48.555641 
L 62.232238 48.684221 
L 62.191805 48.404822 
L 62.238458 48.651767 
L 62.309993 48.694397 
L 62.353536 48.377334 
L 62.393969 48.674548 
L 62.474835 48.559496 
L 62.558811 48.248661 
L 62.540149 48.642495 
L 62.580582 48.558764 
L 62.667668 48.656184 
L 62.617905 48.344086 
L 62.68633 48.514133 
L 62.720542 48.439433 
L 62.708101 48.684873 
L 62.792077 48.520873 
L 62.813849 48.696836 
L 62.844951 48.370737 
L 62.900935 48.51802 
L 62.925817 48.442184 
L 62.997352 48.681448 
L 63.000462 48.606565 
L 63.003572 48.68381 
L 63.022233 48.546568 
L 63.10932 48.66964 
L 63.174634 48.485581 
L 63.127981 48.701388 
L 63.221287 48.533357 
L 63.249279 48.437549 
L 63.336366 48.67452 
L 63.411011 48.525224 
L 63.420342 48.690774 
L 63.451444 48.556582 
L 63.473215 48.679089 
L 63.519869 48.221524 
L 63.560301 48.565977 
L 63.600734 48.243166 
L 63.644277 48.662205 
L 63.669159 48.620309 
L 63.703372 48.644768 
L 63.737584 48.419003 
L 63.765576 48.530675 
L 63.877544 48.292164 
L 63.81845 48.683292 
L 63.886875 48.391948 
L 63.936638 48.692461 
L 63.998843 48.466829 
L 64.057937 48.403433 
L 64.070378 48.664126 
L 64.089039 48.624271 
L 64.154354 48.671884 
L 64.123251 48.46277 
L 64.185456 48.600562 
L 64.188566 48.477758 
L 64.272542 48.692061 
L 64.297424 48.485428 
L 64.409392 48.681679 
L 64.368959 48.407492 
L 64.415612 48.587585 
L 64.418722 48.415823 
L 64.474706 48.689891 
L 64.52447 48.481457 
L 64.623997 48.687133 
L 64.580454 48.476557 
L 64.636438 48.515501 
L 64.639548 48.489732 
L 64.707973 48.701037 
L 64.732854 48.546403 
L 64.735965 48.669747 
L 64.838602 48.457936 
L 64.844822 48.641302 
L 64.925688 48.682018 
L 64.891476 48.495381 
L 64.941239 48.565878 
L 65.003444 48.394033 
L 64.969231 48.698411 
L 65.050097 48.552084 
L 65.062538 48.276776 
L 65.168285 48.690712 
L 65.202498 48.387325 
L 65.286474 48.490641 
L 65.348678 48.653642 
L 65.295804 48.441052 
L 65.401552 48.633153 
L 65.51974 48.246679 
L 65.463756 48.656747 
L 65.525961 48.361183 
L 65.563283 48.686061 
L 65.634818 48.594726 
L 65.637928 48.369787 
L 65.706353 48.687284 
L 65.743676 48.552614 
L 65.818321 48.620248 
L 65.793439 48.316953 
L 65.836983 48.593245 
L 65.924069 48.424729 
L 65.874305 48.66436 
L 65.94895 48.480354 
L 65.955171 48.411728 
L 65.976942 48.651894 
L 66.048478 48.531094 
L 66.07958 48.68086 
L 66.095131 48.402373 
L 66.157335 48.545358 
L 66.21954 48.66766 
L 66.163556 48.508072 
L 66.241311 48.497759 
L 66.322177 48.388408 
L 66.294185 48.65916 
L 66.343948 48.615898 
L 66.452806 48.692037 
L 66.387492 48.466484 
L 66.462137 48.654207 
L 66.570994 48.457271 
L 66.521231 48.669513 
L 66.574105 48.587881 
L 66.679852 48.678307 
L 66.623868 48.381965 
L 66.686073 48.601743 
L 66.698514 48.619174 
L 66.695403 48.541778 
L 66.704734 48.569491 
L 66.810481 48.428473 
L 66.79182 48.693841 
L 66.813592 48.555161 
L 66.857135 48.68618 
L 66.847804 48.482642 
L 66.92556 48.644425 
L 67.046858 48.353444 
L 66.962882 48.679481 
L 67.049968 48.425131 
L 67.065519 48.650683 
L 67.105952 48.420855 
L 67.165047 48.631181 
L 67.264574 48.42791 
L 67.186818 48.690864 
L 67.277014 48.46985 
L 67.376541 48.684199 
L 67.323668 48.379126 
L 67.385872 48.522754 
L 67.404533 48.342239 
L 67.460517 48.686451 
L 67.485399 48.602736 
L 67.588036 48.657351 
L 67.49473 48.399789 
L 67.591147 48.531936 
L 67.594257 48.389189 
L 67.675123 48.693332 
L 67.700004 48.526751 
L 67.737327 48.643603 
L 67.768429 48.418155 
L 67.811972 48.574449 
L 67.886618 48.692483 
L 67.852405 48.511941 
L 67.92394 48.637634 
L 67.979924 48.474069 
L 67.992365 48.684017 
L 68.042129 48.579017 
L 68.113664 48.417301 
L 68.157207 48.693272 
L 68.287836 48.34132 
L 68.35004 48.647073 
L 68.374922 48.299406 
L 68.402914 48.487068 
L 68.440237 48.38225 
L 68.421575 48.632637 
L 68.502441 48.54156 
L 68.580197 48.683285 
L 68.521102 48.395865 
L 68.614409 48.628348 
L 68.729487 48.432179 
L 68.654842 48.677253 
L 68.732597 48.585194 
L 68.835235 48.700886 
L 68.77303 48.340349 
L 68.841455 48.553418 
L 68.91299 48.46312 
L 68.894329 48.668236 
L 68.950313 48.5001 
L 68.962754 48.673477 
L 69.04984 48.3909 
L 69.05295 48.416155 
L 69.05606 48.382787 
L 69.102714 48.683094 
L 69.143146 48.604805 
L 69.214682 48.682206 
L 69.180469 48.393085 
L 69.252004 48.612934 
L 69.304878 48.472945 
L 69.261335 48.704201 
L 69.363972 48.548637 
L 69.457279 48.658188 
L 69.423066 48.284278 
L 69.47905 48.61661 
L 69.581687 48.410133 
L 69.516373 48.67599 
L 69.587908 48.62697 
L 69.684325 48.478156 
L 69.61279 48.674432 
L 69.687435 48.562292 
L 69.690545 48.335636 
L 69.774521 48.672819 
L 69.799403 48.435343 
L 69.864718 48.678478 
L 69.930032 48.651012 
L 69.970465 48.476682 
L 69.995347 48.668823 
L 70.042 48.563481 
L 70.082433 48.390273 
L 70.113535 48.699346 
L 70.147748 48.555375 
L 70.219283 48.679556 
L 70.231723 48.427943 
L 70.250385 48.490692 
L 70.265936 48.295826 
L 70.293928 48.638576 
L 70.362353 48.435479 
L 70.365463 48.339429 
L 70.418337 48.685923 
L 70.46499 48.678684 
L 70.477431 48.653196 
L 70.548966 48.469396 
L 70.505423 48.680274 
L 70.589399 48.508796 
L 70.654713 48.643193 
L 70.614281 48.443528 
L 70.701367 48.534291 
L 70.720028 48.587466 
L 70.710697 48.637721 
L 70.726248 48.617353 
L 70.772902 48.670488 
L 70.794673 48.381434 
L 70.825776 48.541653 
L 70.863098 48.369246 
L 70.897311 48.680511 
L 70.934633 48.515658 
L 71.012389 48.686818 
L 70.956405 48.383762 
L 71.043491 48.629727 
L 71.146128 48.389438 
L 71.074593 48.68757 
L 71.152349 48.522083 
L 71.161679 48.682565 
L 71.189671 48.50652 
L 71.267427 48.642288 
L 71.31097 48.519669 
L 71.292309 48.68806 
L 71.373174 48.649828 
L 71.475812 48.682319 
L 71.422938 48.412373 
L 71.478922 48.671633 
L 71.575339 48.496913 
L 71.488252 48.682101 
L 71.59711 48.511838 
L 71.696637 48.678167 
L 71.609551 48.449684 
L 71.699747 48.514558 
L 71.789944 48.387389 
L 71.799274 48.677056 
L 71.802385 48.570754 
L 71.821046 48.667375 
L 71.842817 48.45602 
L 71.911242 48.592615 
L 71.917463 48.398589 
L 71.979667 48.68033 
L 72.02321 48.448187 
L 72.091635 48.699859 
L 72.048092 48.373682 
L 72.132068 48.443238 
L 72.200493 48.201303 
L 72.15695 48.630657 
L 72.219154 48.406406 
L 72.256477 48.631069 
L 72.231595 48.360801 
L 72.331122 48.482103 
L 72.343563 48.682253 
L 72.387106 48.413241 
L 72.43998 48.454518 
L 72.536397 48.671112 
L 72.555058 48.565424 
L 72.598601 48.464246 
L 72.635924 48.674274 
L 72.663916 48.583958 
L 72.716789 48.388308 
L 72.676356 48.699917 
L 72.760332 48.653031 
L 72.838088 48.697892 
L 72.822537 48.495314 
L 72.853639 48.590713 
L 72.884741 48.295041 
L 72.915843 48.659166 
L 72.962497 48.581893 
L 72.981158 48.684918 
L 73.00293 48.424133 
L 73.01537 48.445187 
L 73.024701 48.331551 
L 73.086905 48.664229 
L 73.118008 48.508286 
L 73.183322 48.703861 
L 73.167771 48.380673 
L 73.226865 48.557082 
L 73.301511 48.36964 
L 73.279739 48.658593 
L 73.338833 48.434094 
L 73.413479 48.669767 
L 73.457022 48.611653 
L 73.469463 48.547208 
L 73.550328 48.463153 
L 73.525447 48.68685 
L 73.57832 48.523473 
L 73.643635 48.689284 
L 73.624974 48.463304 
L 73.687178 48.527921 
L 73.771154 48.192955 
L 73.733831 48.683911 
L 73.789815 48.618428 
L 73.792925 48.683499 
L 73.830248 48.396047 
L 73.898673 48.61375 
L 73.967098 48.693635 
L 73.970208 48.588918 
L 74.038633 48.451771 
L 73.982649 48.6888 
L 74.079066 48.618299 
L 74.085286 48.593781 
L 74.110168 48.374873 
L 74.169262 48.697209 
L 74.197254 48.489329 
L 74.268789 48.70138 
L 74.243907 48.448338 
L 74.312332 48.630724 
L 74.343434 48.677673 
L 74.321663 48.572695 
L 74.371426 48.590821 
L 74.402529 48.416348 
L 74.464733 48.674717 
L 74.483394 48.542001 
L 74.56737 48.676618 
L 74.523827 48.389238 
L 74.589142 48.571826 
L 74.592252 48.432662 
L 74.614024 48.691021 
L 74.697999 48.582891 
L 74.732212 48.695104 
L 74.778865 48.355368 
L 74.794416 48.423041 
L 74.806857 48.568301 
L 74.809967 48.666243 
L 74.878392 48.43073 
L 74.918825 48.59462 
L 75.027683 48.321517 
L 74.977919 48.649337 
L 75.037013 48.449167 
L 75.13343 48.692715 
L 75.148981 48.607696 
L 75.201855 48.668496 
L 75.189414 48.363009 
L 75.251619 48.649372 
L 75.363587 48.313872 
L 75.2765 48.676461 
L 75.369807 48.454349 
L 75.376027 48.35272 
L 75.41335 48.686381 
L 75.447563 48.610579 
L 75.497326 48.676388 
L 75.534649 48.436535 
L 75.5502 48.547525 
L 75.649727 48.395941 
L 75.599963 48.606413 
L 75.659057 48.553576 
L 75.752364 48.445603 
L 75.724372 48.654953 
L 75.771025 48.545597 
L 75.864332 48.692703 
L 75.845671 48.444758 
L 75.879883 48.520803 
L 75.917206 48.415652 
L 75.904765 48.662996 
L 75.98252 48.585712 
L 76.069607 48.667335 
L 76.063386 48.444352 
L 76.088268 48.510643 
L 76.103819 48.67843 
L 76.197126 48.44466 
L 76.25933 48.688767 
L 76.305983 48.542039 
L 76.309093 48.457936 
L 76.321534 48.677198 
L 76.411731 48.512119 
L 76.417951 48.69087 
L 76.520588 48.559813 
L 76.610785 48.497888 
L 76.551691 48.704281 
L 76.626336 48.621583 
L 76.629446 48.697022 
L 76.660548 48.423821 
L 76.732083 48.508992 
L 76.816059 48.701707 
L 76.744524 48.464565 
L 76.847162 48.559225 
L 76.943578 48.462035 
L 76.881374 48.695174 
L 76.959129 48.516774 
L 77.021334 48.677049 
L 76.96846 48.420239 
L 77.064877 48.457519 
L 77.10842 48.696892 
L 77.204837 48.583209 
L 77.229719 48.349437 
L 77.310584 48.697535 
L 77.313695 48.539719 
L 77.366568 48.678327 
L 77.416332 48.491988 
L 77.428773 48.338365 
L 77.434993 48.66574 
L 77.515859 48.551822 
L 77.565622 48.474097 
L 77.627827 48.683426 
L 77.662039 48.402383 
L 77.739795 48.591245 
L 77.783338 48.687443 
L 77.792668 48.452951 
L 77.836212 48.478954 
L 77.845542 48.404245 
L 77.907747 48.680549 
L 77.941959 48.503603 
L 78.029045 48.693231 
L 77.95751 48.391716 
L 78.053927 48.514592 
L 78.113021 48.690296 
L 78.150344 48.428729 
L 78.172115 48.578546 
L 78.284083 48.41656 
L 78.190777 48.685414 
L 78.290304 48.474831 
L 78.371169 48.645275 
L 78.402272 48.484336 
L 78.470696 48.29344 
L 78.427153 48.682933 
L 78.495578 48.582481 
L 78.585775 48.692822 
L 78.557783 48.423967 
L 78.604436 48.579958 
L 78.713294 48.439371 
L 78.623097 48.674739 
L 78.722624 48.472145 
L 78.831482 48.684931 
L 78.791049 48.420308 
L 78.840813 48.5873 
L 78.893686 48.684731 
L 78.887466 48.538578 
L 78.934119 48.556641 
L 78.94034 48.366842 
L 79.014985 48.682292 
L 79.042977 48.578605 
L 79.133173 48.696474 
L 79.105181 48.435114 
L 79.151835 48.574375 
L 79.251362 48.678573 
L 79.186047 48.476232 
L 79.254472 48.572964 
L 79.360219 48.462996 
L 79.304235 48.695681 
L 79.36644 48.540084 
L 79.456636 48.67079 
L 79.450416 48.484003 
L 79.481518 48.548653 
L 79.484628 48.462011 
L 79.549943 48.687948 
L 79.590376 48.544088 
L 79.689903 48.681299 
L 79.65258 48.488135 
L 79.702344 48.638396 
L 79.811201 48.464429 
L 79.736556 48.659077 
L 79.814311 48.524678 
L 79.895177 48.470802 
L 79.92939 48.674364 
L 80.041358 48.463802 
L 79.951161 48.694712 
L 80.044468 48.516386 
L 80.143995 48.677405 
L 80.060019 48.45342 
L 80.156436 48.64148 
L 80.203089 48.41103 
L 80.252852 48.696115 
L 80.268404 48.5667 
L 80.283955 48.398407 
L 80.35549 48.654815 
L 80.374151 48.520319 
L 80.417694 48.693083 
L 80.389702 48.464541 
L 80.486119 48.596174 
L 80.551434 48.674173 
L 80.511001 48.495063 
L 80.585646 48.576027 
L 80.64474 48.51274 
L 80.604307 48.694418 
L 80.688283 48.63185 
L 80.691394 48.689153 
L 80.738047 48.418645 
L 80.794031 48.565 
L 80.853125 48.346927 
L 80.840684 48.682788 
L 80.893558 48.631264 
L 80.980644 48.691104 
L 80.989975 48.520911 
L 81.005526 48.686381 
L 81.030408 48.484446 
L 81.117494 48.642091 
L 81.176588 48.68383 
L 81.148596 48.516091 
L 81.220131 48.532176 
L 81.291666 48.692176 
L 81.332099 48.622166 
L 81.338319 48.446825 
L 81.363201 48.69789 
L 81.444067 48.558783 
L 81.518712 48.67712 
L 81.549814 48.518725 
L 81.552924 48.427356 
L 81.605798 48.68368 
L 81.661782 48.470358 
L 81.686664 48.702674 
L 81.671113 48.396739 
L 81.77686 48.593661 
L 81.845285 48.468338 
L 81.873277 48.682763 
L 81.885718 48.532304 
L 81.969694 48.680508 
L 81.90749 48.438366 
L 81.997686 48.61908 
L 82.084772 48.469773 
L 82.003906 48.676647 
L 82.118985 48.561923 
L 82.19674 48.666889 
L 82.19052 48.472549 
L 82.227842 48.549272 
L 82.237173 48.473696 
L 82.311818 48.693371 
L 82.3367 48.569993 
L 82.361582 48.616914 
L 82.34292 48.366481 
L 82.383353 48.494766 
L 82.47666 48.362661 
L 82.442447 48.660694 
L 82.489101 48.59769 
L 82.557526 48.67647 
L 82.517093 48.473891 
L 82.573077 48.522913 
L 82.576187 48.436702 
L 82.61662 48.677957 
L 82.678824 48.479716 
L 82.737918 48.698845 
L 82.790792 48.580544 
L 82.862327 48.69834 
L 82.89965 48.43795 
L 82.983626 48.691617 
L 83.011618 48.646252 
L 83.04272 48.414593 
L 83.108035 48.695876 
L 83.129806 48.481599 
L 83.19201 48.683703 
L 83.241774 48.5789 
L 83.335081 48.50304 
L 83.291537 48.673986 
L 83.341301 48.622056 
L 83.422167 48.663765 
L 83.363073 48.40316 
L 83.440828 48.515782 
L 83.490592 48.411984 
L 83.531024 48.665522 
L 83.549686 48.487896 
L 83.599449 48.700244 
L 83.61189 48.444451 
L 83.658543 48.63539 
L 83.711417 48.683977 
L 83.773622 48.414342 
L 83.814054 48.662744 
L 83.88559 48.545579 
L 83.966455 48.683301 
L 83.975786 48.492659 
L 84.013109 48.633791 
L 84.03488 48.510901 
L 84.022439 48.695408 
L 84.125076 48.571517 
L 84.233934 48.68176 
L 84.17795 48.490318 
L 84.237044 48.651825 
L 84.333461 48.537994 
L 84.293028 48.704366 
L 84.345902 48.652983 
L 84.411217 48.700303 
L 84.429878 48.47641 
L 84.445429 48.631997 
L 84.554287 48.409502 
L 84.495193 48.657587 
L 84.557397 48.532673 
L 84.585389 48.520623 
L 84.572948 48.644706 
L 84.591609 48.606138 
L 84.663145 48.662772 
L 84.684916 48.480827 
L 84.697357 48.582231 
L 84.787553 48.33321 
L 84.719128 48.663792 
L 84.806215 48.553293 
L 84.896411 48.684824 
L 84.824876 48.491052 
L 84.915072 48.550769 
L 84.924403 48.687855 
L 84.989718 48.488465 
L 84.992828 48.687916 
L 85.011489 48.416575 
L 85.101686 48.606772 
L 85.148339 48.44784 
L 85.173221 48.673314 
L 85.204323 48.64755 
L 85.207433 48.684292 
L 85.260307 48.477715 
L 85.30696 48.569807 
L 85.331842 48.38481 
L 85.369164 48.661622 
L 85.406487 48.660884 
L 85.422038 48.462516 
L 85.499794 48.685675 
L 85.599321 48.468433 
L 85.611762 48.54042 
L 85.633533 48.69407 
L 85.701958 48.455552 
L 85.720619 48.596264 
L 85.773493 48.422449 
L 85.73617 48.667298 
L 85.829477 48.601744 
L 85.932114 48.688922 
L 85.845028 48.476673 
L 85.938335 48.669954 
L 85.975657 48.474807 
L 85.953886 48.694835 
L 86.053413 48.576559 
L 86.087625 48.662733 
L 86.065854 48.454191 
L 86.165381 48.619313 
L 86.230695 48.691633 
L 86.255577 48.450439 
L 86.277349 48.625292 
L 86.376876 48.69399 
L 86.29601 48.494604 
L 86.386206 48.653664 
L 86.454631 48.491548 
L 86.43286 48.693112 
L 86.498174 48.539922 
L 86.57282 48.67762 
L 86.57904 48.488703 
L 86.607032 48.638012 
L 86.672347 48.514412 
L 86.628804 48.695748 
L 86.71589 48.566708 
L 86.796755 48.669603 
L 86.756323 48.480714 
L 86.821637 48.492425 
L 86.899393 48.417593 
L 86.880731 48.671515 
L 86.918054 48.564436 
L 86.974038 48.692577 
L 86.946046 48.416996 
L 87.030022 48.595482 
L 87.120218 48.684134 
L 87.067345 48.495207 
L 87.129549 48.520805 
L 87.132659 48.384085 
L 87.154431 48.675692 
L 87.238407 48.614212 
L 87.322383 48.682292 
L 87.297501 48.371626 
L 87.344154 48.604784 
L 87.409469 48.428111 
L 87.384587 48.691718 
L 87.453012 48.589129 
L 87.487224 48.679214 
L 87.515216 48.398886 
L 87.56187 48.576254 
L 87.627184 48.507052 
L 87.611633 48.663888 
L 87.636515 48.525145 
L 87.642735 48.6764 
L 87.676948 48.387238 
L 87.745373 48.451733 
L 87.748483 48.32279 
L 87.801357 48.700582 
L 87.85112 48.566066 
L 87.866671 48.486939 
L 87.879112 48.679173 
L 87.947537 48.581095 
L 88.006631 48.699857 
L 88.037733 48.439068 
L 88.056395 48.594793 
L 88.159032 48.466998 
L 88.115489 48.69289 
L 88.162142 48.563645 
L 88.199465 48.691412 
L 88.261669 48.491798 
L 88.27411 48.614018 
L 88.348755 48.387666 
L 88.389188 48.639251 
L 88.491825 48.686587 
L 88.460723 48.522953 
L 88.494936 48.651481 
L 88.585132 48.396772 
L 88.513597 48.668264 
L 88.603793 48.619562 
L 88.6971 48.672861 
L 88.650447 48.458242 
L 88.706431 48.656705 
L 88.743753 48.403792 
L 88.781076 48.684729 
L 88.821509 48.502307 
L 88.827729 48.477487 
L 88.942807 48.69211 
L 88.945918 48.520365 
L 88.98013 48.696783 
L 89.054775 48.534766 
L 89.104539 48.688314 
L 89.1232 48.442853 
L 89.169853 48.611835 
L 89.213396 48.498141 
L 89.26316 48.693957 
L 89.281821 48.574395 
L 89.368907 48.483772 
L 89.316034 48.697431 
L 89.381348 48.60521 
L 89.446663 48.689712 
L 89.434222 48.516404 
L 89.487096 48.672055 
L 89.508867 48.519996 
L 89.527529 48.692218 
L 89.595954 48.609958 
L 89.599064 48.703869 
L 89.68926 48.465097 
L 89.704811 48.625846 
L 89.729693 48.456699 
L 89.785677 48.688316 
L 89.813669 48.589589 
L 89.875873 48.697428 
L 89.823 48.495612 
L 89.922527 48.53084 
L 89.96607 48.688548 
L 89.959849 48.473147 
L 90.031384 48.555808 
L 90.034495 48.497141 
L 90.096699 48.691966 
L 90.137132 48.611563 
L 90.158903 48.693337 
L 90.196226 48.437839 
L 90.236659 48.482344 
L 90.264651 48.681358 
L 90.308194 48.380935 
L 90.354847 48.587078 
L 90.454374 48.412595 
L 90.379729 48.689961 
L 90.463705 48.496687 
L 90.513468 48.700124 
L 90.485476 48.478439 
L 90.578783 48.692561 
L 90.619216 48.502445 
L 90.690751 48.627753 
L 90.752955 48.700355 
L 90.765396 48.536857 
L 90.787168 48.643297 
L 90.889805 48.416815 
L 90.833821 48.666669 
L 90.899136 48.533644 
L 90.992442 48.686976 
L 90.920907 48.428431 
L 91.007993 48.594233 
L 91.032875 48.425813 
L 91.067088 48.67628 
L 91.116851 48.526672 
L 91.200827 48.700959 
L 91.191496 48.436664 
L 91.228819 48.633097 
L 91.266142 48.444268 
L 91.24748 48.679485 
L 91.340787 48.593983 
L 91.437204 48.701663 
L 91.350118 48.476838 
L 91.452755 48.648137 
L 91.490078 48.488447 
L 91.458975 48.68497 
L 91.564723 48.625634 
L 91.673581 48.691118 
L 91.592715 48.510518 
L 91.686021 48.662325 
L 91.704683 48.496713 
L 91.729564 48.693951 
L 91.8011 48.585086 
L 91.875745 48.684843 
L 91.891296 48.486589 
L 91.909957 48.602098 
L 91.94728 48.518592 
L 91.990823 48.686241 
L 92.006374 48.553248 
L 92.009484 48.679886 
L 92.102791 48.430663 
L 92.115232 48.510921 
L 92.174326 48.413933 
L 92.152554 48.635329 
L 92.2272 48.473985 
L 92.348498 48.686049 
L 92.283184 48.446709 
L 92.354719 48.624809 
L 92.469797 48.467259 
L 92.37027 48.676109 
L 92.472907 48.54531 
L 92.566214 48.669179 
L 92.553773 48.467336 
L 92.581765 48.583736 
L 92.603536 48.248801 
L 92.65641 48.680384 
L 92.687512 48.617884 
L 92.731055 48.691706 
L 92.703063 48.475958 
L 92.79015 48.499324 
L 92.824362 48.668702 
L 92.880346 48.322749 
L 92.889677 48.391886 
L 92.982983 48.643791 
L 92.967432 48.363118 
L 93.010975 48.485395 
L 93.017196 48.458719 
L 93.032747 48.65578 
L 93.035857 48.655885 
L 93.038967 48.69565 
L 93.094951 48.405436 
L 93.126053 48.530264 
L 93.182037 48.391635 
L 93.160266 48.695368 
L 93.231801 48.617522 
L 93.346879 48.514613 
L 93.241131 48.656645 
L 93.36554 48.564149 
L 93.458847 48.682001 
L 93.452626 48.509036 
L 93.477508 48.671075 
L 93.545933 48.428232 
L 93.486839 48.69273 
L 93.592586 48.637514 
L 93.676562 48.676816 
L 93.654791 48.524419 
L 93.682783 48.579853 
L 93.757428 48.487647 
L 93.766759 48.670882 
L 93.79164 48.561568 
L 93.813412 48.682141 
L 93.884947 48.418197 
L 93.903608 48.627884 
L 93.934711 48.493613 
L 93.972033 48.677821 
L 94.015576 48.546977 
L 94.021797 48.678912 
L 94.115103 48.525865 
L 94.127544 48.633768 
L 94.192859 48.467768 
L 94.155536 48.664616 
L 94.233292 48.649856 
L 94.307937 48.683725 
L 94.261284 48.520093 
L 94.335929 48.625043 
L 94.419905 48.535367 
L 94.342149 48.680078 
L 94.447897 48.544388 
L 94.482109 48.696884 
L 94.528763 48.418274 
L 94.559865 48.646621 
L 94.690494 48.506567 
L 94.584746 48.670095 
L 94.699825 48.541996 
L 94.702935 48.610196 
L 94.702935 48.610196 
" clip-path="url(#p6e9c0fe266)" style="fill: none; stroke: #bcbd22; stroke-width: 0.5; stroke-linecap: square"/>
   </g>
  </g>
 </g>
 <defs>
  <clipPath id="p6e9c0fe266">
   <rect x="0" y="-0" width="99.212598" height="51.023622"/>
  </clipPath>
 </defs>
</svg>
