<?xml version="1.0" encoding="utf-8" standalone="no"?>
<!DOCTYPE svg PUBLIC "-//W3C//DTD SVG 1.1//EN"
  "http://www.w3.org/Graphics/SVG/1.1/DTD/svg11.dtd">
<svg xmlns:xlink="http://www.w3.org/1999/xlink" width="99.212598pt" height="51.023622pt" viewBox="0 0 99.212598 51.023622" xmlns="http://www.w3.org/2000/svg" version="1.1">
 <metadata>
  <rdf:RDF xmlns:dc="http://purl.org/dc/elements/1.1/" xmlns:cc="http://creativecommons.org/ns#" xmlns:rdf="http://www.w3.org/1999/02/22-rdf-syntax-ns#">
   <cc:Work>
    <dc:type rdf:resource="http://purl.org/dc/dcmitype/StillImage"/>
    <dc:date>2024-10-30T10:51:16.651202</dc:date>
    <dc:format>image/svg+xml</dc:format>
    <dc:creator>
     <cc:Agent>
      <dc:title>Matplotlib v3.8.4, https://matplotlib.org/</dc:title>
     </cc:Agent>
    </dc:creator>
   </cc:Work>
  </rdf:RDF>
 </metadata>
 <defs>
  <style type="text/css">*{stroke-linejoin: round; stroke-linecap: butt}</style>
 </defs>
 <g id="figure_1">
  <g id="patch_1">
   <path d="M 0 51.023622 
L 99.212598 51.023622 
L 99.212598 0 
L 0 0 
L 0 51.023622 
z
" style="fill: none"/>
  </g>
  <g id="axes_1">
   <g id="patch_2">
    <path d="M 0 51.023622 
L 99.212598 51.023622 
L 99.212598 -0 
L 0 -0 
L 0 51.023622 
z
" style="fill: none"/>
   </g>
   <g id="matplotlib.axis_1">
    <g id="xtick_1"/>
    <g id="xtick_2"/>
   </g>
   <g id="matplotlib.axis_2">
    <g id="ytick_1"/>
    <g id="ytick_2"/>
   </g>
   <g id="line2d_1">
    <path d="M 4.509664 33.064977 
L 4.612301 35.747288 
L 4.550096 31.582641 
L 4.627852 34.715728 
L 4.680726 28.517373 
L 4.724269 35.216142 
L 4.774032 45.006114 
L 4.864229 43.916666 
L 4.867339 43.9503 
L 4.88289 43.096782 
L 5.066393 28.421564 
L 5.119267 22.2156 
L 5.16281 29.546293 
L 5.184581 33.142762 
L 5.234345 19.241957 
L 5.355643 2.319256 
L 5.383635 7.589915 
L 5.564028 46.720837 
L 5.59513 46.208136 
L 5.697768 47.554725 
L 5.632453 46.012403 
L 5.716429 46.755431 
L 5.909263 38.978105 
L 5.940365 40.024609 
L 6.027451 48.285562 
L 6.114537 43.547347 
L 6.15497 41.302784 
L 6.210954 43.709615 
L 6.270048 42.769581 
L 6.30115 45.573485 
L 6.341583 40.447739 
L 6.378906 42.726392 
L 6.406898 46.464315 
L 6.413118 47.393024 
L 6.450441 41.886004 
L 6.503315 44.233918 
L 6.57796 42.965498 
L 6.540637 45.602675 
L 6.596621 44.414616 
L 6.655715 48.422533 
L 6.689928 42.909966 
L 6.705479 41.886303 
L 6.761463 44.978645 
L 6.795675 43.393226 
L 6.801896 43.360694 
L 6.829888 44.841499 
L 6.941856 48.575823 
L 6.870321 44.52816 
L 6.982289 47.934944 
L 7.056934 44.631104 
L 7.1378 45.640284 
L 7.206224 48.546135 
L 7.268429 47.333853 
L 7.399058 39.355963 
L 7.436381 41.458736 
L 7.57323 47.309543 
L 7.591892 46.842035 
L 7.598112 46.712087 
L 7.638545 47.7071 
L 7.657206 48.305844 
L 7.734962 47.448865 
L 7.772284 46.181067 
L 7.825158 48.1662 
L 7.843819 47.388701 
L 7.84693 47.41251 
L 7.865591 46.832661 
L 8.021102 43.91049 
L 8.024212 44.040977 
L 8.052204 46.261416 
L 8.13307 43.963688 
L 8.142401 43.849516 
L 8.148621 44.082802 
L 8.238817 45.9671 
L 8.207715 43.863198 
L 8.285471 44.758093 
L 8.353896 42.594808 
L 8.319683 45.579776 
L 8.375667 44.750435 
L 8.391218 46.659538 
L 8.431651 43.111133 
L 8.487635 45.283057 
L 8.55295 47.639807 
L 8.630705 46.579142 
L 8.792437 48.179941 
L 8.811098 47.633781 
L 8.851531 46.046238 
L 8.891964 47.801432 
L 8.923066 47.437124 
L 8.926176 47.415369 
L 8.941727 47.959561 
L 8.954168 48.248847 
L 9.025703 47.248062 
L 9.031924 47.299049 
L 9.280741 41.169774 
L 9.056805 47.698166 
L 9.308733 43.192895 
L 9.40515 48.12217 
L 9.433142 45.353848 
L 9.448693 44.999215 
L 9.492236 46.947316 
L 9.535779 45.865474 
L 9.55133 46.622406 
L 9.629086 48.576378 
L 9.660188 46.654336 
L 9.700621 45.876181 
L 9.762825 47.224977 
L 9.837471 48.574109 
L 9.927667 47.81915 
L 9.97121 46.709071 
L 10.020973 48.119808 
L 10.027194 48.058071 
L 10.042745 48.230324 
L 10.058296 47.564315 
L 10.126721 48.607286 
L 10.210697 45.104456 
L 10.223138 44.927027 
L 10.276012 45.806858 
L 10.297783 46.843952 
L 10.359987 43.233548 
L 10.378649 42.55731 
L 10.419082 44.860531 
L 10.546601 48.537146 
L 10.465735 43.808552 
L 10.559042 48.211684 
L 10.639907 46.935891 
L 10.67723 47.675757 
L 10.699001 48.543179 
L 10.773647 47.095456 
L 10.779867 47.14947 
L 10.842072 46.631264 
L 10.860733 47.248237 
L 10.882504 48.519043 
L 10.994472 48.156178 
L 11.047346 46.106601 
L 11.112661 47.631663 
L 11.184196 48.403966 
L 11.215298 47.075057 
L 11.358368 45.67329 
L 11.268172 48.036872 
L 11.364589 45.804109 
L 11.392581 46.260074 
L 11.414352 45.674109 
L 11.429903 45.184285 
L 11.485887 47.198356 
L 11.495218 48.215843 
L 11.538761 45.0782 
L 11.588524 46.095708 
L 11.594745 45.946225 
L 11.625847 47.374147 
L 11.635178 47.313005 
L 11.644508 47.245975 
L 11.66317 47.56243 
L 11.759587 48.434559 
L 11.737815 47.292484 
L 11.772027 47.675908 
L 11.840452 46.888157 
L 11.80624 48.109466 
L 11.868444 48.102489 
L 11.874665 48.404698 
L 11.967971 47.340512 
L 12.064388 48.672363 
L 11.999073 46.930016 
L 12.114152 48.074143 
L 12.213679 47.534906 
L 12.191907 48.531502 
L 12.22612 47.934634 
L 12.23234 48.241566 
L 12.288324 46.765572 
L 12.313206 47.08266 
L 12.316316 47.057386 
L 12.341198 47.731907 
L 12.400292 48.484732 
L 12.443835 47.41044 
L 12.446945 47.420187 
L 12.468717 48.545621 
L 12.577574 47.974364 
L 12.667771 43.127347 
L 12.748636 46.328109 
L 12.779739 44.882635 
L 12.894817 48.405778 
L 12.916588 48.67472 
L 12.963242 47.555776 
L 13.050328 46.812194 
L 13.016115 47.564724 
L 13.07521 47.294202 
L 13.187178 48.416192 
L 13.22139 48.267396 
L 13.383121 47.13588 
L 13.292925 48.624495 
L 13.389342 47.302776 
L 13.414224 48.589864 
L 13.467097 46.603999 
L 13.495089 47.343548 
L 13.51064 46.70083 
L 13.582175 48.572003 
L 13.616388 47.838037 
L 13.697254 48.452751 
L 13.700364 48.518047 
L 13.778119 47.975137 
L 13.862095 46.533084 
L 13.796781 48.613119 
L 13.890087 47.905856 
L 13.905638 48.472713 
L 13.964733 46.629848 
L 13.974063 46.536585 
L 14.036268 48.33077 
L 14.039378 48.605877 
L 14.06737 46.546156 
L 14.138905 47.689793 
L 14.154456 48.001122 
L 14.173117 47.438356 
L 14.182448 47.236891 
L 14.21355 48.334849 
L 14.244652 48.325243 
L 14.319298 48.453697 
L 14.334849 48.037066 
L 14.337959 48.03548 
L 14.372171 47.225067 
L 14.431266 48.645243 
L 14.437486 48.583873 
L 14.446817 48.616502 
L 14.49347 48.424364 
L 14.543233 47.861113 
L 14.596107 48.435352 
L 14.602328 48.419149 
L 14.611658 48.558806 
L 14.63965 48.127784 
L 14.64276 48.152679 
L 14.711185 47.02519 
L 14.754728 47.963218 
L 14.77339 48.252914 
L 14.832484 47.316141 
L 14.838704 47.404116 
L 14.879137 46.982893 
L 14.91646 47.693482 
L 14.941342 47.546709 
L 15.034648 48.356679 
L 14.963113 47.501508 
L 15.06264 48.128494 
L 15.068861 48.147043 
L 15.165277 46.574523 
L 15.236813 44.982566 
L 15.280356 45.838656 
L 15.398544 48.461713 
L 15.426536 47.789569 
L 15.476299 48.31282 
L 15.544724 47.073296 
L 15.644251 48.623074 
L 15.557165 47.070501 
L 15.678464 47.693298 
L 15.694015 47.375099 
L 15.759329 48.473921 
L 15.76866 48.636262 
L 15.833975 47.930597 
L 15.855746 48.138872 
L 15.91484 48.517179 
L 15.930392 47.944816 
L 15.949053 47.520693 
L 16.026808 48.456465 
L 16.033029 48.349717 
L 16.057911 48.607705 
L 16.073462 48.156985 
L 16.104564 48.223741 
L 16.207201 47.646728 
L 16.176099 48.651564 
L 16.219642 47.824909 
L 16.300508 48.625471 
L 16.263185 47.185061 
L 16.33472 48.084691 
L 16.381374 48.588434 
L 16.434247 48.018937 
L 16.440468 48.092715 
L 16.60842 45.864181 
L 16.47779 48.528416 
L 16.623971 47.052611 
L 16.636412 48.647153 
L 16.664404 46.310867 
L 16.739049 47.6652 
L 16.798143 48.1485 
L 16.829245 46.865506 
L 16.838576 46.871995 
L 16.885229 48.320786 
L 16.972315 47.767536 
L 17.081173 48.477457 
L 17.124716 48.229649 
L 17.134047 47.91915 
L 17.18692 48.536692 
L 17.236684 48.091369 
L 17.301999 48.511864 
L 17.31755 48.020785 
L 17.354872 48.205985 
L 17.426407 47.817154 
L 17.376644 48.4265 
L 17.45751 48.271091 
L 17.46062 48.430767 
L 17.519714 47.395197 
L 17.563257 48.089267 
L 17.6068 48.52422 
L 17.625462 47.860726 
L 17.641013 47.605898 
L 17.693886 48.631411 
L 17.728099 48.218758 
L 17.790303 48.597379 
L 17.808965 48.007506 
L 17.871169 47.208451 
L 17.920932 47.896446 
L 17.936484 48.526987 
L 17.995578 46.351221 
L 18.008019 46.115323 
L 18.076443 47.488583 
L 18.095105 46.887791 
L 18.238175 48.554203 
L 18.31282 48.162768 
L 18.406127 47.133586 
L 18.427898 47.818017 
L 18.527425 48.612293 
L 18.505654 47.764256 
L 18.549197 48.407242 
L 18.58652 47.26609 
L 18.630063 48.551868 
L 18.654944 48.42716 
L 18.766912 48.657214 
L 18.698487 48.139252 
L 18.770023 48.560985 
L 18.788684 48.115556 
L 18.810455 48.643608 
L 18.885101 48.343161 
L 18.950415 48.658031 
L 18.937974 48.213199 
L 18.987738 48.260976 
L 19.009509 47.553019 
L 19.071714 48.627478 
L 19.099706 48.078875 
L 19.15258 47.501264 
L 19.177461 48.175698 
L 19.193012 48.412733 
L 19.227225 47.551065 
L 19.267658 47.713944 
L 19.339193 47.154726 
L 19.292539 48.425805 
L 19.382736 47.509767 
L 19.385846 47.508208 
L 19.504034 48.4183 
L 19.469822 47.323996 
L 19.510255 48.233713 
L 19.547578 46.77512 
L 19.628443 47.916333 
L 19.690648 48.678113 
L 19.72797 47.786587 
L 19.731081 47.649679 
L 19.802616 48.553665 
L 19.833718 48.014658 
L 19.939465 47.757522 
L 19.908363 48.559258 
L 19.945686 47.904386 
L 19.961237 48.117759 
L 19.989229 48.591017 
L 20.023441 47.662474 
L 20.063874 47.995347 
L 20.066984 47.921989 
L 20.15096 48.554836 
L 20.216275 48.132515 
L 20.253597 48.501983 
L 20.259818 48.621142 
L 20.350014 48.191348 
L 20.365565 47.749911 
L 20.418439 48.662106 
L 20.461982 48.072294 
L 20.499305 48.560331 
L 20.536627 47.793665 
L 20.57706 48.316573 
L 20.685918 48.492649 
L 20.636155 47.954992 
L 20.698359 48.449098 
L 20.723241 47.793738 
L 20.804106 48.448256 
L 20.810327 48.60168 
L 20.881862 47.462205 
L 20.99072 46.233918 
L 20.931625 47.650393 
L 21.009381 47.022638 
L 21.112018 48.531724 
L 21.155561 47.812135 
L 21.180443 47.002924 
L 21.245758 48.586511 
L 21.261309 48.025882 
L 21.264419 48.010523 
L 21.27686 48.439217 
L 21.28308 48.645482 
L 21.345285 47.442184 
L 21.348395 47.359401 
L 21.41682 48.401803 
L 21.41993 48.612032 
L 21.507016 47.7235 
L 21.519457 47.882199 
L 21.547449 47.785492 
L 21.590992 48.492363 
L 21.609653 48.387339 
L 21.615874 48.581191 
L 21.646976 48.103859 
L 21.715401 48.162907 
L 21.777605 48.523322 
L 21.743393 47.804168 
L 21.821148 48.16499 
L 21.883353 48.636805 
L 21.939337 47.816892 
L 21.98288 48.391459 
L 22.054415 48.11229 
L 22.085517 48.336236 
L 22.104178 47.835145 
L 22.153942 48.030477 
L 22.181934 47.022334 
L 22.256579 48.463576 
L 22.259689 48.498548 
L 22.300122 47.85593 
L 22.312563 47.97614 
L 22.380988 48.359701 
L 22.440082 47.144489 
L 22.458743 46.88456 
L 22.471184 47.307349 
L 22.580042 48.364226 
L 22.520948 47.075028 
L 22.598703 47.743376 
L 22.611144 47.394442 
L 22.6889 48.479368 
L 22.707561 48.510038 
L 22.726222 48.150199 
L 22.763545 48.28707 
L 22.810198 48.053525 
L 22.788427 48.611398 
L 22.859962 48.476393 
L 22.866182 48.680124 
L 22.906615 47.581282 
L 22.97193 48.50392 
L 22.990591 48.181762 
L 23.027914 48.668158 
L 23.083898 48.379651 
L 23.174094 48.654032 
L 23.139882 48.161487 
L 23.192755 48.460316 
L 23.233188 48.131924 
L 23.26118 48.676303 
L 23.307834 48.257988 
L 23.354487 47.781254 
L 23.326495 48.354754 
L 23.410471 48.259779 
L 23.469565 48.649076 
L 23.506888 48.065997 
L 23.513108 48.072596 
L 23.5411 48.018694 
L 23.550431 48.433227 
L 23.556651 48.5635 
L 23.618856 47.590304 
L 23.643737 47.803792 
L 23.705942 47.7126 
L 23.749485 48.414876 
L 23.752595 48.54547 
L 23.839681 47.835241 
L 23.849012 47.946627 
L 23.852122 47.942253 
L 23.855232 47.967657 
L 23.898775 48.647757 
L 23.926767 47.843308 
L 23.97031 48.290614 
L 23.973421 48.32877 
L 24.023184 47.609313 
L 24.060507 48.076066 
L 24.169365 47.496623 
L 24.091609 48.124823 
L 24.178695 47.893047 
L 24.222238 48.131052 
L 24.25334 47.272512 
L 24.272002 46.624516 
L 24.299994 47.865579 
L 24.349757 47.739662 
L 24.421292 48.533621 
L 24.474166 48.399898 
L 24.583024 47.881763 
L 24.520819 48.598098 
L 24.604795 47.966427 
L 24.701212 48.498578 
L 24.629677 47.395172 
L 24.719873 48.028636 
L 24.722984 48.00508 
L 24.754086 48.5819 
L 24.757196 48.644774 
L 24.785188 48.314213 
L 24.859833 48.492331 
L 24.909597 47.92951 
L 24.95625 48.488277 
L 24.95936 48.611848 
L 25.002903 47.844921 
L 25.052667 48.018676 
L 25.145974 47.893285 
L 25.111761 48.370083 
L 25.158414 48.119232 
L 25.167745 48.23458 
L 25.180186 48.031957 
L 25.189517 47.821346 
L 25.217509 48.361264 
L 25.282823 48.345898 
L 25.292154 48.608718 
L 25.329477 47.927506 
L 25.385461 48.206005 
L 25.466326 47.871109 
L 25.497428 48.173166 
L 25.581404 48.467569 
L 25.596956 48.005296 
L 25.631168 47.313888 
L 25.680931 48.247465 
L 25.718254 47.62987 
L 25.736915 48.093099 
L 25.79601 47.115171 
L 25.830222 47.683911 
L 25.833332 47.677815 
L 25.842663 47.852341 
L 25.861324 48.704056 
L 25.923529 47.382167 
L 25.960851 48.255987 
L 25.979513 48.36629 
L 26.026166 48.077769 
L 26.075929 47.729385 
L 26.100811 48.575384 
L 26.128803 48.320292 
L 26.237661 47.5371 
L 26.156795 48.497139 
L 26.278094 48.119876 
L 26.377621 48.51358 
L 26.386951 48.083912 
L 26.390062 48.195557 
L 26.418054 47.952526 
L 26.449156 48.342548 
L 26.520691 48.627794 
L 26.548683 48.181381 
L 26.567344 48.553575 
L 26.586005 48.105107 
L 26.669981 48.631857 
L 26.673092 48.628455 
L 26.676202 48.676765 
L 26.722855 48.345217 
L 26.760178 48.361319 
L 26.828603 48.663235 
L 26.881476 48.053187 
L 27.012106 48.576194 
L 26.893917 48.018933 
L 27.024547 48.35278 
L 27.055649 48.210047 
L 27.086751 48.550662 
L 27.127184 48.420896 
L 27.189388 48.63582 
L 27.148955 48.121074 
L 27.226711 48.351238 
L 27.264033 48.52923 
L 27.35734 47.643532 
L 27.416434 48.540904 
L 27.363561 47.567732 
L 27.469308 47.841255 
L 27.540843 47.31759 
L 27.565725 48.135361 
L 27.571945 48.030087 
L 27.581276 48.0188 
L 27.584386 48.087497 
L 27.596827 48.584319 
L 27.64037 47.175612 
L 27.693244 48.049574 
L 27.699464 48.015063 
L 27.730566 48.40051 
L 27.736787 48.670879 
L 27.77722 48.073759 
L 27.839424 48.343795 
L 27.848755 48.467611 
L 27.861196 48.061145 
L 27.873637 47.630087 
L 27.91718 48.550654 
L 27.957613 48.50466 
L 27.960723 48.590048 
L 28.001156 47.92711 
L 28.05714 48.187654 
L 28.150446 48.083226 
L 28.131785 48.498285 
L 28.159777 48.274527 
L 28.175328 48.31755 
L 28.246863 48.217022 
L 28.296627 48.058273 
L 28.35261 48.32893 
L 28.371272 48.508588 
L 28.424146 47.75155 
L 28.452138 48.23625 
L 28.461468 48.091333 
L 28.526783 48.698178 
L 28.554775 48.495983 
L 28.635641 48.594054 
L 28.620089 48.250274 
L 28.654302 48.480518 
L 28.707176 48.659961 
L 28.76938 48.152247 
L 28.7756 48.216578 
L 28.794262 47.760178 
L 28.797372 47.688237 
L 28.834695 48.173009 
L 28.890679 47.967503 
L 28.900009 48.36078 
L 28.996426 47.834013 
L 28.999536 47.927224 
L 29.002646 47.907069 
L 29.024418 48.338941 
L 29.043079 48.303041 
L 29.133276 48.667289 
L 29.092843 47.430169 
L 29.148827 48.250826 
L 29.282566 46.969231 
L 29.291897 47.154882 
L 29.413196 48.330097 
L 29.419416 48.152595 
L 29.512723 47.638752 
L 29.47851 48.544023 
L 29.528274 48.119211 
L 29.602919 48.651439 
L 29.568707 47.753118 
L 29.640242 48.394125 
L 29.662013 47.915645 
L 29.717997 48.534267 
L 29.733548 48.47496 
L 29.739769 48.533201 
L 29.786422 48.112187 
L 29.820634 48.217369 
L 29.870398 47.903123 
L 29.910831 48.548572 
L 29.920161 48.525042 
L 29.988586 47.938318 
L 30.022799 48.561138 
L 30.03524 48.429444 
L 30.03835 48.514323 
L 30.078783 48.074872 
L 30.140987 48.302744 
L 30.172089 48.510265 
L 30.218743 48.046101 
L 30.221853 47.966502 
L 30.296498 48.491573 
L 30.3276 48.076059 
L 30.389805 48.588855 
L 30.430237 47.892127 
L 30.439568 48.112074 
L 30.442678 48.100742 
L 30.46756 48.352786 
L 30.504883 48.238127 
L 30.514213 48.616055 
L 30.542205 48.096962 
L 30.616851 48.34074 
L 30.682165 48.668371 
L 30.654173 47.979495 
L 30.710157 48.224346 
L 30.784803 47.98141 
L 30.741259 48.525895 
L 30.822125 48.142812 
L 30.874999 48.611251 
L 30.906101 47.792658 
L 30.909211 47.698066 
L 30.952754 48.657048 
L 31.002518 48.108441 
L 31.046061 48.455963 
L 31.086494 47.780048 
L 31.095825 47.620298 
L 31.182911 48.158545 
L 31.257556 48.624394 
L 31.238895 48.060287 
L 31.297989 48.418813 
L 31.391295 48.522436 
L 31.350863 47.848613 
L 31.394406 48.424003 
L 31.409957 47.706588 
L 31.484602 48.604638 
L 31.503263 48.437458 
L 31.509484 48.559206 
L 31.540586 47.59938 
L 31.615231 48.522734 
L 31.696097 48.221766 
L 31.717869 48.530189 
L 31.727199 48.370101 
L 31.839167 48.675529 
L 31.758301 48.078299 
L 31.842277 48.603166 
L 31.87649 48.246842 
L 31.920033 48.644335 
L 31.957356 48.405128 
L 32.035111 48.551818 
L 32.010229 48.073931 
L 32.059993 48.320771 
L 32.063103 48.295585 
L 32.115977 48.650865 
L 32.140859 48.530678 
L 32.16263 48.634913 
L 32.231055 48.176665 
L 32.249716 48.533515 
L 32.402117 48.226643 
L 32.339913 48.591265 
L 32.423889 48.336562 
L 32.426999 48.431547 
L 32.489203 47.824825 
L 32.529636 48.195597 
L 32.573179 48.081383 
L 32.601171 48.609323 
L 32.629163 48.450886 
L 32.641604 48.251748 
L 32.672706 48.515241 
L 32.675816 48.663819 
L 32.703808 47.906767 
L 32.781564 48.556226 
L 32.905973 47.573937 
L 32.909083 47.688163 
L 33.024161 48.500063 
L 33.033492 48.203761 
L 33.042822 47.904096 
L 33.133019 48.42658 
L 33.232546 48.688087 
L 33.167231 47.679593 
L 33.244987 48.537614 
L 33.282309 48.638184 
L 33.310301 48.203179 
L 33.341403 48.431082 
L 33.375616 47.752481 
L 33.444041 48.528185 
L 33.456482 48.241553 
L 33.556009 47.806453 
L 33.56845 48.194717 
L 33.686638 48.567869 
L 33.776834 48.246312 
L 33.723961 48.621128 
L 33.798606 48.313172 
L 33.826598 48.640042 
L 33.867031 47.978265 
L 33.910574 48.418198 
L 33.969668 48.600803 
L 34.031872 48.224144 
L 34.059864 48.077876 
L 34.084746 48.630863 
L 34.131399 48.323272 
L 34.224706 48.484547 
L 34.13762 48.176429 
L 34.243367 48.357155 
L 34.364666 47.987386 
L 34.318013 48.612869 
L 34.370886 48.173006 
L 34.513956 48.699511 
L 34.433091 48.162899 
L 34.517067 48.508169 
L 34.594822 48.075658 
L 34.632145 48.262598 
L 34.657027 48.523559 
L 34.691239 47.566386 
L 34.725451 47.607318 
L 34.731672 47.435381 
L 34.768994 48.559625 
L 34.837419 47.496344 
L 34.899624 48.458477 
L 34.84675 47.485304 
L 35.014702 48.27408 
L 35.042694 47.639914 
L 35.080016 48.424887 
L 35.12978 48.198712 
L 35.176433 48.636026 
L 35.241748 48.344663 
L 35.285291 47.841183 
L 35.328834 48.496377 
L 35.331944 48.44071 
L 35.338165 48.561095 
L 35.41592 47.858254 
L 35.428361 48.111198 
L 35.459463 48.076756 
L 35.437692 48.271108 
L 35.475014 48.174998 
L 35.493676 48.466021 
L 35.568321 48.077117 
L 35.586982 48.285342 
L 35.664738 48.471025 
L 35.720722 47.787236 
L 35.773596 48.66275 
L 35.870012 48.553088 
L 35.907335 48.266123 
L 35.935327 48.564497 
L 35.98198 48.495808 
L 35.991311 48.381437 
L 35.994421 48.39454 
L 36.025523 48.359159 
L 36.072177 48.586429 
L 36.181034 48.682383 
L 36.149932 48.278475 
L 36.184145 48.65139 
L 36.311664 47.998441 
L 36.361427 48.072818 
L 36.445403 48.655073 
L 36.464064 47.949261 
L 36.467175 47.950838 
L 36.473395 48.011704 
L 36.488946 47.781554 
L 36.495167 47.630769 
L 36.576032 48.198177 
L 36.588473 48.185028 
L 36.594694 48.09011 
L 36.647567 48.607056 
L 36.650678 48.680365 
L 36.712882 47.964747 
L 36.731543 48.064774 
L 36.747094 47.840443 
L 36.768866 48.431279 
L 36.83107 48.134459 
L 36.887054 48.644494 
L 36.927487 47.836768 
L 36.933708 47.903558 
L 36.936818 47.840114 
L 36.96792 48.621937 
L 37.011463 48.572415 
L 37.042565 48.014337 
L 37.020794 48.664546 
L 37.126541 48.428675 
L 37.132762 48.566812 
L 37.173195 48.056129 
L 37.226068 48.254693 
L 37.300714 47.939438 
L 37.260281 48.355734 
L 37.338036 48.20186 
L 37.39402 48.595161 
L 37.453114 48.507503 
L 37.496657 47.576678 
L 37.546421 48.62501 
L 37.561972 48.476076 
L 37.571303 48.657558 
L 37.608625 48.258132 
L 37.67083 48.47825 
L 37.751695 47.945196 
L 37.689491 48.545126 
L 37.789018 48.234788 
L 37.863663 48.66818 
L 37.904096 48.47045 
L 37.95075 48.32224 
L 37.935198 48.675664 
L 38.016064 48.447161 
L 38.124922 48.000534 
L 38.047166 48.533438 
L 38.137363 48.282138 
L 38.23378 48.677468 
L 38.208898 48.166982 
L 38.24622 48.387667 
L 38.267992 48.20847 
L 38.292874 48.654503 
L 38.355078 48.378582 
L 38.398621 48.685577 
L 38.426613 48.275676 
L 38.504369 47.783457 
L 38.479487 48.637516 
L 38.538581 48.228575 
L 38.600786 47.401865 
L 38.653659 48.626788 
L 38.743856 48.068611 
L 38.771848 48.338315 
L 38.774958 48.31593 
L 38.834052 48.674344 
L 38.862044 48.377152 
L 38.936689 48.085948 
L 38.977122 48.640912 
L 39.036216 47.836756 
L 39.117082 48.212419 
L 39.216609 48.682899 
L 39.154405 48.012456 
L 39.247711 48.575905 
L 39.275703 48.089556 
L 39.356569 48.473646 
L 39.378341 48.680543 
L 39.397002 48.309432 
L 39.462317 48.451276 
L 39.468537 48.186536 
L 39.51519 48.631749 
L 39.571174 48.51666 
L 39.636489 48.323796 
L 39.596056 48.646936 
L 39.680032 48.469807 
L 39.726685 48.127624 
L 39.78889 48.574625 
L 39.875976 48.114648 
L 39.804441 48.57828 
L 39.907078 48.298244 
L 39.978613 48.650108 
L 39.944401 48.173804 
L 40.019046 48.544927 
L 40.109242 48.297333 
L 40.084361 48.696453 
L 40.131014 48.401267 
L 40.137234 48.642744 
L 40.2181 48.235729 
L 40.236761 48.254189 
L 40.345619 48.007649 
L 40.261643 48.570744 
L 40.348729 48.094328 
L 40.35495 48.066234 
L 40.35806 48.130417 
L 40.395383 48.542711 
L 40.429595 47.895692 
L 40.466918 48.133691 
L 40.482469 47.980311 
L 40.529122 48.568117 
L 40.572665 48.166743 
L 40.697074 48.589285 
L 40.606877 47.934361 
L 40.700184 48.518612 
L 40.78105 47.713807 
L 40.833924 48.081565 
L 40.883687 48.589895 
L 40.933451 47.937404 
L 40.939671 47.958192 
L 41.051639 48.551215 
L 41.082741 48.241384 
L 41.088962 47.910422 
L 41.172938 48.607853 
L 41.194709 48.179539 
L 41.241362 48.040738 
L 41.281795 48.410626 
L 41.291126 48.407312 
L 41.309787 48.560475 
L 41.371992 47.883609 
L 41.393763 48.274703 
L 41.415535 48.105102 
L 41.480849 48.567376 
L 41.499511 48.375764 
L 41.533723 47.95878 
L 41.577266 48.517946 
L 41.580376 48.615556 
L 41.661242 48.086005 
L 41.683014 48.418491 
L 41.782541 48.214687 
L 41.711006 48.587944 
L 41.791871 48.426593 
L 41.866517 48.550294 
L 41.891398 48.263593 
L 41.91006 48.085609 
L 41.972264 48.678683 
L 41.987815 48.530043 
L 42.025138 48.638827 
L 42.000256 48.401386 
L 42.065571 48.454825 
L 42.174428 48.292229 
L 42.090452 48.62003 
L 42.177539 48.412886 
L 42.1962 48.675766 
L 42.255294 48.225309 
L 42.280176 48.254451 
L 42.370372 48.10457 
L 42.323719 48.587265 
L 42.389034 48.219793 
L 42.407695 48.572169 
L 42.438797 47.998919 
L 42.491671 48.078444 
L 42.497891 47.913729 
L 42.584977 48.527391 
L 42.591198 48.514565 
L 42.594308 48.541237 
L 42.61608 47.912495 
L 42.62541 47.599338 
L 42.681394 48.57043 
L 42.712496 48.526367 
L 42.715607 48.535175 
L 42.734268 48.330991 
L 42.796472 48.654618 
L 42.864897 47.818753 
L 42.986196 48.571555 
L 42.989306 48.549785 
L 43.03907 48.256949 
L 43.020408 48.636328 
L 43.101274 48.503483 
L 43.104384 48.579293 
L 43.154148 48.053518 
L 43.203911 48.321834 
L 43.213242 48.36298 
L 43.235013 48.071289 
L 43.247454 47.846644 
L 43.309659 48.525213 
L 43.340761 48.355795 
L 43.384304 47.992429 
L 43.430957 48.654873 
L 43.443398 48.596028 
L 43.47139 48.682413 
L 43.505603 48.222094 
L 43.533595 48.253483 
L 43.536705 48.253274 
L 43.549146 48.684073 
L 43.589579 48.062829 
L 43.648673 48.473524 
L 43.707767 47.860976 
L 43.760641 48.341215 
L 43.816625 48.662801 
L 43.791743 48.2275 
L 43.860168 48.25496 
L 43.869498 48.222025 
L 43.909931 48.502284 
L 43.947254 48.450321 
L 43.972136 48.576776 
L 44.018789 48.330073 
L 44.049891 48.513379 
L 44.062332 48.309027 
L 44.124536 48.649282 
L 44.161859 48.47547 
L 44.202292 48.662878 
L 44.264496 48.324757 
L 44.336031 48.032005 
L 44.298709 48.447023 
L 44.370244 48.381586 
L 44.475991 48.556277 
L 44.444889 48.264638 
L 44.482212 48.39576 
L 44.525755 48.265167 
L 44.559967 48.546446 
L 44.563077 48.430283 
L 44.566188 48.624233 
L 44.587959 47.919293 
L 44.665715 48.029474 
L 44.724809 48.687254 
L 44.808785 48.462249 
L 44.855438 47.932247 
L 44.88654 48.590453 
L 44.892761 48.636155 
L 44.914532 48.06424 
L 44.951855 48.122958 
L 44.964296 48.274851 
L 45.004729 48.677564 
L 45.082484 48.489688 
L 45.194452 48.211456 
L 45.116697 48.662942 
L 45.197562 48.261024 
L 45.340632 48.674279 
L 45.219334 48.069724 
L 45.362404 48.468506 
L 45.409057 48.091229 
L 45.371735 48.5718 
L 45.468151 48.560985 
L 45.486813 48.595724 
L 45.517915 48.386267 
L 45.524135 48.388682 
L 45.552127 48.56971 
L 45.570789 48.346433 
L 45.58323 48.419976 
L 45.642324 48.108086 
L 45.654765 48.441971 
L 45.695197 48.342825 
L 45.73563 48.0952 
L 45.813386 48.685007 
L 45.86626 48.316423 
L 45.925354 48.585879 
L 45.975117 48.477696 
L 45.931574 48.647725 
L 45.978228 48.555015 
L 46.00933 48.281583 
L 46.037322 48.66609 
L 46.090195 48.320536 
L 46.211494 48.647527 
L 46.217714 48.592408 
L 46.273698 48.22024 
L 46.332793 48.348146 
L 46.351454 48.66999 
L 46.385666 48.053728 
L 46.44165 48.340707 
L 46.447871 48.311649 
L 46.491414 48.663152 
L 46.544288 48.393784 
L 46.562949 48.60559 
L 46.603382 47.966053 
L 46.646925 48.355528 
L 46.808656 47.480023 
L 46.674917 48.523676 
L 46.814877 47.508377 
L 46.889522 48.572713 
L 46.942396 48.216866 
L 47.010821 48.104602 
L 47.038813 48.591886 
L 47.094797 48.107783 
L 47.157001 48.527469 
L 47.160111 48.666565 
L 47.234756 48.078134 
L 47.265859 48.527613 
L 47.402708 47.968532 
L 47.272079 48.54682 
L 47.418259 48.008851 
L 47.464913 48.648689 
L 47.536448 48.317725 
L 47.558219 48.671038 
L 47.598652 48.151602 
L 47.632865 48.235249 
L 47.726171 47.961349 
L 47.673297 48.556715 
L 47.741722 48.247179 
L 47.922115 48.667023 
L 47.747943 48.155862 
L 47.937666 48.564475 
L 48.002981 47.951006 
L 47.959438 48.694225 
L 48.049634 48.491902 
L 48.055855 48.660668 
L 48.146051 48.389236 
L 48.158492 48.514108 
L 48.177153 48.376426 
L 48.223806 48.643261 
L 48.27357 48.407438 
L 48.363766 48.676441 
L 48.317113 48.242298 
L 48.388648 48.63402 
L 48.466404 48.206485 
L 48.401089 48.685701 
L 48.500616 48.564554 
L 48.516167 48.627573 
L 48.541049 48.024344 
L 48.544159 48.035271 
L 48.56282 47.818035 
L 48.609474 48.678823 
L 48.628135 48.576145 
L 48.637466 48.630248 
L 48.656127 48.435664 
L 48.811638 47.791391 
L 48.690339 48.672511 
L 48.827189 48.140937 
L 48.914275 48.629994 
L 48.83963 48.091679 
L 48.945377 48.399104 
L 49.051125 48.018508 
L 48.988921 48.493973 
L 49.060456 48.341665 
L 49.085337 48.672232 
L 49.113329 48.12861 
L 49.163093 48.233591 
L 49.172424 48.073457 
L 49.256399 48.560432 
L 49.271951 48.339899 
L 49.337265 48.626467 
L 49.281281 48.333131 
L 49.39947 48.426094 
L 49.449233 47.727023 
L 49.495886 48.562652 
L 49.502107 48.674193 
L 49.526989 48.195984 
L 49.589193 48.4222 
L 49.598524 48.491861 
L 49.726043 48.150437 
L 49.810019 48.452667 
L 49.785137 48.02723 
L 49.838011 48.233458 
L 49.906435 47.946312 
L 49.928207 48.503328 
L 49.931317 48.456235 
L 50.027734 48.648786 
L 49.96864 48.333648 
L 50.049506 48.576968 
L 50.071277 48.676022 
L 50.089938 48.402758 
L 50.102379 48.437767 
L 50.208127 48.259927 
L 50.145922 48.61857 
L 50.214347 48.322595 
L 50.310764 48.688746 
L 50.226788 48.192652 
L 50.379189 48.462946 
L 50.38852 48.362185 
L 50.435173 48.660958 
L 50.460055 48.570941 
L 50.466275 48.685897 
L 50.491157 48.19678 
L 50.565802 48.592904 
L 50.659109 48.152126 
L 50.615566 48.611147 
L 50.67466 48.566013 
L 50.68088 48.656309 
L 50.736864 48.381175 
L 50.761746 48.467516 
L 50.858163 48.340857 
L 50.799069 48.625442 
L 50.867493 48.458597 
L 50.914147 48.683712 
L 50.96702 48.071838 
L 50.973241 48.295324 
L 50.976351 48.324415 
L 51.029225 47.794721 
L 51.032335 47.670495 
L 51.09765 48.45589 
L 51.125642 48.205709 
L 51.169185 48.664752 
L 51.231389 48.127527 
L 51.23761 48.015146 
L 51.324696 48.3504 
L 51.327806 48.322002 
L 51.340247 48.659206 
L 51.433553 48.131799 
L 51.436664 48.288194 
L 51.480207 47.717469 
L 51.452215 48.423706 
L 51.508199 48.387471 
L 51.610836 48.648027 
L 51.536191 47.981026 
L 51.623277 48.555335 
L 51.729024 48.130125 
L 51.66682 48.668428 
L 51.738355 48.288464 
L 51.853433 48.66652 
L 51.772567 47.749123 
L 51.862764 48.651407 
L 51.906307 48.029814 
L 51.980952 48.42624 
L 52.021385 48.381022 
L 51.987173 48.470439 
L 52.030716 48.486961 
L 52.124022 48.655508 
L 52.083589 48.345806 
L 52.142684 48.502838 
L 52.180006 48.670508 
L 52.22666 48.396173 
L 52.248431 48.541886 
L 52.319966 48.027024 
L 52.357289 48.545994 
L 52.360399 48.497793 
L 52.469257 48.652054 
L 52.431934 48.388802 
L 52.475477 48.607564 
L 52.491028 48.404 
L 52.562563 48.696931 
L 52.584335 48.591294 
L 52.634098 48.667102 
L 52.683862 48.362968 
L 52.686972 48.435534 
L 52.708744 48.596059 
L 52.742956 48.217637 
L 52.783389 48.282492 
L 52.79272 48.149193 
L 52.823822 48.667006 
L 52.886026 48.400146 
L 53.004215 48.699671 
L 52.963782 48.290122 
L 53.022876 48.495417 
L 53.025986 48.500247 
L 53.038427 48.349074 
L 53.050868 48.364853 
L 53.159726 47.75795 
L 53.175277 48.201457 
L 53.197048 48.632521 
L 53.287245 48.299801 
L 53.299686 48.190734 
L 53.315237 48.617419 
L 53.380551 48.465803 
L 53.483189 48.665895 
L 53.430315 48.004431 
L 53.489409 48.531257 
L 53.517401 48.125913 
L 53.579605 48.593628 
L 53.604487 48.410407 
L 53.691573 48.652636 
L 53.623148 48.315289 
L 53.700904 48.364092 
L 53.759998 48.602386 
L 53.828423 47.718894 
L 53.831533 47.615106 
L 53.871966 48.599766 
L 53.918619 48.412801 
L 53.92795 48.329259 
L 53.93417 48.44568 
L 53.937281 48.445792 
L 53.949722 48.691208 
L 54.033697 48.13058 
L 54.043028 48.266213 
L 54.080351 48.618385 
L 54.154996 48.387864 
L 54.232752 48.129922 
L 54.167437 48.641294 
L 54.266964 48.284225 
L 54.332279 48.589267 
L 54.291846 48.24322 
L 54.382042 48.408331 
L 54.385152 48.360353 
L 54.434916 48.623272 
L 54.48779 48.485921 
L 54.515782 48.652745 
L 54.574876 48.340203 
L 54.596647 48.471611 
L 54.652631 48.695537 
L 54.605978 48.425397 
L 54.714836 48.542574 
L 54.721056 48.393738 
L 54.749048 48.693633 
L 54.823693 48.590668 
L 54.833024 48.62632 
L 54.848575 48.435185 
L 54.851685 48.436546 
L 54.91389 48.251144 
L 54.935661 48.525977 
L 54.963653 48.409743 
L 54.969874 48.234681 
L 55.05385 48.650301 
L 55.075621 48.287373 
L 55.103613 48.682234 
L 55.19381 48.576906 
L 55.231132 48.309496 
L 55.209361 48.624687 
L 55.296447 48.569944 
L 55.305777 48.65998 
L 55.389753 48.194393 
L 55.392864 48.254191 
L 55.464399 47.92379 
L 55.48928 48.373885 
L 55.501721 48.284076 
L 55.576367 48.648852 
L 55.535934 48.050684 
L 55.610579 48.251081 
L 55.660343 48.603281 
L 55.682114 48.238571 
L 55.722547 48.325022 
L 55.812743 47.9205 
L 55.781641 48.533272 
L 55.828294 48.509807 
L 55.934042 48.700754 
L 55.90294 48.201267 
L 55.940262 48.572079 
L 55.962034 48.658963 
L 56.021128 48.358589 
L 56.05223 48.584038 
L 56.161088 47.829005 
L 56.098884 48.684439 
L 56.179749 48.310755 
L 56.260615 48.689895 
L 56.232623 48.138407 
L 56.291717 48.426236 
L 56.304158 48.651982 
L 56.350811 48.126336 
L 56.406795 48.617733 
L 56.441008 47.934304 
L 56.524984 48.247716 
L 56.537425 48.053964 
L 56.587188 48.679301 
L 56.633841 48.279355 
L 56.742699 48.677529 
L 56.683605 48.172392 
L 56.75203 48.618151 
L 56.808014 48.272954 
L 56.879549 48.453078 
L 56.954194 48.695436 
L 56.988407 48.410148 
L 57.050611 48.697312 
L 57.000847 48.388681 
L 57.081713 48.462263 
L 57.162579 48.275998 
L 57.134587 48.578132 
L 57.190571 48.464621 
L 57.199901 48.388866 
L 57.258996 48.685449 
L 57.283877 48.636127 
L 57.383404 48.655694 
L 57.31809 48.31761 
L 57.392735 48.641969 
L 57.482931 48.381211 
L 57.423837 48.688928 
L 57.514034 48.458978 
L 57.591789 48.622259 
L 57.585569 48.358388 
L 57.60112 48.368427 
L 57.629112 48.026531 
L 57.703757 48.547139 
L 57.706867 48.608334 
L 57.765962 48.252013 
L 57.806394 48.394336 
L 57.905921 47.906635 
L 57.840607 48.609801 
L 57.933913 48.308285 
L 57.940134 48.480958 
L 58.008559 48.092461 
L 58.048992 48.423616 
L 58.104976 48.210397 
L 58.129857 48.691648 
L 58.154739 48.509753 
L 58.238715 48.25609 
L 58.201392 48.688724 
L 58.257376 48.55412 
L 58.269817 48.600679 
L 58.282258 48.47088 
L 58.328911 48.19203 
L 58.294699 48.586324 
L 58.384895 48.543359 
L 58.391116 48.684198 
L 58.468871 48.313185 
L 58.475092 48.248563 
L 58.503084 48.679433 
L 58.546627 48.636933 
L 58.627492 48.673868 
L 58.608831 48.318023 
L 58.643044 48.564243 
L 58.723909 48.129862 
L 58.649264 48.641976 
L 58.770563 48.180537 
L 58.845208 48.651951 
L 58.882531 48.327594 
L 58.932294 48.693815 
L 59.01005 48.526051 
L 59.100246 48.33562 
L 59.050482 48.626866 
L 59.122017 48.478787 
L 59.178001 48.454676 
L 59.193553 48.631314 
L 59.212214 48.554571 
L 59.233985 48.672693 
L 59.271308 48.333544 
L 59.317961 48.566531 
L 59.408158 48.297651 
L 59.370835 48.660418 
L 59.43615 48.368976 
L 59.495244 48.67775 
L 59.517015 48.331828 
L 59.551228 48.512495 
L 59.610322 48.68644 
L 59.666306 48.378836 
L 59.796935 48.682312 
L 59.675637 48.28267 
L 59.803156 48.605939 
L 59.905793 48.321684 
L 59.86225 48.685497 
L 59.921344 48.550973 
L 59.924454 48.556102 
L 59.930675 48.419839 
L 59.974218 48.346353 
L 59.949336 48.642927 
L 60.042643 48.380542 
L 60.061304 48.670272 
L 60.114178 47.888224 
L 60.129729 48.116082 
L 60.132839 47.904683 
L 60.216815 48.654502 
L 60.235476 48.370647 
L 60.272799 48.593636 
L 60.303901 48.300706 
L 60.338114 48.310928 
L 60.341224 48.220036 
L 60.437641 48.631053 
L 60.440751 48.556908 
L 60.443861 48.558234 
L 60.446971 48.485306 
L 60.450081 48.492232 
L 60.527837 48.078979 
L 60.471853 48.525029 
L 60.558939 48.444986 
L 60.639805 48.69867 
L 60.627364 48.334078 
L 60.667797 48.560899 
L 60.695789 48.384109 
L 60.764214 48.584024 
L 60.776655 48.418428 
L 60.798426 48.64559 
L 60.885512 48.371606 
L 60.907284 48.623678 
L 61.016141 48.49797 
L 61.115669 48.288185 
L 61.041023 48.631567 
L 61.124999 48.452676 
L 61.218306 48.679828 
L 61.177873 48.421279 
L 61.243188 48.592473 
L 61.28362 48.696323 
L 61.255628 48.445229 
L 61.289841 48.472452 
L 61.383147 48.070204 
L 61.320943 48.593991 
L 61.41425 48.304272 
L 61.460903 48.686966 
L 61.429801 48.225883 
L 61.529328 48.549971 
L 61.603973 48.693278 
L 61.588422 48.513974 
L 61.635075 48.545761 
L 61.694169 48.135933 
L 61.740823 48.584149 
L 61.753264 48.475807 
L 61.84657 48.647372 
L 61.796807 48.261367 
L 61.868342 48.639378 
L 61.871452 48.673984 
L 61.899444 48.443267 
L 61.974089 48.587662 
L 62.086057 48.348508 
L 62.030073 48.692254 
L 62.098498 48.434065 
L 62.194915 48.67676 
L 62.142041 48.271686 
L 62.216686 48.625 
L 62.319324 48.05741 
L 62.250899 48.677014 
L 62.350426 48.427281 
L 62.362867 48.623982 
L 62.397079 47.912001 
L 62.462394 48.537176 
L 62.490386 47.973096 
L 62.5557 48.651032 
L 62.583692 48.224421 
L 62.658338 48.611731 
L 62.69255 48.248906 
L 62.701881 48.113349 
L 62.729873 48.602743 
L 62.745424 48.543856 
L 62.854282 48.689938 
L 62.788967 48.379892 
L 62.857392 48.667253 
L 62.953809 48.159064 
L 62.907155 48.671595 
L 62.97869 48.332027 
L 63.084438 48.617397 
L 62.988021 48.297599 
L 63.096879 48.565553 
L 63.11865 48.300617 
L 63.162193 48.704366 
L 63.202626 48.57923 
L 63.211957 48.665929 
L 63.249279 48.361472 
L 63.295933 48.398599 
L 63.299043 48.314402 
L 63.345696 48.637047 
L 63.39857 48.529511 
L 63.494987 48.680578 
L 63.442113 48.271813 
L 63.504318 48.506869 
L 63.54475 48.385105 
L 63.572742 48.66217 
L 63.613175 48.43143 
L 63.715812 48.681158 
L 63.650498 48.420575 
L 63.725143 48.622004 
L 63.799788 48.686668 
L 63.840221 48.465576 
L 63.902426 48.688084 
L 63.952189 48.513289 
L 64.017504 48.680315 
L 64.042386 48.414723 
L 64.064157 48.576547 
L 64.082818 48.693559 
L 64.179235 48.470897 
L 64.266321 48.671568 
L 64.213448 48.336424 
L 64.297424 48.598185 
L 64.312975 48.678136 
L 64.415612 48.359923 
L 64.443604 48.323193 
L 64.462265 48.586853 
L 64.508919 48.673467 
L 64.477816 48.384847 
L 64.558682 48.511886 
L 64.561792 48.371225 
L 64.66443 48.670377 
L 64.66754 48.581119 
L 64.838602 47.913045 
L 64.679981 48.663601 
L 64.844822 48.05419 
L 64.94746 48.460827 
L 64.959901 48.361584 
L 65.074979 48.672607 
L 65.046987 48.342952 
L 65.081199 48.524362 
L 65.09675 48.144992 
L 65.121632 48.588507 
L 65.193167 48.376659 
L 65.258482 48.583627 
L 65.218049 48.136491 
L 65.305135 48.516216 
L 65.413993 48.158819 
L 65.358009 48.680604 
L 65.420213 48.338069 
L 65.485528 48.624826 
L 65.466866 48.296229 
L 65.525961 48.337061 
L 65.622377 48.145547 
L 65.532181 48.351224 
L 65.637928 48.284173 
L 65.728125 48.659919 
L 65.756117 48.546836 
L 65.852534 48.388929 
L 65.79966 48.679349 
L 65.864975 48.535143 
L 65.899187 48.688057 
L 65.955171 48.503972 
L 65.973832 48.566385 
L 66.011155 48.340109 
L 66.054698 48.688293 
L 66.08891 48.523627 
L 66.148005 48.660589 
L 66.104461 48.386528 
L 66.182217 48.426131 
L 66.21954 48.273823 
L 66.266193 48.637982 
L 66.278634 48.562251 
L 66.319067 48.340153 
L 66.390602 48.674735 
L 66.421704 48.323925 
L 66.477688 48.695538 
L 66.50879 48.488387 
L 66.546113 48.380968 
L 66.567884 48.680541 
L 66.608317 48.507739 
L 66.64564 48.695072 
L 66.710954 48.434868 
L 66.714065 48.461348 
L 66.770049 48.255755 
L 66.732726 48.65322 
L 66.776269 48.523858 
L 66.7856 48.68389 
L 66.819812 48.162033 
L 66.891347 48.61198 
L 66.900678 48.6865 
L 66.92556 48.477956 
L 66.953552 48.500117 
L 67.087291 47.920315 
L 66.965992 48.618941 
L 67.090401 48.02357 
L 67.20859 48.53003 
L 67.2117 48.525819 
L 67.22103 48.664153 
L 67.249022 48.367135 
L 67.329888 48.591494 
L 67.435636 48.204836 
L 67.367211 48.610667 
L 67.444966 48.298473 
L 67.457407 48.129596 
L 67.569375 48.690508 
L 67.64402 48.258406 
L 67.681343 48.554592 
L 67.703115 48.630305 
L 67.752878 48.245928 
L 67.759099 48.389558 
L 67.762209 48.259904 
L 67.787091 48.658327 
L 67.861736 48.646669 
L 67.886618 48.682445 
L 67.908389 48.424367 
L 67.92394 48.477247 
L 67.989255 48.342674 
L 67.973704 48.682096 
L 68.029688 48.504704 
L 68.126105 48.349417 
L 68.144766 48.653256 
L 68.163427 48.448433 
L 68.231852 48.693903 
L 68.256734 48.537177 
L 68.365591 48.681403 
L 68.309607 48.347306 
L 68.368702 48.619875 
L 68.381143 48.365319 
L 68.446457 48.638343 
L 68.48378 48.472826 
L 68.542874 48.287295 
L 68.49311 48.662475 
L 68.589527 48.470007 
L 68.608189 48.605527 
L 68.661062 48.403378 
L 68.695275 48.513459 
L 68.794802 48.39146 
L 68.7637 48.683597 
L 68.801022 48.667868 
L 68.810353 48.365605 
L 68.90988 48.698136 
L 68.91299 48.648727 
L 68.962754 48.679941 
L 68.953423 48.52325 
L 68.996966 48.595578 
L 69.034289 48.233582 
L 69.05295 48.650882 
L 69.108934 48.557707 
L 69.19913 48.696407 
L 69.227122 48.352517 
L 69.270665 48.622165 
L 69.317319 48.282245 
L 69.33909 48.382312 
L 69.342201 48.363617 
L 69.385744 48.690135 
L 69.426176 48.520035 
L 69.47905 48.678526 
L 69.435507 48.435267 
L 69.531924 48.487795 
L 69.656333 48.205059 
L 69.61901 48.533703 
L 69.659443 48.230289 
L 69.75586 48.686705 
L 69.665663 48.20833 
L 69.846056 48.560796 
L 69.867828 48.184773 
L 69.90515 48.694907 
L 69.970465 48.296293 
L 70.032669 48.680683 
L 70.079323 48.338181 
L 70.082433 48.29758 
L 70.141527 48.649477 
L 70.17885 48.448981 
L 70.206842 48.59349 
L 70.250385 48.185986 
L 70.275267 48.236409 
L 70.293928 48.110056 
L 70.31881 48.674632 
L 70.32192 48.690523 
L 70.346802 48.324119 
L 70.374794 48.426021 
L 70.377904 48.297268 
L 70.446329 48.679695 
L 70.480541 48.448774 
L 70.511643 48.635429 
L 70.555186 48.365146 
L 70.589399 48.436079 
L 70.592509 48.342762 
L 70.648493 48.672859 
L 70.695146 48.516911 
L 70.713808 48.699255 
L 70.797784 48.434193 
L 70.800894 48.513921 
L 70.906641 48.302944 
L 70.841327 48.700493 
L 70.912862 48.399685 
L 70.956405 48.61452 
L 71.012389 48.31309 
L 71.021719 48.36487 
L 71.052822 48.670096 
L 71.071483 48.302436 
L 71.136798 48.441504 
L 71.139908 48.383851 
L 71.230104 48.668773 
L 71.242545 48.465034 
L 71.326521 48.69347 
L 71.258096 48.418538 
L 71.357623 48.574744 
L 71.429158 48.396166 
L 71.441599 48.610979 
L 71.466481 48.567148 
L 71.485142 48.678369 
L 71.472701 48.473657 
L 71.538016 48.461673 
L 71.618882 48.350763 
L 71.575339 48.686036 
L 71.640653 48.553838 
L 71.653094 48.66038 
L 71.696637 48.29785 
L 71.74329 48.483839 
L 71.755731 48.603389 
L 71.765062 48.572646 
L 71.774393 48.663848 
L 71.836597 48.2426 
L 71.858369 48.360979 
L 71.942345 48.11408 
L 71.901912 48.600284 
L 71.970336 48.228979 
L 71.985888 48.642765 
L 72.085415 48.401024 
L 72.097856 48.604387 
L 72.15695 48.357691 
L 72.203603 48.538324 
L 72.30935 48.246338 
L 72.272028 48.677525 
L 72.321791 48.289566 
L 72.427539 48.6828 
L 72.349783 48.237051 
L 72.43998 48.426541 
L 72.44931 48.240359 
L 72.480413 48.653917 
L 72.545727 48.63963 
L 72.561278 48.353675 
L 72.632813 48.673547 
L 72.660805 48.522614 
L 72.667026 48.587914 
L 72.7199 48.38788 
L 72.766553 48.447575 
L 72.782104 48.186727 
L 72.86608 48.648429 
L 72.8723 48.609238 
L 72.881631 48.635339 
L 72.900292 48.382807 
L 72.962497 48.456961 
L 73.01226 48.282891 
L 72.984268 48.653799 
L 73.071354 48.48717 
L 73.080685 48.381073 
L 73.102457 48.660268 
L 73.173992 48.531988 
L 73.186433 48.674784 
L 73.229976 48.390138 
L 73.267298 48.443002 
L 73.270408 48.437749 
L 73.279739 48.581348 
L 73.28596 48.549363 
L 73.360605 48.693743 
L 73.320172 48.419575 
L 73.394817 48.577288 
L 73.506785 48.435924 
L 73.475683 48.672749 
L 73.513006 48.480254 
L 73.624974 48.692117 
L 73.528557 48.449739 
L 73.628084 48.564943 
L 73.674737 48.471673 
L 73.665406 48.68975 
L 73.727611 48.613986 
L 73.774264 48.692695 
L 73.743162 48.520464 
L 73.836469 48.58292 
L 73.942216 48.437536 
L 73.85202 48.652314 
L 73.948436 48.595792 
L 74.00442 48.697236 
L 73.99198 48.459967 
L 74.054184 48.516859 
L 74.113278 48.657502 
L 74.063515 48.395791 
L 74.166152 48.610581 
L 74.237687 48.206161 
L 74.187923 48.673823 
L 74.28123 48.458154 
L 74.365206 48.684468 
L 74.330994 48.27815 
L 74.399418 48.543361 
L 74.470953 48.303169 
L 74.452292 48.646404 
L 74.508276 48.529997 
L 74.582921 48.67472 
L 74.517607 48.327692 
L 74.595362 48.481085 
L 74.638905 48.223432 
L 74.676228 48.685271 
L 74.691779 48.662287 
L 74.694889 48.678391 
L 74.741543 48.390605 
L 74.747763 48.466488 
L 74.813078 48.106525 
L 74.85351 48.638462 
L 74.915715 48.139503 
L 74.887723 48.687089 
L 74.974809 48.430012 
L 75.037013 48.126033 
L 75.092997 48.679024 
L 75.201855 47.868933 
L 75.214296 48.213337 
L 75.232957 48.55532 
L 75.316933 48.010191 
L 75.326264 48.29443 
L 75.332484 48.370481 
L 75.335595 48.330397 
L 75.360476 48.654674 
L 75.435122 48.260213 
L 75.447563 48.375478 
L 75.55642 48.252164 
L 75.466224 48.668995 
L 75.55953 48.297411 
L 75.590633 48.635537 
L 75.680829 48.605421 
L 75.724372 48.305738 
L 75.792797 48.538524 
L 75.84256 48.688182 
L 75.858112 48.488564 
L 75.901655 48.594968 
L 75.988741 48.472784 
L 75.935867 48.680558 
L 76.010512 48.606362 
L 76.054055 48.50301 
L 76.026063 48.689818 
L 76.11626 48.604869 
L 76.134921 48.684746 
L 76.184685 48.513429 
L 76.222007 48.58684 
L 76.302873 48.402913 
L 76.234448 48.62877 
L 76.324645 48.572 
L 76.358857 48.679688 
L 76.417951 48.425347 
L 76.436612 48.618471 
L 76.483266 48.343129 
L 76.523699 48.696503 
L 76.551691 48.534821 
L 76.657438 48.688809 
L 76.610785 48.380783 
L 76.660548 48.642406 
L 76.676099 48.441154 
L 76.747634 48.692601 
L 76.772516 48.541034 
L 76.775626 48.641232 
L 76.872043 48.322576 
L 76.881374 48.517647 
L 76.887594 48.606246 
L 76.943578 48.346751 
L 76.949799 48.294387 
L 76.996452 48.668202 
L 77.033775 48.597303 
L 77.043105 48.671007 
L 77.052436 48.372157 
L 77.127081 48.263292 
L 77.11153 48.676335 
L 77.161294 48.366891 
L 77.214168 48.660331 
L 77.242159 48.225135 
L 77.273262 48.477939 
L 77.316805 48.667975 
L 77.298143 48.300125 
L 77.363458 48.432129 
L 77.372789 48.352172 
L 77.441214 48.696949 
L 77.475426 48.386328 
L 77.484757 48.443697 
L 77.490977 48.612182 
L 77.5283 48.360245 
L 77.593614 48.483321 
L 77.652709 48.295886 
L 77.696252 48.611401 
L 77.699362 48.655656 
L 77.721133 48.236383 
L 77.786448 48.315933 
L 77.792668 48.274936 
L 77.833101 48.665302 
L 77.854873 48.565127 
L 77.889085 48.698073 
L 77.907747 48.425245 
L 77.963731 48.588311 
L 78.025935 48.422251 
L 78.004163 48.674939 
L 78.072588 48.544104 
L 78.175226 48.616961 
L 78.137903 48.24009 
L 78.181446 48.592705 
L 78.218769 48.395066 
L 78.193887 48.642156 
L 78.296524 48.434277 
L 78.396051 48.678147 
L 78.424043 48.592406 
L 78.452035 48.434815 
L 78.470696 48.681263 
L 78.52046 48.57229 
L 78.591995 48.676241 
L 78.536011 48.503791 
L 78.629318 48.633485 
L 78.707073 48.392607 
L 78.647979 48.664454 
L 78.738175 48.570649 
L 78.750616 48.691902 
L 78.828372 48.453957 
L 78.850143 48.629553 
L 78.862584 48.666883 
L 78.924789 48.456565 
L 78.934119 48.450368 
L 78.931009 48.556302 
L 78.937229 48.489817 
L 79.027426 48.686797 
L 79.046087 48.484569 
L 79.052308 48.560594 
L 79.123843 48.463525 
L 79.22648 48.680463 
L 79.235811 48.590353 
L 79.257582 48.630817 
L 79.245141 48.491548 
L 79.263803 48.52416 
L 79.344668 48.446398 
L 79.282464 48.663937 
L 79.36955 48.580819 
L 79.37577 48.682521 
L 79.400652 48.299998 
L 79.465967 48.550207 
L 79.497069 48.340157 
L 79.531281 48.662931 
L 79.581045 48.366708 
L 79.680572 48.587089 
L 79.618368 48.314876 
L 79.689903 48.408764 
L 79.705454 48.272589 
L 79.78943 48.690799 
L 79.79254 48.658305 
L 79.879626 48.403874 
L 79.907618 48.480739 
L 79.951161 48.680803 
L 80.004035 48.25029 
L 80.016476 48.409481 
L 80.019586 48.318361 
L 80.066239 48.648525 
L 80.125333 48.447527 
L 80.137774 48.215008 
L 80.184428 48.60943 
L 80.234191 48.418613 
L 80.240412 48.616142 
L 80.274624 48.096851 
L 80.339939 48.197725 
L 80.405253 48.689582 
L 80.346159 48.115792 
L 80.467458 48.471289 
L 80.470568 48.406408 
L 80.545213 48.675872 
L 80.576315 48.496999 
L 80.64785 48.699214 
L 80.582536 48.397125 
L 80.710055 48.51767 
L 80.722496 48.483304 
L 80.750488 48.681929 
L 80.797141 48.550816 
L 80.803361 48.691735 
L 80.843794 48.426609 
L 80.905999 48.549464 
L 80.996195 48.676659 
L 80.91844 48.462982 
L 81.005526 48.587658 
L 81.089502 48.395748 
L 81.024187 48.682807 
L 81.117494 48.549444 
L 81.229462 48.660817 
L 81.123714 48.517185 
L 81.235682 48.611758 
L 81.297886 48.428622 
L 81.313438 48.687058 
L 81.35076 48.557629 
L 81.422295 48.535507 
L 81.384973 48.688509 
L 81.453397 48.630338 
L 81.48761 48.648449 
L 81.506271 48.482762 
L 81.518712 48.542136 
L 81.596468 48.690691 
L 81.63068 48.436543 
L 81.689774 48.697337 
L 81.655562 48.421949 
L 81.748868 48.663193 
L 81.783081 48.420338 
L 81.826624 48.694385 
L 81.867057 48.490304 
L 81.941702 48.690544 
L 81.9106 48.319944 
L 81.975914 48.484335 
L 81.979025 48.436778 
L 82.003906 48.666238 
L 82.078552 48.593337 
L 82.131425 48.384025 
L 82.087882 48.68196 
L 82.19674 48.545232 
L 82.212291 48.689889 
L 82.255834 48.367006 
L 82.302488 48.545987 
L 82.386463 48.252973 
L 82.314928 48.634001 
L 82.411345 48.548567 
L 82.467329 48.471331 
L 82.417566 48.645057 
L 82.470439 48.484264 
L 82.48288 48.310399 
L 82.573077 48.696808 
L 82.582407 48.431409 
L 82.678824 48.692199 
L 82.594848 48.271465 
L 82.706816 48.603084 
L 82.797013 48.191177 
L 82.734808 48.666147 
L 82.818784 48.544651 
L 82.890319 48.610712 
L 82.852996 48.303381 
L 82.90587 48.430848 
L 82.915201 48.34289 
L 82.989846 48.671264 
L 83.005397 48.632425 
L 83.024059 48.68403 
L 83.061381 48.412581 
L 83.101814 48.466278 
L 83.1889 48.418487 
L 83.173349 48.678128 
L 83.198231 48.623623 
L 83.201341 48.676518 
L 83.285317 48.389434 
L 83.297758 48.426507 
L 83.387954 48.66996 
L 83.344411 48.40053 
L 83.415946 48.557797 
L 83.512363 48.393298 
L 83.447048 48.662081 
L 83.524804 48.549381 
L 83.636772 48.690065 
L 83.615 48.409475 
L 83.639882 48.643096 
L 83.730079 48.463615 
L 83.711417 48.693455 
L 83.74874 48.642938 
L 83.792283 48.694226 
L 83.804724 48.537088 
L 83.857598 48.652259 
L 83.944684 48.46907 
L 83.966455 48.673456 
L 84.100195 48.408581 
L 83.978896 48.691722 
L 84.106415 48.504241 
L 84.187281 48.68667 
L 84.156179 48.424597 
L 84.221493 48.635269 
L 84.330351 48.435155 
L 84.302359 48.676208 
L 84.336571 48.554049 
L 84.420547 48.667232 
L 84.439209 48.446065 
L 84.445429 48.566516 
L 84.479642 48.400165 
L 84.501413 48.699888 
L 84.554287 48.526329 
L 84.613381 48.422583 
L 84.669365 48.666206 
L 84.775112 48.20111 
L 84.787553 48.327741 
L 84.865309 48.664654 
L 84.896411 48.35904 
L 84.899521 48.307471 
L 84.924403 48.681448 
L 84.989718 48.546617 
L 85.048812 48.681732 
L 84.999048 48.403275 
L 85.098575 48.558347 
L 85.17011 48.447721 
L 85.117237 48.679367 
L 85.204323 48.577974 
L 85.278968 48.662961 
L 85.263417 48.279093 
L 85.30696 48.42641 
L 85.418928 48.614133 
L 85.331842 48.177055 
L 85.434479 48.538639 
L 85.465581 48.295434 
L 85.502904 48.59201 
L 85.546447 48.496206 
L 85.658415 48.677477 
L 85.577549 48.334691 
L 85.667746 48.604517 
L 85.686407 48.362561 
L 85.764162 48.649 
L 85.779714 48.41682 
L 85.832587 48.667539 
L 85.801485 48.312396 
L 85.882351 48.499596 
L 85.885461 48.370795 
L 85.956996 48.695005 
L 85.988098 48.669729 
L 86.072074 48.452713 
L 86.100066 48.649672 
L 86.15605 48.672463 
L 86.112507 48.538556 
L 86.165381 48.59633 
L 86.177822 48.479207 
L 86.268018 48.671906 
L 86.271128 48.664218 
L 86.30223 48.562127 
L 86.327112 48.680433 
L 86.43597 48.46817 
L 86.43908 48.479817 
L 86.57593 48.68887 
L 86.445301 48.465409 
L 86.585261 48.559931 
L 86.631914 48.383122 
L 86.669236 48.684379 
L 86.687898 48.621914 
L 86.774984 48.685388 
L 86.746992 48.551683 
L 86.784315 48.590454 
L 86.824747 48.437603 
L 86.796755 48.680332 
L 86.899393 48.453168 
L 86.949156 48.690211 
L 86.961597 48.43651 
L 87.011361 48.484715 
L 87.036242 48.698201 
L 87.120218 48.595698 
L 87.204194 48.417106 
L 87.157541 48.687659 
L 87.232186 48.528064 
L 87.260178 48.678044 
L 87.28195 48.301482 
L 87.344154 48.628041 
L 87.369036 48.373397 
L 87.397028 48.647418 
L 87.456122 48.543465 
L 87.471673 48.626736 
L 87.508996 48.207981 
L 87.56187 48.480127 
L 87.56498 48.443462 
L 87.642735 48.669208 
L 87.664507 48.55924 
L 87.720491 48.664184 
L 87.729822 48.483728 
L 87.748483 48.551264 
L 87.751593 48.421545 
L 87.85112 48.679793 
L 87.857341 48.466206 
L 87.888443 48.601472 
L 87.869781 48.250969 
L 87.966198 48.512335 
L 88.022182 48.341403 
L 87.99419 48.641198 
L 88.068835 48.591695 
L 88.165252 48.676702 
L 88.13726 48.348868 
L 88.177693 48.586428 
L 88.28033 48.44378 
L 88.230567 48.696021 
L 88.286551 48.5823 
L 88.308322 48.686068 
L 88.333204 48.462975 
L 88.392298 48.504489 
L 88.485605 48.344248 
L 88.466944 48.67933 
L 88.513597 48.444095 
L 88.529148 48.353369 
L 88.547809 48.653011 
L 88.56025 48.559902 
L 88.638006 48.679775 
L 88.665998 48.499007 
L 88.669108 48.51849 
L 88.749974 48.377486 
L 88.678439 48.611955 
L 88.768635 48.564799 
L 88.861942 48.686643 
L 88.796627 48.390008 
L 88.877493 48.574159 
L 88.952138 48.383309 
L 88.930366 48.642108 
L 88.970799 48.564436 
L 89.079657 48.683325 
L 88.98013 48.416181 
L 89.082767 48.676169 
L 89.169853 48.552765 
L 89.191625 48.632032 
L 89.253829 48.702651 
L 89.216507 48.481667 
L 89.291152 48.53616 
L 89.303593 48.384705 
L 89.393789 48.700749 
L 89.396899 48.629109 
L 89.490206 48.685762 
L 89.468435 48.528171 
L 89.508867 48.649308 
L 89.599064 48.696415 
L 89.574182 48.550923 
L 89.614615 48.685675 
L 89.673709 48.398692 
L 89.714142 48.694916 
L 89.726583 48.631267 
L 89.729693 48.690568 
L 89.782567 48.311344 
L 89.82922 48.539547 
L 89.913196 48.426 
L 89.882094 48.675427 
L 89.941188 48.496951 
L 89.96296 48.690643 
L 90.015833 48.393561 
L 90.018943 48.415246 
L 90.074927 48.246531 
L 90.10603 48.623873 
L 90.124691 48.494227 
L 90.130911 48.607509 
L 90.177565 48.254602 
L 90.236659 48.548755 
L 90.339296 48.6508 
L 90.264651 48.461601 
L 90.354847 48.578711 
L 90.382839 48.346217 
L 90.370398 48.632071 
L 90.463705 48.587299 
L 90.513468 48.665321 
L 90.479256 48.519561 
L 90.522799 48.528039 
L 90.53213 48.301902 
L 90.600555 48.655049 
L 90.637877 48.317617 
L 90.752955 48.639689 
L 90.647208 48.305204 
L 90.768506 48.488911 
L 90.784058 48.345172 
L 90.82138 48.65346 
L 90.874254 48.55912 
L 90.939569 48.67865 
L 90.976891 48.438154 
L 90.986222 48.583773 
L 91.057757 48.672222 
L 91.020434 48.391704 
L 91.079528 48.542175 
L 91.088859 48.319661 
L 91.129292 48.618001 
L 91.191496 48.411677 
L 91.228819 48.694379 
L 91.297244 48.487968 
L 91.300354 48.383435 
L 91.350118 48.667382 
L 91.406102 48.523141 
L 91.477637 48.69373 
L 91.490078 48.533643 
L 91.493188 48.44885 
L 91.53051 48.665522 
L 91.595825 48.598773 
L 91.66736 48.696294 
L 91.648699 48.488156 
L 91.686021 48.562497 
L 91.738895 48.521863 
L 91.729564 48.675071 
L 91.791769 48.607503 
L 91.900627 48.445005 
L 91.81354 48.657358 
L 91.922398 48.616793 
L 92.018815 48.676087 
L 91.934839 48.476415 
L 92.031256 48.649559 
L 92.068578 48.480685 
L 92.109011 48.690641 
L 92.140114 48.658718 
L 92.208538 48.502382 
L 92.168106 48.68182 
L 92.258302 48.618807 
L 92.339168 48.67338 
L 92.351609 48.512868 
L 92.360939 48.579648 
L 92.385821 48.481865 
L 92.398262 48.676795 
L 92.472907 48.557348 
L 92.550663 48.68884 
L 92.479128 48.550397 
L 92.572434 48.618391 
L 92.637749 48.312157 
L 92.612867 48.682629 
L 92.684402 48.474757 
L 92.734166 48.664303 
L 92.703063 48.42096 
L 92.79326 48.496097 
L 92.818142 48.321024 
L 92.889677 48.614107 
L 92.954991 48.667339 
L 92.973653 48.458607 
L 92.989204 48.50722 
L 93.007865 48.296194 
L 93.07318 48.666531 
L 93.098061 48.479888 
L 93.138494 48.683484 
L 93.191368 48.360623 
L 93.21936 48.587232 
L 93.250462 48.319481 
L 93.287785 48.68573 
L 93.325107 48.596466 
L 93.343769 48.665191 
L 93.387312 48.380877 
L 93.418414 48.400129 
L 93.421524 48.388811 
L 93.437075 48.682828 
L 93.486839 48.556542 
L 93.580145 48.688942 
L 93.527272 48.415093 
L 93.595697 48.636258 
L 93.611248 48.684433 
L 93.713885 48.37943 
L 93.744987 48.677566 
L 93.835183 48.542775 
L 93.872506 48.284793 
L 93.847624 48.61572 
L 93.937821 48.551309 
L 93.962702 48.67487 
L 94.015576 48.479587 
L 94.049789 48.651978 
L 94.084001 48.436255 
L 94.056009 48.695545 
L 94.161757 48.628174 
L 94.251953 48.516092 
L 94.183528 48.665034 
L 94.279945 48.561502 
L 94.323488 48.382962 
L 94.395023 48.691661 
L 94.49144 48.505245 
L 94.503881 48.648353 
L 94.569195 48.700747 
L 94.594077 48.548785 
L 94.609628 48.614227 
L 94.6314 48.548595 
L 94.687384 48.683217 
L 94.702935 48.555636 
" clip-path="url(#p824567adef)" style="fill: none; stroke: #1f77b4; stroke-width: 0.5; stroke-linecap: square"/>
   </g>
  </g>
 </g>
 <defs>
  <clipPath id="p824567adef">
   <rect x="0" y="-0" width="99.212598" height="51.023622"/>
  </clipPath>
 </defs>
</svg>
