<?xml version="1.0" encoding="utf-8" standalone="no"?>
<!DOCTYPE svg PUBLIC "-//W3C//DTD SVG 1.1//EN"
  "http://www.w3.org/Graphics/SVG/1.1/DTD/svg11.dtd">
<svg xmlns:xlink="http://www.w3.org/1999/xlink" width="99.212598pt" height="51.023622pt" viewBox="0 0 99.212598 51.023622" xmlns="http://www.w3.org/2000/svg" version="1.1">
 <metadata>
  <rdf:RDF xmlns:dc="http://purl.org/dc/elements/1.1/" xmlns:cc="http://creativecommons.org/ns#" xmlns:rdf="http://www.w3.org/1999/02/22-rdf-syntax-ns#">
   <cc:Work>
    <dc:type rdf:resource="http://purl.org/dc/dcmitype/StillImage"/>
    <dc:date>2024-10-30T10:51:19.488868</dc:date>
    <dc:format>image/svg+xml</dc:format>
    <dc:creator>
     <cc:Agent>
      <dc:title>Matplotlib v3.8.4, https://matplotlib.org/</dc:title>
     </cc:Agent>
    </dc:creator>
   </cc:Work>
  </rdf:RDF>
 </metadata>
 <defs>
  <style type="text/css">*{stroke-linejoin: round; stroke-linecap: butt}</style>
 </defs>
 <g id="figure_1">
  <g id="patch_1">
   <path d="M 0 51.023622 
L 99.212598 51.023622 
L 99.212598 0 
L 0 0 
L 0 51.023622 
z
" style="fill: none"/>
  </g>
  <g id="axes_1">
   <g id="patch_2">
    <path d="M 0 51.023622 
L 99.212598 51.023622 
L 99.212598 -0 
L 0 -0 
L 0 51.023622 
z
" style="fill: none"/>
   </g>
   <g id="matplotlib.axis_1">
    <g id="xtick_1"/>
    <g id="xtick_2"/>
   </g>
   <g id="matplotlib.axis_2">
    <g id="ytick_1"/>
    <g id="ytick_2"/>
   </g>
   <g id="line2d_1">
    <path d="M 4.509664 22.540925 
L 4.515884 22.791765 
L 4.525215 21.735306 
L 4.649623 2.319256 
L 4.718048 14.074198 
L 4.88911 32.246397 
L 4.982417 44.091335 
L 5.041511 36.399468 
L 5.078834 33.866022 
L 5.147259 36.920186 
L 5.237455 45.974713 
L 5.277888 40.183102 
L 5.433399 28.814369 
L 5.504934 36.866582 
L 5.694657 47.509776 
L 5.766192 47.957057 
L 5.781744 46.827891 
L 5.831507 43.949585 
L 5.890601 46.838585 
L 5.912373 48.576495 
L 5.952806 46.315683 
L 6.00879 47.768288 
L 6.080325 44.072329 
L 6.030561 48.544981 
L 6.130088 47.40844 
L 6.136309 47.589449 
L 6.195403 45.162296 
L 6.198513 45.227294 
L 6.207844 44.980511 
L 6.251387 46.463207 
L 6.285599 48.422895 
L 6.316701 44.675392 
L 6.335363 43.396517 
L 6.388236 47.391264 
L 6.425559 48.527604 
L 6.453551 46.202063 
L 6.509535 43.062395 
L 6.553078 46.741186 
L 6.668156 48.595933 
L 6.674377 48.424622 
L 6.755242 45.80487 
L 6.798786 47.538501 
L 6.801896 47.609628 
L 6.829888 45.956688 
L 6.845439 45.242677 
L 6.892092 48.369958 
L 6.938745 45.746665 
L 6.982289 48.388524 
L 7.097367 48.221541 
L 7.14713 48.626202 
L 7.196894 48.030974 
L 7.364846 45.900888 
L 7.203114 48.036141 
L 7.405278 46.661111 
L 7.42705 48.452315 
L 7.467483 45.887268 
L 7.529687 47.144076 
L 7.539018 46.944255 
L 7.56701 48.526798 
L 7.626104 47.637941 
L 7.641655 48.485164 
L 7.71319 46.977072 
L 7.747403 48.184807 
L 7.753623 48.244812 
L 7.769174 47.472085 
L 7.794056 46.974898 
L 7.862481 48.120922 
L 7.971338 48.570631 
L 7.912244 47.192219 
L 7.974449 48.31614 
L 8.045984 46.891781 
L 8.077086 48.439583 
L 8.114409 47.099191 
L 8.204605 47.447995 
L 8.154841 46.466624 
L 8.223266 47.080149 
L 8.226377 47.052068 
L 8.238817 47.799305 
L 8.245038 48.338321 
L 8.304132 46.7127 
L 8.344565 47.294318 
L 8.447202 48.447207 
L 8.40988 46.646854 
L 8.462753 47.890646 
L 8.493855 47.050589 
L 8.56228 48.390411 
L 8.577831 48.64985 
L 8.612044 47.328997 
L 8.664918 48.189222 
L 8.668028 48.247587 
L 8.739563 47.606279 
L 8.779996 47.110246 
L 8.811098 48.138389 
L 8.829759 47.949681 
L 8.935507 48.651296 
L 8.913735 47.783841 
L 8.944837 48.187955 
L 9.022593 47.458093 
L 8.98216 48.365644 
L 9.059916 47.79665 
L 9.078577 48.60511 
L 9.106569 47.645606 
L 9.162553 47.845663 
L 9.237198 46.718222 
L 9.171883 47.944995 
L 9.280741 47.359529 
L 9.299402 48.301653 
L 9.330505 46.745552 
L 9.398929 48.039324 
L 9.476685 47.132817 
L 9.448693 48.226078 
L 9.510897 47.892413 
L 9.579322 48.109823 
L 9.54822 46.886328 
L 9.601094 47.41446 
L 9.616645 47.804155 
L 9.632196 48.600796 
L 9.728613 48.046559 
L 9.781487 47.783158 
L 9.759715 48.54022 
L 9.83436 48.198584 
L 9.915226 48.631985 
L 9.884124 47.659435 
L 9.949438 48.35463 
L 9.999202 47.919438 
L 10.020973 48.521124 
L 10.055186 48.402681 
L 10.058296 48.495377 
L 10.126721 47.834939 
L 10.154713 48.083564 
L 10.232468 47.124953 
L 10.185815 48.22001 
L 10.300893 47.355612 
L 10.307114 47.383024 
L 10.325775 47.686072 
L 10.359987 47.144124 
L 10.415971 47.265961 
L 10.512388 45.961608 
L 10.478176 47.574719 
L 10.53105 46.875315 
L 10.636797 48.657147 
L 10.655458 47.902784 
L 10.68345 48.676016 
L 10.761206 47.768531 
L 10.782977 48.499907 
L 10.845182 47.570777 
L 10.904276 47.982809 
L 11.025575 48.501199 
L 10.997583 47.875727 
L 11.034905 48.482191 
L 11.125102 47.85084 
L 11.066007 48.495751 
L 11.149983 48.266121 
L 11.177975 48.085718 
L 11.212188 48.653277 
L 11.23707 48.313041 
L 11.24329 48.593524 
L 11.317935 47.53214 
L 11.349037 48.467849 
L 11.358368 48.586314 
L 11.38947 47.436677 
L 11.417462 46.913044 
L 11.464116 48.463463 
L 11.467226 48.590943 
L 11.507659 46.797001 
L 11.551202 47.49324 
L 11.554312 47.382985 
L 11.582304 48.176826 
L 11.644508 48.104471 
L 11.653839 48.546594 
L 11.691162 47.316328 
L 11.747146 47.753116 
L 11.753366 47.891752 
L 11.831122 48.321443 
L 11.852893 47.573783 
L 11.856003 47.430269 
L 11.936869 48.649878 
L 11.943089 48.518672 
L 12.036396 48.068288 
L 11.983522 48.66258 
L 12.061278 48.255872 
L 12.079939 48.157518 
L 12.09549 48.551693 
L 12.139033 48.6787 
L 12.179466 48.352465 
L 12.204348 48.531159 
L 12.331867 47.86984 
L 12.334977 47.918239 
L 12.534031 48.681742 
L 12.537142 48.48807 
L 12.701983 46.882313 
L 12.605566 48.673927 
L 12.708204 46.974408 
L 12.789069 48.157315 
L 12.754857 46.730229 
L 12.807731 47.094934 
L 12.823282 46.308947 
L 12.897927 47.845062 
L 12.910368 47.714028 
L 12.929029 48.608622 
L 13.031667 48.358511 
L 13.115642 48.681962 
L 13.056548 47.843583 
L 13.143634 48.482266 
L 13.215169 48.107207 
L 13.190288 48.680413 
L 13.258713 48.398684 
L 13.317807 48.596526 
L 13.336468 47.979976 
L 13.339578 48.071609 
L 13.352019 47.808827 
L 13.380011 48.64353 
L 13.448436 48.118015 
L 13.572845 48.676567 
L 13.488869 47.475747 
L 13.575955 48.601876 
L 13.597727 48.658822 
L 13.622608 48.166889 
L 13.628829 48.167216 
L 13.687923 48.633879 
L 13.743907 47.930347 
L 13.756348 47.876162 
L 13.765678 48.252199 
L 13.775009 48.488166 
L 13.849654 47.552363 
L 13.874536 48.32426 
L 13.93052 47.79406 
L 13.970953 48.64924 
L 13.974063 48.618618 
L 13.986504 48.196542 
L 14.082921 47.591784 
L 14.058039 48.613783 
L 14.098472 47.898236 
L 14.117133 48.649865 
L 14.148236 47.69417 
L 14.21044 48.138039 
L 14.285085 48.594633 
L 14.235322 47.713474 
L 14.322408 48.137717 
L 14.334849 47.926473 
L 14.34729 48.353362 
L 14.35351 48.679596 
L 14.449927 48.037394 
L 14.453037 48.062278 
L 14.456147 47.954572 
L 14.515241 48.619223 
L 14.555674 48.350299 
L 14.574336 48.562423 
L 14.652091 48.129035 
L 14.655201 48.103707 
L 14.680083 48.599035 
L 14.726736 48.420657 
L 14.732957 48.492829 
L 14.748508 48.013752 
L 14.7765 48.221768 
L 14.882247 47.901328 
L 14.804492 48.637564 
L 14.888468 48.161297 
L 14.900909 48.369228 
L 14.925791 48.527905 
L 14.991105 47.877679 
L 14.997326 48.037645 
L 15.000436 47.876985 
L 15.043979 48.640359 
L 15.103073 48.265564 
L 15.115514 48.643189 
L 15.19638 47.921889 
L 15.211931 47.309514 
L 15.277245 47.97825 
L 15.308348 47.814886 
L 15.333229 48.268326 
L 15.404764 47.352696 
L 15.410985 47.558096 
L 15.414095 47.536143 
L 15.429646 48.064945 
L 15.48252 47.82146 
L 15.504291 48.423448 
L 15.529173 47.749232 
L 15.585157 47.774059 
L 15.597598 47.463836 
L 15.63181 48.647335 
L 15.675354 48.383442 
L 15.787321 48.609241 
L 15.728227 48.0785 
L 15.790432 48.576541 
L 15.833975 48.199344 
L 15.883738 48.679003 
L 15.91173 48.24095 
L 15.955273 48.543435 
L 15.980155 48.108101 
L 15.995706 47.94082 
L 16.020588 48.472483 
L 16.067241 48.458201 
L 16.120115 48.684281 
L 16.089013 48.18228 
L 16.144997 48.369178 
L 16.235193 48.070428 
L 16.172989 48.44824 
L 16.253854 48.356567 
L 16.3285 48.649534 
L 16.309838 48.071986 
L 16.368933 48.435942 
L 16.431137 48.615431 
L 16.415586 48.224282 
L 16.456019 48.271279 
L 16.574207 47.320287 
L 16.533774 48.577229 
L 16.592868 47.628676 
L 16.664404 48.668333 
L 16.633301 47.519542 
L 16.714167 48.138071 
L 16.791923 47.746229 
L 16.767041 48.501289 
L 16.813694 48.206768 
L 16.826135 48.691761 
L 16.922552 48.118937 
L 16.994087 48.690888 
L 16.928772 48.046744 
L 17.053181 48.496064 
L 17.134047 48.157265 
L 17.087393 48.539062 
L 17.165149 48.358205 
L 17.230464 48.687328 
L 17.17448 48.197034 
L 17.280227 48.473917 
L 17.31444 48.597485 
L 17.32066 48.48178 
L 17.333101 47.907638 
L 17.395305 48.576586 
L 17.429518 48.486294 
L 17.516604 48.630256 
L 17.451289 48.203393 
L 17.529045 48.457579 
L 17.644123 48.215245 
L 17.563257 48.524876 
L 17.647233 48.220878 
L 17.805854 48.687822 
L 17.808965 48.571928 
L 17.911602 48.05711 
L 17.927153 48.257149 
L 17.933373 48.510931 
L 18.017349 47.962977 
L 18.0329 48.119539 
L 18.113766 48.559396 
L 18.054672 47.712029 
L 18.126207 48.095302 
L 18.16975 47.561491 
L 18.197742 48.55581 
L 18.244395 47.810209 
L 18.337702 48.574551 
L 18.300379 47.737869 
L 18.406127 48.403786 
L 18.502544 47.956398 
L 18.471441 48.561878 
L 18.518095 48.290137 
L 18.608291 48.106162 
L 18.636283 48.550823 
L 18.723369 48.100914 
L 18.651834 48.683378 
L 18.745141 48.610091 
L 18.760692 48.683725 
L 18.801125 48.202055 
L 18.816676 48.26532 
L 18.819786 48.235017 
L 18.86955 48.691754 
L 18.909982 48.442572 
L 18.953525 48.545212 
L 18.969077 48.174202 
L 18.981517 48.037292 
L 19.01262 48.57389 
L 19.068604 48.529903 
L 19.15569 48.210999 
L 19.105926 48.667648 
L 19.16502 48.50034 
L 19.270768 48.686864 
L 19.242776 48.223508 
L 19.273878 48.537644 
L 19.392067 48.064441 
L 19.395177 48.286856 
L 19.472932 48.619409 
L 19.43561 48.171469 
L 19.504034 48.181463 
L 19.513365 47.921377 
L 19.560018 48.606357 
L 19.606672 48.482188 
L 19.650215 48.140683 
L 19.715529 48.66986 
L 19.737301 48.2029 
L 19.780844 48.685665 
L 19.830608 48.323249 
L 19.877261 48.50825 
L 19.846159 48.079477 
L 19.902143 48.242655 
L 19.905253 48.112382 
L 19.951906 48.554691 
L 20.00478 48.539176 
L 20.011 48.679918 
L 20.082535 48.24931 
L 20.107417 48.269135 
L 20.200724 48.011015 
L 20.169622 48.681629 
L 20.210054 48.301642 
L 20.29403 48.660541 
L 20.322022 48.422895 
L 20.409108 48.661023 
L 20.387337 48.154614 
L 20.418439 48.404981 
L 20.486864 48.221315 
L 20.511746 48.655123 
L 20.527297 48.431306 
L 20.542848 48.640637 
L 20.626824 48.210786 
L 20.629934 48.201319 
L 20.642375 48.517109 
L 20.645485 48.497168 
L 20.676587 48.625172 
L 20.735682 48.161637 
L 20.738792 48.064683 
L 20.794776 48.646301 
L 20.832098 48.498459 
L 20.838319 48.666008 
L 20.85387 48.050155 
L 20.934736 48.279399 
L 21.018712 47.95592 
L 20.953397 48.551109 
L 21.046704 48.221158 
L 21.056034 48.295759 
L 21.074696 48.287774 
L 21.180443 48.645429 
L 21.115128 48.03917 
L 21.186663 48.45649 
L 21.255088 47.475812 
L 21.304852 47.864451 
L 21.342174 48.661813 
L 21.42304 48.363677 
L 21.475914 48.626475 
L 21.494575 47.974786 
L 21.497685 47.865431 
L 21.563 48.476508 
L 21.587882 48.398193 
L 21.693629 48.662345 
L 21.646976 48.119832 
L 21.70296 48.610468 
L 21.790046 48.136408 
L 21.814928 48.489427 
L 21.867802 48.219639 
L 21.930006 48.6645 
L 22.017092 48.054164 
L 22.045084 48.352619 
L 22.12595 48.685953 
L 22.141501 48.136468 
L 22.144611 48.013539 
L 22.191265 48.590973 
L 22.253469 48.039157 
L 22.2628 47.985077 
L 22.26902 48.272026 
L 22.275241 48.247107 
L 22.377878 48.669515 
L 22.340555 48.213053 
L 22.387208 48.355846 
L 22.489846 47.913351 
L 22.471184 48.569864 
L 22.502287 48.127716 
L 22.527168 48.694044 
L 22.598703 47.89162 
L 22.617365 48.4374 
L 22.710671 48.684635 
L 22.626695 48.25823 
L 22.732443 48.604833 
L 22.850631 48.003667 
L 22.744884 48.659712 
L 22.856852 48.194142 
L 22.866182 48.6526 
L 22.96882 48.24738 
L 23.083898 48.662259 
L 23.105669 48.44297 
L 23.211417 48.111659 
L 23.142992 48.675169 
L 23.217637 48.376674 
L 23.270511 48.35327 
L 23.239409 48.595317 
L 23.276731 48.505744 
L 23.326495 48.344216 
L 23.39181 48.677241 
L 23.444683 48.283279 
L 23.509998 48.399694 
L 23.593974 48.651657 
L 23.565982 48.239443 
L 23.618856 48.489592 
L 23.67795 48.286124 
L 23.709052 48.661439 
L 23.730823 48.417037 
L 23.839681 48.642556 
L 23.761926 47.949163 
L 23.849012 48.513444 
L 23.945429 48.145305 
L 23.858343 48.686369 
L 23.95787 48.492349 
L 23.96098 48.59624 
L 24.051176 48.082127 
L 24.054286 48.127999 
L 24.057397 48.040134 
L 24.10716 48.605798 
L 24.153813 48.42449 
L 24.156924 48.50124 
L 24.24712 48.181127 
L 24.259561 48.442281 
L 24.306214 47.776974 
L 24.281332 48.687413 
L 24.368419 48.366353 
L 24.39019 48.643081 
L 24.443064 48.005685 
L 24.471056 48.044172 
L 24.539481 47.963903 
L 24.502158 48.448168 
L 24.551922 48.223322 
L 24.639008 48.663389 
L 24.657669 48.143972 
L 24.66389 48.416072 
L 24.719873 48.250834 
L 24.698102 48.656879 
L 24.766527 48.541878 
L 24.822511 48.700243 
L 24.794519 48.331554 
L 24.834952 48.404957 
L 24.94692 48.188049 
L 24.918928 48.616053 
L 24.95314 48.285601 
L 25.006014 48.697671 
L 25.030895 47.996188 
L 25.071328 48.509744 
L 25.127312 48.244739 
L 25.083769 48.629176 
L 25.177076 48.519343 
L 25.279713 48.693764 
L 25.254831 47.98917 
L 25.285934 48.487299 
L 25.345028 48.647913 
L 25.313925 48.336497 
L 25.401012 48.564224 
L 25.450775 48.107478 
L 25.422783 48.654924 
L 25.51298 48.553649 
L 25.562743 48.642263 
L 25.581404 48.234932 
L 25.603176 48.40061 
L 25.66227 47.955916 
L 25.631168 48.647396 
L 25.708923 48.406722 
L 25.786679 48.644456 
L 25.727585 48.147775 
L 25.820891 48.476559 
L 25.873765 48.615151 
L 25.851994 48.186636 
L 25.892426 48.450809 
L 26.001284 48.126847 
L 25.970182 48.680194 
L 26.004394 48.220166 
L 26.110142 48.63631 
L 26.122583 48.440726 
L 26.234551 48.688067 
L 26.153685 48.199402 
L 26.237661 48.495332 
L 26.243881 48.326196 
L 26.290535 48.671235 
L 26.349629 48.432208 
L 26.418054 48.674577 
L 26.452266 48.309022 
L 26.458486 48.429324 
L 26.498919 48.648204 
L 26.536242 48.262499 
L 26.570454 48.465092 
L 26.607777 48.175958 
L 26.64821 48.59221 
L 26.663761 48.539654 
L 26.673092 48.61886 
L 26.760178 48.34829 
L 26.766398 48.165853 
L 26.79128 48.635841 
L 26.869036 48.431873 
L 26.897028 48.352857 
L 26.884587 48.632115 
L 26.965452 48.570359 
L 27.055649 48.670744 
L 26.984114 48.463204 
L 27.06809 48.595503 
L 27.108522 48.110072 
L 27.152066 48.679637 
L 27.180058 48.489763 
L 27.257813 48.659109 
L 27.192498 48.35367 
L 27.273364 48.431112 
L 27.307577 48.641534 
L 27.391552 47.988788 
L 27.413324 48.643866 
L 27.509741 48.383253 
L 27.606158 48.104177 
L 27.578166 48.591257 
L 27.621709 48.296443 
L 27.721236 48.625769 
L 27.649701 47.976161 
L 27.743007 48.566866 
L 27.792771 48.690858 
L 27.770999 48.364824 
L 27.833204 48.363478 
L 27.901629 47.991596 
L 27.848755 48.532934 
L 27.935841 48.494413 
L 28.038478 48.633168 
L 28.001156 48.263334 
L 28.050919 48.61488 
L 28.100683 48.316546 
L 28.085132 48.657663 
L 28.162887 48.457317 
L 28.175328 48.261255 
L 28.193989 48.620868 
L 28.20021 48.620117 
L 28.20332 48.660623 
L 28.249973 48.233217 
L 28.281075 48.281177 
L 28.371272 48.186418 
L 28.3495 48.645711 
L 28.380602 48.312395 
L 28.427256 48.655273 
L 28.445917 48.146829 
L 28.498791 48.613921 
L 28.570326 48.429797 
L 28.505011 48.670916 
L 28.604538 48.52134 
L 28.641861 48.681076 
L 28.663632 48.409806 
L 28.710286 48.446464 
L 28.725837 47.963844 
L 28.781821 48.656243 
L 28.819143 48.507912 
L 28.850246 48.17428 
L 28.881348 48.661476 
L 28.931111 48.4324 
L 28.937332 48.613103 
L 29.036859 48.291499 
L 29.039969 48.099232 
L 29.105284 48.644676 
L 29.145717 48.340913 
L 29.18926 48.56334 
L 29.226582 48.2746 
L 29.251464 47.89179 
L 29.288787 48.579217 
L 29.32922 48.525577 
L 29.410085 48.27849 
L 29.354101 48.639554 
L 29.438077 48.558569 
L 29.528274 48.673989 
L 29.47851 48.238982 
L 29.540715 48.536161 
L 29.640242 48.20107 
L 29.584258 48.643631 
L 29.652682 48.493745 
L 29.658903 48.65225 
L 29.75221 48.23948 
L 29.75532 48.259719 
L 29.823745 48.65345 
L 29.89528 48.54359 
L 29.90461 48.305642 
L 29.979256 48.689789 
L 30.007248 48.363145 
L 30.032129 48.668037 
L 30.085003 48.310942 
L 30.122326 48.606165 
L 30.153428 48.418069 
L 30.172089 48.687525 
L 30.234294 48.526903 
L 30.33071 48.346213 
L 30.299608 48.703499 
L 30.346262 48.489352 
L 30.414686 48.603677 
L 30.358702 48.237699 
L 30.455119 48.480563 
L 30.514213 48.3587 
L 30.495552 48.667753 
L 30.554646 48.61474 
L 30.651063 48.692635 
L 30.61063 48.447882 
L 30.663504 48.637915 
L 30.759921 48.352825 
L 30.74437 48.684302 
L 30.778582 48.56299 
L 30.856338 48.661109 
L 30.794133 48.365828 
L 30.88744 48.556605 
L 30.927873 48.191435 
L 30.899881 48.629827 
L 31.005628 48.326836 
L 31.018069 48.676719 
L 31.058502 48.209424 
L 31.114486 48.369757 
L 31.210903 48.204117 
L 31.142478 48.585263 
L 31.220233 48.447762 
L 31.31665 48.67956 
L 31.266887 48.196124 
L 31.341532 48.556743 
L 31.437949 47.812242 
L 31.369524 48.639398 
L 31.45661 48.514151 
L 31.462831 48.644936 
L 31.506374 48.133133 
L 31.562358 48.561136 
L 31.633893 48.233745 
L 31.60279 48.693771 
L 31.671215 48.450787 
L 31.776963 48.696393 
L 31.692987 48.270741 
L 31.780073 48.594493 
L 31.823616 48.679525 
L 31.895151 48.333026 
L 31.898261 48.327954 
L 31.907592 48.467837 
L 31.979127 48.69351 
L 32.013339 48.366786 
L 32.047552 48.212227 
L 32.059993 48.637833 
L 32.109756 48.574596 
L 32.15641 48.356557 
L 32.147079 48.669595 
L 32.243496 48.450964 
L 32.315031 48.672023 
L 32.255937 48.427839 
L 32.355464 48.517538 
L 32.414558 48.660544 
L 32.364794 48.40683 
L 32.433219 48.445496 
L 32.44255 48.320793 
L 32.520305 48.683042 
L 32.526526 48.629895 
L 32.601171 48.68734 
L 32.557628 48.232002 
L 32.616722 48.448941 
L 32.632273 48.35586 
L 32.694478 48.632685 
L 32.710029 48.542307 
L 32.753572 48.676324 
L 32.806446 48.343936 
L 32.828217 48.266516 
L 32.86865 48.680678 
L 32.899752 48.476739 
L 32.946406 48.660607 
L 32.993059 48.276199 
L 33.002389 48.483439 
L 33.0055 48.204769 
L 33.030381 48.696687 
L 33.114357 48.328725 
L 33.279199 48.670865 
L 33.14857 48.18804 
L 33.313411 48.491423 
L 33.344514 48.256926 
L 33.363175 48.610975 
L 33.422269 48.54757 
L 33.472033 48.606608 
L 33.506245 48.314896 
L 33.524906 48.469455 
L 33.534237 48.291427 
L 33.615103 48.679646 
L 33.630654 48.493155 
L 33.733291 48.680388 
L 33.71152 48.342337 
L 33.745732 48.520224 
L 33.748842 48.353575 
L 33.823488 48.655331 
L 33.85459 48.536713 
L 33.904353 48.658373 
L 33.879472 48.367628 
L 33.966558 48.614983 
L 34.044313 48.220007 
L 34.006991 48.654344 
L 34.078526 48.511274 
L 34.084746 48.543658 
L 34.109628 48.663657 
L 34.122069 48.478877 
L 34.193604 48.526441 
L 34.252698 48.682694 
L 34.212265 48.495817 
L 34.28691 48.478273 
L 34.305572 48.284078 
L 34.339784 48.694031 
L 34.395768 48.469049 
L 34.501516 48.683628 
L 34.451752 48.251703 
L 34.507736 48.543859 
L 34.532618 48.652252 
L 34.588602 48.287607 
L 34.616594 48.584471 
L 34.71301 48.114326 
L 34.657027 48.641177 
L 34.728562 48.501521 
L 34.806317 48.627904 
L 34.787656 48.29269 
L 34.834309 48.308566 
L 34.874742 48.235749 
L 34.902734 48.595811 
L 34.924505 48.682016 
L 34.908954 48.552615 
L 34.927616 48.552401 
L 34.999151 48.318062 
L 34.952497 48.677348 
L 35.039584 48.445604 
L 35.080016 48.161385 
L 35.095568 48.643648 
L 35.108008 48.600096 
L 35.198205 48.649541 
L 35.163992 48.250602 
L 35.204425 48.628498 
L 35.27596 48.228453 
L 35.288401 48.654822 
L 35.316393 48.316702 
L 35.397259 48.690418 
L 35.344385 48.310742 
L 35.440802 48.61546 
L 35.496786 48.215899 
L 35.465684 48.659228 
L 35.571431 48.398719 
L 35.580762 48.684065 
L 35.674068 48.213142 
L 35.773596 48.65951 
L 35.726942 48.208555 
L 35.807808 48.519546 
L 35.814028 48.326714 
L 35.8358 48.671955 
L 35.916666 48.487323 
L 35.994421 48.354373 
L 36.028634 48.653322 
L 36.062846 48.364904 
L 36.11261 48.700955 
L 36.143712 48.451749 
L 36.209026 48.663469 
L 36.190365 48.363059 
L 36.26501 48.563073 
L 36.342766 48.238017 
L 36.327215 48.687846 
L 36.373868 48.49327 
L 36.376978 48.685639 
L 36.439183 48.228067 
L 36.479615 48.384105 
L 36.532489 48.215318 
L 36.551151 48.674551 
L 36.582253 48.5385 
L 36.663118 48.338997 
L 36.588473 48.678455 
L 36.69111 48.520655 
L 36.790637 48.641674 
L 36.762646 48.236039 
L 36.799968 48.504279 
L 36.893275 48.678618 
L 36.840401 48.338454 
L 36.915046 48.51655 
L 37.014573 48.227225 
L 36.977251 48.66155 
L 37.023904 48.336478 
L 37.082998 48.677277 
L 37.135872 48.556851 
L 37.179415 48.327572 
L 37.194966 48.660611 
L 37.24473 48.529349 
L 37.316265 48.677117 
L 37.263391 48.314441 
L 37.359808 48.620658 
L 37.369138 48.662969 
L 37.375359 48.495442 
L 37.418902 48.280348 
L 37.39713 48.611722 
L 37.481106 48.577782 
L 37.53087 48.692377 
L 37.540201 48.258777 
L 37.583744 48.586707 
L 37.608625 48.445534 
L 37.593074 48.689348 
L 37.692601 48.547287 
L 37.736144 48.698712 
L 37.711263 48.41584 
L 37.798349 48.503524 
L 37.801459 48.37538 
L 37.845002 48.660177 
L 37.907206 48.53634 
L 38.000513 48.409217 
L 37.975631 48.687012 
L 38.016064 48.466978 
L 38.062717 48.685317 
L 38.10315 48.43129 
L 38.134253 48.645904 
L 38.24622 48.334504 
L 38.180906 48.65466 
L 38.267992 48.406785 
L 38.361299 48.668023 
L 38.37996 48.526841 
L 38.426613 48.345864 
L 38.411062 48.681522 
L 38.495038 48.45759 
L 38.616337 48.092615 
L 38.510589 48.679643 
L 38.625667 48.249875 
L 38.687872 48.690459 
L 38.737635 48.541648 
L 38.756297 48.206133 
L 38.793619 48.640427 
L 38.849603 48.510509 
L 38.94913 48.670254 
L 38.927359 48.229109 
L 38.961571 48.599353 
L 39.051767 48.127622 
L 39.005114 48.620369 
L 39.073539 48.403781 
L 39.157515 48.661169 
L 39.0922 48.320863 
L 39.185507 48.458844 
L 39.247711 48.683116 
L 39.281924 48.300641 
L 39.297475 48.524984 
L 39.300585 48.431758 
L 39.322357 48.655838 
L 39.406333 48.576971 
L 39.456096 48.381643 
L 39.443655 48.631061 
L 39.51208 48.566675 
L 39.555623 48.654225 
L 39.533852 48.186563 
L 39.624048 48.602141 
L 39.64893 48.653667 
L 39.667591 48.299867 
L 39.717355 48.531776 
L 39.726685 48.387985 
L 39.757787 48.645093 
L 39.823102 48.586873 
L 39.903968 48.697612 
L 39.922629 48.444449 
L 39.92885 48.48424 
L 40.015936 48.416823 
L 39.963062 48.683445 
L 40.022156 48.504701 
L 40.034597 48.65148 
L 40.059479 48.321474 
L 40.127904 48.390183 
L 40.230541 48.155176 
L 40.146565 48.609775 
L 40.239872 48.349696 
L 40.252312 48.68262 
L 40.36428 48.640403 
L 40.376721 48.302311 
L 40.435815 48.689553 
L 40.479358 48.529128 
L 40.482469 48.691574 
L 40.578886 48.345578 
L 40.591326 48.604418 
L 40.690853 48.660918 
L 40.731286 48.177618 
L 40.812152 48.657582 
L 40.843254 48.31725 
L 40.846364 48.226717 
L 40.877467 48.626574 
L 40.952112 48.292509 
L 41.057859 48.688619 
L 41.0703 48.322606 
L 41.07341 48.241547 
L 41.088962 48.69182 
L 41.172938 48.433485 
L 41.20093 48.684392 
L 41.244473 48.373563 
L 41.284905 48.503028 
L 41.325338 48.141404 
L 41.365771 48.652364 
L 41.403094 48.338346 
L 41.471519 48.660601 
L 41.515062 48.479264 
L 41.536833 48.272809 
L 41.524392 48.684494 
L 41.623919 48.482429 
L 41.738998 48.672966 
L 41.63325 48.463714 
L 41.742108 48.625184 
L 41.829194 48.429049 
L 41.816753 48.672442 
L 41.850966 48.64243 
L 41.928721 48.673381 
L 41.885178 48.519032 
L 41.934941 48.516646 
L 41.956713 48.479836 
L 41.978485 48.656321 
L 42.000256 48.595341 
L 42.003366 48.692103 
L 42.043799 48.427057 
L 42.109114 48.563951 
L 42.217971 48.358427 
L 42.171318 48.626939 
L 42.227302 48.435097 
L 42.239743 48.674726 
L 42.323719 48.118149 
L 42.33616 48.460257 
L 42.351711 48.679553 
L 42.379703 48.355704 
L 42.445018 48.571638 
L 42.525883 48.247136 
L 42.538324 48.67816 
L 42.553875 48.46505 
L 42.61608 48.693284 
L 42.647182 48.132682 
L 42.662733 48.454918 
L 42.743599 48.338979 
L 42.728048 48.678852 
L 42.75604 48.516376 
L 42.808913 48.651688 
L 42.774701 48.222934 
L 42.864897 48.537544 
L 42.892889 48.157458 
L 42.951983 48.610484 
L 42.973755 48.548505 
L 43.026629 48.691083 
L 43.057731 48.375812 
L 43.073282 48.516311 
L 43.18525 48.390601 
L 43.088833 48.614884 
L 43.18836 48.443741 
L 43.238124 48.685897 
L 43.266116 48.369472 
L 43.303438 48.656325 
L 43.343871 48.1782 
L 43.418516 48.466758 
L 43.496272 48.682398 
L 43.47139 48.296448 
L 43.527374 48.388857 
L 43.530484 48.302481 
L 43.602019 48.691825 
L 43.633122 48.464681 
L 43.648673 48.327063 
L 43.658003 48.529447 
L 43.704657 48.532213 
L 43.797963 48.654079 
L 43.760641 48.342138 
L 43.810404 48.433444 
L 43.816625 48.344538 
L 43.819735 48.471544 
L 43.825955 48.687991 
L 43.863278 48.45198 
L 43.928593 48.650206 
L 43.990797 48.382967 
L 43.950364 48.694653 
L 44.04056 48.48936 
L 44.17741 48.702081 
L 44.118316 48.442 
L 44.183631 48.55479 
L 44.208512 48.200585 
L 44.236504 48.690481 
L 44.283158 48.603583 
L 44.376464 48.698555 
L 44.31115 48.475923 
L 44.385795 48.496734 
L 44.395126 48.662608 
L 44.432448 48.366949 
L 44.519534 48.266457 
L 44.451109 48.670131 
L 44.531975 48.510036 
L 44.538196 48.67712 
L 44.566188 48.265001 
L 44.640833 48.478068 
L 44.721699 48.117354 
L 44.73725 48.611621 
L 44.836777 48.680946 
L 44.811895 48.232324 
L 44.839887 48.628281 
L 44.88343 48.370395 
L 44.917642 48.699286 
L 44.954965 48.482953 
L 44.958075 48.440464 
L 45.001618 48.688407 
L 45.051382 48.581404 
L 45.060713 48.677929 
L 45.132248 48.359261 
L 45.16024 48.587681 
L 45.200673 48.294409 
L 45.262877 48.645578 
L 45.272208 48.4999 
L 45.321971 48.666181 
L 45.281538 48.484133 
L 45.356184 48.572324 
L 45.362404 48.307332 
L 45.374845 48.667567 
L 45.465041 48.62182 
L 45.474372 48.472642 
L 45.480592 48.38108 
L 45.561458 48.633202 
L 45.577009 48.628233 
L 45.611222 48.332695 
L 45.626773 48.672413 
L 45.688977 48.611507 
L 45.751181 48.663444 
L 45.707638 48.439433 
L 45.776063 48.552994 
L 45.804055 48.673321 
L 45.888031 48.437771 
L 45.900472 48.691697 
L 45.999999 48.505835 
L 46.01555 48.422193 
L 46.01866 48.360227 
L 46.083975 48.700197 
L 46.111967 48.568283 
L 46.115077 48.698565 
L 46.180392 48.436781 
L 46.220825 48.612698 
L 46.283029 48.384698 
L 46.314131 48.676506 
L 46.329682 48.636677 
L 46.457201 48.342317 
L 46.354564 48.646129 
L 46.478973 48.515058 
L 46.58161 48.683878 
L 46.569169 48.431792 
L 46.58472 48.584052 
L 46.640704 48.384686 
L 46.659366 48.683006 
L 46.696688 48.526866 
L 46.777554 48.336508 
L 46.786885 48.645936 
L 46.811766 48.404212 
L 46.951726 48.691468 
L 46.833538 48.294824 
L 46.979718 48.582032 
L 47.041923 48.287234 
L 47.082356 48.679135 
L 47.085466 48.645684 
L 47.091686 48.655488 
L 47.116568 48.485593 
L 47.160111 48.344793 
L 47.184993 48.693297 
L 47.222316 48.657725 
L 47.324953 48.308825 
L 47.28141 48.675203 
L 47.346724 48.495772 
L 47.415149 48.685923 
L 47.440031 48.304355 
L 47.443141 48.177665 
L 47.533338 48.687578 
L 47.542668 48.571444 
L 47.635975 48.689334 
L 47.56133 48.483443 
L 47.645305 48.505134 
L 47.651526 48.323074 
L 47.735502 48.693643 
L 47.757273 48.436001 
L 47.763494 48.361903 
L 47.825698 48.651322 
L 47.85369 48.546054 
L 47.906564 48.675729 
L 47.950107 48.455586 
L 47.956327 48.495808 
L 48.052744 48.3576 
L 47.999871 48.678683 
L 48.062075 48.589657 
L 48.102508 48.45476 
L 48.074516 48.687607 
L 48.114949 48.587743 
L 48.118059 48.692787 
L 48.12739 48.465263 
L 48.223806 48.631754 
L 48.329554 48.208035 
L 48.230027 48.676629 
L 48.348215 48.496929 
L 48.382428 48.683871 
L 48.41353 48.372627 
L 48.460183 48.622556 
L 48.528608 48.388722 
L 48.469514 48.686032 
L 48.569041 48.537949 
L 48.671678 48.683405 
L 48.659237 48.386818 
L 48.677899 48.537396 
L 48.681009 48.544315 
L 48.69967 48.33656 
L 48.705891 48.458445 
L 48.799197 48.230419 
L 48.730772 48.669211 
L 48.814748 48.501395 
L 48.892504 48.691437 
L 48.873842 48.236641 
L 48.926716 48.627829 
L 48.957818 48.389801 
L 49.048015 48.571372 
L 49.107109 48.674318 
L 49.11955 48.375145 
L 49.144432 48.517961 
L 49.153762 48.283989 
L 49.187975 48.685722 
L 49.256399 48.497859 
L 49.337265 48.35019 
L 49.318604 48.675285 
L 49.346596 48.590485 
L 49.40258 48.644621 
L 49.433682 48.270933 
L 49.436792 48.207428 
L 49.514548 48.647795 
L 49.530099 48.566164 
L 49.586083 48.68448 
L 49.592303 48.308401 
L 49.632736 48.518417 
L 49.6825 48.381222 
L 49.654508 48.667269 
L 49.738484 48.493354 
L 49.83179 48.686875 
L 49.763365 48.28934 
L 49.850451 48.559906 
L 49.934427 48.689732 
L 49.890884 48.386444 
L 49.96553 48.646496 
L 50.061946 48.501874 
L 49.984191 48.660192 
L 50.077498 48.586274 
L 50.139702 48.355279 
L 50.1086 48.693008 
L 50.186355 48.540614 
L 50.211237 48.684352 
L 50.239229 48.43085 
L 50.304544 48.669867 
L 50.419622 48.425991 
L 50.360528 48.684498 
L 50.422732 48.434243 
L 50.481826 48.680696 
L 50.432063 48.303278 
L 50.5347 48.523711 
L 50.581353 48.51408 
L 50.556471 48.678173 
L 50.606235 48.622493 
L 50.715093 48.697404 
L 50.646668 48.359402 
L 50.718203 48.690719 
L 50.805289 48.416914 
L 50.827061 48.599033 
L 50.867493 48.672617 
L 50.883045 48.468172 
L 50.935918 48.622968 
L 51.032335 48.256865 
L 50.976351 48.659405 
L 51.050996 48.457135 
L 51.131862 48.630705 
L 51.075878 48.316214 
L 51.156744 48.388947 
L 51.169185 48.487352 
L 51.166075 48.356087 
L 51.172295 48.431929 
L 51.228279 48.665625 
L 51.256271 48.235588 
L 51.284263 48.545151 
L 51.365129 48.377028 
L 51.309145 48.663331 
L 51.396231 48.509068 
L 51.433553 48.687704 
L 51.458435 48.362081 
L 51.505089 48.492624 
L 51.557962 48.25345 
L 51.536191 48.625069 
L 51.610836 48.577451 
L 51.676151 48.680805 
L 51.713473 48.369411 
L 51.716584 48.475612 
L 51.794339 48.367059 
L 51.778788 48.679753 
L 51.822331 48.508022 
L 51.825441 48.677571 
L 51.840992 48.294663 
L 51.931189 48.498979 
L 51.993393 48.685696 
L 51.95607 48.366512 
L 52.049377 48.584802 
L 52.105361 48.33204 
L 52.064928 48.644963 
L 52.161345 48.511166 
L 52.176896 48.486256 
L 52.276423 48.686822 
L 52.295084 48.296338 
L 52.391501 48.554698 
L 52.500359 48.424172 
L 52.416383 48.66615 
L 52.5128 48.467032 
L 52.581225 48.698074 
L 52.547012 48.461802 
L 52.624768 48.532422 
L 52.696303 48.662655 
L 52.646539 48.403706 
L 52.736736 48.652656 
L 52.811381 48.499896 
L 52.845593 48.664543 
L 52.848704 48.617368 
L 52.910908 48.38054 
L 52.879806 48.680254 
L 52.960672 48.594636 
L 52.988664 48.666669 
L 53.001104 48.361966 
L 53.053978 48.401644 
L 53.144175 48.256098 
L 53.072639 48.567767 
L 53.153505 48.464493 
L 53.240591 48.695561 
L 53.190828 48.401109 
L 53.268583 48.614865 
L 53.302796 48.408633 
L 53.284134 48.649558 
L 53.377441 48.584999 
L 53.386772 48.673311 
L 53.414764 48.312659 
L 53.486299 48.564585 
L 53.588936 48.469207 
L 53.49874 48.691268 
L 53.595156 48.510823 
L 53.629369 48.682843 
L 53.613818 48.363035 
L 53.707124 48.61565 
L 53.812872 48.303362 
L 53.738227 48.670437 
L 53.837754 48.508759 
L 53.847084 48.677646 
L 53.859525 48.489793 
L 53.952832 48.645417 
L 54.015036 48.379874 
L 53.962162 48.681169 
L 54.058579 48.643094 
L 54.061689 48.673506 
L 54.136335 48.535526 
L 54.145665 48.536503 
L 54.161216 48.364891 
L 54.189208 48.660531 
L 54.254523 48.588761 
L 54.326058 48.671498 
L 54.291846 48.473962 
L 54.360271 48.598306 
L 54.459798 48.379331 
L 54.388263 48.667123 
L 54.469128 48.479323 
L 54.543774 48.686823 
L 54.48779 48.355548 
L 54.581096 48.608587 
L 54.590427 48.447958 
L 54.683733 48.675174 
L 54.689954 48.591734 
L 54.739717 48.70202 
L 54.730387 48.488351 
L 54.786371 48.621859 
L 54.889008 48.369205 
L 54.826804 48.697771 
L 54.895228 48.60959 
L 54.938771 48.405553 
L 54.951212 48.688889 
L 54.991645 48.552286 
L 55.091172 48.690037 
L 55.025858 48.464327 
L 55.100503 48.582166 
L 55.119164 48.702391 
L 55.212471 48.40337 
L 55.324439 48.679431 
L 55.327549 48.659406 
L 55.392864 48.312315 
L 55.349321 48.666561 
L 55.461288 48.509851 
L 55.517272 48.681277 
L 55.47995 48.283259 
L 55.570146 48.496378 
L 55.573256 48.426216 
L 55.641681 48.698437 
L 55.672783 48.657115 
L 55.75987 48.683405 
L 55.703886 48.329413 
L 55.7692 48.604295 
L 55.840735 48.249701 
L 55.775421 48.649608 
L 55.884278 48.435394 
L 55.965144 48.669764 
L 55.996246 48.667466 
L 56.04601 48.380681 
L 56.018018 48.674681 
L 56.105104 48.586551 
L 56.108214 48.674909 
L 56.1953 48.219417 
L 56.210851 48.593496 
L 56.260615 48.337608 
L 56.282387 48.682641 
L 56.319709 48.561697 
L 56.366362 48.414201 
L 56.434787 48.697114 
L 56.556086 48.294381 
L 56.658723 48.665252 
L 56.671164 48.619401 
L 56.76136 48.363513 
L 56.708487 48.663535 
L 56.780022 48.60382 
L 56.795573 48.667959 
L 56.820455 48.438142 
L 56.867108 48.530717 
L 56.873328 48.428026 
L 56.932423 48.658394 
L 56.975966 48.53524 
L 57.050611 48.665087 
L 57.078603 48.45724 
L 57.159469 48.697819 
L 57.212342 48.481295 
L 57.283877 48.375116 
L 57.296318 48.663159 
L 57.31809 48.566842 
L 57.377184 48.62598 
L 57.420727 48.702508 
L 57.448719 48.384316 
L 57.479821 48.509451 
L 57.517144 48.390381 
L 57.560687 48.653562 
L 57.585569 48.463906 
L 57.694426 48.682665 
L 57.647773 48.358533 
L 57.697537 48.64065 
L 57.778402 48.370717 
L 57.731749 48.667951 
L 57.809505 48.471385 
L 57.874819 48.687991 
L 57.909032 48.390542 
L 57.918362 48.556248 
L 57.924583 48.250448 
L 57.996118 48.648811 
L 58.03033 48.47635 
L 58.136078 48.693872 
L 58.142298 48.666538 
L 58.192062 48.416413 
L 58.248046 48.693879 
L 58.257376 48.612811 
L 58.297809 48.259246 
L 58.350683 48.682496 
L 58.363124 48.641772 
L 58.412887 48.669672 
L 58.391116 48.434268 
L 58.425328 48.592257 
L 58.45021 48.301676 
L 58.468871 48.686374 
L 58.537296 48.545407 
L 58.630603 48.675764 
L 58.615052 48.463512 
L 58.646154 48.557502 
L 58.708358 48.291089 
L 58.658595 48.622115 
L 58.751901 48.514812 
L 58.776783 48.685888 
L 58.770563 48.448945 
L 58.863869 48.618196 
L 58.907412 48.437139 
L 58.947845 48.679603 
L 58.975837 48.543045 
L 59.000719 48.48318 
L 58.988278 48.682789 
L 59.069144 48.603978 
L 59.103356 48.694695 
L 59.134458 48.513693 
L 59.178001 48.631675 
L 59.230875 48.430428 
L 59.190442 48.690058 
L 59.29308 48.609125 
L 59.2993 48.627052 
L 59.308631 48.458993 
L 59.336623 48.450406 
L 59.355284 48.659947 
L 59.370835 48.552003 
L 59.479693 48.692167 
L 59.408158 48.404655 
L 59.482803 48.593117 
L 59.563669 48.699303 
L 59.529456 48.494911 
L 59.58855 48.637667 
L 59.697408 48.404141 
L 59.622763 48.685433 
L 59.703629 48.513331 
L 59.806266 48.679661 
L 59.734731 48.432821 
L 59.818707 48.662313 
L 59.821817 48.698393 
L 59.899572 48.473048 
L 59.918234 48.563618 
L 59.992879 48.453153 
L 59.943116 48.68888 
L 60.023981 48.649738 
L 60.123508 48.463432 
L 60.061304 48.6813 
L 60.1515 48.507111 
L 60.229256 48.681191 
L 60.160831 48.40105 
L 60.263468 48.585339 
L 60.347444 48.668935 
L 60.310122 48.42113 
L 60.350554 48.581143 
L 60.366105 48.328062 
L 60.378546 48.681242 
L 60.459412 48.58027 
L 60.496735 48.68202 
L 60.534057 48.417223 
L 60.562049 48.545272 
L 60.56516 48.411453 
L 60.614923 48.698817 
L 60.670907 48.590377 
L 60.757993 48.696754 
L 60.736222 48.404918 
L 60.782875 48.606622 
L 60.838859 48.447925 
L 60.798426 48.670704 
L 60.891733 48.62062 
L 60.938386 48.671302 
L 60.932166 48.428258 
L 60.99126 48.649078 
L 61.056574 48.415929 
L 61.062795 48.657132 
L 61.100117 48.652679 
L 61.218306 48.373406 
L 61.152991 48.693694 
L 61.227636 48.414548 
L 61.302282 48.67644 
L 61.2774 48.394973 
L 61.342715 48.65521 
L 61.426691 48.47854 
L 61.454683 48.60877 
L 61.56043 48.371961 
L 61.541769 48.685985 
L 61.569761 48.502872 
L 61.659957 48.663312 
L 61.675508 48.486917 
L 61.762594 48.423964 
L 61.709721 48.697662 
L 61.778145 48.486339 
L 61.827909 48.690789 
L 61.862121 48.476212 
L 61.893224 48.644144 
L 62.005191 48.47688 
L 61.918105 48.693651 
L 62.008302 48.562775 
L 62.017632 48.677539 
L 62.061175 48.400466 
L 62.110939 48.556077 
L 62.176254 48.379272 
L 62.185584 48.693627 
L 62.216686 48.630341 
L 62.235348 48.68119 
L 62.303773 48.400774 
L 62.322434 48.598482 
L 62.431292 48.413863 
L 62.334875 48.646479 
L 62.434402 48.505416 
L 62.468614 48.332367 
L 62.54637 48.664826 
L 62.574362 48.357669 
L 62.611684 48.680441 
L 62.655227 48.617227 
L 62.764085 48.669208 
L 62.68944 48.432925 
L 62.767195 48.62536 
L 62.876053 48.482467 
L 62.782746 48.676567 
L 62.882274 48.575907 
L 62.885384 48.686342 
L 62.963139 48.446961 
L 62.991131 48.616175 
L 63.025344 48.471156 
L 63.081328 48.693892 
L 63.106209 48.52045 
L 63.208847 48.70102 
L 63.165304 48.417781 
L 63.215067 48.669912 
L 63.292823 48.696554 
L 63.330145 48.389649 
L 63.389239 48.688564 
L 63.448334 48.621666 
L 63.451444 48.669243 
L 63.529199 48.39338 
L 63.550971 48.509548 
L 63.554081 48.475563 
L 63.603845 48.681413 
L 63.653608 48.561768 
L 63.734474 48.677791 
L 63.659829 48.492381 
L 63.762466 48.641144 
L 63.830891 48.455889 
L 63.793568 48.67868 
L 63.871323 48.595341 
L 63.930418 48.685995 
L 63.889985 48.514247 
L 63.980181 48.589239 
L 64.042386 48.485032 
L 63.992622 48.700364 
L 64.089039 48.545996 
L 64.09837 48.673627 
L 64.182345 48.428699 
L 64.201007 48.578644 
L 64.222778 48.605796 
L 64.213448 48.519481 
L 64.228999 48.554327 
L 64.232109 48.44126 
L 64.288093 48.689206 
L 64.337856 48.614214 
L 64.406281 48.424462 
L 64.437384 48.696071 
L 64.449824 48.59134 
L 64.468486 48.688341 
L 64.499588 48.419547 
L 64.558682 48.584486 
L 64.651989 48.678521 
L 64.67065 48.504522 
L 64.763957 48.69138 
L 64.773287 48.492237 
L 64.779508 48.515609 
L 64.826161 48.298318 
L 64.841712 48.657642 
L 64.882145 48.511374 
L 64.913247 48.683455 
L 64.931909 48.403354 
L 64.991003 48.490807 
L 65.071868 48.420421 
L 65.003444 48.672909 
L 65.09364 48.601525 
L 65.168285 48.415243 
L 65.140293 48.6878 
L 65.186947 48.680703 
L 65.211828 48.481995 
L 65.224269 48.521841 
L 65.261592 48.394568 
L 65.292694 48.686026 
L 65.336237 48.477487 
L 65.37045 48.670618 
L 65.413993 48.467225 
L 65.451315 48.568594 
L 65.491748 48.300941 
L 65.547732 48.687716 
L 65.560173 48.537459 
L 65.585055 48.672876 
L 65.606826 48.268301 
L 65.6597 48.36702 
L 65.66592 48.307834 
L 65.709464 48.685968 
L 65.721904 48.580961 
L 65.740566 48.68916 
L 65.771668 48.507511 
L 65.827652 48.644139 
L 65.833872 48.415223 
L 65.905407 48.689117 
L 65.93962 48.548499 
L 65.967612 48.458804 
L 65.989383 48.678343 
L 66.042257 48.59178 
L 66.148005 48.688635 
L 66.110682 48.361453 
L 66.154225 48.636763 
L 66.203989 48.522709 
L 66.182217 48.67625 
L 66.263083 48.672936 
L 66.406153 48.456537 
L 66.50257 48.672478 
L 66.518121 48.660415 
L 66.564774 48.482965 
L 66.533672 48.676048 
L 66.626978 48.598183 
L 66.682962 48.696889 
L 66.661191 48.441917 
L 66.735836 48.616332 
L 66.79493 48.675047 
L 66.754497 48.455848 
L 66.816702 48.559663 
L 66.903788 48.44112 
L 66.841584 48.697743 
L 66.919339 48.654838 
L 67.062409 48.299295 
L 67.06863 48.46862 
L 67.07174 48.631563 
L 67.130834 48.408162 
L 67.180598 48.610923 
L 67.199259 48.695664 
L 67.227251 48.458585 
L 67.286345 48.598249 
L 67.339219 48.502471 
L 67.35166 48.689465 
L 67.395203 48.517873 
L 67.398313 48.703769 
L 67.444966 48.408767 
L 67.504061 48.490102 
L 67.519612 48.701291 
L 67.584926 48.411782 
L 67.622249 48.586118 
L 67.718666 48.664548 
L 67.63158 48.503449 
L 67.731107 48.587671 
L 67.752878 48.392432 
L 67.77776 48.675386 
L 67.839964 48.655452 
L 67.902169 48.429346 
L 67.849295 48.696524 
L 67.951932 48.646813 
L 68.014137 48.442965 
L 67.979924 48.678755 
L 68.073231 48.559363 
L 68.147876 48.688846 
L 68.135435 48.431256 
L 68.185199 48.609798 
L 68.238072 48.473211 
L 68.20075 48.697032 
L 68.281616 48.669085 
L 68.284726 48.673204 
L 68.290946 48.544859 
L 68.294056 48.454244 
L 68.328269 48.670246 
L 68.396694 48.591639 
L 68.496221 48.698418 
L 68.462008 48.447693 
L 68.508662 48.60855 
L 68.511772 48.49017 
L 68.545984 48.679536 
L 68.62063 48.537064 
L 68.62374 48.532109 
L 68.639291 48.694805 
L 68.667283 48.597953 
L 68.670393 48.698875 
L 68.713936 48.496281 
L 68.776141 48.658269 
L 68.838345 48.417739 
L 68.872557 48.688677 
L 68.888108 48.634288 
L 69.000076 48.38497 
L 68.894329 48.658988 
L 69.015627 48.553937 
L 69.04673 48.692937 
L 69.021848 48.524092 
L 69.124485 48.588828 
L 69.177359 48.456892 
L 69.211571 48.690018 
L 69.236453 48.53985 
L 69.248894 48.70179 
L 69.342201 48.475449 
L 69.348421 48.635451 
L 69.407515 48.422524 
L 69.363972 48.684065 
L 69.447948 48.686321 
L 69.451058 48.69031 
L 69.454168 48.653201 
L 69.460389 48.660827 
L 69.519483 48.687636 
L 69.575467 48.401624 
L 69.668774 48.683432 
L 69.690545 48.558937 
L 69.715427 48.394277 
L 69.75897 48.683977 
L 69.793182 48.634153 
L 69.883379 48.700245 
L 69.877158 48.440044 
L 69.90204 48.624556 
L 69.930032 48.452563 
L 69.917591 48.693283 
L 70.017118 48.466804 
L 70.029559 48.680982 
L 70.104204 48.388385 
L 70.129086 48.668403 
L 70.225503 48.34045 
L 70.213062 48.693264 
L 70.247275 48.37752 
L 70.281487 48.698712 
L 70.377904 48.651694 
L 70.443218 48.411207 
L 70.46499 48.696981 
L 70.489872 48.59487 
L 70.576958 48.679394 
L 70.496092 48.422589 
L 70.583178 48.617438 
L 70.61117 48.314792 
L 70.595619 48.695654 
L 70.692036 48.544814 
L 70.804004 48.695163 
L 70.769792 48.440542 
L 70.807114 48.641684 
L 70.8942 48.34486 
L 70.828886 48.692157 
L 70.919082 48.579215 
L 70.953295 48.691665 
L 70.940854 48.459567 
L 71.03416 48.632229 
L 71.065262 48.38596 
L 71.118136 48.689945 
L 71.152349 48.509681 
L 71.267427 48.674463 
L 71.270537 48.592431 
L 71.326521 48.388546 
L 71.354513 48.676529 
L 71.382505 48.572936 
L 71.432268 48.698607 
L 71.444709 48.569771 
L 71.491363 48.661622 
L 71.556677 48.407605 
L 71.575339 48.694874 
L 71.603331 48.532413 
L 71.709078 48.383536 
L 71.621992 48.676238 
L 71.718409 48.433834 
L 71.805495 48.675073 
L 71.830377 48.591703 
L 71.936124 48.443878 
L 71.87392 48.68207 
L 71.939234 48.6321 
L 71.982777 48.405433 
L 72.01699 48.692004 
L 72.048092 48.625939 
L 72.116517 48.671067 
L 72.138288 48.518563 
L 72.147619 48.618909 
L 72.216044 48.373386 
L 72.16317 48.66896 
L 72.259587 48.54673 
L 72.318681 48.46156 
L 72.30002 48.656996 
L 72.340453 48.62918 
L 72.343563 48.675624 
L 72.374665 48.410282 
L 72.4462 48.580093 
L 72.44931 48.521387 
L 72.467972 48.690385 
L 72.555058 48.592552 
L 72.595491 48.514976 
L 72.57994 48.665911 
L 72.660805 48.615283 
L 72.716789 48.687332 
L 72.698128 48.435716 
L 72.769663 48.620962 
L 72.782104 48.478876 
L 72.822537 48.680875 
L 72.881631 48.511282 
L 72.987378 48.669455 
L 72.971827 48.501174 
L 72.996709 48.616573 
L 73.077575 48.693254 
L 73.030922 48.441461 
L 73.102457 48.608543 
L 73.214425 48.517934 
L 73.170881 48.687048 
L 73.217535 48.547755 
L 73.28907 48.435909 
L 73.329503 48.663124 
L 73.366825 48.516991 
L 73.379266 48.677105 
L 73.444581 48.606773 
L 73.478793 48.455725 
L 73.556549 48.691385 
L 73.662296 48.498783 
L 73.668517 48.584093 
L 73.724501 48.393224 
L 73.674737 48.675276 
L 73.768044 48.62015 
L 73.805366 48.682652 
L 73.774264 48.512537 
L 73.883122 48.67372 
L 73.892452 48.680861 
L 73.908004 48.546409 
L 73.914224 48.549258 
L 73.923555 48.406839 
L 73.957767 48.687263 
L 74.019972 48.650473 
L 74.063515 48.672498 
L 74.032412 48.475876 
L 74.097727 48.557939 
L 74.13505 48.388652 
L 74.194144 48.68279 
L 74.206585 48.588582 
L 74.290561 48.685512 
L 74.28434 48.500236 
L 74.318553 48.613644 
L 74.324773 48.673724 
L 74.368316 48.498334 
L 74.433631 48.657983 
L 74.536268 48.444162 
L 74.467843 48.688369 
L 74.548709 48.512671 
L 74.601583 48.695094 
L 74.654456 48.395924 
L 74.660677 48.607316 
L 74.769535 48.421401 
L 74.682448 48.675397 
L 74.772645 48.482099 
L 74.800637 48.687877 
L 74.837959 48.440074 
L 74.881502 48.443898 
L 74.931266 48.683176 
L 74.98725 48.424755 
L 74.99036 48.461068 
L 75.068116 48.432612 
L 75.009021 48.650301 
L 75.080557 48.606028 
L 75.086777 48.689919 
L 75.120989 48.471689 
L 75.176973 48.547814 
L 75.220516 48.33558 
L 75.260949 48.673468 
L 75.285831 48.448751 
L 75.363587 48.669019 
L 75.338705 48.373403 
L 75.397799 48.509374 
L 75.450673 48.689039 
L 75.469334 48.465528 
L 75.512877 48.587919 
L 75.599963 48.67903 
L 75.55642 48.470202 
L 75.609294 48.648266 
L 75.637286 48.399183 
L 75.671498 48.685977 
L 75.721262 48.542069 
L 75.771025 48.463457 
L 75.746144 48.672604 
L 75.827009 48.560207 
L 75.876773 48.69047 
L 75.870552 48.47092 
L 75.942088 48.655807 
L 75.945198 48.687707 
L 76.029174 48.478496 
L 76.041615 48.564746 
L 76.11937 48.43695 
L 76.128701 48.651632 
L 76.150472 48.574645 
L 76.25622 48.685002 
L 76.184685 48.457376 
L 76.26244 48.64534 
L 76.274881 48.464534 
L 76.281101 48.686177 
L 76.377518 48.602829 
L 76.421061 48.475614 
L 76.489486 48.693969 
L 76.592123 48.453459 
L 76.604564 48.499436 
L 76.632556 48.679043 
L 76.626336 48.448124 
L 76.716532 48.570587 
L 76.722753 48.471667 
L 76.788067 48.695558 
L 76.82539 48.492002 
L 76.850272 48.698422 
L 76.884484 48.455952 
L 76.934248 48.523505 
L 76.97157 48.418293 
L 76.999562 48.685969 
L 77.033775 48.540087 
L 77.120861 48.68818 
L 77.10531 48.429628 
L 77.145743 48.597976 
L 77.164404 48.441393 
L 77.173735 48.67978 
L 77.2546 48.579382 
L 77.298143 48.673921 
L 77.323025 48.47038 
L 77.360348 48.617563 
L 77.462985 48.436905 
L 77.372789 48.686194 
L 77.472316 48.55103 
L 77.512749 48.681453 
L 77.53141 48.480826 
L 77.581173 48.519524 
L 77.587394 48.463872 
L 77.593614 48.660411 
L 77.596725 48.6607 
L 77.665149 48.692421 
L 77.624717 48.395656 
L 77.696252 48.653163 
L 77.714913 48.398924 
L 77.792668 48.664742 
L 77.80822 48.555918 
L 77.876644 48.486483 
L 77.836212 48.675142 
L 77.901526 48.645841 
L 77.997943 48.490907 
L 77.917077 48.672371 
L 78.013494 48.621375 
L 78.078809 48.699097 
L 78.113021 48.488125 
L 78.119242 48.54542 
L 78.122352 48.419474 
L 78.131682 48.680132 
L 78.228099 48.528557 
L 78.308965 48.684798 
L 78.23432 48.426898 
L 78.327626 48.510056 
L 78.330737 48.459669 
L 78.389831 48.697206 
L 78.430264 48.48961 
L 78.52357 48.676493 
L 78.542231 48.621387 
L 78.598215 48.685891 
L 78.626207 48.489091 
L 78.647979 48.598305 
L 78.697742 48.695907 
L 78.759947 48.521942 
L 78.819041 48.686212 
L 78.772388 48.44718 
L 78.865694 48.579468 
L 78.871915 48.416192 
L 78.896797 48.682673 
L 78.974552 48.642589 
L 78.980772 48.69235 
L 79.105181 48.513038 
L 79.108292 48.425071 
L 79.142504 48.688276 
L 79.210929 48.627203 
L 79.294905 48.519856 
L 79.238921 48.700334 
L 79.319786 48.61045 
L 79.388211 48.697128 
L 79.416203 48.493009 
L 79.428644 48.584409 
L 79.531281 48.663953 
L 79.447306 48.552435 
L 79.540612 48.568989 
L 79.65258 48.444937 
L 79.549943 48.688925 
L 79.65569 48.46881 
L 79.748997 48.683905 
L 79.764548 48.604022 
L 79.820532 48.441318 
L 79.832973 48.68761 
L 79.876516 48.565167 
L 79.882736 48.687898 
L 79.982263 48.52172 
L 80.07557 48.308661 
L 80.000925 48.667536 
L 80.088011 48.57293 
L 80.106672 48.668123 
L 80.094231 48.472368 
L 80.125333 48.511543 
L 80.128444 48.439662 
L 80.156436 48.671106 
L 80.234191 48.48523 
L 80.280844 48.432659 
L 80.35238 48.674545 
L 80.383482 48.418369 
L 80.467458 48.481477 
L 80.517221 48.425091 
L 80.49545 48.615022 
L 80.535883 48.54981 
L 80.576315 48.659884 
L 80.64163 48.47757 
L 80.64785 48.606624 
L 80.719386 48.482154 
L 80.710055 48.698988 
L 80.759818 48.540014 
L 80.859345 48.679554 
L 80.7847 48.438354 
L 80.868676 48.595484 
L 80.871786 48.564485 
L 80.902888 48.687211 
L 80.971313 48.628684 
L 81.058399 48.679503 
L 81.005526 48.52935 
L 81.07084 48.558354 
L 81.157927 48.504164 
L 81.101943 48.668556 
L 81.161037 48.528403 
L 81.266784 48.664996 
L 81.173478 48.523248 
L 81.273005 48.60257 
L 81.338319 48.483556 
L 81.34765 48.670689 
L 81.378752 48.653002 
L 81.468949 48.703185 
L 81.437846 48.525085 
L 81.4845 48.644241 
L 81.568476 48.521128 
L 81.584027 48.68745 
L 81.593357 48.591801 
L 81.677333 48.683377 
L 81.671113 48.487864 
L 81.705325 48.672866 
L 81.779971 48.453447 
L 81.730207 48.683173 
L 81.817293 48.536394 
L 81.926151 48.694321 
L 81.888828 48.370796 
L 81.929261 48.62168 
L 82.010127 48.503798 
L 81.963474 48.680002 
L 82.041229 48.530601 
L 82.044339 48.685503 
L 82.05989 48.452972 
L 82.150087 48.586882 
L 82.234063 48.36676 
L 82.19363 48.681023 
L 82.255834 48.55897 
L 82.268275 48.687537 
L 82.352251 48.46684 
L 82.364692 48.513191 
L 82.454888 48.471934 
L 82.398904 48.693882 
L 82.470439 48.475513 
L 82.576187 48.666345 
L 82.563746 48.402678 
L 82.585518 48.632631 
L 82.688155 48.477563 
L 82.666383 48.698021 
L 82.697485 48.526953 
L 82.812564 48.684687 
L 82.772131 48.449153 
L 82.815674 48.599599 
L 82.890319 48.506915 
L 82.874768 48.690303 
L 82.921421 48.593151 
L 82.999177 48.704366 
L 82.977405 48.514643 
L 83.030279 48.564856 
L 83.083153 48.44664 
L 83.03961 48.618442 
L 83.089373 48.66166 
L 83.154688 48.672049 
L 83.117365 48.569557 
L 83.173349 48.585771 
L 83.275986 48.453229 
L 83.216892 48.682648 
L 83.282207 48.513905 
L 83.32264 48.692601 
L 83.300868 48.478574 
L 83.397285 48.595017 
L 83.512363 48.689171 
L 83.422167 48.427693 
L 83.518584 48.662467 
L 83.531024 48.483962 
L 83.602559 48.69454 
L 83.630551 48.591278 
L 83.705197 48.42452 
L 83.658543 48.690189 
L 83.726968 48.578798 
L 83.804724 48.694785 
L 83.789173 48.467853 
L 83.838936 48.666715 
L 83.88559 48.517789 
L 83.848267 48.697396 
L 83.954014 48.532909 
L 84.019329 48.69154 
L 83.966455 48.460227 
L 84.062872 48.565985 
L 84.103305 48.452874 
L 84.078423 48.677846 
L 84.16862 48.669887 
L 84.221493 48.506244 
L 84.199722 48.703627 
L 84.293028 48.637588 
L 84.327241 48.688152 
L 84.370784 48.49571 
L 84.398776 48.622954 
L 84.423658 48.525384 
L 84.485862 48.704271 
L 84.507634 48.655916 
L 84.566728 48.513241 
L 84.520074 48.695941 
L 84.572948 48.631789 
L 84.576058 48.497674 
L 84.641373 48.698966 
L 84.681806 48.61429 
L 84.684916 48.684498 
L 84.703577 48.508078 
L 84.787553 48.511514 
L 84.803104 48.409733 
L 84.840427 48.671265 
L 84.88397 48.622902 
L 84.958615 48.670227 
L 84.921293 48.460951 
L 84.989718 48.638144 
L 85.01771 48.434249 
L 85.095465 48.687251 
L 85.101686 48.596945 
L 85.16389 48.430237 
L 85.117237 48.671451 
L 85.210543 48.562491 
L 85.219874 48.699934 
L 85.291409 48.403416 
L 85.319401 48.581399 
L 85.353613 48.419309 
L 85.397156 48.670223 
L 85.431369 48.542811 
L 85.518455 48.678143 
L 85.490463 48.464747 
L 85.543337 48.631474 
L 85.621092 48.46386 
L 85.636643 48.662826 
L 85.655305 48.577303 
L 85.664635 48.691576 
L 85.72373 48.451677 
L 85.764162 48.586588 
L 85.863689 48.699237 
L 85.813926 48.514504 
L 85.87613 48.591548 
L 85.888571 48.520588 
L 85.916563 48.691074 
L 85.981878 48.614098 
L 86.075184 48.691716 
L 86.01609 48.463123 
L 86.081405 48.521057 
L 86.15916 48.40234 
L 86.096956 48.698885 
L 86.171601 48.665039 
L 86.258687 48.465651 
L 86.29912 48.633931 
L 86.330222 48.677113 
L 86.367545 48.514556 
L 86.392427 48.561424 
L 86.401758 48.45306 
L 86.460852 48.698707 
L 86.498174 48.553119 
L 86.603922 48.686213 
L 86.551048 48.525412 
L 86.607032 48.558629 
L 86.610142 48.507015 
L 86.687898 48.694912 
L 86.71278 48.551862 
L 86.790535 48.682187 
L 86.799866 48.526566 
L 86.827858 48.641624 
L 86.896283 48.494798 
L 86.908723 48.678673 
L 86.942936 48.581881 
L 86.961597 48.701153 
L 86.977148 48.443394 
L 87.048683 48.528867 
L 87.160651 48.68491 
L 87.107777 48.435776 
L 87.191753 48.624953 
L 87.201084 48.469468 
L 87.213525 48.695971 
L 87.300611 48.602093 
L 87.337934 48.692772 
L 87.393918 48.453989 
L 87.412579 48.650475 
L 87.512106 48.472307 
L 87.471673 48.690553 
L 87.527657 48.565702 
L 87.574311 48.688163 
L 87.536988 48.455978 
L 87.645846 48.671778 
L 87.764034 48.437818 
L 87.652066 48.690651 
L 87.767144 48.525055 
L 87.773365 48.677899 
L 87.835569 48.444894 
L 87.879112 48.580198 
L 87.98486 48.487364 
L 87.913324 48.690207 
L 87.98797 48.549162 
L 88.053284 48.692906 
L 88.047064 48.497139 
L 88.099938 48.657288 
L 88.171473 48.494447 
L 88.12793 48.683216 
L 88.211906 48.600492 
L 88.261669 48.701913 
L 88.236787 48.46254 
L 88.326984 48.655831 
L 88.404739 48.691511 
L 88.395409 48.418021 
L 88.429621 48.673661 
L 88.457613 48.451551 
L 88.451393 48.692677 
L 88.541589 48.609734 
L 88.613124 48.684517 
L 88.650447 48.537362 
L 88.715761 48.684071 
L 88.756194 48.515337 
L 88.765525 48.659481 
L 88.796627 48.692419 
L 88.774855 48.560658 
L 88.809068 48.598931 
L 88.846391 48.498263 
L 88.896154 48.697153 
L 88.914815 48.557615 
L 88.989461 48.695681 
L 88.945918 48.51645 
L 89.026783 48.664814 
L 89.039224 48.526635 
L 89.11698 48.693034 
L 89.141861 48.587812 
L 89.144972 48.699697 
L 89.216507 48.535887 
L 89.250719 48.589266 
L 89.25694 48.690845 
L 89.359577 48.544342 
L 89.365797 48.500251 
L 89.474655 48.68809 
L 89.555521 48.502168 
L 89.505757 48.697202 
L 89.586623 48.605962 
L 89.636386 48.679592 
L 89.595954 48.520115 
L 89.695481 48.638222 
L 89.729693 48.463893 
L 89.723473 48.671764 
L 89.804338 48.617331 
L 89.819889 48.689728 
L 89.885204 48.498124 
L 89.916306 48.647289 
L 89.922527 48.488523 
L 89.997172 48.697262 
L 90.018943 48.56382 
L 90.022054 48.691997 
L 90.096699 48.42255 
L 90.127801 48.644565 
L 90.196226 48.450623 
L 90.211777 48.701611 
L 90.239769 48.602021 
L 90.283312 48.694992 
L 90.323745 48.493609 
L 90.348627 48.64744 
L 90.451264 48.440124 
L 90.404611 48.684004 
L 90.457484 48.534511 
L 90.469925 48.698867 
L 90.553901 48.424931 
L 90.569452 48.674909 
L 90.659649 48.438998 
L 90.68142 48.65004 
L 90.777837 48.684192 
L 90.700082 48.498604 
L 90.787168 48.617016 
L 90.796498 48.436772 
L 90.886695 48.686213 
L 90.896026 48.572304 
L 90.939569 48.684206 
L 90.967561 48.54098 
L 91.004883 48.630558 
L 91.023545 48.348459 
L 91.039096 48.687506 
L 91.113741 48.593973 
L 91.222599 48.678053 
L 91.123072 48.540664 
L 91.225709 48.628219 
L 91.281693 48.51939 
L 91.253701 48.696988 
L 91.337677 48.544495 
L 91.437204 48.6935 
L 91.399881 48.513434 
L 91.452755 48.661725 
L 91.490078 48.666851 
L 91.493188 48.526669 
L 91.499408 48.693256 
L 91.602045 48.559842 
L 91.617597 48.699318 
L 91.692242 48.497361 
L 91.714013 48.643565 
L 91.763777 48.499676 
L 91.745116 48.697055 
L 91.825981 48.540954 
L 91.919288 48.689377 
L 91.913067 48.499892 
L 91.937949 48.637804 
L 91.94417 48.489243 
L 91.978382 48.687153 
L 92.049917 48.561178 
L 92.09035 48.679401 
L 92.124562 48.500336 
L 92.161885 48.659163 
L 92.258302 48.457023 
L 92.202318 48.684603 
L 92.276963 48.609736 
L 92.339168 48.499836 
L 92.326727 48.679961 
L 92.385821 48.610244 
L 92.454246 48.664405 
L 92.410703 48.511472 
L 92.460466 48.575087 
L 92.466687 48.429379 
L 92.488458 48.677092 
L 92.566214 48.644178 
L 92.584875 48.675769 
L 92.572434 48.538931 
L 92.615977 48.541753 
L 92.690622 48.433045 
L 92.665741 48.692843 
L 92.699953 48.561135 
L 92.703063 48.688292 
L 92.771488 48.520653 
L 92.808811 48.606683 
L 92.852354 48.496275 
L 92.824362 48.678348 
L 92.908338 48.655198 
L 92.911448 48.681234 
L 92.954991 48.416696 
L 93.007865 48.609923 
L 93.0794 48.446307 
L 93.091841 48.693909 
L 93.116723 48.524251 
L 93.194478 48.685739 
L 93.175817 48.460623 
L 93.22558 48.600043 
L 93.228691 48.497666 
L 93.294005 48.671842 
L 93.334438 48.647869 
L 93.402863 48.496174 
L 93.424634 48.683422 
L 93.446406 48.532952 
L 93.483729 48.688139 
L 93.555264 48.507786 
L 93.558374 48.632295 
L 93.64546 48.672362 
L 93.636129 48.535562 
L 93.661011 48.597473 
L 93.667232 48.520604 
L 93.676562 48.684778 
L 93.754318 48.642992 
L 93.78853 48.697726 
L 93.828963 48.485911 
L 93.853845 48.643498 
L 93.856955 48.514189 
L 93.92538 48.700151 
L 93.962702 48.587312 
L 94.046678 48.694314 
L 94.043568 48.547064 
L 94.077781 48.655349 
L 94.124434 48.511432 
L 94.105773 48.700442 
L 94.195969 48.533905 
L 94.298606 48.692785 
L 94.283055 48.458262 
L 94.307937 48.65405 
L 94.329708 48.508542 
L 94.339039 48.696056 
L 94.416795 48.634953 
L 94.519432 48.521631 
L 94.451007 48.697639 
L 94.525652 48.596723 
L 94.587857 48.685549 
L 94.606518 48.473472 
L 94.63451 48.594725 
L 94.681163 48.406722 
L 94.643841 48.681671 
L 94.702935 48.649915 
" clip-path="url(#pd47b3aa421)" style="fill: none; stroke: #2ca02c; stroke-width: 0.5; stroke-linecap: square"/>
   </g>
  </g>
 </g>
 <defs>
  <clipPath id="pd47b3aa421">
   <rect x="0" y="-0" width="99.212598" height="51.023622"/>
  </clipPath>
 </defs>
</svg>
