<?xml version="1.0" encoding="utf-8" standalone="no"?>
<!DOCTYPE svg PUBLIC "-//W3C//DTD SVG 1.1//EN"
  "http://www.w3.org/Graphics/SVG/1.1/DTD/svg11.dtd">
<svg xmlns:xlink="http://www.w3.org/1999/xlink" width="99.212598pt" height="51.023622pt" viewBox="0 0 99.212598 51.023622" xmlns="http://www.w3.org/2000/svg" version="1.1">
 <metadata>
  <rdf:RDF xmlns:dc="http://purl.org/dc/elements/1.1/" xmlns:cc="http://creativecommons.org/ns#" xmlns:rdf="http://www.w3.org/1999/02/22-rdf-syntax-ns#">
   <cc:Work>
    <dc:type rdf:resource="http://purl.org/dc/dcmitype/StillImage"/>
    <dc:date>2024-10-30T10:51:14.758414</dc:date>
    <dc:format>image/svg+xml</dc:format>
    <dc:creator>
     <cc:Agent>
      <dc:title>Matplotlib v3.8.4, https://matplotlib.org/</dc:title>
     </cc:Agent>
    </dc:creator>
   </cc:Work>
  </rdf:RDF>
 </metadata>
 <defs>
  <style type="text/css">*{stroke-linejoin: round; stroke-linecap: butt}</style>
 </defs>
 <g id="figure_1">
  <g id="patch_1">
   <path d="M 0 51.023622 
L 99.212598 51.023622 
L 99.212598 0 
L 0 0 
L 0 51.023622 
z
" style="fill: none"/>
  </g>
  <g id="axes_1">
   <g id="patch_2">
    <path d="M 0 51.023622 
L 99.212598 51.023622 
L 99.212598 -0 
L 0 -0 
L 0 51.023622 
z
" style="fill: none"/>
   </g>
   <g id="matplotlib.axis_1">
    <g id="xtick_1"/>
    <g id="xtick_2"/>
   </g>
   <g id="matplotlib.axis_2">
    <g id="ytick_1"/>
    <g id="ytick_2"/>
   </g>
   <g id="line2d_1">
    <path d="M 4.509664 26.485084 
L 4.652734 39.748081 
L 4.662064 39.275226 
L 4.718048 16.83021 
L 4.795804 2.319256 
L 4.851788 4.801542 
L 5.131708 36.696342 
L 5.156589 35.484373 
L 5.203243 32.207731 
L 5.249896 37.122824 
L 5.408517 44.359781 
L 5.44584 37.743518 
L 5.467611 35.926555 
L 5.511154 44.883459 
L 5.560918 41.286073 
L 5.632453 48.12783 
L 5.635563 48.252213 
L 5.648004 44.995432 
L 5.843948 6.858301 
L 5.881271 10.423907 
L 5.980798 30.62821 
L 6.033671 42.401635 
L 6.102096 34.905324 
L 6.223395 47.476662 
L 6.347804 44.400207 
L 6.357134 44.167662 
L 6.366465 44.542847 
L 6.397567 46.825059 
L 6.478433 44.752845 
L 6.484653 44.650357 
L 6.509535 45.844198 
L 6.605952 47.591575 
L 6.624613 46.563354 
L 6.733471 41.129106 
L 6.767683 43.479895 
L 6.795675 46.414119 
L 6.851659 40.251379 
L 6.854769 40.186377 
L 6.879651 41.762604 
L 6.976068 48.081339 
L 7.063154 47.570641 
L 7.100477 48.512043 
L 7.134689 46.962918 
L 7.172012 47.90955 
L 7.308862 44.357797 
L 7.262208 47.923162 
L 7.315082 44.370465 
L 7.324413 44.554433 
L 7.343074 43.977973 
L 7.43016 40.743669 
L 7.479924 41.235891 
L 7.523467 45.954986 
L 7.641655 47.763005 
L 7.576341 44.081026 
L 7.644765 47.533807 
L 7.678978 44.369379 
L 7.753623 47.460846 
L 7.859371 48.592786 
L 7.834489 47.04685 
L 7.868701 47.837083 
L 7.921575 46.482222 
L 7.896693 48.307139 
L 7.99311 46.996768 
L 8.105078 48.114042 
L 8.058425 46.592828 
L 8.145511 47.506107 
L 8.176613 46.750804 
L 8.207715 47.713932 
L 8.220156 48.607864 
L 8.266809 46.274601 
L 8.304132 47.042894 
L 8.42232 43.004703 
L 8.447202 43.718547 
L 8.459643 44.263506 
L 8.500076 42.961276 
L 8.549839 43.477862 
L 8.593382 41.257414 
L 8.655587 43.90995 
L 8.767555 48.416692 
L 8.801767 46.691966 
L 8.826649 46.146123 
L 8.8422 46.990683 
L 8.954168 48.406307 
L 8.879523 46.794495 
L 8.960388 48.230749 
L 9.038144 46.534267 
L 9.100348 44.989957 
L 9.072356 48.190198 
L 9.134561 47.326022 
L 9.156332 48.422356 
L 9.190545 45.661265 
L 9.246529 47.455448 
L 9.25897 48.007933 
L 9.318064 45.256243 
L 9.339835 45.518093 
L 9.383378 43.985599 
L 9.389599 43.996932 
L 9.426921 45.719004 
L 9.454913 46.369272 
L 9.479795 44.063778 
L 9.495346 43.294035 
L 9.55444 46.50301 
L 9.672629 48.555467 
L 9.700621 48.291008 
L 9.713062 48.174976 
L 9.706841 48.375438 
L 9.716172 48.367532 
L 9.790817 48.611928 
L 9.747274 47.304794 
L 9.82503 48.348433 
L 9.955659 47.2742 
L 9.921446 48.356085 
L 9.961879 47.435332 
L 10.027194 48.622198 
L 10.076957 47.783536 
L 10.139162 48.325302 
L 10.235579 46.396029 
L 10.25424 46.248924 
L 10.285342 47.828427 
L 10.291563 47.987563 
L 10.338216 45.007713 
L 10.403531 43.053166 
L 10.453294 44.652933 
L 10.577703 43.306881 
L 10.506168 45.027978 
L 10.590144 43.708643 
L 10.695891 45.591974 
L 10.720773 45.02306 
L 10.82341 48.625945 
L 10.888725 47.258258 
L 10.985142 46.539234 
L 10.950929 48.136406 
L 11.003803 47.09202 
L 11.028685 48.452399 
L 11.112661 47.255977 
L 11.218408 45.788803 
L 11.149983 48.197905 
L 11.2464 46.478831 
L 11.265062 48.038621 
L 11.311715 45.865187 
L 11.364589 47.100711 
L 11.439234 47.687167 
L 11.405021 46.861193 
L 11.457895 46.976201 
L 11.52943 43.533509 
L 11.579194 45.959739 
L 11.653839 48.485476 
L 11.697382 46.426222 
L 11.778248 48.129942 
L 11.837342 47.537748 
L 11.865334 46.959699 
L 11.908877 48.56924 
L 11.943089 47.748396 
L 11.977302 48.603912 
L 12.051947 47.793821 
L 12.067498 47.309614 
L 12.135923 48.620084 
L 12.163915 47.555786 
L 12.216789 48.617941 
L 12.195017 47.406022 
L 12.275883 47.711263 
L 12.356749 46.521335 
L 12.37852 47.956194 
L 12.409622 48.586467 
L 12.484268 47.800766 
L 12.487378 47.918379 
L 12.527811 48.482668 
L 12.546472 47.357528 
L 12.664661 44.518808 
L 12.608677 47.488565 
L 12.686432 45.028176 
L 12.841943 47.657919 
L 12.997454 44.360043 
L 12.876156 48.273473 
L 13.028556 46.417641 
L 13.149855 48.125384 
L 13.162296 48.045363 
L 13.168516 48.149742 
L 13.246272 48.639867 
L 13.208949 47.441771 
L 13.271153 48.129256 
L 13.283594 47.965499 
L 13.302256 48.653539 
L 13.36757 48.443888 
L 13.470208 48.636307 
L 13.448436 48.064899 
L 13.476428 48.524199 
L 13.51064 47.369917 
L 13.64749 47.521536 
L 13.703474 48.490658 
L 13.768789 48.118139 
L 13.970953 44.099835 
L 13.78745 48.187881 
L 13.974063 44.12362 
L 14.120244 48.224675 
L 14.148236 47.275933 
L 14.20733 45.448353 
L 14.247763 47.517569 
L 14.250873 47.47737 
L 14.35351 48.604163 
L 14.300636 46.729786 
L 14.369061 47.841404 
L 14.49347 47.044871 
L 14.397053 48.644026 
L 14.502801 47.380971 
L 14.540123 48.554293 
L 14.614769 47.69952 
L 14.627209 47.150038 
L 14.652091 48.628997 
L 14.720516 47.973163 
L 14.751618 47.529605 
L 14.838704 48.444331 
L 14.860476 47.44932 
L 14.888468 48.469895 
L 14.972444 47.518243 
L 14.997326 48.539956 
L 15.071971 47.172926 
L 15.078191 47.239082 
L 15.099963 48.016483 
L 15.143506 46.852531 
L 15.171498 47.188065 
L 15.2026 46.413412 
L 15.255474 48.117079 
L 15.264805 47.887362 
L 15.267915 47.948846 
L 15.317678 46.830579 
L 15.323899 46.708593 
L 15.370552 48.156991 
L 15.392324 47.90587 
L 15.404764 48.336724 
L 15.429646 47.163401 
L 15.494961 47.703243 
L 15.557165 45.751023 
L 15.603818 47.724555 
L 15.718897 48.452205 
L 15.656692 47.249205 
L 15.731338 48.277531 
L 15.805983 47.748825 
L 15.784211 48.48026 
L 15.837085 48.280958 
L 15.917951 48.690843 
L 15.896179 47.754839 
L 15.930392 48.103545 
L 15.970824 48.225591 
L 16.0548 47.261872 
L 16.061021 47.08655 
L 16.092123 48.033184 
L 16.129446 47.836983 
L 16.141887 48.424324 
L 16.176099 47.702418 
L 16.244524 48.250995 
L 16.263185 48.629133 
L 16.306728 47.573609 
L 16.353382 48.513007 
L 16.400035 47.525482 
L 16.555546 45.536166 
L 16.452909 48.665316 
L 16.558656 45.585078 
L 16.592868 46.31954 
L 16.627081 44.901296 
L 16.639522 44.690549 
L 16.670624 47.297729 
L 16.714167 48.433894 
L 16.782592 47.628879 
L 16.90389 46.554266 
L 16.810584 48.035916 
L 16.919442 47.122168 
L 16.944323 48.364775 
L 17.000307 46.822784 
L 17.04074 48.044793 
L 17.062512 47.640356 
L 17.087393 48.29999 
L 17.143377 48.215973 
L 17.249125 48.41905 
L 17.18381 47.653646 
L 17.252235 48.315549 
L 17.361093 47.595894 
L 17.270896 48.647415 
L 17.373534 47.967046 
L 17.448179 48.409462 
L 17.423297 47.770291 
L 17.494832 48.167334 
L 17.622351 46.703832 
L 17.588139 48.5434 
L 17.625462 46.731071 
L 17.74365 48.557605 
L 17.759201 48.160837 
L 17.812075 48.662315 
L 17.774752 47.995692 
L 17.830736 47.995148 
L 17.874279 46.470974 
L 17.924043 48.346154 
L 17.927153 48.526388 
L 17.958255 47.201398 
L 18.017349 47.593592 
L 18.02979 47.364528 
L 18.110656 48.16098 
L 18.160419 47.207929 
L 18.185301 46.6337 
L 18.253726 47.974175 
L 18.256836 47.996822 
L 18.266167 47.403759 
L 18.284828 46.635944 
L 18.325261 47.79213 
L 18.375025 47.318644 
L 18.44967 48.638843 
L 18.502544 47.989805 
L 18.59585 48.396069 
L 18.549197 47.911306 
L 18.605181 48.052876 
L 18.626952 47.482169 
L 18.704708 48.639887 
L 18.707818 48.563933 
L 18.726479 48.090821 
L 18.801125 48.637604 
L 18.819786 48.475504 
L 18.909982 48.61436 
L 18.88199 47.829498 
L 18.922423 48.281 
L 18.947305 47.764988 
L 18.965966 48.60419 
L 19.028171 48.446567 
L 19.031281 48.461516 
L 19.040612 48.140789 
L 19.149469 47.206144 
L 19.077934 48.514924 
L 19.1588 47.5766 
L 19.202343 48.652539 
L 19.252107 47.215782 
L 19.267658 47.543818 
L 19.311201 48.485945 
L 19.345413 47.3638 
L 19.491594 45.702922 
L 19.388956 48.255233 
L 19.507145 46.029443 
L 19.612892 48.44937 
L 19.637774 47.84507 
L 19.668876 47.793482 
L 19.675097 47.938713 
L 19.678207 47.925892 
L 19.777734 48.357673 
L 19.734191 47.041971 
L 19.790175 48.096763 
L 19.808836 47.718116 
L 19.821277 47.30834 
L 19.914583 47.946735 
L 19.979898 48.432559 
L 19.948796 47.665392 
L 20.023441 47.954627 
L 20.026551 47.927399 
L 20.032772 48.347397 
L 20.085646 48.242248 
L 20.194503 48.546479 
L 20.157181 47.872948 
L 20.197614 48.397593 
L 20.206944 48.208894 
L 20.228716 48.604393 
L 20.231826 48.646231 
L 20.281589 48.144954 
L 20.309581 48.245756 
L 20.312692 48.146393 
L 20.405998 48.616598 
L 20.415329 48.672839 
L 20.440211 48.230438 
L 20.468203 48.31647 
L 20.521076 47.722987 
L 20.545958 48.629646 
L 20.57706 48.274699 
L 20.595722 48.598673 
L 20.626824 47.778987 
L 20.679698 48.179574 
L 20.71702 48.385133 
L 20.800996 47.621006 
L 20.881862 48.627221 
L 20.835209 46.947675 
L 20.897413 47.61591 
L 20.906744 47.371657 
L 20.981389 48.395489 
L 20.99072 48.366967 
L 20.99694 48.614649 
L 21.071585 48.015994 
L 21.099577 48.240457 
L 21.171112 47.412521 
L 21.227096 47.602034 
L 21.28308 48.287143 
L 21.307962 47.149193 
L 21.335954 47.615546 
L 21.342174 47.49962 
L 21.382607 48.423146 
L 21.42615 48.002658 
L 21.488355 48.639797 
L 21.522567 47.433265 
L 21.528788 47.593023 
L 21.535008 47.569376 
L 21.541229 48.028605 
L 21.550559 48.655178 
L 21.631425 47.710928 
L 21.653196 48.097664 
L 21.70918 48.68359 
L 21.777605 48.421788 
L 21.874022 47.876155 
L 21.814928 48.637153 
L 21.892683 48.11737 
L 21.905124 48.594052 
L 21.976659 47.773507 
L 21.98288 47.66514 
L 22.020202 48.471281 
L 22.032643 48.323674 
L 22.048194 48.681612 
L 22.110399 47.506913 
L 22.12906 48.056412 
L 22.197485 47.60165 
L 22.213036 48.434392 
L 22.244138 47.799796 
L 22.321894 48.202874 
L 22.293902 47.540432 
L 22.362327 48.042271 
L 22.390319 46.904131 
L 22.452523 48.623606 
L 22.477405 47.681027 
L 22.489846 47.892475 
L 22.533389 46.91855 
L 22.542719 46.795427 
L 22.583152 47.420796 
L 22.632916 47.051052 
L 22.639136 46.906547 
L 22.701341 47.807419 
L 22.735553 47.805083 
L 22.816419 48.265523 
L 22.869293 47.893036 
L 22.909725 48.594997 
L 22.922166 48.634884 
L 22.934607 48.037828 
L 22.97504 48.431255 
L 23.049685 48.199691 
L 23.071457 48.674932 
L 23.087008 48.225546 
L 23.124331 48.390088 
L 23.108779 48.141752 
L 23.133661 48.155992 
L 23.158543 47.92211 
L 23.214527 48.526462 
L 23.242519 48.268398 
L 23.326495 48.65457 
L 23.25185 48.211366 
L 23.354487 48.337006 
L 23.469565 48.050022 
L 23.432242 48.503588 
L 23.472675 48.082288 
L 23.513108 48.690882 
L 23.593974 48.407601 
L 23.67795 48.243689 
L 23.631296 48.598815 
L 23.693501 48.414864 
L 23.705942 48.631986 
L 23.727713 48.017773 
L 23.802359 48.407086 
L 23.833461 47.907989 
L 23.855232 48.635694 
L 23.911216 48.451893 
L 23.914326 48.489178 
L 23.942318 48.063029 
L 23.992082 48.15652 
L 24.079168 47.24722 
L 24.10094 48.017491 
L 24.216018 48.611201 
L 24.132042 47.658099 
L 24.219128 48.602105 
L 24.321765 47.602133 
L 24.352867 47.709572 
L 24.486607 48.523627 
L 24.598575 47.788092 
L 24.611016 48.066982 
L 24.716763 48.522336 
L 24.722984 48.390467 
L 24.760306 47.445053 
L 24.738535 48.509729 
L 24.834952 48.361823 
L 24.869164 48.600907 
L 24.884715 47.943294 
L 24.925148 48.165993 
L 24.937589 47.98591 
L 24.965581 48.548179 
L 25.027785 48.296084 
L 25.034006 48.654727 
L 25.074439 48.039873 
L 25.133533 48.275156 
L 25.152194 47.956842 
L 25.23617 48.467441 
L 25.270382 47.780382 
L 25.348138 48.636221 
L 25.394791 47.536583 
L 25.469436 48.045955 
L 25.578294 47.686672 
L 25.509869 48.617629 
L 25.584515 47.792548 
L 25.600066 48.600119 
L 25.680931 47.452518 
L 25.693372 47.699606 
L 25.712034 47.63046 
L 25.752467 48.108903 
L 25.768018 48.641662 
L 25.80534 46.981559 
L 25.855104 47.739966 
L 25.954631 48.200083 
L 25.892426 47.328548 
L 25.970182 48.003826 
L 25.985733 47.613141 
L 26.041717 48.670663 
L 26.075929 48.224377 
L 26.07904 48.225995 
L 26.119472 46.858191 
L 26.178567 48.625347 
L 26.184787 48.377671 
L 26.187897 48.421579 
L 26.23144 47.666718 
L 26.268763 47.992844 
L 26.287424 47.819769 
L 26.327857 48.20025 
L 26.430494 48.68376 
L 26.374511 48.03079 
L 26.449156 48.538908 
L 26.536242 47.868227 
L 26.51447 48.574466 
L 26.558014 48.445171 
L 26.567344 48.595543 
L 26.65132 48.161722 
L 26.660651 47.779361 
L 26.694863 48.602929 
L 26.753957 48.400914 
L 26.763288 48.694558 
L 26.850374 47.855132 
L 26.984114 48.537831 
L 27.015216 48.212582 
L 27.018326 48.090657 
L 27.086751 48.676987 
L 27.124074 48.234797 
L 27.232931 48.055421 
L 27.192498 48.684862 
L 27.239152 48.140337 
L 27.295136 48.449228 
L 27.320017 47.979928 
L 27.329348 47.641017 
L 27.369781 48.438238 
L 27.435096 47.717336 
L 27.515961 48.343037 
L 27.553284 47.915609 
L 27.652811 47.669072 
L 27.627929 48.309355 
L 27.662142 47.889447 
L 27.702574 48.571541 
L 27.721236 47.786171 
L 27.770999 47.875327 
L 27.882967 46.786987 
L 27.823873 48.458146 
L 27.904739 47.304468 
L 27.938951 48.466074 
L 28.026037 48.270609 
L 28.138005 47.88335 
L 28.116234 48.679591 
L 28.144226 48.053137 
L 28.156667 48.02923 
L 28.169108 48.401645 
L 28.274855 48.688776 
L 28.253083 48.15858 
L 28.281075 48.582923 
L 28.324619 48.080356 
L 28.309067 48.6317 
L 28.393043 48.477894 
L 28.467689 48.659736 
L 28.442807 48.188315 
L 28.501901 48.411546 
L 28.511232 48.324654 
L 28.533003 48.44921 
L 28.545444 48.627105 
L 28.62942 48.212525 
L 28.644971 48.621635 
L 28.725837 48.110034 
L 28.691624 48.686939 
L 28.760049 48.414029 
L 28.778711 48.605828 
L 28.800482 48.330433 
L 28.819143 47.795573 
L 28.859576 48.38976 
L 28.91245 48.221681 
L 28.955993 48.697757 
L 28.987095 47.998653 
L 28.990206 48.003649 
L 28.996426 47.793643 
L 29.015087 48.450902 
L 29.102174 47.909901 
L 29.123945 47.611412 
L 29.186149 48.333113 
L 29.220362 48.171518 
L 29.242133 48.551291 
L 29.245244 48.652166 
L 29.32922 47.807819 
L 29.354101 47.527706 
L 29.394534 48.157982 
L 29.419416 48.109499 
L 29.431857 48.368595 
L 29.459849 47.536086 
L 29.525163 47.945488 
L 29.587368 47.492314 
L 29.61536 48.430826 
L 29.637131 47.860606 
L 29.643352 47.778707 
L 29.680674 48.545406 
L 29.714887 48.484987 
L 29.717997 48.571724 
L 29.736658 48.060147 
L 29.823745 48.481321 
L 29.845516 47.832724 
L 29.867288 48.678807 
L 29.941933 48.227736 
L 29.948153 48.596785 
L 29.988586 48.178722 
L 30.053901 48.483221 
L 30.125436 47.849626 
L 30.156538 48.65613 
L 30.18453 47.953949 
L 30.287167 48.379491 
L 30.377364 48.663338 
L 30.305829 48.287356 
L 30.399135 48.415674 
L 30.486221 48.105526 
L 30.439568 48.606921 
L 30.514213 48.209814 
L 30.635512 48.551604 
L 30.535985 48.129417 
L 30.657284 48.378585 
L 30.766141 47.919503 
L 30.710157 48.474039 
L 30.784803 48.241388 
L 30.812795 48.569845 
L 30.850117 48.205227 
L 30.89677 48.438011 
L 30.962085 47.857677 
L 30.943424 48.602201 
L 31.011849 48.30297 
L 31.067833 47.337662 
L 31.03051 48.64206 
L 31.098935 48.488273 
L 31.102045 48.54241 
L 31.158029 47.707888 
L 31.182911 47.073944 
L 31.210903 48.26233 
L 31.269997 47.527641 
L 31.360193 48.042742 
L 31.297989 47.420963 
L 31.381965 47.604508 
L 31.469051 48.139784 
L 31.416177 47.080255 
L 31.487712 47.798082 
L 31.587239 47.433423 
L 31.562358 48.619114 
L 31.59657 47.706036 
L 31.717869 48.64898 
L 31.633893 47.426444 
L 31.720979 48.572462 
L 31.789404 48.08133 
L 31.801845 48.635698 
L 31.839167 48.487557 
L 31.938694 48.678206 
L 31.920033 48.275343 
L 31.944915 48.499318 
L 32.047552 47.907068 
L 32.02267 48.581263 
L 32.056883 48.090167 
L 32.15641 48.571678 
L 32.16885 48.226797 
L 32.196842 48.051061 
L 32.259047 48.685068 
L 32.271488 48.615318 
L 32.290149 48.676066 
L 32.389676 48.250236 
L 32.408337 47.867579 
L 32.451881 48.598269 
L 32.498534 48.198171 
L 32.598061 48.57877 
L 32.557628 47.925659 
L 32.613612 48.270761 
L 32.710029 47.775067 
L 32.647824 48.659805 
L 32.734911 48.106313 
L 32.769123 48.520569 
L 32.803335 47.850898 
L 32.846878 48.258824 
L 32.905973 48.679507 
L 32.943295 48.207884 
L 32.952626 48.23884 
L 32.965067 48.221703 
L 32.977508 48.404768 
L 33.036602 48.519616 
L 33.070814 48.062868 
L 33.086365 47.668618 
L 33.111247 48.544489 
L 33.173452 48.38679 
L 33.238766 48.566228 
L 33.207664 47.746828 
L 33.263648 47.832483 
L 33.279199 47.276919 
L 33.363175 48.520296 
L 33.366285 48.648347 
L 33.381836 48.107261 
L 33.468922 48.309531 
L 33.518686 48.636161 
L 33.484474 48.178286 
L 33.57467 48.313818 
L 33.636874 48.00772 
L 33.621323 48.694486 
L 33.677307 48.548132 
L 33.786165 48.105298 
L 33.736401 48.659315 
L 33.804826 48.517455 
L 33.867031 48.6802 
L 33.832818 48.122168 
L 33.919904 48.662526 
L 33.969668 48.105553 
L 34.044313 48.149981 
L 34.094077 48.624482 
L 34.14695 48.057166 
L 34.156281 48.296851 
L 34.206045 48.675883 
L 34.227816 48.26359 
L 34.271359 48.482461 
L 34.383327 48.128919 
L 34.336674 48.594975 
L 34.389548 48.154954 
L 34.504626 48.647699 
L 34.42687 47.978469 
L 34.510846 48.608767 
L 34.526397 48.394657 
L 34.529508 48.39882 
L 34.591712 47.942355 
L 34.56061 48.65927 
L 34.635255 48.451033 
L 34.644586 48.522662 
L 34.678798 47.921185 
L 34.731672 48.165222 
L 34.737892 48.236339 
L 34.744113 48.107961 
L 34.747223 48.111021 
L 34.859191 47.561929 
L 34.806317 48.573689 
L 34.868521 47.670394 
L 34.961828 48.627992 
L 34.933836 47.543182 
L 34.996041 48.13993 
L 35.080016 47.324865 
L 35.052024 48.276048 
L 35.111119 47.945641 
L 35.173323 48.283809 
L 35.216866 47.961563 
L 35.294622 47.182698 
L 35.26974 48.406805 
L 35.322614 47.848456 
L 35.440802 48.654616 
L 35.456353 47.9438 
L 35.55588 48.407595 
L 35.605644 48.35337 
L 35.583872 48.552778 
L 35.614974 48.48272 
L 35.636746 48.676746 
L 35.674068 48.002798 
L 35.711391 48.160239 
L 35.733163 47.726342 
L 35.761155 48.539762 
L 35.798477 48.518999 
L 35.801588 48.614341 
L 35.882453 48.211333 
L 35.898004 48.304651 
L 35.994421 48.13866 
L 35.97265 48.643756 
L 36.006862 48.240785 
L 36.11883 48.631228 
L 36.050405 48.238838 
L 36.12194 48.573825 
L 36.246349 48.120782 
L 36.289892 48.634937 
L 36.342766 47.952021 
L 36.442293 47.596198 
L 36.380088 48.68954 
L 36.454734 47.800145 
L 36.507607 47.563365 
L 36.479615 48.007354 
L 36.551151 47.938946 
L 36.663118 48.525189 
L 36.672449 48.412313 
L 36.750205 47.616638 
L 36.790637 48.155174 
L 36.815519 48.666054 
L 36.849732 47.873023 
L 36.890165 48.04275 
L 36.939928 47.57254 
L 36.983471 48.390258 
L 36.995912 48.57915 
L 37.033235 48.213287 
L 37.045676 48.316245 
L 37.067447 47.61319 
L 37.151423 48.663985 
L 37.170084 48.021638 
L 37.25406 48.670335 
L 37.266501 48.280137 
L 37.322485 48.679938 
L 37.375359 48.255612 
L 37.3878 47.890839 
L 37.440673 48.652391 
L 37.477996 48.260948 
L 37.586854 48.648638 
L 37.543311 48.008805 
L 37.593074 48.416138 
L 37.639728 48.185054 
L 37.67394 48.660036 
L 37.692601 48.538603 
L 37.717483 48.679207 
L 37.754806 48.215812 
L 37.792128 48.351759 
L 37.798349 48.338986 
L 37.807679 48.438345 
L 37.81079 48.429185 
L 37.82012 48.614178 
L 37.863663 48.166266 
L 37.922758 48.466969 
L 38.016064 48.669209 
L 37.935198 48.341039 
L 38.028505 48.438173 
L 38.087599 48.146805 
L 38.059607 48.626812 
L 38.128032 48.496279 
L 38.146693 48.67438 
L 38.174685 48.134428 
L 38.23689 48.502199 
L 38.314645 48.01231 
L 38.283543 48.654002 
L 38.351968 48.301363 
L 38.404842 48.58049 
L 38.435944 47.737144 
L 38.463936 48.346784 
L 38.495038 47.758654 
L 38.52925 48.615546 
L 38.591455 47.884251 
L 38.600786 47.753395 
L 38.631888 48.632778 
L 38.684761 48.083764 
L 38.687872 48.077931 
L 38.694092 48.286568 
L 38.703423 48.28372 
L 38.778068 48.606693 
L 38.796729 48.028757 
L 38.80606 48.102067 
L 38.880705 47.97898 
L 38.846493 48.381044 
L 38.902477 48.270433 
L 38.911808 48.550481 
L 38.94291 47.750384 
L 39.008224 48.023712 
L 39.011335 47.897443 
L 39.098421 48.510307 
L 39.110862 48.330285 
L 39.160625 47.651265 
L 39.201058 48.47724 
L 39.210389 48.441648 
L 39.300585 48.68811 
L 39.23216 48.282915 
L 39.322357 48.472866 
L 39.393892 48.094046 
L 39.437435 48.636774 
L 39.471647 48.071197 
L 39.558733 48.370195 
L 39.65826 48.274603 
L 39.583615 48.663754 
L 39.664481 48.394598 
L 39.723575 48.506222 
L 39.676922 48.166337 
L 39.748457 48.427319 
L 39.760898 48.230737 
L 39.841763 48.681037 
L 39.854204 48.57471 
L 39.93196 48.661715 
L 39.94129 48.267456 
L 39.947511 48.313633 
L 40.025266 47.948642 
L 39.975503 48.47808 
L 40.059479 48.224388 
L 40.118573 48.702569 
L 40.131014 48.141395 
L 40.165226 48.158272 
L 40.246092 47.772589 
L 40.180777 48.328936 
L 40.280304 48.094185 
L 40.401603 48.624804 
L 40.36117 47.690018 
L 40.404713 48.580095 
L 40.451366 48.057701 
L 40.519791 48.313747 
L 40.581996 48.549532 
L 40.600657 48.041171 
L 40.613098 47.717566 
L 40.64109 48.594333 
L 40.693964 48.452187 
L 40.703294 48.635438 
L 40.774829 47.901524 
L 40.799711 48.285472 
L 40.883687 47.639542 
L 40.843254 48.665034 
L 40.905459 48.292584 
L 40.958332 48.662494 
L 40.995655 48.189559 
L 41.020537 48.421624 
L 41.082741 47.952425 
L 41.045419 48.499491 
L 41.132505 48.281271 
L 41.157386 48.666108 
L 41.21337 47.982931 
L 41.244473 48.400862 
L 41.284905 48.012053 
L 41.266244 48.696132 
L 41.359551 48.205844 
L 41.440416 48.627883 
L 41.390653 48.049261 
L 41.474629 48.359583 
L 41.530613 48.229921 
L 41.561715 48.639796 
L 41.571046 48.610557 
L 41.589707 48.633183 
L 41.595927 48.49302 
L 41.689234 48.061042 
L 41.623919 48.678834 
L 41.711006 48.335657 
L 41.729667 48.65937 
L 41.757659 48.044718 
L 41.826084 48.63035 
L 41.91628 48.220831 
L 41.866517 48.699667 
L 41.938052 48.499208 
L 42.025138 48.676731 
L 41.959823 48.356116 
L 42.034468 48.522289 
L 42.043799 48.346308 
L 42.096673 48.686943 
L 42.143326 48.515907 
L 42.146436 48.520853 
L 42.155767 48.331215 
L 42.161988 48.488908 
L 42.174428 48.154649 
L 42.217971 48.607811 
L 42.270845 48.554807 
L 42.311278 48.640111 
L 42.354821 48.21867 
L 42.367262 48.296562 
L 42.389034 47.843809 
L 42.429466 48.547539 
L 42.466789 48.296372 
L 42.47301 48.559592 
L 42.510332 47.588199 
L 42.572537 48.143051 
L 42.575647 48.125132 
L 42.594308 48.587217 
L 42.600529 48.497098 
L 42.653402 48.63431 
L 42.696945 48.06875 
L 42.703166 48.22958 
L 42.709386 48.051273 
L 42.740488 48.550401 
L 42.818244 48.115657 
L 42.936432 48.635547 
L 42.877338 47.89596 
L 42.948873 48.492041 
L 43.020408 47.81436 
L 43.054621 48.561472 
L 43.076392 48.67282 
L 43.107494 47.870799 
L 43.144817 48.100761 
L 43.175919 47.52979 
L 43.222573 48.590589 
L 43.250565 48.333592 
L 43.284777 48.514717 
L 43.290997 48.203401 
L 43.3221 47.850983 
L 43.387414 48.555831 
L 43.390524 48.48507 
L 43.424737 48.672314 
L 43.462059 48.130275 
L 43.496272 48.458189 
L 43.586468 48.055855 
L 43.546035 48.645895 
L 43.61135 48.317036 
L 43.670444 48.196522 
L 43.639342 48.616866 
L 43.713987 48.276498 
L 43.791743 48.640201 
L 43.766861 48.254412 
L 43.829065 48.538816 
L 43.853947 48.676919 
L 43.88816 48.141145 
L 43.919262 48.434779 
L 43.931703 48.215941 
L 43.953474 48.668651 
L 44.025009 48.491281 
L 44.084104 48.64329 
L 44.099655 48.278079 
L 44.127647 48.350983 
L 44.149418 48.162808 
L 44.202292 48.5966 
L 44.227174 48.502668 
L 44.239615 48.661862 
L 44.292488 48.258592 
L 44.336031 48.426086 
L 44.392015 48.142063 
L 44.410677 48.645315 
L 44.447999 48.244661 
L 44.46355 48.507327 
L 44.531975 48.035425 
L 44.553747 48.185997 
L 44.628392 47.797518 
L 44.6004 48.584714 
L 44.650164 48.302353 
L 44.659494 48.646827 
L 44.690596 47.765293 
L 44.755911 48.18113 
L 44.783903 47.866527 
L 44.821226 48.569654 
L 44.824336 48.589136 
L 44.867879 48.174466 
L 44.917642 48.596527 
L 44.982957 47.992616 
L 45.032721 47.842947 
L 45.116697 48.652806 
L 45.135358 47.921644 
L 45.225554 48.601281 
L 45.228664 48.631462 
L 45.275318 48.065109 
L 45.297089 48.306512 
L 45.30642 48.124426 
L 45.331302 48.64922 
L 45.393506 48.606034 
L 45.418388 48.678626 
L 45.44638 48.318995 
L 45.468151 48.458319 
L 45.480592 48.291561 
L 45.561458 48.628381 
L 45.573899 48.530914 
L 45.685867 48.673017 
L 45.620552 48.226843 
L 45.688977 48.63943 
L 45.704528 48.272809 
L 45.794725 48.655517 
L 45.797835 48.551582 
L 45.8787 48.24029 
L 45.909803 48.669642 
L 46.046652 48.106007 
L 45.981338 48.688805 
L 46.049763 48.250597 
L 46.062203 48.676781 
L 46.077755 48.209255 
L 46.171061 48.574824 
L 46.270588 48.351879 
L 46.183502 48.646155 
L 46.283029 48.498979 
L 46.28925 48.620541 
L 46.307911 48.060535 
L 46.388777 48.370743 
L 46.422989 48.173984 
L 46.478973 48.566732 
L 46.494524 48.473217 
L 46.5785 48.606436 
L 46.519406 47.921574 
L 46.594051 48.307952 
L 46.615823 48.058172 
L 46.640704 48.628027 
L 46.706019 48.228079 
L 46.796215 48.160639 
L 46.830428 48.648058 
L 46.86464 47.893449 
L 46.957947 48.074491 
L 47.010821 48.666388 
L 47.038813 48.015244 
L 47.073025 48.382003 
L 47.076135 48.380431 
L 47.079245 48.391997 
L 47.166332 47.640309 
L 47.125899 48.531821 
L 47.191213 48.147078 
L 47.303181 48.460946 
L 47.268969 48.080164 
L 47.306291 48.460715 
L 47.312512 48.606732 
L 47.331173 48.045656 
L 47.337394 47.867124 
L 47.42448 48.659637 
L 47.433811 48.397154 
L 47.452472 48.256583 
L 47.483574 48.478104 
L 47.508456 48.470143 
L 47.514676 48.662035 
L 47.579991 48.312992 
L 47.620424 48.591835 
L 47.726171 48.154369 
L 47.732392 48.365589 
L 47.803927 48.675717 
L 47.828808 48.134652 
L 47.835029 48.250835 
L 47.894123 48.015056 
L 47.931446 48.692697 
L 47.937666 48.450547 
L 47.950107 48.48305 
L 47.956327 48.319498 
L 48.024752 48.14178 
L 47.978099 48.645331 
L 48.037193 48.406236 
L 48.062075 48.588273 
L 48.12739 48.20099 
L 48.146051 48.382767 
L 48.158492 48.136512 
L 48.245578 48.663902 
L 48.251798 48.513772 
L 48.267349 48.672988 
L 48.338885 48.288989 
L 48.351325 48.392995 
L 48.394869 48.192935 
L 48.435301 48.622602 
L 48.453963 48.445696 
L 48.481955 48.328882 
L 48.56282 48.661301 
L 48.684119 47.914013 
L 48.774315 47.726717 
L 48.733882 48.197625 
L 48.802307 47.793098 
L 48.820969 48.568457 
L 48.923606 48.384525 
L 48.998251 48.624399 
L 48.948488 48.258528 
L 49.029353 48.373144 
L 49.11644 47.522757 
L 49.051125 48.564454 
L 49.138211 48.252303 
L 49.147542 48.654606 
L 49.225297 47.905276 
L 49.253289 48.560396 
L 49.321714 48.667895 
L 49.296832 48.270721 
L 49.349706 48.321784 
L 49.4088 48.068622 
L 49.433682 48.651598 
L 49.458564 48.224207 
L 49.477225 48.686643 
L 49.576752 48.448181 
L 49.589193 48.222211 
L 49.638957 48.60421 
L 49.679389 48.534276 
L 49.68561 48.648123 
L 49.747814 48.099044 
L 49.778916 48.253306 
L 49.794468 48.160818 
L 49.788247 48.358018 
L 49.803798 48.342246 
L 49.859782 48.672451 
L 49.816239 48.264853 
L 49.918876 48.616459 
L 50.012183 48.101547 
L 49.956199 48.696062 
L 50.037065 48.397598 
L 50.136592 48.666397 
L 50.074387 48.2815 
L 50.149033 48.5907 
L 50.25789 48.245225 
L 50.195686 48.670847 
L 50.273441 48.420508 
L 50.385409 48.21577 
L 50.316984 48.648226 
L 50.39474 48.311137 
L 50.450724 48.689511 
L 50.503598 48.277003 
L 50.593794 48.621177 
L 50.53159 48.185699 
L 50.637337 48.329009 
L 50.640447 48.300691 
L 50.718203 48.574561 
L 50.727534 48.672313 
L 50.752415 48.27086 
L 50.755526 48.167985 
L 50.799069 48.648817 
L 50.855053 48.476976 
L 50.935918 48.654703 
L 50.886155 48.17219 
L 50.945249 48.336353 
L 51.041666 47.93374 
L 51.023004 48.515803 
L 51.066548 47.935396 
L 51.175405 48.639449 
L 51.200287 48.533431 
L 51.271822 48.218573 
L 51.228279 48.642997 
L 51.296704 48.500261 
L 51.349578 48.670509 
L 51.318475 48.115277 
L 51.399341 48.210729 
L 51.489537 48.675958 
L 51.430443 48.034136 
L 51.508199 48.28564 
L 51.585954 47.879491 
L 51.545521 48.611924 
L 51.607726 48.447313 
L 51.66371 48.683594 
L 51.635718 48.306626 
L 51.716584 48.404844 
L 51.741465 48.480328 
L 51.753906 48.032159 
L 51.760127 47.894208 
L 51.80989 48.527002 
L 51.840992 48.363477 
L 51.94363 48.588249 
L 51.896976 48.216232 
L 51.94985 48.397717 
L 51.990283 48.211034 
L 52.005834 48.577904 
L 52.033826 48.434669 
L 52.040046 48.623175 
L 52.0867 48.220244 
L 52.145794 48.535242 
L 52.164455 48.151359 
L 52.214219 48.649771 
L 52.254652 48.553594 
L 52.270203 48.64495 
L 52.329297 48.305675 
L 52.344848 48.523992 
L 52.357289 48.207841 
L 52.450595 48.673978 
L 52.453706 48.566155 
L 52.459926 48.677165 
L 52.481698 48.37759 
L 52.537682 48.425675 
L 52.643429 48.224885 
L 52.599886 48.668779 
L 52.64965 48.35227 
L 52.711854 48.180716 
L 52.683862 48.6759 
L 52.755397 48.409501 
L 52.774058 48.642404 
L 52.817601 48.145263 
L 52.867365 48.591445 
L 52.94512 47.816691 
L 52.876696 48.663669 
L 52.979333 48.402671 
L 53.047758 48.661281 
L 53.072639 48.29121 
L 53.088191 48.418469 
L 53.190828 47.930617 
L 53.116183 48.659505 
L 53.209489 48.155686 
L 53.22504 48.657251 
L 53.259253 48.142688 
L 53.318347 48.191669 
L 53.346339 48.067218 
L 53.36811 48.464275 
L 53.424094 48.296519 
L 53.514291 48.602022 
L 53.480078 48.10934 
L 53.548503 48.430232 
L 53.570275 47.924125 
L 53.613818 48.550839 
L 53.672912 48.138285 
L 53.775549 48.624486 
L 53.744447 47.929152 
L 53.78799 48.380807 
L 53.806651 47.991608 
L 53.847084 48.637859 
L 53.893738 48.528855 
L 53.909289 48.693813 
L 53.977713 48.076077 
L 53.993265 48.106656 
L 54.07413 48.610605 
L 54.002595 48.095968 
L 54.114563 48.384796 
L 54.133224 48.22707 
L 54.192319 48.681375 
L 54.220311 48.436222 
L 54.257633 48.656781 
L 54.248303 48.391469 
L 54.332279 48.552967 
L 54.385152 48.681043 
L 54.360271 48.341838 
L 54.413144 48.443967 
L 54.447357 48.292684 
L 54.49712 48.687511 
L 54.512671 48.513683 
L 54.543774 48.314981 
L 54.627749 48.670916 
L 54.742828 48.228423 
L 54.699285 48.690163 
L 54.755269 48.364887 
L 54.77704 48.609476 
L 54.829914 48.27581 
L 54.867236 48.456132 
L 54.895228 48.223915 
L 54.876567 48.647457 
L 54.951212 48.584236 
L 55.050739 48.696443 
L 55.028968 48.232637 
L 55.05696 48.514457 
L 55.109834 48.156471 
L 55.078731 48.690271 
L 55.165818 48.569497 
L 55.168928 48.681219 
L 55.240463 47.944772 
L 55.271565 48.493909 
L 55.389753 48.116126 
L 55.287116 48.673396 
L 55.392864 48.184814 
L 55.408415 48.614407 
L 55.511052 48.509883 
L 55.585697 48.191676 
L 55.604359 48.669629 
L 55.62302 48.324412 
L 55.710106 48.702102 
L 55.651012 48.209045 
L 55.747429 48.597151 
L 55.76298 48.296352 
L 55.787862 47.879735 
L 55.815854 48.554513 
L 55.871838 48.28247 
L 55.952703 48.657522 
L 55.896719 48.140276 
L 55.986916 48.468958 
L 56.05534 48.15515 
L 56.030459 48.622744 
L 56.077112 48.473422 
L 56.080222 48.6243 
L 56.126876 48.18636 
L 56.18908 48.605868 
L 56.19219 48.622684 
L 56.204631 48.167715 
L 56.210851 47.977049 
L 56.229513 48.619418 
L 56.307268 48.326007 
L 56.350811 48.701279 
L 56.313489 48.27409 
L 56.419236 48.456021 
L 56.490771 48.171585 
L 56.447228 48.57881 
L 56.528094 48.458244 
L 56.596519 48.186003 
L 56.643172 48.556075 
L 56.692936 48.390359 
L 56.655613 48.690147 
L 56.730258 48.55803 
L 56.733368 48.701294 
L 56.836006 48.425132 
L 56.839116 48.487919 
L 56.851557 48.670406 
L 56.90132 48.290437 
L 56.951084 48.550413 
L 56.969745 48.635179 
L 56.988407 48.497583 
L 57.000847 48.230299 
L 57.04439 48.692223 
L 57.097264 48.618309 
L 57.156358 48.298721 
L 57.218563 48.31002 
L 57.31498 48.677646 
L 57.252775 48.30268 
L 57.330531 48.367184 
L 57.339861 48.179489 
L 57.414507 48.662879 
L 57.445609 48.20829 
L 57.45494 48.173949 
L 57.46116 48.27667 
L 57.560687 48.585634 
L 57.542026 48.026507 
L 57.573128 48.390954 
L 57.678875 48.017875 
L 57.588679 48.528325 
L 57.691316 48.312897 
L 57.756631 48.6281 
L 57.73797 48.093794 
L 57.803284 48.388837 
L 57.909032 48.616273 
L 57.828166 48.21193 
L 57.915252 48.444481 
L 57.993008 48.207333 
L 57.965016 48.698071 
L 58.021 48.53201 
L 58.052102 48.275811 
L 58.039661 48.618076 
L 58.058322 48.2798 
L 58.070763 48.033857 
L 58.114306 48.646222 
L 58.1734 48.074168 
L 58.266707 48.627533 
L 58.291589 48.473616 
L 58.360014 48.165815 
L 58.31647 48.663148 
L 58.397336 48.373414 
L 58.403557 48.628754 
L 58.462651 48.284132 
L 58.509304 48.415435 
L 58.540406 48.580452 
L 58.559068 48.409804 
L 58.621272 48.451563 
L 58.695917 48.663863 
L 58.636823 48.33213 
L 58.742571 48.485548 
L 58.758122 48.252058 
L 58.786114 48.606956 
L 58.848318 48.602782 
L 58.935404 48.663988 
L 58.882531 48.271166 
L 58.954066 48.586095 
L 58.960286 48.443022 
L 58.985168 48.699251 
L 59.066034 48.541202 
L 59.137569 48.689774 
L 59.087805 48.373077 
L 59.15312 48.540418 
L 59.233985 48.260831 
L 59.184222 48.657864 
L 59.261977 48.606742 
L 59.277528 48.660748 
L 59.392607 48.390419 
L 59.454811 48.291674 
L 59.417488 48.624988 
L 59.489023 48.480275 
L 59.492134 48.64485 
L 59.57611 48.273502 
L 59.597881 48.433503 
L 59.678747 48.653583 
L 59.607212 48.415497 
L 59.703629 48.492123 
L 59.72229 48.277068 
L 59.737841 48.599055 
L 59.815597 48.319851 
L 59.824927 48.280295 
L 59.831148 48.426396 
L 59.915124 48.675047 
L 59.846699 48.257209 
L 59.952446 48.631378 
L 60.027091 48.169835 
L 59.980438 48.678283 
L 60.076855 48.353586 
L 60.139059 48.668383 
L 60.160831 48.193679 
L 60.191933 48.484137 
L 60.198154 48.549265 
L 60.260358 48.190966 
L 60.266578 48.213397 
L 60.362995 48.0054 
L 60.316342 48.582517 
L 60.378546 48.053262 
L 60.412759 48.622178 
L 60.499845 48.546904 
L 60.596262 48.001915 
L 60.555829 48.669221 
L 60.614923 48.364155 
L 60.621144 48.623663 
L 60.695789 48.094284 
L 60.702009 48.132776 
L 60.726891 47.768948 
L 60.770434 48.640815 
L 60.785985 48.509034 
L 60.894843 48.67116 
L 60.879292 48.424731 
L 60.904174 48.660124 
L 60.985039 48.31458 
L 61.016141 48.531432 
L 61.13122 48.677028 
L 61.100117 48.163232 
L 61.13433 48.663229 
L 61.236967 48.381502 
L 61.14366 48.672109 
L 61.246298 48.567441 
L 61.249408 48.686684 
L 61.311612 48.355262 
L 61.355155 48.620839 
L 61.408029 48.354981 
L 61.439131 48.6563 
L 61.467123 48.525783 
L 61.529328 48.68445 
L 61.492005 48.387215 
L 61.579091 48.608513 
L 61.666177 48.373463 
L 61.628855 48.695585 
L 61.691059 48.545826 
L 61.719051 48.686229 
L 61.70039 48.355575 
L 61.799917 48.605289 
L 61.821688 48.323982 
L 61.883893 48.681001 
L 61.911885 48.496208 
L 61.946097 48.661062 
L 61.98653 48.284005 
L 62.023853 48.565985 
L 62.054955 48.202374 
L 62.033183 48.652683 
L 62.138931 48.4947 
L 62.222907 48.6635 
L 62.238458 48.354278 
L 62.288221 48.140853 
L 62.334875 48.677669 
L 62.344205 48.467427 
L 62.449953 48.236881 
L 62.393969 48.703064 
L 62.456173 48.318405 
L 62.540149 48.693104 
L 62.568141 48.475628 
L 62.649007 48.633851 
L 62.633456 48.233312 
L 62.664558 48.356924 
L 62.683219 48.054701 
L 62.751644 48.653426 
L 62.773416 48.286458 
L 62.851171 48.686982 
L 62.82629 48.168441 
L 62.888494 48.401502 
L 62.935147 48.211933 
L 62.950698 48.64466 
L 62.981801 48.595661 
L 62.984911 48.668869 
L 63.012903 48.305067 
L 63.087548 48.500375 
L 63.221287 48.105304 
L 63.165304 48.623353 
L 63.224398 48.139834 
L 63.336366 48.681362 
L 63.339476 48.607604 
L 63.345696 48.672216 
L 63.348807 48.549884 
L 63.379909 48.528783 
L 63.386129 48.333191 
L 63.40168 48.624556 
L 63.491877 48.37257 
L 63.563412 48.663992 
L 63.501207 48.257183 
L 63.619396 48.59364 
L 63.647388 48.406981 
L 63.6816 48.693868 
L 63.731364 48.546252 
L 63.82467 48.401864 
L 63.743804 48.648434 
L 63.834001 48.559916 
L 63.893095 48.665216 
L 63.868213 48.475334 
L 63.939748 48.510409 
L 63.942859 48.433989 
L 63.989512 48.665818 
L 64.048606 48.537976 
L 64.10459 48.408962 
L 64.09837 48.695835 
L 64.157464 48.528339 
L 64.173015 48.672103 
L 64.256991 48.403567 
L 64.272542 48.659483 
L 64.375179 48.376711 
L 64.340967 48.674475 
L 64.38762 48.588937 
L 64.39073 48.645675 
L 64.468486 48.258374 
L 64.496478 48.584638 
L 64.518249 48.690022 
L 64.5338 48.294285 
L 64.540021 48.119488 
L 64.633327 48.660187 
L 64.639548 48.53743 
L 64.704862 48.69723 
L 64.658209 48.442383 
L 64.748406 48.526986 
L 64.81683 48.388464 
L 64.788838 48.661978 
L 64.854153 48.582935 
L 64.959901 48.669345 
L 64.888365 48.147208 
L 64.969231 48.641206 
L 65.009664 48.168988 
L 65.09053 48.341057 
L 65.118522 48.697489 
L 65.186947 48.069775 
L 65.190057 48.096576 
L 65.199387 48.016545 
L 65.227379 48.531107 
L 65.289584 48.355806 
L 65.311355 48.582065 
L 65.342458 48.242761 
L 65.395331 48.416053 
L 65.426434 47.849436 
L 65.473087 48.619235 
L 65.507299 48.254409 
L 65.603716 48.6708 
L 65.572614 48.249588 
L 65.619267 48.500877 
L 65.641039 48.281108 
L 65.703243 48.689834 
L 65.725015 48.574046 
L 65.771668 48.663596 
L 65.815211 48.424615 
L 65.830762 48.516092 
L 65.836983 48.389184 
L 65.864975 48.616132 
L 65.93962 48.503046 
L 66.004934 48.642213 
L 65.967612 48.356954 
L 66.048478 48.494448 
L 66.123123 48.376236 
L 66.110682 48.650854 
L 66.151115 48.534102 
L 66.169776 48.692262 
L 66.253752 48.363378 
L 66.256862 48.415424 
L 66.297295 48.383176 
L 66.331508 48.688931 
L 66.350169 48.502095 
L 66.375051 48.689895 
L 66.421704 48.295798 
L 66.452806 48.384913 
L 66.5119 48.673686 
L 66.533672 48.345528 
L 66.555443 48.146402 
L 66.633199 48.621087 
L 66.636309 48.531626 
L 66.701624 48.653175 
L 66.714065 48.458155 
L 66.748277 48.146064 
L 66.79182 48.560337 
L 66.816702 48.518179 
L 66.819812 48.607532 
L 66.863355 48.005248 
L 66.922449 48.516605 
L 67.046858 47.75903 
L 66.959772 48.650245 
L 67.053079 47.926094 
L 67.059299 47.889864 
L 67.081071 48.331617 
L 67.112173 48.671289 
L 67.130834 48.312773 
L 67.189928 48.371305 
L 67.280125 48.201016 
L 67.252133 48.586533 
L 67.301896 48.215471 
L 67.345439 48.699507 
L 67.423195 48.459899 
L 67.444966 48.566729 
L 67.454297 48.307919 
L 67.469848 48.164173 
L 67.522722 48.672502 
L 67.556934 48.364661 
L 67.606698 48.680329 
L 67.672012 48.528358 
L 67.734217 48.244953 
L 67.693784 48.677182 
L 67.78087 48.559044 
L 67.877287 48.116782 
L 67.852405 48.686155 
L 67.895948 48.342533 
L 67.951932 48.6675 
L 68.007916 48.505125 
L 68.051459 48.323002 
L 68.076341 48.689032 
L 68.098113 48.558301 
L 68.163427 48.69065 
L 68.194529 48.327724 
L 68.19764 48.33791 
L 68.20075 48.270313 
L 68.287836 48.681932 
L 68.297167 48.583901 
L 68.334489 48.671149 
L 68.315828 48.420759 
L 68.390473 48.427123 
L 68.393583 48.356565 
L 68.48378 48.696867 
L 68.49311 48.620899 
L 68.545984 48.247637 
L 68.502441 48.681195 
L 68.611299 48.496722 
L 68.682834 48.652668 
L 68.648621 48.291179 
L 68.707716 48.416915 
L 68.713936 48.267543 
L 68.785471 48.621999 
L 68.801022 48.575468 
L 68.804132 48.687304 
L 68.900549 48.2951 
L 68.90366 48.330287 
L 68.972084 48.664438 
L 69.031179 48.632461 
L 69.115154 48.676557 
L 69.146257 48.325298 
L 69.1898 48.668809 
L 69.174249 48.28889 
L 69.276886 48.37972 
L 69.283106 48.308745 
L 69.314209 48.661814 
L 69.373303 48.477115 
L 69.48216 48.672866 
L 69.457279 48.357333 
L 69.485271 48.623579 
L 69.522593 48.418477 
L 69.497712 48.668311 
L 69.528814 48.550888 
L 69.631451 48.247627 
L 69.541255 48.650186 
L 69.640782 48.432613 
L 69.727868 48.222103 
L 69.678104 48.615798 
L 69.75275 48.396074 
L 69.75586 48.376076 
L 69.796293 48.649026 
L 69.833615 48.584201 
L 69.836726 48.69782 
L 69.89893 48.332745 
L 69.939363 48.493093 
L 69.995347 48.2403 
L 69.948693 48.649252 
L 70.042 48.566527 
L 70.147748 48.675152 
L 70.107315 48.093119 
L 70.153968 48.651044 
L 70.241054 48.004756 
L 70.160188 48.677035 
L 70.278377 48.449127 
L 70.290818 48.439231 
L 70.287707 48.51845 
L 70.293928 48.44799 
L 70.362353 48.201861 
L 70.393455 48.672741 
L 70.402786 48.535073 
L 70.47121 48.671899 
L 70.436998 48.422269 
L 70.511643 48.618462 
L 70.60495 48.208484 
L 70.533415 48.65131 
L 70.626721 48.454967 
L 70.673375 48.670488 
L 70.704477 48.40946 
L 70.738689 48.551282 
L 70.804004 48.264118 
L 70.822665 48.663692 
L 70.841327 48.505046 
L 70.88487 48.666807 
L 70.922192 48.471914 
L 70.953295 48.663976 
L 70.996838 48.691132 
L 71.068373 48.435562 
L 71.17723 48.668177 
L 71.127467 48.305738 
L 71.186561 48.627089 
L 71.217663 48.334846 
L 71.254986 48.663762 
L 71.298529 48.558285 
L 71.394946 48.388881 
L 71.373174 48.690269 
L 71.413607 48.498215 
L 71.472701 48.704128 
L 71.500693 48.413318 
L 71.528685 48.66301 
L 71.637543 48.218766 
L 71.646874 48.246335 
L 71.668645 48.619311 
L 71.746401 48.195774 
L 71.755731 48.309765 
L 71.817936 48.149639 
L 71.780613 48.647455 
L 71.855258 48.545663 
L 71.973447 48.281694 
L 71.870809 48.680098 
L 71.979667 48.39588 
L 72.010769 48.683809 
L 72.02632 48.335657 
L 72.091635 48.487465 
L 72.107186 48.485857 
L 72.119627 48.604402 
L 72.125848 48.545094 
L 72.216044 48.700504 
L 72.175611 48.4302 
L 72.237815 48.619813 
L 72.259587 48.677655 
L 72.265807 48.442219 
L 72.278248 48.482593 
L 72.328012 48.090314 
L 72.368445 48.688535 
L 72.387106 48.417038 
L 72.408878 48.292607 
L 72.508405 48.669999 
L 72.548837 48.327845 
L 72.611042 48.69061 
L 72.620372 48.631622 
L 72.626593 48.699557 
L 72.695018 48.353386 
L 72.701238 48.396345 
L 72.704348 48.355945 
L 72.744781 48.674345 
L 72.794545 48.598259 
L 72.884741 48.696067 
L 72.828757 48.395092 
L 72.894072 48.576821 
L 73.00915 48.372772 
L 72.903403 48.667056 
L 73.01226 48.414867 
L 73.062024 48.694372 
L 73.099346 48.298192 
L 73.127338 48.548825 
L 73.233086 48.440101 
L 73.15222 48.699595 
L 73.239306 48.498711 
L 73.2984 48.670909 
L 73.251747 48.417119 
L 73.345054 48.449935 
L 73.348164 48.434194 
L 73.369936 48.673131 
L 73.42903 48.527427 
L 73.500565 48.654377 
L 73.466352 48.331159 
L 73.544108 48.61759 
L 73.56899 48.37552 
L 73.590761 48.693338 
L 73.659186 48.520444 
L 73.761823 48.703361 
L 73.70895 48.454607 
L 73.771154 48.573006 
L 73.814697 48.396468 
L 73.870681 48.656254 
L 73.880012 48.567994 
L 73.942216 48.644315 
L 73.926665 48.394881 
L 73.960877 48.534372 
L 73.967098 48.408514 
L 74.00131 48.675094 
L 74.066625 48.614889 
L 74.088396 48.644582 
L 74.14127 48.363171 
L 74.14438 48.404457 
L 74.194144 48.127565 
L 74.169262 48.591853 
L 74.247018 48.427548 
L 74.262569 48.659374 
L 74.28745 48.198912 
L 74.358985 48.475265 
L 74.393198 48.267921 
L 74.467843 48.583538 
L 74.517607 48.287914 
L 74.530048 48.668027 
L 74.582921 48.363429 
L 74.629575 48.667313 
L 74.676228 48.173507 
L 74.691779 48.392191 
L 74.769535 48.350343 
L 74.735322 48.674116 
L 74.775755 48.486385 
L 74.859731 48.703983 
L 74.794416 48.206403 
L 74.881502 48.50773 
L 74.893943 48.188288 
L 74.977919 48.663784 
L 74.99347 48.376099 
L 75.009021 48.5589 
L 75.046344 48.289998 
L 75.105438 48.541806 
L 75.145871 48.220421 
L 75.211186 48.572686 
L 75.223627 48.335224 
L 75.2765 48.667204 
L 75.313823 48.211214 
L 75.338705 48.532369 
L 75.397799 48.255049 
L 75.41335 48.6381 
L 75.444452 48.526476 
L 75.447563 48.689405 
L 75.525318 48.377879 
L 75.55642 48.651554 
L 75.568861 48.347643 
L 75.624845 48.696405 
L 75.665278 48.586957 
L 75.702601 48.703065 
L 75.721262 48.423891 
L 75.777246 48.617513 
L 75.823899 48.415285 
L 75.802128 48.703198 
L 75.886104 48.637187 
L 75.935867 48.699359 
L 75.920316 48.449978 
L 75.991851 48.594422 
L 76.057166 48.408403 
L 75.998071 48.688575 
L 76.097599 48.597268 
L 76.153582 48.702854 
L 76.12248 48.34881 
L 76.203346 48.606376 
L 76.293542 48.238327 
L 76.25622 48.636654 
L 76.318424 48.441793 
L 76.393069 48.698655 
L 76.330865 48.391866 
L 76.449053 48.641141 
L 76.501927 48.305265 
L 76.508148 48.644031 
L 76.561021 48.510765 
L 76.576572 48.698598 
L 76.660548 48.309255 
L 76.666769 48.422691 
L 76.716532 48.057644 
L 76.676099 48.535099 
L 76.772516 48.408113 
L 76.856492 48.67805 
L 76.794288 48.355095 
L 76.884484 48.467081 
L 76.96224 48.11021 
L 76.912476 48.572507 
L 76.996452 48.372705 
L 77.052436 48.662997 
L 77.1022 48.368634 
L 77.10842 48.468199 
L 77.142632 48.666083 
L 77.176845 48.182992 
L 77.220388 48.538484 
L 77.285703 48.276057 
L 77.310584 48.66661 
L 77.335466 48.302688 
L 77.39145 48.661243 
L 77.351017 48.294758 
L 77.456765 48.610823 
L 77.469206 48.325961 
L 77.53452 48.672219 
L 77.568733 48.515094 
L 77.658929 48.669545 
L 77.584284 48.335287 
L 77.67759 48.519554 
L 77.711803 48.655071 
L 77.696252 48.364119 
L 77.752236 48.482506 
L 77.795779 48.203957 
L 77.823771 48.647611 
L 77.857983 48.625685 
L 77.935739 48.348567 
L 77.864203 48.674922 
L 77.966841 48.640958 
L 78.025935 48.358153 
L 78.072588 48.664832 
L 78.075698 48.696042 
L 78.134793 48.408254 
L 78.156564 48.452988 
L 78.165895 48.300495 
L 78.212548 48.687117 
L 78.262312 48.432179 
L 78.352508 48.68395 
L 78.308965 48.419379 
L 78.37428 48.513742 
L 78.389831 48.463666 
L 78.436484 48.672536 
L 78.473807 48.670894 
L 78.476917 48.690104 
L 78.511129 48.340696 
L 78.573334 48.610575 
L 78.654199 48.693205 
L 78.688412 48.389934 
L 78.731955 48.685767 
L 78.719514 48.358278 
L 78.815931 48.562424 
L 78.927899 48.39974 
L 78.887466 48.684536 
L 78.931009 48.448145 
L 79.018095 48.690252 
L 78.974552 48.409745 
L 79.039867 48.47915 
L 79.151835 48.320313 
L 79.067859 48.681825 
L 79.154945 48.331606 
L 79.167386 48.274587 
L 79.198488 48.656917 
L 79.248251 48.513976 
L 79.257582 48.660078 
L 79.276243 48.277103 
L 79.360219 48.580863 
L 79.406873 48.27988 
L 79.37577 48.646302 
L 79.469077 48.55293 
L 79.472187 48.656394 
L 79.5064 48.450755 
L 79.577935 48.486897 
L 79.671241 48.654259 
L 79.633919 48.15113 
L 79.689903 48.638901 
L 79.708564 48.342147 
L 79.748997 48.650071 
L 79.801871 48.560753 
L 79.907618 48.253212 
L 79.870295 48.699244 
L 79.910728 48.434912 
L 80.000925 48.661714 
L 79.957382 48.250903 
L 80.019586 48.527477 
L 80.122223 48.669393 
L 80.137774 48.3729 
L 80.153325 48.233596 
L 80.193758 48.631433 
L 80.224861 48.576663 
L 80.246632 48.441857 
L 80.234191 48.601404 
L 80.249742 48.44928 
L 80.255963 48.217063 
L 80.293285 48.696207 
L 80.36482 48.279216 
L 80.461237 48.672014 
L 80.473678 48.461552 
L 80.49545 48.28943 
L 80.532772 48.681867 
L 80.582536 48.539091 
L 80.626079 48.445013 
L 80.678953 48.676413 
L 80.691394 48.589699 
L 80.744267 48.338606 
L 80.78159 48.675149 
L 80.803361 48.435614 
L 80.831353 48.676175 
L 80.881117 48.410444 
L 80.91844 48.603593 
L 80.946432 48.412943 
L 80.974424 48.670874 
L 81.027297 48.587978 
L 81.080171 48.430769 
L 81.055289 48.687435 
L 81.123714 48.641943 
L 81.167257 48.704366 
L 81.192139 48.424213 
L 81.232572 48.632012 
L 81.338319 48.435389 
L 81.300997 48.669425 
L 81.34454 48.562138 
L 81.34765 48.674468 
L 81.431626 48.417552 
L 81.456508 48.621712 
L 81.468949 48.66216 
L 81.537373 48.468824 
L 81.552924 48.572234 
L 81.655562 48.454371 
L 81.612019 48.643791 
L 81.661782 48.638989 
L 81.677333 48.661825 
L 81.786191 48.272642 
L 81.882608 48.687614 
L 81.857726 48.268485 
L 81.901269 48.44304 
L 81.947922 48.294073 
L 81.979025 48.66936 
L 82.010127 48.473168 
L 82.044339 48.133593 
L 82.103433 48.599568 
L 82.106544 48.574478 
L 82.109654 48.683211 
L 82.131425 48.418152 
L 82.215401 48.502584 
L 82.283826 48.457397 
L 82.262055 48.66885 
L 82.311818 48.585365 
L 82.321149 48.686233 
L 82.408235 48.290258 
L 82.417566 48.444566 
L 82.501542 48.286761 
L 82.467329 48.634051 
L 82.529534 48.415253 
L 82.585518 48.681416 
L 82.638391 48.416556 
L 82.694375 48.349963 
L 82.666383 48.6736 
L 82.728588 48.565017 
L 82.828115 48.674883 
L 82.753469 48.41614 
L 82.837445 48.597452 
L 82.927642 48.361398 
L 82.884099 48.652896 
L 82.946303 48.520708 
L 82.992956 48.695011 
L 82.961854 48.492114 
L 83.055161 48.504925 
L 83.157798 48.305521 
L 83.083153 48.638619 
L 83.170239 48.331034 
L 83.232443 48.680345 
L 83.285317 48.539308 
L 83.310199 48.358624 
L 83.297758 48.665527 
L 83.394175 48.514129 
L 83.484371 48.695243 
L 83.428387 48.460954 
L 83.518584 48.654387 
L 83.61189 48.3899 
L 83.568347 48.683485 
L 83.630551 48.545372 
L 83.702087 48.689646 
L 83.680315 48.455203 
L 83.739409 48.562691 
L 83.75496 48.346054 
L 83.807834 48.694301 
L 83.848267 48.532318 
L 83.938463 48.694217 
L 83.857598 48.446068 
L 83.963345 48.64356 
L 84.059762 48.365671 
L 84.041101 48.688392 
L 84.075313 48.552352 
L 84.131297 48.650154 
L 84.153068 48.356194 
L 84.184171 48.52473 
L 84.202832 48.493778 
L 84.196612 48.698485 
L 84.227714 48.602981 
L 84.249485 48.654548 
L 84.274367 48.466324 
L 84.339682 48.621165 
L 84.426768 48.318212 
L 84.345902 48.678623 
L 84.45165 48.568703 
L 84.551177 48.682697 
L 84.513854 48.356184 
L 84.560507 48.592549 
L 84.576058 48.414618 
L 84.60094 48.681997 
L 84.669365 48.626769 
L 84.756451 48.668194 
L 84.725349 48.493269 
L 84.762672 48.524033 
L 84.874639 48.250582 
L 84.827986 48.691186 
L 84.87775 48.310349 
L 84.958615 48.652006 
L 84.992828 48.566119 
L 85.083024 48.203214 
L 85.02082 48.685974 
L 85.101686 48.593988 
L 85.145229 48.661391 
L 85.132788 48.335155 
L 85.207433 48.551251 
L 85.216764 48.354946 
L 85.244756 48.683555 
L 85.313181 48.677744 
L 85.459361 48.23879 
L 85.468692 48.304442 
L 85.543337 48.691951 
L 85.58377 48.614558 
L 85.630423 48.43268 
L 85.667746 48.642074 
L 85.692627 48.596583 
L 85.695738 48.673025 
L 85.73617 48.42101 
L 85.804595 48.617777 
L 85.841918 48.41075 
L 85.835697 48.684024 
L 85.913453 48.512188 
L 86.022311 48.69184 
L 85.935225 48.477476 
L 86.025421 48.6172 
L 86.037862 48.66896 
L 86.078295 48.451943 
L 86.131168 48.651046 
L 86.165381 48.37148 
L 86.193373 48.680722 
L 86.243136 48.575062 
L 86.320892 48.692209 
L 86.29601 48.491114 
L 86.348884 48.639979 
L 86.361325 48.478472 
L 86.426639 48.680039 
L 86.457742 48.525096 
L 86.560379 48.685943 
L 86.523056 48.486148 
L 86.569709 48.614128 
L 86.57904 48.569487 
L 86.58215 48.617652 
L 86.678567 48.438866 
L 86.631914 48.681823 
L 86.691008 48.62891 
L 86.734551 48.686836 
L 86.781204 48.391585 
L 86.784315 48.435277 
L 86.787425 48.393731 
L 86.852739 48.604424 
L 86.880731 48.58736 
L 86.883842 48.648047 
L 86.942936 48.405927 
L 86.989589 48.605586 
L 87.086006 48.117219 
L 87.033132 48.654211 
L 87.132659 48.367238 
L 87.235297 48.689712 
L 87.14199 48.255922 
L 87.257068 48.605793 
L 87.28817 48.227866 
L 87.303721 48.650332 
L 87.365926 48.648924 
L 87.397028 48.282516 
L 87.43124 48.653294 
L 87.477894 48.604544 
L 87.5712 48.388461 
L 87.586751 48.681007 
L 87.624074 48.400579 
L 87.70183 48.540195 
L 87.720491 48.61423 
L 87.729822 48.41923 
L 87.736042 48.249796 
L 87.829349 48.667198 
L 87.835569 48.606409 
L 87.931986 48.206235 
L 87.894663 48.658355 
L 87.947537 48.40178 
L 87.98797 48.676784 
L 88.065725 48.62931 
L 88.177693 48.32842 
L 88.109268 48.672365 
L 88.187024 48.603926 
L 88.221236 48.687869 
L 88.255449 48.471076 
L 88.295882 48.633704 
L 88.317653 48.294629 
L 88.401629 48.672868 
L 88.407849 48.52267 
L 88.519817 48.683158 
L 88.466944 48.395646 
L 88.526038 48.638013 
L 88.582022 48.441645 
L 88.603793 48.689739 
L 88.638006 48.591728 
L 88.6971 48.694081 
L 88.662888 48.476036 
L 88.70021 48.645976 
L 88.799737 48.456279 
L 88.759304 48.694198 
L 88.809068 48.527543 
L 88.874382 48.694557 
L 88.883713 48.451589 
L 88.921036 48.574053 
L 88.97391 48.645905 
L 89.029893 48.4797 
L 89.085877 48.696571 
L 89.039224 48.465491 
L 89.144972 48.665373 
L 89.169853 48.404127 
L 89.244499 48.68418 
L 89.253829 48.609576 
L 89.312924 48.68443 
L 89.281821 48.44423 
L 89.359577 48.623988 
L 89.424891 48.419299 
L 89.372018 48.692259 
L 89.474655 48.524071 
L 89.571072 48.467493 
L 89.515088 48.642023 
L 89.577292 48.563504 
L 89.580402 48.676312 
L 89.667489 48.412419 
L 89.68304 48.476329 
L 89.68615 48.428731 
L 89.732803 48.65508 
L 89.788787 48.506186 
L 89.841661 48.70113 
L 89.860322 48.413564 
L 89.897645 48.566381 
L 89.950519 48.284836 
L 89.96607 48.607898 
L 90.006503 48.556585 
L 90.11536 48.683079 
L 90.081148 48.415366 
L 90.127801 48.625725 
L 90.230438 48.386831 
L 90.208667 48.651729 
L 90.24599 48.460316 
L 90.329965 48.368413 
L 90.292643 48.700788 
L 90.342406 48.533396 
L 90.438823 48.66156 
L 90.39839 48.417312 
L 90.466815 48.609167 
L 90.547681 48.292604 
L 90.485476 48.699904 
L 90.578783 48.538853 
L 90.594334 48.201478 
L 90.628547 48.660143 
L 90.68142 48.647864 
L 90.693861 48.657828 
L 90.687641 48.582585 
L 90.696971 48.598203 
L 90.746735 48.389564 
L 90.706302 48.69014 
L 90.81205 48.455478 
L 90.899136 48.682873 
L 90.858703 48.36411 
L 90.924017 48.502622 
L 90.936458 48.292744 
L 91.011104 48.642617 
L 91.032875 48.517383 
L 91.067088 48.637938 
L 91.039096 48.444511 
L 91.09508 48.489964 
L 91.09819 48.405591 
L 91.144843 48.690838 
L 91.200827 48.603371 
L 91.294134 48.700296 
L 91.231929 48.494758 
L 91.309685 48.626645 
L 91.322126 48.43769 
L 91.334567 48.701476 
L 91.418542 48.667139 
L 91.430983 48.480951 
L 91.511849 48.689948 
L 91.536731 48.536498 
L 91.648699 48.673078 
L 91.626927 48.462844 
L 91.658029 48.610265 
L 91.754446 48.476862 
L 91.689132 48.678133 
L 91.769997 48.522313 
L 91.832202 48.670782 
L 91.863304 48.449121 
L 91.881965 48.5699 
L 91.891296 48.471228 
L 91.906847 48.669983 
L 91.965941 48.587022 
L 91.969051 48.679419 
L 92.053027 48.395003 
L 92.074799 48.637369 
L 92.081019 48.675519 
L 92.199208 48.271309 
L 92.245861 48.646056 
L 92.317396 48.58801 
L 92.435584 48.230165 
L 92.395152 48.628578 
L 92.438695 48.239733 
L 92.476017 48.179518 
L 92.500899 48.582976 
L 92.51334 48.479614 
L 92.532001 48.67199 
L 92.609757 48.34936 
L 92.615977 48.410381 
L 92.668851 48.170504 
L 92.703063 48.649905 
L 92.718614 48.613752 
L 92.830582 48.417601 
L 92.759047 48.640781 
L 92.839913 48.567107 
L 92.911448 48.698143 
L 92.858574 48.38484 
L 92.93633 48.596646 
L 93.004755 48.348412 
L 93.048298 48.545861 
L 93.132274 48.630589 
L 93.110502 48.400747 
L 93.147825 48.495833 
L 93.163376 48.387366 
L 93.22247 48.667656 
L 93.247352 48.629038 
L 93.266013 48.667513 
L 93.297115 48.401341 
L 93.35621 48.635692 
L 93.446406 48.382942 
L 93.374871 48.694225 
L 93.465067 48.600856 
L 93.480618 48.691612 
L 93.50861 48.423462 
L 93.564594 48.451073 
L 93.661011 48.672168 
L 93.63924 48.425008 
L 93.670342 48.527216 
L 93.735656 48.401164 
L 93.707664 48.687175 
L 93.7792 48.575601 
L 93.79164 48.687658 
L 93.822743 48.408859 
L 93.891167 48.612173 
L 93.916049 48.314131 
L 94.000025 48.657467 
L 94.003135 48.571649 
L 94.07467 48.42412 
L 94.012466 48.655586 
L 94.099552 48.600669 
L 94.189749 48.680603 
L 94.155536 48.368445 
L 94.202189 48.51049 
L 94.2053 48.482861 
L 94.270614 48.68377 
L 94.298606 48.58567 
L 94.3577 48.700334 
L 94.404354 48.474613 
L 94.519432 48.70062 
L 94.525652 48.679486 
L 94.547424 48.490614 
L 94.64073 48.651404 
L 94.659392 48.692067 
L 94.681163 48.51369 
L 94.702935 48.596781 
" clip-path="url(#pdd4dfb2c06)" style="fill: none; stroke: #2ca02c; stroke-width: 0.5; stroke-linecap: square"/>
   </g>
  </g>
 </g>
 <defs>
  <clipPath id="pdd4dfb2c06">
   <rect x="0" y="-0" width="99.212598" height="51.023622"/>
  </clipPath>
 </defs>
</svg>
