<?xml version="1.0" encoding="utf-8" standalone="no"?>
<!DOCTYPE svg PUBLIC "-//W3C//DTD SVG 1.1//EN"
  "http://www.w3.org/Graphics/SVG/1.1/DTD/svg11.dtd">
<svg xmlns:xlink="http://www.w3.org/1999/xlink" width="99.212598pt" height="51.023622pt" viewBox="0 0 99.212598 51.023622" xmlns="http://www.w3.org/2000/svg" version="1.1">
 <metadata>
  <rdf:RDF xmlns:dc="http://purl.org/dc/elements/1.1/" xmlns:cc="http://creativecommons.org/ns#" xmlns:rdf="http://www.w3.org/1999/02/22-rdf-syntax-ns#">
   <cc:Work>
    <dc:type rdf:resource="http://purl.org/dc/dcmitype/StillImage"/>
    <dc:date>2024-10-30T10:51:12.934786</dc:date>
    <dc:format>image/svg+xml</dc:format>
    <dc:creator>
     <cc:Agent>
      <dc:title>Matplotlib v3.8.4, https://matplotlib.org/</dc:title>
     </cc:Agent>
    </dc:creator>
   </cc:Work>
  </rdf:RDF>
 </metadata>
 <defs>
  <style type="text/css">*{stroke-linejoin: round; stroke-linecap: butt}</style>
 </defs>
 <g id="figure_1">
  <g id="patch_1">
   <path d="M 0 51.023622 
L 99.212598 51.023622 
L 99.212598 0 
L 0 0 
L 0 51.023622 
z
" style="fill: none"/>
  </g>
  <g id="axes_1">
   <g id="patch_2">
    <path d="M 0 51.023622 
L 99.212598 51.023622 
L 99.212598 -0 
L 0 -0 
L 0 51.023622 
z
" style="fill: none"/>
   </g>
   <g id="matplotlib.axis_1">
    <g id="xtick_1"/>
    <g id="xtick_2"/>
   </g>
   <g id="matplotlib.axis_2">
    <g id="ytick_1"/>
    <g id="ytick_2"/>
   </g>
   <g id="line2d_1">
    <path d="M 4.509664 21.955967 
L 4.515884 22.784746 
L 4.587419 16.146812 
L 4.59675 16.274 
L 4.60297 16.168772 
L 4.630962 18.090377 
L 4.73982 29.145352 
L 4.786473 25.955289 
L 4.817575 23.681075 
L 4.851788 29.875425 
L 4.88911 42.810157 
L 4.948205 24.604633 
L 5.038401 2.319256 
L 5.097495 14.455592 
L 5.249896 30.842534 
L 5.30588 45.382951 
L 5.377415 35.506092 
L 5.389856 35.348111 
L 5.420958 36.778235 
L 5.492493 40.678898 
L 5.532926 37.150696 
L 5.548477 36.561945 
L 5.616902 38.167325 
L 5.626233 38.060592 
L 5.685327 40.496863 
L 5.72576 43.523531 
L 5.812846 42.137028 
L 5.847058 46.325572 
L 5.856389 48.02318 
L 5.927924 39.989701 
L 5.965247 33.185781 
L 6.030561 41.362799 
L 6.033671 41.199108 
L 6.036782 41.213057 
L 6.043002 40.745167 
L 6.120758 29.529331 
L 6.204733 36.514609 
L 6.344693 45.311537 
L 6.357134 43.736846 
L 6.43489 35.435685 
L 6.490874 39.612832 
L 6.705479 47.188261 
L 6.736581 44.795515 
L 6.749022 44.328135 
L 6.826778 46.047619 
L 6.842329 47.528299 
L 6.910753 43.000843 
L 6.944966 41.381856 
L 7.00717 44.340335 
L 7.016501 44.505235 
L 7.069375 43.248261 
L 7.116028 42.448969 
L 7.153351 44.569119 
L 7.181343 47.831897 
L 7.265319 44.792346 
L 7.327523 43.429242 
L 7.374176 44.590149 
L 7.467483 46.566977 
L 7.43016 44.579168 
L 7.486144 45.042672 
L 7.532797 41.143164 
L 7.619884 43.130098 
L 7.672757 44.880678 
L 7.741182 43.416541 
L 7.747403 43.148535 
L 7.797166 45.357776 
L 7.831379 44.304981 
L 7.871811 43.421089 
L 7.890473 44.426962 
L 7.974449 48.435539 
L 7.99622 43.879094 
L 8.011771 42.193879 
L 8.083306 47.474945 
L 8.086417 47.397897 
L 8.13307 43.222805 
L 8.220156 45.58676 
L 8.313463 48.058386 
L 8.335234 46.791626 
L 8.42232 44.678548 
L 8.450312 46.34145 
L 8.462753 47.088816 
L 8.500076 44.44191 
L 8.540509 44.804125 
L 8.55606 44.346247 
L 8.587162 47.983592 
L 8.630705 46.134647 
L 8.652477 48.563643 
L 8.736453 45.530906 
L 8.863972 42.987075 
L 8.776885 45.752583 
L 8.876413 43.544614 
L 9.028813 47.913437 
L 9.041254 48.277943 
L 9.084797 45.773473 
L 9.106569 44.691219 
L 9.143891 46.802128 
L 9.165663 48.049404 
L 9.255859 46.935257 
L 9.330505 46.490064 
L 9.352276 47.328061 
L 9.389599 48.425545 
L 9.451803 46.293752 
L 9.482905 44.47082 
L 9.529559 48.32064 
L 9.542 47.800125 
L 9.563771 48.169219 
L 9.591763 46.262154 
L 9.663298 43.043904 
L 9.703731 46.030686 
L 9.728613 48.27977 
L 9.821919 46.770467 
L 9.905895 48.373255 
L 9.943218 47.162241 
L 9.952549 46.852409 
L 9.97432 47.969338 
L 9.980541 48.474092 
L 10.076957 47.279061 
L 10.089398 47.368605 
L 10.136052 47.037099 
L 10.139162 47.002266 
L 10.160933 47.840419 
L 10.170264 48.627954 
L 10.24802 47.148854 
L 10.269791 47.617275 
L 10.344436 48.494676 
L 10.313334 46.774336 
L 10.375539 47.55305 
L 10.506168 44.993798 
L 10.524829 45.96153 
L 10.590144 48.466822 
L 10.639907 46.829943 
L 10.664789 44.571221 
L 10.726993 47.03231 
L 10.754985 46.033959 
L 10.767426 46.446138 
L 10.81719 48.15268 
L 10.876284 46.503525 
L 10.935378 47.392848 
L 11.013134 44.915699 
L 11.022464 45.167955 
L 11.053567 48.129196 
L 11.121991 44.765214 
L 11.131322 45.065055 
L 11.293053 48.04314 
L 11.314825 46.59398 
L 11.345927 46.229032 
L 11.38636 47.790466 
L 11.392581 47.785043 
L 11.398801 47.920083 
L 11.436124 45.669583 
L 11.442344 45.423828 
L 11.467226 47.592194 
L 11.504548 46.960119 
L 11.576084 48.029883 
L 11.600965 46.699892 
L 11.653839 46.476199 
L 11.681831 47.739006 
L 11.700492 48.586125 
L 11.775138 46.729004 
L 11.81246 45.690813 
L 11.856003 47.104392 
L 11.921318 48.247356 
L 11.95553 46.674102 
L 12.011514 46.003289 
L 12.061278 46.801803 
L 12.129703 47.122712 
L 12.09549 46.159397 
L 12.160805 46.493508 
L 12.306985 48.558527 
L 12.207458 46.381355 
L 12.325647 47.129398 
L 12.338087 46.873288 
L 12.381631 48.559822 
L 12.412733 48.180552 
L 12.425174 48.621546 
L 12.484268 47.140592 
L 12.499819 46.996453 
L 12.540252 47.451516 
L 12.543362 47.416447 
L 12.565134 48.197983 
L 12.599346 46.646703 
L 12.639779 46.905304 
L 12.65844 45.928606 
L 12.689542 48.183706 
L 12.729975 48.092258 
L 12.739306 48.504762 
L 12.779739 47.75936 
L 12.835723 47.867239 
L 12.866825 46.305844 
L 12.894817 44.965309 
L 12.966352 47.107012 
L 13.028556 48.600142 
L 13.062769 46.04871 
L 13.08143 45.616121 
L 13.146745 47.331284 
L 13.149855 47.266558 
L 13.168516 46.863089 
L 13.202729 48.24717 
L 13.243161 47.818879 
L 13.261823 47.983173 
L 13.296035 46.819961 
L 13.389342 47.3631 
L 13.414224 46.243861 
L 13.442216 47.718164 
L 13.513751 46.075833 
L 13.516861 46.133729 
L 13.529302 45.942808 
L 13.569735 46.945423 
L 13.64127 48.393568 
L 13.681702 47.230335 
L 13.703474 46.396433 
L 13.756348 47.540235 
L 13.809222 46.673156 
L 13.830993 46.990278 
L 13.946071 48.448186 
L 13.921189 46.285398 
L 13.952292 47.927542 
L 13.964733 47.087538 
L 13.986504 48.337672 
L 14.061149 48.135841 
L 14.07048 48.544002 
L 14.135795 47.461611 
L 14.173117 48.275349 
L 14.225991 46.929709 
L 14.294416 47.492155 
L 14.297526 47.449731 
L 14.334849 48.43519 
L 14.341069 48.587991 
L 14.387722 46.305477 
L 14.390833 46.309588 
L 14.393943 46.273335 
L 14.434376 47.059212 
L 14.611658 48.664279 
L 14.627209 48.305349 
L 14.698744 46.757199 
L 14.745398 47.862176 
L 14.767169 47.180206 
L 14.804492 48.46384 
L 14.829374 48.419122 
L 14.835594 48.56978 
L 14.891578 47.627787 
L 14.91957 48.210935 
L 15.000436 47.691466 
L 15.025318 48.448493 
L 15.05642 48.574166 
L 15.078191 47.708106 
L 15.180829 46.659998 
L 15.190159 47.062558 
L 15.320788 48.679122 
L 15.426536 46.762657 
L 15.47941 48.015715 
L 15.48563 48.174402 
L 15.513622 46.828795 
L 15.557165 45.747625 
L 15.600708 47.166584 
L 15.613149 47.147032 
L 15.653582 48.572522 
L 15.703346 46.963376 
L 15.725117 47.22675 
L 15.883738 48.583719 
L 15.793542 46.88248 
L 15.893069 47.989006 
L 15.921061 47.306123 
L 15.992596 48.616339 
L 15.995706 48.646962 
L 16.023698 47.928367 
L 16.110784 46.97286 
L 16.144997 47.487975 
L 16.160548 47.253377 
L 16.207201 47.787783 
L 16.235193 48.42868 
L 16.306728 47.301853 
L 16.309838 47.331852 
L 16.32539 46.748667 
L 16.368933 47.782715 
L 16.412476 47.642438 
L 16.508893 48.297267 
L 16.452909 46.822226 
L 16.536885 47.995017 
L 16.658183 46.436325 
L 16.564876 48.114976 
L 16.679955 47.351995 
L 16.698616 47.29344 
L 16.816804 48.544186 
L 16.919442 47.660614 
L 16.938103 47.877405 
L 16.950544 48.125188 
L 17.012748 47.266904 
L 17.046961 47.915326 
L 17.130937 47.276499 
L 17.065622 48.109211 
L 17.18381 47.654388 
L 17.196251 48.533886 
L 17.236684 46.620455 
L 17.289558 47.401699 
L 17.432628 48.539475 
L 17.333101 47.102277 
L 17.438848 48.304442 
L 17.46373 47.115414 
L 17.525934 48.623905 
L 17.553926 47.806247 
L 17.557037 47.793273 
L 17.563257 47.991208 
L 17.641013 48.676729 
L 17.662784 47.680301 
L 17.672115 47.888475 
L 17.678335 48.243308 
L 17.734319 47.487148 
L 17.784083 48.004347 
L 17.790303 48.062734 
L 17.793413 48.039151 
L 17.8805 47.216991 
L 17.849397 48.299208 
L 17.905381 47.834853 
L 17.955145 48.225534 
L 17.927153 47.613806 
L 18.020459 47.99139 
L 18.045341 47.309642 
L 18.116876 47.95192 
L 18.126207 48.522258 
L 18.210183 47.089891 
L 18.235065 46.438078 
L 18.275498 47.836056 
L 18.362584 48.576332 
L 18.378135 47.212715 
L 18.393686 46.817573 
L 18.465221 47.875635 
L 18.558528 48.510595 
L 18.527425 47.232593 
L 18.570968 47.842392 
L 18.620732 46.395551 
L 18.676716 47.858802 
L 18.763802 48.448218 
L 18.707818 47.403041 
L 18.779353 47.52077 
L 18.791794 47.078368 
L 18.863329 47.884547 
L 18.885101 47.602 
L 18.922423 48.178855 
L 18.962856 47.31636 
L 18.987738 47.402985 
L 19.000179 47.230693 
L 19.043722 47.157666 
L 19.062383 47.476457 
L 19.137028 48.359315 
L 19.096596 47.42738 
L 19.177461 47.664468 
L 19.283209 47.4768 
L 19.208564 48.627096 
L 19.289429 47.558218 
L 19.314311 48.459627 
L 19.404507 47.913548 
L 19.454271 47.728147 
L 19.429389 48.433397 
L 19.485373 48.269078 
L 19.58179 48.623011 
L 19.510255 47.179928 
L 19.594231 48.2383 
L 19.597341 48.242139 
L 19.600451 48.142187 
L 19.619113 47.753942 
L 19.706199 48.385896 
L 19.715529 48.258907 
L 19.830608 47.58563 
L 19.752852 48.494494 
L 19.833718 47.682708 
L 19.899032 48.58361 
L 19.86793 47.601486 
L 19.967457 48.036791 
L 20.051433 47.335836 
L 20.076315 48.029105 
L 20.129189 48.606669 
L 20.15407 47.675292 
L 20.169622 47.447522 
L 20.244267 48.418283 
L 20.250487 48.63479 
L 20.337573 47.609735 
L 20.340684 47.66268 
L 20.43088 47.421286 
L 20.365565 48.098308 
L 20.443321 47.871421 
L 20.555289 48.651748 
L 20.530407 47.531331 
L 20.561509 48.420758 
L 20.661036 47.315536 
L 20.608163 48.617863 
L 20.682808 47.859745 
L 20.751233 48.516764 
L 20.788555 47.777278 
L 20.791666 47.810845 
L 20.800996 47.61363 
L 20.85698 48.213445 
L 20.891193 47.91071 
L 20.903633 48.456772 
L 20.953397 47.407322 
L 20.99694 47.71144 
L 21.003161 47.684751 
L 21.031152 48.176524 
L 21.077806 48.649013 
L 21.059144 47.737229 
L 21.112018 48.001644 
L 21.217766 47.687581 
L 21.189774 48.576388 
L 21.227096 47.799139 
L 21.261309 48.569298 
L 21.289301 46.704993 
L 21.301742 46.400191 
L 21.348395 47.888352 
L 21.376387 47.657436 
L 21.41682 48.519767 
L 21.479024 47.231989 
L 21.482134 47.17793 
L 21.525677 48.243937 
L 21.531898 48.22855 
L 21.550559 48.655975 
L 21.569221 48.187409 
L 21.622094 48.228749 
L 21.668748 47.081638 
L 21.762054 47.294829 
L 21.774495 47.238734 
L 21.818038 47.709054 
L 21.902014 48.664013 
L 21.948667 48.453926 
L 22.026423 47.122617 
L 22.063746 48.182959 
L 22.163273 47.429644 
L 22.069966 48.247671 
L 22.181934 47.957121 
L 22.237918 48.659742 
L 22.2628 47.681954 
L 22.300122 48.479083 
L 22.371657 47.390277 
L 22.427641 48.196005 
L 22.433862 48.394883 
L 22.464964 47.435837 
L 22.533389 48.081917 
L 22.54894 47.731521 
L 22.586263 48.654246 
L 22.626695 48.148933 
L 22.629806 48.322892 
L 22.701341 46.949388 
L 22.726222 47.570068 
L 22.83819 48.402484 
L 22.735553 47.534086 
L 22.859962 48.13613 
L 22.937717 48.045679 
L 22.878623 48.693678 
L 22.953268 48.371481 
L 22.959489 48.548665 
L 23.040355 47.869317 
L 23.052796 48.06768 
L 23.133661 48.653195 
L 23.183425 47.492654 
L 23.189645 47.4699 
L 23.295393 48.431173 
L 23.211417 47.334932 
L 23.310944 48.083826 
L 23.40114 48.52987 
L 23.438463 47.420791 
L 23.53799 48.039571 
L 23.494447 47.393323 
L 23.556651 47.936533 
L 23.600194 47.454379 
L 23.68417 48.612565 
L 23.836571 47.710091 
L 23.852122 48.070358 
L 23.945429 48.573908 
L 23.920547 47.636385 
L 23.976531 48.357728 
L 24.010743 48.043477 
L 24.066727 48.640413 
L 24.069837 48.703622 
L 24.11027 47.866991 
L 24.160034 48.294397 
L 24.206687 48.664972 
L 24.25334 48.050189 
L 24.368419 47.731502 
L 24.262671 48.228138 
L 24.380859 47.861004 
L 24.3933 48.357374 
L 24.474166 47.806799 
L 24.495938 48.198634 
L 24.598575 47.366616 
L 24.539481 48.405367 
L 24.611016 47.979239 
L 24.657669 48.464415 
L 24.707433 47.456195 
L 24.735425 46.697131 
L 24.763417 48.618481 
L 24.797629 48.305952 
L 24.800739 48.41368 
L 24.881605 47.611924 
L 24.95003 48.62054 
L 24.996683 47.325708 
L 25.006014 47.491006 
L 25.121092 48.475992 
L 25.061998 46.719327 
L 25.136643 48.288825 
L 25.186406 48.636412 
L 25.208178 48.143657 
L 25.211288 48.177306 
L 25.267272 47.621844 
L 25.307705 48.29379 
L 25.310815 48.361564 
L 25.366799 47.547516 
L 25.416563 48.302307 
L 25.509869 47.801247 
L 25.488098 48.401171 
L 25.52542 48.189164 
L 25.606286 47.620753 
L 25.640499 48.560832 
L 25.740026 47.681877 
L 25.761797 47.950114 
L 25.768018 48.203293 
L 25.786679 47.590531 
L 25.861324 47.605839 
L 25.864434 47.58771 
L 25.876875 47.967169 
L 25.907978 47.853643 
L 25.967072 48.650488 
L 26.023056 48.167065 
L 26.069709 48.224478 
L 26.047937 47.780981 
L 26.116362 48.106785 
L 26.135024 47.687137 
L 26.172346 48.561574 
L 26.215889 48.398879 
L 26.265653 48.640658 
L 26.246992 48.204231 
L 26.290535 48.271898 
L 26.309196 47.388324 
L 26.380731 48.52036 
L 26.396282 48.365494 
L 26.405613 48.591752 
L 26.470927 47.423602 
L 26.477148 47.569665 
L 26.548683 48.495044 
L 26.551793 48.650687 
L 26.626438 47.658894 
L 26.657541 48.390906 
L 26.707304 47.796705 
L 26.735296 48.424102 
L 26.766398 48.345364 
L 26.778839 48.682887 
L 26.816162 47.910631 
L 26.872146 48.305069 
L 26.915689 48.099877 
L 26.956122 48.523841 
L 26.977893 48.322842 
L 27.030767 48.128723 
L 27.092971 48.636972 
L 27.155176 47.60383 
L 27.239152 48.350705 
L 27.242262 48.378019 
L 27.288915 47.810026 
L 27.295136 47.609508 
L 27.382222 48.535037 
L 27.385332 48.642187 
L 27.453757 47.934601 
L 27.478639 48.053288 
L 27.596827 47.400502 
L 27.50041 48.300405 
L 27.615488 47.787791 
L 27.655921 48.503424 
L 27.727456 48.107847 
L 27.789661 47.721077 
L 27.802102 48.314437 
L 27.817653 48.173985 
L 27.858085 48.676508 
L 27.876747 47.858577 
L 27.92651 48.134799 
L 28.001156 47.582978 
L 28.038478 48.233665 
L 28.153556 47.501064 
L 28.106903 48.597691 
L 28.169108 47.864531 
L 28.240643 48.667739 
L 28.290406 48.466915 
L 28.433476 47.488896 
L 28.576546 48.599703 
L 28.582767 48.463051 
L 28.660522 47.671792 
L 28.616979 48.630626 
L 28.700955 48.10599 
L 28.816033 48.554547 
L 28.747608 47.812276 
L 28.825364 48.342424 
L 28.931111 47.949042 
L 28.850246 48.675271 
L 28.940442 48.185366 
L 29.039969 48.575201 
L 29.015087 47.912194 
L 29.0493 48.261439 
L 29.092843 47.879141 
L 29.064851 48.514484 
L 29.161268 48.091646 
L 29.173709 48.389815 
L 29.248354 48.650631 
L 29.18926 48.026213 
L 29.279456 48.042635 
L 29.316779 47.875414 
L 29.347881 48.582377 
L 29.378983 48.241815 
L 29.394534 48.609412 
L 29.466069 47.614109 
L 29.47229 47.828124 
L 29.4754 47.709719 
L 29.525163 48.611326 
L 29.568707 48.15694 
L 29.599809 48.488603 
L 29.584258 47.845416 
L 29.683785 48.411125 
L 29.686895 48.484782 
L 29.739769 47.915148 
L 29.789532 48.326281 
L 29.826855 48.517306 
L 29.848626 48.187514 
L 29.882839 48.296803 
L 29.913941 48.635791 
L 30.001027 47.955208 
L 30.010358 47.892889 
L 30.013468 48.003444 
L 30.029019 48.411857 
L 30.072562 47.680041 
L 30.128546 48.394252 
L 30.137877 48.598056 
L 30.17831 47.662205 
L 30.234294 48.448695 
L 30.302718 48.086086 
L 30.32449 48.535031 
L 30.346262 48.378007 
L 30.405356 48.589941 
L 30.420907 48.001661 
L 30.452009 48.283093 
L 30.455119 48.271955 
L 30.47067 48.624184 
L 30.473781 48.659759 
L 30.504883 48.157197 
L 30.548426 48.436436 
L 30.647953 48.648246 
L 30.663504 48.078703 
L 30.666614 48.082765 
L 30.669724 47.977045 
L 30.688386 47.9823 
L 30.697716 47.741312 
L 30.741259 48.551427 
L 30.784803 48.176818 
L 30.862558 48.679049 
L 30.89677 48.221058 
L 30.965195 48.674747 
L 30.993187 48.092745 
L 30.996298 48.091256 
L 31.002518 48.170114 
L 31.005628 48.150303 
L 31.018069 48.607365 
L 31.064722 47.804179 
L 31.120706 48.378135 
L 31.210903 47.782807 
L 31.158029 48.622859 
L 31.235784 48.103205 
L 31.350863 47.629708 
L 31.304209 48.521911 
L 31.357083 47.681711 
L 31.441059 48.407427 
L 31.465941 47.604749 
L 31.481492 47.309937 
L 31.528145 48.13416 
L 31.559247 48.039187 
L 31.643223 48.684094 
L 31.60279 47.81957 
L 31.674326 48.390667 
L 31.699207 47.91828 
L 31.786293 48.214014 
L 31.795624 48.702851 
L 31.88271 47.958902 
L 31.895151 48.291775 
L 31.988458 48.08475 
L 31.972907 48.520863 
L 31.997788 48.352315 
L 32.000899 48.503838 
L 32.050662 47.732245 
L 32.103536 48.212739 
L 32.190622 47.993677 
L 32.147079 48.439355 
L 32.206173 48.257812 
L 32.215504 48.529464 
L 32.29637 48.111773 
L 32.315031 48.258173 
L 32.339913 48.450804 
L 32.352353 47.93568 
L 32.367905 47.430199 
L 32.417668 48.556248 
L 32.454991 48.18988 
L 32.517195 48.636222 
L 32.473652 47.8433 
L 32.551408 48.089875 
L 32.554518 47.939708 
L 32.594951 48.665303 
L 32.654045 48.474054 
L 32.719359 47.90428 
L 32.672706 48.631502 
L 32.762903 48.321381 
L 32.775343 48.668982 
L 32.856209 47.973172 
L 32.877981 48.579055 
L 32.881091 48.629893 
L 32.937075 47.829564 
L 32.955736 48.088153 
L 32.989949 47.843418 
L 33.0055 48.376044 
L 33.061484 48.130159 
L 33.105027 48.503949 
L 33.164121 47.964748 
L 33.185892 47.798497 
L 33.254317 48.435509 
L 33.29164 48.544833 
L 33.310301 47.868736 
L 33.360065 48.33467 
L 33.363175 48.344025 
L 33.378726 48.09859 
L 33.384947 48.130821 
L 33.493804 47.950194 
L 33.465812 48.659033 
L 33.496914 47.981765 
L 33.593331 48.508441 
L 33.615103 48.162734 
L 33.621323 47.884694 
L 33.72085 48.400737 
L 33.839039 48.662619 
L 33.745732 47.992349 
L 33.85459 48.53803 
L 33.969668 48.058139 
L 33.978999 48.074063 
L 34.103407 48.604368 
L 34.215375 48.160485 
L 34.14384 48.66001 
L 34.246477 48.238552 
L 34.28691 48.647158 
L 34.311792 47.806492 
L 34.355335 48.159952 
L 34.401988 48.579797 
L 34.361556 48.090501 
L 34.476634 48.417613 
L 34.551279 48.268946 
L 34.498405 48.67026 
L 34.585491 48.407661 
L 34.653916 48.666125 
L 34.635255 48.362272 
L 34.669467 48.353626 
L 34.694349 48.67073 
L 34.787656 47.955817 
L 34.803207 48.63167 
L 34.893403 47.810188 
L 34.896513 47.939914 
L 34.899624 47.889179 
L 34.912065 48.535781 
L 34.971159 48.392347 
L 35.008481 48.662282 
L 35.033363 47.890841 
L 35.080016 48.295968 
L 35.12356 47.99477 
L 35.098678 48.364026 
L 35.179544 48.204935 
L 35.210646 48.564985 
L 35.260409 47.524058 
L 35.282181 47.821067 
L 35.288401 47.565895 
L 35.378598 48.593364 
L 35.381708 48.567782 
L 35.387928 48.632987 
L 35.453243 48.102258 
L 35.459463 48.125369 
L 35.475014 47.86444 
L 35.493676 48.550259 
L 35.521668 48.503441 
L 35.618085 48.670362 
L 35.580762 48.265718 
L 35.630525 48.626786 
L 35.754934 47.982171 
L 35.758044 48.025228 
L 35.866902 48.547303 
L 35.810918 47.98459 
L 35.888674 48.33214 
L 35.919776 47.831423 
L 35.969539 48.500195 
L 35.988201 48.390041 
L 36.025523 48.621908 
L 36.081507 47.925273 
L 36.084618 48.018754 
L 36.087728 47.994311 
L 36.143712 48.419472 
L 36.146822 48.426457 
L 36.156153 48.223964 
L 36.171704 48.228315 
L 36.177924 48.112359 
L 36.212137 48.623629 
L 36.243239 48.529643 
L 36.2619 48.688186 
L 36.293002 47.856341 
L 36.348986 48.480383 
L 36.370758 48.075534 
L 36.448513 48.666222 
L 36.454734 48.61089 
L 36.504497 47.8182 
L 36.554261 48.655828 
L 36.585363 48.239558 
L 36.672449 48.525311 
L 36.625796 47.90346 
L 36.700441 48.368143 
L 36.803078 48.108609 
L 36.768866 48.677993 
L 36.812409 48.327513 
L 36.82174 48.433153 
L 36.859062 48.005525 
L 36.902605 48.137656 
L 36.915046 47.90882 
L 36.933708 48.549084 
L 37.005243 48.410886 
L 37.014573 48.504041 
L 37.017684 48.353648 
L 37.020794 48.37387 
L 37.089219 47.975817 
L 37.073668 48.590518 
L 37.129651 48.439734 
L 37.135872 48.522895 
L 37.188746 48.650246 
L 37.210517 48.145559 
L 37.241619 48.335557 
L 37.25406 47.986243 
L 37.288273 48.515854 
L 37.347367 48.303735 
L 37.378469 48.528528 
L 37.437563 47.644143 
L 37.440673 47.687473 
L 37.446894 47.64707 
L 37.484217 48.352589 
L 37.512209 48.63828 
L 37.546421 47.868002 
L 37.589964 48.221121 
L 37.593074 48.190728 
L 37.642838 48.542801 
L 37.67705 48.29697 
L 37.770357 48.673189 
L 37.754806 48.244715 
L 37.789018 48.470841 
L 37.804569 48.645667 
L 37.838782 48.190228 
L 37.845002 47.860976 
L 37.900986 48.655706 
L 37.947639 48.240872 
L 38.056497 48.669631 
L 38.062717 48.572069 
L 38.118701 48.008518 
L 38.068938 48.617584 
L 38.215118 48.265567 
L 38.249331 48.552365 
L 38.283543 48.205406 
L 38.320866 48.298575 
L 38.348858 48.134123 
L 38.407952 48.553168 
L 38.423503 48.530608 
L 38.435944 48.625813 
L 38.451495 48.268608 
L 38.460826 48.354731 
L 38.479487 47.873646 
L 38.513699 48.495002 
L 38.566573 48.437894 
L 38.681651 48.658402 
L 38.613226 48.203247 
L 38.690982 48.489551 
L 38.778068 48.261141 
L 38.718974 48.66518 
L 38.80917 48.292867 
L 38.902477 48.696286 
L 38.871375 48.154711 
L 38.921138 48.386677 
L 39.036216 47.837983 
L 38.977122 48.582927 
L 39.045547 48.014114 
L 39.110862 48.544031 
L 39.148184 47.884764 
L 39.154405 47.720576 
L 39.23527 48.500504 
L 39.238381 48.450471 
L 39.253932 48.641616 
L 39.291254 47.980596 
L 39.319246 48.233073 
L 39.3659 48.008961 
L 39.400112 48.535105 
L 39.418773 48.483018 
L 39.421884 48.619526 
L 39.471647 48.365675 
L 39.530741 48.522442 
L 39.540072 48.521401 
L 39.546292 48.391711 
L 39.65204 48.127212 
L 39.574284 48.593782 
L 39.664481 48.242711 
L 39.704914 48.210485 
L 39.686252 48.458472 
L 39.726685 48.412271 
L 39.754677 48.677556 
L 39.79822 48.045487 
L 39.832433 48.304424 
L 39.854204 48.179319 
L 39.888417 48.618962 
L 39.93818 48.423124 
L 40.047038 48.703125 
L 39.991054 48.063546 
L 40.050148 48.502113 
L 40.065699 48.091033 
L 40.112353 48.624925 
L 40.174557 48.195274 
L 40.283415 48.521662 
L 40.289635 48.384088 
L 40.36117 48.180351 
L 40.386052 48.551061 
L 40.491799 48.697061 
L 40.448256 48.275329 
L 40.50113 48.59422 
L 40.603767 48.035906 
L 40.50735 48.680024 
L 40.619318 48.457755 
L 40.709515 47.863587 
L 40.734397 48.403631 
L 40.802821 48.670019 
L 40.818372 48.251828 
L 40.846364 48.58007 
L 40.945891 47.998423 
L 40.874356 48.664411 
L 40.958332 48.329587 
L 40.998765 48.601423 
L 41.026757 47.972869 
L 41.06408 48.087696 
L 41.185378 48.669137 
L 41.188489 48.604347 
L 41.194709 48.364326 
L 41.222701 48.667278 
L 41.297346 48.475272 
L 41.306677 48.67112 
L 41.356441 47.790368 
L 41.409314 48.520493 
L 41.48707 48.680363 
L 41.449747 48.315261 
L 41.4964 48.489065 
L 41.521282 47.795765 
L 41.608368 48.227129 
L 41.639471 48.571944 
L 41.686124 48.220756 
L 41.723446 48.453042 
L 41.785651 48.619627 
L 41.745218 48.322305 
L 41.801202 48.362564 
L 41.807422 48.205318 
L 41.844745 48.687733 
L 41.91006 48.340866 
L 42.018917 48.679007 
L 42.028248 48.523749 
L 42.137106 48.26784 
L 42.034468 48.580455 
L 42.152657 48.395391 
L 42.20242 48.669163 
L 42.255294 48.258573 
L 42.261515 48.327043 
L 42.326829 48.637632 
L 42.361042 48.284543 
L 42.385923 48.474163 
L 42.445018 48.664258 
L 42.457458 48.462887 
L 42.513442 48.305613 
L 42.541434 48.605173 
L 42.566316 48.401932 
L 42.634741 48.685476 
L 42.659623 48.346656 
L 42.678284 48.508747 
L 42.740488 48.614867 
L 42.75604 48.220912 
L 42.790252 48.589659 
L 42.914661 48.017193 
L 42.796472 48.656425 
L 42.917771 48.161575 
L 43.060841 48.654549 
L 42.942653 48.149711 
L 43.073282 48.40464 
L 43.147927 47.994526 
L 43.119935 48.447763 
L 43.18525 48.294497 
L 43.219462 48.644199 
L 43.287887 48.113703 
L 43.297218 48.412261 
L 43.350092 48.66693 
L 43.381194 48.245613 
L 43.393635 48.347937 
L 43.409186 48.053344 
L 43.486941 48.642628 
L 43.502492 48.403848 
L 43.521154 48.662975 
L 43.555366 48.31519 
L 43.61135 48.37831 
L 43.679775 47.839278 
L 43.642452 48.610325 
L 43.720208 48.367438 
L 43.729538 48.627052 
L 43.769971 48.189286 
L 43.810404 48.207438 
L 43.832176 47.897513 
L 43.913041 48.366614 
L 43.990797 48.643435 
L 43.956584 48.229399 
L 44.02812 48.499215 
L 44.03434 48.644673 
L 44.062332 48.28133 
L 44.102765 48.31799 
L 44.115206 48.073722 
L 44.164969 48.652142 
L 44.196071 48.53135 
L 44.199182 48.675751 
L 44.255166 48.18808 
L 44.301819 48.406516 
L 44.31737 48.297264 
L 44.32048 48.325452 
L 44.373354 48.052244 
L 44.416897 48.593411 
L 44.472881 48.609048 
L 44.447999 48.378586 
L 44.485322 48.379015 
L 44.587959 47.978687 
L 44.525755 48.593926 
L 44.60351 48.145001 
L 44.706148 48.493486 
L 44.659494 47.717984 
L 44.715478 48.232562 
L 44.721699 48.269771 
L 44.815005 48.693279 
L 44.833667 48.542983 
L 44.936304 48.020302 
L 44.961186 48.194525 
L 45.054492 48.648085 
L 45.079374 48.389604 
L 45.082484 48.332193 
L 45.098035 48.634393 
L 45.175791 48.614341 
L 45.262877 48.669624 
L 45.213113 48.389386 
L 45.281538 48.57909 
L 45.359294 48.221609 
L 45.393506 48.441001 
L 45.474372 48.678358 
L 45.44327 48.386276 
L 45.508584 48.6585 
L 45.626773 48.027184 
L 45.567678 48.679454 
L 45.629883 48.054372 
L 45.738741 48.664455 
L 45.748071 48.657192 
L 45.779173 48.243655 
L 45.87248 48.564821 
L 45.8787 48.669293 
L 45.900472 48.292649 
L 45.972007 48.417359 
L 45.975117 48.216467 
L 46.034211 48.698665 
L 46.077755 48.491941 
L 46.105747 48.696863 
L 46.161731 48.250657 
L 46.186612 48.450144 
L 46.202163 48.631649 
L 46.264368 48.088392 
L 46.29858 48.548247 
L 46.339013 48.174932 
L 46.360785 48.662783 
L 46.410548 48.424189 
L 46.419879 48.694342 
L 46.513185 48.293938 
L 46.519406 48.437587 
L 46.541177 48.33177 
L 46.547398 48.530863 
L 46.594051 48.539131 
L 46.606492 48.693721 
L 46.684247 48.337155 
L 46.687358 48.358446 
L 46.693578 48.270399 
L 46.771334 48.693381 
L 46.783775 48.557464 
L 46.839758 48.663741 
L 46.811766 48.1383 
L 46.845979 48.388513 
L 46.936175 47.932072 
L 46.951726 48.588334 
L 46.954837 48.641975 
L 47.023261 48.017059 
L 47.026372 48.057884 
L 47.13834 47.762163 
L 47.063694 48.663892 
L 47.14145 47.897366 
L 47.163221 48.210372 
L 47.203654 48.562505 
L 47.259638 48.180894 
L 47.2783 48.464396 
L 47.300071 48.701358 
L 47.337394 47.947836 
L 47.362275 47.989816 
L 47.365386 47.868571 
L 47.412039 48.646375 
L 47.461802 48.355247 
L 47.533338 48.630841 
L 47.471133 48.183896 
L 47.56755 48.353464 
L 47.576881 48.134487 
L 47.645305 48.687162 
L 47.679518 48.331765 
L 47.760384 48.624702 
L 47.744833 48.228632 
L 47.788376 48.338743 
L 47.859911 47.932992 
L 47.813257 48.547738 
L 47.884792 48.396155 
L 47.887903 48.39732 
L 47.968768 48.671297 
L 47.99365 48.190791 
L 48.052744 47.919556 
L 48.083846 48.271857 
L 48.105618 48.081716 
L 48.186484 48.661273 
L 48.254909 48.605778 
L 48.295341 48.106264 
L 48.366877 48.400084 
L 48.385538 48.631013 
L 48.407309 48.285074 
L 48.41353 48.142712 
L 48.500616 48.562503 
L 48.513057 48.437422 
L 48.5566 48.268438 
L 48.575261 48.645686 
L 48.593923 48.544789 
L 48.609474 48.665291 
L 48.677899 48.258349 
L 48.69967 48.477728 
L 48.774315 48.12329 
L 48.740103 48.627959 
L 48.802307 48.581028 
L 48.805418 48.659936 
L 48.848961 48.203919 
L 48.904945 48.455209 
L 48.936047 48.146301 
L 48.967149 48.700897 
L 48.988921 48.516904 
L 48.992031 48.635522 
L 49.044904 48.216736 
L 49.094668 48.366534 
L 49.153762 48.672874 
L 49.209746 48.463179 
L 49.26573 47.97311 
L 49.312383 48.555168 
L 49.343486 48.688475 
L 49.327935 48.410603 
L 49.418131 48.454262 
L 49.464784 48.286245 
L 49.433682 48.686572 
L 49.502107 48.499145 
L 49.595413 48.690598 
L 49.586083 48.398369 
L 49.614075 48.577503 
L 49.617185 48.581277 
L 49.623405 48.498688 
L 49.635846 48.333488 
L 49.676279 48.691541 
L 49.732263 48.551402 
L 49.8349 48.692774 
L 49.82246 48.257515 
L 49.841121 48.517939 
L 49.897105 47.883392 
L 49.918876 48.589295 
L 49.953089 48.464229 
L 50.033954 48.667465 
L 49.97486 48.295375 
L 50.068167 48.64764 
L 50.099269 48.283344 
L 50.11482 48.655469 
L 50.183245 48.390939 
L 50.282772 48.694261 
L 50.298323 48.609683 
L 50.335646 48.34781 
L 50.369858 48.659466 
L 50.407181 48.613768 
L 50.435173 48.65615 
L 50.447614 48.422329 
L 50.475606 48.560546 
L 50.578243 48.176694 
L 50.550251 48.650366 
L 50.587574 48.397507 
L 50.624896 48.691624 
L 50.652888 48.124786 
L 50.702652 48.620444 
L 50.715093 48.674892 
L 50.743085 48.428772 
L 50.82084 48.289008 
L 50.795958 48.58626 
L 50.855053 48.292944 
L 50.904816 48.69049 
L 50.970131 48.541164 
L 51.060327 48.243199 
L 50.988792 48.633881 
L 51.085209 48.40606 
L 51.128752 48.67625 
L 51.153634 48.366146 
L 51.194067 48.446462 
L 51.302924 48.065614 
L 51.256271 48.66169 
L 51.312255 48.291865 
L 51.340247 48.66235 
L 51.402451 48.059477 
L 51.424223 48.362209 
L 51.511309 47.940016 
L 51.464656 48.649124 
L 51.536191 48.302418 
L 51.632608 48.657597 
L 51.66682 48.607213 
L 51.719694 48.078121 
L 51.794339 48.338661 
L 51.819221 48.580855 
L 51.862764 48.178678 
L 51.906307 48.452739 
L 51.909417 48.280607 
L 51.965401 48.66803 
L 52.012054 48.579816 
L 52.09603 48.669274 
L 52.036936 48.304817 
L 52.120912 48.548854 
L 52.127133 48.669298 
L 52.183117 48.304334 
L 52.186227 48.136078 
L 52.23599 48.650888 
L 52.285754 48.6169 
L 52.307525 48.679649 
L 52.363509 48.291058 
L 52.37284 48.054594 
L 52.428824 48.419953 
L 52.484808 48.151322 
L 52.487918 48.152074 
L 52.531461 48.67491 
L 52.602996 48.500887 
L 52.640319 48.167391 
L 52.612327 48.572641 
L 52.696303 48.522734 
L 52.699413 48.684366 
L 52.708744 48.378013 
L 52.805161 48.416885 
L 52.879806 48.673949 
L 52.836263 48.144336 
L 52.917128 48.459868 
L 52.954451 48.221551 
L 52.991774 48.561699 
L 53.025986 48.487906 
L 53.08508 48.20611 
L 53.044647 48.656285 
L 53.159726 48.350704 
L 53.200158 48.561557 
L 53.22193 48.229088 
L 53.274804 48.467344 
L 53.284134 48.141575 
L 53.324567 48.643253 
L 53.392992 48.288198 
L 53.430315 48.633292 
L 53.50807 48.518944 
L 53.607597 48.192919 
L 53.573385 48.650937 
L 53.623148 48.284404 
L 53.666691 48.659918 
L 53.713345 48.093844 
L 53.728896 48.205003 
L 53.840864 48.054049 
L 53.753778 48.67225 
L 53.843974 48.103 
L 53.918619 48.668693 
L 53.965273 48.312711 
L 53.968383 48.251349 
L 54.039918 48.687507 
L 54.055469 48.503366 
L 54.058579 48.683593 
L 54.145665 48.369497 
L 54.167437 48.645438 
L 54.2172 48.17386 
L 54.238972 48.667792 
L 54.282515 48.582646 
L 54.288736 48.649099 
L 54.301176 48.486915 
L 54.341609 48.372062 
L 54.400703 48.636409 
L 54.413144 48.466952 
L 54.469128 48.634876 
L 54.441136 48.399018 
L 54.531333 48.590174 
L 54.624639 48.269862 
L 54.553104 48.648693 
L 54.655741 48.437639 
L 54.717946 48.674676 
L 54.699285 48.38403 
L 54.767709 48.517516 
L 54.808142 48.267524 
L 54.792591 48.694376 
L 54.873457 48.572755 
L 54.876567 48.611369 
L 54.941882 48.221685 
L 54.966763 48.385944 
L 55.035188 48.314756 
L 54.994755 48.693343 
L 55.047629 48.439007 
L 55.088062 48.704194 
L 55.072511 48.391384 
L 55.162707 48.653197 
L 55.172038 48.543374 
L 55.240463 48.255915 
L 55.19692 48.64964 
L 55.293337 48.38869 
L 55.349321 48.695005 
L 55.408415 48.651069 
L 55.420856 48.699242 
L 55.464399 48.355123 
L 55.507942 48.607863 
L 55.604359 48.350342 
L 55.563926 48.63452 
L 55.61991 48.57861 
L 55.62613 48.429522 
L 55.660343 48.667844 
L 55.731878 48.539514 
L 55.806523 48.682012 
L 55.818964 48.297612 
L 55.822074 48.303719 
L 55.921601 47.988071 
L 55.853176 48.588102 
L 55.940262 48.194663 
L 56.033569 48.660552 
L 56.05534 48.593216 
L 56.120655 48.686319 
L 56.173529 48.346564 
L 56.291717 48.661667 
L 56.19219 48.069223 
L 56.294827 48.650378 
L 56.338371 48.227986 
L 56.406795 48.537086 
L 56.481441 48.662467 
L 56.444118 48.217184 
L 56.509433 48.46941 
L 56.515653 48.33544 
L 56.590298 48.665282 
L 56.61518 48.52393 
L 56.649393 48.589136 
L 56.702266 48.270901 
L 56.705376 48.271505 
L 56.708487 48.171429 
L 56.711597 48.139236 
L 56.75514 48.627782 
L 56.783132 48.432399 
L 56.798683 48.627816 
L 56.854667 48.282771 
L 56.89199 48.395332 
L 56.913761 48.1348 
L 56.89821 48.398775 
L 56.979076 48.383479 
L 57.047501 48.640965 
L 57.087934 48.313491 
L 57.100374 48.092788 
L 57.162579 48.644876 
L 57.187461 48.574634 
L 57.224783 48.650607 
L 57.206122 48.44437 
L 57.271437 48.601636 
L 57.293208 48.302034 
L 57.361633 48.695773 
L 57.383404 48.535316 
L 57.476711 48.688493 
L 57.417617 48.241355 
L 57.495372 48.635288 
L 57.591789 48.257286 
L 57.573128 48.647492 
L 57.610451 48.378724 
L 57.641553 48.494293 
L 57.675765 47.955589 
L 57.716198 48.371723 
L 57.719308 48.219737 
L 57.778402 48.631221 
L 57.821945 48.515535 
L 57.896591 48.256511 
L 57.831276 48.651523 
L 57.927693 48.485852 
L 57.943244 48.619503 
L 58.017889 48.151026 
L 58.021 48.053145 
L 58.083204 48.584618 
L 58.111196 48.560369 
L 58.204503 48.676853 
L 58.17029 48.405919 
L 58.223164 48.638889 
L 58.272927 48.250371 
L 58.251156 48.682059 
L 58.335132 48.625701 
L 58.443989 48.376835 
L 58.428438 48.699701 
L 58.45332 48.505693 
L 58.506194 48.68157 
L 58.518635 48.36047 
L 58.568398 48.586077 
L 58.5995 48.300241 
L 58.649264 48.660576 
L 58.680366 48.462362 
L 58.73946 48.650682 
L 58.751901 48.322829 
L 58.786114 48.45248 
L 58.798555 48.162597 
L 58.87009 48.662834 
L 58.891861 48.545001 
L 59.000719 48.687459 
L 58.919853 48.418749 
L 59.006939 48.560614 
L 59.090915 48.309767 
L 59.034931 48.581202 
L 59.125128 48.35384 
L 59.221545 48.679693 
L 59.171781 48.286507 
L 59.249536 48.583535 
L 59.283749 48.657477 
L 59.280639 48.486995 
L 59.29308 48.513254 
L 59.339733 48.400867 
L 59.367725 48.673469 
L 59.398827 48.491129 
L 59.414378 48.688113 
L 59.461031 48.285083 
L 59.507685 48.441745 
L 59.541897 48.636395 
L 59.513905 48.382258 
L 59.619653 48.476969 
L 59.622763 48.363575 
L 59.656975 48.675939 
L 59.72851 48.55661 
L 59.828037 48.220159 
L 59.781384 48.690882 
L 59.840478 48.483339 
L 59.952446 48.657547 
L 59.86847 48.352756 
L 59.955556 48.588533 
L 60.061304 48.316893 
L 59.967997 48.615039 
L 60.076855 48.450308 
L 60.095516 48.684614 
L 60.163941 48.428648 
L 60.185713 48.502288 
L 60.213705 48.314168 
L 60.247917 48.681267 
L 60.297681 48.430188 
L 60.400318 48.639587 
L 60.328783 48.27308 
L 60.412759 48.529415 
L 60.440751 48.67515 
L 60.549608 48.00592 
L 60.599372 48.631117 
L 60.674017 48.331147 
L 60.70823 48.252202 
L 60.720671 48.668605 
L 60.754883 48.505507 
L 60.823308 48.17941 
L 60.869961 48.689218 
L 60.960158 48.211404 
L 61.013031 48.412424 
L 61.028582 48.654584 
L 61.047244 48.311233 
L 61.112558 48.443138 
L 61.118779 48.234862 
L 61.162322 48.619169 
L 61.221416 48.55644 
L 61.27429 48.633149 
L 61.296061 48.205373 
L 61.302282 48.18021 
L 61.308502 48.314333 
L 61.311612 48.250636 
L 61.364486 48.638918 
L 61.42358 48.464114 
L 61.432911 48.290499 
L 61.436021 48.117394 
L 61.473344 48.569254 
L 61.541769 48.316374 
L 61.591532 48.276042 
L 61.582202 48.567368 
L 61.622634 48.504031 
L 61.635075 48.679876 
L 61.691059 48.144835 
L 61.719051 48.418731 
L 61.743933 48.330925 
L 61.784366 48.677189 
L 61.821688 48.526873 
L 61.896334 48.697903 
L 61.865232 48.369375 
L 61.949207 48.681275 
L 61.98342 48.414359 
L 62.067396 48.607409 
L 62.073616 48.693168 
L 62.1296 48.276474 
L 62.166923 48.43175 
L 62.198025 48.135122 
L 62.232238 48.465728 
L 62.282001 48.296303 
L 62.397079 48.659858 
L 62.378418 48.081719 
L 62.40952 48.559554 
L 62.41263 48.408271 
L 62.502827 48.67501 
L 62.521488 48.51025 
L 62.627235 48.67342 
L 62.611684 48.463679 
L 62.636566 48.669909 
L 62.757865 48.140443 
L 62.807628 48.655334 
L 62.872943 48.39063 
L 62.966249 48.222095 
L 62.916486 48.686025 
L 62.981801 48.353517 
L 63.034674 48.654863 
L 63.059556 48.170359 
L 63.096879 48.592142 
L 63.137312 48.345404 
L 63.149752 48.671021 
L 63.208847 48.524535 
L 63.283492 48.672099 
L 63.302153 48.408506 
L 63.308374 48.465044 
L 63.376798 48.68266 
L 63.429672 48.230194 
L 63.460774 48.636128 
L 63.53542 48.189704 
L 63.557191 48.591354 
L 63.638057 48.424909 
L 63.656718 48.643526 
L 63.669159 48.495628 
L 63.68471 48.418845 
L 63.725143 48.698759 
L 63.765576 48.614709 
L 63.768686 48.681716 
L 63.809119 48.27934 
L 63.868213 48.561759 
L 63.952189 48.360922 
L 63.908646 48.678101 
L 63.977071 48.594874 
L 64.051716 48.69094 
L 64.005063 48.398169 
L 64.085929 48.591539 
L 64.151243 48.614384 
L 64.138802 48.365508 
L 64.163684 48.511437 
L 64.169905 48.342727 
L 64.219668 48.704366 
L 64.269432 48.625286 
L 64.3814 48.335968 
L 64.312975 48.693885 
L 64.38762 48.504115 
L 64.412502 48.427083 
L 64.477816 48.691626 
L 64.487147 48.550916 
L 64.502698 48.646251 
L 64.546241 48.321526 
L 64.596005 48.533565 
L 64.627107 48.402035 
L 64.686201 48.667977 
L 64.698642 48.647137 
L 64.701752 48.697178 
L 64.748406 48.413267 
L 64.791949 48.565318 
L 64.798169 48.285842 
L 64.882145 48.661605 
L 64.900806 48.439507 
L 65.012774 48.634398 
L 64.997223 48.263742 
L 65.015884 48.573813 
L 65.065648 48.653588 
L 65.022105 48.534099 
L 65.081199 48.489065 
L 65.127852 48.214619 
L 65.158955 48.524456 
L 65.193167 48.469627 
L 65.214939 48.592606 
L 65.221159 48.376507 
L 65.224269 48.399694 
L 65.277143 48.190837 
L 65.246041 48.463697 
L 65.333127 48.382604 
L 65.361119 48.613016 
L 65.407772 48.226547 
L 65.445095 48.484649 
L 65.485528 48.692933 
L 65.497969 48.3675 
L 65.553953 48.506625 
L 65.563283 48.09931 
L 65.634818 48.647688 
L 65.66592 48.475953 
L 65.712574 48.259865 
L 65.756117 48.574335 
L 65.777888 48.419404 
L 65.812101 48.667523 
L 65.852534 48.307161 
L 65.899187 48.470194 
L 65.970722 48.29978 
L 65.924069 48.6577 
L 66.008045 48.414482 
L 66.057808 48.690507 
L 66.029816 48.323453 
L 66.123123 48.590705 
L 66.172886 48.20981 
L 66.197768 48.627667 
L 66.250642 48.340091 
L 66.343948 48.595555 
L 66.256862 48.277709 
L 66.356389 48.415608 
L 66.443475 48.259281 
L 66.37194 48.669188 
L 66.465247 48.366026 
L 66.518121 48.677753 
L 66.580325 48.484426 
L 66.64875 48.306236 
L 66.617648 48.607659 
L 66.682962 48.479338 
L 66.763828 48.392833 
L 66.79493 48.663302 
L 66.854025 48.249052 
L 66.872686 48.679649 
L 66.913119 48.434017 
L 66.965992 48.481342 
L 66.953552 48.153939 
L 66.990874 48.29244 
L 67.056189 48.562675 
L 67.102842 48.071248 
L 67.165047 48.552878 
L 67.22103 48.457197 
L 67.245912 48.65506 
L 67.314337 48.378384 
L 67.329888 48.47987 
L 67.398313 48.277262 
L 67.370321 48.602909 
L 67.435636 48.586963 
L 67.463628 48.381135 
L 67.472958 48.69106 
L 67.516501 48.60981 
L 67.519612 48.683998 
L 67.553824 48.262846 
L 67.625359 48.5674 
L 67.659572 48.660441 
L 67.690674 48.37312 
L 67.740437 48.652515 
L 67.78087 48.34103 
L 67.755988 48.663224 
L 67.852405 48.454055 
L 67.911499 48.68237 
L 67.945712 48.31977 
L 67.964373 48.575203 
L 68.054569 48.32794 
L 67.979924 48.666101 
L 68.073231 48.457321 
L 68.076341 48.64747 
L 68.126105 48.4088 
L 68.185199 48.560175 
L 68.290946 48.28619 
L 68.256734 48.682669 
L 68.303387 48.404783 
L 68.415355 48.681447 
L 68.365591 48.243393 
L 68.424686 48.62483 
L 68.521102 48.454138 
L 68.530433 48.692557 
L 68.536654 48.566585 
L 68.63307 48.690801 
L 68.577086 48.464965 
L 68.648621 48.601016 
L 68.745038 48.378147 
L 68.698385 48.640674 
L 68.760589 48.581726 
L 68.779251 48.365971 
L 68.835235 48.695094 
L 68.869447 48.546652 
L 68.919211 48.654538 
L 68.959643 48.399404 
L 68.972084 48.459405 
L 69.031179 48.400745 
L 68.990746 48.613809 
L 69.059171 48.527113 
L 69.062281 48.68945 
L 69.096493 48.365604 
L 69.171138 48.574129 
L 69.211571 48.650792 
L 69.239563 48.449215 
L 69.264445 48.493385 
L 69.33909 48.41109 
L 69.273776 48.693078 
L 69.373303 48.477053 
L 69.441728 48.675508 
L 69.47905 48.348285 
L 69.556806 48.690589 
L 69.609679 48.554754 
L 69.665663 48.203339 
L 69.724758 48.31429 
L 69.818064 48.662156 
L 69.852277 48.444758 
L 69.883379 48.180594 
L 69.908261 48.651918 
L 69.951804 48.609323 
L 69.958024 48.625031 
L 69.964245 48.432625 
L 69.992237 48.143063 
L 70.069992 48.554946 
L 70.082433 48.679672 
L 70.125976 48.273067 
L 70.166409 48.456081 
L 70.17574 48.230734 
L 70.262826 48.675079 
L 70.269046 48.529706 
L 70.272156 48.651146 
L 70.331251 48.248519 
L 70.377904 48.502592 
L 70.433888 48.136273 
L 70.387234 48.524701 
L 70.474321 48.466287 
L 70.486762 48.695968 
L 70.573848 48.150182 
L 70.580068 48.301184 
L 70.583178 48.291237 
L 70.60184 48.586864 
L 70.642273 48.681586 
L 70.688926 48.397875 
L 70.695146 48.498213 
L 70.701367 48.373809 
L 70.720028 48.697537 
L 70.804004 48.445721 
L 70.835106 48.688798 
L 70.88798 48.436049 
L 70.912862 48.530094 
L 71.018609 48.317492 
L 70.996838 48.644075 
L 71.02483 48.337699 
L 71.046601 48.687072 
L 71.074593 48.332835 
L 71.136798 48.528229 
L 71.189671 48.352964 
L 71.202112 48.663046 
L 71.245655 48.571844 
L 71.332741 48.665089 
L 71.320301 48.382478 
L 71.345182 48.533187 
L 71.363844 48.409681 
L 71.401166 48.677011 
L 71.45404 48.512869 
L 71.559787 48.652042 
L 71.541126 48.379395 
L 71.566008 48.597278 
L 71.575339 48.679959 
L 71.612661 48.398525 
L 71.615771 48.426781 
L 71.618882 48.307514 
L 71.715298 48.662127 
L 71.724629 48.508673 
L 71.796164 48.665757 
L 71.824156 48.353418 
L 71.861479 48.288354 
L 71.88014 48.609223 
L 71.914353 48.418119 
L 71.917463 48.653355 
L 71.982777 48.153671 
L 72.02632 48.511625 
L 72.125848 48.698347 
L 72.135178 48.486899 
L 72.141399 48.622027 
L 72.175611 48.687005 
L 72.194272 48.402953 
L 72.244036 48.579725 
L 72.337342 48.323938 
L 72.29691 48.691081 
L 72.349783 48.610517 
L 72.352894 48.679254 
L 72.399547 48.269914 
L 72.455531 48.549414 
L 72.486633 48.22135 
L 72.551948 48.59706 
L 72.570609 48.558868 
L 72.57994 48.661274 
L 72.58616 48.467433 
L 72.676356 48.416791 
L 72.642144 48.695793 
L 72.685687 48.510098 
L 72.707459 48.683599 
L 72.788324 48.28857 
L 72.791435 48.272766 
L 72.816316 48.688472 
L 72.834978 48.546275 
L 72.847419 48.699668 
L 72.887851 48.474959 
L 72.946946 48.573303 
L 72.984268 48.678366 
L 73.046473 48.38571 
L 73.049583 48.457402 
L 73.090016 48.696028 
L 73.121118 48.382778 
L 73.133559 48.384287 
L 73.136669 48.34802 
L 73.180212 48.670385 
L 73.229976 48.531196 
L 73.326392 48.698811 
L 73.245527 48.498696 
L 73.341944 48.559304 
L 73.373046 48.415874 
L 73.360605 48.674186 
L 73.447691 48.536657 
L 73.475683 48.694605 
L 73.500565 48.468651 
L 73.559659 48.581205 
L 73.57521 48.404454 
L 73.606312 48.673327 
L 73.671627 48.460689 
L 73.677847 48.673202 
L 73.705839 48.370777 
L 73.783595 48.523042 
L 73.792925 48.470306 
L 73.830248 48.681154 
L 73.873791 48.61459 
L 73.876901 48.673149 
L 73.904893 48.279515 
L 73.979539 48.5369 
L 74.085286 48.402483 
L 74.069735 48.69031 
L 74.088396 48.514701 
L 74.14438 48.67358 
L 74.178593 48.293367 
L 74.197254 48.502654 
L 74.215915 48.673724 
L 74.253238 48.454265 
L 74.306112 48.575092 
L 74.312332 48.467264 
L 74.368316 48.657472 
L 74.41808 48.494024 
L 74.517607 48.688471 
L 74.446072 48.381378 
L 74.530048 48.607374 
L 74.551819 48.331249 
L 74.626464 48.64193 
L 74.638905 48.597654 
L 74.722881 48.660221 
L 74.719771 48.410715 
L 74.729102 48.603197 
L 74.785086 48.31077 
L 74.803747 48.687402 
L 74.837959 48.55345 
L 74.84729 48.690745 
L 74.878392 48.428737 
L 74.953038 48.678136 
L 75.040124 48.14052 
L 75.071226 48.410858 
L 75.1241 48.218935 
L 75.189414 48.675404 
L 75.201855 48.230261 
L 75.27028 48.688876 
L 75.304492 48.332901 
L 75.354256 48.636163 
L 75.323154 48.274631 
L 75.41024 48.401577 
L 75.450673 48.192071 
L 75.497326 48.668534 
L 75.512877 48.561736 
L 75.587522 48.682163 
L 75.562641 48.274006 
L 75.618625 48.494626 
L 75.668388 48.335459 
L 75.687049 48.624887 
L 75.711931 48.606835 
L 75.805238 48.676864 
L 75.777246 48.363039 
L 75.823899 48.671152 
L 75.907875 48.274641 
L 75.873663 48.691707 
L 75.938977 48.526553 
L 75.97319 48.63262 
L 76.035394 48.404674 
L 76.044725 48.489171 
L 76.094488 48.34713 
L 76.066496 48.63545 
L 76.150472 48.497078 
L 76.234448 48.680572 
L 76.206456 48.439817 
L 76.25933 48.52355 
L 76.312204 48.372551 
L 76.361967 48.695177 
L 76.365077 48.664752 
L 76.411731 48.318937 
L 76.458384 48.677118 
L 76.489486 48.401549 
L 76.551691 48.285353 
L 76.582793 48.631341 
L 76.585903 48.687442 
L 76.613895 48.300698 
L 76.68854 48.578501 
L 76.694761 48.412454 
L 76.744524 48.67228 
L 76.797398 48.596105 
L 76.8285 48.663906 
L 76.875154 48.290306 
L 76.896925 48.486221 
L 76.990232 48.145537 
L 76.940468 48.606584 
L 77.008893 48.384918 
L 77.099089 48.588332 
L 77.052436 48.253534 
L 77.117751 48.353487 
L 77.164404 48.265793 
L 77.179955 48.659373 
L 77.211057 48.566078 
L 77.229719 48.463701 
L 77.239049 48.648535 
L 77.313695 48.576914 
L 77.38523 48.672066 
L 77.363458 48.344281 
L 77.413222 48.554153 
L 77.472316 48.384263 
L 77.441214 48.675565 
L 77.5283 48.407626 
L 77.643378 48.683456 
L 77.565622 48.187629 
L 77.646488 48.590971 
L 77.649598 48.597608 
L 77.67137 48.426021 
L 77.693141 48.527744 
L 77.696252 48.408338 
L 77.749125 48.663791 
L 77.801999 48.463676 
L 77.910857 48.697873 
L 77.879755 48.38631 
L 77.920187 48.63891 
L 78.029045 48.381437 
L 78.013494 48.680815 
L 78.041486 48.418937 
L 78.057037 48.63422 
L 78.134793 48.372834 
L 78.156564 48.616643 
L 78.268532 48.400103 
L 78.193887 48.650802 
L 78.271642 48.482762 
L 78.355618 48.66893 
L 78.340067 48.346953 
L 78.396051 48.623353 
L 78.464476 48.496553 
L 78.424043 48.665602 
L 78.501799 48.628683 
L 78.504909 48.700958 
L 78.576444 48.383931 
L 78.604436 48.560071 
L 78.607546 48.455307 
L 78.66042 48.690909 
L 78.710183 48.601415 
L 78.747506 48.703795 
L 78.769278 48.397984 
L 78.822151 48.660399 
L 78.924789 48.471607 
L 78.837702 48.692811 
L 78.937229 48.512055 
L 78.962111 48.683754 
L 78.999434 48.394439 
L 79.042977 48.526674 
L 79.046087 48.43465 
L 79.08652 48.684094 
L 79.151835 48.485583 
L 79.179827 48.684998 
L 79.22959 48.446376 
L 79.266913 48.64204 
L 79.37266 48.440759 
L 79.344668 48.693757 
L 79.391322 48.531902 
L 79.478408 48.656591 
L 79.425534 48.472136 
L 79.490849 48.4862 
L 79.493959 48.430304 
L 79.521951 48.692809 
L 79.593486 48.578971 
L 79.602817 48.644367 
L 79.621478 48.413901 
L 79.696123 48.223208 
L 79.661911 48.610512 
L 79.733446 48.359855 
L 79.826752 48.633494 
L 79.770768 48.301253 
L 79.845414 48.54135 
L 79.963602 48.263688 
L 79.898287 48.694991 
L 79.966712 48.281671 
L 80.08179 48.658573 
L 80.088011 48.5932 
L 80.150215 48.291839 
L 80.106672 48.684159 
L 80.203089 48.525756 
L 80.227971 48.100498 
L 80.21242 48.624693 
L 80.318167 48.422363 
L 80.386592 48.699861 
L 80.417694 48.289888 
L 80.427025 48.49627 
L 80.436355 48.345919 
L 80.473678 48.667567 
L 80.538993 48.453682 
L 80.64474 48.40016 
L 80.607418 48.683314 
L 80.64785 48.447189 
L 80.728716 48.628369 
L 80.660291 48.30226 
L 80.753598 48.410912 
L 80.766039 48.391396 
L 80.806472 48.685216 
L 80.840684 48.546141 
L 80.843794 48.671933 
L 80.862456 48.262541 
L 80.952652 48.595497 
L 81.06462 48.399154 
L 81.058399 48.638393 
L 81.073951 48.461892 
L 81.151706 48.697031 
L 81.173478 48.398672 
L 81.185919 48.537503 
L 81.220131 48.448432 
L 81.192139 48.614274 
L 81.245013 48.586314 
L 81.248123 48.640558 
L 81.263674 48.366015 
L 81.35076 48.570771 
L 81.422295 48.429797 
L 81.447177 48.686763 
L 81.456508 48.659768 
L 81.584027 48.454074 
L 81.481389 48.691127 
L 81.599578 48.458786 
L 81.705325 48.632287 
L 81.62446 48.361799 
L 81.711546 48.581244 
L 81.826624 48.329502 
L 81.742648 48.672141 
L 81.829734 48.400994 
L 81.929261 48.672862 
L 81.873277 48.291794 
L 81.957253 48.620919 
L 82.028788 48.380968 
L 82.016347 48.682633 
L 82.069221 48.557872 
L 82.19363 48.698295 
L 82.084772 48.425987 
L 82.19674 48.587964 
L 82.218512 48.685767 
L 82.321149 48.397575 
L 82.364692 48.669649 
L 82.395794 48.322134 
L 82.430007 48.529574 
L 82.436227 48.365118 
L 82.464219 48.664376 
L 82.538864 48.520782 
L 82.644612 48.67754 
L 82.560636 48.451213 
L 82.650832 48.60398 
L 82.666383 48.282965 
L 82.719257 48.642414 
L 82.75658 48.551022 
L 82.865437 48.684597 
L 82.803233 48.371254 
L 82.868548 48.594661 
L 82.877878 48.697751 
L 82.893429 48.541329 
L 82.90898 48.438642 
L 82.968075 48.684577 
L 83.002287 48.536988 
L 83.123586 48.681232 
L 83.020948 48.489054 
L 83.126696 48.676216 
L 83.241774 48.407239 
L 83.279097 48.682128 
L 83.32575 48.334077 
L 83.366183 48.55474 
L 83.459489 48.517367 
L 83.415946 48.685009 
L 83.46882 48.618561 
L 83.496812 48.691212 
L 83.484371 48.443803 
L 83.568347 48.585808 
L 83.674095 48.431225 
L 83.61189 48.681533 
L 83.680315 48.51269 
L 83.698976 48.674691 
L 83.75496 48.437877 
L 83.789173 48.605533 
L 83.798503 48.474354 
L 83.829606 48.677881 
L 83.89803 48.649087 
L 83.969565 48.387612 
L 83.904251 48.655042 
L 84.013109 48.536477 
L 84.041101 48.698542 
L 84.053541 48.417992 
L 84.125076 48.626526 
L 84.140628 48.3738 
L 84.16862 48.693927 
L 84.237044 48.558828 
L 84.336571 48.696316 
L 84.258816 48.448521 
L 84.345902 48.540443 
L 84.377004 48.454791 
L 84.386335 48.671824 
L 84.45165 48.568096 
L 84.557397 48.696632 
L 84.473421 48.409694 
L 84.572948 48.660695 
L 84.588499 48.406001 
L 84.632042 48.687162 
L 84.684916 48.594959 
L 84.778223 48.351892 
L 84.706688 48.681635 
L 84.790664 48.528753 
L 84.834207 48.684201 
L 84.859088 48.440608 
L 84.899521 48.606809 
L 84.952395 48.475513 
L 84.927513 48.668881 
L 85.011489 48.566791 
L 85.045702 48.424195 
L 85.03015 48.680898 
L 85.129678 48.512921 
L 85.16078 48.671154 
L 85.235425 48.385157 
L 85.362944 48.688407 
L 85.415818 48.186648 
L 85.474912 48.522608 
L 85.512235 48.660932 
L 85.537116 48.329309 
L 85.58688 48.610234 
L 85.670856 48.400606 
L 85.642864 48.674989 
L 85.686407 48.564691 
L 85.689517 48.671223 
L 85.767273 48.400551 
L 85.798375 48.627887 
L 85.86991 48.320773 
L 85.804595 48.677472 
L 85.910343 48.51646 
L 85.929004 48.674169 
L 86.0192 48.43658 
L 86.103176 48.66893 
L 86.072074 48.317943 
L 86.146719 48.602611 
L 86.233806 48.407636 
L 86.221365 48.660938 
L 86.261798 48.489234 
L 86.351994 48.634285 
L 86.333333 48.382279 
L 86.370655 48.449239 
L 86.373766 48.318488 
L 86.404868 48.64384 
L 86.476403 48.56206 
L 86.491954 48.474831 
L 86.516836 48.64553 
L 86.569709 48.607251 
L 86.659906 48.684411 
L 86.591481 48.507766 
L 86.681677 48.648176 
L 86.728331 48.444448 
L 86.746992 48.663009 
L 86.799866 48.543677 
L 86.886952 48.352558 
L 86.818527 48.629502 
L 86.899393 48.632623 
L 86.902503 48.670866 
L 86.986479 48.364815 
L 86.989589 48.367399 
L 87.064234 48.365396 
L 87.104667 48.672307 
L 87.126439 48.242414 
L 87.219745 48.421515 
L 87.263288 48.632805 
L 87.303721 48.364164 
L 87.331713 48.605943 
L 87.356595 48.292943 
L 87.393918 48.694958 
L 87.443681 48.51651 
L 87.530767 48.656396 
L 87.481004 48.330732 
L 87.555649 48.539456 
L 87.648956 48.40555 
L 87.630294 48.680472 
L 87.661397 48.584169 
L 87.695609 48.667292 
L 87.71116 48.441189 
L 87.732932 48.504035 
L 87.742262 48.322481 
L 87.820018 48.670923 
L 87.838679 48.479493 
L 87.910214 48.674608 
L 87.953757 48.611886 
L 88.025292 48.431251 
L 87.969308 48.68925 
L 88.059505 48.645012 
L 88.062615 48.646566 
L 88.065725 48.5512 
L 88.075056 48.552049 
L 88.109268 48.37144 
L 88.099938 48.652867 
L 88.180803 48.543643 
L 88.199465 48.700711 
L 88.208795 48.441919 
L 88.289661 48.505648 
L 88.305212 48.395426 
L 88.330094 48.618323 
L 88.398519 48.464181 
L 88.498046 48.697034 
L 88.451393 48.424189 
L 88.510487 48.550113 
L 88.522928 48.411335 
L 88.541589 48.68608 
L 88.600683 48.602811 
L 88.6971 48.676753 
L 88.650447 48.456585 
L 88.706431 48.517498 
L 88.709541 48.516456 
L 88.712651 48.61402 
L 88.721982 48.611826 
L 88.827729 48.68525 
L 88.765525 48.455786 
L 88.83395 48.618817 
L 88.942807 48.449928 
L 88.924146 48.677762 
L 88.945918 48.565822 
L 89.076547 48.682645 
L 88.97702 48.475859 
L 89.095208 48.636167 
L 89.204066 48.549017 
L 89.144972 48.681992 
L 89.207176 48.617146 
L 89.291152 48.504568 
L 89.222727 48.665257 
L 89.309813 48.629725 
L 89.312924 48.694811 
L 89.372018 48.455407 
L 89.415561 48.62752 
L 89.443553 48.461024 
L 89.521308 48.700562 
L 89.524418 48.553225 
L 89.574182 48.693681 
L 89.639497 48.636126 
L 89.658158 48.699123 
L 89.68304 48.498578 
L 89.739024 48.676852 
L 89.788787 48.684256 
L 89.854102 48.450107 
L 89.947408 48.657887 
L 89.922527 48.356479 
L 89.97229 48.603953 
L 90.071817 48.451787 
L 89.987841 48.691108 
L 90.078038 48.475831 
L 90.130911 48.687136 
L 90.158903 48.433603 
L 90.190006 48.540153 
L 90.193116 48.539471 
L 90.196226 48.690058 
L 90.208667 48.487091 
L 90.305084 48.650017 
L 90.342406 48.497093 
L 90.38906 48.699135 
L 90.413941 48.61091 
L 90.516579 48.638806 
L 90.463705 48.384445 
L 90.522799 48.590653 
L 90.560122 48.69492 
L 90.53835 48.439496 
L 90.612995 48.55795 
L 90.715633 48.430997 
L 90.68142 48.69962 
L 90.724963 48.493969 
L 90.774727 48.667186 
L 90.740515 48.299187 
L 90.833821 48.456953 
L 90.908466 48.448712 
L 90.846262 48.648524 
L 90.920907 48.482271 
L 91.014214 48.671251 
L 90.989332 48.358712 
L 91.032875 48.598617 
L 91.09819 48.354333 
L 91.039096 48.653129 
L 91.141733 48.533079 
L 91.144843 48.672125 
L 91.203937 48.479329 
L 91.253701 48.605463 
L 91.272362 48.693209 
L 91.281693 48.485739 
L 91.359448 48.67428 
L 91.396771 48.340453 
L 91.458975 48.686208 
L 91.511849 48.6038 
L 91.577164 48.671423 
L 91.636258 48.448735 
L 91.726454 48.614024 
L 91.707793 48.306001 
L 91.748226 48.507866 
L 91.80421 48.384607 
L 91.853973 48.623853 
L 91.885075 48.674355 
L 91.872635 48.471412 
L 91.95039 48.578843 
L 92.012595 48.500311 
L 92.021925 48.681707 
L 92.062358 48.538307 
L 92.081019 48.684412 
L 92.127673 48.419915 
L 92.155665 48.452544 
L 92.177436 48.424935 
L 92.161885 48.648841 
L 92.220979 48.586583 
L 92.248971 48.656335 
L 92.273853 48.394734 
L 92.329837 48.63685 
L 92.398262 48.347969 
L 92.348498 48.638077 
L 92.441805 48.445542 
L 92.532001 48.668503 
L 92.494679 48.350602 
L 92.556883 48.600419 
L 92.563103 48.693244 
L 92.572434 48.41573 
L 92.665741 48.615117 
L 92.706174 48.454064 
L 92.727945 48.676319 
L 92.774598 48.521664 
L 92.855464 48.675709 
L 92.808811 48.401959 
L 92.886566 48.576865 
L 92.967432 48.359003 
L 92.895897 48.677584 
L 93.001644 48.44764 
L 93.113612 48.68148 
L 93.116723 48.593216 
L 93.182037 48.360271 
L 93.132274 48.651796 
L 93.22558 48.6207 
L 93.238021 48.681854 
L 93.262903 48.414301 
L 93.331328 48.620137 
L 93.418414 48.502118 
L 93.402863 48.694418 
L 93.440186 48.569644 
L 93.480618 48.679141 
L 93.542823 48.456368 
L 93.545933 48.521669 
L 93.555264 48.478358 
L 93.580145 48.673063 
L 93.64546 48.643031 
L 93.695224 48.67249 
L 93.713885 48.295396 
L 93.741877 48.611958 
L 93.800971 48.671258 
L 93.853845 48.413073 
L 93.953372 48.670778 
L 93.916049 48.379742 
L 93.972033 48.571678 
L 94.015576 48.478995 
L 94.040458 48.694324 
L 94.077781 48.640825 
L 94.161757 48.677628 
L 94.108883 48.533956 
L 94.171087 48.56682 
L 94.217741 48.461907 
L 94.183528 48.690688 
L 94.279945 48.629634 
L 94.298606 48.694154 
L 94.35459 48.389487 
L 94.391913 48.62966 
L 94.451007 48.68193 
L 94.475889 48.532931 
L 94.49144 48.631653 
L 94.597187 48.422144 
L 94.519432 48.688011 
L 94.603408 48.559007 
L 94.662502 48.686687 
L 94.693604 48.496336 
L 94.696714 48.567707 
L 94.699825 48.409226 
L 94.702935 48.514469 
" clip-path="url(#p90631110ff)" style="fill: none; stroke: #9467bd; stroke-width: 0.5; stroke-linecap: square"/>
   </g>
  </g>
 </g>
 <defs>
  <clipPath id="p90631110ff">
   <rect x="0" y="-0" width="99.212598" height="51.023622"/>
  </clipPath>
 </defs>
</svg>
