<?xml version="1.0" encoding="utf-8" standalone="no"?>
<!DOCTYPE svg PUBLIC "-//W3C//DTD SVG 1.1//EN"
  "http://www.w3.org/Graphics/SVG/1.1/DTD/svg11.dtd">
<svg xmlns:xlink="http://www.w3.org/1999/xlink" width="99.212598pt" height="51.023622pt" viewBox="0 0 99.212598 51.023622" xmlns="http://www.w3.org/2000/svg" version="1.1">
 <metadata>
  <rdf:RDF xmlns:dc="http://purl.org/dc/elements/1.1/" xmlns:cc="http://creativecommons.org/ns#" xmlns:rdf="http://www.w3.org/1999/02/22-rdf-syntax-ns#">
   <cc:Work>
    <dc:type rdf:resource="http://purl.org/dc/dcmitype/StillImage"/>
    <dc:date>2024-10-30T10:51:14.998865</dc:date>
    <dc:format>image/svg+xml</dc:format>
    <dc:creator>
     <cc:Agent>
      <dc:title>Matplotlib v3.8.4, https://matplotlib.org/</dc:title>
     </cc:Agent>
    </dc:creator>
   </cc:Work>
  </rdf:RDF>
 </metadata>
 <defs>
  <style type="text/css">*{stroke-linejoin: round; stroke-linecap: butt}</style>
 </defs>
 <g id="figure_1">
  <g id="patch_1">
   <path d="M 0 51.023622 
L 99.212598 51.023622 
L 99.212598 0 
L 0 0 
L 0 51.023622 
z
" style="fill: none"/>
  </g>
  <g id="axes_1">
   <g id="patch_2">
    <path d="M 0 51.023622 
L 99.212598 51.023622 
L 99.212598 -0 
L 0 -0 
L 0 51.023622 
z
" style="fill: none"/>
   </g>
   <g id="matplotlib.axis_1">
    <g id="xtick_1"/>
    <g id="xtick_2"/>
   </g>
   <g id="matplotlib.axis_2">
    <g id="ytick_1"/>
    <g id="ytick_2"/>
   </g>
   <g id="line2d_1">
    <path d="M 4.509664 4.762872 
L 4.571868 8.476993 
L 4.621631 6.073827 
L 4.668285 2.319256 
L 4.714938 7.50119 
L 4.770922 24.845539 
L 4.820686 7.212664 
L 4.842457 3.26875 
L 4.88911 19.664374 
L 4.997968 33.58119 
L 5.016629 30.034732 
L 5.057062 22.586042 
L 5.134818 27.803458 
L 5.206353 23.140943 
L 5.249896 27.389648 
L 5.383635 46.785802 
L 5.424068 36.302612 
L 5.439619 34.290287 
L 5.495603 42.366632 
L 5.59513 44.181513 
L 5.536036 41.92828 
L 5.613792 43.71676 
L 5.73198 38.239049 
L 5.654225 44.042417 
L 5.766192 40.213521 
L 5.772413 40.673282 
L 5.825287 36.187811 
L 5.840838 35.193769 
L 5.87194 40.344396 
L 5.893711 47.465056 
L 5.965247 36.14965 
L 5.980798 35.262631 
L 6.01812 39.675504 
L 6.049222 46.623101 
L 6.111427 36.924946 
L 6.133198 34.19787 
L 6.192293 43.225613 
L 6.245166 48.124816 
L 6.29493 42.593703 
L 6.29804 42.725493 
L 6.335363 44.93021 
L 6.419339 43.381159 
L 6.490874 40.545257 
L 6.540637 42.272039 
L 6.686818 47.274512 
L 6.702369 46.769666 
L 6.749022 44.997481 
L 6.780124 46.898493 
L 6.826778 45.927182 
L 6.957407 48.68168 
L 6.963627 48.144504 
L 7.013391 46.263071 
L 7.075595 47.966272 
L 7.181343 47.249788 
L 7.14713 48.000566 
L 7.196894 47.671016 
L 7.212445 48.435093 
L 7.28087 44.839297 
L 7.28709 44.61865 
L 7.315082 47.446802 
L 7.321302 48.017949 
L 7.380397 45.803854 
L 7.414609 46.429857 
L 7.542128 43.648223 
L 7.458152 46.472101 
L 7.557679 44.469902 
L 7.626104 48.438858 
L 7.685198 45.825563 
L 7.722521 43.300359 
L 7.769174 46.676046 
L 7.818938 48.632887 
L 7.902914 47.723337 
L 7.99622 45.511838 
L 7.955787 47.93139 
L 8.030433 46.7808 
L 8.111298 48.441361 
L 8.077086 46.599014 
L 8.13929 46.691071 
L 8.164172 45.754526 
L 8.229487 48.074666 
L 8.238817 48.647245 
L 8.313463 46.762967 
L 8.335234 47.772923 
L 8.350785 48.086056 
L 8.394328 46.938681 
L 8.481415 45.933533 
L 8.428541 48.336551 
L 8.503186 46.93997 
L 8.518737 47.956356 
L 8.590272 45.161154 
L 8.602713 45.166461 
L 8.605823 45.113315 
L 8.640036 46.258668 
L 8.643146 46.242404 
L 8.748893 47.831398 
L 8.686689 45.766615 
L 8.779996 47.230356 
L 8.929286 48.388983 
L 8.854641 47.011901 
L 8.935507 48.066748 
L 9.028813 46.692279 
L 9.003932 48.564921 
L 9.050585 47.600762 
L 9.137671 48.460017 
L 9.084797 45.920399 
L 9.162553 47.696248 
L 9.246529 46.56381 
L 9.199875 48.590253 
L 9.27141 47.549116 
L 9.324284 48.344649 
L 9.355386 46.890116 
L 9.386489 48.036576 
L 9.389599 48.041128 
L 9.507787 45.299229 
L 9.529559 46.062122 
L 9.591763 48.569275 
L 9.650857 47.01403 
L 9.657078 46.32824 
L 9.713062 48.584393 
L 9.753495 48.117632 
L 9.765935 47.662614 
L 9.769046 47.756152 
L 9.797038 47.383466 
L 9.82814 48.552119 
L 9.868573 48.251006 
L 9.871683 48.311298 
L 9.909006 47.571163 
L 9.961879 47.960005 
L 10.030304 48.358776 
L 10.089398 47.390849 
L 10.192036 48.475026 
L 10.145382 47.241346 
L 10.204476 47.708908 
L 10.313334 45.751399 
L 10.263571 48.209901 
L 10.325775 46.679887 
L 10.422192 48.264734 
L 10.447074 47.836236 
L 10.527939 48.417417 
L 10.490617 47.213633 
L 10.552821 47.716917 
L 10.646128 46.39294 
L 10.587034 47.852311 
L 10.667899 47.263526 
L 10.67412 47.816132 
L 10.699001 46.599437 
L 10.776757 47.35947 
L 10.795418 47.579232 
L 10.782977 47.159546 
L 10.801639 47.560512 
L 10.873174 48.4149 
L 10.922937 48.177673 
L 10.95715 47.455137 
L 11.028685 48.39146 
L 11.034905 48.09287 
L 11.041126 48.161131 
L 11.087779 47.627271 
L 11.115771 47.994928 
L 11.205967 47.278342 
L 11.177975 48.0136 
L 11.230849 47.694612 
L 11.261951 48.401276 
L 11.277502 47.352511 
L 11.333486 47.406619 
L 11.349037 46.941516 
L 11.373919 48.6005 
L 11.433013 47.958365 
L 11.467226 48.391729 
L 11.488997 47.29087 
L 11.53254 47.685704 
L 11.563643 46.62233 
L 11.632067 48.22423 
L 11.638288 48.616229 
L 11.678721 47.287293 
L 11.728484 47.492734 
L 11.818681 46.82879 
L 11.778248 48.622624 
L 11.840452 47.303765 
L 11.887106 48.545552 
L 11.974192 48.239865 
L 12.09238 47.673285 
L 12.011514 48.418197 
L 12.0986 47.732102 
L 12.188797 48.569804 
L 12.142144 47.689972 
L 12.204348 47.861013 
L 12.213679 47.361098 
L 12.278993 48.47983 
L 12.306985 48.149151 
L 12.390961 48.586969 
L 12.359859 47.0996 
L 12.415843 48.176804 
L 12.50915 47.213914 
L 12.462496 48.617692 
L 12.537142 47.499418 
L 12.562023 47.765866 
L 12.596236 46.878815 
L 12.605566 46.436597 
L 12.667771 48.565362 
L 12.689542 47.847153 
L 12.79218 48.195185 
L 12.745526 46.900407 
L 12.80151 48.08315 
L 12.832612 46.681111 
L 12.863715 48.505858 
L 12.910368 48.096433 
L 12.913478 48.09989 
L 12.916588 47.948126 
L 12.994344 46.231965 
L 13.025446 47.848499 
L 13.050328 48.5913 
L 13.08143 47.724719 
L 13.140524 48.099358 
L 13.205839 47.712935 
L 13.168516 48.587408 
L 13.246272 48.386957 
L 13.258713 48.637716 
L 13.333358 47.899016 
L 13.420444 47.605682 
L 13.476428 48.541212 
L 13.538632 47.42518 
L 13.597727 48.090393 
L 13.607057 47.889569 
L 13.625719 48.409641 
L 13.694143 48.609485 
L 13.6506 47.609811 
L 13.709694 47.802566 
L 13.712805 47.665867 
L 13.803001 48.522426 
L 13.806111 48.591613 
L 13.871426 47.580784 
L 13.946071 47.112854 
L 13.908749 48.362375 
L 13.986504 47.374218 
L 14.008276 46.501716 
L 14.033157 47.646567 
L 14.132684 48.59577 
L 14.148236 48.113761 
L 14.20733 46.420866 
L 14.266424 47.626932 
L 14.34729 48.390142 
L 14.387722 47.912071 
L 14.437486 47.604648 
L 14.409494 48.577626 
L 14.502801 47.750812 
L 14.512131 47.687776 
L 14.552564 48.590276 
L 14.561895 48.42404 
L 14.568115 48.532973 
L 14.63343 47.316037 
L 14.63654 47.039076 
L 14.673863 48.628037 
L 14.732957 48.114183 
L 14.760949 47.400401 
L 14.78272 48.444989 
L 14.854255 47.923129 
L 14.932011 48.634447 
L 14.869807 47.81476 
L 14.963113 47.965575 
L 15.037758 47.573401 
L 15.000436 48.487551 
L 15.075081 47.831318 
L 15.087522 47.935692 
L 15.109294 47.58602 
L 15.155947 47.071661 
L 15.193269 48.50389 
L 15.20571 48.263379 
L 15.211931 48.131316 
L 15.218151 48.302212 
L 15.267915 47.65053 
L 15.330119 48.114236 
L 15.445197 48.668166 
L 15.370552 47.501856 
L 15.448307 48.463902 
L 15.535394 45.964094 
L 15.566496 47.452395 
L 15.694015 48.641894 
L 15.591378 47.158891 
L 15.703346 48.628084 
L 15.749999 47.763439 
L 15.815313 48.310248 
L 15.840195 48.568361 
L 15.861967 47.807565 
L 15.91484 47.916017 
L 15.921061 47.711266 
L 15.939722 48.230424 
L 15.945943 48.214185 
L 15.952163 48.484446 
L 15.989486 47.786876 
L 16.04547 47.838257 
L 16.101454 47.329005 
L 16.148107 48.089391 
L 16.151217 48.077034 
L 16.176099 47.599268 
L 16.228973 48.645025 
L 16.250744 48.258153 
L 16.322279 48.650348 
L 16.340941 47.655891 
L 16.356492 48.025878 
L 16.456019 47.51809 
L 16.384484 48.55723 
L 16.47468 47.71967 
L 16.502672 48.481603 
L 16.574207 47.206646 
L 16.577317 47.488166 
L 16.664404 46.657232 
L 16.639522 48.075591 
L 16.686175 47.477949 
L 16.801253 48.66671 
L 16.807474 48.509254 
L 16.841686 48.692629 
L 16.934993 47.539076 
L 16.938103 47.537856 
L 17.056291 48.233999 
L 17.015858 47.31182 
L 17.059401 48.205797 
L 17.074953 47.884552 
L 17.106055 48.674687 
L 17.168259 48.300241 
L 17.277117 47.749298 
L 17.255345 48.530126 
L 17.286448 48.141583 
L 17.32066 48.540917 
L 17.367313 47.79281 
L 17.395305 48.207494 
L 17.476171 48.082964 
L 17.46062 48.623766 
L 17.501053 48.412762 
L 17.578808 48.533227 
L 17.550816 47.603162 
L 17.594359 48.080025 
L 17.622351 47.290203 
L 17.669005 48.633375 
L 17.703217 48.012225 
L 17.74365 48.604432 
L 17.799634 47.617211 
L 17.840067 47.44126 
L 17.861838 48.082298 
L 17.88361 47.974177 
L 17.964476 48.457141 
L 17.914712 47.59799 
L 17.995578 48.213786 
L 18.008019 48.186965 
L 18.067113 47.33298 
L 18.098215 48.596209 
L 18.119987 47.846159 
L 18.132427 47.928019 
L 18.213293 48.533153 
L 18.197742 47.921307 
L 18.247506 48.216576 
L 18.31593 48.458959 
L 18.359473 47.937321 
L 18.412347 48.601662 
L 18.378135 47.607389 
L 18.480772 48.348853 
L 18.524315 47.658909 
L 18.574079 48.6266 
L 18.59585 48.049276 
L 18.611401 47.644689 
L 18.633173 48.472747 
L 18.695377 48.240778 
L 18.791794 48.630355 
L 18.766912 47.924214 
L 18.813566 48.516436 
L 18.841558 47.987525 
L 18.925534 48.334984 
L 19.046832 47.991523 
L 18.978407 48.478272 
L 19.053053 48.174457 
L 19.124588 48.640513 
L 19.102816 47.732912 
L 19.146359 47.946739 
L 19.221004 47.592296 
L 19.202343 48.353347 
L 19.248996 48.173796 
L 19.255217 48.143386 
L 19.258327 48.305513 
L 19.308091 48.619473 
L 19.342303 48.00206 
L 19.367185 48.271253 
L 19.44494 47.911288 
L 19.395177 48.435747 
L 19.476042 48.220435 
L 19.513365 47.476164 
L 19.494704 48.575548 
L 19.550688 48.396743 
L 19.556908 48.608393 
L 19.628443 47.902475 
L 19.656435 48.168942 
L 19.690648 48.64021 
L 19.731081 47.683722 
L 19.749742 47.703015 
L 19.774624 48.464384 
L 19.780844 48.419441 
L 19.793285 48.657786 
L 19.86793 47.533106 
L 19.877261 47.656592 
L 19.895922 47.420364 
L 19.936355 48.56096 
L 19.942575 48.638343 
L 19.973678 47.911623 
L 20.023441 48.311535 
L 20.029662 48.065053 
L 20.051433 48.628488 
L 20.129189 48.517046 
L 20.197614 48.097555 
L 20.14163 48.598987 
L 20.247377 48.382029 
L 20.29403 48.608015 
L 20.318912 48.025878 
L 20.328243 48.072168 
L 20.43399 47.86606 
L 20.368676 48.600784 
L 20.443321 47.943142 
L 20.480644 48.617516 
L 20.527297 47.546881 
L 20.552179 47.933528 
L 20.611273 48.671321 
L 20.626824 47.630115 
L 20.633044 47.516013 
L 20.639265 47.215686 
L 20.667257 48.603076 
L 20.732571 47.947942 
L 20.745012 48.614406 
L 20.782335 47.399019 
L 20.841429 48.101628 
L 20.875641 47.441414 
L 20.928515 48.585776 
L 20.937846 48.443674 
L 20.944066 48.663221 
L 20.987609 47.981053 
L 21.043593 48.449426 
L 21.1369 48.021701 
L 21.112018 48.609666 
L 21.155561 48.311887 
L 21.164892 48.627316 
L 21.220876 47.890245 
L 21.267529 48.404178 
L 21.342174 47.781612 
L 21.307962 48.489323 
L 21.382607 48.181085 
L 21.395048 47.846982 
L 21.429261 48.287436 
L 21.466583 48.281846 
L 21.494575 48.567056 
L 21.522567 48.036807 
L 21.575441 48.452986 
L 21.625205 47.919966 
L 21.653196 48.611441 
L 21.684299 48.450023 
L 21.755834 48.692975 
L 21.718511 48.228453 
L 21.771385 48.340112 
L 21.858471 47.766023 
L 21.836699 48.673431 
L 21.889573 48.039996 
L 21.902014 48.175189 
L 21.945557 48.691072 
L 21.98288 48.135713 
L 22.017092 48.468053 
L 22.082407 48.63959 
L 22.063746 47.845606 
L 22.12284 48.402117 
L 22.213036 47.860841 
L 22.150832 48.581292 
L 22.234808 48.151186 
L 22.352996 48.664393 
L 22.278351 47.969622 
L 22.359216 48.351352 
L 22.380988 47.397398 
L 22.40587 48.513142 
L 22.471184 48.177501 
L 22.486735 48.534635 
L 22.564491 47.870942 
L 22.570711 47.67209 
L 22.611144 48.637987 
L 22.670238 48.070814 
L 22.729333 48.605842 
L 22.676459 48.005876 
L 22.785317 48.188644 
L 22.800868 47.916015 
L 22.856852 48.473595 
L 22.894174 48.191657 
L 22.993701 48.668237 
L 23.003032 48.459941 
L 23.009252 48.107387 
L 23.034134 48.657957 
L 23.11189 48.45252 
L 23.130551 48.564358 
L 23.183425 47.841316 
L 23.217637 48.410877 
L 23.248739 48.019098 
L 23.310944 48.691707 
L 23.320274 48.599688 
L 23.323385 48.652384 
L 23.39803 48.249996 
L 23.410471 48.255046 
L 23.413581 48.089318 
L 23.447793 48.617206 
L 23.516218 48.379614 
L 23.603304 48.684945 
L 23.565982 48.320785 
L 23.631296 48.433343 
L 23.730823 48.088268 
L 23.640627 48.619519 
L 23.743264 48.354113 
L 23.849012 48.570063 
L 23.780587 48.037356 
L 23.852122 48.500769 
L 23.932988 48.067091 
L 23.895665 48.641467 
L 23.9672 48.187249 
L 23.992082 48.581123 
L 24.020074 47.754286 
L 24.069837 48.191041 
L 24.097829 47.849678 
L 24.141373 48.673906 
L 24.166254 48.485904 
L 24.169365 48.674878 
L 24.256451 48.005602 
L 24.275112 48.4975 
L 24.321765 47.822759 
L 24.368419 48.607488 
L 24.38397 48.400141 
L 24.430623 48.69355 
L 24.461725 48.047962 
L 24.486607 48.284335 
L 24.561252 47.775685 
L 24.583024 48.49273 
L 24.592354 48.269603 
L 24.629677 48.62718 
L 24.66389 48.183757 
L 24.704322 48.361064 
L 24.738535 47.939165 
L 24.722984 48.649416 
L 24.772747 48.416143 
L 24.797629 48.604297 
L 24.825621 48.018713 
L 24.875384 48.160071 
L 24.887825 47.780899 
L 24.965581 48.650126 
L 24.974912 48.454619 
L 25.012234 48.676791 
L 25.052667 47.874468 
L 25.055777 48.015158 
L 25.061998 47.840169 
L 25.077549 48.562717 
L 25.161525 48.191632 
L 25.192627 48.56071 
L 25.220619 47.994117 
L 25.257942 48.077076 
L 25.267272 47.875233 
L 25.335697 48.574166 
L 25.348138 48.435539 
L 25.450775 48.631636 
L 25.385461 47.689184 
L 25.453885 48.481237 
L 25.491208 48.031485 
L 25.52231 48.616912 
L 25.568964 48.154902 
L 25.593845 48.662729 
L 25.646719 47.889648 
L 25.680931 48.285051 
L 25.702703 48.045993 
L 25.718254 48.586131 
L 25.771128 48.434075 
L 25.833332 47.986382 
L 25.886206 48.688405 
L 25.914198 47.946034 
L 26.010615 48.030753 
L 26.072819 48.621668 
L 26.016835 47.949517 
L 26.122583 48.205992 
L 26.175456 48.644157 
L 26.243881 47.694873 
L 26.274983 48.527187 
L 26.36829 48.504368 
L 26.470927 48.217041 
L 26.414943 48.65694 
L 26.480258 48.429779 
L 26.520691 48.636136 
L 26.548683 47.900034 
L 26.592226 48.529026 
L 26.676202 48.196972 
L 26.623328 48.608959 
L 26.704194 48.466767 
L 26.7975 48.68198 
L 26.760178 48.063996 
L 26.806831 48.448171 
L 26.850374 47.871637 
L 26.828603 48.55886 
L 26.921909 48.115604 
L 26.959232 48.631862 
L 26.93746 48.103614 
L 27.040098 48.415469 
L 27.114743 48.139026 
L 27.102302 48.567328 
L 27.142735 48.457217 
L 27.152066 48.62601 
L 27.232931 47.829704 
L 27.257813 48.619844 
L 27.323128 48.641631 
L 27.382222 48.081389 
L 27.481749 48.565861 
L 27.438206 47.726512 
L 27.4973 48.319079 
L 27.50352 47.815886 
L 27.596827 48.51857 
L 27.599937 48.514659 
L 27.609268 48.630767 
L 27.662142 48.01226 
L 27.705685 48.385203 
L 27.792771 48.552904 
L 27.823873 48.089814 
L 27.861196 47.869632 
L 27.938951 48.421224 
L 28.004266 48.675651 
L 27.985605 48.230263 
L 28.022927 48.324857 
L 28.026037 48.085849 
L 28.094462 48.628686 
L 28.128675 48.534093 
L 28.169108 48.663805 
L 28.212651 48.34615 
L 28.218871 48.403541 
L 28.321508 47.997171 
L 28.296627 48.625135 
L 28.327729 48.356218 
L 28.3495 48.616743 
L 28.421035 48.244374 
L 28.436586 48.301838 
L 28.439697 48.201986 
L 28.505011 48.652396 
L 28.545444 48.276763 
L 28.595208 48.674072 
L 28.613869 48.076943 
L 28.657412 48.296538 
L 28.719616 47.975182 
L 28.700955 48.59005 
L 28.760049 48.306617 
L 28.788041 48.610012 
L 28.806703 47.82223 
L 28.865797 48.274598 
L 28.868907 48.052859 
L 28.962214 48.605552 
L 28.974654 48.301504 
L 29.071071 48.58327 
L 29.030638 48.050101 
L 29.089733 48.542587 
L 29.139496 47.567152 
L 29.102174 48.66155 
L 29.201701 48.344192 
L 29.304338 48.532731 
L 29.254574 47.913593 
L 29.310558 48.32057 
L 29.350991 48.237944 
L 29.32922 48.70256 
L 29.388314 48.458303 
L 29.413196 48.655355 
L 29.466069 48.035454 
L 29.494061 48.310556 
L 29.503392 47.953724 
L 29.578037 48.683721 
L 29.602919 48.39008 
L 29.711777 48.618923 
L 29.627801 48.026516 
L 29.717997 48.538692 
L 29.733548 48.059893 
L 29.829965 48.403918 
L 29.892169 48.564828 
L 29.854847 48.101975 
L 29.935712 48.279136 
L 30.03524 48.663774 
L 29.951264 48.089216 
L 30.069452 48.656238 
L 30.18764 48.107452 
L 30.246734 48.633784 
L 30.271616 48.091944 
L 30.308939 48.427991 
L 30.315159 48.204299 
L 30.380474 48.664172 
L 30.417797 48.423007 
L 30.46134 48.64139 
L 30.433348 48.024408 
L 30.526654 48.486706 
L 30.576418 48.22982 
L 30.595079 48.665882 
L 30.632402 48.441551 
L 30.638622 48.665538 
L 30.691496 48.225861 
L 30.741259 48.524835 
L 30.850117 48.20348 
L 30.7537 48.6967 
L 30.853227 48.321399 
L 30.89366 48.60147 
L 30.874999 48.212786 
L 30.924762 48.222632 
L 30.952754 47.868948 
L 30.980746 48.573071 
L 31.03673 48.033772 
L 31.117596 48.68219 
L 31.074053 47.931887 
L 31.161139 48.546952 
L 31.182911 48.031825 
L 31.195352 48.612872 
L 31.273107 48.495738 
L 31.276217 48.4967 
L 31.378855 48.084032 
L 31.332201 48.665689 
L 31.391295 48.137822 
L 31.397516 47.933263 
L 31.462831 48.643603 
L 31.493933 48.347312 
L 31.515704 48.555514 
L 31.562358 48.020096 
L 31.612121 47.595608 
L 31.652554 48.662886 
L 31.661885 48.486729 
L 31.711648 48.609813 
L 31.730309 48.215198 
L 31.767632 48.532747 
L 31.870269 48.250396 
L 31.851608 48.67775 
L 31.8796 48.463698 
L 31.895151 48.643891 
L 31.932474 48.270891 
L 31.985348 48.429929 
L 32.035111 48.128569 
L 32.066213 48.648496 
L 32.097315 48.338574 
L 32.103536 48.436252 
L 32.109756 48.655708 
L 32.190622 48.188029 
L 32.209283 48.342614 
L 32.218614 48.238224 
L 32.259047 48.692709 
L 32.30881 48.537424 
L 32.315031 48.569564 
L 32.321251 48.415151 
L 32.395897 48.142895 
L 32.420778 48.65985 
L 32.433219 48.284759 
L 32.43944 48.659901 
L 32.492313 48.083771 
L 32.542077 48.232867 
L 32.601171 48.647288 
L 32.557628 48.157885 
L 32.647824 48.325232 
L 32.750462 47.893393 
L 32.688257 48.647832 
L 32.759792 48.192473 
L 32.859319 48.66867 
L 32.797115 47.802846 
L 32.899752 48.457168 
L 32.977508 48.015982 
L 32.912193 48.606834 
L 33.01172 48.429694 
L 33.080145 48.621663 
L 33.101917 47.727043 
L 33.117468 48.168871 
L 33.167231 48.682144 
L 33.210774 48.098906 
L 33.232546 48.371585 
L 33.347624 47.997925 
L 33.241876 48.505764 
L 33.350734 48.022628 
L 33.409828 48.646111 
L 33.363175 47.873224 
L 33.468922 48.476332 
L 33.534237 48.259076 
L 33.521796 48.683059 
L 33.57778 48.463899 
L 33.677307 48.677124 
L 33.630654 48.270214 
L 33.689748 48.609912 
L 33.758173 48.26497 
L 33.783055 48.680278 
L 33.804826 48.402287 
L 33.885692 48.680795 
L 33.811047 48.284097 
L 33.916794 48.48161 
L 34.00388 48.133111 
L 33.975888 48.555986 
L 34.025652 48.462669 
L 34.084746 48.639037 
L 34.047423 48.33529 
L 34.13451 48.484584 
L 34.14073 48.572178 
L 34.14384 48.40106 
L 34.150061 48.436035 
L 34.240257 47.989104 
L 34.227816 48.623983 
L 34.258918 48.420852 
L 34.314902 48.614652 
L 34.290021 48.276996 
L 34.355335 48.349783 
L 34.358445 48.179443 
L 34.414429 48.623157 
L 34.464193 48.447144 
L 34.467303 48.653606 
L 34.526397 48.25188 
L 34.576161 48.625036 
L 34.616594 48.098946 
L 34.666357 48.640583 
L 34.691239 48.506104 
L 34.697459 48.608522 
L 34.747223 48.184187 
L 34.787656 48.222324 
L 34.800097 48.016747 
L 34.859191 48.624397 
L 34.884073 48.44746 
L 34.955608 48.60915 
L 34.905844 48.168113 
L 34.99293 48.383011 
L 34.996041 48.381523 
L 34.999151 48.695454 
L 35.052024 47.911675 
L 35.108008 48.554366 
L 35.114229 48.631623 
L 35.142221 48.311903 
L 35.207535 48.356816 
L 35.291511 47.642402 
L 35.257299 48.523807 
L 35.316393 48.26976 
L 35.375487 48.697871 
L 35.347495 48.203801 
L 35.428361 48.41704 
L 35.440802 47.982341 
L 35.462574 48.633049 
L 35.537219 48.46161 
L 35.611864 48.682823 
L 35.55899 48.189742 
L 35.636746 48.426868 
L 35.720722 48.221204 
L 35.68962 48.653057 
L 35.742493 48.370544 
L 35.767375 48.691503 
L 35.801588 48.195093 
L 35.857571 48.629656 
L 35.916666 48.38635 
L 35.863792 48.671617 
L 35.960209 48.569512 
L 35.963319 48.688577 
L 36.053515 48.292006 
L 36.069066 48.493593 
L 36.12505 48.637069 
L 36.168593 48.279541 
L 36.177924 48.532338 
L 36.283672 48.12492 
L 36.293002 48.199416 
L 36.373868 48.630226 
L 36.320994 47.911583 
L 36.40186 48.12379 
L 36.417411 48.65672 
L 36.442293 47.957566 
L 36.523159 48.548661 
L 36.572922 48.263765 
L 36.579143 48.652038 
L 36.641347 48.308399 
L 36.653788 48.024701 
L 36.69111 48.571948 
L 36.747094 48.248478 
L 36.759535 48.627057 
L 36.775086 47.847999 
L 36.859062 48.367215 
L 36.905716 47.97137 
L 36.877724 48.656593 
L 36.96481 48.315069 
L 37.067447 48.60964 
L 37.008353 48.148412 
L 37.073668 48.464745 
L 37.089219 48.140146 
L 37.138982 48.594369 
L 37.182525 48.464056 
L 37.207407 48.690084 
L 37.238509 48.223887 
L 37.291383 48.596834 
L 37.412681 47.919712 
L 37.490437 48.65998 
L 37.53087 48.499094 
L 37.549531 48.108844 
L 37.574413 48.691726 
L 37.639728 48.437152 
L 37.652168 48.680436 
L 37.67394 48.276749 
L 37.751695 48.646323 
L 37.789018 48.656477 
L 37.872994 48.142975 
L 37.928978 48.645635 
L 37.988072 48.519951 
L 38.019174 48.670607 
L 38.090709 48.200397 
L 38.149804 48.667832 
L 38.23689 48.551662 
L 38.348858 47.884994 
L 38.286653 48.624071 
L 38.355078 47.980557 
L 38.420393 48.684307 
L 38.467046 48.058128 
L 38.52925 47.878404 
L 38.488818 48.656219 
L 38.572794 48.193647 
L 38.588345 48.673678 
L 38.694092 48.458823 
L 38.778068 48.674778 
L 38.756297 48.093256 
L 38.790509 48.386901 
L 38.796729 48.015877 
L 38.830942 48.664169 
L 38.899367 48.444939 
L 38.905587 48.611696 
L 38.986453 48.100558 
L 39.002004 48.258818 
L 39.101531 48.650878 
L 39.107751 48.229929 
L 39.117082 48.369196 
L 39.145074 48.113119 
L 39.129523 48.686269 
L 39.219719 48.426891 
L 39.272593 48.669788 
L 39.306806 48.265504 
L 39.325467 48.324194 
L 39.334797 48.25122 
L 39.37523 48.636209 
L 39.428104 48.353699 
L 39.521411 48.660155 
L 39.490308 48.251614 
L 39.543182 48.545091 
L 39.611607 48.363776 
L 39.561844 48.686046 
L 39.64893 48.45384 
L 39.754677 48.666012 
L 39.717355 48.360784 
L 39.760898 48.511284 
L 39.823102 48.308389 
L 39.851094 48.660878 
L 39.866645 48.540779 
L 39.925739 48.61005 
L 39.92885 48.28603 
L 39.975503 48.522748 
L 40.012825 48.155343 
L 40.050148 48.658364 
L 40.087471 48.347133 
L 40.140344 48.669155 
L 40.155896 48.26259 
L 40.199439 48.57636 
L 40.274084 48.147398 
L 40.21188 48.628966 
L 40.311407 48.398677 
L 40.314517 48.613977 
L 40.404713 48.164686 
L 40.420264 48.583551 
L 40.442036 48.154093 
L 40.482469 48.647061 
L 40.532232 48.263903 
L 40.560224 48.691346 
L 40.591326 48.16649 
L 40.6442 48.371418 
L 40.712625 48.096397 
L 40.700184 48.48787 
L 40.753058 48.396054 
L 40.765499 48.609329 
L 40.771719 48.257771 
L 40.78416 48.444151 
L 40.78727 48.206293 
L 40.833924 48.622371 
L 40.896128 48.340211 
L 40.905459 48.108814 
L 40.995655 48.54676 
L 40.998765 48.660278 
L 41.095182 48.238549 
L 41.098292 48.071608 
L 41.110733 48.666156 
L 41.197819 48.554908 
L 41.20404 48.474885 
L 41.20715 48.557532 
L 41.294236 48.016797 
L 41.312897 48.620171 
L 41.316008 48.555252 
L 41.424865 48.220071 
L 41.390653 48.67747 
L 41.431086 48.377483 
L 41.524392 48.638187 
L 41.539944 48.264859 
L 41.543054 48.263402 
L 41.62703 48.685053 
L 41.611479 48.224276 
L 41.658132 48.585999 
L 41.704785 48.191987 
L 41.738998 48.680512 
L 41.77321 48.490511 
L 41.878957 48.694558 
L 41.829194 48.240703 
L 41.882068 48.553139 
L 41.91939 48.191722 
L 41.962933 48.655309 
L 41.997146 48.444806 
L 42.081122 48.680078 
L 42.043799 48.37934 
L 42.109114 48.594139 
L 42.155767 48.32656 
L 42.130885 48.667066 
L 42.214861 48.467428 
L 42.217971 48.683917 
L 42.280176 48.206783 
L 42.323719 48.395132 
L 42.389034 48.080194 
L 42.423246 48.591231 
L 42.432577 48.484025 
L 42.519663 47.77699 
L 42.463679 48.608767 
L 42.547655 48.274004 
L 42.600529 48.584905 
L 42.650292 48.150411 
L 42.656513 48.163047 
L 42.75915 48.679462 
L 42.684504 48.056637 
L 42.76848 48.197257 
L 42.852456 48.477428 
L 42.880448 47.950285 
L 42.979975 48.683734 
L 42.992416 48.496157 
L 43.073282 48.619859 
L 43.107494 47.995267 
L 43.194581 48.648513 
L 43.228793 48.591315 
L 43.281667 48.17158 
L 43.235013 48.646295 
L 43.353202 48.428761 
L 43.362532 48.658166 
L 43.368753 48.407613 
L 43.387414 48.411626 
L 43.390524 48.243012 
L 43.424737 48.638133 
L 43.499382 48.298203 
L 43.524264 48.277772 
L 43.539815 48.555331 
L 43.542925 48.51697 
L 43.630011 48.622826 
L 43.61135 48.213977 
L 43.648673 48.406576 
L 43.670444 48.078021 
L 43.738869 48.630613 
L 43.75753 48.437622 
L 43.760641 48.38252 
L 43.847727 48.676584 
L 43.863278 48.457912 
L 43.934813 48.654042 
L 43.947254 48.337919 
L 43.975246 48.624812 
L 44.025009 48.411893 
L 44.056112 48.690521 
L 44.087214 48.577705 
L 44.208512 48.180862 
L 44.164969 48.665395 
L 44.220953 48.355942 
L 44.283158 48.657737 
L 44.31426 48.353089 
L 44.336031 48.559301 
L 44.395126 48.001389 
L 44.345362 48.64642 
L 44.451109 48.283987 
L 44.507093 48.503798 
L 44.519534 47.995691 
L 44.553747 48.265793 
L 44.559967 48.05188 
L 44.640833 48.669201 
L 44.662604 48.133822 
L 44.693707 48.632722 
L 44.762131 48.001323 
L 44.774572 48.231945 
L 44.780793 48.077529 
L 44.799454 48.628587 
L 44.874099 48.564034 
L 44.892761 48.694095 
L 44.939414 48.292275 
L 44.982957 48.591765 
L 45.035831 48.094237 
L 45.063823 48.628062 
L 45.098035 48.535812 
L 45.194452 48.104406 
L 45.175791 48.633852 
L 45.216224 48.50861 
L 45.265987 48.679663 
L 45.31264 48.34015 
L 45.315751 48.235043 
L 45.405947 48.678007 
L 45.418388 48.495763 
L 45.468151 48.164046 
L 45.496143 48.662501 
L 45.521025 48.52744 
L 45.623662 48.654559 
L 45.605001 48.338595 
L 45.629883 48.58992 
L 45.710749 48.231309 
L 45.667206 48.682865 
L 45.738741 48.526553 
L 45.847598 48.667901 
L 45.816496 48.362903 
L 45.850708 48.611252 
L 45.953346 48.098789 
L 45.87248 48.685042 
L 45.968897 48.390925 
L 46.034211 48.688004 
L 46.046652 48.230515 
L 46.080865 48.454107 
L 46.105747 48.305376 
L 46.133739 48.691646 
L 46.183502 48.586372 
L 46.192833 48.687629 
L 46.211494 48.254107 
L 46.276809 48.367828 
L 46.286139 48.320119 
L 46.283029 48.471209 
L 46.28925 48.385585 
L 46.376336 48.650886 
L 46.307911 48.227526 
L 46.398107 48.446154 
L 46.500744 48.19722 
L 46.43543 48.658148 
L 46.510075 48.41065 
L 46.516296 48.542111 
L 46.534957 48.654918 
L 46.566059 48.314403 
L 46.615823 48.464516 
L 46.706019 48.142563 
L 46.650035 48.664983 
L 46.734011 48.327903 
L 46.774444 48.674387 
L 46.746452 48.217631 
L 46.849089 48.535201 
L 46.883302 48.653957 
L 46.86464 48.311291 
L 46.945506 48.346191 
L 46.951726 48.130129 
L 47.010821 48.664396 
L 47.054364 48.435659 
L 47.076135 48.685593 
L 47.157001 48.205054 
L 47.160111 48.300485 
L 47.163221 48.298226 
L 47.166332 48.08983 
L 47.209875 48.673416 
L 47.268969 48.430988 
L 47.340504 48.661211 
L 47.368496 48.268094 
L 47.380937 48.483011 
L 47.42759 48.204105 
L 47.405819 48.682028 
L 47.458692 48.588275 
L 47.548889 48.691794 
L 47.489794 48.229376 
L 47.56133 48.577989 
L 47.660857 48.118747 
L 47.595542 48.635541 
L 47.676408 48.224602 
L 47.70751 48.664042 
L 47.791486 48.479931 
L 47.869241 48.152238 
L 47.835029 48.680416 
L 47.884792 48.417565 
L 47.984319 48.696328 
L 47.956327 48.271666 
L 47.99676 48.52617 
L 48.046524 48.216734 
L 48.068295 48.633643 
L 48.108728 48.466568 
L 48.198925 48.674569 
L 48.149161 48.226074 
L 48.230027 48.547385 
L 48.332664 48.160093 
L 48.239357 48.668417 
L 48.338885 48.41856 
L 48.357546 48.348098 
L 48.453963 48.631677 
L 48.603253 48.235575 
L 48.606363 48.085893 
L 48.659237 48.634306 
L 48.709001 48.477536 
L 48.783646 47.854463 
L 48.730772 48.551964 
L 48.827189 48.131418 
L 48.83652 48.27042 
L 48.889393 48.631577 
L 48.917385 48.032911 
L 48.948488 48.560523 
L 48.995141 48.393878 
L 49.032464 48.690717 
L 49.060456 48.454267 
L 49.085337 48.242202 
L 49.172424 48.684007 
L 49.253289 48.112771 
L 49.284391 48.46674 
L 49.299943 48.627428 
L 49.352816 48.145607 
L 49.396359 48.604865 
L 49.446123 48.250748 
L 49.495886 48.680332 
L 49.505217 48.63043 
L 49.520768 48.233014 
L 49.55187 48.670551 
L 49.632736 48.468975 
L 49.719822 48.668036 
L 49.707381 48.240434 
L 49.741594 48.43278 
L 49.747814 48.040749 
L 49.794468 48.658738 
L 49.847341 48.606479 
L 49.906435 48.202551 
L 49.918876 48.664437 
L 49.956199 48.498262 
L 49.96553 48.679765 
L 50.002852 48.33312 
L 50.068167 48.622103 
L 50.10549 48.270421 
L 50.139702 48.673677 
L 50.186355 48.388278 
L 50.25167 48.694042 
L 50.304544 48.588125 
L 50.338756 48.319267 
L 50.366748 48.682311 
L 50.416512 48.54219 
L 50.494267 48.666969 
L 50.469385 48.322486 
L 50.525369 48.574167 
L 50.587574 48.697765 
L 50.655998 48.121409 
L 50.743085 48.693545 
L 50.783518 48.548228 
L 50.858163 48.324072 
L 50.883045 48.673223 
L 50.892375 48.541497 
L 50.895485 48.646361 
L 50.929698 48.252211 
L 51.001233 48.529582 
L 51.041666 48.021186 
L 51.088319 48.589048 
L 51.113201 48.493373 
L 51.172295 48.275781 
L 51.131862 48.671131 
L 51.218948 48.508841 
L 51.324696 48.669685 
L 51.299814 48.194849 
L 51.334026 48.572345 
L 51.374459 48.610138 
L 51.393121 48.261864 
L 51.421113 48.492378 
L 51.505089 48.071205 
L 51.517529 48.655048 
L 51.52997 48.543771 
L 51.638828 48.661994 
L 51.620167 48.239968 
L 51.641938 48.658212 
L 51.763237 48.16206 
L 51.67304 48.682664 
L 51.769457 48.343376 
L 51.813 48.647466 
L 51.794339 48.144227 
L 51.881425 48.465309 
L 51.980952 48.343348 
L 51.900087 48.653794 
L 51.984062 48.479309 
L 52.027606 48.659242 
L 52.083589 48.269841 
L 52.09292 48.423639 
L 52.176896 48.688495 
L 52.133353 48.390807 
L 52.214219 48.547842 
L 52.319966 48.685238 
L 52.285754 48.383791 
L 52.323076 48.583689 
L 52.344848 48.269301 
L 52.332407 48.6553 
L 52.435044 48.483296 
L 52.472367 48.265885 
L 52.444375 48.661626 
L 52.494139 48.481465 
L 52.497249 48.695035 
L 52.547012 48.28567 
L 52.606106 48.618293 
L 52.64965 48.565215 
L 52.705633 48.109076 
L 52.683862 48.676297 
L 52.755397 48.50296 
L 52.839373 48.659104 
L 52.811381 48.265899 
L 52.867365 48.578223 
L 52.923349 48.197664 
L 52.970002 48.643107 
L 52.976223 48.629558 
L 52.979333 48.696596 
L 53.025986 48.22369 
L 53.08197 48.561374 
L 53.187718 48.113489 
L 53.134844 48.659726 
L 53.197048 48.366096 
L 53.259253 48.673094 
L 53.22193 48.123318 
L 53.309016 48.393658 
L 53.355669 48.654946 
L 53.374331 48.217907 
L 53.427205 48.553361 
L 53.50496 48.160421 
L 53.523621 48.65901 
L 53.539172 48.52943 
L 53.579605 48.67457 
L 53.592046 48.326836 
L 53.623148 48.421199 
L 53.626259 48.202437 
L 53.713345 48.689204 
L 53.732006 48.499863 
L 53.815982 48.254602 
L 53.797321 48.680092 
L 53.837754 48.600585 
L 53.92795 48.674577 
L 53.850194 48.359159 
L 53.946611 48.588419 
L 54.015036 48.123227 
L 53.977713 48.683818 
L 54.055469 48.582908 
L 54.058579 48.668952 
L 54.099012 48.285045 
L 54.158106 48.603202 
L 54.254523 48.265926 
L 54.198539 48.683332 
L 54.270074 48.493389 
L 54.313617 48.691716 
L 54.335389 48.35172 
L 54.363381 48.434109 
L 54.428695 48.290409 
L 54.382042 48.665182 
L 54.462908 48.535658 
L 54.4909 48.667634 
L 54.562435 48.390266 
L 54.571766 48.593484 
L 54.574876 48.305617 
L 54.581096 48.669195 
L 54.680623 48.397814 
L 54.714836 48.69273 
L 54.742828 48.338147 
L 54.792591 48.554525 
L 54.901449 48.220818 
L 54.848575 48.665856 
L 54.91389 48.322293 
L 55.010307 48.696022 
L 54.929441 48.240348 
L 55.025858 48.451716 
L 55.109834 48.202254 
L 55.119164 48.663169 
L 55.131605 48.459715 
L 55.178258 48.689408 
L 55.215581 48.119058 
L 55.218691 48.233371 
L 55.274675 48.053182 
L 55.318218 48.635219 
L 55.321329 48.629989 
L 55.324439 48.651572 
L 55.33999 48.21004 
L 55.430186 48.686091 
L 55.433296 48.651556 
L 55.495501 48.655216 
L 55.48617 48.482588 
L 55.498611 48.598663 
L 55.604359 48.353148 
L 55.526603 48.675299 
L 55.613689 48.427411 
L 55.651012 48.340158 
L 55.688335 48.669857 
L 55.713216 48.550142 
L 55.716327 48.638169 
L 55.75987 48.268946 
L 55.818964 48.58932 
L 55.846956 48.309943 
L 55.856286 48.677101 
L 55.930932 48.341132 
L 55.974475 48.704366 
L 55.968254 48.326197 
L 56.0429 48.484815 
L 56.129986 48.226846 
L 56.114435 48.653971 
L 56.151757 48.474742 
L 56.226403 48.624817 
L 56.238843 48.197085 
L 56.260615 48.429665 
L 56.279276 48.689642 
L 56.378803 48.54699 
L 56.391244 48.216075 
L 56.437898 48.692402 
L 56.487661 48.506836 
L 56.490771 48.654302 
L 56.584078 48.198833 
L 56.596519 48.475159 
L 56.624511 48.252376 
L 56.686715 48.684355 
L 56.705376 48.494194 
L 56.801793 48.679989 
L 56.75825 48.392857 
L 56.817344 48.557289 
L 56.829785 48.33457 
L 56.876439 48.70134 
L 56.929312 48.486557 
L 57.019509 48.67829 
L 56.991517 48.263248 
L 57.04128 48.598787 
L 57.112815 48.333567 
L 57.140807 48.677237 
L 57.159469 48.45747 
L 57.165689 48.68829 
L 57.262106 48.317671 
L 57.268326 48.535708 
L 57.280767 48.120276 
L 57.3212 48.677069 
L 57.374074 48.530168 
L 57.402066 48.672334 
L 57.470491 48.140859 
L 57.482931 48.593982 
L 57.576238 48.220941 
L 57.585569 48.682235 
L 57.594899 48.406926 
L 57.650883 48.691215 
L 57.678875 48.269078 
L 57.703757 48.459965 
L 57.812615 48.225511 
L 57.716198 48.661014 
L 57.818835 48.278488 
L 57.821945 48.207366 
L 57.871709 48.671524 
L 57.921473 48.456955 
L 57.999228 48.665155 
L 57.940134 48.289279 
L 58.03344 48.508125 
L 58.083204 48.220178 
L 58.061432 48.67605 
L 58.145408 48.464072 
L 58.229384 48.646293 
L 58.188951 48.25584 
L 58.254266 48.388819 
L 58.297809 48.262274 
L 58.30714 48.640586 
L 58.319581 48.488013 
L 58.353793 48.662147 
L 58.409777 48.371432 
L 58.431549 48.540633 
L 58.512414 48.669101 
L 58.462651 48.264531 
L 58.543517 48.63036 
L 58.58706 48.345245 
L 58.621272 48.686581 
L 58.658595 48.455778 
L 58.664815 48.646874 
L 58.764342 48.283081 
L 58.823436 48.672859 
L 58.87631 48.385685 
L 58.975837 48.693675 
L 58.997609 48.658246 
L 59.106466 48.344259 
L 59.038042 48.700008 
L 59.109577 48.497764 
L 59.218434 48.66658 
L 59.15623 48.23872 
L 59.227765 48.587009 
L 59.252647 48.231718 
L 59.327292 48.693966 
L 59.339733 48.504266 
L 59.377056 48.67833 
L 59.408158 48.172702 
L 59.448591 48.602967 
L 59.476583 48.268085 
L 59.489023 48.692648 
L 59.557448 48.448669 
L 59.594771 48.645918 
L 59.641424 48.303139 
L 59.666306 48.352217 
L 59.669416 48.345626 
L 59.675637 48.46386 
L 59.700518 48.658975 
L 59.72229 48.310743 
L 59.787605 48.531032 
L 59.800045 48.672215 
L 59.809376 48.324715 
L 59.887132 48.356919 
L 59.967997 48.298429 
L 59.933785 48.682782 
L 59.983548 48.536108 
L 60.083075 48.659741 
L 60.051973 48.33775 
L 60.089296 48.524059 
L 60.195043 48.274527 
L 60.117288 48.607968 
L 60.201264 48.439375 
L 60.251027 48.401022 
L 60.247917 48.673489 
L 60.28835 48.435879 
L 60.29457 48.64798 
L 60.362995 48.322981 
L 60.400318 48.552072 
L 60.412759 48.695869 
L 60.446971 48.37651 
L 60.506065 48.606322 
L 60.5776 48.182579 
L 60.524727 48.691125 
L 60.618033 48.239052 
L 60.655356 48.633494 
L 60.723781 48.233097 
L 60.726891 48.233489 
L 60.807757 48.687972 
L 60.84819 48.540665 
L 60.944606 48.296657 
L 60.866851 48.653067 
L 60.957047 48.486464 
L 61.009921 48.701899 
L 60.981929 48.349647 
L 61.065905 48.441081 
L 61.084566 48.360537 
L 61.115669 48.663938 
L 61.156101 48.590256 
L 61.184093 48.378913 
L 61.27118 48.687626 
L 61.345825 48.430441 
L 61.367596 48.694353 
L 61.386258 48.557264 
L 61.451572 48.670978 
L 61.485785 48.41742 
L 61.495115 48.640252 
L 61.597753 48.395348 
L 61.516887 48.689125 
L 61.610194 48.407938 
L 61.663067 48.690568 
L 61.631965 48.348653 
L 61.722161 48.586817 
L 61.753264 48.429842 
L 61.728382 48.655348 
L 61.790586 48.643773 
L 61.84968 48.690173 
L 61.834129 48.377784 
L 61.890113 48.577115 
L 61.998971 48.206235 
L 61.908775 48.677611 
L 62.008302 48.425642 
L 62.017632 48.648987 
L 62.104718 48.031944 
L 62.114049 48.324326 
L 62.117159 48.256459 
L 62.12649 48.660867 
L 62.210466 48.551191 
L 62.250899 48.642248 
L 62.288221 48.175108 
L 62.313103 48.440417 
L 62.362867 48.289455 
L 62.387749 48.679485 
L 62.418851 48.660212 
L 62.471724 48.237077 
L 62.484165 48.6763 
L 62.537039 48.478369 
L 62.617905 48.690317 
L 62.599243 48.353992 
L 62.649007 48.565694 
L 62.726763 48.291945 
L 62.670779 48.687948 
L 62.757865 48.602357 
L 62.760975 48.675638 
L 62.782746 48.317479 
L 62.860502 48.476963 
L 62.953809 48.215755 
L 62.900935 48.657629 
L 62.97558 48.3766 
L 62.97869 48.369374 
L 62.997352 48.520439 
L 63.000462 48.673245 
L 63.099989 48.342406 
L 63.106209 48.425838 
L 63.208847 48.667539 
L 63.124871 48.415993 
L 63.218177 48.650021 
L 63.236839 48.278329 
L 63.292823 48.683454 
L 63.330145 48.418376 
L 63.420342 48.643277 
L 63.389239 48.248357 
L 63.445223 48.615914 
L 63.507428 48.260014 
L 63.485656 48.694168 
L 63.557191 48.499259 
L 63.666049 48.670865 
L 63.610065 48.318985 
L 63.669159 48.573838 
L 63.768686 48.431445 
L 63.700261 48.673857 
L 63.778017 48.515735 
L 63.852662 48.684106 
L 63.868213 48.349622 
L 63.889985 48.562124 
L 63.905536 48.393427 
L 63.96463 48.665713 
L 63.998843 48.543947 
L 64.073488 48.697067 
L 64.092149 48.443846 
L 64.1077 48.597511 
L 64.11081 48.283629 
L 64.207227 48.692449 
L 64.216558 48.604811 
L 64.256991 48.328135 
L 64.235219 48.665439 
L 64.325416 48.527589 
L 64.334746 48.640547 
L 64.38762 48.374201 
L 64.428053 48.535562 
L 64.434273 48.35237 
L 64.490257 48.703501 
L 64.536911 48.518878 
L 64.552462 48.202392 
L 64.596005 48.659914 
L 64.623997 48.615839 
L 64.627107 48.68186 
L 64.636438 48.332259 
L 64.729744 48.505368 
L 64.782618 48.225921 
L 64.760846 48.693341 
L 64.826161 48.477492 
L 64.885255 48.687223 
L 64.869704 48.264507 
L 64.938129 48.621343 
L 64.984782 48.28926 
L 65.000333 48.679798 
L 65.050097 48.575346 
L 65.08742 48.696683 
L 65.118522 48.357506 
L 65.155844 48.523539 
L 65.183836 48.257412 
L 65.246041 48.612411 
L 65.270923 48.425536 
L 65.37045 48.695226 
L 65.311355 48.248585 
L 65.386001 48.559326 
L 65.420213 48.084952 
L 65.479307 48.668392 
L 65.497969 48.40071 
L 65.569504 48.678689 
L 65.507299 48.366356 
L 65.606826 48.398749 
L 65.693912 48.676282 
L 65.644149 48.357241 
L 65.697023 48.49666 
L 65.79966 48.319444 
L 65.731235 48.691137 
L 65.808991 48.391685 
L 65.858754 48.673896 
L 65.930289 48.649118 
L 65.93962 48.353084 
L 65.980053 48.660283 
L 66.042257 48.626802 
L 66.048478 48.635816 
L 66.120013 48.303087 
L 66.154225 48.690489 
L 66.160445 48.544149 
L 66.235091 48.68439 
L 66.172886 48.290568 
L 66.263083 48.554685 
L 66.266193 48.380588 
L 66.328397 48.697429 
L 66.375051 48.495809 
L 66.384381 48.373329 
L 66.490129 48.669719 
L 66.546113 48.272744 
L 66.602097 48.380675 
L 66.673632 48.65763 
L 66.636309 48.357608 
L 66.714065 48.484413 
L 66.717175 48.48649 
L 66.720285 48.420227 
L 66.723395 48.301033 
L 66.7856 48.678604 
L 66.822922 48.57777 
L 66.835363 48.674477 
L 66.863355 48.227727 
L 66.92556 48.508484 
L 66.941111 48.056003 
L 67.006425 48.617956 
L 67.037527 48.352854 
L 67.124614 48.695845 
L 67.06863 48.072283 
L 67.146385 48.290032 
L 67.149495 48.238507 
L 67.189928 48.701997 
L 67.239692 48.500662 
L 67.255243 48.678923 
L 67.323668 48.308324 
L 67.35166 48.632214 
L 67.385872 48.37195 
L 67.460517 48.687648 
L 67.488509 48.270018 
L 67.572485 48.504182 
L 67.678233 48.691021 
L 67.588036 48.402489 
L 67.687563 48.651937 
L 67.749768 48.25155 
L 67.762209 48.687004 
L 67.799531 48.524749 
L 67.802642 48.676575 
L 67.886618 48.24153 
L 67.911499 48.593294 
L 67.992365 48.288471 
L 67.939491 48.666613 
L 68.023467 48.432184 
L 68.129215 48.680674 
L 68.06079 48.340003 
L 68.150986 48.590593 
L 68.21008 48.360613 
L 68.231852 48.669822 
L 68.256734 48.656499 
L 68.259844 48.669529 
L 68.315828 48.448622 
L 68.34382 48.630395 
L 68.396694 48.327929 
L 68.430906 48.689596 
L 68.455788 48.506762 
L 68.514882 48.68052 
L 68.549094 48.363823 
L 68.564646 48.395506 
L 68.580197 48.66639 
L 68.614409 48.381641 
L 68.682834 48.571857 
L 68.785471 48.403406 
L 68.741928 48.670785 
L 68.791692 48.446149 
L 68.869447 48.687479 
L 68.844565 48.374775 
L 68.900549 48.511606 
L 69.003187 48.342118 
L 68.928541 48.683654 
L 69.012517 48.468173 
L 69.031179 48.669073 
L 69.018738 48.400728 
L 69.121375 48.547796 
L 69.214682 48.237595 
L 69.1898 48.653039 
L 69.233343 48.300937 
L 69.295547 48.669313 
L 69.248894 48.29416 
L 69.345311 48.493092 
L 69.370193 48.646347 
L 69.354641 48.450833 
L 69.385744 48.542846 
L 69.388854 48.359295 
L 69.447948 48.690727 
L 69.494601 48.634432 
L 69.544365 48.340022 
L 69.500822 48.655658 
L 69.603459 48.550908 
L 69.671884 48.657351 
L 69.690545 48.305471 
L 69.709207 48.444867 
L 69.718537 48.224159 
L 69.771411 48.613772 
L 69.814954 48.500437 
L 69.917591 48.660418 
L 69.861607 48.345428 
L 69.926922 48.588758 
L 69.992237 48.668264 
L 69.942473 48.357121 
L 70.032669 48.548009 
L 70.107315 48.341104 
L 70.060661 48.6763 
L 70.135307 48.592943 
L 70.163299 48.685474 
L 70.213062 48.28786 
L 70.247275 48.641109 
L 70.356132 48.244594 
L 70.293928 48.646655 
L 70.365463 48.504581 
L 70.377904 48.671243 
L 70.436998 48.395513 
L 70.480541 48.665869 
L 70.489872 48.457478 
L 70.514754 48.678105 
L 70.592509 48.544656 
L 70.632942 48.678389 
L 70.60495 48.277136 
L 70.701367 48.498287 
L 70.800894 48.659021 
L 70.716918 48.372898 
L 70.804004 48.551639 
L 70.881759 48.396372 
L 70.872429 48.676366 
L 70.912862 48.619052 
L 70.987507 48.358242 
L 70.934633 48.686463 
L 71.02794 48.575984 
L 71.087034 48.689691 
L 71.105695 48.23215 
L 71.133687 48.594783 
L 71.155459 48.388712 
L 71.192781 48.687527 
L 71.242545 48.650237 
L 71.292309 48.357434 
L 71.270537 48.679236 
L 71.366954 48.484828 
L 71.45404 48.694648 
L 71.394946 48.355712 
L 71.478922 48.645181 
L 71.494473 48.291709 
L 71.538016 48.687106 
L 71.59089 48.574599 
L 71.612661 48.675739 
L 71.637543 48.22984 
L 71.693527 48.572494 
L 71.709078 48.177877 
L 71.727739 48.65929 
L 71.802385 48.370219 
L 71.830377 48.644992 
L 71.855258 48.350133 
L 71.914353 48.515332 
L 71.948565 48.15221 
L 71.992108 48.6959 
L 72.02321 48.535435 
L 72.076084 48.371075 
L 72.054312 48.690715 
L 72.132068 48.429673 
L 72.147619 48.681941 
L 72.188052 48.360958 
L 72.244036 48.574223 
L 72.275138 48.411019 
L 72.290689 48.678217 
L 72.340453 48.634647 
L 72.418208 48.646595 
L 72.352894 48.362982 
L 72.433759 48.605354 
L 72.508405 48.375343 
L 72.527066 48.668648 
L 72.548837 48.445494 
L 72.561278 48.34434 
L 72.573719 48.684701 
L 72.639034 48.642211 
L 72.657695 48.68541 
L 72.707459 48.258873 
L 72.741671 48.575017 
L 72.841198 48.254455 
L 72.822537 48.674989 
L 72.850529 48.479153 
L 72.956276 48.673597 
L 72.881631 48.325968 
L 72.959386 48.61505 
L 73.00915 48.179496 
L 72.999819 48.688993 
L 73.071354 48.514415 
L 73.14911 48.648592 
L 73.099346 48.35094 
L 73.186433 48.629536 
L 73.217535 48.290883 
L 73.251747 48.7029 
L 73.2984 48.547542 
L 73.332613 48.693006 
L 73.345054 48.413335 
L 73.413479 48.6783 
L 73.444581 48.339281 
L 73.478793 48.663205 
L 73.485014 48.306659 
L 73.556549 48.562922 
L 73.612533 48.407681 
L 73.5721 48.670754 
L 73.665406 48.554049 
L 73.749382 48.689313 
L 73.758713 48.425023 
L 73.774264 48.617206 
L 73.827138 48.411917 
L 73.786705 48.683915 
L 73.883122 48.647819 
L 73.889342 48.684985 
L 73.908004 48.382862 
L 73.942216 48.451383 
L 73.963988 48.29566 
L 74.029302 48.678803 
L 74.041743 48.553488 
L 74.116388 48.67253 
L 74.107058 48.302836 
L 74.13816 48.460903 
L 74.200364 48.22093 
L 74.150601 48.625613 
L 74.247018 48.475553 
L 74.340324 48.64981 
L 74.265679 48.384739 
L 74.362096 48.607853 
L 74.41808 48.313045 
L 74.467843 48.662507 
L 74.470953 48.572536 
L 74.545599 48.665503 
L 74.56426 48.256895 
L 74.582921 48.656947 
L 74.592252 48.398106 
L 74.620244 48.689789 
L 74.694889 48.558525 
L 74.735322 48.34129 
L 74.70422 48.677953 
L 74.809967 48.38807 
L 74.828629 48.686501 
L 74.921935 48.459747 
L 74.940597 48.67305 
L 74.98725 48.158279 
L 75.033903 48.624846 
L 75.074336 48.676704 
L 75.152092 48.217133 
L 75.26717 48.689166 
L 75.27028 48.527461 
L 75.363587 48.627044 
L 75.313823 48.338391 
L 75.376027 48.462574 
L 75.394689 48.383035 
L 75.425791 48.606432 
L 75.435122 48.510723 
L 75.494216 48.682369 
L 75.469334 48.297096 
L 75.54709 48.55497 
L 75.655947 48.406588 
L 75.578192 48.684187 
L 75.659057 48.490385 
L 75.758585 48.673662 
L 75.774136 48.647198 
L 75.789687 48.393805 
L 75.83945 48.687387 
L 75.886104 48.564059 
L 75.935867 48.681939 
L 75.895434 48.356372 
L 75.998071 48.666383 
L 76.069607 48.487193 
L 76.038504 48.682585 
L 76.106929 48.58343 
L 76.12248 48.248187 
L 76.222007 48.678232 
L 76.231338 48.371571 
L 76.309093 48.691992 
L 76.337085 48.542626 
L 76.389959 48.693917 
L 76.408621 48.436622 
L 76.445943 48.662083 
L 76.501927 48.368705 
L 76.455274 48.673985 
L 76.557911 48.516908 
L 76.610785 48.688089 
L 76.567242 48.398585 
L 76.654328 48.640132 
L 76.707202 48.305715 
L 76.669879 48.651844 
L 76.766296 48.493472 
L 76.840941 48.397715 
L 76.847162 48.695241 
L 76.868933 48.509665 
L 76.915586 48.68107 
L 76.937358 48.24295 
L 76.980901 48.624429 
L 77.046216 48.280896 
L 77.074208 48.635715 
L 77.092869 48.434304 
L 77.158184 48.281526 
L 77.136412 48.623496 
L 77.161294 48.481738 
L 77.183065 48.658961 
L 77.217278 48.327752 
L 77.273262 48.640595 
L 77.276372 48.645382 
L 77.288813 48.412144 
L 77.298143 48.681689 
L 77.38834 48.543346 
L 77.39767 48.428623 
L 77.39456 48.610116 
L 77.410111 48.485273 
L 77.413222 48.276131 
L 77.459875 48.646051 
L 77.518969 48.349934 
L 77.540741 48.663027 
L 77.630937 48.63209 
L 77.655819 48.699869 
L 77.746015 48.355779 
L 77.842432 48.678398 
L 77.770897 48.278612 
L 77.857983 48.489556 
L 77.873534 48.672086 
L 77.935739 48.279481 
L 77.976171 48.532208 
L 78.063258 48.665854 
L 78.035266 48.318868 
L 78.075698 48.526492 
L 78.078809 48.417375 
L 78.113021 48.675026 
L 78.187666 48.466294 
L 78.299634 48.694439 
L 78.262312 48.235482 
L 78.302745 48.642388 
L 78.346288 48.6637 
L 78.37428 48.47224 
L 78.38672 48.502204 
L 78.470696 48.676568 
L 78.501799 48.332514 
L 78.598215 48.646446 
L 78.616877 48.555273 
L 78.629318 48.374924 
L 78.679081 48.693092 
L 78.731955 48.462427 
L 78.756837 48.69448 
L 78.819041 48.373308 
L 78.843923 48.628695 
L 78.94345 48.342972 
L 78.856364 48.685537 
L 78.955891 48.476049 
L 79.033646 48.658765 
L 78.968332 48.349551 
L 79.067859 48.607811 
L 79.170496 48.407772 
L 79.126953 48.682291 
L 79.176716 48.596789 
L 79.22337 48.620086 
L 79.22648 48.358687 
L 79.248251 48.502138 
L 79.276243 48.262653 
L 79.316676 48.660397 
L 79.357109 48.591624 
L 79.409983 48.33773 
L 79.391322 48.668394 
L 79.469077 48.530805 
L 79.475297 48.67804 
L 79.50951 48.381049 
L 79.571714 48.548394 
L 79.6588 48.267193 
L 79.593486 48.666638 
L 79.680572 48.520503 
L 79.724115 48.700354 
L 79.742776 48.388848 
L 79.780099 48.453977 
L 79.783209 48.345254 
L 79.79254 48.676758 
L 79.885847 48.527353 
L 79.960492 48.662025 
L 79.907618 48.387986 
L 79.994704 48.614219 
L 80.028917 48.323768 
L 80.004035 48.657632 
L 80.106672 48.497585 
L 80.21553 48.671741 
L 80.153325 48.418584 
L 80.224861 48.5942 
L 80.246632 48.210955 
L 80.271514 48.687281 
L 80.336828 48.536488 
L 80.371041 48.669439 
L 80.3586 48.199511 
L 80.430135 48.597951 
L 80.467458 48.240426 
L 80.455017 48.698351 
L 80.542103 48.387681 
L 80.563875 48.681496 
L 80.657181 48.58179 
L 80.678953 48.461122 
L 80.666512 48.681287 
L 80.766039 48.585703 
L 80.825133 48.67796 
L 80.78781 48.417428 
L 80.878007 48.643169 
L 80.943321 48.386663 
L 80.91844 48.704347 
L 80.993085 48.548318 
L 81.014856 48.692031 
L 81.086391 48.397157 
L 81.101943 48.601267 
L 81.20458 48.42702 
L 81.114383 48.68556 
L 81.21391 48.545189 
L 81.245013 48.371206 
L 81.285446 48.694119 
L 81.322768 48.594817 
L 81.375642 48.694872 
L 81.35076 48.254169 
L 81.428516 48.521668 
L 81.506271 48.41962 
L 81.481389 48.658046 
L 81.540484 48.434739 
L 81.602688 48.693409 
L 81.643121 48.411287 
L 81.652452 48.510421 
L 81.748868 48.365375 
L 81.733317 48.675247 
L 81.758199 48.590165 
L 81.857726 48.075499 
L 81.804852 48.665335 
L 81.876387 48.463449 
L 81.888828 48.66683 
L 81.975914 48.441192 
L 81.988355 48.581218 
L 82.097213 48.21228 
L 82.05989 48.682892 
L 82.100323 48.27428 
L 82.118985 48.667342 
L 82.215401 48.500548 
L 82.252724 48.646498 
L 82.227842 48.461633 
L 82.293157 48.562815 
L 82.377133 48.382898 
L 82.349141 48.692373 
L 82.402015 48.598214 
L 82.420676 48.671757 
L 82.523313 48.39757 
L 82.585518 48.672462 
L 82.635281 48.504437 
L 82.644612 48.361221 
L 82.709926 48.67304 
L 82.744139 48.515026 
L 82.834335 48.421385 
L 82.815674 48.668321 
L 82.846776 48.461068 
L 82.89965 48.634398 
L 82.936972 48.302366 
L 82.958744 48.49834 
L 83.005397 48.445945 
L 82.996067 48.676378 
L 83.067602 48.523329 
L 83.142247 48.676694 
L 83.083153 48.352848 
L 83.160908 48.532291 
L 83.176459 48.341215 
L 83.251105 48.661176 
L 83.269766 48.562381 
L 83.341301 48.687394 
L 83.369293 48.398399 
L 83.391065 48.661231 
L 83.406616 48.386731 
L 83.481261 48.584099 
L 83.559016 48.68074 
L 83.546576 48.392203 
L 83.587008 48.490048 
L 83.695866 48.666884 
L 83.680315 48.421203 
L 83.698976 48.598493 
L 83.761181 48.397873 
L 83.798503 48.686945 
L 83.807834 48.555025 
L 83.876259 48.686834 
L 83.89181 48.453633 
L 83.910471 48.599646 
L 83.913581 48.408904 
L 83.916692 48.693275 
L 84.019329 48.594089 
L 84.081533 48.682218 
L 84.062872 48.370399 
L 84.128187 48.540181 
L 84.165509 48.694918 
L 84.153068 48.26652 
L 84.240155 48.577006 
L 84.296139 48.341014 
L 84.261926 48.650732 
L 84.352123 48.542078 
L 84.45787 48.650191 
L 84.432988 48.268651 
L 84.46098 48.588166 
L 84.529405 48.32745 
L 84.557397 48.65277 
L 84.572948 48.439458 
L 84.641373 48.674303 
L 84.675585 48.318959 
L 84.684916 48.546851 
L 84.709798 48.658588 
L 84.759561 48.340372 
L 84.793774 48.560109 
L 84.874639 48.408311 
L 84.799994 48.66146 
L 84.899521 48.545599 
L 84.946175 48.685594 
L 84.933734 48.432848 
L 85.005269 48.477591 
L 85.011489 48.374128 
L 85.02082 48.633537 
L 85.111016 48.560215 
L 85.216764 48.678622 
L 85.123457 48.371765 
L 85.219874 48.673981 
L 85.247866 48.433802 
L 85.291409 48.677126 
L 85.328732 48.570324 
L 85.403377 48.695019 
L 85.341173 48.454888 
L 85.434479 48.544639 
L 85.4407 48.312994 
L 85.474912 48.673085 
L 85.540227 48.480541 
L 85.58377 48.665677 
L 85.599321 48.448053 
L 85.652195 48.654273 
L 85.754832 48.399328 
L 85.714399 48.686728 
L 85.761052 48.501728 
L 85.779714 48.404132 
L 85.87302 48.667934 
L 85.932114 48.38146 
L 85.901012 48.677153 
L 85.988098 48.504564 
L 86.084515 48.39503 
L 86.031641 48.685814 
L 86.090736 48.598402 
L 86.196483 48.697648 
L 86.15605 48.404536 
L 86.202703 48.645063 
L 86.258687 48.390766 
L 86.286679 48.688192 
L 86.320892 48.456198 
L 86.358214 48.683019 
L 86.383096 48.423471 
L 86.43908 48.627449 
L 86.454631 48.428674 
L 86.523056 48.693877 
L 86.557269 48.552372 
L 86.647465 48.685031 
L 86.607032 48.426421 
L 86.666126 48.517401 
L 86.743882 48.329934 
L 86.728331 48.690707 
L 86.762543 48.558267 
L 86.768764 48.656664 
L 86.86518 48.378708 
L 86.868291 48.316855 
L 86.936715 48.700362 
L 86.970928 48.387139 
L 87.033132 48.622594 
L 87.076675 48.298062 
L 87.079786 48.402461 
L 87.098447 48.199554 
L 87.123329 48.650169 
L 87.179313 48.579181 
L 87.250848 48.686234 
L 87.269509 48.335732 
L 87.28195 48.573131 
L 87.375256 48.219925 
L 87.300611 48.666888 
L 87.390808 48.556401 
L 87.403248 48.661816 
L 87.434351 48.443512 
L 87.443681 48.487509 
L 87.505886 48.257982 
L 87.471673 48.670563 
L 87.546319 48.527925 
L 87.620964 48.679923 
L 87.645846 48.357196 
L 87.658286 48.6084 
L 87.695609 48.67563 
L 87.71116 48.311432 
L 87.748483 48.647029 
L 87.85423 48.311961 
L 87.795136 48.681275 
L 87.860451 48.496388 
L 87.903994 48.671441 
L 87.931986 48.474144 
L 88.025292 48.684404 
L 88.009741 48.452153 
L 88.043954 48.591827 
L 88.099938 48.289284 
L 88.12793 48.682946 
L 88.13726 48.492966 
L 88.239898 48.695375 
L 88.190134 48.408667 
L 88.246118 48.645624 
L 88.320763 48.309447 
L 88.339425 48.672368 
L 88.354976 48.593398 
L 88.454503 48.666941 
L 88.379857 48.401242 
L 88.460723 48.544198 
L 88.56025 48.325937 
L 88.476274 48.66542 
L 88.569581 48.579653 
L 88.625565 48.659773 
L 88.582022 48.432135 
L 88.634896 48.582045 
L 88.638006 48.394179 
L 88.706431 48.672996 
L 88.746863 48.499707 
L 88.756194 48.379596 
L 88.771745 48.692739 
L 88.815288 48.65073 
L 88.818399 48.682847 
L 88.849501 48.286836 
L 88.921036 48.643241 
L 89.042334 48.429371 
L 88.936587 48.678421 
L 89.045445 48.525067 
L 89.064106 48.680608 
L 89.051665 48.432899 
L 89.163633 48.647214 
L 89.166743 48.668444 
L 89.210286 48.479169 
L 89.238278 48.570966 
L 89.334695 48.697181 
L 89.350246 48.367643 
L 89.446663 48.680394 
L 89.428002 48.357697 
L 89.471545 48.618269 
L 89.480875 48.438134 
L 89.536859 48.690756 
L 89.583513 48.597982 
L 89.636386 48.693259 
L 89.620835 48.490444 
L 89.673709 48.583448 
L 89.704811 48.334126 
L 89.714142 48.694648 
L 89.788787 48.408053 
L 89.801228 48.682951 
L 89.906976 48.574668 
L 89.959849 48.314252 
L 89.96607 48.633011 
L 90.009613 48.554389 
L 90.087368 48.671952 
L 90.10914 48.424629 
L 90.121581 48.578881 
L 90.134022 48.448421 
L 90.158903 48.701908 
L 90.227328 48.648194 
L 90.339296 48.379913 
L 90.357957 48.557889 
L 90.429493 48.670008 
L 90.454374 48.444674 
L 90.466815 48.626311 
L 90.578783 48.386436 
L 90.550791 48.687208 
L 90.581893 48.500964 
L 90.603665 48.685211 
L 90.687641 48.39716 
L 90.693861 48.645793 
L 90.743625 48.393915 
L 90.746735 48.665535 
L 90.805829 48.57564 
L 90.808939 48.67305 
L 90.846262 48.360682 
L 90.914687 48.628685 
L 90.980001 48.371308 
L 90.945789 48.674487 
L 91.026655 48.533756 
L 91.082639 48.671963 
L 91.035985 48.433694 
L 91.135512 48.663514 
L 91.231929 48.380671 
L 91.200827 48.693485 
L 91.24437 48.534598 
L 91.347007 48.684347 
L 91.272362 48.515216 
L 91.353228 48.641754 
L 91.359448 48.328513 
L 91.415432 48.6889 
L 91.462086 48.584598 
L 91.555392 48.693519 
L 91.533621 48.469756 
L 91.574053 48.6857 
L 91.676691 48.33562 
L 91.633148 48.690513 
L 91.686021 48.616946 
L 91.689132 48.673179 
L 91.695352 48.393723 
L 91.794879 48.637153 
L 91.797989 48.440129 
L 91.900627 48.693241 
L 91.903737 48.617625 
L 91.925508 48.654955 
L 91.94728 48.480808 
L 92.034366 48.388412 
L 92.003264 48.691354 
L 92.053027 48.52377 
L 92.08413 48.672421 
L 92.146334 48.35833 
L 92.164995 48.633763 
L 92.171216 48.4592 
L 92.183657 48.666441 
L 92.273853 48.657168 
L 92.276963 48.679437 
L 92.292514 48.324726 
L 92.351609 48.542165 
L 92.451136 48.322066 
L 92.410703 48.640591 
L 92.463576 48.440757 
L 92.476017 48.305353 
L 92.51023 48.665204 
L 92.569324 48.552232 
L 92.631528 48.67997 
L 92.606647 48.374402 
L 92.65952 48.448408 
L 92.662631 48.284863 
L 92.724835 48.681977 
L 92.765268 48.435476 
L 92.815031 48.690065 
L 92.774598 48.362271 
L 92.877236 48.492655 
L 92.880346 48.39784 
L 92.899007 48.687666 
L 92.982983 48.538177 
L 93.060739 48.691066 
L 93.001644 48.345757 
L 93.091841 48.648187 
L 93.185147 48.447821 
L 93.166486 48.683422 
L 93.203809 48.556646 
L 93.269123 48.682831 
L 93.244242 48.429098 
L 93.312666 48.492592 
L 93.337548 48.424793 
L 93.321997 48.654294 
L 93.387312 48.661131 
L 93.390422 48.686278 
L 93.409083 48.394791 
L 93.489949 48.586874 
L 93.558374 48.656939 
L 93.527272 48.461164 
L 93.567705 48.613571 
L 93.667232 48.442006 
L 93.583256 48.694392 
L 93.679672 48.551439 
L 93.723216 48.663636 
L 93.716995 48.388036 
L 93.78542 48.619626 
L 93.78853 48.427301 
L 93.875616 48.680547 
L 93.894278 48.601122 
L 93.953372 48.649168 
L 93.919159 48.344036 
L 94.003135 48.601035 
L 94.049789 48.435915 
L 94.052899 48.693538 
L 94.108883 48.54599 
L 94.111993 48.693546 
L 94.195969 48.428349 
L 94.21463 48.428771 
L 94.217741 48.412801 
L 94.242622 48.644632 
L 94.289276 48.579923 
L 94.323488 48.694766 
L 94.34837 48.42814 
L 94.398133 48.538945 
L 94.49144 48.499501 
L 94.419905 48.674829 
L 94.503881 48.58513 
L 94.600298 48.703722 
L 94.510101 48.462648 
L 94.609628 48.468655 
L 94.702935 48.697099 
L 94.63451 48.43644 
L 94.702935 48.697099 
" clip-path="url(#pa5811f2608)" style="fill: none; stroke: #d62728; stroke-width: 0.5; stroke-linecap: square"/>
   </g>
  </g>
 </g>
 <defs>
  <clipPath id="pa5811f2608">
   <rect x="0" y="-0" width="99.212598" height="51.023622"/>
  </clipPath>
 </defs>
</svg>
