<?xml version="1.0" encoding="utf-8" standalone="no"?>
<!DOCTYPE svg PUBLIC "-//W3C//DTD SVG 1.1//EN"
  "http://www.w3.org/Graphics/SVG/1.1/DTD/svg11.dtd">
<svg xmlns:xlink="http://www.w3.org/1999/xlink" width="99.212598pt" height="51.023622pt" viewBox="0 0 99.212598 51.023622" xmlns="http://www.w3.org/2000/svg" version="1.1">
 <metadata>
  <rdf:RDF xmlns:dc="http://purl.org/dc/elements/1.1/" xmlns:cc="http://creativecommons.org/ns#" xmlns:rdf="http://www.w3.org/1999/02/22-rdf-syntax-ns#">
   <cc:Work>
    <dc:type rdf:resource="http://purl.org/dc/dcmitype/StillImage"/>
    <dc:date>2024-10-30T10:51:13.985000</dc:date>
    <dc:format>image/svg+xml</dc:format>
    <dc:creator>
     <cc:Agent>
      <dc:title>Matplotlib v3.8.4, https://matplotlib.org/</dc:title>
     </cc:Agent>
    </dc:creator>
   </cc:Work>
  </rdf:RDF>
 </metadata>
 <defs>
  <style type="text/css">*{stroke-linejoin: round; stroke-linecap: butt}</style>
 </defs>
 <g id="figure_1">
  <g id="patch_1">
   <path d="M 0 51.023622 
L 99.212598 51.023622 
L 99.212598 0 
L 0 0 
L 0 51.023622 
z
" style="fill: none"/>
  </g>
  <g id="axes_1">
   <g id="patch_2">
    <path d="M 0 51.023622 
L 99.212598 51.023622 
L 99.212598 -0 
L 0 -0 
L 0 51.023622 
z
" style="fill: none"/>
   </g>
   <g id="matplotlib.axis_1">
    <g id="xtick_1"/>
    <g id="xtick_2"/>
   </g>
   <g id="matplotlib.axis_2">
    <g id="ytick_1"/>
    <g id="ytick_2"/>
   </g>
   <g id="line2d_1">
    <path d="M 4.509664 41.253148 
L 4.59364 48.338048 
L 4.634072 43.417739 
L 4.721159 24.673692 
L 4.767812 36.797033 
L 4.786473 45.607678 
L 4.836237 13.487901 
L 4.87667 2.319256 
L 4.926433 25.376672 
L 4.960645 46.463558 
L 5.044621 30.456959 
L 5.091275 24.760029 
L 5.16903 26.083183 
L 5.203243 24.737123 
L 5.287219 35.821389 
L 5.414738 41.81282 
L 5.545367 48.240955 
L 5.492493 39.073951 
L 5.557808 46.407796 
L 5.610681 41.416542 
L 5.666665 46.121217 
L 5.679106 46.873213 
L 5.73509 42.024865 
L 5.750641 42.333464 
L 5.787964 44.567957 
L 5.853279 41.268855 
L 5.915483 28.745623 
L 5.980798 37.750651 
L 6.00879 36.971379 
L 6.043002 39.51728 
L 6.095876 44.668062 
L 6.126978 36.545421 
L 6.14875 31.58367 
L 6.217174 45.07235 
L 6.242056 48.165888 
L 6.29493 40.455548 
L 6.310481 39.76919 
L 6.335363 42.610329 
L 6.363355 47.582972 
L 6.425559 38.209666 
L 6.459772 37.051562 
L 6.497094 39.267094 
L 6.633944 48.135768 
L 6.658826 45.54078 
L 6.789455 42.554811 
L 6.736581 47.147158 
L 6.801896 42.566122 
L 6.854769 46.347517 
L 6.938745 44.950754 
L 6.941856 44.698881 
L 6.985399 46.981683 
L 7.022721 46.724353 
L 7.044493 47.877689 
L 7.119138 45.590406 
L 7.122248 45.570481 
L 7.14091 46.142185 
L 7.172012 48.388167 
L 7.262208 47.488493 
L 7.386617 43.768156 
L 7.395948 44.316154 
L 7.42083 48.641086 
L 7.467483 43.163723 
L 7.523467 46.626429 
L 7.560789 42.655158 
L 7.638545 45.817636 
L 7.663427 48.251424 
L 7.719411 42.410767 
L 7.722521 42.800992 
L 7.734962 42.309014 
L 7.797166 48.00964 
L 7.806497 48.217501 
L 7.812717 47.732558 
L 7.85315 43.787317 
L 7.906024 48.34575 
L 7.912244 48.111 
L 7.971338 48.565369 
L 8.008661 46.313718 
L 8.033543 45.495259 
L 8.089527 47.477874 
L 8.095747 48.518711 
L 8.13307 44.382604 
L 8.179723 45.99724 
L 8.254369 46.710745 
L 8.27614 45.442345 
L 8.291691 45.089539 
L 8.329014 47.778519 
L 8.335234 48.533055 
L 8.378777 43.630887 
L 8.428541 46.29132 
L 8.465863 42.733043 
L 8.500076 48.545605 
L 8.546729 44.191117 
L 8.584052 42.483744 
L 8.621374 45.172847 
L 8.643146 44.207026 
L 8.69602 47.93772 
L 8.773775 46.685303 
L 8.888853 45.810223 
L 8.863972 48.140701 
L 8.891964 45.941513 
L 9.050585 48.513606 
L 8.901294 45.722323 
L 9.066136 47.675635 
L 9.091018 46.475756 
L 9.168773 48.556637 
L 9.25897 46.764984 
L 9.283851 47.713802 
L 9.308733 48.670202 
L 9.383378 47.192882 
L 9.439362 45.685569 
L 9.41137 47.552252 
L 9.470465 47.521301 
L 9.479795 47.884209 
L 9.495346 46.755278 
L 9.532669 43.697544 
L 9.594873 47.535026 
L 9.601094 48.400013 
L 9.629086 44.975852 
L 9.703731 47.568722 
L 9.781487 46.778217 
L 9.747274 48.084099 
L 9.821919 47.083352 
L 9.83436 46.773992 
L 9.859242 48.470126 
L 9.909006 47.563712 
L 9.927667 48.313368 
L 9.96499 46.664529 
L 10.017863 47.453385 
L 10.039635 48.424892 
L 10.073847 46.48188 
L 10.11117 46.954243 
L 10.142272 46.186405 
L 10.182705 47.536963 
L 10.220028 46.676748 
L 10.313334 47.968175 
L 10.282232 46.392537 
L 10.331996 46.899611 
L 10.434633 45.966542 
L 10.39731 47.261462 
L 10.443963 46.619401 
L 10.512388 48.201818 
L 10.487507 45.534131 
L 10.546601 45.53754 
L 10.574593 47.497262 
L 10.621246 43.368794 
L 10.624356 43.374105 
L 10.627466 43.31978 
L 10.643018 44.571129 
L 10.758096 48.441246 
L 10.770537 48.031865 
L 10.863843 47.00486 
L 10.82652 48.203878 
L 10.876284 47.885628 
L 10.882504 48.557352 
L 10.96026 46.386611 
L 10.975811 46.749242 
L 11.034905 48.339809 
L 11.087779 46.941888 
L 11.196637 46.436297 
L 11.140653 48.618307 
L 11.199747 46.656423 
L 11.227739 48.062096 
L 11.333486 47.085111 
L 11.349037 46.644034 
L 11.38947 48.02911 
L 11.426793 47.345196 
L 11.476556 48.553551 
L 11.5201 46.569481 
L 11.572973 45.840693 
L 11.594745 47.5569 
L 11.597855 47.530133 
L 11.644508 48.039957 
L 11.647619 47.985932 
L 11.660059 48.520692 
L 11.703603 46.265745 
L 11.753366 47.584346 
L 11.859114 45.99953 
L 11.796909 48.665423 
L 11.871554 46.342308 
L 11.939979 48.60514 
L 11.986633 46.996951 
L 12.023955 48.514289 
L 12.117262 47.72587 
L 12.219899 47.223159 
L 12.176356 48.148755 
L 12.23545 47.278645 
L 12.319426 48.610955 
L 12.263442 46.581207 
L 12.347418 47.420147 
L 12.409622 48.315964 
L 12.453166 47.470191 
L 12.484268 46.893883 
L 12.51226 48.441815 
L 12.562023 47.420576 
L 12.577574 48.488158 
L 12.599346 46.285949 
L 12.608677 45.858216 
L 12.645999 48.63714 
L 12.692653 47.586366 
L 12.701983 48.443735 
L 12.736196 46.831787 
L 12.80462 48.032786 
L 12.966352 43.886397 
L 12.907258 48.343825 
L 12.975683 44.524158 
L 13.118753 48.568159 
L 13.131194 48.391805 
L 13.193398 46.908725 
L 13.236941 48.620315 
L 13.243161 48.22286 
L 13.274264 48.569524 
L 13.311586 47.538528 
L 13.339578 47.990114 
L 13.454656 47.058343 
L 13.414224 48.425462 
L 13.467097 47.3453 
L 13.495089 48.027631 
L 13.572845 47.070048 
L 13.575955 47.321825 
L 13.585286 47.492528 
L 13.697254 48.626521 
L 13.703474 48.614344 
L 13.78123 47.645743 
L 13.818552 48.202206 
L 13.830993 48.582646 
L 13.905638 46.817378 
L 13.914969 47.294966 
L 13.989614 47.606282 
L 13.961622 46.165084 
L 13.998945 46.837775 
L 14.014496 45.84897 
L 14.051819 48.531137 
L 14.098472 48.405099 
L 14.157566 48.596859 
L 14.182448 47.538427 
L 14.188668 47.750492 
L 14.253983 46.457444 
L 14.285085 48.212427 
L 14.294416 48.21168 
L 14.306857 48.585867 
L 14.331738 47.610418 
L 14.400163 46.930012 
L 14.365951 48.228109 
L 14.440596 47.639468 
L 14.481029 46.790672 
L 14.49969 48.254973 
L 14.512131 47.927559 
L 14.552564 48.162472 
L 14.608548 47.518602 
L 14.614769 47.825039 
L 14.676973 47.118315 
L 14.711185 48.613106 
L 14.714296 48.503779 
L 14.717406 48.612566 
L 14.751618 46.924262 
L 14.804492 47.849641 
L 14.832484 47.449101 
L 14.857366 48.628104 
L 14.891578 48.057398 
L 14.938231 48.587849 
L 14.984885 47.210215 
L 15.047089 48.484695 
L 15.022207 47.187137 
L 15.127955 47.616356 
L 15.143506 47.138116 
L 15.168388 48.402895 
L 15.211931 48.267372 
L 15.224372 48.533146 
L 15.308348 47.733868 
L 15.314568 47.912484 
L 15.358111 47.098646 
L 15.33945 48.654611 
L 15.414095 48.1065 
L 15.423426 48.605379 
L 15.507402 46.667645 
L 15.516732 45.627626 
L 15.557165 48.637925 
L 15.613149 47.370059 
L 15.725117 48.447578 
L 15.728227 48.237339 
L 15.790432 46.729341 
L 15.76244 48.704284 
L 15.837085 48.002192 
L 15.945943 48.419088 
L 15.871297 47.570622 
L 15.949053 48.276834 
L 15.980155 47.433469 
L 16.04547 48.50235 
L 16.061021 47.84705 
L 16.172989 48.551202 
L 16.070351 47.629489 
L 16.179209 48.297069 
L 16.238303 47.655922 
L 16.213422 48.653855 
L 16.294287 47.934686 
L 16.300508 47.842945 
L 16.368933 48.311736 
L 16.381374 48.207753 
L 16.418696 48.64654 
L 16.462239 47.424552 
L 16.465349 47.594192 
L 16.558656 46.62305 
L 16.533774 48.543358 
L 16.571097 47.322584 
L 16.658183 47.948442 
L 16.633301 46.278631 
L 16.673734 46.41681 
L 16.683065 46.039962 
L 16.739049 48.603125 
L 16.776371 47.204924 
L 16.782592 47.105119 
L 16.798143 48.593061 
L 16.860347 48.053753 
L 16.916331 48.474941 
L 16.89456 47.419766 
L 16.969205 48.126527 
L 17.015858 46.934319 
L 16.981646 48.500273 
L 17.084283 47.786909 
L 17.158929 48.666476 
L 17.102945 47.687585 
L 17.196251 47.886661 
L 17.233574 46.997623 
L 17.292668 48.304974 
L 17.295778 48.211508 
L 17.298888 48.369803 
L 17.385975 47.436809 
L 17.389085 47.548607 
L 17.413967 47.175266 
L 17.441959 48.241709 
L 17.491722 47.703994 
L 17.538375 48.688882 
L 17.60058 48.255484 
L 17.60369 47.573748 
L 17.672115 48.639019 
L 17.709437 48.348496 
L 17.715658 48.523018 
L 17.784083 47.497997 
L 17.790303 47.626635 
L 17.793413 47.262695 
L 17.821405 48.648535 
L 17.89294 48.503238 
L 17.970696 48.606117 
L 17.914712 47.796586 
L 17.973806 48.352158 
L 18.008019 46.996843 
L 18.085774 48.019115 
L 18.107546 48.567807 
L 18.16353 46.976255 
L 18.194632 47.867841 
L 18.213293 46.330183 
L 18.297269 48.23198 
L 18.300379 48.051922 
L 18.381245 48.638701 
L 18.334592 46.984977 
L 18.399906 47.611791 
L 18.415457 47.211279 
L 18.493213 48.413127 
L 18.502544 48.19896 
L 18.580299 48.631358 
L 18.614512 47.694167 
L 18.692267 48.601974 
L 18.639393 47.559602 
L 18.726479 47.924755 
L 18.826006 48.676053 
L 18.766912 47.683139 
L 18.838447 48.331858 
L 18.86955 47.678797 
L 18.891321 48.639889 
L 18.959746 48.006877 
L 19.01573 47.559181 
L 18.984628 48.408544 
L 19.046832 48.314493 
L 19.109036 48.693848 
L 19.137028 47.718419 
L 19.15569 48.259947 
L 19.1588 48.254149 
L 19.168131 48.434032 
L 19.174351 48.432997 
L 19.267658 48.644384 
L 19.242776 47.910406 
L 19.276988 48.48098 
L 19.326752 47.703212 
L 19.30498 48.59314 
L 19.392067 47.838996 
L 19.432499 48.566012 
L 19.491594 46.942981 
L 19.494704 47.131473 
L 19.619113 48.540092 
L 19.532026 46.528032 
L 19.628443 48.286765 
L 19.662656 47.559587 
L 19.693758 48.442924 
L 19.737301 48.347412 
L 19.774624 47.692421 
L 19.793285 48.453842 
L 19.836828 48.333925 
L 19.86793 48.599354 
L 19.914583 47.46727 
L 19.939465 47.96285 
L 20.035882 47.421808 
L 19.961237 48.574526 
L 20.045213 47.876582 
L 20.15407 48.663947 
L 20.163401 48.394413 
L 20.188283 47.580822 
L 20.225605 48.466336 
L 20.269149 48.404884 
L 20.281589 48.700159 
L 20.362455 47.508678 
L 20.368676 47.863414 
L 20.387337 47.234284 
L 20.471313 48.441664 
L 20.477533 47.923703 
L 20.558399 48.557485 
L 20.56773 47.884266 
L 20.595722 48.162954 
L 20.682808 47.606744 
L 20.645485 48.689859 
L 20.704579 48.070334 
L 20.735682 48.360569 
L 20.773004 47.583594 
L 20.810327 48.195931 
L 20.863201 47.352912 
L 20.888082 48.523184 
L 20.922295 48.088041 
L 20.925405 47.945061 
L 20.956507 48.627993 
L 21.024932 48.350829 
L 21.065365 48.587521 
L 21.040483 48.021604 
L 21.127569 48.041671 
L 21.177333 47.538898 
L 21.211545 48.397045 
L 21.239537 47.880297 
L 21.27686 46.661986 
L 21.298631 48.243281 
L 21.332844 48.065612 
L 21.360836 48.695559 
L 21.382607 47.595802 
L 21.429261 47.64041 
L 21.441702 47.22557 
L 21.463473 48.255727 
L 21.522567 48.152828 
L 21.563 48.531194 
L 21.625205 47.851641 
L 21.631425 48.434949 
L 21.650086 47.541433 
L 21.721621 48.56931 
L 21.746503 47.939819 
L 21.752724 48.59709 
L 21.84914 47.566378 
L 21.855361 47.909771 
L 21.861581 47.559695 
L 21.886463 48.651899 
L 21.961108 48.064639 
L 21.98599 48.671006 
L 22.057525 47.510894 
L 22.069966 47.508491 
L 22.085517 48.240129 
L 22.094848 48.545911 
L 22.12595 47.947427 
L 22.175713 48.068336 
L 22.188154 47.695672 
L 22.281461 48.390087 
L 22.365437 48.65201 
L 22.309453 47.689015 
L 22.377878 48.336907 
L 22.427641 47.993588 
L 22.41209 48.565623 
L 22.486735 48.21484 
L 22.496066 48.368583 
L 22.573822 47.506437 
L 22.583152 47.748814 
L 22.617365 48.489462 
L 22.598703 47.279355 
L 22.639136 47.343682 
L 22.676459 47.039081 
L 22.660908 48.564121 
L 22.729333 48.133505 
L 22.763545 48.67867 
L 22.797757 47.600869 
L 22.83819 47.995158 
L 22.912836 48.681588 
L 22.959489 48.364443 
L 22.962599 47.853215 
L 23.018583 48.607225 
L 23.071457 48.021821 
L 23.115 47.448546 
L 23.083898 48.401353 
L 23.158543 48.298539 
L 23.236298 48.688139 
L 23.205196 47.552965 
L 23.25496 47.841779 
L 23.25807 47.680224 
L 23.335826 48.588258 
L 23.357597 48.055912 
L 23.40114 48.677381 
L 23.466455 47.848903 
L 23.53799 47.68026 
L 23.494447 48.362786 
L 23.54421 48.12494 
L 23.578423 48.639772 
L 23.603304 47.525209 
L 23.656178 48.30274 
L 23.774367 48.655747 
L 23.68106 47.54561 
L 23.777477 48.602534 
L 23.861453 48.14356 
L 23.82102 48.644219 
L 23.889445 48.542736 
L 23.942318 47.50977 
L 23.908106 48.630641 
L 24.007633 48.406011 
L 24.020074 48.641212 
L 24.097829 47.674904 
L 24.11027 48.192429 
L 24.175585 47.546417 
L 24.153813 48.295833 
L 24.225348 48.104308 
L 24.234679 48.568274 
L 24.315545 47.400569 
L 24.337316 48.412415 
L 24.424403 47.569672 
L 24.38708 48.479013 
L 24.452395 47.740375 
L 24.508379 48.344223 
L 24.483497 47.55663 
L 24.567473 47.986754 
L 24.583024 47.766489 
L 24.601685 48.472586 
L 24.67322 48.150288 
L 24.732314 47.160448 
L 24.691881 48.632811 
L 24.766527 47.881439 
L 24.791409 48.664098 
L 24.81629 47.737574 
L 24.875384 48.037024 
L 24.984242 47.238152 
L 24.928258 48.563064 
L 24.987352 47.569105 
L 25.024675 48.64335 
L 25.105541 48.232932 
L 25.124202 48.640595 
L 25.211288 48.173 
L 25.217509 48.454021 
L 25.254831 48.036117 
L 25.23306 48.609275 
L 25.326366 48.364701 
L 25.429004 48.686756 
L 25.354358 47.957066 
L 25.441445 48.570078 
L 25.472547 47.826285 
L 25.556523 48.255653 
L 25.584515 48.662783 
L 25.66227 48.023683 
L 25.671601 48.576046 
L 25.724475 47.804341 
L 25.684042 48.60556 
L 25.780459 48.406939 
L 25.820891 48.644076 
L 25.836442 47.293984 
L 25.876875 47.812886 
L 25.879986 47.755603 
L 25.907978 48.592109 
L 25.967072 48.039396 
L 25.982623 48.626347 
L 26.026166 47.466052 
L 26.069709 47.6864 
L 26.072819 47.687138 
L 26.075929 47.545277 
L 26.169236 48.187623 
L 26.175456 48.463597 
L 26.259432 47.508455 
L 26.268763 47.678967 
L 26.327857 47.517294 
L 26.284314 48.468159 
L 26.36207 47.771475 
L 26.464707 48.577292 
L 26.421164 47.751631 
L 26.477148 48.349714 
L 26.561124 47.881903 
L 26.582895 48.572313 
L 26.586005 48.389715 
L 26.592226 48.629686 
L 26.6451 48.055705 
L 26.691753 48.301748 
L 26.729076 47.364052 
L 26.78817 48.609185 
L 26.803721 48.227841 
L 26.872146 47.890094 
L 26.828603 48.407602 
L 26.909468 48.049932 
L 27.008995 47.900331 
L 27.024547 48.645131 
L 27.055649 47.86571 
L 27.139625 48.137113 
L 27.186278 47.873866 
L 27.254703 48.64314 
L 27.372891 47.579245 
L 27.416434 48.637171 
L 27.49108 48.515023 
L 27.547063 47.500651 
L 27.525292 48.591048 
L 27.612378 47.722402 
L 27.674583 48.579053 
L 27.746118 48.390489 
L 27.767889 47.54492 
L 27.789661 48.44449 
L 27.861196 47.952024 
L 27.889188 47.312495 
L 27.954502 48.61123 
L 27.970053 47.979939 
L 28.082021 48.66339 
L 28.047809 47.281313 
L 28.088242 48.43049 
L 28.113124 47.493072 
L 28.175328 48.648527 
L 28.193989 48.251152 
L 28.20332 48.686749 
L 28.262414 47.901844 
L 28.299737 48.046531 
L 28.358831 47.767498 
L 28.34639 48.50595 
L 28.374382 48.276179 
L 28.417925 48.607431 
L 28.433476 47.682718 
L 28.48635 48.438224 
L 28.526783 48.558111 
L 28.542334 47.962359 
L 28.548554 48.107385 
L 28.551665 47.749393 
L 28.604538 48.616089 
L 28.657412 48.065815 
L 28.672963 48.561094 
L 28.760049 47.907619 
L 28.76938 48.296919 
L 28.875127 48.6556 
L 28.840915 47.729943 
L 28.878238 48.382529 
L 28.940442 47.909367 
L 28.924891 48.620055 
L 28.987095 48.461816 
L 28.990206 48.461944 
L 28.993316 48.360752 
L 29.071071 47.812541 
L 29.05552 48.665576 
L 29.105284 48.244297 
L 29.186149 48.654519 
L 29.145717 47.976771 
L 29.217252 48.464476 
L 29.263905 47.75962 
L 29.245244 48.606546 
L 29.326109 48.472823 
L 29.413196 48.61663 
L 29.347881 47.850561 
L 29.416306 48.132663 
L 29.419416 48.136724 
L 29.515833 48.580308 
L 29.469179 47.672333 
L 29.528274 48.137787 
L 29.590478 47.649682 
L 29.61847 48.599791 
L 29.637131 48.233586 
L 29.649572 47.72159 
L 29.702446 48.62458 
L 29.739769 48.341197 
L 29.826855 48.632602 
L 29.783312 48.079107 
L 29.848626 48.559738 
L 29.854847 47.899708 
L 29.935712 48.59983 
L 29.960594 48.317543 
L 30.03835 48.624834 
L 30.019688 48.0944 
L 30.069452 48.490849 
L 30.122326 47.969467 
L 30.097444 48.677442 
L 30.18142 48.27854 
L 30.293388 48.615079 
L 30.215632 47.8503 
L 30.296498 48.576841 
L 30.408466 47.938395 
L 30.355592 48.630886 
L 30.417797 48.24435 
L 30.507993 48.499941 
L 30.46134 47.655797 
L 30.523544 48.267052 
L 30.526654 47.955044 
L 30.6013 48.561253 
L 30.632402 48.242624 
L 30.644843 48.172894 
L 30.647953 48.337518 
L 30.651063 48.284138 
L 30.682165 47.788696 
L 30.763031 48.660705 
L 30.859448 47.995376 
L 30.871889 48.401202 
L 30.878109 48.633515 
L 30.937203 47.69777 
L 30.983857 48.560066 
L 31.092714 47.817448 
L 31.008738 48.595066 
L 31.105155 48.34406 
L 31.108265 48.676197 
L 31.164249 47.129648 
L 31.217123 48.494287 
L 31.269997 47.765884 
L 31.260666 48.644861 
L 31.329091 48.181743 
L 31.406847 48.658921 
L 31.391295 47.602929 
L 31.431728 47.696922 
L 31.537476 47.457802 
L 31.509484 48.450558 
L 31.543696 47.499524 
L 31.584129 48.557822 
L 31.664995 48.346953 
L 31.668105 48.491915 
L 31.711648 47.772702 
L 31.770742 48.244283 
L 31.798734 47.926834 
L 31.839167 48.685794 
L 31.867159 48.521064 
L 31.938694 48.590854 
L 31.898261 47.778122 
L 31.960466 48.301871 
L 32.028891 47.965819 
L 32.007119 48.653363 
L 32.069323 48.394283 
L 32.128418 47.766236 
L 32.103536 48.662618 
L 32.175071 48.486585 
L 32.209283 48.661083 
L 32.262157 47.726535 
L 32.280818 48.540712 
L 32.364794 48.022146 
L 32.343023 48.654413 
L 32.392786 48.469229 
L 32.495424 48.654582 
L 32.43944 47.98627 
L 32.501644 48.53556 
L 32.529636 48.196371 
L 32.59184 48.674776 
L 32.610502 48.427146 
L 32.644714 48.654728 
L 32.682037 48.002897 
L 32.719359 48.483136 
L 32.800225 48.037655 
L 32.744241 48.662516 
L 32.834438 48.146027 
L 32.86865 48.677802 
L 32.933965 47.908571 
L 32.946406 48.294638 
L 33.002389 48.65063 
L 33.042822 48.024433 
L 33.045933 48.222389 
L 33.111247 47.717148 
L 33.142349 48.624372 
L 33.164121 47.845652 
L 33.176562 48.559494 
L 33.216995 47.842653 
L 33.279199 48.391774 
L 33.285419 48.098556 
L 33.29786 47.668668 
L 33.350734 48.648151 
L 33.394277 47.962706 
L 33.416049 48.521331 
L 33.447151 47.785214 
L 33.506245 48.257755 
L 33.528017 48.667831 
L 33.543568 47.859933 
L 33.621323 48.517938 
L 33.624433 48.555857 
L 33.661756 47.714227 
L 33.692858 48.09592 
L 33.702189 47.856485 
L 33.733291 48.54791 
L 33.783055 48.20228 
L 33.85148 48.6468 
L 33.891912 48.184965 
L 33.898133 48.568915 
L 33.916794 48.065498 
L 33.966558 48.665484 
L 34.010101 48.420379 
L 34.025652 48.571413 
L 34.041203 48.073682 
L 34.115848 48.484101 
L 34.199824 47.807036 
L 34.218486 48.552271 
L 34.227816 48.251746 
L 34.327343 48.643238 
L 34.265139 48.074508 
L 34.346005 48.445729 
L 34.42687 47.863427 
L 34.448642 48.559761 
L 34.451752 48.359308 
L 34.464193 48.667821 
L 34.557499 48.174131 
L 34.588602 47.870622 
L 34.613483 48.49503 
L 34.644586 48.1035 
L 34.663247 48.670342 
L 34.70368 47.957161 
L 34.759664 48.601297 
L 34.859191 47.947986 
L 34.84675 48.688445 
L 34.874742 48.249797 
L 34.958718 48.64969 
L 34.918285 47.903829 
L 34.974269 47.980561 
L 34.980489 47.61264 
L 35.030253 48.590249 
L 35.080016 48.11762 
L 35.142221 48.634587 
L 35.163992 47.851154 
L 35.188874 48.424992 
L 35.26974 47.25545 
L 35.288401 48.595303 
L 35.300842 48.166728 
L 35.356826 48.035517 
L 35.41592 48.534237 
L 35.487455 47.798261 
L 35.509227 48.620316 
L 35.530998 48.332376 
L 35.605644 48.175482 
L 35.583872 48.678123 
L 35.614974 48.34232 
L 35.618085 48.591275 
L 35.652297 48.197013 
L 35.726942 48.577263 
L 35.733163 48.612906 
L 35.748714 48.159209 
L 35.779816 48.202821 
L 35.866902 47.863153 
L 35.84202 48.613953 
L 35.891784 48.03681 
L 35.98198 48.616543 
L 35.969539 47.887476 
L 36.009972 48.605526 
L 36.069066 48.052308 
L 36.106389 48.648529 
L 36.12505 48.507626 
L 36.143712 48.666166 
L 36.205916 48.326525 
L 36.233908 48.476515 
L 36.249459 48.58062 
L 36.296112 47.888843 
L 36.333435 48.482667 
L 36.367648 47.853219 
L 36.436072 48.576373 
L 36.445403 48.314634 
L 36.510718 48.672254 
L 36.473395 47.852479 
L 36.554261 48.310727 
L 36.563591 48.065798 
L 36.582253 48.597236 
L 36.591583 48.434537 
L 36.697331 48.692872 
L 36.68178 47.839348 
L 36.700441 48.540205 
L 36.765756 48.553392 
L 36.815519 47.811852 
L 36.887054 48.620475 
L 36.871503 47.809241 
L 36.927487 48.510981 
L 36.9617 47.789121 
L 36.986581 48.65308 
L 37.039455 48.210722 
L 37.064337 48.634312 
L 37.082998 47.394137 
L 37.154533 48.461111 
L 37.232289 47.696444 
L 37.204297 48.687732 
L 37.263391 48.540259 
L 37.275832 48.659403 
L 37.310044 48.089745 
L 37.347367 48.303347 
L 37.434453 47.651028 
L 37.409571 48.632203 
L 37.456225 48.311811 
L 37.465555 48.658126 
L 37.493547 47.672208 
L 37.565082 48.231446 
L 37.611736 48.676243 
L 37.67705 47.903609 
L 37.717483 48.610005 
L 37.792128 48.359115 
L 37.823231 47.983141 
L 37.854333 48.501347 
L 37.863663 48.380622 
L 37.96319 48.672613 
L 37.944529 48.118996 
L 37.975631 48.535899 
L 37.981852 48.652895 
L 38.012954 48.150991 
L 38.084489 48.561958 
L 38.168465 48.077479 
L 38.115591 48.641663 
L 38.196457 48.494281 
L 38.199567 48.505878 
L 38.205788 48.20632 
L 38.208898 48.292574 
L 38.218228 47.897805 
L 38.261772 48.594783 
L 38.314645 48.539213 
L 38.330196 48.677473 
L 38.370629 47.966225 
L 38.407952 48.114227 
L 38.429723 48.535257 
L 38.51681 47.828987 
L 38.538581 48.630771 
L 38.563463 47.498138 
L 38.634998 48.599906 
L 38.672321 48.093269 
L 38.728305 48.687286 
L 38.750076 48.432496 
L 38.768737 48.650573 
L 38.849603 48.057559 
L 38.852713 48.24791 
L 38.890036 47.893818 
L 38.94913 48.627839 
L 38.958461 48.623842 
L 38.989563 47.774615 
L 39.073539 48.387357 
L 39.107751 48.691129 
L 39.123303 47.757987 
L 39.176176 48.262151 
L 39.275703 47.878476 
L 39.194838 48.635947 
L 39.285034 48.126272 
L 39.334797 48.642881 
L 39.37523 47.782844 
L 39.397002 48.224456 
L 39.400112 47.955212 
L 39.502749 48.667677 
L 39.624048 48.004974 
L 39.630268 47.855058 
L 39.642709 48.378539 
L 39.714244 48.641235 
L 39.739126 48.12045 
L 39.754677 48.477089 
L 39.829322 48.66682 
L 39.776449 48.13045 
L 39.857314 48.452383 
L 39.947511 48.150811 
L 39.922629 48.670905 
L 39.966172 48.235429 
L 39.969282 48.683429 
L 40.037707 48.11233 
L 40.07503 48.327333 
L 40.146565 48.009207 
L 40.171447 48.684527 
L 40.180777 48.578551 
L 40.239872 47.924423 
L 40.196328 48.655442 
L 40.298966 48.179124 
L 40.302076 48.682139 
L 40.395383 48.111891 
L 40.407823 48.273226 
L 40.488689 47.754777 
L 40.435815 48.622483 
L 40.532232 47.770761 
L 40.631759 48.633002 
L 40.64731 48.461542 
L 40.703294 47.875303 
L 40.656641 48.518627 
L 40.759278 48.159451 
L 40.865026 48.624484 
L 40.799711 47.859475 
L 40.877467 48.439463 
L 40.899238 47.841679 
L 40.980104 48.555998 
L 40.989435 48.323829 
L 41.011206 48.661886 
L 41.0703 48.072818 
L 41.092072 48.413393 
L 41.141835 47.832201 
L 41.157386 48.57146 
L 41.20093 48.253037 
L 41.256913 48.651985 
L 41.225811 47.960143 
L 41.306677 48.150413 
L 41.365771 47.885767 
L 41.409314 48.630333 
L 41.415535 48.284501 
L 41.440416 48.403901 
L 41.449747 48.145324 
L 41.452857 47.759768 
L 41.515062 48.688669 
L 41.558605 48.365832 
L 41.577266 48.601992 
L 41.599038 48.096349 
L 41.655022 48.127769 
L 41.664352 47.839848 
L 41.698565 48.679335 
L 41.757659 48.492438 
L 41.888288 47.73283 
L 41.794982 48.607397 
L 41.91006 48.10883 
L 42.034468 48.694779 
L 41.956713 47.885573 
L 42.046909 48.655527 
L 42.143326 48.117754 
L 42.161988 48.329758 
L 42.267735 48.63943 
L 42.186869 48.061194 
L 42.270845 48.453267 
L 42.357931 48.024738 
L 42.34238 48.537817 
L 42.379703 48.465758 
L 42.382813 48.581884 
L 42.48234 48.187782 
L 42.528993 48.672407 
L 42.563206 47.882786 
L 42.591198 48.24116 
L 42.656513 47.94854 
L 42.634741 48.518845 
L 42.675174 48.455621 
L 42.681394 48.573339 
L 42.746709 47.95339 
L 42.774701 48.055765 
L 42.830685 48.667513 
L 42.877338 47.969148 
L 42.90222 48.3024 
L 42.995526 47.867593 
L 42.967535 48.608983 
L 43.001747 48.286056 
L 43.004857 48.615162 
L 43.098164 47.935534 
L 43.107494 48.009993 
L 43.179029 48.547723 
L 43.157258 47.98511 
L 43.219462 48.24349 
L 43.275446 47.84568 
L 43.32521 48.65612 
L 43.415406 47.774108 
L 43.353202 48.692275 
L 43.440288 48.377759 
L 43.539815 48.641511 
L 43.455839 47.927448 
L 43.552256 48.601611 
L 43.567807 48.662938 
L 43.60513 48.053296 
L 43.633122 48.323246 
L 43.676665 48.158319 
L 43.658003 48.635989 
L 43.735759 48.383892 
L 43.75442 48.632344 
L 43.763751 48.017903 
L 43.844617 48.303138 
L 43.847727 48.232305 
L 43.906821 48.670504 
L 43.947254 48.498523 
L 43.984576 48.036526 
L 43.990797 48.621194 
L 44.062332 48.282212 
L 44.090324 48.572771 
L 44.127647 47.787973 
L 44.17119 48.230117 
L 44.220953 48.553691 
L 44.239615 47.95308 
L 44.280047 48.305554 
L 44.329811 48.647129 
L 44.385795 48.052852 
L 44.395126 48.654693 
L 44.497763 48.472899 
L 44.513314 48.663407 
L 44.528865 48.305158 
L 44.591069 48.549386 
L 44.637723 47.921418 
L 44.684376 48.577208 
L 44.703037 48.00443 
L 44.783903 48.604115 
L 44.805675 47.771257 
L 44.808785 47.611092 
L 44.839887 48.606821 
L 44.905202 48.314203 
L 44.930083 48.604168 
L 44.995398 48.088515 
L 45.010949 47.875456 
L 45.032721 48.608989 
L 45.073153 48.356275 
L 45.122917 48.697061 
L 45.088705 48.017142 
L 45.182011 48.512197 
L 45.287759 47.672677 
L 45.241105 48.642902 
L 45.297089 48.147234 
L 45.321971 47.92716 
L 45.334412 48.598087 
L 45.365514 48.434564 
L 45.412167 48.660489 
L 45.393506 48.187873 
L 45.477482 48.537939 
L 45.601891 48.126519 
L 45.496143 48.663785 
L 45.605001 48.154593 
L 45.620552 48.627811 
L 45.701418 47.784077 
L 45.723189 48.622504 
L 45.788504 47.589839 
L 45.835157 48.46785 
L 45.856929 48.046122 
L 45.881811 48.566721 
L 45.940905 48.478574 
L 45.947125 48.634738 
L 45.987558 47.868863 
L 46.040432 48.138773 
L 46.052873 47.995326 
L 46.071534 48.654286 
L 46.136849 48.34528 
L 46.139959 48.617314 
L 46.223935 47.966336 
L 46.245706 48.187218 
L 46.339013 48.586266 
L 46.351454 47.940543 
L 46.357674 48.273094 
L 46.373225 48.094249 
L 46.363895 48.497509 
L 46.398107 48.180634 
L 46.426099 48.662791 
L 46.444761 47.990903 
L 46.510075 48.501962 
L 46.562949 47.96137 
L 46.58472 48.662033 
L 46.618933 48.451354 
L 46.72468 47.92121 
L 46.706019 48.590744 
L 46.727791 48.253937 
L 46.743342 48.640631 
L 46.783775 48.063928 
L 46.833538 48.382367 
L 46.839758 47.981683 
L 46.86464 48.684269 
L 46.945506 48.244733 
L 46.951726 47.717119 
L 47.0046 48.612344 
L 47.054364 48.136373 
L 47.157001 48.643502 
L 47.14456 47.877849 
L 47.166332 48.210279 
L 47.228536 48.636458 
L 47.28452 47.907499 
L 47.374716 48.61538 
L 47.315622 47.862635 
L 47.405819 48.43215 
L 47.4307 48.636616 
L 47.440031 48.310275 
L 47.458692 48.032266 
L 47.492905 48.672896 
L 47.545778 48.377074 
L 47.592432 48.612812 
L 47.56755 48.175197 
L 47.648416 48.323613 
L 47.654636 47.96406 
L 47.71373 48.623872 
L 47.757273 48.30605 
L 47.816368 48.616368 
L 47.775935 47.81843 
L 47.85369 48.123148 
L 47.859911 47.790185 
L 47.891013 48.624716 
L 47.953217 48.344056 
L 48.030973 48.664687 
L 48.058965 48.119081 
L 48.13361 47.736589 
L 48.086957 48.402797 
L 48.167822 48.106594 
L 48.189594 48.669066 
L 48.292231 48.352255 
L 48.401089 47.91616 
L 48.366877 48.633946 
L 48.404199 48.198374 
L 48.494396 48.612864 
L 48.509947 47.973657 
L 48.516167 48.249046 
L 48.534828 48.699429 
L 48.600143 47.930166 
L 48.625025 48.200772 
L 48.628135 48.20515 
L 48.634355 47.950514 
L 48.687229 48.665724 
L 48.736993 48.324479 
L 48.83652 48.582485 
L 48.796087 47.811292 
L 48.848961 48.560417 
L 48.901834 48.008257 
L 48.942267 48.651913 
L 48.957818 48.569713 
L 48.998251 47.782856 
L 48.967149 48.656691 
L 49.069786 48.4023 
L 49.166203 48.663994 
L 49.107109 47.85128 
L 49.175534 48.183501 
L 49.203526 47.951474 
L 49.247069 48.632345 
L 49.26573 48.393211 
L 49.334155 48.604185 
L 49.284391 47.92575 
L 49.371478 48.328521 
L 49.41191 47.814379 
L 49.380808 48.631164 
L 49.477225 48.391236 
L 49.576752 48.675555 
L 49.523878 47.908302 
L 49.592303 48.610742 
L 49.679389 48.634059 
L 49.707381 48.014016 
L 49.788247 48.640298 
L 49.819349 48.188249 
L 49.921987 48.682096 
L 49.844231 48.055807 
L 49.931317 48.318838 
L 50.015293 47.918827 
L 49.962419 48.646764 
L 50.037065 48.346484 
L 50.040175 48.621924 
L 50.10549 47.940326 
L 50.145922 48.302215 
L 50.236119 48.66177 
L 50.177025 47.9246 
L 50.267221 48.526521 
L 50.348087 48.238106 
L 50.320095 48.63681 
L 50.379189 48.312309 
L 50.450724 48.646475 
L 50.460055 48.066172 
L 50.491157 48.551393 
L 50.559582 48.028159 
L 50.497377 48.591339 
L 50.600015 48.55778 
L 50.609345 48.589992 
L 50.615566 48.305097 
L 50.659109 48.072555 
L 50.699542 48.624749 
L 50.705762 48.456126 
L 50.708872 48.64385 
L 50.786628 47.984472 
L 50.81462 48.380298 
L 50.917257 48.659784 
L 50.873714 47.857225 
L 50.929698 48.586032 
L 50.9608 47.954667 
L 51.035445 48.662366 
L 51.041666 48.52305 
L 51.172295 47.90129 
L 51.050996 48.584186 
L 51.178515 48.299393 
L 51.234499 48.649644 
L 51.265602 47.894283 
L 51.284263 48.252986 
L 51.3869 47.842143 
L 51.302924 48.681703 
L 51.396231 48.062786 
L 51.477097 48.690687 
L 51.511309 48.259843 
L 51.539301 48.065437 
L 51.607726 48.556342 
L 51.610836 48.489082 
L 51.632608 48.67503 
L 51.641938 48.147606 
L 51.694812 48.311162 
L 51.788119 47.916554 
L 51.794339 48.614468 
L 51.80367 47.982102 
L 51.828551 48.672303 
L 51.918748 48.516393 
L 51.940519 48.648998 
L 51.974732 48.089142 
L 51.993393 48.402334 
L 52.099141 48.034157 
L 52.09292 48.574016 
L 52.105361 48.210202 
L 52.257762 48.692542 
L 52.167565 48.11251 
L 52.273313 48.566021 
L 52.338628 48.69631 
L 52.391501 48.024521 
L 52.435044 48.626945 
L 52.475477 47.977443 
L 52.503469 48.389048 
L 52.51902 47.987739 
L 52.562563 48.62696 
L 52.612327 48.40411 
L 52.624768 48.701585 
L 52.699413 48.181843 
L 52.718074 48.559901 
L 52.780279 48.228315 
L 52.811381 48.670003 
L 52.826932 48.386962 
L 52.830042 48.648597 
L 52.889136 47.797835 
L 52.93579 48.335828 
L 52.982443 48.657208 
L 53.029096 47.867763 
L 53.035317 48.05556 
L 53.038427 47.545658 
L 53.106852 48.586915 
L 53.141064 48.30806 
L 53.22193 48.629702 
L 53.234371 48.019179 
L 53.249922 48.370351 
L 53.259253 48.677176 
L 53.293465 48.266094 
L 53.383661 47.770215 
L 53.377441 48.566821 
L 53.402323 48.299364 
L 53.50807 47.990108 
L 53.430315 48.6434 
L 53.514291 48.261405 
L 53.548503 48.648095 
L 53.576495 48.180613 
L 53.6387 48.339107 
L 53.64181 48.087953 
L 53.710235 48.661702 
L 53.747557 48.327527 
L 53.831533 48.010901 
L 53.763108 48.595499 
L 53.856415 48.213621 
L 53.93106 48.660883 
L 53.955942 47.962589 
L 53.968383 48.290003 
L 54.07413 48.652386 
L 53.977713 48.045588 
L 54.077241 48.420019 
L 54.176768 47.974915 
L 54.142555 48.665825 
L 54.182988 48.378735 
L 54.248303 48.695223 
L 54.254523 48.237821 
L 54.294956 48.470774 
L 54.35405 48.633429 
L 54.338499 48.208641 
L 54.391373 48.234298 
L 54.410034 47.978098 
L 54.450467 48.544901 
L 54.50023 48.01612 
L 54.612198 48.687651 
L 54.615309 48.538736 
L 54.677513 48.111481 
L 54.63708 48.647969 
L 54.730387 48.138074 
L 54.78015 48.677844 
L 54.798812 47.892444 
L 54.851685 48.556674 
L 54.948102 47.892407 
L 54.873457 48.682137 
L 54.966763 48.360742 
L 55.05696 48.123453 
L 55.066291 48.646782 
L 55.069401 48.582503 
L 55.119164 48.681554 
L 55.150266 48.021218 
L 55.175148 48.607566 
L 55.209361 48.10663 
L 55.287116 48.522606 
L 55.296447 48.679982 
L 55.371092 48.050598 
L 55.386643 48.312666 
L 55.423966 48.050699 
L 55.464399 48.642341 
L 55.48928 48.468799 
L 55.492391 48.664896 
L 55.507942 48.109486 
L 55.595028 48.346517 
L 55.632351 48.053628 
L 55.679004 48.658755 
L 55.691445 48.466301 
L 55.694555 48.674322 
L 55.753649 47.943628 
L 55.800302 48.408979 
L 55.828294 48.651282 
L 55.856286 48.108641 
L 55.899829 48.226613 
L 55.90294 47.990703 
L 55.986916 48.628993 
L 56.008687 48.374347 
L 56.114435 47.864345 
L 56.064671 48.673667 
L 56.123765 48.000966 
L 56.170419 48.565113 
L 56.201521 47.883254 
L 56.238843 48.561 
L 56.307268 48.11259 
L 56.245064 48.644359 
L 56.353922 48.460909 
L 56.413016 48.586155 
L 56.385024 48.033113 
L 56.444118 48.394811 
L 56.509433 47.963214 
L 56.453449 48.684245 
L 56.556086 48.315349 
L 56.636952 48.032709 
L 56.61518 48.642481 
L 56.655613 48.436004 
L 56.75514 48.685451 
L 56.717817 47.981041 
L 56.767581 48.578554 
L 56.867108 48.269811 
L 56.808014 48.673343 
L 56.879549 48.34322 
L 56.907541 48.683046 
L 56.89199 48.201012 
L 56.991517 48.523645 
L 57.087934 48.667177 
L 57.050611 48.248515 
L 57.103485 48.606585 
L 57.115926 48.666775 
L 57.137697 48.123013 
L 57.203012 48.439489 
L 57.258996 48.199009 
L 57.302539 48.683763 
L 57.31498 48.304068 
L 57.374074 48.640823 
L 57.411396 48.040522 
L 57.423837 48.268736 
L 57.439388 48.021905 
L 57.501593 48.613479 
L 57.529585 48.559197 
L 57.653994 47.975487 
L 57.657104 48.132374 
L 57.688206 48.625921 
L 57.666434 48.071133 
L 57.769072 48.373357 
L 57.781513 48.655924 
L 57.831276 47.975639 
L 57.853048 48.193469 
L 57.856158 48.076189 
L 57.909032 48.587045 
L 57.961905 48.242505 
L 58.058322 48.065151 
L 58.02411 48.650913 
L 58.061432 48.389403 
L 58.148519 48.685338 
L 58.108086 48.017546 
L 58.1734 48.433996 
L 58.179621 48.656401 
L 58.226274 47.770553 
L 58.276038 48.478888 
L 58.366234 47.995546 
L 58.288478 48.67445 
L 58.384895 48.135991 
L 58.434659 48.697412 
L 58.484422 47.984706 
L 58.496863 48.624428 
L 58.515525 48.184894 
L 58.59639 48.66533 
L 58.608831 48.429917 
L 58.649264 48.643535 
L 58.686587 48.368015 
L 58.720799 48.617266 
L 58.789224 48.662392 
L 58.832767 48.204748 
L 58.8732 48.616783 
L 58.913633 48.180084 
L 58.947845 48.57975 
L 59.01316 48.689433 
L 58.954066 48.319385 
L 59.047372 48.477565 
L 59.062923 48.106524 
L 59.084695 48.688143 
L 59.15623 48.403034 
L 59.258867 48.687864 
L 59.218434 48.077801 
L 59.265088 48.580627 
L 59.271308 48.280815 
L 59.280639 48.658123 
L 59.377056 48.326371 
L 59.44548 48.703802 
L 59.405047 48.008267 
L 59.489023 48.536288 
L 59.551228 48.20738 
L 59.523236 48.678963 
L 59.597881 48.654205 
L 59.632094 48.068351 
L 59.653865 48.676549 
L 59.716069 48.309854 
L 59.778274 48.665191 
L 59.737841 48.156874 
L 59.828037 48.461657 
L 59.877801 48.102025 
L 59.849809 48.651908 
L 59.940005 48.363145 
L 60.030202 48.691497 
L 60.045753 48.307414 
L 60.051973 48.467363 
L 60.14528 47.913737 
L 60.117288 48.67179 
L 60.179492 48.232564 
L 60.191933 47.978796 
L 60.207484 48.566581 
L 60.223035 48.521547 
L 60.247917 48.658887 
L 60.257248 48.35017 
L 60.266578 48.45895 
L 60.269689 48.11691 
L 60.350554 48.661903 
L 60.375436 48.239269 
L 60.387877 48.650978 
L 60.459412 48.112403 
L 60.490514 48.413992 
L 60.558939 47.879541 
L 60.502955 48.644238 
L 60.602482 48.310844 
L 60.614923 48.13646 
L 60.621144 48.514675 
L 60.624254 48.409664 
L 60.627364 48.602426 
L 60.70823 47.664847 
L 60.733111 48.403742 
L 60.813977 48.659951 
L 60.764214 48.106812 
L 60.841969 48.378115 
L 60.891733 48.153345 
L 60.919725 48.603382 
L 60.953937 48.356672 
L 61.016141 48.660599 
L 61.013031 48.119157 
L 61.069015 48.593874 
L 61.121889 48.250698 
L 61.075236 48.649706 
L 61.184093 48.31928 
L 61.268069 48.697643 
L 61.243188 48.188862 
L 61.296061 48.629425 
L 61.314723 48.124165 
L 61.392478 48.682294 
L 61.411139 48.461089 
L 61.479564 48.678722 
L 61.436021 48.393319 
L 61.523107 48.535867 
L 61.594642 48.034474 
L 61.56043 48.666822 
L 61.641296 48.337678 
L 61.70661 48.680813 
L 61.681729 48.071222 
L 61.753264 48.559601 
L 61.868342 48.17223 
L 61.781256 48.669929 
L 61.871452 48.179853 
L 61.977199 48.628854 
L 61.98342 48.50402 
L 62.036294 48.23666 
L 62.008302 48.685784 
L 62.061175 48.407343 
L 62.064286 48.675673 
L 62.107829 48.241032 
L 62.173143 48.496251 
L 62.191805 48.081277 
L 62.226017 48.692033 
L 62.282001 48.51245 
L 62.344205 48.67122 
L 62.313103 47.950889 
L 62.390859 48.578534 
L 62.459284 48.045123 
L 62.400189 48.65508 
L 62.502827 48.467065 
L 62.512157 48.21469 
L 62.54637 48.688162 
L 62.602354 48.508012 
L 62.683219 48.671013 
L 62.655227 48.266134 
L 62.704991 48.505883 
L 62.723652 48.073786 
L 62.801408 48.616083 
L 62.820069 48.127369 
L 62.848061 48.607574 
L 62.932037 48.222745 
L 63.044005 48.700417 
L 63.047115 48.583902 
L 63.124871 47.857333 
L 63.152863 48.66931 
L 63.155973 48.619936 
L 63.159083 48.692927 
L 63.227508 48.082805 
L 63.25861 48.530292 
L 63.361247 48.151518 
L 63.264831 48.691142 
L 63.370578 48.412361 
L 63.429672 48.651847 
L 63.376798 48.369954 
L 63.448334 48.45991 
L 63.451444 48.201488 
L 63.522979 48.682745 
L 63.557191 48.464314 
L 63.585183 48.672578 
L 63.641167 48.246262 
L 63.662939 48.509398 
L 63.759356 48.148476 
L 63.690931 48.66831 
L 63.781127 48.24366 
L 63.82156 48.105641 
L 63.874434 48.642043 
L 63.883764 48.413113 
L 63.921087 48.657623 
L 63.952189 48.176037 
L 63.986402 48.633744 
L 64.033055 48.197937 
L 63.992622 48.653921 
L 64.09837 48.444677 
L 64.197897 48.632692 
L 64.129472 48.227461 
L 64.207227 48.367435 
L 64.25077 48.087289 
L 64.238329 48.679853 
L 64.312975 48.528041 
L 64.328526 48.639669 
L 64.353408 48.151795 
L 64.396951 48.507961 
L 64.431163 47.931567 
L 64.477816 48.656879 
L 64.508919 48.435934 
L 64.592895 48.661466 
L 64.52447 48.227431 
L 64.620887 48.502977 
L 64.66754 47.997599 
L 64.692422 48.614209 
L 64.704862 48.600227 
L 64.739075 48.651791 
L 64.745295 48.263098 
L 64.748406 48.273653 
L 64.754626 48.084553 
L 64.81372 48.664813 
L 64.851043 48.327477 
L 64.935019 48.609854 
L 64.860373 48.128901 
L 64.966121 48.511423 
L 65.071868 48.264777 
L 64.975452 48.676767 
L 65.078089 48.3389 
L 65.140293 48.679059 
L 65.118522 48.248029 
L 65.183836 48.4772 
L 65.283363 47.98335 
L 65.258482 48.645559 
L 65.295804 48.042024 
L 65.348678 48.694999 
L 65.389111 47.943489 
L 65.407772 48.174354 
L 65.417103 47.785592 
L 65.510409 48.653217 
L 65.575724 47.958056 
L 65.606826 48.660999 
L 65.625488 48.386887 
L 65.712574 48.64587 
L 65.725015 48.215694 
L 65.737456 48.509149 
L 65.753007 48.200687 
L 65.765447 48.668989 
L 65.843203 48.467588 
L 65.93651 48.7006 
L 65.886746 48.035308 
L 65.955171 48.634585 
L 65.998714 48.162946 
L 66.060918 48.681013 
L 66.067139 48.534017 
L 66.073359 48.680743 
L 66.126233 48.071436 
L 66.166666 48.375663 
L 66.200878 48.163727 
L 66.185327 48.684868 
L 66.272413 48.586285 
L 66.287964 48.279341 
L 66.319067 48.659806 
L 66.384381 48.53054 
L 66.443475 48.674922 
L 66.471467 48.300633 
L 66.499459 48.621834 
L 66.50257 48.647226 
L 66.564774 48.300436 
L 66.592766 48.599075 
L 66.679852 48.197972 
L 66.639419 48.683801 
L 66.701624 48.549961 
L 66.742057 48.634762 
L 66.779379 48.050391 
L 66.810481 48.513675 
L 66.903788 48.68645 
L 66.816702 48.263078 
L 66.919339 48.521922 
L 66.965992 48.028519 
L 66.990874 48.554782 
L 67.031307 48.108297 
L 67.049968 48.561063 
L 67.084181 47.985246 
L 67.143275 48.312912 
L 67.21481 48.574474 
L 67.155716 48.109525 
L 67.255243 48.411329 
L 67.339219 48.638894 
L 67.298786 48.132606 
L 67.36099 48.394571 
L 67.454297 48.251845 
L 67.404533 48.690229 
L 67.460517 48.46185 
L 67.525832 48.688041 
L 67.49784 48.049839 
L 67.569375 48.389062 
L 67.575596 48.27886 
L 67.628469 48.668424 
L 67.672012 48.433385 
L 67.675123 48.675608 
L 67.752878 48.17413 
L 67.78398 48.499995 
L 67.808862 48.69574 
L 67.864846 48.070829 
L 67.886618 48.438747 
L 67.889728 48.228155 
L 67.942602 48.692188 
L 67.992365 48.405991 
L 67.995475 48.688286 
L 68.017247 48.193539 
L 68.101223 48.308756 
L 68.107443 48.64372 
L 68.138545 48.095889 
L 68.213191 48.595236 
L 68.244293 47.974534 
L 68.294056 48.663708 
L 68.325159 48.394209 
L 68.412245 48.614642 
L 68.35004 47.795895 
L 68.440237 48.551014 
L 68.545984 48.056995 
L 68.446457 48.614602 
L 68.564646 48.116822 
L 68.62996 48.665399 
L 68.676613 48.399604 
L 68.704605 48.664817 
L 68.788581 48.110963 
L 68.813463 48.661713 
L 68.797912 48.062944 
L 68.90366 48.562592 
L 68.922321 48.677256 
L 69.021848 47.976535 
L 69.024958 47.796893 
L 69.05606 48.647275 
L 69.124485 48.365764 
L 69.230233 48.657212 
L 69.1898 48.177694 
L 69.233343 48.590279 
L 69.270665 48.156527 
L 69.314209 48.633382 
L 69.345311 48.534459 
L 69.395074 48.184312 
L 69.370193 48.654889 
L 69.454168 48.606913 
L 69.513263 48.045427 
L 69.488381 48.648573 
L 69.566136 48.386691 
L 69.569247 48.688053 
L 69.634561 48.019447 
L 69.674994 48.255108 
L 69.684325 48.069025 
L 69.696766 48.521977 
L 69.724758 48.423782 
L 69.75897 48.657657 
L 69.771411 48.012698 
L 69.839836 48.606105 
L 69.855387 48.664667 
L 69.914481 48.160202 
L 69.926922 48.377014 
L 69.973575 48.031459 
L 69.951804 48.676703 
L 70.03889 48.246622 
L 70.073102 48.645035 
L 70.094874 48.086167 
L 70.097984 48.074671 
L 70.104204 48.377949 
L 70.113535 48.682862 
L 70.206842 48.153326 
L 70.209952 48.239442 
L 70.222393 47.545004 
L 70.234834 48.642859 
L 70.315699 48.165467 
L 70.384124 48.623836 
L 70.349912 47.764997 
L 70.430778 48.563441 
L 70.4681 48.685285 
L 70.449439 48.183084 
L 70.536525 48.532785 
L 70.558297 48.073391 
L 70.567627 48.657175 
L 70.654713 48.153588 
L 70.673375 48.654577 
L 70.772902 48.525927 
L 70.881759 48.163029 
L 70.841327 48.665411 
L 70.88798 48.437167 
L 70.8942 48.378049 
L 70.897311 48.453049 
L 70.999948 48.649462 
L 70.943964 48.232335 
L 71.006168 48.524643 
L 71.03105 48.147917 
L 71.074593 48.600128 
L 71.115026 48.522772 
L 71.17101 48.049079 
L 71.127467 48.638652 
L 71.223884 48.274407 
L 71.254986 48.666516 
L 71.332741 48.165978 
L 71.385615 48.563225 
L 71.379395 48.095896 
L 71.438489 48.27304 
L 71.441599 47.995528 
L 71.513134 48.673773 
L 71.547347 48.391054 
L 71.578449 48.653798 
L 71.640653 47.976338 
L 71.656204 48.259407 
L 71.73085 47.903406 
L 71.690417 48.651517 
L 71.761952 48.142252 
L 71.842817 48.634842 
L 71.814825 48.086413 
L 71.87392 48.26911 
L 71.911242 48.064718 
L 71.988998 48.597039 
L 72.097856 48.155156 
L 72.032541 48.638642 
L 72.100966 48.409325 
L 72.175611 48.641097 
L 72.150729 48.098922 
L 72.209823 48.345435 
L 72.247146 48.655924 
L 72.30002 48.254865 
L 72.312461 48.341072 
L 72.411988 48.112317 
L 72.359114 48.676151 
L 72.415098 48.436354 
L 72.44309 48.643908 
L 72.471082 48.002189 
L 72.523956 48.47527 
L 72.539507 48.109786 
L 72.601711 48.670256 
L 72.629703 48.523932 
L 72.695018 48.680329 
L 72.72301 48.182321 
L 72.73234 48.262664 
L 72.847419 48.684878 
L 72.763443 48.143645 
L 72.853639 48.614193 
L 72.965607 48.229995 
L 72.931394 48.644385 
L 72.968717 48.293655 
L 73.052693 48.628427 
L 72.987378 48.045653 
L 73.077575 48.424121 
L 73.105567 47.77293 
L 73.146 48.586112 
L 73.186433 48.412495 
L 73.29218 48.637192 
L 73.223755 48.223632 
L 73.2984 48.502159 
L 73.320172 48.112885 
L 73.348164 48.649121 
L 73.416589 48.450563 
L 73.506785 48.62744 
L 73.43525 48.242004 
L 73.513006 48.495435 
L 73.540998 48.103265 
L 73.584541 48.676703 
L 73.624974 48.425158 
L 73.649855 48.691772 
L 73.659186 48.165857 
L 73.727611 48.611722 
L 73.830248 48.194157 
L 73.780485 48.65533 
L 73.839579 48.417167 
L 73.85202 48.694883 
L 73.908004 47.949849 
L 73.945326 48.303693 
L 73.970208 48.050166 
L 74.016861 48.665266 
L 74.019972 48.488213 
L 74.128829 48.654511 
L 74.082176 47.991223 
L 74.131939 48.625696 
L 74.172372 48.001069 
L 74.215915 48.670977 
L 74.240797 48.625595 
L 74.243907 48.633938 
L 74.247018 48.590009 
L 74.27812 48.226008 
L 74.334104 48.664865 
L 74.358985 48.457816 
L 74.408749 48.299305 
L 74.477174 48.688897 
L 74.492725 48.08395 
L 74.595362 48.525334 
L 74.694889 48.683435 
L 74.654456 48.138387 
L 74.70733 48.655409 
L 74.778865 48.274102 
L 74.822408 48.431801 
L 74.921935 48.666643 
L 74.84729 48.270677 
L 74.928156 48.492838 
L 74.977919 48.68081 
L 75.043234 48.175835 
L 75.13032 48.66705 
L 75.114769 48.080472 
L 75.170753 48.509424 
L 75.26717 48.137142 
L 75.226737 48.643761 
L 75.285831 48.445772 
L 75.360476 48.69158 
L 75.341815 48.146037 
L 75.388468 48.508783 
L 75.447563 48.086566 
L 75.432011 48.68908 
L 75.500436 48.335369 
L 75.503546 48.65309 
L 75.593743 48.217896 
L 75.609294 48.278873 
L 75.659057 48.14423 
L 75.680829 48.646633 
L 75.711931 48.414265 
L 75.721262 48.669333 
L 75.746144 48.278371 
L 75.817679 48.44295 
L 75.848781 48.224918 
L 75.867442 48.67777 
L 75.929647 48.287102 
L 75.966969 48.226471 
L 76.041615 48.682668 
L 76.134921 48.270775 
L 76.153582 48.530723 
L 76.246889 48.675117 
L 76.187795 48.245072 
L 76.26244 48.611465 
L 76.349526 48.279313 
L 76.333975 48.685808 
L 76.374408 48.325949 
L 76.427282 48.664874 
L 76.4024 48.218487 
L 76.483266 48.612992 
L 76.508148 48.015721 
L 76.53614 48.622317 
L 76.595234 48.529696 
L 76.598344 48.669017 
L 76.651218 48.166908 
L 76.704091 48.536203 
L 76.741414 48.122887 
L 76.710312 48.668448 
L 76.81917 48.449378 
L 76.83161 48.688979 
L 76.856492 48.303365 
L 76.928027 48.551913 
L 76.959129 47.922501 
L 77.021334 48.68413 
L 77.043105 48.28174 
L 77.145743 48.66464 
L 77.10842 48.088082 
L 77.155073 48.430033 
L 77.198616 48.592454 
L 77.173735 48.072807 
L 77.226608 48.34068 
L 77.232829 48.079749 
L 77.260821 48.633625 
L 77.335466 48.353088 
L 77.407001 48.685857 
L 77.441214 48.154463 
L 77.518969 48.695546 
L 77.543851 48.058737 
L 77.553181 48.314408 
L 77.556292 48.099838 
L 77.618496 48.662899 
L 77.658929 48.253993 
L 77.714913 48.213218 
L 77.770897 48.695994 
L 77.805109 48.201235 
L 77.882865 48.54003 
L 77.892195 48.684114 
L 77.920187 48.180954 
L 77.994833 48.577108 
L 78.106801 47.874499 
L 78.072588 48.694725 
L 78.119242 48.150732 
L 78.141013 48.687247 
L 78.128572 48.055542 
L 78.231209 48.36067 
L 78.333847 48.684765 
L 78.24054 48.207164 
L 78.346288 48.626894 
L 78.371169 48.118013 
L 78.455145 48.663859 
L 78.464476 48.313628 
L 78.52046 48.643632 
L 78.489358 48.018897 
L 78.579554 48.467224 
L 78.682191 48.17767 
L 78.607546 48.647519 
L 78.688412 48.364986 
L 78.738175 48.687974 
L 78.781718 48.101042 
L 78.79727 48.583934 
L 78.8066 48.206738 
L 78.828372 48.667322 
L 78.906127 48.542496 
L 78.915458 48.195309 
L 78.924789 48.680112 
L 79.014985 48.488298 
L 79.117622 48.689273 
L 79.095851 48.238965 
L 79.120732 48.455741 
L 79.182937 47.958326 
L 79.173606 48.644989 
L 79.22959 48.131282 
L 79.307346 48.679003 
L 79.341558 48.285438 
L 79.37577 48.689668 
L 79.391322 48.21015 
L 79.453526 48.519971 
L 79.493959 48.127475 
L 79.534392 48.695224 
L 79.565494 48.35615 
L 79.624588 48.151648 
L 79.587265 48.674554 
L 79.661911 48.370509 
L 79.752107 48.671939 
L 79.764548 48.163966 
L 79.770768 48.390395 
L 79.773879 48.387378 
L 79.776989 48.502332 
L 79.783209 48.453329 
L 79.811201 48.648515 
L 79.78943 48.239882 
L 79.895177 48.4896 
L 79.976043 47.970086 
L 79.92939 48.657067 
L 80.004035 48.165776 
L 80.063129 48.661517 
L 80.116003 48.351723 
L 80.184428 48.676123 
L 80.140885 47.845761 
L 80.22175 48.583661 
L 80.234191 48.055346 
L 80.318167 48.672798 
L 80.330608 48.282463 
L 80.389702 48.669138 
L 80.427025 48.004071 
L 80.439466 48.561895 
L 80.479899 48.127337 
L 80.507891 48.682523 
L 80.548323 48.622136 
L 80.63852 48.148965 
L 80.613638 48.658885 
L 80.657181 48.613061 
L 80.703834 48.685262 
L 80.775369 48.278946 
L 80.843794 48.690599 
L 80.812692 48.212003 
L 80.887337 48.604576 
L 80.933991 48.209306 
L 80.92155 48.630797 
L 81.005526 48.435795 
L 81.045959 48.68928 
L 81.080171 48.273056 
L 81.117494 48.631915 
L 81.129935 48.208349 
L 81.126824 48.691999 
L 81.235682 48.347659 
L 81.291666 48.675373 
L 81.319658 48.225605 
L 81.34454 48.278157 
L 81.34765 48.279437 
L 81.35076 48.113045 
L 81.406744 48.668368 
L 81.453397 48.501426 
L 81.465838 48.688849 
L 81.500051 48.372762 
L 81.506271 48.411052 
L 81.515602 48.286792 
L 81.602688 48.632792 
L 81.612019 48.49991 
L 81.677333 48.679825 
L 81.655562 48.345136 
L 81.720876 48.39316 
L 81.727097 48.696994 
L 81.761309 48.194277 
L 81.829734 48.557671 
L 81.888828 48.14937 
L 81.876387 48.664509 
L 81.938592 48.549848 
L 82.028788 48.277529 
L 82.035009 48.649703 
L 82.05367 48.460669 
L 82.05678 48.613702 
L 82.097213 48.052979 
L 82.162528 48.482148 
L 82.19985 48.134156 
L 82.246504 48.665236 
L 82.271385 48.491955 
L 82.349141 48.656803 
L 82.33359 48.322628 
L 82.377133 48.623082 
L 82.467329 48.144785 
L 82.47355 48.638539 
L 82.489101 48.441278 
L 82.498431 48.065209 
L 82.569966 48.659085 
L 82.597958 48.469406 
L 82.672604 48.235653 
L 82.666383 48.660097 
L 82.691265 48.290422 
L 82.790792 48.659401 
L 82.797013 48.145925 
L 82.803233 48.517138 
L 82.90898 48.69898 
L 82.843666 48.26049 
L 82.915201 48.582739 
L 82.999177 48.678248 
L 83.027169 48.198469 
L 83.073822 48.69565 
L 83.126696 48.13734 
L 83.136026 48.402479 
L 83.229333 48.129229 
L 83.170239 48.687014 
L 83.244884 48.364134 
L 83.254215 48.653925 
L 83.335081 48.256319 
L 83.359962 48.597631 
L 83.46882 48.22362 
L 83.443938 48.642046 
L 83.47193 48.465408 
L 83.552796 48.680836 
L 83.481261 48.158046 
L 83.565237 48.467526 
L 83.577678 48.158878 
L 83.615 48.64403 
L 83.677205 48.440882 
L 83.773622 48.691515 
L 83.683425 48.278119 
L 83.792283 48.597605 
L 83.835826 48.257312 
L 83.832716 48.689844 
L 83.904251 48.575302 
L 83.907361 48.576296 
L 83.991337 48.257999 
L 83.985117 48.689026 
L 84.016219 48.456337 
L 84.072203 48.673799 
L 84.022439 48.287346 
L 84.125076 48.608585 
L 84.224604 48.338235 
L 84.153068 48.692695 
L 84.233934 48.580887 
L 84.293028 48.071425 
L 84.249485 48.67186 
L 84.336571 48.481011 
L 84.411217 48.690407 
L 84.429878 48.25905 
L 84.445429 48.468717 
L 84.45165 48.318108 
L 84.46098 48.694716 
L 84.495193 48.509785 
L 84.498303 48.662559 
L 84.538736 48.169552 
L 84.60094 48.250044 
L 84.607161 48.404046 
L 84.706688 48.699602 
L 84.703577 48.210384 
L 84.716018 48.509072 
L 84.7409 48.157099 
L 84.731569 48.66804 
L 84.818656 48.538775 
L 84.88708 48.697078 
L 84.918183 48.249495 
L 84.921293 48.182468 
L 84.967946 48.686527 
L 85.014599 48.459683 
L 85.01771 48.669062 
L 85.114126 48.37166 
L 85.126567 48.661156 
L 85.16389 48.243272 
L 85.15767 48.667492 
L 85.238535 48.472697 
L 85.275858 48.239323 
L 85.30385 48.66419 
L 85.334952 48.42957 
L 85.372275 48.647643 
L 85.4407 48.096929 
L 85.487353 48.677058 
L 85.555778 48.398951 
L 85.614872 48.297254 
L 85.58688 48.691829 
L 85.661525 48.514524 
L 85.708178 48.699432 
L 85.698848 48.201067 
L 85.770383 48.589877 
L 85.826367 48.213981 
L 85.857469 48.693068 
L 85.882351 48.46747 
L 85.950776 48.676044 
L 85.969437 48.291196 
L 85.994319 48.485962 
L 86.056523 48.15945 
L 86.044082 48.686543 
L 86.106287 48.377803 
L 86.168491 48.696721 
L 86.118728 48.330248 
L 86.218255 48.529079 
L 86.258687 48.656084 
L 86.246247 48.318492 
L 86.2929 48.344867 
L 86.29601 48.136961 
L 86.392427 48.631245 
L 86.398647 48.535301 
L 86.467072 48.692595 
L 86.454631 48.335574 
L 86.510615 48.591367 
L 86.58215 48.703622 
L 86.57282 48.11511 
L 86.607032 48.517191 
L 86.678567 48.215802 
L 86.659906 48.692598 
L 86.719 48.401646 
L 86.762543 48.670558 
L 86.746992 48.323246 
L 86.827858 48.403551 
L 86.830968 48.404561 
L 86.868291 48.695849 
L 86.921164 48.216907 
L 86.942936 48.534594 
L 86.958487 48.399839 
L 86.970928 48.571553 
L 86.992699 48.23868 
L 87.051794 48.639687 
L 87.082896 48.434766 
L 87.154431 48.164002 
L 87.176202 48.701731 
L 87.191753 48.245278 
L 87.27884 48.687053 
L 87.303721 48.592661 
L 87.406359 48.181827 
L 87.353485 48.66797 
L 87.415689 48.528094 
L 87.43124 48.260564 
L 87.512106 48.68131 
L 87.524547 48.47477 
L 87.543208 48.688576 
L 87.617854 48.301452 
L 87.636515 48.603619 
L 87.754703 48.159194 
L 87.655176 48.624299 
L 87.760924 48.1819 
L 87.776475 48.669584 
L 87.798246 48.078862 
L 87.872892 48.517578 
L 87.919545 48.681848 
L 87.938206 48.014613 
L 87.98486 48.592954 
L 87.98797 48.295455 
L 88.012852 48.624455 
L 88.096827 48.398671 
L 88.115489 48.647829 
L 88.168363 48.156174 
L 88.208795 48.55253 
L 88.27722 48.353598 
L 88.314543 48.656633 
L 88.317653 48.558478 
L 88.345645 48.671661 
L 88.373637 48.243166 
L 88.429621 48.625291 
L 88.535368 48.214406 
L 88.507377 48.680372 
L 88.544699 48.293043 
L 88.547809 48.673026 
L 88.610014 48.168678 
L 88.656667 48.608904 
L 88.734423 48.036833 
L 88.759304 48.690633 
L 88.768635 48.374591 
L 88.84328 48.683479 
L 88.777966 48.360745 
L 88.883713 48.547833 
L 88.964579 48.313158 
L 88.933477 48.688417 
L 88.98635 48.499833 
L 89.045445 48.699663 
L 89.020563 48.33337 
L 89.095208 48.399017 
L 89.135641 48.63236 
L 89.179184 48.296691 
L 89.194735 48.542275 
L 89.247609 48.262647 
L 89.272491 48.64724 
L 89.306703 48.415943 
L 89.337805 48.628721 
L 89.396899 48.218782 
L 89.487096 48.692194 
L 89.508867 48.51679 
L 89.558631 48.674908 
L 89.54619 48.279688 
L 89.617725 48.514975 
L 89.651937 48.703589 
L 89.633276 48.345997 
L 89.670599 48.461332 
L 89.726583 48.272302 
L 89.723473 48.634074 
L 89.779457 48.450195 
L 89.854102 48.650762 
L 89.798118 48.253658 
L 89.885204 48.346064 
L 89.894535 48.16922 
L 89.944298 48.704366 
L 89.96607 48.532229 
L 90.031384 48.694422 
L 89.978511 48.2048 
L 90.074927 48.661169 
L 90.102919 48.193987 
L 90.081148 48.695996 
L 90.190006 48.40582 
L 90.236659 48.179428 
L 90.25221 48.680691 
L 90.289533 48.638664 
L 90.314414 48.280713 
L 90.323745 48.685465 
L 90.404611 48.561892 
L 90.454374 48.286482 
L 90.513468 48.658134 
L 90.591224 48.123103 
L 90.550791 48.689663 
L 90.625436 48.416528 
L 90.703192 48.26221 
L 90.737404 48.691448 
L 90.846262 48.130705 
L 90.849372 48.32145 
L 90.917797 48.660596 
L 90.930238 48.221431 
L 90.96134 48.450715 
L 91.051537 48.698229 
L 91.057757 48.299121 
L 91.073308 48.596889 
L 91.09819 48.285555 
L 91.166615 48.659038 
L 91.185276 48.518268 
L 91.250591 48.687923 
L 91.222599 48.327686 
L 91.294134 48.637952 
L 91.340787 48.043126 
L 91.328346 48.688557 
L 91.406102 48.450191 
L 91.483857 48.677238 
L 91.434094 48.288668 
L 91.51807 48.638963 
L 91.608266 48.19898 
L 91.533621 48.658827 
L 91.626927 48.57294 
L 91.701573 48.6685 
L 91.66114 48.32351 
L 91.726454 48.505555 
L 91.735785 48.011256 
L 91.8011 48.650528 
L 91.838422 48.473349 
L 91.866414 48.662328 
L 91.903737 48.323969 
L 91.941059 48.447762 
L 91.94417 48.115021 
L 92.006374 48.699443 
L 92.049917 48.556549 
L 92.161885 48.188762 
L 92.109011 48.682302 
L 92.171216 48.212552 
L 92.261412 48.667858 
L 92.283184 48.536658 
L 92.308065 48.223589 
L 92.329837 48.639749 
L 92.388931 48.55201 
L 92.392041 48.672014 
L 92.476017 48.162889 
L 92.494679 48.497779 
L 92.547552 48.292743 
L 92.556883 48.685052 
L 92.603536 48.450084 
L 92.606647 48.674819 
L 92.65019 48.299044 
L 92.712394 48.574105 
L 92.768378 48.192355 
L 92.746606 48.682379 
L 92.821252 48.491319 
L 92.917669 48.670517 
L 92.877236 48.299183 
L 92.93322 48.517411 
L 92.979873 48.64206 
L 92.982983 48.224696 
L 93.017196 48.498293 
L 93.07318 48.130315 
L 93.032747 48.681887 
L 93.126053 48.458798 
L 93.132274 48.698684 
L 93.210029 48.198882 
L 93.231801 48.512896 
L 93.303336 48.232687 
L 93.241131 48.631429 
L 93.343769 48.419877 
L 93.371761 48.685267 
L 93.409083 48.279586 
L 93.458847 48.565656 
L 93.477508 48.278631 
L 93.527272 48.69305 
L 93.567705 48.593633 
L 93.589476 48.656751 
L 93.620578 48.334746 
L 93.64235 48.586471 
L 93.735656 48.176917 
L 93.65168 48.680256 
L 93.751208 48.422567 
L 93.772979 48.683768 
L 93.78853 48.131663 
L 93.863175 48.607371 
L 93.978254 48.098916 
L 93.881837 48.674845 
L 93.981364 48.243306 
L 94.090222 48.634395 
L 94.028017 48.216131 
L 94.093332 48.445429 
L 94.152426 48.655444 
L 94.158646 48.207074 
L 94.195969 48.522162 
L 94.298606 48.675264 
L 94.304827 48.293779 
L 94.407464 48.659742 
L 94.398133 48.269855 
L 94.416795 48.482047 
L 94.485219 48.242172 
L 94.478999 48.648714 
L 94.510101 48.551523 
L 94.534983 48.313452 
L 94.612738 48.657746 
L 94.615849 48.376954 
L 94.665612 48.695248 
L 94.702935 48.597415 
" clip-path="url(#pe88fee74d7)" style="fill: none; stroke: #bcbd22; stroke-width: 0.5; stroke-linecap: square"/>
   </g>
  </g>
 </g>
 <defs>
  <clipPath id="pe88fee74d7">
   <rect x="0" y="-0" width="99.212598" height="51.023622"/>
  </clipPath>
 </defs>
</svg>
