<?xml version="1.0" encoding="utf-8" standalone="no"?>
<!DOCTYPE svg PUBLIC "-//W3C//DTD SVG 1.1//EN"
  "http://www.w3.org/Graphics/SVG/1.1/DTD/svg11.dtd">
<svg xmlns:xlink="http://www.w3.org/1999/xlink" width="99.212598pt" height="51.023622pt" viewBox="0 0 99.212598 51.023622" xmlns="http://www.w3.org/2000/svg" version="1.1">
 <metadata>
  <rdf:RDF xmlns:dc="http://purl.org/dc/elements/1.1/" xmlns:cc="http://creativecommons.org/ns#" xmlns:rdf="http://www.w3.org/1999/02/22-rdf-syntax-ns#">
   <cc:Work>
    <dc:type rdf:resource="http://purl.org/dc/dcmitype/StillImage"/>
    <dc:date>2024-10-30T10:51:14.255925</dc:date>
    <dc:format>image/svg+xml</dc:format>
    <dc:creator>
     <cc:Agent>
      <dc:title>Matplotlib v3.8.4, https://matplotlib.org/</dc:title>
     </cc:Agent>
    </dc:creator>
   </cc:Work>
  </rdf:RDF>
 </metadata>
 <defs>
  <style type="text/css">*{stroke-linejoin: round; stroke-linecap: butt}</style>
 </defs>
 <g id="figure_1">
  <g id="patch_1">
   <path d="M 0 51.023622 
L 99.212598 51.023622 
L 99.212598 0 
L 0 0 
L 0 51.023622 
z
" style="fill: none"/>
  </g>
  <g id="axes_1">
   <g id="patch_2">
    <path d="M 0 51.023622 
L 99.212598 51.023622 
L 99.212598 -0 
L 0 -0 
L 0 51.023622 
z
" style="fill: none"/>
   </g>
   <g id="matplotlib.axis_1">
    <g id="xtick_1"/>
    <g id="xtick_2"/>
   </g>
   <g id="matplotlib.axis_2">
    <g id="ytick_1"/>
    <g id="ytick_2"/>
   </g>
   <g id="line2d_1">
    <path d="M 4.509664 40.79985 
L 4.568758 48.560094 
L 4.630962 41.862993 
L 4.814465 2.319256 
L 4.873559 19.295405 
L 4.957535 36.340285 
L 5.004189 27.371906 
L 5.013519 26.546637 
L 5.038401 29.022585 
L 5.122377 41.509377 
L 5.181471 37.982775 
L 5.206353 37.159138 
L 5.265447 41.300479 
L 5.268557 41.307722 
L 5.396076 46.373611 
L 5.408517 45.015882 
L 5.461391 38.648845 
L 5.529816 42.653974 
L 5.644894 48.06549 
L 5.700878 44.383074 
L 5.716429 43.847702 
L 5.781744 46.134743 
L 5.784854 45.904278 
L 5.806625 45.914577 
L 5.853279 41.730799 
L 5.915483 33.37194 
L 5.993239 37.284728 
L 6.043002 47.243865 
L 6.105206 37.71452 
L 6.117647 36.560042 
L 6.164301 45.146896 
L 6.201623 48.51174 
L 6.260717 44.238309 
L 6.273158 43.880152 
L 6.322922 45.811016 
L 6.400677 47.862238 
L 6.425559 45.640026 
L 6.503315 44.034772 
L 6.462882 46.961349 
L 6.543747 44.896398 
L 6.587291 48.530362 
L 6.674377 45.711958 
L 6.699258 45.274174 
L 6.764573 46.837014 
L 6.767683 46.780622 
L 6.786345 48.208226 
L 6.823667 45.021514 
L 6.873431 46.659774 
L 6.888982 45.999481 
L 6.957407 48.149666 
L 6.972958 48.000456 
L 7.00406 47.542203 
L 7.063154 48.536315 
L 7.075595 48.224419 
L 7.097367 48.448097 
L 7.165791 47.559997 
L 7.168902 47.768969 
L 7.259098 46.170726 
L 7.209335 48.385787 
L 7.28709 47.326975 
L 7.299531 48.442818 
L 7.339964 45.098746 
L 7.386617 46.510988 
L 7.517246 43.832443 
L 7.532797 44.55555 
L 7.616773 47.392003 
L 7.672757 46.747671 
L 7.697639 44.771569 
L 7.769174 48.080298 
L 7.778505 48.32233 
L 7.815827 48.524649 
L 7.84693 47.574986 
L 7.865591 47.953985 
L 7.896693 46.515942 
L 7.946457 48.236461 
L 7.977559 47.841147 
L 8.036653 48.626081 
L 8.070866 47.277315 
L 8.073976 47.349978 
L 8.148621 48.664937 
L 8.217046 45.579501 
L 8.266809 48.435981 
L 8.319683 45.06216 
L 8.322793 45.123542 
L 8.450312 47.584119 
L 8.465863 46.837364 
L 8.605823 44.918026 
L 8.531178 47.514353 
L 8.608934 45.018898 
L 8.748893 48.271138 
L 8.773775 47.956031 
L 8.857751 47.396912 
L 8.83598 48.435585 
L 8.879523 47.941666 
L 8.898184 48.667051 
L 8.97905 47.220493 
L 8.98838 46.927355 
L 9.010152 48.211637 
L 9.087907 47.244148 
L 9.109679 48.435989 
L 9.199875 47.72366 
L 9.224757 46.517731 
L 9.293182 48.422987 
L 9.305623 47.967692 
L 9.311843 48.07318 
L 9.324284 47.389042 
L 9.330505 47.487324 
L 9.358497 46.216236 
L 9.448693 46.594704 
L 9.560661 48.467303 
L 9.514008 45.818426 
L 9.588653 47.864992 
L 9.653968 46.958399 
L 9.68196 48.567922 
L 9.69129 48.33863 
L 9.716172 48.57423 
L 9.700621 48.171247 
L 9.737943 48.27274 
L 9.759715 47.529445 
L 9.806368 48.528742 
L 9.837471 48.528533 
L 9.840581 48.662612 
L 9.862352 47.696487 
L 9.936998 48.036482 
L 9.943218 47.938577 
L 9.983651 47.575655 
L 10.045855 48.251069 
L 10.076957 48.122487 
L 10.055186 48.42042 
L 10.080068 48.284465 
L 10.160933 48.491064 
L 10.173374 47.508942 
L 10.179595 47.596226 
L 10.235579 47.139256 
L 10.269791 48.267208 
L 10.276012 48.149386 
L 10.285342 47.726652 
L 10.316444 44.920319 
L 10.409751 46.248025 
L 10.434633 47.226575 
L 10.506168 45.976506 
L 10.515498 45.980636 
L 10.593254 47.332062 
L 10.633687 46.222399 
L 10.658569 45.991824 
L 10.686561 47.418095 
L 10.730104 47.231094 
L 10.81719 48.401291 
L 10.751875 47.140169 
L 10.851402 47.762489 
L 10.854512 47.749308 
L 10.860733 48.096231 
L 10.863843 48.046191 
L 10.947819 48.594504 
L 10.96337 47.518251 
L 10.978921 47.161007 
L 11.038015 48.652494 
L 11.053567 48.333655 
L 11.072228 48.501953 
L 11.066007 48.178604 
L 11.090889 48.259901 
L 11.196637 47.847139 
L 11.134432 48.653728 
L 11.205967 47.9246 
L 11.221518 48.592702 
L 11.305494 47.116443 
L 11.308605 47.16899 
L 11.324156 46.839145 
L 11.370809 48.139658 
L 11.38947 48.554157 
L 11.433013 46.887388 
L 11.461005 47.111801 
L 11.554312 45.706374 
L 11.576084 46.752388 
L 11.638288 48.302154 
L 11.694272 47.668592 
L 11.700492 47.607539 
L 11.706713 47.722866 
L 11.768917 48.670545 
L 11.81246 47.560468 
L 11.821791 47.367109 
L 11.874665 48.525528 
L 11.880885 48.449308 
L 11.883995 48.536285 
L 11.908877 47.815772 
L 11.980412 48.258499 
L 12.08616 47.462117 
L 12.002184 48.600539 
L 12.0986 47.787718 
L 12.120372 48.558662 
L 12.204348 47.378348 
L 12.210568 47.227783 
L 12.272773 48.674516 
L 12.310095 47.630116 
L 12.316316 47.710666 
L 12.322536 47.701119 
L 12.350528 48.541626 
L 12.366079 47.575014 
L 12.434504 48.023686 
L 12.568244 47.373899 
L 12.471827 48.595913 
L 12.571354 47.379011 
L 12.577574 47.474793 
L 12.630448 46.22221 
L 12.636669 46.315656 
L 12.639779 46.186749 
L 12.705093 47.915886 
L 12.708204 47.820113 
L 12.739306 48.253113 
L 12.770408 46.930782 
L 12.817061 47.829249 
L 12.873045 48.508563 
L 12.997454 46.153511 
L 13.140524 48.482883 
L 13.146745 48.399669 
L 13.249382 47.800562 
L 13.184067 48.635899 
L 13.264933 47.997606 
L 13.35824 48.66138 
L 13.339578 47.99386 
L 13.389342 48.576433 
L 13.435995 47.85836 
L 13.482648 48.594736 
L 13.50442 48.368243 
L 13.622608 47.855273 
L 13.566624 48.656666 
L 13.625719 47.874067 
L 13.672372 48.491049 
L 13.706584 47.441788 
L 13.747017 48.380959 
L 13.855875 46.791726 
L 13.818552 48.608027 
L 13.880757 47.770877 
L 13.890087 48.0279 
L 13.93363 46.406663 
L 13.939851 46.463599 
L 13.942961 46.132105 
L 14.036268 48.010114 
L 14.07359 47.574087 
L 14.114023 48.622631 
L 14.138905 47.861047 
L 14.145125 48.388694 
L 14.21666 47.008084 
L 14.247763 47.650073 
L 14.250873 47.620996 
L 14.275755 48.424211 
L 14.281975 48.314995 
L 14.285085 48.404953 
L 14.325518 47.369479 
L 14.387722 48.16492 
L 14.502801 47.843686 
L 14.477919 48.602586 
L 14.505911 47.941368 
L 14.602328 47.853839 
L 14.620989 48.657036 
L 14.711185 47.576649 
L 14.692524 48.679322 
L 14.732957 48.066396 
L 14.792051 48.547255 
L 14.826263 47.663898 
L 14.841815 47.905346 
L 14.876027 48.624862 
L 14.848035 47.796728 
L 14.966223 48.500825 
L 15.043979 47.520894 
L 15.009766 48.530112 
L 15.093742 47.865686 
L 15.146616 48.358123 
L 15.118624 46.679243 
L 15.211931 48.168129 
L 15.299017 47.63587 
L 15.243033 48.516468 
L 15.333229 47.958336 
L 15.429646 48.606724 
L 15.417205 47.83066 
L 15.448307 48.208119 
L 15.510512 48.343284 
L 15.529173 47.465468 
L 15.538504 46.746041 
L 15.61937 48.526118 
L 15.62559 48.331723 
L 15.641141 47.762729 
L 15.718897 48.520792 
L 15.734448 48.364765 
L 15.827754 48.699942 
L 15.76244 47.913902 
L 15.855746 48.545254 
L 15.917951 47.880629 
L 15.961494 48.647864 
L 15.967714 48.420852 
L 16.04547 48.044609 
L 16.067241 48.626791 
L 16.076572 48.40304 
L 16.129446 48.531078 
L 16.110784 47.570256 
L 16.169879 48.10399 
L 16.272516 47.983743 
L 16.219642 48.610488 
L 16.278736 48.112298 
L 16.294287 48.597466 
L 16.347161 47.72003 
L 16.378263 47.883137 
L 16.387594 47.644127 
L 16.415586 48.244791 
L 16.487121 47.924218 
L 16.493341 48.071355 
L 16.530664 47.519471 
L 16.533774 47.549105 
L 16.655073 45.901532 
L 16.664404 46.258792 
L 16.714167 48.650705 
L 16.795033 48.063612 
L 16.838576 48.629943 
L 16.925662 47.453934 
L 16.966095 48.611909 
L 17.000307 47.34495 
L 17.04074 48.038549 
L 17.146488 48.590245 
L 17.046961 47.950859 
L 17.165149 48.345936 
L 17.171369 48.531015 
L 17.224243 47.929961 
L 17.252235 48.338103 
L 17.305109 47.640582 
L 17.280227 48.598227 
L 17.361093 48.208548 
L 17.385975 48.640922 
L 17.429518 48.062524 
L 17.473061 48.516518 
L 17.482391 48.613245 
L 17.544596 47.54564 
L 17.578808 48.514733 
L 17.659674 47.793795 
L 17.6068 48.610983 
L 17.700107 48.030301 
L 17.712548 48.441072 
L 17.802744 47.645612 
L 17.824516 46.850776 
L 17.905381 48.339599 
L 17.911602 47.847152 
L 17.914712 47.817922 
L 17.967586 48.261712 
L 17.998688 48.675276 
L 18.070223 47.965916 
L 18.076443 48.241418 
L 18.079554 48.240569 
L 18.085774 48.31922 
L 18.095105 48.565538 
L 18.123097 47.96309 
L 18.179081 48.221307 
L 18.266167 47.540282 
L 18.197742 48.586798 
L 18.287938 48.14126 
L 18.31593 48.366105 
L 18.381245 47.794119 
L 18.384355 47.674013 
L 18.418568 48.647032 
L 18.477662 48.296342 
L 18.502544 47.938366 
L 18.59585 48.621103 
L 18.623842 47.74058 
L 18.701598 48.674866 
L 18.707818 48.470685 
L 18.720259 48.640881 
L 18.801125 48.319927 
L 18.819786 48.618899 
L 18.822896 48.652997 
L 18.885101 48.266619 
L 18.906872 48.507399 
L 18.931754 48.171839 
L 18.947305 48.654266 
L 19.01573 48.579946 
L 19.081045 48.00997 
L 19.025061 48.616669 
L 19.130808 48.274295 
L 19.221004 47.614601 
L 19.242776 48.557539 
L 19.264547 47.952533 
L 19.351634 48.585068 
L 19.354744 48.623939 
L 19.376515 47.7921 
L 19.413838 48.122517 
L 19.510255 46.854335 
L 19.535137 47.52968 
L 19.681317 48.517487 
L 19.709309 48.266343 
L 19.755962 47.882685 
L 19.787064 48.676734 
L 19.821277 48.064543 
L 19.8586 47.459536 
L 19.939465 48.354464 
L 19.958127 47.954181 
L 19.983008 48.625304 
L 20.048323 48.418251 
L 20.088756 48.277051 
L 20.066984 48.670861 
L 20.104307 48.523954 
L 20.172732 48.676337 
L 20.188283 47.94344 
L 20.210054 48.461588 
L 20.231826 48.145494 
L 20.219385 48.543099 
L 20.312692 48.465259 
L 20.318912 48.657146 
L 20.340684 48.190512 
L 20.421549 48.47664 
L 20.455762 48.644513 
L 20.4371 48.189454 
L 20.493084 48.268325 
L 20.536627 48.007594 
L 20.549068 48.563313 
L 20.586391 48.320926 
L 20.589501 48.668357 
L 20.667257 47.581353 
L 20.695249 48.594629 
L 20.797886 47.153898 
L 20.813437 47.450082 
L 20.85387 48.674178 
L 20.944066 48.624379 
L 20.981389 48.639462 
L 21.071585 47.830117 
L 21.105798 48.682529 
L 21.186663 48.421187 
L 21.295521 47.365931 
L 21.261309 48.667832 
L 21.307962 47.649014 
L 21.320403 48.605466 
L 21.42304 48.435299 
L 21.429261 48.346244 
L 21.444812 48.556281 
L 21.447922 48.432285 
L 21.460363 48.059076 
L 21.503906 48.644423 
L 21.55678 48.324376 
L 21.640756 48.558736 
L 21.600323 47.980084 
L 21.665637 48.202358 
L 21.70918 48.661328 
L 21.724732 48.027103 
L 21.777605 48.310761 
L 21.889573 47.89064 
L 21.821148 48.515316 
L 21.892683 48.069446 
L 21.948667 48.686195 
L 21.973549 48.054836 
L 22.007762 48.589848 
L 22.032643 48.663995 
L 22.12595 47.978993 
L 22.234808 48.656471 
L 22.13217 47.814665 
L 22.244138 48.527705 
L 22.26902 48.645584 
L 22.325004 48.067865 
L 22.346776 48.374908 
L 22.365437 47.487511 
L 22.396539 48.54067 
L 22.455633 48.317564 
L 22.480515 48.633907 
L 22.536499 47.398798 
L 22.542719 47.588621 
L 22.54894 47.321574 
L 22.614254 48.129037 
L 22.645357 47.958214 
L 22.679569 48.341632 
L 22.69201 47.744153 
L 22.69512 47.648682 
L 22.757325 48.495377 
L 22.788427 48.039489 
L 22.891064 48.680136 
L 22.909725 48.569161 
L 22.956379 48.182718 
L 22.934607 48.691741 
L 23.018583 48.551967 
L 23.040355 48.645698 
L 23.11189 48.212508 
L 23.124331 48.483796 
L 23.180315 48.040548 
L 23.211417 48.635888 
L 23.226968 48.670977 
L 23.239409 48.19486 
L 23.242519 48.284068 
L 23.248739 47.908015 
L 23.273621 48.656475 
L 23.348266 48.524254 
L 23.370038 48.658305 
L 23.39181 48.230048 
L 23.40425 48.324275 
L 23.426022 47.904432 
L 23.447793 48.573367 
L 23.513108 48.407561 
L 23.5411 48.666061 
L 23.597084 48.316857 
L 23.628186 48.630707 
L 23.705942 47.989157 
L 23.68728 48.679551 
L 23.737044 48.448848 
L 23.749485 48.663091 
L 23.783697 48.025259 
L 23.849012 48.564458 
L 23.852122 48.604621 
L 23.926767 48.1601 
L 23.939208 48.311734 
L 23.96098 48.05456 
L 23.945429 48.428618 
L 23.982751 48.161155 
L 23.992082 47.864145 
L 24.082278 48.657345 
L 24.085389 48.602998 
L 24.088499 48.649065 
L 24.116491 47.615577 
L 24.163144 48.169867 
L 24.181805 48.003457 
L 24.216018 48.618756 
L 24.272002 48.211868 
L 24.284443 48.560028 
L 24.340427 47.847483 
L 24.377749 48.206856 
L 24.396411 48.125818 
L 24.458615 48.66947 
L 24.471056 48.449557 
L 24.502158 47.944273 
L 24.583024 48.63781 
L 24.626567 48.089997 
L 24.701212 48.348779 
L 24.800739 48.695976 
L 24.747865 47.686626 
L 24.81318 48.526589 
L 24.894046 47.992809 
L 24.850503 48.660834 
L 24.909597 48.476214 
L 24.943809 48.69282 
L 24.990463 48.168467 
L 25.024675 48.657435 
L 25.061998 47.729126 
L 25.133533 48.573477 
L 25.152194 48.665475 
L 25.180186 48.377023 
L 25.195737 48.176424 
L 25.223729 48.664973 
L 25.261052 48.502432 
L 25.264162 48.674428 
L 25.289044 48.196464 
L 25.366799 48.439655 
L 25.385461 48.161314 
L 25.397901 48.658453 
L 25.475657 48.466885 
L 25.506759 48.695661 
L 25.559633 48.088719 
L 25.578294 48.331429 
L 25.649829 48.148594 
L 25.612507 48.598449 
L 25.652939 48.314425 
L 25.712034 48.539741 
L 25.674711 47.840752 
L 25.755577 47.981723 
L 25.855104 48.573682 
L 25.814671 47.650346 
L 25.895537 48.347477 
L 25.995064 47.835288 
L 25.967072 48.397043 
L 26.013725 47.856958 
L 26.051048 48.647641 
L 26.125693 48.073734 
L 26.131913 47.75269 
L 26.178567 48.658524 
L 26.234551 48.143634 
L 26.274983 48.326803 
L 26.240771 47.973936 
L 26.287424 48.095754 
L 26.396282 47.925617 
L 26.36829 48.641802 
L 26.399392 48.007634 
L 26.433605 48.566284 
L 26.51447 48.470439 
L 26.551793 48.153736 
L 26.607777 48.656072 
L 26.620218 48.542249 
L 26.65443 48.646631 
L 26.669981 48.34719 
L 26.676202 48.031653 
L 26.738406 48.658369 
L 26.778839 48.452366 
L 26.79439 48.173318 
L 26.850374 48.656294 
L 26.887697 48.452679 
L 26.906358 48.640763 
L 26.93435 48.23894 
L 26.999665 48.547456 
L 27.07742 48.093136 
L 27.008995 48.656863 
L 27.114743 48.291309 
L 27.127184 48.645585 
L 27.21738 48.098446 
L 27.226711 48.320359 
L 27.236041 48.158817 
L 27.276474 48.660751 
L 27.323128 48.553397 
L 27.326238 48.631723 
L 27.341789 48.089853 
L 27.422655 48.290264 
L 27.425765 48.298414 
L 27.431985 48.146543 
L 27.438206 47.796904 
L 27.515961 48.6547 
L 27.547063 47.889406 
L 27.559504 48.620788 
L 27.590607 47.790463 
L 27.662142 48.524557 
L 27.674583 47.994692 
L 27.690134 48.662311 
L 27.77411 48.248801 
L 27.879857 47.751605 
L 27.823873 48.609348 
L 27.889188 48.000357 
L 28.001156 48.674283 
L 28.010486 48.651188 
L 28.119344 47.831114 
L 28.128675 47.9258 
L 28.20954 48.644217 
L 28.240643 48.409451 
L 28.34328 48.148271 
L 28.277965 48.679359 
L 28.3495 48.467474 
L 28.442807 47.902092 
L 28.417925 48.626968 
L 28.48013 48.150647 
L 28.495681 48.674044 
L 28.607649 48.589379 
L 28.666743 48.261609 
L 28.613869 48.659092 
L 28.725837 48.412315 
L 28.781821 48.665413 
L 28.816033 48.027775 
L 28.834695 48.285901 
L 28.840915 48.016765 
L 28.893789 48.612858 
L 28.931111 48.476063 
L 28.940442 48.656084 
L 29.030638 48.10441 
L 29.036859 48.419804 
L 29.130165 47.891309 
L 29.099063 48.571406 
L 29.148827 48.174591 
L 29.220362 48.632332 
L 29.19548 47.997601 
L 29.263905 48.476266 
L 29.378983 48.070927 
L 29.316779 48.676182 
L 29.382093 48.080399 
L 29.406975 48.644435 
L 29.459849 47.907984 
L 29.497171 48.435484 
L 29.503392 48.686324 
L 29.590478 48.010108 
L 29.606029 48.374352 
L 29.61847 47.955898 
L 29.690005 48.636048 
L 29.717997 48.341224 
L 29.786422 48.645973 
L 29.733548 48.146422 
L 29.839296 48.500776 
L 29.910831 48.014527 
L 29.889059 48.574194 
L 29.948153 48.431226 
L 29.960594 48.693422 
L 30.004137 48.149651 
L 30.060121 48.674241 
L 30.134767 48.057221 
L 30.172089 48.417391 
L 30.259175 48.665328 
L 30.18453 48.170389 
L 30.287167 48.584804 
L 30.368033 48.234445 
L 30.32449 48.682507 
L 30.399135 48.435754 
L 30.489332 48.659614 
L 30.414686 48.071765 
L 30.511103 48.462277 
L 30.6013 48.281569 
L 30.591969 48.664293 
L 30.623071 48.421325 
L 30.641732 48.671512 
L 30.713268 48.175241 
L 30.735039 48.479375 
L 30.738149 48.228389 
L 30.778582 48.685105 
L 30.840787 48.560671 
L 30.88744 48.677825 
L 30.930983 48.122856 
L 30.937203 48.224444 
L 30.943424 48.034088 
L 30.996298 48.640559 
L 31.049171 48.037465 
L 31.130037 48.605462 
L 31.058502 47.887536 
L 31.161139 48.086756 
L 31.182911 47.632558 
L 31.201572 48.638315 
L 31.263776 48.574115 
L 31.273107 48.594448 
L 31.285548 48.361861 
L 31.388185 47.987091 
L 31.350863 48.627461 
L 31.400626 48.067338 
L 31.409957 47.913565 
L 31.441059 48.609484 
L 31.500153 48.457799 
L 31.528145 48.586595 
L 31.568578 47.942572 
L 31.577909 47.991366 
L 31.587239 47.877272 
L 31.60279 48.580116 
L 31.649444 48.340518 
L 31.661885 48.686224 
L 31.755191 48.187745 
L 31.758301 48.396543 
L 31.780073 48.070358 
L 31.864049 48.663806 
L 31.913812 48.286516 
L 31.972907 48.702225 
L 31.976017 48.640589 
L 32.091095 48.188132 
L 32.004009 48.682172 
L 32.131528 48.409568 
L 32.175071 48.684118 
L 32.199953 48.168933 
L 32.246606 48.556973 
L 32.280818 48.249327 
L 32.262157 48.678134 
L 32.355464 48.448019 
L 32.433219 48.69345 
L 32.411448 48.295995 
L 32.461211 48.458397 
L 32.482983 48.662243 
L 32.576289 48.049875 
L 32.678927 48.693124 
L 32.688257 48.581504 
L 32.741131 47.958088 
L 32.769123 48.63694 
L 32.803335 48.330958 
L 32.933965 48.626263 
L 32.834438 48.24398 
L 32.952626 48.542768 
L 32.958846 48.228369 
L 33.021051 48.671097 
L 33.061484 48.488692 
L 33.161011 48.617795 
L 33.15479 48.001137 
L 33.170341 48.482975 
L 33.223215 48.113042 
L 33.195223 48.689052 
L 33.251207 48.427403 
L 33.260538 48.679302 
L 33.285419 47.839376 
L 33.356955 48.343498 
L 33.391167 48.12642 
L 33.425379 48.689358 
L 33.465812 48.410007 
L 33.562229 47.956372 
L 33.524906 48.651965 
L 33.584001 48.068769 
L 33.677307 48.668456 
L 33.699079 48.411387 
L 33.779944 48.654078 
L 33.792385 48.203675 
L 33.807936 48.380444 
L 33.842149 48.147246 
L 33.814157 48.577138 
L 33.885692 48.410828 
L 33.988329 48.675464 
L 33.944786 48.309288 
L 33.99766 48.471923 
L 34.115848 48.654403 
L 34.025652 48.100572 
L 34.122069 48.604441 
L 34.159391 48.16941 
L 34.13762 48.653171 
L 34.243367 48.254999 
L 34.252698 48.165714 
L 34.274469 48.387869 
L 34.28691 48.251062 
L 34.401988 48.655712 
L 34.442421 48.045715 
L 34.517067 48.105732 
L 34.541948 48.664623 
L 34.616594 48.052502 
L 34.632145 48.42798 
L 34.694349 48.047332 
L 34.672578 48.655344 
L 34.731672 48.530294 
L 34.778325 48.679475 
L 34.818758 48.172422 
L 34.828089 48.323804 
L 34.859191 47.991884 
L 34.874742 48.414928 
L 34.933836 48.397324 
L 34.955608 48.644838 
L 34.996041 48.267041 
L 35.045804 48.446238 
L 35.070686 48.032744 
L 35.13289 48.678633 
L 35.154662 48.518311 
L 35.285291 47.754726 
L 35.300842 47.911773 
L 35.322614 48.665343 
L 35.422141 48.622143 
L 35.453243 47.968811 
L 35.527888 48.677241 
L 35.534109 48.417512 
L 35.593203 48.680852 
L 35.543439 48.329375 
L 35.646077 48.471666 
L 35.649187 48.474078 
L 35.658517 48.129084 
L 35.754934 48.602491 
L 35.758044 48.452538 
L 35.854461 48.109597 
L 35.764265 48.674438 
L 35.870012 48.374384 
L 35.901115 48.658592 
L 35.97265 48.254523 
L 35.97576 48.268783 
L 35.98198 48.176735 
L 35.98509 48.247322 
L 36.053515 48.671924 
L 36.100169 48.605248 
L 36.153042 48.209711 
L 36.128161 48.645236 
L 36.199696 48.613951 
L 36.202806 48.680801 
L 36.286782 48.266728 
L 36.299223 48.425425 
L 36.320994 48.068525 
L 36.336545 48.603633 
L 36.40497 48.522073 
L 36.417411 48.698748 
L 36.467175 48.196645 
L 36.485836 48.325492 
L 36.551151 48.109953 
L 36.591583 48.62627 
L 36.663118 48.202728 
L 36.632016 48.680377 
L 36.709772 48.37138 
L 36.765756 47.965485 
L 36.728433 48.59628 
L 36.806189 48.347638 
L 36.83107 48.644972 
L 36.902605 47.812967 
L 36.918157 48.515926 
L 36.9617 48.08538 
L 37.020794 48.670527 
L 37.027014 48.537713 
L 37.082998 47.943174 
L 37.058116 48.566718 
L 37.145203 48.271734 
L 37.24473 48.66482 
L 37.201187 47.926776 
L 37.260281 48.631105 
L 37.359808 48.68586 
L 37.38469 48.134003 
L 37.456225 48.66315 
L 37.496657 48.324394 
L 37.499768 48.206391 
L 37.53087 48.665047 
L 37.599295 48.517209 
L 37.701932 48.693987 
L 37.655279 48.254561 
L 37.714373 48.609889 
L 37.767247 48.139538 
L 37.8139 48.667754 
L 37.826341 48.466198 
L 37.832561 48.654797 
L 37.869884 48.165637 
L 37.932088 48.535155 
L 37.935198 48.228486 
L 38.022285 48.701702 
L 38.040946 48.698108 
L 38.090709 48.2747 
L 38.152914 48.627591 
L 38.159134 48.692196 
L 38.184016 48.436393 
L 38.218228 48.58662 
L 38.302204 48.055845 
L 38.227559 48.64573 
L 38.327086 48.552343 
L 38.392401 48.633449 
L 38.355078 48.025087 
L 38.411062 48.36204 
L 38.476377 48.046389 
L 38.448385 48.679339 
L 38.51681 48.36897 
L 38.625667 48.653703 
L 38.535471 48.076077 
L 38.628778 48.609753 
L 38.672321 48.116829 
L 38.740745 48.438464 
L 38.80606 48.187758 
L 38.852713 48.624107 
L 38.914918 48.218258 
L 38.967792 48.283561 
L 39.042437 48.682468 
L 38.995784 48.11302 
L 39.08598 48.644943 
L 39.154405 48.071133 
L 39.185507 48.672927 
L 39.22283 48.361087 
L 39.23216 48.691064 
L 39.288144 48.236163 
L 39.331687 48.262179 
L 39.37212 48.672599 
L 39.384561 48.126542 
L 39.446765 48.463769 
L 39.452986 48.10727 
L 39.474757 48.675392 
L 39.558733 48.360596 
L 39.605387 48.69573 
L 39.64893 47.963832 
L 39.667591 48.459256 
L 39.770228 48.202207 
L 39.736016 48.647176 
L 39.779559 48.279182 
L 39.882196 48.642723 
L 39.792 48.169969 
L 39.891527 48.465998 
L 39.956842 48.277103 
L 39.903968 48.6634 
L 39.987944 48.575021 
L 40.090581 48.668675 
L 40.015936 48.372108 
L 40.093691 48.542701 
L 40.168336 48.327808 
L 40.186998 48.656219 
L 40.202549 48.496308 
L 40.2181 48.698363 
L 40.295855 48.071827 
L 40.305186 48.343802 
L 40.351839 48.196981 
L 40.407823 48.676146 
L 40.463807 47.87076 
L 40.529122 48.423516 
L 40.538453 48.631992 
L 40.616208 48.161724 
L 40.628649 48.288815 
L 40.631759 48.070306 
L 40.656641 48.673234 
L 40.737507 48.402292 
L 40.740617 48.395563 
L 40.756168 48.591992 
L 40.762388 48.530567 
L 40.805932 48.656732 
L 40.774829 48.30351 
L 40.865026 48.47325 
L 40.902348 47.836356 
L 40.964553 48.660565 
L 40.970773 48.634696 
L 41.088962 47.860197 
L 41.101402 48.265429 
L 41.151166 48.663324 
L 41.21337 48.298106 
L 41.291126 48.044885 
L 41.266244 48.676541 
L 41.319118 48.43725 
L 41.375102 48.683889 
L 41.365771 48.026914 
L 41.431086 48.654129 
L 41.539944 48.309717 
L 41.502621 48.681965 
L 41.546164 48.477324 
L 41.605258 48.216468 
L 41.617699 48.69971 
L 41.651911 48.550333 
L 41.676793 48.653048 
L 41.695455 48.245256 
L 41.757659 48.41093 
L 41.763879 48.18684 
L 41.829194 48.681606 
L 41.866517 48.434979 
L 41.903839 48.695359 
L 41.944272 48.257081 
L 41.978485 48.588344 
L 42.05002 48.333276 
L 42.018917 48.671568 
L 42.087342 48.590243 
L 42.102893 48.692606 
L 42.152657 48.313782 
L 42.183759 48.498521 
L 42.1962 48.229833 
L 42.239743 48.656949 
L 42.292617 48.46368 
L 42.305058 48.645299 
L 42.382813 48.223719 
L 42.401474 48.55702 
L 42.435687 48.090192 
L 42.463679 48.617 
L 42.516553 48.333669 
L 42.519663 48.598367 
L 42.532104 48.019754 
L 42.62541 48.338108 
L 42.628521 48.335486 
L 42.631631 48.395515 
L 42.637851 48.666522 
L 42.706276 48.273687 
L 42.743599 48.516172 
L 42.852456 48.260133 
L 42.830685 48.660685 
L 42.855567 48.348458 
L 42.880448 48.216073 
L 42.868007 48.477849 
L 42.89911 48.393874 
L 42.933322 48.657616 
L 42.998637 47.946584 
L 43.129266 48.697679 
L 43.007967 47.912908 
L 43.135486 48.407447 
L 43.175919 47.968967 
L 43.238124 48.624005 
L 43.244344 48.539352 
L 43.247454 48.68006 
L 43.337651 48.138237 
L 43.353202 48.630363 
L 43.396745 48.205241 
L 43.409186 48.651537 
L 43.46517 48.60161 
L 43.527374 48.191628 
L 43.542925 48.663239 
L 43.574027 48.528997 
L 43.620681 48.644201 
L 43.670444 48.223091 
L 43.682885 48.558023 
L 43.704657 48.246696 
L 43.732649 48.691091 
L 43.791743 48.573502 
L 43.850837 48.446499 
L 43.822845 48.693167 
L 43.900601 48.621424 
L 43.987687 48.678432 
L 43.959695 48.282362 
L 44.000128 48.463733 
L 44.096544 48.160927 
L 44.053001 48.645719 
L 44.108985 48.419888 
L 44.168079 48.676723 
L 44.208512 48.315296 
L 44.220953 48.47996 
L 44.286268 48.226181 
L 44.264496 48.642689 
L 44.329811 48.477244 
L 44.339142 48.664926 
L 44.367134 48.149962 
L 44.438669 48.608344 
L 44.482212 48.152994 
L 44.547526 48.663909 
L 44.550637 48.537331 
L 44.647053 48.058348 
L 44.615951 48.657577 
L 44.659494 48.452476 
L 44.759021 48.669611 
L 44.706148 48.092923 
L 44.768352 48.546519 
L 44.796344 48.177717 
L 44.842997 48.636739 
L 44.88032 48.320085 
L 44.936304 48.649357 
L 44.951855 48.066273 
L 44.986067 48.140511 
L 45.004729 48.425524 
L 45.02961 48.632904 
L 45.076264 48.018536 
L 45.113586 48.407825 
L 45.122917 48.633432 
L 45.144689 48.207548 
L 45.213113 48.466879 
L 45.31264 48.162082 
L 45.241105 48.677416 
L 45.318861 48.357599 
L 45.387286 48.670553 
L 45.427719 48.253705 
L 45.430829 48.494266 
L 45.437049 48.650554 
L 45.502364 48.16951 
L 45.539686 48.465308 
L 45.552127 48.666419 
L 45.58945 48.397775 
L 45.59567 48.649025 
L 45.636103 48.21133 
L 45.698308 48.478801 
L 45.7263 48.352131 
L 45.785394 48.681496 
L 45.804055 48.561635 
L 45.850708 48.689684 
L 45.86937 48.176438 
L 45.897362 48.435407 
L 45.900472 48.138205 
L 45.959566 48.654422 
L 46.00622 48.589324 
L 46.00933 48.69027 
L 46.096416 48.250985 
L 46.115077 48.591407 
L 46.171061 48.276754 
L 46.146179 48.639928 
L 46.233266 48.464228 
L 46.279919 48.246303 
L 46.335903 48.649903 
L 46.382556 48.343085 
L 46.398107 48.657946 
L 46.447871 48.569369 
L 46.463422 48.612039 
L 46.454091 48.352811 
L 46.472753 48.488919 
L 46.531847 48.675601 
L 46.590941 48.076338 
L 46.628264 48.659245 
L 46.709129 48.553355 
L 46.749562 48.257601 
L 46.72157 48.632547 
L 46.824207 48.365967 
L 46.895742 48.629646 
L 46.85842 48.29077 
L 46.929955 48.321988 
L 46.939286 47.99364 
L 46.982829 48.680572 
L 47.041923 48.168703 
L 47.088576 48.56111 
L 47.15078 48.513399 
L 47.153891 48.163146 
L 47.219205 48.660129 
L 47.262748 48.375754 
L 47.343614 48.68985 
L 47.312512 48.278676 
L 47.374716 48.520737 
L 47.42448 48.231479 
L 47.393378 48.671522 
L 47.480464 48.39704 
L 47.508456 48.64765 
L 47.527117 48.204654 
L 47.592432 48.635671 
L 47.654636 48.249546 
L 47.614203 48.680174 
L 47.70751 48.521775 
L 47.788376 48.650593 
L 47.747943 48.165213 
L 47.813257 48.434827 
L 47.819478 48.310113 
L 47.825698 48.454831 
L 47.866131 48.701727 
L 47.875462 48.210012 
L 47.937666 48.596142 
L 47.940776 48.686101 
L 48.002981 48.303219 
L 48.049634 48.62215 
L 48.146051 48.183823 
L 48.068295 48.664872 
L 48.161602 48.437018 
L 48.195814 48.645992 
L 48.208255 48.314449 
L 48.27979 48.469437 
L 48.307782 48.166106 
L 48.323333 48.702699 
L 48.394869 48.321949 
L 48.450852 48.673381 
L 48.429081 48.28721 
L 48.506836 48.610291 
L 48.587702 48.123686 
L 48.55038 48.640852 
L 48.625025 48.238664 
L 48.671678 48.66496 
L 48.724552 48.23426 
L 48.740103 48.470377 
L 48.796087 48.032681 
L 48.83652 48.59145 
L 48.855181 48.231974 
L 48.873842 48.629601 
L 48.926716 47.990386 
L 48.970259 48.557378 
L 48.973369 48.155739 
L 49.026243 48.674075 
L 49.082227 48.209394 
L 49.110219 48.57765 
L 49.12888 47.991759 
L 49.194195 48.3699 
L 49.299943 48.190041 
L 49.284391 48.641482 
L 49.306163 48.246321 
L 49.309273 48.22858 
L 49.331045 48.602258 
L 49.359037 48.433509 
L 49.380808 48.644885 
L 49.418131 48.298368 
L 49.467894 48.492459 
L 49.474115 48.166522 
L 49.54876 48.704366 
L 49.576752 48.444196 
L 49.666949 48.642036 
L 49.660728 48.28885 
L 49.69183 48.57684 
L 49.701161 48.422283 
L 49.797578 48.270814 
L 49.754035 48.685186 
L 49.806908 48.379454 
L 49.881554 48.674836 
L 49.903325 48.278895 
L 49.918876 48.478808 
L 49.981081 48.323346 
L 49.934427 48.684955 
L 50.030844 48.408822 
L 50.11482 48.658847 
L 50.037065 48.289869 
L 50.145922 48.552009 
L 50.220568 48.279353 
L 50.226788 48.686491 
L 50.25789 48.524962 
L 50.282772 48.191395 
L 50.323205 48.660228 
L 50.357417 48.411534 
L 50.360528 48.69363 
L 50.379189 48.337263 
L 50.466275 48.498267 
L 50.54092 48.360003 
L 50.559582 48.64845 
L 50.575133 48.441315 
L 50.662219 48.662221 
L 50.584463 48.357107 
L 50.693321 48.575814 
L 50.764856 48.170219 
L 50.718203 48.634582 
L 50.805289 48.451962 
L 50.876824 48.664531 
L 50.836391 48.385702 
L 50.923477 48.533556 
L 50.926588 48.534594 
L 51.035445 48.180822 
L 50.988792 48.694123 
L 51.041666 48.291905 
L 51.075878 48.666738 
L 51.150523 48.28728 
L 51.153634 48.214294 
L 51.200287 48.683208 
L 51.250051 48.343757 
L 51.355798 48.575278 
L 51.306034 48.220671 
L 51.358908 48.475034 
L 51.365129 48.108797 
L 51.38068 48.647461 
L 51.467766 48.528913 
L 51.551742 48.666351 
L 51.501978 48.087014 
L 51.554852 48.48537 
L 51.579734 48.107782 
L 51.641938 48.697425 
L 51.6606 48.479712 
L 51.722804 48.699056 
L 51.744575 48.283485 
L 51.766347 48.341308 
L 51.80989 48.270651 
L 51.831662 48.586308 
L 51.850323 48.443665 
L 51.937409 48.679573 
L 51.912527 48.246266 
L 51.95296 48.280676 
L 51.971622 48.117293 
L 52.005834 48.669896 
L 52.055598 48.267259 
L 52.08981 48.668358 
L 52.167565 48.626145 
L 52.263982 48.281971 
L 52.173786 48.697959 
L 52.276423 48.663222 
L 52.36973 48.338671 
L 52.400832 48.535085 
L 52.456816 48.677762 
L 52.435044 48.32511 
L 52.503469 48.524727 
L 52.537682 48.301818 
L 52.593666 48.685985 
L 52.615437 48.382607 
L 52.65276 48.689061 
L 52.708744 48.226901 
L 52.727405 48.486394 
L 52.808271 48.316399 
L 52.758507 48.657696 
L 52.836263 48.422553 
L 52.914018 48.694491 
L 52.929569 48.254386 
L 52.94512 48.389863 
L 52.982443 48.250734 
L 52.979333 48.651106 
L 53.047758 48.444595 
L 53.060199 48.674903 
L 53.066419 48.21282 
L 53.153505 48.510801 
L 53.22193 48.108932 
L 53.256142 48.574999 
L 53.265473 48.415781 
L 53.274804 48.20698 
L 53.343229 48.563181 
L 53.374331 48.403172 
L 53.458307 48.658043 
L 53.392992 48.233867 
L 53.480078 48.291086 
L 53.495629 48.265944 
L 53.486299 48.438808 
L 53.49874 48.334127 
L 53.523621 48.682736 
L 53.539172 48.219231 
L 53.610708 48.47729 
L 53.719565 48.639481 
L 53.682243 48.363804 
L 53.722675 48.558574 
L 53.756888 48.000416 
L 53.728896 48.671028 
L 53.828423 48.661333 
L 53.831533 48.666047 
L 53.837754 48.594652 
L 53.943501 48.209278 
L 53.903068 48.652033 
L 53.952832 48.315638 
L 53.955942 48.209788 
L 53.977713 48.679494 
L 54.061689 48.32311 
L 54.158106 48.676204 
L 54.176768 48.588065 
L 54.226531 48.273167 
L 54.182988 48.645767 
L 54.270074 48.495919 
L 54.344719 48.341442 
L 54.382042 48.68657 
L 54.419365 48.323521 
L 54.49401 48.471986 
L 54.50023 48.69387 
L 54.584206 48.233103 
L 54.602868 48.471387 
L 54.609088 48.357816 
L 54.686844 48.696211 
L 54.702395 48.608319 
L 54.742828 48.69345 
L 54.721056 48.35029 
L 54.786371 48.498088 
L 54.798812 48.254651 
L 54.854796 48.689777 
L 54.898339 48.474757 
L 54.901449 48.621063 
L 54.907669 48.226139 
L 55.010307 48.580934 
L 55.047629 48.259344 
L 55.088062 48.640572 
L 55.125385 48.383447 
L 55.187589 48.686327 
L 55.218691 47.937022 
L 55.237353 48.433266 
L 55.268455 48.682045 
L 55.299557 48.316013 
L 55.34621 48.440489 
L 55.371092 48.158593 
L 55.448848 48.634636 
L 55.451958 48.518396 
L 55.554595 48.640418 
L 55.539044 48.280881 
L 55.563926 48.5517 
L 55.610579 48.208527 
L 55.672783 48.692535 
L 55.778531 48.203817 
L 55.784751 48.348725 
L 55.800302 48.67592 
L 55.887389 48.202141 
L 55.896719 48.584659 
L 55.91227 48.336114 
L 55.983805 48.68362 
L 56.002467 48.617313 
L 56.018018 48.625252 
L 56.008687 48.439299 
L 56.030459 48.48637 
L 56.139316 48.064313 
L 56.101994 48.678635 
L 56.151757 48.267661 
L 56.18908 48.672014 
L 56.263725 48.563998 
L 56.32904 48.274932 
L 56.350811 48.666485 
L 56.378803 48.419889 
L 56.397465 48.376327 
L 56.388134 48.528777 
L 56.406795 48.518528 
L 56.425457 48.665964 
L 56.500102 48.243107 
L 56.512543 48.5133 
L 56.584078 48.224591 
L 56.565417 48.680524 
L 56.621401 48.539854 
L 56.674274 48.694244 
L 56.646282 48.435817 
L 56.730258 48.558044 
L 56.829785 48.347135 
L 56.798683 48.679805 
L 56.842226 48.506941 
L 56.854667 48.694209 
L 56.919982 48.249482 
L 56.947974 48.582058 
L 56.963525 48.692887 
L 57.056831 48.267108 
L 57.134587 48.681628 
L 57.165689 48.39946 
L 57.190571 48.702501 
L 57.274547 48.256647 
L 57.374074 48.665262 
L 57.386515 48.483494 
L 57.46427 48.00138 
L 57.405176 48.660126 
L 57.476711 48.441204 
L 57.576238 48.668051 
L 57.542026 48.260551 
L 57.588679 48.608159 
L 57.700647 48.189747 
L 57.59801 48.692913 
L 57.706867 48.365348 
L 57.725529 48.676651 
L 57.756631 48.237227 
L 57.815725 48.429702 
L 57.88104 48.255167 
L 57.834386 48.610711 
L 57.902811 48.445281 
L 57.949465 48.666227 
L 57.924583 48.278182 
L 58.011669 48.490775 
L 58.098755 48.243077 
L 58.03033 48.573971 
L 58.120527 48.492205 
L 58.154739 48.686036 
L 58.185841 48.241246 
L 58.188951 48.356647 
L 58.251156 48.11954 
L 58.223164 48.680796 
L 58.294699 48.517288 
L 58.325801 48.675766 
L 58.332022 48.355627 
L 58.400446 48.492994 
L 58.468871 48.322516 
L 58.443989 48.663551 
L 58.506194 48.523527 
L 58.540406 48.676863 
L 58.5995 48.368895 
L 58.608831 48.407212 
L 58.621272 48.48926 
L 58.615052 48.333377 
L 58.624382 48.480443 
L 58.627492 48.122101 
L 58.73013 48.6594 
L 58.73635 48.357612 
L 58.73946 48.648554 
L 58.758122 48.239363 
L 58.848318 48.478092 
L 58.929184 48.696092 
L 58.919853 48.24572 
L 58.957176 48.469603 
L 59.056703 48.654854 
L 59.025601 48.402704 
L 59.069144 48.499395 
L 59.15934 48.249638 
L 59.143789 48.690772 
L 59.178001 48.564691 
L 59.199773 48.686731 
L 59.240206 48.29115 
L 59.289969 48.660611 
L 59.367725 48.322493 
L 59.345953 48.688104 
L 59.405047 48.520786 
L 59.473472 48.347909 
L 59.479693 48.694518 
L 59.513905 48.485201 
L 59.604102 48.679454 
L 59.58855 48.355437 
L 59.622763 48.520765 
L 59.706739 48.415817 
L 59.688078 48.658976 
L 59.7254 48.539379 
L 59.806266 48.687199 
L 59.756502 48.331911 
L 59.828037 48.3444 
L 59.949336 48.661332 
L 59.840478 48.154717 
L 59.967997 48.609296 
L 60.067524 48.311501 
L 59.995989 48.680023 
L 60.076855 48.462627 
L 60.092406 48.681799 
L 60.104847 48.338395 
L 60.188823 48.561623 
L 60.29146 48.661152 
L 60.235476 48.19934 
L 60.300791 48.602642 
L 60.303901 48.647553 
L 60.369216 48.266822 
L 60.403428 48.577193 
L 60.443861 48.272753 
L 60.459412 48.686053 
L 60.515396 48.522748 
L 60.518506 48.681308 
L 60.5776 48.099762 
L 60.621144 48.341494 
L 60.630474 48.299329 
L 60.661576 48.585913 
L 60.692679 48.572729 
L 60.695789 48.674774 
L 60.730001 48.17889 
L 60.801536 48.65336 
L 60.85441 48.340711 
L 60.826418 48.679668 
L 60.916614 48.469676 
L 61.013031 48.653359 
L 60.975709 48.298313 
L 61.022362 48.436811 
L 61.050354 48.237694 
L 61.056574 48.664322 
L 61.100117 48.552142 
L 61.187204 48.680538 
L 61.149881 48.40073 
L 61.208975 48.582869 
L 61.308502 48.389472 
L 61.255628 48.664293 
L 61.317833 48.476043 
L 61.342715 48.653978 
L 61.327163 48.380094 
L 61.426691 48.540584 
L 61.429801 48.432338 
L 61.482674 48.685682 
L 61.535548 48.555654 
L 61.579091 48.688048 
L 61.631965 48.384937 
L 61.647516 48.652664 
L 61.663067 48.329719 
L 61.687949 48.681645 
L 61.762594 48.396885 
L 61.784366 48.687393 
L 61.880783 48.601046 
L 61.98964 48.265602 
L 61.939877 48.641451 
L 61.995861 48.480116 
L 62.064286 48.651784 
L 62.026963 48.278969 
L 62.101608 48.571201 
L 62.104718 48.334898 
L 62.188694 48.673142 
L 62.210466 48.443228 
L 62.313103 48.683575 
L 62.26645 48.239672 
L 62.325544 48.657596 
L 62.387749 48.280143 
L 62.4033 48.674518 
L 62.443732 48.509925 
L 62.459284 48.670747 
L 62.465504 48.348863 
L 62.54948 48.593181 
L 62.55259 48.34334 
L 62.593023 48.657423 
L 62.658338 48.578592 
L 62.673889 48.666647 
L 62.704991 48.290097 
L 62.732983 48.625168 
L 62.816959 48.267268 
L 62.754754 48.673351 
L 62.841841 48.488499 
L 62.904045 48.644963 
L 62.941368 48.349277 
L 62.950698 48.633471 
L 63.059556 48.289381 
L 62.960029 48.693606 
L 63.062666 48.469143 
L 63.081328 48.673339 
L 63.165304 48.292973 
L 63.174634 48.559009 
L 63.199516 48.659842 
L 63.224398 48.170298 
L 63.283492 48.583095 
L 63.333255 48.300346 
L 63.305263 48.654199 
L 63.39235 48.591139 
L 63.39546 48.651778 
L 63.473215 48.348924 
L 63.498097 48.572939 
L 63.510538 48.280723 
L 63.554081 48.687784 
L 63.610065 48.466885 
L 63.628726 48.694376 
L 63.647388 48.334868 
L 63.725143 48.633647 
L 63.746915 48.289074 
L 63.756245 48.673436 
L 63.837111 48.60351 
L 63.880654 48.694771 
L 63.877544 48.454571 
L 63.945969 48.553859 
L 64.008173 48.407223 
L 63.96463 48.700458 
L 64.048606 48.479619 
L 64.113921 48.679108 
L 64.154354 48.24401 
L 64.160574 48.612879 
L 64.169905 48.634073 
L 64.166794 48.563707 
L 64.179235 48.570164 
L 64.256991 48.671534 
L 64.294313 48.297365 
L 64.325416 48.671931 
L 64.406281 48.597573 
L 64.428053 48.663601 
L 64.434273 48.348958 
L 64.437384 48.390692 
L 64.540021 48.257367 
L 64.52447 48.63637 
L 64.543131 48.462965 
L 64.564903 48.677283 
L 64.571123 48.267393 
L 64.651989 48.525244 
L 64.67687 48.312648 
L 64.711083 48.665562 
L 64.757736 48.593965 
L 64.869704 48.214735 
L 64.841712 48.696607 
L 64.882145 48.371834 
L 64.903917 48.681335 
L 64.991003 48.404602 
L 65.09053 48.240453 
L 65.034546 48.680879 
L 65.09675 48.400918 
L 65.158955 48.690668 
L 65.183836 48.181825 
L 65.211828 48.558639 
L 65.218049 48.652443 
L 65.277143 48.229996 
L 65.317576 48.529979 
L 65.426434 48.205946 
L 65.37978 48.640254 
L 65.435764 48.252245 
L 65.547732 48.672831 
L 65.563283 48.497688 
L 65.569504 48.361286 
L 65.606826 48.676762 
L 65.669031 48.622301 
L 65.765447 48.381002 
L 65.675251 48.674753 
L 65.780999 48.5534 
L 65.787219 48.68196 
L 65.827652 48.278177 
L 65.886746 48.623773 
L 65.961391 48.290376 
L 65.973832 48.654924 
L 65.995604 48.598997 
L 66.0858 48.682206 
L 66.064029 48.402673 
L 66.08891 48.443317 
L 66.163556 48.263288 
L 66.172886 48.657879 
L 66.185327 48.60713 
L 66.235091 48.678813 
L 66.216429 48.312384 
L 66.287964 48.606584 
L 66.315956 48.366155 
L 66.306626 48.677189 
L 66.396822 48.63005 
L 66.437255 48.331389 
L 66.403043 48.68019 
L 66.50879 48.612308 
L 66.567884 48.685239 
L 66.533672 48.276165 
L 66.614538 48.58809 
L 66.670522 48.353135 
L 66.689183 48.701201 
L 66.723395 48.57623 
L 66.79493 48.683607 
L 66.757608 48.292862 
L 66.832253 48.657624 
L 66.919339 48.281427 
L 66.900678 48.669511 
L 66.941111 48.444408 
L 66.972213 48.659172 
L 67.037527 48.228574 
L 67.049968 48.353312 
L 67.059299 48.204753 
L 67.112173 48.683473 
L 67.155716 48.285304 
L 67.261463 48.666222 
L 67.267684 48.399952 
L 67.367211 48.652291 
L 67.289455 48.286865 
L 67.376541 48.362144 
L 67.385872 48.565842 
L 67.388982 48.531345 
L 67.398313 48.681041 
L 67.448077 48.400653 
L 67.50095 48.656484 
L 67.581816 48.321991 
L 67.522722 48.684947 
L 67.612918 48.619277 
L 67.672012 48.668465 
L 67.687563 48.27024 
L 67.712445 48.51715 
L 67.787091 48.314437 
L 67.727996 48.698214 
L 67.821303 48.492566 
L 67.874177 48.673544 
L 67.892838 48.326667 
L 67.930161 48.559456 
L 67.948822 48.342103 
L 67.936381 48.6571 
L 68.039018 48.463481 
L 68.116774 48.690954 
L 68.141656 48.266386 
L 68.144766 48.323429 
L 68.234962 48.696275 
L 68.157207 48.214418 
L 68.275395 48.64182 
L 68.365591 48.280112 
L 68.34693 48.660185 
L 68.387363 48.433005 
L 68.437127 48.682623 
L 68.399804 48.403122 
L 68.499331 48.513393 
L 68.558425 48.255325 
L 68.611299 48.688377 
L 68.648621 48.31548 
L 68.723267 48.433768 
L 68.819684 48.693516 
L 68.816573 48.331191 
L 68.835235 48.540569 
L 68.841455 48.634649 
L 68.866337 48.684052 
L 68.90677 48.27268 
L 68.922321 48.566516 
L 68.987635 48.344061 
L 69.000076 48.694957 
L 69.034289 48.493114 
L 69.037399 48.658875 
L 69.096493 48.295569 
L 69.143146 48.59457 
L 69.152477 48.35593 
L 69.224012 48.683312 
L 69.255114 48.541929 
L 69.295547 48.638042 
L 69.267555 48.26379 
L 69.348421 48.499883 
L 69.407515 48.248615 
L 69.451058 48.656659 
L 69.457279 48.484307 
L 69.491491 48.690757 
L 69.516373 48.377049 
L 69.569247 48.586364 
L 69.62212 48.172157 
L 69.637671 48.686421 
L 69.678104 48.577887 
L 69.684325 48.67243 
L 69.712317 48.218445 
L 69.780742 48.597666 
L 69.793182 48.264516 
L 69.874048 48.663524 
L 69.889599 48.428732 
L 69.939363 48.677668 
L 69.992237 48.304357 
L 70.001567 48.670052 
L 70.104204 48.147164 
L 70.032669 48.678789 
L 70.113535 48.496412 
L 70.141527 48.686111 
L 70.197511 48.376517 
L 70.216172 48.484586 
L 70.253495 48.217511 
L 70.278377 48.651816 
L 70.32192 48.551426 
L 70.340581 48.638486 
L 70.356132 48.205636 
L 70.427667 48.510016 
L 70.430778 48.297377 
L 70.502313 48.68418 
L 70.536525 48.496331 
L 70.629832 48.32716 
L 70.623611 48.699143 
L 70.636052 48.60837 
L 70.660934 48.691535 
L 70.692036 48.278132 
L 70.7418 48.512641 
L 70.794673 48.669247 
L 70.763571 48.330335 
L 70.850657 48.648438 
L 70.88798 48.306212 
L 70.925303 48.68971 
L 70.962625 48.455944 
L 70.981287 48.336507 
L 71.018609 48.679454 
L 71.062152 48.476554 
L 71.071483 48.671764 
L 71.149238 48.280315 
L 71.17101 48.457655 
L 71.254986 48.703626 
L 71.189671 48.363372 
L 71.279868 48.556641 
L 71.366954 48.317404 
L 71.30786 48.68508 
L 71.385615 48.542394 
L 71.413607 48.685522 
L 71.478922 48.34445 
L 71.491363 48.35546 
L 71.494473 48.329871 
L 71.497583 48.647751 
L 71.575339 48.545858 
L 71.681086 48.679646 
L 71.637543 48.249645 
L 71.690417 48.595215 
L 71.786834 48.206546 
L 71.799274 48.632256 
L 71.849038 48.407347 
L 71.88325 48.681165 
L 71.911242 48.535383 
L 72.01699 48.676686 
L 71.954785 48.187285 
L 72.02321 48.633414 
L 72.032541 48.404088 
L 72.041872 48.692721 
L 72.135178 48.516165 
L 72.222264 48.682772 
L 72.184942 48.247696 
L 72.247146 48.55078 
L 72.346673 48.218436 
L 72.328012 48.698021 
L 72.356004 48.523401 
L 72.424429 48.685955 
L 72.44309 48.332432 
L 72.461751 48.348256 
L 72.499074 48.649604 
L 72.555058 48.295645 
L 72.576829 48.610986 
L 72.667026 48.226594 
L 72.623483 48.690075 
L 72.688797 48.494426 
L 72.701238 48.333162 
L 72.806986 48.648296 
L 72.838088 48.328673 
L 72.856749 48.673407 
L 72.922064 48.436605 
L 72.934505 48.684168 
L 73.01537 48.305421 
L 73.034032 48.49789 
L 73.062024 48.66867 
L 73.055803 48.342513 
L 73.142889 48.469416 
L 73.189543 48.678881 
L 73.226865 48.393198 
L 73.239306 48.412431 
L 73.242416 48.36373 
L 73.273519 48.668464 
L 73.332613 48.58618 
L 73.335723 48.690226 
L 73.413479 48.344698 
L 73.441471 48.524624 
L 73.469463 48.216687 
L 73.540998 48.649539 
L 73.544108 48.576085 
L 73.606312 48.688552 
L 73.634304 48.24205 
L 73.656076 48.608272 
L 73.70895 48.362675 
L 73.690288 48.671289 
L 73.768044 48.375013 
L 73.802256 48.689957 
L 73.880012 48.629154 
L 73.979539 48.332325 
L 73.951547 48.684446 
L 73.988869 48.417331 
L 74.060404 48.684164 
L 74.094617 48.408652 
L 74.100837 48.640405 
L 74.181703 48.179764 
L 74.113278 48.699985 
L 74.215915 48.484419 
L 74.243907 48.675129 
L 74.28434 48.355602 
L 74.327883 48.628539 
L 74.380757 48.290939 
L 74.408749 48.647432 
L 74.439851 48.446467 
L 74.470953 48.687755 
L 74.495835 48.310709 
L 74.551819 48.587553 
L 74.582921 48.375217 
L 74.55804 48.695072 
L 74.666897 48.450642 
L 74.688669 48.69542 
L 74.738432 48.370547 
L 74.778865 48.553371 
L 74.800637 48.295927 
L 74.865951 48.674911 
L 74.890833 48.55117 
L 74.900164 48.623838 
L 74.937486 48.359944 
L 74.949927 48.446126 
L 74.953038 48.196547 
L 75.012132 48.662567 
L 75.058785 48.389974 
L 75.080557 48.674315 
L 75.12721 48.370654 
L 75.161422 48.385954 
L 75.192524 48.219287 
L 75.226737 48.667484 
L 75.257839 48.540755 
L 75.341815 48.681531 
L 75.285831 48.271845 
L 75.366697 48.596263 
L 75.388468 48.191021 
L 75.456893 48.684796 
L 75.478665 48.460203 
L 75.506657 48.664839 
L 75.55953 48.246481 
L 75.587522 48.588587 
L 75.593743 48.313017 
L 75.668388 48.638365 
L 75.69638 48.617185 
L 75.733703 48.333008 
L 75.771025 48.694704 
L 75.802128 48.487939 
L 75.83323 48.688251 
L 75.855001 48.342827 
L 75.914096 48.617228 
L 75.929647 48.312988 
L 75.988741 48.679981 
L 76.029174 48.480716 
L 76.100709 48.405029 
L 76.057166 48.671779 
L 76.12559 48.572811 
L 76.172244 48.661898 
L 76.169134 48.429426 
L 76.237558 48.622509 
L 76.26244 48.384819 
L 76.243779 48.673332 
L 76.349526 48.474491 
L 76.442833 48.680104 
L 76.411731 48.362533 
L 76.464604 48.639396 
L 76.489486 48.306357 
L 76.573462 48.678752 
L 76.585903 48.367067 
L 76.613895 48.698266 
L 76.68543 48.379748 
L 76.704091 48.659312 
L 76.728973 48.231543 
L 76.797398 48.508699 
L 76.834721 48.680649 
L 76.803618 48.406906 
L 76.903146 48.500021 
L 76.984011 48.203779 
L 76.909366 48.658959 
L 77.008893 48.586325 
L 77.039995 48.66736 
L 77.061767 48.426704 
L 77.10531 48.463089 
L 77.117751 48.315544 
L 77.139522 48.682875 
L 77.198616 48.542619 
L 77.211057 48.694986 
L 77.223498 48.354726 
L 77.301254 48.58049 
L 77.357238 48.24051 
L 77.366568 48.657972 
L 77.410111 48.455708 
L 77.500308 48.6754 
L 77.469206 48.347599 
L 77.522079 48.606846 
L 77.546961 48.403979 
L 77.606055 48.680022 
L 77.634047 48.548934 
L 77.708692 48.295681 
L 77.649598 48.637427 
L 77.711803 48.494812 
L 77.714913 48.685458 
L 77.761566 48.113057 
L 77.82066 48.633511 
L 77.864203 48.687628 
L 77.935739 48.273627 
L 77.976171 48.656933 
L 78.047706 48.629175 
L 78.125462 48.401053 
L 78.147234 48.690157 
L 78.159674 48.568419 
L 78.178336 48.68796 
L 78.190777 48.387294 
L 78.259201 48.542877 
L 78.271642 48.326144 
L 78.290304 48.657946 
L 78.368059 48.579007 
L 78.470696 48.401461 
L 78.458256 48.657033 
L 78.486248 48.409868 
L 78.498688 48.665466 
L 78.504909 48.263815 
L 78.598215 48.649113 
L 78.613767 48.274674 
L 78.697742 48.700114 
L 78.710183 48.443817 
L 78.722624 48.371315 
L 78.822151 48.683864 
L 78.899907 48.311218 
L 78.94345 48.620514 
L 78.999434 48.677533 
L 78.968332 48.329483 
L 79.036756 48.556471 
L 79.130063 48.406674 
L 79.09274 48.666617 
L 79.145614 48.587046 
L 79.251362 48.320061 
L 79.176716 48.652568 
L 79.263803 48.491549 
L 79.322897 48.375051 
L 79.36955 48.692301 
L 79.394432 48.240179 
L 79.481518 48.494736 
L 79.537502 48.663346 
L 79.525061 48.246436 
L 79.587265 48.492986 
L 79.609037 48.206739 
L 79.630808 48.685908 
L 79.699233 48.432107 
L 79.730336 48.656655 
L 79.724115 48.360626 
L 79.811201 48.494854 
L 79.817422 48.673187 
L 79.826752 48.441683 
L 79.923169 48.539725 
L 80.022696 48.367708 
L 80.016476 48.68867 
L 80.028917 48.479023 
L 80.07557 48.692972 
L 80.100452 48.388499 
L 80.137774 48.572463 
L 80.150215 48.34071 
L 80.21864 48.659905 
L 80.249742 48.40156 
L 80.339939 48.703067 
L 80.274624 48.358355 
L 80.36482 48.624525 
L 80.395923 48.279222 
L 80.423915 48.662425 
L 80.473678 48.52753 
L 80.523442 48.669793 
L 80.576315 48.34679 
L 80.582536 48.626632 
L 80.63852 48.366751 
L 80.663402 48.660816 
L 80.694504 48.547567 
L 80.794031 48.289711 
L 80.706945 48.684349 
L 80.800251 48.492798 
L 80.905999 48.698899 
L 80.859345 48.297723 
L 80.912219 48.618757 
L 80.996195 48.673221 
L 80.989975 48.421358 
L 81.011746 48.505214 
L 81.073951 48.689851 
L 81.126824 48.358003 
L 81.176588 48.696514 
L 81.238792 48.51563 
L 81.332099 48.649291 
L 81.273005 48.295628 
L 81.356981 48.638744 
L 81.403634 48.679107 
L 81.468949 48.314669 
L 81.562255 48.694172 
L 81.580916 48.622288 
L 81.593357 48.390269 
L 81.661782 48.659654 
L 81.692884 48.505058 
L 81.783081 48.656057 
L 81.742648 48.335191 
L 81.801742 48.59533 
L 81.848395 48.250745 
L 81.814183 48.682928 
L 81.9106 48.609262 
L 81.91371 48.675316 
L 81.963474 48.406447 
L 82.016347 48.663366 
L 82.063001 48.333425 
L 82.128315 48.425517 
L 82.134536 48.692446 
L 82.19363 48.339703 
L 82.243393 48.661773 
L 82.252724 48.379572 
L 82.262055 48.664741 
L 82.358471 48.568285 
L 82.361582 48.571358 
L 82.370912 48.514361 
L 82.430007 48.311897 
L 82.470439 48.683625 
L 82.47977 48.548634 
L 82.560636 48.657366 
L 82.551305 48.290506 
L 82.582407 48.612083 
L 82.61662 48.292043 
L 82.650832 48.67642 
L 82.694375 48.456002 
L 82.778351 48.696497 
L 82.772131 48.32116 
L 82.809453 48.62508 
L 82.90898 48.376085 
L 82.90587 48.651307 
L 82.921421 48.562882 
L 83.024059 48.654789 
L 82.933862 48.267344 
L 83.030279 48.621201 
L 83.114255 48.331422 
L 83.058271 48.640337 
L 83.142247 48.594634 
L 83.160908 48.404013 
L 83.173349 48.434812 
L 83.210672 48.290985 
L 83.195121 48.643141 
L 83.279097 48.599899 
L 83.32886 48.396743 
L 83.378624 48.684022 
L 83.394175 48.516425 
L 83.400395 48.414052 
L 83.409726 48.66252 
L 83.428387 48.687349 
L 83.431497 48.382469 
L 83.503032 48.631898 
L 83.559016 48.320682 
L 83.596339 48.674534 
L 83.615 48.372761 
L 83.667874 48.368586 
L 83.730079 48.67493 
L 83.779842 48.373171 
L 83.736299 48.696632 
L 83.845157 48.479591 
L 83.963345 48.659123 
L 83.89492 48.427226 
L 83.966455 48.61696 
L 83.991337 48.458208 
L 84.000668 48.691182 
L 84.081533 48.534133 
L 84.128187 48.657578 
L 84.156179 48.229978 
L 84.190391 48.542371 
L 84.258816 48.339951 
L 84.265036 48.681644 
L 84.299249 48.43155 
L 84.392555 48.672004 
L 84.367674 48.220924 
L 84.411217 48.523228 
L 84.520074 48.685558 
L 84.448539 48.354922 
L 84.523185 48.643145 
L 84.588499 48.383398 
L 84.632042 48.673016 
L 84.709798 48.439255 
L 84.74712 48.532002 
L 84.834207 48.691457 
L 84.793774 48.313889 
L 84.852868 48.523644 
L 84.855978 48.316494 
L 84.949285 48.633066 
L 84.961726 48.435779 
L 85.02393 48.682738 
L 85.058142 48.335151 
L 85.073694 48.554656 
L 85.142118 48.362588 
L 85.089245 48.657698 
L 85.188772 48.565174 
L 85.204323 48.680981 
L 85.244756 48.257436 
L 85.30074 48.598777 
L 85.390936 48.308006 
L 85.397156 48.692638 
L 85.412708 48.48009 
L 85.465581 48.687251 
L 85.515345 48.369835 
L 85.524675 48.648115 
L 85.546447 48.355935 
L 85.530896 48.680422 
L 85.636643 48.458016 
L 85.717509 48.695386 
L 85.701958 48.209995 
L 85.739281 48.630614 
L 85.742391 48.279235 
L 85.764162 48.678794 
L 85.851249 48.485884 
L 85.8668 48.682296 
L 85.941445 48.403644 
L 85.960106 48.653378 
L 85.963217 48.435053 
L 86.062744 48.679286 
L 86.072074 48.562293 
L 86.096956 48.66892 
L 86.118728 48.43269 
L 86.15605 48.609957 
L 86.15916 48.388707 
L 86.261798 48.686684 
L 86.264908 48.619452 
L 86.339553 48.686443 
L 86.330222 48.419468 
L 86.355104 48.597508 
L 86.454631 48.421797 
L 86.373766 48.689333 
L 86.463962 48.450519 
L 86.513725 48.69438 
L 86.554158 48.362265 
L 86.57593 48.578249 
L 86.656796 48.69675 
L 86.641244 48.353136 
L 86.675457 48.577734 
L 86.759433 48.38288 
L 86.72522 48.64757 
L 86.784315 48.557906 
L 86.883842 48.686317 
L 86.821637 48.358375 
L 86.896283 48.598307 
L 86.952266 48.408994 
L 86.99892 48.675983 
L 87.00514 48.553519 
L 87.042463 48.634008 
L 87.061124 48.330845 
L 87.113998 48.548953 
L 87.216635 48.226151 
L 87.13888 48.639009 
L 87.225966 48.431024 
L 87.229076 48.429138 
L 87.232186 48.490332 
L 87.325493 48.681034 
L 87.253958 48.391686 
L 87.344154 48.572357 
L 87.356595 48.293986 
L 87.378367 48.676571 
L 87.453012 48.477884 
L 87.549429 48.432524 
L 87.555649 48.696259 
L 87.639625 48.342997 
L 87.664507 48.56185 
L 87.770254 48.675158 
L 87.70805 48.381984 
L 87.773365 48.576502 
L 87.85112 48.369407 
L 87.792026 48.692835 
L 87.885333 48.48534 
L 87.99419 48.679611 
L 87.935096 48.291332 
L 88.003521 48.647938 
L 88.047064 48.352149 
L 88.081276 48.680295 
L 88.115489 48.605561 
L 88.140371 48.325885 
L 88.205685 48.674608 
L 88.227457 48.52783 
L 88.27722 48.656668 
L 88.323874 48.342412 
L 88.333204 48.526834 
L 88.395409 48.471378 
L 88.367417 48.663492 
L 88.438952 48.538261 
L 88.498046 48.65536 
L 88.485605 48.399589 
L 88.541589 48.498202 
L 88.547809 48.233446 
L 88.594463 48.695964 
L 88.650447 48.514114 
L 88.665998 48.679523 
L 88.731312 48.375317 
L 88.762415 48.604975 
L 88.871272 48.396377 
L 88.83395 48.672864 
L 88.874382 48.515213 
L 88.949028 48.680718 
L 88.933477 48.332998 
L 88.98324 48.434665 
L 88.995681 48.311355 
L 89.082767 48.660034 
L 89.085877 48.348105 
L 89.135641 48.69465 
L 89.191625 48.584615 
L 89.250719 48.696857 
L 89.244499 48.381991 
L 89.294262 48.612913 
L 89.387569 48.390576 
L 89.325364 48.704325 
L 89.40623 48.453553 
L 89.443553 48.682966 
L 89.418671 48.267701 
L 89.524418 48.662627 
L 89.620835 48.361668 
L 89.602174 48.700663 
L 89.636386 48.478516 
L 89.69237 48.673035 
L 89.739024 48.357147 
L 89.745244 48.596418 
L 89.748354 48.274841 
L 89.767016 48.638796 
L 89.854102 48.463952 
L 89.956739 48.675101 
L 89.900755 48.318803 
L 89.96607 48.58416 
L 90.053156 48.406249 
L 90.009613 48.677457 
L 90.078038 48.512382 
L 90.137132 48.691659 
L 90.121581 48.433971 
L 90.190006 48.652036 
L 90.236659 48.354322 
L 90.227328 48.697527 
L 90.301973 48.588132 
L 90.373509 48.658133 
L 90.39528 48.381234 
L 90.401501 48.423767 
L 90.501028 48.275924 
L 90.435713 48.692914 
L 90.510358 48.470738 
L 90.553901 48.676357 
L 90.53835 48.395268 
L 90.625436 48.573142 
L 90.693861 48.413658 
L 90.703192 48.676213 
L 90.728074 48.589012 
L 90.731184 48.684969 
L 90.787168 48.441856 
L 90.840042 48.616084 
L 90.874254 48.697346 
L 90.852482 48.449982 
L 90.877364 48.520856 
L 90.917797 48.292963 
L 90.908466 48.657135 
L 90.983112 48.514811 
L 91.079528 48.689467 
L 90.995553 48.384884 
L 91.09508 48.615306 
L 91.123072 48.366804 
L 91.154174 48.690669 
L 91.207048 48.562114 
L 91.24126 48.697496 
L 91.24437 48.451091 
L 91.312795 48.559823 
L 91.322126 48.26836 
L 91.415432 48.649115 
L 91.421653 48.548539 
L 91.502518 48.694374 
L 91.514959 48.424027 
L 91.533621 48.57751 
L 91.608266 48.426502 
L 91.623817 48.672433 
L 91.639368 48.59312 
L 91.676691 48.678745 
L 91.723344 48.401927 
L 91.751336 48.653249 
L 91.757556 48.386917 
L 91.766887 48.677735 
L 91.866414 48.507219 
L 91.903737 48.696299 
L 91.959721 48.416595 
L 91.975272 48.623699 
L 92.037476 48.360694 
L 91.987713 48.695176 
L 92.08724 48.580975 
L 92.177436 48.68809 
L 92.099681 48.440523 
L 92.192987 48.55564 
L 92.267633 48.306584 
L 92.23342 48.665327 
L 92.295625 48.492753 
L 92.320506 48.679952 
L 92.339168 48.391571 
L 92.407592 48.620447 
L 92.448025 48.683163 
L 92.432474 48.459054 
L 92.463576 48.638433 
L 92.469797 48.371275 
L 92.566214 48.684861 
L 92.572434 48.530839 
L 92.6533 48.647738 
L 92.65952 48.332733 
L 92.681292 48.527764 
L 92.762158 48.289361 
L 92.718614 48.693244 
L 92.774598 48.483525 
L 92.864795 48.691584 
L 92.883456 48.421399 
L 92.886566 48.410702 
L 92.899007 48.679846 
L 92.93944 48.622734 
L 92.982983 48.68478 
L 92.989204 48.372664 
L 93.032747 48.550881 
L 93.045188 48.374589 
L 93.08251 48.670782 
L 93.141604 48.453889 
L 93.157155 48.661675 
L 93.178927 48.374305 
L 93.253572 48.533042 
L 93.278454 48.670881 
L 93.272234 48.441546 
L 93.287785 48.557693 
L 93.290895 48.388675 
L 93.328218 48.646904 
L 93.396642 48.570011 
L 93.440186 48.664208 
L 93.415304 48.339264 
L 93.5055 48.561398 
L 93.527272 48.301245 
L 93.570815 48.66527 
L 93.617468 48.47025 
L 93.716995 48.670125 
L 93.676562 48.366199 
L 93.729436 48.532437 
L 93.7792 48.695395 
L 93.744987 48.462111 
L 93.819632 48.581653 
L 93.92227 48.38778 
L 93.847624 48.659142 
L 93.9316 48.512986 
L 93.965813 48.673691 
L 93.940931 48.378791 
L 94.043568 48.621757 
L 94.07467 48.36245 
L 94.108883 48.648202 
L 94.155536 48.583068 
L 94.192859 48.317915 
L 94.258173 48.65681 
L 94.264394 48.581606 
L 94.267504 48.696373 
L 94.317268 48.311463 
L 94.373252 48.656212 
L 94.407464 48.419824 
L 94.438566 48.682556 
L 94.485219 48.556357 
L 94.544314 48.687205 
L 94.49455 48.406389 
L 94.597187 48.644001 
L 94.656282 48.408133 
L 94.696714 48.68448 
L 94.702935 48.548156 
" clip-path="url(#p3f778c034a)" style="fill: none; stroke: #1f77b4; stroke-width: 0.5; stroke-linecap: square"/>
   </g>
  </g>
 </g>
 <defs>
  <clipPath id="p3f778c034a">
   <rect x="0" y="-0" width="99.212598" height="51.023622"/>
  </clipPath>
 </defs>
</svg>
