<?xml version="1.0" encoding="utf-8" standalone="no"?>
<!DOCTYPE svg PUBLIC "-//W3C//DTD SVG 1.1//EN"
  "http://www.w3.org/Graphics/SVG/1.1/DTD/svg11.dtd">
<svg xmlns:xlink="http://www.w3.org/1999/xlink" width="99.212598pt" height="51.023622pt" viewBox="0 0 99.212598 51.023622" xmlns="http://www.w3.org/2000/svg" version="1.1">
 <metadata>
  <rdf:RDF xmlns:dc="http://purl.org/dc/elements/1.1/" xmlns:cc="http://creativecommons.org/ns#" xmlns:rdf="http://www.w3.org/1999/02/22-rdf-syntax-ns#">
   <cc:Work>
    <dc:type rdf:resource="http://purl.org/dc/dcmitype/StillImage"/>
    <dc:date>2024-10-30T10:51:12.174786</dc:date>
    <dc:format>image/svg+xml</dc:format>
    <dc:creator>
     <cc:Agent>
      <dc:title>Matplotlib v3.8.4, https://matplotlib.org/</dc:title>
     </cc:Agent>
    </dc:creator>
   </cc:Work>
  </rdf:RDF>
 </metadata>
 <defs>
  <style type="text/css">*{stroke-linejoin: round; stroke-linecap: butt}</style>
 </defs>
 <g id="figure_1">
  <g id="patch_1">
   <path d="M 0 51.023622 
L 99.212598 51.023622 
L 99.212598 0 
L 0 0 
L 0 51.023622 
z
" style="fill: none"/>
  </g>
  <g id="axes_1">
   <g id="patch_2">
    <path d="M 0 51.023622 
L 99.212598 51.023622 
L 99.212598 -0 
L 0 -0 
L 0 51.023622 
z
" style="fill: none"/>
   </g>
   <g id="matplotlib.axis_1">
    <g id="xtick_1"/>
    <g id="xtick_2"/>
   </g>
   <g id="matplotlib.axis_2">
    <g id="ytick_1"/>
    <g id="ytick_2"/>
   </g>
   <g id="line2d_1">
    <path d="M 4.509664 19.832838 
L 4.553207 13.911175 
L 4.621631 8.860354 
L 4.668285 12.994394 
L 4.780253 31.997322 
L 4.845567 25.022675 
L 4.997968 2.319256 
L 5.035291 10.305336 
L 5.178361 44.73039 
L 5.209463 39.095755 
L 5.271667 29.734243 
L 5.330762 35.607798 
L 5.364974 41.655741 
L 5.424068 34.930987 
L 5.44273 35.788739 
L 5.526706 48.189661 
L 5.638673 45.796089 
L 5.648004 46.128437 
L 5.688437 44.19719 
L 5.713319 43.38551 
L 5.766192 46.703622 
L 5.797295 48.512813 
L 5.856389 45.308731 
L 5.927924 36.949515 
L 6.005679 41.245581 
L 6.030561 44.947917 
L 6.083435 34.440042 
L 6.105206 31.774854 
L 6.145639 37.924603 
L 6.186072 35.590802 
L 6.422449 47.204729 
L 6.438 45.248202 
L 6.469102 41.217371 
L 6.559299 42.248185 
L 6.637054 46.190545 
L 6.677487 43.07231 
L 6.72725 48.354126 
L 6.842329 47.535539 
L 6.879651 46.368678 
L 6.929415 48.347545 
L 6.957407 47.24234 
L 6.960517 47.250265 
L 6.966737 47.006731 
L 6.969848 47.076405 
L 7.047603 45.8003 
L 7.100477 46.098078 
L 7.116028 46.548496 
L 7.119138 46.531678 
L 7.184453 48.302624 
L 7.221775 46.323101 
L 7.231106 46.726923 
L 7.383507 48.609795 
L 7.302641 46.203087 
L 7.402168 48.007696 
L 7.511026 44.371508 
L 7.532797 45.377725 
L 7.551459 46.709732 
L 7.635435 44.534501 
L 7.641655 44.37118 
L 7.70386 45.709807 
L 7.803387 48.254511 
L 7.756733 45.236901 
L 7.828268 46.981127 
L 7.884252 44.555268 
L 7.927795 47.284764 
L 7.943347 48.317623 
L 7.977559 45.095739 
L 8.021102 45.976983 
L 8.042874 45.183336 
L 8.114409 46.980246 
L 8.185944 48.173343 
L 8.207715 45.713633 
L 8.226377 44.71318 
L 8.254369 48.441261 
L 8.310352 46.287842 
L 8.329014 48.258178 
L 8.366336 44.25043 
L 8.42232 46.357102 
L 8.447202 44.455755 
L 8.506296 48.544943 
L 8.534288 46.022402 
L 8.56228 44.595628 
L 8.593382 46.568661 
L 8.633815 46.564754 
L 8.69602 47.997452 
L 8.755114 47.404091 
L 8.820429 45.760137 
L 8.767555 47.838089 
L 8.891964 46.989362 
L 8.910625 47.792118 
L 9.003932 47.479919 
L 9.007042 47.389536 
L 9.044364 48.608192 
L 9.106569 47.518149 
L 9.187435 48.663763 
L 9.237198 48.578426 
L 9.342946 47.013117 
L 9.374048 48.007737 
L 9.395819 48.568593 
L 9.451803 46.439351 
L 9.454913 46.365969 
L 9.498457 47.923791 
L 9.501567 47.884298 
L 9.504677 47.923079 
L 9.523338 46.862154 
L 9.538889 46.041298 
L 9.619755 47.671116 
L 9.629086 48.405117 
L 9.653968 46.570733 
L 9.722392 47.114018 
L 9.744164 46.689027 
L 9.772156 48.4004 
L 9.809479 47.774052 
L 9.902785 48.555216 
L 9.846801 46.654451 
L 9.918336 47.779594 
L 9.936998 46.849429 
L 9.961879 48.304609 
L 10.005422 47.981536 
L 10.011643 48.573618 
L 10.104949 47.422342 
L 10.11117 47.670472 
L 10.173374 46.87509 
L 10.142272 48.219642 
L 10.223138 47.400925 
L 10.25424 48.599038 
L 10.291563 46.770998 
L 10.331996 47.2849 
L 10.403531 46.548954 
L 10.428412 47.813955 
L 10.437743 48.603239 
L 10.468845 45.883795 
L 10.506168 47.060761 
L 10.524829 45.465085 
L 10.587034 48.171368 
L 10.624356 45.702364 
L 10.767426 48.489832 
L 10.795418 47.2375 
L 10.888725 48.379594 
L 10.904276 48.615253 
L 10.919827 47.709295 
L 11.034905 46.260983 
L 10.982031 47.854615 
L 11.041126 46.424707 
L 11.171755 48.594105 
L 11.177975 48.32691 
L 11.209078 47.350114 
L 11.230849 48.568326 
L 11.293053 47.848907 
L 11.345927 48.493223 
L 11.398801 47.772286 
L 11.445454 46.836943 
L 11.498328 48.069487 
L 11.507659 48.682147 
L 11.541871 46.947158 
L 11.610296 48.188612 
L 11.622737 48.617675 
L 11.6725 47.283001 
L 11.675611 47.390932 
L 11.681831 47.312346 
L 11.709823 48.655421 
L 11.750256 48.100395 
L 11.80624 48.447146 
L 11.834232 47.381907 
L 11.852893 46.912291 
L 11.927538 48.229376 
L 11.939979 48.584782 
L 12.005294 47.296946 
L 12.008404 47.204699 
L 12.039506 48.17389 
L 12.08616 47.99883 
L 12.09549 48.580025 
L 12.126592 47.364673 
L 12.191907 47.950468 
L 12.288324 47.270284 
L 12.219899 48.31529 
L 12.303875 47.703775 
L 12.313206 48.617896 
L 12.406512 47.613809 
L 12.412733 47.725204 
L 12.487378 48.53173 
L 12.468717 47.517517 
L 12.540252 47.937593 
L 12.673991 46.354013 
L 12.580685 48.586956 
L 12.683322 46.576139 
L 12.748636 48.463655 
L 12.823282 47.977014 
L 12.869935 48.354812 
L 12.947691 46.473254 
L 12.957021 46.086289 
L 12.994344 48.236475 
L 13.019226 48.44409 
L 13.07832 47.117762 
L 13.08143 47.112744 
L 13.08454 47.184731 
L 13.146745 48.504794 
L 13.205839 47.787605 
L 13.215169 47.752265 
L 13.2245 48.173826 
L 13.258713 48.59734 
L 13.292925 48.03969 
L 13.330248 48.122741 
L 13.383121 47.074782 
L 13.35824 48.328393 
L 13.426664 48.157249 
L 13.482648 48.635517 
L 13.445326 47.654185 
L 13.538632 48.456513 
L 13.64749 47.624888 
L 13.663041 47.776977 
L 13.722135 48.179612 
L 13.759458 47.409005 
L 13.762568 47.589934 
L 13.865205 46.426748 
L 13.827883 48.579807 
L 13.877646 47.072702 
L 13.961622 46.774777 
L 13.998945 48.41753 
L 14.082921 46.945654 
L 14.101582 48.497845 
L 14.126464 47.352642 
L 14.132684 47.449777 
L 14.185558 48.382572 
L 14.238432 47.324319 
L 14.247763 47.165538 
L 14.285085 48.11592 
L 14.319298 47.806667 
L 14.375282 48.660719 
L 14.415714 47.116615 
L 14.428155 47.775348 
L 14.477919 48.539319 
L 14.518352 47.454069 
L 14.546344 48.058327 
L 14.555674 47.676347 
L 14.574336 48.566186 
L 14.655201 48.233042 
L 14.695634 48.64371 
L 14.708075 47.964368 
L 14.767169 48.356401 
L 14.894688 47.159748 
L 14.848035 48.55637 
L 14.904019 47.600789 
L 14.987995 48.638018 
L 14.935121 47.267214 
L 15.022207 48.134009 
L 15.103073 47.753992 
L 15.043979 48.647247 
L 15.124845 48.286197 
L 15.152837 48.650367 
L 15.187049 46.962042 
L 15.233702 48.198339 
L 15.258584 48.344116 
L 15.289686 47.884824 
L 15.389213 47.258337 
L 15.323899 48.396377 
L 15.404764 47.579573 
L 15.432756 48.5792 
L 15.510512 46.984116 
L 15.516732 46.875039 
L 15.541614 48.620924 
L 15.585157 48.170245 
L 15.591378 48.101355 
L 15.597598 48.612967 
L 15.672243 47.887789 
L 15.700235 48.293361 
L 15.76555 47.271745 
L 15.802873 48.435201 
L 15.805983 48.434791 
L 15.827754 48.613425 
L 15.846416 48.173406 
L 15.91173 48.541149 
L 15.970824 47.744221 
L 15.998816 48.59455 
L 16.026808 48.282298 
L 16.107674 47.591935 
L 16.079682 48.478077 
L 16.141887 48.170152 
L 16.169879 48.657159 
L 16.200981 47.998542 
L 16.256965 48.316435 
L 16.378263 47.618903 
L 16.33161 48.65493 
L 16.381374 47.669008 
L 16.387594 47.810193 
L 16.459129 48.668823 
L 16.393814 47.800242 
L 16.505782 48.283472 
L 16.539995 47.678088 
L 16.549325 48.280082 
L 16.552436 48.603794 
L 16.592868 46.219382 
L 16.645742 46.905767 
L 16.651963 46.646422 
L 16.679955 48.554789 
L 16.695506 48.186735 
L 16.75771 48.645356 
L 16.785702 47.78915 
L 16.813694 48.465842 
L 16.919442 47.764212 
L 16.866568 48.650556 
L 16.931882 48.072954 
L 16.944323 47.942587 
L 16.947434 48.147598 
L 16.966095 48.689025 
L 17.015858 47.798497 
L 17.056291 48.314809 
L 17.062512 47.963237 
L 17.134047 48.639937 
L 17.162039 48.388712 
L 17.171369 48.654157 
L 17.211802 47.850612 
L 17.267786 48.235645 
L 17.329991 48.09472 
L 17.286448 48.525617 
L 17.370423 48.247852 
L 17.45751 48.681198 
L 17.432628 47.481909 
L 17.479281 48.217286 
L 17.532155 48.642619 
L 17.516604 47.741121 
L 17.550816 47.924924 
L 17.557037 47.850964 
L 17.59747 48.563347 
L 17.650343 48.079608 
L 17.696997 48.631726 
L 17.731209 47.726165 
L 17.762311 48.214088 
L 17.799634 47.530338 
L 17.777862 48.691951 
L 17.858728 48.626526 
L 18.008019 47.578939 
L 17.908492 48.683154 
L 18.0329 48.136249 
L 18.079554 48.652945 
L 18.119987 47.270258 
L 18.138648 48.249887 
L 18.160419 46.644055 
L 18.219514 48.591744 
L 18.247506 48.406499 
L 18.250616 48.438403 
L 18.269277 47.50647 
L 18.272387 47.349371 
L 18.297269 48.140409 
L 18.365694 47.929943 
L 18.474552 48.579562 
L 18.393686 47.379209 
L 18.483882 48.549063 
L 18.505654 47.350903 
L 18.570968 48.648054 
L 18.59896 47.915106 
L 18.682936 48.639432 
L 18.636283 47.811243 
L 18.720259 48.453354 
L 18.73892 48.654656 
L 18.754471 48.02516 
L 18.819786 48.289507 
L 18.866439 48.028993 
L 18.835337 48.680357 
L 18.906872 48.484947 
L 18.909982 48.577657 
L 18.993958 47.85998 
L 18.997069 47.858357 
L 19.000179 47.882954 
L 19.068604 48.630632 
L 19.118367 48.260945 
L 19.137028 47.955746 
L 19.16502 48.544881 
L 19.177461 48.341635 
L 19.180572 48.571247 
L 19.205453 47.643328 
L 19.283209 48.003332 
L 19.382736 48.6075 
L 19.326752 47.281936 
L 19.398287 48.187722 
L 19.420058 48.638959 
L 19.451161 47.425173 
L 19.454271 47.408566 
L 19.466712 47.900778 
L 19.569349 48.667876 
L 19.528916 47.421361 
L 19.57868 48.198738 
L 19.597341 47.659623 
L 19.640884 48.469182 
L 19.693758 48.037748 
L 19.703089 48.598695 
L 19.72175 47.676776 
L 19.808836 48.446775 
L 19.8586 47.543193 
L 19.830608 48.512437 
L 19.930135 48.064403 
L 20.032772 48.596267 
L 19.948796 47.742934 
L 20.042103 48.33862 
L 20.094976 47.920025 
L 20.126078 48.645963 
L 20.15096 48.365747 
L 20.160291 48.67655 
L 20.228716 48.039257 
L 20.247377 48.134924 
L 20.334463 47.748166 
L 20.303361 48.633494 
L 20.362455 48.016907 
L 20.368676 47.99991 
L 20.378006 48.309099 
L 20.381116 48.301458 
L 20.421549 48.632526 
L 20.455762 47.834811 
L 20.493084 48.410382 
L 20.614383 47.731645 
L 20.533517 48.582951 
L 20.626824 48.182398 
L 20.7108 48.601516 
L 20.685918 47.760116 
L 20.738792 48.460844 
L 20.760563 47.753684 
L 20.832098 48.522013 
L 20.835209 48.571837 
L 20.909854 48.018758 
L 20.919185 47.970612 
L 20.925405 48.115331 
L 21.040483 48.66318 
L 21.00005 47.710765 
L 21.043593 48.510555 
L 21.13379 47.878562 
L 21.152451 48.68715 
L 21.264419 47.387378 
L 21.27686 47.588605 
L 21.388828 48.6774 
L 21.391938 48.381014 
L 21.435481 47.908287 
L 21.472804 48.604826 
L 21.507016 48.301904 
L 21.590992 48.640108 
L 21.544339 47.96963 
L 21.600323 48.105956 
L 21.640756 47.942686 
L 21.693629 48.600558 
L 21.69985 48.50925 
L 21.70607 48.592247 
L 21.762054 47.889359 
L 21.796267 48.15094 
L 21.799377 48.019745 
L 21.880243 48.689425 
L 21.902014 48.362535 
L 21.933116 48.599774 
L 21.998431 47.990281 
L 22.001541 48.062557 
L 22.041974 48.618956 
L 22.097958 48.034406 
L 22.101068 47.902991 
L 22.141501 48.617965 
L 22.197485 48.432237 
L 22.209926 48.684627 
L 22.228587 47.836394 
L 22.303232 48.381833 
L 22.371657 47.910253 
L 22.334335 48.586964 
L 22.41209 48.341174 
L 22.424531 48.595992 
L 22.468074 47.970614 
L 22.496066 48.070989 
L 22.54583 47.71904 
L 22.570711 48.606628 
L 22.608034 47.888056 
L 22.623585 48.604094 
L 22.645357 47.761027 
L 22.723112 48.563987 
L 22.726222 48.613472 
L 22.782206 48.061268 
L 22.825749 48.494813 
L 22.931497 47.98767 
L 22.856852 48.673765 
L 22.947048 48.157529 
L 22.959489 48.584419 
L 22.97815 47.75284 
L 23.062126 48.486771 
L 23.080787 48.147809 
L 23.155433 48.661779 
L 23.158543 48.587618 
L 23.161653 48.701258 
L 23.242519 48.009349 
L 23.25807 48.226473 
L 23.26118 48.114758 
L 23.286062 48.623564 
L 23.360707 48.2406 
L 23.40425 48.654728 
L 23.450904 47.996763 
L 23.475785 48.615504 
L 23.522439 48.001168 
L 23.482006 48.661206 
L 23.593974 48.507776 
L 23.68728 48.683642 
L 23.621966 48.095361 
L 23.696611 48.272116 
L 23.768146 47.945447 
L 23.743264 48.618287 
L 23.796138 48.463103 
L 23.799248 48.466399 
L 23.805469 48.426514 
L 23.892555 48.639546 
L 23.920547 48.017603 
L 23.9672 48.622003 
L 23.929878 47.919456 
L 24.038735 48.467983 
L 24.132042 47.850762 
L 24.085389 48.577317 
L 24.147593 48.523308 
L 24.175585 47.727502 
L 24.206687 48.595445 
L 24.259561 48.475533 
L 24.272002 48.621562 
L 24.278222 48.470239 
L 24.380859 47.855195 
L 24.355978 48.643172 
L 24.3933 48.155114 
L 24.402631 48.460877 
L 24.458615 47.789161 
L 24.499048 48.020032 
L 24.502158 47.96577 
L 24.551922 48.582655 
L 24.583024 48.297243 
L 24.67322 48.666996 
L 24.601685 47.522201 
L 24.691881 48.495029 
L 24.747865 47.791503 
L 24.769637 48.67923 
L 24.800739 48.553612 
L 24.803849 48.579018 
L 24.838062 48.182531 
L 24.844282 48.183327 
L 24.859833 47.699691 
L 24.918928 48.473563 
L 24.95003 48.468878 
L 24.996683 48.577675 
L 24.974912 47.706419 
L 25.040226 48.140716 
L 25.043336 48.045716 
L 25.102431 48.654186 
L 25.142863 48.316302 
L 25.217509 48.692455 
L 25.22995 48.192461 
L 25.23306 48.317463 
L 25.289044 48.645029 
L 25.345028 48.160025 
L 25.450775 48.606911 
L 25.425893 48.08966 
L 25.466326 48.217174 
L 25.559633 47.885003 
L 25.528531 48.607562 
L 25.568964 48.174332 
L 25.649829 48.584897 
L 25.677821 48.302406 
L 25.718254 47.836503 
L 25.758687 48.36826 
L 25.789789 48.078607 
L 25.873765 48.586357 
L 25.817781 47.895473 
L 25.904867 48.342336 
L 25.973292 48.018521 
L 25.93908 48.625474 
L 26.010615 48.353136 
L 26.013725 48.621909 
L 26.116362 48.004138 
L 26.125693 47.865785 
L 26.141244 48.471494 
L 26.209669 48.261674 
L 26.215889 48.604018 
L 26.312306 47.995038 
L 26.315416 48.117187 
L 26.346519 48.043892 
L 26.36518 48.422097 
L 26.449156 48.605629 
L 26.386951 48.105463 
L 26.477148 48.574925 
L 26.564234 48.168933 
L 26.50514 48.66608 
L 26.592226 48.294111 
L 26.685533 48.643289 
L 26.657541 48.211355 
L 26.710414 48.552946 
L 26.760178 48.620347 
L 26.725965 48.208406 
L 26.803721 48.567316 
L 26.837933 48.106537 
L 26.909468 48.649139 
L 26.915689 48.429663 
L 26.93746 48.698828 
L 26.984114 48.221808 
L 27.040098 48.632108 
L 27.061869 48.639462 
L 27.183168 48.048835 
L 27.239152 48.624713 
L 27.20805 47.761056 
L 27.295136 48.450594 
L 27.341789 48.637153 
L 27.372891 48.123707 
L 27.413324 48.608529 
L 27.49419 48.033678 
L 27.525292 48.436955 
L 27.575055 48.497039 
L 27.543953 48.107223 
L 27.609268 48.218976 
L 27.615488 47.912635 
L 27.680803 48.637675 
L 27.711905 48.563789 
L 27.789661 48.008199 
L 27.805212 48.606853 
L 27.820763 48.557989 
L 27.826983 48.58806 
L 27.836314 48.498788 
L 27.876747 47.54961 
L 27.948282 48.278297 
L 27.991825 47.898451 
L 27.957613 48.579251 
L 28.047809 48.380218 
L 28.150446 48.585859 
L 28.138005 48.086256 
L 28.156667 48.413623 
L 28.175328 48.07165 
L 28.237532 48.609037 
L 28.265524 48.339888 
L 28.368162 48.661044 
L 28.302847 47.742542 
L 28.377492 48.613041 
L 28.405484 47.903208 
L 28.464578 48.662098 
L 28.49257 48.322516 
L 28.551665 48.267883 
L 28.520562 48.65492 
L 28.573436 48.482182 
L 28.576546 48.66651 
L 28.663632 48.19867 
L 28.685404 48.632141 
L 28.688514 48.668372 
L 28.710286 48.242866 
L 28.77249 48.495634 
L 28.825364 47.999702 
L 28.850246 48.684754 
L 28.884458 48.342731 
L 28.952883 48.069714 
L 28.921781 48.665115 
L 28.965324 48.477063 
L 28.974654 48.654401 
L 29.005757 47.935796 
L 29.074182 48.423882 
L 29.183039 47.964416 
L 29.120835 48.512775 
L 29.19548 48.21862 
L 29.223472 48.624154 
L 29.270125 48.082906 
L 29.273236 48.085398 
L 29.288787 48.03212 
L 29.298117 48.384769 
L 29.344771 48.381109 
L 29.422526 48.658102 
L 29.434967 48.170302 
L 29.456739 48.478531 
L 29.550045 48.054254 
L 29.509612 48.553661 
L 29.568707 48.21162 
L 29.62469 48.598931 
L 29.674454 47.942868 
L 29.680674 48.387431 
L 29.714887 48.559658 
L 29.708666 48.205893 
L 29.727328 48.331633 
L 29.739769 47.98758 
L 29.786422 48.520644 
L 29.839296 48.215915 
L 29.935712 47.959128 
L 29.9015 48.647665 
L 29.941933 48.440178 
L 29.951264 48.596608 
L 29.994807 48.118899 
L 30.025909 48.306442 
L 30.032129 47.985837 
L 30.097444 48.627263 
L 30.134767 48.391428 
L 30.231183 48.087184 
L 30.156538 48.624764 
L 30.240514 48.419085 
L 30.293388 48.697132 
L 30.33071 48.301823 
L 30.346262 48.41916 
L 30.445789 48.031363 
L 30.411576 48.64971 
L 30.455119 48.339874 
L 30.504883 48.594903 
L 30.476891 48.272803 
L 30.567087 48.462545 
L 30.576418 47.994102 
L 30.616851 48.646369 
L 30.675945 48.361 
L 30.703937 48.657711 
L 30.74437 48.099371 
L 30.784803 48.333327 
L 30.843897 48.64054 
L 30.803464 48.091703 
L 30.899881 48.479444 
L 30.921652 48.070243 
L 30.965195 48.588936 
L 31.011849 48.332852 
L 31.064722 48.00145 
L 31.083384 48.602573 
L 31.092714 48.598403 
L 31.095825 48.626358 
L 31.148698 48.141631 
L 31.154919 47.984079 
L 31.201572 48.674154 
L 31.254446 48.143184 
L 31.325981 48.661838 
L 31.347752 47.876736 
L 31.363303 48.187245 
L 31.434839 48.083349 
L 31.413067 48.564368 
L 31.462831 48.315243 
L 31.472161 48.5814 
L 31.546806 47.747092 
L 31.553027 47.577713 
L 31.577909 48.581223 
L 31.630782 48.239769 
L 31.652554 48.64971 
L 31.671215 48.049994 
L 31.74275 48.488344 
L 31.780073 48.175527 
L 31.752081 48.646012 
L 31.848498 48.57347 
L 31.935584 48.671261 
L 31.929364 48.368669 
L 31.951135 48.583056 
L 32.038221 48.070132 
L 31.982237 48.647552 
L 32.063103 48.317085 
L 32.075544 48.645885 
L 32.150189 48.181354 
L 32.181291 48.528359 
L 32.193732 48.161373 
L 32.271488 48.670228 
L 32.290149 48.498017 
L 32.399007 48.667503 
L 32.355464 48.038888 
L 32.402117 48.552249 
L 32.467432 48.117083 
L 32.473652 48.590975 
L 32.510975 48.581681 
L 32.542077 48.13402 
L 32.576289 48.662004 
L 32.629163 48.46095 
L 32.632273 48.598878 
L 32.678927 48.07059 
L 32.7318 48.235446 
L 32.738021 48.112687 
L 32.787784 48.624397 
L 32.840658 48.202569 
L 32.940185 48.701734 
L 32.849989 47.950319 
L 32.971287 48.507658 
L 32.983728 48.164173 
L 33.052153 48.67628 
L 33.083255 48.44941 
L 33.1579 48.663325 
L 33.182782 48.124269 
L 33.192113 48.385383 
L 33.235656 48.68273 
L 33.304081 48.177312 
L 33.384947 48.595225 
L 33.335183 48.062721 
L 33.409828 48.103573 
L 33.412939 47.962612 
L 33.44093 48.668401 
L 33.515576 48.135196 
L 33.565339 48.691639 
L 33.543568 48.048308 
L 33.633764 48.476826 
L 33.661756 48.654166 
L 33.652425 48.373844 
L 33.705299 48.392024 
L 33.708409 48.130981 
L 33.736401 48.664852 
L 33.814157 48.527867 
L 33.919904 48.342862 
L 33.870141 48.678705 
L 33.923015 48.502014 
L 33.99766 48.690718 
L 33.929235 48.318814 
L 34.028762 48.467152 
L 34.059864 48.442387 
L 34.034983 48.586592 
L 34.062975 48.539701 
L 34.128289 48.675138 
L 34.165612 48.284581 
L 34.240257 48.671522 
L 34.299351 48.617586 
L 34.305572 48.248563 
L 34.330453 48.681312 
L 34.411319 48.473883 
L 34.41754 48.701794 
L 34.445532 48.142175 
L 34.526397 48.601611 
L 34.585491 48.698447 
L 34.597932 48.080139 
L 34.632145 48.552533 
L 34.694349 48.130029 
L 34.722341 48.665449 
L 34.753443 48.142292 
L 34.837419 48.68799 
L 34.806317 48.085179 
L 34.865411 48.257273 
L 34.896513 47.849213 
L 34.955608 48.687367 
L 34.961828 48.478494 
L 35.055135 48.672782 
L 35.039584 48.000605 
L 35.064465 48.234758 
L 35.067576 47.910246 
L 35.083127 48.667116 
L 35.170213 48.509158 
L 35.188874 48.554528 
L 35.204425 48.145091 
L 35.263519 47.856916 
L 35.241748 48.657886 
L 35.310173 48.341213 
L 35.428361 47.915329 
L 35.387928 48.668417 
L 35.434582 48.014653 
L 35.540329 48.61631 
L 35.54966 48.251561 
L 35.55277 47.979136 
L 35.605644 48.681962 
L 35.658517 48.37733 
L 35.733163 48.663017 
L 35.745604 48.112545 
L 35.748714 47.960667 
L 35.773596 48.687023 
L 35.845131 48.511832 
L 35.935327 48.668057 
L 35.901115 48.360894 
L 35.953988 48.516832 
L 35.98509 48.471352 
L 35.994421 48.664018 
L 36.003752 48.614576 
L 36.006862 48.681097 
L 36.050405 48.283812 
L 36.103279 48.574168 
L 36.11572 48.23011 
L 36.209026 48.647692 
L 36.215247 48.422979 
L 36.25568 48.660375 
L 36.221467 48.298127 
L 36.333435 48.579737 
L 36.339656 48.574014 
L 36.439183 48.2114 
L 36.414301 48.645428 
L 36.448513 48.608278 
L 36.451624 48.625412 
L 36.479615 48.21061 
L 36.495167 48.051166 
L 36.557371 48.508273 
L 36.579143 48.348063 
L 36.688 48.668219 
L 36.694221 48.607289 
L 36.706662 48.698014 
L 36.750205 48.048418 
L 36.775086 48.314812 
L 36.778197 48.068741 
L 36.82485 48.672412 
L 36.883944 48.474632 
L 36.911936 48.680463 
L 36.943038 47.714322 
L 36.992802 48.532467 
L 37.082998 47.992009 
L 37.048786 48.687474 
L 37.10477 48.304423 
L 37.11099 48.224801 
L 37.160754 48.667447 
L 37.210517 48.323471 
L 37.266501 48.637918 
L 37.291383 48.173384 
L 37.319375 48.321528 
L 37.412681 48.223087 
L 37.347367 48.672155 
L 37.425122 48.349508 
L 37.524649 48.697965 
L 37.502878 48.10403 
L 37.540201 48.644348 
L 37.614846 48.279592 
L 37.589964 48.689128 
L 37.649058 48.533356 
L 37.67394 48.64947 
L 37.736144 48.252308 
L 37.761026 48.610654 
L 37.764136 48.645815 
L 37.770357 48.1703 
L 37.848112 48.483157 
L 37.854333 48.236115 
L 37.944529 48.669738 
L 37.96008 48.375477 
L 37.997403 48.6662 
L 37.975631 48.16545 
L 38.072048 48.559187 
L 38.168465 48.040243 
L 38.115591 48.63453 
L 38.190237 48.452446 
L 38.202677 48.664736 
L 38.249331 48.210275 
L 38.305315 48.599699 
L 38.414172 48.248174 
L 38.355078 48.679235 
L 38.420393 48.418127 
L 38.498148 48.693006 
L 38.432834 48.339514 
L 38.501259 48.529293 
L 38.504369 48.194023 
L 38.535471 48.67695 
L 38.613226 48.423589 
L 38.628778 48.017239 
L 38.697202 48.668445 
L 38.722084 48.443537 
L 38.80917 48.178737 
L 38.821611 48.650228 
L 38.824721 48.607542 
L 38.908697 48.077136 
L 38.840273 48.657234 
L 38.9398 48.583456 
L 38.94913 48.495926 
L 38.94602 48.643379 
L 38.955351 48.562537 
L 39.048657 47.877095 
L 38.995784 48.67829 
L 39.070429 48.042057 
L 39.113972 48.677218 
L 39.129523 47.85513 
L 39.188617 48.322319 
L 39.297475 47.905214 
L 39.23216 48.671836 
L 39.306806 48.0653 
L 39.387671 48.681829 
L 39.421884 48.429951 
L 39.468537 48.655498 
L 39.487198 48.428323 
L 39.490308 48.260507 
L 39.51519 48.646296 
L 39.596056 48.49147 
L 39.670701 48.63216 
L 39.611607 48.116718 
L 39.701803 48.428139 
L 39.745347 48.20046 
L 39.782669 48.654463 
L 39.807551 48.594171 
L 39.913298 48.339896 
L 39.826212 48.665895 
L 39.922629 48.438822 
L 40.015936 48.691607 
L 40.000385 48.358808 
L 40.034597 48.494236 
L 40.134124 48.608718 
L 40.053258 48.33082 
L 40.140344 48.504744 
L 40.249202 48.171359 
L 40.183888 48.661493 
L 40.252312 48.368203 
L 40.302076 48.004179 
L 40.320737 48.666755 
L 40.370501 48.182522 
L 40.386052 48.650493 
L 40.473138 48.16239 
L 40.482469 48.317312 
L 40.566445 48.656745 
L 40.541563 48.19183 
L 40.591326 48.336087 
L 40.634869 47.870253 
L 40.684633 48.605242 
L 40.697074 48.493868 
L 40.709515 48.33714 
L 40.703294 48.542891 
L 40.718845 48.352421 
L 40.740617 48.207699 
L 40.762388 48.685753 
L 40.821483 48.590287 
L 40.824593 48.636592 
L 40.855695 48.181967 
L 40.908569 48.477197 
L 40.942781 48.040025 
L 40.989435 48.607795 
L 41.020537 48.284666 
L 41.113843 48.647057 
L 41.082741 47.892833 
L 41.141835 48.612438 
L 41.191599 48.177711 
L 41.151166 48.647225 
L 41.266244 48.257056 
L 41.291126 48.624689 
L 41.35333 48.084853 
L 41.375102 48.363045 
L 41.381322 48.120693 
L 41.449747 48.618928 
L 41.48396 48.278172 
L 41.505731 48.64022 
L 41.539944 48.019933 
L 41.592817 48.521304 
L 41.608368 48.124153 
L 41.62703 48.687479 
L 41.701675 48.465561 
L 41.757659 48.45315 
L 41.735887 48.652551 
L 41.76699 48.525845 
L 41.866517 48.682517 
L 41.847855 48.339233 
L 41.875847 48.514305 
L 41.969154 48.342416 
L 41.91317 48.673036 
L 41.972264 48.488793 
L 42.022028 48.642677 
L 42.028248 48.32658 
L 42.084232 48.543359 
L 42.183759 48.340252 
L 42.130885 48.699265 
L 42.19931 48.437118 
L 42.283286 48.68041 
L 42.214861 48.196209 
L 42.301947 48.595759 
L 42.33305 48.115643 
L 42.385923 48.671752 
L 42.413915 48.501671 
L 42.510332 48.273412 
L 42.426356 48.665379 
L 42.522773 48.463328 
L 42.560096 48.634643 
L 42.575647 48.136871 
L 42.62541 48.379313 
L 42.631631 48.285437 
L 42.687615 48.582544 
L 42.712496 48.381419 
L 42.718717 48.622637 
L 42.75604 48.112455 
L 42.824464 48.475393 
L 42.855567 48.667754 
L 42.861787 48.523772 
L 42.948873 48.21532 
L 42.895999 48.651118 
L 42.973755 48.407806 
L 42.989306 48.636991 
L 42.992416 48.66483 
L 43.007967 48.134755 
L 43.076392 48.54651 
L 43.179029 48.136103 
L 43.135486 48.657572 
L 43.19147 48.338028 
L 43.281667 48.648534 
L 43.269226 48.090583 
L 43.306548 48.53507 
L 43.374973 48.178966 
L 43.32521 48.698854 
L 43.418516 48.342273 
L 43.508713 48.654771 
L 43.427847 48.318783 
L 43.536705 48.580058 
L 43.651783 48.176901 
L 43.574027 48.653711 
L 43.654893 48.364058 
L 43.738869 48.645069 
L 43.695326 48.295205 
L 43.766861 48.489182 
L 43.791743 48.145179 
L 43.825955 48.60336 
L 43.875719 48.430444 
L 43.900601 48.666574 
L 43.962805 48.26683 
L 43.990797 48.576712 
L 44.102765 48.355616 
L 44.080993 48.682408 
L 44.105875 48.463814 
L 44.202292 48.271464 
L 44.143198 48.681141 
L 44.214733 48.482573 
L 44.258276 48.646592 
L 44.239615 48.211815 
L 44.326701 48.554323 
L 44.426228 48.190368 
L 44.410677 48.652444 
L 44.438669 48.471289 
L 44.516424 48.655874 
L 44.488432 48.203215 
L 44.547526 48.404529 
L 44.563077 48.350147 
L 44.653274 48.005211 
L 44.628392 48.654179 
L 44.665715 48.560294 
L 44.73725 48.174813 
L 44.696817 48.662238 
L 44.759021 48.55798 
L 44.774572 48.654046 
L 44.821226 48.285335 
L 44.867879 48.562631 
L 44.979847 48.243335 
L 44.905202 48.633565 
L 44.986067 48.312603 
L 45.004729 48.577298 
L 45.085594 48.221864 
L 45.094925 48.385473 
L 45.098035 48.251241 
L 45.113586 48.692374 
L 45.197562 48.551085 
L 45.241105 48.657472 
L 45.213113 48.130121 
L 45.30953 48.625176 
L 45.325081 48.213328 
L 45.337522 48.634189 
L 45.418388 48.599873 
L 45.424608 48.628172 
L 45.433939 48.310212 
L 45.440159 48.076604 
L 45.474372 48.676458 
L 45.542797 48.404993 
L 45.626773 48.214993 
L 45.632993 48.66931 
L 45.654765 48.375505 
L 45.701418 48.681274 
L 45.7263 48.225086 
L 45.766733 48.541195 
L 45.807165 48.33719 
L 45.825827 48.657027 
L 45.87248 48.550258 
L 45.906692 48.6846 
L 45.937795 48.269401 
L 45.978228 48.628651 
L 46.01555 48.378891 
L 46.003109 48.665058 
L 46.087085 48.470255 
L 46.130628 48.662787 
L 46.115077 48.236085 
L 46.195943 48.481034 
L 46.258147 48.304029 
L 46.245706 48.638876 
L 46.304801 48.539745 
L 46.311021 48.674443 
L 46.326572 48.156361 
L 46.410548 48.566559 
L 46.494524 48.098477 
L 46.43232 48.683638 
L 46.519406 48.625149 
L 46.569169 48.247911 
L 46.541177 48.655519 
L 46.631374 48.466187 
L 46.634484 48.681473 
L 46.730901 48.302211 
L 46.740231 48.399813 
L 46.830428 48.022657 
L 46.762003 48.644142 
L 46.852199 48.376384 
L 46.901963 48.668489 
L 46.957947 48.254565 
L 46.964167 48.561977 
L 47.029482 48.069562 
L 46.99838 48.686634 
L 47.088576 48.244346 
L 47.125899 48.659648 
L 47.14145 48.159289 
L 47.197434 48.200424 
L 47.200544 48.18436 
L 47.212985 48.69703 
L 47.244087 48.384811 
L 47.293851 48.649565 
L 47.343614 47.958727 
L 47.349835 48.14672 
L 47.461802 48.659641 
L 47.474243 48.61779 
L 47.548889 48.263858 
L 47.520897 48.647626 
L 47.583101 48.45483 
L 47.614203 48.642299 
L 47.679518 48.295561 
L 47.695069 48.581539 
L 47.772824 48.147871 
L 47.70751 48.657834 
L 47.807037 48.502342 
L 47.884792 48.650656 
L 47.835029 48.291883 
L 47.900344 48.405848 
L 47.99365 48.224008 
L 47.971879 48.689253 
L 48.006091 48.482955 
L 48.037193 48.218678 
L 48.055855 48.63515 
L 48.105618 48.507442 
L 48.13983 48.662717 
L 48.186484 48.312209 
L 48.205145 48.453316 
L 48.264239 48.274139 
L 48.239357 48.69489 
L 48.310893 48.572182 
L 48.382428 48.698899 
L 48.341995 48.162232 
L 48.42286 48.668571 
L 48.441522 48.2614 
L 48.537939 48.396674 
L 48.612584 48.68927 
L 48.565931 48.259213 
L 48.653017 48.530446 
L 48.740103 48.249974 
L 48.709001 48.678006 
L 48.761874 48.423243 
L 48.783646 48.668297 
L 48.802307 48.142945 
L 48.873842 48.556878 
L 48.920496 48.200173 
L 48.898724 48.693497 
L 48.97959 48.518973 
L 49.023133 48.650923 
L 49.001361 48.063321 
L 49.082227 48.348693 
L 49.107109 48.255821 
L 49.113329 48.427173 
L 49.206636 48.638979 
L 49.225297 48.185861 
L 49.312383 48.642076 
L 49.349706 48.609695 
L 49.449233 48.202256 
L 49.433682 48.659019 
L 49.461674 48.420951 
L 49.530099 48.285828 
L 49.505217 48.675767 
L 49.567421 48.475264 
L 49.642067 48.669505 
L 49.632736 48.266174 
L 49.673169 48.545949 
L 49.775806 48.123618 
L 49.747814 48.683276 
L 49.788247 48.216735 
L 49.810019 48.677035 
L 49.893995 48.164729 
L 49.906435 48.584998 
L 49.918876 48.154658 
L 50.015293 48.699316 
L 50.030844 48.445084 
L 50.121041 48.24628 
L 50.102379 48.655871 
L 50.136592 48.586329 
L 50.217457 48.219798 
L 50.183245 48.663146 
L 50.242339 48.576579 
L 50.245449 48.665464 
L 50.341866 48.415157 
L 50.351197 48.574855 
L 50.357417 48.359116 
L 50.382299 48.695966 
L 50.460055 48.666404 
L 50.578243 48.092966 
L 50.584463 48.286953 
L 50.690211 48.652251 
L 50.665329 48.248245 
L 50.705762 48.594367 
L 50.743085 48.22897 
L 50.795958 48.672021 
L 50.82084 48.303278 
L 50.848832 48.693474 
L 50.935918 48.640905 
L 51.044776 48.185827 
L 50.942139 48.666414 
L 51.047886 48.441615 
L 51.134972 48.674951 
L 51.085209 48.306869 
L 51.159854 48.532197 
L 51.250051 48.170379 
L 51.187846 48.701248 
L 51.268712 48.505926 
L 51.318475 48.18833 
L 51.38068 48.686472 
L 51.489537 48.169223 
L 51.501978 48.523311 
L 51.533081 48.68038 
L 51.545521 48.389929 
L 51.573513 48.150096 
L 51.632608 48.649116 
L 51.651269 48.574278 
L 51.67304 48.64932 
L 51.719694 48.25252 
L 51.741465 48.529255 
L 51.772567 48.00255 
L 51.831662 48.645397 
L 51.853433 48.421884 
L 51.915638 48.679141 
L 51.931189 48.210126 
L 51.959181 48.462626 
L 51.962291 48.281611 
L 52.005834 48.661921 
L 52.068038 48.425901 
L 52.108471 48.681484 
L 52.142684 48.319599 
L 52.176896 48.481616 
L 52.207998 48.680838 
L 52.285754 48.369143 
L 52.357289 48.166587 
L 52.397722 48.670391 
L 52.438155 48.257059 
L 52.494139 48.672892 
L 52.5128 48.316492 
L 52.590555 48.654704 
L 52.615437 48.265251 
L 52.624768 48.548948 
L 52.674531 48.300811 
L 52.696303 48.630839 
L 52.724295 48.598798 
L 52.774058 48.668991 
L 52.780279 48.269034 
L 52.823822 48.475908 
L 52.848704 48.675612 
L 52.9389 48.182176 
L 53.004215 48.663593 
L 53.057088 48.418775 
L 53.088191 48.176193 
L 53.122403 48.67234 
L 53.153505 48.361747 
L 53.259253 48.667635 
L 53.21571 48.214286 
L 53.265473 48.586901 
L 53.315237 48.667686 
L 53.337008 48.224269 
L 53.352559 48.481354 
L 53.365 48.17276 
L 53.455197 48.674979 
L 53.458307 48.634314 
L 53.470748 48.171786 
L 53.492519 48.679667 
L 53.567164 48.440382 
L 53.570275 48.654782 
L 53.582716 48.286311 
L 53.676022 48.356092 
L 53.682243 48.152914 
L 53.744447 48.617303 
L 53.78177 48.581184 
L 53.812872 48.172109 
L 53.853305 48.614812 
L 53.887517 48.481405 
L 53.92484 48.701315 
L 53.974603 48.262801 
L 53.996375 48.601986 
L 54.105233 48.324855 
L 54.002595 48.663807 
L 54.108343 48.366016 
L 54.120784 48.669571 
L 54.182988 48.219293 
L 54.2172 48.47734 
L 54.266964 48.181581 
L 54.291846 48.671636 
L 54.319838 48.493412 
L 54.322948 48.686481 
L 54.403814 48.330116 
L 54.428695 48.447796 
L 54.543774 48.669507 
L 54.441136 48.398502 
L 54.546884 48.647187 
L 54.658852 48.320105 
L 54.568655 48.669445 
L 54.661962 48.442675 
L 54.730387 48.697743 
L 54.705505 48.411616 
L 54.77704 48.58395 
L 54.808142 48.362933 
L 54.864126 48.687801 
L 54.882788 48.626983 
L 54.954323 48.639111 
L 54.935661 48.356105 
L 54.957433 48.542704 
L 54.966763 48.329596 
L 55.010307 48.694894 
L 55.069401 48.44687 
L 55.075621 48.451187 
L 55.078731 48.46706 
L 55.128495 48.27556 
L 55.109834 48.685442 
L 55.187589 48.435248 
L 55.265345 48.688307 
L 55.209361 48.280974 
L 55.299557 48.473805 
L 55.386643 48.660624 
L 55.361761 48.2112 
L 55.414635 48.63675 
L 55.417745 48.677889 
L 55.48617 48.260695 
L 55.504832 48.615133 
L 55.567036 48.261508 
L 55.604359 48.686713 
L 55.613689 48.551845 
L 55.663453 48.682837 
L 55.647902 48.404714 
L 55.719437 48.672507 
L 55.822074 48.230712 
L 55.831405 48.455006 
L 55.943373 48.655164 
L 55.924711 48.315293 
L 55.946483 48.644728 
L 55.958924 48.332442 
L 56.058451 48.40714 
L 56.061561 48.603335 
L 56.157978 48.077741 
L 56.167308 48.417541 
L 56.176639 48.231503 
L 56.269946 48.696255 
L 56.276166 48.503839 
L 56.288607 48.665153 
L 56.363252 48.343315 
L 56.378803 48.468729 
L 56.459669 48.23804 
L 56.441008 48.656097 
L 56.487661 48.400669 
L 56.556086 48.689071 
L 56.543645 48.205233 
L 56.599629 48.64606 
L 56.60896 48.488148 
L 56.61207 48.34597 
L 56.692936 48.682203 
L 56.717817 48.501247 
L 56.780022 48.695477 
L 56.770691 48.361378 
L 56.826675 48.446536 
L 56.839116 48.299242 
L 56.851557 48.642141 
L 56.926202 48.586624 
L 56.991517 48.679733 
L 56.997737 48.386344 
L 57.028839 48.495406 
L 57.103485 48.344961 
L 57.078603 48.644549 
L 57.140807 48.462124 
L 57.150138 48.667857 
L 57.240334 48.390134 
L 57.252775 48.508625 
L 57.271437 48.667089 
L 57.342972 48.416226 
L 57.361633 48.533346 
L 57.405176 48.295768 
L 57.46427 48.683499 
L 57.479821 48.312893 
L 57.563797 48.674694 
L 57.548246 48.253251 
L 57.60112 48.66468 
L 57.660214 48.255591 
L 57.703757 48.696488 
L 57.713088 48.405632 
L 57.793954 48.286011 
L 57.828166 48.635623 
L 57.912142 48.137793 
L 57.856158 48.676908 
L 57.940134 48.44041 
L 57.958795 48.680534 
L 58.011669 48.328933 
L 58.048992 48.493686 
L 58.083204 48.212983 
L 58.126747 48.67724 
L 58.154739 48.412471 
L 58.248046 48.674555 
L 58.192062 48.182096 
L 58.263597 48.518372 
L 58.31647 47.957541 
L 58.276038 48.641485 
L 58.375565 48.439636 
L 58.468871 48.673322 
L 58.406667 48.395094 
L 58.484422 48.55143 
L 58.577729 48.16803 
L 58.531076 48.637642 
L 58.59639 48.476372 
L 58.602611 48.51603 
L 58.605721 48.686484 
L 58.689697 48.21161 
L 58.711468 48.464093 
L 58.748791 48.172571 
L 58.73013 48.649035 
L 58.804775 48.48454 
L 58.882531 48.67259 
L 58.87942 48.370812 
L 58.913633 48.550452 
L 59.01005 48.395336 
L 58.935404 48.673052 
L 59.02249 48.46024 
L 59.025601 48.649144 
L 59.112687 48.328271 
L 59.134458 48.613971 
L 59.174891 48.397774 
L 59.181112 48.678567 
L 59.246426 48.570336 
L 59.277528 48.435886 
L 59.342843 48.65737 
L 59.352174 48.507494 
L 59.408158 48.652582 
L 59.423709 48.313892 
L 59.461031 48.45683 
L 59.504575 48.337766 
L 59.554338 48.673847 
L 59.566779 48.529686 
L 59.635204 48.687149 
L 59.628983 48.433834 
L 59.638314 48.499798 
L 59.644534 48.303398 
L 59.669416 48.642499 
L 59.747172 48.510547 
L 59.809376 48.686259 
L 59.834258 48.276302 
L 59.840478 48.434981 
L 59.843589 48.242689 
L 59.933785 48.651132 
L 59.949336 48.455965 
L 59.971108 48.651499 
L 60.00843 48.421386 
L 60.061304 48.563548 
L 60.107957 48.67561 
L 60.114178 48.244166 
L 60.167051 48.608187 
L 60.235476 48.269095 
L 60.247917 48.691902 
L 60.279019 48.549721 
L 60.303901 48.678806 
L 60.359885 48.326678 
L 60.375436 48.597965 
L 60.397208 48.286444 
L 60.474963 48.679422 
L 60.484294 48.48297 
L 60.524727 48.690196 
L 60.555829 48.248549 
L 60.590041 48.29652 
L 60.664687 48.674834 
L 60.695789 48.463485 
L 60.71134 48.119449 
L 60.730001 48.678186 
L 60.804647 48.567996 
L 60.84819 48.66525 
L 60.869961 48.2694 
L 60.916614 48.65063 
L 60.932166 48.269567 
L 60.988149 48.683557 
L 61.028582 48.553798 
L 61.097007 48.24561 
L 61.056574 48.682456 
L 61.14055 48.516518 
L 61.149881 48.671565 
L 61.162322 48.353511 
L 61.221416 48.464084 
L 61.227636 48.168035 
L 61.261849 48.686366 
L 61.324053 48.51189 
L 61.327163 48.678801 
L 61.383147 48.346979 
L 61.436021 48.591895 
L 61.479564 48.251935 
L 61.529328 48.681098 
L 61.544879 48.561451 
L 61.591532 48.684654 
L 61.619524 48.312003 
L 61.650626 48.624967 
L 61.725272 48.249415 
L 61.759484 48.694919 
L 61.84657 48.227019 
L 61.874562 48.556843 
L 61.893224 48.694476 
L 61.958538 48.427414 
L 61.977199 48.561288 
L 61.995861 48.401204 
L 62.051845 48.639627 
L 62.086057 48.524716 
L 62.145151 48.671144 
L 62.12027 48.434339 
L 62.182474 48.626254 
L 62.247789 48.237604 
L 62.222907 48.645996 
L 62.294442 48.519835 
L 62.393969 48.704366 
L 62.313103 48.331518 
L 62.40641 48.596113 
L 62.487276 48.381105 
L 62.474835 48.668609 
L 62.515268 48.484851 
L 62.599243 48.69779 
L 62.558811 48.312323 
L 62.627235 48.577014 
L 62.698771 48.262379 
L 62.661448 48.646086 
L 62.736093 48.624119 
L 62.764085 48.359069 
L 62.804518 48.653668 
L 62.848061 48.590921 
L 62.885384 48.656618 
L 62.916486 48.421604 
L 62.922706 48.439228 
L 62.925817 48.132695 
L 62.991131 48.568396 
L 63.031564 48.561779 
L 63.040895 48.649403 
L 63.062666 48.161258 
L 63.140422 48.580259 
L 63.249279 48.245701 
L 63.233728 48.666954 
L 63.25239 48.391327 
L 63.348807 48.690701 
L 63.271051 48.320423 
L 63.364358 48.649923 
L 63.379909 48.328046 
L 63.407901 48.656838 
L 63.473215 48.646753 
L 63.550971 48.245775 
L 63.529199 48.682532 
L 63.591404 48.495122 
L 63.631837 48.682276 
L 63.67538 48.337415 
L 63.700261 48.519864 
L 63.778017 48.409377 
L 63.756245 48.690438 
L 63.796678 48.491224 
L 63.806009 48.670129 
L 63.846442 48.377203 
L 63.908646 48.647723 
L 63.992622 48.376503 
L 63.942859 48.696547 
L 64.033055 48.536902 
L 64.135692 48.437581 
L 64.148133 48.689885 
L 64.160574 48.356635 
L 64.263211 48.465296 
L 64.365848 48.657679 
L 64.272542 48.313702 
L 64.378289 48.545033 
L 64.431163 48.338141 
L 64.409392 48.6749 
L 64.487147 48.60377 
L 64.502698 48.642107 
L 64.518249 48.403095 
L 64.53069 48.550078 
L 64.5338 48.253519 
L 64.586674 48.670497 
L 64.639548 48.572828 
L 64.726634 48.434192 
L 64.739075 48.676644 
L 64.745295 48.563653 
L 64.829271 48.665453 
L 64.8075 48.304509 
L 64.844822 48.362107 
L 64.847933 48.345091 
L 64.872814 48.638626 
L 64.922578 48.374898 
L 65.018995 48.68787 
L 64.997223 48.330472 
L 65.034546 48.539524 
L 65.084309 48.684214 
L 65.106081 48.201467 
L 65.137183 48.494472 
L 65.186947 48.222983 
L 65.162065 48.67004 
L 65.242931 48.391052 
L 65.323796 48.682918 
L 65.283363 48.185285 
L 65.354898 48.641933 
L 65.407772 48.225968 
L 65.37045 48.67041 
L 65.469977 48.429099 
L 65.485528 48.662865 
L 65.497969 48.236431 
L 65.541512 48.34849 
L 65.569504 48.140043 
L 65.588165 48.618556 
L 65.631708 48.515363 
L 65.644149 48.366726 
L 65.743676 48.665747 
L 65.846313 48.316511 
L 65.818321 48.685999 
L 65.855644 48.455121 
L 65.902297 48.679354 
L 65.958281 48.392902 
L 65.967612 48.504699 
L 66.004934 48.3587 
L 65.983163 48.625063 
L 66.073359 48.57791 
L 66.126233 48.675511 
L 66.160445 48.32851 
L 66.169776 48.569361 
L 66.250642 48.317701 
L 66.179107 48.66311 
L 66.278634 48.521185 
L 66.343948 48.676455 
L 66.331508 48.390462 
L 66.396822 48.660696 
L 66.403043 48.602086 
L 66.452806 48.370883 
L 66.474578 48.695807 
L 66.515011 48.507779 
L 66.552333 48.688815 
L 66.574105 48.388292 
L 66.630089 48.642674 
L 66.686073 48.680244 
L 66.64564 48.332507 
L 66.723395 48.600268 
L 66.763828 48.229396 
L 66.745167 48.663505 
L 66.835363 48.479442 
L 66.894457 48.679201 
L 66.903788 48.3992 
L 66.947331 48.656513 
L 67.025087 48.230385 
L 66.956662 48.665087 
L 67.062409 48.386577 
L 67.07485 48.691596 
L 67.096622 48.244213 
L 67.174377 48.457867 
L 67.21481 48.229557 
L 67.183708 48.645591 
L 67.280125 48.558332 
L 67.317447 48.692355 
L 67.298786 48.33149 
L 67.364101 48.505821 
L 67.367211 48.345764 
L 67.382762 48.687602 
L 67.472958 48.618132 
L 67.575596 48.264198 
L 67.541383 48.660328 
L 67.591147 48.411572 
L 67.690674 48.665561 
L 67.64091 48.2343 
L 67.703115 48.470554 
L 67.759099 48.284175 
L 67.752878 48.619339 
L 67.787091 48.59778 
L 67.796421 48.667569 
L 67.815083 48.317163 
L 67.892838 48.504545 
L 67.995475 48.322941 
L 67.933271 48.700238 
L 68.001696 48.576853 
L 68.007916 48.611137 
L 68.011026 48.511012 
L 68.017247 48.563797 
L 68.054569 48.331937 
L 68.079451 48.686668 
L 68.122994 48.640564 
L 68.126105 48.695827 
L 68.160317 48.369156 
L 68.222521 48.583603 
L 68.312718 48.329734 
L 68.238072 48.690639 
L 68.334489 48.415997 
L 68.371812 48.701643 
L 68.446457 48.534937 
L 68.530433 48.349745 
L 68.458898 48.691138 
L 68.558425 48.491634 
L 68.617519 48.680451 
L 68.661062 48.378431 
L 68.667283 48.629964 
L 68.729487 48.462395 
L 68.676613 48.67939 
L 68.779251 48.543773 
L 68.819684 48.32739 
L 68.869447 48.660656 
L 68.897439 48.46356 
L 68.937872 48.421791 
L 69.015627 48.681777 
L 69.037399 48.324469 
L 69.059171 48.696638 
L 69.130706 48.429285 
L 69.217792 48.694683 
L 69.171138 48.298779 
L 69.242674 48.468906 
L 69.314209 48.697209 
L 69.276886 48.384032 
L 69.348421 48.641117 
L 69.351531 48.371567 
L 69.457279 48.599796 
L 69.460389 48.690077 
L 69.544365 48.325773 
L 69.569247 48.651897 
L 69.591018 48.366088 
L 69.681215 48.471008 
L 69.783852 48.682571 
L 69.690545 48.453795 
L 69.793182 48.6388 
L 69.867828 48.309961 
L 69.880269 48.674643 
L 69.90204 48.58207 
L 69.942473 48.669134 
L 69.973575 48.21097 
L 69.995347 48.528481 
L 69.998457 48.315957 
L 70.017118 48.700422 
L 70.104204 48.673042 
L 70.206842 48.3516 
L 70.216172 48.514963 
L 70.32192 48.596561 
L 70.241054 47.966434 
L 70.32503 48.565412 
L 70.415226 48.314581 
L 70.396565 48.6713 
L 70.440108 48.419396 
L 70.527194 48.668631 
L 70.511643 48.223156 
L 70.552076 48.487375 
L 70.626721 48.324703 
L 70.636052 48.657822 
L 70.654713 48.541555 
L 70.704477 48.683008 
L 70.75424 48.452431 
L 70.763571 48.514523 
L 70.819555 48.311274 
L 70.779122 48.680352 
L 70.866208 48.510982 
L 70.897311 48.677789 
L 70.919082 48.361552 
L 70.975066 48.499244 
L 71.012389 48.282273 
L 70.999948 48.666568 
L 71.080814 48.589013 
L 71.099475 48.378046 
L 71.183451 48.629073 
L 71.261206 48.384661 
L 71.195892 48.672344 
L 71.295419 48.438903 
L 71.363844 48.679015 
L 71.30786 48.376918 
L 71.407387 48.545481 
L 71.463371 48.689672 
L 71.491363 48.481559 
L 71.494473 48.306124 
L 71.562898 48.682899 
L 71.60022 48.540244 
L 71.684196 48.292399 
L 71.705968 48.678185 
L 71.709078 48.439254 
L 71.789944 48.661264 
L 71.771282 48.356423 
L 71.817936 48.381662 
L 71.926793 48.660765 
L 71.889471 48.333003 
L 71.936124 48.564006 
L 72.001439 48.196704 
L 72.029431 48.659749 
L 72.048092 48.55242 
L 72.116517 48.689241 
L 72.125848 48.395326 
L 72.16006 48.645592 
L 72.184942 48.406044 
L 72.253367 48.687132 
L 72.275138 48.544807 
L 72.374665 48.686375 
L 72.343563 48.263893 
L 72.380886 48.493593 
L 72.387106 48.341284 
L 72.480413 48.691186 
L 72.486633 48.479078 
L 72.592381 48.654177 
L 72.570609 48.338006 
L 72.598601 48.525853 
L 72.651475 48.689426 
L 72.676356 48.274594 
L 72.710569 48.561756 
L 72.713679 48.563113 
L 72.716789 48.50765 
L 72.775883 48.3042 
L 72.800765 48.673912 
L 72.825647 48.589278 
L 72.86297 48.346648 
L 72.903403 48.6841 
L 72.937615 48.468168 
L 73.034032 48.681457 
L 73.043362 48.279947 
L 73.049583 48.594134 
L 73.133559 48.421733 
L 73.055803 48.6663 
L 73.14911 48.490521 
L 73.170881 48.677962 
L 73.223755 48.342498 
L 73.257968 48.494604 
L 73.307731 48.426854 
L 73.304621 48.691529 
L 73.348164 48.568308 
L 73.388597 48.688209 
L 73.447691 48.382706 
L 73.460132 48.62509 
L 73.494344 48.28946 
L 73.531667 48.700004 
L 73.5721 48.551829 
L 73.603202 48.455705 
L 73.58143 48.696291 
L 73.659186 48.553046 
L 73.702729 48.678156 
L 73.687178 48.489322 
L 73.768044 48.549626 
L 73.814697 48.696253 
L 73.792925 48.471418 
L 73.848909 48.63895 
L 73.85202 48.333544 
L 73.898673 48.658514 
L 73.957767 48.550749 
L 73.960877 48.691947 
L 74.054184 48.462104 
L 74.069735 48.658694 
L 74.079066 48.404016 
L 74.128829 48.662557 
L 74.181703 48.449825 
L 74.215915 48.694688 
L 74.191034 48.310196 
L 74.290561 48.547916 
L 74.368316 48.464843 
L 74.324773 48.675292 
L 74.399418 48.493582 
L 74.511386 48.688725 
L 74.480284 48.3837 
L 74.514497 48.66589 
L 74.623354 48.351765 
L 74.530048 48.692334 
L 74.629575 48.570141 
L 74.713551 48.666026 
L 74.651346 48.417144 
L 74.729102 48.647401 
L 74.794416 48.375742 
L 74.806857 48.674344 
L 74.837959 48.51872 
L 74.897054 48.65473 
L 74.869062 48.309972 
L 74.943707 48.380231 
L 74.999691 48.329801 
L 75.024573 48.643237 
L 75.027683 48.515223 
L 75.061895 48.656054 
L 75.043234 48.361595 
L 75.13343 48.568219 
L 75.214296 48.149851 
L 75.173863 48.685074 
L 75.242288 48.560633 
L 75.329374 48.695055 
L 75.285831 48.182056 
L 75.348035 48.611322 
L 75.41646 48.211738 
L 75.357366 48.634894 
L 75.463114 48.378277 
L 75.519098 48.655826 
L 75.540869 48.301669 
L 75.578192 48.600671 
L 75.659057 48.651132 
L 75.649727 48.38806 
L 75.683939 48.589194 
L 75.743033 48.41043 
L 75.705711 48.667346 
L 75.792797 48.571928 
L 75.845671 48.660194 
L 75.861222 48.362957 
L 75.901655 48.637161 
L 75.907875 48.390691 
L 75.954528 48.687548 
L 76.013623 48.576899 
L 76.060276 48.694032 
L 76.110039 48.426542 
L 76.11937 48.605826 
L 76.184685 48.420794 
L 76.225118 48.677474 
L 76.231338 48.460538 
L 76.25311 48.691943 
L 76.271771 48.378493 
L 76.343306 48.487547 
L 76.408621 48.406246 
L 76.374408 48.676616 
L 76.449053 48.566899 
L 76.458384 48.630541 
L 76.467715 48.475099 
L 76.473935 48.474619 
L 76.480156 48.343861 
L 76.570352 48.652546 
L 76.579683 48.577005 
L 76.595234 48.693393 
L 76.592123 48.381581 
L 76.669879 48.535608 
L 76.676099 48.342162 
L 76.68543 48.676356 
L 76.778737 48.415078 
L 76.800508 48.659425 
L 76.875154 48.303173 
L 76.890705 48.57014 
L 76.990232 48.24097 
L 76.934248 48.679874 
L 77.005783 48.376746 
L 77.008893 48.651513 
L 77.033775 48.29024 
L 77.117751 48.526428 
L 77.155073 48.650901 
L 77.161294 48.405385 
L 77.164404 48.289684 
L 77.195506 48.667369 
L 77.267041 48.406061 
L 77.338576 48.692118 
L 77.360348 48.302895 
L 77.379009 48.462758 
L 77.456765 48.680122 
L 77.413222 48.326623 
L 77.490977 48.591135 
L 77.568733 48.377293 
L 77.593614 48.693794 
L 77.599835 48.608884 
L 77.637157 48.691833 
L 77.615386 48.522702 
L 77.649598 48.653647 
L 77.655819 48.352119 
L 77.693141 48.668576 
L 77.761566 48.563545 
L 77.823771 48.276589 
L 77.870424 48.694492 
L 77.898416 48.363973 
L 77.982392 48.428777 
L 78.025935 48.672205 
L 78.004163 48.30224 
L 78.09125 48.471201 
L 78.10058 48.275125 
L 78.122352 48.654094 
L 78.196997 48.496912 
L 78.203217 48.672194 
L 78.218769 48.324556 
L 78.308965 48.666359 
L 78.340067 48.421409 
L 78.333847 48.674718 
L 78.420933 48.649253 
L 78.545342 48.377375 
L 78.461366 48.700507 
L 78.567113 48.56056 
L 78.595105 48.656289 
L 78.573334 48.433878 
L 78.675971 48.592462 
L 78.772388 48.387419 
L 78.725734 48.651638 
L 78.787939 48.510468 
L 78.80971 48.681379 
L 78.875025 48.402797 
L 78.899907 48.582468 
L 78.94967 48.672678 
L 78.968332 48.436844 
L 78.980772 48.548673 
L 79.055418 48.284678 
L 79.008764 48.696849 
L 79.08652 48.600675 
L 79.179827 48.67609 
L 79.151835 48.444903 
L 79.189157 48.520809 
L 79.251362 48.329968 
L 79.257582 48.664959 
L 79.298015 48.542349 
L 79.329117 48.661659 
L 79.335338 48.487984 
L 79.403762 48.563269 
L 79.456636 48.366625 
L 79.500179 48.654507 
L 79.51262 48.425697 
L 79.562384 48.690563 
L 79.618368 48.420189 
L 79.621478 48.457528 
L 79.624588 48.304792 
L 79.689903 48.663756 
L 79.730336 48.417333 
L 79.804981 48.681057 
L 79.839193 48.578281 
L 79.860965 48.287158 
L 79.895177 48.658953 
L 79.948051 48.513608 
L 80.035137 48.661683 
L 79.966712 48.347782 
L 80.050688 48.64392 
L 80.063129 48.227542 
L 80.06935 48.686348 
L 80.162656 48.282743 
L 80.165766 48.284684 
L 80.262183 48.632721 
L 80.268404 48.211221 
L 80.274624 48.227928 
L 80.287065 48.188233 
L 80.293285 48.352871 
L 80.339939 48.684389 
L 80.374151 48.196687 
L 80.411474 48.66626 
L 80.427025 48.28373 
L 80.486119 48.693004 
L 80.529662 48.446918 
L 80.594977 48.668753 
L 80.601197 48.334597 
L 80.64474 48.60754 
L 80.738047 48.39196 
L 80.725606 48.682892 
L 80.753598 48.54335 
L 80.853125 48.676067 
L 80.769149 48.339347 
L 80.859345 48.644504 
L 80.93088 48.389793 
L 80.890448 48.677972 
L 80.968203 48.584031 
L 80.971313 48.685953 
L 81.008636 48.449214 
L 81.077061 48.542194 
L 81.108163 48.377672 
L 81.101943 48.675738 
L 81.179698 48.457987 
L 81.182808 48.696549 
L 81.232572 48.429015 
L 81.291666 48.689179 
L 81.338319 48.381516 
L 81.403634 48.622332 
L 81.500051 48.391521 
L 81.468949 48.653877 
L 81.521822 48.507173 
L 81.602688 48.687604 
L 81.62446 48.294745 
L 81.63068 48.412049 
L 81.63379 48.386796 
L 81.677333 48.660526 
L 81.720876 48.553124 
L 81.820403 48.666546 
L 81.795522 48.289813 
L 81.832844 48.651537 
L 81.929261 48.343923 
L 81.888828 48.663694 
L 81.944812 48.356175 
L 81.994576 48.662869 
L 81.966584 48.289711 
L 82.05678 48.478521 
L 82.069221 48.681023 
L 82.134536 48.400991 
L 82.168748 48.627572 
L 82.246504 48.422474 
L 82.218512 48.676862 
L 82.277606 48.66516 
L 82.389574 48.38049 
L 82.361582 48.674996 
L 82.395794 48.523957 
L 82.426896 48.323045 
L 82.442447 48.65839 
L 82.492211 48.533351 
L 82.517093 48.67486 
L 82.501542 48.379841 
L 82.601069 48.61691 
L 82.694375 48.38879 
L 82.666383 48.684487 
L 82.713037 48.448756 
L 82.747249 48.676035 
L 82.797013 48.202749 
L 82.821894 48.63183 
L 82.89654 48.292586 
L 82.831225 48.643835 
L 82.930752 48.625687 
L 83.008507 48.683958 
L 83.014728 48.43233 
L 83.030279 48.582446 
L 83.092483 48.302832 
L 83.080043 48.668824 
L 83.142247 48.517711 
L 83.216892 48.685819 
L 83.1889 48.413347 
L 83.251105 48.501745 
L 83.288427 48.390759 
L 83.344411 48.674332 
L 83.353742 48.554914 
L 83.450159 48.674691 
L 83.440828 48.282143 
L 83.4626 48.573713 
L 83.46882 48.357748 
L 83.518584 48.701461 
L 83.574568 48.495178 
L 83.618111 48.703108 
L 83.587008 48.381429 
L 83.683425 48.456354 
L 83.686535 48.414096 
L 83.733189 48.682738 
L 83.789173 48.5208 
L 83.873149 48.697565 
L 83.807834 48.404175 
L 83.910471 48.665752 
L 83.929133 48.347115 
L 83.960235 48.671812 
L 84.025549 48.517677 
L 84.103305 48.6856 
L 84.047321 48.363431 
L 84.137517 48.563288 
L 84.246375 48.388993 
L 84.17484 48.655965 
L 84.252595 48.425071 
L 84.345902 48.70208 
L 84.280587 48.398605 
L 84.367674 48.671274 
L 84.417437 48.396107 
L 84.420547 48.676374 
L 84.485862 48.505399 
L 84.541846 48.653725 
L 84.557397 48.3991 
L 84.59472 48.63325 
L 84.650704 48.381656 
L 84.697357 48.652547 
L 84.706688 48.57279 
L 84.784443 48.322657 
L 84.712908 48.6765 
L 84.815545 48.529054 
L 84.868419 48.683076 
L 84.865309 48.450746 
L 84.918183 48.504702 
L 84.930623 48.37678 
L 85.002159 48.679365 
L 85.02393 48.658806 
L 85.045702 48.25065 
L 85.079914 48.697687 
L 85.135898 48.429895 
L 85.182551 48.690707 
L 85.238535 48.360721 
L 85.241645 48.467286 
L 85.244756 48.243519 
L 85.319401 48.678981 
L 85.350503 48.494575 
L 85.362944 48.656697 
L 85.415818 48.305587 
L 85.459361 48.491965 
L 85.471802 48.283328 
L 85.546447 48.613384 
L 85.568219 48.581134 
L 85.624203 48.677591 
L 85.611762 48.400514 
L 85.667746 48.626985 
L 85.72373 48.366471 
L 85.695738 48.679709 
L 85.779714 48.565604 
L 85.820146 48.384494 
L 85.882351 48.68872 
L 85.888571 48.551575 
L 85.953886 48.694726 
L 85.938335 48.42014 
L 85.988098 48.655131 
L 86.053413 48.376235 
L 86.0192 48.701999 
L 86.100066 48.592919 
L 86.124948 48.448327 
L 86.128058 48.682699 
L 86.208924 48.600702 
L 86.230695 48.703312 
L 86.311561 48.47088 
L 86.407978 48.677031 
L 86.364435 48.424799 
L 86.420419 48.582334 
L 86.423529 48.364322 
L 86.498174 48.673539 
L 86.529277 48.431328 
L 86.57904 48.685932 
L 86.638134 48.593647 
L 86.641244 48.364666 
L 86.728331 48.699112 
L 86.746992 48.536917 
L 86.753212 48.67259 
L 86.762543 48.341159 
L 86.85585 48.571039 
L 86.955377 48.365981 
L 86.927385 48.700513 
L 86.964707 48.527681 
L 87.073565 48.687809 
L 87.042463 48.390773 
L 87.076675 48.577768 
L 87.123329 48.21415 
L 87.092226 48.68708 
L 87.185533 48.575611 
L 87.28195 48.663223 
L 87.272619 48.265201 
L 87.29128 48.560459 
L 87.400138 48.206676 
L 87.375256 48.684764 
L 87.403248 48.302354 
L 87.468563 48.692256 
L 87.449902 48.294212 
L 87.518327 48.546297 
L 87.5712 48.369855 
L 87.533878 48.661796 
L 87.596082 48.617235 
L 87.658286 48.350301 
L 87.695609 48.684652 
L 87.742262 48.269718 
L 87.807577 48.533502 
L 87.888443 48.678072 
L 87.85112 48.293457 
L 87.919545 48.638661 
L 87.972419 48.379574 
L 87.944427 48.665226 
L 88.031513 48.549527 
L 88.071946 48.675473 
L 88.103048 48.241148 
L 88.13726 48.468794 
L 88.243008 48.370128 
L 88.205685 48.657003 
L 88.249228 48.396561 
L 88.27411 48.667845 
L 88.286551 48.312722 
L 88.361196 48.611364 
L 88.429621 48.299335 
L 88.41096 48.672945 
L 88.473164 48.513996 
L 88.572691 48.666605 
L 88.529148 48.370621 
L 88.582022 48.50358 
L 88.653557 48.359681 
L 88.588242 48.67871 
L 88.684659 48.587482 
L 88.725092 48.682788 
L 88.718871 48.338198 
L 88.759304 48.416113 
L 88.762415 48.25289 
L 88.774855 48.677535 
L 88.865052 48.582671 
L 88.889934 48.343884 
L 88.883713 48.644383 
L 88.945918 48.619261 
L 88.952138 48.698766 
L 88.989461 48.376898 
L 89.054775 48.655976 
L 89.169853 48.4502 
L 89.11698 48.698824 
L 89.172964 48.512692 
L 89.204066 48.674465 
L 89.228948 48.48188 
L 89.278711 48.508599 
L 89.281821 48.355296 
L 89.340915 48.674158 
L 89.387569 48.618408 
L 89.487096 48.430266 
L 89.393789 48.686294 
L 89.496426 48.487325 
L 89.515088 48.683907 
L 89.605284 48.451097 
L 89.608394 48.591984 
L 89.711032 48.701921 
L 89.670599 48.406589 
L 89.717252 48.588082 
L 89.788787 48.36051 
L 89.807448 48.692459 
L 89.82611 48.62051 
L 89.882094 48.701237 
L 89.844771 48.430588 
L 89.931857 48.536075 
L 89.953629 48.530833 
L 89.938078 48.639175 
L 89.956739 48.605548 
L 90.018943 48.687294 
L 89.96918 48.405004 
L 90.068707 48.649574 
L 90.127801 48.38655 
L 90.143352 48.675824 
L 90.183785 48.44613 
L 90.267761 48.699355 
L 90.239769 48.284095 
L 90.298863 48.683749 
L 90.326855 48.409933 
L 90.417052 48.514526 
L 90.460595 48.677772 
L 90.441933 48.378319 
L 90.52902 48.604085 
L 90.606775 48.682759 
L 90.588114 48.405765 
L 90.622326 48.545534 
L 90.721853 48.310837 
L 90.668979 48.651559 
L 90.731184 48.454676 
L 90.737404 48.694046 
L 90.802719 48.266017 
L 90.836931 48.428746 
L 90.840042 48.314617 
L 90.911577 48.692707 
L 90.942679 48.475078 
L 90.995553 48.664856 
L 91.032875 48.287024 
L 91.054647 48.606182 
L 91.116851 48.391813 
L 91.160394 48.687926 
L 91.166615 48.513937 
L 91.219488 48.690729 
L 91.185276 48.373505 
L 91.275472 48.48647 
L 91.309685 48.689785 
L 91.38433 48.395766 
L 91.402991 48.675345 
L 91.496298 48.548054 
L 91.52118 48.687507 
L 91.539841 48.420312 
L 91.614486 48.634857 
L 91.704683 48.68263 
L 91.630037 48.410273 
L 91.717124 48.620455 
L 91.776218 48.680525 
L 91.832202 48.387227 
L 91.838422 48.701737 
L 91.9535 48.657557 
L 92.043697 48.447765 
L 91.997043 48.685119 
L 92.065468 48.590069 
L 92.068578 48.693215 
L 92.146334 48.344484 
L 92.174326 48.580596 
L 92.196097 48.319356 
L 92.239641 48.686572 
L 92.280073 48.648783 
L 92.336057 48.678519 
L 92.323617 48.416185 
L 92.357829 48.49154 
L 92.364049 48.383631 
L 92.416923 48.677103 
L 92.463576 48.570245 
L 92.491568 48.666532 
L 92.538222 48.414359 
L 92.569324 48.565026 
L 92.643969 48.386647 
L 92.615977 48.684728 
L 92.681292 48.519359 
L 92.718614 48.697831 
L 92.774598 48.347747 
L 92.79326 48.601139 
L 92.852354 48.398577 
L 92.821252 48.671043 
L 92.905228 48.536474 
L 92.926999 48.686517 
L 92.967432 48.334145 
L 93.017196 48.574365 
L 93.054518 48.692311 
L 93.063849 48.344367 
L 93.119833 48.465235 
L 93.122943 48.374692 
L 93.169596 48.66875 
L 93.228691 48.45345 
L 93.306446 48.696043 
L 93.234911 48.398406 
L 93.340658 48.568185 
L 93.409083 48.320709 
L 93.427745 48.659332 
L 93.449516 48.544039 
L 93.496169 48.682526 
L 93.468177 48.447234 
L 93.558374 48.542868 
L 93.636129 48.452981 
L 93.586366 48.663366 
L 93.63924 48.555606 
L 93.64235 48.683524 
L 93.716995 48.335728 
L 93.748097 48.674757 
L 93.856955 48.323386 
L 93.7792 48.684071 
L 93.860065 48.432344 
L 93.903608 48.636542 
L 93.875616 48.396508 
L 93.972033 48.565714 
L 94.059119 48.692884 
L 94.043568 48.491322 
L 94.080891 48.54726 
L 94.096442 48.678294 
L 94.136875 48.456248 
L 94.195969 48.609789 
L 94.199079 48.410574 
L 94.283055 48.698424 
L 94.307937 48.46442 
L 94.363921 48.695263 
L 94.419905 48.626022 
L 94.49455 48.40655 
L 94.522542 48.695505 
L 94.531873 48.558571 
L 94.597187 48.70357 
L 94.618959 48.456428 
L 94.643841 48.637079 
L 94.659392 48.425133 
L 94.650061 48.648584 
L 94.702935 48.607886 
" clip-path="url(#p3c94c9f3b1)" style="fill: none; stroke: #ff7f0e; stroke-width: 0.5; stroke-linecap: square"/>
   </g>
  </g>
 </g>
 <defs>
  <clipPath id="p3c94c9f3b1">
   <rect x="0" y="-0" width="99.212598" height="51.023622"/>
  </clipPath>
 </defs>
</svg>
