<?xml version="1.0" encoding="utf-8" standalone="no"?>
<!DOCTYPE svg PUBLIC "-//W3C//DTD SVG 1.1//EN"
  "http://www.w3.org/Graphics/SVG/1.1/DTD/svg11.dtd">
<svg xmlns:xlink="http://www.w3.org/1999/xlink" width="56.692913pt" height="28.346457pt" viewBox="0 0 56.692913 28.346457" xmlns="http://www.w3.org/2000/svg" version="1.1">
 <metadata>
  <rdf:RDF xmlns:dc="http://purl.org/dc/elements/1.1/" xmlns:cc="http://creativecommons.org/ns#" xmlns:rdf="http://www.w3.org/1999/02/22-rdf-syntax-ns#">
   <cc:Work>
    <dc:type rdf:resource="http://purl.org/dc/dcmitype/StillImage"/>
    <dc:date>2024-11-01T11:33:21.563245</dc:date>
    <dc:format>image/svg+xml</dc:format>
    <dc:creator>
     <cc:Agent>
      <dc:title>Matplotlib v3.8.4, https://matplotlib.org/</dc:title>
     </cc:Agent>
    </dc:creator>
   </cc:Work>
  </rdf:RDF>
 </metadata>
 <defs>
  <style type="text/css">*{stroke-linejoin: round; stroke-linecap: butt}</style>
 </defs>
 <g id="figure_1">
  <g id="patch_1">
   <path d="M 0 28.346457 
L 56.692913 28.346457 
L 56.692913 0 
L 0 0 
L 0 28.346457 
z
" style="fill: none"/>
  </g>
  <g id="axes_1">
   <g id="patch_2">
    <path d="M 0 28.346457 
L 56.692913 28.346457 
L 56.692913 0 
L 0 0 
L 0 28.346457 
z
" style="fill: none"/>
   </g>
   <g id="matplotlib.axis_1">
    <g id="xtick_1"/>
    <g id="xtick_2"/>
   </g>
   <g id="matplotlib.axis_2">
    <g id="ytick_1"/>
    <g id="ytick_2"/>
   </g>
   <g id="line2d_1">
    <path d="M 2.576951 26.500746 
L 2.613848 27.745932 
L 2.591593 26.325866 
L 2.688229 27.17631 
L 2.787794 27.961656 
L 2.733912 26.278674 
L 2.797751 26.679512 
L 2.876817 27.679291 
L 2.87506 26.184811 
L 2.909615 27.026375 
L 2.95237 26.276575 
L 2.954127 27.763382 
L 3.019723 26.654164 
L 3.029093 27.758129 
L 3.105817 25.935866 
L 3.130416 26.858174 
L 3.142715 26.302624 
L 3.223538 27.620719 
L 3.238766 26.852011 
L 3.248137 27.703905 
L 3.259265 26.200534 
L 3.348873 26.879819 
L 3.354144 26.149787 
L 3.40627 27.727548 
L 3.459566 26.673905 
L 3.538047 27.776536 
L 3.474794 26.008521 
L 3.570845 27.376691 
L 3.675681 26.207199 
L 3.638783 27.790218 
L 3.682124 27.185356 
L 3.760604 26.375009 
L 3.737177 27.635386 
L 3.793402 27.083881 
L 3.884182 26.255618 
L 3.81273 27.771164 
L 3.901753 27.157568 
L 3.96442 27.71452 
L 3.90351 26.065334 
L 4.011274 27.124959 
L 4.079798 26.249905 
L 4.103811 27.77386 
L 4.122553 26.565349 
L 4.156522 27.733476 
L 4.183463 26.33975 
L 4.233832 27.113275 
L 4.242617 26.226913 
L 4.273072 27.837746 
L 4.34511 26.779468 
L 4.395478 26.060117 
L 4.35331 27.911145 
L 4.447018 26.933529 
L 4.481573 27.884445 
L 4.456389 26.215449 
L 4.557711 27.252963 
L 4.601051 25.811469 
L 4.626235 27.612693 
L 4.66899 26.840308 
L 4.714673 27.765322 
L 4.69476 26.269269 
L 4.780268 26.989842 
L 4.818337 27.802161 
L 4.870463 26.306948 
L 4.891547 27.177244 
L 4.91556 26.26839 
L 4.984084 27.607551 
L 5.003411 26.837857 
L 5.016882 28.075403 
L 5.064322 26.09207 
L 5.11469 27.652408 
L 5.123475 26.195849 
L 5.182043 27.693474 
L 5.225969 27.041699 
L 5.226554 27.666613 
L 5.327877 26.240276 
L 5.336662 27.170206 
L 5.430956 26.185098 
L 5.443841 27.779161 
L 5.449112 26.637603 
L 5.532278 27.745329 
L 5.535206 26.229152 
L 5.560391 27.027113 
L 5.649413 26.229145 
L 5.596703 27.776559 
L 5.671084 27.125564 
L 5.760106 27.832828 
L 5.727894 26.289468 
L 5.780605 27.010445 
L 5.853229 26.21783 
L 5.81926 27.654721 
L 5.890712 27.319281 
L 5.97915 27.714633 
L 5.910626 26.168918 
L 5.981492 26.863296 
L 6.082815 26.11245 
L 5.987349 27.667643 
L 6.0916 26.821075 
L 6.136111 27.707721 
L 6.122641 26.177625 
L 6.202878 26.928845 
L 6.242705 27.6861 
L 6.245633 26.268229 
L 6.3124 27.114702 
L 6.403766 26.132295 
L 6.390881 27.615814 
L 6.423679 26.936101 
L 6.525587 26.165763 
L 6.489275 27.68399 
L 6.533786 26.581928 
L 6.542571 27.803389 
L 6.622809 26.217827 
L 6.645065 27.208355 
L 6.658535 26.330787 
L 6.709489 27.647983 
L 6.756343 26.597961 
L 6.821354 27.718599 
L 6.779185 26.054461 
L 6.867622 27.10552 
L 6.975387 26.124447 
L 6.952545 27.686174 
L 6.978315 26.655112 
L 7.000571 27.856578 
L 7.070852 25.993742 
L 7.089008 27.058508 
L 7.113021 26.27743 
L 7.116535 27.623943 
L 7.199115 27.343203 
L 7.208486 27.692593 
L 7.207901 26.304475 
L 7.291652 27.205741 
L 7.35432 26.269684 
L 7.379504 27.820143 
L 7.402345 27.432669 
L 7.468527 26.033612 
L 7.483755 27.886058 
L 7.513624 26.579154 
L 7.571606 27.78276 
L 7.605575 26.247897 
L 7.624903 26.798636 
L 7.692841 28.022301 
L 7.694598 26.230946 
L 7.735596 26.741103 
L 7.768394 26.317209 
L 7.834575 27.804705 
L 7.846289 26.846795 
L 7.944683 27.935839 
L 7.907785 26.296247 
L 7.957567 27.176499 
L 8.006764 26.334098 
L 8.051862 27.715638 
L 8.068846 27.04691 
L 8.156112 27.833111 
L 8.070018 26.069646 
L 8.177782 27.187304 
L 8.263291 26.338252 
L 8.243378 27.755974 
L 8.289061 26.753441 
L 8.385112 27.932212 
L 8.312488 26.17088 
L 8.399754 26.950854 
L 8.419667 26.095089 
L 8.471206 27.788992 
L 8.510447 26.625065 
L 8.617626 27.630478 
L 8.529774 26.184316 
L 8.62114 26.79265 
L 8.672094 26.100074 
L 8.692592 28.084387 
L 8.730076 26.94019 
L 8.810314 27.650634 
L 8.827884 26.04028 
L 8.840769 26.713681 
L 8.887623 27.85007 
L 8.864782 26.335872 
L 8.952047 27.21552 
L 8.956733 26.217096 
L 9.003001 27.740063 
L 9.06274 26.805905 
L 9.136536 28.022597 
L 9.073868 26.337384 
L 9.174605 27.612927 
L 9.199789 26.243248 
L 9.2484 27.687821 
L 9.287055 26.936826 
L 9.296426 27.714701 
L 9.381935 26.217643 
L 9.397748 27.478171 
L 9.419418 26.115445 
L 9.427617 27.676 
L 9.509027 27.274639 
L 9.60742 26.239618 
L 9.571108 27.651805 
L 9.620891 26.806318 
L 9.648418 27.699854 
L 9.661888 26.242458 
L 9.732755 27.131689 
L 9.776681 27.699844 
L 9.84462 26.328286 
L 9.914901 27.843208 
L 9.892645 26.157 
L 9.955898 27.109132 
L 10.023837 27.685072 
L 10.056049 26.047621 
L 10.067177 27.27254 
L 10.145072 26.295551 
L 10.118131 27.636043 
L 10.176113 26.968025 
L 10.278021 27.746574 
L 10.183727 26.297647 
L 10.286806 26.955166 
L 10.344788 26.136847 
L 10.330146 27.846902 
L 10.396913 26.743121 
L 10.453724 27.763794 
L 10.401013 26.329358 
L 10.508192 27.507794 
L 10.513463 26.018539 
L 10.52342 27.850612 
L 10.618885 26.552094 
L 10.631184 27.738067 
L 10.632355 25.864292 
L 10.729578 27.320902 
L 10.732506 26.255613 
L 10.810987 27.703677 
L 10.840857 27.111665 
L 10.911724 27.637952 
L 10.931637 26.170029 
L 10.946278 27.600279 
L 11.000746 25.986505 
L 10.979662 27.880321 
L 11.057557 26.996209 
L 11.155365 26.159045 
L 11.129595 27.719543 
L 11.166493 27.430264 
L 11.167079 28.046459 
L 11.222132 26.285187 
L 11.277186 27.594487 
L 11.312912 26.279938 
L 11.315255 27.815809 
L 11.388465 27.182967 
L 11.44469 26.113223 
L 11.428877 27.743998 
L 11.498572 27.20086 
L 11.531956 27.735475 
L 11.603408 26.00732 
L 11.608679 26.85233 
L 11.628592 26.28323 
L 11.62215 27.909764 
L 11.718201 26.810368 
L 11.822452 28.07765 
L 11.815424 26.152631 
L 11.828894 27.000077 
L 11.89859 25.945603 
L 11.887462 27.619716 
L 11.939001 26.653151 
L 11.9636 27.725795 
L 11.987027 25.977064 
L 12.05028 27.168086 
L 12.112948 27.693434 
L 12.100063 26.313 
L 12.127589 27.043265 
L 12.159216 26.26077 
L 12.148674 27.629148 
L 12.237697 26.875559 
L 12.258781 27.831287 
L 12.330234 26.199446 
L 12.34839 26.495841 
L 12.440927 27.830331 
L 12.349561 26.198268 
L 12.459668 27.062173 
L 12.519408 26.099543 
L 12.512379 27.870582 
L 12.569776 26.963912 
L 12.603745 27.634916 
L 12.649428 26.041474 
L 12.680469 26.917658 
L 12.737865 26.272914 
L 12.708581 27.69503 
L 12.791747 26.787644 
L 12.821617 26.205483 
L 12.827474 27.767955 
L 12.901855 26.754316 
L 12.970379 27.848291 
L 12.911811 26.170197 
L 13.013133 27.030275 
L 13.030704 26.228975 
L 13.043003 27.723565 
L 13.105085 26.852712 
L 13.176537 27.90454 
L 13.195865 26.373131 
L 13.215778 27.141991 
L 13.272003 26.339557 
L 13.284888 27.651933 
L 13.326471 26.920761 
L 13.332913 27.812981 
L 13.410808 26.275139 
L 13.437164 27.135504 
L 13.446535 25.963191 
L 13.479918 27.746723 
L 13.548442 26.900031 
L 13.555471 27.835645 
L 13.57187 26.108887 
L 13.659135 26.780754 
L 13.724146 26.170298 
L 13.717118 28.199422 
L 13.768657 26.941874 
L 13.867051 27.853031 
L 13.827225 26.173206 
L 13.878764 26.937106 
L 13.951974 25.891513 
L 13.964859 28.051776 
L 13.988872 26.833216 
L 14.052125 27.963545 
L 14.070281 26.098605 
L 14.10015 27.354553 
L 14.143491 26.203729 
L 14.166332 27.687219 
L 14.211429 26.998813 
L 14.281125 27.754941 
L 14.253012 26.090487 
L 14.322122 27.614649 
L 14.364291 26.299219 
L 14.333836 27.720148 
L 14.433401 26.30006 
L 14.51481 27.71609 
L 14.498997 26.29155 
L 14.545265 26.949245 
L 14.62316 27.971534 
L 14.55815 26.25522 
L 14.655958 26.797076 
L 14.683485 26.053249 
L 14.729754 27.839265 
L 14.767237 26.686071 
L 14.828733 27.774697 
L 14.795349 26.337828 
L 14.878516 26.983546 
L 14.944111 26.187479 
L 14.931812 28.036144 
L 14.988623 26.814494 
L 15.023178 27.679837 
L 15.083503 26.231355 
L 15.099316 26.551606 
L 15.104001 27.764539 
L 15.181311 26.331918 
L 15.21118 27.629915 
L 15.244564 26.327186 
L 15.213523 27.872913 
L 15.321873 26.655447 
L 15.387469 27.708463 
L 15.369899 26.315352 
L 15.432566 26.950732 
L 15.460679 26.246869 
L 15.506362 27.70982 
L 15.543845 26.420779 
L 15.641067 27.754158 
L 15.549702 26.037791 
L 15.655124 26.800539 
L 15.665666 27.761334 
L 15.667423 25.900836 
L 15.764645 26.946044 
L 15.765231 26.320657 
L 15.836684 27.915268 
L 15.875338 26.859064 
L 15.914579 27.665559 
L 15.883538 26.019665 
L 15.983688 27.3249 
L 16.04987 25.954723 
L 16.005944 27.829016 
L 16.094967 26.961948 
L 16.182233 27.7328 
L 16.164077 26.346755 
L 16.206832 27.087736 
L 16.277698 26.162241 
L 16.240801 27.775745 
L 16.316939 26.267436 
L 16.391906 27.759107 
L 16.375507 26.182989 
L 16.427632 27.013876 
L 16.501427 26.055456 
L 16.510798 27.675038 
L 16.537739 27.569818 
L 16.637304 26.166736 
L 16.580494 27.73044 
L 16.651361 26.706724 
L 16.707 27.669979 
L 16.668931 26.095575 
L 16.762639 27.233501 
L 16.847562 26.277645 
L 16.76791 27.586261 
L 16.873918 27.027448 
L 16.941271 26.291743 
L 16.958841 27.924364 
L 16.984611 26.424985 
L 17.064263 26.018109 
L 17.096475 27.677023 
L 17.207168 26.299561 
L 17.207754 26.577015 
L 17.248751 27.785431 
L 17.298534 26.086893 
L 17.319033 27.313917 
L 17.354173 27.805058 
L 17.430897 26.218523 
L 17.477751 27.665669 
L 17.45081 25.985257 
L 17.542176 26.81642 
L 17.631784 28.009831 
L 17.56736 26.266271 
L 17.652869 27.062258 
L 17.653454 26.119983 
L 17.69328 27.760005 
L 17.763562 26.934024 
L 17.775861 27.789914 
L 17.808659 26.215218 
L 17.873083 26.752529 
L 17.962692 27.758609 
L 17.917595 26.229879 
L 17.976748 26.706262 
L 17.977334 26.089214 
L 17.984362 27.84346 
L 18.087441 26.884926 
L 18.100912 27.896203 
L 18.09974 26.16463 
L 18.197548 26.904605 
L 18.213362 26.315753 
L 18.305899 27.955712 
L 18.308827 26.527589 
L 18.361538 27.737117 
L 18.333426 26.084233 
L 18.420692 27.168237 
L 18.431234 26.211876 
L 18.439433 27.788674 
L 18.531385 26.722286 
L 18.545441 27.676587 
L 18.598152 26.372145 
L 18.642663 26.940166 
L 18.681318 27.672595 
L 18.665505 26.008 
L 18.753356 26.948548 
L 18.823052 27.577317 
L 18.76507 26.229875 
L 18.860535 27.319655 
L 18.956001 26.185069 
L 18.950144 27.896736 
L 18.971228 27.292521 
L 18.992898 27.519037 
L 18.984113 26.32728 
L 19.023353 26.935204 
L 19.090121 26.314341 
L 19.061422 27.914382 
L 19.134632 26.477214 
L 19.182658 27.792066 
L 19.177387 26.090029 
L 19.246496 27.592602 
L 19.322049 26.225882 
L 19.255282 27.763205 
L 19.358361 26.888029 
L 19.362461 26.267109 
L 19.397016 27.762585 
L 19.466125 27.074992 
L 19.527036 27.830409 
L 19.532893 26.109271 
L 19.576233 27.185789 
L 19.644171 26.406997 
L 19.583847 27.768124 
L 19.687511 26.806734 
L 19.699225 26.066855 
L 19.763649 27.803981 
L 19.798204 26.901365 
L 19.894841 26.211888 
L 19.890156 27.620469 
L 19.897184 27.332377 
L 19.969808 27.764587 
L 19.968051 26.267032 
L 20.007291 27.266732 
L 20.015491 26.109227 
L 20.034232 27.771327 
L 20.117984 27.114938 
L 20.149611 27.60879 
L 20.16601 26.302569 
L 20.227506 27.582966 
L 20.325314 26.232856 
L 20.299544 27.672703 
L 20.33937 26.77726 
L 20.422536 27.748423 
L 20.414923 26.189496 
L 20.450063 26.845694 
L 20.532644 26.292898 
L 20.458263 27.570487 
L 20.560171 26.675277 
L 20.631037 27.814738 
L 20.624009 26.064811 
L 20.671449 27.017213 
L 20.708933 27.843834 
L 20.674378 26.255231 
L 20.763986 27.671428 
L 20.868237 26.075366 
L 20.875265 27.017057 
L 20.944375 26.235834 
L 20.936175 27.797904 
L 20.986544 26.926312 
L 21.004114 27.970714 
L 21.025784 26.084594 
L 21.097237 26.73884 
L 21.185088 26.328801 
L 21.174546 27.67987 
L 21.206173 26.51727 
L 21.298124 27.749018 
L 21.220229 26.207656 
L 21.316866 26.696793 
L 21.373091 26.206236 
L 21.360791 27.690721 
L 21.426973 26.771174 
L 21.48964 27.950038 
L 21.529466 26.263626 
L 21.537666 26.627062 
L 21.600333 27.658409 
L 21.617904 25.749272 
L 21.651873 27.138979 
L 21.732111 25.897458 
L 21.689942 27.973662 
L 21.762566 27.120242 
L 21.766666 27.579497 
L 21.841047 26.30716 
L 21.872673 27.013896 
L 21.88263 26.322974 
L 21.923041 27.663557 
L 21.983366 27.201656 
L 22.023192 27.878379 
L 22.085274 26.298862 
L 22.093474 27.028276 
L 22.170197 27.615885 
L 22.127443 26.074354 
L 22.195967 26.844297 
L 22.206509 26.274635 
L 22.242236 27.755848 
L 22.30666 26.696995 
L 22.404468 27.938865 
L 22.319545 26.22282 
L 22.417939 27.351192 
L 22.514575 26.228652 
L 22.461279 27.722607 
L 22.529217 26.979873 
L 22.603013 26.2071 
L 22.563772 27.787576 
L 22.637568 26.869679 
L 22.663923 27.640172 
L 22.701407 26.144901 
L 22.748846 27.245932 
L 22.837284 27.654204 
L 22.816199 26.267633 
L 22.84724 27.1554 
L 22.868325 26.072445 
L 22.848412 27.609729 
L 22.958519 26.884431 
L 22.969061 25.986341 
L 22.96379 27.73578 
L 23.06804 27.080385 
L 23.172877 27.750243 
L 23.151207 26.336732 
L 23.178733 26.934276 
L 23.240815 26.194732 
L 23.193961 27.694732 
L 23.290012 26.605003 
L 23.395434 27.727479 
L 23.378449 26.16851 
L 23.401291 26.858953 
L 23.424132 26.014024 
L 23.432332 27.673029 
L 23.511398 26.708449 
L 23.533654 27.874959 
L 23.528968 26.264956 
L 23.622091 27.474635 
L 23.646104 26.106465 
L 23.654303 27.784477 
L 23.732784 27.022341 
L 23.775539 27.85557 
L 23.842891 26.299825 
L 23.843477 26.848624 
L 23.929572 26.437593 
L 23.910244 27.854066 
L 23.948313 26.849669 
L 24.054907 27.765988 
L 23.97174 26.186467 
L 24.059006 27.297045 
L 24.104689 26.30274 
L 24.142758 27.710075 
L 24.170285 27.07565 
L 24.239981 27.791022 
L 24.232367 26.188098 
L 24.280392 26.856305 
L 24.379958 28.067484 
L 24.360045 26.027322 
L 24.391085 26.975585 
L 24.404556 26.316357 
L 24.47308 27.954624 
L 24.501193 26.56983 
L 24.517592 27.707854 
L 24.55976 26.015315 
L 24.612471 26.749988 
L 24.657569 27.684438 
L 24.664597 26.025334 
L 24.717893 26.684394 
L 24.718479 26.054674 
L 24.728435 27.747833 
L 24.828586 26.880459 
L 24.919366 27.901095 
L 24.93518 25.898227 
L 24.938694 26.398053 
L 25.047044 27.673071 
L 24.972077 26.130076 
L 25.057 26.99264 
L 25.088627 26.23278 
L 25.144852 27.82322 
L 25.167108 26.691042 
L 25.231532 27.685601 
L 25.207519 26.190893 
L 25.278386 27.257585 
L 25.375609 26.30809 
L 25.375023 27.573325 
L 25.388494 27.318701 
L 25.440619 27.681916 
L 25.404307 26.21037 
L 25.496844 27.543621 
L 25.537841 26.215319 
L 25.547212 27.743773 
L 25.608123 27.153121 
L 25.710031 26.244377 
L 25.646777 27.632339 
L 25.721158 26.688979 
L 25.735215 27.847709 
L 25.821309 26.311674 
L 25.832437 26.944079 
L 25.859964 27.806166 
L 25.897447 26.125166 
L 25.942544 27.239168 
L 25.988227 26.177024 
L 25.991156 27.870003 
L 26.053823 26.986088 
L 26.074907 27.753287 
L 26.106534 26.181849 
L 26.165102 27.483194 
L 26.240654 26.259179 
L 26.252368 27.631851 
L 26.27638 26.865312 
L 26.365403 27.514508 
L 26.281066 25.8445 
L 26.385316 26.955878 
L 26.486639 26.335055 
L 26.387073 27.774906 
L 26.496009 27.234486 
L 26.533493 27.911471 
L 26.501281 26.315468 
L 26.562191 27.020838 
L 26.562777 26.354093 
L 26.659999 27.873079 
L 26.67347 26.646039 
L 26.755464 27.893358 
L 26.740237 26.171956 
L 26.78592 27.599164 
L 26.83336 26.208135 
L 26.823989 27.738135 
L 26.897784 26.45277 
L 26.898955 27.81394 
L 26.932339 26.28284 
L 27.009648 27.245867 
L 27.052988 26.21955 
L 27.100428 27.618518 
L 27.114485 27.303315 
L 27.157825 27.807222 
L 27.147283 26.036577 
L 27.222249 27.449767 
L 27.265004 26.189191 
L 27.306001 27.66434 
L 27.332942 26.837582 
L 27.397952 27.780426 
L 27.403809 26.288372 
L 27.444221 27.182117 
L 27.494589 27.860477 
L 27.464134 26.180508 
L 27.554914 27.072376 
L 27.567213 26.252636 
L 27.642765 27.781863 
L 27.665607 26.478478 
L 27.776886 27.771 
L 27.70309 26.374978 
L 27.777471 27.42694 
L 27.821983 26.185761 
L 27.819054 27.807841 
L 27.889336 27.008371 
L 27.953174 27.762971 
L 27.929747 26.222095 
L 27.991243 27.327503 
L 28.002957 26.106052 
L 28.077338 27.689606 
L 28.101936 27.465846 
L 28.189202 26.175251 
L 28.181003 27.812919 
L 28.212629 27.298409 
L 28.236057 27.727887 
L 28.258312 26.203062 
L 28.322151 26.777731 
L 28.400046 26.041262 
L 28.369005 27.678247 
L 28.43343 26.65749 
L 28.510153 27.635889 
L 28.475599 26.238059 
L 28.544123 26.606431 
L 28.554079 27.701511 
L 28.551151 26.095997 
L 28.654816 26.910805 
L 28.749695 26.121972 
L 28.747353 27.778791 
L 28.765509 26.70395 
L 28.795964 27.887133 
L 28.829933 26.189832 
L 28.876787 27.199075 
L 28.93067 26.245822 
L 28.949997 27.673018 
L 28.986895 27.08956 
L 29.007393 27.819851 
L 29.064204 26.225379 
L 29.098173 27.290449 
L 29.186025 25.978818 
L 29.199496 27.703389 
L 29.208866 27.053532 
L 29.278562 27.905208 
L 29.222337 26.224977 
L 29.297304 27.059897 
L 29.397455 26.227511 
L 29.309603 27.759404 
L 29.407997 27.178973 
L 29.476521 27.746437 
L 29.421467 26.26627 
L 29.51049 26.965996 
L 29.573743 26.299384 
L 29.576672 27.500528 
L 29.622355 26.505081 
L 29.694393 26.297518 
L 29.624112 27.626878 
L 29.728948 26.625737 
L 29.77873 27.703107 
L 29.752375 25.956649 
L 29.840227 27.101024 
L 29.89118 27.835935 
L 29.908165 26.219941 
L 29.935106 26.417286 
L 29.935692 26.248755 
L 29.962047 27.94461 
L 30.044628 26.84266 
L 30.120766 27.816629 
L 30.048142 26.185921 
L 30.155321 27.051559 
L 30.164106 26.208672 
L 30.215646 27.885359 
L 30.266014 26.77132 
L 30.282413 28.146594 
L 30.365579 26.075384 
L 30.376121 26.863039 
L 30.477443 25.979819 
L 30.407162 27.781438 
L 30.486814 27.152542 
L 30.4874 27.151181 
L 30.487986 27.232219 
L 30.493842 26.307985 
L 30.572909 27.788012 
L 30.598679 27.068677 
L 30.68243 27.659642 
L 30.619177 25.948014 
L 30.709372 27.046516 
L 30.746855 26.15565 
L 30.736898 27.675394 
L 30.804837 26.88547 
L 30.834706 27.660116 
L 30.883903 26.284974 
L 30.916116 27.232898 
L 31.020366 26.203207 
L 30.973512 27.635493 
L 31.027394 26.645726 
L 31.108803 26.22883 
L 31.100018 27.848268 
L 31.12286 26.803313 
L 31.123445 27.82032 
L 31.218911 26.235904 
L 31.233553 26.771948 
L 31.305591 27.991367 
L 31.301491 26.137528 
L 31.345417 27.202387 
L 31.409256 26.119826 
L 31.411013 28.043902 
L 31.456696 26.728459 
L 31.491836 27.805533 
L 31.563289 26.169149 
L 31.567974 27.171704 
L 31.640598 26.141752 
L 31.642355 27.792773 
L 31.678667 27.088953 
L 31.77999 27.614552 
L 31.685696 26.343647 
L 31.788775 26.967524 
L 31.866084 26.118895 
L 31.883069 27.665056 
L 31.894782 27.007829 
L 31.998447 27.787814 
L 31.999033 26.198282 
L 32.005475 27.001114 
L 32.006061 26.432612 
L 32.113826 27.745004 
L 32.116168 26.967173 
L 32.139595 26.123274 
L 32.180007 27.788958 
L 32.227447 26.923273 
L 32.237989 27.74608 
L 32.255559 26.188419 
L 32.338726 27.421267 
L 32.425406 26.197216 
L 32.372109 27.7142 
L 32.45059 26.689584 
L 32.522628 27.613996 
L 32.454104 26.268448 
L 32.561869 27.280597 
L 32.625122 26.190461 
L 32.631564 27.960924 
L 32.673147 26.692027 
L 32.745771 27.925893 
L 32.707117 25.840529 
L 32.779155 26.904875 
L 32.855879 26.200842 
L 32.850608 27.73497 
L 32.889262 27.280934 
L 32.891605 27.451499 
L 32.898633 26.774441 
L 32.922646 26.175326 
L 32.932017 27.693146 
L 33.009326 26.832471 
L 33.011083 26.781687 
L 33.015183 27.374473 
L 33.018697 26.93848 
L 33.040953 27.841063 
L 33.11182 26.066584 
L 33.12939 27.106727 
L 33.23364 26.019907 
L 33.137589 27.746152 
L 33.240083 27.055112 
L 33.282252 27.615968 
L 33.314464 26.101264 
L 33.35019 27.539866 
L 33.390602 26.203657 
L 33.461469 27.146855 
L 33.558106 27.983618 
L 33.555763 25.932914 
L 33.572162 27.636731 
L 33.624873 26.062949 
L 33.644786 27.794973 
L 33.683441 27.212789 
L 33.686955 26.229392 
L 33.722095 27.864378 
L 33.792962 27.343033 
L 33.816389 27.676939 
L 33.886671 26.10867 
L 33.903655 27.357553 
L 33.973937 26.256722 
L 33.918883 27.646203 
L 34.014348 26.616713 
L 34.019619 27.798851 
L 34.047732 26.168935 
L 34.125627 27.063361 
L 34.220507 27.730233 
L 34.212893 26.285887 
L 34.234563 27.236275 
L 34.270289 26.089986 
L 34.266775 27.646822 
L 34.345256 27.110764 
L 34.389767 27.663708 
L 34.368097 26.171242 
L 34.455363 27.39371 
L 34.5561 25.915642 
L 34.473519 27.826341 
L 34.566056 27.67354 
L 34.575427 26.160429 
L 34.682606 27.04826 
L 34.73766 27.771077 
L 34.720675 26.309147 
L 34.793885 27.396824 
L 34.896964 26.350098 
L 34.805598 27.76233 
L 34.905749 26.816845 
L 34.943232 27.910943 
L 34.953189 26.156733 
L 35.016442 27.404983 
L 35.113079 26.283296 
L 35.046897 27.723389 
L 35.127721 26.471249 
L 35.155248 27.858108 
L 35.169304 26.176697 
L 35.238999 27.17637 
L 35.323337 26.414077 
L 35.29991 27.616137 
L 35.348521 27.336879 
L 35.405332 27.857959 
L 35.369605 26.423004 
L 35.459214 27.270422 
L 35.479713 26.224809 
L 35.509582 27.749145 
L 35.570493 26.916749 
L 35.622618 27.607079 
L 35.586306 26.307955 
L 35.682357 27.479401 
L 35.758495 26.157001 
L 35.757324 27.746517 
L 35.793636 26.711516 
L 35.856889 27.991498 
L 35.880902 26.108978 
L 35.9055 27.39465 
L 35.976953 26.249332 
L 35.929513 27.585443 
L 36.016193 26.548483 
L 36.125715 27.594179 
L 36.019121 26.030042 
L 36.126886 27.024124 
L 36.127472 26.141441 
L 36.142699 27.690569 
L 36.237579 26.812866 
L 36.245193 27.660789 
L 36.275062 26.029427 
L 36.348858 27.01612 
L 36.407425 26.110326 
L 36.405668 27.798992 
L 36.459551 26.887048 
L 36.56263 27.845863 
L 36.566144 26.422438 
L 36.570244 27.371297 
L 36.576101 26.135718 
L 36.595428 27.793585 
L 36.680937 26.761592 
L 36.734233 27.800169 
L 36.738919 26.164023 
L 36.792215 27.209006 
L 36.881824 26.28206 
L 36.83087 27.960965 
L 36.903494 27.121214 
L 36.934535 26.242635 
L 36.946834 27.856585 
L 36.986075 27.358032 
L 37.074512 27.665577 
L 37.078026 26.070494 
L 37.095011 27.226608 
L 37.152407 26.057312 
L 37.184619 27.788721 
L 37.206289 26.775622 
L 37.289455 27.662796 
L 37.239673 26.347124 
L 37.317568 27.023098 
L 37.390192 25.856018 
L 37.360908 27.684898 
L 37.428847 26.796286 
L 37.511427 27.678531 
L 37.469844 26.147239 
L 37.538368 26.513713 
L 37.584637 26.268911 
L 37.594593 27.741102 
L 37.642033 27.215984 
L 37.735156 27.593246 
L 37.704115 26.224401 
L 37.751555 27.082504 
L 37.781424 26.261141 
L 37.788452 27.755218 
L 37.861662 27.011988 
L 37.902074 27.611161 
L 37.921401 26.195685 
L 37.972355 27.451552 
L 38.04615 26.188778 
L 38.040879 27.700181 
L 38.083634 27.13697 
L 38.134002 26.190053 
L 38.169143 27.709941 
L 38.190813 27.271608 
L 38.191398 27.879779 
L 38.286864 26.268499 
L 38.30092 26.711516 
L 38.331961 27.775588 
L 38.373544 26.19747 
L 38.392286 27.14496 
L 38.494779 26.138139 
L 38.501807 27.773463 
L 38.503564 26.639356 
L 38.536362 27.68928 
L 38.523477 26.293798 
L 38.615429 27.3266 
L 38.673411 26.102366 
L 38.653498 27.525541 
L 38.726707 26.699633 
L 38.791132 27.946683 
L 38.797574 26.404488 
L 38.837986 27.17229 
L 38.874884 26.205302 
L 38.905925 27.770244 
L 38.94985 26.714487 
L 38.965078 27.681768 
L 38.984405 26.259851 
L 39.061129 27.064208 
L 39.129653 26.043756 
L 39.093341 27.832623 
L 39.172408 26.908895 
L 39.235661 26.258761 
L 39.271973 27.805734 
L 39.282515 26.73734 
L 39.33874 27.744335 
L 39.372709 26.231543 
L 39.393208 26.759408 
L 39.469932 28.080368 
L 39.445919 26.042775 
L 39.486331 26.735883 
L 39.486916 26.087362 
L 39.542556 27.715247 
L 39.597024 27.142525 
L 39.608737 27.764184 
L 39.643878 26.180821 
L 39.647978 26.810156 
L 39.648563 26.19918 
L 39.706545 27.667507 
L 39.758085 27.236124 
L 39.778584 27.783432 
L 39.854722 26.040199 
L 39.864678 27.59815 
L 39.871121 26.248338 
L 39.878735 27.695418 
L 39.975957 27.032305 
L 40.053266 26.133373 
L 40.037453 27.916922 
L 40.088407 26.485896 
L 40.102463 27.554026 
L 40.101292 25.779194 
L 40.199686 27.074267 
L 40.210814 26.16574 
L 40.252982 28.346457 
L 40.310379 26.705041 
L 40.359576 27.658523 
L 40.408187 25.925743 
L 40.421072 26.659066 
L 40.443913 27.804456 
L 40.448013 26.376355 
L 40.53235 26.862187 
L 40.626059 25.898657 
L 40.60966 27.955426 
L 40.642458 26.914529 
L 40.708639 27.771219 
L 40.677013 26.229458 
L 40.753736 27.14706 
L 40.76545 26.255032 
L 40.844516 27.608743 
L 40.865015 26.936789 
L 40.927097 27.595207 
L 40.957552 26.169239 
L 40.976879 27.318043 
L 41.008506 26.239368 
L 41.082301 27.956884 
L 41.089329 26.79763 
L 41.140869 27.76435 
L 41.172496 26.024075 
L 41.200608 27.135715 
L 41.246291 26.322656 
L 41.218178 27.689466 
L 41.311301 27.19718 
L 41.333557 26.220995 
L 41.317158 27.750226 
L 41.421408 26.228586 
L 41.431365 27.655278 
L 41.495204 26.219241 
L 41.532687 27.569561 
L 41.564899 26.368513 
L 41.63928 27.664045 
L 41.644551 26.830795 
L 41.682035 26.280952 
L 41.69082 27.708395 
L 41.753487 26.98688 
L 41.772815 27.910514 
L 41.821426 26.326394 
L 41.863595 27.605682 
L 41.894636 26.331228 
L 41.92392 27.979451 
L 41.974873 27.134719 
L 41.990687 26.068041 
L 42.039884 27.820588 
L 42.086152 26.823741 
L 42.157605 27.619332 
L 42.128907 26.127617 
L 42.191574 26.896567 
L 42.216172 26.248503 
L 42.27064 27.904338 
L 42.301681 27.471364 
L 42.405932 26.253717 
L 42.324523 27.82233 
L 42.41296 27.137938 
L 42.445758 27.696581 
L 42.462157 26.155898 
L 42.523067 27.080505 
L 42.574607 26.219927 
L 42.56465 27.786614 
L 42.63376 26.93729 
L 42.694671 27.908375 
L 42.698185 26.144311 
L 42.744453 26.826816 
L 42.78018 26.341261 
L 42.848118 27.678477 
L 42.853975 26.405015 
L 42.912543 27.826656 
L 42.964668 26.208699 
L 43.045491 27.795906 
L 43.037878 26.132333 
L 43.075947 26.867685 
L 43.091174 26.329561 
L 43.082389 27.851816 
L 43.186054 27.043494 
L 43.207724 26.404594 
L 43.24755 27.51175 
L 43.311975 26.294982 
L 43.281519 27.694729 
L 43.358829 26.77566 
L 43.426182 26.133468 
L 43.36 27.819358 
L 43.460151 26.704868 
L 43.49822 27.780376 
L 43.518133 26.253391 
L 43.570844 26.976589 
L 43.67158 25.929507 
L 43.573187 27.642952 
L 43.67978 26.863631 
L 43.731319 27.739166 
L 43.786959 26.266066 
L 43.790473 27.00157 
L 43.888281 26.228089 
L 43.858411 27.803346 
L 43.901166 26.985827 
L 43.932207 26.280223 
L 43.976718 27.89003 
L 44.001902 26.702242 
L 44.080969 27.847975 
L 44.0429 26.165086 
L 44.113181 27.576873 
L 44.148322 25.910404 
L 44.162964 27.786953 
L 44.225045 26.907206 
L 44.241444 26.077505 
L 44.284784 27.728118 
L 44.335738 26.597426 
L 44.388449 27.763938 
L 44.39782 26.206596 
L 44.447017 26.773583 
L 44.530183 27.916426 
L 44.514956 26.172886 
L 44.558296 27.171889 
L 44.594608 26.329914 
L 44.642048 27.832563 
L 44.665475 27.501058 
L 44.66606 27.936055 
L 44.742198 26.135941 
L 44.775582 26.992402 
L 44.780853 26.329256 
L 44.84762 27.688208 
L 44.886275 26.634467 
L 44.997554 27.745465 
L 44.9466 26.112357 
L 44.998139 27.55519 
L 45.000482 26.217313 
L 45.068421 27.593645 
L 45.111175 27.011294 
L 45.112346 26.953043 
L 45.19317 26.244284 
L 45.193756 28.028479 
L 45.223039 26.785513 
L 45.232996 27.88203 
L 45.256423 26.372948 
L 45.334318 27.047122 
L 45.417484 26.293439 
L 45.347789 27.996009 
L 45.445597 26.625917 
L 45.48308 27.530578 
L 45.500065 26.245107 
L 45.556875 26.801365 
L 45.580888 26.127523 
L 45.565661 27.719942 
L 45.666983 27.043829 
L 45.739607 26.238359 
L 45.727893 27.661292 
L 45.770062 27.175527 
L 45.829215 28.022381 
L 45.771233 26.17526 
L 45.881341 27.401098 
L 45.951036 26.15915 
L 45.949279 27.824945 
L 45.992619 26.905111 
L 46.062901 27.644316 
L 46.038302 26.227466 
L 46.104484 27.312966 
L 46.188821 26.118654 
L 46.146652 27.675814 
L 46.215762 26.949547 
L 46.32587 27.760181 
L 46.308299 26.168859 
L 46.327041 27.421829 
L 46.411964 26.054419 
L 46.374481 27.896173 
L 46.438905 26.543538 
L 46.525586 27.733921 
L 46.461161 26.305168 
L 46.550184 26.777542 
L 46.625151 27.695552 
L 46.553698 26.206529 
L 46.65912 27.317799 
L 46.659706 26.074474 
L 46.761614 27.726947 
L 46.770399 26.544101 
L 46.832481 27.829224 
L 46.853565 26.294519 
L 46.881677 26.770919 
L 46.904519 27.898419 
L 46.941416 26.375767 
L 46.992956 27.110336 
L 47.002913 26.192961 
L 47.064994 27.841655 
L 47.103649 26.490734 
L 47.157531 27.650241 
L 47.113606 26.331793 
L 47.214928 26.761517 
L 47.309807 27.837107 
L 47.259439 26.164934 
L 47.327378 27.227872 
L 47.362518 26.243769 
L 47.422258 27.908031 
L 47.439828 26.722507 
L 47.486096 27.882871 
L 47.474968 26.121884 
L 47.551107 27.26521 
L 47.629002 26.118202 
L 47.652429 27.961468 
L 47.662385 26.814147 
L 47.747894 27.84935 
L 47.688155 26.237134 
L 47.773664 27.064074 
L 47.836917 26.318735 
L 47.79592 27.874048 
L 47.866201 26.64473 
L 47.909541 27.639808 
L 47.897242 26.229763 
L 47.976894 26.954346 
L 48.010277 26.153452 
L 48.013206 27.743058 
L 48.087001 27.386906 
L 48.088173 26.308947 
L 48.140298 27.597593 
L 48.200037 26.368573 
L 48.273247 27.620477 
L 48.240449 26.012105 
L 48.311316 27.013697 
L 48.318929 26.244549 
L 48.37984 27.885646 
L 48.422594 26.576326 
L 48.437236 27.88958 
L 48.524502 25.868056 
L 48.533873 27.109515 
L 48.577799 27.877533 
L 48.578384 26.151892 
L 48.64398 27.003043 
L 48.724804 26.121539 
L 48.727732 27.730232 
L 48.755259 26.455364 
L 48.863609 27.683746 
L 48.79977 26.197657 
L 48.866538 26.755696 
L 48.973717 27.653746 
L 48.954975 26.167977 
L 48.977816 27.243123 
L 49.02877 26.088919 
L 49.068011 27.756275 
L 49.089681 26.593578 
L 49.158791 27.566068 
L 49.188074 26.247317 
L 49.200959 27.143191 
L 49.306381 26.016179 
L 49.234343 27.767291 
L 49.311652 27.193682 
L 49.319852 27.607202 
L 49.386033 26.107579 
L 49.42176 26.889926 
L 49.485598 26.228767 
L 49.50434 27.90908 
L 49.531867 26.845136 
L 49.558222 27.727263 
L 49.571693 26.028023 
L 49.641974 26.643147 
L 49.706399 26.118451 
L 49.668915 27.646048 
L 49.750325 27.03687 
L 49.79835 27.935055 
L 49.794836 26.096819 
L 49.860432 27.404507 
L 49.862775 26.147157 
L 49.950041 27.937343 
L 49.971711 27.176459 
L 50.068933 26.289813 
L 50.020322 27.989297 
L 50.083575 26.455357 
L 50.092946 27.665605 
L 50.10056 26.189744 
L 50.194854 27.511085 
L 50.276848 26.280722 
L 50.266892 27.84213 
L 50.305547 26.797822 
L 50.415654 27.805518 
L 50.336002 26.337964 
L 50.41624 26.872705 
L 50.428539 26.246438 
L 50.512876 27.659681 
L 50.521662 26.567976 
L 50.586672 27.608446 
L 50.548017 26.054584 
L 50.632355 26.842241 
L 50.690922 26.192913 
L 50.713764 27.923579 
L 50.742462 26.912426 
L 50.794001 27.778347 
L 50.83617 26.222315 
L 50.853741 27.135017 
L 50.90118 26.232698 
L 50.881267 27.744175 
L 50.964434 26.624637 
L 51.031786 27.690035 
L 50.998403 26.387064 
L 51.075712 26.843705 
L 51.177034 27.871866 
L 51.143065 26.21645 
L 51.186405 27.08289 
L 51.202218 26.264482 
L 51.286556 27.675295 
L 51.29827 26.646419 
L 51.394321 27.68358 
L 51.330482 26.10235 
L 51.408377 26.773861 
L 51.414234 26.296474 
L 51.421262 27.819538 
L 51.517899 26.902863 
L 51.548939 27.894417 
L 51.596379 26.19336 
L 51.628592 27.506182 
L 51.637962 26.182452 
L 51.731671 27.808624 
L 51.73987 26.592494 
L 51.809566 27.724379 
L 51.811908 26.254527 
L 51.851149 27.06455 
L 51.895075 26.142628 
L 51.877504 27.716624 
L 51.962428 26.484516 
L 51.970627 27.667025 
L 52.068435 26.25177 
L 52.073706 26.968765 
L 52.118218 26.221921 
L 52.125246 27.823906 
L 52.180885 27.160881 
L 52.211926 27.76867 
L 52.278693 26.240147 
L 52.289821 26.998887 
L 52.373573 25.842228 
L 52.344875 27.709667 
L 52.400514 26.819975 
L 52.406371 27.796918 
L 52.419256 26.360196 
L 52.511793 27.230742 
L 52.517064 26.046985 
L 52.522335 27.76746 
L 52.622486 26.351299 
L 52.700967 27.900555 
L 52.66524 26.132036 
L 52.733764 27.339759 
L 52.756606 26.061663 
L 52.808145 27.617431 
L 52.844457 26.913409 
L 52.846215 27.756201 
L 52.922353 26.359975 
L 52.955736 27.625407 
L 53.040659 26.370184 
L 53.049445 28.017584 
L 53.067015 27.067273 
L 53.154281 26.027699 
L 53.108012 27.670715 
L 53.178294 26.892791 
L 53.247989 26.287521 
L 53.185907 27.747859 
L 53.288987 26.493179 
L 53.299529 27.666678 
L 53.34814 26.269097 
L 53.400265 26.97032 
L 53.435406 26.038575 
L 53.407879 27.678764 
L 53.510958 26.581513 
L 53.542585 27.842732 
L 53.552541 26.235564 
L 53.622237 27.082638 
L 53.703646 26.412809 
L 53.652106 27.658007 
L 53.725316 27.212908 
L 53.752257 27.778001 
L 53.790912 26.12672 
L 53.833666 27.282062 
L 53.872907 26.240906 
L 53.843623 27.742896 
L 53.944945 26.596943 
L 54.049781 27.636446 
L 54.03104 26.185909 
L 54.056809 27.330698 
L 54.061495 26.194022 
L 54.111863 27.529031 
L 54.115963 27.032565 
" clip-path="url(#p680499fb13)" style="fill: none; stroke: #e377c2; stroke-width: 0.05; stroke-linecap: square"/>
   </g>
  </g>
 </g>
 <defs>
  <clipPath id="p680499fb13">
   <rect x="0" y="0" width="56.692913" height="28.346457"/>
  </clipPath>
 </defs>
</svg>
