<?xml version="1.0" encoding="utf-8" standalone="no"?>
<!DOCTYPE svg PUBLIC "-//W3C//DTD SVG 1.1//EN"
  "http://www.w3.org/Graphics/SVG/1.1/DTD/svg11.dtd">
<svg xmlns:xlink="http://www.w3.org/1999/xlink" width="56.692913pt" height="28.346457pt" viewBox="0 0 56.692913 28.346457" xmlns="http://www.w3.org/2000/svg" version="1.1">
 <metadata>
  <rdf:RDF xmlns:dc="http://purl.org/dc/elements/1.1/" xmlns:cc="http://creativecommons.org/ns#" xmlns:rdf="http://www.w3.org/1999/02/22-rdf-syntax-ns#">
   <cc:Work>
    <dc:type rdf:resource="http://purl.org/dc/dcmitype/StillImage"/>
    <dc:date>2024-11-01T11:33:20.945132</dc:date>
    <dc:format>image/svg+xml</dc:format>
    <dc:creator>
     <cc:Agent>
      <dc:title>Matplotlib v3.8.4, https://matplotlib.org/</dc:title>
     </cc:Agent>
    </dc:creator>
   </cc:Work>
  </rdf:RDF>
 </metadata>
 <defs>
  <style type="text/css">*{stroke-linejoin: round; stroke-linecap: butt}</style>
 </defs>
 <g id="figure_1">
  <g id="patch_1">
   <path d="M 0 28.346457 
L 56.692913 28.346457 
L 56.692913 0 
L 0 0 
L 0 28.346457 
z
" style="fill: none"/>
  </g>
  <g id="axes_1">
   <g id="patch_2">
    <path d="M 0 28.346457 
L 56.692913 28.346457 
L 56.692913 0 
L 0 0 
L 0 28.346457 
z
" style="fill: none"/>
   </g>
   <g id="matplotlib.axis_1">
    <g id="xtick_1"/>
    <g id="xtick_2"/>
   </g>
   <g id="matplotlib.axis_2">
    <g id="ytick_1"/>
    <g id="ytick_2"/>
   </g>
   <g id="line2d_1">
    <path d="M 2.576951 27.179555 
L 2.679444 27.970499 
L 2.60272 25.871415 
L 2.687644 27.182064 
L 2.786037 26.335085 
L 2.790137 27.810508 
L 2.797165 26.785991 
L 2.82762 27.848666 
L 2.808879 26.326227 
L 2.908444 27.359411 
L 2.931285 26.170642 
L 3.011523 27.860719 
L 3.019723 26.885008 
L 3.037293 28.02417 
L 3.049592 26.291402 
L 3.131001 26.953635 
L 3.232323 26.199334 
L 3.225295 27.880992 
L 3.241109 27.314584 
L 3.289134 26.16307 
L 3.331303 27.740694 
L 3.351802 26.633309 
L 3.352387 27.851324 
L 3.451367 26.382405 
L 3.462495 27.177548 
L 3.515791 26.034642 
L 3.567331 27.896785 
L 3.573188 26.84048 
L 3.615356 27.985617 
L 3.672167 26.418439 
L 3.683881 27.338659 
L 3.738934 26.3586 
L 3.729563 27.767143 
L 3.794574 26.834648 
L 3.887696 27.742654 
L 3.883597 26.218359 
L 3.905852 27.522298 
L 3.963249 26.374669 
L 3.939822 27.728113 
L 4.017131 27.146544 
L 4.092098 27.882977 
L 4.024159 26.234265 
L 4.127824 27.210412 
L 4.239103 26.298999 
L 4.191077 27.994643 
L 4.239688 26.716402 
L 4.311727 27.924595 
L 4.346282 26.416843 
L 4.351553 27.457758 
L 4.393136 26.297073 
L 4.427691 27.78928 
L 4.462831 27.20598 
L 4.5091 26.275229 
L 4.467517 28.346457 
L 4.572939 27.144005 
L 4.627407 27.916472 
L 4.61745 26.353485 
L 4.684217 27.312679 
L 4.68656 27.898174 
L 4.690074 26.608052 
L 4.717601 26.779179 
L 4.770312 26.225567 
L 4.793153 27.832755 
L 4.827708 26.625676 
L 4.869291 27.765518 
L 4.82888 26.509454 
L 4.938987 27.566271 
L 4.982327 26.142803 
L 4.952458 27.871171 
L 5.04968 27.227523 
L 5.139289 27.906802 
L 5.152759 26.290041 
L 5.159787 27.353437 
L 5.227726 26.009106 
L 5.197271 27.89884 
L 5.27048 26.989362 
L 5.357746 27.786504 
L 5.292736 26.348215 
L 5.380588 27.577874 
L 5.446183 26.348663 
L 5.43447 27.730844 
L 5.491866 27.087863 
L 5.497137 27.927145 
L 5.524079 26.350317 
L 5.599045 27.104844 
L 5.623644 26.511101 
L 5.66347 27.996853 
L 5.710324 26.800665 
L 5.789976 26.394734 
L 5.751907 27.988248 
L 5.821017 26.818456 
L 5.871971 27.745147 
L 5.897741 26.168267 
L 5.93171 26.836254 
L 5.997306 25.937728 
L 6.032446 27.785319 
L 6.039475 27.030694 
L 6.076958 27.79736 
L 6.089843 26.442303 
L 6.150168 27.321837 
L 6.16071 26.333028 
L 6.222206 27.910316 
L 6.26086 26.936006 
L 6.364525 27.853449 
L 6.29073 26.389203 
L 6.372139 27.327232 
L 6.416065 26.343207 
L 6.397909 27.948999 
L 6.482246 26.756763 
L 6.507431 27.863837 
L 6.590597 26.166185 
L 6.593525 27.428311 
L 6.683134 26.328323 
L 6.629837 27.795992 
L 6.704804 27.29134 
L 6.768057 26.322182 
L 6.725303 27.70847 
L 6.816083 27.129 
L 6.914476 27.855184 
L 6.855909 26.316003 
L 6.927361 27.405191 
L 6.958402 26.313704 
L 7.010527 28.002165 
L 7.036883 26.966421 
L 7.078466 27.922205 
L 7.104236 26.018629 
L 7.147576 26.805661 
L 7.237184 27.898159 
L 7.232499 26.384765 
L 7.25944 27.418568 
L 7.276425 26.39005 
L 7.271739 27.757762 
L 7.370719 26.954615 
L 7.424016 28.115978 
L 7.428701 26.39726 
L 7.481412 27.031 
L 7.573949 26.401661 
L 7.490783 27.658202 
L 7.592105 27.150379 
L 7.650673 26.209936 
L 7.674685 27.838571 
L 7.699869 27.227429 
L 7.70924 27.952637 
L 7.733253 26.518728 
L 7.811148 27.628259 
L 7.873816 26.376442 
L 7.901342 28.017185 
L 7.921841 27.867715 
L 8.019064 26.346561 
L 8.033706 27.108486 
L 8.101644 26.356934 
L 8.069432 28.040155 
L 8.140299 26.794526 
L 8.241035 27.862798 
L 8.152598 26.357666 
L 8.250992 26.456462 
L 8.347629 27.823505 
L 8.270905 26.172066 
L 8.36227 27.36911 
L 8.390383 26.090074 
L 8.463593 27.826296 
L 8.473549 27.012454 
L 8.498148 26.307651 
L 8.514547 27.792303 
L 8.584242 26.730368 
L 8.626411 27.815722 
L 8.682636 26.310449 
L 8.695521 27.014721 
L 8.757603 27.857869 
L 8.742961 26.363345 
L 8.806214 27.051256 
L 8.844869 26.3355 
L 8.869467 28.041225 
L 8.915735 27.262317 
L 9.022329 26.298832 
L 8.924521 27.810795 
L 9.026428 27.021037 
L 9.112523 27.786936 
L 9.106666 26.302046 
L 9.136536 26.864213 
L 9.16172 26.364595 
L 9.168748 27.728402 
L 9.246057 27.118261 
L 9.315167 27.974689 
L 9.329224 26.11402 
L 9.355579 26.881043 
L 9.459244 26.326266 
L 9.431131 28.143389 
L 9.466272 26.576343 
L 9.57228 27.937571 
L 9.482085 26.208846 
L 9.577551 27.34623 
L 9.660131 26.205486 
L 9.633776 28.077725 
L 9.688829 27.132482 
L 9.692929 28.236314 
L 9.769067 26.36488 
L 9.799522 27.244819 
L 9.819435 26.34262 
L 9.804208 27.892063 
L 9.910215 26.870567 
L 9.911387 28.244026 
L 9.972297 26.435596 
L 10.020908 26.848541 
L 10.080062 26.25892 
L 10.12633 28.263692 
L 10.13043 26.557301 
L 10.184898 27.988815 
L 10.239366 25.995191 
L 10.241709 26.959455 
L 10.259279 26.405078 
L 10.306133 28.056497 
L 10.341274 27.121641 
L 10.423854 27.798003 
L 10.439668 26.188078 
L 10.451381 27.062029 
L 10.49355 26.286498 
L 10.543918 28.058935 
L 10.562074 27.006788 
L 10.637627 27.771463 
L 10.598386 26.122321 
L 10.671596 26.976297 
L 10.686823 26.380071 
L 10.71435 27.869549 
L 10.782289 26.893031 
L 10.86077 27.74624 
L 10.816258 26.406975 
L 10.893568 27.278537 
L 10.967949 26.337563 
L 11.000161 27.842972 
L 11.004261 27.103559 
L 11.083327 27.812837 
L 11.058143 26.102851 
L 11.114954 27.571009 
L 11.200462 26.409611 
L 11.167664 28.064728 
L 11.226232 27.19185 
L 11.285386 26.154043 
L 11.274843 27.869106 
L 11.335754 27.195816 
L 11.338682 27.822489 
L 11.425948 26.260226 
L 11.445276 27.363783 
L 11.542498 26.065224 
L 11.506772 27.787062 
L 11.556554 27.115589 
L 11.625078 26.164604 
L 11.605165 27.993307 
L 11.666076 27.350731 
L 11.684232 27.828861 
L 11.672518 26.5114 
L 11.698288 27.452595 
L 11.765055 26.28214 
L 11.71703 27.80644 
L 11.808981 26.792769 
L 11.867549 27.843322 
L 11.862278 26.370485 
L 11.919674 26.474583 
L 12.026267 27.860898 
L 11.974142 26.305605 
L 12.031538 27.122886 
L 12.093035 28.023236 
L 12.066093 26.212965 
L 12.127004 27.48956 
L 12.180886 26.252159 
L 12.197285 27.945651 
L 12.238282 27.201911 
L 12.285722 27.782337 
L 12.268738 26.470585 
L 12.347218 27.443143 
L 12.347804 26.483944 
L 12.408129 27.879755 
L 12.458497 26.814033 
L 12.512379 26.342683 
L 12.533464 27.772253 
L 12.568604 27.194512 
L 12.647085 26.391552 
L 12.6383 27.898776 
L 12.676955 27.324898 
L 12.732594 28.114824 
L 12.761878 26.16642 
L 12.781205 26.81089 
L 12.781791 26.376576 
L 12.821031 28.00033 
L 12.891313 27.102989 
L 12.901269 28.082197 
L 12.982093 26.193408 
L 12.999077 27.075904 
L 13.01899 26.323971 
L 13.021333 28.08916 
L 13.10977 26.907333 
L 13.191179 27.780012 
L 13.195865 26.340098 
L 13.221635 27.324722 
L 13.248576 26.392963 
L 13.319443 28.035955 
L 13.332328 27.119811 
L 13.332913 27.119386 
L 13.416079 27.950877 
L 13.344627 26.251623 
L 13.443606 27.140453 
L 13.479918 26.296445 
L 13.534386 27.786773 
L 13.553128 27.412499 
L 13.646251 27.872693 
L 13.659135 26.532954 
L 13.663235 27.337014 
L 13.755772 26.426788 
L 13.744059 27.849087 
L 13.774514 27.203664 
L 13.803212 26.356315 
L 13.844795 27.879589 
L 13.885793 27.015121 
L 13.956074 27.862716 
L 13.97833 26.223508 
L 13.991214 27.630665 
L 14.022841 26.153671 
L 14.030455 27.88574 
L 14.102493 27.260633 
L 14.188002 26.103173 
L 14.149347 27.896454 
L 14.213186 27.134337 
L 14.244227 27.880562 
L 14.285224 26.398399 
L 14.316851 27.001 
L 14.317437 26.275412 
L 14.324465 27.688492 
L 14.427544 27.224252 
L 14.462685 26.306103 
L 14.517153 27.784985 
L 14.539408 26.94221 
L 14.554636 27.939389 
L 14.559321 26.298814 
L 14.650687 27.200733 
L 14.695199 27.678663 
L 14.668843 26.414254 
L 14.749081 27.321919 
L 14.757866 26.370663 
L 14.832247 27.887299 
L 14.859774 27.059534 
L 14.886715 27.86175 
L 14.923027 26.37664 
L 14.968124 27.25198 
L 15.05539 26.339449 
L 15.066518 27.892179 
L 15.078817 27.656301 
L 15.143242 26.150325 
L 15.181311 27.821292 
L 15.190682 26.573005 
L 15.269162 27.960852 
L 15.205323 26.156979 
L 15.301375 26.406717 
L 15.377513 27.668246 
L 15.348814 26.388193 
L 15.413825 27.164433 
L 15.447208 26.341867 
L 15.450722 27.892423 
L 15.524518 27.058338 
L 15.535645 27.839848 
L 15.546773 26.330876 
L 15.631696 27.359495 
L 15.632282 26.29405 
L 15.667423 27.858815 
L 15.742975 27.049382 
L 15.810914 26.290768 
L 15.84664 27.81461 
L 15.853668 26.888127 
L 15.865382 27.78917 
L 15.908136 26.094834 
L 15.964947 27.058617 
L 15.972561 26.124562 
L 16.066855 27.848841 
L 16.076226 26.919311 
L 16.16232 27.863923 
L 16.11078 26.291232 
L 16.184576 27.096124 
L 16.289998 26.382648 
L 16.217374 28.094038 
L 16.295854 26.69219 
L 16.407719 27.866828 
L 16.390149 26.205512 
L 16.40889 27.658916 
L 16.516655 26.256059 
L 16.496156 27.797911 
L 16.519583 27.291323 
L 16.619148 27.78138 
L 16.583422 26.074159 
L 16.630276 27.053572 
L 16.648432 27.992454 
L 16.677716 26.268694 
L 16.740969 27.258964 
L 16.780795 26.297202 
L 16.763811 28.027089 
L 16.852248 26.520484 
L 16.892074 27.653638 
L 16.948299 26.449808 
L 16.963527 26.951334 
L 17.037908 28.108964 
L 17.036151 26.344044 
L 17.075391 27.457297 
L 17.11756 26.355037 
L 17.084176 27.902035 
L 17.186084 26.553273 
L 17.207168 27.90902 
L 17.266322 26.170878 
L 17.297363 26.991436 
L 17.333675 27.762252 
L 17.372329 26.422399 
L 17.40337 27.288454 
L 17.467795 26.464203 
L 17.415669 27.645786 
L 17.514063 26.854288 
L 17.597229 28.00567 
L 17.577902 26.146106 
L 17.624756 27.353251 
L 17.685081 26.345926 
L 17.706165 28.050422 
L 17.735449 27.565842 
L 17.76239 26.30475 
L 17.79226 27.797866 
L 17.847899 27.040418 
L 17.935751 27.877969 
L 17.869569 26.196763 
L 17.958592 27.262184 
L 18.040587 26.332436 
L 18.010717 27.85573 
L 18.069871 26.735247 
L 18.116725 28.093355 
L 18.096226 26.385114 
L 18.18115 27.343236 
L 18.200477 26.303835 
L 18.243817 28.035618 
L 18.292428 26.85378 
L 18.323469 27.838849 
L 18.394922 26.370641 
L 18.401364 26.812932 
L 18.485116 26.116595 
L 18.420106 27.863432 
L 18.512057 26.847168 
L 18.582338 27.903098 
L 18.570625 26.324824 
L 18.621579 27.695372 
L 18.688346 26.268256 
L 18.686003 27.845567 
L 18.732858 26.88823 
L 18.808996 28.002947 
L 18.736372 26.415624 
L 18.844136 27.097958 
L 18.920274 26.419865 
L 18.919103 27.901717 
L 18.951901 27.370084 
L 19.00754 28.02043 
L 18.983527 26.337892 
L 19.062594 27.034469 
L 19.135218 26.419088 
L 19.095392 27.862473 
L 19.173872 26.528801 
L 19.255282 28.061972 
L 19.235369 26.331182 
L 19.285151 27.017733 
L 19.383545 28.048036 
L 19.393501 26.356156 
L 19.39643 27.300276 
L 19.484867 27.886703 
L 19.508294 26.337864 
L 19.555148 27.717067 
L 19.55632 26.045632 
L 19.619573 27.192993 
L 19.719724 26.33743 
L 19.662327 28.094253 
L 19.726166 27.485559 
L 19.760721 27.975868 
L 19.743151 26.228461 
L 19.835102 27.308636 
L 19.918268 26.401291 
L 19.891327 27.83381 
L 19.945795 26.679717 
L 20.04536 28.000714 
L 19.952823 26.344358 
L 20.057074 27.24671 
L 20.072301 27.989713 
L 20.11447 26.153514 
L 20.167181 27.460563 
L 20.210521 26.234715 
L 20.173038 27.709145 
L 20.277874 27.101761 
L 20.349912 28.08457 
L 20.333513 26.059271 
L 20.388567 27.438288 
L 20.415508 26.299925 
L 20.406137 27.808556 
L 20.499846 27.011329 
L 20.577155 28.012661 
L 20.601168 26.145214 
L 20.610539 26.903425 
L 20.708933 27.958435 
L 20.667935 26.365841 
L 20.72006 27.432299 
L 20.779214 26.321714 
L 20.74583 27.762631 
L 20.831339 27.026172 
L 20.883464 27.845415 
L 20.929147 26.03781 
L 20.940861 26.994621 
L 20.941446 26.384806 
L 20.97893 27.926237 
L 21.052139 26.62559 
L 21.106607 28.1415 
L 21.140577 26.355466 
L 21.165175 27.349959 
L 21.201487 26.300614 
L 21.2173 27.796075 
L 21.276454 27.070306 
L 21.322137 27.779041 
L 21.388318 26.064607 
L 21.457428 27.759537 
L 21.499597 27.464764 
L 21.595648 26.42913 
L 21.609704 27.913042 
L 21.610875 27.112299 
L 21.673543 26.233272 
L 21.677643 28.019203 
L 21.720983 26.91028 
L 21.740896 27.754974 
L 21.735625 26.186382 
L 21.831676 27.030841 
L 21.846903 26.411446 
L 21.898443 27.958245 
L 21.941783 27.1349 
L 21.971067 27.738466 
L 21.958768 26.232126 
L 22.051305 27.061184 
L 22.149699 26.349926 
L 22.112215 27.661878 
L 22.160241 27.091184 
L 22.19421 27.883805 
L 22.269177 25.841825 
L 22.270934 27.291071 
L 22.310174 26.229469 
L 22.277962 27.760868 
L 22.381627 27.475671 
L 22.481778 26.288212 
L 22.464207 27.856489 
L 22.492905 27.220971 
L 22.523361 27.896679 
L 22.523946 26.226171 
L 22.603598 27.336888 
L 22.711949 26.203556 
L 22.62234 27.997014 
L 22.714877 26.282542 
L 22.788672 28.058653 
L 22.826156 27.573168 
L 22.896437 26.210711 
L 22.84724 27.978799 
L 22.937434 27.451593 
L 23.033486 26.239898 
L 22.999516 27.80548 
L 23.049299 26.99385 
L 23.158235 27.855677 
L 23.070969 26.024794 
L 23.160577 27.26457 
L 23.205675 26.347463 
L 23.219145 27.899542 
L 23.27127 27.092657 
L 23.339795 27.839312 
L 23.343309 26.378707 
L 23.381963 27.026803 
L 23.474501 26.225154 
L 23.449902 28.02926 
L 23.492656 26.883915 
L 23.53014 27.776054 
L 23.511398 26.333233 
L 23.603935 27.1763 
L 23.694715 27.746908 
L 23.708186 26.343372 
L 23.714042 27.005125 
L 23.767925 26.260611 
L 23.739812 27.888057 
L 23.824735 27.098057 
L 23.933086 27.817778 
L 23.920201 26.416489 
L 23.936014 27.417911 
L 23.992825 26.438586 
L 24.025623 27.916784 
L 24.046707 26.961688 
L 24.048464 27.993835 
L 24.090633 26.33125 
L 24.1574 26.862704 
L 24.176728 28.178799 
L 24.181999 26.473004 
L 24.269265 27.037601 
L 24.290349 26.251729 
L 24.288006 27.828907 
L 24.368244 27.481648 
L 24.371172 28.011172 
L 24.387571 26.321148 
L 24.472495 27.617526 
L 24.542776 26.406127 
L 24.495336 27.926589 
L 24.584359 26.688737 
L 24.692709 28.014754 
L 24.68041 26.291179 
L 24.697395 27.115495 
L 24.726093 27.841169 
L 24.753034 26.29506 
L 24.805745 27.040934 
L 24.852013 26.261675 
L 24.846742 27.871079 
L 24.916438 27.26893 
L 25.014246 26.341653 
L 24.962121 27.824155 
L 25.028302 26.845406 
L 25.046458 27.856585 
L 25.037087 26.334376 
L 25.138995 27.321775 
L 25.164765 26.156091 
L 25.196977 28.01182 
L 25.249688 27.408255 
L 25.280729 26.285042 
L 25.31177 27.869135 
L 25.362724 26.884965 
L 25.448819 27.981403 
L 25.422463 26.047433 
L 25.472831 26.986469 
L 25.496844 26.363604 
L 25.487473 27.932273 
L 25.582939 27.144484 
L 25.666105 27.923623 
L 25.639749 26.158215 
L 25.693046 27.650987 
L 25.721744 26.24991 
L 25.794954 28.037498 
L 25.804325 26.829055 
L 25.875777 27.900613 
L 25.816624 26.252077 
L 25.915603 27.562169 
L 25.975342 26.128871 
L 25.969486 28.037851 
L 26.026882 27.102038 
L 26.127618 26.291089 
L 26.125861 28.085593 
L 26.136404 27.193389 
L 26.213713 26.124268 
L 26.247682 27.954069 
L 26.28458 25.958312 
L 26.358961 26.626591 
L 26.453841 28.011969 
L 26.38883 26.40187 
L 26.47024 26.879283 
L 26.507723 27.823431 
L 26.528222 26.29111 
L 26.582104 27.296649 
L 26.657656 26.157725 
L 26.622516 28.001444 
L 26.692797 27.362222 
L 26.774206 26.383034 
L 26.790019 27.857586 
L 26.801147 27.261911 
L 26.826331 28.163286 
L 26.852687 26.530665 
L 26.91184 27.198311 
L 27.008477 26.096832 
L 26.942881 28.091677 
L 27.021362 27.12334 
L 27.021948 27.988587 
L 27.037175 26.320115 
L 27.131469 26.756236 
L 27.221664 26.357234 
L 27.216978 27.988332 
L 27.242162 26.606822 
L 27.277303 27.953435 
L 27.263247 26.213663 
L 27.353441 26.892111 
L 27.354612 27.885331 
L 27.359298 25.977033 
L 27.464134 27.12146 
L 27.484633 26.473709 
L 27.5555 27.749977 
L 27.568384 27.042632 
L 27.61231 27.818819 
L 27.612896 26.427933 
L 27.679077 27.45846 
L 27.73296 26.316092 
L 27.701919 27.89474 
L 27.790356 26.983454 
L 27.800313 27.784864 
L 27.79797 26.258602 
L 27.900463 27.036013 
L 27.989486 26.488852 
L 27.985387 27.904598 
L 28.010571 26.899598 
L 28.09198 27.77025 
L 28.039855 26.27052 
L 28.121264 26.974829 
L 28.166947 26.392174 
L 28.154062 27.900829 
L 28.229614 26.901796 
L 28.304581 27.827712 
L 28.286425 26.396442 
L 28.340307 26.864592 
L 28.435187 27.727233 
L 28.400632 26.34606 
L 28.453928 27.205405 
L 28.538266 26.400671 
L 28.528309 27.931795 
L 28.564621 26.752672 
L 28.654816 27.872 
L 28.589806 26.140754 
L 28.675314 27.140249 
L 28.730368 26.275358 
L 28.733297 27.940498 
L 28.786593 26.864989 
L 28.888501 27.785492 
L 28.828176 26.233268 
L 28.897286 27.411999 
L 28.968739 26.361023 
L 28.913099 28.092791 
L 29.007979 27.29149 
L 29.052491 27.712627 
L 29.056005 26.432979 
L 29.113987 27.597343 
L 29.211795 26.195732 
L 29.200667 27.768027 
L 29.225265 26.774814 
L 29.258063 27.871585 
L 29.299646 26.343064 
L 29.336544 27.558623 
L 29.392183 26.316333 
L 29.352357 27.961784 
L 29.447823 26.985689 
L 29.533332 27.68014 
L 29.502876 26.222103 
L 29.559101 27.345855 
L 29.5878 26.391883 
L 29.56203 27.800818 
L 29.67038 27.144949 
L 29.752961 26.310861 
L 29.700835 27.93848 
L 29.770531 26.889478 
L 29.877124 27.776637 
L 29.846669 26.280396 
L 29.88181 27.196809 
L 29.959705 26.426482 
L 29.888838 27.672284 
L 29.960876 27.130461 
L 29.961462 27.853716 
L 29.972004 26.409242 
L 30.072155 27.345334 
L 30.170548 28.127022 
L 30.101439 26.320056 
L 30.182848 27.349069 
L 30.220331 26.348166 
L 30.184019 28.057565 
L 30.294712 26.622612 
L 30.307011 27.943855 
L 30.362065 26.327961 
L 30.405991 26.912841 
L 30.481543 27.755498 
L 30.490328 26.335093 
L 30.516684 26.774667 
L 30.573494 27.793442 
L 30.554753 26.26336 
L 30.628548 27.21159 
L 30.674817 26.075463 
L 30.720499 27.715892 
L 30.740998 26.405265 
L 30.757397 27.899396 
L 30.748612 26.346805 
L 30.852277 27.307333 
L 30.892103 27.967257 
L 30.866919 26.300486 
L 30.957699 27.245672 
L 31.060192 26.33295 
L 31.033837 27.899865 
L 31.068977 26.48952 
L 31.089476 28.057388 
L 31.165614 26.43759 
L 31.180256 27.089383 
L 31.265765 28.154871 
L 31.227696 26.330229 
L 31.289778 27.027034 
L 31.293292 26.207072 
L 31.333118 28.12013 
L 31.400471 27.026901 
L 31.483051 26.120843 
L 31.488322 27.96311 
L 31.507064 26.662231 
L 31.532248 27.816834 
L 31.617757 26.271433 
L 31.618343 27.13075 
L 31.712637 26.262454 
L 31.652312 27.892673 
L 31.72845 27.051913 
L 31.794631 27.990724 
L 31.81923 26.363188 
L 31.839143 27.058178 
L 31.885997 26.071596 
L 31.891854 27.952426 
L 31.946322 26.963767 
L 31.993176 27.871836 
L 31.971506 26.263617 
L 32.056429 26.766763 
L 32.112069 25.99072 
L 32.151895 27.85982 
L 32.165951 26.667535 
L 32.166537 27.884134 
L 32.180007 26.235874 
L 32.27723 27.234598 
L 32.372109 26.23608 
L 32.304756 27.801143 
L 32.388508 27.029333 
L 32.421892 27.777006 
L 32.394365 26.206529 
L 32.491587 27.031105 
L 32.510915 26.29979 
L 32.574754 28.082799 
L 32.60228 26.91419 
L 32.621022 28.159674 
L 32.673733 26.332774 
L 32.713559 27.072612 
L 32.716487 26.338902 
L 32.750457 28.186068 
L 32.824252 26.716609 
L 32.847679 27.783916 
L 32.840651 26.209205 
L 32.934945 27.591848 
L 32.950173 26.150201 
L 32.957787 27.815124 
L 33.046224 27.262133 
L 33.154574 26.296524 
L 33.06438 27.845535 
L 33.156331 27.001057 
L 33.213142 27.993815 
L 33.196157 26.035895 
L 33.26761 27.73798 
L 33.373032 27.925608 
L 33.379474 26.080015 
L 33.409344 28.044831 
L 33.490753 27.020868 
L 33.515937 27.803597 
L 33.493096 25.976562 
L 33.601446 27.387956 
L 33.664113 26.427764 
L 33.635415 27.776674 
L 33.712724 26.969867 
L 33.744351 27.98418 
L 33.729123 26.517863 
L 33.823417 27.536668 
L 33.830446 26.388265 
L 33.879057 27.703443 
L 33.93411 26.90565 
L 34.017277 27.917072 
L 33.96398 26.241445 
L 34.045389 27.284812 
L 34.047146 27.533403 
L 34.046561 27.054845 
L 34.048903 27.455204 
L 34.153739 26.323839 
L 34.075259 27.887873 
L 34.160182 27.131298 
L 34.223435 26.399874 
L 34.245691 27.963604 
L 34.270875 27.157707 
L 34.341742 27.973655 
L 34.284345 26.222593 
L 34.380982 27.069475 
L 34.429593 27.957355 
L 34.491675 26.192853 
L 34.561371 27.881084 
L 34.602954 26.773559 
L 34.630481 27.902312 
L 34.708961 26.111101 
L 34.713647 27.414316 
L 34.788614 26.448229 
L 34.820826 27.841084 
L 34.824926 26.782385 
L 34.921562 27.921855 
L 34.829611 26.041321 
L 34.936204 26.851159 
L 34.977202 27.817634 
L 34.944989 26.35503 
L 35.048654 27.225551 
L 35.054511 26.405463 
L 35.082624 27.83736 
L 35.159933 26.86609 
L 35.168132 27.958722 
L 35.227286 26.218935 
L 35.27004 27.348109 
L 35.277068 26.331042 
L 35.307524 27.8394 
L 35.381319 27.00091 
L 35.473856 26.4167 
L 35.411774 27.976591 
L 35.492012 26.933805 
L 35.554679 27.870176 
L 35.588649 26.327846 
L 35.603291 27.098162 
L 35.63726 26.25821 
L 35.677086 27.817704 
L 35.71047 26.366735 
L 35.754395 27.737736 
L 35.782508 26.234105 
L 35.821748 26.832971 
L 35.876802 27.886251 
L 35.824091 26.285782 
L 35.933613 27.28241 
L 35.99218 28.037728 
L 36.040792 25.964668 
L 36.043134 27.3811 
L 36.067147 26.36565 
L 36.054848 27.921018 
L 36.154413 27.0249 
L 36.190139 28.001717 
L 36.20361 26.174862 
L 36.265106 27.009059 
L 36.347101 26.063901 
L 36.326016 27.736956 
L 36.375799 26.860989 
L 36.400397 27.756028 
L 36.449594 26.395907 
L 36.487663 27.270474 
L 36.597771 26.300535 
L 36.504648 27.811196 
L 36.599528 26.727516 
L 36.694407 27.683788 
L 36.707292 26.388216 
L 36.710806 27.249061 
L 36.714906 26.416528 
L 36.741847 27.906093 
L 36.822085 26.635319 
L 36.87421 28.254625 
L 36.828527 26.185918 
L 36.932778 27.475574 
L 37.013601 26.239936 
L 37.017701 27.827172 
L 37.044057 27.121866 
L 37.144207 27.980912 
L 37.049913 26.175808 
L 37.154164 27.283472 
L 37.217417 26.15234 
L 37.225617 28.085145 
L 37.265443 27.078635 
L 37.338067 26.401741 
L 37.334553 27.799845 
L 37.373793 27.105925 
L 37.428261 27.841244 
L 37.447588 26.268205 
L 37.485072 27.275486 
L 37.488 26.310616 
L 37.501471 27.777367 
L 37.597522 26.7266 
L 37.601621 27.805954 
L 37.624463 26.317221 
L 37.7088 27.115547 
L 37.800752 27.831016 
L 37.766782 26.162552 
L 37.819493 26.967558 
L 37.900317 28.031933 
L 37.884504 26.310753 
L 37.929601 27.040878 
L 37.957127 26.328494 
L 38.01101 27.830548 
L 38.040294 26.75573 
L 38.097104 27.845234 
L 38.108232 26.006206 
L 38.151572 27.054989 
L 38.259923 26.287657 
L 38.218925 27.859871 
L 38.262265 27.062062 
L 38.320247 27.739552 
L 38.327276 26.273595 
L 38.372958 27.03152 
L 38.407513 26.28436 
L 38.442068 27.896016 
L 38.483651 27.121424 
L 38.519963 26.389984 
L 38.518792 27.914682 
L 38.593759 27.027319 
L 38.678096 27.867698 
L 38.695081 26.262251 
L 38.704452 27.18873 
L 38.722608 26.21178 
L 38.791132 27.876565 
L 38.81573 27.096869 
L 38.854971 27.871503 
L 38.887769 26.483182 
L 38.91471 27.445674 
L 38.921152 26.345681 
L 38.965078 28.10086 
L 39.025403 26.912359 
L 39.068743 27.787526 
L 39.066986 26.236267 
L 39.136681 27.243555 
L 39.211062 28.101922 
L 39.140196 26.335099 
L 39.244446 27.052308 
L 39.325855 26.403074 
L 39.259088 27.953547 
L 39.355139 26.892447 
L 39.412535 27.841493 
L 39.381495 26.237895 
L 39.465832 27.157416 
L 39.497459 26.322508 
L 39.575354 27.797173 
L 39.575939 27.061642 
L 39.602295 28.148559 
L 39.62865 26.370218 
L 39.686632 26.816256 
L 39.738758 27.999712 
L 39.707717 26.39924 
L 39.799082 27.72213 
L 39.858822 26.264079 
L 39.908018 28.020091 
L 39.910361 27.180962 
L 39.956044 27.83199 
L 39.992356 26.305014 
L 40.01754 27.069909 
L 40.122376 26.385115 
L 40.088407 27.881607 
L 40.128233 26.780995 
L 40.162788 27.814985 
L 40.148146 26.197037 
L 40.238926 27.249172 
L 40.312721 26.337394 
L 40.28988 27.893396 
L 40.350205 26.700727 
L 40.455041 28.011067 
L 40.356647 26.279578 
L 40.461483 27.00519 
L 40.511266 27.973522 
L 40.521222 26.389333 
L 40.572762 27.308667 
L 40.591504 27.680672 
L 40.628401 26.449233 
L 40.664713 27.034427 
L 40.719767 26.36503 
L 40.71801 27.87694 
L 40.775406 27.468333 
L 40.83866 26.429949 
L 40.818161 28.022369 
L 40.888442 26.609848 
L 40.995035 27.884384 
L 40.924168 26.45373 
L 40.999721 27.149772 
L 41.079373 26.309756 
L 41.03779 27.791179 
L 41.088744 26.613386 
L 41.089329 28.011445 
L 41.17601 26.378013 
L 41.200022 27.55188 
L 41.205294 26.163318 
L 41.237506 28.017342 
L 41.311301 27.12544 
L 41.372797 26.329352 
L 41.328286 28.01152 
L 41.42258 26.916299 
L 41.447178 27.911904 
L 41.464749 26.346232 
L 41.53503 27.685859 
L 41.557871 26.347408 
L 41.591841 27.854476 
L 41.646308 26.722332 
L 41.734746 27.894874 
L 41.740017 26.275183 
L 41.757587 27.384202 
L 41.853638 26.164313 
L 41.769301 27.858287 
L 41.868866 27.064955 
L 41.869452 27.874334 
L 41.957889 26.166057 
L 41.979559 26.978189 
L 42.025827 26.260223 
L 41.997129 27.848822 
L 42.08908 26.637222 
L 42.147063 27.844849 
L 42.103137 26.3328 
L 42.200359 27.289709 
L 42.271226 26.253288 
L 42.201531 28.040079 
L 42.312224 26.543046 
L 42.407689 27.915227 
L 42.390704 26.269233 
L 42.423502 26.794486 
L 42.458057 28.099099 
L 42.510768 26.291031 
L 42.534195 26.864464 
L 42.537709 26.119369 
L 42.588078 27.886097 
L 42.644303 27.333786 
L 42.745039 27.695191 
L 42.73274 26.158383 
L 42.753238 27.014106 
L 42.84519 26.328645 
L 42.824691 27.749277 
L 42.863346 26.837096 
L 42.898486 27.780308 
L 42.909029 26.388074 
L 42.974039 27.098639 
L 43.081218 26.388161 
L 43.041977 27.800361 
L 43.084146 26.846242 
L 43.153256 28.019346 
L 43.167898 26.484215 
L 43.194839 27.078266 
L 43.26512 26.214897 
L 43.253993 27.783341 
L 43.304946 26.614716 
L 43.31256 27.727694 
L 43.347701 26.220871 
L 43.416225 26.945231 
L 43.513448 27.835176 
L 43.522233 26.322017 
L 43.526918 27.061511 
L 43.560302 27.88512 
L 43.626483 26.320966 
L 43.656353 27.864509 
L 43.687979 26.267255 
L 43.737762 27.033755 
L 43.740105 27.812107 
L 43.842598 26.238026 
L 43.847284 26.916538 
L 43.915808 26.302768 
L 43.932207 27.917386 
L 43.957391 27.467773 
L 44.027672 27.931483 
L 43.994289 26.347137 
L 44.066327 27.370211 
L 44.168235 26.414717 
L 44.15535 28.016245 
L 44.17702 27.137364 
L 44.251401 27.909556 
L 44.222117 26.237388 
L 44.286542 27.255508 
L 44.352723 26.101983 
L 44.28947 27.988007 
L 44.39782 26.472441 
L 44.418905 27.918738 
L 44.408948 26.327809 
L 44.509099 26.878035 
L 44.547754 27.896276 
L 44.534283 26.263847 
L 44.619206 27.604514 
L 44.682459 26.401564 
L 44.718771 28.073595 
L 44.730485 26.913084 
L 44.759769 26.385535 
L 44.733999 27.913853 
L 44.840007 27.259347 
L 44.933715 27.947955 
L 44.853477 26.291545 
L 44.9507 27.092266 
L 45.054364 28.022569 
L 45.011024 26.285448 
L 45.061393 27.187227 
L 45.12816 26.345729 
L 45.110004 27.861339 
L 45.172671 26.680089 
L 45.19317 27.764607 
L 45.257594 26.072137 
L 45.28395 27.003259 
L 45.381172 27.717818 
L 45.344275 26.376373 
L 45.394057 26.932728 
L 45.487766 26.20825 
L 45.448525 28.053977 
L 45.50475 26.856893 
L 45.610172 27.880509 
L 45.583231 26.278976 
L 45.615443 27.0271 
L 45.683967 26.158736 
L 45.643556 27.841073 
L 45.726722 26.822133 
L 45.758934 27.886258 
L 45.817502 26.421471 
L 45.839172 27.454053 
L 45.854985 26.346728 
L 45.948108 28.031233 
L 45.951036 26.885973 
L 45.997305 26.394616 
L 45.990862 27.837474 
L 46.058215 27.095663 
L 46.077543 27.959055 
L 46.086913 25.910709 
L 46.168908 27.0866 
L 46.170665 26.282873 
L 46.220448 28.004159 
L 46.279016 27.544989 
L 46.360425 26.2688 
L 46.32587 27.889008 
L 46.389123 26.847386 
L 46.389709 27.963076 
L 46.447105 26.192856 
L 46.500402 27.446138 
L 46.556627 26.167615 
L 46.512115 27.94448 
L 46.611095 27.399911 
L 46.680204 27.877626 
L 46.697189 26.113443 
L 46.72003 27.111221 
L 46.824281 26.236148 
L 46.758685 27.812794 
L 46.829552 27.055725 
L 46.854151 27.944949 
L 46.895734 25.983771 
L 46.940831 27.58235 
L 47.035125 26.263127 
L 46.943759 27.876151 
L 47.052109 27.348233 
L 47.137033 26.269502 
L 47.128833 28.038211 
L 47.163974 27.040131 
L 47.184473 28.154881 
L 47.220199 26.249719 
L 47.274667 27.151279 
L 47.302779 26.429143 
L 47.380674 27.941024 
L 47.386531 26.795819 
L 47.395902 27.760882 
L 47.445099 26.254179 
L 47.498396 27.196092 
L 47.538222 26.316053 
L 47.552278 27.776134 
L 47.609674 26.679023 
L 47.647743 28.146226 
L 47.711582 26.360057 
L 47.720953 27.271316 
L 47.730324 27.877172 
L 47.754337 26.404709 
L 47.770735 27.344321 
L 47.792406 26.050075 
L 47.808219 27.947524 
L 47.882014 27.032455 
L 47.90017 28.105484 
L 47.939411 26.227739 
L 47.992121 27.220894 
L 48.037804 26.256327 
L 48.028433 28.025021 
L 48.102814 27.242073 
L 48.182467 26.193903 
L 48.176024 27.851472 
L 48.210579 27.302313 
L 48.214679 27.862713 
L 48.256262 26.140574 
L 48.321272 27.465792 
L 48.430794 26.224404 
L 48.338842 27.941775 
L 48.431965 27.501455 
L 48.50576 26.141615 
L 48.526845 27.908109 
L 48.543829 26.772537 
L 48.556129 27.800292 
L 48.559057 26.398449 
L 48.655694 27.317447 
L 48.762873 26.230581 
L 48.69962 27.970882 
L 48.766972 26.785136 
L 48.768144 28.084379 
L 48.874151 26.358171 
L 48.877665 27.221271 
L 48.89055 26.210512 
L 48.929205 27.804498 
L 48.988944 26.806139 
L 49.039312 27.879364 
L 49.085581 26.325723 
L 49.099637 27.165247 
L 49.130092 26.290739 
L 49.134778 27.799041 
L 49.210916 26.851487 
L 49.306967 26.258393 
L 49.222044 27.974323 
L 49.321023 26.933908 
L 49.363778 27.967548 
L 49.337422 26.328371 
L 49.432888 27.335905 
L 49.531281 26.048375 
L 49.524839 27.874883 
L 49.544166 26.824729 
L 49.597463 27.893588 
L 49.558222 26.259786 
L 49.654859 27.203634 
L 49.667158 26.187799 
L 49.735097 27.884211 
L 49.766138 26.936057 
L 49.822363 28.012673 
L 49.795422 26.218676 
L 49.876831 27.690892 
L 49.906115 26.340219 
L 49.950626 27.86249 
L 49.98811 27.109026 
L 50.074204 28.091576 
L 50.072447 26.383872 
L 50.099388 27.485618 
L 50.195439 26.298888 
L 50.145071 27.858876 
L 50.211253 26.937588 
L 50.29559 27.921474 
L 50.305547 26.35963 
L 50.321946 27.123032 
L 50.379342 26.370665 
L 50.378171 27.949237 
L 50.433224 26.627377 
L 50.470122 27.82029 
L 50.535132 26.426054 
L 50.544503 26.926321 
L 50.615956 27.997665 
L 50.569101 26.362597 
L 50.625912 27.257089 
L 50.699707 26.280054 
L 50.647582 28.241825 
L 50.737191 26.864288 
L 50.786973 27.75434 
L 50.757689 26.458585 
L 50.789902 27.720678 
L 50.897666 26.392979 
L 50.821528 27.736639 
L 50.90118 27.297718 
L 50.945106 26.311789 
L 50.973804 28.012599 
L 51.011288 26.830497 
L 51.105582 28.210322 
L 51.052285 26.279387 
L 51.121981 26.948298 
L 51.13018 25.821149 
L 51.174692 27.808452 
L 51.232674 26.970273 
L 51.34161 27.871655 
L 51.302955 26.371552 
L 51.343952 27.180912 
L 51.440003 26.412033 
L 51.362108 27.827616 
L 51.454645 26.948704 
L 51.462259 27.810629 
L 51.502671 26.22408 
L 51.565338 27.200974 
L 51.582323 26.250941 
L 51.571195 27.714472 
L 51.676031 27.42064 
L 51.734013 26.270529 
L 51.707072 27.960857 
L 51.78731 26.81957 
L 51.79141 27.945807 
L 51.810737 26.398019 
L 51.898589 27.188152 
L 51.902688 26.51297 
L 51.929044 27.837473 
L 51.975312 27.223344 
L 51.996397 28.016524 
L 52.060236 26.19386 
L 52.086005 27.079027 
L 52.169757 27.880458 
L 52.131688 26.381908 
L 52.194941 26.954903 
L 52.229496 26.295333 
L 52.301535 27.969052 
L 52.305634 27.201879 
L 52.392315 26.270569 
L 52.382358 28.012234 
L 52.416327 27.301492 
L 52.429212 27.854194 
L 52.464939 26.357029 
L 52.523506 27.299787 
L 52.606673 26.264759 
L 52.559233 27.761143 
L 52.634785 27.062377 
L 52.733764 27.729917 
L 52.664655 26.422024 
L 52.74255 27.113328 
L 52.743135 26.424079 
L 52.80346 27.816495 
L 52.853243 27.002738 
L 52.866128 27.908862 
L 52.93758 26.224534 
L 52.963936 27.362059 
L 53.007861 26.225493 
L 53.012547 27.942552 
L 53.075214 27.064904 
L 53.134953 27.823161 
L 53.153109 26.375507 
L 53.185907 26.927274 
L 53.277859 26.328993 
L 53.213434 27.821552 
L 53.290744 27.409333 
L 53.385623 28.120634 
L 53.338769 26.363083 
L 53.39558 27.015083 
L 53.498073 26.30625 
L 53.441263 27.86024 
L 53.506273 27.164211 
L 53.549027 27.998472 
L 53.547856 26.328825 
L 53.61638 27.457826 
L 53.686661 26.257221 
L 53.725902 27.876701 
L 53.727659 27.120035 
L 53.837766 27.963151 
L 53.766899 26.470699 
L 53.838352 27.384779 
L 53.895748 26.389314 
L 53.885206 28.103663 
L 53.949045 27.338101 
L 53.94963 27.832879 
L 53.967201 26.168988 
L 54.059738 27.056744 
L 54.060909 27.138882 
L 54.06208 26.963417 
L 54.062666 26.428698 
L 54.065595 27.908862 
L 54.115963 27.302155 
" clip-path="url(#p2510268137)" style="fill: none; stroke: #d62728; stroke-width: 0.05; stroke-linecap: square"/>
   </g>
  </g>
 </g>
 <defs>
  <clipPath id="p2510268137">
   <rect x="0" y="0" width="56.692913" height="28.346457"/>
  </clipPath>
 </defs>
</svg>
