<?xml version="1.0" encoding="utf-8" standalone="no"?>
<!DOCTYPE svg PUBLIC "-//W3C//DTD SVG 1.1//EN"
  "http://www.w3.org/Graphics/SVG/1.1/DTD/svg11.dtd">
<svg xmlns:xlink="http://www.w3.org/1999/xlink" width="127.44pt" height="84.96pt" viewBox="0 0 127.44 84.96" xmlns="http://www.w3.org/2000/svg" version="1.1">
 <metadata>
  <rdf:RDF xmlns:dc="http://purl.org/dc/elements/1.1/" xmlns:cc="http://creativecommons.org/ns#" xmlns:rdf="http://www.w3.org/1999/02/22-rdf-syntax-ns#">
   <cc:Work>
    <dc:type rdf:resource="http://purl.org/dc/dcmitype/StillImage"/>
    <dc:date>2024-10-31T23:50:06.274533</dc:date>
    <dc:format>image/svg+xml</dc:format>
    <dc:creator>
     <cc:Agent>
      <dc:title>Matplotlib v3.8.4, https://matplotlib.org/</dc:title>
     </cc:Agent>
    </dc:creator>
   </cc:Work>
  </rdf:RDF>
 </metadata>
 <defs>
  <style type="text/css">*{stroke-linejoin: round; stroke-linecap: butt}</style>
 </defs>
 <g id="figure_1">
  <g id="patch_1">
   <path d="M 0 84.96 
L 127.44 84.96 
L 127.44 0 
L 0 0 
L 0 84.96 
z
" style="fill: none"/>
  </g>
  <g id="axes_1">
   <g id="patch_2">
    <path d="M 0 28.32 
L 127.44 28.32 
L 127.44 0 
L 0 0 
L 0 28.32 
z
" style="fill: none"/>
   </g>
   <g id="matplotlib.axis_1">
    <g id="xtick_1"/>
    <g id="xtick_2"/>
    <g id="xtick_3"/>
    <g id="xtick_4"/>
    <g id="xtick_5"/>
    <g id="xtick_6"/>
    <g id="xtick_7"/>
    <g id="xtick_8"/>
    <g id="xtick_9"/>
   </g>
   <g id="matplotlib.axis_2">
    <g id="ytick_1"/>
    <g id="ytick_2"/>
    <g id="ytick_3"/>
   </g>
   <g id="line2d_1">
    <path d="M 0 14.160844 
L 0.163646 14.266601 
L 0.276606 14.378104 
L 0.404047 14.456214 
L 0.42577 14.438056 
L 0.719755 14.329406 
L 0.805198 14.256583 
L 0.808095 14.251 
L 1.016635 14.012655 
L 1.039806 14.035624 
L 1.129595 14.175851 
L 1.393167 14.42744 
L 1.465577 14.334582 
L 1.721908 14.182172 
L 1.723356 14.183726 
L 1.850797 14.212069 
L 1.865279 14.195362 
L 2.176642 14.046444 
L 2.195469 14.077393 
L 2.344633 14.331685 
L 2.496694 14.464968 
L 2.582138 14.35462 
L 2.864536 13.837471 
L 2.923912 13.885643 
L 3.07018 14.182489 
L 3.228034 14.411307 
L 3.235275 14.406506 
L 3.466987 14.070029 
L 3.626288 13.881355 
L 3.792831 14.067764 
L 3.969511 14.303398 
L 4.062196 14.291614 
L 4.082471 14.267693 
L 4.459002 13.851671 
L 4.508241 13.903477 
L 4.855809 14.290894 
L 4.877532 14.26945 
L 5.016559 14.073199 
L 5.255512 13.723201 
L 5.258408 13.724667 
L 5.529221 14.085528 
L 5.689971 14.29773 
L 5.853617 14.15411 
L 6.125879 13.654667 
L 6.130223 13.656486 
L 6.367728 13.883659 
L 6.596543 14.245373 
L 6.600888 14.242944 
L 6.876045 13.93073 
L 7.099068 13.582091 
L 7.24244 13.654704 
L 7.37857 13.904568 
L 7.556699 14.196202 
L 7.645039 14.227032 
L 7.68414 14.203981 
L 7.815926 13.983627 
L 8.067913 13.518343 
L 8.154804 13.488468 
L 8.195354 13.510546 
L 8.387964 13.844673 
L 8.574782 14.185675 
L 8.663122 14.213399 
L 8.702223 14.190226 
L 8.861525 13.912352 
L 9.071514 13.465693 
L 9.206196 13.380665 
L 9.23516 13.398438 
L 9.36405 13.595593 
L 9.621829 14.172465 
L 9.740582 14.221802 
L 9.755064 14.209514 
L 9.917262 13.893172 
L 10.217039 13.246228 
L 10.380685 13.369195 
L 10.768802 14.228101 
L 10.929552 14.096467 
L 11.374149 13.073457 
L 11.419043 13.104648 
L 11.578345 13.4738 
L 11.825987 14.178949 
L 11.917224 14.256195 
L 11.963566 14.224261 
L 12.151832 13.77075 
L 12.403818 13.051423 
L 12.496503 12.980701 
L 12.544293 13.013901 
L 12.765868 13.525564 
L 13.006269 14.123447 
L 13.009165 14.122685 
L 13.229291 13.95976 
L 13.724575 12.928729 
L 13.798433 13.020803 
L 13.930219 13.337474 
L 14.167724 13.964755 
L 14.434192 13.909233 
L 14.954095 12.802584 
L 14.95844 12.804738 
L 15.117742 13.050401 
L 15.514548 14.030735 
L 15.644886 13.965834 
L 15.808532 13.547581 
L 16.082242 12.709516 
L 16.295127 12.722055 
L 16.464566 13.18342 
L 16.703519 13.910009 
L 16.920749 13.948005 
L 16.936679 13.913224 
L 17.159701 13.169152 
L 17.423273 12.474 
L 17.424722 12.474495 
L 17.61878 12.668125 
L 18.138683 13.967293 
L 18.164751 13.939367 
L 18.250195 13.789897 
L 18.46308 13.06083 
L 18.726652 12.408294 
L 18.930848 12.602279 
L 19.479715 13.805178 
L 19.534747 13.745508 
L 19.791078 13.110962 
L 20.025686 12.491258 
L 20.251605 12.450207 
L 20.258846 12.46092 
L 20.486213 12.985975 
L 20.717925 13.598754 
L 20.975704 13.685603 
L 20.998875 13.647177 
L 21.166866 13.210446 
L 21.442024 12.322164 
L 21.6216 12.179892 
L 21.670839 12.237931 
L 21.864898 12.801085 
L 22.193639 13.840326 
L 22.30515 13.857426 
L 22.322528 13.837326 
L 22.473141 13.479186 
L 22.887326 12.124514 
L 23.059661 12.192007 
L 23.223308 12.618756 
L 23.717143 13.798114 
L 23.749004 13.775745 
L 23.864859 13.57076 
L 24.027058 13.068314 
L 24.276148 12.270308 
L 24.444139 12.096979 
L 24.470206 12.116067 
L 24.557098 12.232947 
L 24.752605 12.838025 
L 24.998799 13.689103 
L 25.16679 13.88028 
L 25.205891 13.851201 
L 25.405742 13.382022 
L 25.735932 12.293873 
L 25.889441 12.142618 
L 25.892337 12.143919 
L 26.060328 12.373788 
L 26.68595 13.830813 
L 26.700432 13.818784 
L 26.895938 13.470869 
L 27.349224 12.23265 
L 27.53749 12.24471 
L 27.761961 12.829033 
L 28.016844 13.681661 
L 28.194972 13.935585 
L 28.30938 13.853205 
L 28.512128 13.317833 
L 28.945139 12.065436 
L 29.0972 12.141861 
L 29.424493 13.184731 
L 29.647515 13.882945 
L 29.766267 13.988765 
L 29.799576 13.973912 
L 29.925569 13.763862 
L 30.558432 11.826945 
L 30.610567 11.876946 
L 30.804626 12.414039 
L 31.133367 13.621295 
L 31.312943 13.842971 
L 31.415765 13.753138 
L 31.601135 13.247519 
L 31.961736 11.911389 
L 32.147105 11.693942 
L 32.152898 11.697632 
L 32.341164 12.021673 
L 32.943614 13.777693 
L 32.997198 13.73169 
L 33.14781 13.392893 
L 33.672058 11.651281 
L 33.860324 11.74967 
L 34.122448 12.581699 
L 34.372986 13.468044 
L 34.568493 13.7416 
L 34.66697 13.661786 
L 34.878407 13.095842 
L 35.281006 11.71853 
L 35.437412 11.630473 
L 35.440308 11.632076 
L 35.582232 11.875881 
L 35.83277 12.755598 
L 36.105031 13.597167 
L 36.303434 13.698429 
L 36.316468 13.686237 
L 36.477218 13.3304 
L 36.927608 11.651836 
L 37.111529 11.453828 
L 37.15063 11.480397 
L 37.308484 11.808532 
L 37.832732 13.652556 
L 37.979 13.67666 
L 37.997826 13.650843 
L 38.148439 13.287968 
L 38.756682 11.292511 
L 38.849367 11.327551 
L 38.863849 11.349051 
L 39.050666 11.845322 
L 39.460507 13.456224 
L 39.64298 13.670986 
L 39.686426 13.640605 
L 39.873243 13.208893 
L 40.480038 11.288237 
L 40.63934 11.448212 
L 41.073799 13.003336 
L 41.292477 13.58979 
L 41.414126 13.643907 
L 41.434401 13.626936 
L 41.577772 13.368026 
L 42.280149 11.160247 
L 42.28739 11.163537 
L 42.42352 11.380793 
L 42.675507 12.33692 
L 42.982525 13.444567 
L 43.189617 13.582236 
L 43.21134 13.556389 
L 43.386572 13.138334 
L 44.009297 11.000687 
L 44.10343 11.025079 
L 44.120809 11.049613 
L 44.268525 11.416816 
L 44.927455 13.576898 
L 44.933248 13.573844 
L 45.085309 13.327444 
L 45.353225 12.247395 
L 45.624038 11.21639 
L 45.867336 10.976712 
L 45.900644 11.012188 
L 46.042568 11.313775 
L 46.77246 13.486315 
L 46.791286 13.473592 
L 46.940451 13.197144 
L 47.642827 10.760245 
L 47.76882 10.868192 
L 47.994739 11.599867 
L 48.327825 13.007756 
L 48.582708 13.420668 
L 48.698563 13.289032 
L 48.854969 12.819748 
L 49.364735 10.75631 
L 49.492176 10.626624 
L 49.525485 10.639312 
L 49.655822 10.843507 
L 50.130831 12.753226 
L 50.336476 13.287933 
L 50.471158 13.340588 
L 50.505915 13.307223 
L 50.657976 12.977886 
L 50.883895 12.070331 
L 51.173534 10.883574 
L 51.374834 10.556169 
L 51.376282 10.556673 
L 51.535584 10.745271 
L 51.904874 12.233552 
L 52.146723 13.139332 
L 52.345127 13.350566 
L 52.348023 13.349218 
L 52.475464 13.146189 
L 52.781034 11.86854 
L 53.241561 10.358607 
L 53.350176 10.420104 
L 53.532649 10.91541 
L 54.033726 13.005179 
L 54.230681 13.24541 
L 54.350881 13.096645 
L 54.582593 12.280558 
L 54.909886 10.795242 
L 55.124219 10.288959 
L 55.24442 10.294031 
L 55.254557 10.304374 
L 55.410962 10.661791 
L 56.097408 13.180889 
L 56.229194 13.149045 
L 56.36098 12.844813 
L 56.828749 10.729247 
L 57.050323 10.109699 
L 57.166179 10.082835 
L 57.183557 10.100267 
L 57.33417 10.430518 
L 58.072751 13.133374 
L 58.090129 13.128696 
L 58.191503 13.041731 
L 58.413077 12.369226 
L 58.86926 10.311303 
L 59.11835 9.99383 
L 59.156003 10.029253 
L 59.313857 10.392478 
L 59.762798 12.435367 
L 59.987269 13.056314 
L 60.104573 13.08674 
L 60.129192 13.065369 
L 60.25953 12.802728 
L 61.076314 9.80766 
L 61.142931 9.860551 
L 61.322508 10.331143 
L 62.053848 13.003824 
L 62.071226 12.995667 
L 62.184186 12.86208 
L 62.440517 11.931112 
L 62.78374 10.297921 
L 63.102343 9.704569 
L 63.139997 9.735029 
L 63.305091 10.108394 
L 64.001675 12.906159 
L 64.145046 12.909069 
L 64.152287 12.900512 
L 64.315934 12.48131 
L 65.060308 9.448752 
L 65.208024 9.544468 
L 65.404979 10.186149 
L 66.036393 12.823701 
L 66.182661 12.82094 
L 66.198591 12.795402 
L 66.343411 12.418702 
L 67.150058 9.26729 
L 67.158747 9.270988 
L 67.30067 9.480394 
L 67.468661 10.108653 
L 68.055182 12.715012 
L 68.200001 12.798149 
L 68.224621 12.776092 
L 68.354959 12.5067 
L 68.585222 11.46903 
L 68.903826 9.75167 
L 69.15726 9.062903 
L 69.289046 9.118469 
L 69.459934 9.60735 
L 70.230375 12.696183 
L 70.25065 12.690832 
L 70.356369 12.571917 
L 70.546083 11.92341 
L 71.23108 8.916439 
L 71.320869 8.903735 
L 71.354177 8.932314 
L 71.501893 9.273778 
L 71.658299 9.935878 
L 72.081173 12.100166 
L 72.360675 12.590101 
L 72.393984 12.560473 
L 72.50115 12.345417 
L 72.777756 11.121858 
L 73.204975 8.988815 
L 73.414963 8.72398 
L 73.443927 8.744738 
L 73.556887 8.95538 
L 73.732119 9.628584 
L 74.350499 12.424278 
L 74.4707 12.496338 
L 74.501112 12.477471 
L 74.643035 12.181692 
L 74.84868 11.273442 
L 75.206385 9.301401 
L 75.446786 8.56613 
L 75.604639 8.590928 
L 75.608984 8.598423 
L 75.790009 9.121422 
L 76.470662 12.274276 
L 76.603896 12.3729 
L 76.634308 12.349216 
L 76.758853 12.101623 
L 77.048493 10.77163 
L 77.553914 8.451867 
L 77.688596 8.356973 
L 77.732042 8.393096 
L 77.910171 8.838281 
L 78.072369 9.591354 
L 78.448901 11.599804 
L 78.768952 12.228906 
L 78.789227 12.210629 
L 78.95577 11.826121 
L 79.11652 11.112454 
L 79.611804 8.512053 
L 79.859446 8.162964 
L 79.891306 8.191501 
L 80.021644 8.469829 
L 80.382245 10.187524 
L 80.697952 11.700992 
L 80.944146 12.043108 
L 80.967317 12.022895 
L 81.107793 11.738224 
L 81.474187 9.956519 
L 81.743552 8.563125 
L 82.030295 7.994074 
L 82.062155 8.011356 
L 82.178011 8.204415 
L 82.340209 8.778942 
L 82.900662 11.544271 
L 83.155545 11.871516 
L 83.167131 11.861328 
L 83.339466 11.478772 
L 83.530628 10.62459 
L 84.034601 8.094183 
L 84.240245 7.810284 
L 84.254727 7.822219 
L 84.419822 8.105414 
L 84.58202 8.719104 
L 85.145369 11.462976 
L 85.362599 11.724984 
L 85.387218 11.703953 
L 85.49873 11.505807 
L 85.740579 10.518761 
L 86.188072 8.138551 
L 86.416887 7.621397 
L 86.580534 7.734089 
L 86.765903 8.31803 
L 87.526207 11.533666 
L 87.643511 11.510542 
L 87.650752 11.501792 
L 87.825984 11.060212 
L 87.98239 10.373801 
L 88.610908 7.49397 
L 88.734005 7.413332 
L 88.764417 7.428502 
L 88.884617 7.626449 
L 89.116329 8.536143 
L 89.547892 10.763889 
L 89.772363 11.36532 
L 89.888219 11.383887 
L 89.904149 11.365145 
L 90.08807 10.933851 
L 91.010572 7.178363 
L 91.049674 7.202769 
L 91.177115 7.444102 
L 91.533372 9.062244 
L 91.891077 10.863543 
L 92.135822 11.294519 
L 92.144512 11.290461 
L 92.284987 11.091729 
L 92.477597 10.352113 
L 93.056877 7.278174 
L 93.266865 6.897817 
L 93.39141 7.002778 
L 93.566642 7.527838 
L 94.271915 11.005806 
L 94.450043 11.175178 
L 94.487696 11.145675 
L 94.652791 10.742318 
L 95.094492 8.283942 
L 95.439163 6.761103 
L 95.608602 6.6032 
L 95.636118 6.625286 
L 95.766456 6.877693 
L 96.131401 8.690567 
L 96.426834 10.351397 
L 96.68751 11.062574 
L 96.820744 11.007543 
L 96.994528 10.519168 
L 97.919926 6.331756 
L 97.925719 6.333805 
L 98.051712 6.521494 
L 98.306595 7.589892 
L 98.812017 10.418425 
L 99.02635 10.904064 
L 99.111794 10.89183 
L 99.136413 10.86055 
L 99.27544 10.520044 
L 99.683832 8.241102 
L 100.028503 6.436109 
L 100.2718 6.069748 
L 100.387656 6.240028 
L 100.555647 6.855368 
L 100.951005 9.17308 
L 101.253679 10.524191 
L 101.428911 10.709857 
L 101.46946 10.676123 
L 101.643244 10.224214 
L 101.931436 8.654377 
L 102.49044 5.874861 
L 102.661328 5.811634 
L 102.672913 5.825233 
L 102.859731 6.326129 
L 103.780785 10.478294 
L 103.80106 10.47081 
L 103.895192 10.352684 
L 104.054494 9.835624 
L 104.979893 5.482919 
L 105.004512 5.492287 
L 105.107334 5.622094 
L 105.328909 6.437596 
L 105.964668 9.924576 
L 106.168864 10.257954 
L 106.216654 10.228054 
L 106.35713 9.936669 
L 106.519328 9.232066 
L 107.147846 5.541833 
L 107.383902 5.113519 
L 107.499758 5.241367 
L 107.698161 5.939117 
L 107.854567 6.796397 
L 108.291922 9.376737 
L 108.520738 9.978113 
L 108.633697 9.948974 
L 108.642386 9.937372 
L 108.807481 9.480814 
L 109.234699 6.950586 
L 109.514202 5.337965 
L 109.793704 4.716226 
L 109.7966 4.71728 
L 109.937076 4.909586 
L 110.107963 5.552317 
L 110.862474 9.557727 
L 111.013087 9.674048 
L 111.027569 9.660038 
L 111.205697 9.249051 
L 111.404101 8.262908 
L 111.941382 4.942709 
L 112.213643 4.315476 
L 112.322258 4.413025 
L 112.49749 4.963144 
L 113.418544 9.331871 
L 113.421441 9.331197 
L 113.547434 9.187127 
L 113.729907 8.517427 
L 114.681373 3.899919 
L 114.694407 3.906386 
L 114.839227 4.149531 
L 115.102799 5.35092 
L 115.557533 8.12203 
L 115.87324 8.96108 
L 115.910894 8.947053 
L 116.068747 8.648749 
L 116.332319 7.335708 
L 116.788502 4.390804 
L 117.138966 3.4336 
L 117.251925 3.552924 
L 117.415572 4.075795 
L 118.369934 8.5671 
L 118.471308 8.444455 
L 118.649436 7.829841 
L 119.612488 2.922673 
L 119.621178 2.925692 
L 119.751515 3.078637 
L 119.906473 3.607193 
L 120.212042 5.423399 
L 120.601608 7.654848 
L 120.826078 8.147492 
L 120.911522 8.117097 
L 120.926004 8.088989 
L 121.144682 7.394684 
L 122.075874 2.418379 
L 122.22359 2.506413 
L 122.420545 3.167709 
L 123.373459 7.68693 
L 123.385045 7.676425 
L 123.586344 7.206384 
L 123.829642 5.877831 
L 124.319133 2.672627 
L 124.639185 1.85772 
L 124.646426 1.862182 
L 124.814417 2.137789 
L 125.047576 3.183484 
L 125.846982 7.184386 
L 126.000491 7.058153 
L 126.175723 6.433467 
L 127.185117 1.287562 
L 127.198151 1.294971 
L 127.418277 1.512968 
L 127.44 1.510659 
L 127.44 1.510659 
" clip-path="url(#pf0543d102a)" style="fill: none; stroke: #5f4690; stroke-width: 0.5; stroke-linecap: square"/>
   </g>
  </g>
  <g id="axes_2">
   <g id="patch_3">
    <path d="M 0 56.64 
L 127.44 56.64 
L 127.44 28.32 
L 0 28.32 
L 0 56.64 
z
" style="fill: none"/>
   </g>
   <g id="matplotlib.axis_3">
    <g id="xtick_10"/>
    <g id="xtick_11"/>
    <g id="xtick_12"/>
    <g id="xtick_13"/>
    <g id="xtick_14"/>
    <g id="xtick_15"/>
    <g id="xtick_16"/>
    <g id="xtick_17"/>
    <g id="xtick_18"/>
   </g>
   <g id="matplotlib.axis_4">
    <g id="ytick_4"/>
    <g id="ytick_5"/>
    <g id="ytick_6"/>
   </g>
   <g id="line2d_2">
    <path d="M 0 42.47986 
L 0.089788 42.564393 
L 0.124545 42.543391 
L 0.152061 42.475717 
L 0.230264 42.325329 
L 0.282399 42.432126 
L 0.395358 42.730762 
L 0.448941 42.615002 
L 0.589417 42.163032 
L 0.647345 42.295635 
L 0.809543 42.896546 
L 0.871815 42.746083 
L 1.05284 41.999281 
L 1.118009 42.16172 
L 1.31786 43.063296 
L 1.387374 42.879416 
L 1.603155 41.835738 
L 1.674117 42.030779 
L 1.905829 43.230767 
L 1.979687 43.022303 
L 2.225881 41.671123 
L 2.304083 41.902135 
L 2.563311 43.399238 
L 2.642962 43.156214 
L 2.915223 41.507008 
L 2.99777 41.764495 
L 3.283065 43.566898 
L 3.368509 43.29025 
L 3.66539 41.343172 
L 3.752282 41.631022 
L 4.060748 43.737203 
L 4.151984 43.424017 
L 4.470588 41.175858 
L 4.560376 41.485299 
L 4.892014 43.908475 
L 4.989043 43.555531 
L 5.326473 41.00841 
L 5.420606 41.341532 
L 5.773967 44.080649 
L 5.876789 43.681752 
L 6.233045 40.843594 
L 6.327178 41.183326 
L 6.55889 43.537999 
L 6.702262 44.250163 
L 6.741363 44.190238 
L 6.845633 43.515908 
L 7.184512 40.680425 
L 7.24244 40.810964 
L 7.372777 41.887796 
L 7.676899 44.417908 
L 7.707311 44.381647 
L 7.7971 43.888808 
L 8.180872 40.519513 
L 8.272109 40.83199 
L 8.458926 42.821829 
L 8.694982 44.583211 
L 8.712361 44.571509 
L 8.783323 44.29344 
L 8.958555 42.450379 
L 9.220678 40.357102 
L 9.233712 40.364268 
L 9.300329 40.597392 
L 9.459631 42.202062 
L 9.756512 44.754498 
L 9.769546 44.746555 
L 9.837611 44.50037 
L 9.999809 42.830479 
L 10.301034 40.19256 
L 10.31262 40.198803 
L 10.377789 40.419334 
L 10.531298 41.953 
L 10.855694 44.92116 
L 10.870176 44.91217 
L 10.93969 44.653227 
L 11.103336 42.929243 
L 11.420492 40.033131 
L 11.430629 40.037609 
L 11.492902 40.233985 
L 11.637721 41.63438 
L 11.995426 45.089662 
L 12.014253 45.073793 
L 12.089559 44.749808 
L 12.267688 42.724488 
L 12.577602 39.868533 
L 12.581947 39.869377 
L 12.638426 40.009062 
L 12.767316 41.129002 
L 13.169915 45.261289 
L 13.213361 45.189823 
L 13.31908 44.457339 
L 13.772366 39.704573 
L 13.862154 40.011327 
L 14.028697 41.872951 
L 14.383505 45.430207 
L 14.38785 45.429013 
L 14.445778 45.27769 
L 14.576116 44.111557 
L 15.001886 39.541332 
L 15.04678 39.6192 
L 15.153947 40.38475 
L 15.630404 45.5989 
L 15.725985 45.251449 
L 15.898321 43.233776 
L 16.266163 39.379862 
L 16.267611 39.379994 
L 16.322643 39.500716 
L 16.442843 40.496676 
L 16.912059 45.768744 
L 16.980125 45.588888 
L 17.116255 44.293007 
L 17.565197 39.219926 
L 17.605746 39.284933 
L 17.70712 39.965476 
L 17.967796 43.719794 
L 18.227023 45.934057 
L 18.282055 45.815869 
L 18.400807 44.838354 
L 18.896091 39.060024 
L 18.97719 39.30795 
L 19.127803 40.911248 
L 19.573848 46.104001 
L 19.597019 46.083502 
L 19.675222 45.720985 
L 19.849006 43.593271 
L 20.257397 38.894242 
L 20.312429 38.99944 
L 20.428285 39.923111 
L 20.953981 46.2799 
L 21.052458 45.912004 
L 21.223346 43.829458 
L 21.654909 38.724465 
L 21.70994 38.841311 
L 21.827244 39.80724 
L 22.364526 46.456382 
L 22.464452 46.07313 
L 22.635339 43.956595 
L 23.079936 38.557695 
L 23.133519 38.6679 
L 23.249375 39.607842 
L 23.567979 44.704469 
L 23.804035 46.62874 
L 23.80838 46.627828 
L 23.864859 46.486959 
L 23.990853 45.363202 
L 24.535375 38.393051 
L 24.623715 38.689115 
L 24.778672 40.460404 
L 25.273956 46.803483 
L 25.297127 46.783094 
L 25.37533 46.417185 
L 25.544769 44.296104 
L 26.021227 38.223711 
L 26.024123 38.224389 
L 26.080603 38.363369 
L 26.2037 39.451092 
L 26.77429 46.983508 
L 26.875664 46.58875 
L 27.045103 44.44408 
L 27.534594 38.048425 
L 27.538938 38.04952 
L 27.595418 38.193776 
L 27.719963 39.316382 
L 28.070427 45.293473 
L 28.302139 47.170169 
L 28.305035 47.16955 
L 28.361515 47.029135 
L 28.484612 45.930566 
L 28.806112 40.362077 
L 29.065339 37.874066 
L 29.094303 37.886523 
L 29.124716 37.967796 
L 29.236227 38.843309 
L 29.486765 43.03744 
L 29.822747 47.306743 
L 29.8604 47.344565 
L 29.909639 47.231759 
L 30.025495 46.270927 
L 30.296308 41.614501 
L 30.612015 37.755312 
L 30.64822 37.721403 
L 30.697459 37.83494 
L 30.814763 38.813025 
L 31.087024 43.519638 
L 31.405628 47.454119 
L 31.443281 47.491169 
L 31.49252 47.378625 
L 31.608376 46.421747 
L 31.871948 41.885827 
L 32.203585 37.631314 
L 32.245583 37.582688 
L 32.29627 37.700491 
L 32.415022 38.700377 
L 32.684387 43.39329 
L 33.013128 47.601757 
L 33.055126 47.650138 
L 33.104364 47.538207 
L 33.22022 46.584515 
L 33.476551 42.15246 
L 33.825567 37.468465 
L 33.870461 37.409577 
L 33.921148 37.525737 
L 34.038452 38.508716 
L 34.299128 43.083911 
L 34.646696 47.786592 
L 34.69159 47.848524 
L 34.743725 47.729001 
L 34.861029 46.735511 
L 35.120256 42.145647 
L 35.472169 37.287149 
L 35.518511 37.218714 
L 35.570646 37.336387 
L 35.686502 38.310411 
L 35.939937 42.79623 
L 36.304883 47.958307 
L 36.352673 48.030842 
L 36.404808 47.912393 
L 36.520664 46.937079 
L 36.774099 42.439371 
L 37.143389 37.149495 
L 37.194076 37.069389 
L 37.246211 37.190124 
L 37.363515 38.184746 
L 37.619847 42.761426 
L 37.989137 48.090762 
L 38.041272 48.179215 
L 38.094856 48.056452 
L 38.213608 47.042153 
L 38.469939 42.443148 
L 38.843574 37.007635 
L 38.895709 36.918099 
L 38.949293 37.039501 
L 39.066597 38.034492 
L 39.320031 42.582239 
L 39.702356 48.262261 
L 39.757387 48.359689 
L 39.809522 48.240874 
L 39.926826 47.247419 
L 40.177365 42.737383 
L 40.568378 36.835129 
L 40.62341 36.736008 
L 40.675545 36.853674 
L 40.791401 37.829519 
L 41.036146 42.227421 
L 41.440194 48.445534 
L 41.495225 48.547021 
L 41.548809 48.425113 
L 41.666113 47.422495 
L 41.915203 42.895743 
L 42.316354 36.681161 
L 42.374282 36.570571 
L 42.426417 36.688895 
L 42.543721 37.68389 
L 42.789914 42.151412 
L 43.199755 48.593307 
L 43.259131 48.710694 
L 43.311266 48.593573 
L 43.42857 47.601797 
L 43.671867 43.191956 
L 44.091845 36.531615 
L 44.149773 36.417233 
L 44.203356 36.537585 
L 44.32066 37.535515 
L 44.565406 41.995297 
L 44.986831 48.754835 
L 45.047656 48.87974 
L 45.101239 48.75852 
L 45.218543 47.757728 
L 45.463288 43.280469 
L 45.890507 36.372243 
L 45.951331 36.24852 
L 46.003466 36.365355 
L 46.119322 37.341109 
L 46.358275 41.688235 
L 46.799975 48.942279 
L 46.859352 49.064482 
L 46.912935 48.945392 
L 47.030239 47.945784 
L 47.272088 43.500053 
L 47.713789 36.205273 
L 47.774613 36.080175 
L 47.828196 36.202602 
L 47.9455 37.208745 
L 48.185901 41.637774 
L 48.631946 49.089522 
L 48.695667 49.226751 
L 48.747802 49.110696 
L 48.863658 48.136803 
L 49.099714 43.831304 
L 49.560241 36.063187 
L 49.622514 35.930304 
L 49.676097 36.04976 
L 49.791953 37.031155 
L 50.029458 41.38909 
L 50.494329 49.277121 
L 50.555154 49.406742 
L 50.608737 49.288758 
L 50.724593 48.308409 
L 50.960649 43.964274 
L 51.432762 35.873324 
L 51.493586 35.746117 
L 51.547169 35.866891 
L 51.664473 36.873132 
L 51.901978 41.289255 
L 52.374091 49.448847 
L 52.436363 49.585736 
L 52.489946 49.468018 
L 52.605802 48.487469 
L 52.84041 44.159668 
L 53.325557 35.728839 
L 53.387829 35.599398 
L 53.439965 35.716514 
L 53.55582 36.694223 
L 53.78898 40.989615 
L 54.282816 49.624797 
L 54.34364 49.75059 
L 54.397224 49.629449 
L 54.514528 48.623978 
L 54.749136 44.253787 
L 55.240075 35.564725 
L 55.303796 35.421504 
L 55.357379 35.539975 
L 55.471787 36.506631 
L 55.70205 40.760656 
L 56.210368 49.810006 
L 56.271192 49.934109 
L 56.323327 49.816889 
L 56.439183 48.835289 
L 56.670895 44.533776 
L 57.180661 35.402369 
L 57.242933 35.269388 
L 57.296517 35.38992 
L 57.412372 36.376056 
L 57.644084 40.686416 
L 58.159643 49.968358 
L 58.221915 50.099864 
L 58.275499 49.977355 
L 58.392803 48.967771 
L 58.625963 44.590564 
L 59.140073 35.239757 
L 59.205242 35.095369 
L 59.257377 35.212093 
L 59.373233 36.195485 
L 59.603496 40.493881 
L 60.132089 50.155001 
L 60.192913 50.283446 
L 60.246496 50.16323 
L 60.362352 49.174568 
L 60.592616 44.864975 
L 61.125553 35.06993 
L 61.187825 34.939017 
L 61.23996 35.055407 
L 61.354368 36.01796 
L 61.580287 40.205775 
L 62.129154 50.333607 
L 62.187082 50.44976 
L 62.240665 50.330601 
L 62.356521 49.344667 
L 62.585337 45.059776 
L 63.132756 34.894458 
L 63.192132 34.771106 
L 63.245715 34.889842 
L 63.361571 35.877567 
L 63.590386 40.175465 
L 64.140702 50.495716 
L 64.202974 50.628334 
L 64.256557 50.506735 
L 64.373862 49.494829 
L 64.604125 45.133594 
L 65.157337 34.736743 
L 65.218161 34.608646 
L 65.271744 34.728075 
L 65.3876 35.716429 
L 65.614967 39.991591 
L 66.181213 50.679813 
L 66.240589 50.797665 
L 66.292724 50.680178 
L 66.40858 49.695878 
L 66.634499 45.452215 
L 67.209434 34.550053 
L 67.265913 34.439997 
L 67.319497 34.55947 
L 67.435353 35.549486 
L 67.661272 39.811528 
L 68.239103 50.860312 
L 68.297031 50.977368 
L 68.350614 50.858874 
L 68.46647 49.870197 
L 68.692389 45.607746 
L 69.277461 34.395037 
L 69.335389 34.284436 
L 69.387524 34.402571 
L 69.50338 35.389088 
L 69.729299 39.652699 
L 70.320164 51.038883 
L 70.376643 51.149097 
L 70.430227 51.030013 
L 70.546083 50.039812 
L 70.770553 45.79565 
L 71.367211 34.221617 
L 71.423691 34.1123 
L 71.477274 34.232742 
L 71.59313 35.225871 
L 71.817601 39.481816 
L 72.420051 51.215736 
L 72.476531 51.322334 
L 72.530114 51.199648 
L 72.64597 50.203535 
L 72.871889 45.908073 
L 73.477236 34.06488 
L 73.533716 33.95542 
L 73.587299 34.075473 
L 73.703155 35.066945 
L 73.927626 39.330035 
L 74.541662 51.400455 
L 74.596693 51.502706 
L 74.650276 51.380351 
L 74.767581 50.364042 
L 74.992051 46.069009 
L 75.608984 33.893279 
L 75.664015 33.791637 
L 75.717599 33.913414 
L 75.833454 34.909484 
L 76.057925 39.186972 
L 76.683547 51.573884 
L 76.73713 51.670249 
L 76.790714 51.548375 
L 76.906569 50.552703 
L 77.129592 46.303459 
L 77.763903 33.711259 
L 77.816038 33.625476 
L 77.868173 33.746394 
L 77.985477 34.761113 
L 78.209948 39.071012 
L 78.844259 51.75337 
L 78.897842 51.847404 
L 78.949977 51.729748 
L 79.065833 50.740329 
L 79.288856 46.489937 
L 79.934752 33.552327 
L 79.986887 33.468354 
L 80.039022 33.590844 
L 80.156326 34.608062 
L 80.380797 38.928082 
L 81.025245 51.92955 
L 81.078829 52.022536 
L 81.130964 51.903278 
L 81.24682 50.91013 
L 81.468394 46.678219 
L 82.127324 33.378458 
L 82.176563 33.30279 
L 82.228698 33.423439 
L 82.344554 34.419013 
L 82.56468 38.623124 
L 83.232299 52.125807 
L 83.278642 52.19431 
L 83.330777 52.076527 
L 83.446633 51.086261 
L 83.668207 46.850475 
L 84.338723 33.210016 
L 84.386513 33.138777 
L 84.438649 33.258716 
L 84.554504 34.253857 
L 84.774631 38.46812 
L 85.453836 52.30948 
L 85.49873 52.371698 
L 85.550865 52.251454 
L 85.666721 51.256105 
L 85.888295 47.002779 
L 86.570396 33.042467 
L 86.616739 32.978861 
L 86.667426 33.096154 
L 86.783282 34.086154 
L 87.004856 38.33562 
L 87.694198 52.489299 
L 87.737644 52.548072 
L 87.789779 52.429553 
L 87.905635 51.436168 
L 88.125761 47.210149 
L 88.822345 32.86683 
L 88.865791 32.813384 
L 88.916478 32.932671 
L 89.032334 33.927807 
L 89.25246 38.158828 
L 89.954836 52.668282 
L 89.996834 52.719672 
L 90.047521 52.603284 
L 90.161928 51.632698 
L 90.379158 47.495458 
L 91.097464 32.684694 
L 91.133669 32.649869 
L 91.182908 32.76238 
L 91.297316 33.726643 
L 91.513097 37.82657 
L 92.240093 52.864778 
L 92.274849 52.895972 
L 92.32264 52.788463 
L 92.435599 51.852381 
L 92.649933 47.819442 
L 93.392859 32.506675 
L 93.423271 32.490586 
L 93.468165 32.594722 
L 93.581124 33.527933 
L 93.794009 37.527039 
L 94.545624 53.059223 
L 94.574588 53.071557 
L 94.618034 52.969429 
L 94.728097 52.075721 
L 94.938086 48.182228 
L 95.709976 32.331059 
L 95.73894 32.339148 
L 95.7708 32.422328 
L 95.879415 33.278696 
L 96.085059 37.023949 
L 96.88012 53.248041 
L 96.933703 53.141496 
L 97.045215 52.226048 
L 97.256652 48.267674 
L 98.032886 32.166883 
L 98.060402 32.170271 
L 98.095158 32.257291 
L 98.205221 33.132571 
L 98.413762 36.97312 
L 99.211719 53.421931 
L 99.266751 53.31676 
L 99.378262 52.40587 
L 99.588251 48.483312 
L 100.377519 32.001859 
L 100.406483 32.011006 
L 100.438343 32.0948 
L 100.546958 32.955928 
L 100.752602 36.72082 
L 101.56649 53.598163 
L 101.570834 53.597394 
L 101.627314 53.455817 
L 101.747514 52.359968 
L 101.971985 47.862406 
L 102.70767 31.901981 
L 102.754012 31.837475 
L 102.804699 31.954377 
L 102.919107 32.92838 
L 103.134888 37.076747 
L 103.916915 53.760995 
L 103.945879 53.77183 
L 103.987877 53.6744 
L 104.09794 52.789407 
L 104.305033 48.954082 
L 105.129057 31.675826 
L 105.131954 31.676278 
L 105.186985 31.806123 
L 105.304289 32.841795 
L 105.524416 37.175022 
L 106.297753 53.922014 
L 106.331062 53.949139 
L 106.378852 53.840751 
L 106.490364 52.917577 
L 106.701801 48.923648 
L 107.522929 31.51376 
L 107.577961 31.616554 
L 107.689472 32.525209 
L 107.898012 36.429054 
L 108.732175 54.124728 
L 108.736519 54.123895 
L 108.792999 53.981167 
L 108.913199 52.881576 
L 109.13767 48.35484 
L 109.906663 31.397062 
L 109.945765 31.35187 
L 109.996452 31.466392 
L 110.110859 32.436231 
L 110.325193 36.560895 
L 111.147769 54.297344 
L 111.176733 54.283481 
L 111.205697 54.206274 
L 111.314312 53.35118 
L 111.518508 49.608149 
L 112.374393 31.188912 
L 112.396116 31.206054 
L 112.471423 31.544802 
L 112.624932 33.512424 
L 112.91602 40.746903 
L 113.472128 53.872885 
L 113.598121 54.474869 
L 113.640119 54.407753 
L 113.740044 53.711409 
L 113.931206 50.465369 
L 114.397526 37.385549 
L 114.734957 31.341328 
L 114.827641 31.027369 
L 114.87688 31.126406 
L 114.986943 32.010327 
L 115.192587 35.83177 
L 116.05861 54.651157 
L 116.077436 54.637072 
L 116.148398 54.339155 
L 116.296114 52.537288 
L 116.571272 45.883877 
L 117.178067 31.380125 
L 117.295371 30.866373 
L 117.338817 30.941285 
L 117.441639 31.689054 
L 117.635698 35.071399 
L 118.126637 48.975588 
L 118.452482 54.565637 
L 118.537925 54.826554 
L 118.588612 54.718716 
L 118.701572 53.780182 
L 118.913009 49.746071 
L 119.780479 30.705662 
L 119.789169 30.708618 
L 119.849993 30.890227 
L 119.977434 32.166688 
L 120.213491 37.228716 
L 120.976691 54.894213 
L 121.034619 55.001182 
L 121.086754 54.879098 
L 121.20261 53.875408 
L 121.41984 49.611064 
L 122.278621 30.545387 
L 122.322067 30.600279 
L 122.333653 30.639458 
L 122.442268 31.496992 
L 122.645016 35.228714 
L 123.54145 55.178034 
L 123.577655 55.130158 
L 123.671788 54.536785 
L 123.851365 51.67623 
L 124.220655 41.307624 
L 124.663804 31.130487 
L 124.805727 30.383515 
L 124.840484 30.433212 
L 124.934617 31.030151 
L 125.115642 33.928162 
L 125.484932 44.337475 
L 125.929529 54.593732 
L 126.072901 55.352696 
L 126.107658 55.301695 
L 126.20179 54.702303 
L 126.382815 51.798765 
L 126.753554 41.319674 
L 127.193806 31.152035 
L 127.398002 30.227825 
L 127.44 30.199645 
L 127.44 30.199645 
" clip-path="url(#p5918f402c7)" style="fill: none; stroke: #1d6996; stroke-width: 0.5; stroke-linecap: square"/>
   </g>
   <g id="line2d_3">
    <path d="M 0 42.479811 
L 0.082547 42.472868 
L 0.112959 42.540682 
L 0.165095 42.604378 
L 0.215782 42.498832 
L 0.309914 42.279624 
L 0.363498 42.392827 
L 0.489491 42.771299 
L 0.545971 42.646782 
L 0.698032 42.113737 
L 0.757408 42.254609 
L 0.929743 42.937879 
L 0.993464 42.779676 
L 1.184626 41.946324 
L 1.251243 42.120744 
L 1.459784 43.104138 
L 1.529297 42.914025 
L 1.753768 41.779265 
L 1.826178 41.985038 
L 2.065131 43.271416 
L 2.140437 43.051798 
L 2.393872 41.611144 
L 2.472074 41.848189 
L 2.738543 43.437762 
L 2.819642 43.183412 
L 3.097696 41.443676 
L 3.181692 41.710868 
L 3.472779 43.604426 
L 3.559671 43.317776 
L 3.862345 41.275029 
L 3.950685 41.575026 
L 4.264944 43.773111 
L 4.35618 43.45324 
L 4.680577 41.105381 
L 4.773262 41.434961 
L 5.109244 43.942015 
L 5.204825 43.590642 
L 5.549496 40.934672 
L 5.646525 41.293285 
L 6.002782 44.110139 
L 6.102708 43.727937 
L 6.467653 40.765831 
L 6.567579 41.149877 
L 6.942663 44.277221 
L 7.048381 43.858708 
L 7.430705 40.598054 
L 7.534976 41.010348 
L 7.802892 43.881928 
L 7.928886 44.442825 
L 7.970883 44.372086 
L 8.07805 43.636925 
L 8.438651 40.432146 
L 8.496579 40.566624 
L 8.625469 41.651239 
L 8.957106 44.607324 
L 8.988967 44.568019 
L 9.081651 44.037831 
L 9.488595 40.263277 
L 9.584176 40.616806 
L 9.776787 42.786921 
L 10.027325 44.775357 
L 10.03891 44.769655 
L 10.104079 44.550367 
L 10.257588 43.013402 
L 10.57764 40.097091 
L 10.592122 40.106236 
L 10.661636 40.367887 
L 10.82673 42.119866 
L 11.136645 44.937445 
L 11.146782 44.93328 
L 11.209055 44.739169 
L 11.353874 43.338321 
L 11.707235 39.931248 
L 11.72751 39.948984 
L 11.804264 40.29111 
L 11.988185 42.421666 
L 12.285066 45.103883 
L 12.289411 45.10298 
L 12.34589 44.963074 
L 12.47478 43.838932 
L 12.873034 39.76181 
L 12.915032 39.829358 
L 13.019302 40.541997 
L 13.47114 45.271711 
L 13.562377 44.951815 
L 13.731816 43.028329 
L 14.076487 39.592793 
L 14.080832 39.593683 
L 14.137312 39.734557 
L 14.264753 40.851676 
L 14.691971 45.43865 
L 14.739762 45.348667 
L 14.851273 44.508386 
L 15.316145 39.424073 
L 15.398692 39.6902 
L 15.553649 41.363941 
L 15.947559 45.603483 
L 15.960593 45.596364 
L 16.02721 45.361081 
L 16.177823 43.774652 
L 16.589111 39.256048 
L 16.60649 39.269378 
L 16.6789 39.568244 
L 16.842546 41.439154 
L 17.237904 45.769573 
L 17.243697 45.767852 
L 17.301625 45.61075 
L 17.431963 44.415674 
L 17.895386 39.090501 
L 17.947521 39.197852 
L 18.063377 40.125723 
L 18.561557 45.932431 
L 18.648449 45.638544 
L 18.806303 43.859744 
L 19.234969 38.923564 
L 19.246555 38.929736 
L 19.311724 39.151798 
L 19.456544 40.655706 
L 19.917071 46.099449 
L 19.947483 46.061369 
L 20.037271 45.549179 
L 20.240019 42.76212 
L 20.590483 38.760527 
L 20.617999 38.758395 
L 20.655652 38.848138 
L 20.768611 39.725712 
L 21.085767 44.618119 
L 21.302997 46.269351 
L 21.314582 46.26378 
L 21.378303 46.053219 
L 21.520226 44.596261 
L 22.008269 38.579347 
L 22.050267 38.647948 
L 22.153089 39.36044 
L 22.39349 43.024087 
L 22.701956 46.426303 
L 22.729472 46.435488 
L 22.77147 46.339468 
L 22.884429 45.450906 
L 23.175517 40.799937 
L 23.436193 38.409418 
L 23.489776 38.500384 
L 23.491224 38.505857 
L 23.602735 39.374323 
L 23.879341 43.816081 
L 24.155947 46.601216 
L 24.183463 46.598169 
L 24.21822 46.512407 
L 24.329731 45.648024 
L 24.600544 41.273834 
L 24.887287 38.245059 
L 24.914803 38.240127 
L 24.953904 38.331407 
L 25.065416 39.200581 
L 25.333332 43.56232 
L 25.627317 46.767093 
L 25.654832 46.777017 
L 25.69683 46.681587 
L 25.80979 45.789807 
L 26.077706 41.381697 
L 26.374587 38.073186 
L 26.403551 38.05903 
L 26.448445 38.162782 
L 26.562853 39.088885 
L 26.836562 43.65741 
L 27.130546 46.940546 
L 27.160959 46.955486 
L 27.204405 46.854582 
L 27.318812 45.931397 
L 27.589625 41.380798 
L 27.892299 37.894722 
L 27.922711 37.875577 
L 27.969053 37.982133 
L 28.083461 38.915719 
L 28.351378 43.454642 
L 28.659844 47.10932 
L 28.693152 47.133851 
L 28.739495 47.026897 
L 28.853902 46.090558 
L 29.120371 41.546641 
L 29.43463 37.732332 
L 29.469387 37.702629 
L 29.517177 37.811757 
L 29.631585 38.751813 
L 29.896605 43.291706 
L 30.216657 47.256773 
L 30.252862 47.291814 
L 30.302101 47.179925 
L 30.417957 46.218322 
L 30.682977 41.64918 
L 31.005925 37.592175 
L 31.045026 37.551873 
L 31.094265 37.665969 
L 31.211569 38.646949 
L 31.479486 43.295423 
L 31.803882 47.393822 
L 31.842984 47.436834 
L 31.893671 47.32031 
L 32.009526 46.354307 
L 32.273099 41.780959 
L 32.607632 37.442849 
L 32.648182 37.394007 
L 32.698869 37.507462 
L 32.816173 38.48602 
L 33.079745 43.087069 
L 33.417175 47.546988 
L 33.460621 47.604414 
L 33.512756 47.484698 
L 33.63006 46.492971 
L 33.893632 41.84929 
L 34.235407 37.267559 
L 34.280301 37.208641 
L 34.330988 37.325923 
L 34.448292 38.317535 
L 34.70752 42.905806 
L 35.057984 47.726542 
L 35.104326 47.792809 
L 35.156461 47.671563 
L 35.273765 46.670279 
L 35.534441 42.014006 
L 35.887801 37.093823 
L 35.934144 37.024034 
L 35.986279 37.141121 
L 36.102135 38.116727 
L 36.355569 42.6232 
L 36.721964 47.875058 
L 36.772651 47.955784 
L 36.824786 47.834624 
L 36.94209 46.834079 
L 37.198421 42.240117 
L 37.564815 36.958185 
L 37.61695 36.871801 
L 37.669085 36.99167 
L 37.786389 37.987648 
L 38.041272 42.55491 
L 38.414907 48.014766 
L 38.467043 48.106307 
L 38.520626 47.985822 
L 38.63793 46.989506 
L 38.889916 42.464843 
L 39.272241 36.795363 
L 39.325824 36.702493 
L 39.377959 36.821015 
L 39.493815 37.797768 
L 39.742905 42.269218 
L 40.133919 48.185866 
L 40.18895 48.286396 
L 40.242534 48.163096 
L 40.359838 47.156184 
L 40.610376 42.604555 
L 41.002838 36.617272 
L 41.057869 36.514456 
L 41.111453 36.636086 
L 41.228757 37.641584 
L 41.477847 42.179456 
L 41.876101 48.348832 
L 41.932581 48.459996 
L 41.986164 48.340963 
L 42.103468 47.341105 
L 42.349662 42.858957 
L 42.756606 36.466057 
L 42.815982 36.349788 
L 42.868117 36.468959 
L 42.985421 37.468565 
L 43.231615 41.958197 
L 43.644351 48.497494 
L 43.703728 48.616332 
L 43.757311 48.493088 
L 43.874615 47.48664 
L 44.11936 43.009274 
L 44.53789 36.306312 
L 44.598714 36.183829 
L 44.650849 36.302261 
L 44.768153 37.301179 
L 45.010002 41.721211 
L 45.438669 48.666589 
L 45.498045 48.788039 
L 45.551629 48.667216 
L 45.668933 47.662543 
L 45.910782 43.218847 
L 46.343793 36.127914 
L 46.404617 36.002643 
L 46.458201 36.125916 
L 46.575505 37.136498 
L 46.817354 41.602544 
L 47.25471 48.829681 
L 47.315534 48.958739 
L 47.369117 48.838817 
L 47.486421 47.83445 
L 47.726822 43.398777 
L 48.171419 35.97315 
L 48.233692 35.83902 
L 48.287275 35.959674 
L 48.403131 36.945839 
L 48.642084 41.340521 
L 49.096818 48.98599 
L 49.157642 49.115168 
L 49.211226 48.996037 
L 49.327081 48.01283 
L 49.564586 43.643053 
L 50.026561 35.797432 
L 50.088834 35.666487 
L 50.140969 35.78394 
L 50.256825 36.765851 
L 50.492881 41.117177 
L 50.962097 49.164666 
L 51.022922 49.295211 
L 51.076505 49.176201 
L 51.192361 48.190061 
L 51.426969 43.850925 
L 51.901978 35.621215 
L 51.964251 35.486725 
L 52.017834 35.607681 
L 52.13369 36.597916 
L 52.368298 40.948775 
L 52.8491 49.32139 
L 52.911372 49.454867 
L 52.964956 49.332922 
L 53.08226 48.324245 
L 53.318316 43.921302 
L 53.800566 35.464859 
L 53.864287 35.323827 
L 53.91787 35.444415 
L 54.035174 36.45164 
L 54.269782 40.830056 
L 54.759273 49.486984 
L 54.822994 49.627122 
L 54.876577 49.505159 
L 54.992433 48.511599 
L 55.225593 44.15967 
L 55.723773 35.27761 
L 55.786046 35.141905 
L 55.839629 35.261556 
L 55.955485 36.251723 
L 56.187197 40.573893 
L 56.694066 49.659841 
L 56.756339 49.791036 
L 56.808474 49.673718 
L 56.92433 48.689062 
L 57.156041 44.370103 
L 57.668704 35.114491 
L 57.730976 34.979622 
L 57.784559 35.09927 
L 57.900415 36.088165 
L 58.130679 40.387104 
L 58.650582 49.830683 
L 58.712854 49.961122 
L 58.76499 49.843269 
L 58.880845 48.855141 
L 59.111109 44.543336 
L 59.636805 34.925479 
L 59.697629 34.796199 
L 59.751213 34.916419 
L 59.868517 35.927587 
L 60.100228 40.302811 
L 60.625924 49.990915 
L 60.688197 50.130109 
L 60.74178 50.012864 
L 60.856188 49.045229 
L 61.082107 44.839958 
L 61.626629 34.754031 
L 61.686006 34.630562 
L 61.739589 34.750522 
L 61.855445 35.740135 
L 62.08426 40.040398 
L 62.628783 50.173373 
L 62.689607 50.29798 
L 62.741742 50.180173 
L 62.85615 49.20962 
L 63.083517 44.949257 
L 63.636729 34.575866 
L 63.696105 34.452809 
L 63.749688 34.572685 
L 63.865544 35.565698 
L 64.094359 39.888507 
L 64.649019 50.338325 
L 64.709844 50.463912 
L 64.763427 50.340649 
L 64.880731 49.322658 
L 65.110994 44.9375 
L 65.665654 34.420414 
L 65.727927 34.285865 
L 65.78151 34.406494 
L 65.897366 35.400829 
L 66.124733 39.701716 
L 66.692427 50.511066 
L 66.751803 50.632731 
L 66.805386 50.511156 
L 66.921242 49.514278 
L 67.148609 45.200199 
L 67.722096 34.227701 
L 67.780024 34.109923 
L 67.833607 34.229179 
L 67.948015 35.203326 
L 68.172486 39.431256 
L 68.759006 50.688858 
L 68.815486 50.794761 
L 68.867621 50.676614 
L 68.983477 49.686417 
L 69.207947 45.441674 
L 69.798812 34.049395 
L 69.855292 33.943798 
L 69.907427 34.061993 
L 70.021835 35.034862 
L 70.246306 39.271787 
L 70.844411 50.861916 
L 70.899443 50.963908 
L 70.953026 50.840717 
L 71.07033 49.821015 
L 71.297697 45.460679 
L 71.890011 33.889314 
L 71.949387 33.771233 
L 72.001522 33.889023 
L 72.117378 34.879872 
L 72.341848 39.143342 
L 72.948644 51.022509 
L 73.003675 51.12643 
L 73.057258 51.005432 
L 73.173114 50.008954 
L 73.397585 45.7318 
L 74.008725 33.701609 
L 74.063756 33.597569 
L 74.11734 33.718398 
L 74.233195 34.715692 
L 74.457666 39.001556 
L 75.074599 51.195858 
L 75.12963 51.295254 
L 75.181765 51.176882 
L 75.297621 50.182966 
L 75.520644 45.932845 
L 76.146265 33.524496 
L 76.199849 33.429858 
L 76.251984 33.547904 
L 76.366391 34.521379 
L 76.587966 38.721588 
L 77.225173 51.380315 
L 77.27586 51.461657 
L 77.327995 51.340644 
L 77.443851 50.341727 
L 77.666873 46.072149 
L 78.302633 33.344702 
L 78.354768 33.253644 
L 78.408351 33.376305 
L 78.524207 34.378149 
L 78.747229 38.65492 
L 79.388781 51.539152 
L 79.440916 51.626508 
L 79.493052 51.506436 
L 79.608907 50.509731 
L 79.83193 46.234747 
L 80.480723 33.164679 
L 80.53141 33.083012 
L 80.583545 33.203799 
L 80.699401 34.202509 
L 80.920975 38.45129 
L 81.577009 51.718311 
L 81.626248 51.79533 
L 81.678383 51.674898 
L 81.794239 50.676538 
L 82.015813 46.423628 
L 82.67764 32.988735 
L 82.72543 32.913231 
L 82.779013 33.03609 
L 82.894869 34.038081 
L 83.116444 38.298609 
L 83.784063 51.889413 
L 83.830405 51.960091 
L 83.883989 51.837391 
L 83.999845 50.834809 
L 84.221419 46.5669 
L 84.894831 32.806997 
L 84.941173 32.73989 
L 84.993309 32.860561 
L 85.109164 33.859258 
L 85.330739 38.126388 
L 86.009944 52.058841 
L 86.056286 52.124766 
L 86.108421 52.002503 
L 86.224277 50.999773 
L 86.445851 46.723929 
L 87.129401 32.635377 
L 87.175743 32.568966 
L 87.227878 32.690609 
L 87.343734 33.692009 
L 87.56386 37.935388 
L 88.256099 52.234502 
L 88.299545 52.293096 
L 88.35168 52.17315 
L 88.466088 51.192959 
L 88.684766 47.001305 
L 89.390039 32.444212 
L 89.42914 32.399 
L 89.479827 32.514349 
L 89.594234 33.485075 
L 89.811464 37.630683 
L 90.526874 52.420491 
L 90.564527 52.45758 
L 90.613766 52.342938 
L 90.728174 51.371423 
L 90.945403 47.219341 
L 91.666606 32.262652 
L 91.702811 32.227756 
L 91.75205 32.341394 
L 91.866458 33.30959 
L 92.082239 37.424178 
L 92.812131 52.593204 
L 92.846888 52.62305 
L 92.894678 52.513522 
L 93.007638 51.569851 
L 93.221971 47.512956 
L 93.966345 32.073909 
L 93.996757 32.056726 
L 94.041651 32.160641 
L 94.153163 33.076743 
L 94.3646 37.036308 
L 95.126352 52.78208 
L 95.153868 52.784974 
L 95.192969 52.690362 
L 95.303032 51.802834 
L 95.513021 47.9093 
L 96.290703 31.884807 
L 96.321115 31.900151 
L 96.348631 31.974963 
L 96.455798 32.811019 
L 96.659994 36.510193 
L 97.462296 52.955837 
L 97.46664 52.954787 
L 97.52312 52.810157 
L 97.644769 51.685426 
L 97.873584 47.050739 
L 98.578857 31.802785 
L 98.63244 31.710345 
L 98.684575 31.830952 
L 98.798983 32.814005 
L 99.016212 37.006302 
L 99.775068 53.099692 
L 99.806929 53.120711 
L 99.853271 53.012745 
L 99.966231 52.070179 
L 100.179116 48.028969 
L 100.961143 31.544778 
L 100.988659 31.543682 
L 101.026312 31.635418 
L 101.134927 32.50048 
L 101.342019 36.315418 
L 102.157355 53.288254 
L 102.160251 53.28765 
L 102.216731 53.148331 
L 102.335483 52.072597 
L 102.558505 47.618018 
L 103.304328 31.416614 
L 103.346325 31.365283 
L 103.397012 31.482784 
L 103.512868 32.479144 
L 103.730098 36.69645 
L 104.510677 53.438403 
L 104.539641 53.451248 
L 104.583087 53.350462 
L 104.69315 52.456288 
L 104.90169 48.563877 
L 105.725715 31.194102 
L 105.727163 31.194238 
L 105.782195 31.317613 
L 105.899499 32.342924 
L 106.118177 36.63585 
L 106.900204 53.597502 
L 106.932064 53.616762 
L 106.976958 53.512067 
L 107.08847 52.593022 
L 107.298458 48.631508 
L 108.126828 31.023965 
L 108.180411 31.131259 
L 108.293371 32.069021 
L 108.504808 36.086698 
L 109.333177 53.785867 
L 109.38676 53.683986 
L 109.496823 52.792401 
L 109.703916 48.928372 
L 110.548215 30.85095 
L 110.556905 30.854238 
L 110.616281 31.032545 
L 110.743722 32.305699 
L 110.981227 37.37956 
L 111.703878 53.815415 
L 111.76615 53.953243 
L 111.819733 53.834361 
L 111.934141 52.854038 
L 112.148474 48.70083 
L 112.976844 30.68104 
L 113.008704 30.700068 
L 113.034772 30.773501 
L 113.143387 31.632283 
L 113.347583 35.392228 
L 114.210709 54.117974 
L 114.232432 54.09948 
L 114.307738 53.755997 
L 114.461247 51.774901 
L 114.750887 44.537792 
L 115.315684 31.098962 
L 115.441677 30.507373 
L 115.482227 30.574055 
L 115.580704 31.257543 
L 115.770418 34.464546 
L 116.210671 46.920817 
L 116.569824 53.864037 
L 116.675542 54.283232 
L 116.723333 54.192872 
L 116.830499 53.359726 
L 117.031799 49.69291 
L 117.912304 30.335961 
L 117.948509 30.383472 
L 118.042641 30.973824 
L 118.222218 33.830769 
L 118.595853 44.253383 
L 119.023072 53.773064 
L 119.157754 54.44787 
L 119.195407 54.389772 
L 119.292437 53.740863 
L 119.477806 50.675709 
L 119.878957 39.300912 
L 120.277211 30.773667 
L 120.404653 30.165354 
L 120.445202 30.23071 
L 120.545128 30.928077 
L 120.733394 34.121661 
L 121.154819 46.180193 
L 121.535696 54.068146 
L 121.657344 54.612758 
L 121.699342 54.538702 
L 121.802164 53.79089 
L 121.996223 50.39664 
L 122.458198 37.078703 
L 122.808662 30.39618 
L 122.912932 29.994656 
L 122.959275 30.082386 
L 123.064993 30.893221 
L 123.263396 34.473277 
L 124.171416 54.778051 
L 124.220655 54.685796 
L 124.327822 53.848241 
L 124.529121 50.163741 
L 125.435694 29.824112 
L 125.480588 29.899712 
L 125.581962 30.634347 
L 125.77602 34.02011 
L 126.223513 47.037585 
L 126.591356 54.451504 
L 126.705763 54.942433 
L 126.750658 54.862257 
L 126.854928 54.084711 
L 127.051883 50.578262 
L 127.44 42.663937 
L 127.44 42.663937 
" clip-path="url(#p5918f402c7)" style="fill: none; stroke: #38a6a5; stroke-width: 0.5; stroke-linecap: square"/>
   </g>
   <g id="line2d_4">
    <path d="M 0 42.492638 
L 5.367023 42.531211 
L 6.905009 42.526942 
L 11.584138 42.582339 
L 13.109091 42.577293 
L 13.898359 42.593732 
L 15.439242 42.607755 
L 16.452981 42.617989 
L 18.187922 42.607937 
L 19.09015 42.634203 
L 20.814954 42.632928 
L 21.772213 42.642141 
L 22.638235 42.600625 
L 24.584614 42.648142 
L 25.229062 42.645573 
L 25.97054 42.642793 
L 26.746774 42.649385 
L 27.499837 42.653971 
L 28.375997 42.64386 
L 29.087062 42.667188 
L 29.882123 42.657582 
L 30.659806 42.67675 
L 31.381008 42.676562 
L 32.148554 42.670182 
L 33.00299 42.686092 
L 33.780673 42.681452 
L 34.636558 42.695719 
L 35.447549 42.692662 
L 36.293297 42.706833 
L 37.094151 42.700338 
L 37.976103 42.719538 
L 38.765371 42.708497 
L 39.657462 42.737756 
L 40.527829 42.726922 
L 41.385162 42.752005 
L 42.241047 42.733327 
L 43.117207 42.768167 
L 43.975989 42.737404 
L 44.888354 42.781287 
L 45.776099 42.746011 
L 46.768115 42.780435 
L 47.618207 42.757939 
L 48.571122 42.795989 
L 49.46466 42.769568 
L 50.424816 42.810061 
L 51.263323 42.771081 
L 52.265476 42.829106 
L 53.229976 42.795015 
L 54.229233 42.831358 
L 55.092359 42.79559 
L 56.153888 42.842053 
L 57.009773 42.803523 
L 58.139368 42.848688 
L 58.97353 42.816359 
L 59.995958 42.880307 
L 60.947424 42.82737 
L 62.030677 42.886095 
L 62.97635 42.841929 
L 64.092911 42.889656 
L 64.989346 42.852351 
L 66.040738 42.918161 
L 67.054477 42.868166 
L 68.098627 42.930603 
L 69.07761 42.8728 
L 70.210101 42.937846 
L 71.275974 42.90458 
L 72.166616 42.973902 
L 73.372966 42.915335 
L 74.298364 42.98543 
L 75.504713 42.928057 
L 76.460524 42.995897 
L 77.645151 42.93937 
L 78.613995 43.01057 
L 79.798621 42.9495 
L 80.847117 43.015443 
L 81.933266 42.95197 
L 83.077342 43.024482 
L 84.085288 42.955946 
L 85.267018 43.043333 
L 86.432818 42.990093 
L 87.404559 43.073722 
L 88.749935 43.018165 
L 89.676782 43.086242 
L 90.864304 43.001969 
L 91.920041 43.105467 
L 93.130735 43.012547 
L 94.306672 43.10598 
L 95.426129 43.024889 
L 96.564413 43.130588 
L 97.722971 43.034188 
L 99.043728 43.118573 
L 99.954645 43.032101 
L 101.439048 43.124329 
L 102.389066 43.057195 
L 103.756165 43.150146 
L 104.730803 43.06607 
L 106.164519 43.161608 
L 107.171017 43.087308 
L 108.571425 43.177282 
L 109.4751 43.086791 
L 111.111564 43.168742 
L 111.873317 43.097791 
L 113.716873 43.149785 
L 114.44242 43.12789 
L 115.858758 43.232676 
L 116.824707 43.131143 
L 118.426414 43.229727 
L 119.311263 43.146799 
L 121.047653 43.217477 
L 121.747133 43.155358 
L 123.440076 43.260622 
L 124.230793 43.168138 
L 125.163432 43.343594 
L 125.833948 43.306336 
L 126.775277 43.184613 
L 127.44 43.288967 
L 127.44 43.288967 
" clip-path="url(#p5918f402c7)" style="fill: none; stroke: #0f8554; stroke-width: 0.5; stroke-linecap: square"/>
   </g>
  </g>
  <g id="axes_3">
   <g id="patch_4">
    <path d="M 0 84.96 
L 127.44 84.96 
L 127.44 56.64 
L 0 56.64 
L 0 84.96 
z
" style="fill: none"/>
   </g>
   <g id="matplotlib.axis_5">
    <g id="xtick_19"/>
    <g id="xtick_20"/>
    <g id="xtick_21"/>
    <g id="xtick_22"/>
    <g id="xtick_23"/>
    <g id="xtick_24"/>
    <g id="xtick_25"/>
    <g id="xtick_26"/>
    <g id="xtick_27"/>
   </g>
   <g id="matplotlib.axis_6">
    <g id="ytick_7"/>
    <g id="ytick_8"/>
    <g id="ytick_9"/>
   </g>
   <g id="line2d_5">
    <path d="M 0 70.799942 
L 0.616932 70.799286 
L 0.913813 70.802324 
L 1.561158 70.810781 
L 2.464833 70.810987 
L 4.108539 70.840247 
L 4.514034 70.855894 
L 4.897807 70.844732 
L 6.335867 70.876998 
L 7.891232 70.893047 
L 8.377827 70.89218 
L 10.190971 70.943718 
L 10.393719 70.938944 
L 11.08451 70.938925 
L 11.794127 70.923033 
L 12.005564 70.923519 
L 14.273442 70.947186 
L 14.531221 70.965233 
L 15.3118 70.975675 
L 15.757845 70.978469 
L 16.340021 71.023519 
L 16.718001 70.97326 
L 25.071209 71.077456 
L 25.428914 71.115913 
L 25.676555 71.149186 
L 25.822823 71.155929 
L 31.139159 71.15368 
L 31.304254 71.157567 
L 32.267306 71.257923 
L 33.427313 71.247523 
L 33.79081 71.275841 
L 34.549666 71.216446 
L 35.378036 71.299996 
L 35.845804 71.277897 
L 36.500389 71.239218 
L 37.139045 71.336967 
L 37.508335 71.303737 
L 37.845766 71.246621 
L 41.198345 71.29356 
L 41.612529 71.284771 
L 42.241047 71.418571 
L 43.823928 71.424451 
L 44.11936 71.434521 
L 45.661692 71.446735 
L 45.94409 71.44574 
L 47.083822 71.390531 
L 47.309741 71.439411 
L 51.12864 71.512546 
L 51.335732 71.54148 
L 51.810741 71.485079 
L 52.481257 71.413703 
L 53.983039 71.430938 
L 54.462393 71.464329 
L 54.72162 71.540043 
L 55.387791 71.564736 
L 55.603573 71.514809 
L 55.775908 71.486575 
L 56.158233 71.459127 
L 56.346498 71.496428 
L 56.864953 71.588294 
L 57.121285 71.602115 
L 57.762836 71.506176 
L 58.217571 71.489263 
L 58.457972 71.536775 
L 58.859122 71.614308 
L 59.038699 71.634797 
L 59.226965 71.633211 
L 59.726593 71.521084 
L 59.981476 71.483233 
L 60.553514 71.604276 
L 60.973492 71.677276 
L 61.17624 71.661837 
L 61.344231 71.625448 
L 61.528152 71.585814 
L 62.062537 71.515914 
L 63.053105 71.677145 
L 63.270334 71.66281 
L 63.639625 71.570418 
L 64.000226 71.537491 
L 65.840886 71.578335 
L 66.114596 71.548168 
L 66.644636 71.662448 
L 66.815524 71.715352 
L 67.248535 71.737481 
L 67.900224 71.586229 
L 68.971891 71.754115 
L 69.562756 71.705016 
L 70.648905 71.690777 
L 70.86179 71.739994 
L 71.152878 71.782982 
L 71.512031 71.771187 
L 72.728517 71.703212 
L 73.407722 71.820498 
L 73.677087 71.78589 
L 74.965984 71.779746 
L 75.396099 71.842446 
L 76.047788 71.768107 
L 76.385218 71.70668 
L 76.59231 71.705114 
L 76.783473 71.722805 
L 77.367096 71.85858 
L 77.595912 71.882792 
L 77.898585 71.863034 
L 78.835569 71.725497 
L 80.041919 71.888029 
L 80.409761 71.814046 
L 80.729813 71.756043 
L 81.084621 71.779028 
L 81.898509 71.944314 
L 82.088223 71.935383 
L 82.529923 71.861029 
L 83.128029 71.780119 
L 83.338018 71.810996 
L 83.533525 71.878321 
L 83.724687 71.925347 
L 84.600847 71.917017 
L 84.948414 71.838982 
L 85.972291 71.980043 
L 86.348822 72.003066 
L 87.31477 71.852763 
L 87.545034 71.842409 
L 88.041766 71.967008 
L 88.256099 72.022681 
L 88.411056 72.039137 
L 88.703593 72.033093 
L 89.308939 71.930898 
L 89.891115 71.885031 
L 91.088775 72.059458 
L 91.259662 72.034074 
L 92.030104 71.906472 
L 92.500768 72.019538 
L 92.674552 72.083481 
L 94.545624 71.982626 
L 95.05539 72.152383 
L 95.371097 72.151524 
L 95.815694 72.113715 
L 96.755575 71.955603 
L 96.95253 71.980704 
L 97.136451 72.006181 
L 98.176257 72.144758 
L 99.705555 72.11554 
L 99.925681 72.16342 
L 100.435447 72.18267 
L 100.861217 72.088484 
L 101.450634 72.012849 
L 102.990069 72.185716 
L 103.459285 72.059924 
L 103.714168 72.030328 
L 104.126904 72.082839 
L 104.426681 72.168656 
L 105.873431 72.085364 
L 106.063145 72.049521 
L 106.328166 72.063885 
L 106.578704 72.115322 
L 106.823449 72.204108 
L 107.13626 72.279852 
L 108.280337 72.108331 
L 108.569976 72.070361 
L 108.706107 72.080514 
L 109.039193 72.173366 
L 109.412828 72.284206 
L 109.866114 72.332382 
L 110.821925 72.112069 
L 111.068119 72.103247 
L 111.296934 72.153611 
L 111.525749 72.224889 
L 112.55397 72.327237 
L 112.853747 72.238563 
L 114.100646 72.299877 
L 114.582896 72.391783 
L 116.188948 72.200217 
L 116.384454 72.259963 
L 116.729126 72.377056 
L 117.361988 72.40306 
L 117.547358 72.364409 
L 118.676952 72.216311 
L 119.02452 72.354702 
L 119.209889 72.404564 
L 120.029569 72.386252 
L 120.52775 72.21944 
L 120.716015 72.169877 
L 121.008551 72.189667 
L 121.127304 72.246928 
L 121.140338 72.2402 
L 121.354671 72.314112 
L 121.534247 72.385693 
L 121.537144 72.383589 
L 121.670378 72.42529 
L 122.02229 72.47323 
L 123.532761 72.226171 
L 124.89986 72.477222 
L 126.042489 72.268153 
L 126.062763 72.247203 
L 126.217721 72.308691 
L 126.571081 72.443585 
L 126.801345 72.509637 
L 127.138775 72.521943 
L 127.44 72.521754 
L 127.44 72.521754 
" clip-path="url(#p82d2a4cea1)" style="fill: none; stroke: #73af48; stroke-width: 0.5; stroke-linecap: square"/>
   </g>
   <g id="line2d_6">
    <path d="M 0 70.799984 
L 1.577088 70.898321 
L 1.781284 70.873881 
L 2.008651 70.886257 
L 2.347529 70.915564 
L 3.484365 70.980805 
L 3.791383 70.992539 
L 4.253358 70.994962 
L 4.692162 71.024266 
L 5.170068 71.065435 
L 5.427847 71.090203 
L 5.831894 71.052082 
L 6.522685 71.116164 
L 7.174374 71.166085 
L 7.524838 71.171503 
L 8.076602 71.212241 
L 8.518302 71.214667 
L 9.064273 71.251135 
L 10.89914 71.272552 
L 11.217744 71.326033 
L 11.579793 71.454232 
L 12.453057 71.450203 
L 12.765868 71.510318 
L 12.965719 71.434718 
L 13.314735 71.330184 
L 13.582652 71.494727 
L 13.872291 71.626131 
L 14.629699 71.465956 
L 14.961336 71.692072 
L 15.177118 71.629118 
L 15.639093 71.410162 
L 16.403742 71.668714 
L 16.875854 71.478227 
L 17.026467 71.568193 
L 17.431963 71.795276 
L 17.669467 71.699104 
L 18.147373 71.573764 
L 19.042359 71.745896 
L 19.757769 71.776913 
L 20.277672 71.873972 
L 20.956877 71.762137 
L 21.414508 71.999527 
L 21.712837 71.867475 
L 22.16033 71.776627 
L 22.665751 72.044794 
L 23.148001 71.884223 
L 23.452123 71.86182 
L 23.925684 72.057367 
L 24.279044 72.065368 
L 24.557098 71.980013 
L 24.8366 71.93187 
L 25.201546 72.042201 
L 25.381123 72.138591 
L 25.934335 72.067967 
L 26.264524 71.983345 
L 26.519407 72.072884 
L 26.945177 72.261949 
L 27.405704 72.083415 
L 28.701842 72.205049 
L 29.074029 72.119213 
L 29.259398 72.192037 
L 29.369461 72.255998 
L 29.599725 72.373961 
L 30.771317 72.3336 
L 31.409972 72.376952 
L 31.802434 72.321657 
L 32.190551 72.403655 
L 33.24484 72.509844 
L 34.270164 72.544789 
L 34.752414 72.65561 
L 35.514166 72.45345 
L 36.22668 72.776908 
L 36.487356 72.563523 
L 36.85375 72.420291 
L 37.042015 72.53608 
L 37.68936 72.862154 
L 38.464146 72.568716 
L 39.20852 72.91037 
L 40.290324 72.723116 
L 40.802986 72.99495 
L 41.385162 72.817025 
L 41.751556 72.713237 
L 42.115054 72.911933 
L 42.44814 73.090657 
L 42.717505 73.047775 
L 42.933286 72.930866 
L 43.230167 72.811991 
L 43.570493 72.899343 
L 44.078811 73.126025 
L 44.924559 72.969068 
L 45.986088 73.082937 
L 46.297451 73.104281 
L 46.681223 73.171709 
L 46.963622 73.170344 
L 47.421253 73.094224 
L 47.650068 73.114181 
L 48.171419 73.308275 
L 48.869451 73.168783 
L 49.493624 73.251801 
L 49.822365 73.385344 
L 49.996149 73.418617 
L 51.260426 73.321893 
L 51.760055 73.543014 
L 52.085899 73.462502 
L 52.47112 73.291912 
L 52.708624 73.295064 
L 53.754224 73.513986 
L 54.064138 73.438152 
L 54.498597 73.506046 
L 54.788237 73.542548 
L 55.082221 73.536619 
L 55.412411 73.561173 
L 55.7426 73.637331 
L 56.135062 73.653476 
L 56.36967 73.587704 
L 58.179917 73.680219 
L 58.355149 73.64421 
L 58.621618 73.627009 
L 58.932981 73.702484 
L 59.4804 73.902229 
L 59.639701 73.898111 
L 60.149467 73.747624 
L 60.802605 73.820314 
L 61.006801 73.905751 
L 61.365954 73.946137 
L 62.459343 73.899428 
L 62.793877 73.900348 
L 64.111738 74.029587 
L 64.775012 73.933171 
L 65.345603 74.159081 
L 65.775717 74.178921 
L 66.423062 74.033547 
L 66.606983 74.041256 
L 67.086337 74.159029 
L 67.387562 74.235294 
L 68.279652 74.193807 
L 68.818382 74.187067 
L 69.073265 74.219836 
L 69.963907 74.37213 
L 70.654697 74.268523 
L 70.912477 74.231106 
L 72.130411 74.490028 
L 72.693761 74.343627 
L 73.819011 74.554872 
L 75.029704 74.474403 
L 75.261416 74.473239 
L 76.731337 74.648538 
L 77.478608 74.577647 
L 77.661081 74.632813 
L 78.608202 74.81624 
L 78.857292 74.756683 
L 79.763865 74.729178 
L 80.117225 74.826324 
L 80.38659 74.899759 
L 80.844221 74.948226 
L 81.860856 74.766591 
L 82.987554 75.067966 
L 83.828957 74.857885 
L 85.326394 75.176552 
L 85.759405 75.024187 
L 85.885399 74.980964 
L 86.723905 75.145465 
L 87.126505 75.340504 
L 87.652201 75.271752 
L 88.571806 75.053228 
L 89.491412 75.478429 
L 90.567424 75.105096 
L 91.962039 75.587387 
L 92.697723 75.199133 
L 93.12639 75.254762 
L 93.466717 75.503529 
L 93.872212 75.7312 
L 94.400805 75.611694 
L 95.113318 75.276542 
L 95.424681 75.369309 
L 95.689701 75.569635 
L 95.785282 75.648753 
L 96.166158 75.878211 
L 96.520967 75.829402 
L 97.324717 75.342038 
L 97.501397 75.360603 
L 97.64332 75.42414 
L 98.186395 75.883198 
L 98.694712 75.996728 
L 99.334816 75.559663 
L 99.495566 75.48514 
L 99.786654 75.471785 
L 100.03864 75.606234 
L 100.855424 76.145609 
L 101.313055 75.919909 
L 101.404291 75.844301 
L 101.993708 75.559179 
L 102.34562 75.726424 
L 103.304328 76.213147 
L 103.67217 75.985732 
L 104.377442 75.714471 
L 105.522967 76.330025 
L 105.96322 76.133702 
L 106.613461 75.847943 
L 106.898756 75.916893 
L 107.476587 76.30729 
L 108.035591 76.378438 
L 108.281785 76.280731 
L 108.943612 76.033827 
L 109.292627 76.077705 
L 110.239749 76.508612 
L 110.717655 76.398119 
L 111.147769 76.223368 
L 111.763254 76.216144 
L 112.991326 76.595777 
L 113.194074 76.538704 
L 113.369306 76.470073 
L 113.589432 76.374455 
L 113.599569 76.388826 
L 113.705288 76.347882 
L 113.706736 76.346629 
L 113.935551 76.286334 
L 114.668339 76.509716 
L 115.033285 76.725853 
L 115.59229 76.728612 
L 115.780556 76.646603 
L 115.912342 76.576089 
L 116.081781 76.491784 
L 116.369972 76.381674 
L 116.817466 76.429832 
L 117.031799 76.560541 
L 117.364885 76.802673 
L 117.800792 76.96021 
L 117.960094 76.912954 
L 117.974576 76.948241 
L 118.061468 76.895628 
L 117.996299 76.918472 
L 118.068709 76.888968 
L 118.876804 76.433605 
L 119.689243 76.860706 
L 119.994813 77.078805 
L 120.449547 77.060407 
L 120.72036 76.863433 
L 120.988277 76.663928 
L 121.147578 76.580808 
L 121.58059 76.571804 
L 122.229383 77.074827 
L 122.495851 77.224864 
L 123.092509 77.024259 
L 123.283671 76.874918 
L 123.967221 76.679466 
L 124.238034 76.811508 
L 124.76373 77.238018 
L 125.138813 77.346196 
L 125.432797 77.230077 
L 125.563135 77.125981 
L 125.787606 76.952755 
L 125.797743 76.968585 
L 125.806432 76.974045 
L 125.828155 76.929311 
L 125.893324 76.913774 
L 126.067108 76.834167 
L 126.206135 76.818828 
L 126.211928 76.810032 
L 126.319095 76.793512 
L 126.339369 76.814014 
L 126.642043 76.908223 
L 126.882444 77.048025 
L 127.001196 77.142817 
L 127.344419 77.324394 
L 127.44 77.334505 
L 127.44 77.334505 
" clip-path="url(#p82d2a4cea1)" style="fill: none; stroke: #edad08; stroke-width: 0.5; stroke-linecap: square"/>
   </g>
   <g id="line2d_7">
    <path d="M 0 70.7999 
L 0.551764 70.761104 
L 2.052097 70.717071 
L 2.632824 70.702543 
L 3.07018 70.65579 
L 4.092608 70.632681 
L 7.46691 70.494018 
L 7.944816 70.488577 
L 9.915814 70.419222 
L 10.592122 70.364182 
L 11.062787 70.38734 
L 11.55807 70.32416 
L 15.653575 70.19167 
L 16.151755 70.180254 
L 16.835305 70.135738 
L 17.49858 70.120145 
L 18.143028 70.079796 
L 18.738237 70.082065 
L 19.704186 70.054953 
L 20.213952 69.995125 
L 20.712132 69.967727 
L 21.017702 69.982748 
L 25.342022 69.833755 
L 25.867718 69.803991 
L 26.460031 69.746696 
L 27.355017 69.758809 
L 27.735893 69.706813 
L 29.137749 69.665283 
L 31.449074 69.606144 
L 31.827053 69.613862 
L 33.855979 69.49104 
L 34.675659 69.484472 
L 35.304178 69.472245 
L 36.148477 69.399538 
L 37.343241 69.340747 
L 37.853007 69.331803 
L 40.701613 69.211549 
L 41.192552 69.189065 
L 42.394556 69.159158 
L 42.850739 69.114026 
L 45.053448 69.08717 
L 45.690656 69.081653 
L 46.330759 68.982845 
L 46.750737 69.010931 
L 47.526971 69.017421 
L 48.183005 68.907077 
L 49.503762 68.916814 
L 50.249584 68.845567 
L 51.500827 68.82201 
L 52.281406 68.795513 
L 52.724555 68.842244 
L 56.317535 68.686615 
L 57.040185 68.656703 
L 57.52678 68.561109 
L 63.247163 68.378533 
L 63.882922 68.346489 
L 65.041481 68.36178 
L 66.189902 68.304228 
L 66.866211 68.328569 
L 67.648238 68.186038 
L 68.243447 68.228896 
L 69.045749 68.23521 
L 70.268029 68.147683 
L 70.90958 68.193649 
L 76.944223 67.969156 
L 77.290342 67.970684 
L 78.991975 67.878731 
L 79.480018 67.891851 
L 80.567615 67.727773 
L 81.129516 67.801218 
L 81.581353 67.827491 
L 82.91804 67.662771 
L 83.282986 67.719866 
L 83.952054 67.733471 
L 90.12862 67.506139 
L 90.509496 67.517871 
L 91.200286 67.393579 
L 92.115548 67.38205 
L 92.862818 67.429399 
L 93.217627 67.37326 
L 94.250192 67.271146 
L 94.783129 67.353825 
L 96.623789 67.19045 
L 97.718627 67.242998 
L 98.961181 67.108781 
L 100.203735 67.12957 
L 101.187062 67.011354 
L 103.08565 66.929837 
L 103.436114 66.918784 
L 103.929949 67.001376 
L 104.90169 66.985855 
L 105.708337 66.834288 
L 106.131211 66.883737 
L 107.450519 66.873277 
L 108.139862 66.75919 
L 108.745208 66.85677 
L 109.195598 66.909493 
L 111.19556 66.78828 
L 111.63726 66.842942 
L 113.473576 66.682605 
L 114.478625 66.729825 
L 116.099159 66.645248 
L 116.617614 66.705417 
L 118.435103 66.547839 
L 118.975281 66.640972 
L 119.807995 66.492806 
L 120.258385 66.400572 
L 122.15118 66.473611 
L 123.218502 66.359171 
L 123.596482 66.44979 
L 123.889018 66.502501 
L 124.681182 66.40563 
L 125.571824 66.265358 
L 126.116347 66.39125 
L 126.456673 66.453517 
L 126.737624 66.446581 
L 127.44 66.305594 
L 127.44 66.305594 
" clip-path="url(#p82d2a4cea1)" style="fill: none; stroke: #e17c05; stroke-width: 0.5; stroke-linecap: square"/>
   </g>
   <g id="line2d_8">
    <path d="M 0 70.799864 
L 0.46632 70.764695 
L 1.012291 70.70149 
L 2.994874 70.473463 
L 3.238171 70.502387 
L 3.445264 70.496945 
L 3.968063 70.424314 
L 4.331561 70.381593 
L 4.653061 70.312995 
L 4.989043 70.354879 
L 5.188894 70.296342 
L 5.435088 70.218719 
L 6.034642 70.212976 
L 6.328626 70.142489 
L 6.570476 70.176445 
L 7.562491 70.049552 
L 7.952057 70.038449 
L 8.354656 69.937818 
L 8.686293 69.978103 
L 13.430591 69.568506 
L 13.659406 69.496603 
L 14.195239 69.311255 
L 14.487776 69.495136 
L 14.634044 69.509966 
L 15.362487 69.160841 
L 15.798395 69.425127 
L 16.044589 69.258885 
L 16.464566 68.983081 
L 17.200251 69.215778 
L 17.617332 68.863562 
L 17.976485 69.033073 
L 18.177785 69.158768 
L 18.342879 69.168169 
L 18.344328 69.166621 
L 18.822233 68.779752 
L 19.130699 68.781473 
L 19.738942 69.011175 
L 20.280569 68.582907 
L 20.561519 68.667753 
L 20.917776 68.955727 
L 21.22769 68.790623 
L 21.711389 68.411527 
L 22.099506 68.735409 
L 22.348596 68.812677 
L 22.507898 68.709556 
L 23.05242 68.302519 
L 23.21317 68.392309 
L 23.714247 68.633799 
L 23.989404 68.468555 
L 24.270355 68.256112 
L 24.96549 68.42044 
L 25.201546 68.476861 
L 25.207339 68.469213 
L 25.482497 68.333502 
L 26.126945 68.058124 
L 26.54113 68.358736 
L 27.52156 67.904826 
L 28.038567 68.209688 
L 28.260141 68.128377 
L 28.668533 67.781982 
L 28.974103 67.78715 
L 29.802472 67.899236 
L 30.625049 67.740052 
L 30.800281 67.780812 
L 31.091369 67.75238 
L 31.25936 67.724318 
L 32.685835 67.560711 
L 33.162292 67.601358 
L 33.837153 67.250266 
L 34.196306 67.504858 
L 34.467119 67.556577 
L 34.672763 67.410259 
L 35.107223 67.105362 
L 35.447549 67.23899 
L 35.754567 67.384718 
L 36.174545 67.176703 
L 36.593074 67.029469 
L 36.913126 67.149848 
L 37.341793 67.122484 
L 38.006516 66.964363 
L 38.367117 67.044867 
L 39.292516 66.810604 
L 40.01227 66.852501 
L 41.618322 66.714315 
L 41.828311 66.722669 
L 42.481448 66.433988 
L 43.719658 66.493698 
L 44.084604 66.233309 
L 44.364106 66.209434 
L 44.67402 66.379642 
L 44.886906 66.493156 
L 45.22868 66.420239 
L 46.039671 66.071949 
L 46.855007 66.232279 
L 47.086719 66.089999 
L 47.353187 65.959125 
L 48.239485 66.027453 
L 48.429199 66.000084 
L 48.949102 65.923546 
L 49.241638 65.880326 
L 49.922291 65.752367 
L 50.114901 65.776179 
L 50.403093 65.836953 
L 50.75935 65.794659 
L 51.017129 65.695564 
L 51.199602 65.649998 
L 51.473311 65.596085 
L 51.826672 65.563337 
L 52.039557 65.563292 
L 52.279958 65.606791 
L 52.497187 65.651405 
L 52.646352 65.658727 
L 53.108327 65.463819 
L 53.680365 65.286637 
L 54.300194 65.582661 
L 54.502942 65.499539 
L 55.267591 65.137856 
L 55.609366 65.275178 
L 56.213264 65.237987 
L 56.413116 65.176286 
L 56.568073 65.132317 
L 56.718685 65.108786 
L 56.902607 65.081307 
L 57.153145 65.042868 
L 57.29362 65.015814 
L 57.502161 64.998233 
L 57.635395 64.992766 
L 57.646981 65.0086 
L 57.839591 65.030515 
L 58.589758 64.965819 
L 58.8374 64.887844 
L 59.179174 64.797052 
L 59.35151 64.797001 
L 60.288494 64.897234 
L 60.624476 64.788108 
L 60.986526 64.60603 
L 61.313819 64.522375 
L 61.448501 64.568458 
L 61.888753 64.736348 
L 62.040814 64.779158 
L 63.237026 64.39748 
L 63.387638 64.455004 
L 63.396328 64.445869 
L 63.525217 64.473513 
L 64.339105 64.414422 
L 64.653364 64.333408 
L 66.097217 64.302935 
L 66.410028 64.288107 
L 66.685186 64.166603 
L 67.568587 63.984262 
L 68.036355 64.132862 
L 69.371594 63.740469 
L 70.385333 63.879599 
L 70.857445 63.666483 
L 71.116673 63.583293 
L 71.417898 63.564926 
L 71.921871 63.6102 
L 72.085517 63.634982 
L 72.608317 63.673022 
L 73.068844 63.4486 
L 73.798736 63.338092 
L 74.554695 63.495873 
L 74.815371 63.361746 
L 75.135423 63.194338 
L 75.41927 63.140538 
L 77.007943 63.139312 
L 77.314961 62.987979 
L 77.523502 62.918285 
L 77.892792 62.901099 
L 78.764608 63.062098 
L 80.130259 62.689727 
L 80.987592 62.833009 
L 81.188892 62.723578 
L 81.452464 62.58502 
L 81.663901 62.519527 
L 83.13527 62.604993 
L 83.359741 62.544824 
L 84.440097 62.254826 
L 84.713806 62.335455 
L 85.022273 62.416473 
L 85.264122 62.400134 
L 85.608793 62.278095 
L 85.904225 62.114594 
L 86.21414 62.034557 
L 87.769505 62.063904 
L 88.531257 61.810593 
L 88.844068 61.83702 
L 88.970061 61.841428 
L 88.97875 61.854676 
L 89.127915 61.872302 
L 89.468241 61.92089 
L 90.073588 61.810662 
L 90.257509 61.719491 
L 90.402329 61.629176 
L 90.577561 61.565974 
L 91.072845 61.637109 
L 91.631849 61.681362 
L 92.687586 61.43156 
L 92.838199 61.394556 
L 93.332034 61.396428 
L 93.511611 61.403072 
L 93.763597 61.406754 
L 93.93014 61.427315 
L 96.337046 61.164264 
L 96.499244 61.139086 
L 96.701992 61.1353 
L 96.868534 61.128829 
L 97.090109 61.112806 
L 97.546291 61.068276 
L 98.186395 60.935043 
L 100.830805 60.636878 
L 101.045138 60.632715 
L 101.802546 60.737216 
L 102.057429 60.704557 
L 102.212386 60.650524 
L 102.82787 60.409337 
L 104.361512 60.48629 
L 105.754679 60.164752 
L 106.045767 60.261721 
L 106.229688 60.296738 
L 106.646769 60.296709 
L 106.862551 60.203924 
L 107.727125 59.87089 
L 108.674247 60.091307 
L 109.192702 59.949049 
L 109.372278 59.860614 
L 110.763997 59.782245 
L 110.968193 59.833536 
L 111.327346 59.804097 
L 111.609745 59.701968 
L 111.883454 59.559487 
L 112.474319 59.455172 
L 112.733547 59.466014 
L 112.8914 59.495213 
L 113.427233 59.55945 
L 113.592328 59.525007 
L 113.601017 59.54198 
L 113.725562 59.543984 
L 113.728459 59.540755 
L 113.890657 59.487342 
L 114.529312 59.286962 
L 114.766817 59.255556 
L 115.039078 59.221564 
L 115.634288 59.242878 
L 115.805175 59.27146 
L 115.808071 59.268291 
L 115.829794 59.291986 
L 115.948547 59.273266 
L 116.29177 59.266675 
L 117.684936 58.946899 
L 118.020918 58.94172 
L 118.201943 58.962189 
L 118.207736 58.952835 
L 118.320695 58.967633 
L 118.230907 58.975811 
L 118.32504 58.973787 
L 118.446689 59.00652 
L 118.458274 58.995979 
L 118.611783 59.028638 
L 118.80729 59.028117 
L 119.947022 58.699873 
L 120.199009 58.641047 
L 120.309072 58.629399 
L 120.323554 58.637862 
L 121.102684 58.809568 
L 121.227229 58.812112 
L 121.231574 58.816674 
L 121.367705 58.818657 
L 121.567556 58.780529 
L 122.516126 58.392739 
L 122.669635 58.357196 
L 123.198227 58.464566 
L 123.466144 58.58783 
L 123.476281 58.568294 
L 123.56607 58.584079 
L 123.513934 58.598978 
L 123.582 58.611757 
L 123.712338 58.62335 
L 124.030941 58.571634 
L 124.82745 58.187354 
L 125.694921 58.237515 
L 125.819466 58.296119 
L 125.720989 58.225849 
L 125.828155 58.285641 
L 125.916495 58.323614 
L 125.849878 58.327344 
L 125.928081 58.342359 
L 126.162689 58.386212 
L 126.168482 58.375389 
L 126.188757 58.400786 
L 126.304613 58.372622 
L 126.792655 58.171528 
L 126.9172 58.115778 
L 127.387865 57.929991 
L 127.44 57.934028 
L 127.44 57.934028 
" clip-path="url(#p82d2a4cea1)" style="fill: none; stroke: #cc503e; stroke-width: 0.5; stroke-linecap: square"/>
   </g>
   <g id="line2d_9">
    <path d="M 0 70.800069 
L 0.583624 70.79942 
L 1.133939 70.797707 
L 5.440881 70.802411 
L 7.494426 70.807653 
L 8.285142 70.806922 
L 8.596505 70.811268 
L 9.478458 70.806819 
L 40.853673 70.834355 
L 41.505363 70.888278 
L 41.912306 70.9211 
L 42.941975 70.8497 
L 43.933991 70.883624 
L 44.81884 70.874207 
L 45.615349 70.897382 
L 60.3638 70.960228 
L 60.649096 70.965422 
L 61.350024 70.873785 
L 61.613596 70.874591 
L 61.904683 70.894005 
L 62.253699 70.943052 
L 62.725812 70.955739 
L 66.243485 70.949674 
L 66.705461 70.978278 
L 67.976979 70.90534 
L 68.64315 70.975768 
L 72.388191 70.949497 
L 72.692312 70.992911 
L 73.630745 70.908335 
L 74.842887 70.992515 
L 75.280243 70.978611 
L 77.931894 70.925017 
L 78.251946 70.904918 
L 80.175153 70.929026 
L 80.573407 70.927254 
L 81.204822 71.000881 
L 81.636385 71.010955 
L 82.02595 70.97674 
L 82.53282 70.922441 
L 83.81882 71.012502 
L 84.046187 70.996884 
L 84.479198 70.946651 
L 84.810836 70.924814 
L 86.930998 70.933421 
L 87.485658 70.952652 
L 88.133002 71.031486 
L 88.380644 71.016173 
L 89.410313 70.923326 
L 90.334264 71.027866 
L 90.500807 71.025726 
L 90.697762 71.015082 
L 92.035897 70.953142 
L 92.974329 71.024432 
L 94.196609 70.940638 
L 94.545624 71.00701 
L 111.540231 71.102897 
L 111.783528 71.088096 
L 112.491697 70.963313 
L 114.761024 71.007325 
L 115.819657 71.005504 
L 116.829051 71.090446 
L 117.36054 70.989482 
L 117.815274 70.941641 
L 118.834806 71.125799 
L 120.643605 70.983144 
L 121.728306 71.117306 
L 122.79418 70.945491 
L 123.994736 71.155042 
L 124.566775 71.071595 
L 125.854223 71.029673 
L 126.030903 71.09255 
L 126.737624 71.142171 
L 127.44 71.024711 
L 127.44 71.024711 
" clip-path="url(#p82d2a4cea1)" style="fill: none; stroke: #94346e; stroke-width: 0.5; stroke-linecap: square"/>
   </g>
  </g>
 </g>
 <defs>
  <clipPath id="pf0543d102a">
   <rect x="0" y="0" width="127.44" height="28.32"/>
  </clipPath>
  <clipPath id="p5918f402c7">
   <rect x="0" y="28.32" width="127.44" height="28.32"/>
  </clipPath>
  <clipPath id="p82d2a4cea1">
   <rect x="0" y="56.64" width="127.44" height="28.32"/>
  </clipPath>
 </defs>
</svg>
