<?xml version="1.0" encoding="utf-8" standalone="no"?>
<!DOCTYPE svg PUBLIC "-//W3C//DTD SVG 1.1//EN"
  "http://www.w3.org/Graphics/SVG/1.1/DTD/svg11.dtd">
<svg xmlns:xlink="http://www.w3.org/1999/xlink" width="99.212598pt" height="51.023622pt" viewBox="0 0 99.212598 51.023622" xmlns="http://www.w3.org/2000/svg" version="1.1">
 <metadata>
  <rdf:RDF xmlns:dc="http://purl.org/dc/elements/1.1/" xmlns:cc="http://creativecommons.org/ns#" xmlns:rdf="http://www.w3.org/1999/02/22-rdf-syntax-ns#">
   <cc:Work>
    <dc:type rdf:resource="http://purl.org/dc/dcmitype/StillImage"/>
    <dc:date>2024-10-31T23:12:53.202893</dc:date>
    <dc:format>image/svg+xml</dc:format>
    <dc:creator>
     <cc:Agent>
      <dc:title>Matplotlib v3.8.4, https://matplotlib.org/</dc:title>
     </cc:Agent>
    </dc:creator>
   </cc:Work>
  </rdf:RDF>
 </metadata>
 <defs>
  <style type="text/css">*{stroke-linejoin: round; stroke-linecap: butt}</style>
 </defs>
 <g id="figure_1">
  <g id="patch_1">
   <path d="M 0 51.023622 
L 99.212598 51.023622 
L 99.212598 0 
L 0 0 
L 0 51.023622 
z
" style="fill: none"/>
  </g>
  <g id="axes_1">
   <g id="patch_2">
    <path d="M 0 51.023622 
L 99.212598 51.023622 
L 99.212598 -0 
L 0 -0 
L 0 51.023622 
z
" style="fill: none"/>
   </g>
   <g id="matplotlib.axis_1">
    <g id="xtick_1"/>
    <g id="xtick_2"/>
   </g>
   <g id="matplotlib.axis_2">
    <g id="ytick_1"/>
    <g id="ytick_2"/>
   </g>
   <g id="line2d_1">
    <path d="M 4.509664 -0 
L 4.519913 0.312598 
L 4.602933 17.579324 
L 4.764872 47.959972 
L 4.80997 41.999772 
L 4.813044 41.933771 
L 4.851992 44.403906 
L 4.858142 44.511612 
L 4.87864 41.822074 
L 4.905289 36.685715 
L 4.970884 46.421827 
L 5.111301 50.535982 
L 5.114375 50.402191 
L 5.235318 45.52044 
L 5.272215 46.080161 
L 5.280415 45.810014 
L 5.312188 49.614598 
L 5.324487 50.847292 
L 5.410582 47.757216 
L 5.418781 47.386541 
L 5.485402 50.557707 
L 5.486427 50.572582 
L 5.504876 49.297573 
L 5.617618 47.481865 
L 5.591995 49.985141 
L 5.629918 48.197887 
L 5.745735 50.564052 
L 5.690389 48.164053 
L 5.764184 50.364116 
L 5.766234 50.366771 
L 5.773409 50.472877 
L 5.781608 50.630045 
L 5.810306 48.647387 
L 5.818506 48.348016 
L 5.9046 49.648235 
L 5.918949 50.650348 
L 5.964047 48.989746 
L 6.021443 50.156697 
L 6.083964 48.796006 
L 6.102413 50.25556 
L 6.184408 49.449536 
L 6.22438 49.913769 
L 6.253078 48.986103 
L 6.280752 49.233633 
L 6.2992 47.894082 
L 6.322774 50.534455 
L 6.383245 49.820268 
L 6.405794 50.943026 
L 6.517512 50.494868 
L 6.552359 48.847263 
L 6.615905 50.917742 
L 6.636404 49.990198 
L 6.638454 49.995696 
L 6.653828 49.619511 
L 6.736848 49.385904 
L 6.70405 50.103099 
L 6.754272 49.918827 
L 6.822942 50.907054 
L 6.789119 49.149261 
L 6.854715 49.575988 
L 6.86189 49.300557 
L 6.945934 50.887561 
L 6.994106 50.471378 
L 7.077126 48.696502 
L 7.025879 50.472614 
L 7.115049 50.092957 
L 7.122223 50.427346 
L 7.145797 48.773523 
L 7.227792 50.201901 
L 7.265714 49.995119 
L 7.295437 50.477626 
L 7.311836 50.164232 
L 7.324136 50.891508 
L 7.325161 50.993828 
L 7.343609 49.610256 
L 7.423554 49.877071 
L 7.432779 49.299639 
L 7.464552 50.799994 
L 7.528098 50.535443 
L 7.544497 50.99827 
L 7.598818 50.076795 
L 7.630591 48.898187 
L 7.680813 50.266693 
L 7.707461 50.143511 
L 7.80893 50.702276 
L 7.73411 49.54215 
L 7.825329 50.386357 
L 7.921673 50.145929 
L 7.873501 50.94353 
L 7.934997 50.39547 
L 7.936022 50.396551 
L 7.941147 50.256024 
L 8.038515 49.597812 
L 7.978044 50.943223 
L 8.053889 50.146351 
L 8.132809 51.013248 
L 8.172782 50.627266 
L 8.20558 50.119631 
L 8.258876 49.408666 
L 8.277325 50.693651 
L 8.313198 50.264893 
L 8.319348 50.233429 
L 8.331647 50.600799 
L 8.404417 50.193881 
L 8.44644 50.811094 
L 8.531509 50.992 
L 8.501786 50.418575 
L 8.541759 50.679 
L 8.663726 50.194096 
L 8.628878 50.991464 
L 8.665776 50.202849 
L 8.736496 50.993121 
L 8.693449 50.114819 
L 8.809267 50.525768 
L 8.829765 50.562521 
L 8.879987 49.624089 
L 8.887162 49.452022 
L 8.947633 50.746579 
L 8.964032 50.578242 
L 8.993755 50.96022 
L 9.057301 50.158547 
L 9.070625 50.354138 
L 9.186443 50.993129 
L 9.14852 50.134471 
L 9.197717 50.777274 
L 9.277662 50.075783 
L 9.31456 50.582351 
L 9.364782 50.438958 
L 9.350432 50.9219 
L 9.392455 50.804349 
L 9.396555 50.963636 
L 9.423203 50.599029 
L 9.499048 50.619178 
L 9.559519 49.934572 
L 9.588217 50.944559 
L 9.601542 50.937166 
L 9.670212 50.241132 
L 9.717359 50.78535 
L 9.722484 50.879542 
L 9.757332 50.02953 
L 9.815753 50.469096 
L 9.912097 50.011682 
L 9.865975 50.994505 
L 9.923371 50.591879 
L 9.991017 49.986789 
L 9.951044 51.01497 
L 10.030989 50.602476 
L 10.037139 50.912469 
L 10.079161 50.502651 
L 10.142707 50.66363 
L 10.149882 50.782636 
L 10.239051 50.985008 
L 10.183705 50.460295 
L 10.245201 50.544235 
L 10.2534 50.062826 
L 10.291323 50.991923 
L 10.355894 50.508709 
L 10.378442 50.483332 
L 10.405091 50.749245 
L 10.41124 50.90199 
L 10.429689 50.241762 
L 10.50041 50.326413 
L 10.550632 50.998275 
L 10.608028 50.338796 
L 10.617252 50.031422 
L 10.6562 50.919248 
L 10.708472 50.890948 
L 10.849913 50.290435 
L 10.752544 50.949711 
L 10.862212 50.432468 
L 10.964705 51.007476 
L 10.89296 50.275336 
L 10.97598 50.491358 
L 10.988279 50.362982 
L 11.013902 50.953331 
L 11.075398 50.618397 
L 11.082573 50.936523 
L 11.168667 50.320716 
L 11.188141 50.672366 
L 11.198391 50.793678 
L 11.250662 50.35124 
L 11.321383 50.292477 
L 11.288585 51.006244 
L 11.334707 50.856691 
L 11.415677 51.002636 
L 11.36648 50.194699 
L 11.436176 50.405975 
L 11.464874 50.892326 
L 11.507921 50.185859 
L 11.562243 50.659627 
L 11.621689 50.382535 
L 11.578642 50.805929 
L 11.642188 50.735923 
L 11.734432 51.004357 
L 11.68626 50.542244 
L 11.755955 50.880857 
L 11.782604 50.219462 
L 11.801052 50.88871 
L 11.877923 50.731937 
L 11.884072 51.006016 
L 11.936344 50.49639 
L 11.988616 50.746003 
L 12.092134 50.490068 
L 12.019364 50.993053 
L 12.109558 50.64608 
L 12.124932 50.954203 
L 12.146456 50.354373 
L 12.222301 50.748267 
L 12.304296 50.149822 
L 12.274573 50.997681 
L 12.334019 50.63125 
L 12.423188 51.014327 
L 12.403714 50.513051 
L 12.440612 50.554373 
L 12.474435 50.457454 
L 12.504158 51.000127 
L 12.525682 50.967568 
L 12.526707 50.973645 
L 12.55643 50.482098 
L 12.571804 50.40852 
L 12.576928 50.554515 
L 12.6251 50.88435 
L 12.645599 50.213002 
L 12.689671 50.624325 
L 12.697871 50.39606 
L 12.715295 51.006772 
L 12.796265 50.806497 
L 12.813688 50.598093 
L 12.892608 50.947555 
L 12.894658 51.003971 
L 12.94078 50.321651 
L 12.997152 50.788109 
L 13.055573 50.37037 
L 13.007401 50.911834 
L 13.10477 50.830134 
L 13.195989 50.950793 
L 13.131418 50.163727 
L 13.215463 50.847322 
L 13.277984 50.2751 
L 13.245186 51.012675 
L 13.326156 50.814261 
L 13.334356 50.968838 
L 13.374328 50.079194 
L 13.4266 50.581945 
L 13.447098 50.41247 
L 13.463497 50.919271 
L 13.500395 50.802757 
L 13.57624 51.015182 
L 13.514744 50.609038 
L 13.612113 50.846576 
L 13.66131 50.557568 
L 13.647986 51.007131 
L 13.708457 50.91251 
L 13.724856 51.011866 
L 13.778152 50.56212 
L 13.818125 50.292642 
L 13.828374 50.993813 
L 13.878596 50.895894 
L 13.89397 51.002532 
L 13.916519 50.486482 
L 13.973915 50.703683 
L 13.986214 50.503329 
L 14.067184 50.747633 
L 14.086658 50.632024 
L 14.13893 50.945233 
L 14.146104 50.446798 
L 14.214775 50.151549 
L 14.167628 50.975375 
L 14.245523 50.695114 
L 14.278321 50.990226 
L 14.297795 50.484362 
L 14.355191 50.609885 
L 14.413612 50.5897 
L 14.382864 50.90056 
L 14.44641 50.779586 
L 14.458709 51.008155 
L 14.485358 50.479241 
L 14.554028 50.730857 
L 14.645248 50.256641 
L 14.592976 51.002373 
L 14.667796 50.600913 
L 14.751841 50.984179 
L 14.735442 50.500023 
L 14.779514 50.632169 
L 14.882008 50.511422 
L 14.852285 50.995683 
L 14.889182 50.654602 
L 14.933254 50.97251 
L 14.958878 50.519807 
L 14.997825 50.631521 
L 15.078795 50.214425 
L 15.050097 50.892104 
L 15.107493 50.694914 
L 15.183339 50.579012 
L 15.150541 50.954704 
L 15.202812 50.824446 
L 15.211012 50.999463 
L 15.246885 50.459172 
L 15.270458 50.549338 
L 15.299156 50.391799 
L 15.317605 50.794385 
L 15.381151 50.553297 
L 15.39345 50.655179 
L 15.463146 50.992962 
L 15.451872 50.549997 
L 15.508243 50.715116 
L 15.538991 50.510389 
L 15.572814 50.985044 
L 15.595363 50.864801 
L 15.686582 51.001923 
L 15.606637 50.504744 
L 15.705031 50.835435 
L 15.820848 50.614208 
L 15.758327 50.982814 
L 15.826998 50.712093 
L 15.865945 50.946908 
L 15.926417 50.590606 
L 15.942816 50.825875 
L 15.95819 50.509859 
L 15.964339 50.33376 
L 16.043259 51.013247 
L 16.060683 50.843385 
L 16.063758 50.953828 
L 16.148828 50.420654 
L 16.163177 50.451745 
L 16.170351 50.380333 
L 16.231847 50.837854 
L 16.264645 50.584906 
L 16.390712 50.929149 
L 16.343565 50.512438 
L 16.393787 50.910475 
L 16.42966 50.414339 
L 16.461433 51.003624 
L 16.50858 50.855954 
L 16.549577 50.936955 
L 16.588525 50.617219 
L 16.5916 50.580232 
L 16.650021 51.012224 
L 16.687943 50.82034 
L 16.74944 51.020665 
L 16.764814 50.761343 
L 16.803761 50.876669 
L 16.875507 50.505728 
L 16.912404 50.942895 
L 16.915479 50.98083 
L 16.941102 50.472322 
L 17.004648 50.519173 
L 17.034372 50.975081 
L 17.130715 50.588544 
L 17.136865 50.530856 
L 17.204511 50.96488 
L 17.237309 50.666715 
L 17.328528 50.983052 
L 17.340827 50.630161 
L 17.343902 50.637518 
L 17.353126 50.366284 
L 17.358251 50.22066 
L 17.394124 51.001552 
L 17.458695 50.620824 
L 17.585787 50.99016 
L 17.483293 50.513903 
L 17.592961 50.918089 
L 17.672906 50.75646 
L 17.606285 51.009336 
L 17.700579 50.922159 
L 17.750801 51.009263 
L 17.735427 50.52265 
L 17.811272 50.914954 
L 17.85637 50.563011 
L 17.864569 51.010468 
L 17.92299 50.856203 
L 17.984486 50.96042 
L 17.937339 50.575101 
L 18.017284 50.668604 
L 18.129002 50.568187 
L 18.060332 50.819453 
L 18.131052 50.580382 
L 18.144376 50.966235 
L 18.160775 50.54609 
L 18.269418 50.942113 
L 18.272493 50.96678 
L 18.298117 50.255664 
L 18.300166 50.234985 
L 18.354488 51.008493 
L 18.381136 50.729694 
L 18.47953 51.016904 
L 18.39856 50.552733 
L 18.494904 50.934296 
L 18.593298 50.844017 
L 18.536926 51.020166 
L 18.603547 50.993082 
L 18.607647 51.011365 
L 18.631221 50.823358 
L 18.686567 50.528855 
L 18.654794 50.986135 
L 18.71424 50.934272 
L 18.71629 51.009147 
L 18.816734 50.620468 
L 18.833133 50.358628 
L 18.845432 50.910552 
L 18.896679 50.827408 
L 18.986873 50.998211 
L 18.928452 50.644628 
L 19.004297 50.732729 
L 19.018646 50.686264 
L 19.025821 50.895301 
L 19.113965 50.936574 
L 19.070918 50.565201 
L 19.130364 50.744532 
L 19.180586 50.527262 
L 19.147788 50.957572 
L 19.230808 50.952325 
L 19.245157 50.954436 
L 19.256431 50.82484 
L 19.273855 50.508257 
L 19.336376 51.020015 
L 19.367124 50.764726 
L 19.449119 50.988406 
L 19.410171 50.705611 
L 19.478842 50.828101 
L 19.569036 50.783421 
L 19.545463 50.95028 
L 19.579286 50.902957 
L 19.618233 50.979689 
L 19.674605 50.647591 
L 19.675629 50.646496 
L 19.691004 50.782248 
L 19.778123 51.019399 
L 19.793497 50.602273 
L 19.796572 50.541338 
L 19.892916 50.925445 
L 19.947237 51.007675 
L 19.930838 50.684939 
L 19.970811 50.800422 
L 20.007708 50.723924 
L 20.033332 50.970716 
L 20.077404 50.820089 
L 20.161449 50.993058 
L 20.107127 50.639979 
L 20.189122 50.873593 
L 20.299815 50.529946 
L 20.211671 51.00455 
L 20.30494 50.676021 
L 20.310064 51.004722 
L 20.339787 50.603506 
L 20.418707 50.919122 
L 20.504802 50.752209 
L 20.46073 50.939231 
L 20.538625 50.789705 
L 20.625744 50.696376 
L 20.551949 51.010433 
L 20.639069 50.882624 
L 20.719014 51.002955 
L 20.682116 50.636471 
L 20.736437 50.727042 
L 20.806133 50.545071 
L 20.744637 50.962832 
L 20.833806 50.860761 
L 20.9281 51.008797 
L 20.852255 50.615385 
L 20.93835 50.754058 
L 20.943474 50.584854 
L 20.986522 51.018135 
L 21.045968 50.932325 
L 21.136162 50.95409 
L 21.078766 50.737706 
L 21.145387 50.849784 
L 21.213032 50.635475 
L 21.16896 51.011716 
L 21.248905 50.939973 
L 21.274528 51.006509 
L 21.311426 50.426302 
L 21.356523 50.836446 
L 21.377022 51.020055 
L 21.40162 50.693282 
L 21.474391 50.962565 
L 21.501039 50.620996 
L 21.589183 50.897584 
L 21.701926 51.013999 
L 21.63838 50.591805 
L 21.705001 50.959621 
L 21.805445 50.545178 
L 21.786996 51.004523 
L 21.824919 50.676375 
L 21.857716 50.571033 
L 21.864891 50.877907 
L 21.866941 50.997081 
L 21.876165 50.674176 
L 21.974559 50.8095 
L 22.066803 51.001458 
L 22.030931 50.795587 
L 22.088327 50.896327 
L 22.136499 51.018291 
L 22.175446 50.775604 
L 22.191845 50.848855 
L 22.197995 50.759164 
L 22.211319 51.014721 
L 22.296389 50.956902 
L 22.361985 50.988495 
L 22.35071 50.578667 
L 22.398882 50.836681 
L 22.402982 50.895605 
L 22.404007 50.93132 
L 22.460378 50.988586 
L 22.500351 50.641012 
L 22.560822 50.613775 
L 22.51675 51.010027 
L 22.575171 50.820565 
L 22.612069 50.956356 
L 22.623343 50.721911 
L 22.682789 50.752469 
L 22.764784 50.516131 
L 22.699188 51.015028 
L 22.786308 50.90183 
L 22.792457 50.969036 
L 22.852929 50.621729 
L 22.875477 50.462772 
L 22.941073 51.005821 
L 22.947223 50.905031 
L 23.023068 51.020803 
L 23.032292 50.649522 
L 23.054841 50.85521 
L 23.06304 50.684244 
L 23.103013 51.016497 
L 23.166559 50.831645 
L 23.264953 51.010767 
L 23.22088 50.547273 
L 23.282376 50.89901 
L 23.338748 51.015853 
L 23.352072 50.707209 
L 23.353097 50.704542 
L 23.362321 50.976152 
L 23.372571 50.960379 
L 23.374621 50.965359 
L 23.398194 50.557336 
L 23.401269 50.529129 
L 23.419718 51.016114 
L 23.494538 50.799536 
L 23.601131 50.988092 
L 23.575508 50.68246 
L 23.612406 50.956682 
L 23.699525 50.779442 
L 23.688251 51.004981 
L 23.725148 50.912558 
L 23.804068 51.000246 
L 23.816368 50.722511 
L 23.830717 50.848696 
L 23.944485 50.422363 
L 23.865565 50.978787 
L 23.956784 50.703762 
L 24.040828 51.016851 
L 23.969083 50.578872 
L 24.071576 50.901409 
L 24.158696 50.704578 
L 24.120773 50.976945 
L 24.179195 50.927134 
L 24.185344 50.997363 
L 24.283738 50.819188 
L 24.288863 50.722089 
L 24.298087 51.003173 
L 24.391356 50.859572 
L 24.453877 51.000003 
L 24.473351 50.660696 
L 24.503074 50.908727 
L 24.613767 50.630523 
L 24.517423 51.003834 
L 24.617867 50.716136 
L 24.648615 50.986882 
L 24.73471 50.95186 
L 24.822854 51.014214 
L 24.797231 50.777991 
L 24.833103 50.870457 
L 24.921248 50.644464 
L 24.895624 50.995238 
L 24.941746 50.888927 
L 24.946871 51.008965 
L 25.025791 50.217845 
L 25.026816 50.205612 
L 25.064739 50.968481 
L 25.085237 50.821956 
L 25.133409 51.010729 
L 25.097537 50.734277 
L 25.199005 50.900293 
L 25.246152 50.773305 
L 25.281 50.960116 
L 25.307648 50.911541 
L 25.413217 51.010351 
L 25.390668 50.786699 
L 25.417316 50.88001 
L 25.424491 50.719755 
L 25.443965 51.02259 
L 25.52596 50.946119 
L 25.579256 50.587631 
L 25.551583 50.994793 
L 25.646902 50.901269 
L 25.719672 51.010963 
L 25.727872 50.677072 
L 25.755545 50.817588 
L 25.875462 50.967582 
L 25.795517 50.729903 
L 25.894936 50.910947 
L 26.016903 50.705828 
L 25.992305 51.015732 
L 26.019978 50.732603 
L 26.043552 50.979675 
L 26.124522 50.632865 
L 26.138871 50.384196 
L 26.190118 51.000712 
L 26.229065 50.849631 
L 26.338733 50.999551 
L 26.326434 50.745137 
L 26.343858 50.905296 
L 26.38383 50.779712 
L 26.426878 51.012855 
L 26.451476 50.973221 
L 26.523221 50.99538 
L 26.502723 50.734323 
L 26.531421 50.832723 
L 26.580618 50.721694 
L 26.572418 51.011283 
L 26.639039 50.861473 
L 26.644164 50.996111 
L 26.692336 50.756422 
L 26.751782 50.906806 
L 26.854276 51.018288 
L 26.771256 50.840031 
L 26.876824 50.911918 
L 26.921921 50.613858 
L 26.93832 51.011855 
L 26.987517 50.914834 
L 27.02339 51.012347 
L 27.064387 50.800252 
L 27.095135 50.917333 
L 27.163806 50.68758 
L 27.152532 50.99832 
L 27.205828 50.896883 
L 27.302172 51.005988 
L 27.269374 50.499029 
L 27.311397 50.795936 
L 27.328821 50.673761 
L 27.40979 51.005306 
L 27.423115 50.77189 
L 27.483586 51.000886 
L 27.544057 50.891333 
L 27.632201 50.734857 
L 27.561481 51.011372 
L 27.6527 50.947608 
L 27.667049 51.003888 
L 27.674224 50.850479 
L 27.688573 50.713894 
L 27.72752 51.012348 
L 27.780817 50.913718 
L 27.846413 50.610023 
L 27.81669 50.991847 
L 27.868961 50.994857 
L 27.96428 51.021879 
L 27.877161 50.749152 
L 27.97658 50.949861 
L 28.085223 50.762021 
L 28.038076 51.017422 
L 28.091372 50.856866 
L 28.098547 51.000899 
L 28.13032 50.766198 
L 28.19899 50.789238 
L 28.299434 50.636547 
L 28.27791 51.010731 
L 28.313783 50.705114 
L 28.350681 51.006628 
L 28.408077 50.574108 
L 28.433701 50.876635 
L 28.4501 51.017663 
L 28.548493 50.810754 
L 28.626388 50.796653 
L 28.587441 51.015614 
L 28.642787 50.897498 
L 28.647912 51.011644 
L 28.656112 50.805613 
L 28.75348 50.915968 
L 28.823176 50.752301 
L 28.853924 51.012174 
L 28.860074 50.997994 
L 28.930794 50.748468 
L 28.988191 50.941711 
L 29.059936 51.013757 
L 29.033288 50.67098 
L 29.107083 51.002683 
L 29.228025 50.731889 
L 29.136806 51.014494 
L 29.23315 50.831674 
L 29.277222 51.015236 
L 29.288497 50.779615 
L 29.345893 50.885212 
L 29.463761 50.746921 
L 29.438137 51.008 
L 29.46581 50.752635 
L 29.561129 51.019432 
L 29.54883 50.675676 
L 29.575478 50.746148 
L 29.588803 50.652151 
L 29.597002 50.999122 
L 29.676947 50.971791 
L 29.749717 51.018574 
L 29.737418 50.70826 
L 29.78354 50.896509 
L 29.821463 50.749261 
L 29.873735 51.011453 
L 29.891158 50.965871 
L 29.923956 51.017198 
L 29.962904 50.78527 
L 29.997752 50.89005 
L 30.09922 50.750789 
L 30.0285 51.000934 
L 30.112544 50.829286 
L 30.192489 51.00681 
L 30.175066 50.663479 
L 30.226312 50.854161 
L 30.26321 50.749879 
L 30.237587 51.017506 
L 30.328806 50.959095 
L 30.433349 50.994393 
L 30.419 50.794996 
L 30.435399 50.918451 
L 30.549167 50.726339 
L 30.485621 51.005557 
L 30.551217 50.733353 
L 30.623987 51.004852 
L 30.562491 50.731572 
L 30.685483 50.970215 
L 30.765428 50.693057 
L 30.749029 51.007048 
L 30.824874 50.843765 
L 30.863822 51.003676 
L 30.893545 50.652877 
L 30.933518 50.813174 
L 31.001163 50.698836 
L 30.944792 51.004339 
L 31.039086 50.858374 
L 31.05856 50.773197 
L 31.162078 51.013788 
L 31.207175 50.748342 
L 31.275846 50.932672 
L 31.329143 50.996637 
L 31.36809 50.591593 
L 31.383464 50.839408 
L 31.388589 51.010593 
L 31.416262 50.718039 
L 31.491082 50.773487 
L 31.492107 50.766874 
L 31.533105 51.009333 
L 31.576152 50.930215 
L 31.579227 51.0103 
L 31.612025 50.750624 
L 31.68787 50.957091 
L 31.787289 51.01833 
L 31.745266 50.765836 
L 31.793438 50.912694 
L 31.842635 50.785239 
L 31.818037 50.999168 
L 31.906181 50.808795 
L 32.018924 50.993419 
L 31.967677 50.651221 
L 32.021999 50.929545 
L 32.038398 50.774352 
L 32.056847 51.009 
L 32.136791 50.822867 
L 32.187013 51.004705 
L 32.217761 50.658598 
L 32.245435 50.763359 
L 32.353053 50.967797 
L 32.361252 50.824001 
L 32.451447 50.665845 
L 32.375601 51.003819 
L 32.471945 50.838295 
L 32.543691 51.015964 
L 32.570339 50.64868 
L 32.573414 50.59401 
L 32.637985 51.016825 
L 32.670783 50.939063 
L 32.686157 51.002517 
L 32.697431 50.769133 
L 32.781476 50.936744 
L 32.801974 50.960129 
L 32.831698 50.752413 
L 32.833747 50.746077 
L 32.878845 51.00033 
L 32.913692 50.926765 
L 33.006961 51.003858 
L 32.95674 50.824358 
L 33.019261 50.872784 
L 33.175051 50.995012 
L 33.036685 50.821039 
L 33.179151 50.848007 
L 33.184275 50.675461 
L 33.283694 50.999305 
L 33.289844 50.846744 
L 33.310342 50.778532 
L 33.299068 50.982726 
L 33.327766 50.959037 
L 33.360564 50.999476 
L 33.381063 50.782182 
L 33.438459 50.68098 
L 33.480481 51.014876 
L 33.484581 50.944857 
L 33.488681 50.997058 
L 33.543003 50.71781 
L 33.58195 50.861836 
L 33.677269 50.774062 
L 33.651646 51.009967 
L 33.691618 50.881292 
L 33.696743 50.829507 
L 33.706992 51.016923 
L 33.783862 51.002602 
L 33.784887 51.017478 
L 33.808461 50.66712 
L 33.890456 50.938917 
L 33.936578 51.016863 
L 33.940677 50.853581 
L 34.026772 50.757981 
L 33.9786 51.015779 
L 34.050345 50.892639 
L 34.154889 51.008624 
L 34.066744 50.762538 
L 34.158989 50.866468 
L 34.216385 50.751427 
L 34.236884 50.995357 
L 34.269682 50.871227 
L 34.350651 51.009015 
L 34.328103 50.823999 
L 34.384474 50.941027 
L 34.439821 50.632145 
L 34.395749 51.02001 
L 34.494142 50.913473 
L 34.597661 50.993346 
L 34.563838 50.799754 
L 34.604835 50.91691 
L 34.635583 50.713119 
L 34.615085 51.016537 
L 34.718603 50.870466 
L 34.756526 51.01428 
L 34.795473 50.795539 
L 34.831346 50.977866 
L 34.916416 50.80769 
L 34.907191 51.014148 
L 34.949214 50.851535 
L 35.031208 51.00762 
L 35.045558 50.679931 
L 35.046582 50.667125 
L 35.095779 51.005778 
L 35.134727 50.943718 
L 35.190073 51.013884 
L 35.195198 50.813066 
L 35.240295 50.867643 
L 35.283342 50.841242 
L 35.258744 50.999225 
L 35.32844 50.990462 
L 35.330489 51.021984 
L 35.425808 50.854314 
L 35.437083 50.953233 
L 35.501654 51.014206 
L 35.457581 50.83622 
L 35.526252 50.885326 
L 35.636945 50.796685 
L 35.612347 51.01618 
L 35.64002 50.842805 
L 35.708691 50.987572 
L 35.699466 50.629432 
L 35.753788 50.960638 
L 35.778386 50.750638 
L 35.815284 51.016674 
L 35.867556 50.876277 
L 35.902403 50.745783 
L 35.918802 50.997246 
L 36.02847 51.012809 
L 35.9516 50.808537 
L 36.029495 50.993768 
L 36.053069 50.81542 
L 36.098166 51.01065 
L 36.141213 50.97846 
L 36.199635 50.819401 
L 36.162737 51.006914 
L 36.253956 50.932194 
L 36.299053 51.003339 
L 36.314427 50.775305 
L 36.359524 50.837408 
L 36.475342 51.008327 
L 36.451769 50.813555 
L 36.483542 50.933889 
L 36.509165 50.81909 
L 36.528639 51.020298 
L 36.59321 50.940104 
L 36.678279 51.019486 
L 36.695703 50.845071 
L 36.708002 51.007021 
L 36.795122 50.722273 
L 36.729526 51.016499 
L 36.824845 50.874088 
L 36.924264 50.997161 
L 36.893516 50.83687 
L 36.939638 50.945577 
L 36.966286 50.659893 
L 36.988835 50.990141 
L 37.053406 50.80022 
L 37.104652 50.991168 
L 37.156924 50.759767 
L 37.169223 50.886834 
L 37.174348 50.811375 
L 37.196896 51.010265 
L 37.276841 50.917303 
L 37.367036 51.00626 
L 37.329113 50.826009 
L 37.386509 50.896749 
L 37.444931 51.013134 
L 37.424432 50.863012 
L 37.496178 50.879286 
L 37.537175 50.758875 
L 37.553574 51.004051 
L 37.561773 50.959706 
L 37.592521 51.013448 
L 37.598671 50.73879 
L 37.673491 50.999679 
L 37.771885 51.011969 
L 37.721663 50.767255 
L 37.77701 50.902597 
L 37.862079 50.76741 
L 37.789309 51.016298 
L 37.878478 50.976702 
L 37.977897 51.013811 
L 37.937925 50.829551 
L 37.988146 50.969921 
L 38.01582 50.791465 
L 38.08859 51.012353 
L 38.099864 50.953014 
L 38.100889 50.954229 
L 38.120363 50.811545 
L 38.123438 50.801347 
L 38.138812 51.015465 
L 38.208507 50.928787 
L 38.308951 51.013262 
L 38.25463 50.736419 
L 38.317151 50.894552 
L 38.426819 50.741795 
L 38.373522 51.008905 
L 38.429893 50.79099 
L 38.532387 51.01792 
L 38.545711 50.938529 
L 38.608232 50.884464 
L 38.565185 51.013266 
L 38.656404 50.926452 
L 38.663579 51.012091 
L 38.723025 50.843016 
L 38.766072 50.904892 
L 38.848067 50.752466 
L 38.780421 51.008357 
L 38.859341 50.945535 
L 38.955685 51.014238 
L 38.947486 50.736957 
L 38.971059 50.985707 
L 38.988483 50.802299 
L 39.024356 51.015622 
L 39.081752 50.99352 
L 39.115575 50.988805 
L 39.095076 50.886417 
L 39.137099 50.892018 
L 39.173996 50.798814 
L 39.154523 51.012245 
L 39.248817 50.887032 
L 39.281615 51.013696 
L 39.292889 50.801218 
L 39.323637 50.798297 
L 39.324662 50.794174 
L 39.370784 51.00911 
L 39.398457 50.944174 
L 39.455854 51.013409 
L 39.463028 50.842556 
L 39.5071 50.906911 
L 39.554247 50.717605 
L 39.583971 51.012898 
L 39.621893 50.7874 
L 39.633167 51.007407 
L 39.651616 50.705192 
L 39.734636 50.848945 
L 39.856603 51.010079 
L 39.742835 50.820282 
L 39.865828 50.865678 
L 39.963197 50.848011 
L 39.881202 50.996377 
L 39.966271 50.901721 
L 39.981645 51.021133 
L 39.974471 50.868525 
L 40.079014 50.980134 
L 40.123086 51.017279 
L 40.156909 50.796229 
L 40.184583 50.949501 
L 40.212256 50.715728 
L 40.265552 51.009834 
L 40.297325 50.912547 
L 40.341398 51.020469 
L 40.303475 50.8782 
L 40.410068 50.96378 
L 40.506412 50.802909 
L 40.443891 51.018468 
L 40.53306 50.921052 
L 40.592507 51.00641 
L 40.546385 50.87307 
L 40.599681 50.833817 
L 40.603781 50.759988 
L 40.684751 51.008141 
L 40.708324 50.867138 
L 40.725748 51.013699 
L 40.751372 50.782205 
L 40.826192 50.972552 
L 40.94406 50.745797 
L 40.916386 51.013078 
L 40.946109 50.761067 
L 41.034254 50.999051 
L 40.972758 50.709681 
L 41.066027 50.936551 
L 41.135722 50.748615 
L 41.085501 51.003907 
L 41.17467 50.959811 
L 41.222842 51.010265 
L 41.202343 50.809679 
L 41.285363 50.951963 
L 41.313036 50.817535 
L 41.303812 51.010987 
L 41.397081 50.910379 
L 41.507774 51.002479 
L 41.438078 50.800318 
L 41.509824 50.980046 
L 41.574395 50.820506 
L 41.514948 50.994282 
L 41.626666 50.923642 
L 41.630766 51.012784 
L 41.64409 50.800531 
L 41.73326 50.831601 
L 41.738384 50.766366 
L 41.833703 51.015886 
L 41.869576 50.794352 
L 41.837803 51.022044 
L 41.952596 50.997514 
L 42.03869 50.985571 
L 41.95977 50.822449 
L 42.04279 50.930498 
L 42.100186 50.782938 
L 42.065339 51.020421 
L 42.152458 50.946701 
L 42.225228 51.01826 
L 42.168857 50.832088 
L 42.252902 50.836273 
L 42.292874 50.745465 
L 42.329772 51.015454 
L 42.355395 50.947033 
L 42.416891 51.016246 
L 42.36462 50.751057 
L 42.463013 50.913495 
L 42.501961 50.754255 
L 42.559357 50.9932 
L 42.567557 50.976798 
L 42.654676 51.018 
L 42.594205 50.839917 
L 42.671075 50.940414 
L 42.774594 50.851664 
L 42.67825 51.017894 
L 42.780743 50.949075 
L 42.869913 51.014246 
L 42.843264 50.777747 
L 42.882212 50.872695 
L 42.886312 50.805752 
L 42.934484 51.003425 
L 42.992905 50.867884 
L 43.028778 51.015931 
L 43.014429 50.815283 
L 43.109748 50.944684 
L 43.23069 50.863984 
L 43.113847 50.961652 
L 43.23479 50.953414 
L 43.278862 51.019908 
L 43.287061 50.850428 
L 43.346508 51.006227 
L 43.449001 50.801337 
L 43.371106 51.01736 
L 43.45925 50.946176 
L 43.530996 51.018308 
L 43.539195 50.805213 
L 43.575068 50.99963 
L 43.630415 50.727607 
L 43.684736 51.020196 
L 43.689861 50.916344 
L 43.790305 50.857314 
L 43.742133 51.018652 
L 43.796454 50.937016 
L 43.815928 51.007963 
L 43.856925 50.808804 
L 43.903047 50.86623 
L 43.93892 50.869938 
L 43.916372 51.012485 
L 43.94712 50.982493 
L 44.056788 51.012744 
L 44.028089 50.842063 
L 44.058838 50.993649 
L 44.153132 50.852582 
L 44.077286 51.01159 
L 44.174655 50.913206 
L 44.218727 51.011905 
L 44.231027 50.793696 
L 44.281248 50.87218 
L 44.302772 50.821708 
L 44.320196 51.017216 
L 44.388867 50.927669 
L 44.391941 51.007063 
L 44.463687 50.835687 
L 44.49956 50.936996 
L 44.569255 50.834812 
L 44.597953 51.017976 
L 44.611278 50.909835 
L 44.663549 50.852339 
L 44.631776 51.009254 
L 44.718896 50.932162 
L 44.756818 51.010749 
L 44.800891 50.75207 
L 44.825489 50.865025 
L 44.89211 50.794357 
L 44.876736 51.019662 
L 44.916708 50.971568 
L 44.981279 51.005782 
L 44.97308 50.752132 
L 45.006903 50.876525 
L 45.014077 50.78888 
L 45.076598 51.011361 
L 45.107346 50.933327 
L 45.156543 51.018665 
L 45.181142 50.808283 
L 45.217014 50.888668 
L 45.356405 51.00917 
L 45.224189 50.862754 
L 45.35743 50.989307 
L 45.398428 50.849113 
L 45.4384 51.020564 
L 45.468123 50.989204 
L 45.470173 51.013757 
L 45.495797 50.852774 
L 45.567542 50.884074 
L 45.654662 50.816477 
L 45.670036 51.012205 
L 45.678235 50.898728 
L 45.753055 51.016374 
L 45.769454 50.808991 
L 45.786878 50.874612 
L 45.814551 50.801494 
L 45.857599 51.017925 
L 45.894496 50.895828 
L 45.972392 51.014513 
L 45.937544 50.83868 
L 46.008264 50.944386 
L 46.044137 50.874738 
L 46.019539 50.991557 
L 46.102558 50.996147 
L 46.155855 51.017206 
L 46.196852 50.864785 
L 46.208127 50.90354 
L 46.225551 50.80078 
L 46.240925 51.005345 
L 46.31472 50.981286 
L 46.315745 50.981902 
L 46.322919 50.862545 
L 46.334194 50.865607 
L 46.338293 50.778873 
L 46.435662 51.013374 
L 46.445912 50.843939 
L 46.537131 50.997839 
L 46.546355 50.821364 
L 46.560704 50.864449 
L 46.621175 50.811637 
L 46.644749 51.01627 
L 46.670372 50.892788 
L 46.735968 51.011579 
L 46.70112 50.851877 
L 46.777991 50.866147 
L 46.809764 50.789044 
L 46.803614 51.016581 
L 46.886634 50.902877 
L 46.932756 51.020925 
L 46.982978 50.86594 
L 46.996302 50.91827 
L 47.000402 50.759389 
L 47.045499 51.005115 
L 47.106995 50.937331 
L 47.177715 51.013657 
L 47.201289 50.853157 
L 47.215638 50.89998 
L 47.25561 50.803806 
L 47.231012 51.009651 
L 47.323256 50.912276 
L 47.392952 51.017958 
L 47.354004 50.904895 
L 47.433949 50.925508 
L 47.537468 50.815809 
L 47.482121 51.002224 
L 47.542592 50.93915 
L 47.610238 51.011216 
L 47.617412 50.83844 
L 47.653285 50.949177 
L 47.74348 50.725523 
L 47.65636 51.000946 
L 47.767053 50.936129 
L 47.861347 51.007243 
L 47.786527 50.83738 
L 47.881846 50.996288 
L 47.947442 51.019182 
L 47.909519 50.826986 
L 47.986389 50.919508 
L 48.023287 50.866174 
L 48.012013 51.013335 
L 48.095032 50.94284 
L 48.165753 50.987475 
L 48.106307 50.908934 
L 48.177027 50.873179 
L 48.182152 50.73019 
L 48.28157 51.006545 
L 48.286695 50.904657 
L 48.392263 50.854186 
L 48.318468 51.013947 
L 48.395338 50.907313 
L 48.480408 51.018717 
L 48.440435 50.801616 
L 48.507056 50.938818 
L 48.53268 51.014283 
L 48.614674 50.87385 
L 48.635173 50.713374 
L 48.708968 51.011168 
L 48.722293 50.977711 
L 48.822736 50.89376 
L 48.737667 51.009729 
L 48.83811 50.935648 
L 48.92523 51.018114 
L 48.91703 50.826128 
L 48.937529 50.859048 
L 48.940604 50.817931 
L 48.961103 51.013625 
L 49.043097 50.989429 
L 49.044122 51.0132 
L 49.096394 50.791523 
L 49.147641 50.847866 
L 49.15789 50.717696 
L 49.16609 50.952301 
L 49.205037 50.956386 
L 49.253209 51.000672 
L 49.243985 50.814032 
L 49.314705 50.939524 
L 49.347503 50.778011 
L 49.421298 51.007869 
L 49.510468 51.015994 
L 49.449997 50.761029 
L 49.520717 50.905745 
L 49.612961 50.823713 
L 49.542241 51.016675 
L 49.62936 50.956538 
L 49.732879 51.018031 
L 49.689831 50.872837 
L 49.740053 50.973978 
L 49.800524 50.850977 
L 49.828198 51.014184 
L 49.848696 50.9888 
L 49.941965 51.010071 
L 49.880469 50.864706 
L 49.948115 50.90452 
L 50.03011 50.804405 
L 49.975788 51.009728 
L 50.055733 50.913146 
L 50.095706 51.014588 
L 50.143878 50.848068 
L 50.168476 50.987266 
L 50.213573 50.85581 
L 50.176676 51.017993 
L 50.281219 50.976469 
L 50.369363 51.003175 
L 50.317092 50.892082 
L 50.383713 50.928446 
L 50.454433 50.823469 
L 50.43086 51.010664 
L 50.494406 50.924082 
L 50.49953 51.018628 
L 50.583575 50.787454 
L 50.587675 50.695924 
L 50.679919 51.019845 
L 50.692218 50.883823 
L 50.832634 51.016949 
L 50.711692 50.797785 
L 50.843908 50.963918 
L 50.933078 50.710197 
L 50.905405 51.009398 
L 50.955626 50.946811 
L 50.963826 51.020945 
L 51.042746 50.779837 
L 51.067344 50.97921 
L 51.182137 50.837703 
L 51.073494 51.018778 
L 51.190337 50.923843 
L 51.244658 51.006874 
L 51.259007 50.776839 
L 51.29693 50.883009 
L 51.302054 50.818013 
L 51.347152 51.011965 
L 51.405573 50.918449 
L 51.455795 51.016162 
L 51.431196 50.805589 
L 51.516266 50.930861 
L 51.53574 50.848892 
L 51.547014 51.017568 
L 51.625934 50.948479 
L 51.700754 51.012634 
L 51.640283 50.86243 
L 51.731502 50.893795 
L 51.832971 50.857528 
L 51.77455 51.010541 
L 51.839121 50.917557 
L 51.880118 51.015643 
L 51.854495 50.800345 
L 51.950838 50.96619 
L 52.035908 50.726456 
L 51.971337 51.005008 
L 52.063581 50.877886 
L 52.179399 51.014777 
L 52.16095 50.798393 
L 52.181449 50.989516 
L 52.228596 50.783795 
L 52.264469 51.001512 
L 52.298291 50.901985 
L 52.389511 51.018669 
L 52.339289 50.804118 
L 52.414109 50.949799 
L 52.502254 50.825358 
L 52.423334 51.011949 
L 52.522752 50.972271 
L 52.572974 51.023368 
L 52.55965 50.737696 
L 52.63037 50.895798 
L 52.769762 51.011079 
L 52.79026 50.937021 
L 52.840482 50.83517 
L 52.865081 51.004109 
L 52.900953 50.94487 
L 52.999347 51.018702 
L 52.957325 50.793374 
L 53.010621 50.949098 
L 53.089541 50.814647 
L 53.036245 51.013397 
L 53.121314 50.93794 
L 53.140788 51.008617 
L 53.173586 50.794622 
L 53.230982 50.929713 
L 53.306828 50.837515 
L 53.280179 51.006025 
L 53.337576 50.954988 
L 53.418546 51.014417 
L 53.363199 50.831926 
L 53.442119 50.891746 
L 53.495416 50.755333 
L 53.450319 50.992643 
L 53.545638 50.99776 
L 53.547687 51.014289 
L 53.646081 50.840909 
L 53.655306 50.97527 
L 53.750625 51.013904 
L 53.663505 50.810013 
L 53.757799 50.922912 
L 53.811096 50.818483 
L 53.819295 51.017069 
L 53.864392 50.972252 
L 53.918714 51.021989 
L 53.948437 50.799944 
L 53.97611 50.992565 
L 54.022232 50.824074 
L 54.006858 51.013454 
L 54.092953 50.97995 
L 54.159574 51.018989 
L 54.166748 50.859315 
L 54.201596 50.943299 
L 54.292815 50.835082 
L 54.244643 51.013428 
L 54.313314 50.882202 
L 54.420932 51.006481 
L 54.334838 50.877545 
L 54.424007 50.881888 
L 54.503952 50.805959 
L 54.438356 51.016375 
L 54.5306 50.979407 
L 54.632069 51.006804 
L 54.616695 50.887638 
L 54.642318 50.976177 
L 54.737637 50.870925 
L 54.732513 51.019604 
L 54.751986 51.004507 
L 54.825782 50.858835 
L 54.870879 50.974916 
L 54.930325 51.020699 
L 54.938525 50.793099 
L 54.977472 50.883808 
L 54.982597 50.814054 
L 55.015395 51.017767 
L 55.086115 50.90799 
L 55.187584 51.012179 
L 55.135312 50.856056 
L 55.202958 50.980792 
L 55.239855 50.80733 
L 55.241905 50.770487 
L 55.314676 51.010501 
L 55.344399 50.980679 
L 55.439718 51.016469 
L 55.356698 50.807713 
L 55.448942 50.935046 
L 55.514538 50.811876 
L 55.540161 51.017048 
L 55.55861 50.954172 
L 55.658029 51.018502 
L 55.576034 50.77475 
L 55.665204 50.905142 
L 55.755398 51.006939 
L 55.702101 50.818082 
L 55.791271 50.867197 
L 55.818944 50.851659 
L 55.79742 51.008708 
L 55.891714 50.983427 
L 55.937836 51.018805 
L 55.95526 50.817027 
L 55.994208 50.877709 
L 55.997283 50.861696 
L 56.008557 51.007636 
L 56.099776 50.916669 
L 56.180746 50.999625 
L 56.107976 50.831891 
L 56.205344 50.862214 
L 56.206369 50.859185 
L 56.228918 51.015676 
L 56.284264 50.949038 
L 56.361135 51.01353 
L 56.337561 50.825633 
L 56.394957 50.972793 
L 56.464653 50.802605 
L 56.406232 51.01317 
L 56.504625 50.990118 
L 56.528199 50.816104 
L 56.640942 50.937134 
L 56.741385 50.808244 
L 56.755735 51.011967 
L 56.763934 50.842349 
L 56.870527 50.908753 
L 56.952522 51.00524 
L 56.928949 50.866324 
L 56.98532 50.986779 
L 57.080639 50.867032 
L 57.055016 51.013384 
L 57.103188 50.922785 
L 57.198507 50.84418 
L 57.187232 51.019905 
L 57.21798 50.90635 
L 57.240529 51.008198 
L 57.278452 50.856081 
L 57.330723 50.956687 
L 57.344047 50.879233 
L 57.338923 51.016745 
L 57.441416 50.966054 
L 57.54596 50.847064 
L 57.511112 51.013967 
L 57.551084 50.976073 
L 57.553134 51.021958 
L 57.61873 50.819305 
L 57.661777 50.97066 
L 57.739672 50.85604 
L 57.665877 51.008254 
L 57.775545 50.960816 
L 57.823717 51.0187 
L 57.813468 50.825093 
L 57.884188 50.921723 
L 57.960033 50.824589 
L 57.895463 51.011508 
L 57.989757 50.931545 
L 58.099425 51.016975 
L 58.029729 50.894693 
L 58.101474 50.953082 
L 58.133247 50.856125 
L 58.108649 51.01083 
L 58.212167 50.911146 
L 58.308511 51.014431 
L 58.242916 50.854462 
L 58.32286 50.923069 
L 58.327985 50.874815 
L 58.385382 51.016862 
L 58.432529 50.93786 
L 58.532972 51.012278 
L 58.4848 50.835204 
L 58.544246 50.934018 
L 58.637516 50.911744 
L 58.564745 51.015267 
L 58.649815 50.948996 
L 58.740009 51.016506 
L 58.655964 50.892002 
L 58.762558 50.996959 
L 58.827129 50.844705 
L 58.858902 51.020384 
L 58.875301 50.936406 
L 58.926547 50.869743 
L 58.909123 51.011848 
L 58.985994 50.928371 
L 59.056714 51.017815 
L 59.034166 50.822762 
L 59.102836 50.997494 
L 59.209429 50.849849 
L 59.131534 51.010528 
L 59.214554 50.965821 
L 59.264776 51.017961 
L 59.294499 50.868112 
L 59.324222 50.932038 
L 59.35702 50.812365 
L 59.404167 51.021951 
L 59.434915 50.915419 
L 59.52306 51.012381 
L 59.463613 50.898684 
L 59.546633 50.937094 
L 59.655276 50.869185 
L 59.59583 51.014917 
L 59.660401 50.936792 
L 59.723947 51.017121 
L 59.730096 50.799827 
L 59.762894 50.897887 
L 59.766994 50.855391 
L 59.835665 51.016296 
L 59.872562 50.918223 
L 59.991455 50.90425 
L 59.878712 50.976828 
L 59.995555 50.985605 
L 60.085749 51.021838 
L 60.020153 50.878696 
L 60.105223 50.965827 
L 60.211816 50.893418 
L 60.145195 51.017397 
L 60.22104 50.938038 
L 60.278437 51.013032 
L 60.256913 50.852261 
L 60.331733 50.945167 
L 60.335833 50.882175 
L 60.413728 51.022489 
L 60.440377 50.947036 
L 60.54697 51.011787 
L 60.526471 50.850625 
L 60.554144 51.0025 
L 60.666887 50.883388 
L 60.644339 51.019322 
L 60.668937 50.907223 
L 60.746832 51.014222 
L 60.713009 50.844894 
L 60.77963 50.905297 
L 60.844201 51.014349 
L 60.895448 50.966921 
L 60.899548 50.8104 
L 60.988717 51.018852 
L 61.006141 50.936566 
L 61.110684 51.017739 
L 61.065587 50.888677 
L 61.116834 50.930795 
L 61.191654 50.804119 
L 61.128108 50.993077 
L 61.202928 50.982042 
L 61.25315 51.018049 
L 61.271599 50.823917 
L 61.311571 50.957771 
L 61.388442 50.868632 
L 61.369993 51.017197 
L 61.420215 50.966964 
L 61.48991 51.021144 
L 61.508359 50.868082 
L 61.525783 50.873549 
L 61.586254 51.016118 
L 61.644675 50.967939 
L 61.731795 50.845222 
L 61.714371 51.016129 
L 61.753319 51.007958 
L 61.81584 51.019248 
L 61.801491 50.852015 
L 61.847613 50.924883 
L 61.850687 50.851545 
L 61.914233 51.011253 
L 61.957281 50.96658 
L 61.962405 51.017223 
L 62.004428 50.847067 
L 62.061824 50.905544 
L 62.064899 50.846265 
L 62.075148 51.014976 
L 62.172517 50.912463 
L 62.295509 51.006239 
L 62.19814 50.849097 
L 62.319083 50.969812 
L 62.388778 50.881163 
L 62.365205 51.018884 
L 62.431826 50.927965 
L 62.535344 51.019183 
L 62.511771 50.852566 
L 62.547643 50.983069 
L 62.556868 50.835084 
L 62.593765 51.013132 
L 62.662436 50.91679 
L 62.771079 51.011512 
L 62.692159 50.865469 
L 62.775179 50.965534 
L 62.789528 50.768126 
L 62.819251 51.008462 
L 62.889972 50.925227 
L 62.929944 51.020069 
L 62.906371 50.82548 
L 63.007839 50.994889 
L 63.054986 50.838126 
L 63.038587 51.015469 
L 63.119557 50.97425 
L 63.231275 50.858665 
L 63.190278 51.015966 
L 63.23435 50.914032 
L 63.283547 51.014548 
L 63.293796 50.874132 
L 63.346068 50.957212 
L 63.459836 50.863827 
L 63.355292 51.017827 
L 63.460861 50.870651 
L 63.468035 51.019865 
L 63.537731 50.820573 
L 63.577703 50.97204 
L 63.679172 51.018951 
L 63.583853 50.86318 
L 63.688396 50.973735 
L 63.718119 50.900062 
L 63.70172 51.012252 
L 63.800114 50.958383 
L 63.825737 51.016146 
L 63.820613 50.841859 
L 63.909782 50.947059 
L 64.007151 50.860581 
L 63.933356 51.010324 
L 64.016375 50.974786 
L 64.113744 51.016617 
L 64.069672 50.837779 
L 64.125019 50.964555 
L 64.148592 50.838585 
L 64.205988 51.020016 
L 64.234687 51.016909 
L 64.344355 50.870067 
L 64.374078 50.975431 
L 64.440699 51.005102 
L 64.471447 50.788405 
L 64.481696 50.920192 
L 64.57189 50.894285 
L 64.487846 50.996918 
L 64.57599 50.978044 
L 64.66106 51.019371 
L 64.673359 50.864554 
L 64.684633 50.955833 
L 64.741005 51.007196 
L 64.690783 50.943232 
L 64.746129 50.880133 
L 64.748179 50.850988 
L 64.766628 51.018756 
L 64.852723 50.938776 
L 64.932667 51.019461 
L 64.907044 50.822931 
L 64.965465 50.986009 
L 64.991089 50.842731 
L 65.012612 51.013192 
L 65.074109 50.993133 
L 65.076158 51.019049 
L 65.146879 50.777795 
L 65.182752 50.971974 
L 65.204275 50.883656 
L 65.279096 51.018146 
L 65.29037 51.013468 
L 65.338542 51.021211 
L 65.326243 50.910915 
L 65.385689 50.935761 
L 65.389789 50.841164 
L 65.430786 51.016293 
L 65.495357 50.961194 
L 65.574277 50.8656 
L 65.522005 51.013511 
L 65.6081 50.949288 
L 65.631673 51.011045 
L 65.638848 50.863219 
L 65.716743 50.886343 
L 65.734167 50.841458 
L 65.812062 51.013916 
L 65.828461 50.86743 
L 65.940179 51.017689 
L 65.866383 50.857792 
L 65.941204 50.96212 
L 66.053947 50.852363 
L 65.959653 51.013445 
L 66.054972 50.854356 
L 66.173864 51.016043 
L 66.113393 50.827356 
L 66.176939 50.937977 
L 66.249709 50.850643 
L 66.219986 51.016788 
L 66.286607 50.951281 
L 66.315305 51.021904 
L 66.338879 50.868638 
L 66.396275 50.932084 
L 66.464946 51.007614 
L 66.452646 50.881921 
L 66.504918 50.954116 
L 66.509018 50.835168 
L 66.56129 51.015887 
L 66.614586 51.011641 
L 66.709905 50.834358 
L 66.741678 50.908899 
L 66.806249 51.01384 
L 66.7878 50.861962 
L 66.853396 50.930667 
L 66.95384 51.015968 
L 66.926166 50.899348 
L 66.963064 50.905877 
L 67.059408 51.012058 
L 67.071707 50.879825 
L 67.179325 50.866568 
L 67.093231 51.010618 
L 67.181375 50.883896 
L 67.19265 51.020463 
L 67.210073 50.829871 
L 67.294118 50.923416 
L 67.353564 51.009019 
L 67.325891 50.849256 
L 67.391487 50.850694 
L 67.457083 50.844467 
L 67.438634 51.017274 
L 67.462208 50.973215 
L 67.566751 51.006976 
L 67.473482 50.789697 
L 67.568801 50.913003 
L 67.650796 50.8382 
L 67.633372 51.009315 
L 67.676419 50.951404 
L 67.710242 51.019841 
L 67.715367 50.886105 
L 67.787112 50.946556 
L 67.820935 50.873907 
L 67.844508 51.020157 
L 67.906004 50.910252 
L 68.008498 51.022206 
L 67.974675 50.833284 
L 68.019772 50.999225 
L 68.136615 50.890915 
L 68.078194 51.013393 
L 68.13764 50.895922 
L 68.154039 51.003965 
L 68.180687 50.85997 
L 68.250383 50.945431 
L 68.336477 51.0041 
L 68.315979 50.846927 
L 68.351851 50.912861 
L 68.403098 50.853033 
L 68.3662 51.015041 
L 68.459469 50.953692 
L 68.461519 51.014994 
L 68.557863 50.846386 
L 68.570162 50.948821 
L 68.661382 50.851409 
L 68.60501 51.011863 
L 68.682905 50.923933 
L 68.752601 51.011444 
L 68.769 50.897084 
L 68.794623 50.937833 
L 68.860219 51.010471 
L 68.84177 50.866317 
L 68.905316 50.927317 
L 68.994486 50.732266 
L 68.954513 51.005075 
L 69.016009 50.921603 
L 69.09083 51.010537 
L 69.08468 50.795776 
L 69.124652 50.905435 
L 69.156425 50.82612 
L 69.177949 51.015871 
L 69.231246 50.973175 
L 69.304016 51.000771 
L 69.255844 50.864236 
L 69.314265 50.915018 
L 69.328614 50.837639 
L 69.340914 51.020191 
L 69.425983 50.890066 
L 69.489529 51.018831 
L 69.455706 50.880657 
L 69.539751 50.972433 
L 69.578699 50.817063 
L 69.610472 51.013599 
L 69.650444 50.984144 
L 69.719115 50.81386 
L 69.712965 51.008287 
L 69.762162 50.94695 
L 69.826733 51.015238 
L 69.865681 50.870317 
L 69.872855 50.958456 
L 69.949725 50.836695 
L 69.883104 51.001454 
L 69.984573 50.911464 
L 70.074767 51.002562 
L 69.989698 50.848658 
L 70.095266 50.906379 
L 70.148563 50.883307 
L 70.10654 51.011027 
L 70.153687 50.999911 
L 70.252081 51.019175 
L 70.202884 50.869924 
L 70.259256 50.990025 
L 70.26848 50.878713 
L 70.27668 51.017187 
L 70.369949 50.981871 
L 70.455018 50.886776 
L 70.380198 51.013331 
L 70.486791 50.968015 
L 70.564686 51.011824 
L 70.50524 50.839854 
L 70.595434 50.934115 
L 70.617983 50.767031 
L 70.655906 51.01565 
L 70.706127 50.938704 
L 70.756349 51.017561 
L 70.805546 50.853657 
L 70.813746 50.886511 
L 70.814771 50.872435 
L 70.915214 51.015507 
L 70.921364 50.924012 
L 71.036157 51.015404 
L 70.942887 50.897807 
L 71.037181 50.996806 
L 71.101752 50.876288 
L 71.122251 51.020022 
L 71.147874 51.004504 
L 71.21347 50.84017 
L 71.161199 51.011795 
L 71.260617 50.996583 
L 71.315964 51.018512 
L 71.362086 50.850127 
L 71.465604 51.010275 
L 71.480978 50.895812 
L 71.483028 50.851659 
L 71.509677 50.999759 
L 71.590646 50.918649 
L 71.690065 50.883819 
L 71.650093 51.015121 
L 71.69314 50.946796 
L 71.77411 51.018204 
L 71.715689 50.861168 
L 71.803833 50.95967 
L 71.879678 50.992438 
L 71.814082 50.934233 
L 71.889928 50.8881 
L 71.961673 50.887872 
L 71.968848 51.02088 
L 71.984222 50.998532 
L 72.079541 51.017366 
L 72.033418 50.827464 
L 72.094915 51.006902 
L 72.129762 50.850757 
L 72.113363 51.018972 
L 72.209707 50.903275 
L 72.238405 50.805482 
L 72.222007 50.98676 
L 72.292727 50.971655 
L 72.311176 51.01406 
L 72.336799 50.845965 
L 72.39932 50.930477 
L 72.446467 50.864516 
L 72.425969 51.01432 
L 72.508988 50.965272 
L 72.625831 50.883111 
L 72.513088 51.011187 
L 72.628906 50.925475 
L 72.740624 51.012577 
L 72.678103 50.882787 
L 72.741649 50.984101 
L 72.844142 50.855665 
L 72.829793 51.019344 
L 72.856441 50.872364 
L 72.857466 50.871118 
L 72.867716 50.983526 
L 72.893339 50.999324 
L 72.948686 51.019717 
L 72.922037 50.871085 
L 72.998907 50.937897 
L 73.000957 50.882494 
L 73.03273 51.013241 
L 73.1096 50.93879 
L 73.128049 50.88074 
L 73.19057 51.015253 
L 73.215169 50.974976 
L 73.230543 51.018602 
L 73.317662 50.850495 
L 73.325862 50.967647 
L 73.373009 51.012352 
L 73.336111 50.909701 
L 73.378133 50.887189 
L 73.380183 50.858491 
L 73.472427 51.016931 
L 73.487801 50.909312 
L 73.509325 50.822741 
L 73.494976 50.992087 
L 73.560572 50.974506 
L 73.649741 51.021769 
L 73.643592 50.899107 
L 73.66819 50.900372 
L 73.704063 50.877251 
L 73.691764 51.014667 
L 73.771709 50.956398 
L 73.814756 51.020073 
L 73.786058 50.860312 
L 73.882402 50.953842 
L 73.887526 50.810616 
L 73.916224 51.017773 
L 73.994119 50.910403 
L 74.105837 51.01584 
L 74.001294 50.828165 
L 74.108912 50.946291 
L 74.183732 50.907179 
L 74.176558 51.015192 
L 74.21858 50.961687 
L 74.30775 51.0156 
L 74.264702 50.888114 
L 74.344647 50.959165 
L 74.393844 50.837062 
L 74.387695 51.009581 
L 74.45534 50.951228 
L 74.552709 51.007491 
L 74.53426 50.870014 
L 74.565008 50.922008 
L 74.650078 51.008925 
L 74.574233 50.874616 
L 74.654178 50.865702 
L 74.656228 50.820297 
L 74.679801 51.019593 
L 74.763846 50.898921 
L 74.794594 50.84851 
L 74.77102 51.016994 
L 74.866339 50.999452 
L 74.953459 51.007545 
L 74.93091 50.854559 
L 74.961658 50.949959 
L 75.063127 50.87547 
L 74.986257 51.012099 
L 75.073376 50.935237 
L 75.164595 50.836624 
L 75.114374 51.01775 
L 75.17792 50.960628 
L 75.24454 51.019912 
L 75.223017 50.875567 
L 75.289638 50.991394 
L 75.336785 50.830686 
L 75.310136 51.013901 
L 75.399306 51.00878 
L 75.503849 51.017258 
L 75.444403 50.839407 
L 75.506924 50.983065 
L 75.583794 50.771147 
L 75.599168 51.011119 
L 75.620692 50.978316 
L 75.694487 51.018842 
L 75.675013 50.834105 
L 75.73036 50.960807 
L 75.749833 50.877317 
L 75.755983 51.006681 
L 75.840028 50.962668 
L 75.935347 51.010775 
L 75.931247 50.867335 
L 75.951746 50.970922 
L 76.038865 50.867906 
L 75.96917 51.018183 
L 76.064489 50.942116 
L 76.145458 51.01582 
L 76.169032 50.880158 
L 76.177231 50.998159 
L 76.293049 50.834771 
L 76.19158 51.015188 
L 76.303298 50.911421 
L 76.390418 51.015214 
L 76.367869 50.802175 
L 76.416041 50.964373 
L 76.487787 50.831367 
L 76.458064 51.015115 
L 76.527759 50.956839 
L 76.566707 51.015568 
L 76.595405 50.846635 
L 76.638452 50.987393 
L 76.705073 50.907903 
L 76.686624 51.014484 
L 76.749145 50.98124 
L 76.836265 51.01542 
L 76.823966 50.881198 
L 76.858813 50.963629 
L 76.946958 50.873358 
L 76.890586 51.009002 
L 76.972581 50.926205 
L 77.0679 51.020966 
L 76.992055 50.869736 
L 77.083274 50.922808 
L 77.109922 50.848448 
L 77.124272 51.01255 
L 77.186793 50.966377 
L 77.278012 51.01344 
L 77.211391 50.81982 
L 77.280062 50.922891 
L 77.325159 50.830271 
L 77.319009 51.01938 
L 77.39178 50.904994 
L 77.494273 51.012377 
L 77.423553 50.874242 
L 77.510672 50.986587 
L 77.614191 50.839199 
L 77.53937 51.013991 
L 77.62444 50.928087 
L 77.733083 51.007619 
L 77.658263 50.88478 
L 77.736158 50.944665 
L 77.838651 50.852245 
L 77.760756 51.015777 
L 77.843776 50.960503 
L 77.851975 51.020331 
L 77.880674 50.880756 
L 77.952419 50.924615 
L 77.988292 50.8689 
L 78.026214 51.017785 
L 78.063112 50.926627 
L 78.159456 50.862487 
L 78.076436 51.011195 
L 78.16868 50.953215 
L 78.197379 51.015932 
L 78.272199 50.883895 
L 78.278349 50.950295 
L 78.385967 50.877909 
L 78.329595 51.014733 
L 78.390066 50.91332 
L 78.427989 51.013879 
L 78.465912 50.862953 
L 78.503834 50.933949 
L 78.602228 50.916028 
L 78.543807 51.003469 
L 78.605303 50.961171 
L 78.674998 51.017104 
L 78.629901 50.905091 
L 78.715996 50.967417 
L 78.811315 51.013864 
L 78.786716 50.852766 
L 78.818489 50.939451 
L 78.919958 50.834216 
L 78.89126 51.016468 
L 78.926108 50.97906 
L 79.012202 51.018192 
L 78.999903 50.849894 
L 79.036801 50.968894 
L 79.144419 50.860884 
L 79.133144 51.014876 
L 79.153643 50.878839 
L 79.154668 50.872692 
L 79.178242 51.009526 
L 79.247937 50.969959 
L 79.353506 51.009061 
L 79.27766 50.821238 
L 79.357605 50.954707 
L 79.397578 50.873703 
L 79.371954 51.008238 
L 79.468298 50.962915 
L 79.528769 51.02103 
L 79.554393 50.923555 
L 79.575916 50.965389 
L 79.657911 50.871482 
L 79.639462 51.010702 
L 79.688659 50.917638 
L 79.748106 50.878157 
L 79.701984 51.010304 
L 79.787053 50.956707 
L 79.875198 51.019296 
L 79.814726 50.860311 
L 79.899796 51.00386 
L 79.979741 50.891202 
L 79.938744 51.020507 
L 80.016639 50.945549 
L 80.103758 51.017358 
L 80.123232 50.883247 
L 80.130406 50.997538 
L 80.159105 50.867867 
L 80.196002 51.012526 
L 80.244174 50.947482 
L 80.356917 51.008739 
L 80.280047 50.897386 
L 80.357942 50.981528 
L 80.372291 50.890366 
L 80.400989 51.018287 
L 80.468635 50.945972 
L 80.512707 51.015414 
L 80.532181 50.829737 
L 80.580353 50.960016 
L 80.661323 50.843259 
L 80.643899 51.017241 
L 80.690021 50.96464 
L 80.70232 51.014728 
L 80.731018 50.848058 
L 80.799689 50.958104 
L 80.85811 50.878156 
L 80.835562 51.017424 
L 80.908332 50.973753 
L 80.910382 51.017107 
L 81.004676 50.880204 
L 81.019025 50.980314 
L 81.077447 50.856895 
L 81.023125 51.010976 
L 81.128693 50.97651 
L 81.198389 51.019792 
L 81.203514 50.857391 
L 81.237336 50.935788 
L 81.272184 50.897241 
L 81.245536 51.014275 
L 81.338805 50.98518 
L 81.356229 51.018012 
L 81.415675 50.863912 
L 81.448473 50.994774 
L 81.485371 50.897582 
L 81.532518 51.021921 
L 81.560191 50.957464 
L 81.641161 51.011421 
L 81.620662 50.889756 
L 81.668834 50.936971 
L 81.799001 50.89805 
L 81.678059 50.995279 
L 81.804126 50.989825 
L 81.905594 51.017396 
L 81.900469 50.896209 
L 81.913794 50.97693 
L 82.030636 51.001023 
L 81.932242 50.909148 
L 82.039861 50.919113 
L 82.042935 50.87101 
L 82.095207 51.015525 
L 82.149529 50.935781 
L 82.161828 51.017615 
L 82.222299 50.858815 
L 82.261247 50.951052 
L 82.312493 50.848796 
L 82.301219 51.019161 
L 82.375014 50.919061 
L 82.491857 51.01685 
L 82.459059 50.870164 
L 82.499032 50.98211 
L 82.564627 50.814184 
L 82.505181 51.012087 
L 82.605625 51.008027 
L 82.68352 51.00709 
L 82.667121 50.897474 
L 82.708118 50.948393 
L 82.795238 50.831829 
L 82.734767 51.010164 
L 82.816762 51.004769 
L 82.864933 50.8739 
L 82.852634 51.014773 
L 82.930529 50.980179 
L 83.043272 51.016093 
L 82.957178 50.918966 
L 83.045322 50.969254 
L 83.156015 50.883477 
L 83.065821 51.016944 
L 83.158065 50.919962 
L 83.267733 51.014188 
L 83.22981 50.841726 
L 83.270808 50.97227 
L 83.343578 50.785275 
L 83.290282 51.016227 
L 83.381501 50.930744 
L 83.419423 51.018018 
L 83.404049 50.840561 
L 83.493219 50.972237 
L 83.55164 51.019131 
L 83.54754 50.890579 
L 83.601862 50.950156 
L 83.667458 50.868783 
L 83.637735 51.013044 
L 83.70948 51.005458 
L 83.832472 50.912073 
L 83.71153 51.007817 
L 83.836572 50.979745 
L 83.870395 51.018488 
L 83.935991 50.853882 
L 83.94419 50.938127 
L 83.964689 50.790578 
L 84.006711 51.016046 
L 84.054883 50.903146 
L 84.072307 51.005205 
L 84.063083 50.815578 
L 84.166601 50.956025 
L 84.197349 50.856344 
L 84.173776 51.008538 
L 84.278319 50.949937 
L 84.389012 51.00785 
L 84.34904 50.866485 
L 84.390037 51.005962 
L 84.50278 50.855294 
L 84.478181 51.018771 
L 84.50483 50.897211 
L 84.558126 51.016959 
L 84.615523 50.903131 
L 84.692393 50.860675 
L 84.680094 51.019146 
L 84.722116 50.970978 
L 84.827684 51.019796 
L 84.781562 50.858349 
L 84.831784 50.951543 
L 84.896355 50.839339 
L 84.839984 51.013546 
L 84.933253 50.990335 
L 84.934278 51.012108 
L 84.949652 50.855521 
L 85.039846 50.909187 
L 85.418047 50.962712 
L 85.425222 50.911744 
L 85.429321 50.861078 
L 85.439571 51.0177 
L 85.53284 50.950405 
L 85.631234 51.019947 
L 85.640458 50.898116 
L 85.644558 50.971142 
L 85.683505 50.841834 
L 85.669156 51.019061 
L 85.758326 50.926713 
L 85.776774 50.845946 
L 85.847495 51.005543 
L 85.863894 50.980502 
L 85.906941 51.018512 
L 85.92334 50.883723 
L 85.966387 50.926284 
L 85.970487 50.831438 
L 86.055557 51.018388 
L 86.076055 50.966258 
L 86.219546 51.001091 
L 86.223646 50.918398 
L 86.226721 50.863534 
L 86.293342 51.01795 
L 86.334339 50.910679 
L 86.410184 50.878968 
L 86.344588 51.015823 
L 86.436833 50.944075 
L 86.518827 51.015092 
L 86.540351 50.82273 
L 86.548551 50.958011 
L 86.63772 50.843407 
L 86.63362 51.011444 
L 86.660268 50.928047 
L 86.70844 51.017535 
L 86.673593 50.857794 
L 86.771986 50.943082 
L 86.816059 50.836168 
L 86.786335 51.014743 
L 86.881654 50.953998 
L 86.985173 51.017611 
L 86.962624 50.881693 
L 86.992347 50.947899 
L 87.167611 50.927652 
L 86.997472 50.997572 
L 87.170686 50.962191 
L 87.257806 51.017894 
L 87.272155 50.844467 
L 87.280354 50.936712 
L 87.34595 51.016051 
L 87.334676 50.847238 
L 87.395147 50.987897 
L 87.508915 50.803338 
L 87.498665 51.017938 
L 87.510965 50.852932 
L 87.58476 51.016879 
L 87.615508 50.810047 
L 87.623708 50.96252 
L 87.737475 50.870998 
L 87.691353 51.021982 
L 87.739525 50.882354 
L 87.7467 51.019562 
L 87.805121 50.872594 
L 87.854318 50.979719 
L 87.959886 50.88994 
L 87.861493 51.017083 
L 87.965011 50.964679 
L 88.048031 51.01612 
L 87.971161 50.854178 
L 88.068529 50.924022 
L 88.072629 50.855983 
L 88.097228 51.012897 
L 88.176148 50.988573 
L 88.197671 51.01681 
L 88.187422 50.922881 
L 88.270442 50.920791 
L 88.37806 50.845451 
L 88.300165 51.01881 
L 88.381135 50.925663 
L 88.464154 51.006762 
L 88.449805 50.837652 
L 88.491828 50.933085 
L 88.494902 50.848835 
L 88.519501 51.018592 
L 88.601496 50.955101 
L 88.706039 51.019911 
L 88.639418 50.866305 
L 88.715264 51.006923 
L 88.778809 50.896764 
L 88.85363 50.848598 
L 88.816732 51.018449 
L 88.886428 50.973684 
L 88.989946 51.021078 
L 88.899752 50.922363 
L 88.996096 50.969052 
L 89.00737 50.844405 
L 89.08219 51.01524 
L 89.109864 50.908495 
L 89.183659 50.841071 
L 89.137537 51.018255 
L 89.221581 50.91306 
L 89.281028 51.015917 
L 89.287177 50.871289 
L 89.335349 50.994462 
L 89.383521 50.876585 
L 89.422469 51.014219 
L 89.450142 50.90155 
L 89.515738 51.015147 
L 89.471666 50.853705 
L 89.560835 50.912021 
L 89.617206 50.911347 
L 89.611057 51.015496 
L 89.661279 50.970306 
L 89.777096 51.018526 
L 89.727899 50.813919 
L 89.778121 51.006853 
L 89.793495 50.854803 
L 89.79862 51.011674 
L 89.889839 50.992013 
L 89.983108 51.010683 
L 89.945186 50.883164 
L 89.997457 51.002463 
L 90.061003 50.845416 
L 90.008732 51.010979 
L 90.1102 50.930326 
L 90.177846 51.005576 
L 90.173746 50.841822 
L 90.222943 50.998387 
L 90.227043 50.872971 
L 90.253691 51.011351 
L 90.334661 50.916419 
L 90.409481 50.871409 
L 90.448429 51.016023 
L 90.481227 50.850819 
L 90.531449 51.019696 
L 90.561172 50.978498 
L 90.59192 51.017564 
L 90.616518 50.886278 
L 90.67084 50.964547 
L 90.772308 50.882228 
L 90.721062 51.020294 
L 90.780508 50.962674 
L 90.852253 51.012436 
L 90.881976 50.835109 
L 90.893251 50.998193 
L 90.961921 51.005524 
L 90.923999 50.890507 
L 90.977295 50.915208 
L 90.991645 50.84338 
L 91.009068 51.006922 
L 91.06544 50.985818 
L 91.151534 51.015071 
L 91.156659 50.901662 
L 91.175108 50.961369 
L 91.242754 50.850384 
L 91.191507 51.020278 
L 91.282726 50.989045 
L 91.283751 51.019222 
L 91.340123 50.866854 
L 91.390344 50.933289 
L 91.447741 50.887211 
L 91.492838 51.017405 
L 91.498987 50.973619 
L 91.559459 51.021164 
L 91.576883 50.879818 
L 91.608656 50.959613 
L 91.712174 50.892334 
L 91.647603 51.015162 
L 91.717299 50.983128 
L 91.735748 51.022115 
L 91.822867 50.885462 
L 91.920236 51.013339 
L 91.916136 50.856644 
L 91.93766 50.895358 
L 91.953034 50.861866 
L 91.973532 51.02208 
L 92.046303 50.930155 
L 92.114974 50.893075 
L 92.066802 51.019783 
L 92.143672 50.958741 
L 92.197993 51.019519 
L 92.193894 50.877508 
L 92.25334 50.937772 
L 92.320985 50.886791 
L 92.264614 51.016882 
L 92.350709 51.009275 
L 92.40298 51.022085 
L 92.393756 50.851559 
L 92.455252 50.971646 
L 92.577219 50.885614 
L 92.464476 51.007981 
L 92.579269 50.949566 
L 92.642815 51.017285 
L 92.676638 50.79133 
L 92.687912 50.87 
L 92.784256 51.021526 
L 92.789381 50.822077 
L 92.813979 50.94634 
L 92.820129 50.851748 
L 92.847802 51.022302 
L 92.920573 50.959886 
L 93.005642 51.015214 
L 93.016916 50.878993 
L 93.030241 50.93596 
L 93.076363 51.019343 
L 93.11941 50.879508 
L 93.120435 50.867726 
L 93.152208 51.01127 
L 93.223953 50.950947 
L 93.302873 50.898849 
L 93.264951 51.015738 
L 93.318247 50.987791 
L 93.409467 51.013757 
L 93.355145 50.88829 
L 93.426891 50.92614 
L 93.541683 51.011267 
L 93.512985 50.8851 
L 93.544758 50.924215 
L 93.582681 50.852843 
L 93.630853 51.017645 
L 93.651351 50.949129 
L 93.74872 51.016325 
L 93.721047 50.869983 
L 93.764094 50.966488 
L 93.866588 51.014529 
L 93.780493 50.865994 
L 93.871712 50.947911 
L 93.977281 50.890181 
L 93.942433 51.01869 
L 93.980356 50.983174 
L 94.017253 51.01675 
L 94.033652 50.875194 
L 94.090024 50.946508 
L 94.146395 50.868112 
L 94.102323 51.015 
L 94.199692 50.960346 
L 94.202766 51.019468 
L 94.22224 50.834835 
L 94.312435 51.00216 
L 94.353432 50.897294 
L 94.343183 51.017457 
L 94.424152 50.959718 
L 94.534845 51.012642 
L 94.466175 50.819122 
L 94.53587 50.984075 
L 94.589167 50.874279 
L 94.557394 51.015409 
L 94.648613 50.936173 
L 94.696785 51.004155 
L 94.680386 50.866911 
L 94.702935 50.959285 
" clip-path="url(#p09a0a94a75)" style="fill: none; stroke: #e377c2; stroke-width: 0.5; stroke-linecap: square"/>
   </g>
  </g>
 </g>
 <defs>
  <clipPath id="p09a0a94a75">
   <rect x="0" y="-0" width="99.212598" height="51.023622"/>
  </clipPath>
 </defs>
</svg>
