<?xml version="1.0" encoding="utf-8" standalone="no"?>
<!DOCTYPE svg PUBLIC "-//W3C//DTD SVG 1.1//EN"
  "http://www.w3.org/Graphics/SVG/1.1/DTD/svg11.dtd">
<svg xmlns:xlink="http://www.w3.org/1999/xlink" width="99.212598pt" height="51.023622pt" viewBox="0 0 99.212598 51.023622" xmlns="http://www.w3.org/2000/svg" version="1.1">
 <metadata>
  <rdf:RDF xmlns:dc="http://purl.org/dc/elements/1.1/" xmlns:cc="http://creativecommons.org/ns#" xmlns:rdf="http://www.w3.org/1999/02/22-rdf-syntax-ns#">
   <cc:Work>
    <dc:type rdf:resource="http://purl.org/dc/dcmitype/StillImage"/>
    <dc:date>2024-10-31T23:12:51.610861</dc:date>
    <dc:format>image/svg+xml</dc:format>
    <dc:creator>
     <cc:Agent>
      <dc:title>Matplotlib v3.8.4, https://matplotlib.org/</dc:title>
     </cc:Agent>
    </dc:creator>
   </cc:Work>
  </rdf:RDF>
 </metadata>
 <defs>
  <style type="text/css">*{stroke-linejoin: round; stroke-linecap: butt}</style>
 </defs>
 <g id="figure_1">
  <g id="patch_1">
   <path d="M 0 51.023622 
L 99.212598 51.023622 
L 99.212598 0 
L 0 0 
L 0 51.023622 
z
" style="fill: none"/>
  </g>
  <g id="axes_1">
   <g id="patch_2">
    <path d="M 0 51.023622 
L 99.212598 51.023622 
L 99.212598 -0 
L 0 -0 
L 0 51.023622 
z
" style="fill: none"/>
   </g>
   <g id="matplotlib.axis_1">
    <g id="xtick_1"/>
    <g id="xtick_2"/>
   </g>
   <g id="matplotlib.axis_2">
    <g id="ytick_1"/>
    <g id="ytick_2"/>
   </g>
   <g id="line2d_1">
    <path d="M 4.509664 2.532833 
L 4.535287 -0 
L 4.553736 3.740852 
L 4.753598 38.148261 
L 4.856092 46.423644 
L 4.791521 38.063628 
L 4.891964 43.261927 
L 4.912463 41.015263 
L 4.968835 45.957896 
L 4.993433 44.927381 
L 5.051854 44.516917 
L 5.074403 45.31149 
L 5.153323 48.244463 
L 5.203545 46.654193 
L 5.209694 46.549091 
L 5.238392 48.732458 
L 5.261966 49.653817 
L 5.292714 47.790225 
L 5.35216 49.025557 
L 5.36036 49.065448 
L 5.372659 48.706229 
L 5.408532 46.239853 
L 5.474128 49.341044 
L 5.486427 50.021865 
L 5.562272 47.734785 
L 5.571496 47.634585 
L 5.598145 48.963583 
L 5.638117 50.886323 
L 5.703713 48.590067 
L 5.806207 47.514175 
L 5.74881 49.687138 
L 5.821581 48.33239 
L 5.903575 50.867435 
L 5.940473 49.070609 
L 5.99582 48.385687 
L 6.027593 49.628503 
L 6.135211 50.960752 
L 6.06449 49.453764 
L 6.146485 50.150744 
L 6.244879 47.789037 
L 6.272552 49.092442 
L 6.273577 49.094513 
L 6.279727 48.906481 
L 6.296126 47.96432 
L 6.364796 50.433308 
L 6.387345 50.931967 
L 6.429367 49.489984 
L 6.431417 49.496734 
L 6.514437 50.516014 
L 6.472414 49.163949 
L 6.586182 49.803148 
L 6.602581 48.305744 
L 6.636404 50.663085 
L 6.69995 49.556675 
L 6.732748 48.401014 
L 6.792194 49.780723 
L 6.801419 50.575697 
L 6.856765 49.051486 
L 6.909037 50.366436 
L 6.915186 50.469218 
L 6.924411 50.955338 
L 6.984882 50.180401 
L 7.032029 50.72114 
L 7.055603 50.175473 
L 7.153996 48.631321 
L 7.125298 50.588855 
L 7.17142 49.99684 
L 7.182695 50.446328 
L 7.262639 49.191666 
L 7.273914 49.334068 
L 7.353859 50.852007 
L 7.41638 49.973384 
L 7.428679 49.039079 
L 7.494275 50.877373 
L 7.526048 50.029464 
L 7.595743 50.867786 
L 7.623417 49.993745 
L 7.632641 49.588507 
L 7.663389 50.746641 
L 7.733085 50.074584 
L 7.766908 50.262554 
L 7.747434 49.822375 
L 7.784331 49.842183 
L 7.791506 49.957335 
L 7.805855 50.269464 
L 7.892975 49.815376 
L 7.898099 49.837662 
L 7.967795 50.659516 
L 7.947296 49.596078 
L 8.003668 49.800982 
L 8.031341 49.613352 
L 8.05184 50.398323 
L 8.060039 50.959764 
L 8.123585 50.21297 
L 8.166632 50.657688 
L 8.177907 50.755897 
L 8.220954 49.823356 
L 8.250677 50.253894 
L 8.262976 49.948076 
L 8.290649 50.900033 
L 8.327547 50.863637 
L 8.331647 50.99604 
L 8.408517 50.006872 
L 8.421841 50.263262 
L 8.524335 50.731023 
L 8.497686 49.936584 
L 8.540734 50.401569 
L 8.654501 49.901824 
L 8.581731 50.986707 
L 8.663726 50.004209 
L 8.733421 50.999445 
L 8.791843 50.576256 
L 8.888187 49.91809 
L 8.861538 50.616658 
L 8.900486 50.555262 
L 8.912785 50.916737 
L 8.924059 50.383092 
L 9.012204 50.610022 
L 9.038852 50.862611 
L 9.064476 49.936701 
L 9.109573 50.426012 
L 9.14647 50.008362 
L 9.169019 50.716587 
L 9.206942 50.553032 
L 9.264338 50.871029 
L 9.234615 50.10988 
L 9.323784 50.694726 
L 9.334033 50.324655 
L 9.399629 50.977992 
L 9.435502 50.646626 
L 9.511347 50.330156 
L 9.46625 50.753932 
L 9.521597 50.750122 
L 9.62614 50.974896 
L 9.597442 50.320395 
L 9.629215 50.734086 
L 9.657913 50.967017 
L 9.746057 50.168023 
L 9.757332 49.841523 
L 9.837277 50.997367 
L 9.840351 50.93985 
L 9.961294 50.132947 
L 9.846501 50.999972 
L 10.027915 50.578707 
L 10.133483 50.935198 
L 10.046363 50.455282 
L 10.141682 50.746723 
L 10.256475 50.373875 
L 10.173455 50.990111 
L 10.262625 50.509024 
L 10.298497 50.986258 
L 10.324121 50.059572 
L 10.374343 50.529571 
L 10.499385 50.207019 
L 10.449163 50.994508 
L 10.503485 50.231407 
L 10.595729 50.970466 
L 10.580355 50.186608 
L 10.636726 50.547576 
L 10.665424 50.305992 
L 10.697197 50.965819 
L 10.734095 50.76697 
L 10.748444 51.005458 
L 10.790466 50.387545 
L 10.896035 50.121553 
L 10.81404 50.807251 
L 10.906284 50.213677 
L 10.939082 51.014603 
L 11.035426 50.604979 
L 11.092822 50.232634 
L 11.080523 50.97483 
L 11.148169 50.508961 
L 11.164568 50.207696 
L 11.201465 50.881863 
L 11.259887 50.479493 
L 11.28961 50.780713 
L 11.312158 50.080087 
L 11.314208 50.070398 
L 11.330607 50.759493 
L 11.411577 50.929785 
L 11.399278 50.349779 
L 11.4372 50.491598 
L 11.519195 50.997594 
L 11.503821 50.267697 
L 11.551993 50.652553 
L 11.613489 50.103808 
L 11.579666 50.762451 
L 11.669861 50.469916 
L 11.751856 50.978644 
L 11.722132 50.418794 
L 11.779529 50.479598 
L 11.870748 50.215789 
L 11.819501 50.808782 
L 11.884072 50.683601 
L 11.965042 50.984275 
L 11.937369 50.41121 
L 12.00399 50.963859 
L 12.00604 50.968541 
L 12.040887 50.626612 
L 12.055236 50.28179 
L 12.136206 50.941615 
L 12.147481 50.73973 
L 12.16388 50.407197 
L 12.182328 50.964753 
L 12.248949 50.784494 
L 12.252024 50.940746 
L 12.301221 50.272934 
L 12.353493 50.324464 
L 12.459061 50.659869 
L 12.407814 50.137249 
L 12.487759 50.500048 
L 12.496983 50.321451 
L 12.535931 50.994972 
L 12.593327 50.601402 
L 12.626125 50.931887 
L 12.663023 50.340104 
L 12.698896 50.495976 
L 12.699921 50.494139 
L 12.707095 50.699474 
L 12.764492 51.012406 
L 12.734768 50.576086 
L 12.816763 50.651253 
L 12.86596 50.963407 
L 12.845461 50.409546 
L 12.915157 50.459028 
L 12.938731 50.372271 
L 12.966404 50.841566 
L 12.973578 51.022538 
L 13.056598 50.391674 
L 13.076072 50.768524 
L 13.09862 50.992995 
L 13.116044 50.422389 
L 13.124244 50.238055 
L 13.218538 50.75307 
L 13.224687 51.001328 
L 13.280034 50.259564 
L 13.334356 50.959805 
L 13.353829 50.409457 
L 13.33948 50.968153 
L 13.473747 50.744426 
L 13.58239 51.017855 
L 13.517819 50.470651 
L 13.58649 50.951181 
L 13.681809 50.483793 
L 13.650036 50.968655 
L 13.697183 50.932613 
L 13.701282 50.994554 
L 13.780202 50.308279 
L 13.781227 50.303424 
L 13.809925 50.671002 
L 13.820175 50.645242 
L 13.858097 50.996985 
L 13.911394 50.464461 
L 13.931893 50.697063 
L 14.021062 51.012752 
L 13.98109 50.637631 
L 14.043611 50.723381 
L 14.067184 50.982921 
L 14.149179 50.638905 
L 14.186077 50.562205 
L 14.162503 50.972175 
L 14.229124 50.943711 
L 14.250648 51.0116 
L 14.28652 50.672739 
L 14.321368 50.676675 
L 14.326493 50.570752 
L 14.404388 50.989828 
L 14.433086 50.648377 
L 14.482283 50.238386 
L 14.451535 50.931907 
L 14.542754 50.650809 
L 14.548904 50.985575 
L 14.641148 50.184723 
L 14.655497 50.771757 
L 14.779514 50.454897 
L 14.725193 50.946419 
L 14.782589 50.508329 
L 14.896357 51.000912 
L 14.903531 50.908956 
L 15.0091 50.498796 
L 14.938379 51.008077 
L 15.017299 50.858965 
L 15.054197 51.01391 
L 15.070596 50.486223 
L 15.127992 50.848983 
L 15.247909 50.545988 
L 15.194613 50.997907 
L 15.249959 50.568579 
L 15.32068 50.82109 
L 15.346303 50.392812 
L 15.361677 50.58658 
L 15.421124 50.472989 
L 15.432398 50.715434 
L 15.522592 50.935175 
L 15.47237 50.461258 
L 15.534891 50.562255 
L 15.55744 50.504555 
L 15.573839 50.939031 
L 15.615861 50.795225 
L 15.680432 50.921347 
L 15.63021 50.490653 
L 15.726554 50.801632 
L 15.824948 50.673495 
L 15.799325 50.992011 
L 15.836222 50.808007 
L 15.918217 50.979397 
L 15.891569 50.680312 
L 15.94999 50.845023 
L 16.001237 51.009703 
L 15.966389 50.656365 
L 16.03301 50.74352 
L 16.039159 50.538754 
L 16.101681 50.97222 
L 16.145753 50.656829 
L 16.253371 50.389881 
L 16.228772 50.827744 
L 16.26362 50.545976 
L 16.274895 50.848758 
L 16.311792 50.377555 
L 16.377388 50.636901 
L 16.383538 50.73815 
L 16.41941 50.952664 
L 16.480907 50.478362 
L 16.492181 50.70794 
L 16.559827 50.551905 
L 16.511655 50.892771 
L 16.596724 50.880703 
L 16.657195 50.992806 
L 16.623373 50.747882 
L 16.708442 50.901907 
L 16.811961 50.69901 
L 16.752514 50.944255 
L 16.82016 50.902443 
L 16.867307 50.980128 
L 16.853983 50.65804 
L 16.925728 50.772335 
L 16.943152 50.594647 
L 16.966726 50.956058 
L 17.032322 50.857432 
L 17.041546 51.004822 
L 17.069219 50.5245 
L 17.111242 50.627348 
L 17.174788 50.40045 
L 17.204511 50.867249 
L 17.235259 50.42859 
L 17.305979 50.846608 
L 17.352101 50.549715 
L 17.356201 50.451868 
L 17.388999 50.896721 
L 17.45972 50.647865 
L 17.494567 50.979934 
L 17.480218 50.587825 
L 17.581687 50.947398 
L 17.648308 50.953696 
L 17.634984 50.695245 
L 17.68828 50.919989 
L 17.738502 50.452502 
L 17.754901 51.009102 
L 17.794873 50.948794 
L 17.85022 51.008257 
L 17.821522 50.633665 
L 17.900442 50.789074 
L 17.92914 50.975441 
L 17.961938 50.683122 
L 18.013185 50.844628 
L 18.130027 50.408663 
L 18.062382 50.923777 
L 18.137202 50.593951 
L 18.251995 50.860668 
L 18.187424 50.417894 
L 18.254044 50.847259 
L 18.298117 50.391611 
L 18.268393 50.917941 
L 18.355513 50.917743 
L 18.358588 51.002774 
L 18.373962 50.472587 
L 18.462106 50.804309 
L 18.463131 50.800648 
L 18.474405 51.011164 
L 18.529752 50.959833 
L 18.618921 51.007831 
L 18.580999 50.701916 
L 18.631221 50.830886 
L 18.689642 50.513648 
L 18.668118 51.018886 
L 18.742938 50.793665 
L 18.847482 50.964178 
L 18.834158 50.459287 
L 18.854656 50.834015 
L 18.889504 50.648068 
L 18.898729 51.00703 
L 18.9551 50.909515 
L 18.991998 51.006685 
L 19.009422 50.761018 
L 19.069893 50.581397 
L 19.03402 50.950651 
L 19.11089 50.897141 
L 19.178536 50.488135 
L 19.138563 50.903477 
L 19.239007 50.789629 
L 19.247207 51.017601 
L 19.261556 50.577993 
L 19.339451 50.665015 
L 19.361999 50.613031 
L 19.369174 50.908249 
L 19.387623 50.861259 
L 19.396847 51.012092 
L 19.408121 50.573661 
L 19.499341 50.877586 
L 19.530089 51.000288 
L 19.59056 50.76222 
L 19.605934 50.843009 
L 19.66128 50.675699 
L 19.634632 50.95918 
L 19.716627 50.828964 
L 19.777098 51.005843 
L 19.797597 50.686026 
L 19.82732 50.849302 
L 19.832445 50.645429 
L 19.892916 50.939209 
L 19.936988 50.88579 
L 20.000534 51.017295 
L 20.020008 50.628128 
L 20.048706 50.897854 
L 20.107127 50.708481 
L 20.087653 51.014345 
L 20.158374 50.924964 
L 20.248568 50.663559 
L 20.179898 50.971931 
L 20.269067 50.9186 
L 20.309039 50.991882 
L 20.299815 50.597938 
L 20.338763 50.665048 
L 20.339787 50.662173 
L 20.355162 50.909167 
L 20.363361 50.893926 
L 20.365411 51.000802 
L 20.400259 50.762794 
L 20.475079 50.944563 
L 20.488403 50.631836 
L 20.568348 51.012894 
L 20.584747 50.964785 
L 20.601146 51.016177 
L 20.653418 50.664796 
L 20.676991 50.827652 
L 20.685191 50.668392 
L 20.733363 50.995073 
L 20.788709 50.783912 
L 20.868654 51.014269 
L 20.893252 50.663913 
L 20.898377 50.744239 
L 20.987547 51.009767 
L 20.943474 50.594921 
L 21.01112 50.788062 
L 21.112589 50.991178 
L 21.077741 50.683987 
L 21.130013 50.860388 
L 21.196633 50.648959 
L 21.220207 51.009459 
L 21.231481 50.927656 
L 21.235581 51.011526 
L 21.309376 50.581615 
L 21.336024 50.827788 
L 21.351399 50.739176 
L 21.424169 51.002272 
L 21.444668 50.843298 
L 21.455942 50.970309 
L 21.546136 50.726718 
L 21.64043 50.687417 
L 21.602508 51.017414 
L 21.654779 50.75022 
L 21.754198 50.97071 
L 21.680403 50.618778 
L 21.773672 50.847134 
L 21.80442 50.671888 
L 21.870016 51.002598 
L 21.88539 50.815782 
L 21.967385 50.944753 
L 21.971484 50.724022 
L 21.973534 50.66729 
L 22.002232 51.007174 
L 22.078078 50.883017 
L 22.160072 50.671551 
L 22.097551 50.955784 
L 22.200045 50.759258 
L 22.289214 51.014435 
L 22.329187 50.942321 
L 22.349685 50.687445 
L 22.36301 50.998606 
L 22.447054 50.807843 
L 22.453204 51.014955 
L 22.499326 50.690479 
L 22.551598 50.755448 
L 22.555697 50.690369 
L 22.606944 51.012117 
L 22.655116 50.928565 
L 22.66434 50.815135 
L 22.767859 50.484397 
L 22.701238 50.933313 
L 22.778108 50.733655 
L 22.809881 51.007225 
L 22.878552 50.693894 
L 22.895976 50.964497 
L 22.910325 50.633754 
L 22.952347 50.994903 
L 23.010769 50.913211 
L 23.108137 51.01722 
L 23.034342 50.628001 
L 23.121462 50.915578 
L 23.176808 51.000586 
L 23.197307 50.795345 
L 23.217805 50.524306 
L 23.263928 51.013023 
L 23.304925 50.813608 
L 23.333623 51.016228 
L 23.351047 50.696224 
L 23.419718 50.874132 
L 23.519136 50.716541 
L 23.474039 50.99573 
L 23.529386 50.904543 
L 23.610356 51.022242 
L 23.62368 50.755675 
L 23.624705 50.751855 
L 23.651353 50.945545 
L 23.683126 50.951101 
L 23.78152 50.99802 
L 23.712849 50.750018 
L 23.793819 50.946637 
L 23.866589 51.014421 
L 23.818418 50.673418 
L 23.893238 50.889313 
L 23.972158 50.652554 
L 23.995731 50.997364 
L 24.086951 51.021788 
L 24.075676 50.834252 
L 24.09925 50.914767 
L 24.153571 50.692113 
L 24.183294 51.015478 
L 24.206868 50.993826 
L 24.286813 50.755334 
L 24.211993 51.013862 
L 24.337035 50.989046 
L 24.394431 51.021426 
L 24.422104 50.640099 
L 24.446703 50.956961 
L 24.4918 50.732989 
L 24.517423 51.011187 
L 24.560471 50.885 
L 24.646565 51.006717 
L 24.612742 50.615525 
L 24.672189 50.960669 
L 24.679363 50.738681 
L 24.713186 51.010421 
L 24.782882 50.969646 
L 24.849502 51.019632 
L 24.877176 50.733256 
L 24.894599 50.979879 
L 24.912023 51.011115 
L 24.923298 50.727685 
L 24.986844 50.863629 
L 25.027841 50.465679 
L 25.049365 51.003924 
L 25.100611 50.804637 
L 25.12111 51.021682 
L 25.213354 50.850654 
L 25.377344 51.015653 
L 25.254352 50.766651 
L 25.380419 50.902624 
L 25.387593 50.710394 
L 25.411167 51.016358 
L 25.490087 50.942268 
L 25.533134 51.009784 
L 25.51366 50.660942 
L 25.593605 50.848672 
L 25.638702 50.782672 
L 25.655101 51.003729 
L 25.701223 50.900167 
L 25.737096 51.021057 
L 25.726847 50.690596 
L 25.791418 50.744378 
L 25.792443 50.743469 
L 25.803717 50.874431 
L 25.870338 51.01226 
L 25.814991 50.701244 
L 25.913385 50.857517 
L 26.019978 50.702609 
L 25.969756 50.96154 
L 26.029203 50.813251 
L 26.106073 51.00718 
L 26.128621 50.729153 
L 26.184993 50.586111 
L 26.161419 51.008377 
L 26.23009 50.845994 
L 26.285436 51.008206 
L 26.330534 50.77804 
L 26.345908 50.931053 
L 26.38588 50.761259 
L 26.403304 51.015312 
L 26.458651 50.905568 
L 26.578568 50.696105 
L 26.517072 51.016829 
L 26.584718 50.829542 
L 26.645189 51.012475 
L 26.62674 50.676425 
L 26.698485 50.939194 
L 26.702585 50.824883 
L 26.77638 51.006194 
L 26.809178 50.933407 
L 26.919871 50.694582 
L 26.821478 50.992183 
L 26.927046 50.89017 
L 27.014165 50.989621 
L 26.958819 50.768074 
L 27.039789 50.972578 
L 27.042864 51.004384 
L 27.136133 50.715939 
L 27.137158 50.714174 
L 27.144332 50.911536 
L 27.242726 50.979997 
L 27.166881 50.71295 
L 27.248876 50.78912 
L 27.329845 50.70427 
L 27.300122 51.013619 
L 27.352394 50.923874 
L 27.442588 50.76162 
L 27.380067 51.016903 
L 27.452838 50.954609 
L 27.559431 51.002624 
L 27.551231 50.762743 
L 27.561481 50.959723 
L 27.674224 50.719912 
L 27.57788 50.980116 
L 27.679348 50.729329 
L 27.686523 50.648312 
L 27.721371 51.013948 
L 27.770568 50.860589 
L 27.830014 51.013314 
L 27.844363 50.647208 
L 27.881261 50.852348 
L 27.88331 50.850578 
L 27.905859 50.965918 
L 28.017577 51.015741 
L 27.921233 50.768585 
L 28.018602 50.999933 
L 28.060624 50.815125 
L 28.033976 51.016866 
L 28.133395 50.907347 
L 28.138519 51.0147 
L 28.212315 50.787113 
L 28.242038 50.859562 
L 28.312758 50.620033 
L 28.28406 50.988096 
L 28.347606 50.898537 
L 28.399878 51.013949 
L 28.410127 50.749549 
L 28.459324 50.922008 
L 28.564892 50.794461 
L 28.52492 51.010443 
L 28.571042 50.91296 
L 28.611014 50.989593 
L 28.60179 50.739288 
L 28.68071 50.887023 
L 28.787303 50.662784 
L 28.702234 51.017392 
L 28.795503 50.828276 
L 28.860074 50.98779 
L 28.824201 50.693665 
L 28.905171 50.793804 
L 28.91337 50.719946 
L 28.936944 50.959345 
L 28.999465 50.919706 
L 29.046612 50.995069 
L 29.030213 50.645213 
L 29.108108 50.88205 
L 29.146031 50.671041 
L 29.204452 51.014191 
L 29.218801 50.871284 
L 29.264923 51.002384 
L 29.228025 50.743466 
L 29.330519 50.901925 
L 29.431988 50.82682 
L 29.383816 50.989761 
L 29.438137 50.929113 
L 29.510908 51.007272 
L 29.464785 50.682832 
L 29.54473 50.861885 
L 29.549855 50.706847 
L 29.609301 51.014472 
L 29.653374 50.938826 
L 29.740493 50.68056 
L 29.678997 51.013088 
L 29.751767 50.96871 
L 29.752792 51.012206 
L 29.823513 50.761055 
L 29.86041 50.879759 
L 29.962904 50.751243 
L 29.892183 51.008456 
L 29.971103 50.883241 
L 30.033624 50.988269 
L 30.004926 50.699286 
L 30.076672 50.804605 
L 30.09717 50.753963 
L 30.116644 50.988972 
L 30.140218 50.944994 
L 30.181215 51.013447 
L 30.199664 50.690163 
L 30.252961 50.975512 
L 30.291908 51.00823 
L 30.26321 50.794876 
L 30.362629 50.985926 
L 30.41695 50.760129 
L 30.424125 51.016735 
L 30.475372 50.92286 
L 30.581965 50.732946 
L 30.485621 51.011052 
L 30.643461 50.93273 
L 30.676259 51.01885 
L 30.725456 50.760835 
L 30.754154 50.926749 
L 30.848448 51.006071 
L 30.769528 50.786855 
L 30.856647 50.838986 
L 30.89457 50.745397 
L 30.905844 51.018929 
L 30.963241 50.870322 
L 30.97144 50.963813 
L 31.057535 50.783483 
L 31.071884 50.834517 
L 31.164128 50.971819 
L 31.150804 50.759937 
L 31.183602 50.826324 
L 31.248173 50.648523 
L 31.286095 50.984372 
L 31.28712 51.005237 
L 31.367065 50.6855 
L 31.390639 50.86221 
L 31.394738 50.726679 
L 31.408063 51.00631 
L 31.499282 50.933329 
L 31.562828 51.004123 
L 31.555653 50.804591 
L 31.60485 50.862638 
L 31.609975 50.767445 
L 31.637648 51.015669 
L 31.712468 50.954437 
L 31.716568 51.006321 
L 31.753466 50.714977 
L 31.823161 50.967288 
L 31.917455 50.79519 
L 31.901056 51.010545 
L 31.943079 50.895467 
L 31.976902 50.995167 
L 31.968702 50.712135 
L 32.048647 50.817489 
L 32.15524 50.719507 
L 32.106043 51.012473 
L 32.158315 50.816911 
L 32.255684 51.002251 
L 32.203412 50.736122 
L 32.271058 50.898827 
L 32.296681 51.001744 
L 32.361252 50.729697 
L 32.379701 50.868495 
L 32.423773 50.937575 
L 32.395075 50.724597 
L 32.442222 50.775493 
L 32.450422 50.513636 
L 32.506793 51.005511 
L 32.550865 50.876555 
L 32.56214 50.881939 
L 32.566239 50.768753 
L 32.571364 50.653954 
L 32.654384 51.017929 
L 32.673857 50.901035 
L 32.696406 50.765605 
L 32.773276 51.018022 
L 32.782501 50.964147 
L 32.799925 50.982891 
L 32.828623 50.781589 
L 32.830673 50.765306 
L 32.849121 51.017427 
L 32.933166 50.841105 
L 33.004912 50.984313 
L 32.95674 50.766468 
L 33.050009 50.958775 
L 33.10843 50.836729 
L 33.121754 51.021293 
L 33.162752 50.921545 
L 33.217073 51.017306 
L 33.184275 50.750119 
L 33.27037 50.895091 
L 33.354414 50.798106 
L 33.298043 51.015405 
L 33.380038 50.904672 
L 33.381063 50.90567 
L 33.386187 50.758532 
L 33.440509 50.723489 
L 33.479457 50.991356 
L 33.490731 50.910755 
L 33.559401 50.982215 
L 33.544027 50.66716 
L 33.593224 50.837791 
L 33.694693 50.657095 
L 33.640371 51.015717 
L 33.701867 50.833999 
L 33.736715 51.021488 
L 33.793087 50.753297 
L 33.81666 50.971362 
L 33.837159 50.775504 
L 33.857658 51.020491 
L 33.929403 50.923183 
L 34.031897 51.014451 
L 33.943752 50.725576 
L 34.046246 50.999633 
L 34.067769 50.761509 
L 34.119016 51.015196 
L 34.168213 50.854504 
L 34.225609 50.746703 
L 34.194861 51.006588 
L 34.234834 50.941453 
L 34.237909 51.001528 
L 34.250208 50.812983 
L 34.342452 50.835183 
L 34.396774 50.995008 
L 34.439821 50.71237 
L 34.440846 50.708798 
L 34.467494 50.995382 
L 34.487993 50.939462 
L 34.581262 50.997899 
L 34.590486 50.811952 
L 34.599711 50.977677 
L 34.714503 50.674942 
L 34.657107 51.0213 
L 34.719628 50.785377 
L 34.758576 50.9933 
L 34.796498 50.724773 
L 34.833396 50.892021 
L 34.934865 50.663903 
L 34.878493 50.9836 
L 34.947164 50.838807 
L 35.050682 51.006118 
L 35.013785 50.779138 
L 35.053757 50.827223 
L 35.056832 50.766434 
L 35.097829 51.011396 
L 35.165475 50.782563 
L 35.235171 51.012517 
L 35.280268 50.842039 
L 35.281293 50.830809 
L 35.287442 51.013139 
L 35.379686 50.952412 
L 35.39711 51.017534 
L 35.475005 50.749317 
L 35.491404 50.970662 
L 35.555975 50.806005 
L 35.507803 50.990189 
L 35.608247 50.893795 
L 35.625671 51.007543 
L 35.702541 50.759423 
L 35.715865 50.845491 
L 35.736364 50.743493 
L 35.785561 51.007012 
L 35.823483 50.922735 
L 35.928027 51.02271 
L 35.88088 50.777926 
L 35.935201 50.94265 
L 36.013096 50.99717 
L 36.054094 50.780846 
L 36.130964 51.013748 
L 36.175036 50.80232 
L 36.19656 50.735485 
L 36.249856 51.012059 
L 36.27548 50.945229 
L 36.328776 51.007834 
L 36.313402 50.739301 
L 36.388223 51.005742 
L 36.42717 51.016678 
L 36.438444 50.836586 
L 36.466118 50.893628 
L 36.555287 50.832191 
L 36.499941 51.009882 
L 36.573736 50.953996 
L 36.676229 51.009771 
L 36.58706 50.909863 
L 36.680329 50.923071 
L 36.797172 50.708083 
L 36.73875 51.015421 
L 36.799222 50.744864 
L 36.816646 51.013177 
L 36.916064 50.958403 
L 36.933488 51.003074 
L 37.002159 50.779654 
L 37.026757 50.961581 
L 37.132326 50.764273 
L 37.06058 51.006267 
L 37.138475 50.936084 
L 37.14155 51.01329 
L 37.166148 50.773365 
L 37.248143 50.913183 
L 37.359861 50.851657 
L 37.350637 51.012718 
L 37.361911 50.866145 
L 37.442881 51.019083 
L 37.424432 50.853204 
L 37.473629 50.874699 
L 37.5423 50.983362 
L 37.53615 50.808297 
L 37.587397 50.887913 
L 37.61097 50.998904 
L 37.630444 50.729405 
L 37.632494 50.695223 
L 37.713464 51.012681 
L 37.731913 50.936615 
L 37.829281 51.017655 
L 37.815957 50.85018 
L 37.839531 50.90587 
L 37.861054 50.761193 
L 37.881553 51.000662 
L 37.947149 50.950253 
L 37.992246 51.020958 
L 37.959448 50.839809 
L 38.051692 50.880449 
L 38.126513 50.796547 
L 38.09679 51.012157 
L 38.157261 50.936977 
L 38.159311 51.005631 
L 38.230031 50.810028 
L 38.268979 50.9554 
L 38.300752 50.808956 
L 38.342774 51.013871 
L 38.382746 50.825309 
L 38.477041 51.018733 
L 38.428869 50.749062 
L 38.510863 50.926374 
L 38.608232 50.841207 
L 38.588758 51.020563 
L 38.624631 50.868433 
L 38.72815 50.841617 
L 38.740449 50.995785 
L 38.846017 50.728952 
L 38.778371 51.001233 
L 38.857291 50.953784 
L 38.919813 51.011815 
L 38.946461 50.735227 
L 38.963885 50.868987 
L 39.023331 51.012349 
L 38.986433 50.817559 
L 39.085852 50.968452 
L 39.19142 50.85923 
L 39.100201 51.011898 
L 39.200645 50.933104 
L 39.304163 51.011272 
L 39.217044 50.794962 
L 39.313388 50.940205 
L 39.35951 50.816617 
L 39.413831 50.991394 
L 39.42818 50.878495 
L 39.538873 51.011448 
L 39.531699 50.837015 
L 39.549123 50.936267 
L 39.654691 50.778141 
L 39.625993 51.011024 
L 39.659816 50.922453 
L 39.75411 50.804108 
L 39.771534 51.007349 
L 39.779733 50.778954 
L 39.884277 50.925073 
L 39.963197 50.816549 
L 39.918099 51.019512 
L 39.993945 50.936953 
L 40.005219 51.006093 
L 40.031867 50.787681 
L 40.103613 50.907194 
L 40.211231 50.766819 
L 40.180483 51.022584 
L 40.215331 50.891454 
L 40.314749 50.997473 
L 40.254278 50.748082 
L 40.326024 50.893638 
L 40.418268 50.834619 
L 40.347547 51.004927 
L 40.435692 50.914388 
L 40.511537 51.011248 
L 40.45619 50.858929 
L 40.546385 50.907382 
L 40.652978 51.002721 
L 40.605831 50.788448 
L 40.659128 50.906545 
L 40.769821 50.812734 
L 40.683726 51.020212 
L 40.77187 50.827099 
L 40.787244 51.019726 
L 40.885638 50.891359 
L 40.999406 51.012439 
L 40.946109 50.756498 
L 41.007605 50.973862 
L 41.051678 50.755193 
L 41.038354 51.014913 
L 41.113174 50.987172 
L 41.212593 51.017046 
L 41.151096 50.809084 
L 41.223867 50.983989 
L 41.25359 50.953694 
L 41.25769 50.875585 
L 41.368383 50.807218 
L 41.342759 51.016822 
L 41.371457 50.847117 
L 41.462677 51.009161 
L 41.433979 50.768489 
L 41.48625 50.950843 
L 41.57132 50.78945 
L 41.504699 51.004689 
L 41.596943 50.96367 
L 41.704561 51.018574 
L 41.64204 50.807221 
L 41.712761 50.999706 
L 41.736334 50.806494 
L 41.796806 51.013279 
L 41.822429 51.011928 
L 41.837803 51.015455 
L 41.841903 50.909209 
L 41.935172 50.840578 
L 41.852152 51.015424 
L 41.951571 50.931903 
L 42.055089 51.008408 
L 41.960795 50.832696 
L 42.066364 50.973299 
L 42.170907 50.820579 
L 42.073538 50.985147 
L 42.201655 50.950501 
L 42.280575 51.001879 
L 42.294924 50.778345 
L 42.310298 50.945749 
L 42.398443 50.736611 
L 42.371794 51.002351 
L 42.420991 50.958486 
L 42.502986 50.778667 
L 42.529634 51.009247 
L 42.530659 51.020119 
L 42.622903 50.821693 
L 42.623928 50.82 
L 42.651602 50.985987 
L 42.692599 51.018782 
L 42.731546 50.801098 
L 42.75717 50.841095 
L 42.878112 51.015714 
L 42.783818 50.784313 
L 42.905785 50.861383 
L 43.014429 50.82145 
L 42.925259 50.993195 
L 43.016478 50.858878 
L 43.036977 51.014325 
L 43.091299 50.810135 
L 43.126147 50.847219 
L 43.128196 50.809835 
L 43.140496 51.016749 
L 43.23274 50.925086 
L 43.295261 51.019568 
L 43.240939 50.860755 
L 43.348557 50.999697 
L 43.441827 50.819751 
L 43.367006 51.02214 
L 43.46335 50.958699 
L 43.565844 51.00679 
L 43.487949 50.874048 
L 43.576093 50.991935 
L 43.63144 50.79337 
L 43.585317 51.019468 
L 43.685761 50.975239 
L 43.686786 51.011323 
L 43.754432 50.777756 
L 43.795429 50.940012 
L 43.825152 51.014425 
L 43.836427 50.847628 
L 43.896898 50.8947 
L 43.902022 50.85764 
L 43.990167 51.019996 
L 44.006566 50.893171 
L 44.054738 51.019505 
L 44.112134 50.847369 
L 44.151082 50.756106 
L 44.193104 51.000331 
L 44.217702 50.953165 
L 44.328395 51.016194 
L 44.301747 50.796618 
L 44.330445 50.99599 
L 44.42064 50.821484 
L 44.355044 51.010085 
L 44.445238 50.940488 
L 44.462662 50.815517 
L 44.559006 50.992129 
L 44.638951 50.831653 
L 44.57848 51.002895 
L 44.673799 50.921686 
L 44.710696 51.016371 
L 44.749644 50.878097 
L 44.781417 50.886806 
L 44.884935 51.008211 
L 44.801916 50.74126 
L 44.89006 50.872307 
L 44.97308 50.816396 
L 44.939257 51.015004 
L 44.992553 51.00417 
L 45.078648 51.017086 
L 45.016127 50.87848 
L 45.096072 50.928586 
L 45.182166 50.800815 
L 45.109396 51.005217 
L 45.20984 50.857363 
L 45.245712 51.011435 
L 45.256987 50.8313 
L 45.323608 50.882795 
L 45.397403 50.812449 
L 45.348206 51.006815 
L 45.408677 50.996894 
L 45.472223 51.013346 
L 45.420976 50.828267 
L 45.490672 50.818663 
L 45.52552 50.78531 
L 45.563442 51.018922 
L 45.589066 50.959964 
L 45.605465 51.01925 
L 45.688484 50.82282 
L 45.699759 50.957782 
L 45.812502 50.741748 
L 45.747931 51.022202 
L 45.816601 50.841076 
L 45.898596 51.020323 
L 45.825826 50.81757 
L 45.929344 50.904626 
L 45.99494 51.009563 
L 45.937544 50.806417 
L 46.040037 50.923027 
L 46.116907 50.837154 
L 46.106658 51.011139 
L 46.147655 50.972644 
L 46.245024 51.012768 
L 46.212226 50.760908 
L 46.258348 50.964124 
L 46.339318 50.833978 
L 46.30652 50.998065 
L 46.366992 50.9861 
L 46.386465 51.016094 
L 46.403889 50.854807 
L 46.475635 50.930964 
L 46.546355 50.875092 
L 46.509458 51.01441 
L 46.571979 50.965858 
L 46.646799 51.019777 
L 46.579153 50.834934 
L 46.681647 50.968096 
L 46.78004 50.785584 
L 46.757492 50.999602 
L 46.798489 50.860636 
L 46.876384 51.014045 
L 46.836412 50.80773 
L 46.912257 50.915911 
L 46.999377 50.749527 
L 46.964529 51.01496 
L 47.015776 50.959184 
L 47.034224 51.017443 
L 47.051648 50.815831 
L 47.124419 50.935898 
L 47.219738 50.815608 
L 47.17874 51.00886 
L 47.233062 50.959865 
L 47.26381 51.005234 
L 47.270984 50.83663 
L 47.34068 50.914751 
L 47.378603 50.839492 
L 47.348879 51.006895 
L 47.424725 51.005665 
L 47.529268 51.012428 
L 47.443174 50.858617 
L 47.531318 50.976428 
L 47.618437 50.804835 
L 47.558991 51.014098 
L 47.646111 50.862336 
L 47.732205 50.86416 
L 47.700432 51.00258 
L 47.736305 50.934027 
L 47.82035 51.011042 
L 47.744504 50.825769 
L 47.848023 50.955681 
L 47.910544 50.857597 
L 47.885946 51.015684 
L 47.957691 50.978874 
L 48.022262 50.87441 
L 48.025337 50.832663 
L 48.090933 51.017466 
L 48.12783 50.995415 
L 48.152429 50.880098 
L 48.215975 50.718373 
L 48.209825 51.013415 
L 48.262097 50.903773 
L 48.323593 50.83747 
L 48.315393 51.015385 
L 48.361515 50.993021 
L 48.410712 51.012048 
L 48.401488 50.799948 
L 48.468109 50.961307 
L 48.473233 50.850937 
L 48.52448 51.017239 
L 48.580852 50.930564 
L 48.655672 51.01453 
L 48.631073 50.753395 
L 48.68847 50.899533 
L 48.716143 50.849783 
L 48.780714 51.018779 
L 48.796088 50.951816 
L 48.899606 50.991227 
L 48.807362 50.889173 
L 48.910881 50.910747 
L 48.91703 50.800594 
L 48.933429 51.002677 
L 49.017474 50.989644 
L 49.079995 51.021859 
L 49.096394 50.834536 
L 49.125092 50.916206 
L 49.208112 51.012659 
L 49.15789 50.823416 
L 49.222461 50.83709 
L 49.224511 50.812846 
L 49.32188 51.01373 
L 49.328029 50.937211 
L 49.347503 50.845013 
L 49.375176 51.018959 
L 49.429498 51.003552 
L 49.538141 51.007947 
L 49.451022 50.807979 
L 49.540191 51.005776 
L 49.609886 50.753138 
L 49.559665 51.012106 
L 49.657034 50.999612 
L 49.658058 51.015696 
L 49.667283 50.828083 
L 49.762602 50.926186 
L 49.800524 50.844723 
L 49.772851 51.008619 
L 49.859971 50.976729 
L 49.944015 51.013914 
L 49.897893 50.853581 
L 49.95734 50.898023 
L 50.051634 50.754471 
L 49.974763 51.021429 
L 50.070082 50.878414 
L 50.135678 51.016975 
L 50.116204 50.864783 
L 50.18385 50.961223 
L 50.212548 50.833752 
L 50.221773 51.017595 
L 50.294543 50.967166 
L 50.391912 50.856907 
L 50.301718 50.988007 
L 50.417535 50.960722 
L 50.42881 51.020397 
L 50.458533 50.834054 
L 50.528228 50.959402 
L 50.5805 51.000318 
L 50.544627 50.931135 
L 50.58665 50.875309 
L 50.602024 50.805103 
L 50.66557 51.016688 
L 50.695293 50.901907 
L 50.808036 51.013912 
L 50.712717 50.840778 
L 50.810086 50.944463 
L 50.884906 50.782115 
L 50.830584 51.013908 
L 50.922828 50.904916 
L 51.007898 51.008289 
L 50.933078 50.779874 
L 51.022247 50.83742 
L 51.112441 50.754197 
L 51.087843 51.003303 
L 51.131915 50.848269 
L 51.200586 51.018756 
L 51.236459 50.818354 
L 51.245683 50.887107 
L 51.257982 50.782031 
L 51.289755 50.990816 
L 51.336902 50.963196 
L 51.440421 51.01646 
L 51.363551 50.81009 
L 51.445545 50.902455 
L 51.53369 50.803776 
L 51.539839 51.016963 
L 51.554189 50.946759 
L 51.671031 50.862684 
L 51.572637 51.003003 
L 51.682305 50.966891 
L 51.725353 51.017459 
L 51.769425 50.864485 
L 51.788899 50.912269 
L 51.854495 50.790589 
L 51.823746 51.02061 
L 51.900617 50.912757 
L 52.00926 51.006141 
L 51.958013 50.863681 
L 52.013359 50.950354 
L 52.021559 51.008501 
L 52.036933 50.821415 
L 52.111753 50.90061 
L 52.205022 50.839346 
L 52.211172 51.017259 
L 52.220396 50.93392 
L 52.229621 50.741013 
L 52.304441 51.019981 
L 52.32084 50.987521 
L 52.423334 51.013497 
L 52.342364 50.767348 
L 52.432558 51.012449 
L 52.485855 50.81861 
L 52.544276 50.938808 
L 52.655994 51.01693 
L 52.558625 50.701278 
L 52.657019 51.000733 
L 52.704166 50.804432 
L 52.688792 51.003561 
L 52.772836 50.924924 
L 52.885579 51.020709 
L 52.795385 50.820276 
L 52.907103 50.948488 
L 52.955275 50.781449 
L 52.980898 51.013933 
L 53.017796 50.950807 
L 53.083392 51.009941 
L 53.023946 50.880165 
L 53.086467 50.868923 
L 53.173586 50.777249 
L 53.099791 51.018093 
L 53.19716 50.880425 
L 53.217658 50.977046 
L 53.257631 51.0204 
L 53.308878 50.797468 
L 53.327326 50.970755 
L 53.434945 50.861734 
L 53.378573 51.019952 
L 53.438019 50.940683 
L 53.483117 51.012391 
L 53.496441 50.827053 
L 53.547687 50.912441 
L 53.58151 50.85973 
L 53.558962 51.011022 
L 53.656331 50.953132 
L 53.713727 51.015291 
L 53.663505 50.88138 
L 53.764974 50.907715 
L 53.813146 50.787341 
L 53.775223 51.009877 
L 53.859268 50.968605 
L 53.900265 51.020912 
L 53.946387 50.747669 
L 53.967911 50.907283 
L 54.05913 51.006141 
L 54.021208 50.834449 
L 54.080654 50.923935 
L 54.097053 50.796816 
L 54.117551 51.021427 
L 54.189297 50.964354 
L 54.286666 51.009213 
L 54.266167 50.798051 
L 54.298965 50.969566 
L 54.398384 50.822925 
L 54.404533 51.021128 
L 54.414783 50.854803 
L 54.527526 51.010235 
L 54.462955 50.82225 
L 54.531625 50.958433 
L 54.616695 50.829632 
L 54.53675 51.018446 
L 54.639243 50.978 
L 54.718163 50.999713 
L 54.68639 50.829512 
L 54.747887 50.943965 
L 54.867804 50.887898 
L 54.753011 51.009233 
L 54.878053 50.954641 
L 54.881128 51.019562 
L 54.940574 50.860874 
L 54.984647 50.883873 
L 55.236781 50.980786 
L 55.238831 50.928534 
L 55.24293 50.800141 
L 55.347474 51.013721 
L 55.422294 50.834219 
L 55.460217 50.98159 
L 55.502239 51.010101 
L 55.512488 50.817592 
L 55.56681 50.935859 
L 55.575009 50.756278 
L 55.594483 51.002762 
L 55.683652 50.891975 
L 55.693902 51.007298 
L 55.702101 50.827933 
L 55.79742 50.965469 
L 55.841492 50.883847 
L 55.836368 51.011554 
L 55.906063 50.99494 
L 56.006507 51.018832 
L 55.954235 50.803068 
L 56.012657 50.928983 
L 56.107976 50.797506 
L 56.03213 51.014556 
L 56.11515 50.9788 
L 56.154098 51.015769 
L 56.147948 50.870573 
L 56.223793 50.965158 
L 56.234043 50.877979 
L 56.327312 51.013127 
L 56.333461 50.979258 
L 56.390858 51.001309 
L 56.339611 50.889687 
L 56.440055 50.92569 
L 56.485152 51.012863 
L 56.465678 50.824389 
L 56.553822 50.975367 
L 56.578421 50.851358 
L 56.635817 51.020954 
L 56.664515 50.96748 
L 56.688089 51.021112 
L 56.764959 50.813335 
L 56.775208 50.959325 
L 56.853103 50.835637 
L 56.783408 51.014892 
L 56.882827 50.972284 
L 56.98532 51.022864 
L 56.928949 50.830876 
L 56.996594 51.000951 
L 57.036567 51.010281 
L 57.079614 50.841811 
L 57.099088 50.926325 
L 57.195432 50.878272 
L 57.138035 51.007333 
L 57.200556 50.959708 
L 57.240529 51.013221 
L 57.260003 50.867204 
L 57.3092 50.938181 
L 57.341998 50.862375 
L 57.368646 51.004665 
L 57.415793 51.002029 
L 57.418868 51.005637 
L 57.422967 50.894284 
L 57.476264 50.861099 
L 57.502912 51.010472 
L 57.520336 50.972387 
L 57.563384 51.020355 
L 57.544935 50.825795 
L 57.615655 50.822287 
L 57.61873 50.786904 
L 57.626929 51.016113 
L 57.723273 50.890663 
L 57.834991 51.010621 
L 57.814493 50.831264 
L 57.838066 50.909032 
L 57.902637 50.860459 
L 57.875989 51.008743 
L 57.943634 50.946854 
L 58.01333 51.013471 
L 57.961058 50.863102 
L 58.052278 50.87845 
L 58.118898 51.017789 
L 58.134272 50.846677 
L 58.166045 50.94111 
L 58.24599 50.849219 
L 58.208068 51.014302 
L 58.276738 50.949302 
L 58.294162 51.022606 
L 58.327985 50.861369 
L 58.391531 50.966906 
L 58.473526 50.878038 
L 58.441753 51.004521 
L 58.502224 50.957077 
L 58.530922 51.015003 
L 58.584219 50.907635 
L 58.612917 50.953578 
L 58.635466 50.880216 
L 58.686712 51.016835 
L 58.71951 50.987731 
L 58.748209 51.023271 
L 58.766657 50.847704 
L 58.824054 50.932228 
L 58.925522 50.877324 
L 58.897849 51.022596 
L 58.931672 50.993558 
L 58.989068 51.01795 
L 58.969595 50.858903 
L 59.032116 50.89724 
L 59.034166 50.848936 
L 59.113086 51.011829 
L 59.140759 50.940299 
L 59.238128 51.01863 
L 59.210454 50.821742 
L 59.250427 50.916543 
L 59.358045 50.817862 
L 59.266826 51.00495 
L 59.36112 50.884187 
L 59.380594 51.017602 
L 59.373419 50.829725 
L 59.472838 50.931327 
L 59.551758 50.900307 
L 59.485137 51.016756 
L 59.582506 50.953525 
L 59.677825 51.009793 
L 59.624528 50.87798 
L 59.693199 50.950211 
L 59.793642 51.016446 
L 59.731121 50.82106 
L 59.795692 50.912345 
L 59.899211 50.808206 
L 59.817216 51.014674 
L 59.90536 50.935184 
L 59.927909 51.005766 
L 59.91971 50.884244 
L 60.015028 50.940358 
L 60.064225 50.852971 
L 60.028353 51.015228 
L 60.125721 50.942185 
L 60.188243 51.015133 
L 60.15032 50.871613 
L 60.23539 50.942307 
L 60.31431 50.857941 
L 60.271262 51.021031 
L 60.346083 50.955143 
L 60.451651 50.873543 
L 60.386055 51.006439 
L 60.454726 50.947876 
L 60.554144 51.014828 
L 60.512122 50.849053 
L 60.566444 51.002014 
L 60.584892 50.886306 
L 60.637164 51.011065 
L 60.681236 50.940317 
L 60.795004 51.019883 
L 60.714034 50.831482 
L 60.798079 50.965585 
L 60.901597 50.780929 
L 60.894423 51.0151 
L 60.906722 50.970655 
L 61.01229 51.018077 
L 61.002041 50.841028 
L 61.017415 50.976273 
L 61.066612 50.870419 
L 61.039964 51.020265 
L 61.128108 50.982012 
L 61.17423 51.017305 
L 61.192679 50.794082 
L 61.229577 50.939451 
L 61.233676 50.850425 
L 61.2593 51.014645 
L 61.339245 50.978396 
L 61.40894 51.010444 
L 61.440713 50.886424 
L 61.507334 50.869943 
L 61.473511 51.009937 
L 61.537057 50.97996 
L 61.641601 51.018261 
L 61.551406 50.808101 
L 61.644675 50.942952 
L 61.737945 50.831097 
L 61.714371 51.017706 
L 61.754343 50.962544 
L 61.850687 50.84322 
L 61.816865 51.02232 
L 61.862987 50.977247 
L 61.97163 51.008708 
L 61.926533 50.88084 
L 61.974705 50.988686 
L 62.063874 50.854633 
L 61.998278 51.006173 
L 62.088472 50.946771 
L 62.181741 51.01406 
L 62.172517 50.890838 
L 62.194041 50.915796 
L 62.19814 50.81912 
L 62.217614 51.018604 
L 62.303709 50.934751 
L 62.44515 51.016382 
L 62.324207 50.836278 
L 62.448225 50.973879 
L 62.470773 50.862571 
L 62.506646 51.015006 
L 62.559943 50.911702 
L 62.579416 51.013648 
L 62.645012 50.860483 
L 62.67166 50.96375 
L 62.67986 51.013348 
L 62.788503 50.818735 
L 62.790553 50.793027 
L 62.864348 51.016811 
L 62.893046 50.964663 
L 62.966842 51.005695 
L 62.957617 50.869851 
L 62.99554 50.902812 
L 63.052936 50.862241 
L 63.037562 51.019745 
L 63.105208 50.917444 
L 63.231275 50.854511 
L 63.250749 50.996916 
L 63.30712 51.019971 
L 63.286622 50.851217 
L 63.356317 50.951612 
L 63.401414 50.900139 
L 63.429088 51.020012 
L 63.465985 50.982502 
L 63.566429 50.800924 
L 63.490584 51.008029 
L 63.585903 50.936855 
L 63.619726 51.022516 
L 63.651499 50.874478 
L 63.70172 51.004462 
L 63.807289 50.823944 
L 63.732468 51.019427 
L 63.820613 50.88505 
L 63.907732 51.014631 
L 63.829837 50.872016 
L 63.945655 50.956907 
L 64.007151 50.869664 
L 63.992802 51.017699 
L 64.059423 50.912424 
L 64.141418 51.018824 
L 64.071722 50.848487 
L 64.173191 51.008377 
L 64.243911 50.907458 
L 64.191639 51.011838 
L 64.285933 50.970291 
L 64.396626 50.890465 
L 64.325906 51.011043 
L 64.398676 50.929613 
L 64.403801 51.016173 
L 64.472472 50.766878 
L 64.509369 50.951887 
L 64.624162 50.828229 
L 64.57599 51.017966 
L 64.628262 50.889633 
L 64.632361 51.022241 
L 64.672334 50.823533 
L 64.741005 50.977533 
L 64.784052 50.86505 
L 64.765603 51.014788 
L 64.853747 50.952816 
L 64.882446 51.015355 
L 64.88962 50.828854 
L 64.96444 50.958482 
L 65.066934 50.821604 
L 64.997238 51.021639 
L 65.072059 50.961718 
L 65.075133 51.012852 
L 65.144829 50.790297 
L 65.182752 50.980391 
L 65.20325 50.853006 
L 65.256547 51.02043 
L 65.296519 50.933859 
L 65.331367 51.004196 
L 65.346741 50.868724 
L 65.385689 50.877719 
L 65.388764 50.848096 
L 65.412337 51.012168 
L 65.489207 51.005683 
L 65.498432 50.886833 
L 65.524055 51.022378 
L 65.607075 50.917453 
L 65.714693 51.012775 
L 65.666521 50.852418 
L 65.717768 50.90839 
L 65.827436 50.865427 
L 65.753641 51.015339 
L 65.828461 50.875262 
L 65.878683 51.02057 
L 65.942229 50.962954 
L 65.971952 50.83273 
L 65.9945 51.010405 
L 66.054972 50.884013 
L 66.082645 50.944327 
L 66.072395 50.987395 
L 66.086745 50.985714 
L 66.172839 51.022345 
L 66.137991 50.844828 
L 66.189238 50.936908 
L 66.201537 50.841053 
L 66.24356 51.007219 
L 66.297881 50.986897 
L 66.39935 51.010053 
L 66.336829 50.81154 
L 66.407549 50.962932 
L 66.497744 51.016493 
L 66.466995 50.858266 
L 66.515167 50.950158 
L 66.565389 50.865244 
L 66.560265 51.012021 
L 66.624835 50.970532 
L 66.683257 51.014154 
L 66.697606 50.81483 
L 66.70888 50.84849 
L 66.71913 50.831195 
L 66.760127 51.014589 
L 66.781651 50.982835 
L 66.873895 51.010316 
L 66.809324 50.899848 
L 66.892344 50.975381 
L 66.989712 50.870396 
L 67.006111 51.010912 
L 67.102455 50.898059 
L 67.121929 50.972693 
L 67.163951 51.005781 
L 67.140378 50.909452 
L 67.1783 50.882499 
L 67.211098 50.86506 
L 67.205974 51.009715 
L 67.27157 51.000437 
L 67.34639 51.013713 
L 67.277719 50.866036 
L 67.379188 50.968289 
L 67.474507 50.791567 
L 67.428385 51.01411 
L 67.495005 50.944013 
L 67.559576 51.006471 
L 67.598524 50.834733 
L 67.608773 50.987143 
L 67.647721 50.849346 
L 67.658995 51.009693 
L 67.721516 50.944999 
L 67.830159 51.008834 
L 67.731765 50.893783 
L 67.834259 50.939871 
L 67.90498 50.876415 
L 67.919329 51.008704 
L 67.942902 50.982028 
L 68.04847 51.020222 
L 67.972625 50.790401 
L 68.05052 50.969254 
L 68.116116 50.855133 
L 68.150964 51.015343 
L 68.159163 50.968004 
L 68.196061 51.020867 
L 68.179662 50.85458 
L 68.268832 50.972109 
L 68.314954 50.819788 
L 68.3662 51.011891 
L 68.380549 50.928204 
L 68.403098 50.818281 
L 68.454345 51.015235 
L 68.491242 50.930796 
L 68.568113 51.016674 
L 68.557863 50.862984 
L 68.606035 51.003384 
L 68.662407 50.851999 
L 68.689055 51.020273 
L 68.717753 50.99834 
L 68.789499 50.857814 
L 68.752601 51.016256 
L 68.831521 50.971381 
L 68.846895 51.015772 
L 68.917615 50.871287 
L 68.92479 50.905157 
L 68.995511 50.78995 
L 68.956563 51.017692 
L 69.033433 50.908809 
L 69.037533 51.01974 
L 69.113378 50.835153 
L 69.145151 50.964322 
L 69.15745 50.853155 
L 69.232271 51.012996 
L 69.258919 50.895958 
L 69.301966 51.016385 
L 69.314265 50.879267 
L 69.371662 50.986869 
L 69.482355 50.861541 
L 69.458781 51.019902 
L 69.484405 50.885796 
L 69.56025 51.014638 
L 69.577674 50.791482 
L 69.595098 50.893098 
L 69.695541 50.848121 
L 69.608422 51.01827 
L 69.700666 50.929135 
L 69.816484 51.020391 
L 69.719115 50.825123 
L 69.818534 50.982567 
L 69.932301 50.823837 
L 69.886179 51.020783 
L 69.934351 50.877503 
L 70.010196 51.014401 
L 69.989698 50.841645 
L 70.047094 50.973936 
L 70.220308 50.849193 
L 70.051194 51.006433 
L 70.225433 50.962084 
L 70.260281 51.019942 
L 70.26848 50.845764 
L 70.336126 50.971068 
L 70.451943 51.017367 
L 70.416071 50.886382 
L 70.452968 50.999791 
L 70.527789 50.891222 
L 70.461168 51.018401 
L 70.565711 50.969985 
L 70.608759 51.021682 
L 70.620033 50.801872 
L 70.676404 50.959533 
L 70.705102 50.781182 
L 70.689728 51.019877 
L 70.787097 50.960612 
L 70.81887 51.022205 
L 70.882416 50.889756 
L 70.89779 50.969974 
L 70.989009 50.878295 
L 70.915214 51.01567 
L 71.037181 50.989463 
L 71.1366 51.012738 
L 71.046406 50.855208 
L 71.139675 50.926551 
L 71.21142 50.830146 
L 71.170423 51.017595 
L 71.250368 50.903858 
L 71.299565 51.018945 
L 71.323138 50.844483 
L 71.359011 50.901336 
L 71.361061 50.809355 
L 71.439981 51.016977 
L 71.469704 50.916054 
L 71.512751 51.019184 
L 71.556824 50.823274 
L 71.578347 50.933111 
L 71.580397 50.868944 
L 71.666492 51.012963 
L 71.68904 50.911306 
L 71.780259 50.882014 
L 71.694165 51.004072 
L 71.785384 50.99133 
L 71.879678 51.016595 
L 71.85508 50.871587 
L 71.887878 50.929308 
L 71.891977 50.834367 
L 71.970897 51.021431 
L 71.996521 50.984024 
L 72.096964 51.014102 
L 72.036493 50.831086 
L 72.099014 50.957476 
L 72.130787 50.890889 
L 72.17281 51.016867 
L 72.211757 50.910586 
L 72.294777 51.007467 
L 72.238405 50.815373 
L 72.32245 50.906614 
L 72.336799 50.838194 
L 72.327575 51.0095 
L 72.423919 50.953968 
L 72.525387 51.021713 
L 72.450567 50.888811 
L 72.535637 50.957356 
L 72.625831 50.903726 
L 72.571509 51.006941 
L 72.635055 51.007138 
L 72.666828 51.00211 
L 72.674003 50.889509 
L 72.677078 50.809061 
L 72.698601 51.017287 
L 72.783671 50.898071 
L 72.786746 51.014999 
L 72.842092 50.847856 
L 72.895389 50.939943 
L 72.95996 50.85497 
L 72.910763 51.006449 
L 72.989683 50.982511 
L 73.075778 51.018963 
L 73.011207 50.905355 
L 73.098326 50.950149 
L 73.163922 50.843689 
L 73.122925 51.013073 
L 73.207994 50.9466 
L 73.242842 51.016148 
L 73.250017 50.877603 
L 73.318687 50.945551 
L 73.404782 51.013737 
L 73.355585 50.903454 
L 73.428355 50.952253 
L 73.478577 50.859502 
L 73.43963 51.010776 
L 73.538023 50.978055 
L 73.632317 51.009918 
L 73.548273 50.913789 
L 73.636417 50.92678 
L 73.682539 50.900224 
L 73.655891 51.01673 
L 73.744035 50.959197 
L 73.815781 51.013645 
L 73.779908 50.882055 
L 73.852678 50.937156 
L 73.855753 50.883202 
L 73.916224 51.015876 
L 73.962346 50.973947 
L 74.056641 50.882931 
L 73.98387 51.014165 
L 74.06894 50.999855 
L 74.160159 51.022172 
L 74.089438 50.895048 
L 74.170408 50.974106 
L 74.173483 50.91096 
L 74.266752 51.014416 
L 74.281101 50.958008 
L 74.324149 50.99714 
L 74.373345 50.857168 
L 74.392819 50.793087 
L 74.385645 51.017396 
L 74.45534 50.968181 
L 74.548609 51.016606 
L 74.481989 50.876114 
L 74.567058 50.993341 
L 74.656228 50.828876 
L 74.667502 51.018558 
L 74.677751 50.978314 
L 74.776145 51.014582 
L 74.749497 50.865949 
L 74.785369 50.9308 
L 74.793569 50.876738 
L 74.790494 51.01735 
L 74.896062 50.937556 
L 74.969858 50.902712 
L 74.93501 51.01555 
L 74.997531 51.002284 
L 75.080551 51.015772 
L 75.063127 50.837783 
L 75.105149 50.960589 
L 75.16562 50.849543 
L 75.156396 51.012171 
L 75.215842 50.967891 
L 75.356258 50.892212 
L 75.231216 51.010164 
L 75.384957 50.97263 
L 75.466951 51.015865 
L 75.430054 50.838887 
L 75.492575 50.881216 
L 75.527422 51.019393 
L 75.547921 50.803372 
L 75.611467 50.981598 
L 75.660664 50.860007 
L 75.621717 51.020742 
L 75.723185 50.950893 
L 75.81133 51.01993 
L 75.770332 50.887969 
L 75.833878 50.9751 
L 75.931247 50.856266 
L 75.855402 51.01151 
L 75.946621 50.905747 
L 76.055264 51.016721 
L 76.03784 50.873679 
L 76.058339 50.937633 
L 76.075763 50.852255 
L 76.129059 50.995043 
L 76.169032 50.901008 
L 76.185431 51.019098 
L 76.232578 50.883782 
L 76.28075 50.93688 
L 76.365819 50.804243 
L 76.324822 51.01384 
L 76.383243 50.980692 
L 76.411942 51.009819 
L 76.43654 50.881626 
L 76.483687 50.922913 
L 76.487787 50.829657 
L 76.499061 51.022854 
L 76.595405 50.869539 
L 76.699948 51.017193 
L 76.709173 50.964506 
L 76.927484 50.918525 
L 76.930559 50.989764 
L 77.027928 51.020961 
L 76.947983 50.861332 
L 77.037152 50.938593 
L 77.102748 50.874842 
L 77.070975 51.017788 
L 77.147845 50.91039 
L 77.252388 51.01504 
L 77.15502 50.851587 
L 77.260588 50.972045 
L 77.299535 50.862504 
L 77.333358 51.015897 
L 77.371281 50.968725 
L 77.424578 50.832226 
L 77.386655 51.009322 
L 77.490173 50.945916 
L 77.533221 51.016911 
L 77.574218 50.883131 
L 77.598817 50.928016 
L 77.614191 50.809206 
L 77.604966 51.017719 
L 77.706435 50.9701 
L 77.808928 51.013241 
L 77.743332 50.832696 
L 77.816103 50.938498 
L 77.890923 51.01938 
L 77.838651 50.850651 
L 77.924746 50.919534 
L 77.987267 50.864387 
L 77.94627 51.006317 
L 77.998541 50.988328 
L 77.999566 51.020978 
L 78.049788 50.877075 
L 78.108209 50.969103 
L 78.113334 50.856695 
L 78.175855 51.018743 
L 78.219927 50.968113 
L 78.329595 51.016417 
L 78.228127 50.932782 
L 78.33267 50.981849 
L 78.400316 50.869434 
L 78.345994 51.00164 
L 78.448488 50.902469 
L 78.563281 51.021417 
L 78.467962 50.891451 
L 78.572505 50.972214 
L 78.593004 50.903146 
L 78.607353 51.017456 
L 78.682173 50.965657 
L 78.684223 51.02133 
L 78.779542 50.895593 
L 78.792866 50.963132 
L 78.830789 50.858711 
L 78.809265 51.019633 
L 78.900484 50.982468 
L 78.987604 51.016715 
L 78.919958 50.869323 
L 79.007077 50.962166 
L 79.045 50.872976 
L 79.014252 51.010788 
L 79.11777 50.971612 
L 79.203865 51.019229 
L 79.145444 50.881995 
L 79.228463 50.954861 
L 79.27766 50.825539 
L 79.318658 51.008276 
L 79.341206 50.932095 
L 79.395528 50.847598 
L 79.410902 51.013842 
L 79.4478 50.967109 
L 79.547218 50.998391 
L 79.462149 50.894804 
L 79.553368 50.928157 
L 79.657911 50.890863 
L 79.558493 51.01647 
L 79.660986 50.965408 
L 79.705058 51.013203 
L 79.747081 50.873001 
L 79.769629 50.934919 
L 79.83215 50.874605 
L 79.788078 51.017301 
L 79.870073 50.991247 
L 79.950018 51.021839 
L 79.883397 50.882004 
L 79.975641 50.947257 
L 79.978716 50.855517 
L 80.039187 51.01152 
L 80.086334 50.915235 
L 80.116057 51.019848 
L 80.159105 50.795957 
L 80.200102 51.003279 
L 80.270823 51.011318 
L 80.279022 50.891526 
L 80.282097 50.840014 
L 80.369216 51.011895 
L 80.387665 50.944807 
L 80.472735 51.018973 
L 80.445062 50.909869 
L 80.490159 50.92694 
L 80.493233 50.820459 
L 80.547555 51.019818 
L 80.599827 50.964584 
L 80.732043 50.917061 
L 80.614176 51.00929 
L 80.738193 50.990119 
L 80.799689 51.019097 
L 80.747417 50.875653 
L 80.845811 50.920108 
L 80.857085 50.88384 
L 80.86221 51.017527 
L 80.956504 50.923733 
L 81.067197 51.000941 
L 81.003651 50.852161 
L 81.072322 50.931953 
L 81.076422 50.815599 
L 81.09692 51.011084 
L 81.180965 50.976005 
L 81.18814 51.015185 
L 81.201464 50.840255 
L 81.290633 50.976287 
L 81.403376 50.88145 
L 81.318306 51.01832 
L 81.404401 50.884092 
L 81.480246 51.016576 
L 81.41465 50.86577 
L 81.517144 50.936458 
L 81.519194 50.889254 
L 81.566341 51.017555 
L 81.626812 50.946737 
L 81.73443 51.020778 
L 81.687283 50.866676 
L 81.74058 51.001604 
L 81.843073 50.893449 
L 81.89227 50.983194 
L 81.929168 51.012685 
L 81.901494 50.892317 
L 81.990664 50.899613 
L 82.044985 50.884531 
L 82.016287 51.001881 
L 82.081883 50.976774 
L 82.088033 51.019624 
L 82.178227 50.886568 
L 82.191551 50.949992 
L 82.194626 50.850616 
L 82.218199 51.018855 
L 82.301219 50.964163 
L 82.393463 51.018401 
L 82.346316 50.87431 
L 82.409862 50.931316 
L 82.474433 50.91651 
L 82.425236 51.017104 
L 82.485707 51.01135 
L 82.52978 51.01325 
L 82.510306 50.887493 
L 82.577952 50.931268 
L 82.650722 50.894994 
L 82.586151 51.006175 
L 82.686595 50.961666 
L 82.75834 51.018135 
L 82.780889 50.80567 
L 82.792163 50.917604 
L 82.795238 50.858182 
L 82.801387 51.013137 
L 82.900806 50.977733 
L 83.002275 51.007583 
L 82.911056 50.88715 
L 83.016624 50.990919 
L 83.134491 50.887053 
L 83.036098 51.011366 
L 83.136541 50.951065 
L 83.193938 51.012556 
L 83.15499 50.870236 
L 83.248259 50.984831 
L 83.342553 50.838975 
L 83.267733 51.016295 
L 83.366127 50.998811 
L 83.467595 51.01249 
L 83.404049 50.876274 
L 83.469645 50.952229 
L 83.506543 50.85039 
L 83.495269 51.016675 
L 83.580338 50.951587 
L 83.672582 51.012759 
L 83.615186 50.871326 
L 83.692056 50.973622 
L 83.762777 50.891099 
L 83.722804 51.014264 
L 83.809924 50.942835 
L 84.058983 50.978228 
L 84.062058 50.865441 
L 84.064108 50.829491 
L 84.131753 51.013353 
L 84.171726 50.887051 
L 84.229122 51.013028 
L 84.197349 50.865367 
L 84.283444 50.962109 
L 84.350065 50.882579 
L 84.303942 51.018412 
L 84.395162 50.931731 
L 84.448458 51.018429 
L 84.468957 50.837789 
L 84.499705 50.880747 
L 84.58785 50.891392 
L 84.505855 51.01607 
L 84.589899 50.933788 
L 84.597074 51.016634 
L 84.691368 50.825591 
L 84.701617 50.956717 
L 84.811285 51.022535 
L 84.779512 50.859431 
L 84.813335 50.957662 
L 84.89533 50.858884 
L 84.872782 51.016131 
L 84.923003 50.98732 
L 84.948627 50.870996 
L 84.934278 51.011394 
L 85.04702 50.962444 
L 85.121841 51.023511 
L 85.05932 50.872937 
L 85.157713 50.963239 
L 85.180262 50.873339 
L 85.242783 51.012307 
L 85.269431 50.937456 
L 85.388324 51.008767 
L 85.339127 50.862275 
L 85.390374 50.9823 
L 85.430346 50.828886 
L 85.487743 51.013665 
L 85.501067 50.976888 
L 85.567688 51.015398 
L 85.540014 50.893202 
L 85.612785 50.99354 
L 85.701954 51.013225 
L 85.707079 50.848343 
L 85.717328 50.942102 
L 85.820847 50.862225 
L 85.77165 51.011367 
L 85.828021 50.954584 
L 85.836221 50.867428 
L 85.84237 51.015732 
L 85.935639 50.968032 
L 86.00431 51.016585 
L 85.970487 50.818655 
L 86.046332 50.978485 
L 86.129352 50.881808 
L 86.148826 51.020682 
L 86.156 51.00232 
L 86.250294 51.012862 
L 86.225696 50.867045 
L 86.252344 50.952983 
L 86.363037 50.85873 
L 86.358938 51.01811 
L 86.365087 50.890354 
L 86.474755 51.018608 
L 86.425558 50.847699 
L 86.478855 50.982197 
L 86.5629 50.837957 
L 86.513703 51.021011 
L 86.596722 50.915287 
L 86.707415 51.015977 
L 86.672568 50.87745 
L 86.709465 50.971861 
L 86.815034 50.846663 
L 86.753538 51.021565 
L 86.819133 50.987717 
L 86.861156 51.015949 
L 86.824258 50.88823 
L 86.929826 50.978655 
L 86.986198 51.016167 
L 86.960574 50.864046 
L 87.035395 50.924477 
L 87.03847 50.879755 
L 87.128664 51.015096 
L 87.145063 50.92924 
L 87.203484 51.011511 
L 87.238332 50.882462 
L 87.253706 50.902498 
L 87.27318 50.845136 
L 87.320327 51.012348 
L 87.355175 50.993401 
L 87.437169 51.020145 
L 87.459718 50.876481 
L 87.460743 50.865822 
L 87.479192 51.015889 
L 87.565286 50.911927 
L 87.650356 51.022246 
L 87.616533 50.84224 
L 87.679054 51.012076 
L 87.739525 50.875537 
L 87.697503 51.019303 
L 87.792822 50.960285 
L 87.816395 51.016553 
L 87.843044 50.888254 
L 87.90249 50.947165 
L 87.980385 50.880512 
L 87.939388 51.017971 
L 88.017283 50.923244 
L 88.100302 51.019583 
L 88.072629 50.836262 
L 88.125926 50.893801 
L 88.307339 51.012702 
L 88.311439 50.950457 
L 88.419057 50.836587 
L 88.353461 51.010464 
L 88.422132 50.922882 
L 88.480553 51.017679 
L 88.44878 50.809832 
L 88.53385 50.963216 
L 88.573822 50.86388 
L 88.619945 51.00252 
L 88.645568 50.939525 
L 88.746012 50.882539 
L 88.710139 51.01453 
L 88.752161 50.973318 
L 88.757286 51.018297 
L 88.780859 50.833877 
L 88.85158 50.898476 
L 88.854655 50.836131 
L 88.933575 51.016692 
L 88.960223 50.960388 
L 89.008395 50.843281 
L 89.004295 51.021645 
L 89.069891 50.969232 
L 89.175459 51.01157 
L 89.125238 50.876135 
L 89.176484 50.967603 
L 89.287177 50.869615 
L 89.232856 51.010096 
L 89.288202 50.878218 
L 89.351748 51.021208 
L 89.402995 51.013967 
L 89.491139 50.870852 
L 89.519838 50.930273 
L 89.631556 51.019617 
L 89.537262 50.873065 
L 89.633605 50.975854 
L 89.726875 50.862733 
L 89.683827 51.020426 
L 89.743274 50.987658 
L 89.80067 51.010053 
L 89.79247 50.85407 
L 89.826293 50.898194 
L 89.828343 50.850153 
L 89.834493 51.015964 
L 89.933911 50.984622 
L 90.136849 50.904043 
L 89.95031 51.015016 
L 90.141973 50.941056 
L 90.205519 51.016502 
L 90.172721 50.856147 
L 90.254716 50.994819 
L 90.34491 50.87376 
L 90.314162 51.020832 
L 90.368484 50.948555 
L 90.435105 51.014635 
L 90.409481 50.858434 
L 90.478152 50.919789 
L 90.481227 50.887405 
L 90.550922 51.016295 
L 90.584745 50.996975 
L 90.641117 50.877978 
L 90.601144 51.018159 
L 90.722087 51.008689 
L 90.819455 51.018665 
L 90.774358 50.86019 
L 90.82458 50.965915 
L 90.884026 50.86053 
L 90.876852 51.011315 
L 90.934248 50.952678 
L 90.955772 51.018495 
L 90.992669 50.862044 
L 91.043916 50.939457 
L 91.062365 50.86554 
L 91.068515 51.018748 
L 91.15051 50.979298 
L 91.191507 51.016212 
L 91.181258 50.889518 
L 91.243779 50.903178 
L 91.245828 50.849057 
L 91.268377 51.016812 
L 91.351397 50.976096 
L 91.428267 51.021932 
L 91.357546 50.875821 
L 91.463115 50.992373 
L 91.520511 51.018923 
L 91.546134 50.879105 
L 91.571758 50.975407 
L 91.620955 50.865383 
L 91.644528 51.02022 
L 91.681426 51.006596 
L 91.689625 50.874581 
L 91.735748 51.020284 
L 91.794169 50.955378 
L 91.835166 51.019942 
L 91.806468 50.858967 
L 91.904862 50.968526 
L 91.966358 50.862001 
L 91.93356 51.009205 
L 92.01658 50.941163 
L 92.086275 51.019153 
L 92.113949 50.884027 
L 92.126248 50.932807 
L 92.165195 50.891229 
L 92.138547 51.021619 
L 92.234891 50.979632 
L 92.308686 51.009063 
L 92.260514 50.885378 
L 92.325085 50.921989 
L 92.393756 50.843115 
L 92.372232 51.014315 
L 92.434753 50.93314 
L 92.476776 51.008969 
L 92.505474 50.90743 
L 92.546471 50.944407 
L 92.578244 50.882265 
L 92.626416 51.022725 
L 92.65204 51.0021 
L 92.658189 51.015979 
L 92.677663 50.802552 
L 92.757608 50.975468 
L 92.790406 50.847587 
L 92.786306 51.018979 
L 92.870351 50.945045 
L 92.932872 50.886788 
L 92.894949 51.020212 
L 92.975919 50.975188 
L 92.992318 51.020831 
L 93.047665 50.844331 
L 93.086612 50.966481 
L 93.20038 50.853511 
L 93.139909 51.021666 
L 93.201405 50.861423 
L 93.2752 51.016538 
L 93.314148 50.919576 
L 93.372569 51.012963 
L 93.35412 50.864399 
L 93.434065 50.95552 
L 93.481212 50.893524 
L 93.451489 51.017861 
L 93.539633 50.982793 
L 93.625728 51.0067 
L 93.581656 50.848839 
L 93.645202 50.943613 
L 93.75487 50.871831 
L 93.660576 51.009765 
L 93.75692 50.91992 
L 93.843014 51.017477 
L 93.773319 50.859066 
L 93.868638 50.978392 
L 93.976256 50.872029 
L 93.885037 51.015096 
L 93.979331 50.943913 
L 94.063375 51.019421 
L 94.080799 50.873961 
L 94.090024 50.984433 
L 94.14742 50.873283 
L 94.187392 51.019961 
L 94.200717 50.963777 
L 94.23249 51.013872 
L 94.223265 50.803327 
L 94.313459 50.999817 
L 94.38623 50.862397 
L 94.38213 51.018586 
L 94.425177 50.973972 
L 94.457975 51.012771 
L 94.4672 50.850752 
L 94.529721 50.944555 
L 94.633239 50.88757 
L 94.53587 51.015424 
L 94.639389 50.946349 
L 94.694735 51.020652 
L 94.665012 50.909994 
L 94.702935 51.020137 
" clip-path="url(#p25db3e8ec8)" style="fill: none; stroke: #d62728; stroke-width: 0.5; stroke-linecap: square"/>
   </g>
  </g>
 </g>
 <defs>
  <clipPath id="p25db3e8ec8">
   <rect x="0" y="-0" width="99.212598" height="51.023622"/>
  </clipPath>
 </defs>
</svg>
