<?xml version="1.0" encoding="utf-8" standalone="no"?>
<!DOCTYPE svg PUBLIC "-//W3C//DTD SVG 1.1//EN"
  "http://www.w3.org/Graphics/SVG/1.1/DTD/svg11.dtd">
<svg xmlns:xlink="http://www.w3.org/1999/xlink" width="56.692913pt" height="28.346457pt" viewBox="0 0 56.692913 28.346457" xmlns="http://www.w3.org/2000/svg" version="1.1">
 <metadata>
  <rdf:RDF xmlns:dc="http://purl.org/dc/elements/1.1/" xmlns:cc="http://creativecommons.org/ns#" xmlns:rdf="http://www.w3.org/1999/02/22-rdf-syntax-ns#">
   <cc:Work>
    <dc:type rdf:resource="http://purl.org/dc/dcmitype/StillImage"/>
    <dc:date>2024-11-01T11:33:21.358225</dc:date>
    <dc:format>image/svg+xml</dc:format>
    <dc:creator>
     <cc:Agent>
      <dc:title>Matplotlib v3.8.4, https://matplotlib.org/</dc:title>
     </cc:Agent>
    </dc:creator>
   </cc:Work>
  </rdf:RDF>
 </metadata>
 <defs>
  <style type="text/css">*{stroke-linejoin: round; stroke-linecap: butt}</style>
 </defs>
 <g id="figure_1">
  <g id="patch_1">
   <path d="M 0 28.346457 
L 56.692913 28.346457 
L 56.692913 0 
L 0 0 
L 0 28.346457 
z
" style="fill: none"/>
  </g>
  <g id="axes_1">
   <g id="patch_2">
    <path d="M 0 28.346457 
L 56.692913 28.346457 
L 56.692913 0 
L 0 0 
L 0 28.346457 
z
" style="fill: none"/>
   </g>
   <g id="matplotlib.axis_1">
    <g id="xtick_1"/>
    <g id="xtick_2"/>
   </g>
   <g id="matplotlib.axis_2">
    <g id="ytick_1"/>
    <g id="ytick_2"/>
   </g>
   <g id="line2d_1">
    <path d="M 2.576951 26.622948 
L 2.667145 27.642992 
L 2.653089 25.937543 
L 2.688229 27.423924 
L 2.742112 26.193204 
L 2.79248 28.041297 
L 2.800094 26.890385 
L 2.807707 27.86366 
L 2.83582 26.156218 
L 2.90903 27.287047 
L 3.005081 26.156126 
L 2.910201 27.707549 
L 3.019723 26.930431 
L 3.127487 27.680326 
L 3.08239 26.078106 
L 3.130416 27.228243 
L 3.149743 26.12094 
L 3.228809 28.026083 
L 3.241109 27.12653 
L 3.249308 26.204222 
L 3.28972 27.820584 
L 3.342431 27.055995 
L 3.352387 27.64071 
L 3.424426 26.3053 
L 3.453709 27.203685 
L 3.560303 27.663147 
L 3.46308 26.102924 
L 3.56206 26.898992 
L 3.58373 26.072278 
L 3.593686 27.780788 
L 3.672753 26.569454 
L 3.750648 28.13173 
L 3.733663 26.297495 
L 3.783446 26.923206 
L 3.805701 26.136447 
L 3.880082 27.727417 
L 3.893553 26.90291 
L 3.980233 27.798811 
L 3.944507 25.877801 
L 4.00366 26.667792 
L 4.07277 26.085409 
L 4.074527 27.743998 
L 4.112596 26.832557 
L 4.218604 27.772243 
L 4.132509 26.319622 
L 4.223875 27.206015 
L 4.263701 26.310371 
L 4.294742 27.868167 
L 4.334568 26.675306 
L 4.335154 27.649362 
L 4.398407 26.111933 
L 4.445847 27.129927 
L 4.446432 27.132687 
L 4.447018 27.068118 
L 4.447604 26.270919 
L 4.526084 27.924086 
L 4.558297 26.554335 
L 4.665476 27.857705 
L 4.580552 26.12048 
L 4.669575 27.420724 
L 4.728143 26.044755 
L 4.725215 27.797169 
L 4.78144 26.782175 
L 4.821266 26.215084 
L 4.871634 27.659148 
L 4.891547 27.102584 
L 4.902675 26.214097 
L 4.910874 27.640704 
L 5.001654 26.832479 
L 5.035624 27.728082 
L 5.014539 26.095937 
L 5.112347 26.602078 
L 5.153345 27.635085 
L 5.190242 26.34228 
L 5.22304 27.262036 
L 5.323777 26.069505 
L 5.258181 28.030024 
L 5.334319 26.849769 
L 5.355989 26.262091 
L 5.399329 27.684514 
L 5.443841 26.704564 
L 5.484838 27.981513 
L 5.47781 26.003029 
L 5.554534 26.550532 
L 5.642385 27.776455 
L 5.57269 26.317295 
L 5.666398 26.922858 
L 5.722623 26.176685 
L 5.742536 27.769949 
L 5.777091 26.713932 
L 5.830973 27.856053 
L 5.842101 26.248743 
L 5.887784 26.65465 
L 5.931124 27.895947 
L 5.916482 25.860541 
L 5.999648 27.319488 
L 6.007848 26.295868 
L 6.004334 27.892271 
L 6.111513 26.600035 
L 6.201121 27.763342 
L 6.175937 26.132604 
L 6.223377 27.201188 
L 6.245633 26.081692 
L 6.253832 27.755237 
L 6.33407 27.313463 
L 6.408451 27.764574 
L 6.404351 26.007822 
L 6.440078 27.216149 
L 6.464091 26.132531 
L 6.472876 27.85692 
L 6.550771 26.830753 
L 6.563656 27.727826 
L 6.605824 26.111953 
L 6.662049 27.38923 
L 6.706561 26.111401 
L 6.715932 27.672746 
L 6.773914 26.5935 
L 6.79207 27.803137 
L 6.851223 26.39215 
L 6.886364 26.835559 
L 6.940246 26.151559 
L 6.924433 27.671654 
L 6.985929 26.967455 
L 7.019313 27.829506 
L 6.987686 26.132672 
L 7.096622 27.328604 
L 7.101893 25.940074 
L 7.131763 27.747629 
L 7.207901 27.041157 
L 7.248312 27.803404 
L 7.305709 26.20597 
L 7.318008 27.386427 
L 7.394146 26.173531 
L 7.407031 27.754445 
L 7.429287 26.878764 
L 7.517138 27.701311 
L 7.449785 26.316758 
L 7.53998 26.888165 
L 7.592105 26.104573 
L 7.606161 27.90885 
L 7.64833 26.573833 
L 7.696941 27.791454 
L 7.757266 26.092604 
L 7.759609 26.9111 
L 7.78245 27.770659 
L 7.767808 26.217927 
L 7.870887 27.064602 
L 7.969867 26.18113 
L 7.965181 27.7092 
L 7.980995 27.183691 
L 8.061818 27.718112 
L 8.044833 26.223408 
L 8.078803 26.74261 
L 8.174854 26.152433 
L 8.133271 27.682106 
L 8.187739 26.543123 
L 8.263291 27.696225 
L 8.292575 26.261578 
L 8.299017 26.987129 
L 8.385698 26.210137 
L 8.341186 27.865921 
L 8.409125 27.307824 
L 8.412053 26.217768 
L 8.513961 27.72079 
L 8.521575 26.652275 
L 8.626411 27.72266 
L 8.626997 26.127309 
L 8.632853 27.19498 
L 8.655109 26.211522 
L 8.655695 27.780321 
L 8.744718 26.92144 
L 8.811485 27.6248 
L 8.749403 26.20989 
L 8.829641 26.937823 
L 8.848968 26.132976 
L 8.916907 27.769701 
L 8.939748 26.848362 
L 8.957319 28.117372 
L 9.045756 26.312715 
L 9.050441 26.892983 
L 9.123651 26.313455 
L 9.113109 27.744767 
L 9.159963 27.208715 
L 9.168162 27.769261 
L 9.173433 26.295054 
L 9.270656 27.140882 
L 9.323953 26.260132 
L 9.29174 27.599128 
L 9.38252 26.691741 
L 9.483842 27.849554 
L 9.417075 26.105613 
L 9.495556 27.318702 
L 9.565837 26.145929 
L 9.547096 27.685434 
L 9.606249 27.569872 
L 9.712842 26.137387 
L 9.650175 27.791971 
L 9.717528 27.014922 
L 9.743297 27.742935 
L 9.821192 26.243614 
L 9.828221 27.118818 
L 9.911972 26.126942 
L 9.856919 27.75526 
L 9.938914 26.619778 
L 10.019151 27.750397 
L 10.034965 26.068801 
L 10.050192 27.03409 
L 10.116374 26.233723 
L 10.086504 27.87599 
L 10.161471 26.794413 
L 10.256351 27.715162 
L 10.19954 26.224474 
L 10.272164 26.807098 
L 10.310819 27.698799 
L 10.300862 25.911615 
L 10.360016 27.441489 
L 10.442596 26.025723 
L 10.390471 27.825311 
L 10.471294 26.900583 
L 10.480665 26.054924 
L 10.553875 27.758997 
L 10.58023 26.687487 
L 10.655783 27.795353 
L 10.656954 26.265635 
L 10.691509 27.088562 
L 10.723135 26.166854 
L 10.741291 27.647473 
L 10.802202 27.153022 
L 10.873069 26.23991 
L 10.832657 27.733406 
L 10.913481 26.381902 
L 10.98669 27.849702 
L 10.959749 26.057898 
L 11.024759 26.676131 
L 11.069271 27.711041 
L 11.076299 26.060552 
L 11.136038 27.209573 
L 11.177035 26.283877 
L 11.191092 27.679158 
L 11.246731 26.642696 
L 11.308227 27.97464 
L 11.34571 26.212485 
L 11.357424 27.211122 
L 11.367966 25.935571 
L 11.414235 27.565991 
L 11.468117 26.704915 
L 11.516142 27.72265 
L 11.538984 26.030037 
L 11.579396 27.08448 
L 11.657876 27.68236 
L 11.647334 26.159067 
L 11.688917 26.94349 
L 11.715273 26.183751 
L 11.77384 27.766728 
L 11.79961 27.048352 
L 11.835337 27.862235 
L 11.859935 25.834593 
L 11.909718 26.89706 
L 11.986441 26.074335 
L 12.015725 27.740004 
L 12.020411 26.673465 
L 12.080735 27.99279 
L 12.049694 25.969173 
L 12.132275 27.042412 
L 12.132861 26.284924 
L 12.209584 27.6384 
L 12.243554 26.759395 
L 12.35249 27.790027 
L 12.252924 26.200333 
L 12.354247 26.96351 
L 12.39583 25.880042 
L 12.446198 27.695631 
L 12.464354 27.025306 
L 12.548691 27.807374 
L 12.553963 26.187103 
L 12.572119 27.091902 
L 12.664656 26.213149 
L 12.645328 27.783869 
L 12.683397 26.745627 
L 12.774763 28.082942 
L 12.737865 26.190897 
L 12.793505 26.650915 
L 12.861443 26.279533 
L 12.864957 27.839094 
L 12.903612 26.998756 
L 13.007277 27.716534 
L 12.919425 26.350124 
L 13.012548 27.429558 
L 13.119727 26.18078 
L 13.105085 27.77651 
L 13.123826 26.909951 
L 13.212849 26.211774 
L 13.219878 27.728038 
L 13.233934 26.785638 
L 13.341113 27.737643 
L 13.291916 26.22419 
L 13.345212 27.182584 
L 13.371568 26.221281 
L 13.443021 27.642004 
L 13.456491 26.936105 
L 13.518573 27.679776 
L 13.5502 26.241651 
L 13.567184 27.583646 
L 13.67612 26.179334 
L 13.578898 27.703758 
L 13.679049 26.576422 
L 13.725903 27.930792 
L 13.7669 26.121118 
L 13.790327 26.891738 
L 13.830153 26.300087 
L 13.867051 27.948281 
L 13.900435 26.792434 
L 13.991214 27.720986 
L 13.950803 26.223407 
L 14.010542 26.797714 
L 14.113621 26.235319 
L 14.046268 27.690281 
L 14.119478 26.925582 
L 14.127677 28.122316 
L 14.18156 25.992369 
L 14.229585 27.108428 
L 14.264726 26.082159 
L 14.245398 27.69881 
L 14.340864 26.842228 
L 14.446286 28.346457 
L 14.378933 26.185373 
L 14.450971 27.491269 
L 14.555807 26.145034 
L 14.524766 27.950685 
L 14.56225 27.203977 
L 14.593291 26.099869 
L 14.619061 27.725627 
L 14.673528 27.116225 
L 14.730925 26.015776 
L 14.774265 27.931867 
L 14.77895 26.711521 
L 14.865045 27.838518 
L 14.853917 25.951117 
L 14.889643 26.472513 
L 14.897257 27.72955 
L 14.988037 26.062679 
L 15.001508 27.389864 
L 15.018492 26.141509 
L 15.033134 27.584046 
L 15.112786 26.748463 
L 15.132114 27.944562 
L 15.133285 26.207873 
L 15.224065 27.054182 
L 15.314845 26.167 
L 15.26272 27.692922 
L 15.335344 26.909998 
L 15.438423 27.831241 
L 15.399768 26.303544 
L 15.446622 27.273548 
L 15.516318 26.13673 
L 15.518075 27.764711 
L 15.557315 26.94047 
L 15.572543 27.826562 
L 15.614712 26.215783 
L 15.668008 27.257118 
L 15.686164 26.242339 
L 15.701978 27.792866 
L 15.778701 26.973695 
L 15.799786 27.860648 
L 15.853668 26.035072 
L 15.890566 27.185324 
L 15.938006 26.136673 
L 15.944448 27.638018 
L 16.001259 26.75888 
L 16.059827 27.700841 
L 16.059241 26.003406 
L 16.112537 27.067847 
L 16.220302 26.129585 
L 16.138307 27.585024 
L 16.220888 27.114501 
L 16.222645 27.848972 
L 16.294097 25.851788 
L 16.332166 27.295485 
L 16.359693 26.16281 
L 16.360865 27.878247 
L 16.443445 26.721311 
L 16.478 27.907717 
L 16.510798 26.151174 
L 16.555309 27.244676 
L 16.63379 25.984703 
L 16.57288 27.772975 
L 16.666002 26.741508 
L 16.683573 27.843408 
L 16.708757 26.140038 
L 16.776695 26.774246 
L 16.818279 27.709541 
L 16.814179 25.878996 
L 16.879189 27.298463 
L 16.928386 25.795265 
L 16.946542 27.675539 
L 16.990468 26.879823 
L 17.047864 26.240422 
L 17.030879 27.679515 
L 17.101746 26.59308 
L 17.20014 27.860013 
L 17.20424 26.133331 
L 17.212439 27.351992 
L 17.219467 26.27439 
L 17.288577 27.924199 
L 17.323718 26.924422 
L 17.406299 25.99167 
L 17.356516 27.694467 
L 17.433825 27.274182 
L 17.515235 27.699096 
L 17.495907 26.259736 
L 17.543347 26.988913 
L 17.568531 25.864521 
L 17.617728 27.93892 
L 17.654626 26.811736 
L 17.676296 27.855191 
L 17.700894 26.041873 
L 17.763562 27.234321 
L 17.825643 26.36116 
L 17.786989 27.856149 
L 17.874255 26.667542 
L 17.975577 27.837267 
L 17.910567 26.108663 
L 17.985533 27.402545 
L 18.003104 26.137567 
L 18.033559 27.83864 
L 18.096226 27.089479 
L 18.186421 27.666444 
L 18.106769 26.342062 
L 18.206919 26.803034 
L 18.25963 26.223417 
L 18.295357 27.967549 
L 18.317027 27.004938 
L 18.331669 26.064137 
L 18.338111 27.660329 
L 18.421277 26.877238 
L 18.421863 27.997997 
L 18.513229 26.265854 
L 18.532556 27.340551 
L 18.629778 26.166997 
L 18.578824 27.630316 
L 18.643835 27.005017 
L 18.745157 26.091557 
L 18.676632 27.820979 
L 18.752771 27.140326 
L 18.803724 27.785353 
L 18.831837 26.355051 
L 18.863464 27.560717 
L 18.969471 26.176843 
L 18.906218 27.754287 
L 18.974742 27.266057 
L 18.976499 26.188969 
L 19.067279 27.699493 
L 19.086607 26.48049 
L 19.165673 27.871776 
L 19.130532 26.185553 
L 19.197885 26.934742 
L 19.255867 25.912201 
L 19.267581 27.788527 
L 19.308578 26.695521 
L 19.386473 27.829271 
L 19.415757 26.200006 
L 19.420443 27.251051 
L 19.442698 26.206625 
L 19.476668 27.849126 
L 19.531721 27.156052 
L 19.549877 27.63214 
L 19.559834 26.201819 
L 19.640072 27.270666 
L 19.736708 26.234096 
L 19.706839 27.868636 
L 19.75135 26.393047 
L 19.803476 27.818588 
L 19.841545 25.916222 
L 19.862629 27.075679 
L 19.905383 27.643654 
L 19.884299 25.842855 
L 19.967465 26.70477 
L 19.989135 26.188402 
L 19.993821 27.755834 
L 20.078158 26.761119 
L 20.108028 27.554 
L 20.129112 25.868807 
L 20.18768 26.833214 
L 20.190022 26.247637 
L 20.192951 27.767041 
L 20.298958 26.699448 
L 20.361626 27.758785 
L 20.354012 26.093876 
L 20.409651 27.203498 
L 20.485204 26.201807 
L 20.41668 27.761796 
L 20.52093 26.363739 
L 20.575984 27.815718 
L 20.608782 26.153834 
L 20.632209 26.949001 
L 20.724746 27.806377 
L 20.696048 25.959214 
L 20.741145 27.418266 
L 20.836024 26.253598 
L 20.815526 27.802211 
L 20.851838 26.907735 
L 20.926219 27.608328 
L 20.913334 25.701707 
L 20.963702 27.510472 
L 20.965459 26.13887 
L 21.060925 27.797037 
L 21.074981 27.146624 
L 21.11715 27.729149 
L 21.118321 25.978795 
L 21.163418 27.137838 
L 21.164004 26.262961 
L 21.190359 27.851291 
L 21.274111 27.129575 
L 21.276454 27.723077 
L 21.327408 26.260193 
L 21.35142 27.368662 
L 21.457428 26.017374 
L 21.391247 27.738226 
L 21.462699 26.730564 
L 21.555822 27.820814 
L 21.479684 26.041078 
L 21.573392 26.885894 
L 21.668272 26.267173 
L 21.65363 27.664551 
L 21.681157 26.650979 
L 21.729182 27.709403 
L 21.77018 26.149985 
L 21.792435 27.104932 
L 21.890829 27.705191 
L 21.814106 25.969391 
L 21.894929 27.313137 
L 21.965796 26.158833 
L 21.911914 27.792083 
L 22.005622 26.98001 
L 22.022607 27.591839 
L 22.091131 25.959745 
L 22.116901 27.308096 
L 22.149699 26.106667 
L 22.196553 27.653852 
L 22.228765 26.590351 
L 22.229351 27.855042 
L 22.278548 25.997204 
L 22.339458 27.248606 
L 22.388655 26.135131 
L 22.375184 27.583255 
L 22.451322 26.471161 
L 22.498762 28.113676 
L 22.460108 26.075181 
L 22.562601 26.783091 
L 22.625268 26.014854 
L 22.616483 27.698346 
L 22.668023 26.585776 
L 22.769931 27.706282 
L 22.745332 26.092624 
L 22.778716 27.076858 
L 22.805657 26.121451 
L 22.865396 27.812107 
L 22.889995 26.937618 
L 22.905808 27.888621 
L 22.963204 26.060797 
L 23.001273 27.223428 
L 23.010644 26.198108 
L 23.017087 27.757214 
L 23.111966 27.184715 
L 23.188104 27.954518 
L 23.158235 26.337229 
L 23.219145 27.066721 
L 23.304654 26.142612 
L 23.246672 28.072794 
L 23.329838 26.543443 
L 23.38782 27.532193 
L 23.410662 25.975518 
L 23.441117 27.038834 
L 23.483871 26.313552 
L 23.479186 27.70571 
L 23.551224 27.179776 
L 23.626777 27.803285 
L 23.655475 26.185586 
L 23.661332 26.876312 
L 23.757383 26.219372 
L 23.745669 27.733039 
L 23.771439 26.946985 
L 23.862805 27.667753 
L 23.777881 26.16186 
L 23.882132 27.234157 
L 23.95007 26.182027 
L 23.951242 27.613143 
L 23.993996 26.541516 
L 24.021523 27.773102 
L 24.097075 26.166237 
L 24.105861 27.671248 
L 24.210111 26.232458 
L 24.187855 27.872176 
L 24.217725 26.951285 
L 24.27805 26.058156 
L 24.27395 27.707896 
L 24.327832 27.265736 
L 24.370001 28.065718 
L 24.417441 26.037947 
L 24.437354 26.988028 
L 24.51642 26.259937 
L 24.54219 27.7101 
L 24.548047 26.807884 
L 24.6154 27.693707 
L 24.597244 26.273403 
L 24.659326 27.50006 
L 24.668696 26.038919 
L 24.718479 27.799668 
L 24.770604 26.934711 
L 24.79286 27.883478 
L 24.819801 26.220846 
L 24.881883 27.186981 
L 24.925809 26.228532 
L 24.987305 28.054746 
L 24.993162 26.972809 
L 25.081013 26.293689 
L 25.044701 27.810786 
L 25.10444 26.698531 
L 25.188778 27.711532 
L 25.132553 26.011755 
L 25.215133 27.100283 
L 25.254959 26.235559 
L 25.312941 27.794553 
L 25.325826 26.822865 
L 25.416021 27.779464 
L 25.407235 26.013533 
L 25.434177 26.76721 
L 25.488059 26.262742 
L 25.5109 27.63652 
L 25.544284 26.62137 
L 25.58001 27.641914 
L 25.559512 26.153393 
L 25.654977 27.551041 
L 25.677233 26.236689 
L 25.759813 27.921523 
L 25.766256 26.804212 
L 25.766841 27.950169 
L 25.862307 26.170324 
L 25.876949 26.556301 
L 25.962457 27.718004 
L 25.956601 26.257564 
L 25.988227 27.496376 
L 25.988813 26.087601 
L 26.080764 27.65496 
L 26.099506 27.064058 
L 26.198485 25.916157 
L 26.16803 27.886379 
L 26.209613 26.812608 
L 26.288094 27.753126 
L 26.245925 26.090117 
L 26.320306 27.020206 
L 26.336705 26.190843 
L 26.35369 27.827323 
L 26.431585 26.98429 
L 26.503623 27.840171 
L 26.50538 26.173188 
L 26.542278 27.034142 
L 26.57449 26.23304 
L 26.563362 27.758427 
L 26.612559 27.046127 
L 26.628958 27.849486 
L 26.63013 26.121441 
L 26.723252 26.929175 
L 26.755464 27.836821 
L 26.768349 26.029183 
L 26.828674 27.467236 
L 26.884899 26.208222 
L 26.837459 27.722417 
L 26.939367 26.98558 
L 26.953423 27.704039 
L 27.041861 26.270221 
L 27.049474 27.136438 
L 27.115656 26.014931 
L 27.133812 27.565178 
L 27.160753 26.840205 
L 27.267932 27.777699 
L 27.262661 26.149272 
L 27.272617 27.217415 
L 27.371011 26.19453 
L 27.337628 27.744611 
L 27.383896 26.590979 
L 27.390924 27.829927 
L 27.389167 26.219995 
L 27.495175 27.323615 
L 27.496932 25.942042 
L 27.579512 27.745992 
L 27.606453 26.812578 
L 27.683763 27.770399 
L 27.694305 26.285189 
L 27.717732 27.335925 
L 27.772786 26.259199 
L 27.807341 27.678006 
L 27.829597 27.058455 
L 27.861809 27.961816 
L 27.855366 25.99844 
L 27.94029 27.391734 
L 27.962545 26.167697 
L 28.015256 27.881649 
L 28.051568 27.075699 
L 28.093737 27.730062 
L 28.076752 26.265604 
L 28.152305 27.103133 
L 28.166947 26.080265 
L 28.189202 27.61869 
L 28.263583 26.255781 
L 28.284082 27.793324 
L 28.374862 26.904512 
L 28.47267 26.152692 
L 28.428159 27.744571 
L 28.485555 26.95747 
L 28.59332 26.324794 
L 28.572821 27.738963 
L 28.595077 27.073347 
L 28.6841 27.781235 
L 28.66243 26.125939 
L 28.705184 27.638397 
L 28.730368 26.149852 
L 28.773708 27.797736 
L 28.816463 27.22929 
L 28.883816 26.244716 
L 28.895529 27.780317 
L 28.929498 26.447541 
L 29.009736 27.917902 
L 29.03492 26.245422 
L 29.041363 27.624318 
L 29.051319 26.003768 
L 29.106959 27.714321 
L 29.152641 27.054301 
L 29.191296 27.643559 
L 29.203595 26.112575 
L 29.263334 27.024403 
L 29.372856 26.21763 
L 29.283833 27.544293 
L 29.373442 26.824582 
L 29.477107 28.290075 
L 29.432009 26.248547 
L 29.483549 26.764206 
L 29.570229 26.084822 
L 29.550316 27.851765 
L 29.594242 26.541396 
L 29.624697 27.603895 
L 29.640511 26.182975 
L 29.704935 27.068285 
L 29.813285 26.04261 
L 29.793958 27.882644 
L 29.815628 26.980237 
L 29.887666 27.711144 
L 29.826756 25.943135 
L 29.926321 27.141141 
L 29.984889 25.742182 
L 29.956776 27.750027 
L 30.037014 26.490446 
L 30.109638 27.668705 
L 30.092068 26.002669 
L 30.148878 27.532665 
L 30.231459 25.72423 
L 30.202761 27.685567 
L 30.260157 26.713475 
L 30.289441 27.748626 
L 30.364408 26.108233 
L 30.370264 26.875961 
L 30.397791 26.229368 
L 30.381978 27.764887 
L 30.480957 26.812717 
L 30.535425 27.696722 
L 30.533668 26.234551 
L 30.592236 27.310031 
L 30.687701 26.117764 
L 30.657246 27.863876 
L 30.703515 26.844862 
L 30.772625 26.146838 
L 30.779653 27.669938 
L 30.811279 26.472103 
L 30.906159 28.014471 
L 30.832949 26.305747 
L 30.922558 26.860245 
L 30.923144 26.860996 
L 31.016266 27.647951 
L 30.982297 26.241458 
L 31.033837 26.983796 
L 31.073663 26.246177 
L 31.050236 27.743892 
L 31.14453 26.739086 
L 31.191384 27.717387 
L 31.157415 26.104138 
L 31.255223 27.324712 
L 31.322576 26.191275 
L 31.285092 27.730849 
L 31.367087 26.621763 
L 31.422726 27.590798 
L 31.399885 25.98295 
L 31.478366 27.209153 
L 31.539862 27.694376 
L 31.541619 26.115968 
L 31.583788 26.925259 
L 31.672225 26.252963 
L 31.658754 27.802164 
L 31.694481 26.698323 
L 31.703852 27.952334 
L 31.713222 26.197707 
L 31.804588 27.484532 
L 31.91001 26.226333 
L 31.879555 27.682915 
L 31.915867 26.955583 
L 32.011332 27.710463 
L 31.936951 25.970511 
L 32.02656 26.984393 
L 32.049401 26.146953 
L 32.115583 27.636585 
L 32.138424 26.510445 
L 32.24736 27.805728 
L 32.246189 26.15441 
L 32.249703 26.803842 
L 32.266102 27.78212 
L 32.296557 26.026871 
L 32.322327 27.093184 
L 32.417792 25.960089 
L 32.432434 27.957505 
L 32.43302 26.643623 
L 32.512672 28.015237 
L 32.486316 26.289176 
L 32.54547 27.786186 
L 32.581196 26.279216 
L 32.644449 27.981721 
L 32.656748 26.667508 
L 32.690718 27.73657 
L 32.67959 26.224823 
L 32.768027 27.146792 
L 32.854707 26.263177 
L 32.786183 27.548329 
L 32.879306 26.919011 
L 32.946659 27.751602 
L 32.90039 26.126948 
L 32.989999 27.115104 
L 33.05618 26.138294 
L 33.081364 27.807714 
L 33.101863 26.827779 
L 33.143446 27.716188 
L 33.189129 25.972605 
L 33.213727 27.052821 
L 33.223684 26.102692 
L 33.298651 28.07648 
L 33.32442 26.895506 
L 33.332034 27.686633 
L 33.385331 26.223962 
L 33.435699 27.153275 
L 33.496024 26.232366 
L 33.444484 27.978259 
L 33.546978 26.659188 
L 33.644786 27.873079 
L 33.627801 26.235254 
L 33.658256 27.32226 
L 33.685783 26.192021 
L 33.761921 27.784656 
L 33.769535 26.788345 
L 33.837474 27.735122 
L 33.84743 26.283739 
L 33.8773 27.162027 
L 33.877885 26.311634 
L 33.940553 27.794749 
L 33.988578 26.673316 
L 34.009077 27.772708 
L 34.078187 26.27284 
L 34.099857 27.112874 
L 34.144369 26.234648 
L 34.169553 27.80451 
L 34.211136 26.80369 
L 34.284345 27.674077 
L 34.226363 26.067442 
L 34.321829 26.542666 
L 34.353455 28.001509 
L 34.402067 26.238868 
L 34.430765 27.154007 
L 34.43135 26.057197 
L 34.481133 27.759562 
L 34.541458 27.144406 
L 34.602954 26.183442 
L 34.576013 27.771211 
L 34.650979 26.793326 
L 34.651565 27.711069 
L 34.666793 26.199867 
L 34.762258 27.12208 
L 34.81614 27.770496 
L 34.84191 26.14026 
L 34.872951 27.06711 
L 34.983058 27.922585 
L 34.906335 26.224825 
L 34.983644 27.176892 
L 34.997115 26.236294 
L 35.04514 27.899153 
L 35.095508 26.272384 
L 35.160519 27.812271 
L 35.11425 26.191984 
L 35.206787 26.966297 
L 35.279997 27.716202 
L 35.269455 26.119387 
L 35.318066 27.173489 
L 35.343836 26.415988 
L 35.39069 27.84521 
L 35.429344 27.105177 
L 35.529495 26.07388 
L 35.514853 27.883836 
L 35.540037 26.571739 
L 35.619104 27.653301 
L 35.584549 26.139659 
L 35.651316 27.050305 
L 35.728626 27.836408 
L 35.699927 26.288016 
L 35.761423 26.846389 
L 35.828191 26.168144 
L 35.835805 27.796627 
L 35.870359 26.904111 
L 35.948255 27.812527 
L 35.886758 26.222445 
L 35.981052 27.332963 
L 36.012093 26.334162 
L 35.982809 27.63262 
L 36.091745 27.403023 
L 36.111073 26.342964 
L 36.119272 27.82858 
L 36.20361 27.045452 
L 36.225866 27.807021 
L 36.286776 26.182665 
L 36.314888 27.187877 
L 36.37697 25.783549 
L 36.400397 27.647607 
L 36.424996 26.736776 
L 36.425581 27.950534 
L 36.479464 26.227729 
L 36.535689 26.755153 
L 36.557359 27.6943 
L 36.628811 26.176918 
L 36.646382 26.936748 
L 36.719006 26.125693 
L 36.71432 27.805737 
L 36.757075 26.950058 
L 36.8051 27.702167 
L 36.835556 26.060927 
L 36.868353 27.212573 
L 36.908765 26.2223 
L 36.971433 27.586929 
L 36.979046 26.797975 
L 37.073926 27.912512 
L 37.046985 26.183859 
L 37.089739 26.73565 
L 37.163535 26.265882 
L 37.093839 27.797303 
L 37.192233 27.3708 
L 37.192819 27.758744 
L 37.237916 26.118836 
L 37.30234 27.213797 
L 37.364422 26.093444 
L 37.317568 27.645203 
L 37.414205 26.717241 
L 37.419476 27.911174 
L 37.497371 26.202744 
L 37.524898 26.322841 
L 37.588737 27.755772 
L 37.627391 26.309923 
L 37.637348 26.955786 
L 37.739841 26.261847 
L 37.657846 27.65898 
L 37.748626 26.735009 
L 37.765025 27.93832 
L 37.815979 26.077435 
L 37.858734 26.672379 
L 37.954199 26.276149 
L 37.86869 27.998996 
L 37.965913 26.805058 
L 37.98114 27.656792 
L 38.019795 26.162043 
L 38.076606 27.001259 
L 38.10179 26.203512 
L 38.114089 27.818637 
L 38.187299 26.883153 
L 38.234739 27.668513 
L 38.206626 26.223579 
L 38.297992 26.727394 
L 38.362416 27.773135 
L 38.310291 25.953888 
L 38.409856 27.227093 
L 38.418055 26.076647 
L 38.442068 27.721986 
L 38.520549 26.73271 
L 38.522306 27.792882 
L 38.546319 26.147063 
L 38.632413 27.360234 
L 38.649984 26.20953 
L 38.714408 27.787694 
L 38.743692 26.48291 
L 38.832715 27.723912 
L 38.812802 26.229591 
L 38.854971 26.801931 
L 38.953364 27.584356 
L 38.884255 26.229126 
L 38.966249 27.0358 
L 39.03126 27.765842 
L 39.076942 26.238706 
L 39.178265 27.836706 
L 39.146638 25.987073 
L 39.188221 26.947563 
L 39.188807 26.254139 
L 39.215748 27.978946 
L 39.298914 27.20525 
L 39.340497 27.630787 
L 39.354553 26.268611 
L 39.408436 26.534478 
L 39.508001 27.794381 
L 39.481645 26.014571 
L 39.519714 27.221416 
L 39.563055 26.355028 
L 39.608737 27.679092 
L 39.630993 27.071896 
L 39.706545 28.124569 
L 39.644464 25.893909 
L 39.737586 26.943458 
L 39.765113 26.11176 
L 39.806111 27.703854 
L 39.849451 26.235904 
L 39.927346 27.710249 
L 39.889277 25.947936 
L 39.960729 27.314066 
L 39.991185 26.305426 
L 39.972443 27.574889 
L 40.072008 26.585188 
L 40.126476 27.865335 
L 40.079622 26.062662 
L 40.183287 27.593231 
L 40.28988 26.016331 
L 40.227213 28.007486 
L 40.295151 26.669492 
L 40.327949 27.899808 
L 40.37246 26.219355 
L 40.401159 27.149214 
L 40.415801 26.209816 
L 40.430443 27.774736 
L 40.511852 27.029539 
L 40.598532 27.538302 
L 40.531765 25.993297 
L 40.620202 27.051473 
L 40.688726 26.168888 
L 40.690483 27.68049 
L 40.730895 26.446431 
L 40.791805 27.805234 
L 40.827532 25.802579 
L 40.841588 26.959866 
L 40.918897 26.269869 
L 40.900741 27.892521 
L 40.952867 26.500354 
L 41.06356 27.825316 
L 41.01202 26.113018 
L 41.064145 27.274893 
L 41.130327 26.269935 
L 41.088158 27.798856 
L 41.17601 26.624679 
L 41.239848 27.799833 
L 41.235163 26.056571 
L 41.287288 26.981834 
L 41.390953 27.838584 
L 41.361669 26.257253 
L 41.398567 27.344883 
L 41.447178 26.024597 
L 41.500475 27.662416 
L 41.509846 26.924505 
L 41.559628 27.652577 
L 41.618782 26.152807 
L 41.620539 26.978044 
L 41.697848 26.143385 
L 41.73006 27.695122 
L 41.731232 26.517213 
L 41.750559 27.830472 
L 41.828454 26.125165 
L 41.84251 26.94812 
L 41.943833 27.76566 
L 41.858909 26.198716 
L 41.953789 27.136497 
L 42.025242 26.108412 
L 42.039298 27.71463 
L 42.064482 26.737936 
L 42.100208 27.684476 
L 42.069753 26.307699 
L 42.175175 26.79165 
L 42.187474 27.712314 
L 42.2314 26.128344 
L 42.285868 27.322937 
L 42.336822 26.208748 
L 42.339165 27.591624 
L 42.396561 27.06047 
L 42.403589 27.613598 
L 42.437558 26.078522 
L 42.506083 27.170626 
L 42.540638 26.128843 
L 42.585735 27.704334 
L 42.616776 26.963135 
L 42.620875 27.620731 
L 42.623218 26.405882 
L 42.671244 26.605237 
L 42.671829 26.278485 
L 42.722198 27.608078 
L 42.780765 26.950974 
L 42.827619 27.668872 
L 42.867446 26.035467 
L 42.892044 27.269384 
L 42.932456 26.193937 
L 42.916057 27.802023 
L 43.003908 26.491651 
L 43.090003 27.689255 
L 43.072433 26.222804 
L 43.115187 27.248462 
L 43.218266 26.317085 
L 43.211824 27.83508 
L 43.226466 26.562165 
L 43.23408 27.693175 
L 43.258678 26.198355 
L 43.33833 27.479319 
L 43.358829 25.921091 
L 43.402169 27.740075 
L 43.449609 26.615535 
L 43.451366 26.342597 
L 43.45078 27.080298 
L 43.451951 26.831724 
L 43.524575 27.737142 
L 43.45898 26.176581 
L 43.56323 27.216424 
L 43.611256 26.168842 
L 43.593685 27.953174 
L 43.673337 27.004137 
L 43.760018 27.721043 
L 43.695007 26.343699 
L 43.78403 26.896267 
L 43.867197 25.765635 
L 43.802772 27.811067 
L 43.895309 26.585741 
L 43.919322 26.245638 
L 43.926936 27.710734 
L 43.976718 27.195379 
L 43.987846 27.828244 
L 44.062227 26.148153 
L 44.08624 26.803457 
L 44.131337 26.330681 
L 44.150079 27.825348 
L 44.195176 27.219681 
L 44.206889 27.810778 
L 44.210403 26.031332 
L 44.304698 27.119678 
L 44.332224 26.11538 
L 44.342181 27.852434 
L 44.415976 26.871924 
L 44.456974 27.694442 
L 44.473958 25.870254 
L 44.526669 27.157408 
L 44.589337 25.999766 
L 44.571766 27.81575 
L 44.637362 27.209285 
L 44.673674 27.766747 
L 44.718771 26.026663 
L 44.748641 27.442773 
L 44.807209 25.971595 
L 44.780853 27.783795 
L 44.85992 27.098243 
L 44.919659 26.031394 
L 44.933129 27.724561 
L 44.970613 26.539119 
L 45.014538 27.714632 
L 45.030352 26.312214 
L 45.081891 27.039812 
L 45.089505 26.09 
L 45.12406 27.828326 
L 45.192584 26.982952 
L 45.211326 27.649341 
L 45.255837 26.279489 
L 45.299177 27.132438 
L 45.355988 26.171599 
L 45.316162 27.857844 
L 45.40987 27.109487 
L 45.467267 27.935267 
L 45.412213 26.051167 
L 45.520563 27.257119 
L 45.565661 26.188923 
L 45.6213 27.679404 
L 45.631842 27.00257 
L 45.726722 26.215245 
L 45.675182 28.100759 
L 45.741364 26.697256 
L 45.787047 27.776486 
L 45.773576 25.79922 
L 45.852642 27.154072 
L 45.887197 27.696474 
L 45.860256 26.039609 
L 45.96275 27.321148 
L 46.067586 26.16932 
L 45.991448 27.722165 
L 46.073443 26.804411 
L 46.103312 27.93459 
L 46.18355 26.140968 
L 46.184721 27.276828 
L 46.279016 25.94854 
L 46.216934 27.787886 
L 46.295414 26.585526 
L 46.385609 27.864721 
L 46.372724 26.21036 
L 46.406107 27.300314 
L 46.411379 26.211401 
L 46.504501 27.798528 
L 46.517386 26.711537 
L 46.519143 27.653348 
L 46.622222 26.084141 
L 46.628665 27.085253 
L 46.708903 26.184962 
L 46.705974 27.828592 
L 46.739944 26.818925 
L 46.765128 27.800962 
L 46.809639 26.135451 
L 46.850637 26.822313 
L 46.91389 26.233526 
L 46.882263 27.658739 
L 46.96133 26.692025 
L 47.046253 27.744845 
L 47.011112 26.286917 
L 47.072608 26.915472 
L 47.074951 26.246515 
L 47.13879 27.903244 
L 47.183887 26.487442 
L 47.269396 27.685603 
L 47.202043 25.785443 
L 47.295166 27.012714 
L 47.326206 26.141874 
L 47.33382 27.758985 
L 47.40293 27.292135 
L 47.436314 27.668138 
L 47.422258 26.285192 
L 47.512452 27.057045 
L 47.574534 26.140009 
L 47.52358 27.730769 
L 47.62373 26.232829 
L 47.688741 27.917784 
L 47.645986 26.021306 
L 47.735009 26.70251 
L 47.76605 27.991462 
L 47.750822 26.223115 
L 47.846288 27.666113 
L 47.904856 26.257378 
L 47.939996 27.705877 
L 47.958152 26.581825 
L 47.96928 27.72249 
L 48.050689 26.36159 
L 48.069431 27.303162 
L 48.132684 26.200312 
L 48.101057 27.706372 
L 48.18071 26.888484 
L 48.258605 28.001497 
L 48.205894 26.186928 
L 48.290817 27.126905 
L 48.346456 26.0551 
L 48.38394 27.600229 
L 48.402681 26.469745 
L 48.506346 26.246095 
L 48.410881 27.668476 
L 48.510446 26.853619 
L 48.605326 27.730007 
L 48.598297 26.100355 
L 48.621139 26.722141 
L 48.719533 27.830304 
L 48.728318 25.946325 
L 48.733003 27.242372 
L 48.793328 26.175558 
L 48.834325 27.730247 
L 48.844282 26.903836 
L 48.950875 26.316016 
L 48.927448 27.643817 
L 48.954389 27.176619 
L 49.041655 26.202364 
L 49.005929 27.847275 
L 49.060982 26.654223 
L 49.141806 27.789256 
L 49.094952 26.221047 
L 49.172261 27.232695 
L 49.282954 26.10351 
L 49.205645 27.658138 
L 49.284125 26.565323 
L 49.332737 27.627832 
L 49.333322 26.145552 
L 49.394818 27.038021 
L 49.453386 26.262801 
L 49.465685 27.881411 
L 49.505511 27.062879 
L 49.550609 27.63901 
L 49.524839 26.191273 
L 49.612105 26.99328 
L 49.650759 26.186804 
L 49.63846 27.700826 
L 49.722798 26.844335 
L 49.728069 27.719435 
L 49.818849 25.800222 
L 49.832905 26.789043 
L 49.923685 26.122865 
L 49.883273 27.801118 
L 49.943012 26.761782 
L 49.976396 27.733174 
L 49.96234 26.106344 
L 50.054291 27.080195 
L 50.066005 27.708743 
L 50.104659 26.178055 
L 50.156785 27.038449 
L 50.237022 26.093333 
L 50.225894 27.865943 
L 50.267478 27.132548 
L 50.319017 26.029927 
L 50.34303 27.886385 
L 50.378756 26.577888 
L 50.410969 27.713032 
L 50.487107 26.203659 
L 50.490035 27.503962 
L 50.554459 26.182422 
L 50.491792 28.05021 
L 50.601314 27.171871 
L 50.608342 26.212014 
L 50.614199 27.700858 
L 50.712007 26.931526 
L 50.772331 27.763627 
L 50.713764 26.131356 
L 50.8227 27.320478 
L 50.847298 26.005353 
L 50.88361 27.733271 
L 50.933978 26.705002 
L 51.02593 25.874479 
L 51.023587 27.956154 
L 51.044086 26.658046 
L 51.102068 27.856376 
L 51.118467 26.078715 
L 51.15595 27.667617 
L 51.22096 26.04089 
L 51.174692 27.670511 
L 51.267229 26.518374 
L 51.346295 27.941895 
L 51.342195 26.034313 
L 51.378507 26.706048 
L 51.440589 27.741932 
L 51.455231 25.994241 
L 51.489786 27.357105 
L 51.513213 26.264465 
L 51.549525 27.817072 
L 51.600479 26.732112 
L 51.680717 27.751369 
L 51.639134 26.403621 
L 51.711758 27.064664 
L 51.76154 27.701985 
L 51.736356 26.347775 
L 51.822451 27.080954 
L 51.828893 26.175809 
L 51.854663 27.673795 
L 51.933144 27.204052 
L 51.937829 26.192387 
L 52.029195 27.766845 
L 52.045008 26.860521 
L 52.048522 27.757605 
L 52.136959 26.167215 
L 52.156287 27.041704 
L 52.169172 25.952699 
L 52.163315 27.625018 
L 52.267565 26.339277 
L 52.361274 27.916253 
L 52.350732 26.161192 
L 52.378258 26.992103 
L 52.463182 26.121802 
L 52.382358 27.719857 
L 52.488951 26.411354 
L 52.568603 28.015783 
L 52.570361 26.191247 
L 52.60023 26.834245 
L 52.66934 27.680394 
L 52.601987 26.201033 
L 52.709752 26.669711 
L 52.779447 26.040931 
L 52.801117 27.677021 
L 52.819859 27.041769 
L 52.907125 27.892743 
L 52.850314 26.277005 
L 52.932895 27.539459 
L 52.949879 27.780439 
L 53.044759 26.114123 
L 53.118554 27.869395 
L 53.100984 26.018898 
L 53.156038 27.188668 
L 53.208749 26.156605 
L 53.242132 27.766595 
L 53.266731 27.060839 
L 53.268488 27.318917 
L 53.267902 26.738465 
L 53.269659 27.245125 
L 53.270245 27.718512 
L 53.297772 26.059153 
L 53.380352 27.282271 
L 53.41725 26.030311 
L 53.39558 27.729964 
L 53.492217 26.82879 
L 53.527357 26.035631 
L 53.586511 27.776734 
L 53.601152 26.435901 
L 53.70716 27.641282 
L 53.687247 26.120562 
L 53.711845 27.094855 
L 53.738201 26.160321 
L 53.817267 27.587971 
L 53.823124 26.695762 
L 53.826053 28.214874 
L 53.901605 25.932547 
L 53.934989 26.989567 
L 53.974229 26.188956 
L 53.999413 27.878572 
L 54.045682 27.234227 
L 54.079065 26.290877 
L 54.086093 27.605551 
L 54.115963 26.655519 
" clip-path="url(#pd911c7a53e)" style="fill: none; stroke: #8c564b; stroke-width: 0.05; stroke-linecap: square"/>
   </g>
  </g>
 </g>
 <defs>
  <clipPath id="pd911c7a53e">
   <rect x="0" y="0" width="56.692913" height="28.346457"/>
  </clipPath>
 </defs>
</svg>
