<?xml version="1.0" encoding="utf-8" standalone="no"?>
<!DOCTYPE svg PUBLIC "-//W3C//DTD SVG 1.1//EN"
  "http://www.w3.org/Graphics/SVG/1.1/DTD/svg11.dtd">
<svg xmlns:xlink="http://www.w3.org/1999/xlink" width="56.692913pt" height="28.346457pt" viewBox="0 0 56.692913 28.346457" xmlns="http://www.w3.org/2000/svg" version="1.1">
 <metadata>
  <rdf:RDF xmlns:dc="http://purl.org/dc/elements/1.1/" xmlns:cc="http://creativecommons.org/ns#" xmlns:rdf="http://www.w3.org/1999/02/22-rdf-syntax-ns#">
   <cc:Work>
    <dc:type rdf:resource="http://purl.org/dc/dcmitype/StillImage"/>
    <dc:date>2024-11-01T11:33:21.153632</dc:date>
    <dc:format>image/svg+xml</dc:format>
    <dc:creator>
     <cc:Agent>
      <dc:title>Matplotlib v3.8.4, https://matplotlib.org/</dc:title>
     </cc:Agent>
    </dc:creator>
   </cc:Work>
  </rdf:RDF>
 </metadata>
 <defs>
  <style type="text/css">*{stroke-linejoin: round; stroke-linecap: butt}</style>
 </defs>
 <g id="figure_1">
  <g id="patch_1">
   <path d="M 0 28.346457 
L 56.692913 28.346457 
L 56.692913 0 
L 0 0 
L 0 28.346457 
z
" style="fill: none"/>
  </g>
  <g id="axes_1">
   <g id="patch_2">
    <path d="M 0 28.346457 
L 56.692913 28.346457 
L 56.692913 0 
L 0 0 
L 0 28.346457 
z
" style="fill: none"/>
   </g>
   <g id="matplotlib.axis_1">
    <g id="xtick_1"/>
    <g id="xtick_2"/>
   </g>
   <g id="matplotlib.axis_2">
    <g id="ytick_1"/>
    <g id="ytick_2"/>
   </g>
   <g id="line2d_1">
    <path d="M 2.576951 27.496448 
L 2.600963 26.248963 
L 2.631419 28.027143 
L 2.688229 27.060065 
L 2.747383 27.843674 
L 2.712828 26.332784 
L 2.798922 27.001295 
L 2.811222 26.360793 
L 2.873303 28.017746 
L 2.910201 26.81694 
L 2.933628 27.864439 
L 2.938899 26.392296 
L 3.02148 27.298368 
L 3.119288 26.21697 
L 3.107574 27.739922 
L 3.132173 27.175175 
L 3.178441 27.748482 
L 3.20304 26.327076 
L 3.235838 27.279159 
L 3.248137 26.270252 
L 3.299676 28.01137 
L 3.347116 27.050274 
L 3.371715 27.835286 
L 3.353559 26.132165 
L 3.456052 27.007947 
L 3.503492 26.422198 
L 3.471865 27.831133 
L 3.565574 27.120559 
L 3.611842 27.935992 
L 3.612428 26.220405 
L 3.676852 27.596413 
L 3.737763 26.140834 
L 3.741863 27.841279 
L 3.788131 27.1234 
L 3.85197 26.17008 
L 3.795159 27.820197 
L 3.897653 27.363957 
L 3.919323 28.156155 
L 4.007174 26.112913 
L 4.008346 27.133146 
L 4.066328 28.046951 
L 4.089755 26.298586 
L 4.119039 27.532531 
L 4.213919 26.08465 
L 4.190491 27.755985 
L 4.230317 26.517397 
L 4.312898 27.645209 
L 4.295913 26.104516 
L 4.348624 27.188102 
L 4.389036 26.112285 
L 4.369709 27.735054 
L 4.459317 27.243394 
L 4.500315 27.823691 
L 4.464588 26.230065 
L 4.568253 26.854979 
L 4.588752 27.900625 
L 4.640292 26.313985 
L 4.652591 26.957285 
L 4.653176 26.203988 
L 4.677775 28.115574 
L 4.763869 26.681815 
L 4.803696 27.775604 
L 4.835322 26.261616 
L 4.875148 26.812345 
L 4.979984 28.002756 
L 4.970028 26.267512 
L 4.986427 27.267918 
L 5.022153 26.212455 
L 5.022739 27.84142 
L 5.09712 26.943619 
L 5.148074 27.730947 
L 5.115861 26.4316 
L 5.207813 26.927236 
L 5.280437 26.011266 
L 5.225383 28.008447 
L 5.318506 26.940504 
L 5.394644 27.75664 
L 5.397572 26.28042 
L 5.429784 27.701231 
L 5.493623 26.363024 
L 5.533449 27.924452 
L 5.540477 26.830168 
L 5.642971 27.950185 
L 5.571518 26.415632 
L 5.651756 27.361152 
L 5.683968 26.414847 
L 5.672255 27.8063 
L 5.762449 26.867572 
L 5.784119 27.893433 
L 5.829216 26.268212 
L 5.873728 27.683003 
L 5.885441 26.285777 
L 5.970365 27.808043 
L 5.984421 27.241355 
L 6.004334 27.814004 
L 6.001991 26.415377 
L 6.095114 27.055812 
L 6.170666 25.917664 
L 6.15661 28.03629 
L 6.204635 27.113209 
L 6.214006 27.871428 
L 6.283116 26.169843 
L 6.315328 27.107181 
L 6.349883 25.730867 
L 6.334656 28.028309 
L 6.421336 26.954165 
L 6.462333 28.014652 
L 6.468776 26.348879 
L 6.532615 27.139606 
L 6.574784 26.266647 
L 6.633937 27.994544 
L 6.643893 26.542991 
L 6.742287 27.808129 
L 6.67962 26.189958 
L 6.755758 27.351364 
L 6.79617 26.283309 
L 6.814911 27.787119 
L 6.867036 27.187963 
L 6.93966 26.321551 
L 6.950203 27.873882 
L 6.977729 26.784669 
L 7.019898 27.976037 
L 6.983586 26.373405 
L 7.088422 26.7633 
L 7.193844 27.813844 
L 7.196773 26.134789 
L 7.200287 27.240995 
L 7.303366 26.135159 
L 7.2243 27.95439 
L 7.310394 27.06085 
L 7.370133 27.786239 
L 7.373062 26.158252 
L 7.421673 27.465749 
L 7.506596 26.16153 
L 7.502496 27.802476 
L 7.532951 26.578612 
L 7.639545 27.898605 
L 7.593862 26.31507 
L 7.643644 26.847781 
L 7.718025 26.220753 
L 7.736767 27.955962 
L 7.753166 27.098244 
L 7.84746 27.853913 
L 7.773665 26.373406 
L 7.861516 27.025804 
L 7.899585 26.128185 
L 7.964596 28.200988 
L 7.972795 26.282023 
L 8.051276 27.919479 
L 8.065332 26.271187 
L 8.084074 26.89893 
L 8.156698 26.250536 
L 8.150841 28.048638 
L 8.179539 26.949305 
L 8.194767 27.854564 
L 8.272076 26.121147 
L 8.290232 27.126533 
L 8.316588 26.2137 
L 8.298432 27.983775 
L 8.399168 26.938589 
L 8.460664 28.006098 
L 8.454222 26.335882 
L 8.511032 27.445321 
L 8.511618 27.446859 
L 8.55613 26.179436 
L 8.550273 28.101908 
L 8.622897 26.928885 
L 8.658037 27.854257 
L 8.637539 26.247608 
L 8.730076 27.160029 
L 8.810314 26.162425 
L 8.82847 27.97818 
L 8.840769 27.261796 
L 8.84604 26.24282 
L 8.948533 27.972668 
L 8.952047 26.746072 
L 9.003001 27.869401 
L 9.044584 26.254958 
L 9.063326 26.934671 
L 9.09671 27.881789 
L 9.160549 26.268627 
L 9.17519 27.290161 
L 9.220873 26.070498 
L 9.197446 27.957945 
L 9.285883 26.516125 
L 9.328052 27.733881 
L 9.29174 26.252372 
L 9.397162 26.871248 
L 9.499656 27.789497 
L 9.449873 26.219485 
L 9.507855 27.506317 
L 9.54651 26.371904 
L 9.575208 27.786514 
L 9.619134 26.605636 
L 9.677702 27.893214 
L 9.709328 26.417705 
L 9.730413 27.02646 
L 9.739198 26.335235 
L 9.815921 27.869716 
L 9.841691 26.528241 
L 9.849891 27.787581 
L 9.861604 26.222828 
L 9.95297 27.070578 
L 10.054878 27.82317 
L 10.026765 26.028357 
L 10.063663 26.909477 
L 10.140972 28.010981 
L 10.150929 26.168545 
L 10.17377 26.982546 
L 10.229995 26.384787 
L 10.196612 27.808919 
L 10.284463 27.122849 
L 10.352987 27.858133 
L 10.303205 26.335897 
L 10.395742 27.391168 
L 10.416826 26.154274 
L 10.494136 27.850849 
L 10.506435 27.244505 
L 10.509363 26.233277 
L 10.572031 27.808413 
L 10.612442 26.917357 
L 10.62357 27.798622 
L 10.62767 26.216137 
L 10.723721 27.42104 
L 10.767061 27.865441 
L 10.815672 26.127539 
L 10.829143 27.790553 
L 10.832657 26.302271 
L 10.940422 26.900831 
L 10.972634 27.8318 
L 10.95155 26.068038 
L 11.051115 27.467532 
L 11.087427 26.231707 
L 11.059314 28.087667 
L 11.161808 26.901671 
L 11.271915 27.834565 
L 11.268987 26.26022 
L 11.272501 27.023841 
L 11.366209 26.373686 
L 11.329897 27.808345 
L 11.382022 27.185064 
L 11.382608 28.034482 
L 11.473974 26.381728 
L 11.492715 27.330983 
L 11.554211 26.059457 
L 11.512628 27.75155 
L 11.60458 26.657437 
L 11.606922 27.923434 
L 11.620393 26.364808 
L 11.716444 27.726279 
L 11.799025 26.281591 
L 11.765641 27.889807 
L 11.827723 27.394552 
L 11.936073 26.348884 
L 11.924945 27.730404 
L 11.939001 26.624639 
L 11.958914 27.85422 
L 12.00694 26.434239 
L 12.05028 27.542513 
L 12.147503 25.944559 
L 12.064922 28.114621 
L 12.162144 26.818427 
L 12.190257 27.920217 
L 12.217198 26.197731 
L 12.274594 27.661776 
L 12.371817 25.929178 
L 12.32262 27.883084 
L 12.386459 26.402512 
L 12.405786 28.117769 
L 12.445027 26.149135 
L 12.498323 26.77248 
L 12.552791 27.886633 
L 12.526436 26.38439 
L 12.609602 26.948873 
L 12.641814 26.180905 
L 12.634786 28.040281 
L 12.720295 27.158715 
L 12.767735 27.976237 
L 12.82396 26.42826 
L 12.830402 27.252778 
L 12.847973 26.097861 
L 12.899512 28.041197 
L 12.941681 26.818407 
L 13.008448 27.983677 
L 13.000834 26.313572 
L 13.05296 27.050667 
L 13.116798 26.273128 
L 13.127926 27.933215 
L 13.164238 26.745773 
L 13.212264 27.836824 
L 13.216364 26.439998 
L 13.274931 27.209139 
L 13.332328 26.270829 
L 13.366297 28.048346 
L 13.386796 26.764082 
L 13.49046 27.893301 
L 13.423108 26.153538 
L 13.498074 27.412867 
L 13.557228 26.281195 
L 13.579483 27.838956 
L 13.608767 27.362294 
L 13.660893 27.989845 
L 13.625166 26.134903 
L 13.708918 26.991596 
L 13.74933 26.232861 
L 13.756944 27.832501 
L 13.816683 26.876843 
L 13.846552 28.009864 
L 13.895749 26.242748 
L 13.927376 26.51358 
L 13.979501 27.774122 
L 13.951974 26.139479 
L 14.038654 26.832927 
L 14.091951 28.002036 
L 14.098393 26.26753 
L 14.149933 27.000454 
L 14.194445 27.701656 
L 14.158133 26.273576 
L 14.253012 26.742816 
L 14.345549 25.912746 
L 14.355506 27.867837 
L 14.362534 26.904124 
L 14.369562 28.056446 
L 14.456242 26.382016 
L 14.473813 27.563373 
L 14.526524 26.414933 
L 14.525938 28.086256 
L 14.585677 27.27875 
L 14.646002 26.377506 
L 14.638974 27.837276 
L 14.693442 26.745316 
L 14.758452 27.744853 
L 14.804135 26.101775 
L 14.841032 28.114421 
L 14.915999 27.741113 
L 15.006779 26.184415 
L 14.945283 27.858679 
L 15.027278 27.534186 
L 15.079403 26.070242 
L 15.056561 27.741521 
L 15.138556 26.718527 
L 15.164912 27.689631 
L 15.228165 26.145004 
L 15.249249 27.080264 
L 15.285561 26.139266 
L 15.275019 28.01713 
L 15.360528 26.633575 
L 15.369899 27.831121 
L 15.468878 26.293982 
L 15.472978 27.589246 
L 15.487034 26.309276 
L 15.540916 27.919196 
L 15.585428 26.456779 
L 15.588356 27.729694 
L 15.614712 26.220914 
L 15.697878 26.963802 
L 15.711934 26.264067 
L 15.804471 27.726868 
L 15.808571 26.872663 
L 15.813842 27.873682 
L 15.897008 26.109949 
L 15.918093 26.983474 
L 15.929806 26.097175 
L 15.955576 27.825388 
L 16.029371 26.661374 
L 16.121908 27.892216 
L 16.125422 26.370284 
L 16.14065 27.452125 
L 16.20566 26.370101 
L 16.22323 27.830416 
L 16.252514 27.002609 
L 16.285898 28.046369 
L 16.285312 26.297741 
L 16.362622 27.026936 
L 16.373164 26.230659 
L 16.40479 28.01988 
L 16.4739 26.92833 
L 16.489128 28.097884 
L 16.555309 26.300974 
L 16.584008 27.066997 
L 16.630276 26.300924 
L 16.644918 27.890522 
L 16.694701 26.905038 
L 16.757954 27.70529 
L 16.704657 26.335923 
L 16.803637 26.894213 
L 16.887974 26.216358 
L 16.890317 28.290943 
L 16.91433 27.109004 
L 16.982854 28.346457 
L 16.96177 26.286893 
L 17.022094 27.240189 
L 17.027951 25.87155 
L 17.090618 27.961401 
L 17.132787 27.071985 
L 17.159143 27.798962 
L 17.186084 26.094358 
L 17.229424 27.045863 
L 17.281549 26.2335 
L 17.244652 27.93662 
L 17.340117 27.124416 
L 17.423869 27.948567 
L 17.341874 26.341726 
L 17.447882 26.985756 
L 17.459595 26.245194 
L 17.489465 27.967975 
L 17.55916 26.836402 
L 17.655797 27.873186 
L 17.660482 26.334887 
L 17.669853 26.738714 
L 17.730178 27.890675 
L 17.680981 26.290772 
L 17.779961 27.313529 
L 17.853756 26.181634 
L 17.826815 28.006598 
L 17.891239 26.790932 
L 17.891825 26.792252 
L 17.963863 27.999615 
L 17.952735 26.214909 
L 18.002518 27.205542 
L 18.02126 26.16307 
L 18.043515 27.813481 
L 18.113211 26.590107 
L 18.219219 27.893738 
L 18.202234 26.389199 
L 18.22449 27.046479 
L 18.325812 26.355084 
L 18.296528 27.753148 
L 18.335183 26.817171 
L 18.445876 27.793108 
L 18.420106 26.162393 
L 18.446461 27.033253 
L 18.478088 27.819011 
L 18.554226 26.185292 
L 18.557154 26.82209 
L 18.636221 27.829261 
L 18.630364 26.160143 
L 18.669019 27.318492 
L 18.683661 26.26522 
L 18.71353 27.949668 
L 18.780297 26.839307 
L 18.821295 27.762058 
L 18.87342 26.311836 
L 18.891576 27.131919 
L 18.940773 26.264088 
L 18.902118 28.065113 
L 19.000512 26.718466 
L 19.00754 27.974935 
L 19.063765 25.963026 
L 19.111791 26.946715 
L 19.204913 27.776979 
L 19.119404 26.311935 
L 19.223655 27.510046 
L 19.272266 26.08331 
L 19.245911 27.814063 
L 19.334934 26.552232 
L 19.36656 27.958737 
L 19.404629 26.342549 
L 19.446212 27.193676 
L 19.506537 26.290793 
L 19.488381 28.263838 
L 19.556905 26.56411 
L 19.623087 28.038022 
L 19.662327 26.255497 
L 19.668184 26.79021 
L 19.770678 27.873208 
L 19.707424 26.276472 
L 19.780634 27.236669 
L 19.814018 26.159226 
L 19.880199 27.948607 
L 19.88957 27.272153 
L 19.977422 27.870813 
L 19.968636 26.258292 
L 19.998506 27.105608 
L 20.014905 26.027444 
L 20.016662 27.908459 
L 20.109785 26.667585 
L 20.154882 27.762806 
L 20.187094 26.433296 
L 20.221063 27.315989 
L 20.227506 27.694371 
L 20.233363 26.618921 
L 20.246248 27.023567 
L 20.305987 26.262934 
L 20.297201 27.845978 
L 20.356941 26.734607 
L 20.427222 28.249361 
L 20.396767 26.331316 
L 20.468219 27.601094 
L 20.478761 26.122098 
L 20.493403 27.766488 
L 20.580084 26.947629 
L 20.605853 27.964357 
L 20.582426 26.253107 
L 20.691362 27.34606 
L 20.69839 26.252533 
L 20.731774 28.083508 
L 20.802055 26.825936 
L 20.870579 28.155918 
L 20.808498 26.331431 
L 20.913334 27.01114 
L 20.961359 26.192107 
L 20.937347 27.95059 
L 21.024613 26.870419 
L 21.065024 27.970251 
L 21.129449 26.161027 
L 21.135306 27.220741 
L 21.2296 26.285969 
L 21.162247 27.724356 
L 21.245999 26.955945 
L 21.291681 27.782965 
L 21.252441 26.259869 
L 21.357277 27.355199 
L 21.407645 27.985344 
L 21.402374 26.310826 
L 21.467385 27.446686 
L 21.553479 26.301291 
L 21.518338 27.858029 
L 21.578663 26.844614 
L 21.617318 27.823303 
L 21.671786 26.136474 
L 21.689942 27.181421 
L 21.695213 26.756124 
L 21.699898 27.8476 
L 21.700484 25.987702 
L 21.708098 28.004417 
L 21.811177 27.103254 
L 21.894929 28.098338 
L 21.819377 26.391356 
L 21.920699 27.072645 
L 22.026706 26.217666 
L 21.95174 27.756778 
L 22.031392 26.743434 
L 22.104601 27.770332 
L 22.053647 26.33563 
L 22.142085 26.786515 
L 22.14267 26.309366 
L 22.193039 27.936794 
L 22.252192 26.848149 
L 22.278548 28.065629 
L 22.316617 26.148906 
L 22.362885 27.545459 
L 22.386312 26.292481 
L 22.433752 27.936261 
L 22.474164 26.962191 
L 22.569629 27.865708 
L 22.538003 26.131642 
L 22.585442 27.198876 
L 22.660995 28.102778 
L 22.614141 26.193235 
L 22.694964 27.212228 
L 22.709606 26.300197 
L 22.780473 27.746244 
L 22.806828 26.597153 
L 22.91635 27.688239 
L 22.904637 26.273974 
L 22.917521 27.095503 
L 22.932749 26.15891 
L 22.997174 27.892731 
L 23.027629 27.522801 
L 23.028214 28.077517 
L 23.035243 26.225315 
L 23.137736 26.935833 
L 23.182833 26.017148 
L 23.193961 27.858788 
L 23.232616 27.189837 
L 23.313439 28.021178 
L 23.300554 26.465846 
L 23.343309 27.112148 
L 23.373178 26.372214 
L 23.358536 27.859792 
L 23.453416 27.107242 
L 23.489142 27.837306 
L 23.46513 26.171869 
L 23.564109 26.966523 
L 23.583436 25.974256 
L 23.611549 27.77149 
L 23.674802 27.085887 
L 23.712285 27.896838 
L 23.712871 26.253114 
L 23.785495 27.286858 
L 23.856362 26.207164 
L 23.804822 28.126003 
L 23.896774 27.03589 
L 23.964712 27.837728 
L 23.909659 26.213597 
L 24.007467 26.990639 
L 24.039679 28.216343 
L 24.046707 26.173797 
L 24.11406 27.103689 
L 24.116403 25.855911 
L 24.140416 28.118811 
L 24.224753 26.871662 
L 24.290349 27.868859 
L 24.26575 26.147584 
L 24.335446 27.017347 
L 24.375858 26.38334 
L 24.347745 27.889759 
L 24.446139 26.895138 
L 24.512906 28.029932 
L 24.470738 26.224104 
L 24.556832 27.0806 
L 24.586702 26.164709 
L 24.621842 27.840334 
L 24.668111 26.86559 
L 24.74132 28.065981 
L 24.762405 26.096226 
L 24.778218 27.627426 
L 24.778804 26.029176 
L 24.847328 28.034898 
L 24.888911 26.582509 
L 24.912924 27.932966 
L 24.943379 26.40356 
L 25.00019 27.141173 
L 25.091555 27.875068 
L 25.073985 26.15878 
L 25.110297 27.219416 
L 25.204005 26.140557 
L 25.16945 27.903862 
L 25.22099 27.268097 
L 25.235632 26.255223 
L 25.287757 27.839961 
L 25.332269 26.537241 
L 25.431834 27.917219 
L 25.406064 26.325418 
L 25.443547 27.217653 
L 25.520857 26.36889 
L 25.498601 27.854517 
L 25.55424 27.058843 
L 25.570054 28.022005 
L 25.63565 26.447909 
L 25.664933 27.207241 
L 25.7358 26.095136 
L 25.747514 27.700649 
L 25.775626 27.153307 
L 25.787926 27.874764 
L 25.882805 26.323791 
L 25.886319 27.358198 
L 25.947816 26.22341 
L 25.909161 27.943482 
L 25.997598 26.603039 
L 26.070808 27.920549 
L 26.025125 26.283292 
L 26.10712 27.450716 
L 26.118833 26.10125 
L 26.158659 27.711945 
L 26.217813 26.839084 
L 26.317378 27.985494 
L 26.295122 26.168694 
L 26.329091 26.969477 
L 26.420457 26.168902 
L 26.418114 27.978333 
L 26.438613 26.934946 
L 26.495424 27.880254 
L 26.456183 26.334177 
L 26.549892 27.125724 
L 26.642429 27.993918 
L 26.628958 26.261036 
L 26.647114 27.37661 
L 26.684012 26.29779 
L 26.709196 27.746033 
L 26.757807 27.385641 
L 26.856201 26.206889 
L 26.835117 27.768919 
L 26.8685 27.024246 
L 26.92004 28.010898 
L 26.874943 26.203156 
L 26.979193 26.856161 
L 27.009063 27.962591 
L 27.016091 26.215163 
L 27.091058 27.102503 
L 27.151382 26.396841 
L 27.117999 27.87267 
L 27.200579 26.793874 
L 27.295459 27.830635 
L 27.225763 26.294134 
L 27.311272 26.633073 
L 27.350513 27.893213 
L 27.357541 26.290133 
L 27.423137 27.414944 
L 27.485804 25.891114 
L 27.491661 28.019431 
L 27.53383 26.700421 
L 27.573656 27.765931 
L 27.624024 26.394547 
L 27.645108 27.207002 
L 27.732374 26.382173 
L 27.738231 27.954999 
L 27.755801 27.12311 
L 27.852438 27.938531 
L 27.783914 26.255857 
L 27.866494 26.970919 
L 27.93619 28.196393 
L 27.965474 26.165094 
L 27.976602 27.0097 
L 28.050397 26.182914 
L 27.996515 27.846747 
L 28.085537 26.707339 
L 28.169875 27.87025 
L 28.138248 26.27973 
L 28.196816 27.098743 
L 28.261241 27.874505 
L 28.270026 26.303311 
L 28.307509 27.103461 
L 28.380133 26.267803 
L 28.347335 27.849083 
L 28.416445 26.605221 
L 28.431087 27.855803 
L 28.446315 26.331446 
L 28.527138 27.091771 
L 28.559936 26.349725 
L 28.62846 27.944386 
L 28.637831 26.932986 
L 28.715726 27.813249 
L 28.685271 26.260747 
L 28.74911 27.210848 
L 28.81412 26.183436 
L 28.858046 28.027072 
L 28.859803 26.817314 
L 28.920713 27.946645 
L 28.941798 26.286061 
L 28.970496 26.949661 
L 28.975767 26.27498 
L 28.982209 27.682555 
L 29.080017 26.830048 
L 29.145028 27.847022 
L 29.163184 25.919673 
L 29.191882 27.265429 
L 29.200081 26.188886 
L 29.243421 27.839779 
L 29.30316 26.973184 
L 29.378127 26.191024 
L 29.363485 28.050498 
L 29.412682 27.194789 
L 29.51869 28.080071 
L 29.468321 26.338676 
L 29.523375 27.229675 
L 29.543288 26.271124 
L 29.53216 27.818754 
L 29.634654 26.993647 
L 29.699664 27.994449 
L 29.686193 26.285427 
L 29.746518 27.193679 
L 29.814457 26.377635 
L 29.816214 27.822483 
L 29.858383 26.828843 
L 29.886495 28.0163 
L 29.876539 26.130999 
L 29.966147 26.567373 
L 29.994845 26.314454 
L 30.028229 27.820322 
L 30.07274 27.322844 
L 30.091482 27.773116 
L 30.093239 26.294666 
L 30.181676 26.949029 
L 30.285341 26.098446 
L 30.273628 27.79265 
L 30.292955 26.792467 
L 30.371436 27.945768 
L 30.386663 26.344822 
L 30.403062 27.151625 
L 30.495014 25.980011 
L 30.512584 27.893687 
L 30.514341 26.974281 
L 30.589308 27.831844 
L 30.603364 26.271183 
L 30.625034 27.046267 
L 30.707615 26.31299 
L 30.65139 28.207769 
L 30.734556 27.014565 
L 30.735141 27.919524 
L 30.762083 26.25279 
L 30.845834 27.316255 
L 30.895031 28.068499 
L 30.916701 26.178409 
L 30.955356 27.318478 
L 30.963555 26.158822 
L 30.96707 27.849908 
L 31.066049 26.939323 
L 31.166785 27.838673 
L 31.083034 26.145155 
L 31.177328 27.432353 
L 31.184941 26.167307 
L 31.269279 28.011637 
L 31.288606 26.514 
L 31.334289 28.06562 
L 31.398714 26.077313 
L 31.399299 26.985009 
L 31.46021 26.380239 
L 31.508235 27.838457 
L 31.510578 26.826616 
L 31.617757 27.817123 
L 31.577345 26.243446 
L 31.621271 26.750034 
L 31.625956 27.787687 
L 31.658754 26.334826 
L 31.733135 27.420607 
L 31.770033 26.13841 
L 31.755977 27.974022 
L 31.844414 27.235737 
L 31.95335 26.273524 
L 31.871355 28.035542 
L 31.953936 27.333089 
L 32.057601 27.840149 
L 31.980291 25.835822 
L 32.064629 27.61426 
L 32.175322 26.178588 
L 32.122611 27.988903 
L 32.176493 26.880664 
L 32.222176 27.95327 
L 32.219833 26.332458 
L 32.287772 27.180224 
L 32.289529 26.301336 
L 32.366838 27.950953 
L 32.39905 26.937901 
L 32.459961 28.197641 
L 32.414864 26.327581 
L 32.509743 27.168554 
L 32.528485 25.752692 
L 32.513843 27.870363 
L 32.621608 26.719718 
L 32.714145 27.937043 
L 32.647378 26.087413 
L 32.732301 26.906447 
L 32.760999 26.196263 
L 32.840065 27.851123 
L 32.841822 26.886978 
L 32.915618 27.956486 
L 32.934945 26.305613 
L 32.952515 26.732125 
L 32.987656 26.256304 
L 32.9695 27.804359 
L 33.062037 26.850742 
L 33.065551 27.968542 
L 33.105963 26.205139 
L 33.173316 27.013507 
L 33.219584 25.804168 
L 33.203185 27.972185 
L 33.284009 27.35863 
L 33.29338 26.313468 
L 33.295137 27.90439 
L 33.394702 26.822961 
L 33.462055 27.887722 
L 33.433356 26.413328 
L 33.505395 26.569926 
L 33.574505 27.994803 
L 33.566305 26.129408 
L 33.615502 27.128616 
L 33.688712 26.296817 
L 33.664113 27.948937 
L 33.726195 26.765362 
L 33.79999 28.03131 
L 33.826346 26.240079 
L 33.838059 27.708086 
L 33.914783 26.307523 
L 33.923568 27.965122 
L 33.956366 26.972903 
L 34.044803 27.915285 
L 33.958123 26.24111 
L 34.067059 26.824585 
L 34.114499 28.040395 
L 34.138512 25.93892 
L 34.177752 26.910872 
L 34.21465 26.241025 
L 34.261504 27.755398 
L 34.28376 26.498399 
L 34.284345 28.175052 
L 34.344085 26.020823 
L 34.394453 27.410123 
L 34.484647 26.348213 
L 34.489918 27.780183 
L 34.505731 26.943645 
L 34.602954 28.034687 
L 34.576013 26.195311 
L 34.61701 27.232849 
L 34.642194 26.253393 
L 34.644537 27.796037 
L 34.728289 26.652988 
L 34.804427 27.848255 
L 34.784514 26.448212 
L 34.84191 27.70257 
L 34.944989 26.315796 
L 34.845424 27.889339 
L 34.952603 27.407049 
L 35.054511 27.813093 
L 34.984815 26.339205 
L 35.062711 27.227527 
L 35.078524 26.17388 
L 35.123621 28.068435 
L 35.172818 26.725572 
L 35.200345 27.747839 
L 35.194488 26.179064 
L 35.283511 27.228146 
L 35.318066 26.212437 
L 35.356135 28.007698 
L 35.39479 26.740641 
L 35.490255 26.293293 
L 35.419388 27.957049 
L 35.504897 26.878457 
L 35.518367 27.903277 
L 35.526567 26.412802 
L 35.61559 27.320592 
L 35.662444 26.326048 
L 35.722183 27.819378 
L 35.725697 27.067105 
L 35.752053 28.000453 
L 35.831705 26.174906 
L 35.836976 27.335577 
L 35.882659 26.289793 
L 35.894372 27.794552 
L 35.948255 26.804879 
L 35.974024 28.176011 
L 35.975781 26.223543 
L 36.059533 27.282772 
L 36.167884 26.093039 
L 36.085303 27.791161 
L 36.171398 26.632898 
L 36.261592 27.838595 
L 36.229965 26.095695 
L 36.282091 27.228974 
L 36.318988 25.703235 
L 36.293218 27.897568 
L 36.393369 27.092819 
L 36.431438 27.851744 
L 36.453108 26.323397 
L 36.502891 27.115011 
L 36.573758 26.258022 
L 36.526904 27.889716 
L 36.613584 27.29308 
L 36.714906 26.418344 
L 36.694993 27.747941 
L 36.724277 27.029756 
L 36.767031 27.867045 
L 36.774059 25.990552 
L 36.834384 27.608463 
L 36.86074 26.19713 
L 36.891195 27.876827 
L 36.945663 27.237223 
L 36.949177 26.313114 
L 36.996617 28.080667 
L 37.056942 27.103979 
L 37.091497 27.94409 
L 37.082711 26.336283 
L 37.167049 26.913342 
L 37.216246 26.220383 
L 37.273642 27.907907 
L 37.274814 27.163934 
L 37.275399 27.996615 
L 37.362079 25.974218 
L 37.385507 27.703398 
L 37.420061 26.303469 
L 37.407762 27.928087 
L 37.497371 26.538545 
L 37.609235 27.789535 
L 37.586394 26.358342 
L 37.609821 26.912137 
L 37.655504 26.09181 
L 37.630905 27.948033 
L 37.719928 26.865014 
L 37.767368 27.943558 
L 37.795481 26.360671 
L 37.830621 27.362413 
L 37.854634 26.255205 
L 37.831793 27.81507 
L 37.941314 27.100969 
L 38.027409 27.908171 
L 37.953028 26.377952 
L 38.052007 26.879284 
L 38.087148 28.072238 
L 38.136345 26.141237 
L 38.165043 27.552869 
L 38.200184 26.3196 
L 38.204869 27.879786 
L 38.276322 26.484525 
L 38.321419 27.796484 
L 38.286278 26.292219 
L 38.388186 27.31434 
L 38.484823 26.424745 
L 38.43914 28.085712 
L 38.499465 26.935062 
L 38.587316 27.76112 
L 38.509421 26.467411 
L 38.610743 27.18063 
L 38.627142 26.322697 
L 38.661697 27.994167 
L 38.721436 26.953717 
L 38.753063 27.725282 
L 38.761262 26.202911 
L 38.832715 27.321946 
L 38.891283 26.223743 
L 38.93638 27.840772 
L 38.94048 27.115972 
L 38.941065 27.872653 
L 38.98382 26.429535 
L 39.051173 27.519674 
L 39.075185 26.081452 
L 39.127311 27.814774 
L 39.162451 26.923186 
L 39.24796 28.20756 
L 39.254988 26.211826 
L 39.267873 27.079887 
L 39.362753 26.031634 
L 39.363339 27.74072 
L 39.379152 26.634336 
L 39.440062 27.868887 
L 39.426006 26.248553 
L 39.489845 27.097332 
L 39.523228 26.110832 
L 39.597609 27.805908 
L 39.601124 26.816917 
L 39.657934 28.00534 
L 39.686047 26.178399 
L 39.711817 27.312469 
L 39.713574 26.1794 
L 39.726458 28.032965 
L 39.823095 27.188539 
L 39.843008 26.097808 
L 39.906847 27.890618 
L 39.933788 27.284648 
L 39.99997 26.14528 
L 39.936131 27.923385 
L 40.040381 27.286324 
L 40.132918 27.906224 
L 40.098949 26.126743 
L 40.149903 26.948343 
L 40.156346 26.293385 
L 40.241269 27.94355 
L 40.259425 27.484312 
L 40.26001 27.873799 
L 40.31975 26.266039 
L 40.368946 27.377302 
L 40.431028 26.081362 
L 40.4199 27.818379 
L 40.480225 27.052048 
L 40.521222 28.023752 
L 40.497795 26.355294 
L 40.590918 27.352686 
L 40.634258 26.300057 
L 40.596775 27.777254 
L 40.701611 27.197191 
L 40.756079 27.826274 
L 40.796491 26.185891 
L 40.812304 27.512649 
L 40.828703 26.118658 
L 40.912455 27.77249 
L 40.924168 26.427256 
L 40.961652 27.818548 
L 40.983322 26.412423 
L 41.035447 27.21454 
L 41.140283 26.26013 
L 41.068831 27.932726 
L 41.14614 27.017326 
L 41.214664 27.869561 
L 41.172496 26.234498 
L 41.256833 26.748625 
L 41.3318 26.099728 
L 41.338242 27.779106 
L 41.364012 26.541412 
L 41.458892 27.761853 
L 41.410866 26.170907 
L 41.475291 27.44832 
L 41.543229 26.040532 
L 41.578956 27.77886 
L 41.586569 26.800097 
L 41.635181 27.739567 
L 41.618782 26.054752 
L 41.697848 27.392651 
L 41.737088 26.324638 
L 41.766958 27.879965 
L 41.809127 27.194758 
L 41.818498 27.904651 
L 41.847196 26.126958 
L 41.91982 27.141954 
L 42.016457 26.087415 
L 41.935633 27.798095 
L 42.029927 26.955889 
L 42.035784 27.946624 
L 42.073267 26.297924 
L 42.14062 26.809377 
L 42.216172 28.087973 
L 42.241942 26.144706 
L 42.253656 27.130996 
L 42.281768 26.308406 
L 42.354392 27.727824 
L 42.363763 26.55908 
L 42.444001 27.982522 
L 42.417645 26.112979 
L 42.475042 27.091837 
L 42.558208 26.216774 
L 42.487341 27.772744 
L 42.58632 26.745054 
L 42.684129 27.753945 
L 42.65543 26.189339 
L 42.697599 26.986659 
L 42.701113 26.510313 
L 42.705213 27.625295 
L 42.711655 27.45344 
L 42.713412 27.936315 
L 42.742111 26.211274 
L 42.820591 26.981284 
L 42.914885 26.254463 
L 42.829962 27.875321 
L 42.931284 26.471445 
L 43.024993 27.887533 
L 43.02675 26.146618 
L 43.042563 27.014447 
L 43.044906 27.735025 
L 43.093517 26.303619 
L 43.153842 27.139998 
L 43.192496 26.301919 
L 43.217681 27.767566 
L 43.24345 26.538072 
L 43.326617 27.65263 
L 43.320174 26.330591 
L 43.354143 27.051268 
L 43.363514 26.34003 
L 43.436138 28.074467 
L 43.464836 26.372711 
L 43.516376 27.858967 
L 43.542146 26.154815 
L 43.576701 27.559623 
L 43.628826 26.250264 
L 43.608327 27.848445 
L 43.688565 26.891899 
L 43.759432 27.913559 
L 43.700279 26.067381 
L 43.799258 27.667807 
L 43.819757 26.259346 
L 43.895895 27.976808 
L 43.910537 26.856046 
L 44.018301 27.908905 
L 43.998974 26.276257 
L 44.020644 27.062543 
L 44.097368 26.342428 
L 44.047585 27.858761 
L 44.131923 26.901054 
L 44.141879 28.103745 
L 44.209232 26.137917 
L 44.243201 27.77012 
L 44.343352 26.228202 
L 44.342181 28.002721 
L 44.35448 26.733125 
L 44.455217 27.794918 
L 44.436475 26.040803 
L 44.465173 26.748824 
L 44.569424 27.75394 
L 44.499728 26.397526 
L 44.576452 27.192723 
L 44.675431 26.244491 
L 44.603979 27.755066 
L 44.687145 26.490357 
L 44.70003 27.933528 
L 44.730485 26.285771 
L 44.798423 27.026975 
L 44.850549 27.91086 
L 44.848206 26.262322 
L 44.899746 26.814286 
L 44.941329 26.198676 
L 44.962999 27.767893 
L 45.010439 26.898457 
L 45.091262 27.910036 
L 45.024495 26.270157 
L 45.113518 27.405417 
L 45.193756 26.197754 
L 45.182042 27.765363 
L 45.224796 26.983891 
L 45.227725 26.21084 
L 45.309134 28.111532 
L 45.334904 26.68317 
L 45.437397 28.092249 
L 45.3964 26.319336 
L 45.446768 27.519596 
L 45.498308 26.179113 
L 45.522906 27.838149 
L 45.557461 26.660304 
L 45.637699 27.706912 
L 45.604901 26.390791 
L 45.66874 27.450077 
L 45.693338 25.894282 
L 45.706223 27.841752 
L 45.780019 26.69371 
L 45.841515 27.996406 
L 45.782361 26.104633 
L 45.890712 27.011157 
L 45.924095 26.413376 
L 45.972706 27.68458 
L 46.000819 27.19 
L 46.096284 27.955046 
L 46.0711 26.238122 
L 46.109755 27.010625 
L 46.164223 26.161987 
L 46.120883 27.955472 
L 46.220448 26.98123 
L 46.294243 27.841559 
L 46.309471 26.248727 
L 46.331726 27.296146 
L 46.431292 26.264121 
L 46.372138 27.960286 
L 46.443005 26.736608 
L 46.511529 28.022673 
L 46.479903 26.29829 
L 46.554284 26.904263 
L 46.623979 27.897269 
L 46.588253 26.230203 
L 46.665563 26.981493 
L 46.72823 26.157577 
L 46.681376 27.870627 
L 46.77567 27.080208 
L 46.884606 28.066839 
L 46.868793 26.268207 
L 46.885777 27.064524 
L 46.889877 26.120759 
L 46.99237 27.946388 
L 46.994713 26.722983 
L 46.997642 27.815834 
L 47.01814 26.363169 
L 47.105992 26.988745 
L 47.173345 27.830728 
L 47.181544 26.303401 
L 47.216685 27.179417 
L 47.250068 26.200659 
L 47.282281 28.000856 
L 47.325621 26.49555 
L 47.374232 27.878972 
L 47.36779 25.931173 
L 47.436899 27.665396 
L 47.457398 26.314878 
L 47.46794 27.818467 
L 47.548764 27.141901 
L 47.55872 27.845388 
L 47.610846 26.156715 
L 47.659457 27.54945 
L 47.723296 26.339886 
L 47.754337 27.732788 
L 47.770735 27.23859 
L 47.788891 27.975308 
L 47.832817 26.325449 
L 47.882014 27.319156 
L 47.907198 27.938022 
L 47.911884 26.18554 
L 47.988607 27.258028 
L 47.995636 26.129468 
L 48.021991 27.960242 
L 48.099886 26.751655 
L 48.118628 27.793319 
L 48.113942 26.217263 
L 48.211165 27.562305 
L 48.223464 26.344537 
L 48.236935 27.822756 
L 48.322443 26.793156 
L 48.384525 26.19725 
L 48.388039 27.917385 
L 48.430794 27.200611 
L 48.431379 28.07293 
L 48.453049 26.260904 
L 48.541487 27.108226 
L 48.619382 26.125457 
L 48.573113 27.769992 
L 48.652765 26.908997 
L 48.668579 27.799611 
L 48.682049 26.274132 
L 48.764044 27.339413 
L 48.809727 26.045007 
L 48.791571 27.912406 
L 48.875323 27.121936 
L 48.952632 26.275994 
L 48.941504 28.082243 
L 48.987187 26.788887 
L 49.096709 27.953448 
L 49.023499 26.219714 
L 49.098466 26.897857 
L 49.118379 27.806165 
L 49.100809 26.034666 
L 49.209744 27.274219 
L 49.215016 26.150756 
L 49.251913 27.893265 
L 49.321023 27.084079 
L 49.325123 27.850254 
L 49.393061 26.04326 
L 49.428788 27.403196 
L 49.48267 25.982528 
L 49.529524 27.802859 
L 49.540066 26.923269 
L 49.547095 27.791416 
L 49.605077 26.237048 
L 49.649588 26.7949 
L 49.716941 26.242622 
L 49.746225 27.736579 
L 49.75911 27.25253 
L 49.842862 28.060747 
L 49.851061 26.281685 
L 49.869803 27.470987 
L 49.900258 26.134052 
L 49.956483 27.940302 
L 49.981081 27.285839 
L 50.022079 27.842244 
L 50.046092 26.366467 
L 50.091189 27.415597 
L 50.129843 26.198949 
L 50.123401 28.017083 
L 50.202467 27.160127 
L 50.255178 26.260626 
L 50.289148 28.042007 
L 50.313746 26.929064 
L 50.344787 27.809771 
L 50.358843 26.17534 
L 50.424439 27.153533 
L 50.499991 26.145866 
L 50.447866 27.818227 
L 50.533961 26.858666 
L 50.565587 28.205165 
L 50.552117 26.124349 
L 50.644654 26.746999 
L 50.653439 26.141371 
L 50.725477 28.198851 
L 50.755347 26.753786 
L 50.850812 27.816418 
L 50.808058 26.178805 
L 50.865454 26.873588 
L 50.883024 26.026531 
L 50.945106 28.187832 
L 50.97439 26.704974 
L 51.078055 27.880842 
L 51.00016 26.119657 
L 51.085669 27.007333 
L 51.18582 28.020489 
L 51.143651 26.377703 
L 51.194605 27.813133 
L 51.256101 26.153087 
L 51.276014 27.826764 
L 51.305883 26.953208 
L 51.360351 27.755922 
L 51.310569 26.400359 
L 51.416576 27.212315 
L 51.42829 25.948841 
L 51.455817 27.811339 
L 51.527269 26.852695 
L 51.637377 27.884957 
L 51.633277 26.291263 
L 51.638548 27.25287 
L 51.666075 26.308768 
L 51.736942 27.771291 
L 51.749241 26.846692 
L 51.837678 27.849484 
L 51.844121 26.140093 
L 51.861105 27.402644 
L 51.907374 26.159394 
L 51.889218 27.833828 
L 51.974141 26.963048 
L 52.033294 27.906879 
L 52.026852 26.07886 
L 52.084834 26.866283 
L 52.183228 26.152892 
L 52.087177 27.975438 
L 52.194356 26.957956 
L 52.282207 27.912976 
L 52.293921 26.168163 
L 52.305049 27.204224 
L 52.380601 26.203922 
L 52.358345 27.918119 
L 52.41457 27.112157 
L 52.500665 27.961297 
L 52.442683 26.261438 
L 52.525849 27.342487 
L 52.549276 26.181479 
L 52.593202 27.838344 
L 52.637128 26.975169 
L 52.64767 27.888818 
L 52.735522 25.951452 
L 52.747821 26.929759 
L 52.748406 26.927963 
L 52.812831 27.961983 
L 52.857342 26.24778 
L 52.859685 27.210414 
L 52.92411 26.185883 
L 52.908296 27.957256 
L 52.970378 26.955564 
L 53.006104 27.761533 
L 53.014304 26.261121 
L 53.081071 27.111378 
L 53.179465 26.204346 
L 53.117383 27.826113 
L 53.19235 26.911382 
L 53.280787 27.851744 
L 53.239204 26.13392 
L 53.304214 27.57593 
L 53.345212 26.269978 
L 53.33057 27.791338 
L 53.415493 27.211797 
L 53.472889 26.279391 
L 53.516229 27.880095 
L 53.527357 26.722972 
L 53.59881 28.145925 
L 53.54727 25.943896 
L 53.638636 27.164362 
L 53.670848 26.205586 
L 53.650349 27.845222 
L 53.751086 26.779645 
L 53.831909 27.682848 
L 53.761042 26.234088 
L 53.861193 27.436193 
L 53.925032 26.294018 
L 53.930303 27.798936 
L 53.972472 27.065867 
L 54.016983 27.787922 
L 54.040996 26.2244 
L 54.083165 26.937323 
L 54.104249 26.290623 
L 54.09195 27.753141 
L 54.115963 26.532768 
" clip-path="url(#pe1d0a15806)" style="fill: none; stroke: #9467bd; stroke-width: 0.05; stroke-linecap: square"/>
   </g>
  </g>
 </g>
 <defs>
  <clipPath id="pe1d0a15806">
   <rect x="0" y="0" width="56.692913" height="28.346457"/>
  </clipPath>
 </defs>
</svg>
