<?xml version="1.0" encoding="utf-8" standalone="no"?>
<!DOCTYPE svg PUBLIC "-//W3C//DTD SVG 1.1//EN"
  "http://www.w3.org/Graphics/SVG/1.1/DTD/svg11.dtd">
<svg xmlns:xlink="http://www.w3.org/1999/xlink" width="99.212598pt" height="51.023622pt" viewBox="0 0 99.212598 51.023622" xmlns="http://www.w3.org/2000/svg" version="1.1">
 <metadata>
  <rdf:RDF xmlns:dc="http://purl.org/dc/elements/1.1/" xmlns:cc="http://creativecommons.org/ns#" xmlns:rdf="http://www.w3.org/1999/02/22-rdf-syntax-ns#">
   <cc:Work>
    <dc:type rdf:resource="http://purl.org/dc/dcmitype/StillImage"/>
    <dc:date>2024-10-31T23:12:53.681906</dc:date>
    <dc:format>image/svg+xml</dc:format>
    <dc:creator>
     <cc:Agent>
      <dc:title>Matplotlib v3.8.4, https://matplotlib.org/</dc:title>
     </cc:Agent>
    </dc:creator>
   </cc:Work>
  </rdf:RDF>
 </metadata>
 <defs>
  <style type="text/css">*{stroke-linejoin: round; stroke-linecap: butt}</style>
 </defs>
 <g id="figure_1">
  <g id="patch_1">
   <path d="M 0 51.023622 
L 99.212598 51.023622 
L 99.212598 0 
L 0 0 
L 0 51.023622 
z
" style="fill: none"/>
  </g>
  <g id="axes_1">
   <g id="patch_2">
    <path d="M 0 51.023622 
L 99.212598 51.023622 
L 99.212598 -0 
L 0 -0 
L 0 51.023622 
z
" style="fill: none"/>
   </g>
   <g id="matplotlib.axis_1">
    <g id="xtick_1"/>
    <g id="xtick_2"/>
   </g>
   <g id="matplotlib.axis_2">
    <g id="ytick_1"/>
    <g id="ytick_2"/>
   </g>
   <g id="line2d_1">
    <path d="M 4.509664 -0 
L 4.529137 2.063413 
L 4.768972 49.403933 
L 4.887865 40.039301 
L 4.900164 39.410855 
L 4.946286 44.221605 
L 5.015982 49.951613 
L 5.067228 45.84828 
L 5.073378 45.680199 
L 5.1154 48.898037 
L 5.166647 46.443318 
L 5.212769 45.602166 
L 5.245567 47.137832 
L 5.382908 50.436573 
L 5.28349 46.70903 
L 5.391108 49.726352 
L 5.416731 46.576175 
L 5.492576 50.934983 
L 5.495651 50.717437 
L 5.614544 47.803361 
L 5.625818 48.52868 
L 5.740611 50.993027 
L 5.693464 48.517707 
L 5.75496 50.66366 
L 5.774434 50.981668 
L 5.798007 49.093833 
L 5.815431 48.018499 
L 5.872827 49.767827 
L 5.903575 49.499198 
L 5.920999 50.719706 
L 5.968146 48.765266 
L 6.011194 49.223691 
L 6.06244 51.007143 
L 6.033742 49.195345 
L 6.135211 49.488375 
L 6.15161 49.1846 
L 6.211056 49.993666 
L 6.218231 50.021006 
L 6.234629 49.569195 
L 6.298175 48.36422 
L 6.320724 50.855269 
L 6.339173 49.928967 
L 6.340198 49.926663 
L 6.351472 50.142455 
L 6.407844 50.571874 
L 6.449866 49.701706 
L 6.499063 49.539595 
L 6.515462 50.347089 
L 6.577983 50.894785 
L 6.551334 48.939571 
L 6.622055 50.084554 
L 6.738898 49.360324 
L 6.705075 50.375267 
L 6.746072 49.482699 
L 6.826017 50.836272 
L 6.789119 49.272669 
L 6.85779 49.518536 
L 6.86189 49.417965 
L 6.945934 50.481556 
L 6.965408 50.500243 
L 6.977707 50.377928 
L 7.070977 48.990134 
L 7.109924 50.005929 
L 7.123248 50.801527 
L 7.147847 48.930584 
L 7.226767 50.386934 
L 7.264689 50.081805 
L 7.319011 50.5781 
L 7.397931 50.94531 
L 7.342584 49.057184 
L 7.420479 49.899375 
L 7.431754 49.122557 
L 7.505549 50.94499 
L 7.523998 50.512478 
L 7.542447 50.693766 
L 7.619317 49.401257 
L 7.629566 48.953658 
L 7.680813 50.639677 
L 7.720785 49.981047 
L 7.73411 49.595394 
L 7.81098 50.81283 
L 7.816104 50.774777 
L 7.949346 49.799072 
L 7.876576 50.796196 
L 7.956521 50.147767 
L 8.067214 51.011826 
L 8.03749 49.425251 
L 8.074388 50.856163 
L 8.151258 51.012961 
L 8.094887 50.4049 
L 8.169707 50.636199 
L 8.219929 49.391882 
L 8.273226 50.659909 
L 8.2763 50.845195 
L 8.298849 50.193341 
L 8.381869 50.417535 
L 8.405442 50.26245 
L 8.419791 50.591595 
L 8.518185 50.977036 
L 8.496661 50.28651 
L 8.536634 50.803123 
L 8.661676 49.948434 
L 8.567382 50.942182 
L 8.669875 50.070046 
L 8.738546 50.982553 
L 8.800042 50.653899 
L 8.887162 49.382896 
L 8.90766 50.669542 
L 8.991705 50.799266 
L 8.920985 50.215995 
L 9.019378 50.733251 
L 9.028603 50.604861 
L 9.147495 50.069296 
L 9.100348 50.643797 
L 9.15467 50.254028 
L 9.178243 50.953983 
L 9.234615 50.040708 
L 9.269463 50.574155 
L 9.289961 50.086838 
L 9.350432 50.877408 
L 9.380156 50.560643 
L 9.386305 50.650817 
L 9.465225 51.009368 
L 9.423203 50.644381 
L 9.496998 50.648708 
L 9.54722 50.091326 
L 9.588217 50.925853 
L 9.616916 50.298006 
L 9.625115 50.958161 
L 9.671237 50.174322 
L 9.734783 50.638785 
L 9.760407 50.011651 
L 9.851626 50.53509 
L 9.922346 50.947362 
L 9.911072 50.092168 
L 9.956169 50.458082 
L 9.989992 49.964097 
L 10.036114 51.006966 
L 10.065837 50.533369 
L 10.078136 50.459268 
L 10.127333 50.873575 
L 10.155007 50.818503 
L 10.164231 50.886088 
L 10.177555 50.526955 
L 10.2534 50.16006 
L 10.196004 50.963322 
L 10.273899 50.907627 
L 10.275949 51.012707 
L 10.322071 50.055134 
L 10.375368 50.480416 
L 10.49836 50.237919 
L 10.412265 50.966354 
L 10.50246 50.245282 
L 10.544482 51.018713 
L 10.583429 50.187218 
L 10.612128 50.236159 
L 10.618277 50.159155 
L 10.657225 50.995385 
L 10.696172 50.786696 
L 10.710521 51.002649 
L 10.724871 50.356005 
L 10.794566 50.531427 
L 10.896035 50.121193 
L 10.81199 50.767316 
L 10.913459 50.495178 
L 11.001603 50.989888 
L 10.988279 50.417732 
L 11.030301 50.799255 
L 11.082573 50.986167 
L 11.092822 50.453887 
L 11.122545 50.509477 
L 11.170717 50.443107 
L 11.199416 50.761519 
L 11.227089 50.645196 
L 11.28756 50.999864 
L 11.255787 50.260399 
L 11.303959 50.481003 
L 11.319333 50.110986 
L 11.390053 50.93084 
L 11.408502 50.740257 
L 11.412602 50.922852 
L 11.507921 50.172655 
L 11.510996 50.208075 
L 11.543794 50.880802 
L 11.625789 50.333074 
L 11.729307 50.999198 
L 11.773379 50.734232 
L 11.868698 50.302884 
L 11.801052 50.989773 
L 11.882022 50.829599 
L 11.966067 51.003447 
L 11.908671 50.57539 
L 11.99169 50.775113 
L 11.992715 50.774621 
L 11.99989 50.883843 
L 12.018339 50.971642 
L 12.062411 50.528359 
L 12.087009 50.539079 
L 12.146456 50.296132 
L 12.121857 50.868899 
L 12.183353 50.755833 
L 12.274573 50.999393 
L 12.246899 50.393597 
L 12.291996 50.688069 
L 12.304296 50.131 
L 12.38834 50.85153 
L 12.403714 50.599844 
L 12.492884 50.362236 
L 12.421138 50.873604 
L 12.500058 50.602672 
L 12.523632 50.969303 
L 12.557455 50.364538 
L 12.608701 50.564677 
L 12.646624 50.243391 
L 12.6251 50.992569 
L 12.711195 50.941123 
L 12.713245 50.991056 
L 12.812663 50.627331 
L 12.846486 50.618188 
L 12.832137 50.839052 
L 12.873135 50.821919 
L 12.893633 50.98006 
L 12.94078 50.19705 
L 12.972553 50.653175 
L 13.070947 50.373276 
L 13.02585 50.988832 
L 13.089396 50.545647 
L 13.129368 50.153666 
L 13.211363 50.948488 
L 13.277984 50.156444 
L 13.328206 50.838659 
L 13.408151 50.972638 
L 13.373303 50.050483 
L 13.432749 50.67871 
L 13.57419 50.994517 
L 13.49322 50.479885 
L 13.581365 50.927836 
L 13.688983 50.525381 
L 13.646961 50.991867 
L 13.704357 50.762873 
L 13.723831 51.004149 
L 13.797626 50.45803 
L 13.818125 50.287503 
L 13.879621 50.99659 
L 13.890895 50.825237 
L 13.966741 51.020631 
L 13.917544 50.431599 
L 13.983139 50.546218 
L 14.031311 50.554842 
L 13.999538 50.740805 
L 14.041561 50.71248 
L 14.044636 50.731598 
L 14.127655 50.470689 
L 14.2117 50.10891 
L 14.168653 50.87427 
L 14.223999 50.724083 
L 14.279346 51.002881 
L 14.239373 50.538697 
L 14.334692 50.774309 
L 14.358266 50.620685 
L 14.344942 50.968906 
L 14.44641 50.730053 
L 14.463834 50.956503 
L 14.486383 50.466003 
L 14.553003 50.671758 
L 14.645248 50.369946 
L 14.631923 50.943747 
L 14.657547 50.909029 
L 14.658572 50.910197 
L 14.661647 50.755978 
L 14.734417 50.419703 
L 14.67907 50.938456 
L 14.773365 50.690868 
L 14.784639 50.515083 
L 14.833836 50.808623 
L 14.852285 50.935077 
L 14.880983 50.506839 
L 14.939404 50.697993 
L 15.006025 50.302074 
L 14.975277 50.976212 
L 15.045997 50.787604 
L 15.149516 50.97335 
L 15.069571 50.138891 
L 15.153615 50.763932 
L 15.24586 50.533682 
L 15.174114 51.012204 
L 15.262259 50.832791 
L 15.263284 50.836949 
L 15.295057 50.52636 
L 15.301206 50.439497 
L 15.319655 50.841445 
L 15.3996 50.681406 
L 15.462121 50.894649 
L 15.450847 50.499825 
L 15.519517 50.746322 
L 15.605612 50.455167 
L 15.550265 50.943921 
L 15.635335 50.581376 
L 15.757302 50.997119 
L 15.659933 50.528722 
L 15.761402 50.945176 
L 15.891569 50.587016 
L 15.807524 50.959648 
L 15.893619 50.610901 
L 15.999187 50.9956 
L 15.965364 50.377215 
L 16.006362 50.649404 
L 16.052484 50.502554 
L 16.064783 50.95988 
L 16.095531 50.921477 
L 16.097581 50.966672 
L 16.169326 50.481638 
L 16.199049 50.67947 
L 16.280019 50.907074 
L 16.249271 50.459435 
L 16.308717 50.681519 
L 16.343565 50.479278 
L 16.355864 50.956338 
L 16.412236 50.749391 
L 16.460408 51.011648 
L 16.434784 50.485665 
L 16.517804 50.655014 
L 16.5916 50.569057 
L 16.605949 51.0048 
L 16.626447 50.699183 
L 16.648996 51.014445 
L 16.750464 50.950265 
L 16.876532 50.474392 
L 16.799661 51.01495 
L 16.880631 50.555447 
L 16.978 51.009556 
L 16.941102 50.49941 
L 16.997474 50.749913 
L 17.004648 50.614672 
L 17.033347 51.001579 
L 17.110217 50.70286 
L 17.13994 50.604197 
L 17.160439 50.77961 
L 17.189137 50.780636 
L 17.252683 51.020934 
L 17.225009 50.707452 
L 17.29573 50.732764 
L 17.357226 50.175934 
L 17.326478 51.001841 
L 17.404373 50.777867 
L 17.518141 50.991036 
L 17.482268 50.484725 
L 17.522241 50.956675 
L 17.569388 50.688626 
L 17.603211 51.008895 
L 17.640108 50.87801 
L 17.701604 50.967163 
L 17.724153 50.718286 
L 17.782574 50.462253 
L 17.812297 50.994391 
L 17.835871 50.684306 
L 17.887118 50.963034 
L 17.855345 50.587343 
L 17.949639 50.733304 
L 18.022409 50.64148 
L 17.986536 51.002563 
L 18.051107 50.80377 
L 18.145401 50.952866 
L 18.131052 50.543909 
L 18.155651 50.668649 
L 18.1618 50.531087 
L 18.260194 50.88369 
L 18.352438 50.989258 
L 18.300166 50.259391 
L 18.369862 50.875549 
L 18.397535 50.590003 
L 18.472356 51.00101 
L 18.506178 51.015022 
L 18.499004 50.829379 
L 18.574849 50.934147 
L 18.686567 50.420717 
L 18.668118 51.013686 
L 18.694767 50.713826 
L 18.771637 51.007526 
L 18.735764 50.569065 
L 18.808534 50.817521 
L 18.833133 50.392796 
L 18.845432 50.995871 
L 18.922302 50.728162 
L 18.927427 50.68457 
L 18.96125 50.978034 
L 19.023771 50.816207 
L 19.02787 51.013727 
L 19.072968 50.604431 
L 19.131389 50.709719 
L 19.180586 50.500865 
L 19.146763 51.014534 
L 19.229783 50.968247 
L 19.234907 50.996011 
L 19.273855 50.450204 
L 19.300503 50.653384 
L 19.352775 50.622983 
L 19.344575 50.973333 
L 19.398897 50.867784 
L 19.401972 50.972636 
L 19.484992 50.751755 
L 19.508565 50.826114 
L 19.591585 50.773757 
L 19.544438 50.921161 
L 19.611059 50.884045 
L 19.699203 51.003359 
L 19.674605 50.5868 
L 19.708427 50.717575 
L 19.796572 50.540392 
L 19.722777 50.992677 
L 19.817071 50.751337 
L 19.893941 50.989435 
L 19.83142 50.584708 
L 19.929813 50.770491 
L 20.006684 50.720809 
L 19.947237 51.019142 
L 20.030257 50.90182 
L 20.036407 50.996052 
L 20.108152 50.593842 
L 20.128651 50.762474 
L 20.1348 50.65914 
L 20.227045 50.997292 
L 20.238319 50.790175 
L 20.240369 50.792902 
L 20.247543 50.653495 
L 20.299815 50.515544 
L 20.332613 50.933143 
L 20.345937 50.822857 
L 20.414608 51.002385 
L 20.403333 50.737308 
L 20.45868 50.92115 
L 20.549899 50.973472 
L 20.492503 50.73468 
L 20.562198 50.856569 
L 20.682116 50.544094 
L 20.613445 50.987859 
L 20.69134 50.830715 
L 20.76821 50.94748 
L 20.78051 50.589349 
L 20.798958 50.761743 
L 20.806133 50.605516 
L 20.864554 50.969995 
L 20.906577 50.834473 
L 21.01932 51.014355 
L 20.943474 50.586317 
L 21.022394 50.942625 
L 21.09619 50.738216 
L 21.049043 50.97758 
L 21.133087 50.942245 
L 21.135137 51.015661 
L 21.200733 50.545727 
L 21.240706 50.82621 
L 21.311426 50.46605 
L 21.300152 51.013558 
L 21.353448 50.805964 
L 21.369847 50.794556 
L 21.377022 51.009688 
L 21.393421 50.951922 
L 21.394446 50.993737 
L 21.496939 50.663389 
L 21.500014 50.639876 
L 21.520513 50.973427 
L 21.589183 50.89024 
L 21.625056 50.957659 
L 21.63838 50.607507 
L 21.675278 50.640012 
L 21.677328 50.634411 
L 21.702951 50.954287 
L 21.739849 50.875147 
L 21.80442 50.48751 
L 21.786996 50.974654 
L 21.845417 50.863998 
L 21.848492 50.969861 
L 21.858741 50.591769 
L 21.95611 50.845275 
L 21.965335 51.016156 
L 21.984808 50.761548 
L 22.073978 50.920424 
L 22.175446 50.76769 
L 22.152898 50.979352 
L 22.188771 50.870499 
L 22.253341 50.716871 
L 22.212344 50.988211 
L 22.291264 50.957003 
L 22.299464 51.014579 
L 22.35071 50.477819 
L 22.395807 50.853153 
L 22.502401 50.670753 
L 22.457304 51.017552 
L 22.50855 50.791028 
L 22.517775 51.015627 
L 22.559797 50.648293 
L 22.618218 50.761732 
L 22.687914 50.612983 
L 22.699188 50.994943 
L 22.725837 50.831522 
L 22.74736 51.01238 
L 22.765809 50.503885 
L 22.835505 50.841787 
L 22.874452 50.479341 
L 22.941073 50.973517 
L 22.945173 50.893414 
L 23.033317 50.654746 
L 22.964646 50.991996 
L 23.06919 50.809222 
L 23.131711 51.017664 
L 23.082514 50.749866 
L 23.182958 50.966354 
L 23.22088 50.54429 
L 23.267002 51.014429 
L 23.320299 50.805107 
L 23.362321 50.999183 
L 23.400244 50.524241 
L 23.432017 50.873947 
L 23.438167 50.948313 
L 23.466865 50.765357 
L 23.482239 50.661973 
L 23.556034 51.009582 
L 23.577558 50.719576 
L 23.687226 50.99704 
L 23.69235 50.866576 
L 23.6985 50.776293 
L 23.749747 51.005741 
L 23.798944 50.954019 
L 23.803043 50.97926 
L 23.816368 50.741286 
L 23.895288 50.809159 
L 23.93936 50.415158 
L 23.959859 50.936434 
L 23.994706 51.015985 
L 23.970108 50.625 
L 24.070552 50.918085 
L 24.128973 51.010813 
L 24.143322 50.788249 
L 24.147422 50.755208 
L 24.203793 51.017924 
L 24.242741 50.94967 
L 24.313461 50.999449 
L 24.288863 50.753951 
L 24.345234 50.899074 
L 24.424154 50.706743 
L 24.382132 50.992926 
L 24.451827 50.965528 
L 24.454902 51.012018 
L 24.473351 50.697551 
L 24.554321 50.884701 
L 24.613767 50.674538 
L 24.64964 50.996852 
L 24.666039 50.816135 
L 24.782882 50.984607 
L 24.704986 50.730279 
L 24.789031 50.92422 
L 24.875126 50.781352 
L 24.824904 51.013957 
L 24.896649 51.000502 
L 24.899724 51.004471 
L 24.919198 50.675823 
L 25.026816 50.21667 
L 24.947896 51.014595 
L 25.036041 50.576276 
L 25.107786 51.006384 
L 25.158008 50.902733 
L 25.211304 50.981723 
L 25.246152 50.79647 
L 25.266651 50.85301 
L 25.338396 51.003504 
L 25.303549 50.804438 
L 25.384518 50.903815 
L 25.425516 50.692391 
L 25.484962 51.01984 
L 25.493162 50.973653 
L 25.495211 50.975373 
L 25.512635 50.764989 
L 25.578231 50.594393 
L 25.52186 51.004122 
L 25.616154 50.936537 
L 25.625378 50.999948 
L 25.635628 50.823036 
L 25.640752 50.687729 
L 25.665351 51.018668 
L 25.742221 50.997699 
L 25.768869 51.00747 
L 25.753495 50.804579 
L 25.789368 50.84593 
L 25.794493 50.719279 
L 25.803717 50.988304 
L 25.899036 50.892824 
L 25.99128 51.017713 
L 25.913385 50.787041 
L 26.003579 50.848984 
L 26.005629 50.849405 
L 26.011779 50.73434 
L 26.044577 50.979671 
L 26.131696 50.474617 
L 26.137846 50.432988 
L 26.161419 50.998594 
L 26.176793 50.90213 
L 26.261863 51.010871 
L 26.183968 50.666767 
L 26.287486 50.956289 
L 26.327459 50.739836 
L 26.339758 50.977155 
L 26.400229 50.897609 
L 26.430977 51.020631 
L 26.499648 50.716541 
L 26.502723 50.709452 
L 26.552945 50.969239 
L 26.644164 51.002894 
L 26.581643 50.655749 
L 26.650313 50.853295 
L 26.70361 50.714566 
L 26.750757 50.944327 
L 26.78663 51.015848 
L 26.792779 50.826431 
L 26.866575 50.978186 
L 26.921921 50.656682 
L 26.984442 50.840436 
L 27.01929 51.015642 
L 27.063362 50.746398 
L 27.095135 50.866216 
L 27.111534 50.666031 
L 27.18533 51.003059 
L 27.205828 50.848127 
L 27.302172 51.014112 
L 27.269374 50.570834 
L 27.313446 50.798489 
L 27.340095 51.015 
L 27.329845 50.680066 
L 27.436439 50.86234 
L 27.469237 50.767513 
L 27.519458 50.993462 
L 27.550207 50.795927 
L 27.559431 51.014452 
L 27.632201 50.735357 
L 27.673199 50.872308 
L 27.689598 50.679924 
L 27.702922 51.005934 
L 27.784917 50.86589 
L 27.817715 51.01041 
L 27.845388 50.60628 
L 27.89766 50.887247 
L 27.950956 51.012963 
L 27.922258 50.789409 
L 27.981704 50.808626 
L 27.996053 50.858087 
L 27.987854 50.891079 
L 27.999128 50.912752 
L 28.094447 51.008236 
L 28.084198 50.76733 
L 28.106746 50.843947 
L 28.204115 50.651016 
L 28.139544 50.936303 
L 28.221539 50.821243 
L 28.27791 50.908939 
L 28.250237 50.748389 
L 28.293285 50.727411 
L 28.301484 50.612246 
L 28.36913 51.008997 
L 28.396803 50.895097 
L 28.44805 51.014973 
L 28.409102 50.597322 
L 28.515695 50.951581 
L 28.627413 50.802526 
L 28.609989 51.01172 
L 28.629463 50.818648 
L 28.736057 51.015015 
L 28.750406 51.012422 
L 28.824201 50.747856 
L 28.867248 50.928472 
L 28.961542 50.957164 
L 28.930794 50.673722 
L 28.973841 50.895607 
L 28.978966 50.945115 
L 29.030213 50.731169 
L 29.032263 50.687696 
L 29.091709 51.016885 
L 29.133731 50.93019 
L 29.137831 51.016036 
L 29.228025 50.755514 
L 29.24135 50.869697 
L 29.274147 51.001473 
L 29.287472 50.770654 
L 29.347943 50.843268 
L 29.429938 50.727391 
L 29.413539 50.901968 
L 29.436087 50.902569 
L 29.527306 51.002795 
L 29.463761 50.63917 
L 29.54473 50.787299 
L 29.587778 50.655474 
L 29.649274 51.017354 
L 29.650299 50.991786 
L 29.737418 50.738612 
L 29.678997 51.00169 
L 29.765091 50.876336 
L 29.78149 51.015926 
L 29.821463 50.766497 
L 29.878859 50.965026 
L 29.962904 50.830181 
L 29.894233 51.013833 
L 29.991602 50.92321 
L 30.029525 51.011924 
L 30.056173 50.81066 
L 30.094096 50.875362 
L 30.175066 50.67417 
L 30.139193 51.011003 
L 30.204789 50.886465 
L 30.26321 50.73935 
L 30.237587 51.014007 
L 30.310357 50.975486 
L 30.417975 50.803703 
L 30.329831 51.010568 
L 30.431299 50.983638 
L 30.432324 51.011698 
L 30.439499 50.814564 
L 30.536868 50.863696 
L 30.549167 50.689944 
L 30.623987 50.987235 
L 30.65166 50.78084 
L 30.748004 51.010477 
L 30.759279 50.766087 
L 30.765428 50.650659 
L 30.802326 51.013209 
L 30.863822 50.967712 
L 30.893545 50.674442 
L 30.97144 50.998396 
L 30.980665 50.89541 
L 30.984764 51.005944 
L 31.001163 50.717626 
L 31.093407 50.944875 
L 31.128255 51.011702 
L 31.103657 50.85058 
L 31.136455 50.846435 
L 31.207175 50.73246 
L 31.161053 51.004728 
L 31.234848 50.975664 
L 31.328118 51.007225 
L 31.310694 50.789703 
L 31.333242 50.860817 
L 31.36809 50.608878 
L 31.388589 51.01678 
L 31.44086 50.922629 
L 31.555653 50.807967 
L 31.463409 50.988626 
L 31.559753 50.916899 
L 31.562828 51.006377 
L 31.611 50.73859 
L 31.670446 50.917447 
L 31.744241 50.724225 
L 31.718618 50.977489 
L 31.782164 50.910988 
L 31.820086 50.992284 
L 31.809837 50.765926 
L 31.890807 50.886616 
L 31.967677 50.591864 
L 31.927705 50.990457 
L 32.002525 50.868615 
L 32.011749 50.975814 
L 32.055822 51.01389 
L 32.049672 50.788363 
L 32.121417 50.977326 
L 32.218786 50.705726 
L 32.187013 50.985363 
L 32.23416 50.939621 
L 32.287457 50.777337 
L 32.31718 50.988575 
L 32.344853 50.946685 
L 32.387901 51.006565 
L 32.409424 50.794983 
L 32.445297 50.814698 
L 32.451447 50.635746 
L 32.484244 51.011512 
L 32.55394 50.896951 
L 32.572389 50.647875 
L 32.654384 51.020974 
L 32.663608 50.921636 
L 32.696406 50.788221 
L 32.685132 50.988425 
L 32.762002 50.979646 
L 32.775326 51.010455 
L 32.833747 50.767767 
L 32.860396 50.852986 
L 32.95674 50.801118 
L 32.87782 51.009215 
L 32.961864 50.906649 
L 33.057183 51.016206 
L 33.024385 50.834965 
L 33.073582 50.940565 
L 33.184275 50.625428 
L 33.140203 50.984782 
L 33.19555 50.861496 
L 33.300093 51.007453 
L 33.229372 50.743011 
L 33.306243 50.851919 
L 33.386187 50.746264 
L 33.331866 51.014524 
L 33.425135 50.756644 
L 33.489706 51.014203 
L 33.439484 50.735079 
L 33.538903 50.838204 
L 33.544027 50.726803 
L 33.552227 51.004854 
L 33.646521 50.933329 
L 33.738765 51.020207 
L 33.677269 50.809273 
L 33.755164 50.90678 
L 33.788987 50.991202 
L 33.802311 50.757082 
L 33.806411 50.648024 
L 33.864832 51.013881 
L 33.908904 50.941864 
L 33.991924 50.781426 
L 33.966301 51.014243 
L 34.027797 50.811028 
L 34.041121 51.01252 
L 34.066744 50.808816 
L 34.143615 50.925573 
L 34.21741 50.757487 
L 34.154889 51.014348 
L 34.254308 50.911066 
L 34.350651 51.018462 
L 34.328103 50.812858 
L 34.368075 50.977274 
L 34.440846 50.645615 
L 34.473644 51.001146 
L 34.486968 50.883889 
L 34.597661 51.01985 
L 34.491068 50.868199 
L 34.622259 50.889687 
L 34.636608 50.741265 
L 34.668381 50.993883 
L 34.721678 50.976016 
L 34.756526 51.008577 
L 34.797523 50.802624 
L 34.831346 50.953136 
L 34.917441 50.797658 
L 34.874393 51.010854 
L 34.959463 50.846263 
L 35.031208 51.013372 
L 35.045558 50.651657 
L 35.076306 50.929997 
L 35.095779 51.004384 
L 35.16445 50.864237 
L 35.195198 50.758017 
L 35.207497 51.017563 
L 35.271043 50.953118 
L 35.329465 51.01554 
L 35.283342 50.826963 
L 35.364312 50.892727 
L 35.471931 50.81935 
L 35.39916 50.974138 
L 35.47603 50.878593 
L 35.500629 50.992139 
L 35.553925 50.791539 
L 35.586723 50.882397 
L 35.699466 50.653985 
L 35.611322 51.016709 
L 35.703566 50.782281 
L 35.708691 51.011872 
L 35.727139 50.752446 
L 35.818359 51.007263 
L 35.838857 51.003094 
L 35.826558 50.861062 
L 35.853206 50.853179 
L 35.902403 50.774145 
L 35.919827 51.013823 
L 35.9598 50.900437 
L 36.029495 51.010351 
L 36.054094 50.806651 
L 36.067418 50.871993 
L 36.073568 50.797145 
L 36.162737 51.017187 
L 36.180161 50.850303 
L 36.298028 50.988164 
L 36.19861 50.810977 
L 36.310328 50.800158 
L 36.313402 50.730535 
L 36.367724 50.999318 
L 36.416921 50.899877 
L 36.474317 51.013166 
L 36.451769 50.758749 
L 36.530689 50.978781 
L 36.557337 50.846545 
L 36.550162 50.982676 
L 36.645481 50.894539 
L 36.706977 51.013007 
L 36.743875 50.821915 
L 36.764374 50.977116 
L 36.765399 50.978479 
L 36.779748 50.818239 
L 36.788972 50.84134 
L 36.794097 50.721438 
L 36.813571 51.00548 
L 36.897615 50.910076 
L 36.988835 51.005819 
L 36.965261 50.647014 
L 37.006259 50.914807 
L 37.030857 50.724925 
L 37.024707 51.015864 
L 37.116952 50.913281 
L 37.197921 51.011318 
L 37.154874 50.745244 
L 37.221495 50.878141 
L 37.238919 50.84638 
L 37.257368 51.018366 
L 37.319889 50.946412 
L 37.367036 51.005536 
L 37.330138 50.832156 
L 37.430582 50.9372 
L 37.482853 50.992734 
L 37.535125 50.79564 
L 37.598671 50.72955 
L 37.552549 51.00414 
L 37.641718 50.893706 
L 37.675541 51.015865 
L 37.721663 50.759093 
L 37.757536 50.959264 
L 37.861054 50.787059 
L 37.788284 51.013394 
L 37.868229 50.918466 
L 37.881553 51.000214 
L 37.957398 50.812115 
L 37.980972 50.970551 
L 38.030169 50.768089 
L 38.08654 50.990248 
L 38.09064 50.987116 
L 38.193133 51.014174 
L 38.123438 50.768504 
L 38.196208 50.945434 
L 38.25053 50.743451 
L 38.212607 51.016224 
L 38.306901 50.93774 
L 38.374547 51.00726 
L 38.32125 50.769059 
L 38.414519 50.807683 
L 38.541611 51.009484 
L 38.426819 50.754303 
L 38.545711 50.937565 
L 38.609257 50.864152 
L 38.583634 51.001165 
L 38.656404 50.928005 
L 38.678953 51.00258 
L 38.755823 50.824551 
L 38.765047 50.893839 
L 38.861391 51.006306 
L 38.848067 50.752609 
L 38.865491 50.840328 
L 38.947486 50.755818 
L 38.941336 50.997421 
L 38.972084 50.943944 
L 38.988483 50.804239 
L 39.063303 50.999007 
L 39.079702 50.983355 
L 39.152473 51.009465 
L 39.142223 50.845962 
L 39.158622 50.888242 
L 39.173996 50.790902 
L 39.166822 51.00795 
L 39.271365 50.864251 
L 39.324662 50.75906 
L 39.28059 51.009777 
L 39.36156 50.925574 
L 39.409732 50.997412 
L 39.427155 50.823386 
L 39.473278 50.940351 
L 39.555272 50.764551 
L 39.501976 50.994996 
L 39.576796 50.945228 
L 39.659816 51.011531 
L 39.651616 50.734786 
L 39.687489 50.935779 
L 39.714137 51.021639 
L 39.733611 50.81583 
L 39.773584 50.86292 
L 39.844304 50.822532 
L 39.858653 51.020546 
L 39.878127 50.973185 
L 39.950897 51.00292 
L 39.964221 50.814173 
L 39.98677 50.956354 
L 40.054416 50.858764 
L 40.07184 51.006485 
L 40.098488 50.940389 
L 40.212256 50.756601 
L 40.14666 51.015183 
L 40.215331 50.82572 
L 40.314749 51.013091 
L 40.281951 50.806934 
L 40.327049 50.886405 
L 40.353697 50.895531 
L 40.333198 50.997271 
L 40.404944 50.981382 
L 40.471564 51.009355 
L 40.434667 50.824089 
L 40.494113 50.918422 
L 40.602756 50.759259 
L 40.551509 51.013887 
L 40.606856 50.847364 
L 40.684751 51.005882 
L 40.7032 50.800491 
L 40.720624 50.922711 
L 40.825167 51.014576 
L 40.752397 50.787679 
L 40.832342 50.91675 
L 40.917411 51.004996 
L 40.880514 50.807564 
L 40.928685 50.883693 
L 40.972758 50.72357 
L 40.996331 51.004064 
L 41.038354 50.903494 
L 41.048603 50.825152 
L 41.0896 51.004907 
L 41.112149 50.988832 
L 41.222842 51.017004 
L 41.135722 50.761339 
L 41.223867 51.011464 
L 41.313036 50.816961 
L 41.339684 50.921733 
L 41.376582 51.003602 
L 41.370433 50.836368 
L 41.392981 50.819116 
L 41.491375 50.805274 
L 41.424754 51.008521 
L 41.49445 50.870633 
L 41.507774 51.008172 
L 41.588744 50.796419 
L 41.605143 50.872759 
L 41.64409 50.813309 
L 41.610267 50.995556 
L 41.670739 50.968563 
L 41.754783 51.018107 
L 41.738384 50.78839 
L 41.776307 50.80716 
L 41.777332 50.80188 
L 41.793731 51.016142 
L 41.854202 50.988955 
L 41.875726 51.021296 
L 41.868551 50.799518 
L 41.955671 50.869535 
L 41.95977 50.804301 
L 42.029466 51.011388 
L 42.061239 50.992158 
L 42.11761 51.011149 
L 42.100186 50.761485 
L 42.164757 50.948106 
L 42.184231 50.80269 
L 42.245727 51.016434 
L 42.276475 50.8958 
L 42.329772 51.014362 
L 42.293899 50.768111 
L 42.388193 50.909906 
L 42.396393 50.760169 
L 42.44149 51.007461 
L 42.476338 50.996275 
L 42.575756 51.008816 
L 42.502986 50.783041 
L 42.583956 50.943807 
L 42.624953 50.820458 
L 42.654676 51.016326 
L 42.692599 50.965798 
L 42.772544 50.844186 
L 42.706948 51.020963 
L 42.802267 50.96861 
L 42.899636 51.002693 
L 42.843264 50.756133 
L 42.91091 50.927482 
L 42.977531 51.011045 
L 43.011354 50.832503 
L 43.014429 50.807474 
L 43.071825 51.017433 
L 43.119997 50.86048 
L 43.188668 51.013514 
L 43.135371 50.853217 
L 43.23069 50.857549 
L 43.277837 51.020359 
L 43.287061 50.834882 
L 43.348557 50.973201 
L 43.449001 50.76167 
L 43.357782 51.014497 
L 43.45925 50.974842 
L 43.563794 51.002268 
L 43.539195 50.794921 
L 43.567894 50.953882 
L 43.575068 51.012722 
L 43.62734 50.809748 
L 43.630415 50.766905 
L 43.684736 51.021451 
L 43.731883 50.93407 
L 43.790305 50.844764 
L 43.742133 50.995199 
L 43.813878 51.013504 
L 43.814903 51.019454 
L 43.856925 50.844252 
L 43.904072 50.887428 
L 44.01374 51.009573 
L 44.028089 50.854171 
L 44.029114 50.85018 
L 44.057813 51.011878 
L 44.109059 50.984133 
L 44.127508 51.019 
L 44.152107 50.818491 
L 44.219752 50.979865 
L 44.239226 50.771694 
L 44.320196 51.011684 
L 44.33147 50.942524 
L 44.424739 50.958769 
L 44.33762 50.930763 
L 44.436014 50.882361 
L 44.463687 50.804444 
L 44.516984 51.014564 
L 44.541582 50.965792 
L 44.549781 50.861088 
L 44.56823 50.840635 
L 44.631776 51.016612 
L 44.652275 50.959894 
L 44.735295 50.87495 
L 44.784492 50.982386 
L 44.786542 51.015455 
L 44.799866 50.731624 
L 44.886985 50.822859 
L 44.97308 50.729383 
L 44.929007 51.010867 
L 44.992553 50.933008 
L 45.076598 51.018289 
L 45.015102 50.820883 
L 45.103246 50.931566 
L 45.182166 50.802526 
L 45.135019 51.021179 
L 45.214964 50.909668 
L 45.256987 50.859208 
L 45.292859 51.004099 
L 45.312333 51.002501 
L 45.337957 51.017499 
L 45.396378 50.854728 
L 45.398428 50.833247 
L 45.406627 51.015759 
L 45.500921 50.930007 
L 45.584966 50.989923 
L 45.569592 50.801383 
L 45.607515 50.871644 
L 45.611614 50.776005 
L 45.647487 51.010892 
L 45.717183 50.888668 
L 45.808402 51.018904 
L 45.768429 50.791287 
L 45.812502 50.830504 
L 45.814551 50.808728 
L 45.884247 51.007883 
L 45.919095 50.911717 
L 45.944718 51.017302 
L 45.979566 50.835231 
L 46.031838 50.950485 
L 46.104608 51.000091 
L 46.057461 50.882542 
L 46.111783 50.879369 
L 46.211201 50.817091 
L 46.134331 51.019979 
L 46.218376 50.928841 
L 46.315745 51.01714 
L 46.273722 50.779584 
L 46.328044 50.877102 
L 46.417213 50.990036 
L 46.339318 50.739718 
L 46.441812 50.904308 
L 46.546355 50.837159 
L 46.501258 51.019465 
L 46.552505 50.911053 
L 46.645774 51.01626 
L 46.621175 50.800175 
L 46.667298 50.95484 
L 46.736993 51.003983 
L 46.783115 50.825036 
L 46.802589 50.938111 
L 46.910207 51.003835 
L 46.809764 50.827298 
L 46.913282 50.944438 
L 47.000402 50.746344 
L 46.929681 51.018635 
L 47.026025 50.909524 
L 47.051648 50.79572 
L 47.044474 51.009321 
L 47.133643 50.944647 
L 47.161316 51.012764 
L 47.201289 50.836742 
L 47.240236 50.870216 
L 47.25561 50.811573 
L 47.264835 50.979671 
L 47.326331 51.014008 
L 47.301732 50.834806 
L 47.374503 50.968584 
L 47.475971 50.855631 
L 47.391927 51.006243 
L 47.487246 50.9255 
L 47.598964 51.013598 
L 47.536443 50.789195 
L 47.601014 50.975719 
L 47.678909 50.795318 
L 47.623562 51.014349 
L 47.712731 50.945723 
L 47.770128 51.012078 
L 47.74348 50.730137 
L 47.82035 50.913669 
L 47.824449 50.809719 
L 47.898245 51.015764 
L 47.928993 50.994604 
L 48.024312 50.8736 
L 48.014062 51.017356 
L 48.041736 50.966045 
L 48.043786 51.01257 
L 48.074534 50.87563 
L 48.152429 50.959183 
L 48.183177 50.728395 
L 48.2047 51.012536 
L 48.264147 50.936139 
L 48.271321 50.870953 
L 48.305144 51.008166 
L 48.37074 50.979698 
L 48.480408 51.013526 
L 48.455809 50.813441 
L 48.481433 50.999972 
L 48.497832 50.862435 
L 48.533705 51.011822 
L 48.596226 50.906862 
L 48.666946 51.018673 
L 48.634148 50.692176 
L 48.713068 50.930789 
L 48.822736 50.86787 
L 48.736642 51.009046 
L 48.826836 50.895048 
L 48.92728 51.018479 
L 48.916005 50.797115 
L 48.935479 50.877977 
L 48.939579 50.793763 
L 48.979551 51.015472 
L 49.042072 50.985939 
L 49.102544 51.009002 
L 49.095369 50.763291 
L 49.147641 50.862621 
L 49.156865 50.679359 
L 49.228611 51.001375 
L 49.251159 50.921634 
L 49.331104 51.013966 
L 49.348528 50.779364 
L 49.354678 50.832211 
L 49.355703 50.831768 
L 49.359802 50.926176 
L 49.374151 51.022796 
L 49.451022 50.751061 
L 49.47152 50.971846 
L 49.534041 51.022592 
L 49.489969 50.839303 
L 49.566839 50.893425 
L 49.575039 50.807392 
L 49.643709 51.020397 
L 49.671383 50.942581 
L 49.709305 51.02108 
L 49.689831 50.867535 
L 49.783101 50.932998 
L 49.800524 50.835394 
L 49.828198 51.021295 
L 49.894818 50.900858 
L 49.974763 51.008682 
L 49.963489 50.80678 
L 50.011661 50.932685 
L 50.03011 50.793654 
L 50.080332 51.019834 
L 50.123379 50.921279 
L 50.195124 51.016868 
L 50.142853 50.815955 
L 50.238172 50.995649 
L 50.317092 50.866857 
L 50.249446 51.00962 
L 50.35194 50.903965 
L 50.43086 51.013223 
L 50.450333 50.864618 
L 50.454433 50.812517 
L 50.462633 50.996587 
L 50.557952 50.923167 
L 50.643021 51.015702 
L 50.58665 50.68322 
L 50.668645 50.915824 
L 50.712717 50.814725 
L 50.735265 51.018527 
L 50.780362 50.893213 
L 50.831609 51.020657 
L 50.852108 50.848094 
L 50.891055 50.893318 
L 50.933078 50.733949 
L 50.990474 51.01194 
L 50.997649 50.999614 
L 51.086818 51.012455 
L 51.043771 50.789267 
L 51.096043 50.910981 
L 51.182137 50.824103 
L 51.194436 51.019388 
L 51.204686 50.965937 
L 51.259007 50.763603 
L 51.248758 51.010667 
L 51.318453 50.944168 
L 51.347152 51.021646 
L 51.363551 50.858524 
L 51.427097 50.91295 
L 51.463994 50.789136 
L 51.45477 51.010033 
L 51.53779 50.907312 
L 51.545989 51.007387 
L 51.620809 50.862589 
L 51.649508 50.981611 
L 51.736627 50.838809 
L 51.698704 51.002348 
L 51.761225 50.96988 
L 51.783774 51.009048 
L 51.854495 50.788442 
L 51.868844 50.944141 
L 51.904716 50.821637 
L 51.887292 51.00394 
L 51.980562 50.903163 
L 52.072806 51.001271 
L 52.034883 50.778533 
L 52.09228 50.976467 
L 52.161975 50.822849 
L 52.196823 51.014262 
L 52.206047 50.868523 
L 52.210147 51.016163 
L 52.228596 50.820396 
L 52.317765 50.903471 
L 52.389511 51.015236 
L 52.340314 50.81412 
L 52.430508 50.942969 
L 52.524802 51.014398 
L 52.47458 50.828661 
L 52.541201 50.934666 
L 52.560675 50.745987 
L 52.546326 51.000479 
L 52.653944 50.931575 
L 52.705191 50.806165 
L 52.768737 51.012435 
L 52.858931 50.833299 
L 52.87943 51.020437 
L 52.9563 50.793982 
L 52.995247 50.95998 
L 53.030095 51.016462 
L 53.088517 50.831426 
L 53.104915 50.954609 
L 53.172561 50.788729 
L 53.139763 51.004001 
L 53.216633 50.923749 
L 53.280179 51.016683 
L 53.306828 50.840506 
L 53.327326 50.943136 
L 53.362174 50.793091 
L 53.340651 51.011938 
L 53.438019 50.934604 
L 53.451344 51.010201 
L 53.494391 50.741488 
L 53.549737 50.968911 
L 53.663505 50.822974 
L 53.566136 51.012451 
L 53.667605 50.936919 
L 53.669655 51.016499 
L 53.733201 50.853451 
L 53.778298 50.943519 
L 53.812121 50.815425 
L 53.860293 51.013707 
L 53.890016 50.924454 
L 53.977135 51.017993 
L 53.949462 50.799198 
L 54.008908 50.965365 
L 54.022232 50.802114 
L 54.030432 51.013119 
L 54.119601 50.9714 
L 54.158549 51.011556 
L 54.167773 50.813379 
L 54.228244 50.927263 
L 54.419907 51.007004 
L 54.238494 50.832455 
L 54.424007 50.86158 
L 54.503952 50.794784 
L 54.439381 51.017647 
L 54.527526 50.992737 
L 54.625919 50.873024 
L 54.5306 51.006813 
L 54.648468 50.969885 
L 54.751986 51.0155 
L 54.685366 50.851113 
L 54.760186 50.994618 
L 54.849355 51.001423 
L 54.768385 50.838973 
L 54.862679 50.932653 
L 54.938525 50.782752 
L 54.922126 51.021359 
L 54.974397 50.923754 
L 55.074841 51.016265 
L 55.034868 50.822294 
L 55.08304 50.885218 
L 55.134287 50.866428 
L 55.155811 51.017689 
L 55.184509 50.955347 
L 55.292127 51.013345 
L 55.241905 50.790452 
L 55.294177 50.938685 
L 55.357723 50.824521 
L 55.315701 51.015555 
L 55.403845 50.971746 
L 55.439718 51.007068 
L 55.486865 50.838755 
L 55.509413 50.93486 
L 55.576034 50.756315 
L 55.599608 51.010763 
L 55.619081 50.970467 
L 55.702101 50.82497 
L 55.634455 51.010082 
L 55.732849 50.897666 
L 55.845592 51.018599 
L 55.819969 50.856998 
L 55.846617 50.985522 
L 55.954235 50.790144 
L 55.934762 51.012482 
L 55.95936 50.89847 
L 56.061853 51.011712 
L 55.997283 50.83843 
L 56.075178 50.963623 
L 56.146923 50.839431 
L 56.118225 51.008716 
L 56.19202 50.940297 
L 56.252491 51.022772 
L 56.206369 50.850763 
L 56.301688 50.94414 
L 56.337561 50.825287 
L 56.376509 51.01195 
L 56.411356 50.976336 
L 56.50565 51.016674 
L 56.43288 50.825911 
L 56.518975 50.929816 
L 56.528199 50.857511 
L 56.591745 51.014354 
L 56.627618 50.966361 
L 56.687064 51.016548 
L 56.695263 50.848966 
L 56.736261 50.909768 
L 56.741385 50.82055 
L 56.75061 51.019516 
L 56.843879 50.986029 
L 56.970971 50.89941 
L 56.857203 51.007919 
L 57.001719 50.998863 
L 57.090888 51.020589 
L 57.025293 50.86164 
L 57.103188 50.921937 
L 57.164684 50.916168 
L 57.126761 51.020107 
L 57.186207 51.010289 
L 57.240529 51.019502 
L 57.198507 50.83025 
L 57.291776 50.957986 
L 57.343022 50.868077 
L 57.399394 51.018283 
L 57.402469 50.954136 
L 57.477289 50.838691 
L 57.406568 50.994377 
L 57.502912 50.99661 
L 57.587982 51.021004 
L 57.544935 50.861542 
L 57.605406 50.909431 
L 57.617705 50.821169 
L 57.658702 51.015261 
L 57.714049 50.927101 
L 57.786819 51.016789 
L 57.813468 50.835974 
L 57.825767 50.925708 
L 57.838066 50.819594 
L 57.86369 51.012135 
L 57.93441 50.979949 
L 57.960033 50.810642 
L 57.973358 51.016076 
L 58.048178 50.931676 
L 58.134272 50.828971 
L 58.099425 51.017068 
L 58.157846 50.947463 
L 58.257265 50.887847 
L 58.161946 50.998989 
L 58.269564 50.948826 
L 58.309536 51.020215 
L 58.327985 50.878728 
L 58.380257 50.947352 
L 58.389481 51.018399 
L 58.483775 50.845449 
L 58.4848 50.835403 
L 58.524773 51.019552 
L 58.578069 50.994388 
L 58.590369 51.021198 
L 58.681588 50.878382 
L 58.782031 51.022011 
L 58.767682 50.861221 
L 58.807655 50.955255 
L 58.827129 50.833753 
L 58.818929 51.019979 
L 58.918348 50.952262 
L 58.95832 51.009875 
L 58.925522 50.878687 
L 59.024941 50.897157 
L 59.034166 50.832328 
L 59.059789 51.020674 
L 59.12846 50.988534 
L 59.227878 51.01558 
L 59.157158 50.821734 
L 59.238128 50.977147 
L 59.339596 50.855208 
L 59.279125 51.015859 
L 59.349846 50.958875 
L 59.385718 51.014029 
L 59.35702 50.813057 
L 59.460539 50.94507 
L 59.51896 50.896286 
L 59.505636 51.021102 
L 59.553808 50.988699 
L 59.554833 51.018882 
L 59.655276 50.853128 
L 59.664501 50.982937 
L 59.701398 51.018038 
L 59.730096 50.811554 
L 59.765969 50.887628 
L 59.768019 50.869116 
L 59.823366 51.018166 
L 59.873587 50.937479 
L 59.929959 51.008061 
L 59.922784 50.861275 
L 59.975056 50.885184 
L 60.021178 50.877611 
L 60.006829 51.00888 
L 60.074475 50.954886 
L 60.145195 51.014269 
L 60.182093 50.878058 
L 60.255888 50.857547 
L 60.200542 51.004817 
L 60.275362 51.011409 
L 60.370681 51.019989 
L 60.285611 50.885006 
L 60.373756 50.962707 
L 60.479324 50.857809 
L 60.412703 51.022056 
L 60.485474 50.92414 
L 60.604366 51.011361 
L 60.525446 50.846364 
L 60.605391 51.001522 
L 60.690461 50.8468 
L 60.643314 51.014833 
L 60.718134 50.956808 
L 60.832927 50.887484 
L 60.746832 51.021668 
L 60.836002 50.921545 
L 60.93747 51.017155 
L 60.899548 50.796757 
L 60.947719 50.952185 
L 60.951819 50.850216 
L 60.988717 51.019536 
L 61.057388 50.999672 
L 61.09941 51.019087 
L 61.094285 50.894267 
L 61.162956 50.945191 
L 61.191654 50.773523 
L 61.206003 51.017067 
L 61.274674 50.87024 
L 61.381267 51.020155 
L 61.284923 50.866658 
L 61.386392 50.921111 
L 61.389467 50.880546 
L 61.430464 51.019378 
L 61.49606 50.939609 
L 61.57293 51.007821 
L 61.525783 50.865612 
L 61.607778 50.936398 
L 61.701047 50.894465 
L 61.614952 51.002925 
L 61.713346 50.971157 
L 61.816865 51.019625 
L 61.801491 50.847719 
L 61.825064 51.002269 
L 61.850687 50.861613 
L 61.845563 51.016771 
L 61.940882 50.915717 
L 61.97163 51.017669 
L 62.004428 50.840074 
L 62.0526 50.942629 
L 62.101797 51.014606 
L 62.063874 50.836061 
L 62.163293 50.958089 
L 62.246312 50.849423 
L 62.185841 51.016036 
L 62.275011 50.923518 
L 62.374429 50.874648 
L 62.294484 51.016606 
L 62.388778 50.884724 
L 62.479998 51.015601 
L 62.503571 50.912084 
L 62.556868 50.830824 
L 62.534319 51.010561 
L 62.611189 50.940025 
L 62.693184 50.870145 
L 62.620414 51.017569 
L 62.717783 50.958475 
L 62.797728 51.011427 
L 62.789528 50.787098 
L 62.828476 50.961732 
L 62.907396 50.853026 
L 62.847949 51.022595 
L 62.941218 50.929399 
L 62.956592 50.878287 
L 62.99349 51.011261 
L 63.025263 51.007211 
L 63.097009 51.01646 
L 63.056011 50.858622 
L 63.124682 50.905919 
L 63.231275 50.850303 
L 63.134931 51.019312 
L 63.23435 50.900895 
L 63.30712 51.01934 
L 63.287647 50.847676 
L 63.346068 50.940588 
L 63.350168 50.853522 
L 63.438312 51.019425 
L 63.458811 50.887601 
L 63.46701 51.00169 
L 63.46906 51.02062 
L 63.537731 50.829838 
L 63.562329 50.924862 
L 63.583853 50.853295 
L 63.600252 50.993659 
L 63.670972 50.944284 
L 63.775516 51.009482 
L 63.691471 50.895445 
L 63.779615 50.928383 
L 63.807289 50.824158 
L 63.824713 51.000102 
L 63.888259 50.973423 
L 63.960004 51.01725 
L 63.914907 50.908244 
L 63.992802 50.932456 
L 64.069672 50.805099 
L 64.031749 51.00426 
L 64.101445 50.977138 
L 64.145517 50.873836 
L 64.148592 50.843125 
L 64.248011 51.017779 
L 64.25416 50.917948 
L 64.358704 50.882088 
L 64.303357 51.01763 
L 64.361779 50.943846 
L 64.443773 51.006936 
L 64.469397 50.878597 
L 64.472472 50.820805 
L 64.504245 51.016837 
L 64.57599 50.974574 
L 64.662085 51.018607 
L 64.674384 50.856241 
L 64.686683 50.968504 
L 64.766628 51.015708 
L 64.748179 50.852445 
L 64.785077 50.902222 
L 64.89167 50.857951 
L 64.82095 51.009345 
L 64.894745 50.91984 
L 64.935742 51.011305 
L 64.908069 50.842962 
L 65.008513 51.00294 
L 65.118181 50.874733 
L 65.011588 51.018223 
L 65.125355 50.974748 
L 65.21555 51.019405 
L 65.145854 50.75413 
L 65.237073 51.010577 
L 65.245273 50.878611 
L 65.359041 50.932466 
L 65.45026 51.017199 
L 65.388764 50.814718 
L 65.468709 50.932091 
L 65.574277 50.870016 
L 65.511756 51.015775 
L 65.578377 50.925311 
L 65.593751 51.016595 
L 65.639873 50.851706 
L 65.690095 50.954542 
L 65.719818 50.844321 
L 65.705469 51.015525 
L 65.806937 50.8768 
L 65.896107 51.016194 
L 65.827436 50.84476 
L 65.918655 50.905856 
L 65.971952 50.860777 
L 65.958628 51.018764 
L 66.028323 50.920307 
L 66.121592 51.013278 
L 66.114418 50.829657 
L 66.137991 50.897846 
L 66.202562 50.877451 
L 66.144141 51.012161 
L 66.217936 50.975126 
L 66.299931 51.019206 
L 66.249709 50.842405 
L 66.324529 50.923913 
L 66.338879 50.869172 
L 66.345028 51.007516 
L 66.429073 50.97451 
L 66.430098 51.011425 
L 66.509018 50.863082 
L 66.540791 51.001913 
L 66.576664 50.890672 
L 66.56129 51.019652 
L 66.652509 50.974149 
L 66.654559 51.00551 
L 66.737578 50.82029 
L 66.761152 50.95434 
L 66.7878 50.870535 
L 66.825723 51.015435 
L 66.869795 50.990095 
L 66.95384 51.014867 
L 66.910792 50.894516 
L 66.961014 50.915255 
L 66.989712 50.876562 
L 66.975363 51.009579 
L 67.064533 50.95146 
L 67.164976 51.014565 
L 67.072732 50.872534 
L 67.173176 50.913291 
L 67.210073 50.820807 
L 67.215198 51.017569 
L 67.284894 50.900809 
L 67.325891 50.868968 
L 67.34229 51.017659 
L 67.384312 50.962348 
L 67.401736 51.015636 
L 67.391487 50.807686 
L 67.49603 51.013248 
L 67.598524 50.8551 
L 67.510379 51.015139 
L 67.607748 50.972616 
L 67.711267 51.014291 
L 67.651821 50.851203 
L 67.714342 50.906015 
L 67.820935 50.869192 
L 67.795311 51.016455 
L 67.82401 50.901447 
L 67.924453 51.009235 
L 67.839384 50.898566 
L 67.936753 50.965694 
L 67.974675 50.839926 
L 67.948027 51.013793 
L 68.049495 50.927809 
L 68.136615 50.886212 
L 68.078194 50.991172 
L 68.13969 50.965 
L 68.140715 51.012465 
L 68.180687 50.866708 
L 68.250383 50.950019 
L 68.314954 50.827081 
L 68.260632 51.011286 
L 68.362101 50.952714 
L 68.373375 51.015699 
L 68.382599 50.853401 
L 68.474843 50.992658 
L 68.556838 50.857366 
L 68.567088 51.012697 
L 68.588611 50.973074 
L 68.655232 51.008227 
L 68.599886 50.935446 
L 68.657282 50.923907 
L 68.661382 50.829716 
L 68.742352 51.006351 
L 68.769 50.887082 
L 68.84177 50.846141 
L 68.801798 51.018064 
L 68.84587 50.961092 
L 68.954513 51.015015 
L 68.908391 50.821123 
L 68.956563 50.979206 
L 68.994486 50.776818 
L 68.979112 51.012272 
L 69.064181 51.00751 
L 69.119528 51.017149 
L 69.085705 50.787387 
L 69.154376 50.896305 
L 69.156425 50.837295 
L 69.260969 51.020844 
L 69.264044 50.9519 
L 69.293767 51.017131 
L 69.329639 50.842965 
L 69.379861 50.981275 
L 69.506953 50.903403 
L 69.386011 50.999604 
L 69.543851 50.984731 
L 69.585873 51.006662 
L 69.578699 50.827571 
L 69.652494 50.958432 
L 69.719115 50.805967 
L 69.671968 51.017056 
L 69.763187 50.961252 
L 69.844157 51.022764 
L 69.865681 50.885782 
L 69.87388 50.951353 
L 69.921027 50.930464 
L 69.925127 50.849516 
L 69.9487 50.8248 
L 69.937426 51.005482 
L 70.028645 50.93272 
L 70.11884 51.011294 
L 70.079892 50.883679 
L 70.142413 50.999046 
L 70.202884 50.870928 
L 70.153687 51.017413 
L 70.254131 50.9856 
L 70.342275 51.004999 
L 70.267455 50.87095 
L 70.346375 50.929533 
L 70.431445 50.869881 
L 70.380198 51.005917 
L 70.458093 50.910888 
L 70.479617 51.01065 
L 70.50524 50.83105 
L 70.568786 50.90529 
L 70.617983 50.784497 
L 70.576986 51.015656 
L 70.676404 50.950165 
L 70.801446 50.992487 
L 70.803496 50.903343 
L 70.805546 50.849979 
L 70.89779 51.016828 
L 70.912139 50.965618 
L 71.004384 51.009796 
L 70.930588 50.899494 
L 71.025907 50.978052 
L 71.102777 50.880556 
L 71.036157 51.011976 
L 71.1366 50.970497 
L 71.200146 51.018573 
L 71.166323 50.848419 
L 71.242168 50.888077 
L 71.279066 50.859334 
L 71.273941 51.017548 
L 71.344662 50.953517 
L 71.439981 51.019564 
L 71.362086 50.832196 
L 71.45023 50.902216 
L 71.540425 50.865425 
L 71.464579 51.009446 
L 71.546574 50.945303 
L 71.632669 51.015086 
L 71.558873 50.823946 
L 71.657267 50.952789 
L 71.715689 50.855121 
L 71.672641 51.020176 
L 71.77001 50.930461 
L 71.829456 51.019202 
L 71.796658 50.842425 
L 71.880703 50.959884 
L 71.961673 50.874564 
L 71.968848 51.022052 
L 71.991396 50.96238 
L 72.032394 50.819851 
L 71.996521 51.007274 
L 72.111314 50.946243 
L 72.169735 51.014 
L 72.148211 50.859402 
L 72.223031 50.99514 
L 72.259929 50.837063 
L 72.255829 51.012829 
L 72.337824 50.851164 
L 72.439293 51.000889 
L 72.456717 50.991917 
L 72.562285 50.896803 
L 72.599183 50.991641 
L 72.683227 51.015568 
L 72.678103 50.865676 
L 72.706801 50.982686 
L 72.768297 50.871401 
L 72.747798 51.020674 
L 72.819544 50.907423 
L 72.912813 51.022237 
L 72.844142 50.827563 
L 72.933312 50.979429 
L 73.000957 50.868832 
L 72.95381 51.023241 
L 73.045029 50.91523 
L 73.091152 51.01865 
L 73.128049 50.871172 
L 73.158797 50.981233 
L 73.257191 50.878479 
L 73.170072 51.018979 
L 73.27359 50.914284 
L 73.371984 51.019579 
L 73.317662 50.854963 
L 73.386333 50.98629 
L 73.444754 50.847379 
L 73.492926 51.018049 
L 73.497026 50.982439 
L 73.505225 50.885909 
L 73.5083 50.805899 
L 73.543148 51.005681 
L 73.614893 50.931323 
L 73.669215 50.872016 
L 73.630267 51.017488 
L 73.722512 50.968821 
L 73.814756 51.018126 
L 73.787083 50.844073 
L 73.835255 50.997304 
L 73.888551 50.800896 
L 73.939798 51.014476 
L 73.946972 50.993483 
L 74.001294 50.83543 
L 73.969521 51.019065 
L 74.06074 50.960114 
L 74.138635 51.010746 
L 74.093538 50.892488 
L 74.170408 50.949532 
L 74.264702 50.892336 
L 74.196032 51.010525 
L 74.283151 50.927453 
L 74.38872 51.014637 
L 74.375395 50.894334 
L 74.390769 50.926781 
L 74.393844 50.821058 
L 74.403069 51.017524 
L 74.501462 50.936624 
L 74.573208 50.869561 
L 74.569108 51.019128 
L 74.606006 50.960831 
L 74.684926 51.010991 
L 74.657253 50.817016 
L 74.715674 50.937069 
L 74.794594 50.835587 
L 74.753596 51.007759 
L 74.826367 50.94376 
L 74.93091 50.850198 
L 74.86224 51.015085 
L 74.93501 50.96417 
L 75.043653 51.021318 
L 74.964733 50.87906 
L 75.045703 50.978643 
L 75.163571 50.802115 
L 75.083626 51.012187 
L 75.16562 50.814752 
L 75.230191 51.013624 
L 75.282463 50.941577 
L 75.336785 50.84749 
L 75.299887 51.015217 
L 75.394181 50.917389 
L 75.479251 51.016386 
L 75.443378 50.824125 
L 75.513073 50.947201 
L 75.583794 50.770935 
L 75.612492 51.019394 
L 75.620692 50.98954 
L 75.716011 51.00791 
L 75.675013 50.853536 
L 75.731385 50.979242 
L 75.749833 50.900525 
L 75.781606 51.0142 
L 75.841053 50.980614 
L 75.878975 51.01293 
L 75.931247 50.868403 
L 75.951746 50.989538 
L 76.03989 50.876217 
L 75.985569 51.015364 
L 76.065513 50.969894 
L 76.176206 51.01611 
L 76.170057 50.894639 
L 76.177231 51.001556 
L 76.292024 50.844925 
L 76.185431 51.017427 
L 76.295099 50.913963 
L 76.336096 51.014436 
L 76.366844 50.823629 
L 76.407842 51.010141 
L 76.487787 50.847357 
L 76.499061 51.019303 
L 76.51956 50.96105 
L 76.593355 50.864008 
L 76.565682 51.010852 
L 76.630253 50.96878 
L 76.726597 51.019683 
L 76.641527 50.89925 
L 76.737871 50.950517 
L 76.822941 50.862296 
L 76.76042 51.016146 
L 76.848564 50.959289 
L 76.932609 51.013521 
L 76.926459 50.869266 
L 76.943883 50.918695 
L 76.970531 50.864885 
L 76.987955 51.015663 
L 77.051501 50.98781 
L 77.109922 50.841595 
L 77.06585 51.018095 
L 77.168344 50.972529 
L 77.170394 51.020044 
L 77.211391 50.830428 
L 77.279037 50.983402 
L 77.325159 50.843521 
L 77.361032 51.021805 
L 77.39178 50.893605 
L 77.505547 51.016114 
L 77.423553 50.876556 
L 77.513747 50.941576 
L 77.615215 50.839562 
L 77.556794 51.017246 
L 77.62444 50.927473 
L 77.732058 51.000634 
L 77.639814 50.883429 
L 77.735133 50.93954 
L 77.838651 50.858011 
L 77.760756 51.018545 
L 77.843776 50.952853 
L 77.902197 51.019882 
L 77.880674 50.883546 
L 77.952419 50.915249 
L 78.044663 50.861793 
L 78.040564 51.017536 
L 78.063112 50.921437 
L 78.150232 51.011949 
L 78.159456 50.86973 
L 78.164581 50.878722 
L 78.272199 50.853219 
L 78.235301 51.015615 
L 78.274249 50.89873 
L 78.379817 51.014911 
L 78.284498 50.877606 
L 78.384942 50.899334 
L 78.465912 50.865655 
L 78.427989 51.002477 
L 78.48641 50.95063 
L 78.56738 51.015615 
L 78.504859 50.908407 
L 78.596078 50.92968 
L 78.599153 50.893287 
L 78.684223 51.02097 
L 78.705747 50.931602 
L 78.782617 51.017309 
L 78.787741 50.852281 
L 78.817464 50.943049 
L 78.919958 50.822083 
L 78.88101 51.019427 
L 78.926108 50.975815 
L 79.033726 51.012804 
L 78.931232 50.844253 
L 79.036801 50.984251 
L 79.082923 50.866755 
L 79.052175 51.020062 
L 79.149543 50.963241 
L 79.256137 50.875202 
L 79.160818 51.013603 
L 79.261261 50.947439 
L 79.293034 51.019553 
L 79.27766 50.827755 
L 79.372979 51.004474 
L 79.397578 50.868698 
L 79.401677 51.01457 
L 79.485722 50.977877 
L 79.548243 51.021522 
L 79.517495 50.927379 
L 79.577966 50.913136 
L 79.648687 50.890123 
L 79.628188 51.008529 
L 79.688659 50.908915 
L 79.774754 51.006054 
L 79.697884 50.879338 
L 79.809602 50.986805 
L 79.813701 50.854922 
L 79.879297 51.015273 
L 79.92132 50.937153 
L 80.013564 50.896303 
L 79.938744 51.013884 
L 80.018688 50.984432 
L 80.127332 51.01358 
L 80.093509 50.893234 
L 80.129381 50.977861 
L 80.159105 50.842904 
L 80.170379 51.013802 
L 80.242124 50.951725 
L 80.337443 51.010276 
L 80.331294 50.876991 
L 80.346668 50.91379 
L 80.429687 50.898619 
L 80.350767 50.986243 
L 80.446086 50.965444 
L 80.54858 51.01701 
L 80.485034 50.835268 
L 80.556779 50.973881 
L 80.659273 50.879804 
L 80.661323 50.845215 
L 80.70232 51.012399 
L 80.766891 50.964528 
L 80.836587 51.006311 
L 80.782265 50.9204 
L 80.874509 50.956522 
L 80.968803 50.894946 
L 80.911407 51.019942 
L 80.985202 50.948415 
L 81.078471 50.836039 
L 81.097945 51.010173 
L 81.203514 50.859302 
L 81.144067 51.017375 
L 81.212738 50.951344 
L 81.291658 51.017711 
L 81.229137 50.876132 
L 81.325481 50.963499 
L 81.382877 50.882665 
L 81.367503 51.011341 
L 81.437199 50.951673 
L 81.505869 51.021773 
L 81.518169 50.893168 
L 81.553016 51.012779 
L 81.637061 50.892081 
L 81.616562 51.021144 
L 81.669859 50.930115 
L 81.766203 51.015276 
L 81.770303 50.842594 
L 81.785677 50.988372 
L 81.799001 50.885496 
L 81.81335 51.014478 
L 81.900469 50.907518 
L 81.966065 51.011947 
L 82.001938 50.888316 
L 82.019362 51.002295 
L 82.041911 50.899861 
L 82.134155 50.856869 
L 82.079833 51.02136 
L 82.149529 50.929514 
L 82.162853 51.011855 
L 82.245873 50.844432 
L 82.261247 50.968217 
L 82.347341 50.844496 
L 82.307369 51.019752 
L 82.375014 50.932241 
L 82.479558 51.016279 
L 82.459059 50.867124 
L 82.500057 50.985083 
L 82.505181 51.019692 
L 82.509281 50.870671 
L 82.565652 50.828509 
L 82.522605 51.014984 
L 82.613824 50.955022 
L 82.644572 51.015315 
L 82.712218 50.877227 
L 82.722467 50.927614 
L 82.808562 51.010853 
L 82.781914 50.831011 
L 82.83726 50.946218 
L 82.864933 50.872772 
L 82.906956 51.019725 
L 82.943853 50.984155 
L 83.043272 51.013608 
L 82.99715 50.898336 
L 83.046347 50.936612 
L 83.141666 50.892774 
L 83.077095 51.012431 
L 83.15704 50.919577 
L 83.268758 51.020718 
L 83.228785 50.829605 
L 83.269783 50.999582 
L 83.343578 50.791429 
L 83.367152 51.020384 
L 83.381501 50.950195 
L 83.419423 51.020725 
L 83.404049 50.84496 
L 83.493219 50.983288 
L 83.674632 50.888104 
L 83.684882 50.993387 
L 83.685907 51.019029 
L 83.751502 50.917456 
L 83.7925 50.922572 
L 83.904218 51.018589 
L 83.833497 50.902417 
L 83.910367 50.947874 
L 83.964689 50.81659 
L 83.958539 51.016828 
L 84.02106 50.960482 
L 84.063083 50.830303 
L 84.067182 51.005787 
L 84.128679 50.990629 
L 84.230147 51.014254 
L 84.190175 50.857219 
L 84.233222 50.955562 
L 84.275244 50.890778 
L 84.313167 51.020324 
L 84.343915 50.964267 
L 84.442309 50.874633 
L 84.391062 51.011928 
L 84.456658 50.947526 
L 84.559151 51.021197 
L 84.50278 50.843379 
L 84.569401 50.980521 
L 84.617573 50.88762 
L 84.591949 51.012093 
L 84.678044 50.994585 
L 84.757989 51.014251 
L 84.692393 50.84746 
L 84.779512 50.915994 
L 84.781562 50.870666 
L 84.811285 51.018347 
L 84.888156 50.961455 
L 84.935303 51.01993 
L 84.909679 50.851125 
L 84.998849 50.951496 
L 85.024472 50.876434 
L 85.05112 51.012768 
L 85.106467 50.953683 
L 85.116716 51.020987 
L 85.181287 50.842994 
L 85.216135 50.927213 
L 85.307354 51.014501 
L 85.231509 50.880528 
L 85.322728 50.899589 
L 85.428296 50.854912 
L 85.37295 50.998633 
L 85.431371 50.900211 
L 85.439571 51.021883 
L 85.45187 50.89174 
L 85.545139 50.994949 
L 85.650707 50.901066 
L 85.631234 51.01881 
L 85.656857 50.935933 
L 85.751151 51.004686 
L 85.717328 50.848583 
L 85.760375 50.881561 
L 85.762425 50.825233 
L 85.84852 51.007905 
L 85.870043 50.920475 
L 85.903866 51.012787 
L 85.970487 50.862391 
L 85.980736 50.913646 
L 86.093479 51.013284 
L 86.049407 50.891471 
L 86.101679 50.957012 
L 86.16625 50.892142 
L 86.150876 51.013089 
L 86.210322 50.967351 
L 86.31384 51.019353 
L 86.226721 50.865648 
L 86.323065 50.998237 
L 86.364062 50.865181 
L 86.401985 51.018532 
L 86.436833 50.964569 
L 86.504478 51.017747 
L 86.539326 50.858765 
L 86.541376 50.832766 
L 86.600822 51.017556 
L 86.644894 50.97356 
L 86.753538 51.011747 
L 86.672568 50.866005 
L 86.758662 51.001251 
L 86.815034 50.829062 
L 86.767887 51.013359 
L 86.881654 50.956142 
L 86.985173 51.018143 
L 86.961599 50.879872 
L 86.992347 50.959917 
L 87.102016 50.858263 
L 87.021046 51.020274 
L 87.123539 50.969684 
L 87.202459 51.022133 
L 87.212709 50.899372 
L 87.233207 50.962568 
L 87.272155 50.8322 
L 87.289579 51.0142 
L 87.3439 50.954328 
L 87.379773 51.018693 
L 87.42487 50.865808 
L 87.453568 50.947626 
L 87.508915 50.828349 
L 87.50174 51.022259 
L 87.565286 50.928379 
L 87.670855 51.013084 
L 87.615508 50.805957 
L 87.677004 50.976908 
L 87.787697 51.012121 
L 87.715952 50.888216 
L 87.788722 50.976756 
L 87.805121 50.88146 
L 87.853293 51.0182 
L 87.899415 50.983323 
L 87.952712 51.005963 
L 87.959886 50.881355 
L 87.969111 50.899108 
L 88.072629 50.846096 
L 88.027532 51.018434 
L 88.076729 50.942148 
L 88.158724 51.013659 
L 88.113627 50.861984 
L 88.186397 50.916384 
L 88.258142 50.900428 
L 88.225344 51.016058 
L 88.291965 50.952549 
L 88.353461 51.004392 
L 88.37806 50.864233 
L 88.399583 50.937618 
L 88.420082 50.836343 
L 88.479528 51.013862 
L 88.509252 50.955186 
L 88.582022 51.022726 
L 88.53795 50.865331 
L 88.619945 50.948297 
L 88.638393 50.866909 
L 88.719363 51.019809 
L 88.730638 50.951422 
L 88.784959 51.017144 
L 88.780859 50.86002 
L 88.836206 50.912398 
L 88.85363 50.852427 
L 88.841331 51.006544 
L 88.916151 51.011189 
L 88.986871 51.011884 
L 88.92435 50.907425 
L 89.004295 50.936083 
L 89.00737 50.825709 
L 89.087315 51.010434 
L 89.114988 50.953752 
L 89.174434 51.009915 
L 89.124213 50.861553 
L 89.225681 50.965229 
L 89.308701 50.8696 
L 89.282053 51.019679 
L 89.338424 50.953121 
L 89.423494 51.003367 
L 89.384546 50.89803 
L 89.446042 50.947854 
L 89.472691 50.864391 
L 89.516763 51.009811 
L 89.556735 50.941833 
L 89.611057 51.015615 
L 89.56186 50.919294 
L 89.666403 50.952532 
L 89.727899 50.802095 
L 89.681777 51.012086 
L 89.775046 50.992446 
L 89.857041 51.018294 
L 89.79452 50.853458 
L 89.878565 50.92496 
L 89.945186 50.87836 
L 89.912388 51.017945 
L 89.977984 50.986734 
L 90.007707 51.017739 
L 90.061003 50.846115 
L 90.087652 50.942408 
L 90.139923 51.018726 
L 90.171696 50.886163 
L 90.19937 50.968855 
L 90.273165 50.89082 
L 90.257791 51.015243 
L 90.312113 50.943787 
L 90.390008 51.011139 
L 90.34491 50.865367 
L 90.426905 50.97402 
L 90.481227 50.838172 
L 90.43408 51.015712 
L 90.529399 51.000288 
L 90.58987 51.01469 
L 90.616518 50.880749 
L 90.637017 50.945726 
L 90.727211 50.906459 
L 90.659566 51.014282 
L 90.746685 50.955711 
L 90.812281 51.022044 
L 90.773333 50.87721 
L 90.857378 50.973548 
L 90.883001 50.821705 
L 90.876852 51.017216 
L 90.969096 50.95349 
L 91.06749 51.018389 
L 91.06134 50.873644 
L 91.079789 50.968444 
L 91.180233 50.936483 
L 91.082864 51.007645 
L 91.187407 51.004277 
L 91.270427 51.005609 
L 91.242754 50.864984 
L 91.277601 50.933764 
L 91.340123 50.874123 
L 91.336023 51.016599 
L 91.38727 50.950079 
L 91.521536 51.021188 
L 91.447741 50.867439 
L 91.522561 51.012737 
L 91.576883 50.873756 
L 91.586107 51.020954 
L 91.638379 50.963713 
L 91.712174 50.893076 
L 91.674251 51.019305 
L 91.750097 50.948292 
L 91.843366 51.016166 
L 91.822867 50.884886 
L 91.861815 50.986662 
L 91.916136 50.850567 
L 91.879238 51.013606 
L 91.970458 50.977038 
L 92.065777 51.015901 
L 92.01248 50.892823 
L 92.081151 50.971729 
L 92.193894 50.865543 
L 92.101649 51.015011 
L 92.195943 50.923946 
L 92.264614 51.022698 
L 92.303562 50.899939 
L 92.307661 50.981432 
L 92.351734 51.022453 
L 92.392731 50.843379 
L 92.419379 50.994764 
L 92.500349 51.021681 
L 92.533147 50.900028 
L 92.580294 51.019558 
L 92.64589 50.928615 
L 92.676638 50.78621 
L 92.715586 51.014952 
L 92.754533 50.959246 
L 92.789381 50.830362 
L 92.761708 51.005398 
L 92.869326 50.960503 
L 92.958495 51.0127 
L 92.926722 50.910888 
L 92.981044 50.98125 
L 93.016916 50.867878 
L 93.077388 51.013009 
L 93.091737 50.986008 
L 93.157333 51.018 
L 93.12146 50.882518 
L 93.19833 50.921305 
L 93.302873 50.874344 
L 93.296724 51.016463 
L 93.307998 50.930927 
L 93.408442 51.014345 
L 93.355145 50.871938 
L 93.421766 50.991388 
L 93.512985 50.87335 
L 93.475063 51.021079 
L 93.532459 50.988376 
L 93.611379 51.014228 
L 93.582681 50.867891 
L 93.641102 50.964482 
L 93.739496 50.99617 
L 93.648277 50.898816 
L 93.741546 50.941255 
L 93.804067 50.872727 
L 93.747695 51.014581 
L 93.853264 50.903862 
L 93.918859 51.017085 
L 93.859413 50.892619 
L 93.966006 50.975027 
L 94.079774 50.889882 
L 93.98138 51.010896 
L 94.093098 50.954918 
L 94.201742 51.018099 
L 94.14537 50.868079 
L 94.206866 50.989046 
L 94.221215 50.842111 
L 94.243764 51.016325 
L 94.319609 50.951395 
L 94.412878 51.016632 
L 94.353432 50.885162 
L 94.432352 50.966456 
L 94.466175 50.825356 
L 94.470275 51.019583 
L 94.545095 50.930917 
L 94.589167 50.872034 
L 94.554319 51.022289 
L 94.637339 50.982376 
L 94.69781 51.022151 
L 94.681411 50.870455 
L 94.702935 50.980731 
" clip-path="url(#pd013b844ee)" style="fill: none; stroke: #7f7f7f; stroke-width: 0.5; stroke-linecap: square"/>
   </g>
  </g>
 </g>
 <defs>
  <clipPath id="pd013b844ee">
   <rect x="0" y="-0" width="99.212598" height="51.023622"/>
  </clipPath>
 </defs>
</svg>
