<?xml version="1.0" encoding="utf-8" standalone="no"?>
<!DOCTYPE svg PUBLIC "-//W3C//DTD SVG 1.1//EN"
  "http://www.w3.org/Graphics/SVG/1.1/DTD/svg11.dtd">
<svg xmlns:xlink="http://www.w3.org/1999/xlink" width="99.212598pt" height="51.023622pt" viewBox="0 0 99.212598 51.023622" xmlns="http://www.w3.org/2000/svg" version="1.1">
 <metadata>
  <rdf:RDF xmlns:dc="http://purl.org/dc/elements/1.1/" xmlns:cc="http://creativecommons.org/ns#" xmlns:rdf="http://www.w3.org/1999/02/22-rdf-syntax-ns#">
   <cc:Work>
    <dc:type rdf:resource="http://purl.org/dc/dcmitype/StillImage"/>
    <dc:date>2024-10-31T23:12:50.571825</dc:date>
    <dc:format>image/svg+xml</dc:format>
    <dc:creator>
     <cc:Agent>
      <dc:title>Matplotlib v3.8.4, https://matplotlib.org/</dc:title>
     </cc:Agent>
    </dc:creator>
   </cc:Work>
  </rdf:RDF>
 </metadata>
 <defs>
  <style type="text/css">*{stroke-linejoin: round; stroke-linecap: butt}</style>
 </defs>
 <g id="figure_1">
  <g id="patch_1">
   <path d="M 0 51.023622 
L 99.212598 51.023622 
L 99.212598 0 
L 0 0 
L 0 51.023622 
z
" style="fill: none"/>
  </g>
  <g id="axes_1">
   <g id="patch_2">
    <path d="M 0 51.023622 
L 99.212598 51.023622 
L 99.212598 -0 
L 0 -0 
L 0 51.023622 
z
" style="fill: none"/>
   </g>
   <g id="matplotlib.axis_1">
    <g id="xtick_1"/>
    <g id="xtick_2"/>
   </g>
   <g id="matplotlib.axis_2">
    <g id="ytick_1"/>
    <g id="ytick_2"/>
   </g>
   <g id="line2d_1">
    <path d="M 4.509664 1.656026 
L 4.516838 1.757716 
L 4.529137 1.169712 
L 4.549636 0 
L 4.577309 5.757728 
L 4.706451 40.157793 
L 4.756673 39.230403 
L 4.779222 35.652455 
L 4.794596 33.152696 
L 4.854042 44.700948 
L 5.002657 48.307741 
L 4.909388 42.828964 
L 5.017006 47.809644 
L 5.081577 43.225813 
L 5.137949 47.126346 
L 5.262991 48.62184 
L 5.269141 48.337276 
L 5.289639 46.585003 
L 5.366509 49.517031 
L 5.372659 49.587867 
L 5.393158 48.166763 
L 5.414681 46.580803 
L 5.489502 49.442622 
L 5.496676 49.030773 
L 5.519225 47.977117 
L 5.59917 49.177352 
L 5.609419 48.884856 
L 5.700638 48.140151 
L 5.640167 50.10008 
L 5.721137 48.830799 
L 5.760084 50.161269 
L 5.806207 48.375597 
L 5.83798 49.195034 
L 5.883077 48.272907 
L 5.909725 49.912638 
L 5.960972 48.415929 
L 5.977371 48.61341 
L 6.054241 50.761351 
L 6.115737 49.101092 
L 6.120862 49.003146 
L 6.213106 49.362606 
L 6.221305 49.300478 
L 6.245904 48.506094 
L 6.275627 50.138812 
L 6.306375 49.743831 
L 6.313549 50.770554 
L 6.329948 49.397351 
L 6.415018 49.466808 
L 6.47139 49.160635 
L 6.507262 49.972986 
L 6.519561 50.83743 
L 6.599506 48.975912 
L 6.606681 48.69638 
L 6.644604 50.424785 
L 6.694825 50.061816 
L 6.764521 50.504141 
L 6.733773 49.170993 
L 6.800394 50.012257 
L 6.858815 48.746949 
L 6.837291 50.766471 
L 6.911087 49.921082 
L 7.037154 50.732152 
L 7.041253 50.637679 
L 7.152971 48.274671 
L 7.127348 50.673534 
L 7.168345 49.805951 
L 7.176545 50.895379 
L 7.257515 49.752638 
L 7.282113 50.338871 
L 7.317986 50.804185 
L 7.32926 49.656127 
L 7.428679 48.334872 
L 7.358983 50.851043 
L 7.442003 49.367503 
L 7.49735 50.856655 
L 7.567045 50.576519 
L 7.575245 50.650029 
L 7.626491 49.804058 
L 7.735135 49.400494 
L 7.684913 50.701539 
L 7.742309 49.523559 
L 7.876576 50.586118 
L 7.8817 50.550506 
L 8.018017 48.860601 
L 7.963695 50.821244 
L 8.048765 49.752614 
L 8.166632 51.008675 
L 8.175857 50.908643 
L 8.264001 49.932072 
L 8.277325 50.938557 
L 8.27835 50.993043 
L 8.300899 50.147742 
L 8.380844 50.583546 
L 8.407492 50.09282 
L 8.501786 50.410622 
L 8.532534 50.806859 
L 8.576606 50.277126 
L 8.606329 50.345634 
L 8.654501 49.350628 
L 8.705748 50.71637 
L 8.711898 50.657669 
L 8.801067 50.576919 
L 8.778519 50.912094 
L 8.815416 50.747928 
L 8.83284 50.81523 
L 8.844114 50.458825 
L 8.890237 49.63896 
L 8.912785 50.847957 
L 8.948658 50.684884 
L 8.974281 50.819136 
L 9.053201 50.340944 
L 9.066525 50.103286 
L 9.153645 50.582959 
L 9.163894 50.993761 
L 9.252039 50.059741 
L 9.292011 49.787925 
L 9.265363 50.741306 
L 9.343258 50.671827 
L 9.404754 50.931023 
L 9.382205 50.42583 
L 9.454976 50.734742 
L 9.46625 50.878404 
L 9.528771 50.450137 
L 9.580018 50.302968 
L 9.590267 50.860084 
L 9.623065 50.688391 
L 9.62614 51.014252 
L 9.674312 49.931048 
L 9.734783 50.823827 
L 9.761431 49.884015 
L 9.849576 50.694909 
L 9.918247 51.004245 
L 9.927471 50.308009 
L 9.954119 50.455937 
L 9.987942 49.78537 
L 10.033039 50.953006 
L 10.063787 50.524004 
L 10.121184 50.899143 
L 10.179605 50.592645 
L 10.256475 50.44839 
L 10.197029 50.994603 
L 10.277999 50.888035 
L 10.311822 50.960244 
L 10.324121 49.971135 
L 10.372293 50.344244 
L 10.380492 50.211126 
L 10.41944 50.878169 
L 10.475811 50.524699 
L 10.580355 50.217089 
L 10.558831 50.950607 
L 10.587529 50.467135 
L 10.701297 51.008837 
L 10.664399 50.344117 
L 10.704372 50.948245 
L 10.721796 50.178445 
L 10.830439 50.444196 
L 10.854012 50.344393 
L 10.866312 50.543992 
L 10.968805 50.983912 
L 10.898085 50.147406 
L 10.97803 50.576945 
L 10.991354 50.374557 
L 11.032351 50.98661 
L 11.077448 50.742262 
L 11.081548 50.928932 
L 11.094872 50.077956 
L 11.186091 50.680946 
L 11.254762 50.518576 
L 11.227089 50.894436 
L 11.28346 50.814694 
L 11.333682 51.003909 
L 11.313183 50.094557 
L 11.391078 50.760961 
L 11.504846 50.106508 
L 11.409527 51.011453 
L 11.509971 50.237151 
L 11.547893 50.885771 
L 11.604265 50.171554 
L 11.621689 50.279635 
L 11.629888 50.255641 
L 11.639113 50.390146 
L 11.75698 51.007989 
L 11.76313 50.771554 
L 11.871773 49.943645 
L 11.805152 50.999645 
L 11.883047 50.477119 
L 11.99989 50.984011 
L 12.00194 50.957118 
L 12.060361 50.402586 
L 12.114683 50.89736 
L 12.173104 50.983055 
L 12.16183 50.393517 
L 12.208977 50.537335 
L 12.301221 49.976211 
L 12.278672 51.019874 
L 12.32172 50.48604 
L 12.334019 50.996423 
L 12.406789 50.216756 
L 12.434462 50.557977 
L 12.496983 50.355605 
L 12.453936 50.99551 
L 12.536956 50.787508 
L 12.628175 51.005071 
L 12.614851 50.496123 
L 12.6374 50.594307 
L 12.648674 50.157801 
L 12.71427 51.017025 
L 12.745018 50.771863 
L 12.765516 51.010715 
L 12.843412 50.519223 
L 12.845461 50.497636 
L 12.910032 50.99079 
L 12.923356 50.913269 
L 13.02175 50.997953 
L 12.938731 50.271353 
L 13.028925 50.640919 
L 13.124244 50.042933 
L 13.039174 50.957153 
L 13.142693 50.578146 
L 13.254411 50.970639 
L 13.204189 50.537866 
L 13.263635 50.741443 
L 13.302583 50.24199 
L 13.330256 51.011337 
L 13.383552 50.515787 
L 13.409176 50.969967 
L 13.492196 50.399011 
L 13.49322 50.3945 
L 13.50347 50.823768 
L 13.575215 50.968186 
L 13.516794 50.548344 
L 13.611088 50.664719 
L 13.724856 51.012857 
L 13.684883 50.514634 
L 13.739205 50.925153 
L 13.8171 50.254171 
L 13.770978 50.9998 
L 13.851948 50.806063 
L 13.958541 50.903965 
L 13.914469 50.216346 
L 13.962641 50.837985 
L 13.980065 50.546606 
L 14.040536 50.948816 
L 14.080508 50.713342 
L 14.172752 50.928723 
L 14.133805 50.513795 
L 14.185052 50.573176 
L 14.2117 50.294216 
L 14.195301 50.914405 
L 14.225024 50.814343 
L 14.333667 51.012612 
L 14.241423 50.618478 
L 14.336742 50.876439 
L 14.441286 50.597331 
L 14.348016 50.947635 
L 14.45051 50.771927 
L 14.547879 50.952842 
L 14.484333 50.319642 
L 14.556078 50.612748 
L 14.642173 50.27668 
L 14.586826 50.992812 
L 14.651397 50.784184 
L 14.675996 50.988192 
L 14.734417 50.343022 
L 14.75799 50.519359 
L 14.779514 50.310402 
L 14.834861 51.004424 
L 14.865609 50.611252 
L 14.890207 50.977365 
L 14.958878 50.511318 
L 15.008075 50.449297 
L 14.982451 51.01959 
L 15.040873 50.816418 
L 15.054197 50.980951 
L 15.069571 50.367654 
L 15.153615 50.853029 
L 15.248934 50.51902 
L 15.177189 51.008867 
L 15.267383 50.721393 
L 15.346303 50.420219 
L 15.32068 50.785383 
L 15.388326 50.620091 
L 15.459046 50.952678 
L 15.425223 50.490306 
L 15.506193 50.807033 
L 15.603562 50.421109 
L 15.568714 50.986917 
L 15.612786 50.813257 
L 15.714255 50.959702 
L 15.657884 50.327119 
L 15.723479 50.858134 
L 15.787025 50.705613 
L 15.812649 50.988605 
L 15.835197 50.842675 
L 15.849546 51.000685 
L 15.885419 50.731566 
L 15.968439 50.602394 
L 15.902843 50.986699 
L 15.992012 50.809253 
L 16.070932 51.002902 
L 16.039159 50.461213 
L 16.102705 50.803708 
L 16.172401 50.529471 
L 16.141653 50.908976 
L 16.218523 50.629676 
L 16.285144 51.00355 
L 16.314867 50.59001 
L 16.336391 50.672386 
L 16.441959 50.497701 
L 16.392762 50.984372 
L 16.448109 50.599608 
L 16.50858 50.993592 
L 16.537278 50.442325 
L 16.556752 50.548948 
L 16.562901 50.479082 
L 16.636697 50.993603 
L 16.644896 50.951206 
L 16.65617 51.013763 
L 16.682819 50.765888 
L 16.728941 50.803399 
L 16.811961 50.779575 
L 16.802736 51.008504 
L 16.82426 50.919496 
L 16.893955 51.019573 
L 16.853983 50.609997 
L 16.911379 50.777936 
L 17.007723 50.57324 
L 16.98005 50.993021 
L 17.021047 50.793153 
L 17.081519 50.87731 
L 17.094843 50.665009 
L 17.117391 50.692822 
L 17.174788 50.621511 
L 17.204511 50.92679 
L 17.207586 50.955828 
L 17.223985 50.607104 
L 17.296755 50.683047 
L 17.356201 50.35097 
L 17.320328 50.985429 
L 17.3767 50.876745 
L 17.480218 50.345943 
L 17.425897 50.999869 
L 17.494567 50.828505 
L 17.582712 50.993202 
L 17.566313 50.728243 
L 17.606285 50.85601 
L 17.616535 50.920865 
L 17.628834 50.733212 
L 17.738502 50.461392 
L 17.703654 51.018258 
L 17.744652 50.63019 
L 17.798973 50.997298 
L 17.784624 50.533218 
L 17.85637 50.683263 
L 17.857394 50.676002 
L 17.92299 50.993505 
L 17.92709 50.960691 
L 17.991661 50.996128 
L 17.959888 50.594311 
L 18.022409 50.733186 
L 18.132077 50.571082 
L 18.060332 50.972255 
L 18.137202 50.648409 
L 18.190498 50.542565 
L 18.258144 50.998295 
L 18.298117 50.427828 
L 18.381136 50.861829 
L 18.403685 51.006698 
L 18.421109 50.492819 
L 18.491829 50.911877 
L 18.579974 50.717265 
L 18.568699 50.990968 
L 18.604572 50.870889 
L 18.668118 50.994106 
L 18.64352 50.601361 
L 18.682467 50.689105 
L 18.688617 50.469736 
L 18.72039 50.97305 
L 18.790085 50.860357 
L 18.806484 50.997394 
L 18.819809 50.741661 
L 18.828008 50.801944 
L 18.834158 50.459157 
L 18.848507 50.991225 
L 18.939726 50.739277 
L 18.962275 51.017651 
L 19.020696 50.656522 
L 19.057594 50.853478 
L 19.072968 50.737416 
L 19.113965 50.962319 
L 19.167262 50.873638 
L 19.178536 50.604849 
L 19.247207 50.984181 
L 19.280005 50.851561 
L 19.386598 50.994288 
L 19.35175 50.584551 
L 19.389673 50.862683 
L 19.411196 50.611357 
L 19.43272 50.979059 
L 19.500366 50.866313 
L 19.522914 51.005964 
L 19.589535 50.714813 
L 19.604909 50.787696 
L 19.691004 50.692792 
L 19.651031 50.909379 
L 19.699203 50.90749 
L 19.701253 51.000845 
L 19.797597 50.654944 
L 19.809896 50.940454 
L 19.83347 50.541604 
L 19.909315 51.010589 
L 19.917514 50.967547 
L 19.946212 51.009464 
L 19.98311 50.678031 
L 20.016933 50.687758 
L 20.021033 50.649444 
L 20.073304 51.017833 
L 20.118401 50.82452 
L 20.222945 50.991771 
L 20.193222 50.691914 
L 20.231144 50.854023 
L 20.338763 50.571527 
L 20.308014 50.919824 
L 20.344912 50.804568 
L 20.384885 51.007618 
L 20.402309 50.621844 
L 20.455605 50.807203 
L 20.545799 51.001378 
L 20.489428 50.62273 
L 20.569373 50.914362 
L 20.684166 50.607222 
L 20.641118 51.014756 
L 20.692365 50.740204 
L 20.703639 51.01503 
L 20.782559 50.646565 
L 20.805108 50.779234 
L 20.817407 50.643666 
L 20.864554 51.008102 
L 20.907602 50.895265 
L 20.960898 51.01763 
L 20.945524 50.613926 
L 21.008045 50.691473 
L 21.023419 51.006291 
L 21.134112 50.860396 
L 21.197658 50.577659 
L 21.220207 50.996627 
L 21.244805 50.860942 
L 21.296052 50.998808 
L 21.310401 50.637275 
L 21.340124 50.702688 
L 21.39957 50.678165 
L 21.375997 50.988568 
L 21.438518 50.815115 
L 21.510263 51.009721 
L 21.495914 50.683239 
L 21.541012 50.772356 
L 21.546136 50.709095 
L 21.618907 50.990222 
L 21.651705 50.753573 
L 21.770597 51.015751 
L 21.679378 50.712881 
L 21.774697 50.923957 
L 21.80442 50.599293 
L 21.786996 51.001716 
L 21.88744 50.854676 
L 21.892564 50.958827 
L 21.985833 50.700621 
L 21.996083 50.821199 
L 22.011457 50.772901 
L 22.040155 50.975269 
L 22.097551 50.901383 
L 22.147773 50.919387 
L 22.166222 50.704596 
L 22.170322 50.706322 
L 22.208244 50.890432 
L 22.317912 50.983517 
L 22.251292 50.70543 
L 22.319962 50.941967 
L 22.349685 50.52531 
L 22.379409 50.997802 
L 22.434755 50.807719 
L 22.458329 51.020853 
L 22.499326 50.626352 
L 22.545448 50.83497 
L 22.556722 50.722272 
L 22.603869 50.980041 
L 22.644867 50.943343 
L 22.74531 51.000019 
L 22.687914 50.573926 
L 22.75146 50.902291 
L 22.767859 50.60129 
L 22.811931 51.006173 
L 22.875477 50.699061 
L 22.892901 50.904918 
L 22.953372 51.007845 
L 22.91135 50.673263 
L 23.001544 50.822275 
L 23.034342 50.616931 
L 23.108137 50.989389 
L 23.177833 51.006781 
L 23.165534 50.858433 
L 23.190132 50.905802 
L 23.219855 50.558947 
L 23.269052 51.000661 
L 23.30595 50.855417 
L 23.372571 51.008196 
L 23.399219 50.617715 
L 23.419718 50.94662 
L 23.480189 50.626246 
L 23.495563 50.963941 
L 23.539635 50.770408 
L 23.572433 50.685948 
L 23.609331 50.978648 
L 23.643154 50.851616 
L 23.685176 51.017348 
L 23.744622 50.793264 
L 23.755896 50.873341 
L 23.831742 50.701683 
L 23.799969 51.015882 
L 23.863515 50.916584 
L 23.867614 51.005698 
L 23.945509 50.635169 
L 23.968058 50.773582 
L 23.971133 50.674782 
L 24.043903 51.012278 
L 24.077726 50.831285 
L 24.151521 50.706575 
L 24.107449 50.998399 
L 24.17612 50.922851 
L 24.278613 50.962085 
L 24.284763 50.839165 
L 24.302187 50.80322 
L 24.311411 51.019332 
L 24.390331 50.916092 
L 24.455927 51.013117 
L 24.4918 50.74749 
L 24.499999 50.905999 
L 24.613767 50.644703 
L 24.578919 50.997883 
L 24.614792 50.654747 
L 24.648615 50.936918 
L 24.736759 50.85246 
L 24.864876 51.020146 
L 24.751109 50.777622 
L 24.870001 50.865141 
L 24.875126 50.719593 
L 24.948921 51.014641 
L 24.980694 50.869271 
L 25.066789 51.00328 
L 25.027841 50.442039 
L 25.069863 50.770474 
L 25.073963 50.582932 
L 25.108811 51.019633 
L 25.178506 50.923772 
L 25.236928 51.012211 
L 25.246152 50.83631 
L 25.28305 50.87974 
L 25.389643 50.681847 
L 25.316873 51.006168 
L 25.396818 50.805325 
L 25.411167 51.018169 
L 25.470613 50.709413 
L 25.508536 50.860167 
L 25.576181 50.726151 
L 25.587456 51.007184 
L 25.617179 50.944954 
L 25.726847 50.659681 
L 25.690974 51.016526 
L 25.735046 50.866708 
L 25.782193 51.007045 
L 25.814991 50.654422 
L 25.848814 50.967066 
L 25.850864 51.004844 
L 25.91441 50.760504 
L 25.953357 50.824649 
L 25.967707 51.013182 
L 26.018953 50.649963 
L 26.07635 50.882279 
L 26.141946 50.636332 
L 26.161419 51.002258 
L 26.188068 50.78092 
L 26.262888 51.006546 
L 26.210616 50.774712 
L 26.299786 50.825327 
L 26.344883 51.012848 
L 26.330534 50.735243 
L 26.417653 50.875521 
L 26.496573 50.732297 
L 26.4648 51.005339 
L 26.517072 50.9251 
L 26.570368 51.014727 
L 26.579593 50.62827 
L 26.621615 50.816069 
L 26.625715 50.745595 
L 26.644164 51.001296 
L 26.732308 50.825457 
L 26.785605 50.992887 
L 26.770231 50.813245 
L 26.843001 50.821796 
L 26.919871 50.693358 
L 26.864525 51.011125 
L 26.947545 50.852732 
L 27.001866 50.994434 
L 26.958819 50.686222 
L 27.055163 50.835053 
L 27.136133 50.663575 
L 27.157656 50.984241 
L 27.158681 51.020108 
L 27.218128 50.748945 
L 27.263225 50.790785 
L 27.270399 50.725192 
L 27.292948 50.940339 
L 27.342145 51.011962 
L 27.33087 50.720407 
L 27.390317 50.878976 
L 27.470262 50.747804 
L 27.451813 51.009592 
L 27.499985 50.901446 
L 27.547132 50.804853 
L 27.551231 50.741775 
L 27.560456 51.002484 
L 27.65475 50.889747 
L 27.746994 50.987592 
L 27.688573 50.691607 
L 27.773642 50.943134 
L 27.844363 50.666355 
L 27.851537 51.017127 
L 27.88536 50.917962 
L 27.932507 51.015016 
L 27.921233 50.762763 
L 27.978629 50.758154 
L 27.980679 50.736862 
L 28.003228 50.999868 
L 28.083173 50.843085 
L 28.174392 50.960822 
L 28.113921 50.786363 
L 28.195916 50.846122 
L 28.311733 50.620528 
L 28.291235 50.899974 
L 28.315833 50.682181 
L 28.373229 51.012436 
L 28.432676 50.86395 
L 28.435751 50.796451 
L 28.447025 51.009667 
L 28.541319 50.924795 
L 28.653037 51.013224 
L 28.60179 50.732544 
L 28.655087 50.970458 
L 28.713508 50.857713 
L 28.68071 51.012218 
L 28.766805 50.93916 
L 28.849824 50.990982 
L 28.788328 50.707477 
L 28.869298 50.880332 
L 28.928744 50.701706 
L 28.920545 51.012036 
L 28.974866 50.956217 
L 29.082485 51.014824 
L 29.031238 50.728848 
L 29.085559 50.94876 
L 29.147056 50.712481 
L 29.099909 51.006921 
L 29.204452 50.936745 
L 29.31207 50.984196 
L 29.227 50.729769 
L 29.315145 50.947447 
L 29.361267 50.713281 
L 29.351018 50.971504 
L 29.435062 50.780796 
L 29.531406 51.010347 
L 29.464785 50.645621 
L 29.545755 50.831287 
L 29.589828 50.687748 
L 29.652349 51.002936 
L 29.730244 50.805713 
L 29.738443 50.614358 
L 29.796864 50.995528 
L 29.837862 50.896665 
L 29.87271 50.881705 
L 29.855286 51.008948 
L 29.891158 50.986769 
L 29.901408 51.018236 
L 29.952655 50.790194 
L 29.997752 50.943015 
L 30.09717 50.728453 
L 30.03055 50.992748 
L 30.110495 50.907154 
L 30.151492 50.74313 
L 30.118694 50.995573 
L 30.181215 50.962468 
L 30.189415 51.014815 
L 30.208888 50.71591 
L 30.292933 50.986403 
L 30.293958 50.994017 
L 30.322656 50.768622 
L 30.385177 50.84229 
L 30.415925 50.794524 
L 30.459997 50.96203 
L 30.462047 50.982946 
L 30.560441 50.770411 
L 30.57889 50.695978 
L 30.622962 50.987703 
L 30.65781 50.95016 
L 30.741855 51.022008 
L 30.724431 50.768747 
L 30.760304 50.832092 
L 30.766453 50.711084 
L 30.780802 51.008302 
L 30.868947 50.913092 
L 30.920193 50.670337 
L 30.972465 50.993926 
L 30.995014 51.009442 
L 31.059585 50.771587 
L 31.069834 50.858515 
L 31.136455 50.829669 
L 31.083158 51.015819 
L 31.143629 50.96456 
L 31.164128 51.011819 
L 31.20615 50.738762 
L 31.248173 50.747375 
L 31.249198 50.742421 
L 31.288145 50.996236 
L 31.317868 50.947436 
L 31.325043 51.005206 
L 31.394738 50.691039 
L 31.413187 50.781461 
L 31.414212 50.765173 
L 31.420362 51.006167 
L 31.522855 50.792366 
L 31.636623 50.984358 
L 31.607925 50.748014 
L 31.646872 50.910081 
L 31.750391 50.739224 
L 31.664296 50.990571 
L 31.76064 50.827281 
L 31.822136 51.012422 
L 31.798563 50.73186 
L 31.875433 50.850563 
L 31.905156 50.835485 
L 31.889782 50.9756 
L 31.933854 50.960624 
L 32.011749 51.014759 
L 31.968702 50.631495 
L 32.038398 50.825572 
L 32.133717 50.677082 
L 32.091694 51.010286 
L 32.143966 50.911528 
L 32.233135 51.017194 
L 32.15524 50.720609 
L 32.255684 50.919458 
L 32.362277 50.792015 
L 32.302831 50.993061 
L 32.369452 50.924209 
L 32.424798 50.990241 
L 32.451447 50.622328 
L 32.47912 50.903912 
L 32.485269 51.00193 
L 32.570339 50.766023 
L 32.618511 50.710568 
L 32.590838 50.982963 
L 32.633885 50.928155 
L 32.653359 51.00677 
L 32.734329 50.789458 
L 32.740478 50.808685 
L 32.747653 50.778409 
L 32.810174 50.999808 
L 32.839897 50.912002 
L 32.937266 51.008099 
L 32.903443 50.862252 
L 32.947515 50.884289 
L 32.95674 50.773763 
L 32.984413 51.009126 
L 33.048984 50.945203 
L 33.138153 51.019422 
L 33.091006 50.848694 
L 33.152502 50.892708 
L 33.1853 50.697705 
L 33.176076 50.973164 
L 33.247821 50.924449 
L 33.335966 51.010533 
L 33.35134 50.785882 
L 33.355439 50.824153 
L 33.405661 50.999922 
L 33.388237 50.735638 
L 33.471257 50.904139 
L 33.544027 50.710123 
L 33.560426 51.013349 
L 33.58605 50.845593 
L 33.636272 50.93545 
L 33.600399 50.775051 
L 33.692643 50.807381 
L 33.696743 50.741397 
L 33.736715 51.017949 
L 33.797186 50.945749 
L 33.848433 50.698647 
L 33.828959 51.015593 
L 33.917104 50.927483 
L 34.010373 51.01486 
L 33.988849 50.762622 
L 34.023697 50.792168 
L 34.066744 50.76621 
L 34.049321 51.008479 
L 34.108767 50.925549 
L 34.139515 51.015176 
L 34.162063 50.809377 
L 34.214335 50.833207 
L 34.224584 50.772562 
L 34.239958 51.007615 
L 34.314779 50.990011 
L 34.355776 50.873521 
L 34.462369 50.756982 
L 34.36705 51.004025 
L 34.465444 50.849698 
L 34.497217 51.010373 
L 34.479793 50.797724 
L 34.579212 50.986477 
L 34.581262 51.015058 
L 34.638658 50.729604 
L 34.676581 50.786039 
L 34.715528 50.719965 
L 34.730902 51.01689 
L 34.779074 50.860297 
L 34.799573 50.757186 
L 34.787274 50.928676 
L 34.825196 50.950285 
L 34.827246 51.003859 
L 34.916416 50.782501 
L 34.930765 50.790616 
L 34.934865 50.743614 
L 35.019934 50.997588 
L 35.030183 50.984963 
L 35.093729 51.00429 
L 35.045558 50.753591 
L 35.127552 50.918114 
L 35.194173 50.727386 
L 35.204422 51.021873 
L 35.234146 50.951668 
L 35.31614 51.015681 
L 35.281293 50.804806 
L 35.348938 51.009961 
L 35.471931 50.745785 
L 35.479105 50.884267 
L 35.534452 51.003323 
L 35.55495 50.803201 
L 35.590823 50.904978 
L 35.701516 50.705784 
L 35.613372 51.00581 
L 35.705616 50.854953 
L 35.71074 51.015499 
L 35.728164 50.722706 
L 35.818359 50.941669 
L 35.891129 51.013092 
L 35.879855 50.745519 
L 35.903428 50.757684 
L 35.904453 50.753611 
L 35.929052 51.012292 
L 35.984398 50.89078 
L 36.03052 51.011398 
L 36.074592 50.810366 
L 36.10944 50.97398 
L 36.197585 50.81783 
L 36.161712 51.014644 
L 36.218083 50.976321 
L 36.327751 51.011801 
L 36.312377 50.778245 
L 36.328776 50.980126 
L 36.43127 50.83835 
L 36.426145 51.004916 
L 36.440494 50.923403 
L 36.548112 51.008043 
L 36.451769 50.743752 
L 36.550162 50.929686 
L 36.555287 50.792266 
L 36.630107 50.995184 
L 36.660855 50.936019 
L 36.764374 51.011527 
L 36.671105 50.852987 
L 36.771548 50.952314 
L 36.795122 50.736394 
L 36.83202 51.002231 
L 36.886341 50.87017 
L 36.889416 51.001292 
L 36.967311 50.724398 
L 36.998059 50.908073 
L 37.031882 50.782088 
L 37.015483 51.009687 
L 37.106702 50.966434 
L 37.107727 51.005414 
L 37.155899 50.717216 
L 37.21637 50.911605 
L 37.225595 50.854401 
L 37.282991 51.016433 
L 37.319889 50.953292 
L 37.379335 51.017699 
L 37.425457 50.871738 
L 37.427507 50.881237 
L 37.443906 51.02084 
L 37.464405 50.830912 
L 37.535125 50.844515 
L 37.596621 50.746013 
L 37.550499 51.008424 
L 37.642743 50.883384 
L 37.673491 51.016396 
L 37.720638 50.76935 
L 37.756511 50.975637 
L 37.86003 50.738852 
L 37.838506 51.006782 
L 37.868229 50.966089 
L 37.976872 51.013167 
L 37.956373 50.776521 
L 37.978922 50.967429 
L 38.077316 50.795332 
L 38.042468 50.980967 
L 38.091665 50.93438 
L 38.194158 51.021174 
L 38.126513 50.787579 
L 38.202358 50.941032 
L 38.283328 50.789625 
L 38.216707 51.00201 
L 38.316126 50.861776 
L 38.341749 50.999587 
L 38.422719 50.763348 
L 38.427844 50.660487 
L 38.504714 51.014869 
L 38.525212 50.95506 
L 38.602083 50.971874 
L 38.607207 50.856504 
L 38.609257 50.831839 
L 38.677928 51.019257 
L 38.713801 50.913553 
L 38.743524 51.016242 
L 38.754798 50.828669 
L 38.823469 50.929882 
L 38.847042 50.755892 
L 38.840893 51.009753 
L 38.934162 50.921883 
L 39.03973 50.799796 
L 38.940311 51.005146 
L 39.059204 50.949618 
L 39.076628 51.015644 
L 39.140174 50.81804 
L 39.167847 50.930348 
L 39.218069 50.809401 
L 39.206794 50.998474 
L 39.277515 50.96305 
L 39.28264 51.01744 
L 39.326712 50.760714 
L 39.389233 50.982534 
L 39.42818 50.817173 
L 39.477377 51.007336 
L 39.500951 50.970059 
L 39.579871 51.009862 
L 39.531699 50.81839 
L 39.58807 50.924421 
L 39.653666 50.79395 
L 39.646492 51.017681 
L 39.697738 50.956122 
L 39.715162 51.020727 
L 39.727461 50.79966 
L 39.734636 50.725262 
L 39.795107 50.95055 
L 39.83303 50.858037 
L 39.860703 51.01387 
L 39.845329 50.829302 
L 39.951922 50.935184 
L 40.053391 50.82549 
L 39.983695 51.015154 
L 40.062615 50.929556 
L 40.080039 51.02241 
L 40.154859 50.807187 
L 40.177408 50.972895 
L 40.280926 50.768882 
L 40.22763 51.01771 
L 40.2963 50.896135 
L 40.313724 51.005933 
L 40.319874 50.848857 
L 40.410068 50.991879 
L 40.45619 50.817836 
L 40.469515 51.018953 
L 40.528961 50.965114 
L 40.532036 51.008018 
L 40.603781 50.733777 
L 40.636579 50.923812 
L 40.662202 50.854963 
L 40.684751 51.016111 
L 40.743172 50.976556 
L 40.791344 51.015157 
L 40.769821 50.828002 
L 40.847716 50.92825 
L 40.945084 50.826806 
L 40.873339 51.008684 
L 40.958409 50.928989 
L 40.997356 51.012645 
L 41.050653 50.72669 
L 41.062952 50.767354 
L 41.183894 51.019651 
L 41.201318 50.92056 
L 41.276139 50.80651 
L 41.223867 51.009563 
L 41.314061 50.87948 
L 41.362233 51.020467 
L 41.392981 50.790519 
L 41.427829 50.935552 
L 41.489325 50.833796 
L 41.463702 51.019601 
L 41.542622 50.837165 
L 41.586694 50.755545 
L 41.549796 50.99345 
L 41.624616 50.925026 
L 41.695337 51.004949 
L 41.643065 50.787692 
L 41.732235 50.834785 
L 41.737359 50.759479 
L 41.796806 51.016721 
L 41.835753 50.988437 
L 41.910573 51.01192 
L 41.868551 50.818405 
L 41.917748 50.898643 
L 41.935172 50.810645 
L 41.926972 50.991021 
L 42.015117 50.949792 
L 42.116585 51.018436 
L 42.101211 50.790601 
L 42.12581 50.939809 
L 42.169882 50.805746 
L 42.163732 51.013377 
L 42.227278 50.986013 
L 42.249827 51.018979 
L 42.294924 50.758879 
L 42.336946 50.954248 
L 42.444565 51.015997 
L 42.397418 50.652319 
L 42.447639 50.972497 
L 42.504011 50.813291 
L 42.550133 51.014675 
L 42.559357 50.951001 
L 42.577806 51.011362 
L 42.625978 50.833411 
L 42.669025 50.94642 
L 42.732571 50.84194 
L 42.714123 51.007056 
L 42.776644 50.964577 
L 42.83609 51.013988 
L 42.784843 50.801111 
L 42.884262 50.856786 
L 42.885287 50.848398 
L 42.953957 51.017153 
L 42.983681 50.942743 
L 43.045177 51.012543 
L 43.012379 50.784387 
L 43.088224 50.835272 
L 43.092324 50.751787 
L 43.179443 51.015918 
L 43.194817 50.943193 
L 43.249139 51.013621 
L 43.239914 50.84464 
L 43.304485 50.92302 
L 43.404929 51.017503 
L 43.318834 50.909542 
L 43.426453 50.93873 
L 43.450026 50.781563 
L 43.464375 51.00711 
L 43.54022 50.844323 
L 43.656038 51.006168 
L 43.63144 50.797544 
L 43.661163 50.88186 
L 43.754432 50.774206 
L 43.670387 51.018264 
L 43.765706 50.957755 
L 43.804654 51.009344 
L 43.791329 50.853292 
L 43.875374 50.921151 
L 43.939945 50.884074 
L 43.919446 51.01157 
L 43.971718 50.975058 
L 43.998366 51.021764 
L 44.028089 50.87003 
L 44.081386 50.943772 
L 44.186954 51.013463 
L 44.139807 50.816015 
L 44.192079 50.936449 
L 44.282273 50.830084 
L 44.210528 51.008673 
L 44.293548 50.943841 
L 44.320196 51.016428 
L 44.301747 50.780942 
L 44.402191 50.880479 
L 44.462662 50.747368 
L 44.49546 50.989179 
L 44.505709 50.941574 
L 44.600003 51.017397 
L 44.567205 50.870207 
L 44.615377 50.920694 
L 44.637926 50.820361 
L 44.685073 51.013481 
L 44.708646 50.975917 
L 44.709671 51.007831 
L 44.801916 50.714073 
L 44.814215 50.833831 
L 44.832664 50.779099 
L 44.876736 51.002514 
L 44.901334 50.922221 
L 44.946431 51.017622 
L 44.97308 50.7607 
L 45.011002 50.916615 
L 45.061224 50.863682 
L 45.05405 51.010736 
L 45.110421 50.991051 
L 45.113496 51.013669 
L 45.183191 50.770161 
L 45.218039 50.945951 
L 45.327707 50.85651 
L 45.251862 50.995352 
L 45.336932 50.98576 
L 45.405602 51.019092 
L 45.398428 50.825538 
L 45.44455 50.955707 
L 45.568567 50.810035 
L 45.460949 51.019449 
L 45.573692 50.920395 
L 45.632113 51.012765 
L 45.610589 50.806319 
L 45.682335 50.898218 
L 45.767404 50.763457 
L 45.706933 51.016218 
L 45.792003 50.930183 
L 45.794053 51.01176 
L 45.813527 50.727357 
L 45.902696 50.91371 
L 45.971367 50.998782 
L 45.936519 50.820555 
L 45.977516 50.838615 
L 45.978541 50.831601 
L 45.993915 51.000658 
L 46.068735 50.968327 
L 46.072835 51.016849 
L 46.114858 50.846123 
L 46.169179 50.896546 
L 46.213251 50.761956 
L 46.256299 51.018525 
L 46.278847 50.910071 
L 46.340343 50.809818 
L 46.294221 51.001039 
L 46.365967 50.96855 
L 46.423363 51.013281 
L 46.430538 50.852005 
L 46.47461 50.93275 
L 46.579153 50.810218 
L 46.530981 51.015562 
L 46.584278 50.939185 
L 46.645774 51.015145 
L 46.623225 50.827763 
L 46.697021 50.975169 
L 46.78209 50.806261 
L 46.79234 50.997817 
L 46.811813 50.892899 
L 46.917382 51.009751 
L 46.838462 50.819889 
L 46.921481 50.874847 
L 46.999377 50.751184 
L 46.945055 51.010805 
L 47.028075 50.925711 
L 47.080346 51.019948 
L 47.050623 50.818635 
L 47.137743 50.921805 
L 47.218713 50.725026 
L 47.175665 50.993603 
L 47.256635 50.87133 
L 47.357079 51.021483 
L 47.300708 50.803644 
L 47.370403 50.957491 
L 47.476996 50.835656 
L 47.4237 51.010195 
L 47.481096 50.93189 
L 47.588714 51.010079 
L 47.537468 50.814039 
L 47.591789 50.941725 
L 47.635861 50.805057 
L 47.612288 51.015807 
L 47.698382 50.97139 
L 47.750654 51.018019 
L 47.758854 50.79955 
L 47.809075 50.971488 
L 47.825474 50.829809 
L 47.883896 51.015232 
L 47.925918 50.862838 
L 48.045835 51.016951 
L 48.062234 50.919973 
L 48.159603 50.838094 
L 48.089908 51.015539 
L 48.170877 50.940873 
L 48.279521 51.010771 
L 48.183177 50.774794 
L 48.28362 50.967689 
L 48.324618 50.866605 
L 48.358441 51.019034 
L 48.395338 50.953957 
L 48.401488 50.801902 
L 48.469134 51.014882 
L 48.507056 50.943578 
L 48.567527 50.985667 
L 48.613649 50.764648 
L 48.632098 50.629492 
L 48.705894 51.015749 
L 48.719218 50.886271 
L 48.76124 51.018705 
L 48.822736 50.868672 
L 48.832986 50.944027 
L 48.913955 50.834495 
L 48.916005 50.812702 
L 48.924205 51.01217 
L 49.016449 50.961329 
L 49.095369 50.817206 
L 49.107668 51.001512 
L 49.128167 50.955199 
L 49.208112 51.006404 
L 49.15789 50.745934 
L 49.223486 50.81049 
L 49.24501 50.801427 
L 49.23066 51.012947 
L 49.302406 50.970029 
L 49.375176 51.006306 
L 49.348528 50.76913 
L 49.408999 50.920646 
L 49.451022 50.761731 
L 49.417199 51.021345 
L 49.517642 50.936641 
L 49.534041 51.022291 
L 49.577089 50.811643 
L 49.625261 50.866809 
L 49.647809 50.869975 
L 49.63141 50.955749 
L 49.651909 50.955606 
L 49.715455 51.019867 
L 49.683682 50.883114 
L 49.762602 50.943858 
L 49.800524 50.847897 
L 49.849721 51.012927 
L 49.871245 50.969317 
L 49.938891 51.017953 
L 49.962464 50.804996 
L 49.978863 50.888624 
L 50.064958 50.762278 
L 50.078282 51.015902 
L 50.087506 50.905666 
L 50.170526 51.02195 
L 50.141828 50.784122 
L 50.200249 50.941645 
L 50.212548 50.80195 
L 50.221773 51.01627 
L 50.317092 50.838176 
L 50.431885 51.01817 
L 50.437009 50.903411 
L 50.458533 50.821463 
L 50.500555 51.008327 
L 50.541553 51.006221 
L 50.5846 50.820981 
L 50.587675 50.777063 
L 50.644046 51.010749 
L 50.692218 50.891233 
L 50.701442 50.846775 
L 50.735265 51.012362 
L 50.787537 50.957367 
L 50.832634 51.021658 
L 50.853133 50.83288 
L 50.883881 50.86201 
L 50.933078 50.753612 
L 50.982275 51.014758 
L 50.988424 50.955663 
L 51.086818 51.011701 
L 51.042746 50.799034 
L 51.095018 50.93071 
L 51.112441 50.805978 
L 51.124741 51.020325 
L 51.205711 50.939422 
L 51.257982 50.785355 
L 51.21596 51.017511 
L 51.316404 50.940068 
L 51.405573 51.006173 
L 51.332803 50.851883 
L 51.425047 50.933525 
L 51.463994 50.776292 
L 51.439396 50.995093 
L 51.536765 50.862059 
L 51.539839 51.011602 
L 51.580837 50.79226 
L 51.649508 50.987041 
L 51.732527 50.818526 
L 51.674106 51.007081 
L 51.775575 50.919503 
L 51.846295 51.017444 
L 51.803248 50.839699 
L 51.852445 50.84751 
L 51.854495 50.829198 
L 51.934439 51.003675 
L 51.960063 50.900716 
L 52.074856 51.007262 
L 52.004135 50.848566 
L 52.075881 51.000718 
L 52.163 50.854306 
L 52.138402 51.01122 
L 52.187598 50.971482 
L 52.247045 51.019135 
L 52.229621 50.750675 
L 52.287017 50.915428 
L 52.341339 50.779595 
L 52.312641 51.002451 
L 52.388486 50.981001 
L 52.404885 51.014898 
L 52.487904 50.814967 
L 52.497129 50.94359 
L 52.55965 50.728758 
L 52.511478 51.003733 
L 52.604747 50.976907 
L 52.672393 51.007946 
L 52.704166 50.791201 
L 52.71544 50.975155 
L 52.753363 50.872655 
L 52.746188 51.006925 
L 52.830233 50.935025 
L 52.891729 51.009966 
L 52.857906 50.844099 
L 52.921452 50.869577 
L 52.9563 50.734418 
L 53.000372 51.008471 
L 53.02702 50.940838 
L 53.076217 51.013149 
L 53.088517 50.81774 
L 53.137713 50.92421 
L 53.250456 51.009257 
L 53.172561 50.789477 
L 53.251481 51.005639 
L 53.363199 50.851695 
L 53.255581 51.018278 
L 53.371399 50.920769 
L 53.451344 51.012233 
L 53.426745 50.869219 
L 53.487216 50.968587 
L 53.496441 50.787208 
L 53.51079 51.003231 
L 53.600984 50.898828 
L 53.67068 51.021646 
L 53.695278 50.836901 
L 53.716802 50.922896 
L 53.813146 50.798718 
L 53.742425 51.012692 
L 53.825445 50.954839 
L 53.90129 51.019332 
L 53.872592 50.836561 
L 53.926913 50.913502 
L 54.020183 50.800527 
L 53.935113 51.000803 
L 54.038631 50.905825 
L 54.098078 50.852517 
L 54.047856 50.991192 
L 54.103202 50.975817 
L 54.173923 51.010367 
L 54.166748 50.813799 
L 54.21287 50.943181 
L 54.261042 50.993277 
L 54.237469 50.838929 
L 54.264117 50.858762 
L 54.266167 50.815241 
L 54.369685 51.019455 
L 54.46398 50.751609 
L 54.492678 50.792537 
L 54.562373 51.008114 
L 54.502927 50.790554 
L 54.61157 50.945677 
L 54.679216 50.806293 
L 54.648468 51.011523 
L 54.721238 50.966338 
L 54.763261 50.986863 
L 54.728413 50.922607 
L 54.76736 50.880568 
L 54.824757 50.851166 
L 54.851405 51.019429 
L 54.872929 50.974363 
L 54.93135 51.017955 
L 54.939549 50.849377 
L 54.970298 50.901023 
L 55.035893 50.841073 
L 55.00822 51.019151 
L 55.064592 50.966682 
L 55.074841 51.016911 
L 55.136337 50.858897 
L 55.176309 50.997627 
L 55.177334 50.998244 
L 55.194758 50.880637 
L 55.243955 50.784048 
L 55.272653 51.011548 
L 55.292127 50.97112 
L 55.363873 51.015358 
L 55.299302 50.846552 
L 55.403845 51.004473 
L 55.531962 50.83731 
L 55.538112 50.97034 
L 55.582184 51.017144 
L 55.575009 50.779233 
L 55.64778 50.941868 
L 55.701076 50.845048 
L 55.660079 51.016954 
L 55.760523 50.936347 
L 55.860966 51.012106 
L 55.792296 50.880691 
L 55.867116 50.888392 
L 55.95321 50.732312 
L 55.894789 50.999195 
L 55.971659 50.928796 
L 56.020856 51.014469 
L 55.994208 50.781062 
L 56.081327 50.893109 
L 56.129499 51.021904 
L 56.146923 50.843661 
L 56.203295 50.952289 
L 56.306813 50.851158 
L 56.254541 50.998032 
L 56.315012 50.934852 
L 56.414431 50.997128 
L 56.337561 50.857302 
L 56.43288 50.891725 
L 56.464653 50.855535 
L 56.473877 51.004014 
L 56.532299 50.969512 
L 56.603019 51.016786 
L 56.578421 50.882017 
L 56.644017 50.995488 
L 56.74446 50.841064 
L 56.654266 51.009032 
L 56.755735 50.975249 
L 56.817231 51.019486 
L 56.765984 50.8532 
L 56.851054 50.907689 
L 56.901275 50.848631 
L 56.951497 51.00918 
L 56.959697 50.93975 
L 57.050916 51.01875 
L 57.024268 50.873811 
L 57.076539 51.010022 
L 57.080639 50.902944 
L 57.188257 50.986497 
L 57.260003 50.858341 
L 57.221055 51.016965 
L 57.301 50.972898 
L 57.405543 51.013113 
L 57.341998 50.865267 
L 57.408618 50.932212 
L 57.476264 50.800758 
L 57.413743 51.010339 
L 57.514187 50.972939 
L 57.560309 51.016349 
L 57.54391 50.840031 
L 57.61258 50.89315 
L 57.617705 50.790546 
L 57.657678 51.009581 
L 57.722248 50.902454 
L 57.787844 51.007414 
L 57.813468 50.838345 
L 57.834991 50.93098 
L 57.903662 50.839759 
L 57.864714 51.016035 
L 57.944659 50.926757 
L 57.973358 51.020239 
L 57.961058 50.830297 
L 58.056377 50.968231 
L 58.135297 50.835679 
L 58.079951 51.01581 
L 58.16912 50.917416 
L 58.24599 50.85322 
L 58.237791 51.018054 
L 58.271614 50.963419 
L 58.300312 51.021321 
L 58.32901 50.869904 
L 58.383332 51.018931 
L 58.483775 50.867599 
L 58.523748 50.979208 
L 58.628291 51.012498 
L 58.583194 50.909897 
L 58.631366 50.957145 
L 58.647765 50.879175 
L 58.693887 51.014561 
L 58.744109 50.911971 
L 58.835328 51.01338 
L 58.775882 50.842998 
L 58.853777 50.90996 
L 58.947046 50.852247 
L 58.896824 51.020452 
L 58.957295 50.979255 
L 58.96037 51.012641 
L 58.969595 50.823044 
L 59.067988 50.971563 
L 59.157158 50.78609 
L 59.112061 51.015035 
L 59.187906 50.925413 
L 59.237103 51.012918 
L 59.209429 50.827364 
L 59.298599 50.938057 
L 59.358045 50.813037 
L 59.330372 51.014589 
L 59.410317 50.87006 
L 59.468738 51.02048 
L 59.416466 50.848911 
L 59.52306 50.992312 
L 59.534334 51.018676 
L 59.579431 50.874209 
L 59.631703 50.963479 
L 59.731121 50.801684 
L 59.666551 51.015061 
L 59.748545 50.964802 
L 59.818241 51.016921 
L 59.798767 50.857941 
L 59.858213 50.959331 
L 59.899211 50.836218 
L 59.878712 50.990205 
L 59.971981 50.93843 
L 60.171844 51.003332 
L 60.180043 50.872309 
L 60.183118 50.843048 
L 60.273312 51.020139 
L 60.287661 50.899861 
L 60.369656 51.011458 
L 60.313285 50.855301 
L 60.398354 50.924699 
L 60.479324 50.803199 
L 60.428077 51.015372 
L 60.512122 50.836495 
L 60.559269 51.015513 
L 60.631015 50.954591 
L 60.70686 51.002334 
L 60.70071 50.840567 
L 60.710959 50.852411 
L 60.713009 50.82967 
L 60.746832 51.01809 
L 60.818578 50.907409 
L 60.900572 50.791188 
L 60.844201 51.002777 
L 60.923121 50.906581 
L 60.980517 51.017452 
L 61.001016 50.847516 
L 61.035864 50.973599 
L 61.100435 51.021024 
L 61.094285 50.869754 
L 61.145532 50.954788 
L 61.192679 50.750139 
L 61.160906 50.9947 
L 61.248026 50.994809 
L 61.325921 51.018093 
L 61.272624 50.83367 
L 61.356669 50.942744 
L 61.453013 50.874101 
L 61.459162 51.021789 
L 61.470436 50.902061 
L 61.540132 51.015577 
L 61.552431 50.850242 
L 61.585229 50.980749 
L 61.621102 50.874568 
L 61.64365 51.016417 
L 61.698997 50.934028 
L 61.800466 50.882017 
L 61.714371 51.006023 
L 61.81379 50.996438 
L 61.895785 51.016785 
L 61.855812 50.875641 
L 61.917308 50.923648 
L 62.004428 50.809972 
L 61.970605 51.01394 
L 62.030051 50.87991 
L 62.104871 51.018251 
L 62.063874 50.815043 
L 62.144844 50.955345 
L 62.19814 50.822193 
L 62.179692 51.01888 
L 62.259637 50.871251 
L 62.369305 51.017731 
L 62.323183 50.827531 
L 62.373404 50.928305 
L 62.431826 50.912081 
L 62.411327 51.020406 
L 62.479998 50.972148 
L 62.579416 51.013245 
L 62.556868 50.823465 
L 62.591716 50.992574 
L 62.706508 50.887835 
L 62.597865 51.004652 
L 62.716758 50.972331 
L 62.803877 51.00828 
L 62.790553 50.757103 
L 62.822326 50.911462 
L 62.856149 50.879386 
L 62.844875 51.006238 
L 62.928919 50.941185 
L 62.968892 51.018624 
L 63.00169 50.86876 
L 63.041662 50.975174 
L 63.15133 51.016717 
L 63.113408 50.843007 
L 63.154405 50.983411 
L 63.202577 50.877935 
L 63.212826 51.010164 
L 63.265098 50.983715 
L 63.363492 51.021227 
L 63.286622 50.822667 
L 63.375791 50.970643 
L 63.482384 50.830843 
L 63.429088 51.019264 
L 63.486484 50.979269 
L 63.530556 50.953562 
L 63.494683 50.876729 
L 63.532606 50.906229 
L 63.566429 50.767415 
L 63.617676 51.01894 
L 63.640224 50.985014 
L 63.69967 51.018936 
L 63.652523 50.8839 
L 63.749892 50.953368 
L 63.806264 50.832328 
L 63.823688 51.013394 
L 63.862635 50.924308 
L 63.907732 51.021399 
L 63.916957 50.883739 
L 63.980503 50.970513 
L 64.070697 50.851859 
L 63.991777 51.003033 
L 64.090171 50.988095 
L 64.230587 50.886138 
L 64.094271 50.997084 
L 64.233662 50.944243 
L 64.291058 51.013732 
L 64.331031 50.879154 
L 64.34333 50.926976 
L 64.408926 50.860094 
L 64.372028 51.008426 
L 64.449923 50.937445 
L 64.486821 51.01794 
L 64.473497 50.817544 
L 64.559591 50.930761 
L 64.57189 50.865202 
L 64.577015 51.01495 
L 64.662085 51.004192 
L 64.718456 51.022492 
L 64.673359 50.820581 
L 64.758429 50.916886 
L 64.786102 50.877589 
L 64.844523 51.02002 
L 64.865022 50.977399 
L 64.934717 51.017083 
L 64.88962 50.847602 
L 64.97264 50.90279 
L 64.991089 50.844023 
L 64.979815 50.985238 
L 65.031061 50.996073 
L 65.032086 51.008914 
L 65.066934 50.812973 
L 65.133555 50.899509 
L 65.144829 50.706721 
L 65.156103 51.004409 
L 65.245273 50.865375 
L 65.335467 51.019412 
L 65.356991 50.882703 
L 65.463584 51.011111 
L 65.387739 50.834007 
L 65.478958 50.988215 
L 65.483058 50.879509 
L 65.541479 51.013549 
L 65.590676 50.935773 
L 65.708543 51.009113 
L 65.627574 50.829997 
L 65.715718 50.97155 
L 65.827436 50.835027 
L 65.745441 51.008364 
L 65.829486 50.855277 
L 65.941204 51.012695 
L 65.943254 50.93659 
L 66.00065 50.860132 
L 65.960677 51.017373 
L 66.055996 50.913174 
L 66.167714 51.011948 
L 66.114418 50.868124 
L 66.175914 50.962356 
L 66.249709 50.84901 
L 66.265083 51.020139 
L 66.285582 50.978475 
L 66.344003 51.009445 
L 66.337854 50.838355 
L 66.39525 50.933824 
L 66.447522 51.014377 
L 66.460846 50.87148 
L 66.505943 50.939196 
L 66.575639 50.854662 
L 66.605362 51.010848 
L 66.614586 50.975616 
L 66.62791 51.006987 
L 66.697606 50.812127 
L 66.705805 50.865093 
L 66.735528 50.767652 
L 66.758077 51.016085 
L 66.811374 50.926192 
L 66.823673 51.010726 
L 66.910792 50.863485 
L 66.922067 50.956402 
L 66.989712 50.848776 
L 66.95384 51.012139 
L 67.03071 50.99858 
L 67.151652 50.889319 
L 67.154727 50.945489 
L 67.156777 51.020766 
L 67.179325 50.867798 
L 67.26542 50.959626 
L 67.326916 50.887583 
L 67.292068 51.012294 
L 67.383288 50.92327 
L 67.468357 51.017823 
L 67.391487 50.810569 
L 67.49808 51.004623 
L 67.599549 50.843981 
L 67.57495 51.013091 
L 67.608773 50.981416 
L 67.634397 51.019862 
L 67.652845 50.878446 
L 67.715367 50.903463 
L 67.820935 50.870808 
L 67.814785 51.016442 
L 67.82401 50.909629 
L 67.833234 51.007731 
L 67.838359 50.892813 
L 67.935728 50.938726 
L 67.97365 50.852577 
L 67.944952 51.017588 
L 68.045396 50.958678 
L 68.160188 50.942198 
L 68.05257 50.917784 
L 68.162238 50.880591 
L 68.179662 50.843856 
L 68.197086 51.011227 
L 68.272931 50.875655 
L 68.276006 51.011097 
L 68.314954 50.763065 
L 68.384649 50.913025 
L 68.472794 51.015271 
L 68.403098 50.813666 
L 68.498417 50.970395 
L 68.594761 51.016386 
L 68.556838 50.86233 
L 68.606035 50.962942 
L 68.661382 50.843961 
L 68.617309 51.011341 
L 68.714678 51.003306 
L 68.801798 51.020534 
L 68.787449 50.860504 
L 68.817172 50.909726 
L 68.909416 50.82155 
L 68.846895 51.017618 
L 68.919665 50.906457 
L 69.008835 51.016394 
L 68.995511 50.818996 
L 69.029333 50.886265 
L 69.085705 50.789666 
L 69.09083 51.0062 
L 69.134902 50.962048 
L 69.179999 51.00982 
L 69.15745 50.838902 
L 69.208697 50.867192 
L 69.209722 50.860164 
L 69.220996 51.021265 
L 69.302991 50.989245 
L 69.395235 51.020265 
L 69.316315 50.87178 
L 69.412659 50.980425 
L 69.48338 50.879062 
L 69.498754 51.018965 
L 69.522327 50.965461 
L 69.587923 51.014555 
L 69.565375 50.847156 
L 69.631995 50.930837 
L 69.719115 50.817583 
L 69.669918 51.014374 
L 69.745763 50.891693 
L 69.846207 51.022968 
L 69.756012 50.877503 
L 69.861581 50.92836 
L 69.926152 50.777334 
L 69.882079 51.002211 
L 69.973299 50.906603 
L 70.061443 51.009556 
L 69.981498 50.861685 
L 70.076817 50.881082 
L 70.148563 50.852682 
L 70.10449 51.015433 
L 70.181361 50.98607 
L 70.184435 51.009447 
L 70.219283 50.856892 
L 70.265405 50.873314 
L 70.267455 50.853366 
L 70.320752 51.012065 
L 70.369949 50.952135 
L 70.470392 51.018338 
L 70.392497 50.903656 
L 70.481667 50.98098 
L 70.571861 50.871733 
L 70.515489 51.015326 
L 70.59236 50.967181 
L 70.688703 51.015347 
L 70.620033 50.792706 
L 70.701003 50.967958 
L 70.705102 50.814348 
L 70.802471 51.014996 
L 70.812721 50.920289 
L 71.357986 50.955653 
L 71.360036 50.845015 
L 71.361061 50.813604 
L 71.438956 51.017966 
L 71.467654 50.943947 
L 71.557849 50.769494 
L 71.511726 51.01184 
L 71.582447 50.911258 
L 71.647018 51.018631 
L 71.637793 50.859817 
L 71.69519 50.992938 
L 71.746437 51.012532 
L 71.714664 50.850507 
L 71.793584 50.888211 
L 71.890952 50.84217 
L 71.832531 51.017282 
L 71.901202 50.939299 
L 71.962698 50.901312 
L 71.913501 51.020544 
L 72.003695 50.997311 
L 72.01292 51.018489 
L 72.034443 50.861897 
L 72.114388 50.989192 
L 72.185109 51.006629 
L 72.149236 50.895896 
L 72.208682 50.909593 
L 72.238405 50.840259 
L 72.215857 51.011437 
L 72.317325 50.955368 
L 72.319375 51.022456 
L 72.337824 50.84168 
L 72.428018 50.994184 
L 72.432118 50.898387 
L 72.485415 51.022042 
L 72.538711 50.977785 
L 72.653504 51.016375 
L 72.56331 50.893031 
L 72.658629 50.934528 
L 72.678103 50.812117 
L 72.7191 51.019902 
L 72.771372 50.897582 
L 72.884115 51.020919 
L 72.842092 50.843078 
L 72.88514 50.999823 
L 72.95381 51.019608 
L 72.999932 50.854753 
L 73.075778 51.019215 
L 73.1137 50.926797 
L 73.215169 51.01149 
L 73.163922 50.853436 
L 73.230543 50.949564 
L 73.301263 50.864514 
L 73.243867 51.005779 
L 73.339186 50.979733 
L 73.385308 51.012424 
L 73.378133 50.88233 
L 73.440654 50.929921 
L 73.5083 50.833388 
L 73.499076 51.019303 
L 73.548273 50.976589 
L 73.652816 51.012961 
L 73.604644 50.878609 
L 73.658966 50.988995 
L 73.67024 50.890949 
L 73.708163 51.02105 
L 73.774783 50.951051 
L 73.856778 50.8734 
L 73.833205 51.022205 
L 73.880352 50.985015 
L 73.938773 51.019131 
L 73.889576 50.830411 
L 73.986945 50.900132 
L 74.057665 50.853482 
L 74.006419 51.013755 
L 74.099688 50.868826 
L 74.217555 51.016354 
L 74.219605 50.995353 
L 74.319024 50.871749 
L 74.229855 51.020133 
L 74.333373 50.938695 
L 74.418443 51.001248 
L 74.393844 50.793462 
L 74.444066 50.962193 
L 74.483014 50.862598 
L 74.473789 51.014095 
L 74.554759 50.959948 
L 74.568083 51.017898 
L 74.656228 50.813127 
L 74.662377 50.940257 
L 74.748472 50.881477 
L 74.732073 51.021026 
L 74.77307 50.94545 
L 74.874539 51.015992 
L 74.793569 50.837349 
L 74.881713 50.900837 
L 74.92886 50.883475 
L 74.910412 51.015747 
L 74.982157 50.94894 
L 75.087725 51.014309 
L 75.062102 50.838624 
L 75.093875 50.962273 
L 75.152296 51.015968 
L 75.163571 50.827361 
L 75.199443 50.944313 
L 75.255815 50.863674 
L 75.231216 51.020339 
L 75.308086 50.948485 
L 75.400331 51.016493 
L 75.337809 50.889735 
L 75.417754 50.926502 
L 75.537672 51.012883 
L 75.439278 50.861902 
L 75.546896 50.912096 
L 75.584819 50.773969 
L 75.600193 50.998614 
L 75.655539 50.971015 
L 75.770332 50.891142 
L 75.669888 51.010902 
L 75.780581 50.985063 
L 75.89025 51.017528 
L 75.872826 50.891986 
L 75.891274 51.009371 
L 75.932272 50.85801 
L 76.004017 50.960803 
L 76.028616 51.013154 
L 76.075763 50.895408 
L 76.11471 50.954488 
L 76.168007 50.892497 
L 76.130084 51.022091 
L 76.222329 50.992189 
L 76.333022 51.018102 
L 76.292024 50.870319 
L 76.334046 51.00487 
L 76.366844 50.816922 
L 76.372994 51.01527 
L 76.448839 50.921149 
L 76.456014 51.010627 
L 76.486762 50.811936 
L 76.562607 50.973612 
L 76.610779 51.016923 
L 76.59233 50.841079 
L 76.6733 50.967392 
L 76.791168 50.862837 
L 76.741971 51.015104 
L 76.793217 50.885093 
L 76.899811 51.014718 
L 76.823966 50.852105 
L 76.90801 50.96066 
L 76.952082 51.012005 
L 76.947983 50.871579 
L 77.020753 50.96884 
L 77.103773 50.877112 
L 77.052526 51.010828 
L 77.125296 51.007562 
L 77.23394 51.013847 
L 77.153995 50.856484 
L 77.234965 50.995414 
L 77.327209 50.877787 
L 77.292361 51.01929 
L 77.346682 50.983187 
L 77.449176 51.014831 
L 77.424578 50.852256 
L 77.453276 50.937101 
L 77.520921 50.887535 
L 77.503498 51.020807 
L 77.562944 50.957128 
L 77.665437 50.990054 
L 77.615215 50.825199 
L 77.672612 50.954009 
L 77.744357 50.842595 
L 77.687986 51.004756 
L 77.78228 50.956887 
L 77.847876 51.020194 
L 77.838651 50.881953 
L 77.895023 50.984281 
L 77.987267 50.856968 
L 77.901172 51.010249 
L 78.007766 50.957529 
L 78.09796 51.015447 
L 78.043638 50.876576 
L 78.117434 50.984642 
L 78.165606 50.8723 
L 78.136907 51.01672 
L 78.229152 50.945665 
L 78.294747 51.015245 
L 78.283473 50.878207 
L 78.34087 50.948779 
L 78.400316 50.87829 
L 78.426964 51.016901 
L 78.449513 50.945838 
L 78.489485 51.01872 
L 78.465912 50.860204 
L 78.562256 50.996044 
L 78.598128 50.885831 
L 78.606328 51.012609 
L 78.680123 50.940982 
L 78.783642 51.01998 
L 78.789791 50.906388 
L 78.894335 51.018588 
L 78.795941 50.868202 
L 78.913808 50.976833 
L 78.920983 50.852585 
L 78.986579 51.011169 
L 79.022451 50.971028 
L 79.037826 51.019129 
L 79.045 50.850066 
L 79.134169 50.991032 
L 79.194641 51.016145 
L 79.145444 50.877001 
L 79.241788 50.945508 
L 79.27766 50.827814 
L 79.323782 51.01587 
L 79.351456 50.94953 
L 79.453949 51.02054 
L 79.396553 50.838503 
L 79.461124 50.935066 
L 79.51647 50.910873 
L 79.469323 51.01608 
L 79.562592 50.988219 
L 79.663036 51.016898 
L 79.631263 50.903723 
L 79.668161 50.919414 
L 79.696859 50.868028 
L 79.673285 51.02057 
L 79.771679 50.972157 
L 79.851624 51.012983 
L 79.861873 50.865625 
L 79.881347 50.935066 
L 79.978716 50.850555 
L 79.950018 51.021311 
L 79.98999 50.995553 
L 80.060711 51.017389 
L 80.012539 50.890167 
L 80.076085 50.912989 
L 80.15808 50.791109 
L 80.114007 51.015268 
L 80.185753 50.907148 
L 80.268773 51.023101 
L 80.281072 50.87672 
L 80.299521 50.951492 
L 80.332319 50.893839 
L 80.395865 51.015093 
L 80.408164 50.963571 
L 80.497333 51.015634 
L 80.485034 50.845014 
L 80.517832 50.956045 
L 80.532181 50.838187 
L 80.549605 51.021292 
L 80.62955 50.925905 
L 80.71257 51.013816 
L 80.661323 50.852113 
L 80.741268 50.96357 
L 80.747417 50.834489 
L 80.838637 51.013765 
L 80.851961 50.944629 
L 80.921656 51.015456 
L 80.878609 50.914927 
L 80.962654 50.944198 
L 81.078471 50.80399 
L 81.037474 51.012725 
L 81.079496 50.820992 
L 81.18404 51.016899 
L 81.196339 51.012542 
L 81.200439 50.908999 
L 81.202489 50.876914 
L 81.290633 51.013371 
L 81.310107 50.933205 
L 81.366478 51.017381 
L 81.41465 50.882888 
L 81.419775 50.955753 
L 81.421825 50.914576 
L 81.480246 51.012995 
L 81.529443 50.978369 
L 81.626812 51.015466 
L 81.612463 50.892388 
L 81.633986 50.930262 
L 81.636036 50.882338 
L 81.648335 51.012908 
L 81.743654 50.959738 
L 81.770303 50.856182 
L 81.751854 51.020323 
L 81.859472 50.935575 
L 81.997838 50.994405 
L 82.001938 50.910324 
L 82.002963 50.901904 
L 82.014237 51.019242 
L 82.109556 50.942378 
L 82.164903 51.017416 
L 82.204875 50.864164 
L 82.219224 50.941936 
L 82.247922 50.825333 
L 82.240748 51.012539 
L 82.327867 50.969886 
L 82.372965 51.022586 
L 82.347341 50.832271 
L 82.439585 50.997512 
L 82.511331 50.851521 
L 82.506206 51.015952 
L 82.552328 50.94922 
L 82.644572 51.012083 
L 82.565652 50.875619 
L 82.664046 50.953781 
L 82.781914 50.787983 
L 82.727592 51.012135 
L 82.783964 50.817686 
L 82.819836 51.022278 
L 82.899781 50.975577 
L 82.9951 50.893128 
L 82.92643 51.01973 
L 83.012524 50.970287 
L 83.126292 50.991538 
L 83.058646 50.92032 
L 83.128342 50.954585 
L 83.228785 50.853055 
L 83.190863 51.017419 
L 83.23801 50.93483 
L 83.297456 51.017384 
L 83.342553 50.799078 
L 83.349728 50.955006 
L 83.440947 50.995018 
L 83.356902 50.876488 
L 83.454271 50.935604 
L 83.505518 50.865938 
L 83.460421 51.005487 
L 83.560864 51.001154 
L 83.651059 51.012333 
L 83.569064 50.852856 
L 83.665408 50.914959 
L 83.667458 50.880554 
L 83.756627 51.017789 
L 83.774051 50.95022 
L 83.887819 51.019513 
L 83.86732 50.911468 
L 83.888844 51.006664 
L 83.965714 50.841008 
L 83.892943 51.015866 
L 84.005686 50.979705 
L 84.091781 51.01642 
L 84.064108 50.81823 
L 84.115354 50.97603 
L 84.198374 50.880287 
L 84.223998 51.01191 
L 84.226047 50.976773 
L 84.351089 50.882988 
L 84.230147 51.013733 
L 84.354164 50.970889 
L 84.438209 51.019219 
L 84.364414 50.912499 
L 84.465882 50.995073 
L 84.50278 50.821963 
L 84.558126 51.020462 
L 84.5776 50.973595 
L 84.692393 50.865871 
L 84.607323 51.020282 
L 84.694443 50.899186 
L 84.775413 51.010209 
L 84.780537 50.870097 
L 84.807186 50.942599 
L 84.853308 51.015892 
L 84.848183 50.875098 
L 84.907629 50.884544 
L 84.948627 50.841544 
L 84.958876 51.016485 
L 85.007048 50.983625 
L 85.089043 51.007175 
L 85.05932 50.853719 
L 85.116716 50.965931 
L 85.230484 50.869643 
L 85.152589 51.019783 
L 85.231509 50.870112 
L 85.256107 51.015923 
L 85.325803 50.859935 
L 85.347326 50.946444 
L 85.429321 50.83178 
L 85.446745 51.018631 
L 85.45597 50.950496 
L 85.560513 51.007504 
L 85.496967 50.880806 
L 85.567688 50.974058 
L 85.590236 50.895513 
L 85.631234 51.020174 
L 85.678381 50.957032 
L 85.699904 51.021167 
L 85.76345 50.843544 
L 85.790098 50.98564 
L 85.836221 50.845598 
L 85.84852 51.022909 
L 85.901816 50.974342 
L 86.005335 51.015388 
L 85.970487 50.83014 
L 86.014559 50.998429 
L 86.109878 51.016098 
L 86.050432 50.913896 
L 86.120128 50.984719 
L 86.226721 50.89143 
L 86.183674 51.00806 
L 86.233895 50.914084 
L 86.339464 51.008832 
L 86.258494 50.863327 
L 86.353813 50.963011 
L 86.364062 50.859308 
L 86.401985 51.01749 
L 86.463481 50.972628 
L 86.502428 51.02243 
L 86.540351 50.854273 
L 86.575199 51.002002 
L 86.645919 51.021951 
L 86.618246 50.857547 
L 86.671543 50.863611 
L 86.742263 50.869621 
L 86.688967 51.0071 
L 86.750463 50.961261 
L 86.753538 51.016255 
L 86.815034 50.801088 
L 86.861156 50.971625 
L 86.95955 50.853742 
L 86.906253 51.018665 
L 86.980048 50.912707 
L 87.027195 51.020439 
L 87.037445 50.857262 
L 87.094841 50.989967 
L 87.162487 50.99067 
L 87.102016 50.919057 
L 87.165562 50.924708 
L 87.27318 50.846661 
L 87.174786 51.020093 
L 87.276255 50.933718 
L 87.335701 50.871766 
L 87.387972 51.014738 
L 87.460743 50.874326 
L 87.498665 50.998682 
L 87.551962 51.01911 
L 87.528389 50.840521 
L 87.58886 50.936403 
L 87.616533 50.814691 
L 87.596034 51.019737 
L 87.696478 50.983464 
L 87.794872 51.01431 
L 87.7385 50.864024 
L 87.801021 50.969941 
L 87.806146 50.893101 
L 87.830744 51.016649 
L 87.909664 51.00549 
L 87.942462 51.01051 
L 87.970136 50.867647 
L 87.971161 50.863729 
L 88.023432 51.012187 
L 88.048031 51.004605 
L 88.084928 51.014944 
L 88.071604 50.869474 
L 88.151549 50.95617 
L 88.187422 50.90085 
L 88.225344 51.017065 
L 88.263267 50.916391 
L 88.357561 51.013342 
L 88.314514 50.889264 
L 88.37601 50.905162 
L 88.419057 50.833818 
L 88.427257 51.016584 
L 88.481578 51.005374 
L 88.517451 51.013565 
L 88.536925 50.86726 
L 88.571773 50.891526 
L 88.573822 50.849252 
L 88.602521 51.008737 
L 88.679391 50.95067 
L 88.707064 51.020715 
L 88.779834 50.85247 
L 88.787009 50.871618 
L 88.789059 50.848238 
L 88.801358 51.015224 
L 88.892577 50.970859 
L 88.997121 51.021778 
L 88.92435 50.91018 
L 88.999171 50.960253 
L 89.008395 50.840994 
L 89.104739 51.012094 
L 89.108839 50.983743 
L 89.309726 50.853015 
L 89.117038 51.001613 
L 89.313826 50.986605 
L 89.351748 51.01776 
L 89.356873 50.920347 
L 89.424519 50.989562 
L 89.493189 50.882389 
L 89.516763 51.016414 
L 89.540336 50.9255 
L 89.549561 51.022384 
L 89.618231 50.909778 
L 89.652054 50.98149 
L 89.727899 50.82823 
L 89.682802 51.018059 
L 89.761722 51.002931 
L 89.789396 50.998181 
L 89.791445 50.896364 
L 89.793495 50.848243 
L 89.79862 51.015166 
L 89.900089 50.948019 
L 89.977984 51.019132 
L 89.945186 50.873397 
L 90.012831 51.011286 
L 90.059978 50.865539 
L 90.028205 51.020993 
L 90.125574 50.929943 
L 90.166572 51.019649 
L 90.232168 50.876197 
L 90.308013 51.016255 
L 90.34491 50.848848 
L 90.42383 51.020958 
L 90.408456 50.840051 
L 90.458678 50.936677 
L 90.481227 50.838334 
L 90.520174 51.017937 
L 90.569371 50.943254 
L 90.652391 51.016173 
L 90.640092 50.876141 
L 90.682114 50.947415 
L 90.760009 51.002971 
L 90.700563 50.921784 
L 90.772308 50.879924 
L 90.773333 50.865273 
L 90.797932 51.013817 
L 90.874802 50.965994 
L 90.946547 51.012181 
L 90.884026 50.845446 
L 90.985495 50.972065 
L 91.062365 50.862354 
L 91.004969 51.003529 
L 91.091063 50.998466 
L 91.191507 51.018203 
L 91.098238 50.888955 
L 91.196632 50.959016 
L 91.228405 50.864463 
L 91.209956 51.010356 
L 91.307325 50.967668 
L 91.353447 51.01987 
L 91.341147 50.890698 
L 91.415968 50.925128 
L 91.537935 51.020147 
L 91.447741 50.878788 
L 91.539985 51.004191 
L 91.562533 50.874042 
L 91.603531 51.016275 
L 91.654778 50.924429 
L 91.736772 51.0196 
L 91.69065 50.898976 
L 91.76957 51.008209 
L 91.806468 50.897257 
L 91.784944 51.010158 
L 91.884363 50.952936 
L 91.886413 51.016762 
L 91.965333 50.853186 
L 91.994031 50.911924 
L 92.08525 51.013065 
L 92.110874 50.921846 
L 92.113949 50.861388 
L 92.171345 51.020035 
L 92.219517 50.960024 
L 92.227716 51.022743 
L 92.259489 50.891537 
L 92.327135 50.898146 
L 92.451152 51.013375 
L 92.392731 50.837009 
L 92.453202 50.983859 
L 92.504449 50.888869 
L 92.508549 51.020367 
L 92.567995 50.922009 
L 92.654089 51.013788 
L 92.670488 50.870913 
L 92.674588 50.898633 
L 92.677663 50.792392 
L 92.743259 51.009111 
L 92.784256 50.950866 
L 92.810905 51.019726 
L 92.790406 50.838957 
L 92.895974 50.967158 
L 93.002567 50.883795 
L 92.910323 51.019194 
L 93.006667 50.979889 
L 93.078413 51.019792 
L 93.017941 50.849236 
L 93.11736 50.969682 
L 93.201405 50.852019 
L 93.129659 51.015942 
L 93.231128 50.932094 
L 93.311073 51.014459 
L 93.302873 50.869315 
L 93.342846 50.931311 
L 93.35617 50.87031 
L 93.361295 51.006576 
L 93.447389 50.985487 
L 93.506836 51.014101 
L 93.493511 50.899676 
L 93.553983 50.91979 
L 93.581656 50.862587 
L 93.578581 51.014954 
L 93.659551 50.983104 
L 93.74872 51.018561 
L 93.720022 50.88901 
L 93.767169 50.934089 
L 93.772294 50.865875 
L 93.791767 51.008729 
L 93.875812 50.958714 
L 93.968056 51.017782 
L 93.897336 50.881405 
L 93.974206 50.899512 
L 93.976256 50.870494 
L 93.99163 51.011568 
L 94.083874 50.932489 
L 94.117697 51.020826 
L 94.146395 50.85941 
L 94.195592 50.946767 
L 94.22224 50.831286 
L 94.268362 51.018029 
L 94.304235 50.968388 
L 94.385205 50.856302 
L 94.418003 51.011264 
L 94.466175 50.862826 
L 94.45695 51.019156 
L 94.530746 50.955108 
L 94.61889 51.006029 
L 94.563544 50.898744 
L 94.641439 50.948807 
L 94.682436 50.858249 
L 94.69986 51.019952 
L 94.702935 51.002402 
" clip-path="url(#p1c607af4c5)" style="fill: none; stroke: #ff7f0e; stroke-width: 0.5; stroke-linecap: square"/>
   </g>
  </g>
 </g>
 <defs>
  <clipPath id="p1c607af4c5">
   <rect x="0" y="-0" width="99.212598" height="51.023622"/>
  </clipPath>
 </defs>
</svg>
