<?xml version="1.0" encoding="utf-8" standalone="no"?>
<!DOCTYPE svg PUBLIC "-//W3C//DTD SVG 1.1//EN"
  "http://www.w3.org/Graphics/SVG/1.1/DTD/svg11.dtd">
<svg xmlns:xlink="http://www.w3.org/1999/xlink" width="56.692913pt" height="28.346457pt" viewBox="0 0 56.692913 28.346457" xmlns="http://www.w3.org/2000/svg" version="1.1">
 <metadata>
  <rdf:RDF xmlns:dc="http://purl.org/dc/elements/1.1/" xmlns:cc="http://creativecommons.org/ns#" xmlns:rdf="http://www.w3.org/1999/02/22-rdf-syntax-ns#">
   <cc:Work>
    <dc:type rdf:resource="http://purl.org/dc/dcmitype/StillImage"/>
    <dc:date>2024-11-01T11:33:21.764642</dc:date>
    <dc:format>image/svg+xml</dc:format>
    <dc:creator>
     <cc:Agent>
      <dc:title>Matplotlib v3.8.4, https://matplotlib.org/</dc:title>
     </cc:Agent>
    </dc:creator>
   </cc:Work>
  </rdf:RDF>
 </metadata>
 <defs>
  <style type="text/css">*{stroke-linejoin: round; stroke-linecap: butt}</style>
 </defs>
 <g id="figure_1">
  <g id="patch_1">
   <path d="M 0 28.346457 
L 56.692913 28.346457 
L 56.692913 0 
L 0 0 
L 0 28.346457 
z
" style="fill: none"/>
  </g>
  <g id="axes_1">
   <g id="patch_2">
    <path d="M 0 28.346457 
L 56.692913 28.346457 
L 56.692913 0 
L 0 0 
L 0 28.346457 
z
" style="fill: none"/>
   </g>
   <g id="matplotlib.axis_1">
    <g id="xtick_1"/>
    <g id="xtick_2"/>
   </g>
   <g id="matplotlib.axis_2">
    <g id="ytick_1"/>
    <g id="ytick_2"/>
   </g>
   <g id="line2d_1">
    <path d="M 2.576951 26.81599 
L 2.603306 27.791761 
L 2.661874 26.275597 
L 2.688229 27.300589 
L 2.697014 26.351759 
L 2.760268 27.923085 
L 2.799508 26.481446 
L 2.889702 27.705436 
L 2.803608 26.321604 
L 2.911958 27.639002 
L 2.950613 26.272702 
L 3.003909 27.716524 
L 3.023237 27.00307 
L 3.037293 26.077581 
L 3.044907 27.860135 
L 3.13393 26.754796 
L 3.239937 27.729309 
L 3.166142 26.315792 
L 3.244623 27.106793 
L 3.353559 26.238122 
L 3.30319 27.84921 
L 3.355901 26.818798 
L 3.356487 27.854052 
L 3.361758 26.329422 
L 3.46718 27.286681 
L 3.542147 26.265765 
L 3.522819 27.903049 
L 3.577873 27.092685 
L 3.672167 27.793571 
L 3.604229 26.437875 
L 3.689152 27.320234 
L 3.730735 26.265432 
L 3.796916 28.126897 
L 3.80043 27.102453 
L 3.809216 26.433545 
L 3.815072 27.85049 
L 3.910538 26.947742 
L 3.959735 27.924337 
L 3.98609 26.399138 
L 4.021231 27.394553 
L 4.12431 26.289596 
L 4.121967 27.838138 
L 4.131924 26.931457 
L 4.231489 27.762934 
L 4.23676 26.250877 
L 4.242617 26.761057 
L 4.278929 27.646955 
L 4.345696 26.142766 
L 4.354481 27.166479 
L 4.415391 26.383006 
L 4.383179 27.947954 
L 4.46576 26.837159 
L 4.535455 27.786829 
L 4.524327 26.470838 
L 4.577038 27.524167 
L 4.616279 27.813595 
L 4.612765 26.343629 
L 4.667233 27.163917 
L 4.678946 26.432042 
L 4.684217 27.763828 
L 4.778511 26.913203 
L 4.815995 26.259233 
L 4.784954 27.828028 
L 4.881005 26.97931 
L 4.931373 27.854349 
L 4.966514 26.214344 
L 4.991698 27.647655 
L 4.998726 26.260629 
L 5.079549 27.90817 
L 5.102977 27.044285 
L 5.159787 27.915006 
L 5.207813 26.242517 
L 5.213084 26.998923 
L 5.217769 26.203301 
L 5.234168 27.816668 
L 5.319677 27.227735 
L 5.377659 27.989681 
L 5.404015 26.132683 
L 5.43037 27.12524 
L 5.460825 27.712713 
L 5.541649 26.30916 
L 5.555119 27.992921 
L 5.578547 26.190188 
L 5.652928 27.365206 
L 5.737265 26.186969 
L 5.682211 28.035687 
L 5.764206 26.996993 
L 5.849129 27.83312 
L 5.805204 26.243658 
L 5.874314 27.23113 
L 5.97915 26.252617 
L 5.882513 27.873271 
L 5.985592 26.959436 
L 6.03596 26.174088 
L 6.018976 27.869404 
L 6.0957 27.058516 
L 6.173009 27.890754 
L 6.13084 26.261284 
L 6.206393 27.208039 
L 6.250318 26.232451 
L 6.290144 27.710703 
L 6.317671 26.406117 
L 6.336413 27.845489 
L 6.353983 25.920731 
L 6.42895 26.881031 
L 6.499231 26.294462 
L 6.456477 27.846338 
L 6.539643 26.706213 
L 6.588254 28.306507 
L 6.635694 26.359012 
L 6.650922 27.099345 
L 6.690162 26.474991 
L 6.662049 27.971593 
L 6.761029 26.720394 
L 6.807883 28.209381 
L 6.857666 26.323366 
L 6.871722 27.304918 
L 6.967187 26.213523 
L 6.883435 27.654098 
L 6.982415 27.088568 
L 7.041568 27.709779 
L 7.002914 26.153716 
L 7.092522 27.234856 
L 7.200287 26.168648 
L 7.154018 27.761361 
L 7.203215 27.211809 
L 7.234842 25.968397 
L 7.243041 27.718322 
L 7.310394 26.980678 
L 7.391803 27.89653 
L 7.418159 26.344141 
L 7.420501 27.439154 
L 7.466184 26.311945 
L 7.524752 27.721711 
L 7.531194 27.355849 
L 7.595033 27.965283 
L 7.586248 26.400292 
L 7.641887 27.248801 
L 7.684056 26.277753 
L 7.671757 27.838532 
L 7.753166 26.710442 
L 7.832818 27.870957 
L 7.815834 26.386899 
L 7.86503 27.098229 
L 7.935897 27.776985 
L 7.966353 26.404173 
L 7.975723 27.446118 
L 7.976895 26.287964 
L 8.058304 27.889739 
L 8.087588 26.909301 
L 8.174854 27.755504 
L 8.108672 26.295964 
L 8.198867 27.137389 
L 8.251577 26.134084 
L 8.285547 27.866082 
L 8.30956 26.842906 
L 8.355828 27.944373 
L 8.351728 26.208448 
L 8.420838 27.307269 
L 8.506933 26.312014 
L 8.483506 27.746283 
L 8.532117 26.995464 
L 8.559058 27.866654 
L 8.601227 26.313041 
L 8.642224 26.659226 
L 8.748817 26.315988 
L 8.689664 27.713426 
L 8.75116 27.172862 
L 8.790986 27.961106 
L 8.799771 26.376684 
L 8.861853 27.729967 
L 8.866539 26.262814 
L 8.870053 27.86525 
L 8.973132 27.065711 
L 9.076211 27.745838 
L 8.99773 26.163529 
L 9.083825 27.188941 
L 9.191004 26.339369 
L 9.169919 27.815952 
L 9.195104 26.94378 
L 9.293497 27.934758 
L 9.218531 26.329185 
L 9.306382 27.651061 
L 9.342109 26.19571 
L 9.322781 27.917379 
L 9.417661 27.351195 
L 9.450459 26.194194 
L 9.462172 28.182807 
L 9.52894 26.627745 
L 9.591607 27.789152 
L 9.586336 26.426007 
L 9.640218 26.835678 
L 9.727484 26.434796 
L 9.736269 27.825451 
L 9.750911 26.486175 
L 9.788395 27.976646 
L 9.849305 26.128947 
L 9.86219 27.22191 
L 9.925443 26.219574 
L 9.902016 27.752521 
L 9.973469 27.124373 
L 10.014466 27.953726 
L 9.991625 26.148716 
L 10.084162 27.035151 
L 10.163814 26.24363 
L 10.167328 28.048994 
L 10.194855 26.69343 
L 10.210668 27.951169 
L 10.232338 25.952715 
L 10.306133 27.177402 
L 10.375829 27.819691 
L 10.361773 26.330435 
L 10.416241 27.015072 
L 10.453724 26.196873 
L 10.483593 27.739837 
L 10.526934 26.91481 
L 10.608343 27.969937 
L 10.615371 26.268339 
L 10.638212 27.025297 
L 10.707322 26.303128 
L 10.679795 27.808498 
L 10.731335 27.004866 
L 10.782875 27.746452 
L 10.794002 26.331124 
L 10.842028 26.777449 
L 10.918752 27.85864 
L 10.950964 26.408828 
L 10.952721 26.74328 
L 11.005432 26.273906 
L 10.981419 27.94769 
L 11.062828 26.961014 
L 11.152437 27.990623 
L 11.078056 26.273962 
L 11.174107 27.650673 
L 11.226818 26.267744 
L 11.219204 27.77813 
L 11.285386 26.489271 
L 11.334583 27.839637 
L 11.32404 26.300418 
L 11.39725 27.402031 
L 11.485102 26.193066 
L 11.48393 27.794713 
L 11.509114 26.696612 
L 11.586424 27.851777 
L 11.562411 26.151086 
L 11.620979 27.641854 
L 11.693603 26.241016 
L 11.67369 27.798909 
L 11.732257 27.388246 
L 11.736357 27.824155 
L 11.739871 26.294524 
L 11.82948 27.207916 
L 11.839436 26.330987 
L 11.866377 28.126577 
L 11.940173 26.776088 
L 11.951886 28.064929 
L 11.974728 26.375625 
L 12.051451 27.04845 
L 12.063751 26.262591 
L 12.121733 27.80283 
L 12.162144 26.983268 
L 12.210756 27.879707 
L 12.255853 26.302696 
L 12.272837 27.398211 
L 12.337262 26.052724 
L 12.301536 27.914982 
L 12.38353 26.995384 
L 12.477239 27.931929 
L 12.469625 26.224478 
L 12.494809 27.31362 
L 12.577975 26.357218 
L 12.517651 27.802637 
L 12.605502 27.294154 
L 12.652942 27.883287 
L 12.712681 26.302374 
L 12.715024 27.37844 
L 12.723809 26.311977 
L 12.728494 27.969325 
L 12.826302 26.827866 
L 12.890727 27.854532 
L 12.863786 26.122947 
L 12.937581 27.652545 
L 12.99732 26.06144 
L 13.043003 27.976649 
L 13.050617 27.048537 
L 13.079901 27.908104 
L 13.086929 26.329227 
L 13.150768 27.341131 
L 13.204064 26.26508 
L 13.221049 27.90398 
L 13.262046 26.774802 
L 13.264389 26.160132 
L 13.285473 27.830368 
L 13.371568 27.057349 
L 13.416665 27.870199 
L 13.394409 26.112533 
L 13.480504 27.526562 
L 13.568356 26.231505 
L 13.487532 27.882836 
L 13.591783 26.848261 
L 13.61111 27.858523 
L 13.663235 26.260421 
L 13.702476 27.214465 
L 13.761629 26.268344 
L 13.727074 27.7564 
L 13.813169 27.109677 
L 13.819611 27.809038 
L 13.914491 26.178272 
L 13.923862 26.797468 
L 13.934989 27.790788 
L 13.997071 26.224871 
L 14.03514 27.141137 
L 14.10835 26.214115 
L 14.130606 27.877895 
L 14.145833 27.295721 
L 14.179217 27.717921 
L 14.207329 26.300004 
L 14.252427 26.687873 
L 14.336178 26.064345 
L 14.316265 27.862653 
L 14.338521 27.205542 
L 14.357848 27.859445 
L 14.369562 26.250446 
L 14.448628 27.124313 
L 14.47557 26.166914 
L 14.541165 27.739535 
L 14.559321 26.796728 
L 14.636631 27.776068 
L 14.606176 26.268247 
L 14.670014 27.146971 
L 14.750252 26.158025 
L 14.770165 27.901255 
L 14.781293 27.065979 
L 14.817605 27.89326 
L 14.784807 26.407319 
L 14.869145 26.880767 
L 14.87793 26.257106 
L 14.92537 27.766257 
L 14.979838 26.687498 
L 15.088188 27.759172 
L 14.98628 26.199313 
L 15.092288 27.709991 
L 15.109272 26.401299 
L 15.113372 27.833351 
L 15.203566 27.109166 
L 15.217037 27.950284 
L 15.269162 26.381293 
L 15.313674 26.886545 
L 15.32363 26.259317 
L 15.324802 27.930829 
L 15.421438 27.364089 
L 15.492305 27.887233 
L 15.508704 26.382747 
L 15.532131 27.403164 
L 15.586599 26.146413 
L 15.537402 27.854509 
L 15.64341 27.082807 
L 15.652781 26.072207 
L 15.676794 28.071948 
L 15.75176 26.715914 
L 15.809157 27.735686 
L 15.85484 25.917619 
L 15.863039 26.973685 
L 15.95499 27.743931 
L 15.942105 26.189808 
L 15.973732 26.935672 
L 16.029957 27.869262 
L 16.068612 26.300653 
L 16.083254 27.049575 
L 16.101995 26.244498 
L 16.179305 28.161042 
L 16.193361 27.464348 
L 16.211517 27.884182 
L 16.240215 26.308858 
L 16.299369 27.148727 
L 16.350908 26.257755 
L 16.337438 27.877433 
L 16.410062 26.79978 
L 16.433489 27.634651 
L 16.451645 26.317925 
L 16.520755 26.824855 
L 16.527783 27.724143 
L 16.571708 26.291087 
L 16.629105 27.094707 
L 16.722228 26.362942 
L 16.630276 27.772081 
L 16.739798 27.073034 
L 16.766739 27.770913 
L 16.81535 26.383676 
L 16.849905 27.155889 
L 16.907887 26.142492 
L 16.9319 27.945588 
L 16.96177 26.699071 
L 17.066606 28.264574 
L 17.057235 26.174585 
L 17.073048 27.04859 
L 17.152115 26.317337 
L 17.07422 27.859003 
L 17.181984 27.276834 
L 17.269836 27.860587 
L 17.194283 26.16402 
L 17.292091 27.103061 
L 17.347731 26.181066 
L 17.337774 27.704873 
L 17.402199 26.830152 
L 17.434411 27.733096 
L 17.474237 26.243104 
L 17.513477 27.097416 
L 17.540419 27.883698 
L 17.532219 26.147197 
L 17.62417 27.162821 
L 17.659311 26.146058 
L 17.659897 28.019647 
L 17.729007 26.897527 
L 17.756534 27.768259 
L 17.8274 26.198341 
L 17.8397 27.326478 
L 17.92638 26.227986 
L 17.946293 27.688246 
L 17.950393 27.436406 
L 18.015989 27.820723 
L 18.008375 26.351683 
L 18.038244 26.896124 
L 18.121996 26.20227 
L 18.040587 27.801497 
L 18.147766 26.940651 
L 18.189349 27.799031 
L 18.186421 26.192622 
L 18.258459 26.903552 
L 18.265487 28.166462 
L 18.331083 26.354054 
L 18.369152 26.988146 
L 18.369738 26.091725 
L 18.417177 27.991977 
L 18.479845 27.413584 
L 18.496244 27.691445 
L 18.542512 26.249413 
L 18.58351 27.110009 
L 18.654962 26.341853 
L 18.601666 27.910762 
L 18.694203 27.065966 
L 18.707088 27.746673 
L 18.77854 26.531078 
L 18.797868 26.916208 
L 18.856435 26.394521 
L 18.831837 27.747698 
L 18.908561 26.464398 
L 18.935502 26.353152 
L 19.020425 27.912617 
L 19.119404 26.376436 
L 19.131704 27.053188 
L 19.234197 26.275177 
L 19.227169 27.706564 
L 19.241225 26.837059 
L 19.281637 27.830707 
L 19.328491 26.005188 
L 19.353675 27.742861 
L 19.411657 26.289902 
L 19.360118 27.752112 
L 19.464954 26.937478 
L 19.568033 27.756414 
L 19.486038 26.434297 
L 19.576233 27.357898 
L 19.651785 26.198003 
L 19.639486 27.867441 
L 19.688097 26.84638 
L 19.785905 27.942934 
L 19.689268 26.342028 
L 19.798204 27.402537 
L 19.882542 26.208668 
L 19.847987 27.875496 
L 19.909483 27.165974 
L 19.95458 26.267885 
L 19.931739 27.764265 
L 20.01959 27.065908 
L 20.104514 27.853544 
L 20.064688 26.127305 
L 20.130283 26.815472 
L 20.134969 27.954076 
L 20.165424 26.32106 
L 20.241562 27.372814 
L 20.325314 26.182139 
L 20.277874 27.723329 
L 20.352841 26.566932 
L 20.435421 27.972661 
L 20.448892 26.340333 
L 20.464119 27.182281 
L 20.491061 25.885487 
L 20.547286 27.699304 
L 20.574812 26.939011 
L 20.599411 28.06069 
L 20.661493 26.232563 
L 20.686091 27.192876 
L 20.743487 26.348194 
L 20.692534 27.838032 
L 20.796784 27.186678 
L 20.817869 27.767652 
L 20.812012 26.363065 
L 20.898692 26.783438 
L 20.899278 26.202164 
L 20.97893 27.981853 
L 21.009385 26.539257 
L 21.036326 27.724167 
L 21.030469 26.422646 
L 21.121249 27.2349 
L 21.12652 26.055182 
L 21.220814 27.692788 
L 21.232528 27.000247 
L 21.241313 26.204616 
L 21.244242 27.961929 
L 21.341464 27.106475 
L 21.430487 28.156799 
L 21.39886 26.165936 
L 21.451571 26.921084 
L 21.523024 26.252336 
L 21.504282 28.055537 
L 21.552308 26.870772 
L 21.622003 27.749543 
L 21.575149 26.265471 
L 21.663586 27.176678 
L 21.670029 26.007695 
L 21.766666 27.902215 
L 21.774279 26.905544 
L 21.883801 27.837047 
L 21.792435 26.411329 
L 21.885558 27.327523 
L 21.982195 26.069204 
L 21.930655 27.714884 
L 21.99508 27.547923 
L 22.005622 27.814438 
L 22.013821 26.316286 
L 22.102259 26.918499 
L 22.178397 25.964851 
L 22.128029 27.743009 
L 22.212366 27.283361 
L 22.269762 26.108285 
L 22.309003 27.817959 
L 22.32423 27.165854 
L 22.334773 27.783176 
L 22.411496 26.269061 
L 22.434338 27.387964 
L 22.530974 26.297371 
L 22.544445 27.92878 
L 22.545616 26.839409 
L 22.638739 28.010512 
L 22.581343 26.201883 
L 22.656895 27.39216 
L 22.76056 26.342289 
L 22.689693 27.834685 
L 22.768174 26.671369 
L 22.870082 27.838238 
L 22.840798 26.326135 
L 22.879452 27.033426 
L 22.899365 27.855822 
L 22.902294 26.264239 
L 22.98956 27.362791 
L 23.00713 26.090139 
L 23.004787 27.786017 
L 23.100838 26.7588 
L 23.179905 25.964408 
L 23.174634 27.905583 
L 23.209189 26.797157 
L 23.215631 27.860694 
L 23.2537 26.321292 
L 23.319882 27.024637 
L 23.408319 26.331154 
L 23.331595 27.829808 
L 23.430575 27.043404 
L 23.531897 28.184587 
L 23.445217 26.266177 
L 23.541268 27.254447 
L 23.596907 26.316896 
L 23.646104 27.804706 
L 23.651961 26.855182 
L 23.729856 28.027246 
L 23.678316 26.244792 
L 23.762068 26.882911 
L 23.762654 26.261965 
L 23.821807 27.759928 
L 23.872175 26.725985 
L 23.897945 27.665459 
L 23.967641 26.244869 
L 23.983454 27.055451 
L 24.02738 26.291876 
L 23.991654 27.835899 
L 24.094147 27.078976 
L 24.162086 27.819522 
L 24.127531 26.330606 
L 24.20484 26.945628 
L 24.252866 26.361779 
L 24.29562 28.024669 
L 24.315533 26.76763 
L 24.366487 27.829808 
L 24.365901 26.056064 
L 24.427397 27.174992 
L 24.52872 27.680819 
L 24.497679 26.132767 
L 24.536919 27.083988 
L 24.545119 26.306762 
L 24.63707 27.795706 
L 24.648198 26.890821 
L 24.751277 27.825536 
L 24.671625 26.182264 
L 24.759476 27.186639 
L 24.770604 27.958047 
L 24.831515 26.182074 
L 24.870169 27.2471 
L 24.896525 26.382504 
L 24.939865 27.807011 
L 24.980277 27.339448 
L 24.984376 27.908009 
L 25.055829 26.258047 
L 25.090384 27.273609 
L 25.099755 26.192242 
L 25.094484 27.756199 
L 25.201077 27.452315 
L 25.225675 26.190109 
L 25.26433 27.855277 
L 25.312941 26.838136 
L 25.366238 27.961879 
L 25.37678 26.245036 
L 25.423049 27.168248 
L 25.42832 26.244635 
L 25.471074 27.929706 
L 25.533742 27.544865 
L 25.616908 26.332005 
L 25.611637 27.809294 
L 25.64502 27.296356 
L 25.717644 26.313649 
L 25.655563 27.91993 
L 25.751614 27.347227 
L 25.775626 27.860395 
L 25.837708 26.259423 
L 25.861721 27.439585 
L 25.888076 26.33741 
L 25.920874 27.839156 
L 25.972414 27.126003 
L 26.059094 27.918978 
L 26.053823 26.231125 
L 26.080764 27.028752 
L 26.156902 26.289856 
L 26.086035 27.857749 
L 26.190872 27.333786 
L 26.234797 27.860053 
L 26.238311 26.309997 
L 26.300979 27.154137 
L 26.320306 26.371667 
L 26.351347 27.710769 
L 26.411086 26.860515 
L 26.421628 27.927877 
L 26.447398 26.170732 
L 26.521779 27.188819 
L 26.572733 26.297753 
L 26.573319 27.856999 
L 26.633058 27.013006 
L 26.707439 27.894918 
L 26.661756 26.348386 
L 26.743751 26.908527 
L 26.744337 26.909864 
L 26.844487 27.874842 
L 26.80349 26.304325 
L 26.855615 27.312997 
L 26.962794 26.468105 
L 26.898955 27.73641 
L 26.966308 26.77407 
L 27.072902 27.988988 
L 27.019605 26.441396 
L 27.077587 27.214601 
L 27.096329 26.368131 
L 27.109799 27.789067 
L 27.155482 27.040943 
L 27.18828 27.797109 
L 27.247433 26.183625 
L 27.266175 27.072574 
L 27.3306 27.839096 
L 27.267346 26.294599 
L 27.371597 26.773165 
L 27.437193 26.354534 
L 27.419622 27.875497 
L 27.482876 26.371535 
L 27.530901 27.771127 
L 27.498689 26.316127 
L 27.594154 27.245306 
L 27.663264 26.090705 
L 27.665021 27.944663 
L 27.704847 27.253382 
L 27.783914 27.722135 
L 27.75053 26.437845 
L 27.814955 27.131387 
L 27.844238 26.316374 
L 27.882307 27.964838 
L 27.926233 27.038206 
L 27.92799 28.035368 
L 27.988901 26.388284 
L 28.036926 27.018753 
L 28.13942 25.952938 
L 28.118921 27.839601 
L 28.146448 27.001906 
L 28.217315 27.593975 
L 28.169289 26.325644 
L 28.257141 27.430294 
L 28.324494 26.222239 
L 28.31688 27.725109 
L 28.36842 26.88701 
L 28.383062 27.964811 
L 28.442801 26.315745 
L 28.480284 27.171971 
L 28.497854 28.003358 
L 28.550565 26.124215 
L 28.581606 26.93834 
L 28.592148 26.048721 
L 28.653059 27.922731 
L 28.692299 26.955405 
L 28.800649 27.8984 
L 28.699327 25.947979 
L 28.802992 26.83022 
L 28.846918 27.69622 
L 28.87913 26.143339 
L 28.914856 26.992592 
L 28.974596 26.160997 
L 28.982795 27.991799 
L 29.024964 26.665116 
L 29.122772 27.951275 
L 29.048977 26.399454 
L 29.136242 26.966744 
L 29.175483 27.8871 
L 29.228779 26.180489 
L 29.245764 27.278984 
L 29.304918 26.424088 
L 29.318974 27.92348 
L 29.357043 26.900744 
L 29.361143 27.787046 
L 29.382813 26.44206 
L 29.468321 27.380952 
L 29.54446 26.074432 
L 29.512833 27.995386 
L 29.5796 27.132048 
L 29.670966 27.88243 
L 29.623526 26.274225 
L 29.690879 27.329688 
L 29.745932 26.183618 
L 29.768774 27.929634 
L 29.801572 26.716718 
L 29.839641 27.792459 
L 29.809186 26.153293 
L 29.91285 27.348011 
L 29.939792 26.324835 
L 30.014758 27.778787 
L 30.024129 26.917318 
L 30.036428 28.044813 
L 30.041114 26.36825 
L 30.134822 27.223726 
L 30.152392 26.108611 
L 30.167034 27.962382 
L 30.245515 27.024807 
L 30.333952 27.895968 
L 30.333367 26.296826 
L 30.356794 27.174938 
L 30.379635 26.110272 
L 30.403648 28.153458 
L 30.463387 26.929313 
L 30.572909 27.868442 
L 30.537768 26.373139 
L 30.57408 26.90528 
L 30.623277 26.195592 
L 30.667203 27.741064 
L 30.683602 27.170298 
L 30.684187 27.882416 
L 30.780238 26.273252 
L 30.794295 26.888194 
L 30.85052 27.842821 
L 30.861648 26.223423 
L 30.904402 27.006773 
L 30.951842 26.224119 
L 30.985811 27.791431 
L 31.015095 26.99519 
L 31.102947 27.794632 
L 31.036765 26.391641 
L 31.125788 27.04443 
L 31.235895 26.355368 
L 31.160929 27.829194 
L 31.237067 26.949805 
L 31.342489 27.929555 
L 31.297392 26.346321 
L 31.348345 27.63489 
L 31.379972 26.103708 
L 31.380558 27.734231 
L 31.459038 27.449186 
L 31.552161 27.811155 
L 31.534005 26.409582 
L 31.569146 27.032355 
L 31.673982 28.045949 
L 31.643527 26.345253 
L 31.679839 26.939969 
L 31.756562 26.152146 
L 31.735478 28.086086 
L 31.790532 26.692022 
L 31.852614 27.737001 
L 31.809859 26.290055 
L 31.901225 27.184044 
L 31.942222 26.394517 
L 31.960964 27.774014 
L 32.011918 27.076607 
L 32.066971 27.959359 
L 32.089227 26.148799 
L 32.113826 27.714117 
L 32.121439 26.167299 
L 32.16478 27.938561 
L 32.225104 27.268708 
L 32.230961 26.295828 
L 32.307099 27.899078 
L 32.335797 26.594898 
L 32.37738 27.703354 
L 32.392022 26.469806 
L 32.447662 27.386431 
L 32.476945 26.326136 
L 32.530828 27.823727 
L 32.559526 26.622606 
L 32.670219 28.028724 
L 32.648549 26.154077 
L 32.670805 26.883949 
L 32.707117 27.922845 
L 32.717659 26.497907 
L 32.729958 27.212761 
L 32.778569 26.112448 
L 32.810782 27.789655 
L 32.840651 26.91658 
L 32.869349 27.784999 
L 32.911518 26.344331 
L 32.952515 27.624516 
L 32.967157 26.464701 
L 33.020454 27.874289 
L 33.063794 26.990209 
L 33.167459 27.973572 
L 33.137004 26.257709 
L 33.172144 26.871205 
L 33.251211 25.995482 
L 33.239497 27.901891 
L 33.277566 27.254787 
L 33.366004 27.746714 
L 33.343748 26.28714 
L 33.388259 27.258306 
L 33.433356 26.290454 
L 33.450927 27.732912 
L 33.498952 27.468216 
L 33.597932 27.90844 
L 33.592661 26.240579 
L 33.607888 27.07344 
L 33.716824 26.449086 
L 33.68754 27.882311 
L 33.718581 27.268704 
L 33.790034 26.283186 
L 33.806433 27.929866 
L 33.82986 26.650313 
L 33.839231 27.813647 
L 33.911855 26.264231 
L 33.941724 27.640047 
L 33.962809 26.364982 
L 34.012591 27.925219 
L 34.053589 27.127435 
L 34.089901 27.827256 
L 34.071159 26.292835 
L 34.160768 27.117448 
L 34.226949 26.166296 
L 34.204693 27.746261 
L 34.271461 26.923257 
L 34.321829 27.794841 
L 34.351698 26.17867 
L 34.382154 27.183192 
L 34.382739 26.296178 
L 34.484061 27.830308 
L 34.493432 26.794341 
L 34.590655 27.735743 
L 34.537358 26.384854 
L 34.604125 27.31149 
L 34.628724 26.229706 
L 34.606468 27.767947 
L 34.715404 27.092613 
L 34.811455 26.26544 
L 34.760501 27.792275 
L 34.815555 27.262063 
L 34.875294 27.806773 
L 34.903992 26.406495 
L 34.926248 27.361638 
L 34.951432 26.427926 
L 35.031084 28.046229 
L 35.036355 27.138657 
L 35.094337 27.898984 
L 35.11015 26.29419 
L 35.147048 27.592658 
L 35.206787 26.383428 
L 35.168718 27.881788 
L 35.258327 26.987543 
L 35.260669 26.473484 
L 35.29581 27.646958 
L 35.306352 26.944544 
L 35.306938 27.898345 
L 35.356721 26.239761 
L 35.417045 26.529746 
L 35.479127 27.894593 
L 35.471513 26.372243 
L 35.52891 27.114305 
L 35.618518 27.791384 
L 35.531252 26.362926 
L 35.639603 27.026054 
L 35.687042 25.994764 
L 35.672986 27.728378 
L 35.751467 26.490282 
L 35.854546 27.862765 
L 35.839319 26.159679 
L 35.863331 27.274613 
L 35.911943 26.397196 
L 35.961725 27.702862 
L 35.975196 26.90877 
L 35.999208 27.881813 
L 36.007994 26.353244 
L 36.085889 27.454031 
L 36.152656 26.201584 
L 36.096431 27.799889 
L 36.197167 26.637664 
L 36.305518 27.801482 
L 36.256321 26.219587 
L 36.308446 27.219192 
L 36.345344 27.745358 
L 36.311374 25.982037 
L 36.415039 27.037049 
L 36.456037 26.265959 
L 36.514019 27.793896 
L 36.524561 27.164381 
L 36.567315 27.899122 
L 36.560287 26.352108 
L 36.635254 27.339247 
L 36.655167 26.362374 
L 36.71432 27.795832 
L 36.745947 27.114848 
L 36.853712 28.295985 
L 36.845512 26.271387 
L 36.85664 27.339896 
L 36.923407 26.408396 
L 36.93922 27.705483 
L 36.967333 27.019486 
L 36.971433 28.008276 
L 37.060456 26.043207 
L 37.076855 26.965407 
L 37.152407 26.271583 
L 37.093839 27.831378 
L 37.187548 27.244894 
L 37.297655 26.31296 
L 37.292969 27.834574 
L 37.298241 26.796835 
L 37.393706 27.707922 
L 37.326353 26.302834 
L 37.408934 27.17811 
L 37.501471 26.284092 
L 37.504399 27.787368 
L 37.520212 26.952162 
L 37.619777 26.174798 
L 37.530754 27.760678 
L 37.63032 27.01047 
L 37.681274 27.890468 
L 37.697087 26.17347 
L 37.740427 27.393972 
L 37.796066 26.177059 
L 37.827107 27.773172 
L 37.851706 27.040526 
L 37.926087 27.804345 
L 37.921987 26.2085 
L 37.962984 27.29096 
L 37.986997 26.417742 
L 37.989925 28.047195 
L 38.068992 27.508183 
L 38.075434 28.000623 
L 38.077191 26.257362 
L 38.148058 27.074036 
L 38.234153 26.286876 
L 38.150401 27.762159 
L 38.258751 27.178751 
L 38.317905 27.963261 
L 38.295063 26.304339 
L 38.368273 27.507361 
L 38.37413 26.315644 
L 38.411613 27.853638 
L 38.478966 26.922549 
L 38.495365 27.667069 
L 38.583216 26.271821 
L 38.590245 27.153459 
L 38.681025 26.088592 
L 38.673411 27.687638 
L 38.700938 26.807073 
L 38.741935 27.967701 
L 38.731978 26.368355 
L 38.812216 27.026347 
L 38.827444 26.212585 
L 38.843257 27.896867 
L 38.919981 26.952842 
L 38.938137 28.112345 
L 39.016618 26.052176 
L 39.030088 26.925292 
L 39.072257 26.191346 
L 39.068743 27.859643 
L 39.140781 26.976173 
L 39.202277 27.760514 
L 39.144881 26.275057 
L 39.25206 27.384867 
L 39.345183 26.231991 
L 39.314142 27.944652 
L 39.363339 27.099359 
L 39.383837 27.893421 
L 39.42952 26.346058 
L 39.474032 27.011456 
L 39.527328 27.957957 
L 39.561297 26.351159 
L 39.584139 27.313844 
L 39.645049 26.245469 
L 39.609323 27.857336 
L 39.695418 26.908261 
L 39.773313 27.806604 
L 39.793811 26.107301 
L 39.806696 27.337571 
L 39.837737 26.084825 
L 39.850622 27.753753 
L 39.917389 26.405615 
L 39.949016 27.770226 
L 39.972443 26.151536 
L 40.028668 27.029062 
L 40.11242 27.789132 
L 40.108906 26.270376 
L 40.139947 27.333739 
L 40.158103 26.273392 
L 40.150489 27.626573 
L 40.251225 27.074233 
L 40.261182 27.875254 
L 40.306279 26.329755 
L 40.351962 27.074167 
L 40.371289 26.195355 
L 40.385345 27.825184 
L 40.462655 26.895152 
L 40.559877 27.994902 
L 40.552849 26.020759 
L 40.573933 27.1853 
L 40.63543 28.068161 
L 40.620788 26.309613 
L 40.679355 26.974235 
L 40.688141 26.387007 
L 40.708054 27.809877 
L 40.789463 26.85546 
L 40.804105 28.041673 
L 40.857987 26.213864 
L 40.900741 27.115909 
L 40.987422 27.791957 
L 40.940567 26.281594 
L 41.000892 26.785211 
L 41.081716 26.029591 
L 41.040718 27.774103 
L 41.111585 26.541128 
L 41.139698 27.848107 
L 41.210565 26.271093 
L 41.222864 27.302655 
L 41.224621 26.309277 
L 41.25859 27.885347 
L 41.333557 27.474328 
L 41.441907 26.161411 
L 41.344099 27.815407 
L 41.444836 27.012244 
L 41.520974 27.663235 
L 41.526245 26.269617 
L 41.556114 27.142388 
L 41.663879 28.149154 
L 41.559043 26.325785 
L 41.664464 27.047561 
L 41.680278 26.301038 
L 41.754073 27.884416 
L 41.775157 26.649093 
L 41.851296 27.975192 
L 41.789214 26.472116 
L 41.887022 27.903043 
L 41.902249 26.246627 
L 41.998301 26.44068 
L 42.079124 27.909773 
L 42.082638 26.429097 
L 42.109579 27.252689 
L 42.163461 26.208961 
L 42.214415 28.038695 
L 42.221444 26.333707 
L 42.238428 28.115353 
L 42.311052 25.82317 
L 42.332722 26.875529 
L 42.373134 26.413885 
L 42.337408 27.740721 
L 42.43463 26.587232 
L 42.468014 27.769979 
L 42.470942 25.972224 
L 42.545909 26.939577 
L 42.650159 27.92226 
L 42.589835 26.126054 
L 42.657187 27.18638 
L 42.707556 27.855974 
L 42.723955 26.271902 
L 42.76788 26.912385 
L 42.846947 26.273378 
L 42.77608 27.722427 
L 42.878573 27.107825 
L 42.967011 28.113196 
L 42.933627 26.408376 
L 42.988095 27.200023 
L 43.027921 26.236887 
L 43.087075 27.818543 
L 43.099374 26.965442 
L 43.20011 27.873957 
L 43.152085 26.236851 
L 43.210067 27.123002 
L 43.24755 26.0627 
L 43.244622 27.82515 
L 43.321345 26.8627 
L 43.366443 26.169479 
L 43.329545 28.048903 
L 43.42911 27.154117 
L 43.46835 28.058955 
L 43.521647 26.469347 
L 43.538632 27.312626 
L 43.643468 26.163052 
L 43.615355 27.857422 
L 43.649325 27.052989 
L 43.686222 27.803906 
L 43.746547 25.96475 
L 43.760603 27.2546 
L 43.790473 26.369124 
L 43.868954 27.762961 
L 43.871296 26.65551 
L 43.977304 28.020297 
L 43.910537 26.326697 
L 43.982575 27.0391 
L 44.069255 27.934338 
L 44.047 26.226278 
L 44.092682 27.460364 
L 44.115524 26.295626 
L 44.160035 27.794671 
L 44.203375 27.326152 
L 44.203961 27.902225 
L 44.274242 26.469161 
L 44.314068 27.217484 
L 44.339252 26.297648 
L 44.355651 27.854923 
L 44.424761 26.76728 
L 44.524912 27.769208 
L 44.502656 26.237399 
L 44.53604 27.179587 
L 44.620963 27.841094 
L 44.561224 26.347457 
L 44.646733 27.398311 
L 44.663718 26.351815 
L 44.753912 27.912536 
L 44.757426 26.868482 
L 44.805452 27.708411 
L 44.85582 26.206881 
L 44.868705 27.126536 
L 44.963584 26.058309 
L 44.941329 27.638428 
L 44.980569 26.489911 
L 44.989354 27.951742 
L 45.034451 26.210255 
L 45.091848 26.896936 
L 45.196684 26.242216 
L 45.168571 27.79305 
L 45.201955 26.791009 
L 45.294492 28.103044 
L 45.264623 26.244541 
L 45.313234 27.292035 
L 45.403428 26.27096 
L 45.342518 27.862162 
L 45.424512 26.970261 
L 45.427441 27.903085 
L 45.51295 26.216167 
L 45.534034 27.092806 
L 45.614272 26.401159 
L 45.623643 28.346457 
L 45.644727 27.19178 
L 45.679282 26.246389 
L 45.68631 27.753568 
L 45.754249 26.484565 
L 45.829215 27.911659 
L 45.86377 26.277702 
L 45.865527 26.969993 
L 45.939323 28.107728 
L 45.893054 26.421264 
L 45.975049 26.987263 
L 46.066415 26.179116 
L 46.047087 27.823396 
L 46.086328 26.650473 
L 46.176522 27.840852 
L 46.17008 26.201275 
L 46.197606 26.975526 
L 46.276087 27.880312 
L 46.235675 26.292846 
L 46.308299 27.083691 
L 46.396737 26.30848 
L 46.385023 27.868698 
L 46.418992 27.163619 
L 46.524414 27.785493 
L 46.427778 26.373095 
L 46.526757 27.323749 
L 46.590596 26.172868 
L 46.544327 27.734551 
L 46.63745 27.063172 
L 46.666734 27.878631 
L 46.725302 26.33772 
L 46.748729 27.212559 
L 46.772741 26.113318 
L 46.7581 27.879438 
L 46.859422 27.291032 
L 46.908033 27.776187 
L 46.900419 26.234401 
L 46.968943 26.987422 
L 47.072023 26.501376 
L 47.032782 27.749424 
L 47.079636 27.070793 
L 47.115363 27.84058 
L 47.104235 26.068824 
L 47.190329 27.104585 
L 47.199114 26.060184 
L 47.28638 28.005621 
L 47.301608 26.659445 
L 47.331478 27.979978 
L 47.360176 26.235977 
L 47.412301 26.896411 
L 47.474383 26.11849 
L 47.518309 28.103844 
L 47.521237 26.954508 
L 47.535293 27.821892 
L 47.551692 26.328555 
L 47.632516 27.24551 
L 47.67937 26.141278 
L 47.678198 27.992299 
L 47.743209 26.947999 
L 47.828718 27.903953 
L 47.746137 26.245857 
L 47.854487 27.09871 
L 47.953467 27.799396 
L 47.955224 26.335421 
L 47.963423 27.053557 
L 48.053618 26.4587 
L 48.038976 27.813604 
L 48.073531 27.028443 
L 48.091101 27.863755 
L 48.085244 26.336278 
L 48.184809 27.30183 
L 48.262704 26.317918 
L 48.217607 27.868777 
L 48.296088 27.012204 
L 48.375154 27.96254 
L 48.374569 26.358382 
L 48.406781 26.980075 
L 48.414395 27.946407 
L 48.407952 26.465026 
L 48.511617 27.367554 
L 48.550858 26.13305 
L 48.577213 27.982233 
L 48.62231 27.228301 
L 48.649251 27.699128 
L 48.69552 26.250286 
L 48.727732 27.075822 
L 48.75643 26.205597 
L 48.754673 27.795343 
L 48.838425 26.738698 
L 48.936233 27.757815 
L 48.900507 26.112773 
L 48.949704 27.345982 
L 49.006514 27.831687 
L 49.059811 26.300422 
L 49.060397 28.138677 
L 49.130092 26.204498 
L 49.17109 27.026574 
L 49.241957 26.250479 
L 49.25367 27.960857 
L 49.281197 26.924844 
L 49.356749 27.811025 
L 49.333908 26.317687 
L 49.391304 27.081356 
L 49.462171 27.734033 
L 49.501997 26.191802 
L 49.599806 27.857593 
L 49.613276 26.964962 
L 49.6818 27.674008 
L 49.618547 26.048257 
L 49.723969 27.142887 
L 49.732169 26.204694 
L 49.832319 27.962297 
L 49.834662 27.166422 
L 49.873902 26.296796 
L 49.896158 28.023745 
L 49.943598 26.998362 
L 49.944184 28.02271 
L 50.019736 26.072945 
L 50.054291 26.946346 
L 50.163813 26.23672 
L 50.095874 27.78936 
L 50.164398 27.022935 
L 50.174941 27.781998 
L 50.227066 26.025323 
L 50.268063 27.199718 
L 50.304961 26.356027 
L 50.344787 27.748505 
L 50.378756 26.73971 
L 50.401598 27.859894 
L 50.436738 26.011962 
L 50.490035 27.12724 
L 50.501748 27.80158 
L 50.589014 26.286205 
L 50.599557 26.743757 
L 50.645825 26.170584 
L 50.669838 27.964199 
L 50.70615 27.345378 
L 50.739533 27.8764 
L 50.724306 26.409471 
L 50.816843 27.670437 
L 50.819186 26.382998 
L 50.838513 27.857837 
L 50.929293 27.078721 
L 51.028272 27.910592 
L 50.99196 26.305129 
L 51.0394 27.019579 
L 51.087426 26.39822 
L 51.059899 27.760147 
L 51.148922 27.023267 
L 51.20339 27.807079 
L 51.167078 26.363041 
L 51.259615 27.390867 
L 51.308226 26.148495 
L 51.360937 27.850752 
L 51.370308 27.170562 
L 51.393735 27.813486 
L 51.414819 26.270502 
L 51.481001 27.376593 
L 51.531369 26.274468 
L 51.543668 27.971031 
L 51.591694 26.495576 
L 51.59228 27.757671 
L 51.664903 26.280959 
L 51.702973 27.121817 
L 51.748655 26.384577 
L 51.708829 27.96358 
L 51.814251 26.647523 
L 51.902688 27.784238 
L 51.841778 26.233785 
L 51.92553 26.967959 
L 51.955985 26.491077 
L 51.951885 27.775834 
L 51.976484 27.157076 
L 51.977069 27.923993 
L 52.067264 26.135049 
L 52.087177 26.864595 
L 52.170343 27.818148 
L 52.108847 26.252375 
L 52.19787 27.384911 
L 52.220126 26.337579 
L 52.306806 27.884912 
L 52.308563 26.941813 
L 52.358931 27.760303 
L 52.31442 26.272718 
L 52.41867 26.761286 
L 52.524678 26.469543 
L 52.44444 27.929724 
L 52.529363 26.74437 
L 52.546933 27.930043 
L 52.579731 26.514982 
L 52.641227 27.574649 
L 52.685739 26.446056 
L 52.726151 27.744569 
L 52.753677 26.768083 
L 52.820445 27.826609 
L 52.757192 25.857587 
L 52.864956 26.845116 
L 52.925867 26.476262 
L 52.924695 27.883173 
L 52.974478 27.142447 
L 53.034803 27.731514 
L 53.043588 26.217907 
L 53.083999 27.378627 
L 53.118554 26.336343 
L 53.089856 27.738206 
L 53.195278 26.931246 
L 53.284887 27.817387 
L 53.3048 26.448446 
L 53.306557 27.537421 
L 53.370396 25.98573 
L 53.341112 27.869069 
L 53.41725 27.3244 
L 53.482846 27.823337 
L 53.490459 26.370974 
L 53.526771 27.017512 
L 53.56484 26.171722 
L 53.581239 27.814979 
L 53.626922 26.602682 
L 53.720045 27.869601 
L 53.701303 26.297402 
L 53.738201 27.143809 
L 53.744058 27.810582 
L 53.787984 26.386047 
L 53.804382 27.498089 
L 53.804968 25.977434 
L 53.847137 27.818813 
L 53.915075 27.407447 
L 53.954316 27.898747 
L 53.936746 26.258248 
L 54.024011 27.070939 
L 54.086679 26.393674 
L 54.097807 27.741079 
L 54.115963 26.554298 
" clip-path="url(#p57fcd5b43a)" style="fill: none; stroke: #7f7f7f; stroke-width: 0.05; stroke-linecap: square"/>
   </g>
  </g>
 </g>
 <defs>
  <clipPath id="p57fcd5b43a">
   <rect x="0" y="0" width="56.692913" height="28.346457"/>
  </clipPath>
 </defs>
</svg>
