<?xml version="1.0" encoding="utf-8" standalone="no"?>
<!DOCTYPE svg PUBLIC "-//W3C//DTD SVG 1.1//EN"
  "http://www.w3.org/Graphics/SVG/1.1/DTD/svg11.dtd">
<svg xmlns:xlink="http://www.w3.org/1999/xlink" width="99.212598pt" height="51.023622pt" viewBox="0 0 99.212598 51.023622" xmlns="http://www.w3.org/2000/svg" version="1.1">
 <metadata>
  <rdf:RDF xmlns:dc="http://purl.org/dc/elements/1.1/" xmlns:cc="http://creativecommons.org/ns#" xmlns:rdf="http://www.w3.org/1999/02/22-rdf-syntax-ns#">
   <cc:Work>
    <dc:type rdf:resource="http://purl.org/dc/dcmitype/StillImage"/>
    <dc:date>2024-10-30T10:51:16.104778</dc:date>
    <dc:format>image/svg+xml</dc:format>
    <dc:creator>
     <cc:Agent>
      <dc:title>Matplotlib v3.8.4, https://matplotlib.org/</dc:title>
     </cc:Agent>
    </dc:creator>
   </cc:Work>
  </rdf:RDF>
 </metadata>
 <defs>
  <style type="text/css">*{stroke-linejoin: round; stroke-linecap: butt}</style>
 </defs>
 <g id="figure_1">
  <g id="patch_1">
   <path d="M 0 51.023622 
L 99.212598 51.023622 
L 99.212598 0 
L 0 0 
L 0 51.023622 
z
" style="fill: none"/>
  </g>
  <g id="axes_1">
   <g id="patch_2">
    <path d="M 0 51.023622 
L 99.212598 51.023622 
L 99.212598 -0 
L 0 -0 
L 0 51.023622 
z
" style="fill: none"/>
   </g>
   <g id="matplotlib.axis_1">
    <g id="xtick_1"/>
    <g id="xtick_2"/>
   </g>
   <g id="matplotlib.axis_2">
    <g id="ytick_1"/>
    <g id="ytick_2"/>
   </g>
   <g id="line2d_1">
    <path d="M 4.509664 24.607624 
L 4.562537 27.811545 
L 4.618521 25.004789 
L 4.724269 14.558574 
L 4.786473 2.319256 
L 4.833126 14.258455 
L 4.945094 46.008541 
L 4.991748 35.476729 
L 5.01974 32.945181 
L 5.075724 40.090282 
L 5.131708 42.756452 
L 5.193912 41.218048 
L 5.225014 40.064138 
L 5.268557 42.921818 
L 5.284108 43.667825 
L 5.361864 41.755002 
L 5.461391 34.982639 
L 5.545367 38.894296 
L 5.753752 47.073452 
L 5.766192 46.607171 
L 5.899932 35.688967 
L 5.940365 40.676399 
L 6.049222 47.540823 
L 6.089655 44.142194 
L 6.102096 43.274149 
L 6.164301 47.020188 
L 6.207844 48.24152 
L 6.235836 46.669048 
L 6.282489 45.227333 
L 6.338473 46.877143 
L 6.478433 48.63161 
L 6.481543 48.336544 
L 6.556188 45.150542 
L 6.599731 47.376338 
L 6.618393 48.415361 
L 6.705479 47.198238 
L 6.761463 46.093877 
L 6.801896 47.558121 
L 6.805006 47.477602 
L 6.814337 47.817005 
L 6.8641 45.695102 
L 6.904533 46.922921 
L 6.926305 46.38305 
L 6.963627 48.363809 
L 7.01028 47.199353 
L 7.066264 47.759118 
L 7.122248 47.208549 
L 7.212445 46.890455 
L 7.159571 47.672574 
L 7.231106 47.113821 
L 7.271539 47.899713 
L 7.321302 46.179413 
L 7.330633 46.007828 
L 7.346184 46.503099 
L 7.455042 48.520125 
L 7.408389 46.031699 
L 7.476813 48.092184 
L 7.529687 46.739831 
L 7.560789 48.218638 
L 7.604333 47.562686 
L 7.675868 48.360675 
L 7.694529 47.583121 
L 7.750513 46.283016 
L 7.809607 47.346971 
L 7.84693 47.756867 
L 7.871811 47.066147 
L 7.893583 46.286403 
L 7.965118 48.08054 
L 7.99622 48.555804 
L 8.067755 47.908946 
L 8.095747 47.447713 
L 8.161062 48.410027 
L 8.167282 48.299559 
L 8.170393 48.385999 
L 8.220156 46.949063 
L 8.238817 47.348431 
L 8.241928 47.273231 
L 8.291691 48.111588 
L 8.332124 47.536394 
L 8.378777 48.458062 
L 8.450312 48.285967 
L 8.493855 47.134479 
L 8.587162 47.199687 
L 8.590272 47.230287 
L 8.618264 46.576895 
L 8.658697 46.937828 
L 8.674248 46.650299 
L 8.724012 48.005395 
L 8.767555 46.937415 
L 8.913735 48.483508 
L 8.926176 48.047006 
L 9.025703 47.47049 
L 8.957278 48.49592 
L 9.038144 47.882376 
L 9.078577 47.170304 
L 9.156332 48.616166 
L 9.209206 47.381219 
L 9.162553 48.660354 
L 9.280741 48.103183 
L 9.299402 48.581275 
L 9.355386 47.287239 
L 9.383378 47.466071 
L 9.479795 48.130535 
L 9.501567 47.680343 
L 9.619755 47.297677 
L 9.535779 48.635863 
L 9.622865 47.310646 
L 9.719282 48.665782 
L 9.647747 46.875444 
L 9.784597 48.173881 
L 9.865462 47.5791 
L 9.83125 48.634424 
L 9.896565 48.101762 
L 9.952549 48.66517 
L 9.983651 47.795392 
L 10.005422 48.126339 
L 10.014753 48.412916 
L 10.020973 48.567076 
L 10.048965 48.043138 
L 10.11739 48.313111 
L 10.132941 47.688649 
L 10.213807 48.578877 
L 10.226248 48.374365 
L 10.331996 47.153087 
L 10.381759 47.674448 
L 10.425302 48.589962 
L 10.503058 48.07748 
L 10.518609 47.713544 
L 10.552821 48.669685 
L 10.615026 47.934529 
L 10.639907 47.899983 
L 10.671009 48.347957 
L 10.67723 48.290845 
L 10.68034 48.294387 
L 10.702112 47.777668 
L 10.795418 48.00868 
L 10.804749 47.98259 
L 10.807859 48.117077 
L 10.810969 48.091368 
L 10.829631 48.531877 
L 10.882504 47.306356 
L 10.885615 47.371221 
L 10.894945 47.328702 
L 10.907386 47.466532 
L 10.910496 47.443002 
L 11.003803 48.418429 
L 10.922937 47.378424 
L 11.041126 47.834415 
L 11.168645 48.594518 
L 11.056677 47.740693 
L 11.187306 48.14083 
L 11.299274 47.343408 
L 11.209078 48.500367 
L 11.324156 47.752123 
L 11.38325 48.681208 
L 11.414352 47.605901 
L 11.423683 47.624305 
L 11.464116 47.349799 
L 11.439234 47.73636 
L 11.482777 47.737205 
L 11.5201 48.318779 
L 11.588524 47.671093 
L 11.594745 47.836752 
L 11.597855 47.770253 
L 11.660059 48.507234 
L 11.678721 48.36937 
L 11.688051 48.579242 
L 11.781358 48.20193 
L 11.787578 48.127621 
L 11.800019 48.380295 
L 11.80313 48.577553 
L 11.902657 47.876181 
L 11.918208 47.613021 
L 11.95242 48.629725 
L 11.992853 48.611245 
L 12.09238 47.778003 
L 12.129703 48.074099 
L 12.241671 48.59969 
L 12.216789 47.922599 
L 12.254111 48.548372 
L 12.303875 47.604426 
L 12.275883 48.603914 
L 12.36919 48.327559 
L 12.415843 48.650485 
L 12.453166 48.021417 
L 12.465606 48.224132 
L 12.543362 47.601871 
L 12.493598 48.659081 
L 12.574464 48.113673 
L 12.677101 48.565891 
L 12.621117 47.86038 
L 12.686432 48.293331 
L 12.729975 48.526802 
L 12.817061 47.419237 
L 12.916588 48.587085 
L 12.835723 47.179485 
L 12.975683 48.205473 
L 13.006785 47.803152 
L 13.068989 48.374413 
L 13.08143 48.34702 
L 13.121863 48.091065 
L 13.103202 48.564991 
L 13.177847 48.386066 
L 13.190288 48.624656 
L 13.215169 48.066344 
L 13.292925 48.564335 
L 13.386232 48.654078 
L 13.35824 48.070297 
L 13.398672 48.488208 
L 13.482648 48.047855 
L 13.404893 48.598092 
L 13.50442 48.430547 
L 13.513751 48.643367 
L 13.607057 48.073818 
L 13.631939 47.923177 
L 13.691033 48.591798 
L 13.712805 48.112048 
L 13.740797 48.67081 
L 13.821662 48.293824 
L 13.849654 47.374955 
L 13.93052 48.250058 
L 13.952292 48.173978 
L 14.042488 47.682012 
L 13.967843 48.31273 
L 14.07359 47.947136 
L 14.154456 48.551662 
L 14.173117 47.845373 
L 14.201109 47.473623 
L 14.269534 48.283942 
L 14.306857 48.489418 
L 14.328628 48.021205 
L 14.35351 48.234751 
L 14.369061 47.991812 
L 14.403274 48.674612 
L 14.462368 48.349832 
L 14.505911 48.170164 
L 14.481029 48.597401 
L 14.568115 48.39893 
L 14.589887 48.528862 
L 14.620989 48.046012 
L 14.624099 48.073237 
L 14.63965 47.573159 
L 14.698744 48.612763 
L 14.729847 48.222107 
L 14.745398 48.630092 
L 14.77028 48.145208 
L 14.829374 48.244272 
L 14.844925 47.882426 
L 14.932011 48.608822 
L 14.935121 48.675333 
L 14.984885 47.615595 
L 15.034648 48.43757 
L 15.134175 47.704864 
L 15.084412 48.528498 
L 15.155947 48.084092 
L 15.174608 47.860281 
L 15.208821 48.527297 
L 15.243033 48.312715 
L 15.255474 48.462147 
L 15.286576 47.872466 
L 15.317678 48.037719 
L 15.34878 47.958692 
L 15.389213 48.419531 
L 15.392324 48.385886 
L 15.398544 48.602884 
L 15.491851 47.936771 
L 15.535394 47.857529 
L 15.575827 48.250627 
L 15.600708 48.664956 
L 15.6287 47.992581 
L 15.681574 48.270767 
L 15.697125 48.067899 
L 15.718897 48.585419 
L 15.777991 48.434579 
L 15.784211 48.607176 
L 15.815313 47.983073 
L 15.883738 48.294115 
L 15.977045 48.033686 
L 15.949053 48.636599 
L 15.992596 48.363367 
L 16.04858 47.82832 
L 16.023698 48.671311 
L 16.113895 48.209026 
L 16.247634 48.691765 
L 16.151217 48.052647 
L 16.253854 48.577092 
L 16.344051 47.767741 
L 16.375153 48.060318 
L 16.406255 48.616939 
L 16.434247 47.923577 
L 16.493341 48.416279 
L 16.592868 47.456581 
L 16.61464 47.85882 
L 16.670624 48.627593 
L 16.776371 48.499727 
L 16.885229 47.795324 
L 16.816804 48.6189 
L 16.89767 47.87934 
L 16.962985 48.563194 
L 16.931882 47.722487 
L 17.015858 48.140544 
L 17.146488 48.631592 
L 17.04074 47.901302 
L 17.152708 48.604282 
L 17.1807 48.648155 
L 17.208692 48.395646 
L 17.31444 47.949771 
L 17.246015 48.622419 
L 17.32066 48.199678 
L 17.361093 48.697675 
L 17.426407 48.123694 
L 17.435738 47.67067 
L 17.473061 48.585007 
L 17.529045 48.339491 
L 17.538375 48.628219 
L 17.557037 47.985677 
L 17.647233 48.604759 
L 17.665894 48.025654 
L 17.706327 48.630446 
L 17.762311 48.359505 
L 17.784083 48.59959 
L 17.849397 47.617927 
L 17.986247 48.663134 
L 17.995578 48.650396 
L 18.082664 48.176031 
L 18.107546 48.586604 
L 18.110656 48.654535 
L 18.16353 48.104178 
L 18.210183 48.431751 
L 18.253726 48.07542 
L 18.222624 48.459386 
L 18.31282 48.453055 
L 18.350143 48.645859 
L 18.375025 48.053813 
L 18.384355 48.088789 
L 18.44656 47.973077 
L 18.406127 48.490253 
L 18.462111 48.254802 
L 18.546087 48.568071 
L 18.511874 48.076646 
L 18.567858 48.138512 
L 18.620732 48.117644 
L 18.58652 48.370949 
L 18.636283 48.292007 
L 18.723369 48.588981 
L 18.664275 48.18046 
L 18.748251 48.530843 
L 18.798014 48.205992 
L 18.829117 48.687703 
L 18.863329 48.356037 
L 18.962856 48.221173 
L 18.978407 48.612913 
L 19.071714 48.164661 
L 18.990848 48.690551 
L 19.090375 48.422708 
L 19.143249 48.650292 
L 19.168131 47.886375 
L 19.174351 47.957938 
L 19.276988 47.822891 
L 19.230335 48.568593 
L 19.283209 48.042994 
L 19.286319 48.024476 
L 19.314311 48.425723 
L 19.398287 48.599506 
L 19.360964 47.8952 
L 19.423169 48.511739 
L 19.472932 48.045323 
L 19.43561 48.515382 
L 19.541357 48.268829 
L 19.553798 48.609918 
L 19.647105 48.152444 
L 19.650215 48.194057 
L 19.71864 48.662877 
L 19.759072 48.188964 
L 19.839938 48.056505 
L 19.790175 48.581693 
L 19.86793 48.282825 
L 19.930135 47.945369 
L 19.983008 48.631578 
L 20.094976 48.135626 
L 20.098086 48.15809 
L 20.200724 48.683288 
L 20.166511 48.147792 
L 20.210054 48.32683 
L 20.250487 48.159658 
L 20.225605 48.451225 
L 20.262928 48.374891 
L 20.331353 48.67587 
L 20.365565 48.174987 
L 20.368676 48.198774 
L 20.371786 48.203771 
L 20.374896 48.03703 
L 20.378006 47.985461 
L 20.443321 48.607452 
L 20.452652 48.585629 
L 20.502415 48.22646 
L 20.468203 48.650396 
L 20.56773 48.50438 
L 20.583281 48.677575 
L 20.642375 48.325999 
L 20.673477 48.348449 
L 20.741902 48.684656 
L 20.682808 48.212013 
L 20.763674 48.256707 
L 20.785445 47.769603 
L 20.85698 48.480435 
L 20.872531 48.295952 
L 20.894303 48.128412 
L 20.953397 48.587217 
L 20.975169 48.339862 
L 20.99694 48.614428 
L 21.065365 48.264853 
L 21.077806 48.295994 
L 21.13068 48.637854 
L 21.199104 47.961191 
L 21.317293 48.611336 
L 21.323513 48.530979 
L 21.382607 47.822886 
L 21.410599 48.594892 
L 21.432371 48.439039 
L 21.438591 48.694608 
L 21.469694 48.276292 
L 21.544339 48.577301 
L 21.628315 48.28641 
L 21.569221 48.61296 
L 21.662527 48.319927 
L 21.674968 48.680999 
L 21.774495 48.388584 
L 21.84292 48.68471 
L 21.811818 48.258984 
L 21.877132 48.334563 
L 21.883353 48.178221 
L 21.914455 48.620394 
L 21.98288 48.493141 
L 22.082407 48.674517 
L 22.001541 48.219581 
L 22.097958 48.634235 
L 22.12595 48.049077 
L 22.147721 48.67112 
L 22.216146 48.34503 
L 22.234808 48.659977 
L 22.309453 48.175784 
L 22.312563 48.201058 
L 22.390319 48.537736 
L 22.340555 47.971363 
L 22.399649 48.28111 
L 22.40587 47.986754 
L 22.461854 48.618667 
L 22.508507 48.298588 
L 22.583152 48.617897 
L 22.614254 48.158247 
L 22.620475 48.376434 
L 22.654687 48.698566 
L 22.69201 48.277992 
L 22.732443 48.429968 
L 22.853741 48.675303 
L 22.785317 48.19083 
L 22.863072 48.581836 
L 22.872403 48.454683 
L 22.96882 47.985437 
L 22.903505 48.669008 
L 22.98126 48.419894 
L 22.996812 48.660929 
L 23.027914 48.228053 
L 23.102559 48.552646 
L 23.183425 48.214862 
L 23.127441 48.661419 
L 23.220747 48.333778 
L 23.25185 48.193146 
L 23.267401 48.533605 
L 23.370038 48.700189 
L 23.310944 48.22198 
L 23.382479 48.60028 
L 23.429132 48.052485 
L 23.39492 48.657603 
L 23.503777 48.499515 
L 23.575312 48.209924 
L 23.528659 48.646094 
L 23.597084 48.583719 
L 23.649958 48.675232 
L 23.690391 48.378939 
L 23.696611 48.459126 
L 23.786807 48.123246 
L 23.761926 48.675814 
L 23.799248 48.539909 
L 23.808579 48.683456 
L 23.877004 48.287636 
L 23.908106 48.495897 
L 23.985862 48.221335 
L 23.945429 48.637782 
L 24.023184 48.418972 
L 24.097829 48.646898 
L 24.122711 48.203322 
L 24.128932 48.206808 
L 24.181805 48.644383 
L 24.256451 48.490582 
L 24.321765 47.923931 
L 24.352867 48.636254 
L 24.365308 48.525365 
L 24.371529 48.649633 
L 24.415072 48.2926 
L 24.461725 48.314477 
L 24.471056 48.147566 
L 24.495938 48.680534 
L 24.551922 48.43484 
L 24.601685 48.669166 
L 24.642118 48.227753 
L 24.66389 48.609932 
L 24.685661 48.285287 
L 24.754086 48.662684 
L 24.772747 48.587691 
L 24.831841 48.323292 
L 24.859833 48.671971 
L 24.925148 48.352536 
L 24.984242 48.691401 
L 24.968691 48.264989 
L 25.040226 48.643546 
L 25.121092 48.106441 
L 25.09621 48.654816 
L 25.152194 48.415673 
L 25.208178 48.32163 
L 25.192627 48.674356 
L 25.254831 48.454874 
L 25.264162 48.685464 
L 25.298374 48.395516 
L 25.366799 48.502675 
L 25.37924 48.191433 
L 25.407232 48.686049 
L 25.469436 48.545811 
L 25.475657 48.68486 
L 25.52542 48.314352 
L 25.578294 48.480212 
L 25.634278 48.647005 
L 25.606286 48.045867 
L 25.65916 48.346108 
L 25.66227 48.060261 
L 25.712034 48.612814 
L 25.768018 48.425575 
L 25.870655 48.63774 
L 25.80534 48.062957 
L 25.883096 48.570397 
L 25.973292 48.235674 
L 25.9453 48.680674 
L 25.991953 48.580032 
L 26.047937 48.693878 
L 26.072819 48.441526 
L 26.08526 48.458007 
L 26.125693 48.248059 
L 26.153685 48.569925 
L 26.191008 48.486927 
L 26.262543 48.659363 
L 26.22522 48.067254 
L 26.302975 48.606872 
L 26.330967 48.113857 
L 26.355849 48.651878 
L 26.411833 48.614599 
L 26.446046 48.655945 
L 26.539352 48.361867 
L 26.554903 48.672678 
L 26.638879 48.17494 
L 26.65443 48.540995 
L 26.669981 48.48022 
L 26.682422 48.168239 
L 26.753957 48.586679 
L 26.79128 48.194749 
L 26.897028 48.664709 
L 26.7975 48.191172 
L 26.912579 48.464533 
L 26.915689 48.391006 
L 26.968563 48.685021 
L 27.021436 48.478396 
L 27.033877 48.364957 
L 27.105412 48.6337 
L 27.117853 48.411833 
L 27.201829 48.649767 
L 27.226711 48.305293 
L 27.270254 48.680305 
L 27.245372 48.137604 
L 27.338679 48.367076 
L 27.441316 48.077675 
L 27.363561 48.663105 
L 27.450647 48.217572 
L 27.528402 48.67506 
L 27.540843 48.151416 
L 27.571945 48.654004 
L 27.671472 48.24424 
L 27.693244 48.35749 
L 27.705685 48.639257 
L 27.743007 48.225321 
L 27.808322 48.589555 
L 27.817653 48.658438 
L 27.826983 48.494286 
L 27.830094 48.498153 
L 27.904739 48.206384 
L 27.848755 48.649498 
L 27.942061 48.376976 
L 27.966943 48.644899 
L 28.007376 48.268521 
L 28.054029 48.410507 
L 28.075801 48.169655 
L 28.100683 48.658318 
L 28.156667 48.633954 
L 28.218871 48.341103 
L 28.268635 48.61539 
L 28.290406 48.694729 
L 28.299737 48.431005 
L 28.396154 48.239403 
L 28.368162 48.666714 
L 28.408594 48.433187 
L 28.49257 48.686129 
L 28.430366 48.335023 
L 28.520562 48.453604 
L 28.613869 48.685501 
L 28.588987 48.323941 
L 28.638751 48.570673 
L 28.710286 48.336901 
L 28.679184 48.692516 
L 28.744498 48.607822 
L 28.825364 48.679924 
L 28.837805 48.201164 
L 28.844025 48.407751 
L 28.865797 48.212033 
L 28.884458 48.642012 
L 28.949773 48.549608 
L 28.974654 48.681749 
L 28.996426 48.400875 
L 29.015087 48.481206 
L 29.105284 48.07792 
L 29.067961 48.658245 
L 29.123945 48.42062 
L 29.145717 48.654499 
L 29.161268 48.037298 
L 29.229693 48.350044 
L 29.248354 48.220261 
L 29.298117 48.636535 
L 29.313668 48.525862 
L 29.326109 48.669008 
L 29.350991 48.289789 
L 29.422526 48.577272 
L 29.503392 48.256913 
L 29.515833 48.619841 
L 29.534494 48.399443 
L 29.578037 48.685641 
L 29.556266 48.19284 
L 29.649572 48.572065 
L 29.708666 48.255264 
L 29.75843 48.639786 
L 29.76154 48.459881 
L 29.851737 48.293196 
L 29.876618 48.68352 
L 29.963704 48.377981 
L 29.991696 48.490896 
L 30.03835 48.68854 
L 30.081893 48.351363 
L 30.106775 48.669702 
L 30.190751 48.260831 
L 30.228073 48.384521 
L 30.237404 48.69362 
L 30.271616 48.293447 
L 30.333821 48.445048 
L 30.336931 48.242064 
L 30.358702 48.646036 
L 30.439568 48.491196 
L 30.455119 48.67393 
L 30.526654 48.375424 
L 30.551536 48.60893 
L 30.629292 48.268657 
L 30.60752 48.680743 
L 30.663504 48.388319 
L 30.675945 48.618085 
L 30.710157 48.271605 
L 30.778582 48.438306 
L 30.781692 48.351778 
L 30.850117 48.67323 
L 30.88433 48.472731 
L 30.899881 48.671099 
L 30.937203 48.241519 
L 30.996298 48.510256 
L 31.002518 48.630755 
L 31.067833 48.192226 
L 31.105155 48.469578 
L 31.123817 48.61551 
L 31.142478 48.234759 
L 31.148698 48.264404 
L 31.17358 48.046155 
L 31.207792 48.654663 
L 31.248225 48.437257 
L 31.357083 48.66011 
L 31.294879 48.328626 
L 31.360193 48.577287 
L 31.400626 48.268929 
L 31.369524 48.619752 
L 31.403736 48.362225 
L 31.437949 48.124994 
L 31.462831 48.608427 
L 31.509484 48.377289 
L 31.59968 48.569544 
L 31.571688 48.157006 
L 31.615231 48.181818 
L 31.627672 48.272184 
L 31.727199 48.647318 
L 31.74275 48.447426 
L 31.817396 48.689383 
L 31.776963 48.249576 
L 31.864049 48.560714 
L 31.913812 48.235409 
L 31.87649 48.679572 
L 31.960466 48.544541 
L 31.979127 48.68833 
L 32.032001 48.135243 
L 32.072434 48.58129 
L 32.081764 48.579346 
L 32.078654 48.526294 
L 32.091095 48.522124 
L 32.184402 48.364171 
L 32.115977 48.676608 
L 32.199953 48.457235 
L 32.311921 48.656161 
L 32.280818 48.337327 
L 32.315031 48.637329 
L 32.389676 48.268929 
L 32.343023 48.661757 
L 32.420778 48.60116 
L 32.423889 48.687787 
L 32.510975 48.296128 
L 32.526526 48.523076 
L 32.557628 48.338093 
L 32.542077 48.625802 
L 32.573179 48.377126 
L 32.5794 48.221278 
L 32.675816 48.635658 
L 32.678927 48.637307 
L 32.682037 48.588603 
L 32.787784 48.136882 
L 32.759792 48.620117 
L 32.797115 48.188862 
L 32.893532 48.63908 
L 32.918414 48.495419 
L 33.00861 48.682456 
L 32.977508 48.342303 
L 33.027271 48.582588 
L 33.039712 48.228991 
L 33.086365 48.657334 
L 33.136129 48.579569 
L 33.207664 48.408662 
L 33.15168 48.68107 
L 33.244987 48.581547 
L 33.325852 48.6749 
L 33.279199 47.931011 
L 33.350734 48.437664 
L 33.459592 48.674474 
L 33.363175 48.322726 
L 33.490694 48.62936 
L 33.556009 48.330716 
L 33.509355 48.660527 
L 33.602662 48.443523 
L 33.627544 48.625491 
L 33.708409 48.338629 
L 33.71152 48.386472 
L 33.795496 48.184658 
L 33.779944 48.550272 
L 33.820377 48.425518 
L 33.86081 48.699524 
L 33.935455 48.620858 
L 33.975888 48.325924 
L 34.056754 48.389099 
L 34.081636 48.700201 
L 34.171832 48.642046 
L 34.227816 48.684547 
L 34.215375 48.369058 
L 34.271359 48.560777 
L 34.364666 48.376128 
L 34.321123 48.640172 
L 34.377107 48.571007 
L 34.41754 48.684484 
L 34.461083 48.237787 
L 34.467303 48.356303 
L 34.470413 48.298824 
L 34.554389 48.622166 
L 34.573051 48.41857 
L 34.610373 48.661917 
L 34.594822 48.292941 
L 34.681908 48.478022 
L 34.744113 48.268668 
L 34.768994 48.694423 
L 34.796986 48.338482 
L 34.815648 48.671519 
L 34.803207 48.307607 
L 34.915175 48.650861 
L 34.958718 48.365683 
L 34.936946 48.682103 
L 35.030253 48.41767 
L 35.095568 48.662918 
L 35.142221 48.607027 
L 35.229307 48.128178 
L 35.195095 48.692729 
L 35.257299 48.514748 
L 35.26663 48.526162 
L 35.291511 48.28757 
L 35.297732 48.146454 
L 35.356826 48.642473 
L 35.387928 48.514991 
L 35.462574 48.687413 
L 35.4097 48.333889 
L 35.499896 48.618406 
L 35.524778 48.349291 
L 35.54966 48.677659 
L 35.608754 48.545568 
L 35.630525 48.663782 
L 35.664738 48.298685 
L 35.711391 48.317487 
L 35.714501 48.283803 
L 35.748714 48.616042 
L 35.801588 48.3861 
L 35.898004 48.668942 
L 35.866902 48.382841 
L 35.913555 48.492299 
L 36.000642 48.700461 
L 35.97576 48.36876 
L 36.019303 48.472202 
L 36.037964 48.287109 
L 36.075287 48.666918 
L 36.131271 48.345889 
L 36.212137 48.323064 
L 36.246349 48.653831 
L 36.286782 48.340281 
L 36.352096 48.691661 
L 36.361427 48.500122 
L 36.464064 48.297301 
L 36.426742 48.644397 
L 36.470285 48.407466 
L 36.569812 48.693468 
L 36.529379 48.282084 
L 36.582253 48.438263 
L 36.585363 48.421321 
L 36.610245 48.661932 
L 36.656898 48.630079 
L 36.669339 48.66902 
L 36.712882 48.271073 
L 36.743984 48.37273 
L 36.796858 48.162031 
L 36.818629 48.6364 
L 36.834181 48.478367 
L 36.837291 48.652365 
L 36.890165 48.118292 
L 36.943038 48.456724 
L 36.977251 48.68974 
L 37.011463 48.267374 
L 37.061227 48.642613 
L 37.142092 48.359575 
L 37.086108 48.699008 
L 37.173195 48.519402 
L 37.179415 48.693847 
L 37.25095 48.412557 
L 37.282052 48.650337 
L 37.313154 48.310757 
L 37.334926 48.674934 
L 37.39402 48.389347 
L 37.440673 48.66695 
L 37.403351 48.239566 
L 37.509098 48.422634 
L 37.552641 48.192624 
L 37.521539 48.645944 
L 37.621066 48.308255 
L 37.695712 48.671205 
L 37.739255 48.487719 
L 37.742365 48.487453 
L 37.745475 48.582537 
L 37.751695 48.669989 
L 37.770357 48.255 
L 37.848112 48.487348 
L 37.888545 48.67353 
L 37.869884 48.416754 
L 37.910317 48.492545 
L 37.913427 48.338067 
L 37.997403 48.693545 
L 38.019174 48.587262 
L 38.081379 48.665793 
L 38.134253 48.332305 
L 38.23378 48.67234 
L 38.180906 48.254346 
L 38.249331 48.521383 
L 38.305315 48.360391 
L 38.261772 48.614253 
L 38.330196 48.552802 
L 38.351968 48.323227 
L 38.442164 48.680057 
L 38.479487 48.187872 
L 38.563463 48.509707 
L 38.572794 48.6625 
L 38.600786 48.366397 
L 38.603896 48.311663 
L 38.650549 48.640732 
L 38.700313 48.548117 
L 38.737635 48.634543 
L 38.790509 48.355497 
L 38.793619 48.411357 
L 38.79984 48.242848 
L 38.896256 48.701659 
L 38.899367 48.602947 
L 38.961571 48.218279 
L 38.914918 48.693267 
L 39.033106 48.422022 
L 39.135743 48.670972 
L 39.117082 48.21901 
L 39.145074 48.50503 
L 39.173066 48.287866 
L 39.241491 48.682937 
L 39.250822 48.549366 
L 39.266373 48.687241 
L 39.331687 48.278373 
L 39.353459 48.569869 
L 39.424994 48.653235 
L 39.474757 48.259095 
L 39.477868 48.22201 
L 39.5183 48.644889 
L 39.552513 48.535976 
L 39.636489 48.386031 
L 39.661371 48.689375 
L 39.757787 48.251089 
L 39.670701 48.694979 
L 39.773339 48.473177 
L 39.810661 48.694828 
L 39.854204 48.378633 
L 39.885306 48.484591 
L 39.897747 48.386231 
L 39.891527 48.590956 
L 39.916409 48.5987 
L 39.93507 48.674468 
L 40.012825 48.377229 
L 40.015936 48.536931 
L 40.124793 48.337063 
L 40.037707 48.624363 
L 40.127904 48.405123 
L 40.140344 48.677522 
L 40.227431 48.2642 
L 40.236761 48.400752 
L 40.270974 48.143092 
L 40.317627 48.590604 
L 40.414044 48.681504 
L 40.379831 48.205782 
L 40.417154 48.489762 
L 40.470028 48.342193 
L 40.442036 48.619383 
L 40.526012 48.40043 
L 40.600657 48.704366 
L 40.6442 48.642246 
L 40.675302 48.249568 
L 40.756168 48.60225 
L 40.852585 48.67737 
L 40.78105 48.393624 
L 40.858805 48.548087 
L 40.883687 48.233145 
L 40.899238 48.664922 
L 40.964553 48.431902 
L 40.992545 48.691841 
L 41.06408 48.345237 
L 41.076521 48.570205 
L 41.088962 48.300016 
L 41.163607 48.693687 
L 41.185378 48.587726 
L 41.303567 48.323754 
L 41.256913 48.683086 
L 41.312897 48.498145 
L 41.418645 48.696573 
L 41.406204 48.375827 
L 41.421755 48.568035 
L 41.49329 48.353299 
L 41.477739 48.693213 
L 41.530613 48.627896 
L 41.533723 48.666549 
L 41.546164 48.146868 
L 41.608368 48.34237 
L 41.611479 48.173758 
L 41.655022 48.674809 
L 41.714116 48.477882 
L 41.816753 48.660826 
L 41.763879 48.254554 
L 41.826084 48.59892 
L 41.894509 48.436123 
L 41.857186 48.659322 
L 41.934941 48.62304 
L 41.990925 48.408437 
L 42.015807 48.694946 
L 42.05002 48.540317 
L 42.124665 48.67103 
L 42.146436 48.409956 
L 42.152657 48.464793 
L 42.19309 48.346231 
L 42.221082 48.661817 
L 42.264625 48.415505 
L 42.292617 48.671148 
L 42.370372 48.290515 
L 42.373482 48.173723 
L 42.466789 48.694212 
L 42.47301 48.486367 
L 42.516553 48.655542 
L 42.48234 48.22472 
L 42.525883 48.361675 
L 42.528993 48.213306 
L 42.609859 48.571715 
L 42.631631 48.571242 
L 42.647182 48.393406 
L 42.659623 48.654983 
L 42.740488 48.610207 
L 42.886669 48.292707 
L 42.836905 48.652755 
L 42.889779 48.337075 
L 42.976865 48.64489 
L 42.998637 48.46203 
L 43.020408 48.211653 
L 43.032849 48.611359 
L 43.107494 48.528026 
L 43.163478 48.316835 
L 43.132376 48.676051 
L 43.200801 48.530269 
L 43.203911 48.688456 
L 43.300328 48.2486 
L 43.306548 48.264873 
L 43.309659 48.249487 
L 43.350092 48.587514 
L 43.353202 48.579678 
L 43.356312 48.654374 
L 43.396745 48.364998 
L 43.455839 48.445965 
L 43.524264 48.264063 
L 43.533595 48.66888 
L 43.558476 48.602808 
L 43.651783 48.673597 
L 43.60513 48.419958 
L 43.658003 48.62596 
L 43.695326 48.323498 
L 43.679775 48.64829 
L 43.769971 48.57994 
L 43.779302 48.370232 
L 43.822845 48.682536 
L 43.878829 48.5544 
L 43.89749 48.648611 
L 43.947254 48.375668 
L 43.975246 48.499596 
L 44.056112 48.691512 
L 44.093434 48.349484 
L 44.155639 48.692041 
L 44.183631 48.230842 
L 44.199182 48.347063 
L 44.202292 48.249819 
L 44.245835 48.654475 
L 44.298709 48.5765 
L 44.301819 48.686548 
L 44.348472 48.1706 
L 44.407566 48.520848 
L 44.497763 48.692985 
L 44.46044 48.29911 
L 44.510204 48.354132 
L 44.559967 48.260412 
L 44.541306 48.594773 
L 44.587959 48.425252 
L 44.6004 48.663066 
L 44.637723 48.374612 
L 44.696817 48.607638 
L 44.709258 48.210983 
L 44.799454 48.653301 
L 44.805675 48.638696 
L 44.827446 48.286805 
L 44.870989 48.677724 
L 44.930083 48.520946 
L 45.01717 48.660255 
L 44.942524 48.402942 
L 45.042051 48.584009 
L 45.138468 48.343293 
L 45.048272 48.651578 
L 45.157129 48.386548 
L 45.259767 48.689076 
L 45.269097 48.530367 
L 45.359294 48.692876 
L 45.30953 48.395302 
L 45.374845 48.542048 
L 45.465041 48.331586 
L 45.384175 48.662348 
L 45.493033 48.43504 
L 45.508584 48.668231 
L 45.527246 48.367373 
L 45.605001 48.644667 
L 45.639214 48.358171 
L 45.664095 48.672852 
L 45.713859 48.5634 
L 45.810276 48.703414 
L 45.751181 48.464858 
L 45.819606 48.491174 
L 45.881811 48.658809 
L 45.863149 48.34484 
L 45.906692 48.597979 
L 45.912913 48.382768 
L 45.934684 48.685341 
L 46.01555 48.532509 
L 46.108857 48.687188 
L 46.093306 48.402675 
L 46.124408 48.542294 
L 46.180392 48.428713 
L 46.202163 48.68737 
L 46.227045 48.600357 
L 46.307911 48.659448 
L 46.320352 48.424133 
L 46.329682 48.50056 
L 46.339013 48.319656 
L 46.360785 48.625791 
L 46.388777 48.605492 
L 46.391887 48.694782 
L 46.43232 48.402192 
L 46.491414 48.463334 
L 46.538067 48.328076 
L 46.566059 48.651148 
L 46.603382 48.447144 
L 46.706019 48.372299 
L 46.656255 48.70367 
L 46.709129 48.409853 
L 46.771334 48.657887 
L 46.783775 48.361375 
L 46.821097 48.542286 
L 46.830428 48.288606 
L 46.880191 48.665667 
L 46.929955 48.53371 
L 47.017041 48.649053 
L 46.948616 48.335385 
L 47.038813 48.494221 
L 47.041923 48.382753 
L 47.14145 48.657844 
L 47.14767 48.562457 
L 47.157001 48.350797 
L 47.194324 48.672584 
L 47.256528 48.459869 
L 47.300071 48.663588 
L 47.331173 48.391784 
L 47.365386 48.426645 
L 47.480464 48.64851 
L 47.418259 48.333256 
L 47.496015 48.559514 
L 47.555109 48.373819 
L 47.505346 48.686743 
L 47.604873 48.464363 
L 47.623534 48.681106 
L 47.71062 48.3347 
L 47.716841 48.527452 
L 47.772824 48.386961 
L 47.766604 48.685391 
L 47.800816 48.640568 
L 47.875462 48.685413 
L 47.85058 48.374808 
L 47.887903 48.518457 
L 47.984319 48.436337 
L 47.965658 48.666771 
L 47.98743 48.547065 
L 48.052744 48.683852 
L 48.018532 48.220117 
L 48.096287 48.53391 
L 48.180263 48.665525 
L 48.149161 48.237294 
L 48.202035 48.590007 
L 48.27357 48.384224 
L 48.301562 48.653678 
L 48.317113 48.406459 
L 48.329554 48.321316 
L 48.363766 48.690471 
L 48.41042 48.552911 
L 48.41353 48.69203 
L 48.478844 48.455148 
L 48.519277 48.567125 
L 48.625025 48.341858 
L 48.531718 48.675388 
L 48.634355 48.506125 
L 48.637466 48.696342 
L 48.705891 48.34323 
L 48.743213 48.536343 
L 48.802307 48.257549 
L 48.830299 48.628163 
L 48.848961 48.528513 
L 48.852071 48.634702 
L 48.920496 48.205526 
L 48.960929 48.604148 
L 49.041794 48.66881 
L 48.995141 48.440202 
L 49.060456 48.571216 
L 49.107109 48.33595 
L 49.135101 48.685222 
L 49.172424 48.496239 
L 49.287502 48.677532 
L 49.237738 48.473189 
L 49.296832 48.653939 
L 49.346596 48.429619 
L 49.327935 48.691256 
L 49.4088 48.584581 
L 49.449233 48.44465 
L 49.433682 48.681218 
L 49.511438 48.535348 
L 49.514548 48.666497 
L 49.595413 48.28482 
L 49.617185 48.491721 
L 49.620295 48.357354 
L 49.673169 48.657534 
L 49.726043 48.577453 
L 49.763365 48.336108 
L 49.732263 48.650554 
L 49.83179 48.612997 
L 49.841121 48.393012 
L 49.887774 48.613271 
L 49.893995 48.3828 
L 49.921987 48.680986 
L 49.996632 48.541309 
L 50.061946 48.700082 
L 50.021514 48.43213 
L 50.11171 48.654529 
L 50.220568 48.36985 
L 50.229898 48.549164 
L 50.310764 48.696469 
L 50.25167 48.464826 
L 50.344976 48.642442 
L 50.379189 48.480996 
L 50.447614 48.671206 
L 50.453834 48.634473 
L 50.544031 48.387382 
L 50.484936 48.659167 
L 50.568912 48.608378 
L 50.621786 48.680863 
L 50.652888 48.340959 
L 50.665329 48.417991 
L 50.668439 48.384612 
L 50.711982 48.64269 
L 50.749305 48.637074 
L 50.752415 48.686072 
L 50.82084 48.374206 
L 50.848832 48.490655 
L 50.861273 48.451307 
L 50.914147 48.676616 
L 50.926588 48.584116 
L 51.010564 48.679935 
L 50.985682 48.300064 
L 51.032335 48.525619 
L 51.060327 48.325647 
L 51.088319 48.648879 
L 51.134972 48.594081 
L 51.200287 48.695161 
L 51.156744 48.435892 
L 51.23761 48.627901 
L 51.296704 48.443386 
L 51.330916 48.65596 
L 51.346467 48.599714 
L 51.424223 48.696771 
L 51.439774 48.443047 
L 51.449105 48.539794 
L 51.508199 48.270233 
L 51.554852 48.695112 
L 51.557962 48.607909 
L 51.582844 48.337891 
L 51.66371 48.648892 
L 51.66993 48.581554 
L 51.732135 48.368108 
L 51.694812 48.684948 
L 51.778788 48.546606 
L 51.791229 48.66948 
L 51.825441 48.414663 
L 51.890756 48.605329 
L 51.906307 48.425937 
L 51.95607 48.662979 
L 52.002724 48.501326 
L 52.102251 48.304233 
L 52.114692 48.66757 
L 52.214219 48.450363 
L 52.130243 48.686911 
L 52.22666 48.554077 
L 52.323076 48.435789 
L 52.260872 48.648698 
L 52.338628 48.547624 
L 52.397722 48.665411 
L 52.37906 48.406319 
L 52.444375 48.610043 
L 52.531461 48.371038 
L 52.456816 48.693554 
L 52.553233 48.685108 
L 52.64965 48.403128 
L 52.690082 48.557943 
L 52.714964 48.690064 
L 52.739846 48.447081 
L 52.79272 48.530561 
L 52.879806 48.675624 
L 52.904688 48.431906 
L 53.019766 48.664731 
L 52.985553 48.370239 
L 53.022876 48.629919 
L 53.035317 48.669596 
L 53.141064 48.428165 
L 53.240591 48.661617 
L 53.150395 48.349667 
L 53.253032 48.550627 
L 53.287245 48.645345 
L 53.299686 48.325699 
L 53.343229 48.626315 
L 53.408543 48.306043 
L 53.355669 48.6556 
L 53.455197 48.574573 
L 53.514291 48.423214 
L 53.473858 48.687687 
L 53.564054 48.612773 
L 53.598267 48.674044 
L 53.64803 48.429275 
L 53.65114 48.453385 
L 53.697794 48.670971 
L 53.759998 48.340062 
L 53.862635 48.673834 
L 53.769329 48.326087 
L 53.875076 48.577275 
L 53.912399 48.655936 
L 53.915509 48.537662 
L 53.993265 48.290211 
L 53.946611 48.58893 
L 54.024367 48.515791 
L 54.111453 48.691385 
L 54.046138 48.400038 
L 54.123894 48.596146 
L 54.145665 48.373888 
L 54.220311 48.682672 
L 54.232752 48.578852 
L 54.242082 48.651603 
L 54.248303 48.486425 
L 54.254523 48.311366 
L 54.273184 48.700024 
L 54.35716 48.53354 
L 54.447357 48.654038 
L 54.413144 48.449334 
L 54.472238 48.590607 
L 54.49712 48.336314 
L 54.549994 48.680821 
L 54.584206 48.560891 
L 54.674403 48.489152 
L 54.643301 48.702222 
L 54.683733 48.597837 
L 54.686844 48.668453 
L 54.78015 48.390749 
L 54.792591 48.618732 
L 54.895228 48.441327 
L 54.885898 48.694979 
L 54.904559 48.538508 
L 54.994755 48.68001 
L 54.91078 48.472767 
L 55.016527 48.563441 
L 55.122274 48.339919 
L 55.028968 48.688662 
L 55.125385 48.573286 
L 55.218691 48.276171 
L 55.190699 48.675743 
L 55.231132 48.473859 
L 55.318218 48.672032 
L 55.299557 48.303725 
L 55.3431 48.578822 
L 55.349321 48.681445 
L 55.389753 48.454471 
L 55.392864 48.384265 
L 55.433296 48.682348 
L 55.492391 48.445751 
L 55.507942 48.687372 
L 55.532824 48.422737 
L 55.604359 48.563944 
L 55.613689 48.392808 
L 55.616799 48.593998 
L 55.61991 48.438937 
L 55.62302 48.329645 
L 55.688335 48.696931 
L 55.725657 48.497121 
L 55.800302 48.68123 
L 55.744318 48.437095 
L 55.831405 48.46243 
L 55.834515 48.332903 
L 55.868727 48.664285 
L 55.937152 48.632426 
L 56.008687 48.667716 
L 55.999357 48.46245 
L 56.030459 48.560998 
L 56.033569 48.453081 
L 56.077112 48.699422 
L 56.139316 48.570667 
L 56.18286 48.257264 
L 56.213962 48.669818 
L 56.245064 48.479762 
L 56.269946 48.685522 
L 56.301048 48.25624 
L 56.360142 48.652789 
L 56.431677 48.679411 
L 56.400575 48.463521 
L 56.46589 48.65298 
L 56.571637 48.327422 
L 56.559196 48.67443 
L 56.577857 48.42669 
L 56.680495 48.696107 
L 56.692936 48.649394 
L 56.770691 48.443122 
L 56.75514 48.678557 
L 56.801793 48.648209 
L 56.811124 48.695219 
L 56.826675 48.523206 
L 56.888879 48.432228 
L 56.873328 48.700368 
L 56.923092 48.4953 
L 56.960415 48.669075 
L 57.016398 48.42359 
L 57.03506 48.553524 
L 57.119036 48.684579 
L 57.069272 48.426595 
L 57.143918 48.615486 
L 57.150138 48.408555 
L 57.156358 48.67146 
L 57.255885 48.576542 
L 57.330531 48.448035 
L 57.346082 48.673223 
L 57.364743 48.500836 
L 57.402066 48.682142 
L 57.46116 48.264757 
L 57.46738 48.314083 
L 57.470491 48.27314 
L 57.495372 48.652541 
L 57.557577 48.551052 
L 57.644663 48.688289 
L 57.616671 48.467517 
L 57.672655 48.662122 
L 57.694426 48.38745 
L 57.759741 48.689517 
L 57.781513 48.590665 
L 57.843717 48.692361 
L 57.825056 48.21803 
L 57.868599 48.428204 
L 57.877929 48.315179 
L 57.899701 48.682851 
L 57.968126 48.624641 
L 58.073873 48.372364 
L 57.993008 48.677963 
L 58.086314 48.574893 
L 58.101865 48.700688 
L 58.179621 48.466903 
L 58.192062 48.580888 
L 58.300919 48.385722 
L 58.235605 48.668157 
L 58.30403 48.517052 
L 58.338242 48.636566 
L 58.31336 48.482644 
L 58.366234 48.544905 
L 58.369344 48.379725 
L 58.381785 48.627538 
L 58.475092 48.612148 
L 58.499973 48.456577 
L 58.537296 48.684243 
L 58.583949 48.577633 
L 58.667925 48.639487 
L 58.630603 48.377605 
L 58.689697 48.488271 
L 58.692807 48.337094 
L 58.770563 48.690982 
L 58.798555 48.561001 
L 58.888751 48.341247 
L 58.842098 48.681084 
L 58.901192 48.572953 
L 58.929184 48.482042 
L 59.01316 48.686241 
L 59.097136 48.480217 
L 59.125128 48.612372 
L 59.16245 48.69789 
L 59.243316 48.475838 
L 59.311741 48.686395 
L 59.268198 48.432585 
L 59.361504 48.673207 
L 59.408158 48.413996 
L 59.461031 48.688678 
L 59.476583 48.536159 
L 59.57922 48.679804 
L 59.548118 48.440625 
L 59.58233 48.489837 
L 59.591661 48.40612 
L 59.644534 48.695952 
L 59.678747 48.565769 
L 59.781384 48.69142 
L 59.712959 48.404334 
L 59.787605 48.566969 
L 59.837368 48.396877 
L 59.809376 48.698982 
L 59.893352 48.541985 
L 59.952446 48.674761 
L 59.980438 48.486432 
L 60.00532 48.605307 
L 60.00843 48.599669 
L 60.01154 48.350716 
L 60.098627 48.68597 
L 60.117288 48.586536 
L 60.182603 48.683337 
L 60.132839 48.411783 
L 60.229256 48.677241 
L 60.303901 48.349324 
L 60.238586 48.686166 
L 60.338114 48.680813 
L 60.341224 48.687266 
L 60.353665 48.47405 
L 60.356775 48.415174 
L 60.394097 48.691466 
L 60.459412 48.49111 
L 60.487404 48.676725 
L 60.56827 48.593564 
L 60.627364 48.393858 
L 60.670907 48.65763 
L 60.677127 48.575785 
L 60.779765 48.66631 
L 60.730001 48.37963 
L 60.782875 48.577014 
L 60.838859 48.476808 
L 60.820198 48.677568 
L 60.891733 48.590095 
L 60.907284 48.432483 
L 60.99437 48.655998 
L 61.00059 48.453295 
L 61.109448 48.685504 
L 61.028582 48.417152 
L 61.112558 48.532676 
L 61.118779 48.696329 
L 61.13744 48.330314 
L 61.215196 48.53485 
L 61.230747 48.383392 
L 61.240077 48.695291 
L 61.320943 48.580311 
L 61.42047 48.691502 
L 61.411139 48.455867 
L 61.426691 48.665921 
L 61.476454 48.690912 
L 61.541769 48.442167 
L 61.55421 48.692988 
L 61.653737 48.533388 
L 61.747043 48.672022 
L 61.734602 48.460517 
L 61.771925 48.534163 
L 61.855901 48.438381 
L 61.865232 48.691237 
L 61.880783 48.563145 
L 61.961648 48.690723 
L 61.933656 48.503441 
L 61.98653 48.575513 
L 61.992751 48.300075 
L 62.030073 48.683437 
L 62.098498 48.452605 
L 62.201135 48.67192 
L 62.210466 48.658052 
L 62.26956 48.42254 
L 62.325544 48.580396 
L 62.353536 48.687195 
L 62.369087 48.499372 
L 62.428181 48.503981 
L 62.462394 48.345851 
L 62.509047 48.691895 
L 62.537039 48.595541 
L 62.636566 48.314488 
L 62.565031 48.6418 
L 62.649007 48.519995 
L 62.676999 48.659624 
L 62.664558 48.433787 
L 62.760975 48.556945 
L 62.851171 48.63 
L 62.83562 48.390546 
L 62.866722 48.614076 
L 62.950698 48.392593 
L 62.922706 48.679952 
L 62.981801 48.474774 
L 63.140422 48.683779 
L 63.146642 48.558602 
L 63.152863 48.371794 
L 63.177744 48.688812 
L 63.25239 48.62939 
L 63.336366 48.3817 
L 63.358137 48.68678 
L 63.426562 48.411598 
L 63.370578 48.701577 
L 63.470105 48.555209 
L 63.54164 48.693288 
L 63.504318 48.422416 
L 63.582073 48.618798 
L 63.634947 48.435753 
L 63.591404 48.67233 
L 63.694041 48.569857 
L 63.759356 48.671299 
L 63.722033 48.453232 
L 63.802899 48.54623 
L 63.806009 48.469383 
L 63.877544 48.66975 
L 63.911756 48.557681 
L 64.005063 48.677273 
L 64.014394 48.538269 
L 64.026834 48.622993 
L 64.067267 48.68731 
L 64.073488 48.482466 
L 64.135692 48.641216 
L 64.151243 48.436998 
L 64.163684 48.674382 
L 64.24455 48.649078 
L 64.362738 48.405553 
L 64.269432 48.675928 
L 64.368959 48.490379 
L 64.406281 48.690732 
L 64.446714 48.394924 
L 64.480927 48.653396 
L 64.52447 48.687409 
L 64.558682 48.45702 
L 64.574233 48.520736 
L 64.580454 48.443027 
L 64.614666 48.681383 
L 64.661319 48.49538 
L 64.714193 48.684432 
L 64.692422 48.41043 
L 64.773287 48.621641 
L 64.844822 48.667998 
L 64.888365 48.375861 
L 64.981672 48.68469 
L 65.009664 48.554383 
L 65.018995 48.423566 
L 65.043876 48.695667 
L 65.118522 48.606394 
L 65.143403 48.687674 
L 65.149624 48.46504 
L 65.174506 48.644225 
L 65.193167 48.415111 
L 65.214939 48.672884 
L 65.283363 48.58737 
L 65.345568 48.677659 
L 65.320686 48.35234 
L 65.389111 48.543747 
L 65.488638 48.283996 
L 65.454425 48.638532 
L 65.51352 48.453214 
L 65.619267 48.678704 
L 65.560173 48.343879 
L 65.631708 48.510777 
L 65.66281 48.374064 
L 65.693912 48.671367 
L 65.740566 48.520625 
L 65.827652 48.405432 
L 65.756117 48.636152 
L 65.846313 48.511854 
L 65.880526 48.694707 
L 65.914738 48.451287 
L 65.958281 48.568697 
L 66.060918 48.46986 
L 66.004934 48.681229 
L 66.067139 48.579397 
L 66.098241 48.676501 
L 66.07958 48.458297 
L 66.107572 48.483921 
L 66.110682 48.452366 
L 66.169776 48.697067 
L 66.200878 48.558845 
L 66.272413 48.678517 
L 66.210209 48.495734 
L 66.309736 48.599568 
L 66.334618 48.372796 
L 66.378161 48.678316 
L 66.418594 48.558986 
L 66.468357 48.692742 
L 66.493239 48.469548 
L 66.530562 48.583618 
L 66.586546 48.409788 
L 66.614538 48.698902 
L 66.639419 48.566796 
L 66.661191 48.669541 
L 66.735836 48.485157 
L 66.738946 48.381347 
L 66.822922 48.673854 
L 66.844694 48.491518 
L 66.900678 48.696129 
L 66.882016 48.40225 
L 66.956662 48.599312 
L 67.025087 48.310751 
L 67.003315 48.629949 
L 67.07174 48.409221 
L 67.174377 48.675164 
L 67.186818 48.624563 
L 67.189928 48.663711 
L 67.233471 48.448194 
L 67.283235 48.510256 
L 67.298786 48.430527 
L 67.314337 48.674561 
L 67.388982 48.510158 
L 67.479179 48.687845 
L 67.472958 48.464672 
L 67.49784 48.561931 
L 67.588036 48.384715 
L 67.525832 48.693741 
L 67.606698 48.590658 
L 67.703115 48.690825 
L 67.672012 48.455445 
L 67.715555 48.567931 
L 67.821303 48.425994 
L 67.731107 48.673427 
L 67.824413 48.620589 
L 67.930161 48.389512 
L 67.843074 48.680873 
L 67.939491 48.480797 
L 68.029688 48.668899 
L 68.014137 48.427115 
L 68.051459 48.505323 
L 68.138545 48.691461 
L 68.06701 48.484775 
L 68.163427 48.555979 
L 68.19764 48.676588 
L 68.185199 48.477371 
L 68.256734 48.550888 
L 68.259844 48.457618 
L 68.306497 48.673419 
L 68.362481 48.645545 
L 68.368702 48.684269 
L 68.393583 48.367637 
L 68.468229 48.636803 
L 68.570866 48.482765 
L 68.49 48.695162 
L 68.580197 48.550049 
L 68.670393 48.692174 
L 68.639291 48.490542 
L 68.695275 48.647155 
L 68.698385 48.647565 
L 68.701495 48.544124 
L 68.720157 48.467919 
L 68.754369 48.695864 
L 68.794802 48.618287 
L 68.878778 48.694264 
L 68.816573 48.45772 
L 68.90366 48.605781 
L 69.009407 48.447554 
L 68.928541 48.664891 
L 69.015627 48.544312 
L 69.034289 48.663596 
L 69.099603 48.46744 
L 69.124485 48.584337 
L 69.224012 48.42139 
L 69.164918 48.687227 
L 69.236453 48.482467 
L 69.345311 48.67196 
L 69.258225 48.416528 
L 69.351531 48.578942 
L 69.398185 48.701032 
L 69.404405 48.457363 
L 69.46972 48.645318 
L 69.547475 48.490807 
L 69.47905 48.675766 
L 69.581687 48.559718 
L 69.640782 48.661249 
L 69.662553 48.435563 
L 69.693655 48.610262 
L 69.715427 48.420705 
L 69.740309 48.672737 
L 69.799403 48.603817 
L 69.874048 48.698864 
L 69.814954 48.423658 
L 69.90204 48.695617 
L 69.90515 48.473038 
L 70.014008 48.634894 
L 70.107315 48.469736 
L 70.063772 48.68242 
L 70.125976 48.541439 
L 70.129086 48.697346 
L 70.18196 48.376449 
L 70.237944 48.589319 
L 70.269046 48.656384 
L 70.315699 48.39519 
L 70.340581 48.541394 
L 70.356132 48.387434 
L 70.390345 48.691956 
L 70.449439 48.535431 
L 70.514754 48.688417 
L 70.474321 48.412768 
L 70.573848 48.651692 
L 70.60184 48.42811 
L 70.626721 48.667799 
L 70.685816 48.556725 
L 70.720028 48.675513 
L 70.782232 48.454298 
L 70.794673 48.577866 
L 70.863098 48.470473 
L 70.816445 48.689132 
L 70.900421 48.65471 
L 71.006168 48.496941 
L 70.956405 48.689431 
L 71.009279 48.610481 
L 71.02483 48.692867 
L 71.021719 48.496587 
L 71.115026 48.573292 
L 71.121246 48.414328 
L 71.155459 48.676026 
L 71.223884 48.63224 
L 71.292309 48.393746 
L 71.233214 48.684361 
L 71.338962 48.525957 
L 71.360733 48.688494 
L 71.429158 48.435231 
L 71.45093 48.564926 
L 71.528685 48.688947 
L 71.506914 48.505856 
L 71.544236 48.562659 
L 71.637543 48.330964 
L 71.621992 48.663583 
L 71.653094 48.571771 
L 71.684196 48.674465 
L 71.699747 48.297579 
L 71.752621 48.362337 
L 71.755731 48.331518 
L 71.793054 48.669157 
L 71.842817 48.528275 
L 71.849038 48.686693 
L 71.936124 48.329312 
L 71.951675 48.610378 
L 72.02632 48.438883 
L 72.048092 48.697222 
L 72.063643 48.508633 
L 72.079194 48.468489 
L 72.113407 48.696497 
L 72.16628 48.608823 
L 72.237815 48.692699 
L 72.219154 48.413365 
L 72.253367 48.592125 
L 72.272028 48.404215 
L 72.30624 48.668037 
L 72.365334 48.525058 
L 72.464861 48.68807 
L 72.377775 48.401052 
L 72.483523 48.610252 
L 72.486633 48.462066 
L 72.545727 48.677878 
L 72.592381 48.567395 
L 72.679467 48.422223 
L 72.698128 48.672577 
L 72.704348 48.386874 
L 72.806986 48.664075 
L 72.878521 48.372028 
L 72.819427 48.680835 
L 72.928284 48.501059 
L 72.956276 48.698464 
L 73.030922 48.341562 
L 73.040252 48.581742 
L 73.083795 48.677245 
L 73.062024 48.447364 
L 73.096236 48.503297 
L 73.099346 48.387851 
L 73.195763 48.693092 
L 73.201984 48.612557 
L 73.29529 48.698824 
L 73.226865 48.412517 
L 73.310841 48.586692 
L 73.317062 48.426052 
L 73.354384 48.678462 
L 73.419699 48.543227 
L 73.42903 48.69898 
L 73.469463 48.371892 
L 73.534777 48.679058 
L 73.57521 48.416796 
L 73.677847 48.564346 
L 73.71828 48.695601 
L 73.777374 48.481768 
L 73.796036 48.671361 
L 73.889342 48.690818 
L 73.917334 48.41039 
L 73.9982 48.701365 
L 74.032412 48.668246 
L 74.038633 48.455173 
L 74.14438 48.597326 
L 74.187923 48.408397 
L 74.166152 48.657241 
L 74.240797 48.621801 
L 74.262569 48.692986 
L 74.268789 48.469336 
L 74.349655 48.592078 
L 74.368316 48.478395 
L 74.371426 48.677275 
L 74.439851 48.591542 
L 74.533158 48.699485 
L 74.489615 48.414344 
L 74.548709 48.643852 
L 74.576701 48.368063 
L 74.642016 48.676073 
L 74.657567 48.667571 
L 74.738432 48.499549 
L 74.753983 48.678995 
L 74.769535 48.62685 
L 74.803747 48.334456 
L 74.881502 48.694254 
L 74.921935 48.429859 
L 74.99347 48.561388 
L 75.071226 48.675001 
L 75.089887 48.427315 
L 75.102328 48.513168 
L 75.142761 48.671536 
L 75.152092 48.415824 
L 75.214296 48.586536 
L 75.27339 48.394255 
L 75.257839 48.681417 
L 75.329374 48.400016 
L 75.40713 48.679841 
L 75.391579 48.352098 
L 75.444452 48.647313 
L 75.497326 48.691116 
L 75.453783 48.50724 
L 75.537759 48.58313 
L 75.634176 48.410028 
L 75.562641 48.682087 
L 75.649727 48.568383 
L 75.711931 48.683297 
L 75.674609 48.492219 
L 75.736813 48.507364 
L 75.780356 48.434815 
L 75.792797 48.67685 
L 75.820789 48.506165 
L 75.845671 48.697299 
L 75.889214 48.48061 
L 75.932757 48.645273 
L 75.960749 48.481363 
L 75.97319 48.660158 
L 76.044725 48.589866 
L 76.153582 48.703533 
L 76.075827 48.498524 
L 76.159803 48.684314 
L 76.231338 48.40021 
L 76.271771 48.607612 
L 76.274881 48.696305 
L 76.287322 48.458579 
L 76.380629 48.579865 
L 76.442833 48.698202 
L 76.424172 48.463853 
L 76.473935 48.569298 
L 76.54236 48.39617 
L 76.501927 48.671623 
L 76.582793 48.633846 
L 76.610785 48.692568 
L 76.626336 48.489437 
L 76.68232 48.554547 
L 76.781847 48.365294 
L 76.769406 48.663562 
L 76.791178 48.426824 
L 76.82539 48.684501 
L 76.903146 48.498735 
L 76.915586 48.692192 
L 76.937358 48.310612 
L 76.996452 48.568725 
L 76.999562 48.3517 
L 77.067987 48.672802 
L 77.10531 48.491091 
L 77.158184 48.677417 
L 77.11464 48.409747 
L 77.214168 48.569244 
L 77.282592 48.388704 
L 77.270151 48.680517 
L 77.323025 48.569272 
L 77.375899 48.693811 
L 77.351017 48.461702 
L 77.434993 48.633754 
L 77.503418 48.681224 
L 77.444324 48.494825 
L 77.515859 48.565372 
L 77.568733 48.431387 
L 77.553181 48.679857 
L 77.602945 48.605273 
L 77.621606 48.698528 
L 77.702472 48.454676 
L 77.714913 48.644171 
L 77.767787 48.403271 
L 77.81755 48.667696 
L 77.826881 48.619606 
L 77.898416 48.463206 
L 77.910857 48.693156 
L 77.938849 48.506583 
L 77.95751 48.692448 
L 77.973061 48.388968 
L 78.050817 48.555984 
L 78.081919 48.473694 
L 78.134793 48.671939 
L 78.156564 48.600152 
L 78.252981 48.69169 
L 78.187666 48.444284 
L 78.262312 48.62274 
L 78.268532 48.500083 
L 78.287193 48.69594 
L 78.371169 48.610765 
L 78.399161 48.682094 
L 78.452035 48.458527 
L 78.480027 48.621228 
L 78.557783 48.495859 
L 78.551562 48.701457 
L 78.588885 48.590006 
L 78.66664 48.67073 
L 78.644869 48.455702 
L 78.700853 48.657028 
L 78.725734 48.369948 
L 78.759947 48.677179 
L 78.80971 48.666323 
L 78.887466 48.445012 
L 78.840813 48.697878 
L 78.931009 48.555309 
L 78.977662 48.693287 
L 79.005654 48.40126 
L 79.039867 48.588741 
L 79.049197 48.478218 
L 79.139394 48.684393 
L 79.145614 48.639163 
L 79.257582 48.449856 
L 79.179827 48.685918 
L 79.260692 48.606413 
L 79.279354 48.702565 
L 79.316676 48.473804 
L 79.36955 48.610057 
L 79.381991 48.678131 
L 79.385101 48.47458 
L 79.388211 48.369483 
L 79.422424 48.665713 
L 79.493959 48.54659 
L 79.562384 48.664018 
L 79.503289 48.516551 
L 79.605927 48.64755 
L 79.65258 48.386743 
L 79.730336 48.494246 
L 79.780099 48.686201 
L 79.820532 48.48468 
L 79.845414 48.626076 
L 79.901398 48.41765 
L 79.920059 48.689431 
L 79.957382 48.586545 
L 80.025806 48.692102 
L 80.004035 48.370993 
L 80.063129 48.541584 
L 80.07868 48.432231 
L 80.116003 48.675034 
L 80.168877 48.518155 
L 80.274624 48.679923 
L 80.21242 48.452714 
L 80.280844 48.618003 
L 80.36171 48.386075 
L 80.346159 48.667968 
L 80.395923 48.510874 
L 80.442576 48.688881 
L 80.402143 48.480872 
L 80.483009 48.616164 
L 80.579426 48.341839 
L 80.585646 48.676108 
L 80.591866 48.48871 
L 80.672732 48.667387 
L 80.706945 48.658201 
L 80.738047 48.467727 
L 80.750488 48.692825 
L 80.818913 48.626868 
L 80.837574 48.444107 
L 80.856235 48.64636 
L 80.92777 48.557175 
L 80.996195 48.67375 
L 80.974424 48.518832 
L 81.039738 48.605989 
L 81.139265 48.491693 
L 81.049069 48.683134 
L 81.148596 48.591963 
L 81.260564 48.683756 
L 81.198359 48.486059 
L 81.263674 48.679579 
L 81.332099 48.464088 
L 81.297886 48.682596 
L 81.375642 48.510919 
L 81.403634 48.696517 
L 81.440957 48.461321 
L 81.49383 48.581291 
L 81.593357 48.674202 
L 81.540484 48.440762 
L 81.608908 48.612523 
L 81.621349 48.47974 
L 81.6369 48.68317 
L 81.717766 48.64382 
L 81.804852 48.693408 
L 81.727097 48.472855 
L 81.811073 48.621775 
L 81.839065 48.331181 
L 81.823514 48.653995 
L 81.926151 48.508387 
L 81.994576 48.682738 
L 81.972804 48.335401 
L 82.031898 48.527841 
L 82.035009 48.372757 
L 82.134536 48.665277 
L 82.140756 48.541954 
L 82.19363 48.692804 
L 82.237173 48.425388 
L 82.258944 48.651963 
L 82.327369 48.445221 
L 82.280716 48.700853 
L 82.377133 48.478707 
L 82.392684 48.674866 
L 82.454888 48.463731 
L 82.489101 48.663722 
L 82.573077 48.458377 
L 82.517093 48.69862 
L 82.604179 48.487604 
L 82.716147 48.673413 
L 82.647722 48.405839 
L 82.722367 48.662127 
L 82.834335 48.40983 
L 82.790792 48.670604 
L 82.837445 48.560704 
L 82.846776 48.698217 
L 82.859217 48.471738 
L 82.952524 48.61783 
L 83.058271 48.388737 
L 82.961854 48.672896 
L 83.070712 48.550744 
L 83.089373 48.70161 
L 83.154688 48.377947 
L 83.17957 48.540452 
L 83.210672 48.475766 
L 83.201341 48.69592 
L 83.285317 48.577695 
L 83.387954 48.68071 
L 83.338191 48.42463 
L 83.397285 48.664709 
L 83.450159 48.448964 
L 83.440828 48.701798 
L 83.506143 48.591269 
L 83.577678 48.691149 
L 83.555906 48.550124 
L 83.615 48.582494 
L 83.711417 48.673898 
L 83.627441 48.452217 
L 83.723858 48.583442 
L 83.75807 48.507371 
L 83.75496 48.682316 
L 83.832716 48.571068 
L 83.860708 48.524917 
L 83.944684 48.691306 
L 84.03488 48.500806 
L 84.003778 48.703163 
L 84.056652 48.539366 
L 84.062872 48.689168 
L 84.118856 48.520062 
L 84.16862 48.624557 
L 84.17484 48.461825 
L 84.261926 48.698447 
L 84.280587 48.588082 
L 84.373894 48.471324 
L 84.302359 48.690781 
L 84.386335 48.581587 
L 84.401886 48.673544 
L 84.448539 48.440537 
L 84.495193 48.640603 
L 84.566728 48.432187 
L 84.548066 48.693268 
L 84.607161 48.466773 
L 84.716018 48.68096 
L 84.719128 48.661933 
L 84.837317 48.459024 
L 84.750231 48.672334 
L 84.840427 48.496475 
L 84.890191 48.691516 
L 84.915072 48.472417 
L 84.952395 48.644374 
L 84.977277 48.666845 
L 84.964836 48.493299 
L 84.999048 48.558762 
L 85.011489 48.446342 
L 85.048812 48.689066 
L 85.107906 48.608335 
L 85.123457 48.42886 
L 85.151449 48.695387 
L 85.213653 48.541253 
L 85.272748 48.431425 
L 85.328732 48.691664 
L 85.341173 48.494515 
L 85.44381 48.631794 
L 85.537116 48.687816 
L 85.484243 48.40739 
L 85.549557 48.606995 
L 85.552667 48.454538 
L 85.608651 48.677879 
L 85.658415 48.625775 
L 85.667746 48.415666 
L 85.72684 48.69288 
L 85.767273 48.648778 
L 85.820146 48.701784 
L 85.851249 48.518261 
L 85.87302 48.669617 
L 85.935225 48.452082 
L 85.901012 48.688334 
L 85.984988 48.640372 
L 86.090736 48.455927 
L 86.01298 48.662214 
L 86.106287 48.565112 
L 86.174711 48.68128 
L 86.146719 48.48327 
L 86.221365 48.64649 
L 86.314671 48.500056 
L 86.311561 48.702561 
L 86.336443 48.540998 
L 86.420419 48.701507 
L 86.426639 48.496747 
L 86.445301 48.655986 
L 86.516836 48.53454 
L 86.507505 48.701758 
L 86.554158 48.603412 
L 86.566599 48.690217 
L 86.610142 48.466089 
L 86.659906 48.591571 
L 86.72211 48.489343 
L 86.669236 48.669303 
L 86.765653 48.609664 
L 86.874511 48.70349 
L 86.846519 48.42644 
L 86.877621 48.650456 
L 86.949156 48.493521 
L 86.921164 48.686227 
L 86.99892 48.5508 
L 87.011361 48.684371 
L 87.095337 48.27853 
L 87.101557 48.505067 
L 87.104667 48.325606 
L 87.169982 48.667324 
L 87.210415 48.603052 
L 87.294391 48.385943 
L 87.244627 48.674155 
L 87.316162 48.610891 
L 87.397028 48.687491 
L 87.341044 48.399985 
L 87.42502 48.668184 
L 87.524547 48.515837 
L 87.468563 48.685012 
L 87.536988 48.566345 
L 87.596082 48.689794 
L 87.624074 48.484242 
L 87.648956 48.674698 
L 87.736042 48.408305 
L 87.757813 48.645532 
L 87.792026 48.697091 
L 87.857341 48.511033 
L 87.938206 48.458772 
L 87.910214 48.676686 
L 87.947537 48.642923 
L 88.015962 48.692105 
L 88.031513 48.522493 
L 88.043954 48.643512 
L 88.056395 48.459033 
L 88.071946 48.688994 
L 88.155922 48.504148 
L 88.211906 48.699173 
L 88.183914 48.426279 
L 88.26789 48.653711 
L 88.308322 48.427925 
L 88.314543 48.673121 
L 88.382968 48.435839 
L 88.404739 48.697126 
L 88.498046 48.627817 
L 88.529148 48.472634 
L 88.588242 48.673212 
L 88.606904 48.660624 
L 88.665998 48.684729 
L 88.659777 48.515622 
L 88.69399 48.649358 
L 88.6971 48.455272 
L 88.743753 48.699075 
L 88.805958 48.590341 
L 88.855721 48.498083 
L 88.83395 48.695212 
L 88.914815 48.574479 
L 88.939697 48.701482 
L 88.97702 48.466978 
L 89.026783 48.622624 
L 89.045445 48.452314 
L 89.113869 48.678382 
L 89.132531 48.643111 
L 89.148082 48.688009 
L 89.182294 48.417226 
L 89.228948 48.633107 
L 89.272491 48.53613 
L 89.334695 48.697644 
L 89.337805 48.679064 
L 89.421781 48.702809 
L 89.359577 48.509213 
L 89.437332 48.682195 
L 89.452883 48.477485 
L 89.449773 48.68883 
L 89.5493 48.641487 
L 89.555521 48.521386 
L 89.586623 48.662576 
L 89.589733 48.52232 
L 89.651937 48.68013 
L 89.695481 48.634116 
L 89.735913 48.667861 
L 89.717252 48.524129 
L 89.763905 48.624767 
L 89.767016 48.486393 
L 89.847881 48.698825 
L 89.872763 48.645775 
L 89.944298 48.48576 
L 89.978511 48.680242 
L 90.028274 48.488587 
L 90.087368 48.646841 
L 90.127801 48.698496 
L 90.10914 48.431291 
L 90.190006 48.628373 
L 90.205557 48.425259 
L 90.25532 48.690446 
L 90.298863 48.565548 
L 90.373509 48.682873 
L 90.342406 48.476006 
L 90.407721 48.505732 
L 90.491697 48.695232 
L 90.525909 48.656732 
L 90.575673 48.370944 
L 90.603665 48.686077 
L 90.637877 48.62471 
L 90.703192 48.679138 
L 90.659649 48.482368 
L 90.749845 48.649119 
L 90.805829 48.681813 
L 90.784058 48.515442 
L 90.843152 48.575875 
L 90.855593 48.442192 
L 90.883585 48.689114 
L 90.952009 48.506906 
L 91.054647 48.672415 
L 91.017324 48.463383 
L 91.060867 48.558352 
L 91.063977 48.484513 
L 91.135512 48.6785 
L 91.169725 48.49462 
L 91.23815 48.690035 
L 91.231929 48.482683 
L 91.287913 48.66335 
L 91.365669 48.456921 
L 91.300354 48.696908 
L 91.406102 48.557218 
L 91.480747 48.694966 
L 91.486967 48.482818 
L 91.514959 48.60402 
L 91.583384 48.407843 
L 91.52429 48.693388 
L 91.620707 48.62285 
L 91.707793 48.675703 
L 91.645589 48.487439 
L 91.726454 48.609461 
L 91.829092 48.434099 
L 91.797989 48.699123 
L 91.838422 48.536627 
L 91.875745 48.693021 
L 91.885075 48.48932 
L 91.95039 48.562186 
L 92.149444 48.672852 
L 91.993933 48.475492 
L 92.164995 48.637607 
L 92.168106 48.526087 
L 92.214759 48.678109 
L 92.273853 48.648526 
L 92.311176 48.450668 
L 92.37338 48.69379 
L 92.398262 48.488706 
L 92.482238 48.649335 
L 92.451136 48.346419 
L 92.51956 48.556325 
L 92.609757 48.379396 
L 92.563103 48.670968 
L 92.625308 48.612825 
L 92.703063 48.699364 
L 92.637749 48.482641 
L 92.727945 48.545512 
L 92.731055 48.461811 
L 92.768378 48.699094 
L 92.836803 48.568773 
L 92.889677 48.681834 
L 92.867905 48.48979 
L 92.94255 48.554458 
L 92.945661 48.439779 
L 93.029636 48.673453 
L 93.048298 48.651342 
L 93.126053 48.694599 
L 93.057628 48.416185 
L 93.154045 48.623962 
L 93.172707 48.497222 
L 93.21625 48.68011 
L 93.262903 48.652757 
L 93.300226 48.447691 
L 93.272234 48.670797 
L 93.374871 48.535877 
L 93.421524 48.693322 
L 93.449516 48.449644 
L 93.483729 48.64417 
L 93.539713 48.509118 
L 93.493059 48.697851 
L 93.592586 48.686012 
L 93.661011 48.427952 
L 93.598807 48.690546 
L 93.704554 48.58188 
L 93.794751 48.695383 
L 93.748097 48.484905 
L 93.813412 48.55226 
L 93.819632 48.490631 
L 93.844514 48.687769 
L 93.919159 48.553644 
L 93.962702 48.691565 
L 93.937821 48.494908 
L 94.031127 48.658605 
L 94.049789 48.444847 
L 94.111993 48.676676 
L 94.143095 48.523265 
L 94.230181 48.672997 
L 94.174197 48.473888 
L 94.251953 48.649588 
L 94.289276 48.493568 
L 94.35459 48.685375 
L 94.360811 48.650696 
L 94.451007 48.472688 
L 94.385692 48.691472 
L 94.472779 48.530113 
L 94.475889 48.690374 
L 94.522542 48.49123 
L 94.584746 48.61638 
L 94.609628 48.69392 
L 94.674943 48.519281 
L 94.693604 48.628602 
L 94.699825 48.616424 
L 94.702935 48.661698 
L 94.702935 48.661698 
" clip-path="url(#p6cbc36105b)" style="fill: none; stroke: #7f7f7f; stroke-width: 0.5; stroke-linecap: square"/>
   </g>
  </g>
 </g>
 <defs>
  <clipPath id="p6cbc36105b">
   <rect x="0" y="-0" width="99.212598" height="51.023622"/>
  </clipPath>
 </defs>
</svg>
