<?xml version="1.0" encoding="utf-8" standalone="no"?>
<!DOCTYPE svg PUBLIC "-//W3C//DTD SVG 1.1//EN"
  "http://www.w3.org/Graphics/SVG/1.1/DTD/svg11.dtd">
<svg xmlns:xlink="http://www.w3.org/1999/xlink" width="99.212598pt" height="51.023622pt" viewBox="0 0 99.212598 51.023622" xmlns="http://www.w3.org/2000/svg" version="1.1">
 <metadata>
  <rdf:RDF xmlns:dc="http://purl.org/dc/elements/1.1/" xmlns:cc="http://creativecommons.org/ns#" xmlns:rdf="http://www.w3.org/1999/02/22-rdf-syntax-ns#">
   <cc:Work>
    <dc:type rdf:resource="http://purl.org/dc/dcmitype/StillImage"/>
    <dc:date>2024-10-30T10:51:18.261993</dc:date>
    <dc:format>image/svg+xml</dc:format>
    <dc:creator>
     <cc:Agent>
      <dc:title>Matplotlib v3.8.4, https://matplotlib.org/</dc:title>
     </cc:Agent>
    </dc:creator>
   </cc:Work>
  </rdf:RDF>
 </metadata>
 <defs>
  <style type="text/css">*{stroke-linejoin: round; stroke-linecap: butt}</style>
 </defs>
 <g id="figure_1">
  <g id="patch_1">
   <path d="M 0 51.023622 
L 99.212598 51.023622 
L 99.212598 0 
L 0 0 
L 0 51.023622 
z
" style="fill: none"/>
  </g>
  <g id="axes_1">
   <g id="patch_2">
    <path d="M 0 51.023622 
L 99.212598 51.023622 
L 99.212598 -0 
L 0 -0 
L 0 51.023622 
z
" style="fill: none"/>
   </g>
   <g id="matplotlib.axis_1">
    <g id="xtick_1"/>
    <g id="xtick_2"/>
   </g>
   <g id="matplotlib.axis_2">
    <g id="ytick_1"/>
    <g id="ytick_2"/>
   </g>
   <g id="line2d_1">
    <path d="M 4.509664 2.319256 
L 4.74293 37.423217 
L 4.761591 36.314219 
L 4.976197 8.636411 
L 5.007299 5.384954 
L 5.050842 14.539917 
L 5.109936 36.907615 
L 5.218794 36.070287 
L 5.265447 46.514561 
L 5.30899 31.534149 
L 5.352533 20.545644 
L 5.414738 33.368027 
L 5.548477 47.379841 
L 5.58891 46.382888 
L 5.59513 46.121454 
L 5.644894 48.218184 
L 5.648004 48.241391 
L 5.654225 47.614536 
L 5.694657 44.2846 
L 5.744421 48.461783 
L 5.778633 46.547703 
L 5.803515 47.369387 
L 5.834617 44.722586 
L 5.993239 35.548266 
L 6.024341 38.381452 
L 6.058553 42.589025 
L 6.105206 33.770545 
L 6.117647 31.86726 
L 6.173631 43.019739 
L 6.223395 45.839294 
L 6.266938 39.402573 
L 6.276269 38.580338 
L 6.316701 46.140755 
L 6.326032 48.318203 
L 6.406898 39.663244 
L 6.419339 38.867511 
L 6.459772 43.532063 
L 6.503315 40.99344 
L 6.640164 48.032647 
L 6.649495 46.870994 
L 6.686818 42.723656 
L 6.755242 47.976391 
L 6.783234 45.725052 
L 6.901423 42.745912 
L 6.854769 48.571137 
L 6.913864 43.51054 
L 6.963627 47.86531 
L 7.078705 46.381963 
L 7.084926 46.155423 
L 7.122248 48.558236 
L 7.162681 47.614273 
L 7.240437 48.61124 
L 7.200004 46.154644 
L 7.262208 46.743368 
L 7.28087 46.13145 
L 7.333743 48.349792 
L 7.343074 48.592043 
L 7.364846 46.697216 
L 7.467483 44.95531 
L 7.42083 48.082009 
L 7.489254 45.365967 
L 7.650986 47.362285 
L 7.529687 45.205885 
L 7.657206 46.875958 
L 7.70697 43.387107 
L 7.762954 47.26249 
L 7.784725 48.070259 
L 7.843819 45.178604 
L 7.874922 47.417317 
L 7.927795 47.039516 
L 7.915355 47.700946 
L 7.952677 47.618634 
L 7.955787 47.67723 
L 7.971338 46.249031 
L 8.052204 44.381777 
L 8.021102 48.403067 
L 8.077086 46.536198 
L 8.095747 47.7248 
L 8.173503 45.806074 
L 8.185944 46.283822 
L 8.26992 48.546704 
L 8.235707 43.994088 
L 8.285471 46.030906 
L 8.307242 45.151011 
L 8.344565 47.558799 
L 8.397439 45.275842 
L 8.425431 47.940392 
L 8.515627 46.531993 
L 8.518737 46.549338 
L 8.524958 46.17347 
L 8.540509 46.193367 
L 8.574721 44.543469 
L 8.615154 46.739708 
L 8.646256 46.570447 
L 8.664918 47.740325 
L 8.745783 48.015802 
L 8.714681 47.369977 
L 8.776885 47.864152 
L 8.823539 46.807689 
L 8.854641 48.49544 
L 8.860861 48.344871 
L 8.863972 48.389705 
L 8.916845 47.709956 
L 8.941727 47.968043 
L 8.994601 47.380934 
L 9.031924 48.223945 
L 9.056805 47.755004 
L 9.168773 48.57483 
L 9.137671 47.476742 
L 9.171883 48.352481 
L 9.25897 46.251903 
L 9.286962 48.04462 
L 9.293182 48.215448 
L 9.333615 46.804754 
L 9.380268 47.582177 
L 9.492236 46.815482 
L 9.423811 48.47659 
L 9.495346 46.895033 
L 9.520228 45.90738 
L 9.591763 47.798686 
L 9.597984 48.275005 
L 9.625976 46.024963 
L 9.703731 47.915895 
L 9.747274 46.454049 
L 9.815699 47.627701 
L 9.82503 48.49589 
L 9.849911 46.901991 
L 9.927667 47.89288 
L 9.949438 46.398029 
L 9.97743 48.481449 
L 10.039635 47.686549 
L 10.139162 46.488511 
L 10.098729 48.242121 
L 10.154713 47.361981 
L 10.269791 48.544863 
L 10.195146 46.731524 
L 10.272901 48.183326 
L 10.297783 46.211837 
L 10.39109 47.319675 
L 10.39731 47.197592 
L 10.440853 48.479003 
L 10.447074 48.522253 
L 10.465735 47.561097 
L 10.524829 46.527342 
L 10.499947 48.611626 
L 10.574593 47.470097 
L 10.695891 48.504394 
L 10.618136 45.49204 
L 10.699001 48.157354 
L 10.779867 47.410723 
L 10.807859 48.286819 
L 10.860733 46.580446 
L 10.838961 48.645596 
L 10.907386 48.32765 
L 10.910496 48.454575 
L 10.978921 47.368137 
L 11.006913 48.012355 
L 11.028685 46.615991 
L 11.093999 48.52095 
L 11.115771 48.095999 
L 11.196637 47.61538 
L 11.209078 48.308366 
L 11.299274 48.688058 
L 11.271282 46.872518 
L 11.308605 47.9047 
L 11.445454 46.188024 
L 11.336597 48.427331 
L 11.448565 46.323189 
L 11.451675 46.215651 
L 11.488997 48.493869 
L 11.507659 47.888029 
L 11.607186 48.597511 
L 11.53254 47.479005 
L 11.619627 48.279731 
L 11.681831 47.082166 
L 11.728484 48.19 
L 11.787578 48.431752 
L 11.81246 47.817704 
L 11.824901 47.82578 
L 11.862224 45.948856 
L 11.902657 48.011288 
L 11.936869 47.713072 
L 12.039506 48.659179 
L 11.977302 47.125465 
L 12.051947 48.133588 
L 12.08616 47.311786 
L 12.107931 48.396571 
L 12.163915 47.849878 
L 12.173246 48.037974 
L 12.185687 47.55297 
L 12.188797 47.662434 
L 12.207458 47.175881 
L 12.275883 48.368405 
L 12.300765 47.362795 
L 12.319426 48.590367 
L 12.412733 47.623279 
L 12.481158 46.786041 
L 12.453166 48.416531 
L 12.527811 47.209672 
L 12.555803 48.661751 
L 12.630448 46.981852 
L 12.639779 47.287784 
L 12.664661 47.973642 
L 12.698873 46.424895 
L 12.757967 47.482451 
L 12.857494 46.243532 
L 12.779739 48.504786 
L 12.876156 47.351674 
L 12.925919 48.63317 
L 12.960131 46.040903 
L 12.966352 46.327891 
L 12.969462 46.269752 
L 13.016115 47.441544 
L 13.062769 48.614638 
L 13.137414 48.33444 
L 13.174737 48.444305 
L 13.156075 47.915902 
L 13.187178 47.959033 
L 13.212059 47.616883 
L 13.233831 48.590373 
L 13.296035 47.965428 
L 13.392452 48.441639 
L 13.330248 47.098919 
L 13.398672 48.10603 
L 13.476428 47.351541 
L 13.417334 48.505264 
L 13.50442 48.360093 
L 13.51064 48.623361 
L 13.529302 47.69901 
L 13.616388 48.459708 
L 13.663041 47.727986 
L 13.722135 48.638203 
L 13.737686 47.919693 
L 13.79367 47.713215 
L 13.765678 48.288536 
L 13.806111 48.112497 
L 13.809222 48.119184 
L 13.815442 47.936655 
L 13.865205 47.175217 
L 13.893197 48.466097 
L 13.939851 47.206349 
L 13.946071 47.085232 
L 13.970953 47.739651 
L 13.989614 48.661178 
L 14.030047 47.054499 
L 14.079811 47.827727 
L 14.082921 47.652232 
L 14.114023 48.585789 
L 14.179338 48.308982 
L 14.182448 48.393724 
L 14.235322 46.887535 
L 14.244652 46.316576 
L 14.288195 48.403916 
L 14.328628 47.837494 
L 14.375282 48.486796 
L 14.35351 47.269218 
L 14.437486 47.776266 
L 14.543233 48.539553 
L 14.518352 47.296575 
L 14.552564 47.974702 
L 14.627209 47.669808 
L 14.611658 48.675516 
L 14.661422 47.983965 
L 14.729847 48.498648 
L 14.695634 47.429901 
L 14.77339 48.077905 
L 14.882247 48.65234 
L 14.838704 48.022777 
L 14.885358 48.25825 
L 14.975554 47.2391 
L 14.994215 48.179607 
L 15.003546 48.589657 
L 15.025318 47.701693 
L 15.096853 47.923491 
L 15.2026 47.276775 
L 15.174608 48.656037 
L 15.218151 47.623059 
L 15.330119 48.502824 
L 15.302127 47.284964 
L 15.333229 48.311807 
L 15.355001 46.958187 
L 15.448307 47.895073 
L 15.507402 46.485134 
L 15.476299 48.430612 
L 15.557165 47.898482 
L 15.662913 48.606682 
L 15.641141 47.330861 
L 15.675354 48.214014 
L 15.681574 48.01217 
L 15.731338 48.353946 
L 15.753109 48.656857 
L 15.76555 48.084506 
L 15.840195 48.234981 
L 15.855746 48.551127 
L 15.9024 47.897036 
L 15.945943 47.506667 
L 15.930392 48.297131 
L 16.017478 47.532589 
L 16.026808 47.283128 
L 16.04236 47.796185 
L 16.073462 48.492338 
L 16.092123 47.794182 
L 16.157438 48.428912 
L 16.253854 48.155828 
L 16.210311 48.62811 
L 16.266295 48.397714 
L 16.322279 48.648874 
L 16.347161 47.798645 
L 16.362712 48.106998 
L 16.459129 47.79912 
L 16.412476 48.501099 
L 16.47157 47.981298 
L 16.561766 48.549774 
L 16.521333 47.302145 
L 16.574207 47.360253 
L 16.589758 46.571749 
L 16.627081 48.375096 
L 16.679955 47.643664 
L 16.770151 48.609948 
L 16.813694 48.237786 
L 16.931882 47.493158 
L 16.869678 48.627263 
L 16.944323 47.727854 
L 16.962985 48.59874 
L 17.03452 47.18187 
L 17.059401 48.034577 
L 17.071842 47.821346 
L 17.124716 48.557049 
L 17.158929 48.405163 
L 17.162039 48.484516 
L 17.214912 47.681905 
L 17.252235 48.332548 
L 17.311329 47.662345 
L 17.342432 48.528478 
L 17.364203 48.063762 
L 17.441959 47.782762 
L 17.385975 48.573967 
L 17.473061 48.109639 
L 17.482391 47.665393 
L 17.504163 48.511077 
L 17.566367 48.164557 
L 17.672115 48.595492 
L 17.650343 48.098654 
L 17.678335 48.323269 
L 17.771642 47.700674 
L 17.728099 48.592853 
L 17.790303 48.284934 
L 17.793413 48.295073 
L 17.799634 48.016777 
L 17.843177 47.722397 
L 17.861838 48.586157 
L 17.902271 48.281032 
L 17.933373 48.526519 
L 17.955145 48.015231 
L 18.042231 47.442767 
L 18.008019 48.566629 
L 18.060892 48.329312 
L 18.067113 48.446246 
L 18.110656 47.351348 
L 18.113766 47.365854 
L 18.16353 46.886909 
L 18.141758 48.431789 
L 18.216403 47.785515 
L 18.30971 48.595714 
L 18.281718 47.253151 
L 18.325261 47.750582 
L 18.362584 47.295075 
L 18.378135 47.86372 
L 18.384355 48.626709 
L 18.406127 47.571845 
L 18.490103 48.141272 
L 18.508764 47.660912 
L 18.583409 48.540835 
L 18.602071 48.042342 
L 18.679826 48.659979 
L 18.639393 47.980986 
L 18.717149 48.299801 
L 18.807345 47.861395 
L 18.73892 48.478481 
L 18.829117 48.264835 
L 18.903762 48.622387 
L 18.857109 47.834163 
L 18.941085 48.311863 
L 19.02195 47.687065 
L 18.959746 48.512431 
L 19.040612 48.330344 
L 19.099706 48.640277 
L 19.062383 47.925808 
L 19.149469 48.44973 
L 19.202343 47.531456 
L 19.236556 48.560066 
L 19.264547 48.074916 
L 19.336083 48.327206 
L 19.311201 47.68383 
L 19.376515 48.165606 
L 19.454271 47.820914 
L 19.466712 48.304913 
L 19.556908 48.603177 
L 19.522696 47.546397 
L 19.575569 48.437061 
L 19.597341 47.618121 
L 19.647105 48.649221 
L 19.687537 48.164596 
L 19.699978 48.442427 
L 19.780844 47.839755 
L 19.799505 48.35898 
L 19.821277 48.544846 
L 19.8586 47.195868 
L 19.86482 47.3492 
L 19.976788 48.618326 
L 20.014111 48.319237 
L 20.029662 47.886068 
L 20.073205 48.600398 
L 20.119858 48.305831 
L 20.129189 48.57046 
L 20.194503 47.738608 
L 20.225605 48.301894 
L 20.244267 48.644408 
L 20.353125 47.56887 
L 20.405998 48.66504 
L 20.471313 48.226524 
L 20.496195 48.587609 
L 20.558399 47.689507 
L 20.57706 48.321992 
L 20.657926 47.559915 
L 20.601942 48.481814 
L 20.692138 47.665437 
L 20.698359 47.306179 
L 20.72013 48.608921 
L 20.794776 47.990406 
L 20.816547 48.693 
L 20.881862 47.68775 
L 20.906744 48.227768 
L 21.015601 47.522693 
L 20.984499 48.666443 
L 21.034263 47.914102 
L 21.164892 48.565461 
L 21.168002 48.464055 
L 21.27375 46.971075 
L 21.289301 47.827973 
L 21.301742 48.681547 
L 21.410599 48.489415 
L 21.438591 47.89253 
L 21.42304 48.502166 
L 21.522567 48.235594 
L 21.587882 48.674898 
L 21.628315 48.042585 
L 21.634535 47.926763 
L 21.653196 48.406364 
L 21.730952 48.142769 
L 21.743393 48.597121 
L 21.836699 48.076032 
L 21.83981 48.207744 
L 21.84603 47.92541 
L 21.917565 48.589203 
L 21.948667 48.352255 
L 22.051305 48.071375 
L 22.020202 48.680419 
L 22.057525 48.349481 
L 22.076186 48.672537 
L 22.141501 47.870733 
L 22.169493 48.665256 
L 22.228587 47.92229 
L 22.278351 48.536556 
L 22.325004 48.643122 
L 22.349886 47.986948 
L 22.380988 48.411913 
L 22.390319 48.435133 
L 22.393429 48.361644 
L 22.436972 47.71864 
L 22.483625 48.651958 
L 22.511617 47.949829 
L 22.514727 47.930678 
L 22.524058 48.557943 
L 22.55205 48.391157 
L 22.567601 48.686084 
L 22.589373 48.170619 
L 22.592483 48.232479 
L 22.710671 47.563446 
L 22.617365 48.627603 
L 22.713782 47.742016 
L 22.760435 48.541602 
L 22.83508 48.393774 
L 22.850631 48.568525 
L 22.919056 48.081087 
L 22.922166 48.232356 
L 22.990591 47.890536 
L 22.962599 48.602392 
L 23.034134 48.031036 
L 23.099449 48.643521 
L 23.043465 47.95089 
L 23.161653 48.529126 
L 23.226968 48.140172 
L 23.217637 48.603773 
L 23.276731 48.295396 
L 23.323385 48.115338 
L 23.304723 48.66422 
L 23.382479 48.416786 
L 23.388699 48.628748 
L 23.457124 47.865664 
L 23.491337 48.345464 
L 23.531769 47.676301 
L 23.513108 48.666718 
L 23.584643 48.369972 
L 23.593974 48.662336 
L 23.625076 48.073816 
L 23.696611 48.521793 
L 23.752595 48.694661 
L 23.737044 47.934464 
L 23.802359 48.445666 
L 23.920547 48.058087 
L 23.833461 48.643456 
L 23.923657 48.213922 
L 23.985862 48.649922 
L 23.998302 47.990762 
L 24.029405 48.088929 
L 24.10094 47.663427 
L 24.082278 48.666098 
L 24.116491 48.297624 
L 24.141373 47.689128 
L 24.231569 48.667015 
L 24.296884 47.733867 
L 24.352867 48.268125 
L 24.446174 48.685499 
L 24.427513 47.914948 
L 24.452395 48.295611 
L 24.467946 47.76875 
L 24.555032 48.489565 
L 24.558142 48.648168 
L 24.642118 47.788887 
L 24.667 48.597343 
L 24.710543 47.59184 
L 24.775857 48.608044 
L 24.778968 48.465942 
L 24.782078 48.687158 
L 24.866054 47.598301 
L 24.890936 48.571064 
L 24.940699 48.639668 
L 24.925148 48.102127 
L 24.95003 48.303041 
L 24.974912 47.548369 
L 25.021565 48.598408 
L 25.058887 48.429785 
L 25.149084 48.672502 
L 25.117982 48.281284 
L 25.167745 48.373292 
L 25.220619 48.20548 
L 25.180186 48.689697 
L 25.261052 48.614137 
L 25.264162 48.614695 
L 25.267272 48.575399 
L 25.338807 48.024256 
L 25.313925 48.658231 
L 25.37924 48.528435 
L 25.38235 48.623163 
L 25.425893 48.140803 
L 25.488098 48.474833 
L 25.550302 48.077031 
L 25.494318 48.657238 
L 25.593845 48.472507 
L 25.674711 48.540689 
L 25.640499 47.886598 
L 25.690262 48.289881 
L 25.774238 47.814023 
L 25.743136 48.640465 
L 25.79601 48.235056 
L 25.876875 48.584669 
L 25.904867 48.085071 
L 25.991953 48.623855 
L 25.963961 47.77871 
L 26.019945 48.46618 
L 26.07904 48.641107 
L 26.150575 47.832754 
L 26.22833 48.554171 
L 26.268763 48.389022 
L 26.309196 48.139353 
L 26.287424 48.601579 
L 26.36518 48.494743 
L 26.374511 48.637691 
L 26.399392 48.077273 
L 26.470927 48.551574 
L 26.486478 47.979115 
L 26.582895 48.40449 
L 26.601557 48.608971 
L 26.666871 48.2284 
L 26.669981 48.34798 
L 26.713525 48.654889 
L 26.781949 48.151552 
L 26.79439 48.649458 
L 26.837933 47.956735 
L 26.893917 48.247465 
L 26.965452 48.15991 
L 26.918799 48.650622 
L 26.999665 48.365398 
L 27.096082 48.6742 
L 27.064979 48.160087 
L 27.108522 48.4463 
L 27.21738 47.615455 
L 27.127184 48.462497 
L 27.229821 47.915651 
L 27.338679 48.66888 
L 27.348009 48.449854 
L 27.425765 47.973415 
L 27.391552 48.626665 
L 27.453757 48.437557 
L 27.506631 48.653815 
L 27.478639 47.996989 
L 27.553284 48.124334 
L 27.568835 47.774173 
L 27.590607 48.621904 
L 27.646591 48.442467 
L 27.739897 48.637938 
L 27.668362 47.963681 
L 27.752338 48.270655 
L 27.858085 47.583582 
L 27.808322 48.597723 
L 27.864306 47.922895 
L 27.954502 48.559075 
L 27.973164 47.822644 
L 27.979384 47.620887 
L 28.038478 48.595408 
L 28.085132 47.782987 
L 28.128675 48.653705 
L 28.20643 48.292702 
L 28.299737 47.816487 
L 28.246863 48.679284 
L 28.318398 47.966597 
L 28.368162 48.639907 
L 28.430366 48.10576 
L 28.501901 48.668401 
L 28.442807 47.861627 
L 28.548554 48.300281 
L 28.551665 48.176783 
L 28.579657 48.627515 
L 28.651192 48.430086 
L 28.685404 48.680981 
L 28.750719 48.157677 
L 28.760049 48.427301 
L 28.788041 48.672617 
L 28.806703 48.064981 
L 28.859576 48.428181 
L 28.940442 47.967775 
L 28.918671 48.688682 
L 28.971544 48.328248 
L 29.05863 48.21563 
L 29.015087 48.667725 
L 29.071071 48.369814 
L 29.111504 48.608996 
L 29.145717 48.074504 
L 29.167488 48.152043 
L 29.270125 47.674657 
L 29.235913 48.530758 
L 29.279456 48.011822 
L 29.350991 48.627426 
L 29.397644 48.432329 
L 29.487841 47.770454 
L 29.419416 48.692447 
L 29.500282 48.214252 
L 29.503392 48.577454 
L 29.584258 48.00604 
L 29.61225 48.483858 
L 29.61847 48.622883 
L 29.674454 48.031872 
L 29.708666 48.076902 
L 29.820634 48.615623 
L 29.836185 48.368406 
L 29.857957 47.726899 
L 29.90461 48.624943 
L 29.948153 48.160337 
L 29.951264 48.159823 
L 30.010358 48.603848 
L 30.04768 48.050935 
L 30.063232 48.479564 
L 30.069452 48.656935 
L 30.094334 48.360625 
L 30.150318 48.57792 
L 30.209412 47.96616 
L 30.290278 48.65669 
L 30.33071 48.475093 
L 30.368033 48.085138 
L 30.386694 48.644845 
L 30.448899 48.122208 
L 30.539095 48.683937 
L 30.455119 48.11486 
L 30.570197 48.44195 
L 30.623071 48.693181 
L 30.585748 48.114253 
L 30.651063 48.309003 
L 30.660394 47.811205 
L 30.675945 48.601548 
L 30.759921 48.388588 
L 30.822125 48.603516 
L 30.812795 47.847293 
L 30.871889 48.450269 
L 30.934093 47.924773 
L 30.902991 48.585599 
L 30.983857 48.409407 
L 31.042951 48.608601 
L 31.018069 48.115144 
L 31.049171 48.394079 
L 31.161139 47.713328 
L 31.074053 48.598107 
L 31.164249 47.75681 
L 31.220233 48.64616 
L 31.282438 47.971517 
L 31.285548 47.918497 
L 31.332201 48.582827 
L 31.375744 48.086337 
L 31.391295 48.591566 
L 31.431728 47.809016 
L 31.484602 48.049954 
L 31.531255 47.826729 
L 31.565468 48.607678 
L 31.59035 48.074969 
L 31.696097 48.667302 
L 31.618342 47.680589 
L 31.711648 48.523941 
L 31.783183 48.091381 
L 31.761412 48.635408 
L 31.832947 48.317368 
L 31.88271 48.582219 
L 31.913812 48.158291 
L 31.944915 48.382636 
L 31.976017 48.680072 
L 32.02267 48.048528 
L 32.032001 47.745703 
L 32.072434 48.649742 
L 32.122197 48.528173 
L 32.246606 48.214766 
L 32.178181 48.641854 
L 32.252826 48.417676 
L 32.327472 48.629771 
L 32.349243 48.164183 
L 32.364794 48.561304 
L 32.405227 48.143538 
L 32.423889 48.618515 
L 32.479872 48.28172 
L 32.573179 48.676279 
L 32.532746 47.976552 
L 32.604281 48.645792 
L 32.713139 48.149988 
L 32.719359 48.395871 
L 32.7318 48.496998 
L 32.72558 48.333674 
L 32.734911 48.383931 
L 32.738021 48.070478 
L 32.762903 48.648234 
L 32.843768 48.325104 
L 32.924634 48.669794 
L 32.877981 48.002652 
L 32.952626 48.273222 
L 33.017941 48.19547 
L 32.986838 48.693526 
L 33.033492 48.278777 
L 33.080145 48.59976 
L 33.061484 48.150467 
L 33.14546 48.433135 
L 33.164121 47.744084 
L 33.201444 48.598456 
L 33.254317 48.501814 
L 33.263648 48.665436 
L 33.338293 47.890385 
L 33.366285 48.594547 
L 33.42849 48.078108 
L 33.416049 48.61279 
L 33.481363 48.12682 
L 33.493804 47.907481 
L 33.503135 48.599782 
L 33.587111 48.361643 
L 33.664866 48.064417 
L 33.646205 48.638577 
L 33.695969 48.307211 
L 33.72085 48.657378 
L 33.770614 48.244258 
L 33.804826 48.325038 
L 33.817267 48.263327 
L 33.823488 48.385804 
L 33.835928 48.684569 
L 33.8577 48.288312 
L 33.935455 48.43837 
L 33.947896 48.288163 
L 34.006991 48.652946 
L 34.044313 48.441916 
L 34.115848 48.678415 
L 34.14695 48.294601 
L 34.150061 48.368262 
L 34.221596 48.6684 
L 34.262029 48.059375 
L 34.339784 48.620718 
L 34.373997 48.228096 
L 34.395768 48.658817 
L 34.439311 48.053005 
L 34.495295 48.533243 
L 34.582381 48.134837 
L 34.548169 48.671469 
L 34.613483 48.410983 
L 34.666357 48.251522 
L 34.629035 48.634439 
L 34.675688 48.466577 
L 34.688129 48.656373 
L 34.759664 48.018285 
L 34.784546 48.368312 
L 34.793876 48.535919 
L 34.806317 48.26591 
L 34.893403 48.386153 
L 34.924505 48.030604 
L 34.971159 48.61391 
L 34.996041 48.552001 
L 35.048914 48.642003 
L 35.070686 47.845156 
L 35.073796 47.820664 
L 35.083127 48.47411 
L 35.086237 48.680398 
L 35.160882 48.125906 
L 35.191984 48.490771 
L 35.300842 47.848392 
L 35.251079 48.668569 
L 35.310173 47.97132 
L 35.378598 48.677184 
L 35.422141 48.15719 
L 35.425251 47.940144 
L 35.524778 48.65583 
L 35.527888 48.669851 
L 35.546549 48.268491 
L 35.577652 48.104155 
L 35.614974 48.690018 
L 35.655407 48.294665 
L 35.664738 48.182183 
L 35.68962 48.498439 
L 35.708281 48.217956 
L 35.810918 48.627945 
L 35.801588 47.965673 
L 35.820249 48.361774 
L 35.823359 48.154691 
L 35.866902 48.687908 
L 35.929107 48.411544 
L 35.98509 48.670546 
L 36.000642 48.298295 
L 36.034854 48.347657 
L 36.072177 48.13425 
L 36.12505 48.643055 
L 36.143712 48.216865 
L 36.243239 48.676692 
L 36.221467 48.167967 
L 36.25568 48.486127 
L 36.302333 48.128746 
L 36.280561 48.63486 
L 36.364537 48.330329 
L 36.414301 48.615184 
L 36.373868 48.247247 
L 36.473395 48.299601 
L 36.479615 48.00897 
L 36.513828 48.615045 
L 36.572922 48.48415 
L 36.600914 48.676214 
L 36.650678 48.331879 
L 36.660008 48.494738 
L 36.731543 47.986933 
L 36.68489 48.686684 
L 36.771976 48.338206 
L 36.837291 48.599385 
L 36.871503 48.106754 
L 36.880834 48.296399 
L 36.911936 48.679454 
L 36.939928 48.027896 
L 36.995912 48.482303 
L 37.023904 47.975397 
L 37.10477 48.576976 
L 37.201187 48.658535 
L 37.151423 48.234319 
L 37.204297 48.37869 
L 37.294493 47.973479 
L 37.263391 48.617232 
L 37.319375 48.135061 
L 37.362918 48.694138 
L 37.422012 48.049819 
L 37.437563 48.508682 
L 37.481106 48.002043 
L 37.446894 48.59703 
L 37.549531 48.458945 
L 37.580633 48.245626 
L 37.611736 48.592212 
L 37.633507 48.537713 
L 37.636617 48.675155 
L 37.733034 48.254355 
L 37.736144 48.056165 
L 37.798349 48.62602 
L 37.841892 48.398691 
L 37.894766 48.675717 
L 37.935198 48.197971 
L 37.95386 48.464901 
L 37.95697 48.269304 
L 37.972521 48.698971 
L 38.059607 48.570759 
L 38.10315 48.685729 
L 38.143583 48.069828 
L 38.165355 48.439231 
L 38.264882 48.018432 
L 38.24311 48.672443 
L 38.271102 48.340657 
L 38.302204 48.682854 
L 38.317756 48.170842 
L 38.38307 48.551022 
L 38.392401 48.659731 
L 38.442164 48.078259 
L 38.473267 48.590991 
L 38.51992 48.086766 
L 38.560353 48.62358 
L 38.582124 48.308709 
L 38.613226 48.64938 
L 38.634998 47.925236 
L 38.694092 48.517369 
L 38.740745 47.864416 
L 38.759407 48.609927 
L 38.796729 48.52026 
L 38.877595 48.700576 
L 38.865154 48.250064 
L 38.899367 48.504418 
L 38.918028 48.0153 
L 38.933579 48.62909 
L 39.014445 48.25497 
L 39.104641 48.645944 
L 39.048657 47.990061 
L 39.120192 48.179255 
L 39.123303 47.997003 
L 39.207278 48.640853 
L 39.22594 48.382391 
L 39.257042 48.667142 
L 39.291254 48.157609 
L 39.334797 48.535923 
L 39.350349 48.118042 
L 39.434325 48.688187 
L 39.446765 48.487204 
L 39.50586 48.668235 
L 39.484088 48.157444 
L 39.546292 48.487279 
L 39.65515 48.226222 
L 39.602276 48.632266 
L 39.65826 48.413259 
L 39.764008 48.617976 
L 39.689363 48.08781 
L 39.767118 48.454974 
L 39.779559 48.379886 
L 39.813771 48.677736 
L 39.869755 48.462134 
L 39.969282 48.69401 
L 39.944401 48.243079 
L 39.981723 48.620044 
L 40.043928 48.203793 
L 40.000385 48.664878 
L 40.115463 48.2536 
L 40.21499 48.673847 
L 40.168336 48.235621 
L 40.233651 48.597079 
L 40.292745 48.083471 
L 40.270974 48.677543 
L 40.36117 48.157947 
L 40.376721 48.624023 
L 40.463807 48.048125 
L 40.470028 48.241025 
L 40.538453 48.120243 
L 40.516681 48.631126 
L 40.566445 48.40796 
L 40.569555 48.629155 
L 40.631759 47.931989 
L 40.672192 48.283085 
L 40.684633 48.046507 
L 40.749948 48.588058 
L 40.77794 48.434327 
L 40.833924 48.639267 
L 40.868136 48.187517 
L 40.886797 48.442821 
L 40.964553 47.972149 
L 40.902348 48.630708 
L 40.992545 48.578617 
L 40.995655 48.690542 
L 41.082741 48.017256 
L 41.085851 48.086898 
L 41.088962 47.898244 
L 41.144946 48.62204 
L 41.191599 48.25844 
L 41.228922 48.689415 
L 41.260024 48.057277 
L 41.303567 48.499537 
L 41.418645 48.009089 
L 41.396873 48.679953 
L 41.421755 48.196986 
L 41.505731 48.593798 
L 41.446637 48.184856 
L 41.533723 48.502909 
L 41.546164 47.70071 
L 41.567935 48.590658 
L 41.645691 48.324018 
L 41.667463 48.650992 
L 41.738998 48.244144 
L 41.754549 48.459122 
L 41.76699 48.250286 
L 41.838525 48.661818 
L 41.863406 48.571208 
L 41.906949 48.187095 
L 41.959823 48.665763 
L 41.975374 48.472169 
L 42.081122 48.683194 
L 41.984705 48.361306 
L 42.087342 48.631001 
L 42.224192 47.946975 
L 42.112224 48.661596 
L 42.242853 48.32975 
L 42.270845 48.667541 
L 42.33927 48.152812 
L 42.351711 48.467845 
L 42.367262 48.016981 
L 42.382813 48.689211 
L 42.460569 48.488009 
L 42.463679 48.62549 
L 42.513442 47.813457 
L 42.560096 48.175743 
L 42.563206 48.00631 
L 42.600529 48.643646 
L 42.668953 48.257643 
L 42.737378 48.67033 
L 42.752929 47.978054 
L 42.75604 47.906995 
L 42.827575 48.659848 
L 42.833795 48.617555 
L 42.836905 48.633293 
L 42.849346 48.251596 
L 42.852456 48.371196 
L 42.886669 48.015081 
L 42.958204 48.646949 
L 43.054621 48.15579 
L 43.020408 48.68517 
L 43.076392 48.360593 
L 43.169699 48.623544 
L 43.085723 48.167095 
L 43.18214 48.263821 
L 43.18525 48.235257 
L 43.213242 48.678594 
L 43.272336 48.448872 
L 43.32521 48.638238 
L 43.309659 48.080952 
L 43.384304 48.616022 
L 43.462059 48.136746 
L 43.437178 48.67629 
L 43.496272 48.37321 
L 43.530484 48.682138 
L 43.595799 48.230118 
L 43.61446 48.658349 
L 43.645562 47.844966 
L 43.726428 48.351199 
L 43.822845 48.620112 
L 43.760641 48.23926 
L 43.835286 48.48544 
L 43.841506 48.277222 
L 43.869498 48.673836 
L 43.947254 48.444158 
L 43.997017 48.679316 
L 44.021899 48.329964 
L 44.068552 48.536375 
L 44.121426 48.325718 
L 44.105875 48.67567 
L 44.17741 48.546364 
L 44.242725 48.651234 
L 44.192961 48.196612 
L 44.255166 48.371394 
L 44.276937 48.160744 
L 44.329811 48.66938 
L 44.364023 48.229696 
L 44.438669 48.67943 
L 44.472881 48.141967 
L 44.59418 48.640184 
L 44.541306 47.953154 
L 44.59729 48.621756 
L 44.6004 48.6508 
L 44.643943 48.079369 
L 44.650164 48.113031 
L 44.653274 48.095336 
L 44.668825 48.553227 
L 44.671935 48.656386 
L 44.727919 48.128546 
L 44.774572 48.557463 
L 44.799454 48.099992 
L 44.818115 48.570567 
L 44.88654 48.438571 
L 44.933194 48.695128 
L 44.970516 48.21357 
L 44.986067 48.229386 
L 45.045162 48.021963 
L 45.066933 48.671045 
L 45.076264 48.565075 
L 45.104256 48.65966 
L 45.122917 48.174813 
L 45.182011 48.581847 
L 45.231775 48.134183 
L 45.253546 48.63495 
L 45.297089 48.385265 
L 45.325081 48.604165 
L 45.384175 48.146291 
L 45.387286 48.152505 
L 45.390396 48.058715 
L 45.458821 48.602493 
L 45.486813 48.265327 
L 45.561458 48.638724 
L 45.59567 48.171832 
L 45.608111 48.497947 
L 45.670316 48.681198 
L 45.620552 47.907146 
L 45.704528 48.257807 
L 45.707638 48.136913 
L 45.751181 48.666213 
L 45.804055 48.582984 
L 45.807165 48.684527 
L 45.819606 48.295761 
L 45.906692 48.355325 
L 45.972007 48.326718 
L 45.931574 48.656275 
L 45.978228 48.516033 
L 46.065314 48.659276 
L 45.996889 48.305601 
L 46.083975 48.502566 
L 46.099526 48.246791 
L 46.189722 48.634836 
L 46.192833 48.628791 
L 46.211494 48.086611 
L 46.304801 48.447425 
L 46.391887 48.679185 
L 46.332793 48.270303 
L 46.416769 48.626604 
L 46.497634 48.117964 
L 46.454091 48.677465 
L 46.531847 48.165814 
L 46.58161 48.680485 
L 46.650035 48.531079 
L 46.755783 48.648429 
L 46.681137 48.114245 
L 46.758893 48.636312 
L 46.817987 48.120497 
L 46.786885 48.660246 
L 46.86775 48.648874 
L 46.936175 48.012452 
L 46.917514 48.690638 
L 46.979718 48.545591 
L 47.045033 48.681893 
L 47.029482 47.887116 
L 47.085466 48.494465 
L 47.163221 48.067297 
L 47.101017 48.621169 
L 47.197434 48.375016 
L 47.206764 48.260196 
L 47.216095 48.606453 
L 47.247197 48.470235 
L 47.293851 48.668998 
L 47.318732 48.022278 
L 47.356055 48.515257 
L 47.42137 48.036837 
L 47.446251 48.602847 
L 47.471133 48.326718 
L 47.56133 48.661653 
L 47.492905 48.326158 
L 47.583101 48.44131 
L 47.654636 48.683654 
L 47.629754 48.302074 
L 47.688849 48.392019 
L 47.741722 47.970443 
L 47.785265 48.642638 
L 47.797706 48.316989 
L 47.813257 48.697382 
L 47.866131 48.031594 
L 47.912784 48.568674 
L 48.015422 48.083835 
L 47.931446 48.662593 
L 48.024752 48.458517 
L 48.114949 48.649666 
L 48.030973 48.31905 
L 48.13983 48.599379 
L 48.208255 48.225087 
L 48.155382 48.669697 
L 48.254909 48.338225 
L 48.264239 48.653502 
L 48.317113 48.307393 
L 48.373097 48.58159 
L 48.453963 48.331496 
L 48.435301 48.686635 
L 48.478844 48.339105 
L 48.513057 48.674607 
L 48.55971 48.241571 
L 48.590812 48.596031 
L 48.593923 48.63525 
L 48.625025 48.255542 
L 48.684119 48.508701 
L 48.789866 47.906944 
L 48.771205 48.66882 
L 48.805418 48.115512 
L 48.808528 48.111457 
L 48.892504 48.670786 
L 48.920496 48.213321 
L 48.957818 48.676453 
L 48.942267 48.008366 
L 49.038684 48.391936 
L 49.135101 48.163428 
L 49.066676 48.657256 
L 49.141321 48.290233 
L 49.147542 48.663809 
L 49.225297 48.135597 
L 49.253289 48.507655 
L 49.26884 48.186445 
L 49.334155 48.681899 
L 49.362147 48.505545 
L 49.374588 48.640975 
L 49.452343 48.028212 
L 49.467894 48.43399 
L 49.480335 48.200707 
L 49.530099 48.659305 
L 49.576752 48.539331 
L 49.679389 48.022531 
L 49.670059 48.70375 
L 49.69494 48.192404 
L 49.698051 48.126387 
L 49.744704 48.648082 
L 49.803798 48.217429 
L 49.912656 48.585846 
L 49.893995 47.951261 
L 49.915766 48.492356 
L 49.928207 47.950783 
L 49.987301 48.613907 
L 50.024624 48.556384 
L 50.052616 48.650503 
L 50.040175 48.404242 
L 50.093049 48.42621 
L 50.124151 48.120942 
L 50.155253 48.615438 
L 50.201906 48.418585 
L 50.208127 48.68399 
L 50.220568 48.21443 
L 50.313874 48.587413 
L 50.354307 48.671984 
L 50.341866 48.378637 
L 50.385409 48.473826 
L 50.39474 48.666412 
L 50.494267 48.350318 
L 50.565802 48.671084 
L 50.590684 48.239323 
L 50.606235 48.515687 
L 50.637337 48.148695 
L 50.621786 48.63951 
L 50.718203 48.450738 
L 50.82084 48.221688 
L 50.736864 48.637 
L 50.827061 48.46767 
L 50.836391 48.356697 
L 50.842612 48.56658 
L 50.845722 48.551493 
L 50.886155 48.688804 
L 50.929698 48.331145 
L 50.948359 48.658707 
L 51.047886 48.046942 
L 50.988792 48.666405 
L 51.060327 48.397217 
L 51.172295 48.676882 
L 51.274932 48.194945 
L 51.284263 48.417391 
L 51.290483 48.553592 
L 51.296704 48.401372 
L 51.312255 48.646899 
L 51.343357 48.19522 
L 51.405562 48.579986 
L 51.473986 48.173915 
L 51.442884 48.650497 
L 51.514419 48.481805 
L 51.598395 48.6785 
L 51.551742 47.974175 
L 51.626387 48.535161 
L 51.679261 48.631468 
L 51.6606 48.414496 
L 51.685481 48.482398 
L 51.691702 48.057328 
L 51.785008 48.606638 
L 51.794339 48.354483 
L 51.878315 48.644886 
L 51.856543 48.29279 
L 51.906307 48.510151 
L 52.008944 48.681427 
L 51.931189 47.952998 
L 52.018275 48.587559 
L 52.09603 48.197029 
L 52.105361 48.691139 
L 52.130243 48.543922 
L 52.170676 48.25138 
L 52.152014 48.648019 
L 52.214219 48.530586 
L 52.260872 48.68219 
L 52.285754 48.186186 
L 52.319966 48.601456 
L 52.332407 48.137323 
L 52.428824 48.693345 
L 52.50969 48.282035 
L 52.547012 48.50731 
L 52.575004 48.665106 
L 52.553233 48.346195 
L 52.643429 48.499234 
L 52.708744 48.307707 
L 52.724295 48.630264 
L 52.752287 48.623914 
L 52.864255 48.245739 
L 52.811381 48.661039 
L 52.867365 48.258432 
L 52.963782 48.661289 
L 52.9389 48.092703 
L 52.982443 48.596687 
L 53.088191 48.25544 
L 53.019766 48.642758 
L 53.116183 48.56496 
L 53.119293 48.662005 
L 53.156615 48.186987 
L 53.22815 48.625524 
L 53.277914 48.198581 
L 53.243702 48.634742 
L 53.343229 48.473768 
L 53.377441 48.636736 
L 53.411653 48.03082 
L 53.452086 48.628069 
L 53.520511 48.280858 
L 53.545393 48.661822 
L 53.567164 48.411863 
L 53.629369 48.184796 
L 53.64181 48.66637 
L 53.685353 48.215211 
L 53.78799 48.674631 
L 53.763108 48.029469 
L 53.797321 48.287846 
L 53.809762 47.672712 
L 53.856415 48.644573 
L 53.906178 48.369512 
L 53.993265 48.607339 
L 53.977713 48.007143 
L 54.011926 48.349422 
L 54.021257 48.19451 
L 54.083461 48.675278 
L 54.117673 48.433642 
L 54.173657 48.614323 
L 54.182988 48.178621 
L 54.186098 48.28859 
L 54.192319 47.951927 
L 54.232752 48.624098 
L 54.291846 48.511352 
L 54.322948 48.68565 
L 54.316727 48.371383 
L 54.397593 48.443296 
L 54.441136 48.191357 
L 54.453577 48.664963 
L 54.49712 48.466147 
L 54.522002 48.697423 
L 54.587317 48.20296 
L 54.605978 48.529212 
L 54.612198 48.264818 
L 54.689954 48.673089 
L 54.714836 48.545602 
L 54.78326 48.683372 
L 54.808142 48.300219 
L 54.826804 48.587333 
L 54.941882 48.192222 
L 54.851685 48.630989 
L 54.948102 48.358796 
L 54.994755 48.657369 
L 54.966763 48.271941 
L 55.05696 48.486065 
L 55.140936 48.233585 
L 55.153377 48.701136 
L 55.162707 48.605917 
L 55.165818 48.619272 
L 55.178258 48.297233 
L 55.20314 48.407079 
L 55.20625 48.120865 
L 55.252904 48.681143 
L 55.311998 48.532995 
L 55.395974 48.646806 
L 55.371092 48.230034 
L 55.417745 48.572861 
L 55.523493 48.339692 
L 55.448848 48.657683 
L 55.529713 48.483873 
L 55.560816 48.662391 
L 55.545264 48.211905 
L 55.635461 48.367929 
L 55.672783 48.700896 
L 55.756759 48.576567 
L 55.75987 48.573979 
L 55.822074 48.085905 
L 55.797192 48.657091 
L 55.871838 48.451918 
L 55.90294 48.191124 
L 55.924711 48.69052 
L 55.965144 48.526338 
L 55.968254 48.658251 
L 56.04912 48.131527 
L 56.074002 48.514133 
L 56.145537 48.088718 
L 56.108214 48.642239 
L 56.18286 48.365925 
L 56.276166 48.673541 
L 56.201521 48.310875 
L 56.294827 48.490329 
L 56.316599 48.657593 
L 56.369473 48.0173 
L 56.403685 48.463401 
L 56.447228 48.061045 
L 56.419236 48.6544 
L 56.518763 48.20595 
L 56.630731 48.630308 
L 56.534314 48.154452 
L 56.636952 48.445776 
L 56.730258 48.329169 
L 56.664944 48.66454 
L 56.745809 48.476881 
L 56.789352 48.667357 
L 56.817344 48.246175 
L 56.848447 48.430874 
L 56.860887 48.266912 
L 56.90132 48.680591 
L 56.935533 48.588766 
L 57.025729 48.644289 
L 56.972855 48.425701 
L 57.03195 48.531103 
L 57.119036 48.356489 
L 57.066162 48.694619 
L 57.143918 48.488874 
L 57.168799 48.664109 
L 57.206122 48.245218 
L 57.249665 48.369506 
L 57.252775 48.365853 
L 57.358523 48.681722 
L 57.32742 48.281085 
L 57.364743 48.592399 
L 57.383404 48.627928 
L 57.380294 48.516603 
L 57.389625 48.576446 
L 57.402066 48.258796 
L 57.439388 48.644841 
L 57.501593 48.497776 
L 57.520254 48.669724 
L 57.573128 48.317839 
L 57.60734 48.407839 
L 57.675765 48.264015 
L 57.691316 48.678757 
L 57.706867 48.593795 
L 57.840607 48.228388 
L 57.719308 48.667657 
L 57.843717 48.334386 
L 57.865489 48.671031 
L 57.877929 48.234171 
L 57.955685 48.506069 
L 58.008559 48.658917 
L 57.971236 48.172181 
L 58.052102 48.330076 
L 58.136078 48.221484 
L 58.120527 48.67794 
L 58.151629 48.602272 
L 58.213833 48.277399 
L 58.257376 48.693018 
L 58.30714 47.826041 
L 58.378675 48.220391 
L 58.403557 48.67902 
L 58.462651 48.206424 
L 58.496863 48.516734 
L 58.5995 48.176671 
L 58.506194 48.641986 
L 58.611941 48.354718 
L 58.618162 48.687532 
L 58.692807 48.061452 
L 58.720799 48.329055 
L 58.779893 48.664733 
L 58.758122 47.983642 
L 58.820326 48.37629 
L 58.823436 48.255443 
L 58.919853 48.634056 
L 58.922963 48.587864 
L 59.028711 48.663326 
L 59.01938 48.374177 
L 59.034931 48.605683 
L 59.115797 48.263301 
L 59.050482 48.653357 
L 59.143789 48.64634 
L 59.218434 48.278223 
L 59.265088 48.374087 
L 59.283749 48.671285 
L 59.367725 48.340887 
L 59.383276 48.662928 
L 59.464142 48.308952 
L 59.405047 48.67279 
L 59.495244 48.367497 
L 59.538787 48.686491 
L 59.507685 48.322567 
L 59.607212 48.507849 
L 59.628983 48.303047 
L 59.641424 48.691652 
L 59.712959 48.562734 
L 59.768943 48.671961 
L 59.796935 48.28627 
L 59.815597 48.520222 
L 59.852919 48.155793 
L 59.874691 48.675623 
L 59.921344 48.500204 
L 60.014651 48.674404 
L 59.958667 48.305782 
L 60.030202 48.608909 
L 60.129729 48.051602 
L 60.048863 48.628323 
L 60.14217 48.439091 
L 60.210594 48.694044 
L 60.191933 48.27911 
L 60.254138 48.553279 
L 60.350554 48.254717 
L 60.331893 48.639816 
L 60.366105 48.427996 
L 60.422089 48.672278 
L 60.468743 48.270431 
L 60.474963 48.605132 
L 60.524727 48.15292 
L 60.540278 48.642563 
L 60.590041 48.333027 
L 60.605592 48.281279 
L 60.630474 48.689415 
L 60.652246 48.612145 
L 60.655356 48.694041 
L 60.705119 48.212042 
L 60.754883 48.410639 
L 60.792206 48.678604 
L 60.838859 48.351552 
L 60.84819 48.525706 
L 60.944606 48.292604 
L 60.885512 48.672286 
L 60.957047 48.306511 
L 60.99126 48.662542 
L 61.062795 48.272788 
L 61.069015 48.58517 
L 61.097007 48.165221 
L 61.165432 48.69409 
L 61.177873 48.494945 
L 61.258739 48.655832 
L 61.212085 48.24212 
L 61.28362 48.477636 
L 61.286731 48.351532 
L 61.342715 48.697693 
L 61.392478 48.399903 
L 61.482674 48.690589 
L 61.41736 48.303073 
L 61.507556 48.527926 
L 61.529328 48.371871 
L 61.603973 48.670362 
L 61.613304 48.550636 
L 61.638185 48.315115 
L 61.722161 48.68167 
L 61.824799 48.390884 
L 61.765705 48.69472 
L 61.834129 48.583728 
L 61.84657 48.217342 
L 61.855901 48.666141 
L 61.942987 48.54648 
L 62.036294 48.692188 
L 62.008302 48.287554 
L 62.051845 48.523992 
L 62.073616 48.644334 
L 62.082947 48.376597 
L 62.095388 48.612455 
L 62.185584 48.338845 
L 62.154482 48.646686 
L 62.207356 48.411288 
L 62.254009 48.658805 
L 62.294442 48.311108 
L 62.319324 48.590103 
L 62.384638 48.225102 
L 62.375308 48.685242 
L 62.428181 48.539084 
L 62.527708 48.696637 
L 62.477945 48.248048 
L 62.540149 48.646178 
L 62.642787 48.25268 
L 62.655227 48.416625 
L 62.69566 48.67391 
L 62.714322 48.271738 
L 62.764085 48.530291 
L 62.767195 48.171181 
L 62.841841 48.693105 
L 62.872943 48.523491 
L 62.876053 48.517226 
L 62.944478 48.162417 
L 62.919596 48.645441 
L 62.984911 48.467594 
L 62.994241 48.418329 
L 63.000462 48.536152 
L 63.059556 48.167954 
L 63.081328 48.654495 
L 63.10932 48.614763 
L 63.127981 48.644358 
L 63.12176 48.359747 
L 63.149752 48.542581 
L 63.152863 48.304109 
L 63.162193 48.654929 
L 63.26172 48.420047 
L 63.358137 48.642973 
L 63.302153 48.310824 
L 63.370578 48.49588 
L 63.454554 48.263888 
L 63.414121 48.658577 
L 63.473215 48.49613 
L 63.476326 48.662852 
L 63.526089 48.273828 
L 63.582073 48.533114 
L 63.644277 48.40214 
L 63.650498 48.645973 
L 63.666049 48.620125 
L 63.697151 48.686951 
L 63.68471 48.257165 
L 63.771796 48.630341 
L 63.849552 48.309099 
L 63.843332 48.67877 
L 63.880654 48.461708 
L 63.889985 48.662067 
L 63.942859 48.295513 
L 63.992622 48.539972 
L 64.067267 48.680768 
L 64.005063 48.351061 
L 64.10459 48.628621 
L 64.169905 48.458379 
L 64.151243 48.683292 
L 64.222778 48.484343 
L 64.253881 48.696555 
L 64.281873 48.258785 
L 64.331636 48.66774 
L 64.431163 48.267443 
L 64.446714 48.426273 
L 64.480927 48.672985 
L 64.5338 48.303249 
L 64.561792 48.660608 
L 64.642658 48.427001 
L 64.608446 48.686693 
L 64.67065 48.636792 
L 64.770177 48.291673 
L 64.732854 48.675346 
L 64.785728 48.546327 
L 64.788838 48.654061 
L 64.857263 48.238669 
L 64.891476 48.620859 
L 64.94746 48.245837 
L 64.903917 48.683967 
L 65.000333 48.449591 
L 65.003444 48.671452 
L 65.065648 48.390134 
L 65.109191 48.403188 
L 65.218049 48.185838 
L 65.152734 48.629479 
L 65.224269 48.258324 
L 65.305135 48.66614 
L 65.348678 48.516271 
L 65.423323 47.978241 
L 65.364229 48.618406 
L 65.460646 48.405962 
L 65.51352 48.656147 
L 65.544622 48.337127 
L 65.560173 48.44574 
L 65.66281 48.193529 
L 65.578834 48.660501 
L 65.66592 48.436362 
L 65.675251 48.691066 
L 65.756117 48.346841 
L 65.777888 48.626987 
L 65.824542 48.235423 
L 65.787219 48.691143 
L 65.883636 48.575054 
L 65.886746 48.693175 
L 65.927179 48.360892 
L 65.992494 48.624802 
L 66.001824 48.319204 
L 66.070249 48.662025 
L 66.104461 48.580325 
L 66.175997 48.349386 
L 66.166666 48.674784 
L 66.213319 48.532999 
L 66.253752 48.682711 
L 66.309736 48.306021 
L 66.315956 48.512797 
L 66.328397 48.306399 
L 66.415483 48.685722 
L 66.424814 48.529736 
L 66.50257 48.402089 
L 66.5119 48.68956 
L 66.527451 48.564472 
L 66.530562 48.679569 
L 66.543003 48.342372 
L 66.636309 48.66508 
L 66.707844 48.695683 
L 66.757608 48.229131 
L 66.875796 48.69665 
L 66.959772 48.380311 
L 66.990874 48.461927 
L 67.009536 48.202192 
L 67.07174 48.695528 
L 67.099732 48.325497 
L 67.196149 48.670348 
L 67.2117 48.637547 
L 67.21792 48.236429 
L 67.280125 48.664134 
L 67.323668 48.558518 
L 67.329888 48.684851 
L 67.35166 48.465172 
L 67.401423 48.530038 
L 67.404533 48.403401 
L 67.507171 48.670209 
L 67.510281 48.458692 
L 67.581816 48.66635 
L 67.544493 48.312043 
L 67.619139 48.43648 
L 67.709335 48.235831 
L 67.684453 48.702189 
L 67.727996 48.479996 
L 67.731107 48.478865 
L 67.734217 48.522679 
L 67.737327 48.231118 
L 67.802642 48.664327 
L 67.843074 48.381371 
L 67.864846 48.688418 
L 67.908389 48.156636 
L 67.955042 48.498166 
L 68.045239 48.224263 
L 68.070121 48.667652 
L 68.098113 48.276412 
L 68.147876 48.687162 
L 68.185199 48.525171 
L 68.19764 48.676329 
L 68.262954 48.381354 
L 68.284726 48.406488 
L 68.287836 48.177652 
L 68.374922 48.685227 
L 68.393583 48.317543 
L 68.455788 48.678625 
L 68.521102 48.603803 
L 68.524213 48.604615 
L 68.527323 48.50732 
L 68.580197 48.357376 
L 68.62996 48.653457 
L 68.639291 48.364226 
L 68.732597 48.680805 
L 68.664173 48.296637 
L 68.757479 48.643873 
L 68.797912 48.307124 
L 68.850786 48.696144 
L 68.866337 48.625963 
L 68.90988 48.677661 
L 68.875668 48.401263 
L 68.959643 48.580682 
L 69.040509 48.311066 
L 68.981415 48.691482 
L 69.068501 48.358639 
L 69.105824 48.639595 
L 69.077832 48.278345 
L 69.177359 48.573747 
L 69.267555 48.287218 
L 69.1898 48.608532 
L 69.286217 48.444163 
L 69.382633 48.679011 
L 69.363972 48.25718 
L 69.398185 48.532197 
L 69.500822 48.687442 
L 69.419956 48.351541 
L 69.513263 48.608372 
L 69.609679 48.364482 
L 69.519483 48.679515 
L 69.625231 48.503677 
L 69.721647 48.689356 
L 69.706096 48.242433 
L 69.737199 48.53647 
L 69.780742 48.679619 
L 69.811844 48.424744 
L 69.846056 48.553772 
L 69.877158 48.378179 
L 69.914481 48.687964 
L 69.933142 48.630321 
L 70.001567 48.680214 
L 69.970465 48.310085 
L 70.032669 48.571223 
L 70.063772 48.306402 
L 70.101094 48.675252 
L 70.141527 48.63241 
L 70.144637 48.638846 
L 70.147748 48.499555 
L 70.157078 48.531781 
L 70.237944 47.804719 
L 70.194401 48.607141 
L 70.269046 48.293745 
L 70.32503 48.634689 
L 70.309479 48.103522 
L 70.381014 48.427902 
L 70.384124 48.331518 
L 70.47121 48.672435 
L 70.489872 48.484138 
L 70.555186 48.668115 
L 70.511643 48.211147 
L 70.573848 48.471323 
L 70.586289 48.212398 
L 70.61117 48.657892 
L 70.679595 48.60069 
L 70.682705 48.676702 
L 70.723138 48.348059 
L 70.782232 48.551394 
L 70.869319 48.30902 
L 70.841327 48.671249 
L 70.89109 48.467024 
L 70.962625 48.648702 
L 70.922192 48.320002 
L 71.003058 48.516175 
L 71.046601 48.294534 
L 71.099475 48.677499 
L 71.115026 48.415032 
L 71.121246 48.685307 
L 71.230104 48.614004 
L 71.273647 48.363526 
L 71.289198 48.700616 
L 71.326521 48.600857 
L 71.348292 48.403097 
L 71.441599 48.695988 
L 71.506914 48.361503 
L 71.556677 48.580899 
L 71.569118 48.681149 
L 71.653094 48.331043 
L 71.665535 48.617188 
L 71.761952 48.328195 
L 71.73396 48.650192 
L 71.774393 48.558903 
L 71.836597 48.686141 
L 71.852148 48.327005 
L 71.88325 48.640818 
L 71.948565 48.225832 
L 71.905022 48.657154 
L 71.992108 48.505986 
L 72.029431 48.682176 
L 72.001439 48.403896 
L 72.104076 48.571533 
L 72.147619 48.700047 
L 72.194272 48.389154 
L 72.209823 48.564144 
L 72.231595 48.430541 
L 72.234705 48.656265 
L 72.318681 48.575645 
L 72.421318 48.672279 
L 72.340453 48.344472 
L 72.424429 48.53563 
L 72.452421 48.41045 
L 72.527066 48.687662 
L 72.533286 48.556285 
L 72.551948 48.608213 
L 72.558168 48.433957 
L 72.573719 48.451068 
L 72.679467 48.239257 
L 72.601711 48.659623 
L 72.682577 48.360197 
L 72.704348 48.630411 
L 72.757222 48.216011 
L 72.791435 48.297863 
L 72.797655 48.440015 
L 72.834978 48.681458 
L 72.819427 48.426368 
L 72.912733 48.586042 
L 72.971827 48.684715 
L 72.950056 48.334452 
L 73.018481 48.510621 
L 73.024701 48.66834 
L 73.096236 48.320393 
L 73.108677 48.419013 
L 73.198873 48.33406 
L 73.177102 48.685008 
L 73.217535 48.380716 
L 73.320172 48.671308 
L 73.261078 48.305663 
L 73.329503 48.515318 
L 73.366825 48.344831 
L 73.357495 48.685894 
L 73.43836 48.585904 
L 73.506785 48.393265 
L 73.547218 48.689455 
L 73.57521 48.413259 
L 73.656076 48.587781 
L 73.687178 48.694935 
L 73.665406 48.433782 
L 73.761823 48.582197 
L 73.839579 48.343571 
L 73.814697 48.682222 
L 73.870681 48.563936 
L 73.973318 48.659559 
L 73.892452 48.416057 
L 73.979539 48.619661 
L 74.082176 48.407062 
L 74.038633 48.650042 
L 74.091507 48.447148 
L 74.175483 48.63279 
L 74.187923 48.372362 
L 74.191034 48.475486 
L 74.197254 48.336504 
L 74.219026 48.670346 
L 74.296781 48.601724 
L 74.343434 48.196385 
L 74.377647 48.687054 
L 74.414969 48.55563 
L 74.526937 48.671443 
L 74.498945 48.282284 
L 74.530048 48.605909 
L 74.533158 48.42116 
L 74.620244 48.66948 
L 74.642016 48.489587 
L 74.735322 48.668729 
L 74.651346 48.419817 
L 74.753983 48.547887 
L 74.797527 48.322811 
L 74.760204 48.664074 
L 74.859731 48.371945 
L 74.956148 48.69503 
L 74.925046 48.246517 
L 74.971699 48.476079 
L 75.033903 48.1853 
L 74.98725 48.670836 
L 75.071226 48.604833 
L 75.083667 48.654849 
L 75.108549 48.192061 
L 75.142761 48.303175 
L 75.186304 48.040055 
L 75.164532 48.638886 
L 75.239178 48.505299 
L 75.248508 48.681442 
L 75.288941 48.178195 
L 75.348035 48.615324 
L 75.441342 48.254736 
L 75.360476 48.672285 
L 75.460003 48.526142 
L 75.519098 48.635616 
L 75.525318 48.340398 
L 75.534649 48.357969 
L 75.537759 48.220118 
L 75.55331 48.689708 
L 75.637286 48.475198 
L 75.640396 48.697004 
L 75.687049 48.314823 
L 75.746144 48.508234 
L 75.758585 48.3614 
L 75.827009 48.690763 
L 75.858112 48.452619 
L 75.929647 48.674539 
L 75.879883 48.359331 
L 75.97319 48.523602 
L 76.041615 48.354733 
L 76.016733 48.654545 
L 76.082047 48.571352 
L 76.134921 48.67938 
L 76.169134 48.387391 
L 76.197126 48.630584 
L 76.271771 48.330693 
L 76.290432 48.664424 
L 76.312204 48.509044 
L 76.358857 48.679734 
L 76.355747 48.408722 
L 76.424172 48.615873 
L 76.458384 48.244159 
L 76.489486 48.684952 
L 76.53614 48.596642 
L 76.629446 48.387303 
L 76.573462 48.683405 
L 76.654328 48.467283 
L 76.710312 48.690254 
L 76.725863 48.223985 
L 76.763186 48.528831 
L 76.775626 48.36883 
L 76.81917 48.680298 
L 76.872043 48.522782 
L 76.974681 48.302967 
L 76.924917 48.687943 
L 76.984011 48.318267 
L 77.046216 48.676089 
L 77.095979 48.660715 
L 77.173735 48.317624 
L 77.195506 48.67522 
L 77.207947 48.557476 
L 77.226608 48.228724 
L 77.24527 48.670258 
L 77.316805 48.615938 
L 77.319915 48.656232 
L 77.379009 48.3354 
L 77.419442 48.599496 
L 77.515859 48.220779 
L 77.456765 48.672345 
L 77.53452 48.467048 
L 77.609165 48.675553 
L 77.627827 48.33031 
L 77.646488 48.599417 
L 77.746015 48.345223 
L 77.714913 48.624673 
L 77.755346 48.510855 
L 77.839322 48.648868 
L 77.786448 48.298585 
L 77.861093 48.473771 
L 77.895306 48.304806 
L 77.9544 48.670731 
L 77.963731 48.493084 
L 78.016604 48.645031 
L 77.982392 48.17168 
L 78.072588 48.417849 
L 78.078809 48.249674 
L 78.09125 48.631041 
L 78.172115 48.481322 
L 78.184556 48.68996 
L 78.259201 48.352518 
L 78.277863 48.411907 
L 78.327626 48.270183 
L 78.37428 48.665452 
L 78.38672 48.430515 
L 78.467586 48.691708 
L 78.483137 48.387919 
L 78.52357 48.539405 
L 78.613767 48.356646 
L 78.542231 48.660848 
L 78.635538 48.368025 
L 78.654199 48.672303 
L 78.750616 48.642127 
L 78.840813 48.676995 
L 78.769278 48.373278 
L 78.847033 48.596921 
L 78.94034 48.408275 
L 78.890576 48.641332 
L 78.955891 48.53629 
L 79.033646 48.66877 
L 78.977662 48.405623 
L 79.061638 48.497655 
L 79.154945 48.37073 
L 79.09274 48.700194 
L 79.164275 48.416258 
L 79.251362 48.698276 
L 79.204708 48.382958 
L 79.276243 48.544792 
L 79.335338 48.665718 
L 79.37577 48.351645 
L 79.378881 48.423777 
L 79.381991 48.326766 
L 79.469077 48.659851 
L 79.484628 48.450574 
L 79.528171 48.690044 
L 79.493959 48.418373 
L 79.599706 48.635156 
L 79.637029 48.224894 
L 79.708564 48.686074 
L 79.711674 48.574109 
L 79.811201 48.378441 
L 79.786319 48.69534 
L 79.823642 48.485408 
L 79.851634 48.394277 
L 79.829863 48.639559 
L 79.920059 48.548006 
L 80.019586 48.672201 
L 80.004035 48.367685 
L 80.028917 48.619451 
L 80.053798 48.11344 
L 80.131554 48.636085 
L 80.143995 48.19686 
L 80.249742 48.672747 
L 80.252852 48.542651 
L 80.271514 48.067164 
L 80.296396 48.663441 
L 80.36482 48.107248 
L 80.389702 48.656678 
L 80.483009 48.476048 
L 80.548323 48.656944 
L 80.598087 48.243688 
L 80.734937 48.681991 
L 80.78159 48.567557 
L 80.853125 48.215409 
L 80.78781 48.695904 
L 80.899778 48.400831 
L 80.933991 48.673103 
L 80.989975 48.366919 
L 81.011746 48.502023 
L 81.06151 48.682162 
L 81.117494 48.378185 
L 81.254343 48.692849 
L 81.257454 48.568229 
L 81.332099 48.360861 
L 81.307217 48.684629 
L 81.366311 48.5531 
L 81.459618 48.679682 
L 81.437846 48.414094 
L 81.475169 48.622003 
L 81.496941 48.364291 
L 81.549814 48.664903 
L 81.584027 48.517796 
L 81.677333 48.668735 
L 81.655562 48.404073 
L 81.695995 48.617444 
L 81.77375 48.306715 
L 81.733317 48.664645 
L 81.807963 48.592022 
L 81.857726 48.297315 
L 81.839065 48.678756 
L 81.91993 48.52249 
L 81.938592 48.657696 
L 81.966584 48.259571 
L 82.025678 48.474886 
L 82.063001 48.587236 
L 82.081662 48.253235 
L 82.146977 48.693657 
L 82.19363 48.503509 
L 82.240283 48.245513 
L 82.308708 48.672383 
L 82.321149 48.274343 
L 82.358471 48.673267 
L 82.417566 48.614689 
L 82.420676 48.691129 
L 82.461109 48.315691 
L 82.517093 48.458145 
L 82.532644 48.268142 
L 82.61662 48.678642 
L 82.629061 48.38462 
L 82.728588 48.629781 
L 82.709926 48.281805 
L 82.747249 48.62359 
L 82.75658 48.53206 
L 82.76591 48.359358 
L 82.849886 48.64319 
L 82.868548 48.423852 
L 82.943193 48.686868 
L 82.893429 48.259422 
L 82.980515 48.503216 
L 83.052051 48.364111 
L 83.064491 48.684934 
L 83.086263 48.481298 
L 83.129806 48.654793 
L 83.139137 48.257961 
L 83.195121 48.616202 
L 83.285317 48.334805 
L 83.210672 48.667328 
L 83.307089 48.415411 
L 83.313309 48.350067 
L 83.335081 48.558671 
L 83.378624 48.701661 
L 83.428387 48.329729 
L 83.437718 48.450076 
L 83.531024 48.285405 
L 83.487481 48.669986 
L 83.546576 48.561616 
L 83.639882 48.697791 
L 83.60878 48.386075 
L 83.652323 48.54272 
L 83.670984 48.341602 
L 83.683425 48.689131 
L 83.761181 48.463427 
L 83.801614 48.690932 
L 83.782952 48.444522 
L 83.873149 48.647465 
L 83.960235 48.41144 
L 83.913581 48.672136 
L 83.985117 48.486117 
L 84.03488 48.695744 
L 84.078423 48.286478 
L 84.093974 48.542363 
L 84.196612 48.353245 
L 84.149958 48.669842 
L 84.205942 48.411416 
L 84.209052 48.663371 
L 84.221493 48.401348 
L 84.3148 48.577186 
L 84.358343 48.327746 
L 84.333461 48.663336 
L 84.423658 48.573645 
L 84.476531 48.676666 
L 84.504523 48.351584 
L 84.529405 48.622267 
L 84.60094 48.221415 
L 84.572948 48.668983 
L 84.641373 48.45703 
L 84.678696 48.686911 
L 84.731569 48.403936 
L 84.753341 48.607136 
L 84.787553 48.442009 
L 84.852868 48.684591 
L 84.865309 48.463723 
L 84.952395 48.695261 
L 84.915072 48.351622 
L 84.977277 48.665254 
L 85.055032 48.42511 
L 85.095465 48.615003 
L 85.179441 48.693936 
L 85.114126 48.447307 
L 85.204323 48.622032 
L 85.269637 48.102455 
L 85.226094 48.68196 
L 85.316291 48.415999 
L 85.344283 48.176039 
L 85.366054 48.626239 
L 85.415818 48.515136 
L 85.44692 48.667707 
L 85.474912 48.242278 
L 85.530896 48.599386 
L 85.596211 48.666063 
L 85.546447 48.36327 
L 85.627313 48.560127 
L 85.661525 48.264719 
L 85.633533 48.671427 
L 85.73617 48.588895 
L 85.798375 48.627695 
L 85.785934 48.362956 
L 85.807706 48.446195 
L 85.813926 48.290756 
L 85.863689 48.678196 
L 85.919673 48.377911 
L 85.956996 48.683244 
L 86.031641 48.635528 
L 86.124948 48.36708 
L 86.134279 48.689881 
L 86.140499 48.542538 
L 86.221365 48.67789 
L 86.171601 48.280574 
L 86.249357 48.539716 
L 86.252467 48.440756 
L 86.29912 48.684733 
L 86.355104 48.580094 
L 86.392427 48.70037 
L 86.398647 48.343373 
L 86.467072 48.662254 
L 86.488844 48.389321 
L 86.554158 48.692085 
L 86.57904 48.544747 
L 86.622583 48.689736 
L 86.638134 48.437487 
L 86.687898 48.587581 
L 86.768764 48.442497 
L 86.694118 48.691149 
L 86.796755 48.479333 
L 86.896283 48.684463 
L 86.812307 48.282943 
L 86.908723 48.653594 
L 86.961597 48.408259 
L 86.921164 48.668406 
L 87.023802 48.474522 
L 87.058014 48.656896 
L 87.101557 48.306183 
L 87.113998 48.469058 
L 87.117108 48.199932 
L 87.182423 48.692568 
L 87.219745 48.636565 
L 87.222856 48.697893 
L 87.260178 48.33271 
L 87.322383 48.647479 
L 87.334824 48.235585 
L 87.437461 48.479187 
L 87.546319 48.688707 
L 87.449902 48.348835 
L 87.549429 48.589176 
L 87.636515 48.370673 
L 87.627184 48.69666 
L 87.658286 48.531621 
L 87.661397 48.683202 
L 87.745373 48.254352 
L 87.767144 48.539211 
L 87.857341 48.28043 
L 87.798246 48.696573 
L 87.885333 48.480256 
L 87.963088 48.676842 
L 87.894663 48.386574 
L 87.99419 48.507764 
L 88.012852 48.675416 
L 88.009741 48.352536 
L 88.096827 48.513048 
L 88.109268 48.310645 
L 88.162142 48.700407 
L 88.202575 48.572762 
L 88.28033 48.682143 
L 88.239898 48.339783 
L 88.314543 48.648612 
L 88.364306 48.379446 
L 88.386078 48.68099 
L 88.426511 48.539847 
L 88.429621 48.680985 
L 88.466944 48.227682 
L 88.535368 48.672325 
L 88.55092 48.233629 
L 88.575801 48.681567 
L 88.647336 48.579581 
L 88.737533 48.675475 
L 88.728202 48.283397 
L 88.746863 48.498595 
L 88.846391 48.318988 
L 88.812178 48.66885 
L 88.855721 48.474113 
L 88.899264 48.679273 
L 88.942807 48.332819 
L 88.964579 48.503628 
L 89.070326 48.680452 
L 89.001902 48.365781 
L 89.076547 48.584335 
L 89.169853 48.369419 
L 89.141861 48.684013 
L 89.188515 48.515311 
L 89.197845 48.689804 
L 89.291152 48.416071 
L 89.300483 48.635194 
L 89.381348 48.417083 
L 89.309813 48.682492 
L 89.40934 48.588802 
L 89.428002 48.698208 
L 89.471545 48.399893 
L 89.518198 48.671336 
L 89.611505 48.407399 
L 89.567962 48.693275 
L 89.630166 48.612739 
L 89.729693 48.394763 
L 89.645717 48.688442 
L 89.742134 48.423894 
L 89.801228 48.277844 
L 89.854102 48.671374 
L 89.875873 48.357051 
L 89.96918 48.49121 
L 90.003392 48.686227 
L 90.040715 48.281844 
L 90.078038 48.545471 
L 90.152683 48.406867 
L 90.143352 48.670485 
L 90.183785 48.641573 
L 90.186895 48.658579 
L 90.199336 48.346519 
L 90.264651 48.51293 
L 90.333076 48.409003 
L 90.326855 48.652107 
L 90.367288 48.593952 
L 90.370398 48.699817 
L 90.454374 48.337949 
L 90.476146 48.531642 
L 90.560122 48.625269 
L 90.569452 48.354799 
L 90.578783 48.404266 
L 90.609885 48.398977 
L 90.606775 48.521524 
L 90.612995 48.467989 
L 90.67831 48.666894 
L 90.644098 48.334766 
L 90.728074 48.646254 
L 90.790278 48.317397 
L 90.737404 48.689781 
L 90.840042 48.483661 
L 90.846262 48.686264 
L 90.942679 48.411716 
L 90.952009 48.566436 
L 91.029765 48.351232 
L 90.967561 48.664361 
L 91.060867 48.572361 
L 91.085749 48.696577 
L 91.1013 48.347325 
L 91.169725 48.556449 
L 91.272362 48.286963 
L 91.263031 48.669039 
L 91.281693 48.325359 
L 91.291023 48.682546 
L 91.315905 48.322139 
L 91.396771 48.671821 
L 91.505629 48.327923 
L 91.486967 48.691465 
L 91.514959 48.538349 
L 91.5274 48.684467 
L 91.567833 48.409158 
L 91.623817 48.573269 
L 91.723344 48.373181 
L 91.701573 48.661892 
L 91.735785 48.533516 
L 91.782438 48.675714 
L 91.81043 48.385728 
L 91.841532 48.48826 
L 91.844643 48.383329 
L 91.891296 48.689504 
L 91.94728 48.541467 
L 91.972162 48.669842 
L 91.993933 48.474446 
L 92.062358 48.66362 
L 92.115232 48.438709 
L 92.081019 48.69548 
L 92.177436 48.544432 
L 92.214759 48.666836 
L 92.192987 48.344018 
L 92.286294 48.533479 
L 92.364049 48.443612 
L 92.301845 48.664222 
L 92.36716 48.470042 
L 92.416923 48.662545 
L 92.463576 48.346695 
L 92.476017 48.416058 
L 92.575544 48.66936 
L 92.556883 48.399161 
L 92.603536 48.548271 
L 92.622198 48.358573 
L 92.6533 48.66947 
L 92.706174 48.475159 
L 92.808811 48.69111 
L 92.774598 48.432344 
L 92.818142 48.560747 
L 92.905228 48.686962 
L 92.867905 48.38364 
L 92.93322 48.632467 
L 92.998534 48.362739 
L 92.94255 48.648852 
L 93.048298 48.52276 
L 93.138494 48.402543 
L 93.101172 48.69789 
L 93.150935 48.498119 
L 93.188258 48.694667 
L 93.21625 48.345474 
L 93.259793 48.402694 
L 93.275344 48.68834 
L 93.312666 48.369693 
L 93.374871 48.499291 
L 93.381091 48.684877 
L 93.415304 48.293648 
L 93.483729 48.536396 
L 93.489949 48.333648 
L 93.50239 48.67203 
L 93.592586 48.558123 
L 93.623689 48.69024 
L 93.670342 48.309116 
L 93.701444 48.464245 
L 93.754318 48.385566 
L 93.78542 48.676584 
L 93.800971 48.555327 
L 93.828963 48.660978 
L 93.860065 48.310786 
L 93.900498 48.550318 
L 93.996915 48.418632 
L 93.940931 48.70297 
L 94.006246 48.549224 
L 94.056009 48.681565 
L 94.111993 48.410397 
L 94.115103 48.295481 
L 94.180418 48.653243 
L 94.217741 48.563339 
L 94.311047 48.353644 
L 94.242622 48.696307 
L 94.323488 48.611081 
L 94.404354 48.686555 
L 94.3577 48.389989 
L 94.432346 48.662587 
L 94.475889 48.350661 
L 94.485219 48.687303 
L 94.544314 48.503574 
L 94.650061 48.691358 
L 94.584746 48.450341 
L 94.656282 48.651235 
L 94.662502 48.425639 
L 94.684274 48.664634 
L 94.702935 48.608356 
" clip-path="url(#pe42a2459d4)" style="fill: none; stroke: #e377c2; stroke-width: 0.5; stroke-linecap: square"/>
   </g>
  </g>
 </g>
 <defs>
  <clipPath id="pe42a2459d4">
   <rect x="0" y="-0" width="99.212598" height="51.023622"/>
  </clipPath>
 </defs>
</svg>
