<?xml version="1.0" encoding="utf-8" standalone="no"?>
<!DOCTYPE svg PUBLIC "-//W3C//DTD SVG 1.1//EN"
  "http://www.w3.org/Graphics/SVG/1.1/DTD/svg11.dtd">
<svg xmlns:xlink="http://www.w3.org/1999/xlink" width="99.212598pt" height="51.023622pt" viewBox="0 0 99.212598 51.023622" xmlns="http://www.w3.org/2000/svg" version="1.1">
 <metadata>
  <rdf:RDF xmlns:dc="http://purl.org/dc/elements/1.1/" xmlns:cc="http://creativecommons.org/ns#" xmlns:rdf="http://www.w3.org/1999/02/22-rdf-syntax-ns#">
   <cc:Work>
    <dc:type rdf:resource="http://purl.org/dc/dcmitype/StillImage"/>
    <dc:date>2024-10-30T10:51:12.679453</dc:date>
    <dc:format>image/svg+xml</dc:format>
    <dc:creator>
     <cc:Agent>
      <dc:title>Matplotlib v3.8.4, https://matplotlib.org/</dc:title>
     </cc:Agent>
    </dc:creator>
   </cc:Work>
  </rdf:RDF>
 </metadata>
 <defs>
  <style type="text/css">*{stroke-linejoin: round; stroke-linecap: butt}</style>
 </defs>
 <g id="figure_1">
  <g id="patch_1">
   <path d="M 0 51.023622 
L 99.212598 51.023622 
L 99.212598 0 
L 0 0 
L 0 51.023622 
z
" style="fill: none"/>
  </g>
  <g id="axes_1">
   <g id="patch_2">
    <path d="M 0 51.023622 
L 99.212598 51.023622 
L 99.212598 -0 
L 0 -0 
L 0 51.023622 
z
" style="fill: none"/>
   </g>
   <g id="matplotlib.axis_1">
    <g id="xtick_1"/>
    <g id="xtick_2"/>
   </g>
   <g id="matplotlib.axis_2">
    <g id="ytick_1"/>
    <g id="ytick_2"/>
   </g>
   <g id="line2d_1">
    <path d="M 4.509664 18.893886 
L 4.512774 19.79322 
L 4.584309 14.809598 
L 4.609191 15.598109 
L 4.708718 26.601257 
L 4.758481 33.393306 
L 4.802024 24.230591 
L 4.830016 18.559235 
L 4.87978 33.439589 
L 4.901551 43.319699 
L 4.963756 18.505097 
L 5.035291 2.319256 
L 5.085054 14.335462 
L 5.246786 36.537233 
L 5.299659 47.565385 
L 5.380525 41.123761 
L 5.427178 38.169258 
L 5.480052 41.894559 
L 5.492493 42.397033 
L 5.548477 37.196024 
L 5.554698 37.584589 
L 5.72887 45.957017 
L 5.747531 43.601627 
L 5.791074 38.961211 
L 5.853279 44.376392 
L 5.856389 44.628901 
L 5.921703 42.09852 
L 5.968357 29.292816 
L 6.030561 41.800013 
L 6.036782 42.015076 
L 6.061663 38.881183 
L 6.114537 30.255198 
L 6.201623 33.850753 
L 6.332253 45.956435 
L 6.357134 41.925239 
L 6.406898 39.069672 
L 6.465992 42.111849 
L 6.478433 42.219526 
L 6.475323 42.065005 
L 6.487764 42.113748 
L 6.500204 41.747056 
L 6.562409 44.99155 
L 6.605952 47.723272 
L 6.652605 44.12184 
L 6.674377 42.516849 
L 6.71481 47.491181 
L 6.752132 45.635319 
L 6.767683 45.960375 
L 6.783234 44.510701 
L 6.801896 42.583274 
L 6.842329 47.039063 
L 6.892092 44.800485 
L 6.960517 41.495812 
L 7.01028 44.49549 
L 7.041383 45.340631 
L 7.094256 42.64622 
L 7.097367 42.702859 
L 7.116028 42.349456 
L 7.15024 43.779663 
L 7.187563 47.118784 
L 7.268429 44.473739 
L 7.343074 43.495497 
L 7.374176 44.367064 
L 7.402168 47.422369 
L 7.436381 44.176105 
L 7.489254 45.151065 
L 7.532797 41.438934 
L 7.613663 43.407876 
L 7.669647 43.938326 
L 7.635435 42.282776 
L 7.691419 42.779587 
L 7.700749 42.308523 
L 7.738072 44.917952 
L 7.769174 44.343492 
L 7.790946 45.459853 
L 7.871811 43.891609 
L 7.881142 43.724994 
L 7.899803 45.389888 
L 7.974449 47.992011 
L 7.99933 43.291944 
L 8.011771 41.949093 
L 8.073976 47.911721 
L 8.077086 47.982502 
L 8.095747 46.168536 
L 8.126849 43.917865 
L 8.213936 45.005913 
L 8.316573 47.39808 
L 8.332124 46.092727 
L 8.353896 44.574791 
L 8.388108 47.156038 
L 8.434761 46.344351 
L 8.453423 48.122466 
L 8.500076 43.97904 
L 8.521847 44.49288 
L 8.546729 42.27633 
L 8.587162 47.623903 
L 8.627595 44.855485 
L 8.69602 48.342668 
L 8.748893 45.831764 
L 8.776885 46.656337 
L 8.826649 44.093174 
L 8.829759 44.105763 
L 8.857751 42.566454 
L 8.898184 46.143877 
L 8.916845 47.086633 
L 8.97905 44.520942 
L 9.003932 45.643876 
L 9.047475 48.149653 
L 9.097238 44.929336 
L 9.112789 44.420122 
L 9.140781 46.961344 
L 9.159443 48.120079 
L 9.243418 46.550773 
L 9.26208 46.206934 
L 9.283851 47.216064 
L 9.349166 46.872938 
L 9.380268 48.680197 
L 9.451803 46.755322 
L 9.482905 43.396864 
L 9.529559 48.092872 
L 9.560661 46.849716 
L 9.579322 48.497551 
L 9.610424 44.940039 
L 9.641527 45.229347 
L 9.663298 42.731358 
L 9.728613 48.071738 
L 9.731723 47.922913 
L 9.759715 45.957253 
L 9.840581 47.886817 
L 9.902785 48.510173 
L 9.862352 47.49422 
L 9.936998 47.613274 
L 9.949438 46.965916 
L 9.97743 48.617974 
L 10.048965 47.532713 
L 10.136052 47.092577 
L 10.086288 48.202451 
L 10.154713 47.646957 
L 10.164044 48.638136 
L 10.201366 46.953448 
L 10.272901 48.33249 
L 10.307114 46.5982 
L 10.338216 48.3701 
L 10.409751 46.869973 
L 10.422192 47.28665 
L 10.450184 45.581136 
L 10.487507 46.24966 
L 10.506168 44.64247 
L 10.53416 48.51121 
L 10.590144 47.378481 
L 10.664789 43.977693 
L 10.624356 47.901719 
L 10.695891 47.214348 
L 10.726993 47.79656 
L 10.758096 46.138856 
L 10.804749 47.060877 
L 10.891835 45.726305 
L 10.835851 47.673837 
L 10.926048 46.742656 
L 10.947819 47.793512 
L 10.991362 45.593993 
L 11.109551 44.15539 
L 11.056677 48.481623 
L 11.118881 44.190326 
L 11.289943 48.119311 
L 11.293053 48.254425 
L 11.345927 45.921979 
L 11.349037 45.966907 
L 11.352148 45.973181 
L 11.398801 48.142808 
L 11.445454 45.295558 
L 11.473446 47.165319 
L 11.582304 48.395643 
L 11.492108 46.458347 
L 11.594745 47.660061 
L 11.656949 45.986321 
L 11.691162 48.379449 
L 11.700492 48.164102 
L 11.828011 44.769182 
L 11.852893 46.572951 
L 11.868444 48.557477 
L 11.958641 46.539807 
L 11.961751 46.595854 
L 12.023955 45.656017 
L 11.989743 47.43203 
L 12.08927 45.937522 
L 12.09238 45.916151 
L 12.107931 46.363801 
L 12.23545 47.726227 
L 12.23856 47.690775 
L 12.247891 48.110042 
L 12.300765 47.970176 
L 12.306985 48.460757 
L 12.331867 46.142753 
L 12.406512 47.551237 
L 12.409622 47.516338 
L 12.428284 48.148831 
L 12.468717 48.005654 
L 12.471827 48.151791 
L 12.496709 47.326669 
L 12.571354 47.937928 
L 12.65222 46.160798 
L 12.683322 47.737531 
L 12.726865 48.582954 
L 12.776628 47.445359 
L 12.79218 47.926384 
L 12.888596 44.899824 
L 12.823282 48.394187 
L 12.916588 47.071929 
L 13.034777 48.566145 
L 12.94458 45.442919 
L 13.037887 48.414318 
L 13.068989 45.857022 
L 13.156075 47.240419 
L 13.168516 46.858764 
L 13.196508 48.339232 
L 13.243161 47.974789 
L 13.249382 48.215545 
L 13.252492 48.211926 
L 13.261823 48.437585 
L 13.292925 46.974922 
L 13.414224 45.231439 
L 13.389342 47.741182 
L 13.423554 45.687616 
L 13.460877 47.677972 
L 13.529302 45.550718 
L 13.532412 45.672408 
L 13.64127 48.334455 
L 13.684813 47.308624 
L 13.719025 46.313538 
L 13.759458 47.613829 
L 13.803001 46.547292 
L 13.899418 47.422472 
L 13.862095 46.378898 
L 13.911859 46.772157 
L 13.9243 45.799591 
L 13.989614 48.56004 
L 14.011386 47.930822 
L 14.020716 48.589198 
L 14.095362 47.505347 
L 14.120244 48.231577 
L 14.232211 46.776807 
L 14.170007 48.47376 
L 14.238432 47.066534 
L 14.328628 48.651482 
L 14.281975 46.40198 
L 14.35662 47.767252 
L 14.390833 46.230892 
L 14.481029 46.498845 
L 14.617879 48.622848 
L 14.711185 46.831424 
L 14.748508 47.525672 
L 14.764059 47.033169 
L 14.78272 48.029436 
L 14.823153 48.538536 
L 14.863586 47.863338 
L 14.891578 47.967898 
L 15.000436 47.463142 
L 14.953783 48.576909 
L 15.003546 47.549933 
L 15.031538 48.660491 
L 15.099963 46.723382 
L 15.103073 46.742358 
L 15.109294 46.571225 
L 15.131065 47.405847 
L 15.193269 47.269343 
L 15.277245 48.608151 
L 15.305237 47.310436 
L 15.364332 48.231405 
L 15.404764 47.192077 
L 15.417205 46.772728 
L 15.501181 47.681311 
L 15.510512 47.357218 
L 15.522953 48.070945 
L 15.554055 45.595516 
L 15.613149 46.983545 
L 15.650472 48.60065 
L 15.753109 48.29064 
L 15.812203 46.653382 
L 15.840195 48.445584 
L 15.858857 48.252028 
L 15.861967 48.400024 
L 15.917951 47.041405 
L 15.949053 47.382433 
L 16.0548 46.829994 
L 16.014368 48.566815 
L 16.064131 47.059028 
L 16.085903 47.567882 
L 16.110784 47.01984 
L 16.179209 47.470694 
L 16.18854 47.142001 
L 16.238303 48.588658 
L 16.275626 48.00471 
L 16.281846 48.038061 
L 16.306728 47.638484 
L 16.309838 47.682346 
L 16.33161 47.188985 
L 16.368933 48.105592 
L 16.421806 47.604845 
L 16.493341 48.536719 
L 16.452909 47.07103 
L 16.539995 47.894588 
L 16.664404 46.115427 
L 16.561766 48.33898 
L 16.673734 46.762062 
L 16.779482 48.467792 
L 16.795033 47.532488 
L 16.798143 47.485616 
L 16.819915 48.5703 
L 16.854127 48.165876 
L 16.950544 48.506946 
L 16.919442 47.142554 
L 16.962985 48.112555 
L 17.012748 47.080332 
L 17.087393 47.597421 
L 17.199361 48.199136 
L 17.140267 46.942814 
L 17.202472 47.906649 
L 17.255345 46.321626 
L 17.31444 47.844337 
L 17.333101 47.308263 
L 17.410856 48.148682 
L 17.413967 48.054604 
L 17.441959 48.408224 
L 17.432628 47.927482 
L 17.451289 47.990437 
L 17.491722 47.053376 
L 17.529045 48.666283 
L 17.563257 47.508695 
L 17.678335 48.378839 
L 17.805854 47.203867 
L 17.8805 46.977477 
L 17.855618 48.030302 
L 17.902271 47.657111 
L 17.958255 48.458098 
L 17.933373 47.529022 
L 18.017349 47.995011 
L 18.060892 48.210199 
L 18.076443 47.386225 
L 18.082664 47.476565 
L 18.088884 47.267257 
L 18.129317 48.534315 
L 18.16975 48.434753 
L 18.17286 48.664049 
L 18.235065 46.117289 
L 18.259946 47.041608 
L 18.263057 46.907276 
L 18.287938 48.558315 
L 18.356363 47.535946 
L 18.365694 48.474301 
L 18.390576 46.734943 
L 18.471441 48.179249 
L 18.620732 46.371386 
L 18.555417 48.466691 
L 18.636283 47.04502 
L 18.760692 48.571227 
L 18.776243 47.636162 
L 18.788684 46.92218 
L 18.86955 48.13559 
L 18.88199 47.786434 
L 18.931754 48.404881 
L 18.965966 47.183549 
L 18.984628 47.588347 
L 19.01262 47.165932 
L 19.081045 47.814602 
L 19.096596 47.369979 
L 19.211674 48.5825 
L 19.193012 47.358222 
L 19.221004 47.911083 
L 19.233445 47.476152 
L 19.308091 48.234847 
L 19.317421 48.563701 
L 19.345413 47.713428 
L 19.416948 48.22042 
L 19.516475 46.882658 
L 19.429389 48.600404 
L 19.553798 47.34953 
L 19.665766 48.672445 
L 19.671986 48.369318 
L 19.771513 47.48384 
L 19.799505 47.983431 
L 19.852379 48.419429 
L 19.86171 47.652694 
L 19.874151 46.929962 
L 19.951906 48.397021 
L 19.964347 48.289924 
L 20.017221 47.085255 
L 20.082535 47.828081 
L 20.094976 47.344616 
L 20.126078 48.393639 
L 20.210054 47.466434 
L 20.256708 48.546686 
L 20.300251 47.199662 
L 20.325133 47.857421 
L 20.42466 47.239687 
L 20.374896 48.178025 
L 20.4371 47.548969 
L 20.496195 48.674986 
L 20.530407 47.103707 
L 20.555289 48.552307 
L 20.670367 47.545434 
L 20.748122 48.522671 
L 20.782335 47.705534 
L 20.800996 47.43152 
L 20.85698 48.074919 
L 20.888082 47.988951 
L 20.903633 48.559613 
L 20.947177 47.180353 
L 21.00005 48.080763 
L 21.099577 48.584841 
L 21.056034 47.346984 
L 21.105798 48.072794 
L 21.112018 47.769478 
L 21.13068 48.581711 
L 21.208435 48.297784 
L 21.258199 47.881037 
L 21.214655 48.408562 
L 21.27686 47.897351 
L 21.295521 46.271599 
L 21.385718 48.085653 
L 21.41371 48.376512 
L 21.432371 47.294815 
L 21.466583 47.426814 
L 21.475914 47.137328 
L 21.541229 48.153761 
L 21.606543 48.640114 
L 21.56611 47.955258 
L 21.650086 48.100039 
L 21.734062 48.15054 
L 21.786936 47.345976 
L 21.902014 48.689327 
L 21.799377 47.332973 
L 21.920675 48.500506 
L 22.023313 46.907541 
L 21.930006 48.623975 
L 22.045084 47.557516 
L 22.073076 48.161042 
L 22.147721 47.375718 
L 22.150832 47.3791 
L 22.160162 47.17316 
L 22.188154 48.514348 
L 22.225477 48.112909 
L 22.309453 48.572099 
L 22.2628 47.618129 
L 22.334335 47.95614 
L 22.374768 47.106417 
L 22.418311 48.091442 
L 22.433862 48.59666 
L 22.489846 47.411784 
L 22.536499 48.469956 
L 22.664018 47.026196 
L 22.573822 48.584963 
L 22.676459 47.474746 
L 22.69823 46.732481 
L 22.800868 48.208084 
L 22.822639 47.796385 
L 22.897285 48.317081 
L 22.909725 48.629385 
L 22.97815 47.650991 
L 22.999922 47.909571 
L 23.018583 47.480812 
L 23.071457 48.589399 
L 23.102559 48.346646 
L 23.108779 48.427193 
L 23.164763 47.19903 
L 23.170984 46.797875 
L 23.25807 48.121604 
L 23.323385 48.336881 
L 23.279842 47.59006 
L 23.360707 47.752352 
L 23.466455 47.181525 
L 23.413581 48.474318 
L 23.478896 47.355417 
L 23.482006 47.31093 
L 23.516218 48.208484 
L 23.53488 48.051488 
L 23.643737 48.652707 
L 23.600194 47.400868 
L 23.649958 48.380128 
L 23.656178 48.39551 
L 23.67484 48.605307 
L 23.749485 47.965925 
L 23.765036 48.312638 
L 23.82102 47.69696 
L 23.796138 48.538104 
L 23.895665 47.858363 
L 23.942318 48.579409 
L 23.914326 47.593114 
L 24.035625 48.533374 
L 24.11027 47.61201 
L 24.144483 48.537852 
L 24.25334 47.983367 
L 24.150703 48.628543 
L 24.268892 48.125245 
L 24.346647 48.289777 
L 24.296884 47.380369 
L 24.365308 47.679121 
L 24.374639 47.479038 
L 24.3933 48.238228 
L 24.461725 47.908868 
L 24.52393 48.48922 
L 24.564362 47.496837 
L 24.567473 47.543583 
L 24.617236 48.295601 
L 24.598575 47.280741 
L 24.701212 48.116959 
L 24.738535 46.479183 
L 24.803849 48.585753 
L 24.900266 47.35607 
L 24.81318 48.640231 
L 24.934479 48.045287 
L 24.95003 48.539127 
L 25.002903 47.283489 
L 25.037116 47.83437 
L 25.065108 46.719648 
L 25.108651 48.575933 
L 25.136643 48.364159 
L 25.145974 48.579715 
L 25.220619 47.893355 
L 25.23928 48.184183 
L 25.270382 47.433631 
L 25.310815 48.403286 
L 25.351248 47.763055 
L 25.410342 48.541435 
L 25.360579 47.469137 
L 25.466326 48.238586 
L 25.51609 47.554213 
L 25.488098 48.555895 
L 25.581404 47.837114 
L 25.637388 48.645589 
L 25.606286 47.557883 
L 25.687152 47.876971 
L 25.755577 47.595001 
L 25.771128 48.18056 
L 25.79601 47.95784 
L 25.80223 48.2101 
L 25.892426 47.465466 
L 25.895537 47.53556 
L 25.898647 47.409543 
L 25.951521 48.59257 
L 25.979513 48.387259 
L 25.985733 48.592958 
L 26.013725 47.813563 
L 26.08215 48.064694 
L 26.131913 47.598424 
L 26.150575 48.289447 
L 26.153685 48.27497 
L 26.178567 48.636723 
L 26.243881 47.874282 
L 26.265653 48.607546 
L 26.315416 46.831095 
L 26.380731 48.299664 
L 26.411833 48.510749 
L 26.467817 47.722709 
L 26.50203 47.230544 
L 26.539352 48.113009 
L 26.576675 48.616188 
L 26.598446 47.471394 
L 26.65132 48.215814 
L 26.735296 48.624496 
L 26.669981 47.548416 
L 26.750847 48.055684 
L 26.813052 47.591138 
L 26.79439 48.503492 
L 26.853484 48.387442 
L 26.856595 48.387775 
L 26.953011 48.657835 
L 26.915689 48.009643 
L 26.968563 48.492242 
L 26.974783 48.63196 
L 27.040098 47.917882 
L 27.052539 48.076915 
L 27.145845 47.545731 
L 27.089861 48.488494 
L 27.164506 48.032193 
L 27.239152 48.593358 
L 27.20805 47.826722 
L 27.267144 47.85259 
L 27.295136 47.521147 
L 27.329348 48.328641 
L 27.36045 48.691418 
L 27.419544 48.140687 
L 27.534623 47.683321 
L 27.49108 48.489445 
L 27.537733 47.789913 
L 27.655921 48.627067 
L 27.599937 47.38195 
L 27.659031 48.557459 
L 27.671472 47.733062 
L 27.77411 47.975222 
L 27.879857 47.653901 
L 27.826983 48.519709 
L 27.882967 47.746988 
L 27.898518 48.602811 
L 27.960723 47.557858 
L 27.991825 47.724992 
L 28.007376 47.467769 
L 28.050919 48.618694 
L 28.085132 48.136336 
L 28.193989 48.658 
L 28.156667 47.620275 
L 28.197099 48.469964 
L 28.259304 48.03855 
L 28.240643 48.645849 
L 28.309067 48.354722 
L 28.374382 48.641457 
L 28.34639 47.991517 
L 28.408594 48.320161 
L 28.433476 47.453525 
L 28.477019 48.442829 
L 28.523673 48.052226 
L 28.610759 48.650293 
L 28.638751 48.276775 
L 28.753829 47.645981 
L 28.722727 48.542843 
L 28.76316 47.768572 
L 28.847135 48.671523 
L 28.881348 48.500745 
L 28.965324 47.881994 
L 28.996426 48.132263 
L 29.036859 48.475891 
L 29.008867 47.956935 
L 29.080402 48.011632 
L 29.142606 47.58747 
L 29.176819 48.498153 
L 29.179929 48.594774 
L 29.19237 47.80659 
L 29.276346 48.204776 
L 29.316779 47.768162 
L 29.354101 48.591486 
L 29.378983 48.300133 
L 29.397644 48.67496 
L 29.422526 48.022547 
L 29.434967 48.19066 
L 29.466069 47.550698 
L 29.525163 48.350013 
L 29.546935 47.929829 
L 29.637131 48.58985 
L 29.587368 47.83821 
L 29.665123 48.421961 
L 29.770871 47.633567 
L 29.724218 48.592703 
L 29.786422 48.150036 
L 29.864177 48.554691 
L 29.817524 47.848267 
L 29.9015 48.305501 
L 30.007248 47.635209 
L 29.951264 48.667233 
L 30.016578 48.198842 
L 30.022799 48.637121 
L 30.106775 47.571812 
L 30.134767 48.508157 
L 30.190751 47.599538 
L 30.228073 48.586144 
L 30.252955 48.040918 
L 30.259175 47.964756 
L 30.31827 48.533962 
L 30.336931 48.333561 
L 30.408466 48.560295 
L 30.386694 47.79433 
L 30.436458 48.091347 
L 30.452009 47.844263 
L 30.47067 48.641385 
L 30.551536 47.862308 
L 30.651063 48.62826 
L 30.666614 48.105963 
L 30.700827 47.809028 
L 30.719488 48.324573 
L 30.725708 48.297316 
L 30.772362 48.098589 
L 30.840787 48.672865 
L 30.940314 48.060614 
L 30.906101 48.686733 
L 30.955865 48.462346 
L 30.958975 48.564034 
L 31.052281 48.043534 
L 31.092714 47.67768 
L 31.114486 48.455884 
L 31.154919 48.244616 
L 31.161139 48.697102 
L 31.217123 47.826803 
L 31.260666 48.115129 
L 31.266887 48.33242 
L 31.269997 48.019022 
L 31.282438 47.377528 
L 31.31665 48.403806 
L 31.378855 48.097025 
L 31.437949 48.594518 
L 31.475271 47.330493 
L 31.481492 47.108765 
L 31.500153 47.892792 
L 31.568578 48.498273 
L 31.543696 47.393701 
L 31.621452 48.26169 
L 31.73653 47.904954 
L 31.668105 48.650295 
L 31.748971 47.941904 
L 31.752081 47.940502 
L 31.867159 48.635391 
L 31.870269 48.533218 
L 31.988458 48.002324 
L 31.87649 48.621878 
L 31.994678 48.251789 
L 32.004009 48.698627 
L 32.053772 47.75699 
L 32.106646 48.378367 
L 32.203063 48.163694 
L 32.150189 48.687715 
L 32.206173 48.467157 
L 32.215504 48.674687 
L 32.30259 48.090672 
L 32.30881 48.182889 
L 32.371015 47.486582 
L 32.339913 48.62866 
L 32.414558 48.355216 
L 32.479872 47.903094 
L 32.433219 48.604856 
L 32.514085 48.512738 
L 32.535856 48.618828 
L 32.554518 47.959558 
L 32.604281 48.368398 
L 32.654045 48.598892 
L 32.72247 47.934898 
L 32.7318 47.832952 
L 32.781564 48.674645 
L 32.797115 48.459902 
L 32.828217 48.642523 
L 32.859319 47.809985 
L 32.890422 48.127109 
L 32.940185 47.605585 
L 32.912193 48.21001 
L 33.002389 48.065319 
L 33.108137 48.598305 
L 33.027271 47.918184 
L 33.120578 48.364388 
L 33.185892 47.882958 
L 33.235656 48.065799 
L 33.279199 48.606198 
L 33.316522 47.575863 
L 33.350734 48.334048 
L 33.372506 47.745372 
L 33.453371 48.508119 
L 33.459592 48.425537 
L 33.531127 47.828912 
L 33.481363 48.522575 
L 33.584001 48.027288 
L 33.599552 48.596763 
L 33.624433 47.753493 
L 33.695969 48.262897 
L 33.751952 47.871391 
L 33.789275 48.395593 
L 33.801716 48.240008 
L 33.885692 48.669369 
L 33.820377 48.222344 
L 33.910574 48.318977 
L 33.972778 47.969326 
L 33.960337 48.631614 
L 34.025652 48.102165 
L 34.13451 48.672037 
L 34.078526 48.100829 
L 34.14073 48.557329 
L 34.190494 48.108039 
L 34.14695 48.595189 
L 34.249588 48.414112 
L 34.28069 48.656271 
L 34.308682 47.680649 
L 34.346005 47.933807 
L 34.349115 47.927302 
L 34.355335 48.077372 
L 34.467303 48.628055 
L 34.476634 48.577201 
L 34.529508 48.675753 
L 34.492185 48.389492 
L 34.541948 48.541007 
L 34.641475 47.997475 
L 34.573051 48.674222 
L 34.650806 48.402754 
L 34.681908 48.686339 
L 34.719231 47.969176 
L 34.753443 48.185014 
L 34.859191 47.873918 
L 34.809427 48.685796 
L 34.865411 48.008591 
L 34.971159 48.548165 
L 34.890293 47.766293 
L 34.98671 48.518483 
L 35.058245 47.792783 
L 35.039584 48.642075 
L 35.120449 48.244296 
L 35.160882 48.652038 
L 35.223087 48.092797 
L 35.226197 48.126053 
L 35.229307 48.131547 
L 35.235527 47.940585 
L 35.257299 47.36886 
L 35.27285 48.328475 
L 35.310173 48.089378 
L 35.422141 48.676565 
L 35.428361 48.516924 
L 35.431471 48.530175 
L 35.443912 48.105645 
L 35.475014 47.797173 
L 35.524778 48.581526 
L 35.55277 48.066206 
L 35.571431 48.620527 
L 35.586982 48.000038 
L 35.674068 48.379909 
L 35.742493 47.883496 
L 35.720722 48.541263 
L 35.782926 48.184858 
L 35.789147 48.553066 
L 35.820249 48.033677 
L 35.891784 48.308626 
L 35.925996 47.865183 
L 35.960209 48.624673 
L 35.994421 48.589093 
L 36.059736 48.661462 
L 36.034854 48.296617 
L 36.069066 48.501975 
L 36.081507 47.876678 
L 36.143712 48.579963 
L 36.177924 48.221303 
L 36.252569 48.649235 
L 36.280561 48.205409 
L 36.283672 48.2763 
L 36.289892 47.895202 
L 36.345876 48.65769 
L 36.39564 48.172529 
L 36.498277 48.062833 
L 36.460954 48.656123 
L 36.504497 48.087415 
L 36.560481 48.574031 
L 36.529379 47.661785 
L 36.616465 48.13254 
L 36.622686 47.877663 
L 36.68178 48.659661 
L 36.719102 48.287755 
L 36.731543 48.671462 
L 36.784417 48.032584 
L 36.83107 48.458383 
L 36.933708 48.676637 
L 36.952369 47.700838 
L 37.070557 48.588106 
L 37.082998 47.923639 
L 37.182525 48.275369 
L 37.232289 48.625953 
L 37.25406 47.762324 
L 37.291383 48.357059 
L 37.322485 47.72489 
L 37.350477 48.642776 
L 37.412681 48.038151 
L 37.512209 48.61924 
L 37.434453 47.689166 
L 37.521539 48.049717 
L 37.53709 47.791931 
L 37.621066 48.664876 
L 37.652168 48.067781 
L 37.736144 48.556453 
L 37.8139 48.614894 
L 37.757916 48.03443 
L 37.826341 48.305004 
L 37.857443 47.891923 
L 37.891655 48.659382 
L 37.932088 48.223247 
L 38.006734 48.69368 
L 37.941419 48.203147 
L 38.044056 48.394896 
L 38.065828 48.595308 
L 38.112481 48.173648 
L 38.149804 48.018953 
L 38.162245 48.611464 
L 38.215118 48.479864 
L 38.23378 48.598015 
L 38.255551 48.297154 
L 38.283543 47.915299 
L 38.302204 48.397429 
L 38.367519 48.169016 
L 38.432834 48.626108 
L 38.473267 47.777625 
L 38.569683 48.579796 
L 38.65677 48.53327 
L 38.709643 48.655143 
L 38.774958 48.187629 
L 38.812281 48.545586 
L 38.862044 47.971233 
L 38.865154 47.885848 
L 38.893146 48.667387 
L 38.964681 48.205765 
L 38.977122 48.566269 
L 39.042437 47.870736 
L 39.076649 48.390789 
L 39.113972 48.675768 
L 39.151295 47.65146 
L 39.154405 47.571501 
L 39.22905 48.42662 
L 39.23216 48.347603 
L 39.238381 48.665096 
L 39.291254 47.705396 
L 39.341018 48.30554 
L 39.362789 47.888338 
L 39.446765 48.58292 
L 39.449876 48.401012 
L 39.51208 48.662678 
L 39.480978 48.248246 
L 39.546292 48.309881 
L 39.602276 48.061736 
L 39.583615 48.62019 
L 39.65204 48.191595 
L 39.757787 48.616693 
L 39.767118 48.475164 
L 39.78889 47.955291 
L 39.875976 48.45481 
L 39.888417 48.696851 
L 39.969282 48.248481 
L 39.978613 48.31022 
L 40.065699 48.067016 
L 40.047038 48.529127 
L 40.084361 48.431004 
L 40.155896 48.619563 
L 40.127904 48.086377 
L 40.177667 48.350946 
L 40.202549 48.069031 
L 40.280304 48.550004 
L 40.283415 48.428701 
L 40.286525 48.571014 
L 40.36428 48.109105 
L 40.389162 48.489209 
L 40.451366 48.128276 
L 40.49491 48.64733 
L 40.49802 48.625371 
L 40.603767 48.042803 
L 40.616208 48.242285 
L 40.693964 48.485702 
L 40.709515 47.67399 
L 40.721956 48.034764 
L 40.725066 47.9247 
L 40.740617 48.630075 
L 40.821483 48.223176 
L 40.833924 48.655056 
L 40.908569 48.037758 
L 40.936561 48.434334 
L 41.023647 47.765711 
L 40.995655 48.616279 
L 41.048529 48.361148 
L 41.120064 47.900204 
L 41.079631 48.495022 
L 41.160497 48.336217 
L 41.281795 48.650189 
L 41.288016 48.491317 
L 41.35333 47.815959 
L 41.312897 48.61903 
L 41.403094 48.428234 
L 41.48707 48.653923 
L 41.499511 48.261933 
L 41.536833 47.674225 
L 41.577266 48.35549 
L 41.608368 48.138633 
L 41.729667 48.574279 
L 41.810533 48.221245 
L 41.77943 48.685692 
L 41.838525 48.468771 
L 41.878957 48.676212 
L 41.91939 48.246704 
L 41.947382 48.396104 
L 42.05624 48.650186 
L 41.956713 48.239448 
L 42.065571 48.599699 
L 42.124665 47.818872 
L 42.180649 48.210476 
L 42.242853 48.645147 
L 42.298837 48.558209 
L 42.392144 48.636648 
L 42.364152 48.040676 
L 42.401474 48.561072 
L 42.469899 48.346649 
L 42.451238 48.667135 
L 42.513442 48.394323 
L 42.606749 48.66636 
L 42.563206 48.34722 
L 42.631631 48.550418 
L 42.656513 48.152589 
L 42.721827 48.681272 
L 42.749819 48.226563 
L 42.796472 48.62187 
L 42.808913 48.008169 
L 42.874228 48.458877 
L 42.942653 48.028741 
L 42.955094 48.65109 
L 42.983086 48.400995 
L 43.029739 48.642362 
L 43.079502 48.279685 
L 43.172809 47.804451 
L 43.132376 48.629525 
L 43.18525 48.270112 
L 43.228793 48.683548 
L 43.266116 48.074321 
L 43.300328 48.536983 
L 43.356312 48.669337 
L 43.371863 48.085422 
L 43.402965 48.339522 
L 43.434068 47.870373 
L 43.480721 48.655413 
L 43.511823 48.417024 
L 43.536705 48.691848 
L 43.549146 48.2017 
L 43.617571 48.29719 
L 43.729538 48.617894 
L 43.682885 47.933689 
L 43.738869 48.453833 
L 43.822845 47.794268 
L 43.801073 48.547497 
L 43.857057 48.263036 
L 43.909931 48.026891 
L 43.89438 48.312475 
L 43.922372 48.223875 
L 43.978356 48.606429 
L 44.03745 48.543274 
L 44.04056 48.584137 
L 44.046781 48.191925 
L 44.112095 48.241098 
L 44.130757 48.068513 
L 44.202292 48.665466 
L 44.217843 48.391452 
L 44.264496 48.524041 
L 44.239615 48.156525 
L 44.270717 48.315514 
L 44.326701 47.888668 
L 44.348472 48.572489 
L 44.382685 48.248536 
L 44.429338 48.546263 
L 44.46044 48.084245 
L 44.491542 48.245019 
L 44.513314 48.232891 
L 44.522645 48.467273 
L 44.525755 48.58977 
L 44.584849 47.917704 
L 44.625282 48.196938 
L 44.662604 47.862747 
L 44.640833 48.455807 
L 44.721699 48.281184 
L 44.762131 48.659281 
L 44.799454 48.154262 
L 44.833667 48.492962 
L 44.88343 47.918333 
L 44.842997 48.523895 
L 44.967406 48.132984 
L 45.004729 48.629884 
L 45.079374 48.294776 
L 45.157129 48.2106 
L 45.101145 48.677689 
L 45.178901 48.425867 
L 45.200673 48.701061 
L 45.219334 48.023706 
L 45.281538 48.226602 
L 45.31264 48.669596 
L 45.337522 48.206396 
L 45.356184 48.368768 
L 45.359294 48.015445 
L 45.418388 48.652127 
L 45.465041 48.571244 
L 45.530356 48.016277 
L 45.505474 48.668571 
L 45.570789 48.461056 
L 45.670316 48.632159 
L 45.629883 47.845917 
L 45.682757 48.515107 
L 45.760512 48.64101 
L 45.716969 48.174032 
L 45.776063 48.397664 
L 45.782284 48.237931 
L 45.86937 48.65393 
L 45.881811 48.530911 
L 45.975117 48.092443 
L 45.928464 48.664454 
L 46.00622 48.327271 
L 46.046652 48.661145 
L 46.115077 48.394267 
L 46.15862 48.19121 
L 46.139959 48.600375 
L 46.180392 48.576705 
L 46.217714 48.682285 
L 46.251927 48.066796 
L 46.261258 48.187758 
L 46.29547 48.584398 
L 46.323462 48.667898 
L 46.339013 48.144693 
L 46.379446 48.27391 
L 46.382556 48.037297 
L 46.410548 48.663233 
L 46.488304 48.398379 
L 46.553618 48.644782 
L 46.516296 48.256023 
L 46.600272 48.633479 
L 46.696688 48.163105 
L 46.712239 48.511455 
L 46.72468 48.180454 
L 46.755783 48.619534 
L 46.833538 48.36302 
L 46.836648 48.657521 
L 46.933065 47.91955 
L 46.939286 48.203167 
L 47.029482 47.891736 
L 46.964167 48.573607 
L 47.041923 48.400553 
L 47.069915 48.653079 
L 47.097907 48.209955 
L 47.107237 48.27509 
L 47.135229 47.694282 
L 47.178772 48.66844 
L 47.216095 48.326694 
L 47.275189 48.685371 
L 47.256528 47.942029 
L 47.324953 48.468888 
L 47.368496 47.796186 
L 47.393378 48.659265 
L 47.433811 48.496167 
L 47.436921 48.499606 
L 47.440031 48.214919 
L 47.458692 48.622763 
L 47.548889 48.236915 
L 47.551999 48.224857 
L 47.56133 48.53884 
L 47.648416 48.677762 
L 47.579991 48.094474 
L 47.663967 48.305819 
L 47.670187 48.120032 
L 47.766604 48.670779 
L 47.772824 48.667348 
L 47.866131 47.880571 
L 47.887903 48.362256 
L 47.953217 48.66215 
L 47.940776 48.228322 
L 47.99676 48.34885 
L 48.034083 47.879719 
L 48.077626 48.426363 
L 48.108728 48.131286 
L 48.142941 47.912831 
L 48.267349 48.636601 
L 48.298452 47.985147 
L 48.379317 48.57744 
L 48.42286 48.18288 
L 48.388648 48.637051 
L 48.500616 48.366102 
L 48.572151 48.65663 
L 48.55971 48.235664 
L 48.612584 48.560158 
L 48.681009 48.078214 
L 48.712111 48.615878 
L 48.727662 48.325554 
L 48.733882 48.150176 
L 48.740103 48.617358 
L 48.802307 48.674082 
L 48.771205 48.133316 
L 48.824079 48.335514 
L 48.852071 48.063273 
L 48.867622 48.517681 
L 48.936047 48.091987 
L 48.995141 48.615385 
L 49.041794 47.993089 
L 49.044904 48.043829 
L 49.051125 47.934529 
L 49.054235 48.104656 
L 49.178644 48.675374 
L 49.25951 47.856071 
L 49.303053 48.202701 
L 49.349706 48.679483 
L 49.331045 48.185078 
L 49.418131 48.502256 
L 49.471005 47.968373 
L 49.427462 48.655344 
L 49.530099 48.490007 
L 49.617185 48.638792 
L 49.54565 48.198685 
L 49.626516 48.309493 
L 49.629626 48.169396 
L 49.726043 48.658558 
L 49.732263 48.430161 
L 49.803798 48.664249 
L 49.82246 48.225783 
L 49.841121 48.427908 
L 49.897105 47.651589 
L 49.918876 48.500581 
L 49.949979 48.495187 
L 49.984191 48.160654 
L 50.012183 48.624242 
L 50.024624 48.607349 
L 50.027734 48.683353 
L 50.099269 48.120894 
L 50.136592 48.639669 
L 50.139702 48.643989 
L 50.145922 48.523236 
L 50.149033 48.54788 
L 50.161473 48.261647 
L 50.189465 48.656728 
L 50.25789 48.363515 
L 50.357417 48.672453 
L 50.267221 48.286527 
L 50.369858 48.54979 
L 50.404071 48.659649 
L 50.382299 48.424101 
L 50.444504 48.412806 
L 50.494267 48.123905 
L 50.53159 48.640703 
L 50.553361 48.507954 
L 50.640447 47.978747 
L 50.618676 48.682113 
L 50.662219 48.455683 
L 50.730644 48.64825 
L 50.687101 48.284214 
L 50.771077 48.373921 
L 50.842612 48.667154 
L 50.81462 48.275357 
L 50.889265 48.657196 
L 50.926588 48.297832 
L 50.998123 48.693383 
L 51.001233 48.558616 
L 51.054107 48.569185 
L 51.032335 48.339867 
L 51.075878 48.435693 
L 51.078988 48.356581 
L 51.122531 48.687007 
L 51.181626 48.418444 
L 51.206507 48.656366 
L 51.281153 48.144788 
L 51.302924 47.851979 
L 51.318475 48.690123 
L 51.38379 48.26572 
L 51.418002 48.631925 
L 51.402451 48.176103 
L 51.489537 48.367493 
L 51.511309 47.814442 
L 51.573513 48.613998 
L 51.601505 48.209485 
L 51.6606 48.678807 
L 51.691702 48.166819 
L 51.707253 48.167167 
L 51.713473 47.981168 
L 51.781898 48.6262 
L 51.800559 48.437104 
L 51.903197 48.658878 
L 51.862764 48.043405 
L 51.909417 48.370003 
L 52.015165 48.606257 
L 51.928078 48.303193 
L 52.024495 48.57926 
L 52.055598 48.238233 
L 52.114692 48.676518 
L 52.130243 48.576272 
L 52.133353 48.674504 
L 52.189337 48.10048 
L 52.2391 48.544059 
L 52.307525 48.642991 
L 52.319966 48.377165 
L 52.344848 48.576567 
L 52.444375 47.977035 
L 52.463036 48.131037 
L 52.565674 48.687849 
L 52.484808 48.005348 
L 52.578114 48.574338 
L 52.683862 48.141934 
L 52.612327 48.601519 
L 52.696303 48.297006 
L 52.711854 48.234742 
L 52.808271 48.69402 
L 52.830042 48.039358 
L 52.93579 48.253026 
L 52.954451 48.236669 
L 52.966892 48.42789 
L 52.973112 48.38221 
L 53.044647 48.686691 
L 53.053978 48.252415 
L 53.07886 48.404734 
L 53.109962 48.036477 
L 53.159726 48.524694 
L 53.187718 48.240738 
L 53.268583 48.604603 
L 53.284134 48.030633 
L 53.296575 48.25733 
L 53.302796 48.116102 
L 53.35878 48.669183 
L 53.399213 48.447825 
L 53.486299 48.674087 
L 53.436535 48.16982 
L 53.50496 48.414402 
L 53.592046 48.158626 
L 53.573385 48.61967 
L 53.623148 48.28897 
L 53.660471 48.628699 
L 53.713345 47.99509 
L 53.728896 48.222702 
L 53.753778 48.682794 
L 53.840864 48.054079 
L 53.952832 48.619184 
L 53.962162 48.441993 
L 53.977713 47.972882 
L 54.043028 48.628312 
L 54.07413 48.333176 
L 54.077241 48.208439 
L 54.111453 48.671594 
L 54.182988 48.271877 
L 54.260744 48.60838 
L 54.20787 48.235956 
L 54.298066 48.555622 
L 54.385152 48.662916 
L 54.413144 48.294753 
L 54.522002 48.658827 
L 54.441136 48.278879 
L 54.531333 48.543846 
L 54.624639 48.098529 
L 54.590427 48.683445 
L 54.643301 48.406687 
L 54.677513 48.17555 
L 54.665072 48.658856 
L 54.742828 48.592925 
L 54.842355 48.693963 
L 54.801922 48.237134 
L 54.845465 48.530948 
L 54.929441 48.128118 
L 54.898339 48.591386 
L 54.957433 48.398112 
L 54.988535 48.667836 
L 55.035188 48.286582 
L 55.069401 48.443793 
L 55.075621 48.352853 
L 55.122274 48.685548 
L 55.172038 48.443046 
L 55.249793 48.680593 
L 55.181369 48.312081 
L 55.280896 48.467427 
L 55.361761 48.321745 
L 55.377313 48.679763 
L 55.389753 48.513628 
L 55.495501 48.681984 
L 55.467509 48.277889 
L 55.498611 48.661277 
L 55.567036 48.274978 
L 55.560816 48.668701 
L 55.613689 48.431541 
L 55.663453 48.678293 
L 55.632351 48.310978 
L 55.722547 48.511323 
L 55.831405 48.18613 
L 55.781641 48.675922 
L 55.834515 48.416473 
L 55.837625 48.565632 
L 55.927821 47.966811 
L 55.934042 48.061608 
L 55.937152 48.005855 
L 55.971365 48.623789 
L 56.024238 48.320252 
L 56.086443 48.640154 
L 56.129986 48.222471 
L 56.136206 48.382238 
L 56.139316 48.388262 
L 56.170419 48.647658 
L 56.18908 47.933984 
L 56.251284 48.527016 
L 56.260615 48.63794 
L 56.338371 48.213574 
L 56.344591 48.328091 
L 56.400575 48.041117 
L 56.434787 48.684824 
L 56.450338 48.497784 
L 56.528094 48.267105 
L 56.47522 48.667398 
L 56.559196 48.468145 
L 56.652503 48.676132 
L 56.630731 48.304453 
L 56.661833 48.488811 
L 56.711597 47.979994 
L 56.74892 48.578282 
L 56.767581 48.508702 
L 56.842226 48.601261 
L 56.857777 48.188298 
L 56.873328 48.479092 
L 56.938643 48.123629 
L 56.89821 48.537374 
L 56.985296 48.383847 
L 57.078603 48.628692 
L 57.100374 48.112823 
L 57.150138 48.645783 
L 57.218563 48.637222 
L 57.243445 48.68521 
L 57.274547 48.36468 
L 57.290098 48.554055 
L 57.293208 48.232367 
L 57.364743 48.70064 
L 57.402066 48.343255 
L 57.476711 48.673737 
L 57.423837 48.241781 
L 57.517144 48.477529 
L 57.542026 48.224274 
L 57.626002 48.665402 
L 57.681986 48.001933 
L 57.73797 48.598544 
L 57.793954 48.135499 
L 57.812615 48.688719 
L 57.856158 48.38469 
L 57.933913 48.650424 
L 57.899701 48.17483 
L 57.971236 48.500449 
L 58.021 47.901772 
L 57.999228 48.570346 
L 58.076984 48.512245 
L 58.151629 48.65476 
L 58.104976 48.187355 
L 58.17029 48.337867 
L 58.1734 48.292955 
L 58.226274 48.662404 
L 58.260487 48.631538 
L 58.263597 48.650585 
L 58.276038 48.278432 
L 58.30714 48.385611 
L 58.31025 48.244613 
L 58.341352 48.670172 
L 58.412887 48.40125 
L 58.434659 48.678275 
L 58.4471 48.302537 
L 58.524855 48.654895 
L 58.59639 48.222273 
L 58.615052 48.681034 
L 58.636823 48.608501 
L 58.748791 48.308862 
L 58.717689 48.686849 
L 58.758122 48.393313 
L 58.798555 48.197527 
L 58.773673 48.615041 
L 58.838987 48.356851 
L 58.87942 48.672489 
L 58.848318 48.333775 
L 58.950955 48.556181 
L 59.01627 48.246073 
L 59.000719 48.646161 
L 59.062923 48.464142 
L 59.16245 48.674913 
L 59.090915 48.28853 
L 59.165561 48.527918 
L 59.171781 48.091411 
L 59.199773 48.668859 
L 59.277528 48.441871 
L 59.29308 48.357764 
L 59.321072 48.624994 
L 59.358394 48.588152 
L 59.370835 48.683259 
L 59.433039 48.139568 
L 59.454811 48.362359 
L 59.457921 48.216094 
L 59.548118 48.681422 
L 59.560558 48.600317 
L 59.675637 48.315757 
L 59.613432 48.679753 
L 59.684967 48.463765 
L 59.734731 48.682566 
L 59.71918 48.312683 
L 59.796935 48.592977 
L 59.849809 48.616452 
L 59.831148 48.249505 
L 59.86536 48.334432 
L 59.918234 48.234465 
L 59.902683 48.665725 
L 59.949336 48.481414 
L 59.964887 48.657133 
L 60.023981 48.312938 
L 60.055083 48.460333 
L 60.058194 48.221954 
L 60.123508 48.671724 
L 60.163941 48.437205 
L 60.176382 48.615728 
L 60.207484 48.291635 
L 60.272799 48.525482 
L 60.344334 48.659561 
L 60.387877 48.157738 
L 60.459412 48.646364 
L 60.474963 48.03014 
L 60.506065 48.542337 
L 60.56827 48.008113 
L 60.599372 48.610355 
L 60.621144 48.177751 
L 60.664687 48.683059 
L 60.702009 47.977528 
L 60.736222 48.397021 
L 60.841969 48.136326 
L 60.770434 48.685521 
L 60.845079 48.223388 
L 60.86063 48.672897 
L 60.916614 48.172642 
L 60.953937 48.1974 
L 61.028582 48.670402 
L 60.978819 48.037157 
L 61.072125 48.381991 
L 61.13744 48.289047 
L 61.090787 48.666024 
L 61.162322 48.535704 
L 61.212085 48.643254 
L 61.258739 48.30767 
L 61.27118 48.512519 
L 61.302282 48.073631 
L 61.327163 48.626137 
L 61.383147 48.477779 
L 61.467123 48.688138 
L 61.451572 48.239489 
L 61.485785 48.602456 
L 61.547989 48.618387 
L 61.600863 48.199602 
L 61.631965 48.641424 
L 61.719051 48.478208 
L 61.753264 48.276408 
L 61.812358 48.657612 
L 61.818578 48.579298 
L 61.827909 48.675432 
L 61.871452 48.354557 
L 61.930546 48.619628 
L 61.98653 48.303788 
L 62.039404 48.674744 
L 62.148262 48.23862 
L 62.051845 48.681376 
L 62.157592 48.343332 
L 62.160702 48.528712 
L 62.207356 48.051586 
L 62.26645 48.33893 
L 62.291332 47.994399 
L 62.344205 48.650523 
L 62.384638 48.201415 
L 62.496606 48.661387 
L 62.41574 48.195737 
L 62.502827 48.639031 
L 62.512157 48.63471 
L 62.515268 48.557345 
L 62.611684 48.360083 
L 62.599243 48.690838 
L 62.621015 48.452427 
L 62.627235 48.689278 
L 62.704991 48.165466 
L 62.729873 48.452428 
L 62.748534 48.492563 
L 62.757865 48.244458 
L 62.760975 48.25983 
L 62.767195 48.120552 
L 62.83873 48.652094 
L 62.866722 48.164908 
L 62.941368 48.638343 
L 62.97869 48.315056 
L 63.062666 48.014085 
L 63.047115 48.651289 
L 63.081328 48.341754 
L 63.149752 48.677432 
L 63.137312 48.281399 
L 63.196406 48.439282 
L 63.292823 48.286806 
L 63.264831 48.663048 
L 63.311484 48.337486 
L 63.314594 48.339119 
L 63.370578 48.669334 
L 63.389239 48.240695 
L 63.423452 48.276795 
L 63.429672 48.142574 
L 63.460774 48.525344 
L 63.476326 48.456986 
L 63.582073 48.665532 
L 63.532309 48.154825 
L 63.585183 48.465677 
L 63.67849 48.296944 
L 63.656718 48.695694 
L 63.690931 48.495181 
L 63.728253 48.674411 
L 63.771796 48.365184 
L 63.793568 48.590165 
L 63.809119 48.262474 
L 63.861993 48.702157 
L 63.902426 48.613732 
L 63.952189 48.344221 
L 63.908646 48.659108 
L 64.014394 48.575458 
L 64.064157 48.359653 
L 64.048606 48.685022 
L 64.123251 48.538695 
L 64.213448 48.693991 
L 64.145023 48.338719 
L 64.232109 48.466911 
L 64.334746 48.665119 
L 64.300534 48.329353 
L 64.347187 48.645808 
L 64.359628 48.352646 
L 64.400061 48.665445 
L 64.456045 48.644356 
L 64.465376 48.698892 
L 64.5338 48.356948 
L 64.549351 48.485621 
L 64.599115 48.281486 
L 64.630217 48.675873 
L 64.658209 48.406269 
L 64.698642 48.66529 
L 64.732854 48.377757 
L 64.770177 48.483326 
L 64.81372 48.703175 
L 64.795059 48.269984 
L 64.872814 48.499771 
L 64.966121 48.253617 
L 64.910137 48.665686 
L 64.981672 48.407823 
L 65.056317 48.662455 
L 64.991003 48.268822 
L 65.084309 48.408838 
L 65.183836 48.061928 
L 65.106081 48.643781 
L 65.193167 48.265301 
L 65.214939 48.620181 
L 65.277143 48.05578 
L 65.302025 48.294557 
L 65.404662 48.135742 
L 65.392221 48.644661 
L 65.410882 48.240695 
L 65.488638 48.663346 
L 65.432654 48.234616 
L 65.52285 48.292164 
L 65.65348 48.672381 
L 65.563283 48.105731 
L 65.672141 48.446499 
L 65.709464 48.064597 
L 65.753007 48.61413 
L 65.784109 48.301344 
L 65.815211 48.675526 
L 65.836983 48.18618 
L 65.896077 48.362211 
L 65.899187 48.242642 
L 65.986273 48.657356 
L 66.001824 48.417474 
L 66.095131 48.669492 
L 66.023596 48.243831 
L 66.116902 48.516535 
L 66.175997 48.132077 
L 66.148005 48.640021 
L 66.22576 48.513079 
L 66.331508 48.673767 
L 66.266193 48.138497 
L 66.334618 48.482624 
L 66.37194 48.665521 
L 66.446586 48.230238 
L 66.483908 48.624591 
L 66.462137 48.199898 
L 66.564774 48.613461 
L 66.630089 48.160274 
L 66.679852 48.487931 
L 66.735836 48.640445 
L 66.726505 48.31756 
L 66.773159 48.426613 
L 66.826033 48.225923 
L 66.78871 48.609881 
L 66.878906 48.534619 
L 66.882016 48.654933 
L 66.93178 48.223091 
L 66.984654 48.450097 
L 67.059299 48.664483 
L 67.102842 48.072858 
L 67.199259 48.642237 
L 67.21481 48.248003 
L 67.21792 48.202444 
L 67.233471 48.665953 
L 67.305006 48.474431 
L 67.342329 48.664645 
L 67.398313 48.225223 
L 67.410754 48.390777 
L 67.485399 48.294817 
L 67.50095 48.613777 
L 67.510281 48.396596 
L 67.584926 48.234131 
L 67.622249 48.641823 
L 67.647131 48.294648 
L 67.662682 48.662755 
L 67.727996 48.571416 
L 67.731107 48.694855 
L 67.78087 48.200789 
L 67.836854 48.602386 
L 67.948822 48.207781 
L 67.889728 48.657395 
L 67.955042 48.363733 
L 68.06701 48.612079 
L 68.042129 48.340574 
L 68.079451 48.571719 
L 68.132325 48.327392 
L 68.160317 48.636467 
L 68.19764 48.537614 
L 68.259844 48.683208 
L 68.278505 48.268722 
L 68.287836 48.271418 
L 68.290946 48.048379 
L 68.378032 48.617299 
L 68.399804 48.202753 
L 68.402914 48.102476 
L 68.462008 48.660305 
L 68.496221 48.585819 
L 68.552205 48.635908 
L 68.567756 48.308537 
L 68.592638 48.509974 
L 68.685944 48.323268 
L 68.614409 48.676078 
L 68.698385 48.638467 
L 68.791692 48.232564 
L 68.704605 48.685699 
L 68.832124 48.448597 
L 68.850786 48.652011 
L 68.894329 48.278421 
L 68.944092 48.546249 
L 68.968974 48.292331 
L 68.987635 48.650158 
L 69.05606 48.450539 
L 69.105824 48.667904 
L 69.124485 48.352865 
L 69.168028 48.607727 
L 69.267555 48.415759 
L 69.183579 48.675671 
L 69.273776 48.612128 
L 69.307988 48.687723 
L 69.317319 48.33526 
L 69.370193 48.508433 
L 69.373303 48.247788 
L 69.435507 48.703352 
L 69.48216 48.426495 
L 69.485271 48.288176 
L 69.575467 48.653319 
L 69.591018 48.477257 
L 69.609679 48.616211 
L 69.643892 47.929018 
L 69.693655 48.383484 
L 69.721647 48.220635 
L 69.783852 48.647378 
L 69.799403 48.373774 
L 69.90204 48.66296 
L 69.867828 48.190626 
L 69.908261 48.607942 
L 70.004677 48.217564 
L 69.954914 48.619449 
L 70.020229 48.370846 
L 70.03578 48.526082 
L 70.042 48.213009 
L 70.048221 48.225953 
L 70.051331 48.141497 
L 70.085543 48.632448 
L 70.150858 48.290318 
L 70.18507 48.677679 
L 70.228613 48.181671 
L 70.262826 48.612133 
L 70.384124 48.232257 
L 70.390345 48.451031 
L 70.496092 48.684439 
L 70.452549 48.182546 
L 70.502313 48.490087 
L 70.583178 48.151177 
L 70.520974 48.695716 
L 70.60806 48.561961 
L 70.710697 48.672638 
L 70.701367 48.282822 
L 70.720028 48.600703 
L 70.772902 48.380813 
L 70.732469 48.687241 
L 70.825776 48.590999 
L 70.828886 48.693323 
L 70.897311 48.248644 
L 70.931523 48.514087 
L 70.937743 48.114928 
L 70.950184 48.687386 
L 71.03727 48.472133 
L 71.040381 48.685528 
L 71.115026 48.301496 
L 71.146128 48.542541 
L 71.161679 48.236437 
L 71.208333 48.631205 
L 71.254986 48.470395 
L 71.298529 48.6839 
L 71.342072 48.362283 
L 71.366954 48.516258 
L 71.373174 48.247053 
L 71.422938 48.67701 
L 71.475812 48.485075 
L 71.575339 48.693725 
L 71.522465 48.212784 
L 71.59089 48.57288 
L 71.643763 48.159955 
L 71.612661 48.625836 
L 71.702858 48.573896 
L 71.705968 48.66921 
L 71.721519 48.261234 
L 71.811715 48.516829 
L 71.88014 48.682765 
L 71.824156 48.291645 
L 71.926793 48.581348 
L 72.004549 48.128994 
L 71.942345 48.669094 
L 72.038761 48.480913 
L 72.138288 48.333145 
L 72.066753 48.69575 
L 72.150729 48.394262 
L 72.259587 48.644061 
L 72.184942 48.290468 
L 72.262697 48.643079 
L 72.328012 48.187933 
L 72.284469 48.68476 
L 72.377775 48.452546 
L 72.415098 48.62146 
L 72.399547 48.287461 
L 72.471082 48.317179 
L 72.492853 48.055851 
L 72.548837 48.624237 
L 72.573719 48.494194 
L 72.601711 48.669376 
L 72.58927 48.189586 
L 72.676356 48.413744 
L 72.679467 48.363733 
L 72.716789 48.664202 
L 72.772773 48.55637 
L 72.878521 48.686132 
L 72.791435 48.181479 
L 72.881631 48.548363 
L 72.884741 48.423162 
L 72.931394 48.677275 
L 72.993599 48.442671 
L 73.00293 48.293649 
L 73.01537 48.66094 
L 73.099346 48.444866 
L 73.186433 48.695443 
L 73.124228 48.279125 
L 73.211314 48.590032 
L 73.220645 48.503723 
L 73.223755 48.322961 
L 73.251747 48.672374 
L 73.329503 48.532522 
L 73.338833 48.656268 
L 73.373046 48.322819 
L 73.376156 48.307952 
L 73.401038 48.659224 
L 73.419699 48.505997 
L 73.447691 48.388202 
L 73.531667 48.677107 
L 73.550328 48.311752 
L 73.58143 48.681939 
L 73.649855 48.549867 
L 73.743162 48.667812 
L 73.705839 48.23284 
L 73.761823 48.592186 
L 73.774264 48.521193 
L 73.780485 48.374001 
L 73.85202 48.669066 
L 73.883122 48.528896 
L 73.892452 48.665511 
L 73.908004 48.251917 
L 73.988869 48.564451 
L 74.085286 48.421386 
L 74.00442 48.676819 
L 74.097727 48.470086 
L 74.14438 48.668482 
L 74.175483 48.245815 
L 74.209695 48.603743 
L 74.303002 48.350061 
L 74.243907 48.689021 
L 74.327883 48.371682 
L 74.390088 48.690256 
L 74.374537 48.253013 
L 74.436741 48.386555 
L 74.439851 48.332991 
L 74.477174 48.666721 
L 74.536268 48.456176 
L 74.551819 48.263039 
L 74.645126 48.694891 
L 74.738432 48.261274 
L 74.757094 48.637515 
L 74.785086 48.378218 
L 74.831739 48.698475 
L 74.869062 48.573132 
L 74.956148 48.671279 
L 74.893943 48.284285 
L 74.968589 48.641331 
L 75.049454 48.179767 
L 74.99347 48.681692 
L 75.080557 48.405284 
L 75.167643 48.676001 
L 75.12721 48.021522 
L 75.189414 48.66983 
L 75.201855 48.216621 
L 75.232957 48.676773 
L 75.301382 48.241356 
L 75.344925 48.689993 
L 75.432011 48.386596 
L 75.450673 48.15868 
L 75.484885 48.69884 
L 75.537759 48.338075 
L 75.612404 48.684669 
L 75.55953 48.155632 
L 75.643506 48.29369 
L 75.646617 48.167439 
L 75.746144 48.596634 
L 75.792797 48.42503 
L 75.817679 48.662791 
L 75.851891 48.554325 
L 75.879883 48.64005 
L 75.907875 48.192455 
L 75.960749 48.561897 
L 76.001182 48.332181 
L 76.026063 48.643168 
L 76.069607 48.365583 
L 76.134921 48.657374 
L 76.094488 48.274999 
L 76.181574 48.456593 
L 76.228228 48.685538 
L 76.203346 48.41154 
L 76.25933 48.497355 
L 76.26244 48.254827 
L 76.330865 48.649996 
L 76.368188 48.581302 
L 76.427282 48.684819 
L 76.421061 48.301534 
L 76.473935 48.493479 
L 76.554801 48.193259 
L 76.495707 48.640321 
L 76.582793 48.385444 
L 76.68543 48.626997 
L 76.598344 48.261996 
L 76.691651 48.411886 
L 76.728973 48.325148 
L 76.747634 48.664906 
L 76.791178 48.498897 
L 76.840941 48.673362 
L 76.856492 48.142487 
L 76.896925 48.388023 
L 76.959129 48.002258 
L 76.928027 48.58926 
L 77.005783 48.241959 
L 77.018224 48.61659 
L 77.039995 48.233331 
L 77.117751 48.351952 
L 77.120861 48.229146 
L 77.211057 48.670674 
L 77.226608 48.357746 
L 77.347907 48.644221 
L 77.295033 48.324445 
L 77.354127 48.527901 
L 77.39456 48.269732 
L 77.407001 48.697717 
L 77.456765 48.517693 
L 77.497198 48.675439 
L 77.556292 48.126071 
L 77.562512 48.35704 
L 77.565622 48.157078 
L 77.640268 48.657443 
L 77.66826 48.564864 
L 77.708692 48.235389 
L 77.767787 48.649618 
L 77.774007 48.551096 
L 77.82066 48.68001 
L 77.851763 48.23562 
L 77.879755 48.44592 
L 77.882865 48.441126 
L 77.889085 48.599862 
L 77.935739 48.683167 
L 77.913967 48.326142 
L 77.988612 48.629617 
L 78.060147 48.647311 
L 78.106801 48.234875 
L 78.206328 48.689665 
L 78.218769 48.390251 
L 78.321406 48.689067 
L 78.23743 48.222346 
L 78.355618 48.597822 
L 78.405382 48.452881 
L 78.414712 48.645024 
L 78.467586 48.490239 
L 78.542231 48.677574 
L 78.573334 48.386893 
L 78.576444 48.354001 
L 78.619987 48.674378 
L 78.66975 48.544691 
L 78.700853 48.667894 
L 78.675971 48.523222 
L 78.716404 48.597326 
L 78.719514 48.43371 
L 78.822151 48.688245 
L 78.828372 48.448817 
L 78.912348 48.690965 
L 78.881245 48.404679 
L 78.94345 48.651566 
L 79.033646 48.320169 
L 79.024316 48.692336 
L 79.067859 48.579378 
L 79.136283 48.672466 
L 79.102071 48.335399 
L 79.176716 48.616158 
L 79.220259 48.291138 
L 79.266913 48.663447 
L 79.288684 48.556721 
L 79.344668 48.650562 
L 79.335338 48.366508 
L 79.37266 48.487274 
L 79.378881 48.366265 
L 79.456636 48.676566 
L 79.475297 48.535587 
L 79.478408 48.691116 
L 79.493959 48.374404 
L 79.587265 48.686214 
L 79.696123 48.259163 
L 79.702344 48.352121 
L 79.801871 48.641971 
L 79.727225 48.188926 
L 79.836083 48.459387 
L 79.848524 48.370914 
L 79.901398 48.683197 
L 79.944941 48.463942 
L 80.047578 48.652183 
L 79.963602 48.122996 
L 80.050688 48.509504 
L 80.053798 48.248709 
L 80.106672 48.692941 
L 80.159546 48.41249 
L 80.21242 48.624939 
L 80.227971 48.04335 
L 80.265293 48.352526 
L 80.268404 48.256037 
L 80.299506 48.667322 
L 80.371041 48.491756 
L 80.439466 48.201636 
L 80.383482 48.626162 
L 80.467458 48.494759 
L 80.470568 48.678577 
L 80.542103 48.362304 
L 80.576315 48.493064 
L 80.657181 48.253846 
L 80.613638 48.651969 
L 80.688283 48.406511 
L 80.794031 48.662418 
L 80.756708 48.186074 
L 80.800251 48.558354 
L 80.846905 48.649493 
L 80.868676 48.270031 
L 80.905999 48.59545 
L 81.011746 48.28196 
L 80.940211 48.678455 
L 81.017967 48.552739 
L 81.095722 48.084039 
L 81.045959 48.649981 
L 81.136155 48.306757 
L 81.248123 48.66679 
L 81.251233 48.574355 
L 81.313438 48.369124 
L 81.328989 48.689164 
L 81.360091 48.524342 
L 81.450287 48.678732 
L 81.403634 48.438974 
L 81.468949 48.632598 
L 81.571586 48.374216 
L 81.515602 48.70057 
L 81.584027 48.417564 
L 81.605798 48.647042 
L 81.686664 48.306492 
L 81.692884 48.461363 
L 81.699105 48.281243 
L 81.733317 48.680333 
L 81.801742 48.388084 
L 81.90749 48.653115 
L 81.835955 48.321885 
L 81.91371 48.504882 
L 81.972804 48.426973 
L 81.988355 48.687133 
L 82.019457 48.55288 
L 82.022568 48.674057 
L 82.112764 48.265778 
L 82.128315 48.602916 
L 82.230952 48.403313 
L 82.162528 48.689434 
L 82.237173 48.6115 
L 82.324259 48.37219 
L 82.249614 48.668438 
L 82.355361 48.597948 
L 82.358471 48.611792 
L 82.398904 48.353097 
L 82.426896 48.531498 
L 82.523313 48.68207 
L 82.538864 48.33209 
L 82.647722 48.6767 
L 82.607289 48.223139 
L 82.653942 48.495317 
L 82.672604 48.296317 
L 82.706816 48.686364 
L 82.7628 48.556765 
L 82.772131 48.617988 
L 82.793902 48.397354 
L 82.852996 48.287818 
L 82.840556 48.634026 
L 82.868548 48.577627 
L 82.952524 48.684763 
L 82.915201 48.389935 
L 82.977405 48.655479 
L 83.067602 48.391007 
L 83.030279 48.679134 
L 83.089373 48.514924 
L 83.170239 48.671404 
L 83.136026 48.252546 
L 83.19201 48.643314 
L 83.195121 48.384039 
L 83.207562 48.676071 
L 83.300868 48.520473 
L 83.372403 48.67295 
L 83.403505 48.374198 
L 83.409726 48.630943 
L 83.434608 48.427122 
L 83.496812 48.677792 
L 83.521694 48.568856 
L 83.540355 48.366464 
L 83.624331 48.682554 
L 83.661654 48.359935 
L 83.655433 48.69243 
L 83.736299 48.541603 
L 83.795393 48.692845 
L 83.75185 48.317804 
L 83.845157 48.544385 
L 83.860708 48.456738 
L 83.873149 48.700253 
L 83.957125 48.481217 
L 84.000668 48.666355 
L 83.966455 48.356823 
L 84.069093 48.537712 
L 84.137517 48.268298 
L 84.093974 48.641984 
L 84.17795 48.511841 
L 84.205942 48.699159 
L 84.277477 48.289097 
L 84.286808 48.614492 
L 84.361453 48.356959 
L 84.327241 48.671441 
L 84.398776 48.533504 
L 84.448539 48.400925 
L 84.45165 48.674064 
L 84.501413 48.529989 
L 84.560507 48.686821 
L 84.544956 48.379254 
L 84.610271 48.549062 
L 84.619601 48.691781 
L 84.647593 48.452471 
L 84.669365 48.525871 
L 84.775112 48.403323 
L 84.731569 48.699187 
L 84.778223 48.518066 
L 84.834207 48.68374 
L 84.815545 48.390316 
L 84.865309 48.634032 
L 84.936844 48.335302 
L 84.896411 48.683523 
L 84.977277 48.493141 
L 85.089245 48.659841 
L 85.070583 48.380055 
L 85.092355 48.617272 
L 85.135898 48.661657 
L 85.117237 48.412594 
L 85.154559 48.508854 
L 85.216764 48.376412 
L 85.247866 48.700773 
L 85.260307 48.617271 
L 85.316291 48.674048 
L 85.31007 48.427066 
L 85.359834 48.602761 
L 85.412708 48.138336 
L 85.384716 48.663146 
L 85.471802 48.455092 
L 85.478022 48.66502 
L 85.530896 48.247977 
L 85.580659 48.54401 
L 85.667746 48.30686 
L 85.5931 48.682187 
L 85.689517 48.497423 
L 85.72684 48.654062 
L 85.770383 48.356238 
L 85.807706 48.598695 
L 85.8668 48.251563 
L 85.888571 48.688898 
L 85.913453 48.463857 
L 86.003649 48.689841 
L 86.000539 48.363059 
L 86.022311 48.496558 
L 86.025421 48.381088 
L 86.121838 48.697136 
L 86.128058 48.533399 
L 86.224475 48.681101 
L 86.143609 48.445309 
L 86.233806 48.60951 
L 86.333333 48.315723 
L 86.317782 48.681303 
L 86.345774 48.540764 
L 86.404868 48.652451 
L 86.376876 48.325386 
L 86.445301 48.622947 
L 86.541717 48.282732 
L 86.551048 48.654125 
L 86.554158 48.595065 
L 86.638134 48.69016 
L 86.603922 48.461029 
L 86.666126 48.652589 
L 86.700339 48.690309 
L 86.687898 48.533101 
L 86.728331 48.577926 
L 86.781204 48.322085 
L 86.768764 48.613832 
L 86.846519 48.438114 
L 86.902503 48.654313 
L 86.890062 48.224243 
L 86.946046 48.415467 
L 86.986479 48.253856 
L 86.992699 48.664189 
L 87.045573 48.575104 
L 87.092226 48.671979 
L 87.126439 48.246552 
L 87.154431 48.612954 
L 87.241517 48.326436 
L 87.232186 48.63906 
L 87.272619 48.443854 
L 87.319272 48.635776 
L 87.303721 48.282483 
L 87.341044 48.477595 
L 87.344154 48.153353 
L 87.375256 48.657879 
L 87.449902 48.51335 
L 87.465453 48.240578 
L 87.546319 48.691203 
L 87.56498 48.45199 
L 87.645846 48.639551 
L 87.627184 48.322092 
L 87.652066 48.369813 
L 87.655176 48.279804 
L 87.673838 48.686293 
L 87.754703 48.541953 
L 87.857341 48.671355 
L 87.767144 48.309975 
L 87.866671 48.638248 
L 87.897773 48.248205 
L 87.941316 48.679612 
L 87.978639 48.569374 
L 88.053284 48.683087 
L 88.022182 48.324803 
L 88.075056 48.595736 
L 88.115489 48.326887 
L 88.165252 48.674341 
L 88.183914 48.579243 
L 88.199465 48.647685 
L 88.190134 48.463684 
L 88.211906 48.509842 
L 88.215016 48.405788 
L 88.283441 48.677387 
L 88.320763 48.548658 
L 88.398519 48.291165 
L 88.386078 48.643917 
L 88.42029 48.573359 
L 88.504266 48.671619 
L 88.448282 48.307491 
L 88.526038 48.501186 
L 88.55403 48.601666 
L 88.55714 48.559204 
L 88.597573 48.671491 
L 88.582022 48.276063 
L 88.669108 48.589084 
L 88.740643 48.686269 
L 88.706431 48.329324 
L 88.765525 48.377638 
L 88.911705 48.691003 
L 88.933477 48.642855 
L 88.939697 48.397768 
L 89.039224 48.688162 
L 89.042334 48.619594 
L 89.141861 48.692918 
L 89.064106 48.483064 
L 89.157413 48.66932 
L 89.26316 48.350189 
L 89.25694 48.672477 
L 89.26627 48.505232 
L 89.350246 48.69069 
L 89.278711 48.336619 
L 89.375128 48.554841 
L 89.378238 48.388574 
L 89.40001 48.669956 
L 89.480875 48.562758 
L 89.571072 48.686484 
L 89.499537 48.482964 
L 89.589733 48.660094 
L 89.651937 48.457472 
L 89.623946 48.672804 
L 89.698591 48.469544 
L 89.704811 48.686151 
L 89.720362 48.410621 
L 89.810559 48.562403 
L 89.854102 48.348146 
L 89.903865 48.690183 
L 89.919416 48.525755 
L 89.950519 48.694431 
L 89.9754 48.401798 
L 90.031384 48.661279 
L 90.068707 48.358465 
L 90.10603 48.683152 
L 90.146462 48.549698 
L 90.149573 48.658057 
L 90.168234 48.343543 
L 90.25532 48.631446 
L 90.345517 48.403034 
L 90.320635 48.704366 
L 90.367288 48.59761 
L 90.401501 48.67055 
L 90.441933 48.374489 
L 90.460595 48.48176 
L 90.463705 48.142224 
L 90.516579 48.667478 
L 90.569452 48.487708 
L 90.581893 48.687982 
L 90.622326 48.283998 
L 90.68142 48.5744 
L 90.737404 48.18688 
L 90.706302 48.632124 
L 90.808939 48.307799 
L 90.896026 48.659758 
L 90.861813 48.290146 
L 90.920907 48.413808 
L 90.930238 48.68027 
L 90.980001 48.351521 
L 91.035985 48.600792 
L 91.079528 48.651473 
L 91.09819 48.376737 
L 91.1013 48.234633 
L 91.191496 48.662962 
L 91.203937 48.530684 
L 91.250591 48.342011 
L 91.210158 48.682374 
L 91.306575 48.38291 
L 91.309685 48.676269 
L 91.402991 48.275979 
L 91.418542 48.467655 
L 91.443424 48.667355 
L 91.480747 48.448714 
L 91.53051 48.568382 
L 91.617597 48.370095 
L 91.583384 48.665358 
L 91.642478 48.500428 
L 91.732675 48.604365 
L 91.704683 48.233695 
L 91.754446 48.530023 
L 91.80421 48.336206 
L 91.853973 48.65132 
L 91.860194 48.64091 
L 91.863304 48.65483 
L 91.872635 48.321142 
L 91.931729 48.602393 
L 92.037476 48.396366 
L 91.975272 48.668537 
L 92.043697 48.52748 
L 92.08724 48.692644 
L 92.133893 48.347794 
L 92.149444 48.546999 
L 92.211649 48.346248 
L 92.2272 48.675226 
L 92.258302 48.53418 
L 92.326727 48.628101 
L 92.276963 48.351254 
L 92.37027 48.549498 
L 92.457356 48.342445 
L 92.438695 48.69085 
L 92.482238 48.521001 
L 92.556883 48.633789 
L 92.497789 48.223694 
L 92.594206 48.600193 
L 92.706174 48.398192 
L 92.643969 48.678618 
L 92.712394 48.525732 
L 92.808811 48.308298 
L 92.827472 48.668536 
L 92.923889 48.401435 
L 92.93944 48.573224 
L 93.029636 48.673131 
L 92.998534 48.350409 
L 93.045188 48.608428 
L 93.08251 48.381435 
L 93.129164 48.674699 
L 93.154045 48.532322 
L 93.259793 48.661758 
L 93.21625 48.331589 
L 93.266013 48.62806 
L 93.287785 48.341824 
L 93.315777 48.684644 
L 93.381091 48.509403 
L 93.396642 48.688857 
L 93.465067 48.391901 
L 93.493059 48.618841 
L 93.536602 48.261719 
L 93.527272 48.676955 
L 93.605027 48.463388 
L 93.695224 48.688732 
L 93.707664 48.281105 
L 93.710775 48.379047 
L 93.713885 48.365155 
L 93.763648 48.644127 
L 93.769869 48.509044 
L 93.810302 48.6975 
L 93.850735 48.355674 
L 93.881837 48.584824 
L 93.884947 48.58641 
L 93.891167 48.564414 
L 93.897388 48.323191 
L 93.956482 48.637999 
L 94.000025 48.580145 
L 94.031127 48.686813 
L 94.012466 48.355922 
L 94.108883 48.527666 
L 94.171087 48.678607 
L 94.192859 48.424077 
L 94.20841 48.488997 
L 94.292386 48.384417 
L 94.304827 48.683732 
L 94.329708 48.494288 
L 94.332819 48.337321 
L 94.404354 48.69305 
L 94.435456 48.683838 
L 94.475889 48.440213 
L 94.444787 48.687347 
L 94.559865 48.499749 
L 94.622069 48.67363 
L 94.581636 48.440873 
L 94.668722 48.525813 
L 94.702935 48.651451 
L 94.684274 48.474299 
L 94.702935 48.651451 
" clip-path="url(#p62ac1eb9a3)" style="fill: none; stroke: #d62728; stroke-width: 0.5; stroke-linecap: square"/>
   </g>
  </g>
 </g>
 <defs>
  <clipPath id="p62ac1eb9a3">
   <rect x="0" y="-0" width="99.212598" height="51.023622"/>
  </clipPath>
 </defs>
</svg>
