<?xml version="1.0" encoding="utf-8" standalone="no"?>
<!DOCTYPE svg PUBLIC "-//W3C//DTD SVG 1.1//EN"
  "http://www.w3.org/Graphics/SVG/1.1/DTD/svg11.dtd">
<svg xmlns:xlink="http://www.w3.org/1999/xlink" width="99.212598pt" height="51.023622pt" viewBox="0 0 99.212598 51.023622" xmlns="http://www.w3.org/2000/svg" version="1.1">
 <metadata>
  <rdf:RDF xmlns:dc="http://purl.org/dc/elements/1.1/" xmlns:cc="http://creativecommons.org/ns#" xmlns:rdf="http://www.w3.org/1999/02/22-rdf-syntax-ns#">
   <cc:Work>
    <dc:type rdf:resource="http://purl.org/dc/dcmitype/StillImage"/>
    <dc:date>2024-10-30T10:51:20.064301</dc:date>
    <dc:format>image/svg+xml</dc:format>
    <dc:creator>
     <cc:Agent>
      <dc:title>Matplotlib v3.8.4, https://matplotlib.org/</dc:title>
     </cc:Agent>
    </dc:creator>
   </cc:Work>
  </rdf:RDF>
 </metadata>
 <defs>
  <style type="text/css">*{stroke-linejoin: round; stroke-linecap: butt}</style>
 </defs>
 <g id="figure_1">
  <g id="patch_1">
   <path d="M 0 51.023622 
L 99.212598 51.023622 
L 99.212598 0 
L 0 0 
L 0 51.023622 
z
" style="fill: none"/>
  </g>
  <g id="axes_1">
   <g id="patch_2">
    <path d="M 0 51.023622 
L 99.212598 51.023622 
L 99.212598 -0 
L 0 -0 
L 0 51.023622 
z
" style="fill: none"/>
   </g>
   <g id="matplotlib.axis_1">
    <g id="xtick_1"/>
    <g id="xtick_2"/>
   </g>
   <g id="matplotlib.axis_2">
    <g id="ytick_1"/>
    <g id="ytick_2"/>
   </g>
   <g id="line2d_1">
    <path d="M 4.509664 42.869024 
L 4.559427 47.386146 
L 4.59986 41.642616 
L 4.658954 34.076946 
L 4.711828 40.942179 
L 4.74293 48.587045 
L 4.836237 44.149762 
L 4.87667 46.052704 
L 4.895331 47.487389 
L 4.941984 41.626162 
L 5.02907 34.760915 
L 5.091275 36.167003 
L 5.175251 42.556029 
L 5.203243 47.948659 
L 5.249896 36.634474 
L 5.349423 2.319256 
L 5.424068 17.15301 
L 5.666665 47.389779 
L 5.744421 47.949635 
L 5.713319 46.675012 
L 5.763082 46.718416 
L 5.906152 42.408812 
L 5.834617 47.461366 
L 5.927924 42.882737 
L 6.052333 47.845976 
L 6.114537 45.597954 
L 6.170521 43.95616 
L 6.229615 45.398835 
L 6.338473 48.522766 
L 6.372685 46.203383 
L 6.385126 45.805077 
L 6.438 47.427054 
L 6.459772 47.289779 
L 6.462882 47.284451 
L 6.469102 47.423541 
L 6.487764 48.014039 
L 6.512645 46.876341 
L 6.565519 47.020846 
L 6.599731 47.191668 
L 6.665046 43.14245 
L 6.783234 38.286632 
L 6.805006 39.177334 
L 6.994729 47.397077 
L 7.084926 46.3982 
L 7.044493 47.535262 
L 7.112918 47.243759 
L 7.156461 48.642177 
L 7.237327 47.915019 
L 7.367956 45.894196 
L 7.327523 48.50045 
L 7.386617 46.269221 
L 7.405278 46.753134 
L 7.470593 44.754834 
L 7.476813 44.68608 
L 7.511026 46.137529 
L 7.57323 44.964081 
L 7.660316 47.598302 
L 7.672757 47.748497 
L 7.722521 47.374763 
L 7.753623 46.583047 
L 7.812717 48.030245 
L 7.84693 46.829476 
L 7.862481 46.486076 
L 7.909134 48.117139 
L 7.915355 48.357828 
L 7.949567 47.538627 
L 8.011771 47.757892 
L 8.027322 47.670039 
L 8.039763 47.899426 
L 8.055314 48.352239 
L 8.12996 47.26705 
L 8.13618 47.287472 
L 8.164172 47.718983 
L 8.182833 47.915762 
L 8.223266 47.24529 
L 8.235707 47.136225 
L 8.254369 47.69197 
L 8.26992 48.07111 
L 8.335234 46.767061 
L 8.353896 45.993305 
L 8.428541 47.976029 
L 8.450312 48.337117 
L 8.459643 47.99338 
L 8.56228 44.671641 
L 8.593382 45.779391 
L 8.689799 48.422091 
L 8.633815 45.39702 
L 8.730232 46.941373 
L 8.733342 46.921877 
L 8.745783 47.310215 
L 8.764445 48.579464 
L 8.854641 47.124712 
L 8.879523 46.400589 
L 8.951058 47.650976 
L 9.003932 48.544231 
L 9.044364 47.440282 
L 9.059916 47.66187 
L 9.066136 47.639647 
L 9.087907 48.014174 
L 9.094128 48.179281 
L 9.153222 46.929475 
L 9.171883 47.126093 
L 9.178104 47.183429 
L 9.224757 48.415434 
L 9.25897 46.508086 
L 9.314954 48.095595 
L 9.336725 47.251198 
L 9.467354 44.239608 
L 9.420701 47.597979 
L 9.489126 44.588556 
L 9.613535 46.709781 
L 9.747274 48.467983 
L 9.660188 46.519687 
L 9.765935 48.249698 
L 9.83436 48.479137 
L 9.787707 48.096456 
L 9.862352 48.154844 
L 9.986761 47.909134 
L 9.884124 48.353615 
L 9.989871 47.944961 
L 10.101839 48.536222 
L 10.11117 48.274284 
L 10.25424 46.605282 
L 10.269791 47.118692 
L 10.294673 48.562906 
L 10.372428 46.654288 
L 10.481286 46.154844 
L 10.490617 46.288365 
L 10.599474 47.530465 
L 10.624356 47.219947 
L 10.639907 47.158446 
L 10.664789 47.611334 
L 10.68345 48.353245 
L 10.761206 47.2733 
L 10.773647 47.513194 
L 10.894945 48.692944 
L 10.907386 48.389675 
L 11.006913 47.113026 
L 11.069118 47.868214 
L 11.125102 48.437246 
L 11.10333 47.746785 
L 11.196637 48.201597 
L 11.202857 48.094633 
L 11.230849 48.466505 
L 11.296164 48.36023 
L 11.305494 48.442868 
L 11.342817 47.379044 
L 11.370809 47.775096 
L 11.414352 47.737923 
L 11.429903 48.01838 
L 11.448565 48.619849 
L 11.498328 47.982774 
L 11.538761 48.09756 
L 11.66317 45.407478 
L 11.784468 46.280325 
L 11.943089 48.474682 
L 11.986633 47.997453 
L 12.014625 48.519524 
L 12.020845 48.701593 
L 12.058168 47.909792 
L 12.123482 48.565523 
L 12.22612 47.972331 
L 12.257222 48.318291 
L 12.266552 48.543296 
L 12.347418 47.861081 
L 12.350528 47.847416 
L 12.384741 48.117822 
L 12.400292 48.087802 
L 12.487378 48.512067 
L 12.462496 47.969674 
L 12.524701 48.389582 
L 12.79218 44.710234 
L 12.602456 48.685561 
L 12.820172 46.136539 
L 12.93525 48.433136 
L 12.845053 46.128644 
L 12.978793 47.701674 
L 13.056548 48.377871 
L 13.013005 47.522211 
L 13.106312 47.827114 
L 13.109422 47.826428 
L 13.115642 47.900749 
L 13.230721 48.456909 
L 13.180957 47.845651 
L 13.243161 48.142246 
L 13.314697 47.362223 
L 13.271153 48.146998 
L 13.355129 47.993279 
L 13.414224 48.580811 
L 13.37068 47.960998 
L 13.473318 48.370429 
L 13.488869 48.008532 
L 13.554183 48.528198 
L 13.582175 48.38509 
L 13.588396 48.473357 
L 13.613278 47.888499 
L 13.694143 47.501814 
L 13.715915 48.007972 
L 13.719025 48.007771 
L 13.722135 47.975864 
L 13.78745 48.450978 
L 13.803001 48.691147 
L 13.840324 47.646344 
L 13.880757 47.613116 
L 13.896308 47.978812 
L 13.9243 48.467021 
L 13.961622 47.805049 
L 14.002055 47.851814 
L 14.06426 45.862717 
L 14.135795 47.049715 
L 14.204219 47.902563 
L 14.247763 47.151955 
L 14.250873 47.090904 
L 14.319298 47.873468 
L 14.322408 47.838962 
L 14.35973 47.348578 
L 14.331738 47.88803 
L 14.375282 47.881352 
L 14.390833 48.661872 
L 14.437486 47.487635 
L 14.487249 48.101119 
L 14.527682 47.978151 
L 14.552564 48.394508 
L 14.652091 47.728048 
L 14.571225 48.604641 
L 14.686304 48.264157 
L 14.701855 48.565778 
L 14.736067 47.958257 
L 14.798271 48.345282 
L 14.820043 48.63849 
L 14.882247 48.210244 
L 14.907129 47.932135 
L 14.941342 48.573257 
L 14.987995 48.254544 
L 15.034648 48.065918 
L 15.106183 48.66568 
L 15.20571 47.435428 
L 15.249253 47.613554 
L 15.252364 47.602362 
L 15.264805 47.962157 
L 15.271025 48.069228 
L 15.308348 46.552567 
L 15.420316 45.442745 
L 15.314568 46.587191 
L 15.454528 46.142588 
L 15.641141 48.662359 
L 15.653582 48.418646 
L 15.700235 47.102443 
L 15.793542 47.891639 
L 15.883738 48.628929 
L 15.917951 48.233641 
L 15.986376 47.681739 
L 15.964604 48.461069 
L 16.023698 48.251539 
L 16.148107 48.638931 
L 16.095233 48.13309 
L 16.151217 48.600722 
L 16.244524 47.958838 
L 16.269406 48.258597 
L 16.300508 48.61895 
L 16.347161 48.078539 
L 16.356492 47.931423 
L 16.437357 48.376136 
L 16.47779 48.688323 
L 16.508893 47.894408 
L 16.595979 47.631163 
L 16.574207 48.64882 
L 16.61153 48.126469 
L 16.623971 48.322174 
L 16.707947 47.837571 
L 16.767041 46.503045 
L 16.823025 47.341299 
L 16.90078 48.461459 
L 16.944323 47.68709 
L 16.969205 46.989281 
L 17.046961 47.913712 
L 17.162039 48.643679 
L 17.130937 47.857892 
L 17.168259 48.508744 
L 17.190031 48.008009 
L 17.267786 48.692259 
L 17.274007 48.683321 
L 17.289558 48.60663 
L 17.348652 47.666429 
L 17.404636 48.417461 
L 17.46373 48.668391 
L 17.513494 48.426453 
L 17.566367 48.164569 
L 17.619241 48.580971 
L 17.628572 48.647212 
L 17.665894 48.297701 
L 17.706327 48.443963 
L 17.796524 47.872816 
L 17.74987 48.684175 
L 17.843177 48.170281 
L 17.939594 48.594004 
L 17.952035 48.182994 
L 17.980027 47.647824 
L 18.004908 48.60182 
L 18.008019 48.636826 
L 18.036011 47.777682 
L 18.070223 48.097295 
L 18.231954 46.131459 
L 18.16353 48.171603 
L 18.291049 46.944224 
L 18.365694 48.265941 
L 18.403017 47.09392 
L 18.406127 47.090545 
L 18.409237 47.14558 
L 18.412347 47.133632 
L 18.45589 48.670612 
L 18.542976 48.033824 
L 18.555417 47.809334 
L 18.623842 48.685309 
L 18.636283 48.567537 
L 18.682936 48.175317 
L 18.654944 48.669567 
L 18.742031 48.589881 
L 18.751361 48.608608 
L 18.763802 48.376257 
L 18.798014 47.898615 
L 18.822896 48.516671 
L 18.86955 48.450576 
L 18.891321 48.664643 
L 18.953525 48.327733 
L 18.975297 48.459339 
L 18.993958 48.194431 
L 19.062383 48.654948 
L 19.084155 48.47361 
L 19.1588 48.680979 
L 19.189902 48.528528 
L 19.270768 48.085948 
L 19.292539 48.560495 
L 19.30187 48.455212 
L 19.317421 48.655671 
L 19.339193 48.23936 
L 19.345413 48.242456 
L 19.395177 47.937677 
L 19.44183 48.389612 
L 19.451161 48.701512 
L 19.541357 48.238183 
L 19.547578 48.282347 
L 19.556908 48.386654 
L 19.569349 48.53184 
L 19.591121 48.280934 
L 19.675097 48.520464 
L 19.740411 47.89009 
L 19.799505 48.369387 
L 19.830608 48.632287 
L 19.843048 48.245909 
L 19.892812 48.58516 
L 19.967457 47.42056 
L 20.110527 48.642353 
L 20.119858 48.444968 
L 20.231826 47.943256 
L 20.200724 48.671369 
L 20.244267 48.13986 
L 20.275369 48.621625 
L 20.381116 48.496941 
L 20.496195 48.093485 
L 20.399778 48.642037 
L 20.517966 48.180845 
L 20.620603 48.658737 
L 20.533517 48.176503 
L 20.642375 48.522877 
L 20.71391 48.361544 
L 20.664147 48.659114 
L 20.741902 48.596862 
L 20.748122 48.657251 
L 20.816547 48.190003 
L 20.832098 48.363897 
L 20.881862 47.897795 
L 20.85698 48.466822 
L 20.937846 48.449057 
L 21.015601 48.624137 
L 20.987609 47.730843 
L 21.028042 48.058243 
L 21.161782 47.47368 
L 21.062255 48.551804 
L 21.164892 47.496848 
L 21.183553 47.698065 
L 21.220876 46.525593 
L 21.242647 46.158997 
L 21.311072 47.718096 
L 21.379497 48.56072 
L 21.351505 47.184054 
L 21.432371 48.211552 
L 21.435481 48.196563 
L 21.457253 48.565705 
L 21.460363 48.651229 
L 21.541229 47.847161 
L 21.553669 47.691382 
L 21.575441 48.453267 
L 21.634535 48.360164 
L 21.746503 48.566733 
L 21.730952 48.290675 
L 21.752724 48.455498 
L 21.768275 48.148384 
L 21.855361 48.645528 
L 21.942447 48.292695 
L 21.998431 48.425635 
L 22.010872 48.665501 
L 22.032643 48.223658 
L 22.107289 48.422857 
L 22.110399 48.417775 
L 22.12906 48.581853 
L 22.135281 48.57367 
L 22.237918 48.673041 
L 22.163273 47.991334 
L 22.244138 48.597807 
L 22.325004 48.082346 
L 22.374768 48.24274 
L 22.41209 48.622577 
L 22.443192 47.868518 
L 22.492956 48.500318 
L 22.508507 48.201523 
L 22.54894 48.627858 
L 22.601814 48.570627 
L 22.670238 48.677287 
L 22.642246 48.344892 
L 22.710671 48.560087 
L 22.83508 47.254969 
L 22.794647 48.568095 
L 22.856852 47.743687 
L 22.859962 47.736922 
L 22.875513 47.905046 
L 22.928387 48.670218 
L 22.993701 48.088457 
L 23.065236 47.970689 
L 23.018583 48.490145 
L 23.090118 48.314938 
L 23.198976 48.646321 
L 23.211417 48.426538 
L 23.217637 48.311478 
L 23.304723 48.585196 
L 23.320274 48.455974 
L 23.429132 48.609035 
L 23.348266 48.056055 
L 23.435353 48.562009 
L 23.503777 48.193018 
L 23.447793 48.700968 
L 23.556651 48.482471 
L 23.572202 48.694531 
L 23.637517 48.133161 
L 23.653068 48.28669 
L 23.662399 48.26672 
L 23.68106 48.534146 
L 23.752595 48.661772 
L 23.709052 48.312741 
L 23.783697 48.335607 
L 23.793028 48.320215 
L 23.805469 48.500138 
L 23.814799 48.609947 
L 23.892555 48.279585 
L 23.914326 48.484792 
L 23.9672 48.106515 
L 23.945429 48.674955 
L 24.001413 48.549641 
L 24.004523 48.630364 
L 24.032515 48.384292 
L 24.10716 48.466945 
L 24.181805 48.087664 
L 24.216018 48.486286 
L 24.25334 48.595821 
L 24.272002 47.836448 
L 24.284443 47.552789 
L 24.334206 48.387222 
L 24.374639 48.084427 
L 24.39019 48.108902 
L 24.408851 47.877383 
L 24.458615 46.912322 
L 24.53326 47.462875 
L 24.545701 47.431518 
L 24.561252 47.606323 
L 24.645228 48.592625 
L 24.679441 47.883506 
L 24.691881 47.718167 
L 24.744755 48.65438 
L 24.775857 48.524475 
L 24.834952 48.230737 
L 24.782078 48.573275 
L 24.897156 48.451464 
L 24.962471 48.670518 
L 24.934479 48.166886 
L 24.990463 48.289344 
L 25.002903 48.213904 
L 25.030895 48.606104 
L 25.09621 48.334253 
L 25.205068 48.670434 
L 25.127312 48.211128 
L 25.214398 48.554154 
L 25.313925 48.122485 
L 25.264162 48.635575 
L 25.354358 48.35624 
L 25.438334 48.65374 
L 25.37924 48.250787 
L 25.460106 48.249919 
L 25.472547 48.151908 
L 25.556523 48.617512 
L 25.559633 48.538308 
L 25.677821 48.175423 
L 25.578294 48.664773 
L 25.687152 48.43988 
L 25.693372 48.68417 
L 25.761797 48.258683 
L 25.79601 48.456188 
L 25.814671 48.37174 
L 25.898647 48.274734 
L 25.851994 48.641565 
L 25.911088 48.615413 
L 25.914198 48.670308 
L 25.9453 48.19161 
L 26.013725 48.49853 
L 26.181677 47.950076 
L 26.075929 48.5953 
L 26.191008 47.980861 
L 26.274983 48.554644 
L 26.321637 48.259701 
L 26.327857 48.238335 
L 26.377621 48.444197 
L 26.455376 48.644104 
L 26.489589 48.484279 
L 26.50514 48.178894 
L 26.576675 48.682984 
L 26.598446 48.579097 
L 26.704194 48.679005 
L 26.629549 48.054061 
L 26.710414 48.656442 
L 26.772619 48.441929 
L 26.753957 48.679276 
L 26.825492 48.560621 
L 26.828603 48.660619 
L 26.865925 48.175768 
L 26.92813 48.383917 
L 27.002775 48.029647 
L 26.943681 48.530031 
L 27.027657 48.398408 
L 27.114743 48.703814 
L 27.133404 48.249823 
L 27.198719 48.205396 
L 27.170727 48.467884 
L 27.226711 48.396338 
L 27.279585 48.695595 
L 27.251593 48.243103 
L 27.338679 48.561885 
L 27.410214 48.061053 
L 27.376001 48.661385 
L 27.450647 48.52325 
L 27.459977 48.572813 
L 27.531512 48.15979 
L 27.655921 47.71137 
L 27.559504 48.398174 
L 27.668362 47.755215 
L 27.78033 48.642732 
L 27.792771 48.270732 
L 27.873637 46.908412 
L 27.92029 47.499638 
L 28.016707 48.685747 
L 28.050919 48.489792 
L 28.088242 48.036354 
L 28.128675 48.628735 
L 28.159777 48.50383 
L 28.259304 48.63747 
L 28.228202 48.293124 
L 28.271745 48.51488 
L 28.287296 48.315577 
L 28.365051 48.581866 
L 28.368162 48.614802 
L 28.424146 48.122652 
L 28.470799 48.566739 
L 28.48946 48.287153 
L 28.554775 48.68425 
L 28.588987 48.411846 
L 28.616979 48.638329 
L 28.691624 48.375186 
L 28.697845 48.393716 
L 28.778711 47.995007 
L 28.728947 48.63664 
L 28.806703 48.406753 
L 28.853356 48.662763 
L 28.903119 48.273992 
L 28.918671 48.189171 
L 28.996426 48.62941 
L 28.999536 48.657098 
L 29.036859 48.069211 
L 29.067961 48.365147 
L 29.080402 48.068681 
L 29.099063 48.606091 
L 29.173709 48.537996 
L 29.273236 48.184832 
L 29.251464 48.638256 
L 29.288787 48.363891 
L 29.301228 48.691064 
L 29.366542 48.16521 
L 29.403865 48.437923 
L 29.434967 48.009285 
L 29.47851 48.67195 
L 29.503392 48.595945 
L 29.506502 48.667454 
L 29.584258 48.027756 
L 29.590478 48.060027 
L 29.680674 48.551901 
L 29.649572 47.996991 
L 29.721107 48.247548 
L 29.724218 48.208412 
L 29.783312 48.658331 
L 29.817524 48.393131 
L 29.917051 48.644563 
L 29.833075 48.292267 
L 29.948153 48.504631 
L 29.994807 48.29151 
L 30.03835 48.684928 
L 30.053901 48.519998 
L 30.060121 48.592358 
L 30.075672 48.353779 
L 30.153428 48.435667 
L 30.172089 48.28253 
L 30.240514 48.676056 
L 30.252955 48.641179 
L 30.31827 48.352672 
L 30.349372 48.687569 
L 30.380474 48.495033 
L 30.427127 48.660303 
L 30.46134 48.405608 
L 30.492442 48.515419 
L 30.595079 48.247353 
L 30.535985 48.644963 
L 30.61063 48.339256 
L 30.694606 48.230304 
L 30.728819 48.612058 
L 30.759921 48.687305 
L 30.803464 48.374257 
L 30.831456 48.554567 
L 30.921652 48.165508 
L 30.88433 48.679112 
L 30.937203 48.502345 
L 30.943424 48.681235 
L 31.02429 48.182395 
L 31.046061 48.448335 
L 31.086494 48.064755 
L 31.111376 48.687058 
L 31.158029 48.377141 
L 31.269997 48.525327 
L 31.238895 48.114314 
L 31.273107 48.510533 
L 31.322871 48.625128 
L 31.341532 48.247673 
L 31.353973 48.329153 
L 31.422398 47.151581 
L 31.375744 48.446221 
L 31.465941 48.309696 
L 31.515704 47.591525 
L 31.562358 48.381649 
L 31.568578 48.355494 
L 31.574798 48.492344 
L 31.624562 48.014951 
L 31.674326 48.192716 
L 31.677436 48.169263 
L 31.708538 48.681157 
L 31.758301 48.331564 
L 31.854718 48.658206 
L 31.820506 48.310108 
L 31.8796 48.539778 
L 31.898261 48.384166 
L 31.979127 48.621337 
L 31.982237 48.595787 
L 32.041331 48.669 
L 32.01956 48.444944 
L 32.097315 48.62557 
L 32.203063 48.488526 
L 32.16263 48.681348 
L 32.215504 48.589713 
L 32.265267 48.659468 
L 32.243496 48.432936 
L 32.318141 48.481337 
L 32.436329 48.025017 
L 32.364794 48.637272 
L 32.473652 48.315156 
L 32.58873 48.70171 
L 32.551408 48.268456 
L 32.598061 48.543987 
L 32.672706 48.312085 
L 32.688257 48.608821 
L 32.694478 48.694295 
L 32.719359 48.375119 
L 32.797115 48.598751 
L 32.815776 48.67614 
L 32.853099 48.339671 
L 32.86243 48.190645 
L 32.949516 48.666252 
L 32.952626 48.604676 
L 33.064594 48.10701 
L 33.01483 48.689319 
L 33.089476 48.282555 
L 33.123688 48.697618 
L 33.198333 48.200501 
L 33.210774 48.054321 
L 33.260538 48.580476 
L 33.29475 48.300653 
L 33.388057 48.667232 
L 33.356955 48.170172 
L 33.409828 48.472522 
L 33.462702 48.32006 
L 33.515576 48.646074 
L 33.518686 48.495855 
L 33.57156 48.15909 
L 33.546678 48.578853 
L 33.618213 48.528827 
L 33.699079 48.669846 
L 33.649315 48.503818 
L 33.727071 48.52263 
L 33.739512 48.348015 
L 33.786165 48.639832 
L 33.832818 48.564633 
L 33.835928 48.57464 
L 33.85148 48.347671 
L 33.873251 48.393878 
L 33.876361 48.325412 
L 33.932345 48.660292 
L 33.975888 48.565374 
L 34.013211 48.227629 
L 33.982109 48.684206 
L 34.084746 48.571759 
L 34.103407 48.635425 
L 34.128289 48.423058 
L 34.184273 48.559005 
L 34.206045 48.372244 
L 34.240257 48.687565 
L 34.28691 48.65144 
L 34.293131 48.67261 
L 34.308682 48.430231 
L 34.333564 48.482052 
L 34.339784 48.363916 
L 34.414429 48.65436 
L 34.436201 48.549411 
L 34.507736 48.684384 
L 34.535728 48.460055 
L 34.601043 48.346419 
L 34.625924 48.670122 
L 34.644586 48.505357 
L 34.660137 48.614465 
L 34.681908 48.274331 
L 34.685019 48.28549 
L 34.691239 48.152557 
L 34.71301 48.60339 
L 34.784546 48.422482 
L 34.874742 48.631831 
L 34.85297 48.200347 
L 34.896513 48.490293 
L 34.968049 48.087413 
L 35.005371 48.510044 
L 35.036473 48.668011 
L 35.055135 48.288123 
L 35.108008 48.428519 
L 35.136 47.639788 
L 35.229307 48.076754 
L 35.232417 48.055221 
L 35.257299 48.657365 
L 35.40659 48.030318 
L 35.422141 48.345514 
L 35.431471 48.662317 
L 35.537219 48.558834 
L 35.568321 48.486724 
L 35.618085 48.691373 
L 35.633636 48.634041 
L 35.639856 48.677007 
L 35.686509 48.378135 
L 35.69273 48.431376 
L 35.726942 48.168208 
L 35.748714 48.614029 
L 35.798477 48.443595 
L 35.882453 48.633669 
L 35.916666 48.58406 
L 35.969539 48.361423 
L 36.006862 48.676805 
L 36.028634 48.586057 
L 36.109499 48.627383 
L 36.047295 48.365066 
L 36.11883 48.495646 
L 36.196585 48.662125 
L 36.12505 48.482893 
L 36.212137 48.444326 
L 36.227688 48.352307 
L 36.311664 48.568871 
L 36.327215 48.691944 
L 36.39875 48.286003 
L 36.40497 48.290723 
L 36.417411 48.273144 
L 36.436072 48.526653 
L 36.476505 48.516131 
L 36.520048 48.636583 
L 36.535599 48.324666 
L 36.582253 48.460192 
L 36.594694 48.347948 
L 36.610245 48.587389 
L 36.688 48.514198 
L 36.697331 48.683529 
L 36.722213 48.40741 
L 36.799968 48.544189 
L 36.887054 48.126875 
L 36.921267 48.440263 
L 36.999022 48.678891 
L 37.030124 48.450148 
L 37.036345 48.368422 
L 37.073668 48.693291 
L 37.129651 48.576457 
L 37.132762 48.58719 
L 37.160754 48.332269 
L 37.170084 48.205472 
L 37.216738 48.631663 
L 37.260281 48.513743 
L 37.272722 48.688454 
L 37.303824 48.29689 
L 37.369138 48.470568 
L 37.456225 48.633272 
L 37.434453 48.359972 
L 37.471776 48.46955 
L 37.496657 48.185282 
L 37.52776 48.678574 
L 37.574413 48.515763 
L 37.617956 48.651312 
L 37.599295 48.475646 
L 37.686381 48.579217 
L 37.801459 48.329975 
L 37.773467 48.64866 
L 37.807679 48.410733 
L 37.857443 48.65976 
L 37.888545 48.377838 
L 37.916537 48.465282 
L 37.938309 48.680687 
L 38.031615 48.363762 
L 38.156024 48.648771 
L 38.159134 48.60878 
L 38.184016 48.652618 
L 38.299094 48.273301 
L 38.37996 48.623047 
L 38.426613 48.587372 
L 38.52614 48.383492 
L 38.513699 48.629977 
L 38.541691 48.515166 
L 38.582124 48.689615 
L 38.607006 48.095339 
L 38.653659 48.633727 
L 38.778068 48.149878 
L 38.681651 48.690651 
L 38.80295 48.354604 
L 38.893146 48.651693 
L 38.908697 48.344262 
L 39.020665 47.729586 
L 38.94913 48.650016 
L 39.033106 47.941658 
L 39.129523 48.64767 
L 39.160625 48.610589 
L 39.182397 48.661936 
L 39.204168 48.420081 
L 39.250822 48.50954 
L 39.328577 48.107933 
L 39.297475 48.686506 
L 39.362789 48.449716 
L 39.400112 48.338229 
L 39.449876 48.586368 
L 39.471647 48.372958 
L 39.558733 48.660926 
L 39.51208 48.357897 
L 39.586725 48.557167 
L 39.676922 48.683135 
L 39.661371 48.454753 
L 39.692473 48.511565 
L 39.720465 48.393448 
L 39.764008 48.667933 
L 39.779559 48.611097 
L 39.829322 48.679242 
L 39.863535 48.323617 
L 39.869755 48.360242 
L 39.897747 48.286562 
L 39.92885 48.586298 
L 39.947511 48.564546 
L 40.015936 48.683089 
L 39.997274 48.527227 
L 40.059479 48.612079 
L 40.193218 48.313046 
L 40.124793 48.654458 
L 40.199439 48.388083 
L 40.202549 48.385703 
L 40.21499 48.497977 
L 40.298966 48.673005 
L 40.267864 48.369369 
L 40.326958 48.548079 
L 40.426485 48.195706 
L 40.370501 48.696925 
L 40.442036 48.299204 
L 40.454477 48.651408 
L 40.557114 48.548877 
L 40.578886 48.596753 
L 40.606877 48.215926 
L 40.653531 48.453223 
L 40.759278 48.340316 
L 40.678413 48.617599 
L 40.771719 48.412766 
L 40.877467 48.663811 
L 40.77794 48.378544 
L 40.896128 48.430201 
L 40.902348 48.340277 
L 40.917899 48.6092 
L 41.001875 48.536932 
L 41.014316 48.46904 
L 41.036088 48.684501 
L 41.104513 48.569527 
L 41.160497 48.641652 
L 41.129394 48.348463 
L 41.188489 48.425358 
L 41.272465 48.309688 
L 41.260024 48.482726 
L 41.294236 48.46902 
L 41.399984 48.694479 
L 41.344 48.342317 
L 41.412424 48.535629 
L 41.449747 48.392103 
L 41.48707 48.661611 
L 41.511952 48.646734 
L 41.521282 48.699149 
L 41.539944 48.408624 
L 41.561715 48.477326 
L 41.574156 48.355155 
L 41.599038 48.644578 
L 41.667463 48.59864 
L 41.77632 48.656807 
L 41.701675 48.465543 
L 41.785651 48.599703 
L 41.857186 48.532361 
L 41.819863 48.665589 
L 41.875847 48.639224 
L 41.894509 48.683718 
L 41.966044 48.474657 
L 41.975374 48.457713 
L 41.987815 48.683438 
L 42.05935 48.568352 
L 42.112224 48.695736 
L 42.158877 48.547874 
L 42.224192 48.228134 
L 42.252184 48.609575 
L 42.273955 48.442671 
L 42.389034 48.61741 
L 42.298837 48.350574 
L 42.398364 48.604105 
L 42.466789 48.269823 
L 42.445018 48.670171 
L 42.513442 48.554124 
L 42.584977 48.656953 
L 42.535214 48.390628 
L 42.61608 48.408798 
L 42.637851 48.312154 
L 42.675174 48.665145 
L 42.718717 48.518315 
L 42.75604 48.690853 
L 42.771591 48.329102 
L 42.784032 48.360619 
L 42.874228 48.199971 
L 42.840015 48.563764 
L 42.886669 48.41124 
L 42.939543 48.69351 
L 42.998637 48.426089 
L 43.035959 48.022357 
L 43.107494 48.334112 
L 43.172809 48.674072 
L 43.141707 48.321594 
L 43.219462 48.396148 
L 43.241234 48.223036 
L 43.247454 48.135511 
L 43.294108 48.650583 
L 43.350092 48.243775 
L 43.353202 48.212575 
L 43.409186 48.700906 
L 43.421627 48.625395 
L 43.430957 48.701233 
L 43.477611 48.471811 
L 43.518043 48.490671 
L 43.524264 48.371032 
L 43.577138 48.684566 
L 43.620681 48.518823 
L 43.651783 48.656096 
L 43.685995 48.303766 
L 43.729538 48.52287 
L 43.7482 48.269582 
L 43.813514 48.630716 
L 43.844617 48.438678 
L 43.919262 48.693559 
L 43.872609 48.374613 
L 43.959695 48.59131 
L 43.972136 48.469478 
L 44.059222 48.656717 
L 44.065442 48.64719 
L 44.080993 48.454991 
L 44.102765 48.658228 
L 44.1743 48.616202 
L 44.17741 48.685898 
L 44.196071 48.442944 
L 44.276937 48.452086 
L 44.336031 48.688048 
L 44.395126 48.517318 
L 44.398236 48.458186 
L 44.435558 48.649782 
L 44.500873 48.601859 
L 44.507093 48.664564 
L 44.553747 48.313861 
L 44.591069 48.394361 
L 44.59729 48.331828 
L 44.615951 48.604199 
L 44.668825 48.592531 
L 44.718588 48.676853 
L 44.73725 48.401929 
L 44.777683 48.641756 
L 44.861659 48.316713 
L 44.783903 48.652852 
L 44.895871 48.554906 
L 44.898981 48.556293 
L 44.902091 48.504363 
L 44.914532 48.363472 
L 44.976737 48.672057 
L 45.010949 48.491451 
L 45.076264 48.619982 
L 45.051382 48.241817 
L 45.119807 48.471121 
L 45.194452 48.65675 
L 45.225554 48.484225 
L 45.228664 48.413554 
L 45.3002 48.644928 
L 45.331302 48.55986 
L 45.430829 48.675466 
L 45.412167 48.504654 
L 45.440159 48.627162 
L 45.4526 48.406856 
L 45.521025 48.688642 
L 45.555238 48.493022 
L 45.570789 48.477943 
L 45.601891 48.656364 
L 45.620552 48.528132 
L 45.692087 48.698097 
L 45.670316 48.479862 
L 45.72941 48.496449 
L 45.738741 48.371206 
L 45.825827 48.677887 
L 45.832047 48.617642 
L 45.860039 48.641488 
L 45.838268 48.577313 
L 45.87248 48.559124 
L 45.965787 48.455612 
L 45.931574 48.681887 
L 45.981338 48.586375 
L 45.984448 48.588615 
L 45.990668 48.494953 
L 46.003109 48.394845 
L 46.027991 48.671735 
L 46.099526 48.49913 
L 46.186612 48.703133 
L 46.121298 48.411511 
L 46.220825 48.623503 
L 46.29858 48.463728 
L 46.270588 48.65677 
L 46.320352 48.646494 
L 46.329682 48.691027 
L 46.388777 48.418731 
L 46.413658 48.541622 
L 46.44165 48.171585 
L 46.478973 48.697243 
L 46.525626 48.524358 
L 46.634484 48.634248 
L 46.590941 48.375455 
L 46.640704 48.588678 
L 46.734011 48.3301 
L 46.681137 48.66974 
L 46.752672 48.493898 
L 46.765113 48.648313 
L 46.808656 48.273691 
L 46.86153 48.445042 
L 46.933065 48.373898 
L 46.901963 48.638043 
L 46.964167 48.468255 
L 46.976608 48.613688 
L 47.017041 48.29776 
L 47.048143 48.345434 
L 47.051253 48.263568 
L 47.113458 48.599163 
L 47.160111 48.316525 
L 47.178772 48.520392 
L 47.184993 48.69236 
L 47.247197 48.273888 
L 47.28452 48.507937 
L 47.300071 48.165611 
L 47.359165 48.653586 
L 47.390267 48.571849 
L 47.393378 48.609325 
L 47.433811 48.28615 
L 47.477354 48.336409 
L 47.492905 48.269986 
L 47.520897 48.643095 
L 47.558219 48.540373 
L 47.645305 48.669782 
L 47.629754 48.374195 
L 47.667077 48.589052 
L 47.682628 48.221008 
L 47.763494 48.614136 
L 47.779045 48.551589 
L 47.866131 48.487109 
L 47.84436 48.655599 
L 47.884792 48.568774 
L 47.894123 48.666445 
L 47.943887 48.365899 
L 47.98743 48.397148 
L 47.99676 48.311831 
L 48.040303 48.68967 
L 48.049634 48.613175 
L 48.158492 48.693671 
L 48.090067 48.427544 
L 48.161602 48.635445 
L 48.226917 48.687145 
L 48.208255 48.534232 
L 48.245578 48.585942 
L 48.317113 48.304082 
L 48.289121 48.687591 
L 48.348215 48.625534 
L 48.388648 48.697459 
L 48.407309 48.489293 
L 48.450852 48.506884 
L 48.522388 48.685685 
L 48.55349 48.462895 
L 48.572151 48.457373 
L 48.590812 48.615806 
L 48.593923 48.694313 
L 48.681009 48.350133 
L 48.69656 48.573301 
L 48.786756 48.34607 
L 48.712111 48.589855 
L 48.805418 48.530094 
L 48.855181 48.673015 
L 48.908055 48.497685 
L 48.917385 48.603657 
L 48.936047 48.687716 
L 48.995141 48.466999 
L 49.016913 48.512575 
L 49.113329 48.387343 
L 49.085337 48.635312 
L 49.131991 48.446405 
L 49.26884 48.678577 
L 49.175534 48.33098 
L 49.275061 48.665067 
L 49.312383 48.395304 
L 49.39947 48.43627 
L 49.424351 48.691573 
L 49.452343 48.355651 
L 49.517658 48.610554 
L 49.54876 48.326495 
L 49.576752 48.691042 
L 49.626516 48.52651 
L 49.635846 48.680965 
L 49.732263 48.368925 
L 49.738484 48.287106 
L 49.816239 48.640498 
L 49.82557 48.612924 
L 49.866003 48.671179 
L 49.884664 48.456623 
L 49.921987 48.52867 
L 49.928207 48.425405 
L 49.953089 48.651454 
L 50.021514 48.606885 
L 50.11171 48.685679 
L 50.043285 48.531962 
L 50.127261 48.580159 
L 50.233009 48.378098 
L 50.155253 48.67933 
L 50.242339 48.402348 
L 50.313874 48.645507 
L 50.354307 48.49973 
L 50.432063 48.373613 
L 50.416512 48.692803 
L 50.450724 48.574683 
L 50.53781 48.697096 
L 50.503598 48.529251 
L 50.556471 48.527604 
L 50.659109 48.437836 
L 50.637337 48.684611 
L 50.665329 48.481364 
L 50.721313 48.697068 
L 50.752415 48.420972 
L 50.783518 48.645166 
L 50.848832 48.672763 
L 50.81773 48.447249 
L 50.873714 48.494423 
L 50.920367 48.339548 
L 50.96391 48.561704 
L 50.96702 48.555958 
L 51.066548 48.694595 
L 51.041666 48.286858 
L 51.075878 48.613731 
L 51.125642 48.290771 
L 51.187846 48.544376 
L 51.309145 48.271008 
L 51.24694 48.595473 
L 51.315365 48.316683 
L 51.38379 48.134216 
L 51.330916 48.455661 
L 51.402451 48.44609 
L 51.414892 48.607286 
L 51.508199 48.351488 
L 51.592175 48.675674 
L 51.539301 48.135279 
L 51.641938 48.516923 
L 51.707253 48.331731 
L 51.66993 48.67185 
L 51.747686 48.540905 
L 51.757016 48.638009 
L 51.828551 48.209645 
L 51.859654 48.579483 
L 51.906307 48.316151 
L 51.878315 48.624179 
L 51.971622 48.552215 
L 52.124022 48.701486 
L 52.136463 48.590158 
L 52.220439 48.486865 
L 52.198668 48.67116 
L 52.251541 48.488962 
L 52.338628 48.689196 
L 52.273313 48.407405 
L 52.363509 48.596742 
L 52.382171 48.481007 
L 52.466147 48.646735 
L 52.472367 48.581493 
L 52.494139 48.445745 
L 52.584335 48.696165 
L 52.643429 48.516009 
L 52.699413 48.651905 
L 52.789609 48.423928 
L 52.708744 48.674986 
L 52.833153 48.599924 
L 52.867365 48.700991 
L 52.901577 48.371328 
L 52.93268 48.554607 
L 52.93579 48.451873 
L 52.957561 48.6825 
L 53.038427 48.612798 
L 53.131734 48.682748 
L 53.113072 48.354325 
L 53.141064 48.502715 
L 53.144175 48.453572 
L 53.209489 48.677813 
L 53.243702 48.620875 
L 53.312126 48.70015 
L 53.287245 48.410905 
L 53.327678 48.487595 
L 53.427205 48.357533 
L 53.36189 48.631716 
L 53.439645 48.452693 
L 53.495629 48.414416 
L 53.467637 48.643314 
L 53.51118 48.545841 
L 53.592046 48.662274 
L 53.567164 48.505707 
L 53.626259 48.593422 
L 53.704014 48.429901 
L 53.632479 48.656151 
L 53.741337 48.539441 
L 53.812872 48.703466 
L 53.834643 48.356459 
L 53.843974 48.356892 
L 53.965273 48.656926 
L 53.980824 48.50053 
L 53.990154 48.43821 
L 54.008816 48.679022 
L 54.086571 48.548372 
L 54.099012 48.679787 
L 54.186098 48.482163 
L 54.198539 48.333286 
L 54.223421 48.68835 
L 54.294956 48.491932 
L 54.431806 48.663147 
L 54.441136 48.555809 
L 54.475349 48.36351 
L 54.537553 48.661981 
L 54.556214 48.453408 
L 54.646411 48.640485 
L 54.602868 48.382156 
L 54.668182 48.513043 
L 54.674403 48.433994 
L 54.693064 48.617375 
L 54.742828 48.685849 
L 54.761489 48.519275 
L 54.801922 48.617993 
L 54.873457 48.433276 
L 54.92322 48.583319 
L 54.929441 48.695018 
L 55.022747 48.47338 
L 55.025858 48.482032 
L 55.038299 48.339155 
L 55.075621 48.672771 
L 55.125385 48.60389 
L 55.159597 48.689594 
L 55.218691 48.463679 
L 55.228022 48.529002 
L 55.284006 48.480887 
L 55.256014 48.667458 
L 55.321329 48.594947 
L 55.395974 48.666885 
L 55.361761 48.437977 
L 55.405305 48.492268 
L 55.498611 48.399369 
L 55.473729 48.653872 
L 55.501721 48.495108 
L 55.570146 48.677431 
L 55.604359 48.357445 
L 55.607469 48.36785 
L 55.694555 48.639877 
L 55.644791 48.310016 
L 55.734988 48.470103 
L 55.818964 48.255297 
L 55.77231 48.555454 
L 55.834515 48.481101 
L 55.850066 48.688669 
L 55.887389 48.254699 
L 55.946483 48.512495 
L 56.011797 48.655401 
L 56.014908 48.685039 
L 56.077112 48.370145 
L 56.105104 48.499752 
L 56.19219 48.136182 
L 56.210851 48.519018 
L 56.217072 48.618329 
L 56.257505 48.385753 
L 56.276166 48.385144 
L 56.279276 48.353127 
L 56.344591 48.691329 
L 56.360142 48.603423 
L 56.363252 48.665958 
L 56.431677 48.360629 
L 56.462779 48.436353 
L 56.503212 48.690527 
L 56.584078 48.623021 
L 56.705376 48.405384 
L 56.655613 48.679377 
L 56.714707 48.483859 
L 56.798683 48.38797 
L 56.742699 48.565515 
L 56.823565 48.47515 
L 56.926202 48.689201 
L 56.845336 48.404989 
L 56.938643 48.63612 
L 56.994627 48.68686 
L 57.056831 48.565902 
L 57.097264 48.700589 
L 57.162579 48.525784 
L 57.165689 48.526039 
L 57.203012 48.43983 
L 57.237224 48.633074 
L 57.268326 48.595946 
L 57.361633 48.655343 
L 57.31498 48.49396 
L 57.374074 48.545671 
L 57.377184 48.509497 
L 57.445609 48.680624 
L 57.482931 48.569145 
L 57.529585 48.444988 
L 57.576238 48.672644 
L 57.579348 48.68105 
L 57.613561 48.471967 
L 57.669545 48.367355 
L 57.660214 48.618465 
L 57.694426 48.594565 
L 57.781513 48.698181 
L 57.7473 48.463515 
L 57.803284 48.54933 
L 57.905921 48.391328 
L 57.849937 48.682057 
L 57.912142 48.551249 
L 57.933913 48.676301 
L 57.965016 48.4424 
L 58.021 48.551966 
L 58.02411 48.556468 
L 58.048992 48.417122 
L 58.061432 48.366809 
L 58.126747 48.650685 
L 58.145408 48.57295 
L 58.220054 48.695024 
L 58.16718 48.513821 
L 58.254266 48.553465 
L 58.30403 48.693168 
L 58.31647 48.482506 
L 58.366234 48.562464 
L 58.468871 48.388142 
L 58.400446 48.688328 
L 58.490643 48.446991 
L 58.5995 48.688327 
L 58.605721 48.585751 
L 58.723909 48.405433 
L 58.621272 48.622496 
L 58.73013 48.460162 
L 58.842098 48.652762 
L 58.758122 48.44798 
L 58.851428 48.574324 
L 58.882531 48.477344 
L 58.907412 48.679282 
L 58.957176 48.621795 
L 58.969617 48.487142 
L 59.069144 48.699716 
L 59.118907 48.483281 
L 59.181112 48.66516 
L 59.280639 48.261955 
L 59.317961 48.445908 
L 59.383276 48.668002 
L 59.408158 48.398805 
L 59.44237 48.572872 
L 59.485913 48.394331 
L 59.541897 48.63558 
L 59.548118 48.571887 
L 59.635204 48.686427 
L 59.653865 48.567078 
L 59.688078 48.503048 
L 59.7254 48.690639 
L 59.762723 48.582109 
L 59.877801 48.699374 
L 59.831148 48.515783 
L 59.887132 48.692336 
L 59.936895 48.391049 
L 60.00532 48.465658 
L 60.114178 48.690132 
L 60.01154 48.438357 
L 60.123508 48.579895 
L 60.191933 48.357736 
L 60.157721 48.678573 
L 60.235476 48.503782 
L 60.300791 48.347939 
L 60.279019 48.691863 
L 60.347444 48.506587 
L 60.437641 48.680786 
L 60.394097 48.374196 
L 60.450081 48.512005 
L 60.465633 48.342017 
L 60.506065 48.657373 
L 60.555829 48.587314 
L 60.627364 48.339468 
L 60.56516 48.592756 
L 60.680238 48.494581 
L 60.795316 48.693517 
L 60.702009 48.252839 
L 60.804647 48.579638 
L 60.817087 48.331782 
L 60.85752 48.650837 
L 60.913504 48.583014 
L 60.929055 48.478911 
L 61.003701 48.700793 
L 61.013031 48.63029 
L 61.118779 48.692781 
L 61.056574 48.553757 
L 61.124999 48.626848 
L 61.13744 48.50306 
L 61.190314 48.677595 
L 61.233857 48.62322 
L 61.330274 48.685641 
L 61.246298 48.578892 
L 61.336494 48.64892 
L 61.389368 48.431218 
L 61.41736 48.679037 
L 61.451572 48.507501 
L 61.504446 48.630514 
L 61.535548 48.487081 
L 61.547989 48.408747 
L 61.607083 48.675304 
L 61.641296 48.599963 
L 61.650626 48.681959 
L 61.691059 48.523516 
L 61.753264 48.655883 
L 61.809248 48.5094 
L 61.768815 48.666443 
L 61.868342 48.599379 
L 61.890113 48.690866 
L 61.946097 48.535511 
L 61.98031 48.623587 
L 62.030073 48.668323 
L 62.070506 48.501753 
L 62.073616 48.561024 
L 62.117159 48.416971 
L 62.154482 48.692572 
L 62.179364 48.629485 
L 62.222907 48.639956 
L 62.188694 48.609755 
L 62.229127 48.58895 
L 62.288221 48.468175 
L 62.260229 48.686275 
L 62.341095 48.574189 
L 62.384638 48.684874 
L 62.40952 48.417972 
L 62.449953 48.539551 
L 62.580582 48.66877 
L 62.477945 48.444017 
L 62.593023 48.600697 
L 62.698771 48.364388 
L 62.658338 48.633833 
L 62.717432 48.409466 
L 62.751644 48.684893 
L 62.83873 48.526042 
L 62.916486 48.524651 
L 62.872943 48.690241 
L 62.922706 48.604159 
L 62.944478 48.6712 
L 62.988021 48.458399 
L 63.028454 48.626072 
L 63.053336 48.427657 
L 63.081328 48.665948 
L 63.143532 48.502835 
L 63.230618 48.683893 
L 63.25861 48.621087 
L 63.339476 48.499521 
L 63.311484 48.671724 
L 63.367468 48.607616 
L 63.373688 48.639979 
L 63.379909 48.522621 
L 63.40168 48.363371 
L 63.476326 48.695161 
L 63.479436 48.643857 
L 63.529199 48.683139 
L 63.522979 48.524777 
L 63.578963 48.622568 
L 63.638057 48.535939 
L 63.613175 48.697035 
L 63.68782 48.62242 
L 63.796678 48.483086 
L 63.709592 48.686494 
L 63.834001 48.581216 
L 63.896205 48.674761 
L 63.877544 48.468903 
L 63.942859 48.595305 
L 63.989512 48.484749 
L 64.039275 48.652014 
L 64.051716 48.613378 
L 64.157464 48.694964 
L 64.117031 48.489995 
L 64.169905 48.658218 
L 64.204117 48.338159 
L 64.253881 48.675717 
L 64.281873 48.624356 
L 64.362738 48.397672 
L 64.306754 48.682342 
L 64.396951 48.582148 
L 64.440494 48.659197 
L 64.474706 48.477142 
L 64.499588 48.531261 
L 64.564903 48.467569 
L 64.52758 48.642096 
L 64.608446 48.560045 
L 64.623997 48.489464 
L 64.642658 48.695156 
L 64.689311 48.615306 
L 64.704862 48.700682 
L 64.791949 48.462849 
L 64.81372 48.543908 
L 64.888365 48.667062 
L 64.838602 48.38274 
L 64.922578 48.510013 
L 64.987892 48.680756 
L 64.944349 48.369445 
L 65.034546 48.525868 
L 65.040766 48.436015 
L 65.112301 48.659416 
L 65.134073 48.622956 
L 65.140293 48.69232 
L 65.214939 48.362854 
L 65.218049 48.39462 
L 65.305135 48.296992 
L 65.270923 48.692901 
L 65.323796 48.379912 
L 65.429544 48.653261 
L 65.389111 48.295055 
L 65.438874 48.510718 
L 65.497969 48.662024 
L 65.460646 48.433491 
L 65.529071 48.463098 
L 65.641039 48.148183 
L 65.553953 48.663055 
L 65.650369 48.292995 
L 65.771668 48.686406 
L 65.777888 48.595413 
L 65.784109 48.492798 
L 65.843203 48.691644 
L 65.886746 48.605445 
L 65.970722 48.684727 
L 65.958281 48.49366 
L 65.995604 48.594058 
L 66.045367 48.645442 
L 66.051588 48.506658 
L 66.076469 48.576089 
L 66.098241 48.453275 
L 66.135564 48.693761 
L 66.185327 48.564707 
L 66.266193 48.682459 
L 66.22576 48.489789 
L 66.297295 48.607189 
L 66.312846 48.470224 
L 66.378161 48.701989 
L 66.406153 48.63318 
L 66.527451 48.538463 
L 66.465247 48.685654 
L 66.530562 48.566576 
L 66.552333 48.701141 
L 66.623868 48.443715 
L 66.630089 48.453841 
L 66.717175 48.702534 
L 66.64253 48.419729 
L 66.78871 48.552795 
L 66.854025 48.455705 
L 66.832253 48.696441 
L 66.897568 48.562889 
L 67.000205 48.688909 
L 66.938 48.454439 
L 67.006425 48.56245 
L 67.043748 48.452856 
L 67.025087 48.609079 
L 67.093511 48.612627 
L 67.096622 48.681816 
L 67.152606 48.301272 
L 67.202369 48.605208 
L 67.301896 48.551934 
L 67.21792 48.688313 
L 67.314337 48.598874 
L 67.36099 48.688855 
L 67.410754 48.410404 
L 67.429415 48.652801 
L 67.525832 48.677611 
L 67.457407 48.421638 
L 67.535163 48.62439 
L 67.541383 48.632485 
L 67.581816 48.401294 
L 67.606698 48.327181 
L 67.678233 48.700595 
L 67.765319 48.461078 
L 67.796421 48.626682 
L 67.846185 48.496437 
L 67.867956 48.666414 
L 67.908389 48.622753 
L 68.011026 48.669981 
L 67.942602 48.415613 
L 68.017247 48.621677 
L 68.107443 48.394601 
L 68.023467 48.633803 
L 68.150986 48.520632 
L 68.241183 48.683351 
L 68.191419 48.423148 
L 68.259844 48.508558 
L 68.381143 48.661777 
L 68.34382 48.48805 
L 68.384253 48.633668 
L 68.458898 48.551272 
L 68.409135 48.67432 
L 68.49 48.668838 
L 68.49311 48.686644 
L 68.521102 48.467338 
L 68.595748 48.640232 
L 68.695275 48.44541 
L 68.723267 48.521252 
L 68.794802 48.675994 
L 68.832124 48.492759 
L 68.847676 48.417073 
L 68.891219 48.673625 
L 68.91299 48.602633 
L 68.996966 48.691194 
L 68.937872 48.553167 
L 69.028068 48.662723 
L 69.040509 48.451401 
L 69.096493 48.695683 
L 69.140036 48.632523 
L 69.217792 48.676905 
L 69.177359 48.445316 
L 69.230233 48.629112 
L 69.298657 48.49159 
L 69.248894 48.685186 
L 69.345311 48.51838 
L 69.426176 48.692432 
L 69.410625 48.489123 
L 69.463499 48.575078 
L 69.525704 48.69071 
L 69.497712 48.521597 
L 69.547475 48.571778 
L 69.559916 48.405602 
L 69.656333 48.672087 
L 69.681215 48.360392 
L 69.793182 48.465128 
L 69.961134 48.697753 
L 69.861607 48.395678 
L 69.964245 48.662497 
L 70.03578 48.361612 
L 70.079323 48.546231 
L 70.097984 48.648665 
L 70.160188 48.250951 
L 70.18818 48.592035 
L 70.228613 48.366385 
L 70.197511 48.662842 
L 70.309479 48.477292 
L 70.359243 48.664468 
L 70.390345 48.399945 
L 70.396565 48.421274 
L 70.399675 48.338832 
L 70.446329 48.655764 
L 70.499202 48.575788 
L 70.564517 48.688421 
L 70.586289 48.553113 
L 70.614281 48.617317 
L 70.626721 48.521243 
L 70.676485 48.6841 
L 70.723138 48.585244 
L 70.794673 48.687452 
L 70.772902 48.487964 
L 70.831996 48.612411 
L 70.931523 48.553658 
L 70.847547 48.6963 
L 70.947074 48.598601 
L 70.984397 48.68629 
L 70.999948 48.506824 
L 71.055932 48.660944 
L 71.068373 48.448743 
L 71.155459 48.695212 
L 71.16479 48.677888 
L 71.17101 48.585754 
L 71.239435 48.490661 
L 71.192781 48.671683 
L 71.279868 48.610642 
L 71.320301 48.679004 
L 71.298529 48.511469 
L 71.391836 48.641381 
L 71.500693 48.681478 
L 71.426048 48.517699 
L 71.503803 48.647613 
L 71.615771 48.542811 
L 71.525575 48.664988 
L 71.631323 48.636348 
L 71.705968 48.674651 
L 71.699747 48.502087 
L 71.724629 48.544724 
L 71.814825 48.465223 
L 71.755731 48.689634 
L 71.830377 48.551458 
L 71.929904 48.67859 
L 71.836597 48.511704 
L 71.942345 48.586084 
L 71.957896 48.440207 
L 71.973447 48.681359 
L 72.051202 48.580446 
L 72.153839 48.685827 
L 72.091635 48.488866 
L 72.16628 48.678793 
L 72.250256 48.405067 
L 72.181831 48.685737 
L 72.290689 48.533394 
L 72.30002 48.462394 
L 72.408878 48.677433 
L 72.424429 48.617197 
L 72.44309 48.656047 
L 72.458641 48.417339 
L 72.558168 48.505083 
L 72.561278 48.495034 
L 72.58305 48.678563 
L 72.623483 48.60333 
L 72.685687 48.698583 
L 72.72612 48.385956 
L 72.72923 48.464941 
L 72.735451 48.426144 
L 72.744781 48.66138 
L 72.766553 48.700686 
L 72.788324 48.549501 
L 72.850529 48.633106 
L 72.86297 48.454339 
L 72.884741 48.691467 
L 72.962497 48.626674 
L 73.021591 48.676324 
L 73.046473 48.518453 
L 73.071354 48.436427 
L 73.130449 48.690609 
L 73.14911 48.640041 
L 73.2984 48.467253 
L 73.164661 48.687756 
L 73.310841 48.597947 
L 73.354384 48.473743 
L 73.43525 48.689304 
L 73.522336 48.519224 
L 73.547218 48.590995 
L 73.550328 48.700359 
L 73.584541 48.518755 
L 73.656076 48.544484 
L 73.755603 48.693457 
L 73.693398 48.434905 
L 73.764933 48.558718 
L 73.768044 48.529163 
L 73.830248 48.691296 
L 73.867571 48.637806 
L 73.963988 48.464414 
L 73.889342 48.678833 
L 73.988869 48.575199 
L 74.075955 48.68903 
L 74.100837 48.668291 
L 74.119499 48.519514 
L 74.184813 48.688021 
L 74.212805 48.650787 
L 74.27501 48.482436 
L 74.253238 48.690163 
L 74.343434 48.602222 
L 74.368316 48.676549 
L 74.446072 48.523778 
L 74.449182 48.583567 
L 74.511386 48.407557 
L 74.486505 48.679517 
L 74.55804 48.594239 
L 74.576701 48.682004 
L 74.638905 48.421278 
L 74.666897 48.558871 
L 74.676228 48.656307 
L 74.766424 48.48957 
L 74.769535 48.509836 
L 74.772645 48.451818 
L 74.834849 48.661617 
L 74.875282 48.572899 
L 74.884613 48.673576 
L 74.943707 48.440149 
L 74.98103 48.459396 
L 75.033903 48.659994 
L 75.092997 48.334664 
L 75.223627 48.627634 
L 75.13032 48.294793 
L 75.232957 48.594478 
L 75.248508 48.249497 
L 75.329374 48.621019 
L 75.348035 48.447031 
L 75.354256 48.406416 
L 75.404019 48.658485 
L 75.41335 48.649405 
L 75.41646 48.650332 
L 75.422681 48.569161 
L 75.494216 48.420606 
L 75.519098 48.636781 
L 75.531538 48.57533 
L 75.643506 48.675849 
L 75.55642 48.468882 
L 75.649727 48.64488 
L 75.718152 48.527883 
L 75.687049 48.682666 
L 75.761695 48.63409 
L 75.876773 48.523135 
L 75.777246 48.694781 
L 75.879883 48.551741 
L 75.951418 48.690583 
L 75.991851 48.628564 
L 76.029174 48.691809 
L 76.106929 48.55755 
L 76.134921 48.696598 
L 76.11315 48.535802 
L 76.225118 48.605169 
L 76.234448 48.702799 
L 76.25622 48.521936 
L 76.346416 48.678842 
L 76.39929 48.533674 
L 76.355747 48.68386 
L 76.464604 48.628499 
L 76.557911 48.699526 
L 76.505037 48.579643 
L 76.570352 48.628776 
L 76.620115 48.434374 
L 76.669879 48.670625 
L 76.67921 48.642591 
L 76.741414 48.693991 
L 76.784957 48.594853 
L 76.82228 48.6958 
L 76.844051 48.531639 
L 76.893815 48.621942 
L 76.909366 48.415284 
L 76.931137 48.646063 
L 76.999562 48.601422 
L 77.005783 48.68444 
L 77.074208 48.57304 
L 77.10842 48.604636 
L 77.123971 48.461277 
L 77.198616 48.685628 
L 77.220388 48.58601 
L 77.291923 48.69172 
L 77.239049 48.427566 
L 77.323025 48.567742 
L 77.335466 48.465225 
L 77.38834 48.685755 
L 77.425662 48.580457 
L 77.428773 48.674303 
L 77.475426 48.49624 
L 77.53763 48.629816 
L 77.602945 48.371359 
L 77.562512 48.690983 
L 77.646488 48.648523 
L 77.652709 48.67207 
L 77.665149 48.473926 
L 77.66826 48.425971 
L 77.705582 48.67685 
L 77.764676 48.520096 
L 77.861093 48.671449 
L 77.829991 48.497306 
L 77.876644 48.571855 
L 77.945069 48.544501 
L 77.917077 48.692568 
L 77.976171 48.652404 
L 78.010384 48.701698 
L 78.044596 48.561682 
L 78.078809 48.56912 
L 78.181446 48.68414 
L 78.144123 48.502807 
L 78.203217 48.607647 
L 78.284083 48.430935 
L 78.23743 48.69575 
L 78.308965 48.614995 
L 78.408492 48.691567 
L 78.343177 48.537344 
L 78.417823 48.642531 
L 78.489358 48.5291 
L 78.52668 48.686272 
L 78.529791 48.594709 
L 78.601326 48.692857 
L 78.619987 48.497815 
L 78.629318 48.5054 
L 78.638648 48.460138 
L 78.685302 48.683799 
L 78.735065 48.549553 
L 78.787939 48.415608 
L 78.741286 48.60884 
L 78.80038 48.615729 
L 78.80349 48.689393 
L 78.812821 48.553924 
L 78.909237 48.671045 
L 78.915458 48.696091 
L 79.024316 48.563633 
L 79.108292 48.690469 
L 79.08652 48.438528 
L 79.145614 48.653857 
L 79.260692 48.564095 
L 79.151835 48.689543 
L 79.282464 48.644158 
L 79.36644 48.702703 
L 79.341558 48.571716 
L 79.388211 48.624011 
L 79.425534 48.519387 
L 79.444195 48.688663 
L 79.493959 48.668723 
L 79.50951 48.612552 
L 79.51262 48.538494 
L 79.562384 48.689033 
L 79.621478 48.579549 
L 79.714784 48.473168 
L 79.699233 48.672368 
L 79.736556 48.521097 
L 79.786319 48.635348 
L 79.79254 48.664696 
L 79.801871 48.564456 
L 79.808091 48.572156 
L 79.879626 48.504714 
L 79.851634 48.696449 
L 79.913839 48.589961 
L 79.982263 48.700614 
L 79.997814 48.479804 
L 80.025806 48.596318 
L 80.053798 48.363251 
L 80.112893 48.68977 
L 80.143995 48.491607 
L 80.159546 48.643569 
L 80.249742 48.407764 
L 80.255963 48.37517 
L 80.296396 48.69237 
L 80.330608 48.661905 
L 80.333718 48.689391 
L 80.367931 48.409001 
L 80.417694 48.448908 
L 80.538993 48.693385 
L 80.427025 48.415166 
L 80.585646 48.643838 
L 80.660291 48.490105 
L 80.601197 48.681415 
L 80.697614 48.613078 
L 80.731826 48.669536 
L 80.710055 48.519708 
L 80.800251 48.567101 
L 80.899778 48.509193 
L 80.834464 48.690108 
L 80.905999 48.595018 
L 80.993085 48.694257 
L 80.933991 48.529323 
L 81.014856 48.617925 
L 81.073951 48.648176 
L 81.129935 48.504694 
L 81.195249 48.69413 
L 81.154816 48.497848 
L 81.245013 48.573872 
L 81.269894 48.552207 
L 81.310327 48.695533 
L 81.35076 48.589941 
L 81.428516 48.696561 
L 81.388083 48.568565 
L 81.465838 48.630231 
L 81.552924 48.486375 
L 81.478279 48.679071 
L 81.571586 48.652724 
L 81.580916 48.700004 
L 81.640011 48.505231 
L 81.664892 48.538971 
L 81.674223 48.492099 
L 81.708435 48.678873 
L 81.736427 48.613376 
L 81.742648 48.692771 
L 81.823514 48.500836 
L 81.842175 48.52988 
L 81.932371 48.691715 
L 81.90749 48.469719 
L 81.975914 48.622914 
L 82.031898 48.547994 
L 82.016347 48.673698 
L 82.087882 48.615822 
L 82.094103 48.697113 
L 82.140756 48.558982 
L 82.19363 48.581114 
L 82.265165 48.529794 
L 82.209181 48.681748 
L 82.299377 48.648963 
L 82.386463 48.40633 
L 82.327369 48.688196 
L 82.414455 48.61667 
L 82.439337 48.684073 
L 82.470439 48.569169 
L 82.520203 48.658708 
L 82.585518 48.467456 
L 82.666383 48.688496 
L 82.700596 48.546053 
L 82.703706 48.513087 
L 82.772131 48.693534 
L 82.803233 48.563561 
L 82.859217 48.669598 
L 82.812564 48.53828 
L 82.918311 48.631176 
L 82.980515 48.569268 
L 82.999177 48.702127 
L 83.027169 48.604783 
L 83.098704 48.679733 
L 83.117365 48.513557 
L 83.120475 48.471974 
L 83.213782 48.686985 
L 83.216892 48.690132 
L 83.235554 48.565963 
L 83.238664 48.577167 
L 83.272876 48.683695 
L 83.347521 48.52598 
L 83.394175 48.676387 
L 83.419057 48.521973 
L 83.4626 48.631948 
L 83.499922 48.69643 
L 83.546576 48.563218 
L 83.565237 48.590146 
L 83.652323 48.525075 
L 83.633662 48.682386 
L 83.674095 48.589747 
L 83.742519 48.694843 
L 83.786062 48.620118 
L 83.804724 48.693846 
L 83.842046 48.481248 
L 83.89803 48.639663 
L 83.901141 48.575137 
L 83.994447 48.687945 
L 84.006888 48.635401 
L 84.02866 48.553438 
L 84.112636 48.477568 
L 84.044211 48.676027 
L 84.137517 48.533117 
L 84.221493 48.683494 
L 84.156179 48.397589 
L 84.271257 48.574922 
L 84.342792 48.523126 
L 84.327241 48.67348 
L 84.358343 48.634128 
L 84.420547 48.69153 
L 84.445429 48.563195 
L 84.467201 48.654473 
L 84.498303 48.476352 
L 84.495193 48.671472 
L 84.579169 48.608666 
L 84.678696 48.690297 
L 84.59783 48.545968 
L 84.691137 48.650256 
L 84.781333 48.430538 
L 84.74712 48.698433 
L 84.815545 48.624132 
L 85.16389 48.572291 
L 85.250976 48.362782 
L 85.226094 48.685243 
L 85.275858 48.484973 
L 85.347393 48.684747 
L 85.384716 48.530145 
L 85.387826 48.481 
L 85.422038 48.666462 
L 85.490463 48.613504 
L 85.540227 48.684313 
L 85.512235 48.498271 
L 85.596211 48.604305 
L 85.670856 48.349776 
L 85.661525 48.673496 
L 85.701958 48.632484 
L 85.795265 48.686726 
L 85.72995 48.477533 
L 85.807706 48.56042 
L 85.885461 48.542419 
L 85.835697 48.687112 
L 85.897902 48.658818 
L 85.907233 48.698105 
L 85.991208 48.516029 
L 86.000539 48.551097 
L 86.003649 48.550228 
L 86.115617 48.702101 
L 86.165381 48.504063 
L 86.236916 48.632006 
L 86.345774 48.694359 
L 86.286679 48.551717 
L 86.348884 48.663648 
L 86.420419 48.524767 
L 86.367545 48.695353 
L 86.460852 48.630411 
L 86.470182 48.680525 
L 86.516836 48.545222 
L 86.57282 48.649437 
L 86.650575 48.498744 
L 86.681677 48.66139 
L 86.684788 48.572599 
L 86.799866 48.677423 
L 86.886952 48.530085 
L 86.840299 48.685681 
L 86.911834 48.669911 
L 86.930495 48.701326 
L 86.955377 48.530991 
L 86.992699 48.617837 
L 87.017581 48.527172 
L 87.092226 48.680117 
L 87.104667 48.597373 
L 87.210415 48.699699 
L 87.235297 48.572464 
L 87.275729 48.51914 
L 87.316162 48.673918 
L 87.328603 48.628245 
L 87.331713 48.692394 
L 87.359705 48.530103 
L 87.434351 48.555496 
L 87.508996 48.535889 
L 87.484114 48.685779 
L 87.527657 48.675767 
L 87.536988 48.577888 
L 87.614743 48.675331 
L 87.630294 48.6813 
L 87.729822 48.480483 
L 87.770254 48.668787 
L 87.751593 48.462538 
L 87.85112 48.592211 
L 87.879112 48.512471 
L 87.907104 48.680171 
L 87.953757 48.627612 
L 88.009741 48.666186 
L 88.040844 48.558177 
L 88.062615 48.607773 
L 88.065725 48.551096 
L 88.159032 48.700104 
L 88.171473 48.627175 
L 88.215016 48.517231 
L 88.177693 48.659976 
L 88.295882 48.617049 
L 88.311433 48.691644 
L 88.358086 48.53584 
L 88.404739 48.565744 
L 88.526038 48.681531 
L 88.41407 48.517494 
L 88.532258 48.550315 
L 88.535368 48.525481 
L 88.582022 48.693305 
L 88.628675 48.64468 
L 88.731312 48.703413 
L 88.641116 48.590518 
L 88.740643 48.657518 
L 88.765525 48.694975 
L 88.855721 48.563885 
L 88.868162 48.694084 
L 88.961469 48.518809 
L 88.967689 48.581216 
L 89.085877 48.494268 
L 88.97391 48.600401 
L 89.095208 48.614091 
L 89.135641 48.692133 
L 89.188515 48.514338 
L 89.200956 48.547639 
L 89.347136 48.653296 
L 89.359577 48.560798 
L 89.362687 48.48929 
L 89.381348 48.695429 
L 89.465324 48.654741 
L 89.561741 48.598713 
L 89.477765 48.699249 
L 89.574182 48.674494 
L 89.599064 48.701647 
L 89.630166 48.53627 
L 89.651937 48.572755 
L 89.658158 48.550777 
L 89.720362 48.68675 
L 89.745244 48.662886 
L 89.757685 48.687511 
L 89.788787 48.463088 
L 89.838551 48.548079 
L 89.844771 48.475432 
L 89.869653 48.681253 
L 89.944298 48.616506 
L 90.003392 48.519131 
L 90.059376 48.696742 
L 90.130911 48.516591 
L 90.177565 48.575955 
L 90.267761 48.655355 
L 90.205557 48.468226 
L 90.289533 48.613223 
L 90.308194 48.462009 
L 90.39217 48.69656 
L 90.39528 48.670026 
L 90.457484 48.686372 
L 90.451264 48.530498 
L 90.497917 48.63432 
L 90.594334 48.573961 
L 90.544571 48.671807 
L 90.609885 48.629493 
L 90.693861 48.688439 
L 90.67831 48.509231 
L 90.724963 48.648989 
L 90.743625 48.470933 
L 90.799609 48.659276 
L 90.840042 48.55126 
L 90.911577 48.676964 
L 90.855593 48.396363 
L 90.95512 48.663476 
L 90.986222 48.524883 
L 91.070198 48.561425 
L 91.085749 48.699469 
L 91.169725 48.524641 
L 91.185276 48.637173 
L 91.219488 48.541608 
L 91.281693 48.692747 
L 91.297244 48.597573 
L 91.319015 48.670424 
L 91.362559 48.508277 
L 91.409212 48.620275 
L 91.462086 48.699781 
L 91.418542 48.555045 
L 91.486967 48.575584 
L 91.490078 48.540428 
L 91.502518 48.697643 
L 91.595825 48.564165 
L 91.686021 48.671242 
L 91.617597 48.505042 
L 91.717124 48.638945 
L 91.760667 48.573913 
L 91.8011 48.692354 
L 91.822871 48.666957 
L 91.916178 48.693311 
L 91.844643 48.559164 
L 91.925508 48.644886 
L 91.937949 48.556949 
L 91.969051 48.704146 
L 92.031256 48.661959 
L 92.077909 48.678064 
L 92.059248 48.530295 
L 92.115232 48.581007 
L 92.140114 48.522197 
L 92.152554 48.657264 
L 92.199208 48.612656 
L 92.248971 48.697418 
L 92.286294 48.605417 
L 92.308065 48.681882 
L 92.364049 48.693651 
L 92.423144 48.541191 
L 92.463576 48.68957 
L 92.544442 48.661097 
L 92.628418 48.448996 
L 92.6533 48.660893 
L 92.752827 48.691617 
L 92.690622 48.563312 
L 92.759047 48.640524 
L 92.880346 48.51236 
L 92.768378 48.692187 
L 92.895897 48.639846 
L 92.948771 48.693857 
L 92.930109 48.503098 
L 92.989204 48.496045 
L 92.992314 48.490746 
L 93.004755 48.666926 
L 93.045188 48.581318 
L 93.122943 48.690724 
L 93.094951 48.418683 
L 93.157155 48.591195 
L 93.259793 48.683716 
L 93.185147 48.484333 
L 93.272234 48.653758 
L 93.297115 48.53798 
L 93.318887 48.704366 
L 93.381091 48.659025 
L 93.49928 48.701752 
L 93.415304 48.564666 
L 93.50239 48.686696 
L 93.539713 48.528001 
L 93.511721 48.694526 
L 93.614358 48.670652 
L 93.63924 48.584868 
L 93.64235 48.564447 
L 93.689003 48.512417 
L 93.661011 48.678445 
L 93.741877 48.64658 
L 93.838294 48.664418 
L 93.78542 48.529856 
L 93.841404 48.642965 
L 93.878727 48.506827 
L 93.934711 48.671744 
L 93.953372 48.611754 
L 94.056009 48.591763 
L 94.009356 48.691608 
L 94.06223 48.618132 
L 94.139985 48.695756 
L 94.096442 48.563306 
L 94.174197 48.675653 
L 94.199079 48.583334 
L 94.186638 48.689255 
L 94.286165 48.639486 
L 94.34526 48.530649 
L 94.379472 48.686355 
L 94.395023 48.628737 
L 94.419905 48.701205 
L 94.451007 48.568831 
L 94.506991 48.633618 
L 94.513211 48.639074 
L 94.522542 48.518986 
L 94.541203 48.536875 
L 94.544314 48.499029 
L 94.603408 48.698364 
L 94.643841 48.63914 
L 94.668722 48.524724 
L 94.699825 48.680694 
L 94.702935 48.645808 
" clip-path="url(#p89cab89be5)" style="fill: none; stroke: #9467bd; stroke-width: 0.5; stroke-linecap: square"/>
   </g>
  </g>
 </g>
 <defs>
  <clipPath id="p89cab89be5">
   <rect x="0" y="-0" width="99.212598" height="51.023622"/>
  </clipPath>
 </defs>
</svg>
