<?xml version="1.0" encoding="utf-8" standalone="no"?>
<!DOCTYPE svg PUBLIC "-//W3C//DTD SVG 1.1//EN"
  "http://www.w3.org/Graphics/SVG/1.1/DTD/svg11.dtd">
<svg xmlns:xlink="http://www.w3.org/1999/xlink" width="99.212598pt" height="51.023622pt" viewBox="0 0 99.212598 51.023622" xmlns="http://www.w3.org/2000/svg" version="1.1">
 <metadata>
  <rdf:RDF xmlns:dc="http://purl.org/dc/elements/1.1/" xmlns:cc="http://creativecommons.org/ns#" xmlns:rdf="http://www.w3.org/1999/02/22-rdf-syntax-ns#">
   <cc:Work>
    <dc:type rdf:resource="http://purl.org/dc/dcmitype/StillImage"/>
    <dc:date>2024-10-30T10:51:17.768937</dc:date>
    <dc:format>image/svg+xml</dc:format>
    <dc:creator>
     <cc:Agent>
      <dc:title>Matplotlib v3.8.4, https://matplotlib.org/</dc:title>
     </cc:Agent>
    </dc:creator>
   </cc:Work>
  </rdf:RDF>
 </metadata>
 <defs>
  <style type="text/css">*{stroke-linejoin: round; stroke-linecap: butt}</style>
 </defs>
 <g id="figure_1">
  <g id="patch_1">
   <path d="M 0 51.023622 
L 99.212598 51.023622 
L 99.212598 0 
L 0 0 
L 0 51.023622 
z
" style="fill: none"/>
  </g>
  <g id="axes_1">
   <g id="patch_2">
    <path d="M 0 51.023622 
L 99.212598 51.023622 
L 99.212598 -0 
L 0 -0 
L 0 51.023622 
z
" style="fill: none"/>
   </g>
   <g id="matplotlib.axis_1">
    <g id="xtick_1"/>
    <g id="xtick_2"/>
   </g>
   <g id="matplotlib.axis_2">
    <g id="ytick_1"/>
    <g id="ytick_2"/>
   </g>
   <g id="line2d_1">
    <path d="M 4.509664 40.53428 
L 4.512774 40.594703 
L 4.534545 39.048326 
L 4.556317 38.185856 
L 4.60297 42.837986 
L 4.627852 48.167061 
L 4.686946 37.54468 
L 4.699387 36.654464 
L 4.749151 43.836206 
L 4.764702 47.86355 
L 4.811355 32.080663 
L 4.873559 19.061166 
L 4.926433 30.612649 
L 4.938874 32.411665 
L 4.985527 18.568053 
L 5.047732 2.319256 
L 5.097495 16.959379 
L 5.237455 37.425766 
L 5.246786 37.166831 
L 5.299659 30.4353 
L 5.349423 37.465371 
L 5.483162 47.861907 
L 5.427178 37.248463 
L 5.504934 45.439718 
L 5.508044 45.362442 
L 5.532926 47.261616 
L 5.576469 48.301883 
L 5.610681 42.900369 
L 5.638673 40.63818 
L 5.694657 45.300162 
L 5.707098 44.94538 
L 5.710209 45.0046 
L 5.72887 43.363536 
L 5.766192 40.94005 
L 5.819066 45.979495 
L 5.837728 48.335414 
L 5.906152 42.462863 
L 5.924814 40.92653 
L 5.977687 47.750392 
L 5.980798 47.935183 
L 5.999459 43.296424 
L 6.139419 28.268345 
L 6.15186 29.375385 
L 6.263828 40.955855 
L 6.29182 34.08878 
L 6.30115 32.993228 
L 6.369575 37.813137 
L 6.394457 48.176421 
L 6.500204 44.552368 
L 6.503315 44.56784 
L 6.515755 44.100866 
L 6.518866 44.273881 
L 6.543747 43.594962 
L 6.596621 46.040823 
L 6.668156 48.324273 
L 6.693038 45.571011 
L 6.72103 42.843173 
L 6.795675 46.615697 
L 6.805006 47.305047 
L 6.836108 44.693555 
L 6.901423 46.362063 
L 6.907643 46.448338 
L 6.976068 47.646765 
L 7.00406 46.38197 
L 7.075595 43.979735 
L 7.109808 46.677276 
L 7.119138 48.107651 
L 7.15024 45.212417 
L 7.218665 46.73908 
L 7.389727 40.930738 
L 7.399058 41.038767 
L 7.473703 46.394934 
L 7.535908 42.959785 
L 7.557679 41.749035 
L 7.622994 45.001836 
L 7.688308 48.352192 
L 7.71319 43.115396 
L 7.722521 42.336981 
L 7.769174 46.168395 
L 7.784725 46.095179 
L 7.806497 46.854032 
L 7.828268 45.49604 
L 7.930906 41.793254 
L 7.958898 43.297921 
L 8.033543 48.120392 
L 7.99622 41.324197 
L 8.073976 43.747132 
L 8.098858 40.196156 
L 8.111298 39.029402 
L 8.154841 43.855392 
L 8.182833 42.710954 
L 8.319683 48.1728 
L 8.347675 46.002617 
L 8.353896 45.696503 
L 8.384998 47.927681 
L 8.434761 47.138164 
L 8.450312 48.558289 
L 8.472084 46.569363 
L 8.543619 47.134149 
L 8.590272 44.506017 
L 8.56228 48.216499 
L 8.615154 47.444808 
L 8.70224 48.651371 
L 8.646256 45.968538 
L 8.724012 47.486014 
L 8.854641 44.432882 
L 8.879523 45.57484 
L 8.919956 48.398242 
L 9.035034 48.344365 
L 9.162553 45.6644 
L 9.190545 47.071293 
L 9.209206 48.52115 
L 9.27141 43.438243 
L 9.290072 42.534779 
L 9.349166 45.112813 
L 9.364717 44.976039 
L 9.377158 44.685797 
L 9.433142 46.75567 
L 9.439362 46.712025 
L 9.54511 48.406236 
L 9.501567 45.653527 
L 9.576212 47.735236 
L 9.675739 44.538989 
L 9.703731 46.411978 
L 9.797038 47.841609 
L 9.812589 46.357042 
L 9.868573 45.191355 
L 9.896565 47.116157 
L 9.915226 46.939306 
L 10.017863 48.233303 
L 9.958769 46.189384 
L 10.030304 47.11908 
L 10.092509 45.402695 
L 10.129831 47.719951 
L 10.132941 47.714637 
L 10.145382 47.884715 
L 10.216917 46.787594 
L 10.241799 45.674493 
L 10.313334 47.746913 
L 10.325775 48.490751 
L 10.372428 46.706714 
L 10.375539 46.79843 
L 10.456404 46.08196 
L 10.478176 47.416286 
L 10.481286 47.362149 
L 10.552821 45.663046 
L 10.515498 48.272985 
L 10.599474 46.926179 
L 10.652348 46.347277 
L 10.717663 47.900016 
L 10.742545 46.535453 
L 10.779867 48.286805 
L 10.835851 47.632586 
L 10.885615 48.390089 
L 10.916717 46.745708 
L 10.95404 48.104889 
L 11.019354 45.769725 
L 10.985142 48.306356 
L 11.081559 46.797493 
L 11.168645 48.549186 
L 11.193526 46.959502 
L 11.196637 47.000773 
L 11.218408 45.82 
L 11.221518 45.5522 
L 11.277502 47.658011 
L 11.311715 47.052409 
L 11.333486 48.516447 
L 11.367699 45.647646 
L 11.408132 46.37744 
L 11.439234 44.178988 
L 11.501438 46.867418 
L 11.516989 46.510602 
L 11.625847 48.454318 
L 11.548092 46.327119 
L 11.653839 48.057759 
L 11.656949 48.080241 
L 11.66939 47.422298 
L 11.694272 45.786333 
L 11.775138 47.881307 
L 11.862224 46.152028 
L 11.831122 48.304221 
L 11.883995 47.634064 
L 11.893326 48.564141 
L 11.983522 46.513885 
L 11.986633 46.661003 
L 12.027065 48.329384 
L 12.08616 46.598877 
L 12.09238 46.079807 
L 12.173246 48.33193 
L 12.188797 47.417258 
L 12.195017 47.355413 
L 12.201238 47.490267 
L 12.244781 48.41676 
L 12.297655 46.393968 
L 12.306985 46.156007 
L 12.37541 47.808336 
L 12.387851 48.255943 
L 12.465606 46.984571 
L 12.474937 46.559481 
L 12.52159 48.532715 
L 12.534031 48.274473 
L 12.590015 47.667437 
L 12.555803 48.596012 
L 12.593125 47.7028 
L 12.65222 45.373139 
L 12.611787 48.462273 
L 12.711314 46.950021 
L 12.789069 46.317548 
L 12.832612 47.837714 
L 12.838833 47.820421 
L 12.932139 48.444634 
L 12.882376 46.967593 
L 12.94147 47.650188 
L 12.953911 46.632999 
L 12.975683 48.162805 
L 13.056548 47.200226 
L 13.103202 46.926028 
L 13.08454 47.604315 
L 13.149855 47.346802 
L 13.286705 48.614991 
L 13.398672 46.118781 
L 13.420444 47.088022 
L 13.473318 46.899928 
L 13.50131 48.349722 
L 13.50442 48.632385 
L 13.579065 46.275544 
L 13.591506 46.562758 
L 13.712805 48.116999 
L 13.737686 48.010812 
L 13.78434 46.949926 
L 13.827883 48.267786 
L 13.837214 48.356924 
L 13.840324 48.046782 
L 13.865205 46.662429 
L 13.918079 48.093865 
L 13.970953 46.927373 
L 13.998945 48.154296 
L 14.036268 46.588285 
L 14.129574 47.768576 
L 14.21355 48.447164 
L 14.253983 46.904952 
L 14.285085 48.598665 
L 14.384612 47.692042 
L 14.400163 47.147986 
L 14.421935 48.6106 
L 14.49969 47.305013 
L 14.586777 47.981187 
L 14.571225 46.633248 
L 14.614769 47.722706 
L 14.667642 48.121065 
L 14.689414 46.940122 
L 14.717406 47.484577 
L 14.876027 45.441398 
L 14.751618 47.715283 
L 14.894688 46.197751 
L 14.969334 48.132056 
L 15.019097 47.257935 
L 15.081302 47.084719 
L 15.050199 47.914491 
L 15.096853 47.531355 
L 15.208821 48.585653 
L 15.180829 45.924274 
L 15.211931 48.358994 
L 15.230592 46.916306 
L 15.305237 48.499106 
L 15.323899 47.822114 
L 15.330119 47.817848 
L 15.333229 47.840738 
L 15.398544 48.603173 
L 15.426536 47.159489 
L 15.538504 46.114548 
L 15.498071 48.236259 
L 15.547835 46.31692 
L 15.610039 48.483549 
L 15.675354 47.899889 
L 15.799762 47.08028 
L 15.718897 48.36167 
L 15.802873 47.16425 
L 15.964604 48.442098 
L 16.011257 48.137356 
L 16.123225 47.194331 
L 16.033029 48.598734 
L 16.138776 47.46524 
L 16.172989 48.398315 
L 16.200981 47.111145 
L 16.253854 47.576241 
L 16.272516 47.172356 
L 16.303618 48.11153 
L 16.353382 47.719661 
L 16.387594 48.654207 
L 16.446688 47.291763 
L 16.462239 46.718933 
L 16.502672 47.44608 
L 16.561766 47.054459 
L 16.564876 47.275612 
L 16.60842 45.575409 
L 16.658183 46.290645 
L 16.679955 45.446599 
L 16.735939 46.968901 
L 16.785702 48.399191 
L 16.866568 47.851162 
L 16.869678 47.857622 
L 16.879009 47.69338 
L 16.885229 47.76123 
L 16.888339 47.504453 
L 16.962985 48.628514 
L 16.990977 48.043528 
L 17.099834 48.538882 
L 17.050071 47.486133 
L 17.106055 48.423801 
L 17.1807 47.23612 
L 17.155818 48.572516 
L 17.233574 47.6355 
L 17.258456 48.560659 
L 17.277117 47.601696 
L 17.345542 47.886188 
L 17.392195 48.583506 
L 17.407746 47.349407 
L 17.429518 47.506507 
L 17.535265 46.276911 
L 17.479281 47.654531 
L 17.544596 46.876592 
L 17.578808 48.236505 
L 17.662784 47.75283 
L 17.74987 48.275937 
L 17.690776 47.322241 
L 17.777862 48.132429 
L 17.861838 46.859107 
L 17.830736 48.170045 
L 17.88983 47.936898 
L 17.899161 48.625058 
L 17.980027 47.394022 
L 17.989357 47.482158 
L 18.098215 47.021142 
L 18.02979 48.426031 
L 18.107546 47.330515 
L 18.188411 48.242035 
L 18.141758 46.915441 
L 18.219514 47.391966 
L 18.222624 47.102929 
L 18.31593 48.461088 
L 18.331481 47.273724 
L 18.334592 47.233347 
L 18.359473 48.327402 
L 18.468331 48.64808 
L 18.421678 47.577707 
L 18.471441 48.427611 
L 18.524315 47.177348 
L 18.58652 47.687823 
L 18.676716 48.450439 
L 18.602071 47.596805 
L 18.704708 48.313236 
L 18.745141 47.858119 
L 18.723369 48.603245 
L 18.816676 48.11909 
L 18.835337 48.588735 
L 18.913093 47.972168 
L 18.931754 48.340714 
L 19.059273 47.593833 
L 18.978407 48.502917 
L 19.065493 47.822147 
L 19.124588 48.591332 
L 19.090375 47.654937 
L 19.183682 47.964288 
L 19.205453 47.303642 
L 19.29565 47.716168 
L 19.385846 48.622866 
L 19.357854 47.198598 
L 19.413838 48.138548 
L 19.432499 48.329307 
L 19.463602 47.127207 
L 19.469822 46.85671 
L 19.532026 48.142091 
L 19.538247 48.684783 
L 19.556908 47.226235 
L 19.643994 48.302855 
L 19.743521 47.169094 
L 19.71864 48.491248 
L 19.759072 47.991758 
L 19.855489 48.525283 
L 19.833718 47.81912 
L 19.86482 48.078896 
L 19.874151 47.629854 
L 19.951906 48.616391 
L 19.979898 47.682773 
L 20.070094 48.519648 
L 19.995449 47.340836 
L 20.098086 47.858369 
L 20.110527 47.259961 
L 20.182062 48.635785 
L 20.210054 47.596573 
L 20.325133 48.464046 
L 20.331353 48.427081 
L 20.4371 47.1634 
L 20.449541 47.631085 
L 20.57084 48.480275 
L 20.524187 47.524603 
L 20.583281 48.017514 
L 20.657926 47.235887 
L 20.608163 48.508908 
L 20.685918 48.259846 
L 20.695249 48.593814 
L 20.70769 47.786217 
L 20.782335 47.837991 
L 20.813437 46.812363 
L 20.884972 48.147271 
L 20.968948 48.428573 
L 20.940956 47.185126 
L 20.975169 47.877533 
L 20.99072 47.057043 
L 21.024932 48.663035 
L 21.084026 47.927052 
L 21.13379 48.631584 
L 21.180443 47.632113 
L 21.245758 47.10398 
L 21.261309 48.340296 
L 21.264419 48.680448 
L 21.28308 46.965022 
L 21.363946 47.821522 
L 21.388828 47.470264 
L 21.438591 48.51942 
L 21.463473 48.246359 
L 21.469694 48.63758 
L 21.510126 47.643356 
L 21.575441 48.40784 
L 21.674968 47.970908 
L 21.609653 48.470064 
L 21.690519 48.165185 
L 21.721621 48.670948 
L 21.802487 48.292685 
L 21.84292 47.799465 
L 21.867802 48.568148 
L 21.914455 48.143715 
L 21.973549 48.679516 
L 22.007762 47.511567 
L 22.017092 47.114199 
L 22.066856 48.569664 
L 22.110399 48.036595 
L 22.172603 46.677999 
L 22.13217 48.60766 
L 22.200595 47.898463 
L 22.216146 48.583911 
L 22.278351 47.741009 
L 22.315673 48.486888 
L 22.325004 48.587426 
L 22.371657 47.966074 
L 22.40587 47.990909 
L 22.474295 46.718893 
L 22.533389 47.26101 
L 22.645357 48.263534 
L 22.657798 48.022013 
L 22.713782 47.17577 
L 22.772876 47.861198 
L 22.775986 47.85894 
L 22.788427 47.576983 
L 22.869293 48.653917 
L 22.943938 47.554671 
L 22.950158 47.386899 
L 23.034134 48.264398 
L 23.080787 48.630989 
L 23.055906 47.924836 
L 23.142992 48.205564 
L 23.189645 47.992085 
L 23.174094 48.40081 
L 23.208307 48.343772 
L 23.298503 48.665112 
L 23.25496 47.751821 
L 23.317164 48.481287 
L 23.379369 47.364255 
L 23.326495 48.494246 
L 23.438463 47.986059 
L 23.522439 48.659309 
L 23.5411 47.778753 
L 23.54421 47.819063 
L 23.556651 48.408098 
L 23.631296 47.541385 
L 23.649958 47.714245 
L 23.653068 47.488969 
L 23.746375 48.192204 
L 23.749485 48.160581 
L 23.842791 48.476687 
L 23.796138 47.763147 
L 23.861453 48.329379 
L 23.898775 47.462389 
L 23.96098 48.463888 
L 23.96409 48.428753 
L 23.976531 48.674918 
L 24.020074 47.003472 
L 24.063617 48.032744 
L 24.156924 47.589391 
L 24.132042 48.666006 
L 24.172475 47.895345 
L 24.25334 48.702929 
L 24.275112 47.241177 
L 24.346647 48.621334 
L 24.3933 48.076434 
L 24.411962 47.557875 
L 24.464835 48.656606 
L 24.502158 48.182914 
L 24.545701 48.612192 
L 24.589244 47.353083 
L 24.614126 48.350036 
L 24.632787 48.631309 
L 24.729204 47.535323 
L 24.732314 47.372986 
L 24.778968 48.523968 
L 24.822511 48.409963 
L 24.844282 48.662964 
L 24.909597 47.901958 
L 25.012234 47.72674 
L 24.974912 48.508939 
L 25.015344 47.957326 
L 25.046447 48.637051 
L 25.065108 47.69077 
L 25.130423 48.171682 
L 25.23928 47.848817 
L 25.167745 48.585656 
L 25.24239 47.998581 
L 25.335697 48.680498 
L 25.357469 48.261319 
L 25.397901 48.51762 
L 25.478767 47.670774 
L 25.590735 48.654641 
L 25.615617 48.623627 
L 25.699593 47.479807 
L 25.733805 48.064024 
L 25.824002 48.449972 
L 25.79912 47.635493 
L 25.845773 48.103608 
L 25.855104 48.278107 
L 25.904867 47.360041 
L 25.954631 48.041807 
L 25.991953 48.594928 
L 25.967072 47.765513 
L 26.08526 48.468959 
L 26.206559 47.728096 
L 26.122583 48.625034 
L 26.22522 48.151795 
L 26.309196 48.642987 
L 26.324747 47.814887 
L 26.327857 47.785989 
L 26.358959 48.339098 
L 26.380731 48.308566 
L 26.461597 48.615859 
L 26.396282 48.020068 
L 26.474038 48.233839 
L 26.554903 47.919306 
L 26.542462 48.580494 
L 26.586005 48.122443 
L 26.691753 48.637424 
L 26.673092 47.858955 
L 26.697973 48.20124 
L 26.760178 47.85046 
L 26.744627 48.64218 
L 26.7975 48.349618 
L 26.825492 48.683142 
L 26.847264 47.719344 
L 26.900138 48.037806 
L 26.971673 47.65963 
L 26.915689 48.405211 
L 27.012106 47.968571 
L 27.058759 48.36664 
L 27.043208 47.860903 
L 27.096082 47.898924 
L 27.114743 47.541083 
L 27.173837 48.418493 
L 27.198719 48.106768 
L 27.254703 48.327118 
L 27.285805 47.23436 
L 27.288915 47.318028 
L 27.369781 47.103334 
L 27.332458 48.651908 
L 27.388442 47.775691 
L 27.472418 48.658278 
L 27.441316 47.491725 
L 27.515961 48.380558 
L 27.575055 47.550404 
L 27.547063 48.594038 
L 27.624819 48.424943 
L 27.627929 48.431943 
L 27.63415 48.266197 
L 27.649701 47.835479 
L 27.721236 48.671877 
L 27.739897 48.404365 
L 27.839424 48.683209 
L 27.770999 48.017419 
L 27.842534 48.214259 
L 27.854975 47.826922 
L 27.938951 48.662025 
L 27.954502 48.114463 
L 27.966943 47.882649 
L 27.988715 48.453417 
L 28.013596 48.410963 
L 28.094462 48.6667 
L 28.075801 48.057373 
L 28.125564 48.54443 
L 28.162887 48.004112 
L 28.184659 48.595929 
L 28.262414 48.335278 
L 28.265524 48.484937 
L 28.284186 47.91985 
L 28.368162 48.11379 
L 28.467689 48.632704 
L 28.389933 47.824027 
L 28.48635 48.358292 
L 28.564105 47.815093 
L 28.545444 48.586719 
L 28.604538 48.05012 
L 28.6232 48.471351 
L 28.719616 48.295032 
L 28.750719 47.625484 
L 28.784931 48.446635 
L 28.822254 48.372033 
L 28.868907 48.589435 
L 28.881348 48.062051 
L 28.931111 48.422003 
L 28.977765 48.019694 
L 28.955993 48.618957 
L 29.011977 48.550939 
L 29.015087 48.670667 
L 29.095953 47.573224 
L 29.105284 47.245994 
L 29.151937 48.410021 
L 29.186149 48.282097 
L 29.18926 48.49849 
L 29.282566 47.715782 
L 29.285677 47.751726 
L 29.291897 47.511104 
L 29.363432 48.640008 
L 29.366542 48.598319 
L 29.375873 48.658522 
L 29.397644 48.382253 
L 29.400755 48.412668 
L 29.503392 47.96449 
L 29.4754 48.570864 
L 29.518943 48.215851 
L 29.531384 48.481807 
L 29.596699 47.953721 
L 29.627801 48.212238 
L 29.652682 48.633534 
L 29.674454 48.050052 
L 29.677564 48.19806 
L 29.75532 47.669097 
L 29.696226 48.351354 
L 29.783312 48.288241 
L 29.876618 48.675231 
L 29.851737 47.865397 
L 29.89839 48.571939 
L 29.945043 47.749814 
L 29.910831 48.57357 
L 30.004137 48.396668 
L 30.025909 48.634846 
L 30.100554 47.937028 
L 30.106775 47.992841 
L 30.112995 47.777272 
L 30.193861 48.628921 
L 30.209412 48.209376 
L 30.218743 48.649733 
L 30.312049 47.982849 
L 30.315159 48.034764 
L 30.340041 47.775889 
L 30.349372 48.307222 
L 30.411576 48.151753 
L 30.448899 48.544572 
L 30.427127 47.937278 
L 30.483111 48.028005 
L 30.591969 47.537838 
L 30.523544 48.388806 
L 30.598189 47.809374 
L 30.6013 47.744979 
L 30.682165 48.219608 
L 30.691496 48.437761 
L 30.772362 47.564506 
L 30.775472 47.702953 
L 30.781692 47.525341 
L 30.837676 48.654017 
L 30.878109 48.139186 
L 30.881219 48.148342 
L 30.88744 47.843068 
L 30.980746 47.474082 
L 30.924762 48.668658 
L 30.996298 47.874704 
L 31.008738 48.581512 
L 31.039841 47.640188 
L 31.114486 48.214823 
L 31.17047 47.741997 
L 31.126927 48.625352 
L 31.214013 48.335404 
L 31.223344 48.561349 
L 31.279328 47.619619 
L 31.31354 48.188595 
L 31.329091 47.832964 
L 31.381965 48.455245 
L 31.422398 48.224195 
L 31.441059 48.683846 
L 31.469051 47.884468 
L 31.518814 48.244387 
L 31.531255 47.579548 
L 31.556137 48.509652 
L 31.627672 48.411884 
L 31.674326 48.617799 
L 31.646334 48.234102 
L 31.73342 48.310084 
L 31.770742 48.06805 
L 31.829837 48.654181 
L 31.842277 48.340547 
L 31.910702 48.60728 
L 31.851608 48.122284 
L 31.948025 48.319256 
L 31.963576 47.956448 
L 32.041331 48.597441 
L 32.044442 48.569736 
L 32.047552 48.615148 
L 32.066213 48.260205 
L 32.137748 48.399119 
L 32.143969 48.250892 
L 32.150189 48.620965 
L 32.246606 48.403278 
L 32.311921 48.59166 
L 32.333692 48.163995 
L 32.339913 48.381238 
L 32.383456 47.705927 
L 32.426999 48.662976 
L 32.451881 48.270387 
L 32.507864 48.619087 
L 32.479872 47.956646 
L 32.557628 48.082158 
L 32.641604 48.622222 
L 32.678927 47.777996 
L 32.772233 48.516548 
L 32.703808 47.668098 
L 32.790895 48.165272 
L 32.902862 47.684888 
L 32.87176 48.696915 
L 32.905973 47.814879 
L 32.915303 47.937604 
L 33.021051 48.570162 
L 33.030381 48.321279 
L 33.052153 48.481328 
L 33.064594 48.172996 
L 33.105027 47.836059 
L 33.095696 48.410168 
L 33.173452 48.243986 
L 33.179672 48.141542 
L 33.241876 48.620457 
L 33.282309 48.191049 
L 33.29475 48.588816 
L 33.381836 47.743487 
L 33.388057 47.889155 
L 33.400498 48.189521 
L 33.500025 48.661564 
L 33.481363 48.070551 
L 33.521796 48.500471 
L 33.549788 47.745844 
L 33.590221 48.613996 
L 33.630654 48.512325 
L 33.658646 48.079589 
L 33.677307 48.702636 
L 33.730181 48.569397 
L 33.733291 48.598922 
L 33.764393 48.197643 
L 33.801716 48.390029 
L 33.86081 48.083832 
L 33.820377 48.615721 
L 33.907463 48.589385 
L 33.910574 48.633062 
L 33.960337 48.131256 
L 33.99455 48.263969 
L 34.056754 48.072834 
L 34.084746 48.566963 
L 34.090966 48.533436 
L 34.094077 48.667623 
L 34.150061 48.046002 
L 34.190494 48.199876 
L 34.230926 47.808771 
L 34.27758 48.589716 
L 34.296241 48.247306 
L 34.308682 48.563318 
L 34.361556 47.93731 
L 34.405099 48.198899 
L 34.41754 47.834254 
L 34.501516 48.682552 
L 34.507736 48.625918 
L 34.510846 48.635431 
L 34.532618 48.418251 
L 34.535728 48.537805 
L 34.607263 48.200667 
L 34.56683 48.637166 
L 34.647696 48.413015 
L 34.753443 47.93 
L 34.663247 48.427377 
L 34.762774 48.250792 
L 34.809427 48.688416 
L 34.834309 47.883673 
L 34.874742 48.283327 
L 34.918285 47.610774 
L 34.943167 48.578619 
L 34.980489 48.404864 
L 34.9836 48.580151 
L 35.055135 47.883931 
L 35.086237 48.270336 
L 35.114229 48.042039 
L 35.139111 48.631195 
L 35.195095 48.307685 
L 35.210646 48.678402 
L 35.247968 47.762991 
L 35.297732 48.227172 
L 35.41281 47.868124 
L 35.344385 48.66007 
L 35.41592 47.980833 
L 35.453243 48.611181 
L 35.422141 47.8832 
L 35.534109 48.063765 
L 35.540329 47.810972 
L 35.593203 48.65139 
L 35.642966 48.065743 
L 35.652297 47.970312 
L 35.683399 48.430349 
L 35.705171 48.383782 
L 35.776706 48.61716 
L 35.795367 48.176139 
L 35.810918 48.357117 
L 35.823359 47.973585 
L 35.8358 48.569659 
L 35.929107 48.131177 
L 35.957099 48.600661 
L 35.988201 47.941956 
L 36.037964 48.175099 
L 36.050405 48.322901 
L 36.165483 48.676118 
L 36.137491 48.059179 
L 36.168593 48.590226 
L 36.209026 48.04385 
L 36.280561 48.57289 
L 36.283672 48.655543 
L 36.324104 48.093298 
L 36.389419 48.521116 
L 36.420521 48.181627 
L 36.426742 48.574558 
L 36.501387 48.424557 
L 36.53871 48.040285 
L 36.588473 48.623197 
L 36.613355 48.380156 
L 36.672449 48.693406 
L 36.650678 48.025122 
L 36.725323 48.471549 
L 36.865283 47.892093 
L 36.775086 48.498432 
L 36.868393 48.036331 
L 36.908826 47.982856 
L 36.980361 48.595503 
L 37.067447 47.802669 
L 37.082998 48.674664 
L 37.098549 48.08329 
L 37.148313 48.665368 
L 37.210517 48.366626 
L 37.316265 47.753665 
L 37.275832 48.67348 
L 37.325595 47.807516 
L 37.362918 48.699856 
L 37.465555 48.634044 
L 37.487327 48.144649 
L 37.577523 48.452961 
L 37.586854 48.255996 
L 37.621066 48.646447 
L 37.68016 48.595015 
L 37.683271 48.679188 
L 37.757916 47.991541 
L 37.776577 48.403064 
L 37.872994 48.052092 
L 37.829451 48.648612 
L 37.888545 48.246856 
L 37.904096 48.120034 
L 37.947639 48.596116 
L 37.972521 48.458778 
L 38.034726 48.621276 
L 38.031615 48.223071 
L 38.075158 48.46711 
L 38.143583 47.621127 
L 38.187126 48.413276 
L 38.261772 48.626867 
L 38.258661 48.258161 
L 38.271102 48.406384 
L 38.283543 48.001503 
L 38.348858 48.684006 
L 38.37996 48.388912 
L 38.392401 48.619187 
L 38.473267 47.849662 
L 38.476377 47.9351 
L 38.485707 47.7297 
L 38.488818 47.757159 
L 38.491928 47.677442 
L 38.541691 48.658353 
L 38.566573 48.614014 
L 38.597675 47.782299 
L 38.622557 48.663932 
L 38.694092 48.219244 
L 38.722084 48.068782 
L 38.812281 48.686663 
L 38.852713 47.860355 
L 38.927359 48.362342 
L 38.983343 48.282602 
L 38.989563 48.64968 
L 39.005114 48.450817 
L 39.08287 48.659215 
L 39.026886 47.872896 
L 39.110862 48.221099 
L 39.207278 47.815791 
L 39.169956 48.573383 
L 39.216609 48.220923 
L 39.278814 47.96104 
L 39.334797 48.629916 
L 39.400112 48.261561 
L 39.415663 48.661145 
L 39.446765 48.497187 
L 39.452986 48.665202 
L 39.527631 48.28208 
L 39.549403 48.35829 
L 39.633379 48.122122 
L 39.614717 48.598996 
L 39.65515 48.445849 
L 39.698693 48.619278 
L 39.673811 48.208315 
L 39.760898 48.439682 
L 39.773339 48.29891 
L 39.807551 48.690826 
L 39.875976 48.341905 
L 39.947511 48.6844 
L 39.882196 48.255054 
L 39.984833 48.467578 
L 40.040817 48.13856 
L 40.087471 48.630741 
L 40.093691 48.551051 
L 40.106132 48.664849 
L 40.109242 48.448641 
L 40.115463 48.541505 
L 40.177667 48.069345 
L 40.2181 48.618999 
L 40.22432 48.612759 
L 40.227431 48.626414 
L 40.242982 48.214556 
L 40.333178 47.948519 
L 40.289635 48.644722 
L 40.35495 48.091549 
L 40.442036 48.67256 
L 40.460697 47.944206 
L 40.463807 48.004317 
L 40.585106 48.590154 
L 40.547783 47.873098 
L 40.591326 48.263499 
L 40.659751 47.917399 
L 40.609988 48.578858 
L 40.678413 48.210441 
L 40.765499 48.597075 
L 40.78105 48.089058 
L 40.78727 48.119921 
L 40.92101 48.688466 
L 40.821483 48.011682 
L 40.93034 48.63437 
L 41.039198 47.898428 
L 41.048529 48.16997 
L 41.113843 48.692554 
L 41.088962 48.118931 
L 41.160497 48.352376 
L 41.176048 48.681372 
L 41.219591 48.116374 
L 41.275575 48.4697 
L 41.281795 48.57898 
L 41.294236 48.344259 
L 41.303567 47.945735 
L 41.35022 48.467605 
L 41.403094 48.349635 
L 41.505731 48.525522 
L 41.424865 48.105992 
L 41.508841 48.358153 
L 41.549274 48.082006 
L 41.564825 48.680829 
L 41.602148 48.458373 
L 41.605258 48.674357 
L 41.689234 48.106761 
L 41.707895 48.282835 
L 41.711006 48.236987 
L 41.723446 48.622583 
L 41.804312 48.462644 
L 41.813643 48.576445 
L 41.826084 48.374445 
L 41.925611 48.161431 
L 41.888288 48.675006 
L 41.934941 48.370186 
L 42.018917 48.686861 
L 41.994036 48.280059 
L 42.068681 48.61818 
L 42.124665 48.052536 
L 42.161988 48.670785 
L 42.177539 48.611994 
L 42.298837 48.147825 
L 42.19309 48.63149 
L 42.314388 48.413083 
L 42.401474 48.665294 
L 42.361042 48.154484 
L 42.426356 48.505612 
L 42.454348 47.887149 
L 42.491671 48.681146 
L 42.541434 48.172735 
L 42.647182 48.682954 
L 42.62541 47.934334 
L 42.653402 48.213714 
L 42.743599 47.742108 
L 42.690725 48.567171 
L 42.76226 48.168811 
L 42.793362 48.668381 
L 42.830685 48.001259 
L 42.871118 48.108639 
L 43.011078 48.682517 
L 43.04218 48.464497 
L 43.104384 48.043075 
L 43.076392 48.642969 
L 43.151037 48.476813 
L 43.203911 48.644492 
L 43.175919 48.048265 
L 43.250565 48.252872 
L 43.337651 47.849094 
L 43.303438 48.611936 
L 43.356312 48.334679 
L 43.443398 48.680618 
L 43.415406 48.330332 
L 43.47139 48.463412 
L 43.552256 48.649343 
L 43.539815 48.394421 
L 43.574027 48.429216 
L 43.689106 48.022102 
L 43.654893 48.665898 
L 43.692216 48.057639 
L 43.698436 47.834364 
L 43.779302 48.437657 
L 43.782412 48.374553 
L 43.885049 48.612357 
L 43.835286 48.283308 
L 43.89438 48.558686 
L 43.900601 48.117146 
L 43.997017 48.67084 
L 44.003238 48.58747 
L 44.009458 48.653607 
L 44.077883 48.112663 
L 44.099655 48.43034 
L 44.140087 48.096166 
L 44.186741 48.677297 
L 44.208512 48.437499 
L 44.261386 48.525123 
L 44.245835 48.250742 
L 44.280047 48.29916 
L 44.336031 47.912629 
L 44.31115 48.669909 
L 44.392015 48.120858 
L 44.441779 48.624812 
L 44.503983 48.197157 
L 44.507093 48.194449 
L 44.519534 48.604381 
L 44.587959 47.926746 
L 44.615951 48.388872 
L 44.675045 48.077633 
L 44.699927 48.657647 
L 44.724809 48.357875 
L 44.833667 48.642701 
L 44.802564 47.937131 
L 44.839887 48.594765 
L 44.908312 47.852273 
L 44.87721 48.616312 
L 44.970516 48.440255 
L 44.992288 48.009341 
L 45.085594 48.592476 
L 45.132248 48.173169 
L 45.116697 48.654723 
L 45.197562 48.545134 
L 45.222444 48.08724 
L 45.259767 48.640197 
L 45.30642 48.518467 
L 45.418388 48.678864 
L 45.384175 48.151995 
L 45.421498 48.613331 
L 45.514805 48.128251 
L 45.493033 48.682384 
L 45.533466 48.262744 
L 45.545907 48.699069 
L 45.629883 48.042307 
L 45.645434 48.293283 
L 45.654765 48.143465 
L 45.720079 48.632769 
L 45.73252 48.505313 
L 45.757402 48.685581 
L 45.788504 48.103585 
L 45.844488 48.630474 
L 45.906692 48.309912 
L 45.87248 48.682285 
L 45.956456 48.516632 
L 45.959566 48.570073 
L 46.003109 48.093369 
L 46.055983 48.339861 
L 46.105747 48.671145 
L 46.062203 48.207584 
L 46.15551 48.367795 
L 46.180392 48.08479 
L 46.233266 48.576638 
L 46.264368 48.494123 
L 46.273698 48.522455 
L 46.279919 48.349352 
L 46.335903 47.909955 
L 46.357674 48.447011 
L 46.376336 48.665856 
L 46.444761 47.926982 
L 46.469642 48.508897 
L 46.494524 48.640231 
L 46.559839 48.239173 
L 46.566059 48.35174 
L 46.628264 48.124541 
L 46.58161 48.666311 
L 46.650035 48.554476 
L 46.755783 48.663798 
L 46.671807 47.856743 
L 46.758893 48.580549 
L 46.771334 48.012989 
L 46.849089 48.684327 
L 46.86775 48.625757 
L 46.920624 48.156756 
L 46.982829 48.540918 
L 47.038813 48.624485 
L 47.010821 47.783938 
L 47.066805 48.291943 
L 47.122789 47.832762 
L 47.157001 48.656726 
L 47.172552 48.359691 
L 47.240977 48.547478 
L 47.253418 48.059973 
L 47.28452 48.406259 
L 47.331173 48.04956 
L 47.380937 48.668855 
L 47.393378 48.432214 
L 47.443141 48.686569 
L 47.42137 48.170214 
L 47.505346 48.481115 
L 47.514676 48.670318 
L 47.56444 48.1983 
L 47.614203 48.514097 
L 47.635975 48.216567 
L 47.670187 48.612288 
L 47.719951 48.553057 
L 47.785265 48.661909 
L 47.738612 48.215711 
L 47.819478 48.31359 
L 47.928335 48.654666 
L 47.866131 48.026045 
L 47.943887 48.434395 
L 47.978099 48.124515 
L 48.015422 48.675251 
L 48.055855 48.220583 
L 48.170933 48.643856 
L 48.146051 48.212104 
L 48.177153 48.637187 
L 48.242468 48.259495 
L 48.282901 48.666548 
L 48.292231 48.320646 
L 48.348215 48.677369 
L 48.317113 48.083092 
L 48.41353 48.565966 
L 48.516167 48.179001 
L 48.488175 48.615458 
L 48.534828 48.328604 
L 48.584592 48.644123 
L 48.55971 47.840115 
L 48.646796 48.512141 
L 48.69345 48.592724 
L 48.677899 48.215332 
L 48.752544 48.407811 
L 48.802307 47.953831 
L 48.830299 48.598106 
L 48.861402 48.299475 
L 48.939157 48.116357 
L 48.97648 48.643241 
L 49.054235 47.982373 
L 49.107109 48.308553 
L 49.166203 48.634867 
L 49.131991 48.100277 
L 49.215967 48.442816 
L 49.234628 47.624657 
L 49.312383 48.495293 
L 49.327935 48.355745 
L 49.390139 48.662099 
L 49.427462 48.284986 
L 49.439902 48.42755 
L 49.458564 47.911242 
L 49.517658 48.692169 
L 49.54254 48.380078 
L 49.558091 48.655973 
L 49.620295 48.161234 
L 49.654508 48.452633 
L 49.663838 48.125102 
L 49.726043 48.574184 
L 49.763365 48.369868 
L 49.769586 48.568513 
L 49.850451 48.066581 
L 49.875333 48.467158 
L 49.900215 47.963538 
L 49.915766 48.50921 
L 49.987301 48.386641 
L 50.077498 48.661763 
L 50.052616 48.300127 
L 50.096159 48.449479 
L 50.201906 48.225528 
L 50.142812 48.669577 
L 50.208127 48.311036 
L 50.307654 48.68568 
L 50.220568 48.196549 
L 50.320095 48.441595 
L 50.369858 48.59909 
L 50.357417 48.299742 
L 50.372968 48.448823 
L 50.432063 48.159709 
L 50.466275 48.630168 
L 50.484936 48.272998 
L 50.500487 48.629254 
L 50.584463 48.030967 
L 50.590684 48.183506 
L 50.593794 48.134122 
L 50.640447 48.610213 
L 50.687101 48.405564 
L 50.696431 48.633233 
L 50.758636 48.319022 
L 50.795958 48.402677 
L 50.802179 48.420192 
L 50.805289 48.299188 
L 50.808399 48.191266 
L 50.858163 48.599557 
L 50.911037 48.435488 
L 51.004343 48.66941 
L 50.945249 48.289308 
L 51.016784 48.479859 
L 51.035445 48.182135 
L 51.091429 48.685832 
L 51.125642 48.555304 
L 51.187846 48.340071 
L 51.131862 48.617956 
L 51.190956 48.511228 
L 51.194067 48.659043 
L 51.287373 48.101701 
L 51.299814 48.544358 
L 51.327806 48.046319 
L 51.312255 48.642648 
L 51.414892 48.35464 
L 51.514419 48.663085 
L 51.473986 48.076264 
L 51.52375 48.317601 
L 51.536191 48.164888 
L 51.582844 48.639217 
L 51.607726 48.509815 
L 51.617056 48.688741 
L 51.701032 48.268605 
L 51.710363 48.338604 
L 51.766347 47.782885 
L 51.753906 48.550615 
L 51.797449 48.372653 
L 51.822331 48.658724 
L 51.900087 48.369741 
L 51.906307 48.386842 
L 51.962291 48.678837 
L 51.924968 48.214811 
L 52.005834 48.347797 
L 52.008944 48.29444 
L 52.064928 48.663282 
L 52.099141 48.541178 
L 52.102251 48.680069 
L 52.201778 48.313102 
L 52.211109 48.596673 
L 52.310636 48.334887 
L 52.22666 48.664616 
L 52.323076 48.461385 
L 52.413273 48.62067 
L 52.37284 48.200632 
L 52.428824 48.398271 
L 52.447485 48.53163 
L 52.438155 48.274692 
L 52.453706 48.423425 
L 52.562563 48.69127 
L 52.51591 48.2047 
L 52.565674 48.53199 
L 52.621658 48.695225 
L 52.609217 48.437044 
L 52.643429 48.595959 
L 52.686972 48.105722 
L 52.752287 48.439078 
L 52.770948 48.69143 
L 52.845593 48.218214 
L 52.861144 48.548971 
L 52.910908 48.171423 
L 52.94201 48.639809 
L 52.970002 48.562988 
L 52.997994 48.673489 
L 53.032207 48.023087 
L 53.08197 48.586496 
L 53.097521 48.05679 
L 53.144175 48.649452 
L 53.193938 48.465965 
L 53.203269 48.64706 
L 53.293465 48.097658 
L 53.405433 48.664536 
L 53.305906 47.900393 
L 53.414764 48.26351 
L 53.486299 47.998504 
L 53.517401 48.517943 
L 53.520511 48.423712 
L 53.526732 48.657743 
L 53.588936 47.954207 
L 53.64181 48.60991 
L 53.707124 47.787288 
L 53.778659 48.277964 
L 53.797321 48.624157 
L 53.822202 47.96989 
L 53.890627 48.370254 
L 53.896848 48.200815 
L 53.93106 48.669899 
L 53.996375 48.355722 
L 54.024367 48.110202 
L 54.111453 48.674743 
L 54.201649 48.175123 
L 54.223421 48.378204 
L 54.266964 48.152324 
L 54.232752 48.64045 
L 54.310507 48.423891 
L 54.403814 48.699619 
L 54.391373 48.279914 
L 54.425585 48.581026 
L 54.447357 48.392879 
L 54.466018 48.688237 
L 54.534443 48.486588 
L 54.63397 48.67794 
L 54.621529 48.356719 
L 54.64019 48.443084 
L 54.705505 48.682677 
L 54.749048 48.265806 
L 54.789481 48.678191 
L 54.767709 48.24878 
L 54.864126 48.599178 
L 54.901449 48.136018 
L 54.969874 48.692284 
L 54.976094 48.475296 
L 55.05385 48.622932 
L 55.016527 48.276063 
L 55.081842 48.328757 
L 55.128495 48.627046 
L 55.178258 48.220807 
L 55.190699 48.504298 
L 55.252904 48.166525 
L 55.274675 48.673783 
L 55.299557 48.623425 
L 55.399084 48.222661 
L 55.311998 48.690143 
L 55.414635 48.555973 
L 55.417745 48.670091 
L 55.455068 48.383615 
L 55.523493 48.511634 
L 55.62302 48.031878 
L 55.548375 48.587486 
L 55.635461 48.292147 
L 55.644791 48.675312 
L 55.747429 48.526109 
L 55.822074 48.087159 
L 55.784751 48.579704 
L 55.856286 48.489633 
L 55.896719 48.700067 
L 55.918491 48.283066 
L 55.968254 48.564698 
L 55.996246 48.694817 
L 56.036679 48.184573 
L 56.077112 48.562313 
L 56.154868 48.204139 
L 56.18286 48.644265 
L 56.18908 48.487629 
L 56.217072 48.658076 
L 56.207741 48.187046 
L 56.294827 48.438376 
L 56.372583 48.155308 
L 56.394354 48.5957 
L 56.403685 48.464579 
L 56.47833 48.687147 
L 56.441008 47.959162 
L 56.509433 48.479015 
L 56.562306 48.108536 
L 56.590298 48.619143 
L 56.61829 48.550929 
L 56.658723 48.69537 
L 56.692936 48.326358 
L 56.717817 48.485326 
L 56.789352 48.328022 
L 56.736479 48.700378 
L 56.826675 48.510013 
L 56.929312 48.683193 
L 56.851557 48.338227 
L 56.935533 48.451035 
L 56.960415 48.303078 
L 56.944863 48.649159 
L 57.03195 48.573869 
L 57.050611 48.657192 
L 57.100374 48.286868 
L 57.131477 48.365555 
L 57.134587 48.26946 
L 57.153248 48.662586 
L 57.234114 48.586312 
L 57.349192 48.432766 
L 57.31498 48.687823 
L 57.352302 48.46683 
L 57.417617 48.303232 
L 57.389625 48.679522 
L 57.436278 48.517972 
L 57.442499 48.677068 
L 57.501593 48.28469 
L 57.538915 48.391809 
L 57.542026 48.26527 
L 57.60423 48.690968 
L 57.641553 48.658738 
L 57.650883 48.44874 
L 57.700647 48.207427 
L 57.681986 48.609828 
L 57.762851 48.38427 
L 57.775292 48.453288 
L 57.797064 48.172297 
L 57.821945 48.302713 
L 57.905921 48.112557 
L 57.837497 48.639236 
L 57.927693 48.355002 
L 57.952575 48.702319 
L 58.03344 48.209006 
L 58.039661 48.462896 
L 58.117416 48.662064 
L 58.101865 48.264953 
L 58.151629 48.620112 
L 58.226274 48.251774 
L 58.251156 48.644799 
L 58.263597 48.595425 
L 58.288478 48.693842 
L 58.325801 48.01879 
L 58.369344 48.582236 
L 58.400446 48.321806 
L 58.471981 48.672959 
L 58.481312 48.490589 
L 58.512414 48.636171 
L 58.583949 48.356024 
L 58.58706 48.237878 
L 58.618162 48.659611 
L 58.695917 48.270164 
L 58.742571 48.609888 
L 58.792334 48.155419 
L 58.807885 48.57033 
L 58.817216 48.263101 
L 58.842098 48.684184 
L 58.916743 48.613502 
L 58.997609 48.320031 
L 58.957176 48.6472 
L 59.028711 48.585014 
L 59.034931 48.587265 
L 59.038042 48.649282 
L 59.125128 48.231084 
L 59.047372 48.681312 
L 59.15312 48.368336 
L 59.168671 48.676478 
L 59.174891 48.343074 
L 59.265088 48.581945 
L 59.333512 48.270372 
L 59.352174 48.678842 
L 59.377056 48.496048 
L 59.383276 48.633268 
L 59.408158 48.04398 
L 59.476583 48.449027 
L 59.532567 48.214291 
L 59.495244 48.637226 
L 59.57611 48.417645 
L 59.597881 48.675652 
L 59.663196 48.1167 
L 59.684967 48.389967 
L 59.772053 48.277626 
L 59.706739 48.672653 
L 59.790715 48.460495 
L 59.824927 48.120156 
L 59.796935 48.614786 
L 59.874691 48.554002 
L 59.946226 48.676864 
L 59.918234 48.324112 
L 59.974218 48.491585 
L 59.986659 48.351461 
L 60.00221 48.69127 
L 60.079965 48.492297 
L 60.139059 48.673238 
L 60.120398 48.227556 
L 60.188823 48.414143 
L 60.257248 48.68856 
L 60.235476 48.353858 
L 60.300791 48.46895 
L 60.350554 48.248961 
L 60.400318 48.608355 
L 60.412759 48.359689 
L 60.440751 48.689142 
L 60.468743 48.271302 
L 60.524727 48.397685 
L 60.555829 48.485794 
L 60.530947 48.338698 
L 60.558939 48.406543 
L 60.56827 48.66264 
L 60.611813 48.213545 
L 60.670907 48.473785 
L 60.726891 48.675524 
L 60.736222 48.256213 
L 60.742442 48.371831 
L 60.745552 48.184776 
L 60.782875 48.660773 
L 60.85441 48.217375 
L 60.963268 48.689728 
L 60.922835 48.132236 
L 60.966378 48.617868 
L 61.059685 48.324225 
L 61.041023 48.671712 
L 61.075236 48.528112 
L 61.159212 48.68785 
L 61.128109 48.298632 
L 61.190314 48.634447 
L 61.193424 48.641294 
L 61.202755 48.511398 
L 61.218306 48.599143 
L 61.305392 48.220343 
L 61.324053 48.689911 
L 61.327163 48.555221 
L 61.330274 48.650333 
L 61.386258 48.054977 
L 61.432911 48.47599 
L 61.451572 48.299448 
L 61.498226 48.682288 
L 61.541769 48.521926 
L 61.641296 48.214273 
L 61.607083 48.657937 
L 61.656847 48.341177 
L 61.694169 48.320328 
L 61.771925 48.700606 
L 61.790586 48.323277 
L 61.883893 48.514812 
L 61.927436 48.680408 
L 61.949207 48.169772 
L 61.995861 48.571413 
L 62.104718 48.208428 
L 62.048735 48.698874 
L 62.107829 48.327894 
L 62.163813 48.663983 
L 62.138931 48.053803 
L 62.219797 48.421238 
L 62.257119 48.104324 
L 62.235348 48.666301 
L 62.325544 48.30441 
L 62.393969 48.102479 
L 62.440622 48.676257 
L 62.499716 48.227629 
L 62.5557 48.345151 
L 62.580582 48.32941 
L 62.583692 48.507345 
L 62.673889 48.700174 
L 62.683219 48.298037 
L 62.69566 48.60592 
L 62.804518 48.168883 
L 62.745424 48.633714 
L 62.810738 48.437176 
L 62.854282 48.680351 
L 62.882274 48.38739 
L 62.922706 48.577684 
L 62.925817 48.612829 
L 62.944478 48.197319 
L 63.016013 48.403641 
L 63.025344 48.221417 
L 63.087548 48.680447 
L 63.12176 48.528384 
L 63.227508 48.284515 
L 63.165304 48.683167 
L 63.230618 48.405633 
L 63.246169 48.664001 
L 63.314594 48.139742 
L 63.342586 48.496051 
L 63.414121 48.29824 
L 63.39546 48.618963 
L 63.451444 48.365252 
L 63.476326 48.675345 
L 63.53542 48.122328 
L 63.563412 48.465161 
L 63.582073 48.6626 
L 63.569632 48.365836 
L 63.690931 48.607525 
L 63.802899 48.240103 
L 63.700261 48.697909 
L 63.806009 48.375412 
L 63.911756 48.703465 
L 63.834001 48.329606 
L 63.917977 48.600988 
L 64.033055 48.295699 
L 63.945969 48.682329 
L 64.036165 48.368225 
L 64.057937 48.669646 
L 64.148133 48.437342 
L 64.222778 48.688902 
L 64.160574 48.182508 
L 64.260101 48.543425 
L 64.350297 48.446486 
L 64.269432 48.689987 
L 64.365848 48.524305 
L 64.396951 48.687614 
L 64.462265 48.259921 
L 64.471596 48.278465 
L 64.608446 48.666129 
L 64.496478 48.261969 
L 64.636438 48.528985 
L 64.773287 48.325027 
L 64.66443 48.66865 
L 64.782618 48.475898 
L 64.854153 48.68636 
L 64.838602 48.310216 
L 64.894586 48.643607 
L 64.916357 48.310301 
L 65.006554 48.50025 
L 65.022105 48.698284 
L 65.102971 48.222582 
L 65.118522 48.578878 
L 65.174506 48.209937 
L 65.146514 48.686074 
L 65.2336 48.335631 
L 65.345568 48.68324 
L 65.351788 48.674218 
L 65.420213 47.939382 
L 65.37667 48.695549 
L 65.463756 48.533031 
L 65.479307 48.692215 
L 65.525961 48.248195 
L 65.572614 48.575957 
L 65.628598 48.280145 
L 65.597496 48.652985 
L 65.690802 48.460371 
L 65.743676 48.697111 
L 65.774778 48.278437 
L 65.80588 48.586266 
L 65.874305 48.67672 
L 65.917848 48.388491 
L 65.964502 48.613613 
L 65.998714 48.290563 
L 66.026706 48.437379 
L 66.092021 48.306626 
L 66.116902 48.66365 
L 66.126233 48.48547 
L 66.148005 48.66083 
L 66.216429 48.249488 
L 66.238201 48.603211 
L 66.322177 48.270747 
L 66.272413 48.681322 
L 66.36261 48.333797 
L 66.437255 48.681937 
L 66.474578 48.575147 
L 66.583435 48.389974 
L 66.487019 48.692425 
L 66.586546 48.525368 
L 66.617648 48.649346 
L 66.639419 48.335335 
L 66.695403 48.473257 
L 66.720285 48.140937 
L 66.742057 48.675613 
L 66.804261 48.427215 
L 66.882016 48.702633 
L 66.847804 48.2407 
L 66.913119 48.445364 
L 66.978433 48.615815 
L 66.922449 48.379566 
L 66.987764 48.482067 
L 67.087291 48.178486 
L 67.053079 48.592088 
L 67.099732 48.191658 
L 67.127724 48.652613 
L 67.155716 48.13374 
L 67.2117 48.424592 
L 67.227251 48.258055 
L 67.277014 48.653704 
L 67.305006 48.542077 
L 67.35788 48.673356 
L 67.392093 48.305111 
L 67.416974 48.619093 
L 67.49162 48.326278 
L 67.423195 48.666398 
L 67.504061 48.551013 
L 67.507171 48.700648 
L 67.556934 48.22929 
L 67.616028 48.677171 
L 67.619139 48.681216 
L 67.622249 48.509974 
L 67.668902 48.24865 
L 67.690674 48.627964 
L 67.731107 48.543238 
L 67.743547 48.649187 
L 67.771539 48.115086 
L 67.808862 48.421512 
L 67.839964 48.182716 
L 67.880397 48.647652 
L 67.91772 48.328656 
L 67.992365 48.61574 
L 67.955042 48.218457 
L 68.029688 48.408912 
L 68.138545 48.661099 
L 68.119884 48.303896 
L 68.150986 48.64267 
L 68.169648 48.692675 
L 68.266064 48.373588 
L 68.328269 48.292854 
L 68.378032 48.620213 
L 68.446457 48.343601 
L 68.434016 48.657505 
L 68.49311 48.447128 
L 68.517992 48.319674 
L 68.561535 48.693394 
L 68.595748 48.590043 
L 68.601968 48.667947 
L 68.645511 48.277535 
L 68.701495 48.559902 
L 68.707716 48.245116 
L 68.782361 48.677911 
L 68.816573 48.406521 
L 68.835235 48.301022 
L 68.863227 48.600496 
L 68.881888 48.55639 
L 68.900549 48.28888 
L 68.990746 48.659521 
L 69.028068 48.263343 
L 69.003187 48.663817 
L 69.099603 48.565437 
L 69.143146 48.659601 
L 69.155587 48.392118 
L 69.202241 48.566168 
L 69.239563 48.402605 
L 69.233343 48.696561 
L 69.311098 48.56924 
L 69.314209 48.577194 
L 69.320429 48.323224 
L 69.342201 48.38285 
L 69.401295 48.250555 
L 69.360862 48.622247 
L 69.432397 48.535633 
L 69.510152 48.677535 
L 69.47283 48.373114 
L 69.544365 48.606853 
L 69.634561 48.230315 
L 69.6159 48.64297 
L 69.659443 48.369742 
L 69.674994 48.686793 
L 69.665663 48.36893 
L 69.780742 48.613369 
L 69.855387 48.178974 
L 69.811844 48.671777 
L 69.889599 48.531679 
L 69.89582 48.686183 
L 69.958024 48.153928 
L 69.998457 48.465004 
L 70.116645 48.702166 
L 70.088653 48.233364 
L 70.119756 48.636292 
L 70.222393 48.165674 
L 70.132196 48.645938 
L 70.237944 48.227718 
L 70.31881 48.675047 
L 70.300148 48.15961 
L 70.349912 48.586418 
L 70.356132 48.290009 
L 70.436998 48.694905 
L 70.46499 48.308236 
L 70.520974 48.665205 
L 70.477431 48.294873 
L 70.576958 48.455501 
L 70.580068 48.460153 
L 70.583178 48.306051 
L 70.592509 48.38339 
L 70.598729 48.249034 
L 70.639162 48.677688 
L 70.698256 48.54519 
L 70.704477 48.648627 
L 70.769792 48.299411 
L 70.800894 48.637306 
L 70.804004 48.380394 
L 70.897311 48.674713 
L 70.912862 48.532454 
L 70.950184 48.209585 
L 70.978176 48.660756 
L 71.018609 48.567754 
L 71.040381 48.693289 
L 71.096365 48.233999 
L 71.124357 48.49803 
L 71.127467 48.410073 
L 71.136798 48.675204 
L 71.236325 48.421604 
L 71.239435 48.4125 
L 71.270537 48.654006 
L 71.273647 48.583947 
L 71.332741 48.693328 
L 71.289198 48.376168 
L 71.382505 48.575286 
L 71.510024 48.370269 
L 71.401166 48.652537 
L 71.522465 48.447046 
L 71.525575 48.246255 
L 71.575339 48.676418 
L 71.631323 48.481186 
L 71.662425 48.668066 
L 71.702858 48.213159 
L 71.749511 48.641925 
L 71.839707 48.29505 
L 71.808605 48.689185 
L 71.867699 48.41819 
L 71.892581 48.692398 
L 71.964116 48.205016 
L 71.979667 48.449171 
L 72.01388 48.230979 
L 72.060533 48.640414 
L 72.082304 48.523463 
L 72.184942 48.407584 
L 72.194272 48.68229 
L 72.234705 48.364388 
L 72.30624 48.450087 
L 72.340453 48.194346 
L 72.312461 48.651881 
L 72.368445 48.544581 
L 72.411988 48.68108 
L 72.399547 48.325962 
L 72.471082 48.432935 
L 72.548837 48.626753 
L 72.57994 48.264168 
L 72.614152 48.688535 
L 72.670136 48.185652 
L 72.691908 48.405554 
L 72.704348 48.673642 
L 72.791435 48.188054 
L 72.794545 48.238747 
L 72.797655 48.231868 
L 72.806986 48.474187 
L 72.810096 48.460519 
L 72.912733 48.661336 
L 72.890962 48.346462 
L 72.928284 48.598712 
L 73.030922 48.368509 
L 72.934505 48.656651 
L 73.046473 48.49678 
L 73.114897 48.671894 
L 73.15222 48.394183 
L 73.15533 48.543532 
L 73.161551 48.322347 
L 73.177102 48.682865 
L 73.261078 48.569062 
L 73.332613 48.674231 
L 73.326392 48.370549 
L 73.369936 48.525599 
L 73.43525 48.228044 
L 73.475683 48.640374 
L 73.540998 48.419634 
L 73.559659 48.687351 
L 73.590761 48.542971 
L 73.696509 48.663228 
L 73.615643 48.349214 
L 73.699619 48.628475 
L 73.808477 48.355721 
L 73.736941 48.650407 
L 73.811587 48.438928 
L 73.873791 48.614061 
L 73.908004 48.223996 
L 73.923555 48.583767 
L 73.929775 48.340267 
L 73.99509 48.680454 
L 74.038633 48.489689 
L 74.066625 48.634591 
L 74.094617 48.454436 
L 74.153711 48.624233 
L 74.234577 48.31201 
L 74.194144 48.643471 
L 74.268789 48.379894 
L 74.324773 48.327087 
L 74.380757 48.66651 
L 74.439851 48.153254 
L 74.486505 48.672891 
L 74.492725 48.543308 
L 74.601583 48.329151 
L 74.582921 48.695616 
L 74.607803 48.405803 
L 74.626464 48.357381 
L 74.651346 48.670776 
L 74.70422 48.49879 
L 74.719771 48.679538 
L 74.778865 48.327237 
L 74.809967 48.633597 
L 74.903274 48.666342 
L 74.925046 48.278845 
L 75.015242 48.684377 
L 75.033903 48.200675 
L 75.158312 48.685598 
L 75.161422 48.667141 
L 75.195635 48.011705 
L 75.2765 48.34391 
L 75.351146 48.640994 
L 75.320043 48.208931 
L 75.397799 48.561126 
L 75.438232 48.246337 
L 75.481775 48.668752 
L 75.500436 48.53297 
L 75.593743 48.67115 
L 75.587522 48.381068 
L 75.609294 48.637025 
L 75.662168 48.324311 
L 75.621735 48.657784 
L 75.724372 48.42582 
L 75.783466 48.676146 
L 75.746144 48.383331 
L 75.83945 48.55153 
L 75.923426 48.287636 
L 75.870552 48.679288 
L 75.951418 48.47054 
L 76.016733 48.691978 
L 75.988741 48.396716 
L 76.069607 48.627156 
L 76.078937 48.398065 
L 76.162913 48.693166 
L 76.181574 48.570283 
L 76.209566 48.38325 
L 76.290432 48.662041 
L 76.305983 48.412001 
L 76.365077 48.679864 
L 76.39929 48.596239 
L 76.424172 48.672102 
L 76.480156 48.276336 
L 76.505037 48.560166 
L 76.613895 48.239551 
L 76.529919 48.677577 
L 76.617005 48.497633 
L 76.641887 48.687547 
L 76.707202 48.284762 
L 76.722753 48.445761 
L 76.725863 48.410942 
L 76.763186 48.693789 
L 76.81917 48.59387 
L 76.837831 48.683216 
L 76.906256 48.357082 
L 76.921807 48.445167 
L 76.959129 48.277831 
L 76.96846 48.653479 
L 77.027554 48.534531 
L 77.039995 48.682001 
L 77.095979 48.344213 
L 77.127081 48.373243 
L 77.133302 48.242693 
L 77.183065 48.64019 
L 77.235939 48.403367 
L 77.329246 48.682717 
L 77.260821 48.259464 
L 77.347907 48.496851 
L 77.431883 48.641289 
L 77.413222 48.268363 
L 77.441214 48.493839 
L 77.53763 48.282284 
L 77.500308 48.622773 
L 77.550071 48.467125 
L 77.646488 48.690582 
L 77.602945 48.271737 
L 77.655819 48.365581 
L 77.774007 48.699893 
L 77.736684 48.33658 
L 77.777117 48.598961 
L 77.798889 48.335204 
L 77.836212 48.677259 
L 77.885975 48.457106 
L 77.913967 48.691319 
L 77.985502 48.323448 
L 77.994833 48.433325 
L 78.035266 48.280978 
L 78.069478 48.676325 
L 78.072588 48.643973 
L 78.075698 48.690579 
L 78.141013 48.147974 
L 78.169005 48.453704 
L 78.24365 48.140834 
L 78.193887 48.686351 
L 78.274753 48.584982 
L 78.280973 48.676096 
L 78.284083 48.525761 
L 78.290304 48.537656 
L 78.293414 48.398799 
L 78.358728 48.698949 
L 78.399161 48.591518 
L 78.483137 48.368517 
L 78.461366 48.68441 
L 78.52046 48.490923 
L 78.542231 48.690806 
L 78.573334 48.294216 
L 78.632428 48.559812 
L 78.738175 48.670194 
L 78.688412 48.452561 
L 78.744396 48.659275 
L 78.787939 48.263035 
L 78.778608 48.685357 
L 78.856364 48.630766 
L 78.859474 48.661719 
L 78.931009 48.410047 
L 78.94967 48.4791 
L 79.046087 48.310592 
L 79.011875 48.657008 
L 79.058528 48.384472 
L 79.142504 48.687952 
L 79.117622 48.282726 
L 79.170496 48.594157 
L 79.238921 48.68104 
L 79.22337 48.353751 
L 79.270023 48.602031 
L 79.326007 48.445707 
L 79.357109 48.678257 
L 79.381991 48.551687 
L 79.459746 48.692427 
L 79.416203 48.193393 
L 79.487738 48.605709 
L 79.593486 48.426787 
L 79.559273 48.697693 
L 79.599706 48.495941 
L 79.618368 48.671344 
L 79.686792 48.263609 
L 79.711674 48.631285 
L 79.783209 48.379471 
L 79.814311 48.701388 
L 79.823642 48.562848 
L 79.832973 48.387616 
L 79.867185 48.685068 
L 79.92939 48.519818 
L 80.035137 48.666 
L 80.013366 48.244428 
L 80.038247 48.433723 
L 80.066239 48.118638 
L 80.100452 48.663131 
L 80.153325 48.261648 
L 80.199979 48.606041 
L 80.262183 48.187378 
L 80.265293 48.186554 
L 80.271514 48.239242 
L 80.299506 48.668889 
L 80.389702 48.544516 
L 80.430135 48.358281 
L 80.492339 48.661336 
L 80.49545 48.550914 
L 80.576315 48.662238 
L 80.50478 48.371419 
L 80.604307 48.608327 
L 80.616748 48.423745 
L 80.64163 48.694648 
L 80.716275 48.538455 
L 80.719386 48.662223 
L 80.744267 48.352849 
L 80.828243 48.626309 
L 80.92466 48.360571 
L 80.856235 48.694386 
L 80.943321 48.44442 
L 80.949542 48.664001 
L 81.039738 48.343978 
L 81.052179 48.472399 
L 81.055289 48.284674 
L 81.114383 48.661296 
L 81.161037 48.540904 
L 81.232572 48.665582 
L 81.173478 48.437331 
L 81.238792 48.447112 
L 81.241902 48.378557 
L 81.328989 48.67645 
L 81.34143 48.548072 
L 81.444067 48.685376 
L 81.391193 48.357376 
L 81.450287 48.578681 
L 81.534263 48.439697 
L 81.518712 48.700263 
L 81.556035 48.649656 
L 81.571586 48.696208 
L 81.63379 48.358377 
L 81.652452 48.592382 
L 81.658672 48.392321 
L 81.714656 48.680899 
L 81.764419 48.436162 
L 81.826624 48.682187 
L 81.792411 48.359344 
L 81.879498 48.615494 
L 81.985245 48.412098 
L 81.885718 48.663864 
L 81.994576 48.473937 
L 82.072331 48.676902 
L 82.05678 48.250561 
L 82.106544 48.61753 
L 82.184299 48.388537 
L 82.162528 48.684922 
L 82.215401 48.597418 
L 82.249614 48.675533 
L 82.230952 48.476881 
L 82.290047 48.489606 
L 82.299377 48.315942 
L 82.370912 48.672044 
L 82.392684 48.584342 
L 82.457999 48.688441 
L 82.439337 48.406799 
L 82.489101 48.572942 
L 82.538864 48.129306 
L 82.576187 48.675991 
L 82.601069 48.394587 
L 82.660163 48.693201 
L 82.635281 48.253023 
L 82.713037 48.477893 
L 82.781461 48.281349 
L 82.731698 48.645576 
L 82.821894 48.326632 
L 82.852996 48.702864 
L 82.837445 48.268385 
L 82.936972 48.644233 
L 83.020948 48.416762 
L 82.952524 48.68215 
L 83.052051 48.526366 
L 83.058271 48.684868 
L 83.123586 48.384102 
L 83.160908 48.637497 
L 83.176459 48.305919 
L 83.18268 48.669486 
L 83.279097 48.353549 
L 83.313309 48.67128 
L 83.32886 48.300546 
L 83.394175 48.622887 
L 83.478151 48.351019 
L 83.422167 48.678798 
L 83.506143 48.55465 
L 83.527914 48.655309 
L 83.531024 48.476582 
L 83.534135 48.5253 
L 83.537245 48.301566 
L 83.599449 48.658142 
L 83.642992 48.559113 
L 83.689646 48.703007 
L 83.649213 48.44169 
L 83.74874 48.605175 
L 83.798503 48.393302 
L 83.829606 48.676893 
L 83.857598 48.675514 
L 83.916692 48.411998 
L 83.866928 48.689988 
L 83.978896 48.472199 
L 84.016219 48.674706 
L 83.985117 48.445911 
L 84.075313 48.57987 
L 84.078423 48.338146 
L 84.131297 48.69692 
L 84.184171 48.570656 
L 84.252595 48.677735 
L 84.280587 48.436349 
L 84.283698 48.467946 
L 84.361453 48.345739 
L 84.305469 48.664856 
L 84.373894 48.524144 
L 84.377004 48.691363 
L 84.392555 48.397019 
L 84.482752 48.591429 
L 84.585389 48.330926 
L 84.498303 48.687906 
L 84.59472 48.483148 
L 84.700467 48.687323 
L 84.610271 48.389018 
L 84.712908 48.625886 
L 84.778223 48.358184 
L 84.812435 48.670231 
L 84.827986 48.541659 
L 84.924403 48.667204 
L 84.859088 48.478219 
L 84.927513 48.518279 
L 85.036371 48.333018 
L 85.02082 48.664971 
L 85.042591 48.458888 
L 85.064363 48.40989 
L 85.123457 48.701928 
L 85.15767 48.359893 
L 85.235425 48.391388 
L 85.278968 48.684438 
L 85.347393 48.308279 
L 85.418928 48.679519 
L 85.456251 48.429804 
L 85.462471 48.256038 
L 85.490463 48.679339 
L 85.555778 48.597489 
L 85.639754 48.695573 
L 85.574439 48.338852 
L 85.655305 48.366098 
L 85.658415 48.289362 
L 85.73617 48.672529 
L 85.761052 48.369957 
L 85.832587 48.672215 
L 85.792154 48.175605 
L 85.87302 48.480766 
L 85.969437 48.642898 
L 85.882351 48.408991 
L 85.991208 48.529801 
L 86.075184 48.379387 
L 86.050303 48.701937 
L 86.100066 48.558898 
L 86.190263 48.689061 
L 86.115617 48.445407 
L 86.212034 48.647357 
L 86.29912 48.391468 
L 86.240026 48.679204 
L 86.327112 48.571802 
L 86.407978 48.675977 
L 86.383096 48.305609 
L 86.43597 48.53998 
L 86.495064 48.674985 
L 86.470182 48.475928 
L 86.535497 48.540467 
L 86.538607 48.40481 
L 86.619473 48.66837 
L 86.644355 48.464714 
L 86.737661 48.689931 
L 86.756323 48.653692 
L 86.827858 48.366319 
L 86.852739 48.682418 
L 86.86518 48.579484 
L 86.967818 48.690361 
L 86.890062 48.310508 
L 86.974038 48.616943 
L 87.054904 48.313187 
L 86.980258 48.670807 
L 87.079786 48.607279 
L 87.107777 48.690262 
L 87.123329 48.401032 
L 87.191753 48.64939 
L 87.309942 48.313767 
L 87.316162 48.316389 
L 87.42502 48.643912 
L 87.362816 48.187529 
L 87.43124 48.588954 
L 87.462343 48.307537 
L 87.533878 48.650571 
L 87.546319 48.530844 
L 87.633405 48.672741 
L 87.648956 48.3594 
L 87.652066 48.503451 
L 87.754703 48.254327 
L 87.689389 48.582424 
L 87.764034 48.365731 
L 87.8449 48.68052 
L 87.85423 48.328238 
L 87.876002 48.475525 
L 87.928876 48.677919 
L 87.897773 48.358851 
L 87.9973 48.617056 
L 88.031513 48.380023 
L 88.078166 48.658009 
L 88.106158 48.617425 
L 88.115489 48.470394 
L 88.180803 48.310357 
L 88.202575 48.65267 
L 88.224346 48.479293 
L 88.286551 48.676822 
L 88.252338 48.266031 
L 88.336314 48.629981 
L 88.376747 48.315896 
L 88.392298 48.692755 
L 88.448282 48.601114 
L 88.498046 48.266976 
L 88.479385 48.66067 
L 88.56025 48.602021 
L 88.631785 48.667132 
L 88.591352 48.454711 
L 88.638006 48.502266 
L 88.709541 48.359953 
L 88.690879 48.65895 
L 88.737533 48.438035 
L 88.821509 48.690178 
L 88.796627 48.196259 
L 88.846391 48.629027 
L 88.949028 48.330438 
L 88.958358 48.542121 
L 89.054775 48.390215 
L 89.051665 48.690919 
L 89.067216 48.548751 
L 89.163633 48.70173 
L 89.129421 48.418538 
L 89.179184 48.609502 
L 89.288042 48.257717 
L 89.272491 48.680997 
L 89.291152 48.348297 
L 89.331585 48.676175 
L 89.40312 48.53925 
L 89.483986 48.684847 
L 89.493316 48.413143 
L 89.502647 48.532162 
L 89.5493 48.385281 
L 89.511978 48.704366 
L 89.614615 48.467604 
L 89.642607 48.684466 
L 89.661268 48.25388 
L 89.729693 48.659945 
L 89.785677 48.341281 
L 89.844771 48.525954 
L 89.891424 48.697126 
L 89.854102 48.431103 
L 89.956739 48.682629 
L 90.025164 48.207212 
L 89.96607 48.693718 
L 90.068707 48.433476 
L 90.081148 48.692708 
L 90.174454 48.402536 
L 90.177565 48.631152 
L 90.180675 48.368382 
L 90.211777 48.700233 
L 90.289533 48.513131 
L 90.292643 48.676119 
L 90.326855 48.378717 
L 90.39839 48.493231 
L 90.469925 48.376589 
L 90.410831 48.679448 
L 90.473036 48.495106 
L 90.501028 48.687982 
L 90.53524 48.3375 
L 90.581893 48.485302 
L 90.640987 48.222101 
L 90.597444 48.667386 
L 90.687641 48.579723 
L 90.715633 48.416283 
L 90.746735 48.671568 
L 90.780947 48.519967 
L 90.889805 48.67512 
L 90.843152 48.395859 
L 90.892915 48.578704 
L 90.896026 48.693192 
L 90.967561 48.439983 
L 91.004883 48.656087 
L 91.1013 48.384414 
L 91.079528 48.665726 
L 91.116851 48.526035 
L 91.197717 48.64618 
L 91.144843 48.375471 
L 91.210158 48.53767 
L 91.315905 48.344372 
L 91.216378 48.699111 
L 91.319015 48.352737 
L 91.350118 48.692955 
L 91.430983 48.578247 
L 91.52118 48.304651 
L 91.458975 48.693667 
L 91.539841 48.629746 
L 91.645589 48.325724 
L 91.595825 48.66278 
L 91.658029 48.529389 
L 91.717124 48.671434 
L 91.707793 48.247575 
L 91.769997 48.600874 
L 91.829092 48.423035 
L 91.797989 48.671422 
L 91.881965 48.565068 
L 91.888186 48.676396 
L 91.931729 48.380843 
L 91.990823 48.689021 
L 92.000154 48.582071 
L 92.074799 48.424834 
L 92.037476 48.681332 
L 92.112122 48.55956 
L 92.199208 48.671096 
L 92.130783 48.422995 
L 92.220979 48.614643 
L 92.301845 48.341488 
L 92.295625 48.667256 
L 92.329837 48.506805 
L 92.404482 48.692257 
L 92.435584 48.45254 
L 92.441805 48.60909 
L 92.525781 48.639992 
L 92.457356 48.347178 
L 92.538222 48.633698 
L 92.600426 48.394984 
L 92.647079 48.671799 
L 92.6533 48.463918 
L 92.734166 48.692889 
L 92.712394 48.331458 
L 92.765268 48.627177 
L 92.843023 48.404583 
L 92.79948 48.66465 
L 92.880346 48.513391 
L 92.917669 48.683014 
L 92.902117 48.346179 
L 92.979873 48.495598 
L 93.042077 48.24819 
L 92.992314 48.68285 
L 93.08562 48.40402 
L 93.129164 48.669314 
L 93.185147 48.393167 
L 93.197588 48.551097 
L 93.297115 48.675195 
L 93.241131 48.331244 
L 93.306446 48.620449 
L 93.409083 48.306559 
L 93.377981 48.683046 
L 93.418414 48.391429 
L 93.468177 48.682787 
L 93.452626 48.355296 
L 93.533492 48.510409 
L 93.608137 48.411224 
L 93.595697 48.65212 
L 93.63924 48.560914 
L 93.64857 48.684674 
L 93.654791 48.478041 
L 93.657901 48.396524 
L 93.679672 48.667007 
L 93.760538 48.551481 
L 93.828963 48.669752 
L 93.78231 48.385297 
L 93.853845 48.49339 
L 93.863175 48.27345 
L 93.937821 48.699888 
L 93.962702 48.534554 
L 93.990694 48.674521 
L 94.052899 48.441724 
L 94.07467 48.585496 
L 94.093332 48.454792 
L 94.115103 48.358955 
L 94.146205 48.663034 
L 94.195969 48.520038 
L 94.255063 48.697058 
L 94.267504 48.249809 
L 94.298606 48.525749 
L 94.335929 48.375007 
L 94.376362 48.679676 
L 94.407464 48.554778 
L 94.49455 48.666636 
L 94.478999 48.447765 
L 94.519432 48.577525 
L 94.618959 48.405296 
L 94.594077 48.692987 
L 94.6314 48.470866 
L 94.63451 48.470092 
L 94.63762 48.581697 
L 94.678053 48.699875 
L 94.643841 48.401193 
L 94.690494 48.50045 
L 94.693604 48.328833 
L 94.699825 48.679753 
L 94.702935 48.623949 
" clip-path="url(#p49e34fd700)" style="fill: none; stroke: #9467bd; stroke-width: 0.5; stroke-linecap: square"/>
   </g>
  </g>
 </g>
 <defs>
  <clipPath id="p49e34fd700">
   <rect x="0" y="-0" width="99.212598" height="51.023622"/>
  </clipPath>
 </defs>
</svg>
