<?xml version="1.0" encoding="utf-8" standalone="no"?>
<!DOCTYPE svg PUBLIC "-//W3C//DTD SVG 1.1//EN"
  "http://www.w3.org/Graphics/SVG/1.1/DTD/svg11.dtd">
<svg xmlns:xlink="http://www.w3.org/1999/xlink" width="99.212598pt" height="51.023622pt" viewBox="0 0 99.212598 51.023622" xmlns="http://www.w3.org/2000/svg" version="1.1">
 <metadata>
  <rdf:RDF xmlns:dc="http://purl.org/dc/elements/1.1/" xmlns:cc="http://creativecommons.org/ns#" xmlns:rdf="http://www.w3.org/1999/02/22-rdf-syntax-ns#">
   <cc:Work>
    <dc:type rdf:resource="http://purl.org/dc/dcmitype/StillImage"/>
    <dc:date>2024-10-30T10:51:15.524362</dc:date>
    <dc:format>image/svg+xml</dc:format>
    <dc:creator>
     <cc:Agent>
      <dc:title>Matplotlib v3.8.4, https://matplotlib.org/</dc:title>
     </cc:Agent>
    </dc:creator>
   </cc:Work>
  </rdf:RDF>
 </metadata>
 <defs>
  <style type="text/css">*{stroke-linejoin: round; stroke-linecap: butt}</style>
 </defs>
 <g id="figure_1">
  <g id="patch_1">
   <path d="M 0 51.023622 
L 99.212598 51.023622 
L 99.212598 0 
L 0 0 
L 0 51.023622 
z
" style="fill: none"/>
  </g>
  <g id="axes_1">
   <g id="patch_2">
    <path d="M 0 51.023622 
L 99.212598 51.023622 
L 99.212598 -0 
L 0 -0 
L 0 51.023622 
z
" style="fill: none"/>
   </g>
   <g id="matplotlib.axis_1">
    <g id="xtick_1"/>
    <g id="xtick_2"/>
   </g>
   <g id="matplotlib.axis_2">
    <g id="ytick_1"/>
    <g id="ytick_2"/>
   </g>
   <g id="line2d_1">
    <path d="M 4.509664 15.496954 
L 4.624742 22.670874 
L 4.637183 22.468443 
L 4.758481 2.319256 
L 4.808245 14.178618 
L 4.892221 46.075556 
L 4.960645 34.432849 
L 4.969976 34.200678 
L 5.001078 37.946493 
L 5.035291 44.933097 
L 5.106826 36.980921 
L 5.237455 33.345747 
L 5.249896 34.174601 
L 5.296549 46.364317 
L 5.405407 41.721784 
L 5.439619 44.597718 
L 5.458281 48.497674 
L 5.501824 37.713617 
L 5.623122 21.648356 
L 5.679106 28.365454 
L 5.716429 29.591006 
L 5.753752 27.122588 
L 5.812846 18.534055 
L 5.862609 27.181227 
L 6.027451 46.636978 
L 6.046112 46.392438 
L 6.15497 44.876154 
L 6.123868 47.46121 
L 6.173631 45.720421 
L 6.270048 48.609182 
L 6.229615 44.815474 
L 6.282489 46.113142 
L 6.335363 38.93422 
L 6.406898 42.765352 
L 6.413118 42.801135 
L 6.462882 39.677699 
L 6.469102 39.520933 
L 6.506425 42.508984 
L 6.661936 48.087299 
L 6.671267 48.551286 
L 6.705479 46.036726 
L 6.764573 47.542883 
L 6.86721 42.703799 
L 6.895202 44.436915 
L 6.929415 45.972011 
L 7.00095 44.43531 
L 7.00406 44.459604 
L 7.075595 43.067507 
L 7.116028 43.95367 
L 7.134689 44.612504 
L 7.193783 41.944571 
L 7.227996 40.267903 
L 7.28398 42.597438 
L 7.302641 41.981856 
L 7.324413 41.357262 
L 7.349294 42.255192 
L 7.507916 48.601489 
L 7.554569 47.657151 
L 7.582561 44.944631 
L 7.666537 47.174074 
L 7.731852 45.652713 
L 7.697639 48.509553 
L 7.775395 47.134817 
L 7.800276 48.473689 
L 7.831379 45.721995 
L 7.99 41.316506 
L 7.896693 48.179177 
L 7.99933 41.527714 
L 8.108188 43.922522 
L 8.064645 41.471321 
L 8.145511 42.59795 
L 8.161062 42.218006 
L 8.207715 44.022538 
L 8.217046 43.964048 
L 8.238817 43.478331 
L 8.347675 46.38682 
L 8.366336 48.548529 
L 8.41921 46.023364 
L 8.478304 48.051508 
L 8.509407 46.424108 
L 8.621374 46.579926 
L 8.714681 48.459406 
L 8.745783 46.808682 
L 8.767555 45.350053 
L 8.848421 47.653169 
L 8.854641 47.708681 
L 8.873302 47.020545 
L 9.038144 42.097967 
L 9.069246 43.302955 
L 9.168773 46.012741 
L 9.212316 45.265273 
L 9.330505 47.79611 
L 9.349166 46.036225 
L 9.364717 45.208613 
L 9.414481 48.469016 
L 9.445583 47.289139 
L 9.54822 48.127465 
L 9.489126 46.350692 
L 9.569992 47.547216 
L 9.607314 46.662303 
L 9.638416 47.914369 
L 9.644637 48.325689 
L 9.728613 46.93123 
L 9.750384 48.03182 
L 9.821919 48.678682 
L 9.846801 47.748246 
L 9.989871 45.859923 
L 9.881014 48.091067 
L 10.008533 47.060888 
L 10.020973 47.800831 
L 10.092509 46.353367 
L 10.123611 47.61019 
L 10.244909 48.575309 
L 10.182705 47.213223 
L 10.25113 48.443273 
L 10.269791 48.445536 
L 10.322665 46.838253 
L 10.363098 43.85607 
L 10.419082 48.427939 
L 10.447074 47.572275 
L 10.468845 46.828578 
L 10.515498 48.293508 
L 10.552821 47.69352 
L 10.608805 47.39116 
L 10.577703 48.111901 
L 10.627466 47.860962 
L 10.67723 47.115513 
L 10.751875 48.42184 
L 10.898056 45.778875 
L 10.761206 48.495061 
L 10.938488 46.79003 
L 11.044236 48.527598 
L 10.972701 46.27644 
L 11.069118 47.618125 
L 11.293053 44.493479 
L 11.177975 47.645152 
L 11.311715 45.586023 
L 11.345927 47.391066 
L 11.433013 46.508182 
L 11.610296 48.569922 
L 11.457895 46.366909 
L 11.619627 48.245868 
L 11.688051 47.262835 
L 11.725374 48.325816 
L 11.731595 48.120956 
L 11.734705 48.26645 
L 11.80624 47.622894 
L 11.834232 47.728453 
L 11.859114 47.906558 
L 11.883995 47.219859 
L 11.896436 46.979191 
L 11.943089 48.425762 
L 11.983522 47.560103 
L 12.061278 48.244636 
L 12.083049 47.483481 
L 12.104821 46.961931 
L 12.132813 48.501147 
L 12.191907 47.603297 
L 12.23545 48.069641 
L 12.257222 47.257348 
L 12.297655 47.54231 
L 12.344308 45.46131 
L 12.415843 46.857822 
L 12.462496 47.72979 
L 12.496709 46.065661 
L 12.590015 47.546454 
L 12.506039 45.98367 
L 12.608677 46.361404 
L 12.639779 44.843523 
L 12.683322 48.236234 
L 12.698873 48.035415 
L 12.723755 48.524232 
L 12.770408 47.263565 
L 12.782849 46.959973 
L 12.807731 47.812745 
L 12.873045 47.54438 
L 12.922809 48.583397 
L 12.991234 48.004079 
L 13.006785 47.632108 
L 13.025446 48.58674 
L 13.100091 48.119096 
L 13.112532 48.525435 
L 13.143634 47.280809 
L 13.208949 48.145683 
L 13.355129 47.102058 
L 13.488869 46.103967 
L 13.423554 47.374939 
L 13.51064 46.622847 
L 13.544853 48.400953 
L 13.625719 46.969095 
L 13.656821 45.918408 
L 13.703474 48.401382 
L 13.719025 48.134998 
L 13.834103 45.115662 
L 13.868316 47.434692 
L 13.967843 48.065243 
L 13.899418 46.069281 
L 13.986504 47.643447 
L 13.992725 47.544254 
L 14.011386 48.309802 
L 14.0767 48.213264 
L 14.101582 48.586522 
L 14.151346 47.877327 
L 14.173117 47.282082 
L 14.247763 48.597932 
L 14.253983 48.377587 
L 14.257093 48.378106 
L 14.260203 48.339236 
L 14.313077 47.787206 
L 14.3504 48.582703 
L 14.378392 47.84503 
L 14.387722 47.582675 
L 14.459258 48.43069 
L 14.49036 47.70413 
L 14.586777 48.256919 
L 14.655201 48.595228 
L 14.63343 47.4884 
L 14.664532 47.554815 
L 14.686304 46.471412 
L 14.732957 47.570006 
L 14.77961 46.990237 
L 14.813823 47.888696 
L 14.857366 46.034197 
L 14.891578 45.366141 
L 14.944452 47.287802 
L 14.984885 47.691091 
L 15.012877 46.744383 
L 15.071971 46.118671 
L 15.103073 47.712363 
L 15.115514 48.509306 
L 15.152837 46.317037 
L 15.215041 47.971006 
L 15.302127 47.253048 
L 15.280356 48.229262 
L 15.323899 47.82841 
L 15.414095 48.338254 
L 15.395434 47.661595 
L 15.435867 47.903955 
L 15.454528 47.823339 
L 15.463859 48.020094 
L 15.575827 48.661494 
L 15.550945 47.176172 
L 15.578937 48.424254 
L 15.675354 48.608083 
L 15.703346 47.449943 
L 15.77177 48.663775 
L 15.821534 47.817935 
L 15.824644 47.803983 
L 15.846416 48.201456 
L 15.868187 48.654522 
L 15.889959 47.875514 
L 15.91173 47.280708 
L 16.008147 47.401097 
L 16.014368 47.517036 
L 16.029919 47.260095 
L 16.120115 46.147429 
L 16.148107 46.762272 
L 16.260075 48.243837 
L 16.272516 47.866121 
L 16.297398 46.751628 
L 16.33472 48.08268 
L 16.384484 47.680564 
L 16.390704 47.716444 
L 16.406255 47.364808 
L 16.431137 46.703587 
L 16.508893 47.661434 
L 16.518223 47.954319 
L 16.552436 46.510796 
L 16.62086 47.811703 
L 16.661293 48.47377 
L 16.639522 47.538815 
L 16.739049 48.045483 
L 16.742159 47.990706 
L 16.773261 48.635236 
L 16.841686 48.026101 
L 16.844796 48.182367 
L 16.925662 47.711407 
L 16.950544 48.093839 
L 17.009638 47.747974 
L 17.04385 48.597692 
L 17.062512 47.934851 
L 17.130937 47.64322 
L 17.096724 48.561132 
L 17.171369 47.779017 
L 17.267786 48.640105 
L 17.286448 48.047561 
L 17.308219 46.878617 
L 17.329991 48.078715 
L 17.410856 46.945391 
L 17.438848 47.4162 
L 17.488612 45.98428 
L 17.525934 47.213602 
L 17.538375 47.35394 
L 17.569478 46.836595 
L 17.628572 45.291297 
L 17.703217 46.283679 
L 17.737429 46.955657 
L 17.777862 46.178294 
L 17.821405 46.591641 
L 17.840067 46.239805 
L 17.896051 46.710087 
L 18.036011 48.496213 
L 18.060892 47.927547 
L 18.119987 48.53637 
L 18.157309 48.168214 
L 18.256836 48.57176 
L 18.197742 47.524596 
L 18.263057 48.124774 
L 18.269277 47.709113 
L 18.3066 48.558682 
L 18.368804 48.375664 
L 18.465221 48.668325 
L 18.434119 47.785572 
L 18.477662 48.394132 
L 18.580299 47.839437 
L 18.514984 48.50963 
L 18.59585 48.125389 
L 18.645614 48.638125 
L 18.707818 48.275974 
L 18.860219 47.416083 
L 18.745141 48.51632 
L 18.86955 47.547345 
L 18.909982 48.087092 
L 18.947305 47.26425 
L 18.969077 47.344298 
L 19.01884 46.749402 
L 19.074824 47.734521 
L 19.137028 46.350737 
L 19.208564 47.554141 
L 19.171241 45.88962 
L 19.264547 46.928376 
L 19.286319 46.41323 
L 19.351634 47.410086 
L 19.373405 48.280664 
L 19.43561 47.081262 
L 19.469822 48.11452 
L 19.485373 47.276439 
L 19.528916 48.28787 
L 19.58179 48.000332 
L 19.640884 48.627922 
L 19.622223 47.907361 
L 19.712419 48.445902 
L 19.827497 47.820679 
L 19.808836 48.652074 
L 19.852379 48.033613 
L 19.899032 48.660719 
L 19.920804 47.790273 
L 19.961237 48.100223 
L 19.976788 48.026144 
L 19.998559 48.553747 
L 20.029662 48.463518 
L 20.035882 48.56501 
L 20.066984 47.466676 
L 20.132299 48.498207 
L 20.175842 47.934183 
L 20.216275 48.542357 
L 20.253597 47.971462 
L 20.256708 47.94493 
L 20.300251 48.437723 
L 20.315802 48.338682 
L 20.371786 48.622013 
L 20.390447 47.86828 
L 20.405998 47.142142 
L 20.443321 48.18148 
L 20.502415 47.661468 
L 20.611273 47.989627 
L 20.545958 47.248585 
L 20.623714 47.958887 
L 20.685918 46.742971 
L 20.735682 47.823322 
L 20.754343 48.577641 
L 20.813437 47.100451 
L 20.835209 45.875787 
L 20.919185 47.578129 
L 21.003161 48.677761 
L 21.080916 48.572412 
L 21.171112 47.840982 
L 21.13379 48.663095 
L 21.199104 47.930482 
L 21.264419 48.585107 
L 21.233317 47.789587 
L 21.317293 48.290861 
L 21.407489 47.72241 
L 21.348395 48.628988 
L 21.432371 48.166023 
L 21.491465 48.68531 
L 21.460363 48.004429 
L 21.547449 48.291859 
L 21.56611 47.936489 
L 21.650086 48.467377 
L 21.656307 48.287058 
L 21.715401 48.653081 
L 21.662527 48.230115 
L 21.768275 48.294948 
L 21.886463 47.307563 
L 21.836699 48.519263 
L 21.920675 47.526465 
L 21.942447 48.020838 
L 21.97977 47.234285 
L 22.038864 47.758837 
L 22.135281 47.044266 
L 22.097958 48.02439 
L 22.157052 47.328086 
L 22.175713 47.584803 
L 22.209926 46.655578 
L 22.26591 47.403845 
L 22.331224 46.283624 
L 22.365437 47.949966 
L 22.427641 48.514145 
L 22.396539 47.482798 
L 22.471184 47.88031 
L 22.486735 47.27774 
L 22.517838 48.350456 
L 22.567601 48.103996 
L 22.583152 48.659595 
L 22.673349 47.828971 
L 22.679569 47.521384 
L 22.713782 48.611778 
L 22.772876 48.243733 
L 22.782206 48.642529 
L 22.83197 48.223184 
L 22.881733 48.320829 
L 22.965709 47.706407 
L 22.887954 48.39976 
L 22.993701 48.212215 
L 23.052796 48.609255 
L 23.024804 48.009386 
L 23.108779 48.501431 
L 23.226968 48.048057 
L 23.242519 48.234057 
L 23.345156 48.646197 
L 23.295393 47.663846 
L 23.354487 48.400925 
L 23.40114 48.633922 
L 23.422912 48.159919 
L 23.426022 48.17775 
L 23.516218 47.386384 
L 23.482006 48.561955 
L 23.54421 47.721307 
L 23.649958 48.603954 
L 23.696611 48.375351 
L 23.749485 47.252764 
L 23.793028 48.411722 
L 23.842791 47.408513 
L 23.97031 48.627639 
L 23.979641 48.198377 
L 24.060507 47.255314 
L 24.091609 47.87163 
L 24.219128 48.414154 
L 24.135152 47.218748 
L 24.222238 48.372192 
L 24.265781 48.575693 
L 24.287553 47.986753 
L 24.299994 47.692068 
L 24.306214 47.590797 
L 24.377749 48.625088 
L 24.3933 48.090013 
L 24.461725 48.648196 
L 24.508379 48.320359 
L 24.604795 48.62466 
L 24.573693 48.217778 
L 24.623457 48.490315 
L 24.694992 47.97978 
L 24.66389 48.53163 
L 24.735425 48.200406 
L 24.766527 48.542521 
L 24.825621 48.031812 
L 24.838062 48.124673 
L 24.862944 48.068296 
L 24.900266 48.650926 
L 24.931368 48.278061 
L 24.965581 48.621321 
L 25.021565 48.015788 
L 25.027785 48.041023 
L 25.121092 47.388948 
L 25.080659 48.643192 
L 25.145974 47.571706 
L 25.211288 47.947923 
L 25.23928 47.37389 
L 25.264162 47.096204 
L 25.301485 48.48206 
L 25.338807 48.505439 
L 25.369909 48.1753 
L 25.397901 47.954923 
L 25.453885 48.327256 
L 25.475657 48.173579 
L 25.478767 48.235445 
L 25.540972 47.56239 
L 25.556523 47.619376 
L 25.559633 47.630104 
L 25.572074 47.323112 
L 25.578294 47.230276 
L 25.649829 47.867185 
L 25.652939 47.856982 
L 25.712034 48.590877 
L 25.749356 47.798663 
L 25.755577 47.647739 
L 25.820891 48.653889 
L 25.848883 48.149201 
L 25.861324 48.672951 
L 25.923529 48.041524 
L 25.957741 48.372531 
L 25.973292 47.787419 
L 25.998174 48.657938 
L 26.066599 48.425351 
L 26.110142 48.62815 
L 26.119472 48.128911 
L 26.128803 47.876563 
L 26.203448 48.6574 
L 26.23144 47.985417 
L 26.234551 47.972599 
L 26.243881 48.319341 
L 26.271873 48.270662 
L 26.284314 48.650318 
L 26.299865 48.120892 
L 26.390062 48.548461 
L 26.480258 48.352941 
L 26.50514 48.647576 
L 26.526911 48.121733 
L 26.632659 48.316532 
L 26.732186 48.495861 
L 26.685533 47.855382 
L 26.744627 48.481461 
L 26.816162 48.663926 
L 26.878366 47.219346 
L 26.921909 48.665499 
L 27.040098 47.842907 
L 27.083641 47.289501 
L 27.139625 47.915897 
L 27.155176 47.69079 
L 27.257813 48.580169 
L 27.173837 47.497708 
L 27.285805 47.993484 
L 27.292025 47.875889 
L 27.341789 48.574318 
L 27.372891 48.302033 
L 27.388442 48.623593 
L 27.469308 47.60672 
L 27.475528 47.309386 
L 27.528402 48.676247 
L 27.562615 48.367751 
L 27.575055 48.66016 
L 27.609268 48.028325 
L 27.671472 48.410155 
L 27.752338 48.209378 
L 27.718126 48.658494 
L 27.78655 48.259741 
L 27.808322 48.687026 
L 27.879857 48.11217 
L 27.914069 48.610263 
L 27.929621 48.278405 
L 27.966943 48.632194 
L 28.029148 48.341833 
L 28.103793 48.675817 
L 28.128675 48.265237 
L 28.134895 48.336259 
L 28.162887 47.985409 
L 28.187769 48.575744 
L 28.246863 48.240026 
L 28.34017 48.621556 
L 28.374382 48.515018 
L 28.511232 47.938636 
L 28.383713 48.675569 
L 28.539224 48.267052 
L 28.551665 48.59937 
L 28.598318 47.887847 
L 28.648081 48.38571 
L 28.722727 48.178438 
L 28.697845 48.547489 
L 28.756939 48.403493 
L 28.856466 48.571888 
L 28.834695 47.916033 
L 28.862687 48.470914 
L 28.965324 48.685849 
L 28.983985 47.781352 
L 29.021308 47.004801 
L 29.077292 48.015912 
L 29.080402 48.002855 
L 29.092843 48.328642 
L 29.111504 48.332034 
L 29.19548 48.615215 
L 29.158157 47.883757 
L 29.220362 48.434111 
L 29.344771 47.803853 
L 29.254574 48.494916 
L 29.347881 47.842418 
L 29.354101 47.828101 
L 29.487841 48.614168 
L 29.540715 47.989644 
L 29.512723 48.641816 
L 29.602919 48.254598 
L 29.665123 48.643103 
L 29.702446 48.097695 
L 29.708666 48.164517 
L 29.711777 48.064156 
L 29.76465 48.664388 
L 29.805083 48.566555 
L 29.932602 48.261093 
L 29.842406 48.671237 
L 29.951264 48.475063 
L 29.957484 48.69656 
L 29.979256 48.227786 
L 30.060121 48.493975 
L 30.078783 48.129769 
L 30.109885 48.69902 
L 30.172089 48.406835 
L 30.218743 48.592078 
L 30.193861 48.359184 
L 30.280947 48.493397 
L 30.383584 47.927536 
L 30.358702 48.626476 
L 30.405356 48.046248 
L 30.414686 47.895917 
L 30.476891 48.469478 
L 30.563977 48.620069 
L 30.535985 47.953466 
L 30.579528 48.285294 
L 30.666614 47.577343 
L 30.61374 48.35991 
L 30.694606 47.949822 
L 30.775472 47.559776 
L 30.75059 48.483322 
L 30.806574 47.903198 
L 30.89366 48.610865 
L 30.930983 48.526085 
L 30.971416 48.654587 
L 30.986967 47.957531 
L 30.993187 47.792716 
L 31.049171 48.685291 
L 31.080273 48.196103 
L 31.145588 48.633887 
L 31.17358 47.901402 
L 31.179801 47.992444 
L 31.189131 47.904605 
L 31.214013 48.615342 
L 31.263776 48.298877 
L 31.344642 48.574205 
L 31.366414 48.178665 
L 31.372634 48.347419 
L 31.403736 48.066669 
L 31.425508 48.643305 
L 31.462831 48.643166 
L 31.465941 48.686997 
L 31.490823 48.039069 
L 31.534366 48.260539 
L 31.540586 47.941362 
L 31.605901 48.602997 
L 31.637003 48.423641 
L 31.720979 48.674384 
L 31.661885 48.244624 
L 31.74275 48.441347 
L 31.745861 48.257465 
L 31.773853 48.685926 
L 31.848498 48.561239 
L 31.923143 48.662451 
L 31.901372 48.171985 
L 31.944915 48.407769 
L 32.041331 48.002576 
L 32.004009 48.681898 
L 32.053772 48.300455 
L 32.094205 48.693195 
L 32.131528 47.873777 
L 32.153299 47.966528 
L 32.271488 48.599466 
L 32.199953 47.881116 
L 32.3057 48.516615 
L 32.417668 48.033219 
L 32.321251 48.701124 
L 32.426999 48.252838 
L 32.44566 48.561936 
L 32.526526 47.794466 
L 32.626053 47.346228 
L 32.598061 47.974136 
L 32.644714 47.584062 
L 32.703808 48.5276 
L 32.772233 48.397812 
L 32.787784 48.034106 
L 32.818886 48.633995 
L 32.877981 48.572423 
L 32.881091 48.576806 
L 32.887311 48.420682 
L 32.896642 48.457041 
L 32.949516 48.098845 
L 32.912193 48.535708 
L 33.01172 48.301659 
L 33.058373 48.669921 
L 33.033492 48.163806 
L 33.123688 48.419881 
L 33.207664 48.331859 
L 33.192113 48.667372 
L 33.229436 48.514191 
L 33.254317 48.661586 
L 33.276089 47.964074 
L 33.338293 48.53919 
L 33.350734 48.061512 
L 33.403608 48.651719 
L 33.447151 48.528207 
L 33.518686 48.681057 
L 33.537347 48.371818 
L 33.549788 48.444527 
L 33.661756 48.259428 
L 33.627544 48.693887 
L 33.664866 48.288541 
L 33.764393 48.676881 
L 33.699079 48.177554 
L 33.789275 48.492922 
L 33.811047 48.163334 
L 33.86392 48.621972 
L 33.901243 48.426574 
L 33.932345 48.685919 
L 33.947896 48.311642 
L 34.00388 48.389068 
L 34.053644 48.313758 
L 34.031872 48.586397 
L 34.109628 48.386108 
L 34.150061 48.66022 
L 34.13451 48.288476 
L 34.212265 48.300791 
L 34.230926 47.981266 
L 34.302461 48.493849 
L 34.330453 48.147116 
L 34.433091 48.673495 
L 34.389548 47.761465 
L 34.442421 48.283857 
L 34.473524 47.482327 
L 34.538838 48.433621 
L 34.545059 48.412631 
L 34.641475 48.581041 
L 34.607263 48.078789 
L 34.650806 48.388344 
L 34.675688 47.797383 
L 34.7099 48.643515 
L 34.756554 48.454788 
L 34.862301 48.656324 
L 34.834309 47.947109 
L 34.865411 48.592238 
L 34.874742 48.133944 
L 34.964938 48.682238 
L 34.974269 48.444348 
L 34.996041 48.37103 
L 35.092457 48.680561 
L 35.167103 48.182683 
L 35.201315 48.590175 
L 35.204425 48.696966 
L 35.238638 47.967131 
L 35.300842 48.193025 
L 35.316393 48.658539 
L 35.4097 48.174642 
L 35.41903 48.289969 
L 35.422141 48.282874 
L 35.431471 48.472509 
L 35.440802 48.67075 
L 35.530998 48.083402 
L 35.618085 48.59374 
L 35.642966 48.256844 
L 35.661628 47.946349 
L 35.69584 48.680168 
L 35.751824 48.139094 
L 35.866902 48.645541 
L 35.779816 48.053449 
L 35.876233 48.548311 
L 35.950878 48.058856 
L 35.97576 48.607174 
L 35.988201 48.371332 
L 36.016193 48.106814 
L 36.078397 48.647083 
L 36.097058 48.42245 
L 36.209026 47.833077 
L 36.137491 48.685294 
L 36.233908 48.026879 
L 36.274341 48.39009 
L 36.302333 47.661701 
L 36.308553 47.736281 
L 36.373868 47.299835 
L 36.336545 48.08551 
L 36.417411 47.668179 
L 36.54804 48.625753 
L 36.551151 48.617003 
L 36.644457 48.190552 
L 36.625796 48.627108 
L 36.666229 48.377083 
L 36.762646 48.648047 
L 36.731543 48.122634 
L 36.771976 48.322304 
L 36.865283 48.156549 
L 36.843511 48.61383 
L 36.877724 48.369097 
L 36.911936 48.673854 
L 36.887054 48.323967 
L 36.986581 48.398065 
L 37.045676 48.37437 
L 37.017684 48.552527 
L 37.051896 48.523342 
L 37.120321 48.556301 
L 37.076778 48.353755 
L 37.135872 48.482457 
L 37.213627 48.280848 
L 37.232289 48.661969 
L 37.24784 48.348373 
L 37.331816 48.600619 
L 37.347367 48.297145 
L 37.353587 48.361949 
L 37.356698 48.264919 
L 37.450004 48.691935 
L 37.459335 48.485293 
L 37.53087 48.659896 
L 37.496657 48.238256 
L 37.543311 48.390526 
L 37.549531 48.151335 
L 37.608625 48.646241 
L 37.652168 48.301831 
L 37.739255 48.620672 
L 37.658389 48.249448 
L 37.764136 48.422817 
L 37.872994 47.993262 
L 37.782798 48.453982 
L 37.879215 48.02906 
L 37.95697 48.576509 
L 37.913427 47.898748 
L 38.006734 48.527672 
L 38.009844 48.592065 
L 38.078269 47.71156 
L 38.090709 48.009293 
L 38.109371 47.81432 
L 38.140473 48.24674 
L 38.171575 48.156436 
L 38.264882 48.541708 
L 38.212008 47.716276 
L 38.286653 48.336027 
L 38.333307 48.420736 
L 38.305315 47.979512 
L 38.361299 48.011597 
L 38.373739 47.812159 
L 38.401731 48.446188 
L 38.451495 48.248239 
L 38.470156 48.525623 
L 38.501259 47.742697 
L 38.563463 48.306498 
L 38.653659 48.683734 
L 38.597675 48.132203 
L 38.703423 48.385977 
L 38.812281 48.036474 
L 38.778068 48.698518 
L 38.815391 48.300607 
L 38.827832 48.44379 
L 38.911808 48.676563 
L 38.849603 48.251541 
L 38.936689 48.45092 
L 39.011335 48.284448 
L 38.995784 48.651751 
L 39.042437 48.577786 
L 39.048657 48.698923 
L 39.129523 48.36467 
L 39.138854 48.438075 
L 39.204168 48.088609 
L 39.182397 48.558078 
L 39.23216 48.543788 
L 39.291254 48.656366 
L 39.331687 48.327929 
L 39.400112 48.65073 
L 39.337908 48.315992 
L 39.443655 48.329702 
L 39.459206 48.163353 
L 39.527631 48.690669 
L 39.540072 48.57901 
L 39.630268 48.704006 
L 39.599166 48.252199 
L 39.64893 48.58087 
L 39.704914 48.12835 
L 39.664481 48.642592 
L 39.767118 48.34272 
L 39.826212 48.535293 
L 39.773339 48.195531 
L 39.860425 48.29942 
L 39.863535 48.232626 
L 39.956842 48.564884 
L 39.981723 48.692339 
L 40.037707 48.354419 
L 40.062589 48.501463 
L 40.087471 48.318026 
L 40.124793 48.696591 
L 40.174557 48.451135 
L 40.193218 48.638289 
L 40.22121 48.048008 
L 40.258533 48.064854 
L 40.274084 47.18059 
L 40.342509 48.479726 
L 40.367391 48.176155 
L 40.395383 48.672968 
L 40.448256 48.050013 
L 40.482469 48.377134 
L 40.560224 47.980489 
L 40.585106 48.582305 
L 40.588216 48.674249 
L 40.64731 48.049391 
L 40.678413 48.297578 
L 40.709515 48.096764 
L 40.753058 48.642234 
L 40.78416 48.478147 
L 40.78727 48.471603 
L 40.805932 48.66451 
L 40.809042 48.698384 
L 40.886797 48.36474 
L 40.889908 48.259413 
L 40.980104 48.672349 
L 40.989435 48.571551 
L 41.088962 48.637472 
L 41.004986 48.276527 
L 41.095182 48.506776 
L 41.107623 48.455935 
L 41.113843 48.667254 
L 41.194709 48.628761 
L 41.281795 48.693161 
L 41.225811 48.447001 
L 41.288016 48.543014 
L 41.300457 48.183936 
L 41.34711 48.627613 
L 41.396873 48.516277 
L 41.449747 48.669685 
L 41.480849 48.23179 
L 41.508841 48.547113 
L 41.533723 48.027988 
L 41.595927 48.690437 
L 41.617699 48.597829 
L 41.704785 48.105734 
L 41.645691 48.600047 
L 41.726557 48.539819 
L 41.760769 48.607213 
L 41.807422 48.075718 
L 41.816753 48.214206 
L 41.903839 47.975267 
L 41.866517 48.401113 
L 41.931831 48.066623 
L 42.003366 48.530123 
L 42.046909 48.169294 
L 42.115334 48.639179 
L 42.06246 48.116693 
L 42.152657 48.197829 
L 42.183759 47.682909 
L 42.245963 48.435126 
L 42.255294 48.434476 
L 42.314388 48.672301 
L 42.33305 48.206252 
L 42.357931 48.420236 
L 42.392144 47.962973 
L 42.370372 48.494802 
L 42.466789 48.402373 
L 42.575647 48.671486 
L 42.516553 47.917452 
L 42.578757 48.572614 
L 42.634741 48.051409 
L 42.600529 48.674588 
L 42.693835 48.366956 
L 42.752929 48.647346 
L 42.703166 48.223937 
L 42.805803 48.395597 
L 42.886669 48.292108 
L 42.852456 48.673554 
L 42.90533 48.391861 
L 42.973755 48.673433 
L 43.014188 48.285005 
L 43.017298 48.207165 
L 43.076392 48.605835 
L 43.113715 48.558851 
L 43.138597 48.68041 
L 43.154148 48.453493 
L 43.160368 48.204338 
L 43.259895 48.632156 
L 43.263005 48.548698 
L 43.315879 48.142016 
L 43.272336 48.646991 
L 43.368753 48.595109 
L 43.371863 48.60059 
L 43.378084 48.46315 
L 43.384304 48.49206 
L 43.499382 48.000569 
L 43.406076 48.677425 
L 43.505603 48.068317 
L 43.60513 48.679391 
L 43.617571 48.362787 
L 43.636232 48.21647 
L 43.667334 48.634115 
L 43.717098 48.417769 
L 43.729538 48.693385 
L 43.782412 48.153529 
L 43.825955 48.442 
L 43.841506 48.682571 
L 43.872609 48.281927 
L 43.88816 47.988107 
L 43.913041 48.506261 
L 43.981466 48.250773 
L 44.04056 48.601729 
L 44.012568 48.213544 
L 44.105875 48.436712 
L 44.130757 48.332797 
L 44.143198 48.635024 
L 44.18052 48.442174 
L 44.245835 48.664446 
L 44.205402 48.149738 
L 44.283158 48.180752 
L 44.401346 47.828021 
L 44.31737 48.638428 
L 44.407566 48.028242 
L 44.494653 48.681446 
L 44.535085 48.217467 
L 44.572408 47.835988 
L 44.553747 48.623488 
L 44.640833 48.267185 
L 44.650164 48.686766 
L 44.731029 48.181046 
L 44.752801 48.563153 
L 44.827446 48.231217 
L 44.799454 48.66025 
L 44.864769 48.431412 
L 44.976737 48.683439 
L 44.902091 48.121512 
L 44.986067 48.529272 
L 45.073153 48.142268 
L 45.01717 48.634491 
L 45.088705 48.506711 
L 45.094925 48.691541 
L 45.144689 48.125574 
L 45.197562 48.475381 
L 45.247326 48.202529 
L 45.231775 48.662888 
L 45.30953 48.298477 
L 45.424608 48.642888 
L 45.384175 48.080511 
L 45.430829 48.443673 
L 45.465041 48.299934 
L 45.471262 48.518469 
L 45.489923 48.524446 
L 45.496143 48.69707 
L 45.524135 48.241819 
L 45.59567 48.317086 
L 45.632993 48.253381 
L 45.614332 48.470356 
L 45.639214 48.461598 
L 45.670316 48.678994 
L 45.688977 48.207701 
L 45.744961 48.449817 
L 45.853819 48.228381 
L 45.810276 48.628234 
L 45.860039 48.236716 
L 45.888031 48.538592 
L 45.86937 48.190147 
L 45.978228 48.381309 
L 46.093306 48.022561 
L 46.01244 48.64065 
L 46.105747 48.180163 
L 46.139959 48.688577 
L 46.220825 48.404346 
L 46.311021 47.761513 
L 46.270588 48.610622 
L 46.357674 48.124908 
L 46.426099 48.668735 
L 46.469642 48.148784 
L 46.472753 48.000052 
L 46.522516 48.529187 
L 46.57539 48.273377 
L 46.58472 48.384949 
L 46.590941 48.158764 
L 46.622043 48.206713 
L 46.625153 48.110726 
L 46.687358 48.633801 
L 46.71846 48.579613 
L 46.72157 48.577942 
L 46.737121 48.239094 
L 46.771334 48.693616 
L 46.833538 48.473885 
L 46.852199 48.134381 
L 46.889522 48.566038 
L 46.945506 48.37505 
L 46.951726 48.279631 
L 46.995269 48.676052 
L 47.029482 48.609327 
L 47.051253 48.42239 
L 47.116568 48.64855 
L 47.160111 48.291672 
L 47.194324 48.656864 
L 47.228536 48.590874 
L 47.300071 48.643739 
L 47.28141 48.261086 
L 47.328063 48.588193 
L 47.362275 48.242229 
L 47.42137 48.638114 
L 47.436921 48.507576 
L 47.446251 48.685536 
L 47.527117 48.306247 
L 47.542668 48.373342 
L 47.614203 48.554309 
L 47.595542 48.296073 
L 47.651526 48.456438 
L 47.667077 48.212855 
L 47.691959 48.582323 
L 47.757273 48.573145 
L 47.763494 48.659759 
L 47.782155 48.370761 
L 47.866131 48.574596 
L 47.912784 48.180166 
L 47.981209 48.510213 
L 47.99054 48.68399 
L 48.002981 48.273455 
L 48.083846 48.601499 
L 48.118059 47.895095 
L 48.205145 48.686903 
L 48.254909 48.616845 
L 48.348215 48.126707 
L 48.282901 48.666282 
L 48.366877 48.565351 
L 48.429081 48.694274 
L 48.391758 48.001582 
L 48.463293 48.483729 
L 48.584592 47.910534 
L 48.531718 48.673635 
L 48.603253 47.916742 
L 48.70278 48.575191 
L 48.724552 48.289128 
L 48.733882 48.637113 
L 48.805418 48.090075 
L 48.848961 48.563286 
L 48.914275 48.013913 
L 48.939157 48.650502 
L 48.957818 48.606774 
L 49.029353 48.114576 
L 49.060456 48.666662 
L 49.076007 48.451527 
L 49.178644 48.659561 
L 49.103999 48.226547 
L 49.187975 48.584685 
L 49.237738 48.315527 
L 49.271951 48.677497 
L 49.299943 48.463113 
L 49.303053 48.369833 
L 49.349706 48.633601 
L 49.40569 48.601416 
L 49.427462 48.658263 
L 49.446123 48.384268 
L 49.449233 48.206118 
L 49.480335 48.580829 
L 49.558091 48.262024 
L 49.69494 48.621242 
L 49.601634 48.065397 
L 49.698051 48.53483 
L 49.707381 48.255182 
L 49.788247 48.669338 
L 49.810019 48.467155 
L 49.912656 48.63904 
L 49.890884 48.27044 
L 49.918876 48.504867 
L 50.027734 48.138511 
L 49.996632 48.704366 
L 50.040175 48.220534 
L 50.11793 48.694578 
L 50.152143 48.485539 
L 50.180135 48.249502 
L 50.217457 48.681359 
L 50.25789 48.59939 
L 50.313874 48.678191 
L 50.341866 48.326014 
L 50.348087 48.381549 
L 50.39163 48.259724 
L 50.413401 48.643073 
L 50.450724 48.452562 
L 50.528479 48.657104 
L 50.503598 48.174151 
L 50.559582 48.480104 
L 50.603125 48.113591 
L 50.662219 48.602034 
L 50.665329 48.586606 
L 50.730644 48.692367 
L 50.764856 48.33588 
L 50.767966 48.516893 
L 50.842612 48.17227 
L 50.81773 48.59895 
L 50.886155 48.253721 
L 50.901706 48.350061 
L 50.917257 48.669942 
L 50.948359 48.17372 
L 51.029225 48.589604 
L 51.063437 48.243047 
L 51.088319 48.600643 
L 51.141193 48.534446 
L 51.23761 48.231499 
L 51.200287 48.645822 
L 51.250051 48.453395 
L 51.321586 48.690167 
L 51.274932 48.319778 
L 51.358908 48.451996 
L 51.396231 48.345636 
L 51.411782 48.668308 
L 51.445994 48.558736 
L 51.505089 48.679512 
L 51.470876 48.34568 
L 51.557962 48.589406 
L 51.561073 48.592329 
L 51.570403 48.452691 
L 51.579734 48.202734 
L 51.66682 48.691342 
L 51.679261 48.447528 
L 51.753906 48.660095 
L 51.738355 48.367628 
L 51.785008 48.405407 
L 51.791229 48.191906 
L 51.859654 48.650323 
L 51.890756 48.508126 
L 52.008944 48.649287 
L 51.909417 48.371047 
L 52.012054 48.648629 
L 52.108471 48.235577 
L 52.077369 48.672617 
L 52.127133 48.504469 
L 52.220439 48.681471 
L 52.145794 48.323854 
L 52.242211 48.557098 
L 52.351068 48.193277 
L 52.326187 48.649474 
L 52.36662 48.359505 
L 52.382171 48.670366 
L 52.407052 48.32393 
L 52.475477 48.33505 
L 52.562563 48.638257 
L 52.484808 48.318427 
L 52.596776 48.573909 
L 52.65276 48.110938 
L 52.618547 48.656056 
L 52.708744 48.485491 
L 52.746066 48.254109 
L 52.724295 48.639733 
L 52.823822 48.357996 
L 52.882916 48.681122 
L 52.851814 48.123312 
L 52.93268 48.391471 
L 52.957561 48.128288 
L 52.963782 48.153703 
L 52.991774 48.04904 
L 53.057088 48.608203 
L 53.063309 48.472855 
L 53.097521 48.12429 
L 53.159726 48.630666 
L 53.178387 48.276864 
L 53.187718 48.698501 
L 53.262363 48.05459 
L 53.293465 48.539665 
L 53.377441 48.21885 
L 53.343229 48.6538 
L 53.402323 48.513044 
L 53.405433 48.66231 
L 53.445866 48.155731 
L 53.51118 48.421427 
L 53.604487 48.690066 
L 53.576495 48.379305 
L 53.620038 48.51492 
L 53.654251 48.355241 
L 53.669802 48.656462 
L 53.732006 48.449183 
L 53.738227 48.309887 
L 53.834643 48.629232 
L 53.843974 48.36895 
L 53.884407 48.701258 
L 53.93417 48.332866 
L 53.955942 48.491173 
L 54.0648 48.617835 
L 54.052359 48.297215 
L 54.06791 48.557394 
L 54.120784 48.637737 
L 54.133224 48.29636 
L 54.151886 48.378178 
L 54.154996 48.199183 
L 54.245192 48.691482 
L 54.257633 48.54268 
L 54.319838 48.680828 
L 54.35405 48.247674 
L 54.369601 48.584705 
L 54.4909 48.194128 
L 54.444247 48.652776 
L 54.49401 48.261173 
L 54.581096 48.624302 
L 54.609088 48.450827 
L 54.686844 48.293928 
L 54.727277 48.670964 
L 54.752158 48.11769 
L 54.839244 48.567784 
L 54.898339 47.963631 
L 54.941882 48.651018 
L 54.944992 48.677634 
L 54.976094 48.028045 
L 55.013417 48.313297 
L 55.025858 48.097756 
L 55.084952 48.683388 
L 55.116054 48.401867 
L 55.168928 48.585454 
L 55.147156 48.176365 
L 55.224912 48.401437 
L 55.302667 48.153998 
L 55.271565 48.682967 
L 55.33688 48.340209 
L 55.3431 48.417597 
L 55.349321 48.276978 
L 55.374202 48.06155 
L 55.445737 48.63059 
L 55.451958 48.627434 
L 55.455068 48.64203 
L 55.48306 48.398085 
L 55.532824 48.510772 
L 55.570146 48.316454 
L 55.607469 48.655812 
L 55.638571 48.523412 
L 55.641681 48.628133 
L 55.660343 48.347447 
L 55.747429 48.471391 
L 55.753649 48.299304 
L 55.803413 48.674562 
L 55.856286 48.461817 
L 55.90916 48.663318 
L 55.958924 48.415303 
L 55.965144 48.445264 
L 56.005577 48.252664 
L 55.977585 48.651356 
L 56.064671 48.652324 
L 56.161088 48.694365 
L 56.092663 48.352915 
L 56.167308 48.591633 
L 56.210851 48.398201 
L 56.260615 48.682447 
L 56.276166 48.563789 
L 56.369473 48.686729 
L 56.310379 48.194344 
L 56.394354 48.679176 
L 56.425457 48.443995 
L 56.403685 48.696245 
L 56.509433 48.522985 
L 56.593409 48.125157 
L 56.546755 48.654249 
L 56.624511 48.414027 
L 56.705376 48.680541 
L 56.739589 48.602685 
L 56.848447 48.31031 
L 56.767581 48.669215 
L 56.854667 48.364079 
L 56.885769 48.625417 
L 56.960415 48.300819 
L 56.963525 48.320522 
L 56.982186 48.214612 
L 57.03506 48.664415 
L 57.063052 48.344806 
L 57.17502 48.676049 
L 57.087934 48.262117 
L 57.18124 48.660987 
L 57.231004 48.274119 
L 57.293208 48.456861 
L 57.31809 48.690192 
L 57.339861 48.2486 
L 57.398956 48.302716 
L 57.436278 48.08694 
L 57.405176 48.346209 
L 57.473601 48.326415 
L 57.514034 47.990664 
L 57.594899 48.674391 
L 57.685096 48.23677 
L 57.713088 48.39291 
L 57.775292 48.658326 
L 57.73797 48.161119 
L 57.825056 48.439711 
L 57.88104 48.239366 
L 57.843717 48.6119 
L 57.930803 48.497338 
L 57.980567 48.652334 
L 58.008559 48.351287 
L 58.039661 48.496842 
L 58.067653 48.386015 
L 58.052102 48.642948 
L 58.139188 48.637015 
L 58.151629 48.688953 
L 58.17029 48.336697 
L 58.223164 48.554113 
L 58.235605 48.218719 
L 58.272927 48.661161 
L 58.332022 48.570424 
L 58.347573 48.587363 
L 58.341352 48.444515 
L 58.356903 48.493867 
L 58.428438 48.296941 
L 58.45643 48.680824 
L 58.462651 48.617088 
L 58.515525 48.68977 
L 58.499973 48.372534 
L 58.559068 48.642726 
L 58.664815 48.280078 
L 58.671036 48.482555 
L 58.717689 48.700791 
L 58.699028 48.329986 
L 58.783003 48.534723 
L 58.885641 48.206522 
L 58.842098 48.676649 
L 58.898082 48.394087 
L 58.910522 48.695867 
L 58.988278 48.314967 
L 59.01005 48.649066 
L 59.081585 48.272755 
L 59.118907 48.691554 
L 59.190442 48.30618 
L 59.125128 48.694426 
L 59.240206 48.421728 
L 59.370835 48.631261 
L 59.283749 48.33344 
L 59.377056 48.595483 
L 59.44548 48.174706 
L 59.414378 48.645777 
L 59.495244 48.499926 
L 59.501464 48.660104 
L 59.572999 48.244281 
L 59.604102 48.427541 
L 59.635204 48.334154 
L 59.628983 48.676665 
L 59.700518 48.578957 
L 59.703629 48.603446 
L 59.765833 48.235524 
L 59.768943 48.226469 
L 59.772053 48.376391 
L 59.781384 48.645683 
L 59.852919 48.139992 
L 59.880911 48.318828 
L 59.958667 48.673062 
L 59.908903 48.147069 
L 59.986659 48.415515 
L 59.989769 48.205794 
L 60.039532 48.656017 
L 60.095516 48.445965 
L 60.176382 48.672992 
L 60.188823 48.362408 
L 60.207484 48.547667 
L 60.223035 48.337509 
L 60.244807 48.64547 
L 60.319452 48.449428 
L 60.406538 48.655415 
L 60.338114 48.380168 
L 60.43142 48.547921 
L 60.478073 48.692673 
L 60.459412 48.345219 
L 60.549608 48.654962 
L 60.583821 48.442067 
L 60.642915 48.681121 
L 60.661576 48.572686 
L 60.730001 48.331642 
L 60.677127 48.676355 
L 60.767324 48.613124 
L 60.817087 48.660911 
L 60.838859 48.442267 
L 60.869961 48.639593 
L 60.888622 48.401069 
L 60.907284 48.645348 
L 60.981929 48.521377 
L 60.99748 48.427484 
L 61.031693 48.64091 
L 61.078346 48.499146 
L 61.087677 48.698822 
L 61.13744 48.239168 
L 61.187204 48.629961 
L 61.230747 48.349793 
L 61.193424 48.671223 
L 61.299171 48.510953 
L 61.373817 48.652085 
L 61.404919 48.413271 
L 61.408029 48.51947 
L 61.470234 48.383332 
L 61.436021 48.69209 
L 61.501336 48.597458 
L 61.504446 48.689914 
L 61.56665 48.273049 
L 61.610194 48.542682 
L 61.681729 48.672238 
L 61.659957 48.33528 
L 61.70661 48.51207 
L 61.747043 48.375331 
L 61.806137 48.654763 
L 61.815468 48.422489 
L 61.84657 48.692404 
L 61.899444 48.38868 
L 61.927436 48.485013 
L 61.961648 48.692971 
L 61.992751 48.323421 
L 62.036294 48.572586 
L 62.12649 48.064116 
L 62.145151 48.411167 
L 62.244678 48.220766 
L 62.260229 48.652511 
L 62.300662 48.158044 
L 62.328654 48.675658 
L 62.375308 48.468467 
L 62.440622 48.696548 
L 62.425071 48.148789 
L 62.487276 48.58406 
L 62.540149 48.687388 
L 62.568141 48.412059 
L 62.589913 48.543 
L 62.645897 48.272532 
L 62.667668 48.682309 
L 62.701881 48.450248 
L 62.714322 48.403903 
L 62.726763 48.601295 
L 62.792077 48.65406 
L 62.767195 48.415777 
L 62.823179 48.427283 
L 62.82629 48.289756 
L 62.904045 48.690949 
L 62.928927 48.543322 
L 63.016013 48.700574 
L 62.938257 48.433764 
L 63.044005 48.674142 
L 63.143532 48.296632 
L 63.059556 48.681697 
L 63.159083 48.560221 
L 63.205736 48.342336 
L 63.193296 48.679866 
L 63.267941 48.580095 
L 63.358137 48.45422 
L 63.283492 48.651735 
L 63.370578 48.521912 
L 63.39546 48.679215 
L 63.470105 48.250395 
L 63.476326 48.438723 
L 63.482546 48.271567 
L 63.519869 48.677971 
L 63.582073 48.53956 
L 63.662939 48.681742 
L 63.610065 48.425569 
L 63.690931 48.605804 
L 63.706482 48.319176 
L 63.765576 48.679199 
L 63.802899 48.531573 
L 63.858883 48.617169 
L 63.896205 48.297916 
L 63.908646 48.432466 
L 63.992622 48.325824 
L 63.933528 48.628998 
L 64.008173 48.420578 
L 64.033055 48.686208 
L 64.113921 48.233391 
L 64.191676 48.631664 
L 64.135692 48.113905 
L 64.228999 48.309156 
L 64.232109 48.233542 
L 64.25077 48.591693 
L 64.328526 48.43117 
L 64.340967 48.682268 
L 64.378289 48.408146 
L 64.437384 48.41578 
L 64.52758 48.185644 
L 64.502698 48.631698 
L 64.546241 48.347659 
L 64.617776 48.667816 
L 64.599115 48.278722 
L 64.66754 48.631426 
L 64.748406 48.34149 
L 64.717303 48.695755 
L 64.776398 48.651331 
L 64.795059 48.556161 
L 64.804389 48.632916 
L 64.888365 48.287065 
L 64.866594 48.695198 
L 64.919468 48.356496 
L 64.966121 48.668694 
L 65.003444 48.275785 
L 65.040766 48.536278 
L 65.062538 48.42194 
L 65.081199 48.64118 
L 65.09364 48.610809 
L 65.171395 48.675415 
L 65.193167 48.508454 
L 65.214939 48.324576 
L 65.221159 48.622746 
L 65.298914 48.493651 
L 65.395331 48.678171 
L 65.330017 48.351611 
L 65.404662 48.370602 
L 65.413993 48.317765 
L 65.438874 48.651106 
L 65.494858 48.509082 
L 65.581945 48.684227 
L 65.553953 48.312268 
L 65.606826 48.567712 
L 65.631708 48.29225 
L 65.690802 48.671787 
L 65.715684 48.567075 
L 65.756117 48.686513 
L 65.780999 48.360975 
L 65.80277 48.523141 
L 65.818321 48.327508 
L 65.880526 48.669659 
L 65.914738 48.384032 
L 65.94584 48.676017 
L 66.014265 48.355931 
L 66.029816 48.543881 
L 66.113792 48.680465 
L 66.064029 48.237975 
L 66.141784 48.586801 
L 66.238201 48.266554 
L 66.148005 48.666452 
L 66.263083 48.360834 
L 66.281744 48.697157 
L 66.36572 48.335976 
L 66.384381 48.609971 
L 66.418594 48.173247 
L 66.440365 48.672058 
L 66.493239 48.586468 
L 66.496349 48.643472 
L 66.50879 48.419383 
L 66.602097 48.578595 
L 66.670522 48.696426 
L 66.720285 48.339929 
L 66.760718 48.606157 
L 66.807371 48.20383 
L 66.832253 48.462537 
L 66.866465 47.986369 
L 66.916229 48.690862 
L 66.92556 48.641202 
L 66.93489 48.698377 
L 67.006425 48.288148 
L 67.012646 48.396672 
L 67.046858 48.101933 
L 67.065519 48.633858 
L 67.115283 48.516291 
L 67.137055 48.645204 
L 67.189928 48.341435 
L 67.193038 48.315185 
L 67.227251 48.681901 
L 67.261463 48.583518 
L 67.308117 48.69137 
L 67.277014 48.35809 
L 67.373431 48.647085 
L 67.379652 48.538973 
L 67.382762 48.610199 
L 67.463628 48.328045 
L 67.429415 48.692853 
L 67.488509 48.68352 
L 67.49162 48.697991 
L 67.519612 48.426009 
L 67.572485 48.578022 
L 67.659572 48.457351 
L 67.609808 48.69591 
L 67.681343 48.55083 
L 67.687563 48.664268 
L 67.721776 48.448913 
L 67.771539 48.455885 
L 67.77465 48.392941 
L 67.836854 48.688379 
L 67.880397 48.450083 
L 67.951932 48.669268 
L 67.970594 48.313957 
L 67.995475 48.6529 
L 68.088782 48.45201 
L 68.107443 48.611283 
L 68.113664 48.695215 
L 68.132325 48.389414 
L 68.20386 48.543086 
L 68.315828 48.414086 
L 68.225632 48.687483 
L 68.318938 48.449513 
L 68.365591 48.32307 
L 68.437127 48.698188 
L 68.462008 48.298657 
L 68.49 48.701449 
L 68.552205 48.412568 
L 68.682834 48.655798 
L 68.567756 48.255716 
L 68.698385 48.502189 
L 68.720157 48.182442 
L 68.760589 48.675982 
L 68.810353 48.479704 
L 68.813463 48.481478 
L 68.816573 48.444859 
L 68.829014 48.305125 
L 68.860116 48.647927 
L 68.919211 48.549599 
L 68.975195 48.683315 
L 68.944092 48.249126 
L 69.024958 48.394259 
L 69.034289 48.216066 
L 69.087163 48.679135 
L 69.130706 48.494539 
L 69.227122 48.661219 
L 69.205351 48.372785 
L 69.245784 48.578122 
L 69.276886 48.153994 
L 69.252004 48.630448 
L 69.370193 48.309045 
L 69.463499 48.665702 
L 69.444838 48.263451 
L 69.485271 48.589603 
L 69.606569 48.265739 
L 69.538144 48.677776 
L 69.609679 48.325574 
L 69.687435 48.669761 
L 69.712317 48.196879 
L 69.718537 48.318096 
L 69.802513 48.693338 
L 69.75897 48.259956 
L 69.852277 48.536368 
L 69.945583 48.472687 
L 69.861607 48.658389 
L 69.961134 48.532101 
L 70.048221 48.685017 
L 70.007788 48.422696 
L 70.073102 48.623814 
L 70.147748 48.386172 
L 70.119756 48.661842 
L 70.18818 48.553631 
L 70.194401 48.696468 
L 70.265936 48.49427 
L 70.297038 48.523819 
L 70.32814 48.390088 
L 70.384124 48.643519 
L 70.396565 48.57576 
L 70.45877 48.67237 
L 70.418337 48.426241 
L 70.505423 48.574982 
L 70.570737 48.445963 
L 70.542745 48.686485 
L 70.617391 48.517191 
L 70.679595 48.689522 
L 70.632942 48.430499 
L 70.716918 48.584476 
L 70.797784 48.345433 
L 70.760461 48.676904 
L 70.825776 48.629403 
L 70.831996 48.656565 
L 70.875539 48.548829 
L 70.912862 48.300916 
L 70.950184 48.613042 
L 70.987507 48.427314 
L 71.02483 48.685476 
L 71.065262 48.386042 
L 71.105695 48.678576 
L 71.233214 48.330888 
L 71.242545 48.383984 
L 71.264317 48.695459 
L 71.286088 48.344941 
L 71.357623 48.650505 
L 71.388725 48.402439 
L 71.45715 48.679251 
L 71.472701 48.505527 
L 71.562898 48.608088 
L 71.544236 48.208765 
L 71.584669 48.560778 
L 71.625102 48.67992 
L 71.702858 48.305555 
L 71.793054 48.67457 
L 71.74329 48.110049 
L 71.814825 48.448815 
L 71.833487 48.300659 
L 71.849038 48.53681 
L 71.852148 48.527249 
L 71.926793 48.62256 
L 71.905022 48.309819 
L 71.957896 48.499323 
L 71.992108 48.361294 
L 72.048092 48.63502 
L 72.063643 48.580632 
L 72.076084 48.696992 
L 72.122737 48.337713 
L 72.178721 48.624199 
L 72.272028 48.404661 
L 72.191162 48.658523 
L 72.293799 48.559997 
L 72.349783 48.685664 
L 72.337342 48.459233 
L 72.402657 48.479973 
L 72.4462 48.665165 
L 72.43998 48.37935 
L 72.514625 48.534626 
L 72.570609 48.681567 
L 72.555058 48.448769 
L 72.629703 48.587819 
L 72.691908 48.322601 
L 72.667026 48.674155 
L 72.741671 48.538735 
L 72.778994 48.692267 
L 72.797655 48.475983 
L 72.844308 48.582608 
L 72.86608 48.343518 
L 72.894072 48.645448 
L 72.953166 48.54289 
L 72.987378 48.665511 
L 73.01226 48.328388 
L 73.055803 48.562468 
L 73.093126 48.380681 
L 73.111787 48.64812 
L 73.164661 48.565886 
L 73.273519 48.670951 
L 73.195763 48.441039 
L 73.279739 48.668208 
L 73.401038 48.486955 
L 73.357495 48.687201 
L 73.404148 48.528053 
L 73.419699 48.64098 
L 73.466352 48.295316 
L 73.513006 48.520029 
L 73.606312 48.349628 
L 73.537887 48.68865 
L 73.621863 48.456234 
L 73.70895 48.669449 
L 73.674737 48.390777 
L 73.730721 48.45834 
L 73.827138 48.323597 
L 73.805366 48.631138 
L 73.839579 48.513577 
L 73.886232 48.292818 
L 73.898673 48.633854 
L 73.960877 48.424364 
L 74.063515 48.698164 
L 73.973318 48.323623 
L 74.082176 48.643506 
L 74.203474 47.998759 
L 74.215915 48.29347 
L 74.312332 48.63266 
L 74.337214 48.406162 
L 74.358985 48.329031 
L 74.42119 48.623911 
L 74.436741 48.603186 
L 74.514497 48.206139 
L 74.461623 48.681063 
L 74.548709 48.547957 
L 74.582921 48.256781 
L 74.663787 48.686444 
L 74.676228 48.326992 
L 74.775755 48.620629 
L 74.778865 48.676053 
L 74.797527 48.476234 
L 74.881502 48.56338 
L 74.893943 48.314153 
L 74.953038 48.663438 
L 74.98414 48.578355 
L 75.015242 48.691737 
L 75.074336 48.394815 
L 75.092997 48.623268 
L 75.158312 48.430542 
L 75.117879 48.678253 
L 75.204965 48.491404 
L 75.242288 48.698399 
L 75.301382 48.409911 
L 75.313823 48.55913 
L 75.385358 48.300334 
L 75.323154 48.593024 
L 75.425791 48.489123 
L 75.441342 48.676877 
L 75.456893 48.419915 
L 75.534649 48.474622 
L 75.609294 48.669308 
L 75.565751 48.436017 
L 75.631065 48.463968 
L 75.634176 48.39438 
L 75.69638 48.696296 
L 75.739923 48.499875 
L 75.771025 48.346629 
L 75.83634 48.680596 
L 75.966969 48.394591 
L 75.970079 48.482272 
L 76.022953 48.361636 
L 76.082047 48.662345 
L 76.128701 48.390194 
L 76.100709 48.670099 
L 76.194015 48.539179 
L 76.281101 48.694306 
L 76.237558 48.475657 
L 76.309093 48.602105 
L 76.333975 48.423444 
L 76.383739 48.699811 
L 76.417951 48.578441 
L 76.486376 48.686934 
L 76.511258 48.387156 
L 76.514368 48.342129 
L 76.554801 48.589549 
L 76.610785 48.458198 
L 76.620115 48.641757 
L 76.660548 48.175719 
L 76.713422 48.276144 
L 76.738304 48.150674 
L 76.775626 48.611582 
L 76.809839 48.541179 
L 76.918697 48.670471 
L 76.900035 48.425082 
L 76.921807 48.655352 
L 76.96535 48.238621 
L 77.015113 48.681957 
L 77.033775 48.559423 
L 77.046216 48.652902 
L 77.1022 48.357018 
L 77.139522 48.484641 
L 77.158184 48.538832 
L 77.25149 48.677556 
L 77.183065 48.255796 
L 77.267041 48.557179 
L 77.298143 48.436801 
L 77.338576 48.662083 
L 77.375899 48.496237 
L 77.410111 48.698049 
L 77.39145 48.429383 
L 77.487867 48.52967 
L 77.512749 48.693528 
L 77.503418 48.466509 
L 77.587394 48.496144 
L 77.652709 48.478016 
L 77.630937 48.68055 
L 77.66826 48.654562 
L 77.67137 48.677203 
L 77.718023 48.397385 
L 77.777117 48.651417 
L 77.826881 48.41355 
L 77.851763 48.666844 
L 77.885975 48.601046 
L 77.938849 48.677369 
L 77.913967 48.438926 
L 77.994833 48.61478 
L 78.025935 48.381179 
L 78.078809 48.691626 
L 78.106801 48.449514 
L 78.212548 48.684268 
L 78.141013 48.289557 
L 78.218769 48.503283 
L 78.290304 48.688717 
L 78.23432 48.28946 
L 78.336957 48.661155 
L 78.420933 48.357309 
L 78.343177 48.666761 
L 78.448925 48.517784 
L 78.536011 48.66999 
L 78.473807 48.380628 
L 78.560893 48.56857 
L 78.564003 48.444156 
L 78.595105 48.693523 
L 78.672861 48.484701 
L 78.772388 48.681604 
L 78.747506 48.404259 
L 78.781718 48.55703 
L 78.890576 48.363259 
L 78.840813 48.681835 
L 78.896797 48.407205 
L 79.008764 48.649235 
L 78.94967 48.330961 
L 79.018095 48.597398 
L 79.095851 48.424996 
L 79.042977 48.654199 
L 79.130063 48.47062 
L 79.136283 48.681455 
L 79.189157 48.406926 
L 79.245141 48.628773 
L 79.270023 48.264827 
L 79.304235 48.66908 
L 79.360219 48.33638 
L 79.475297 48.661757 
L 79.403762 48.286255 
L 79.478408 48.63446 
L 79.521951 48.684725 
L 79.540612 48.38904 
L 79.562384 48.460112 
L 79.612147 48.265006 
L 79.587265 48.689908 
L 79.665021 48.553271 
L 79.745887 48.694709 
L 79.705454 48.388363 
L 79.773879 48.572531 
L 79.786319 48.354909 
L 79.854744 48.672141 
L 79.882736 48.570563 
L 79.892067 48.699427 
L 79.904508 48.426945 
L 79.907618 48.398898 
L 79.92939 48.663463 
L 80.000925 48.537331 
L 80.07868 48.694084 
L 80.066239 48.440177 
L 80.116003 48.598035 
L 80.134664 48.461007 
L 80.140885 48.67224 
L 80.227971 48.604612 
L 80.311947 48.387896 
L 80.336828 48.688253 
L 80.346159 48.53124 
L 80.445686 48.608208 
L 80.448796 48.696162 
L 80.489229 48.347142 
L 80.551434 48.631657 
L 80.654071 48.346229 
L 80.607418 48.685944 
L 80.663402 48.603631 
L 80.744267 48.310997 
L 80.700724 48.660672 
L 80.775369 48.528764 
L 80.78781 48.670045 
L 80.840684 48.376118 
L 80.884227 48.500673 
L 80.961983 48.678375 
L 80.93088 48.373498 
L 80.993085 48.505595 
L 81.005526 48.408539 
L 81.049069 48.680787 
L 81.095722 48.585225 
L 81.189029 48.691616 
L 81.105053 48.488722 
L 81.2108 48.650343 
L 81.34143 48.352197 
L 81.226351 48.682401 
L 81.34454 48.56542 
L 81.416075 48.677159 
L 81.35076 48.517841 
L 81.456508 48.611947 
L 81.537373 48.367011 
L 81.49383 48.668568 
L 81.562255 48.532166 
L 81.574696 48.691247 
L 81.587137 48.414232 
L 81.671113 48.630478 
L 81.755089 48.259948 
L 81.717766 48.661845 
L 81.783081 48.458278 
L 81.885718 48.64539 
L 81.835955 48.216636 
L 81.895049 48.483529 
L 81.91993 48.30066 
L 81.90749 48.660068 
L 81.982135 48.622993 
L 81.985245 48.682613 
L 82.069221 48.295146 
L 82.075441 48.113876 
L 82.162528 48.678714 
L 82.171858 48.519937 
L 82.206071 48.672027 
L 82.224732 48.408354 
L 82.227842 48.352721 
L 82.258944 48.673834 
L 82.327369 48.51907 
L 82.430007 48.669363 
L 82.408235 48.386632 
L 82.439337 48.620924 
L 82.47355 48.691265 
L 82.504652 48.461343 
L 82.551305 48.669407 
L 82.638391 48.417467 
L 82.576187 48.676036 
L 82.663273 48.620592 
L 82.737918 48.672962 
L 82.703706 48.429297 
L 82.75658 48.502032 
L 82.862327 48.343998 
L 82.793902 48.658337 
L 82.868548 48.364702 
L 82.887209 48.690257 
L 82.992956 48.640783 
L 83.020948 48.355423 
L 83.108035 48.541738 
L 83.142247 48.683926 
L 83.160908 48.436563 
L 83.216892 48.497671 
L 83.275986 48.689144 
L 83.316419 48.436006 
L 83.32886 48.656961 
L 83.363073 48.464088 
L 83.397285 48.697405 
L 83.437718 48.62328 
L 83.47193 48.642294 
L 83.496812 48.452091 
L 83.499922 48.480325 
L 83.602559 48.350945 
L 83.552796 48.673134 
L 83.615 48.392289 
L 83.695866 48.3116 
L 83.652323 48.667719 
L 83.698976 48.358741 
L 83.814054 48.664774 
L 83.926022 48.486536 
L 83.823385 48.682108 
L 83.935353 48.522326 
L 83.941573 48.667938 
L 84.03177 48.427645 
L 84.047321 48.620944 
L 84.128187 48.661124 
L 84.069093 48.376218 
L 84.143738 48.483911 
L 84.17795 48.251276 
L 84.224604 48.634532 
L 84.237044 48.619328 
L 84.286808 48.469381 
L 84.302359 48.687332 
L 84.339682 48.545449 
L 84.364563 48.677586 
L 84.429878 48.221427 
L 84.45165 48.627292 
L 84.560507 48.36521 
L 84.532515 48.692472 
L 84.566728 48.412695 
L 84.591609 48.325202 
L 84.638263 48.644861 
L 84.672475 48.502605 
L 84.73779 48.657342 
L 84.681806 48.448649 
L 84.781333 48.527449 
L 84.818656 48.355673 
L 84.87775 48.675112 
L 84.88397 48.601588 
L 84.88708 48.679408 
L 84.918183 48.438557 
L 84.989718 48.596635 
L 85.033261 48.383075 
L 85.064363 48.699031 
L 85.095465 48.651404 
L 85.098575 48.682925 
L 85.132788 48.469016 
L 85.194992 48.622067 
L 85.257197 48.445051 
L 85.235425 48.689336 
L 85.30385 48.673959 
L 85.418928 48.503151 
L 85.319401 48.685807 
L 85.422038 48.580196 
L 85.478022 48.513728 
L 85.431369 48.612302 
L 85.496684 48.592104 
L 85.565108 48.691865 
L 85.521565 48.450679 
L 85.605541 48.589883 
L 85.670856 48.41826 
L 85.698848 48.696227 
L 85.711289 48.589538 
L 85.813926 48.6914 
L 85.754832 48.483887 
L 85.823257 48.680021 
L 85.863689 48.506266 
L 85.8668 48.693875 
L 85.935225 48.517262 
L 86.047192 48.684564 
L 85.978768 48.448388 
L 86.050303 48.590538 
L 86.14983 48.668244 
L 86.087625 48.377937 
L 86.15294 48.650611 
L 86.190263 48.438505 
L 86.236916 48.674221 
L 86.264908 48.523001 
L 86.283569 48.702927 
L 86.373766 48.581624 
L 86.379986 48.375649 
L 86.470182 48.692297 
L 86.485733 48.530068 
L 86.554158 48.692894 
L 86.504395 48.478936 
L 86.603922 48.630104 
L 86.613253 48.679997 
L 86.719 48.405391 
L 86.818527 48.6716 
L 86.834078 48.578003 
L 86.905613 48.449406 
L 86.927385 48.671634 
L 86.946046 48.51607 
L 87.014471 48.67309 
L 87.048683 48.381863 
L 87.061124 48.210676 
L 87.076675 48.639954 
L 87.154431 48.504912 
L 87.163761 48.424139 
L 87.179313 48.634861 
L 87.182423 48.634585 
L 87.210415 48.684783 
L 87.191753 48.492205 
L 87.247737 48.605183 
L 87.263288 48.254712 
L 87.309942 48.655507 
L 87.356595 48.550039 
L 87.375256 48.703944 
L 87.387697 48.462479 
L 87.465453 48.587423 
L 87.518327 48.443254 
L 87.540098 48.698679 
L 87.577421 48.522329 
L 87.608523 48.674935 
L 87.620964 48.46232 
L 87.689389 48.574805 
L 87.739152 48.3756 
L 87.695609 48.670134 
L 87.801357 48.573879 
L 87.869781 48.670565 
L 87.84801 48.32872 
L 87.903994 48.643246 
L 87.950647 48.487927 
L 87.916435 48.687597 
L 88.012852 48.584493 
L 88.065725 48.685262 
L 88.043954 48.386056 
L 88.124819 48.645828 
L 88.171473 48.308957 
L 88.190134 48.662617 
L 88.230567 48.571791 
L 88.239898 48.703885 
L 88.271 48.432016 
L 88.339425 48.666793 
L 88.392298 48.686294 
L 88.454503 48.438132 
L 88.55403 48.671814 
L 88.566471 48.587224 
L 88.575801 48.475799 
L 88.631785 48.692137 
L 88.662888 48.573792 
L 88.706431 48.695469 
L 88.737533 48.52409 
L 88.774855 48.643068 
L 88.784186 48.424121 
L 88.877493 48.681885 
L 88.886823 48.58482 
L 88.967689 48.691127 
L 88.930366 48.38907 
L 88.992571 48.569556 
L 89.098318 48.415775 
L 89.048555 48.638487 
L 89.101429 48.593475 
L 89.200956 48.669022 
L 89.166743 48.367821 
L 89.210286 48.625324 
L 89.26005 48.446201 
L 89.272491 48.681207 
L 89.322254 48.52057 
L 89.437332 48.29239 
L 89.412451 48.645699 
L 89.440443 48.420041 
L 89.455994 48.379321 
L 89.477765 48.518388 
L 89.480875 48.520778 
L 89.527529 48.688153 
L 89.580402 48.438305 
L 89.592843 48.60251 
L 89.670599 48.423395 
L 89.679929 48.665241 
L 89.701701 48.57549 
L 89.704811 48.637419 
L 89.791897 48.394392 
L 89.801228 48.454871 
L 89.850992 48.377645 
L 89.878984 48.666951 
L 89.910086 48.451447 
L 89.944298 48.689324 
L 89.916306 48.434614 
L 90.028274 48.6448 
L 90.040715 48.40164 
L 90.068707 48.696296 
L 90.140242 48.565356 
L 90.183785 48.673061 
L 90.165124 48.440988 
L 90.24599 48.599722 
L 90.339296 48.493475 
L 90.301973 48.695484 
L 90.357957 48.520929 
L 90.460595 48.678252 
L 90.370398 48.469643 
L 90.482366 48.667638 
L 90.588114 48.41513 
L 90.53524 48.678387 
L 90.597444 48.475547 
L 90.700082 48.68078 
L 90.634767 48.453023 
L 90.709412 48.655507 
L 90.712523 48.503834 
L 90.81205 48.697959 
L 90.81827 48.636503 
L 90.836931 48.658764 
L 90.827601 48.586803 
L 90.849372 48.580903 
L 90.855593 48.390125 
L 90.917797 48.695878 
L 90.96445 48.445105 
L 90.983112 48.669173 
L 91.039096 48.342505 
L 91.085749 48.64532 
L 91.175945 48.45269 
L 91.132402 48.685413 
L 91.194607 48.602488 
L 91.287913 48.688499 
L 91.216378 48.438867 
L 91.297244 48.549664 
L 91.319015 48.382391 
L 91.38744 48.687188 
L 91.406102 48.488658 
L 91.446534 48.684703 
L 91.490078 48.386548 
L 91.52429 48.651357 
L 91.620707 48.485801 
L 91.536731 48.678622 
L 91.636258 48.617237 
L 91.698462 48.661602 
L 91.704683 48.500797 
L 91.732675 48.628768 
L 91.791769 48.440315 
L 91.773108 48.698944 
L 91.841532 48.696698 
L 91.857084 48.478014 
L 91.906847 48.703664 
L 91.9535 48.598506 
L 92.003264 48.694606 
L 92.018815 48.454089 
L 92.062358 48.590084 
L 92.081019 48.682491 
L 92.102791 48.47898 
L 92.199208 48.443297 
L 92.121452 48.699015 
L 92.208538 48.536584 
L 92.211649 48.697237 
L 92.267633 48.281148 
L 92.317396 48.50875 
L 92.326727 48.273353 
L 92.410703 48.674985 
L 92.432474 48.379336 
L 92.550663 48.674557 
L 92.463576 48.354609 
L 92.566214 48.465691 
L 92.662631 48.313513 
L 92.647079 48.649783 
L 92.671961 48.560969 
L 92.737276 48.672993 
L 92.709284 48.316467 
L 92.777709 48.432476 
L 92.79326 48.648786 
L 92.827472 48.284785 
L 92.895897 48.560947 
L 92.93633 48.351049 
L 92.973653 48.65278 
L 93.001644 48.537772 
L 93.088731 48.68083 
L 93.104282 48.447461 
L 93.110502 48.499968 
L 93.113612 48.457771 
L 93.194478 48.679229 
L 93.210029 48.534204 
L 93.297115 48.644682 
L 93.269123 48.428154 
L 93.321997 48.613052 
L 93.393532 48.66942 
L 93.353099 48.415757 
L 93.402863 48.603145 
L 93.405973 48.420002 
L 93.50861 48.681169 
L 93.511721 48.654263 
L 93.514831 48.699996 
L 93.567705 48.484522 
L 93.620578 48.653594 
L 93.679672 48.69293 
L 93.63924 48.455683 
L 93.692113 48.598478 
L 93.757428 48.390067 
L 93.766759 48.691125 
L 93.804081 48.534163 
L 93.822743 48.377799 
L 93.875616 48.695211 
L 93.894278 48.636132 
L 93.972033 48.691274 
L 93.984474 48.512593 
L 93.993805 48.643826 
L 94.024907 48.412463 
L 94.056009 48.687076 
L 94.102662 48.638586 
L 94.155536 48.438721 
L 94.136875 48.669374 
L 94.220851 48.605635 
L 94.276835 48.698408 
L 94.258173 48.528705 
L 94.323488 48.605216 
L 94.407464 48.276389 
L 94.382582 48.658568 
L 94.432346 48.60331 
L 94.454117 48.684799 
L 94.500771 48.502105 
L 94.538093 48.590813 
L 94.566085 48.406049 
L 94.603408 48.674821 
L 94.650061 48.549864 
L 94.690494 48.694065 
L 94.662502 48.463548 
L 94.702935 48.545019 
" clip-path="url(#p8346b67e4f)" style="fill: none; stroke: #8c564b; stroke-width: 0.5; stroke-linecap: square"/>
   </g>
  </g>
 </g>
 <defs>
  <clipPath id="p8346b67e4f">
   <rect x="0" y="-0" width="99.212598" height="51.023622"/>
  </clipPath>
 </defs>
</svg>
