<?xml version="1.0" encoding="utf-8" standalone="no"?>
<!DOCTYPE svg PUBLIC "-//W3C//DTD SVG 1.1//EN"
  "http://www.w3.org/Graphics/SVG/1.1/DTD/svg11.dtd">
<svg xmlns:xlink="http://www.w3.org/1999/xlink" width="99.212598pt" height="51.023622pt" viewBox="0 0 99.212598 51.023622" xmlns="http://www.w3.org/2000/svg" version="1.1">
 <metadata>
  <rdf:RDF xmlns:dc="http://purl.org/dc/elements/1.1/" xmlns:cc="http://creativecommons.org/ns#" xmlns:rdf="http://www.w3.org/1999/02/22-rdf-syntax-ns#">
   <cc:Work>
    <dc:type rdf:resource="http://purl.org/dc/dcmitype/StillImage"/>
    <dc:date>2024-10-30T10:51:18.498043</dc:date>
    <dc:format>image/svg+xml</dc:format>
    <dc:creator>
     <cc:Agent>
      <dc:title>Matplotlib v3.8.4, https://matplotlib.org/</dc:title>
     </cc:Agent>
    </dc:creator>
   </cc:Work>
  </rdf:RDF>
 </metadata>
 <defs>
  <style type="text/css">*{stroke-linejoin: round; stroke-linecap: butt}</style>
 </defs>
 <g id="figure_1">
  <g id="patch_1">
   <path d="M 0 51.023622 
L 99.212598 51.023622 
L 99.212598 0 
L 0 0 
L 0 51.023622 
z
" style="fill: none"/>
  </g>
  <g id="axes_1">
   <g id="patch_2">
    <path d="M 0 51.023622 
L 99.212598 51.023622 
L 99.212598 -0 
L 0 -0 
L 0 51.023622 
z
" style="fill: none"/>
   </g>
   <g id="matplotlib.axis_1">
    <g id="xtick_1"/>
    <g id="xtick_2"/>
   </g>
   <g id="matplotlib.axis_2">
    <g id="ytick_1"/>
    <g id="ytick_2"/>
   </g>
   <g id="line2d_1">
    <path d="M 4.509664 26.102704 
L 4.515884 26.738458 
L 4.59675 23.626254 
L 4.649623 15.739725 
L 4.714938 2.319256 
L 4.767812 12.149825 
L 4.945094 48.161032 
L 4.973086 43.184943 
L 5.01974 37.701185 
L 5.085054 42.584041 
L 5.218794 45.04019 
L 5.237455 44.537924 
L 5.44895 33.169602 
L 5.470722 34.600726 
L 5.539146 46.222969 
L 5.635563 43.441537 
L 5.651114 42.808644 
L 5.716429 44.841798 
L 5.744421 44.809085 
L 5.778633 45.560492 
L 5.791074 45.841426 
L 5.825287 43.020824 
L 5.86572 40.369236 
L 5.912373 45.894863 
L 6.00879 48.340942 
L 5.952806 45.10456 
L 6.036782 46.85737 
L 6.046112 46.518057 
L 6.064774 47.256945 
L 6.083435 48.4342 
L 6.111427 46.554606 
L 6.164301 46.652821 
L 6.204733 45.036822 
L 6.282489 45.771217 
L 6.425559 48.508437 
L 6.304261 45.394378 
L 6.450441 47.607878 
L 6.549968 45.691024 
L 6.571739 46.795544 
L 6.602842 48.558416 
L 6.696148 48.053325 
L 6.702369 47.952919 
L 6.839218 46.351567 
L 6.851659 46.600149 
L 6.910753 48.221188 
L 6.948076 46.303376 
L 6.979178 47.211978 
L 7.00095 48.177328 
L 7.081816 47.201923 
L 7.094256 47.51691 
L 7.103587 47.472927 
L 7.14091 47.777343 
L 7.153351 47.93726 
L 7.190673 47.338535 
L 7.243547 46.81839 
L 7.215555 47.656548 
L 7.28087 47.436784 
L 7.28398 47.577236 
L 7.355515 45.954343 
L 7.374176 45.455114 
L 7.417719 48.283851 
L 7.42394 48.512339 
L 7.483034 46.574192 
L 7.511026 47.464424 
L 7.529687 47.368004 
L 7.539018 47.812503 
L 7.551459 48.643949 
L 7.604333 47.240925 
L 7.644765 47.457223 
L 7.647876 47.434032 
L 7.678978 47.948191 
L 7.691419 47.854028 
L 7.728741 48.498208 
L 7.759844 47.537687 
L 7.803387 48.093727 
L 7.899803 46.391513 
L 7.934016 47.504276 
L 7.99933 48.513376 
L 8.105078 48.077524 
L 8.185944 47.780047 
L 8.148621 48.581033 
L 8.198385 48.070518 
L 8.210825 48.507678 
L 8.248148 47.54837 
L 8.307242 48.098808 
L 8.400549 47.125808 
L 8.335234 48.330434 
L 8.437871 47.850604 
L 8.515627 48.319712 
L 8.468974 47.139617 
L 8.531178 47.810022 
L 8.546729 47.155292 
L 8.615154 48.368733 
L 8.636926 47.915213 
L 8.755114 48.618092 
L 8.674248 47.749434 
L 8.767555 48.094758 
L 8.792437 47.242536 
L 8.823539 48.489312 
L 8.873302 48.356913 
L 8.898184 47.925493 
L 8.963499 47.290798 
L 8.997711 48.185027 
L 9.010152 48.470582 
L 9.050585 47.301811 
L 9.094128 47.853788 
L 9.156332 47.659999 
L 9.134561 48.32449 
L 9.190545 48.185002 
L 9.196765 48.228862 
L 9.209206 47.581239 
L 9.234088 46.595548 
L 9.293182 47.935849 
L 9.324284 47.211518 
L 9.367827 48.492825 
L 9.40826 46.681465 
L 9.473575 48.17959 
L 9.529559 47.438564 
L 9.566881 48.336097 
L 9.588653 48.02244 
L 9.669519 48.609173 
L 9.709951 48.578917 
L 9.716172 48.593784 
L 9.722392 48.436376 
L 9.865462 47.720778 
L 9.737943 48.603521 
L 9.881014 47.990263 
L 9.884124 47.985943 
L 9.887234 48.12464 
L 9.933887 48.648799 
L 10.014753 48.393249 
L 10.067627 48.222404 
L 10.048965 48.643756 
L 10.086288 48.501896 
L 10.089398 48.641456 
L 10.145382 47.929965 
L 10.192036 48.4281 
L 10.291563 47.891518 
L 10.213807 48.601838 
L 10.307114 48.276158 
L 10.316444 48.634686 
L 10.381759 47.278408 
L 10.409751 47.646031 
L 10.484396 48.119158 
L 10.443963 47.50798 
L 10.503058 47.555807 
L 10.515498 47.158003 
L 10.602585 48.373617 
L 10.605695 48.486979 
L 10.664789 48.056024 
L 10.705222 48.271796 
L 10.810969 47.921018 
L 10.748765 48.627356 
L 10.8203 48.03963 
L 10.82341 48.021332 
L 10.832741 48.505207 
L 10.835851 48.661317 
L 10.860733 47.509085 
L 10.941599 48.512028 
L 11.010023 47.653343 
L 10.947819 48.526294 
L 11.069118 48.02374 
L 11.087779 48.350596 
L 11.143763 47.614671 
L 11.184196 48.257137 
L 11.255731 47.743397 
L 11.230849 48.538792 
L 11.293053 48.147155 
L 11.299274 48.600537 
L 11.327266 47.398507 
L 11.401911 48.077169 
L 11.461005 48.675018 
L 11.485887 47.690097 
L 11.488997 47.61632 
L 11.52632 48.099063 
L 11.579194 48.096866 
L 11.588524 48.279875 
L 11.604076 48.414903 
L 11.675611 47.728608 
L 11.681831 47.615883 
L 11.703603 48.176409 
L 11.765807 48.139757 
L 11.871554 48.595356 
L 11.840452 47.895393 
L 11.883995 48.410005 
L 11.911987 48.689538 
L 11.893326 48.232776 
L 11.977302 48.381494 
L 12.011514 47.969854 
L 12.08616 48.482716 
L 12.198128 48.093499 
L 12.167025 48.660458 
L 12.204348 48.192584 
L 12.291434 48.540796 
L 12.213679 48.072218 
L 12.306985 48.077515 
L 12.322536 47.766387 
L 12.347418 48.700042 
L 12.397182 48.360583 
L 12.434504 48.642394 
L 12.471827 47.981601 
L 12.51537 48.50661 
L 12.633558 47.600941 
L 12.593125 48.569279 
L 12.639779 47.692583 
L 12.642889 47.678538 
L 12.65844 48.077633 
L 12.66155 48.073091 
L 12.723755 48.323242 
L 12.698873 47.539616 
L 12.745526 47.609509 
L 12.754857 47.478134 
L 12.770408 47.743232 
L 12.773518 47.739821 
L 12.876156 48.503713 
L 12.80462 47.594845 
L 12.891707 48.249088 
L 12.916588 47.778423 
L 12.957021 48.664514 
L 12.985013 48.493424 
L 12.988123 48.635327 
L 13.034777 47.963591 
L 13.08765 48.286479 
L 13.106312 48.010946 
L 13.146745 48.498696 
L 13.190288 48.373703 
L 13.302256 48.560966 
L 13.261823 48.021633 
L 13.305366 48.552804 
L 13.308476 48.662223 
L 13.37068 47.752693 
L 13.404893 48.292782 
L 13.50442 47.78915 
L 13.473318 48.645443 
L 13.519971 48.065985 
L 13.613278 48.64616 
L 13.64127 48.422346 
L 13.64438 48.489266 
L 13.731466 48.092576 
L 13.824773 47.934995 
L 13.778119 48.660605 
L 13.840324 48.019856 
L 13.93052 48.622634 
L 13.871426 47.834794 
L 13.955402 48.253027 
L 13.964733 48.322644 
L 13.992725 47.931274 
L 14.026937 47.99623 
L 14.033157 47.733042 
L 14.120244 48.446718 
L 14.132684 48.167876 
L 14.138905 48.095803 
L 14.148236 48.251974 
L 14.238432 48.657065 
L 14.263314 48.441979 
L 14.281975 48.654464 
L 14.309967 48.211607 
L 14.316187 48.336764 
L 14.35973 48.032896 
L 14.387722 48.629286 
L 14.425045 48.362658 
L 14.428155 48.360625 
L 14.449927 48.034684 
L 14.471698 48.647792 
L 14.537013 48.380751 
L 14.549454 48.684494 
L 14.608548 48.078458 
L 14.645871 48.394163 
L 14.739177 47.94312 
L 14.698744 48.612051 
L 14.760949 48.324302 
L 14.813823 48.697099 
L 14.863586 48.08274 
L 14.866696 48.149618 
L 14.981774 48.645465 
L 14.987995 48.389521 
L 15.06575 47.954321 
L 15.031538 48.607467 
L 15.096853 48.443742 
L 15.168388 48.152381 
L 15.208821 48.377999 
L 15.211931 48.425122 
L 15.277245 47.814849 
L 15.292796 47.964812 
L 15.376772 48.372965 
L 15.389213 47.88061 
L 15.392324 47.967846 
L 15.404764 47.72211 
L 15.466969 48.379102 
L 15.498071 47.998883 
L 15.513622 48.528619 
L 15.603818 47.87565 
L 15.606929 47.786899 
L 15.650472 48.495966 
L 15.690905 48.352989 
L 15.706456 48.666363 
L 15.737558 47.948798 
L 15.799762 48.380401 
L 15.809093 48.23928 
L 15.824644 48.564496 
L 15.9024 48.463985 
L 15.921061 48.588741 
L 15.973935 48.030802 
L 15.980155 48.068645 
L 15.983265 48.033404 
L 16.017478 48.668768 
L 16.0548 48.360223 
L 16.076572 48.517778 
L 16.104564 48.061107 
L 16.166768 48.463633 
L 16.204091 48.354166 
L 16.238303 48.679934 
L 16.278736 48.439293 
L 16.284957 48.635263 
L 16.322279 47.975389 
L 16.362712 48.211185 
L 16.440468 47.925223 
L 16.400035 48.645252 
L 16.462239 48.510755 
L 16.465349 48.619347 
L 16.549325 48.074134 
L 16.567987 48.348586 
L 16.627081 47.915706 
L 16.605309 48.558828 
L 16.664404 48.55188 
L 16.729718 48.680658 
L 16.701726 48.303425 
L 16.76082 48.352762 
L 16.813694 48.103028 
L 16.767041 48.466993 
L 16.854127 48.391676 
L 16.944323 48.146247 
L 16.969205 48.678201 
L 17.096724 47.991473 
L 17.099834 48.047915 
L 17.224243 48.687721 
L 17.230464 48.621168 
L 17.32377 48.016266 
L 17.280227 48.652047 
L 17.357983 48.083028 
L 17.389085 48.011966 
L 17.407746 48.203839 
L 17.519714 48.61596 
L 17.448179 48.008936 
L 17.525934 48.470118 
L 17.622351 48.136009 
L 17.60369 48.547047 
L 17.637902 48.32079 
L 17.724989 48.630829 
L 17.669005 48.273139 
L 17.74987 48.422107 
L 17.777862 48.693574 
L 17.849397 48.294046 
L 17.864948 48.204651 
L 17.88983 48.566561 
L 17.948924 48.404846 
L 17.958255 48.64966 
L 18.008019 48.217094 
L 18.054672 48.409522 
L 18.126207 48.231026 
L 18.154199 48.674013 
L 18.160419 48.513799 
L 18.16664 48.409346 
L 18.16975 48.426026 
L 18.185301 48.007311 
L 18.200852 48.54614 
L 18.278608 48.413145 
L 18.371914 48.674307 
L 18.303489 48.199469 
L 18.390576 48.449338 
L 18.45589 48.691966 
L 18.511874 47.921542 
L 18.58963 48.647214 
L 18.642503 48.576519 
L 18.676716 48.414916 
L 18.701598 48.672314 
L 18.751361 48.586503 
L 18.804235 48.647097 
L 18.829117 48.305842 
L 18.857109 48.55923 
L 19.000179 48.146809 
L 18.866439 48.652974 
L 19.009509 48.287309 
L 19.034391 48.652219 
L 19.065493 48.235398 
L 19.133918 48.575984 
L 19.193012 47.992214 
L 19.140139 48.645641 
L 19.245886 48.531956 
L 19.308091 48.682114 
L 19.336083 48.252729 
L 19.351634 48.049181 
L 19.404507 48.663831 
L 19.432499 48.518415 
L 19.485373 48.69552 
L 19.457381 48.0382 
L 19.535137 48.156223 
L 19.541357 48.112516 
L 19.591121 48.619522 
L 19.606672 48.475966 
L 19.712419 48.678141 
L 19.643994 48.162484 
L 19.715529 48.670056 
L 19.799505 48.685409 
L 19.836828 48.099374 
L 19.905253 48.661138 
L 19.976788 48.446809 
L 20.094976 48.046722 
L 19.998559 48.616478 
L 20.101197 48.102648 
L 20.107417 48.214946 
L 20.110527 48.192271 
L 20.216275 48.653468 
L 20.185173 48.162706 
L 20.228716 48.580156 
L 20.312692 48.211382 
L 20.244267 48.679142 
L 20.343794 48.40129 
L 20.415329 48.209917 
L 20.368676 48.561381 
L 20.43088 48.484343 
L 20.539738 48.694974 
L 20.471313 48.324799 
L 20.542848 48.632791 
L 20.645485 48.398251 
L 20.611273 48.696887 
L 20.664147 48.490856 
L 20.738792 48.692467 
L 20.695249 48.238421 
L 20.776114 48.660929 
L 20.804106 48.284051 
L 20.866311 48.684432 
L 20.884972 48.541849 
L 20.916074 48.322967 
L 20.99072 48.679873 
L 21.021822 48.038744 
L 21.077806 48.691086 
L 21.105798 48.294598 
L 21.108908 48.299392 
L 21.124459 48.160867 
L 21.127569 48.115985 
L 21.171112 48.489207 
L 21.227096 48.278319 
L 21.329734 48.581465 
L 21.258199 47.765036 
L 21.351505 48.498335 
L 21.379497 47.961214 
L 21.41371 48.602054 
L 21.460363 48.405448 
L 21.488355 48.656633 
L 21.507016 48.094919 
L 21.572331 48.442994 
L 21.578551 48.457952 
L 21.581661 48.221694 
L 21.653196 48.15755 
L 21.618984 48.504039 
L 21.668748 48.235466 
L 21.721621 48.681865 
L 21.783826 48.490669 
L 21.805597 48.226865 
L 21.855361 48.605738 
L 21.892683 48.504971 
L 21.926896 48.688735 
L 21.951778 48.362046 
L 21.98599 48.398607 
L 21.99221 48.180615 
L 22.045084 48.511921 
L 22.094848 48.479497 
L 22.153942 48.173376 
L 22.13217 48.615417 
L 22.203705 48.44268 
L 22.303232 48.664679 
L 22.247249 48.344224 
L 22.312563 48.53875 
L 22.393429 48.147435 
L 22.377878 48.614198 
L 22.424531 48.414062 
L 22.524058 48.636063 
L 22.433862 48.295765 
L 22.536499 48.507626 
L 22.629806 48.660265 
L 22.592483 48.324024 
L 22.648467 48.573675 
L 22.710671 48.389671 
L 22.69201 48.644301 
L 22.760435 48.463807 
L 22.856852 48.66384 
L 22.819529 48.358539 
L 22.869293 48.515099 
L 22.894174 48.279853 
L 22.943938 48.700092 
L 22.984371 48.450353 
L 23.040355 48.343563 
L 23.068347 48.580024 
L 23.074567 48.685124 
L 23.102559 48.322955 
L 23.174094 48.55934 
L 23.25185 48.342332 
L 23.186535 48.659251 
L 23.279842 48.601896 
L 23.282952 48.669925 
L 23.332715 48.290143 
L 23.388699 48.579336 
L 23.39492 48.680586 
L 23.454014 48.273837 
L 23.463345 48.294233 
L 23.475785 48.201407 
L 23.478896 48.170968 
L 23.506888 48.583441 
L 23.547321 48.494856 
L 23.556651 48.675601 
L 23.590864 48.349858 
L 23.656178 48.413216 
L 23.68417 48.680733 
L 23.737044 48.252182 
L 23.768146 48.480581 
L 23.861453 48.668203 
L 23.883224 48.36405 
L 23.926767 48.681618 
L 23.998302 48.477065 
L 24.076058 48.272888 
L 24.044956 48.601492 
L 24.10716 48.465392 
L 24.216018 48.656159 
L 24.194246 48.258113 
L 24.219128 48.634046 
L 24.25023 48.134776 
L 24.306214 48.649752 
L 24.349757 48.37316 
L 24.458615 48.684818 
L 24.3933 48.254227 
L 24.461725 48.562799 
L 24.548811 48.29101 
L 24.514599 48.668713 
L 24.570583 48.459756 
L 24.67011 48.412276 
L 24.685661 48.687047 
L 24.710543 48.255466 
L 24.81007 48.414225 
L 24.894046 48.658362 
L 24.915817 48.372334 
L 24.922038 48.489729 
L 24.996683 48.653532 
L 24.971801 48.32164 
L 25.030895 48.562972 
L 25.136643 48.114585 
L 25.149084 48.229796 
L 25.24239 48.690373 
L 25.261052 48.334242 
L 25.264162 48.161027 
L 25.351248 48.671007 
L 25.366799 48.449098 
L 25.441445 48.688395 
L 25.460106 48.387356 
L 25.488098 48.595774 
L 25.506759 48.266998 
L 25.578294 48.665839 
L 25.600066 48.454235 
L 25.721364 48.681002 
L 25.615617 48.22873 
L 25.730695 48.665966 
L 25.774238 48.202949 
L 25.752467 48.686842 
L 25.848883 48.452785 
L 25.94841 48.627895 
L 25.93908 48.332495 
L 25.957741 48.528087 
L 26.029276 48.148532 
L 26.001284 48.651086 
L 26.066599 48.603772 
L 26.072819 48.63197 
L 26.08837 48.446943 
L 26.091481 48.344374 
L 26.191008 48.635407 
L 26.194118 48.621031 
L 26.197228 48.658631 
L 26.212779 48.379837 
L 26.296755 48.545299 
L 26.302975 48.274291 
L 26.377621 48.694725 
L 26.405613 48.612844 
L 26.51447 48.334851 
L 26.436715 48.655752 
L 26.526911 48.545207 
L 26.638879 48.678494 
L 26.592226 48.226701 
L 26.641989 48.663917 
L 26.704194 48.262946 
L 26.660651 48.69662 
L 26.753957 48.522366 
L 26.834823 48.683766 
L 26.78817 48.27918 
L 26.856595 48.394175 
L 26.859705 48.250477 
L 26.900138 48.690563 
L 26.962342 48.609991 
L 27.024547 48.68757 
L 26.999665 48.472111 
L 27.0712 48.675886 
L 27.152066 48.270995 
L 27.183168 48.583298 
L 27.295136 48.277603 
L 27.189388 48.667901 
L 27.316907 48.503171 
L 27.35112 48.632982 
L 27.400883 48.160423 
L 27.425765 48.612065 
L 27.528402 48.209312 
L 27.4973 48.698096 
L 27.537733 48.53505 
L 27.581276 48.64198 
L 27.559504 48.128154 
L 27.618599 48.430067 
L 27.665252 48.051209 
L 27.699464 48.660082 
L 27.727456 48.445246 
L 27.736787 48.700102 
L 27.830094 48.330264 
L 27.833204 48.202188 
L 27.92651 48.62998 
L 27.938951 48.391143 
L 28.022927 48.639219 
L 27.994935 48.264467 
L 28.035368 48.399495 
L 28.038478 48.25851 
L 28.091352 48.693686 
L 28.141116 48.573491 
L 28.162887 48.677751 
L 28.231312 48.365868 
L 28.246863 48.563268 
L 28.302847 48.263202 
L 28.337059 48.68741 
L 28.355721 48.569997 
L 28.417925 48.63441 
L 28.389933 48.184686 
L 28.452138 48.4925 
L 28.458358 48.32167 
L 28.514342 48.676306 
L 28.560995 48.542381 
L 28.644971 48.637357 
L 28.588987 48.363742 
L 28.669853 48.571379 
L 28.725837 48.331277 
L 28.76938 48.629478 
L 28.778711 48.553653 
L 28.822254 48.676324 
L 28.859576 48.288547 
L 28.865797 48.327141 
L 28.965324 48.669134 
L 28.999536 48.506565 
L 29.077292 48.275311 
L 29.105284 48.691155 
L 29.111504 48.409832 
L 29.217252 48.673855 
L 29.19548 48.309081 
L 29.226582 48.538834 
L 29.229693 48.364374 
L 29.301228 48.654987 
L 29.33544 48.548912 
L 29.388314 48.635439 
L 29.366542 48.243958 
L 29.444298 48.512171 
L 29.497171 48.268649 
L 29.47851 48.634995 
L 29.550045 48.482651 
L 29.574927 48.700909 
L 29.627801 48.387345 
L 29.665123 48.583478 
L 29.717997 48.358314 
L 29.75843 48.685785 
L 29.773981 48.623144 
L 29.870398 48.384905 
L 29.879729 48.678826 
L 29.882839 48.685341 
L 29.889059 48.466171 
L 29.89528 48.362299 
L 29.907721 48.671128 
L 30.004137 48.378114 
L 30.109885 48.670664 
L 30.03524 48.359964 
L 30.119215 48.611778 
L 30.18453 48.685217 
L 30.140987 48.501509 
L 30.193861 48.489723 
L 30.259175 48.405405 
L 30.221853 48.640653 
L 30.268506 48.578527 
L 30.274726 48.692712 
L 30.312049 48.352009 
L 30.371143 48.412475 
L 30.424017 48.280387 
L 30.402245 48.691282 
L 30.473781 48.48766 
L 30.576418 48.68312 
L 30.504883 48.434041 
L 30.585748 48.555833 
L 30.654173 48.381968 
L 30.623071 48.664088 
L 30.697716 48.473258 
L 30.738149 48.690686 
L 30.719488 48.308506 
L 30.809684 48.538855 
L 30.868779 48.360624 
L 30.840787 48.684371 
L 30.915432 48.578939 
L 30.971416 48.686144 
L 31.014959 48.321109 
L 31.018069 48.31797 
L 31.021179 48.434753 
L 31.03362 48.66515 
L 31.052281 48.259392 
L 31.126927 48.4306 
L 31.158029 48.201221 
L 31.204682 48.682422 
L 31.235784 48.404938 
L 31.31976 48.681031 
L 31.30732 48.324803 
L 31.347752 48.605805 
L 31.444169 48.172818 
L 31.372634 48.664547 
L 31.462831 48.409502 
L 31.497043 48.686056 
L 31.559247 48.307704 
L 31.577909 48.5729 
L 31.627672 48.682487 
L 31.649444 48.468823 
L 31.655664 48.477123 
L 31.730309 48.292027 
L 31.671215 48.651544 
L 31.73964 48.4846 
L 31.836057 48.65343 
L 31.798734 48.359285 
L 31.848498 48.519127 
L 31.907592 48.346112 
L 31.929364 48.652565 
L 31.951135 48.579001 
L 32.004009 48.619319 
L 32.01956 48.258175 
L 32.02267 48.150189 
L 32.087985 48.677641 
L 32.119087 48.590392 
L 32.178181 48.284795 
L 32.209283 48.680942 
L 32.227945 48.608451 
L 32.231055 48.686563 
L 32.268378 48.43977 
L 32.336802 48.592986 
L 32.343023 48.619533 
L 32.355464 48.501134 
L 32.386566 48.403153 
L 32.44566 48.66295 
L 32.461211 48.529503 
L 32.476762 48.643656 
L 32.557628 48.273066 
L 32.560738 48.40659 
L 32.566959 48.289589 
L 32.626053 48.640377 
L 32.650935 48.600258 
L 32.716249 48.669764 
L 32.672706 48.415224 
L 32.756682 48.571531 
L 32.797115 48.355564 
L 32.834438 48.663012 
L 32.87176 48.506551 
L 32.918414 48.670486 
L 32.881091 48.233086 
L 32.961957 48.383487 
L 32.965067 48.252135 
L 33.002389 48.683218 
L 33.067704 48.556423 
L 33.077035 48.657803 
L 33.095696 48.451396 
L 33.176562 48.241183 
L 33.123688 48.660737 
L 33.204554 48.436866 
L 33.257428 48.679333 
L 33.285419 48.378584 
L 33.322742 48.658574 
L 33.335183 48.350548 
L 33.416049 48.6822 
L 33.4316 48.4893 
L 33.484474 48.684125 
L 33.528017 48.295051 
L 33.540458 48.590977 
L 33.646205 48.345833 
L 33.587111 48.648273 
L 33.652425 48.479514 
L 33.699079 48.690318 
L 33.779944 48.642821 
L 33.789275 48.54327 
L 33.814157 48.377939 
L 33.8577 48.690784 
L 33.882582 48.557558 
L 33.895023 48.672466 
L 33.935455 48.306312 
L 33.991439 48.523238 
L 34.081636 48.693295 
L 34.031872 48.361893 
L 34.115848 48.674936 
L 34.196714 48.466452 
L 34.125179 48.682605 
L 34.227816 48.595449 
L 34.265139 48.408836 
L 34.249588 48.664605 
L 34.336674 48.612655 
L 34.41754 48.69854 
L 34.433091 48.508198 
L 34.445532 48.644644 
L 34.482854 48.352786 
L 34.501516 48.677095 
L 34.56372 48.494356 
L 34.629035 48.653578 
L 34.610373 48.386189 
L 34.672578 48.526122 
L 34.725451 48.258174 
L 34.681908 48.664063 
L 34.790766 48.462412 
L 34.821868 48.611151 
L 34.874742 48.312999 
L 34.880962 48.428442 
L 34.884073 48.281528 
L 34.921395 48.678523 
L 34.99293 48.381208 
L 35.014702 48.697805 
L 35.055135 48.321383 
L 35.111119 48.681819 
L 35.117339 48.699862 
L 35.12356 48.540407 
L 35.12667 48.561158 
L 35.219976 48.319955 
L 35.207535 48.653595 
L 35.238638 48.404389 
L 35.344385 48.651441 
L 35.288401 48.349815 
L 35.353716 48.598366 
L 35.440802 48.695574 
L 35.372377 48.456888 
L 35.462574 48.641376 
L 35.540329 48.380699 
L 35.468794 48.65363 
L 35.574541 48.45015 
L 35.639856 48.675626 
L 35.633636 48.406291 
L 35.686509 48.57669 
L 35.733163 48.12408 
L 35.717612 48.68089 
L 35.798477 48.478305 
L 35.83891 48.691896 
L 35.820249 48.426938 
L 35.904225 48.451769 
L 35.907335 48.380239 
L 36.003752 48.681544 
L 36.009972 48.567599 
L 36.097058 48.683444 
L 36.028634 48.381486 
L 36.12194 48.580018 
L 36.165483 48.678278 
L 36.240129 48.28747 
L 36.327215 48.665207 
L 36.358317 48.545628 
L 36.445403 48.28893 
L 36.423632 48.686214 
L 36.473395 48.460583 
L 36.485836 48.634167 
L 36.516938 48.385711 
L 36.585363 48.560465 
L 36.600914 48.372334 
L 36.635126 48.694789 
L 36.697331 48.512958 
L 36.790637 48.177686 
L 36.719102 48.604495 
L 36.809299 48.507541 
L 36.82174 48.388811 
L 36.815519 48.552131 
L 36.82485 48.406574 
L 36.834181 48.219889 
L 36.868393 48.611267 
L 36.930597 48.508174 
L 36.949259 48.694622 
L 37.023904 48.373205 
L 37.042565 48.656169 
L 37.129651 48.4746 
L 37.10477 48.668089 
L 37.154533 48.564296 
L 37.166974 48.660324 
L 37.176305 48.393976 
L 37.25095 48.417183 
L 37.300714 48.285477 
L 37.272722 48.663495 
L 37.334926 48.541927 
L 37.356698 48.700302 
L 37.412681 48.26796 
L 37.443784 48.517202 
L 37.518429 48.402794 
L 37.462445 48.654725 
L 37.540201 48.493211 
L 37.549531 48.633214 
L 37.621066 48.383713 
L 37.649058 48.43937 
L 37.751695 48.347414 
L 37.726814 48.674393 
L 37.754806 48.455234 
L 37.81701 48.651047 
L 37.857443 48.412321 
L 37.860553 48.53963 
L 37.863663 48.316866 
L 37.897876 48.700878 
L 37.969411 48.5433 
L 38.025395 48.421655 
L 37.991182 48.680769 
L 38.050277 48.618215 
L 38.053387 48.699786 
L 38.152914 48.403551 
L 38.156024 48.532167 
L 38.199567 48.366549 
L 38.24622 48.666462 
L 38.261772 48.429918 
L 38.351968 48.652869 
L 38.345748 48.387199 
L 38.373739 48.480431 
L 38.411062 48.343169 
L 38.389291 48.681927 
L 38.435944 48.558726 
L 38.442164 48.655658 
L 38.470156 48.377115 
L 38.541691 48.567654 
L 38.613226 48.221569 
L 38.575904 48.662542 
L 38.653659 48.491053 
L 38.675431 48.67246 
L 38.756297 48.362585 
L 38.765627 48.523575 
L 38.787399 48.310598 
L 38.821611 48.672749 
L 38.868264 48.554935 
L 38.905587 48.684916 
L 38.933579 48.254044 
L 38.980232 48.584945 
L 38.986453 48.390764 
L 39.017555 48.682696 
L 39.08287 48.609685 
L 39.182397 48.684834 
L 39.117082 48.381721 
L 39.188617 48.549782 
L 39.285034 48.34959 
L 39.253932 48.69306 
L 39.297475 48.428193 
L 39.353459 48.663203 
L 39.403222 48.408642 
L 39.412553 48.644711 
L 39.415663 48.65004 
L 39.431214 48.470171 
L 39.465427 48.280995 
L 39.524521 48.666242 
L 39.540072 48.394277 
L 39.608497 48.697029 
L 39.639599 48.351223 
L 39.65515 48.529531 
L 39.698693 48.665964 
L 39.683142 48.37726 
L 39.767118 48.56209 
L 39.854204 48.438192 
L 39.810661 48.683191 
L 39.875976 48.609534 
L 39.894637 48.696926 
L 39.950621 48.469928 
L 39.987944 48.664821 
L 40.099912 48.416383 
L 40.07814 48.697598 
L 40.109242 48.432886 
L 40.21499 48.676686 
L 40.227431 48.562843 
L 40.280304 48.207386 
L 40.252312 48.683831 
L 40.339399 48.515618 
L 40.435815 48.67657 
L 40.386052 48.315842 
L 40.457587 48.608788 
L 40.544673 48.679567 
L 40.578886 48.370597 
L 40.622429 48.670004 
L 40.659751 48.238075 
L 40.690853 48.574338 
L 40.737507 48.656477 
L 40.706405 48.41805 
L 40.746837 48.542643 
L 40.78727 48.374128 
L 40.805932 48.651046 
L 40.855695 48.501881 
L 40.92101 48.350006 
L 40.980104 48.687579 
L 41.057859 48.335233 
L 41.092072 48.60185 
L 41.182268 48.515302 
L 41.135615 48.691559 
L 41.185378 48.601554 
L 41.269354 48.680164 
L 41.241362 48.369229 
L 41.297346 48.621518 
L 41.300457 48.624649 
L 41.303567 48.490094 
L 41.316008 48.31071 
L 41.331559 48.659846 
L 41.412424 48.4948 
L 41.499511 48.29461 
L 41.434196 48.666772 
L 41.515062 48.441483 
L 41.546164 48.695767 
L 41.611479 48.325459 
L 41.63014 48.643685 
L 41.701675 48.677294 
L 41.686124 48.512864 
L 41.711006 48.554009 
L 41.738998 48.679527 
L 41.822974 48.374086 
L 41.838525 48.679341 
L 41.934941 48.646294 
L 41.950493 48.452463 
L 42.034468 48.684466 
L 42.046909 48.594572 
L 42.109114 48.499575 
L 42.127775 48.666129 
L 42.158877 48.574959 
L 42.205531 48.682453 
L 42.242853 48.224059 
L 42.258404 48.354661 
L 42.351711 48.673604 
L 42.370372 48.544352 
L 42.460569 48.356126 
L 42.407695 48.683063 
L 42.47923 48.524014 
L 42.525883 48.688374 
L 42.504112 48.374424 
L 42.578757 48.481435 
L 42.581867 48.383506 
L 42.640961 48.63994 
L 42.684504 48.613243 
L 42.734268 48.682164 
L 42.706276 48.497053 
L 42.737378 48.628584 
L 42.752929 48.355003 
L 42.815134 48.698272 
L 42.849346 48.544331 
L 42.852456 48.481935 
L 42.868007 48.665379 
L 42.955094 48.628613 
L 43.029739 48.661337 
L 42.992416 48.443422 
L 43.05151 48.558889 
L 43.063951 48.421868 
L 43.104384 48.679227 
L 43.157258 48.665737 
L 43.19147 48.376407 
L 43.259895 48.677852 
L 43.278557 48.367682 
L 43.381194 48.407141 
L 43.399855 48.658865 
L 43.449619 48.3786 
L 43.499382 48.498956 
L 43.602019 48.44702 
L 43.583358 48.674874 
L 43.60513 48.477553 
L 43.701546 48.373108 
L 43.717098 48.690859 
L 43.75442 48.478092 
L 43.766861 48.6941 
L 43.829065 48.611633 
L 43.928593 48.688409 
L 43.875719 48.450511 
L 43.937923 48.605517 
L 43.950364 48.401366 
L 43.965915 48.668972 
L 44.049891 48.569246 
L 44.115206 48.650468 
L 44.093434 48.393119 
L 44.130757 48.509492 
L 44.214733 48.320463 
L 44.140087 48.696976 
L 44.239615 48.46108 
L 44.276937 48.680683 
L 44.270717 48.446247 
L 44.354693 48.555862 
L 44.395126 48.698956 
L 44.367134 48.340998 
L 44.466661 48.659249 
L 44.544416 48.471584 
L 44.479101 48.663452 
L 44.578628 48.551144 
L 44.665715 48.390478 
L 44.640833 48.67438 
L 44.684376 48.612802 
L 44.777683 48.688606 
L 44.73725 48.359102 
L 44.783903 48.641871 
L 44.855438 48.66724 
L 44.902091 48.308465 
L 44.982957 48.680655 
L 45.02961 48.668945 
L 45.132248 48.328861 
L 45.057602 48.695421 
L 45.175791 48.508489 
L 45.275318 48.673982 
L 45.216224 48.259827 
L 45.287759 48.540797 
L 45.3002 48.689631 
L 45.381065 48.354932 
L 45.393506 48.598089 
L 45.474372 48.338632 
L 45.480592 48.62686 
L 45.502364 48.599012 
L 45.59567 48.654328 
L 45.508584 48.549493 
L 45.598781 48.549009 
L 45.632993 48.397123 
L 45.679646 48.668037 
L 45.707638 48.54304 
L 45.716969 48.681846 
L 45.73252 48.477119 
L 45.822717 48.661467 
L 45.931574 48.448318 
L 45.832047 48.688152 
L 45.937795 48.504831 
L 46.052873 48.672098 
L 45.959566 48.487773 
L 46.055983 48.64445 
L 46.093306 48.682982 
L 46.121298 48.415898 
L 46.15862 48.646674 
L 46.217714 48.42933 
L 46.264368 48.688902 
L 46.270588 48.578557 
L 46.373225 48.681171 
L 46.326572 48.398421 
L 46.385666 48.67126 
L 46.500744 48.423632 
L 46.506965 48.590921 
L 46.57539 48.673919 
L 46.603382 48.4581 
L 46.615823 48.567587 
L 46.671807 48.680301 
L 46.650035 48.468755 
L 46.706019 48.51232 
L 46.827318 48.329311 
L 46.783775 48.67075 
L 46.836648 48.395703 
L 46.880191 48.692725 
L 46.948616 48.454724 
L 46.954837 48.322729 
L 47.010821 48.685058 
L 47.054364 48.530587 
L 47.129009 48.691273 
L 47.107237 48.437333 
L 47.169442 48.624079 
L 47.237867 48.451663 
L 47.228536 48.669586 
L 47.2783 48.615215 
L 47.29074 48.668967 
L 47.312512 48.380529 
L 47.324953 48.496197 
L 47.405819 48.355227 
L 47.346724 48.677038 
L 47.433811 48.472964 
L 47.530227 48.680096 
L 47.514676 48.304828 
L 47.542668 48.517094 
L 47.57066 48.419263 
L 47.611093 48.65326 
L 47.645305 48.545496 
L 47.744833 48.682922 
L 47.676408 48.333988 
L 47.757273 48.626864 
L 47.822588 48.435252 
L 47.775935 48.677453 
L 47.866131 48.547551 
L 47.869241 48.687222 
L 47.943887 48.372405 
L 47.974989 48.484508 
L 48.071406 48.699726 
L 48.030973 48.253567 
L 48.096287 48.681317 
L 48.167822 48.490415 
L 48.102508 48.681686 
L 48.208255 48.572345 
L 48.248688 48.693403 
L 48.310893 48.437947 
L 48.317113 48.532851 
L 48.394869 48.303572 
L 48.360656 48.664291 
L 48.41664 48.578792 
L 48.494396 48.631671 
L 48.497506 48.514873 
L 48.531718 48.440567 
L 48.572151 48.689031 
L 48.600143 48.606913 
L 48.634355 48.680255 
L 48.618804 48.416773 
L 48.709001 48.584671 
L 48.721442 48.677318 
L 48.746323 48.495987 
L 48.824079 48.333109 
L 48.783646 48.690446 
L 48.848961 48.53653 
L 48.892504 48.674106 
L 48.920496 48.416594 
L 48.964039 48.655112 
L 49.035574 48.304632 
L 48.998251 48.686572 
L 49.076007 48.624622 
L 49.113329 48.437567 
L 49.156872 48.69182 
L 49.181754 48.564841 
L 49.25951 48.690326 
L 49.219077 48.484854 
L 49.290612 48.550657 
L 49.362147 48.343572 
L 49.343486 48.676283 
L 49.39947 48.501586 
L 49.492776 48.692027 
L 49.455454 48.373761 
L 49.508327 48.616084 
L 49.54876 48.312219 
L 49.567421 48.695342 
L 49.620295 48.482096 
L 49.726043 48.647775 
L 49.629626 48.334133 
L 49.738484 48.609182 
L 49.750924 48.417407 
L 49.819349 48.683164 
L 49.853562 48.44171 
L 49.956199 48.696312 
L 49.999742 48.613771 
L 50.061946 48.471509 
L 50.005962 48.694992 
L 50.1086 48.629063 
L 50.195686 48.689496 
L 50.127261 48.423292 
L 50.217457 48.633854 
L 50.295213 48.466957 
L 50.270331 48.689991 
L 50.329425 48.52155 
L 50.379189 48.700536 
L 50.360528 48.493253 
L 50.444504 48.63749 
L 50.53159 48.498705 
L 50.472495 48.682761 
L 50.553361 48.581955 
L 50.600015 48.674023 
L 50.649778 48.422787 
L 50.655998 48.483011 
L 50.665329 48.594986 
L 50.727534 48.692739 
L 50.767966 48.527132 
L 50.81462 48.392939 
L 50.858163 48.693387 
L 50.873714 48.558353 
L 50.904816 48.677691 
L 50.9608 48.51008 
L 50.979461 48.542074 
L 50.982572 48.441928 
L 51.023004 48.687753 
L 51.088319 48.54774 
L 51.203397 48.679247 
L 51.10076 48.4655 
L 51.209618 48.558959 
L 51.262491 48.341354 
L 51.309145 48.688183 
L 51.312255 48.576762 
L 51.355798 48.682943 
L 51.399341 48.386338 
L 51.421113 48.564736 
L 51.517529 48.401817 
L 51.473986 48.679274 
L 51.536191 48.50007 
L 51.626387 48.692687 
L 51.601505 48.401373 
L 51.654379 48.635648 
L 51.722804 48.382378 
L 51.741465 48.682269 
L 51.769457 48.526603 
L 51.834772 48.681699 
L 51.853433 48.394925 
L 51.881425 48.646124 
L 51.890756 48.387988 
L 51.971622 48.675771 
L 51.993393 48.56379 
L 52.008944 48.682868 
L 52.0867 48.275056 
L 52.099141 48.56286 
L 52.117802 48.453452 
L 52.155125 48.698364 
L 52.207998 48.576043 
L 52.267092 48.690519 
L 52.23288 48.462344 
L 52.313746 48.615279 
L 52.319966 48.446975 
L 52.354179 48.680184 
L 52.422603 48.551521 
L 52.441265 48.696093 
L 52.456816 48.484907 
L 52.534571 48.562233 
L 52.609217 48.533689 
L 52.571894 48.686241 
L 52.630988 48.619749 
L 52.724295 48.688743 
L 52.665201 48.386032 
L 52.739846 48.587346 
L 52.774058 48.675874 
L 52.845593 48.496847 
L 52.94512 48.683042 
L 52.882916 48.441277 
L 52.957561 48.570935 
L 52.960672 48.502394 
L 53.057088 48.698572 
L 53.063309 48.630726 
L 53.122403 48.678108 
L 53.091301 48.381837 
L 53.165946 48.550146 
L 53.259253 48.462496 
L 53.21882 48.680212 
L 53.271694 48.657407 
L 53.281024 48.43259 
L 53.321457 48.673199 
L 53.389882 48.600618 
L 53.464527 48.694461 
L 53.414764 48.274418 
L 53.50496 48.637662 
L 53.592046 48.42144 
L 53.517401 48.688069 
L 53.620038 48.570122 
L 53.623148 48.685014 
L 53.660471 48.483122 
L 53.728896 48.586187 
L 53.800431 48.413302 
L 53.735116 48.67303 
L 53.834643 48.55038 
L 53.843974 48.674271 
L 53.912399 48.428872 
L 53.946611 48.590223 
L 53.999485 48.365965 
L 54.002595 48.262136 
L 54.086571 48.695386 
L 54.102122 48.49589 
L 54.108343 48.662813 
L 54.142555 48.393785 
L 54.2172 48.655858 
L 54.310507 48.471092 
L 54.279405 48.676345 
L 54.332279 48.507137 
L 54.35405 48.68214 
L 54.413144 48.40779 
L 54.444247 48.550563 
L 54.469128 48.455113 
L 54.534443 48.657531 
L 54.553104 48.529135 
L 54.665072 48.675372 
L 54.609088 48.452738 
L 54.668182 48.585563 
L 54.749048 48.686262 
L 54.677513 48.409977 
L 54.752158 48.63876 
L 54.861016 48.461897 
L 54.854796 48.68864 
L 54.864126 48.563293 
L 54.876567 48.686448 
L 54.926331 48.431403 
L 54.976094 48.628863 
L 55.035188 48.680316 
L 55.047629 48.501698 
L 55.069401 48.626687 
L 55.100503 48.351359 
L 55.172038 48.685472 
L 55.178258 48.533844 
L 55.228022 48.457122 
L 55.293337 48.688175 
L 55.395974 48.442311 
L 55.414635 48.463999 
L 55.507942 48.39559 
L 55.529713 48.697616 
L 55.641681 48.497033 
L 55.651012 48.68971 
L 55.660343 48.470777 
L 55.76298 48.66459 
L 55.828294 48.424188 
L 55.790972 48.676137 
L 55.881168 48.429149 
L 55.971365 48.682482 
L 55.993136 48.514039 
L 56.070892 48.692816 
L 56.064671 48.473222 
L 56.108214 48.626354 
L 56.220182 48.422656 
L 56.126876 48.697378 
L 56.223292 48.463912 
L 56.297938 48.407631 
L 56.341481 48.646679 
L 56.347701 48.686383 
L 56.357032 48.52229 
L 56.372583 48.619251 
L 56.469 48.390474 
L 56.409906 48.663145 
L 56.481441 48.571582 
L 56.500102 48.698838 
L 56.562306 48.33169 
L 56.587188 48.552722 
L 56.60896 48.435041 
L 56.61829 48.695385 
L 56.696046 48.494001 
L 56.776912 48.700328 
L 56.720928 48.476096 
L 56.808014 48.544162 
L 56.860887 48.423397 
L 56.839116 48.693912 
L 56.879549 48.564609 
L 56.972855 48.678372 
L 56.963525 48.439857 
L 56.991517 48.654334 
L 57.03195 48.439094 
L 57.010178 48.699922 
L 57.103485 48.627471 
L 57.168799 48.478653 
L 57.203012 48.701079 
L 57.209232 48.659496 
L 57.243445 48.694468 
L 57.218563 48.488105 
L 57.293208 48.592616 
L 57.296318 48.446502 
L 57.392735 48.690099 
L 57.402066 48.510485 
L 57.492262 48.700439 
L 57.445609 48.435583 
L 57.514034 48.56097 
L 57.619781 48.386049 
L 57.545136 48.694581 
L 57.626002 48.520623 
L 57.709978 48.678632 
L 57.653994 48.400794 
L 57.74419 48.622999 
L 57.806394 48.47162 
L 57.765962 48.698917 
L 57.846827 48.523974 
L 57.849937 48.696431 
L 57.921473 48.23857 
L 57.955685 48.4188 
L 57.958795 48.416778 
L 57.971236 48.695827 
L 58.070763 48.548006 
L 58.101865 48.442385 
L 58.132967 48.655364 
L 58.139188 48.556235 
L 58.16718 48.686846 
L 58.195172 48.440202 
L 58.251156 48.584585 
L 58.322691 48.415921 
L 58.30403 48.68768 
L 58.363124 48.538205 
L 58.431549 48.69823 
L 58.4471 48.38947 
L 58.468871 48.61827 
L 58.471981 48.459332 
L 58.559068 48.674618 
L 58.580839 48.505424 
L 58.674146 48.660434 
L 58.664815 48.440197 
L 58.689697 48.466983 
L 58.779893 48.659213 
L 58.73635 48.385226 
L 58.820326 48.610663 
L 58.910522 48.690713 
L 58.929184 48.443763 
L 59.034931 48.696012 
L 59.041152 48.531808 
L 59.15312 48.668609 
L 59.118907 48.457407 
L 59.15623 48.660111 
L 59.221545 48.480054 
L 59.184222 48.674599 
L 59.271308 48.507475 
L 59.392607 48.672642 
L 59.30241 48.461073 
L 59.398827 48.663251 
L 59.454811 48.702914 
L 59.517015 48.500199 
L 59.616542 48.674372 
L 59.557448 48.41878 
L 59.632094 48.643174 
L 59.697408 48.450944 
L 59.647645 48.685826 
L 59.747172 48.534505 
L 59.793825 48.701632 
L 59.775164 48.497245 
L 59.85914 48.656861 
L 59.874691 48.447565 
L 59.902683 48.67631 
L 59.967997 48.648365 
L 60.023981 48.692169 
L 60.039532 48.434101 
L 60.076855 48.636477 
L 60.086186 48.652411 
L 60.098627 48.522033 
L 60.101737 48.53575 
L 60.157721 48.479438 
L 60.179492 48.703954 
L 60.207484 48.55419 
L 60.269689 48.643755 
L 60.28524 48.479571 
L 60.310122 48.509046 
L 60.313232 48.423377 
L 60.400318 48.663252 
L 60.418979 48.545756 
L 60.456302 48.673691 
L 60.509176 48.493133 
L 60.530947 48.603989 
L 60.562049 48.440604 
L 60.552719 48.694425 
L 60.639805 48.551962 
L 60.733111 48.687479 
L 60.720671 48.453245 
L 60.748663 48.579349 
L 60.751773 48.524617 
L 60.810867 48.692055 
L 60.85752 48.584203 
L 60.873071 48.701011 
L 60.953937 48.463736 
L 60.969488 48.620359 
L 61.041023 48.41769 
L 60.978819 48.681129 
L 61.090787 48.520379 
L 61.184093 48.690148 
L 61.128109 48.482418 
L 61.215196 48.601094 
L 61.230747 48.476416 
L 61.299171 48.696725 
L 61.327163 48.485315 
L 61.367596 48.683005 
L 61.439131 48.599002 
L 61.551099 48.475117 
L 61.460903 48.693976 
L 61.55732 48.52083 
L 61.588422 48.684096 
L 61.672398 48.674197 
L 61.775035 48.563569 
L 61.678618 48.697902 
L 61.784366 48.595088 
L 61.899444 48.684201 
L 61.793696 48.525209 
L 61.902554 48.644243 
L 61.930546 48.46416 
L 61.970979 48.658183 
L 62.014522 48.632714 
L 62.114049 48.397153 
L 62.036294 48.685755 
L 62.1296 48.525159 
L 62.185584 48.680204 
L 62.222907 48.466935 
L 62.241568 48.565044 
L 62.353536 48.423787 
L 62.341095 48.675703 
L 62.356646 48.466239 
L 62.434402 48.67242 
L 62.471724 48.650736 
L 62.474835 48.654891 
L 62.477945 48.531445 
L 62.484165 48.410163 
L 62.515268 48.67896 
L 62.580582 48.644174 
L 62.583692 48.698106 
L 62.617905 48.400434 
L 62.680109 48.524403 
L 62.69255 48.455315 
L 62.708101 48.677513 
L 62.785857 48.56801 
L 62.888494 48.682116 
L 62.844951 48.496182 
L 62.891604 48.666652 
L 62.910265 48.434625 
L 62.941368 48.694397 
L 63.003572 48.596965 
L 63.099989 48.686536 
L 63.050225 48.523371 
L 63.11554 48.644136 
L 63.137312 48.471843 
L 63.131091 48.675083 
L 63.152863 48.607707 
L 63.155973 48.374232 
L 63.180855 48.688422 
L 63.26172 48.612664 
L 63.361247 48.683352 
L 63.311484 48.410374 
L 63.370578 48.661787 
L 63.429672 48.495328 
L 63.379909 48.693768 
L 63.488766 48.579702 
L 63.53853 48.455328 
L 63.510538 48.663747 
L 63.563412 48.64652 
L 63.610065 48.673499 
L 63.619396 48.470354 
L 63.662939 48.640543 
L 63.722033 48.468766 
L 63.697151 48.681788 
L 63.771796 48.637799 
L 63.877544 48.461724 
L 63.81845 48.661783 
L 63.886875 48.549565 
L 63.914867 48.688175 
L 63.908646 48.529656 
L 63.998843 48.602719 
L 64.057937 48.429838 
L 64.008173 48.69171 
L 64.10459 48.559624 
L 64.145023 48.698974 
L 64.194786 48.502631 
L 64.213448 48.653045 
L 64.309865 48.43621 
L 64.263211 48.675715 
L 64.322305 48.590147 
L 64.328526 48.688246 
L 64.368959 48.447348 
L 64.431163 48.646852 
L 64.449824 48.405807 
L 64.499588 48.663782 
L 64.543131 48.609952 
L 64.651989 48.694007 
L 64.574233 48.520513 
L 64.661319 48.627387 
L 64.748406 48.525367 
L 64.745295 48.693031 
L 64.770177 48.599362 
L 64.782618 48.690181 
L 64.829271 48.404339 
L 64.882145 48.616549 
L 64.938129 48.435446 
L 64.984782 48.680748 
L 64.994113 48.475494 
L 65.022105 48.682431 
L 65.109191 48.662549 
L 65.202498 48.441874 
L 65.162065 48.69448 
L 65.224269 48.600178 
L 65.295804 48.675688 
L 65.264702 48.418114 
L 65.333127 48.607687 
L 65.413993 48.508519 
L 65.354898 48.697325 
L 65.441985 48.637082 
L 65.547732 48.673963 
L 65.494858 48.403452 
L 65.550842 48.624236 
L 65.644149 48.451912 
L 65.572614 48.676833 
L 65.66281 48.537239 
L 65.697023 48.692648 
L 65.684582 48.473739 
L 65.780999 48.565667 
L 65.787219 48.415203 
L 65.871195 48.688714 
L 65.889856 48.59211 
L 65.93962 48.641639 
L 65.924069 48.504291 
L 65.964502 48.5627 
L 65.967612 48.46278 
L 66.070249 48.680416 
L 66.073359 48.622929 
L 66.160445 48.693818 
L 66.123123 48.495652 
L 66.182217 48.64345 
L 66.272413 48.448565 
L 66.210209 48.694968 
L 66.297295 48.557204 
L 66.390602 48.701497 
L 66.322177 48.442518 
L 66.409263 48.631093 
L 66.443475 48.464086 
L 66.477688 48.693136 
L 66.521231 48.609595 
L 66.524341 48.68356 
L 66.586546 48.457429 
L 66.623868 48.565489 
L 66.626978 48.457165 
L 66.670522 48.695355 
L 66.732726 48.618628 
L 66.810481 48.489453 
L 66.79182 48.688601 
L 66.838473 48.649536 
L 66.92867 48.686958 
L 66.875796 48.498841 
L 66.93489 48.618353 
L 67.046858 48.342483 
L 66.972213 48.682615 
L 67.049968 48.41908 
L 67.099732 48.680272 
L 67.062409 48.409554 
L 67.165047 48.556325 
L 67.186818 48.698392 
L 67.20859 48.524675 
L 67.277014 48.614188 
L 67.329888 48.473137 
L 67.292566 48.701501 
L 67.385872 48.636876 
L 67.407644 48.469054 
L 67.466738 48.677738 
L 67.50095 48.518689 
L 67.569375 48.689085 
L 67.591147 48.49473 
L 67.612918 48.594013 
L 67.687563 48.513858 
L 67.678233 48.699574 
L 67.721776 48.620863 
L 67.799531 48.422415 
L 67.818193 48.657512 
L 67.833744 48.59687 
L 67.942602 48.679767 
L 67.895948 48.438863 
L 67.945712 48.675343 
L 67.983034 48.438541 
L 68.06079 48.611587 
L 68.169648 48.678532 
L 68.085672 48.484983 
L 68.175868 48.666143 
L 68.328269 48.527596 
L 68.34382 48.605362 
L 68.387363 48.687438 
L 68.430906 48.503819 
L 68.443347 48.594983 
L 68.449567 48.449661 
L 68.48067 48.688251 
L 68.552205 48.539926 
L 68.558425 48.684555 
L 68.62685 48.463594 
L 68.661062 48.628618 
L 68.689054 48.698605 
L 68.776141 48.52002 
L 68.838345 48.69795 
L 68.900549 48.652402 
L 69.003187 48.449049 
L 68.978305 48.691015 
L 69.012517 48.632213 
L 69.074722 48.693447 
L 69.034289 48.395098 
L 69.115154 48.636203 
L 69.136926 48.686758 
L 69.230233 48.460151 
L 69.245784 48.674373 
L 69.345311 48.623232 
L 69.385744 48.663414 
L 69.357752 48.528061 
L 69.413736 48.624518 
L 69.451058 48.500214 
L 69.510152 48.690861 
L 69.525704 48.585255 
L 69.603459 48.688508 
L 69.61901 48.488636 
L 69.637671 48.674567 
L 69.665663 48.475601 
L 69.746529 48.594993 
L 69.75586 48.496855 
L 69.855387 48.688821 
L 69.933142 48.459583 
L 69.951804 48.692365 
L 69.967355 48.545118 
L 70.051331 48.682045 
L 69.986016 48.49618 
L 70.076212 48.657752 
L 70.104204 48.435091 
L 70.153968 48.693774 
L 70.191291 48.471744 
L 70.216172 48.699766 
L 70.256605 48.363952 
L 70.300148 48.443215 
L 70.303259 48.381593 
L 70.356132 48.688131 
L 70.399675 48.615294 
L 70.499202 48.692718 
L 70.421447 48.414802 
L 70.514754 48.634934 
L 70.595619 48.350901 
L 70.583178 48.670644 
L 70.626721 48.621365 
L 70.654713 48.702319 
L 70.704477 48.484054 
L 70.7418 48.629439 
L 70.797784 48.395549 
L 70.769792 48.679233 
L 70.850657 48.556904 
L 70.934633 48.696442 
L 70.943964 48.411784 
L 70.959515 48.595303 
L 70.968846 48.42032 
L 71.012389 48.700145 
L 71.062152 48.668921 
L 71.130577 48.675824 
L 71.090144 48.533145 
L 71.143018 48.573005 
L 71.146128 48.508713 
L 71.183451 48.683856 
L 71.248765 48.604634 
L 71.354513 48.682349 
L 71.320301 48.531665 
L 71.357623 48.636017 
L 71.426048 48.702998 
L 71.463371 48.517239 
L 71.569118 48.677055 
L 71.531795 48.495737 
L 71.575339 48.615134 
L 71.631323 48.450462 
L 71.594 48.694665 
L 71.693527 48.567705 
L 71.758842 48.68383 
L 71.74329 48.402017 
L 71.808605 48.641997 
L 71.842817 48.462332 
L 71.886361 48.690723 
L 71.923683 48.533841 
L 71.967226 48.520382 
L 71.939234 48.597448 
L 71.970336 48.566189 
L 71.988998 48.512074 
L 72.079194 48.695352 
L 72.147619 48.431256 
L 72.191162 48.592633 
L 72.197383 48.427846 
L 72.262697 48.683975 
L 72.30002 48.53048 
L 72.365334 48.663619 
L 72.387106 48.339485 
L 72.408878 48.575683 
L 72.44309 48.422161 
L 72.477302 48.699179 
L 72.511515 48.61405 
L 72.533286 48.699764 
L 72.558168 48.470241 
L 72.620372 48.610077 
L 72.626593 48.502845 
L 72.707459 48.692168 
L 72.72923 48.655743 
L 72.822537 48.683512 
L 72.778994 48.508867 
L 72.828757 48.602185 
L 72.86608 48.466648 
L 72.912733 48.683056 
L 72.940725 48.576212 
L 73.034032 48.687293 
L 73.024701 48.399913 
L 73.046473 48.565257 
L 73.111787 48.455902 
L 73.080685 48.68783 
L 73.15533 48.60097 
L 73.257968 48.696484 
L 73.170881 48.506246 
L 73.264188 48.643848 
L 73.307731 48.402328 
L 73.373046 48.689425 
L 73.488124 48.492352 
L 73.494344 48.511479 
L 73.57832 48.700114 
L 73.621863 48.636411 
L 73.637414 48.521834 
L 73.631194 48.696928 
L 73.71206 48.584944 
L 73.71517 48.700256 
L 73.761823 48.376014 
L 73.820917 48.580319 
L 73.889342 48.675265 
L 73.836469 48.497754 
L 73.920444 48.620215 
L 73.985759 48.480658 
L 74.010641 48.695746 
L 74.032412 48.495732 
L 74.072845 48.679564 
L 74.156821 48.600721 
L 74.191034 48.479041 
L 74.225246 48.695507 
L 74.262569 48.56819 
L 74.265679 48.689175 
L 74.28123 48.475993 
L 74.371426 48.645266 
L 74.390088 48.503106 
L 74.414969 48.679879 
L 74.483394 48.556299 
L 74.576701 48.682891 
L 74.539378 48.46611 
L 74.598472 48.600489 
L 74.660677 48.510363 
L 74.670008 48.689101 
L 74.70422 48.631249 
L 74.763314 48.648048 
L 74.719771 48.508201 
L 74.775755 48.512561 
L 74.84107 48.394012 
L 74.834849 48.696824 
L 74.872172 48.553224 
L 74.897054 48.688413 
L 74.915715 48.511377 
L 74.98414 48.619173 
L 75.074336 48.422821 
L 75.012132 48.673337 
L 75.092997 48.632806 
L 75.142761 48.679895 
L 75.208076 48.498629 
L 75.214296 48.691551 
L 75.223627 48.438093 
L 75.316933 48.469344 
L 75.320043 48.393095 
L 75.335595 48.691066 
L 75.419571 48.662333 
L 75.54709 48.502991 
L 75.466224 48.700779 
L 75.55331 48.618451 
L 75.568861 48.670513 
L 75.562641 48.478421 
L 75.659057 48.605547 
L 75.727482 48.4574 
L 75.69949 48.679768 
L 75.780356 48.493767 
L 75.817679 48.692787 
L 75.848781 48.450084 
L 75.892324 48.657844 
L 75.910985 48.49045 
L 75.901655 48.678615 
L 76.001182 48.518718 
L 76.004292 48.683321 
L 76.082047 48.474963 
L 76.11315 48.630894 
L 76.181574 48.699778 
L 76.128701 48.5113 
L 76.225118 48.657898 
L 76.268661 48.518486 
L 76.231338 48.680464 
L 76.337085 48.634239 
L 76.417951 48.687981 
L 76.346416 48.521958 
L 76.449053 48.64062 
L 76.498817 48.6941 
L 76.480156 48.506157 
L 76.54858 48.650186 
L 76.570352 48.698756 
L 76.663659 48.508393 
L 76.766296 48.673776 
L 76.747634 48.43117 
L 76.775626 48.580768 
L 76.890705 48.6812 
L 76.791178 48.500278 
L 76.893815 48.66785 
L 76.96846 48.436217 
L 76.903146 48.676691 
L 77.008893 48.562078 
L 77.099089 48.69426 
L 77.064877 48.430924 
L 77.120861 48.59105 
L 77.155073 48.420972 
L 77.198616 48.682814 
L 77.232829 48.458948 
L 77.326135 48.697138 
L 77.344797 48.623277 
L 77.441214 48.480872 
L 77.400781 48.670161 
L 77.459875 48.54754 
L 77.503418 48.687184 
L 77.568733 48.523193 
L 77.67137 48.688809 
L 77.693141 48.666187 
L 77.758456 48.466114 
L 77.805109 48.601191 
L 77.82066 48.686782 
L 77.845542 48.474284 
L 77.885975 48.543724 
L 77.966841 48.426064 
L 77.973061 48.675749 
L 77.991723 48.584448 
L 78.10058 48.673047 
L 78.057037 48.467 
L 78.10369 48.629313 
L 78.131682 48.407387 
L 78.150344 48.648821 
L 78.212548 48.624934 
L 78.231209 48.451389 
L 78.218769 48.662775 
L 78.333847 48.60846 
L 78.364949 48.692636 
L 78.414712 48.521272 
L 78.445815 48.640875 
L 78.554672 48.447334 
L 78.455145 48.685957 
L 78.557783 48.534056 
L 78.604436 48.669387 
L 78.570223 48.470458 
L 78.66353 48.624037 
L 78.719514 48.480031 
L 78.691522 48.680104 
L 78.775498 48.563879 
L 78.778608 48.696262 
L 78.787939 48.474384 
L 78.887466 48.660501 
L 78.937229 48.451642 
L 78.965221 48.684407 
L 78.996324 48.56756 
L 79.064748 48.688421 
L 79.105181 48.524935 
L 79.210929 48.685524 
L 79.22959 48.649826 
L 79.2327 48.564373 
L 79.304235 48.697252 
L 79.338448 48.626742 
L 79.425534 48.685725 
L 79.347778 48.484896 
L 79.434865 48.632651 
L 79.472187 48.503549 
L 79.51573 48.691061 
L 79.543722 48.623676 
L 79.609037 48.700797 
L 79.605927 48.540342 
L 79.64636 48.595725 
L 79.64947 48.513153 
L 79.674352 48.691273 
L 79.755217 48.605687 
L 79.808091 48.640453 
L 79.826752 48.461307 
L 79.916949 48.675602 
L 80.025806 48.698282 
L 80.035137 48.50258 
L 80.116003 48.683905 
L 80.041358 48.40676 
L 80.162656 48.547103 
L 80.203089 48.445449 
L 80.175097 48.668695 
L 80.262183 48.54907 
L 80.333718 48.685542 
L 80.280844 48.441165 
L 80.374151 48.617953 
L 80.451907 48.460006 
L 80.448796 48.698605 
L 80.483009 48.53619 
L 80.49545 48.688783 
L 80.50478 48.472932 
L 80.594977 48.656494 
L 80.64474 48.520891 
L 80.607418 48.680797 
L 80.710055 48.528208 
L 80.78781 48.693287 
L 80.756708 48.460709 
L 80.822023 48.573876 
L 80.843794 48.664204 
L 80.884227 48.515184 
L 80.887337 48.446316 
L 80.961983 48.689001 
L 80.989975 48.587126 
L 81.021077 48.690244 
L 81.07084 48.471968 
L 81.108163 48.667994 
L 81.129935 48.54985 
L 81.185919 48.689451 
L 81.220131 48.616863 
L 81.273005 48.696903 
L 81.319658 48.528821 
L 81.332099 48.677934 
L 81.437846 48.530056 
L 81.440957 48.695391 
L 81.444067 48.625054 
L 81.500051 48.703068 
L 81.546704 48.547605 
L 81.549814 48.625844 
L 81.661782 48.456333 
L 81.559145 48.675864 
L 81.664892 48.576836 
L 81.739538 48.694126 
L 81.758199 48.525673 
L 81.77375 48.674877 
L 81.817293 48.44668 
L 81.835955 48.684823 
L 81.885718 48.527638 
L 81.91993 48.69493 
L 81.932371 48.47614 
L 81.997686 48.655796 
L 82.090993 48.43145 
L 82.05989 48.688589 
L 82.106544 48.599017 
L 82.156307 48.691816 
L 82.150087 48.536183 
L 82.215401 48.668233 
L 82.234063 48.41707 
L 82.221622 48.692053 
L 82.327369 48.610795 
L 82.433117 48.689519 
L 82.352251 48.406681 
L 82.439337 48.68036 
L 82.47666 48.483596 
L 82.548195 48.701678 
L 82.551305 48.614453 
L 82.563746 48.697095 
L 82.576187 48.483578 
L 82.647722 48.553816 
L 82.650832 48.462492 
L 82.706816 48.700964 
L 82.75658 48.521756 
L 82.769021 48.661671 
L 82.837445 48.511771 
L 82.871658 48.639752 
L 82.877878 48.537488 
L 82.924532 48.686385 
L 82.980515 48.668306 
L 83.04272 48.463263 
L 82.996067 48.685523 
L 83.092483 48.660845 
L 83.173349 48.442703 
L 83.136026 48.696289 
L 83.210672 48.604932 
L 83.213782 48.693548 
L 83.313309 48.510016 
L 83.319529 48.6606 
L 83.394175 48.473181 
L 83.375513 48.692902 
L 83.431497 48.569159 
L 83.506143 48.690292 
L 83.521694 48.497909 
L 83.543465 48.598458 
L 83.61189 48.469571 
L 83.587008 48.680346 
L 83.646103 48.654799 
L 83.649213 48.698732 
L 83.689646 48.527433 
L 83.74874 48.540071 
L 83.75185 48.497989 
L 83.795393 48.687081 
L 83.851377 48.601079 
L 83.960235 48.68619 
L 83.935353 48.518145 
L 83.963345 48.648134 
L 84.03177 48.525245 
L 84.000668 48.699975 
L 84.069093 48.572785 
L 84.156179 48.684435 
L 84.093974 48.412748 
L 84.17795 48.611365 
L 84.277477 48.532744 
L 84.230824 48.681029 
L 84.283698 48.589686 
L 84.367674 48.679696 
L 84.361453 48.474272 
L 84.395666 48.649928 
L 84.408106 48.70398 
L 84.46098 48.505146 
L 84.498303 48.637149 
L 84.501413 48.509103 
L 84.572948 48.681163 
L 84.607161 48.627843 
L 84.610271 48.694168 
L 84.672475 48.523625 
L 84.716018 48.620201 
L 84.790664 48.473726 
L 84.722239 48.69014 
L 84.824876 48.604306 
L 84.921293 48.665297 
L 84.911962 48.458705 
L 84.933734 48.587269 
L 84.936844 48.486013 
L 84.946175 48.68768 
L 85.042591 48.578714 
L 85.070583 48.528039 
L 85.104796 48.693768 
L 85.120347 48.607855 
L 85.210543 48.698077 
L 85.198102 48.4964 
L 85.229205 48.609519 
L 85.263417 48.449748 
L 85.30074 48.690564 
L 85.338062 48.608248 
L 85.412708 48.48859 
L 85.356724 48.698429 
L 85.437589 48.619914 
L 85.527786 48.673016 
L 85.471802 48.474327 
L 85.537116 48.615324 
L 85.540227 48.467634 
L 85.636643 48.691467 
L 85.645974 48.601483 
L 85.686407 48.685035 
L 85.717509 48.468868 
L 85.751722 48.575961 
L 85.841918 48.440494 
L 85.848138 48.702357 
L 85.854359 48.581014 
L 85.860579 48.697268 
L 85.929004 48.573602 
L 85.963217 48.666773 
L 86.028531 48.511321 
L 85.997429 48.689881 
L 86.075184 48.634823 
L 86.143609 48.512137 
L 86.137389 48.693538 
L 86.193373 48.574036 
L 86.30223 48.6588 
L 86.199593 48.511645 
L 86.317782 48.564528 
L 86.389317 48.548233 
L 86.361325 48.688734 
L 86.395537 48.569231 
L 86.404868 48.693007 
L 86.504395 48.683923 
L 86.613253 48.525677 
L 86.569709 48.688236 
L 86.616363 48.582852 
L 86.728331 48.671295 
L 86.656796 48.537314 
L 86.731441 48.594003 
L 86.809196 48.497789 
L 86.771874 48.680903 
L 86.843409 48.549786 
L 86.970928 48.678262 
L 86.99892 48.645683 
L 87.017581 48.477348 
L 87.00825 48.699343 
L 87.110888 48.557437 
L 87.197974 48.68125 
L 87.14199 48.465234 
L 87.222856 48.608482 
L 87.297501 48.408613 
L 87.316162 48.698168 
L 87.328603 48.605436 
L 87.397028 48.429702 
L 87.440571 48.689924 
L 87.502775 48.560701 
L 87.505886 48.643821 
L 87.602302 48.474041 
L 87.56498 48.702071 
L 87.614743 48.671111 
L 87.723601 48.493101 
L 87.70494 48.700614 
L 87.729822 48.523389 
L 87.739152 48.688038 
L 87.748483 48.458672 
L 87.841789 48.622112 
L 87.8449 48.494028 
L 87.903994 48.696803 
L 87.950647 48.646349 
L 88.047064 48.523756 
L 88.062615 48.694239 
L 88.143481 48.484567 
L 88.068835 48.697577 
L 88.177693 48.574715 
L 88.26789 48.683292 
L 88.28033 48.483233 
L 88.289661 48.627954 
L 88.348755 48.473401 
L 88.320763 48.681064 
L 88.398519 48.627805 
L 88.445172 48.686262 
L 88.41718 48.486513 
L 88.507377 48.616077 
L 88.585132 48.501064 
L 88.56025 48.697934 
L 88.613124 48.62219 
L 88.678439 48.551722 
L 88.718871 48.682228 
L 88.784186 48.516638 
L 88.821509 48.690997 
L 88.827729 48.637044 
L 88.914815 48.676677 
L 88.852611 48.526559 
L 88.924146 48.592187 
L 88.961469 48.514763 
L 88.955248 48.683688 
L 89.017453 48.671217 
L 89.098318 48.693507 
L 89.036114 48.529101 
L 89.110759 48.676664 
L 89.216507 48.560139 
L 89.197845 48.700917 
L 89.219617 48.582023 
L 89.316034 48.700065 
L 89.303593 48.544457 
L 89.328475 48.63877 
L 89.390679 48.50805 
L 89.40934 48.691611 
L 89.437332 48.612892 
L 89.477765 48.689664 
L 89.471545 48.548364 
L 89.555521 48.66443 
L 89.645717 48.520733 
L 89.589733 48.695269 
L 89.664378 48.640343 
L 89.763905 48.48929 
L 89.729693 48.69242 
L 89.779457 48.597553 
L 89.782567 48.69526 
L 89.878984 48.518599 
L 89.888314 48.584264 
L 89.959849 48.506589 
L 89.900755 48.690374 
L 89.96607 48.640053 
L 89.96918 48.688095 
L 90.053156 48.404733 
L 90.065597 48.504316 
L 90.068707 48.474559 
L 90.081148 48.702441 
L 90.165124 48.601244 
L 90.25221 48.704366 
L 90.190006 48.480682 
L 90.273982 48.66477 
L 90.329965 48.380509 
L 90.357957 48.676815 
L 90.385949 48.593207 
L 90.488587 48.673732 
L 90.476146 48.517062 
L 90.516579 48.661262 
L 90.606775 48.48218 
L 90.557012 48.67125 
L 90.628547 48.630908 
L 90.734294 48.696499 
L 90.644098 48.545664 
L 90.740515 48.666605 
L 90.81205 48.518611 
L 90.762286 48.691909 
L 90.852482 48.612068 
L 90.858703 48.559775 
L 90.983112 48.686062 
L 91.039096 48.505489 
L 91.045316 48.688011 
L 91.09508 48.535821 
L 91.10441 48.68583 
L 91.191496 48.505896 
L 91.216378 48.662267 
L 91.266142 48.442796 
L 91.24126 48.682418 
L 91.328346 48.529477 
L 91.371889 48.680927 
L 91.434094 48.488784 
L 91.440314 48.647883 
L 91.496298 48.678128 
L 91.474526 48.5347 
L 91.549172 48.629859 
L 91.567833 48.492452 
L 91.574053 48.696944 
L 91.658029 48.669634 
L 91.714013 48.516325 
L 91.726454 48.695463 
L 91.769997 48.578693 
L 91.863304 48.702315 
L 91.81354 48.543437 
L 91.878855 48.594604 
L 91.900627 48.482746 
L 91.94417 48.686312 
L 91.981492 48.550424 
L 92.08724 48.700238 
L 92.049917 48.538635 
L 92.09346 48.682163 
L 92.099681 48.633823 
L 92.102791 48.494688 
L 92.143224 48.696864 
L 92.211649 48.554025 
L 92.245861 48.697099 
L 92.23342 48.515867 
L 92.323617 48.638684 
L 92.3796 48.680932 
L 92.332947 48.494351 
L 92.395152 48.607336 
L 92.457356 48.45591 
L 92.485348 48.689103 
L 92.504009 48.581374 
L 92.525781 48.701115 
L 92.556883 48.476437 
L 92.587985 48.506322 
L 92.591095 48.43535 
L 92.65952 48.681085 
L 92.690622 48.654386 
L 92.771488 48.701585 
L 92.737276 48.535514 
L 92.783929 48.615645 
L 92.79948 48.485098 
L 92.79326 48.668231 
L 92.895897 48.578613 
L 92.951881 48.475967 
L 92.94255 48.6947 
L 92.995424 48.609436 
L 93.042077 48.697851 
L 93.017196 48.506342 
L 93.107392 48.633968 
L 93.185147 48.539019 
L 93.169596 48.676053 
L 93.21936 48.585023 
L 93.337548 48.691624 
L 93.262903 48.469131 
L 93.340658 48.643961 
L 93.440186 48.476667 
L 93.353099 48.683275 
L 93.461957 48.521087 
L 93.555264 48.678428 
L 93.471288 48.473939 
L 93.573925 48.633355 
L 93.654791 48.50638 
L 93.689003 48.678355 
L 93.772979 48.474189 
L 93.726326 48.684829 
L 93.800971 48.533326 
L 93.813412 48.69081 
L 93.838294 48.525255 
L 93.92227 48.678882 
L 94.000025 48.491778 
L 93.987584 48.693181 
L 94.034238 48.603969 
L 94.139985 48.691929 
L 94.07467 48.536969 
L 94.143095 48.58123 
L 94.186638 48.484504 
L 94.158646 48.703511 
L 94.251953 48.598086 
L 94.320378 48.54684 
L 94.298606 48.690914 
L 94.35148 48.585871 
L 94.3577 48.701882 
L 94.463448 48.63291 
L 94.541203 48.691017 
L 94.528763 48.510062 
L 94.569195 48.583111 
L 94.643841 48.52624 
L 94.584746 48.68453 
L 94.678053 48.545231 
L 94.693604 48.674199 
L 94.702935 48.661617 
" clip-path="url(#pb3cd3c445e)" style="fill: none; stroke: #7f7f7f; stroke-width: 0.5; stroke-linecap: square"/>
   </g>
  </g>
 </g>
 <defs>
  <clipPath id="pb3cd3c445e">
   <rect x="0" y="-0" width="99.212598" height="51.023622"/>
  </clipPath>
 </defs>
</svg>
