<?xml version="1.0" encoding="utf-8" standalone="no"?>
<!DOCTYPE svg PUBLIC "-//W3C//DTD SVG 1.1//EN"
  "http://www.w3.org/Graphics/SVG/1.1/DTD/svg11.dtd">
<svg xmlns:xlink="http://www.w3.org/1999/xlink" width="163.356703pt" height="65.16pt" viewBox="0 0 163.356703 65.16" xmlns="http://www.w3.org/2000/svg" version="1.1">
 <metadata>
  <rdf:RDF xmlns:dc="http://purl.org/dc/elements/1.1/" xmlns:cc="http://creativecommons.org/ns#" xmlns:rdf="http://www.w3.org/1999/02/22-rdf-syntax-ns#">
   <cc:Work>
    <dc:type rdf:resource="http://purl.org/dc/dcmitype/StillImage"/>
    <dc:date>2024-10-30T10:47:35.028712</dc:date>
    <dc:format>image/svg+xml</dc:format>
    <dc:creator>
     <cc:Agent>
      <dc:title>Matplotlib v3.8.4, https://matplotlib.org/</dc:title>
     </cc:Agent>
    </dc:creator>
   </cc:Work>
  </rdf:RDF>
 </metadata>
 <defs>
  <style type="text/css">*{stroke-linejoin: round; stroke-linecap: butt}</style>
 </defs>
 <g id="figure_1">
  <g id="patch_1">
   <path d="M 0 65.16 
L 163.356703 65.16 
L 163.356703 0 
L 0 0 
L 0 65.16 
z
" style="fill: none"/>
  </g>
  <g id="axes_1">
   <g id="patch_2">
    <path d="M 0 65.16 
L 163.356703 65.16 
L 163.356703 0 
L 0 0 
L 0 65.16 
z
" style="fill: none"/>
   </g>
   <g id="PathCollection_1">
    <defs>
     <path id="m120e007132" d="M 1.197588 2.5 
L -1.197588 2.5 
L -1.197588 2.193663 
L -0.204863 2.193663 
L -0.204863 -1.354107 
Q -0.204863 -1.402929 -0.250814 -1.457496 
Q -0.296764 -1.513019 -0.339843 -1.513019 
Q -0.406854 -1.513019 -0.493012 -1.427819 
Q -0.793605 -1.114781 -1.080796 -0.925235 
L -1.197588 -1.047769 
Q -0.321654 -1.807869 -0.033506 -2.5 
L 0.027762 -2.5 
Q 0.328355 -1.795424 1.197588 -1.042026 
L 1.081754 -0.919491 
Q 0.836684 -1.090848 0.493012 -1.421118 
Q 0.407812 -1.507276 0.321654 -1.507276 
Q 0.199119 -1.507276 0.199119 -1.348363 
L 0.199119 2.193663 
L 1.197588 2.193663 
L 1.197588 2.5 
z
" style="stroke: #000000; stroke-width: 0.1"/>
    </defs>
    <g clip-path="url(#p69de6f76c4)">
     <use xlink:href="#m120e007132" x="25.910395" y="58.178571" style="stroke: #000000; stroke-width: 0.1"/>
     <use xlink:href="#m120e007132" x="58.218526" y="58.178571" style="stroke: #000000; stroke-width: 0.1"/>
     <use xlink:href="#m120e007132" x="90.513529" y="58.178571" style="stroke: #000000; stroke-width: 0.1"/>
     <use xlink:href="#m120e007132" x="122.808532" y="58.178571" style="stroke: #000000; stroke-width: 0.1"/>
    </g>
   </g>
   <g id="PathCollection_2">
    <defs>
     <path id="m331cc7b7a7" d="M 1.197588 0.226402 
L 1.081754 0.348937 
Q 0.836684 0.17758 0.493012 -0.153647 
Q 0.407812 -0.238847 0.321654 -0.238847 
Q 0.199119 -0.238847 0.199119 -0.079935 
L 0.199119 2.5 
L -0.204863 2.5 
L -0.204863 -0.085679 
Q -0.204863 -0.134501 -0.250814 -0.190025 
Q -0.296764 -0.245549 -0.339843 -0.245549 
Q -0.406854 -0.245549 -0.493012 -0.159391 
Q -0.793605 0.15269 -1.080796 0.343194 
L -1.197588 0.220659 
Q -0.517902 -0.368083 -0.204863 -0.888857 
L -0.204863 -1.354107 
Q -0.204863 -1.402929 -0.250814 -1.457496 
Q -0.296764 -1.513019 -0.339843 -1.513019 
Q -0.406854 -1.513019 -0.493012 -1.427819 
Q -0.793605 -1.114781 -1.080796 -0.925235 
L -1.197588 -1.047769 
Q -0.321654 -1.807869 -0.033506 -2.5 
L 0.027762 -2.5 
Q 0.328355 -1.795424 1.197588 -1.042026 
L 1.081754 -0.919491 
Q 0.836684 -1.090848 0.493012 -1.421118 
Q 0.407812 -1.507276 0.321654 -1.507276 
Q 0.199119 -1.507276 0.199119 -1.348363 
L 0.199119 -0.894601 
Q 0.523645 -0.361382 1.197588 0.226402 
z
" style="stroke: #000000; stroke-width: 0.1"/>
    </defs>
    <g clip-path="url(#p69de6f76c4)">
     <use xlink:href="#m331cc7b7a7" x="25.910395" y="51.197143" style="stroke: #000000; stroke-width: 0.1"/>
    </g>
   </g>
   <g id="matplotlib.axis_1">
    <g id="xtick_1"/>
    <g id="xtick_2"/>
    <g id="xtick_3"/>
    <g id="xtick_4"/>
   </g>
   <g id="matplotlib.axis_2">
    <g id="ytick_1"/>
    <g id="ytick_2"/>
    <g id="ytick_3"/>
    <g id="ytick_4"/>
    <g id="ytick_5"/>
    <g id="ytick_6"/>
    <g id="ytick_7"/>
   </g>
   <g id="line2d_1">
    <path d="M 0 32.58 
L 163.356703 32.58 
" clip-path="url(#p69de6f76c4)" style="fill: none; stroke: #555555; stroke-width: 0.5; stroke-linecap: square"/>
   </g>
   <g id="line2d_2">
    <path d="M 26.781222 32.58 
L 26.846862 31.728639 
L 26.890623 32.18143 
L 27.109423 34.720256 
L 27.153184 34.686761 
L 27.284464 33.455277 
L 27.678306 29.159436 
L 27.765826 29.465861 
L 27.940867 31.433085 
L 28.378468 36.843519 
L 28.465989 36.946282 
L 28.553509 36.611053 
L 28.77231 34.206881 
L 29.297432 27.588002 
L 29.384952 27.404908 
L 29.428712 27.45434 
L 29.559993 28.144483 
L 29.822554 31.412691 
L 30.347676 38.114951 
L 30.478956 38.442385 
L 30.522716 38.386081 
L 30.653997 37.736428 
L 30.916558 34.675131 
L 31.57296 26.353647 
L 31.704241 26.105441 
L 31.791761 26.313586 
L 31.966802 27.568844 
L 32.316883 32.4055 
L 32.842005 39.06387 
L 33.017046 39.623714 
L 33.104566 39.492071 
L 33.279607 38.437257 
L 33.585928 34.606167 
L 34.286091 25.506334 
L 34.461131 25.014647 
L 34.548652 25.152533 
L 34.723692 26.167944 
L 35.030014 29.855702 
L 35.817697 40.134867 
L 35.992737 40.633523 
L 36.080258 40.522301 
L 36.255298 39.598949 
L 36.561619 36.111669 
L 37.436823 24.606301 
L 37.655624 24.077525 
L 37.786904 24.440756 
L 38.005705 26.104962 
L 38.399546 31.486888 
L 39.055949 40.344169 
L 39.31851 41.518567 
L 39.40603 41.482653 
L 39.537311 41.026016 
L 39.756112 39.27127 
L 40.149953 33.87067 
L 40.850116 24.424616 
L 41.112677 23.23357 
L 41.200197 23.244574 
L 41.331478 23.647261 
L 41.550278 25.282067 
L 41.94412 30.494481 
L 42.731803 41.16241 
L 42.994364 42.323325 
L 43.081884 42.318592 
L 43.213165 41.94058 
L 43.431966 40.378942 
L 43.782047 35.971929 
L 44.70101 23.513226 
L 44.963571 22.445166 
L 45.051092 22.46724 
L 45.182372 22.857005 
L 45.401173 24.40383 
L 45.751254 28.741301 
L 46.757738 42.196682 
L 47.020299 43.096429 
L 47.10782 43.029789 
L 47.28286 42.350371 
L 47.545421 40.081141 
L 48.026783 33.26872 
L 48.726946 23.637886 
L 49.033267 21.836366 
L 49.164547 21.712558 
L 49.295828 21.990331 
L 49.514629 23.309305 
L 49.86471 27.28704 
L 51.089995 43.229847 
L 51.308796 43.799806 
L 51.396316 43.725638 
L 51.571357 43.064878 
L 51.833918 40.890439 
L 52.271519 34.954134 
L 53.146723 22.840246 
L 53.453044 21.145759 
L 53.584324 21.03234 
L 53.715605 21.297022 
L 53.934406 22.547818 
L 54.284487 26.352481 
L 55.684812 44.111406 
L 55.859853 44.460525 
L 55.947373 44.389845 
L 56.122414 43.763661 
L 56.384975 41.694992 
L 56.822577 35.954808 
L 57.82906 22.079445 
L 58.135382 20.489747 
L 58.266662 20.391343 
L 58.397943 20.6512 
L 58.616743 21.853771 
L 58.966825 25.518117 
L 59.710748 36.823196 
L 60.23587 43.217534 
L 60.542191 44.9215 
L 60.673471 45.086593 
L 60.717231 45.063815 
L 60.848512 44.763254 
L 61.067313 43.514969 
L 61.417394 39.82883 
L 62.161317 28.522903 
L 62.730199 21.586872 
L 63.03652 19.929445 
L 63.167801 19.772077 
L 63.211561 19.795608 
L 63.342841 20.092991 
L 63.561642 21.319492 
L 63.911724 24.943928 
L 64.568126 34.849 
L 65.224529 43.42032 
L 65.57461 45.494102 
L 65.749651 45.670465 
L 65.880931 45.413585 
L 66.099732 44.266665 
L 66.449813 40.777724 
L 67.062456 31.675548 
L 67.762618 22.067706 
L 68.1127 19.607485 
L 68.3315 19.189912 
L 68.462781 19.374368 
L 68.681582 20.391339 
L 68.987903 23.16855 
L 69.513025 30.51692 
L 70.431988 43.471851 
L 70.78207 45.859817 
L 71.000871 46.251224 
L 71.132151 46.059937 
L 71.350952 45.046211 
L 71.657273 42.297937 
L 72.182395 35.010871 
L 73.145119 21.425605 
L 73.4952 19.042055 
L 73.714001 18.631275 
L 73.845281 18.802504 
L 74.064082 19.770818 
L 74.370403 22.440449 
L 74.851765 28.93927 
L 75.945769 44.302722 
L 76.295851 46.491542 
L 76.514652 46.790339 
L 76.645932 46.559761 
L 76.864733 45.509168 
L 77.171054 42.762484 
L 77.696176 35.541805 
L 78.74642 20.78467 
L 79.096502 18.487329 
L 79.315302 18.094559 
L 79.446583 18.261231 
L 79.665384 19.197661 
L 79.971705 21.784039 
L 80.453067 28.139753 
L 81.634591 44.768125 
L 81.984673 46.974705 
L 82.203473 47.324598 
L 82.334754 47.139227 
L 82.553555 46.184083 
L 82.859876 43.595324 
L 83.341238 37.266632 
L 84.566522 20.07284 
L 84.916604 17.914655 
L 85.135405 17.579545 
L 85.266685 17.767078 
L 85.485486 18.714955 
L 85.791807 21.275192 
L 86.273169 27.546152 
L 87.542214 45.344186 
L 87.892295 47.48997 
L 88.111096 47.833825 
L 88.242376 47.65794 
L 88.461177 46.739017 
L 88.767498 44.233325 
L 89.24886 38.047255 
L 90.605425 19.242229 
L 90.955507 17.311776 
L 91.130547 17.076459 
L 91.261828 17.229305 
L 91.480629 18.101319 
L 91.78695 20.53061 
L 92.268312 26.607505 
L 93.712397 46.42556 
L 94.062479 48.169878 
L 94.237519 48.318077 
L 94.3688 48.105066 
L 94.587601 47.145467 
L 94.893922 44.624293 
L 95.375284 38.474981 
L 96.819369 18.604534 
L 97.16945 16.790074 
L 97.344491 16.593809 
L 97.475772 16.766002 
L 97.694572 17.651 
L 98.000894 20.062645 
L 98.482255 26.067215 
L 100.013861 46.98861 
L 100.363943 48.661209 
L 100.538983 48.793255 
L 100.670264 48.577654 
L 100.889065 47.631203 
L 101.195386 45.158464 
L 101.676748 39.111624 
L 103.208353 18.090083 
L 103.558435 16.317631 
L 103.733475 16.122939 
L 103.864756 16.287231 
L 104.083557 17.142752 
L 104.389878 19.486106 
L 104.87124 25.364257 
L 106.490366 47.458346 
L 106.840447 49.116432 
L 107.015488 49.260632 
L 107.146768 49.06282 
L 107.365569 48.160966 
L 107.67189 45.773854 
L 108.153252 39.870169 
L 109.816139 17.333761 
L 110.12246 15.877392 
L 110.2975 15.664048 
L 110.428781 15.805982 
L 110.647582 16.609896 
L 110.953903 18.858792 
L 111.391505 23.973079 
L 113.273192 48.705698 
L 113.535753 49.632372 
L 113.710793 49.687907 
L 113.885834 49.290528 
L 114.148395 47.872094 
L 114.542237 44.085098 
L 115.154879 35.415139 
L 116.292643 19.17718 
L 116.730245 15.92619 
L 116.992806 15.236174 
L 117.124086 15.267769 
L 117.299127 15.700524 
L 117.561688 17.159159 
L 117.95553 20.978165 
L 118.568172 29.652925 
L 119.705936 45.967926 
L 120.143538 49.333905 
L 120.406099 50.117596 
L 120.537379 50.13832 
L 120.71242 49.77936 
L 120.974981 48.435574 
L 121.325062 45.273199 
L 121.893945 37.623127 
L 123.25051 18.32371 
L 123.644351 15.519279 
L 123.906912 14.809246 
L 124.038193 14.821474 
L 124.213233 15.219286 
L 124.475794 16.609129 
L 124.869636 20.305072 
L 125.438518 28.149083 
L 126.751323 46.850574 
L 127.188925 49.9451 
L 127.451486 50.577512 
L 127.582766 50.530274 
L 127.757807 50.090823 
L 128.020368 48.650686 
L 128.414209 44.907588 
L 129.026852 36.364117 
L 130.252136 18.72423 
L 130.689738 15.3047 
L 130.952299 14.439865 
L 131.12734 14.393049 
L 131.302381 14.77249 
L 131.564942 16.118262 
L 131.915023 19.239075 
L 132.440145 26.124465 
L 134.015511 48.147372 
L 134.409352 50.549238 
L 134.628153 50.997106 
L 134.759434 50.9496 
L 134.934474 50.518267 
L 135.197035 49.106826 
L 135.590877 45.432859 
L 136.159759 37.668734 
L 137.560084 17.725437 
L 137.997686 14.638103 
L 138.260247 13.968177 
L 138.391528 13.984209 
L 138.566568 14.370031 
L 138.829129 15.708243 
L 139.179211 18.793248 
L 139.704333 25.604696 
L 141.367219 48.721036 
L 141.76106 51.011465 
L 141.979861 51.412607 
L 142.111142 51.343732 
L 142.286182 50.892194 
L 142.548743 49.467964 
L 142.942585 45.808058 
L 143.511467 38.094935 
L 144.955553 17.473569 
L 145.393154 14.322494 
L 145.655715 13.584354 
L 145.786996 13.558271 
L 145.962036 13.880739 
L 146.224597 15.112229 
L 146.574679 18.046129 
L 147.099801 24.66302 
L 148.893968 49.397835 
L 149.244049 51.368631 
L 149.46285 51.806434 
L 149.59413 51.766174 
L 149.769171 51.35973 
L 150.031732 50.015084 
L 150.425573 46.487306 
L 150.994456 38.934144 
L 152.569822 16.655347 
L 152.963663 13.939898 
L 153.226224 13.194058 
L 153.357505 13.157027 
L 153.488785 13.34528 
L 153.707586 14.152315 
L 154.013907 16.267464 
L 154.407749 20.595395 
L 155.239192 31.26779 
L 155.545513 32.41632 
L 155.764314 32.583399 
L 155.917474 32.58 
M 155.917474 32.58 
L 155.917474 32.586845 
L 163.356703 32.58 
L 163.356703 32.58 
" clip-path="url(#p69de6f76c4)" style="fill: none; stroke: #636efa; stroke-width: 0.5; stroke-linecap: square"/>
   </g>
   <g id="line2d_3">
    <path d="M 26.781222 32.58 
L 26.934383 31.148803 
L 27.021903 31.588125 
L 27.371984 35.416666 
L 27.415745 35.315966 
L 27.547025 34.132127 
L 28.028387 28.651883 
L 28.115907 28.863717 
L 28.290948 30.565104 
L 28.85983 37.344566 
L 28.90359 37.371956 
L 28.94735 37.298014 
L 29.078631 36.500997 
L 29.384952 32.327982 
L 29.778794 27.446138 
L 29.910074 27.050053 
L 29.953834 27.093261 
L 30.085115 27.733312 
L 30.347676 30.85586 
L 30.960318 38.539821 
L 31.091599 38.743783 
L 31.222879 38.248049 
L 31.44168 36.067213 
L 32.273123 25.893814 
L 32.360643 25.820846 
L 32.491924 26.24526 
L 32.710725 28.23144 
L 33.717209 39.888043 
L 33.804729 39.780552 
L 33.97977 38.7972 
L 34.286091 35.098783 
L 35.030014 25.318346 
L 35.205054 24.768219 
L 35.292575 24.864384 
L 35.467615 25.779864 
L 35.773936 29.300994 
L 36.60538 40.287318 
L 36.82418 40.858508 
L 36.955461 40.502384 
L 37.174262 38.822471 
L 37.568103 33.387763 
L 38.180746 25.096128 
L 38.443307 23.861513 
L 38.530827 23.886976 
L 38.662107 24.338066 
L 38.880908 26.106784 
L 39.27475 31.553718 
L 39.931152 40.448873 
L 40.193713 41.712138 
L 40.281234 41.717195 
L 40.412514 41.329575 
L 40.631315 39.697369 
L 41.025156 34.454577 
L 41.769079 24.303601 
L 42.03164 23.047973 
L 42.119161 23.027726 
L 42.250441 23.376476 
L 42.469242 24.911849 
L 42.819323 29.319719 
L 43.738287 41.628092 
L 43.957088 42.507201 
L 44.044608 42.521444 
L 44.175888 42.178465 
L 44.394689 40.68651 
L 44.744771 36.38228 
L 45.751254 23.033305 
L 45.970055 22.260488 
L 46.057576 22.277716 
L 46.188856 22.654041 
L 46.407657 24.1655 
L 46.757738 28.438559 
L 47.807982 42.426892 
L 48.026783 43.247874 
L 48.114303 43.261578 
L 48.245584 42.942593 
L 48.464385 41.546819 
L 48.814466 37.454706 
L 49.95223 22.339707 
L 50.171031 21.557283 
L 50.258552 21.549396 
L 50.389832 21.866348 
L 50.608633 23.23317 
L 50.958714 27.244206 
L 52.183999 43.308014 
L 52.4028 43.961692 
L 52.49032 43.926034 
L 52.621601 43.554463 
L 52.840401 42.127029 
L 53.190483 38.087581 
L 54.459528 21.50378 
L 54.678328 20.867919 
L 54.765849 20.902448 
L 54.897129 21.263531 
L 55.11593 22.653315 
L 55.466011 26.607352 
L 56.822577 44.107314 
L 57.041377 44.620304 
L 57.128898 44.543625 
L 57.303938 43.912054 
L 57.566499 41.849924 
L 58.004101 36.138088 
L 59.010585 22.129184 
L 59.316906 20.397517 
L 59.448187 20.226872 
L 59.491947 20.248759 
L 59.623227 20.549532 
L 59.842028 21.806989 
L 60.192109 25.522403 
L 60.979792 37.495024 
L 61.504914 43.632237 
L 61.811236 45.142804 
L 61.942516 45.226844 
L 62.073797 44.965649 
L 62.292597 43.787762 
L 62.642679 40.208997 
L 63.299081 30.318557 
L 63.955484 21.785305 
L 64.261805 19.904375 
L 64.436846 19.624094 
L 64.568126 19.807614 
L 64.786927 20.846034 
L 65.093248 23.689049 
L 65.61837 31.148787 
L 66.493573 43.330592 
L 66.843655 45.557787 
L 67.018695 45.826964 
L 67.149976 45.643721 
L 67.368777 44.621282 
L 67.675098 41.82449 
L 68.20022 34.440864 
L 69.119183 21.601196 
L 69.469265 19.348826 
L 69.644305 19.047734 
L 69.775586 19.19893 
L 69.950627 19.895746 
L 70.256948 22.376226 
L 70.73831 28.741996 
L 71.832314 44.071274 
L 72.182395 46.159813 
L 72.357436 46.389101 
L 72.488716 46.191594 
L 72.707517 45.174694 
L 73.013838 42.434619 
L 73.53896 35.172171 
L 74.545444 21.076372 
L 74.895525 18.829145 
L 75.114326 18.501051 
L 75.245607 18.717965 
L 75.464408 19.752927 
L 75.770729 22.491762 
L 76.295851 29.720447 
L 77.302335 43.98942 
L 77.652416 46.44149 
L 77.871217 46.930775 
L 78.002497 46.818687 
L 78.177538 46.200312 
L 78.440099 44.323799 
L 78.833941 39.725654 
L 80.409307 18.913095 
L 80.671868 18.00514 
L 80.803148 17.996313 
L 80.934429 18.286212 
L 81.153229 19.413769 
L 81.503311 22.725641 
L 82.072193 30.834399 
L 83.034917 44.375581 
L 83.428758 47.055374 
L 83.647559 47.455627 
L 83.778839 47.303967 
L 83.95388 46.650309 
L 84.260201 44.342859 
L 84.697803 38.960843 
L 86.185649 18.873478 
L 86.49197 17.548437 
L 86.62325 17.454448 
L 86.66701 17.487488 
L 86.842051 17.938928 
L 87.104612 19.537671 
L 87.498454 23.734299 
L 88.198616 34.289655 
L 88.942539 44.47093 
L 89.336381 47.36869 
L 89.555181 47.93998 
L 89.686462 47.904717 
L 89.861503 47.417506 
L 90.124064 45.782956 
L 90.517905 41.568439 
L 91.218068 31.021196 
L 92.005751 20.292812 
L 92.399592 17.4936 
L 92.618393 16.96634 
L 92.749674 17.022401 
L 92.924714 17.530028 
L 93.187275 19.179595 
L 93.581117 23.388365 
L 94.281279 33.91291 
L 95.068962 44.776852 
L 95.462804 47.749598 
L 95.725365 48.439493 
L 95.856645 48.372383 
L 96.031686 47.856786 
L 96.294247 46.208972 
L 96.688089 42.025061 
L 97.388251 31.536287 
L 98.219694 20.073398 
L 98.613536 17.151986 
L 98.876097 16.480628 
L 99.007377 16.551026 
L 99.182418 17.064715 
L 99.444979 18.697505 
L 99.838821 22.841349 
L 100.538983 33.282534 
L 101.370426 44.914613 
L 101.808028 48.249114 
L 102.070589 48.914267 
L 102.20187 48.846564 
L 102.37691 48.342378 
L 102.639471 46.734741 
L 103.033313 42.642709 
L 103.689715 32.957662 
L 104.608679 19.993705 
L 105.04628 16.683443 
L 105.308841 16.015348 
L 105.440122 16.075966 
L 105.615163 16.565153 
L 105.877724 18.140297 
L 106.271565 22.171955 
L 106.927968 31.790071 
L 107.890691 45.397171 
L 108.328293 48.693522 
L 108.590854 49.370788 
L 108.722134 49.320193 
L 108.897175 48.849652 
L 109.159736 47.311753 
L 109.553578 43.346085 
L 110.20998 33.801847 
L 111.172704 20.00639 
L 111.610305 16.469723 
L 111.872866 15.611264 
L 112.004147 15.564428 
L 112.135427 15.774586 
L 112.354228 16.68523 
L 112.660549 19.062534 
L 113.141911 24.920789 
L 114.848558 48.094071 
L 115.198639 49.68838 
L 115.37368 49.821785 
L 115.50496 49.625823 
L 115.723761 48.745165 
L 116.030082 46.419112 
L 116.511444 40.641983 
L 118.305611 16.572436 
L 118.611932 15.261933 
L 118.786973 15.115522 
L 118.918253 15.298067 
L 119.137054 16.150172 
L 119.443375 18.427046 
L 119.880977 23.521641 
L 120.843701 38.306287 
L 121.500103 46.675848 
L 121.893945 49.513054 
L 122.156506 50.239994 
L 122.287786 50.234117 
L 122.462827 49.84239 
L 122.725388 48.45657 
L 123.075469 45.253304 
L 123.644351 37.572367 
L 125.000916 18.265433 
L 125.394758 15.440759 
L 125.657319 14.708654 
L 125.788599 14.707477 
L 125.96364 15.085332 
L 126.226201 16.442118 
L 126.576282 19.597062 
L 127.145165 27.20679 
L 128.54549 47.126991 
L 128.939331 49.93098 
L 129.201892 50.661759 
L 129.333173 50.666545 
L 129.508214 50.297846 
L 129.770775 48.963099 
L 130.120856 45.848089 
L 130.645978 38.958905 
L 132.177584 17.381374 
L 132.571425 14.824168 
L 132.833986 14.260146 
L 132.965267 14.335698 
L 133.140308 14.805979 
L 133.402869 16.277047 
L 133.79671 20.035237 
L 134.409352 28.560988 
L 135.678397 46.794846 
L 136.115999 50.172637 
L 136.37856 51.030026 
L 136.553601 51.080718 
L 136.728641 50.712218 
L 136.991202 49.394758 
L 137.341284 46.327403 
L 137.866406 39.524785 
L 139.485532 16.82355 
L 139.879373 14.364515 
L 140.141934 13.845703 
L 140.273215 13.936202 
L 140.448255 14.418089 
L 140.710816 15.889453 
L 141.104658 19.617364 
L 141.7173 28.074993 
L 143.073865 47.449278 
L 143.511467 50.677657 
L 143.774028 51.460988 
L 143.905309 51.508243 
L 144.036589 51.324299 
L 144.25539 50.511547 
L 144.561711 48.364546 
L 144.999313 43.537728 
L 145.786996 31.706544 
L 146.705959 18.690329 
L 147.187321 14.649589 
L 147.493642 13.540396 
L 147.668683 13.45974 
L 147.843724 13.785301 
L 148.106285 15.017448 
L 148.456366 17.945887 
L 148.981488 24.547822 
L 150.775655 49.371654 
L 151.169496 51.554864 
L 151.388297 51.915455 
L 151.519578 51.830101 
L 151.694618 51.366093 
L 151.957179 49.942713 
L 152.351021 46.319583 
L 152.919903 38.686254 
L 154.407749 17.486659 
L 154.626549 16.80902 
L 154.75783 17.230979 
L 154.976631 19.081942 
L 155.457993 25.884594 
L 155.917474 32.58 
M 155.917474 32.58 
L 155.917474 32.157579 
L 163.356703 32.58 
L 163.356703 32.58 
" clip-path="url(#p69de6f76c4)" style="fill: none; stroke: #ef553b; stroke-width: 0.5; stroke-linecap: square"/>
   </g>
   <g id="line2d_4">
    <path d="M 0 32.58 
L 0.525122 21.648665 
L 9.277155 21.648665 
L 9.802277 32.58 
M 9.802277 32.58 
L 11.377643 64.76666 
L 11.377643 64.76666 
L 12.953009 32.58 
M 155.917474 32.58 
L 157.44908 0.190892 
L 161.825097 0.190892 
L 163.356703 32.58 
" clip-path="url(#p69de6f76c4)" style="fill: none; stroke: #00cc96; stroke-width: 0.5; stroke-linecap: square"/>
   </g>
   <g id="line2d_5">
    <path d="M 0.52731 32.58 
L 0.63671 32.55691 
L 1.069936 32.446428 
L 1.179336 32.409532 
L 1.490034 32.29857 
L 1.599434 32.257062 
L 2.540278 32.365564 
L 2.649678 32.493301 
L 2.837847 32.383987 
L 2.947247 32.160071 
L 2.999759 32.054109 
L 3.10916 31.777884 
L 3.15292 31.674136 
L 3.26232 31.352573 
L 3.301705 31.247543 
L 3.411105 30.88884 
L 3.446113 30.788234 
L 3.555514 30.402614 
L 3.590522 30.296191 
L 3.699922 29.894873 
L 3.73493 29.785909 
L 3.844331 29.381844 
L 3.879339 29.274004 
L 3.988739 28.88127 
L 4.023747 28.77843 
L 4.133148 28.411529 
L 4.172532 28.304348 
L 4.281932 27.978866 
L 4.325692 27.875383 
L 4.435093 27.606939 
L 4.491981 27.499717 
L 4.601382 27.30713 
L 4.693278 27.198467 
L 4.802678 27.111557 
L 5.139632 27.222293 
L 5.249032 27.381749 
L 5.314672 27.491287 
L 5.424073 27.735245 
L 5.472209 27.842039 
L 5.581609 28.149519 
L 5.620993 28.251916 
L 5.730394 28.60587 
L 5.765402 28.705921 
L 5.874802 29.090938 
L 5.909811 29.197414 
L 6.019211 29.599025 
L 6.054219 29.70802 
L 6.163619 30.111908 
L 6.198628 30.219658 
L 6.308028 30.612387 
L 6.343036 30.715457 
L 6.452437 31.085116 
L 6.491821 31.194033 
L 6.601221 31.529631 
L 6.644981 31.63866 
L 6.754382 31.93105 
L 6.802518 32.034136 
L 6.911918 32.276719 
L 6.973183 32.383987 
L 7.082583 32.570382 
L 7.183231 32.460711 
L 7.292632 32.340952 
L 7.450168 32.231126 
L 7.559569 32.183386 
L 8.307868 32.293696 
L 8.417268 32.336058 
L 8.741093 32.446428 
L 8.850494 32.480001 
L 9.274967 32.57868 
L 9.274967 32.58 
" clip-path="url(#p69de6f76c4)" style="fill: none; stroke: #ab63fa; stroke-width: 0.5; stroke-linecap: square"/>
   </g>
   <g id="legend_1">
    <g id="PathCollection_3">
     <g>
      <use xlink:href="#m120e007132" x="9.8" y="9.5725" style="stroke: #000000; stroke-width: 0.1"/>
     </g>
    </g>
    <g id="text_1">
     <!-- $Stitching \ trigger$ -->
     <g transform="translate(16.8 11.41) scale(0.07 -0.07)">
      <defs>
       <path id="ArialMT-53" d="M 288 1472 
L 859 1522 
Q 900 1178 1048 958 
Q 1197 738 1509 602 
Q 1822 466 2213 466 
Q 2559 466 2825 569 
Q 3091 672 3220 851 
Q 3350 1031 3350 1244 
Q 3350 1459 3225 1620 
Q 3100 1781 2813 1891 
Q 2628 1963 1997 2114 
Q 1366 2266 1113 2400 
Q 784 2572 623 2826 
Q 463 3081 463 3397 
Q 463 3744 659 4045 
Q 856 4347 1234 4503 
Q 1613 4659 2075 4659 
Q 2584 4659 2973 4495 
Q 3363 4331 3572 4012 
Q 3781 3694 3797 3291 
L 3216 3247 
Q 3169 3681 2898 3903 
Q 2628 4125 2100 4125 
Q 1550 4125 1298 3923 
Q 1047 3722 1047 3438 
Q 1047 3191 1225 3031 
Q 1400 2872 2139 2705 
Q 2878 2538 3153 2413 
Q 3553 2228 3743 1945 
Q 3934 1663 3934 1294 
Q 3934 928 3725 604 
Q 3516 281 3123 101 
Q 2731 -78 2241 -78 
Q 1619 -78 1198 103 
Q 778 284 539 648 
Q 300 1013 288 1472 
z
" transform="scale(0.015625)"/>
       <path id="ArialMT-74" d="M 1650 503 
L 1731 6 
Q 1494 -44 1306 -44 
Q 1000 -44 831 53 
Q 663 150 594 308 
Q 525 466 525 972 
L 525 2881 
L 113 2881 
L 113 3319 
L 525 3319 
L 525 4141 
L 1084 4478 
L 1084 3319 
L 1650 3319 
L 1650 2881 
L 1084 2881 
L 1084 941 
Q 1084 700 1114 631 
Q 1144 563 1211 522 
Q 1278 481 1403 481 
Q 1497 481 1650 503 
z
" transform="scale(0.015625)"/>
       <path id="ArialMT-69" d="M 425 3934 
L 425 4581 
L 988 4581 
L 988 3934 
L 425 3934 
z
M 425 0 
L 425 3319 
L 988 3319 
L 988 0 
L 425 0 
z
" transform="scale(0.015625)"/>
       <path id="ArialMT-63" d="M 2588 1216 
L 3141 1144 
Q 3050 572 2676 248 
Q 2303 -75 1759 -75 
Q 1078 -75 664 370 
Q 250 816 250 1647 
Q 250 2184 428 2587 
Q 606 2991 970 3192 
Q 1334 3394 1763 3394 
Q 2303 3394 2647 3120 
Q 2991 2847 3088 2344 
L 2541 2259 
Q 2463 2594 2264 2762 
Q 2066 2931 1784 2931 
Q 1359 2931 1093 2626 
Q 828 2322 828 1663 
Q 828 994 1084 691 
Q 1341 388 1753 388 
Q 2084 388 2306 591 
Q 2528 794 2588 1216 
z
" transform="scale(0.015625)"/>
       <path id="ArialMT-68" d="M 422 0 
L 422 4581 
L 984 4581 
L 984 2938 
Q 1378 3394 1978 3394 
Q 2347 3394 2619 3248 
Q 2891 3103 3008 2847 
Q 3125 2591 3125 2103 
L 3125 0 
L 2563 0 
L 2563 2103 
Q 2563 2525 2380 2717 
Q 2197 2909 1863 2909 
Q 1613 2909 1392 2779 
Q 1172 2650 1078 2428 
Q 984 2206 984 1816 
L 984 0 
L 422 0 
z
" transform="scale(0.015625)"/>
       <path id="ArialMT-6e" d="M 422 0 
L 422 3319 
L 928 3319 
L 928 2847 
Q 1294 3394 1984 3394 
Q 2284 3394 2536 3286 
Q 2788 3178 2913 3003 
Q 3038 2828 3088 2588 
Q 3119 2431 3119 2041 
L 3119 0 
L 2556 0 
L 2556 2019 
Q 2556 2363 2490 2533 
Q 2425 2703 2258 2804 
Q 2091 2906 1866 2906 
Q 1506 2906 1245 2678 
Q 984 2450 984 1813 
L 984 0 
L 422 0 
z
" transform="scale(0.015625)"/>
       <path id="ArialMT-67" d="M 319 -275 
L 866 -356 
Q 900 -609 1056 -725 
Q 1266 -881 1628 -881 
Q 2019 -881 2231 -725 
Q 2444 -569 2519 -288 
Q 2563 -116 2559 434 
Q 2191 0 1641 0 
Q 956 0 581 494 
Q 206 988 206 1678 
Q 206 2153 378 2554 
Q 550 2956 876 3175 
Q 1203 3394 1644 3394 
Q 2231 3394 2613 2919 
L 2613 3319 
L 3131 3319 
L 3131 450 
Q 3131 -325 2973 -648 
Q 2816 -972 2473 -1159 
Q 2131 -1347 1631 -1347 
Q 1038 -1347 672 -1080 
Q 306 -813 319 -275 
z
M 784 1719 
Q 784 1066 1043 766 
Q 1303 466 1694 466 
Q 2081 466 2343 764 
Q 2606 1063 2606 1700 
Q 2606 2309 2336 2618 
Q 2066 2928 1684 2928 
Q 1309 2928 1046 2623 
Q 784 2319 784 1719 
z
" transform="scale(0.015625)"/>
       <path id="ArialMT-72" d="M 416 0 
L 416 3319 
L 922 3319 
L 922 2816 
Q 1116 3169 1280 3281 
Q 1444 3394 1641 3394 
Q 1925 3394 2219 3213 
L 2025 2691 
Q 1819 2813 1613 2813 
Q 1428 2813 1281 2702 
Q 1134 2591 1072 2394 
Q 978 2094 978 1738 
L 978 0 
L 416 0 
z
" transform="scale(0.015625)"/>
       <path id="ArialMT-65" d="M 2694 1069 
L 3275 997 
Q 3138 488 2766 206 
Q 2394 -75 1816 -75 
Q 1088 -75 661 373 
Q 234 822 234 1631 
Q 234 2469 665 2931 
Q 1097 3394 1784 3394 
Q 2450 3394 2872 2941 
Q 3294 2488 3294 1666 
Q 3294 1616 3291 1516 
L 816 1516 
Q 847 969 1125 678 
Q 1403 388 1819 388 
Q 2128 388 2347 550 
Q 2566 713 2694 1069 
z
M 847 1978 
L 2700 1978 
Q 2663 2397 2488 2606 
Q 2219 2931 1791 2931 
Q 1403 2931 1139 2672 
Q 875 2413 847 1978 
z
" transform="scale(0.015625)"/>
      </defs>
      <use xlink:href="#ArialMT-53" transform="translate(0 0.203125)"/>
      <use xlink:href="#ArialMT-74" transform="translate(66.699219 0.203125)"/>
      <use xlink:href="#ArialMT-69" transform="translate(94.482422 0.203125)"/>
      <use xlink:href="#ArialMT-74" transform="translate(116.699219 0.203125)"/>
      <use xlink:href="#ArialMT-63" transform="translate(144.482422 0.203125)"/>
      <use xlink:href="#ArialMT-68" transform="translate(194.482422 0.203125)"/>
      <use xlink:href="#ArialMT-69" transform="translate(250.097656 0.203125)"/>
      <use xlink:href="#ArialMT-6e" transform="translate(272.314453 0.203125)"/>
      <use xlink:href="#ArialMT-67" transform="translate(327.929688 0.203125)"/>
      <use xlink:href="#ArialMT-74" transform="translate(416.0153 0.203125)"/>
      <use xlink:href="#ArialMT-72" transform="translate(443.798503 0.203125)"/>
      <use xlink:href="#ArialMT-69" transform="translate(477.099285 0.203125)"/>
      <use xlink:href="#ArialMT-67" transform="translate(499.316082 0.203125)"/>
      <use xlink:href="#ArialMT-67" transform="translate(554.931316 0.203125)"/>
      <use xlink:href="#ArialMT-65" transform="translate(610.54655 0.203125)"/>
      <use xlink:href="#ArialMT-72" transform="translate(666.161785 0.203125)"/>
     </g>
    </g>
    <g id="PathCollection_4">
     <g>
      <use xlink:href="#m331cc7b7a7" x="76.3" y="9.5725" style="stroke: #000000; stroke-width: 0.1"/>
     </g>
    </g>
    <g id="text_2">
     <!-- $Standard \ trigger$ -->
     <g transform="translate(83.3 11.41) scale(0.07 -0.07)">
      <defs>
       <path id="ArialMT-61" d="M 2588 409 
Q 2275 144 1986 34 
Q 1697 -75 1366 -75 
Q 819 -75 525 192 
Q 231 459 231 875 
Q 231 1119 342 1320 
Q 453 1522 633 1644 
Q 813 1766 1038 1828 
Q 1203 1872 1538 1913 
Q 2219 1994 2541 2106 
Q 2544 2222 2544 2253 
Q 2544 2597 2384 2738 
Q 2169 2928 1744 2928 
Q 1347 2928 1158 2789 
Q 969 2650 878 2297 
L 328 2372 
Q 403 2725 575 2942 
Q 747 3159 1072 3276 
Q 1397 3394 1825 3394 
Q 2250 3394 2515 3294 
Q 2781 3194 2906 3042 
Q 3031 2891 3081 2659 
Q 3109 2516 3109 2141 
L 3109 1391 
Q 3109 606 3145 398 
Q 3181 191 3288 0 
L 2700 0 
Q 2613 175 2588 409 
z
M 2541 1666 
Q 2234 1541 1622 1453 
Q 1275 1403 1131 1340 
Q 988 1278 909 1158 
Q 831 1038 831 891 
Q 831 666 1001 516 
Q 1172 366 1500 366 
Q 1825 366 2078 508 
Q 2331 650 2450 897 
Q 2541 1088 2541 1459 
L 2541 1666 
z
" transform="scale(0.015625)"/>
       <path id="ArialMT-64" d="M 2575 0 
L 2575 419 
Q 2259 -75 1647 -75 
Q 1250 -75 917 144 
Q 584 363 401 755 
Q 219 1147 219 1656 
Q 219 2153 384 2558 
Q 550 2963 881 3178 
Q 1213 3394 1622 3394 
Q 1922 3394 2156 3267 
Q 2391 3141 2538 2938 
L 2538 4581 
L 3097 4581 
L 3097 0 
L 2575 0 
z
M 797 1656 
Q 797 1019 1065 703 
Q 1334 388 1700 388 
Q 2069 388 2326 689 
Q 2584 991 2584 1609 
Q 2584 2291 2321 2609 
Q 2059 2928 1675 2928 
Q 1300 2928 1048 2622 
Q 797 2316 797 1656 
z
" transform="scale(0.015625)"/>
      </defs>
      <use xlink:href="#ArialMT-53" transform="translate(0 0.203125)"/>
      <use xlink:href="#ArialMT-74" transform="translate(66.699219 0.203125)"/>
      <use xlink:href="#ArialMT-61" transform="translate(94.482422 0.203125)"/>
      <use xlink:href="#ArialMT-6e" transform="translate(150.097656 0.203125)"/>
      <use xlink:href="#ArialMT-64" transform="translate(205.712891 0.203125)"/>
      <use xlink:href="#ArialMT-61" transform="translate(261.328125 0.203125)"/>
      <use xlink:href="#ArialMT-72" transform="translate(316.943359 0.203125)"/>
      <use xlink:href="#ArialMT-64" transform="translate(350.244141 0.203125)"/>
      <use xlink:href="#ArialMT-74" transform="translate(438.329753 0.203125)"/>
      <use xlink:href="#ArialMT-72" transform="translate(466.112957 0.203125)"/>
      <use xlink:href="#ArialMT-69" transform="translate(499.413738 0.203125)"/>
      <use xlink:href="#ArialMT-67" transform="translate(521.630535 0.203125)"/>
      <use xlink:href="#ArialMT-67" transform="translate(577.245769 0.203125)"/>
      <use xlink:href="#ArialMT-65" transform="translate(632.861003 0.203125)"/>
      <use xlink:href="#ArialMT-72" transform="translate(688.476238 0.203125)"/>
     </g>
    </g>
   </g>
  </g>
 </g>
 <defs>
  <clipPath id="p69de6f76c4">
   <rect x="0" y="0" width="163.356703" height="65.16"/>
  </clipPath>
 </defs>
</svg>
