<?xml version="1.0" encoding="utf-8" standalone="no"?>
<!DOCTYPE svg PUBLIC "-//W3C//DTD SVG 1.1//EN"
  "http://www.w3.org/Graphics/SVG/1.1/DTD/svg11.dtd">
<svg xmlns:xlink="http://www.w3.org/1999/xlink" width="99.212598pt" height="51.023622pt" viewBox="0 0 99.212598 51.023622" xmlns="http://www.w3.org/2000/svg" version="1.1">
 <metadata>
  <rdf:RDF xmlns:dc="http://purl.org/dc/elements/1.1/" xmlns:cc="http://creativecommons.org/ns#" xmlns:rdf="http://www.w3.org/1999/02/22-rdf-syntax-ns#">
   <cc:Work>
    <dc:type rdf:resource="http://purl.org/dc/dcmitype/StillImage"/>
    <dc:date>2024-10-30T10:51:14.497241</dc:date>
    <dc:format>image/svg+xml</dc:format>
    <dc:creator>
     <cc:Agent>
      <dc:title>Matplotlib v3.8.4, https://matplotlib.org/</dc:title>
     </cc:Agent>
    </dc:creator>
   </cc:Work>
  </rdf:RDF>
 </metadata>
 <defs>
  <style type="text/css">*{stroke-linejoin: round; stroke-linecap: butt}</style>
 </defs>
 <g id="figure_1">
  <g id="patch_1">
   <path d="M 0 51.023622 
L 99.212598 51.023622 
L 99.212598 0 
L 0 0 
L 0 51.023622 
z
" style="fill: none"/>
  </g>
  <g id="axes_1">
   <g id="patch_2">
    <path d="M 0 51.023622 
L 99.212598 51.023622 
L 99.212598 -0 
L 0 -0 
L 0 51.023622 
z
" style="fill: none"/>
   </g>
   <g id="matplotlib.axis_1">
    <g id="xtick_1"/>
    <g id="xtick_2"/>
   </g>
   <g id="matplotlib.axis_2">
    <g id="ytick_1"/>
    <g id="ytick_2"/>
   </g>
   <g id="line2d_1">
    <path d="M 4.509664 28.997866 
L 4.677615 47.710814 
L 4.680726 47.561705 
L 4.839347 13.432663 
L 4.886 19.825783 
L 5.072613 37.002471 
L 5.134818 41.239742 
L 5.181471 37.252528 
L 5.206353 35.67441 
L 5.262337 41.247053 
L 5.290329 43.077282 
L 5.343203 38.083028 
L 5.355643 37.529112 
L 5.402297 42.942486 
L 5.417848 45.47371 
L 5.473832 35.698448 
L 5.480052 35.794387 
L 5.526706 44.893537 
L 5.651114 42.48529 
L 5.850168 2.319256 
L 5.72576 43.16965 
L 5.893711 3.885257 
L 5.946585 14.009697 
L 6.036782 44.248592 
L 6.114537 37.715755 
L 6.257607 46.523973 
L 6.266938 46.679634 
L 6.279379 45.558227 
L 6.304261 44.022638 
L 6.378906 46.770211 
L 6.397567 47.728738 
L 6.481543 46.459798 
L 6.484653 46.360137 
L 6.537527 48.049842 
L 6.549968 47.711166 
L 6.590401 48.089214 
L 6.57485 47.474655 
L 6.602842 47.577986 
L 6.733471 40.744072 
L 6.764573 42.273216 
L 6.801896 45.299048 
L 6.845439 39.920651 
L 6.854769 39.216707 
L 6.916974 42.982122 
L 6.979178 47.847401 
L 7.084926 47.836127 
L 7.103587 48.169772 
L 7.119138 47.348045 
L 7.215555 44.724603 
L 7.172012 48.589347 
L 7.246657 45.808234 
L 7.271539 48.519802 
L 7.305751 43.791599 
L 7.43016 37.567003 
L 7.464373 38.910296 
L 7.635435 48.480254 
L 7.657206 45.038477 
L 7.678978 43.972997 
L 7.744292 47.335359 
L 7.766064 48.618533 
L 7.831379 46.851035 
L 7.85626 47.97183 
L 7.921575 46.17214 
L 7.896693 48.150158 
L 7.968228 47.268367 
L 7.983779 48.202321 
L 8.045984 46.264229 
L 8.089527 48.198775 
L 8.092637 48.222808 
L 8.111298 47.528662 
L 8.123739 47.490883 
L 8.142401 47.764336 
L 8.157952 48.232698 
L 8.226377 47.357247 
L 8.360116 41.376255 
L 8.291691 47.755723 
L 8.41921 41.416692 
L 8.428541 41.339337 
L 8.453423 42.45159 
L 8.475194 43.416183 
L 8.55917 42.13084 
L 8.587162 41.265447 
L 8.655587 43.426395 
L 8.776885 48.327519 
L 8.817318 46.543694 
L 8.83598 46.190033 
L 8.857751 47.979076 
L 8.913735 46.865545 
L 8.935507 48.252476 
L 9.010152 46.779237 
L 9.025703 46.961011 
L 9.100348 44.438416 
L 9.072356 47.438317 
L 9.134561 46.7189 
L 9.159443 47.889346 
L 9.190545 45.051798 
L 9.227867 45.409335 
L 9.255859 46.01506 
L 9.25897 46.201902 
L 9.324284 43.797345 
L 9.380268 42.031198 
L 9.417591 44.332996 
L 9.489126 42.757687 
L 9.560661 47.603537 
L 9.619755 48.510386 
L 9.591763 47.048767 
L 9.706841 48.055599 
L 9.747274 46.945647 
L 9.790817 48.258093 
L 9.818809 47.988433 
L 9.902785 47.570684 
L 9.865462 48.591924 
L 9.918336 48.006432 
L 10.030304 48.529766 
L 9.958769 47.490757 
L 10.036525 48.471791 
L 10.263571 45.439125 
L 10.285342 46.474061 
L 10.297783 46.903634 
L 10.319555 45.341687 
L 10.39731 42.28281 
L 10.450184 43.297528 
L 10.459515 43.409602 
L 10.468845 43.154044 
L 10.580813 42.192722 
L 10.506168 44.269889 
L 10.596364 42.636391 
L 10.695891 45.804323 
L 10.739434 45.189442 
L 10.751875 45.044152 
L 10.773647 46.169262 
L 10.807859 48.459742 
L 10.891835 47.190825 
L 10.894945 47.190296 
L 10.985142 46.288827 
L 10.95404 47.844575 
L 11.003803 46.94639 
L 11.022464 48.519568 
L 11.115771 47.039279 
L 11.221518 45.665763 
L 11.153094 48.547348 
L 11.24018 46.223918 
L 11.261951 48.39816 
L 11.314825 45.356542 
L 11.352148 46.421415 
L 11.358368 46.351291 
L 11.398801 47.727307 
L 11.417462 48.216318 
L 11.457895 45.349944 
L 11.52632 41.405061 
L 11.576084 44.395984 
L 11.653839 48.543911 
L 11.712933 46.488163 
L 11.716043 46.463827 
L 11.737815 47.097882 
L 11.765807 48.375828 
L 11.796909 46.853131 
L 11.843562 47.059444 
L 11.856003 46.725918 
L 11.905767 48.140528 
L 11.943089 47.480473 
L 12.030176 48.429545 
L 12.051947 47.422257 
L 12.067498 46.993018 
L 12.132813 48.136314 
L 12.167025 47.210129 
L 12.213679 48.314752 
L 12.195017 47.026268 
L 12.288324 47.824805 
L 12.359859 46.764522 
L 12.37852 47.949993 
L 12.453166 48.587857 
L 12.481158 47.691916 
L 12.487378 47.78086 
L 12.51848 48.04851 
L 12.506039 47.645727 
L 12.530921 47.77028 
L 12.664661 43.739853 
L 12.670881 43.859517 
L 12.888596 48.359723 
L 12.894817 48.124746 
L 12.997454 44.154519 
L 13.022336 46.179453 
L 13.146745 48.596977 
L 13.07832 46.144785 
L 13.156075 48.520222 
L 13.21828 47.264189 
L 13.274264 47.923591 
L 13.342689 48.610899 
L 13.280484 47.900265 
L 13.426664 48.547744 
L 13.50131 47.364196 
L 13.551073 47.750169 
L 13.663041 48.513913 
L 13.594616 47.141574 
L 13.675482 48.223306 
L 13.815442 46.997456 
L 13.734576 48.620268 
L 13.834103 47.457459 
L 13.846544 48.120874 
L 13.877646 45.245465 
L 13.949181 41.987013 
L 13.998945 44.171292 
L 14.120244 48.323691 
L 14.157566 46.819307 
L 14.188668 45.968089 
L 14.253983 47.692266 
L 14.3504 48.530632 
L 14.300636 46.766466 
L 14.362841 47.710175 
L 14.421935 48.520735 
L 14.487249 47.141093 
L 14.524572 48.473132 
L 14.614769 47.349853 
L 14.620989 47.12893 
L 14.645871 48.533155 
L 14.708075 47.77944 
L 14.723626 48.45917 
L 14.823153 47.954871 
L 14.835594 48.254969 
L 14.860476 47.392993 
L 14.928901 47.76451 
L 14.935121 47.75473 
L 14.941342 48.045792 
L 14.997326 48.5424 
L 15.019097 47.494274 
L 15.143506 46.001338 
L 15.047089 47.873578 
L 15.155947 46.238662 
L 15.274135 47.781226 
L 15.2026 46.232193 
L 15.286576 47.487703 
L 15.330119 46.623619 
L 15.373662 47.586411 
L 15.392324 47.531966 
L 15.410985 48.116966 
L 15.429646 47.073431 
L 15.504291 47.555437 
L 15.529173 48.161862 
L 15.541614 47.213249 
L 15.560275 45.72839 
L 15.638031 48.209618 
L 15.647362 47.847582 
L 15.669133 47.003507 
L 15.737558 48.412189 
L 15.77177 47.671241 
L 15.849526 48.604398 
L 15.855746 48.690196 
L 15.998816 47.513991 
L 16.098343 48.185335 
L 16.064131 47.284893 
L 16.113895 47.850369 
L 16.126335 47.547521 
L 16.144997 48.587665 
L 16.213422 48.577373 
L 16.303618 47.920075 
L 16.260075 48.658207 
L 16.32539 48.477192 
L 16.3285 48.581126 
L 16.396925 47.490896 
L 16.400035 47.522134 
L 16.46846 48.310457 
L 16.561766 44.644516 
L 16.574207 44.722948 
L 16.592868 44.467705 
L 16.633301 42.753442 
L 16.667514 45.936657 
L 16.717277 48.149503 
L 16.801253 47.955151 
L 16.804363 47.969161 
L 16.823025 47.594733 
L 16.90078 46.806141 
L 16.925662 47.93679 
L 17.025189 48.624951 
L 16.997197 46.67827 
L 17.03452 48.066676 
L 17.118496 47.62754 
L 17.074953 48.555547 
L 17.143377 48.030667 
L 17.236684 48.299121 
L 17.211802 47.812314 
L 17.258456 48.274524 
L 17.264676 48.37776 
L 17.267786 48.222339 
L 17.292668 47.609319 
L 17.376644 48.275565 
L 17.423297 47.668596 
L 17.46684 48.502534 
L 17.469951 48.692667 
L 17.510383 47.139622 
L 17.560147 47.660012 
L 17.625462 46.499179 
L 17.591249 47.895428 
L 17.665894 47.854927 
L 17.690776 47.283507 
L 17.74054 48.142901 
L 17.756091 48.592061 
L 17.824516 47.361189 
L 17.874279 45.668523 
L 17.920932 47.907143 
L 17.927153 48.346568 
L 17.958255 47.063876 
L 18.020459 47.19198 
L 18.042231 46.808157 
L 18.110656 47.81997 
L 18.113766 47.755736 
L 18.144868 47.993808 
L 18.16975 47.153951 
L 18.281718 46.443645 
L 18.259946 47.508922 
L 18.287938 46.532646 
L 18.415457 48.09731 
L 18.431009 47.942433 
L 18.437229 47.868111 
L 18.45278 48.619141 
L 18.533646 48.032306 
L 18.539866 48.290709 
L 18.630063 47.791357 
L 18.639393 47.876468 
L 18.679826 47.609487 
L 18.707818 48.408684 
L 18.742031 48.070578 
L 18.844668 48.62659 
L 18.863329 48.202667 
L 18.87888 47.676248 
L 18.909982 48.429266 
L 18.959746 48.418771 
L 18.965966 48.663398 
L 19.056163 47.918536 
L 19.059273 47.963168 
L 19.149469 47.453332 
L 19.077934 48.667529 
L 19.16502 47.946957 
L 19.205453 48.612119 
L 19.252107 47.205634 
L 19.258327 47.320013 
L 19.30187 48.491807 
L 19.398287 47.914385 
L 19.488483 44.285415 
L 19.541357 45.412996 
L 19.544467 45.367609 
L 19.572459 46.56014 
L 19.606672 48.480555 
L 19.706199 47.760734 
L 19.734191 47.234198 
L 19.774624 48.365364 
L 19.821277 47.483809 
L 19.852379 47.955735 
L 19.917694 48.307288 
L 19.877261 47.35941 
L 19.964347 48.010749 
L 19.976788 48.680499 
L 20.011 47.692813 
L 20.082535 48.264011 
L 20.104307 48.686293 
L 20.15096 47.813701 
L 20.172732 47.890127 
L 20.175842 47.86088 
L 20.191393 48.511312 
L 20.222495 48.470521 
L 20.225605 48.545354 
L 20.247377 48.022746 
L 20.328243 48.363592 
L 20.415329 48.65648 
L 20.387337 48.317702 
L 20.43399 48.438844 
L 20.514856 48.073688 
L 20.542848 48.553294 
L 20.545958 48.610227 
L 20.611273 47.89424 
L 20.692138 47.639018 
L 20.642375 48.688887 
L 20.70769 48.128293 
L 20.71702 48.464536 
L 20.800996 47.228572 
L 20.813437 46.819252 
L 20.835209 46.311834 
L 20.881862 48.66569 
L 20.912964 47.44228 
L 20.99383 48.375769 
L 21.028042 48.058417 
L 21.168002 47.190227 
L 21.096467 48.26853 
L 21.171112 47.284664 
L 21.239537 47.622567 
L 21.258199 47.04911 
L 21.261309 47.009766 
L 21.28308 48.034158 
L 21.382607 48.594114 
L 21.311072 46.853882 
L 21.395048 48.105849 
L 21.438591 48.576043 
L 21.41682 47.71459 
L 21.454142 47.91331 
L 21.531898 47.433096 
L 21.485245 48.41603 
L 21.56611 47.811723 
L 21.581661 47.572032 
L 21.643866 48.166768 
L 21.646976 48.155401 
L 21.724732 48.608996 
L 21.671858 47.927953 
L 21.752724 48.086512 
L 21.758944 47.92926 
L 21.821148 48.659947 
L 21.852251 48.318936 
L 21.908235 48.624197 
L 21.874022 47.963585 
L 21.951778 48.215936 
L 21.98288 47.516553 
L 22.048194 48.381016 
L 22.054415 48.612039 
L 22.110399 47.52969 
L 22.163273 47.432723 
L 22.12906 47.959867 
L 22.175713 47.872457 
L 22.216146 48.454328 
L 22.197485 47.546843 
L 22.284571 47.752122 
L 22.390319 47.019429 
L 22.321894 48.480477 
L 22.399649 47.506214 
L 22.436972 48.411798 
L 22.502287 47.31411 
L 22.611144 46.073478 
L 22.642246 46.19516 
L 22.83819 48.530908 
L 22.866182 47.914025 
L 22.909725 48.464403 
L 22.962599 48.663663 
L 22.934607 48.141919 
L 23.024804 48.63314 
L 23.031024 48.650383 
L 23.043465 48.355063 
L 23.068347 48.67612 
L 23.158543 47.9995 
L 23.211417 48.583638 
L 23.164763 47.985859 
L 23.286062 48.350253 
L 23.332715 48.675248 
L 23.320274 48.215797 
L 23.363818 48.320513 
L 23.466455 48.001855 
L 23.422912 48.471785 
L 23.475785 48.160683 
L 23.553541 48.619596 
L 23.600194 48.521856 
L 23.67795 48.163266 
L 23.705942 48.589259 
L 23.712162 48.447631 
L 23.715272 48.470258 
L 23.768146 48.082829 
L 23.777477 48.14325 
L 23.833461 47.705913 
L 23.861453 48.568973 
L 23.880114 48.223375 
L 23.979641 48.505346 
L 23.936098 47.645217 
L 23.992082 48.285705 
L 24.069837 47.175885 
L 24.10405 48.203569 
L 24.212908 48.400312 
L 24.135152 47.448846 
L 24.216018 48.334941 
L 24.318655 47.52639 
L 24.275112 48.667544 
L 24.352867 47.854969 
L 24.421292 48.53883 
L 24.471056 48.119187 
L 24.545701 47.762149 
L 24.502158 48.6556 
L 24.579914 48.136531 
L 24.598575 47.895257 
L 24.623457 48.52014 
L 24.704322 47.967893 
L 24.716763 48.355809 
L 24.754086 47.478982 
L 24.760306 47.2694 
L 24.825621 48.564893 
L 24.844282 48.312255 
L 24.875384 48.654796 
L 24.894046 47.91699 
L 24.95003 48.238269 
L 25.012234 47.876667 
L 25.037116 48.500265 
L 25.052667 48.395772 
L 25.121092 48.100877 
L 25.08999 48.436721 
L 25.145974 48.385564 
L 25.23928 48.643724 
L 25.217509 48.147662 
L 25.254831 48.397223 
L 25.273493 47.833297 
L 25.348138 48.474203 
L 25.366799 48.319867 
L 25.369909 48.323748 
L 25.37924 48.210502 
L 25.475657 47.619208 
L 25.416563 48.229066 
L 25.494318 47.947639 
L 25.621837 48.639959 
L 25.572074 47.564293 
L 25.628058 48.506929 
L 25.680931 47.317988 
L 25.749356 47.93571 
L 25.764907 48.576495 
L 25.80845 46.612839 
L 25.842663 46.979951 
L 25.892426 46.954853 
L 25.870655 47.394962 
L 25.907978 47.383358 
L 25.960851 47.647063 
L 25.929749 47.188271 
L 25.970182 47.454231 
L 25.985733 47.094465 
L 26.023056 48.650979 
L 26.066599 48.266929 
L 26.072819 48.214476 
L 26.119472 46.882004 
L 26.175456 48.646799 
L 26.178567 48.648199 
L 26.181677 48.601495 
L 26.281204 47.743491 
L 26.306086 48.070771 
L 26.427384 48.684034 
L 26.36829 48.06572 
L 26.439825 48.601959 
L 26.536242 47.776604 
L 26.554903 48.45386 
L 26.595336 48.678163 
L 26.64821 48.090395 
L 26.65132 48.153951 
L 26.669981 47.78691 
L 26.691753 48.655561 
L 26.753957 48.37282 
L 26.819272 48.666381 
L 26.853484 48.061859 
L 26.859705 48.115117 
L 26.862815 48.100405 
L 26.881476 48.520934 
L 26.884587 48.66604 
L 26.93124 48.11075 
L 26.990334 48.50694 
L 27.018326 47.91261 
L 27.036987 48.610491 
L 27.111633 48.066505 
L 27.114743 48.050411 
L 27.139625 48.340799 
L 27.148955 48.664966 
L 27.232931 48.023098 
L 27.245372 48.199145 
L 27.329348 47.477823 
L 27.36045 47.986063 
L 27.372891 48.520295 
L 27.463088 47.78791 
L 27.466198 47.830679 
L 27.4973 47.425746 
L 27.525292 48.205811 
L 27.562615 47.938746 
L 27.587496 48.434216 
L 27.612378 47.310875 
L 27.652811 47.4126 
L 27.655921 47.398145 
L 27.671472 47.770058 
L 27.705685 48.514095 
L 27.77411 47.546589 
L 27.820763 48.102321 
L 27.78655 47.249524 
L 27.854975 47.438373 
L 27.882967 46.763109 
L 27.91718 47.878375 
L 27.935841 48.679423 
L 27.988715 47.682701 
L 28.035368 48.219389 
L 28.138005 47.605806 
L 28.119344 48.538016 
L 28.153556 47.86912 
L 28.156667 47.834031 
L 28.193989 48.637436 
L 28.20954 48.300011 
L 28.305957 48.677125 
L 28.231312 48.178875 
L 28.321508 48.40938 
L 28.374382 48.113687 
L 28.402374 48.658073 
L 28.427256 48.567952 
L 28.433476 48.554337 
L 28.439697 48.266994 
L 28.464578 48.703196 
L 28.542334 48.591477 
L 28.679184 48.232212 
L 28.554775 48.684306 
L 28.682294 48.31713 
L 28.719616 48.584916 
L 28.744498 48.221653 
L 28.797372 48.520964 
L 28.822254 47.774602 
L 28.850246 48.579031 
L 28.91245 48.2698 
L 28.996426 48.036092 
L 28.968434 48.628087 
L 29.008867 48.335271 
L 29.011977 48.514485 
L 29.105284 47.770757 
L 29.108394 47.773577 
L 29.111504 47.772848 
L 29.114614 47.787815 
L 29.186149 48.397819 
L 29.229693 48.058097 
L 29.232803 48.057092 
L 29.257685 48.535309 
L 29.32922 47.617576 
L 29.357212 47.305945 
L 29.378983 47.811872 
L 29.431857 47.756593 
L 29.450518 47.562165 
L 29.459849 47.320712 
L 29.490951 48.373805 
L 29.550045 47.725217 
L 29.61536 48.511739 
L 29.584258 47.398038 
L 29.658903 47.679983 
L 29.817524 48.683691 
L 29.826855 48.463533 
L 29.842406 47.802637 
L 29.867288 48.619896 
L 29.938823 48.366863 
L 29.945043 48.618654 
L 29.976145 48.033798 
L 30.04457 48.134455 
L 30.075672 48.469094 
L 30.119215 47.913105 
L 30.122326 47.948596 
L 30.125436 47.893803 
L 30.156538 48.609545 
L 30.203191 48.434773 
L 30.221853 48.660495 
L 30.299608 48.001955 
L 30.315159 48.50062 
L 30.405356 48.177888 
L 30.368033 48.595228 
L 30.424017 48.425784 
L 30.427127 48.625182 
L 30.492442 47.894054 
L 30.529765 48.148065 
L 30.539095 47.976591 
L 30.557757 48.270458 
L 30.582638 48.193916 
L 30.632402 48.615195 
L 30.598189 48.161638 
L 30.691496 48.356089 
L 30.766141 47.98969 
L 30.797243 48.577964 
L 30.859448 48.67571 
L 30.840787 48.237647 
L 30.874999 48.3309 
L 30.878109 48.325031 
L 30.89055 48.44984 
L 30.912322 48.656071 
L 30.965195 47.843024 
L 30.983857 48.014792 
L 31.074053 47.292497 
L 31.03362 48.3973 
L 31.089604 47.908341 
L 31.108265 48.385424 
L 31.17669 46.984594 
L 31.179801 46.879947 
L 31.245115 48.128345 
L 31.269997 47.498183 
L 31.357083 47.867516 
L 31.301099 47.305312 
L 31.378855 47.550152 
L 31.416177 47.010993 
L 31.475271 48.048385 
L 31.481492 47.893353 
L 31.497043 47.688972 
L 31.549917 48.033374 
L 31.565468 48.613441 
L 31.643223 47.63008 
L 31.658774 47.93491 
L 31.720979 48.643932 
L 31.780073 48.154217 
L 31.789404 47.92819 
L 31.848498 48.629078 
L 31.867159 48.530566 
L 31.87649 48.663956 
L 31.923143 48.12346 
L 31.979127 48.619859 
L 32.053772 47.920517 
L 32.087985 48.61821 
L 32.15641 48.663114 
L 32.137748 48.183428 
L 32.16574 48.488786 
L 32.196842 47.929509 
L 32.240386 48.588462 
L 32.274598 48.518385 
L 32.280818 48.511788 
L 32.343023 48.693265 
L 32.386566 48.259326 
L 32.498534 48.667803 
L 32.399007 47.991269 
L 32.507864 48.529356 
L 32.560738 48.072966 
L 32.594951 48.680787 
L 32.635383 48.186461 
L 32.747351 48.697936 
L 32.710029 47.849109 
L 32.766013 48.592998 
L 32.803335 47.869623 
L 32.884201 48.322123 
L 32.952626 48.075048 
L 32.896642 48.408055 
L 33.0055 48.194521 
L 33.036602 48.61457 
L 33.064594 47.665956 
L 33.077035 47.326163 
L 33.108137 48.485695 
L 33.14857 47.87071 
L 33.232546 48.613263 
L 33.201444 47.684886 
L 33.257428 47.773284 
L 33.272979 47.003194 
L 33.316522 48.503785 
L 33.356955 48.232986 
L 33.444041 48.529059 
L 33.378726 48.1249 
L 33.468922 48.331727 
L 33.58089 48.035336 
L 33.512466 48.692232 
L 33.584001 48.129552 
L 33.618213 48.519106 
L 33.630654 47.978554 
L 33.699079 48.396033 
L 33.789275 48.005845 
L 33.736401 48.697962 
L 33.811047 48.269898 
L 33.820377 48.085994 
L 33.832818 48.035975 
L 33.86392 48.555126 
L 33.901243 48.404915 
L 33.913684 48.523388 
L 33.932345 48.264351 
L 33.969668 48.170685 
L 33.99766 48.613378 
L 34.041203 48.178412 
L 34.084746 48.56221 
L 34.14073 47.910169 
L 34.14384 47.985841 
L 34.243367 48.583263 
L 34.299351 48.316665 
L 34.352225 48.138208 
L 34.330453 48.567564 
L 34.367776 48.571001 
L 34.370886 48.57595 
L 34.373997 48.505419 
L 34.42998 48.08384 
L 34.401988 48.578067 
L 34.482854 48.522856 
L 34.489075 48.56454 
L 34.532618 48.180878 
L 34.585491 47.815678 
L 34.554389 48.555718 
L 34.622814 48.544774 
L 34.625924 48.576219 
L 34.669467 47.91001 
L 34.681908 47.73253 
L 34.70368 48.346637 
L 34.775215 47.991519 
L 34.806317 48.33606 
L 34.859191 47.284621 
L 34.862301 47.473578 
L 34.868521 47.184611 
L 34.949387 48.057809 
L 34.964938 48.526872 
L 35.033363 47.815506 
L 35.058245 48.056474 
L 35.086237 47.225661 
L 35.160882 48.378056 
L 35.247968 47.527744 
L 35.26974 48.341516 
L 35.344385 48.572663 
L 35.300842 47.190841 
L 35.378598 48.225776 
L 35.391038 48.596917 
L 35.459463 47.759314 
L 35.478125 47.884376 
L 35.481235 47.832691 
L 35.530998 48.417655 
L 35.55588 48.347098 
L 35.627415 48.677641 
L 35.661628 48.119391 
L 35.761155 48.44391 
L 35.733163 47.847836 
L 35.776706 48.255454 
L 35.863792 48.139407 
L 35.801588 48.517728 
L 35.885563 48.280271 
L 35.891784 48.191757 
L 35.910445 48.557523 
L 35.950878 48.539604 
L 35.97576 48.660302 
L 36.000642 48.145909 
L 36.037964 48.38948 
L 36.11572 48.583822 
L 36.156153 48.190855 
L 36.227688 48.65808 
L 36.243239 48.093493 
L 36.271231 48.277007 
L 36.327215 48.570138 
L 36.345876 48.02291 
L 36.454734 47.568374 
L 36.417411 48.688278 
L 36.457844 47.600448 
L 36.510718 47.45512 
L 36.569812 48.169646 
L 36.579143 48.534014 
L 36.675559 48.061401 
L 36.67867 48.065446 
L 36.694221 47.694373 
L 36.715992 48.556803 
L 36.787527 48.031436 
L 36.818629 48.61221 
L 36.874613 47.71466 
L 36.896385 47.967 
L 36.989692 48.401977 
L 36.943038 47.366361 
L 37.014573 48.327589 
L 37.058116 47.207548 
L 37.092329 48.538189 
L 37.129651 48.143421 
L 37.25717 48.525648 
L 37.176305 47.935004 
L 37.260281 48.469038 
L 37.375359 48.156173 
L 37.353587 48.673116 
L 37.378469 48.196051 
L 37.39091 47.976673 
L 37.434453 48.568021 
L 37.440673 48.557693 
L 37.446894 48.684854 
L 37.493547 48.057363 
L 37.52776 48.3257 
L 37.540201 48.118496 
L 37.561972 48.637938 
L 37.565082 48.650852 
L 37.593074 48.338043 
L 37.624176 48.46934 
L 37.636617 48.202953 
L 37.705042 48.683856 
L 37.733034 48.492567 
L 37.739255 48.654269 
L 37.832561 48.064369 
L 37.841892 48.403721 
L 37.882325 48.626595 
L 37.910317 48.250656 
L 37.95386 48.526441 
L 38.068938 48.149003 
L 38.000513 48.686968 
L 38.072048 48.256354 
L 38.171575 48.050307 
L 38.146693 48.601553 
L 38.184016 48.180724 
L 38.230669 48.683182 
L 38.295984 48.305197 
L 38.351968 48.549822 
L 38.370629 48.125333 
L 38.435944 47.543163 
L 38.460826 48.530577 
L 38.463936 48.612297 
L 38.498148 47.878956 
L 38.547912 48.014395 
L 38.554132 47.788575 
L 38.634998 48.601053 
L 38.653659 48.073073 
L 38.774958 48.658053 
L 38.681651 47.853297 
L 38.778068 48.645363 
L 38.886926 47.935718 
L 38.899367 48.165358 
L 38.914918 48.569941 
L 38.94291 47.875057 
L 39.005114 48.273598 
L 39.029996 47.798955 
L 39.095311 48.362299 
L 39.113972 48.269003 
L 39.160625 47.665846 
L 39.210389 48.428364 
L 39.303695 48.683415 
L 39.22594 48.284129 
L 39.322357 48.492028 
L 39.424994 48.17857 
L 39.37212 48.650485 
L 39.431214 48.409085 
L 39.50897 48.67356 
L 39.471647 48.014919 
L 39.546292 48.561778 
L 39.614717 48.252824 
L 39.583615 48.683004 
L 39.664481 48.311473 
L 39.770228 48.461147 
L 39.695583 48.117407 
L 39.782669 48.445768 
L 39.80133 48.296484 
L 39.860425 48.667274 
L 39.885306 48.602902 
L 39.888417 48.653762 
L 39.950621 48.219245 
L 39.978613 48.381245 
L 40.059479 48.079015 
L 40.000385 48.531924 
L 40.099912 48.185423 
L 40.121683 48.566563 
L 40.199439 48.127726 
L 40.205659 48.133101 
L 40.258533 47.757759 
L 40.283415 48.359345 
L 40.326958 48.6726 
L 40.36428 47.960845 
L 40.392272 48.351392 
L 40.401603 48.526425 
L 40.448256 47.984895 
L 40.479358 48.251685 
L 40.613098 47.47611 
L 40.50424 48.558097 
L 40.616208 47.586212 
L 40.725066 48.623127 
L 40.768609 48.056629 
L 40.77794 47.930606 
L 40.815262 48.310762 
L 40.843254 48.658229 
L 40.889908 47.5858 
L 40.93034 48.523872 
L 40.980104 47.844913 
L 40.952112 48.608574 
L 41.039198 48.599655 
L 41.042308 48.606236 
L 41.048529 48.363435 
L 41.082741 47.804629 
L 41.151166 48.673982 
L 41.21026 47.866377 
L 41.275575 48.340742 
L 41.390653 47.902001 
L 41.309787 48.540953 
L 41.396873 48.11035 
L 41.446637 48.625429 
L 41.406204 48.078526 
L 41.518172 48.577208 
L 41.543054 48.343314 
L 41.617699 48.682216 
L 41.62703 48.586372 
L 41.655022 48.674543 
L 41.692344 48.083754 
L 41.695455 48.08314 
L 41.698565 48.120862 
L 41.723446 48.653106 
L 41.757659 47.960553 
L 41.810533 48.204868 
L 41.903839 48.540208 
L 41.934941 48.322731 
L 42.040689 48.192479 
L 41.981595 48.695332 
L 42.043799 48.298254 
L 42.093563 48.685823 
L 42.158877 48.397287 
L 42.174428 47.973103 
L 42.233523 48.664733 
L 42.261515 48.501885 
L 42.280176 48.678053 
L 42.33927 48.38487 
L 42.367262 48.477813 
L 42.448128 47.906854 
L 42.426356 48.504464 
L 42.466789 48.269476 
L 42.469899 48.627641 
L 42.510332 47.440487 
L 42.575647 48.316653 
L 42.687615 48.039698 
L 42.612969 48.536667 
L 42.690725 48.085237 
L 42.75915 48.664008 
L 42.715607 47.929423 
L 42.805803 48.274694 
L 42.89911 47.974946 
L 42.855567 48.37484 
L 42.914661 48.248052 
L 42.936432 48.667435 
L 43.007967 47.840297 
L 43.057731 48.678223 
L 43.147927 48.054166 
L 43.172809 47.541024 
L 43.225683 48.64699 
L 43.250565 48.462404 
L 43.287887 48.535715 
L 43.315879 47.826405 
L 43.318989 47.749537 
L 43.393635 48.609946 
L 43.399855 48.453787 
L 43.46828 48.141481 
L 43.446508 48.683779 
L 43.490051 48.455492 
L 43.499382 48.561546 
L 43.586468 48.016996 
L 43.695326 48.678501 
L 43.713987 48.416353 
L 43.794853 48.654394 
L 43.773082 48.346842 
L 43.841506 48.545245 
L 43.931703 48.130713 
L 43.860168 48.641155 
L 43.950364 48.598109 
L 43.953474 48.68731 
L 44.018789 48.340342 
L 44.049891 48.44114 
L 44.099655 48.248937 
L 44.115206 48.510446 
L 44.158749 48.44934 
L 44.186741 48.090575 
L 44.236504 48.686753 
L 44.258276 48.46428 
L 44.326701 48.634062 
L 44.342252 48.174313 
L 44.364023 48.51246 
L 44.420007 48.208203 
L 44.45422 48.687784 
L 44.469771 48.683066 
L 44.566188 47.757528 
L 44.59418 48.293402 
L 44.60351 48.605258 
L 44.684376 47.572274 
L 44.696817 47.896979 
L 44.808785 48.513963 
L 44.780793 47.79107 
L 44.839887 48.399959 
L 44.954965 47.839507 
L 44.923863 48.614846 
L 44.964296 47.879372 
L 45.001618 48.67294 
L 45.063823 47.730604 
L 45.066933 47.658068 
L 45.113586 48.446942 
L 45.147799 48.271347 
L 45.225554 48.658988 
L 45.194452 48.143904 
L 45.256656 48.220826 
L 45.269097 47.970748 
L 45.331302 48.627483 
L 45.359294 48.325029 
L 45.421498 48.689491 
L 45.381065 48.160481 
L 45.474372 48.436254 
L 45.480592 48.309542 
L 45.505474 48.608873 
L 45.58634 48.401714 
L 45.679646 48.663334 
L 45.620552 48.231385 
L 45.695197 48.447604 
L 45.748071 48.284042 
L 45.794725 48.66651 
L 45.797835 48.612337 
L 45.800945 48.675636 
L 45.881811 48.163466 
L 45.897362 48.479578 
L 45.944015 48.225468 
L 45.906692 48.694244 
L 46.01555 48.33078 
L 46.021771 48.392343 
L 46.031101 48.361893 
L 46.040432 48.164377 
L 46.096416 48.668026 
L 46.139959 48.410719 
L 46.183502 48.656996 
L 46.202163 48.340633 
L 46.255037 48.574677 
L 46.304801 47.982417 
L 46.373225 48.50343 
L 46.482083 48.630652 
L 46.444761 48.081833 
L 46.485193 48.583589 
L 46.497634 48.644708 
L 46.612712 47.887472 
L 46.640704 48.563264 
L 46.730901 48.359634 
L 46.827318 48.631062 
L 46.796215 48.070142 
L 46.842869 48.403085 
L 46.86464 47.736107 
L 46.905073 48.605143 
L 46.957947 48.015137 
L 47.0046 48.689627 
L 47.073025 48.188846 
L 47.172552 47.672599 
L 47.132119 48.470687 
L 47.184993 47.986956 
L 47.200544 48.456682 
L 47.300071 48.254963 
L 47.337394 47.69718 
L 47.368496 48.67747 
L 47.402708 48.497256 
L 47.42759 48.647276 
L 47.499125 48.201208 
L 47.514676 48.630674 
L 47.579991 48.261659 
L 47.607983 48.665201 
L 47.626644 48.474288 
L 47.657746 48.260609 
L 47.7044 48.573856 
L 47.735502 48.481241 
L 47.760384 48.448013 
L 47.85058 48.188285 
L 47.813257 48.68723 
L 47.869241 48.375372 
L 47.937666 48.61415 
L 47.909674 48.030688 
L 47.981209 48.4386 
L 48.024752 48.146048 
L 48.046524 48.643741 
L 48.080736 48.552445 
L 48.13361 48.091074 
L 48.192704 48.668371 
L 48.307782 48.344288 
L 48.314003 48.348417 
L 48.376207 48.250605 
L 48.351325 48.562738 
L 48.404199 48.509215 
L 48.463293 48.688615 
L 48.485065 48.286615 
L 48.519277 48.57629 
L 48.612584 48.149098 
L 48.528608 48.668291 
L 48.637466 48.409842 
L 48.653017 48.665927 
L 48.712111 47.821489 
L 48.736993 48.079326 
L 48.820969 48.580387 
L 48.774315 47.888743 
L 48.858291 48.234156 
L 48.904945 47.887461 
L 48.926716 48.481882 
L 49.001361 48.600938 
L 48.945377 48.114301 
L 49.023133 48.432933 
L 49.110219 47.649966 
L 49.041794 48.559085 
L 49.138211 48.313984 
L 49.219077 47.764791 
L 49.250179 48.592592 
L 49.299943 48.117223 
L 49.271951 48.625219 
L 49.362147 48.473094 
L 49.368367 48.603206 
L 49.41191 48.118434 
L 49.455454 48.226582 
L 49.458564 48.167307 
L 49.467894 48.686152 
L 49.554981 48.388916 
L 49.579862 48.604941 
L 49.626516 48.172377 
L 49.629626 48.142114 
L 49.660728 48.65501 
L 49.701161 48.502784 
L 49.766476 48.556044 
L 49.738484 48.208872 
L 49.772696 48.337344 
L 49.794468 48.081673 
L 49.82557 48.569738 
L 49.881554 48.311778 
L 49.906435 48.624233 
L 49.893995 48.280126 
L 49.993522 48.460517 
L 50.009073 48.010405 
L 50.102379 48.607499 
L 50.183245 48.444778 
L 50.124151 48.661308 
L 50.214347 48.560069 
L 50.226788 48.684578 
L 50.273441 48.322339 
L 50.323205 48.571665 
L 50.385409 48.227398 
L 50.341866 48.610127 
L 50.438283 48.404201 
L 50.478716 48.644899 
L 50.528479 48.130686 
L 50.53159 48.115808 
L 50.568912 48.442922 
L 50.587574 48.677986 
L 50.67466 48.401764 
L 50.67777 48.453579 
L 50.755526 48.306589 
L 50.733754 48.689933 
L 50.774187 48.600648 
L 50.799069 48.681538 
L 50.839501 48.229925 
L 50.870604 48.503442 
L 50.920367 48.641472 
L 50.998123 48.139584 
L 51.007453 48.219433 
L 51.057217 47.951051 
L 51.128752 48.672429 
L 51.169185 48.298591 
L 51.253161 48.436951 
L 51.281153 48.07243 
L 51.299814 48.564968 
L 51.302924 48.648699 
L 51.324696 48.037558 
L 51.396231 48.272766 
L 51.433553 47.937286 
L 51.480207 48.530715 
L 51.498868 48.674388 
L 51.576624 48.086757 
L 51.579734 48.095917 
L 51.691702 48.657612 
L 51.589064 47.864772 
L 51.716584 48.473246 
L 51.760127 47.964729 
L 51.819221 48.620959 
L 51.828551 48.455121 
L 51.837882 48.375789 
L 51.900087 48.250959 
L 51.859654 48.568253 
L 51.934299 48.457655 
L 52.043157 48.679741 
L 51.990283 48.196218 
L 52.046267 48.597547 
L 52.170676 48.160935 
L 52.124022 48.644164 
L 52.173786 48.209237 
L 52.260872 48.662508 
L 52.288864 48.592838 
L 52.354179 48.247632 
L 52.37284 48.640425 
L 52.400832 48.565184 
L 52.481698 48.328361 
L 52.419493 48.662654 
L 52.506579 48.564494 
L 52.5128 48.676016 
L 52.543902 48.38124 
L 52.615437 48.549494 
L 52.640319 48.205835 
L 52.683862 48.668038 
L 52.730515 48.418606 
L 52.767838 48.676923 
L 52.811381 48.194912 
L 52.839373 48.386646 
L 52.94201 47.860133 
L 52.870475 48.656309 
L 52.963782 48.197466 
L 53.016655 48.636294 
L 53.08197 48.534949 
L 53.119293 48.664329 
L 53.165946 48.094679 
L 53.178387 48.2159 
L 53.200158 47.967716 
L 53.22193 48.654516 
L 53.277914 48.381952 
L 53.290355 48.638785 
L 53.333898 48.031949 
L 53.389882 48.447784 
L 53.411653 48.037181 
L 53.495629 48.49108 
L 53.517401 48.6808 
L 53.564054 47.924161 
L 53.576495 47.657671 
L 53.6387 48.628061 
L 53.669802 48.128978 
L 53.744447 47.92245 
L 53.707124 48.643805 
L 53.759998 48.290388 
L 53.775549 48.591946 
L 53.800431 47.917851 
L 53.868856 48.34356 
L 53.987044 48.028254 
L 53.909289 48.552618 
L 53.999485 48.155605 
L 54.07413 48.681551 
L 54.123894 48.359847 
L 54.127004 48.198076 
L 54.176768 48.658892 
L 54.226531 48.63915 
L 54.254523 48.697158 
L 54.242082 48.361103 
L 54.319838 48.543782 
L 54.416255 48.319625 
L 54.326058 48.683116 
L 54.425585 48.611404 
L 54.431806 48.529838 
L 54.447357 48.249727 
L 54.49712 48.694633 
L 54.546884 48.334291 
L 54.621529 48.678597 
L 54.658852 48.493457 
L 54.742828 48.173327 
L 54.689954 48.659239 
L 54.77082 48.38986 
L 54.876567 48.640234 
L 54.805032 48.33774 
L 54.882788 48.473247 
L 54.892118 48.289163 
L 54.954323 48.636145 
L 54.991645 48.478507 
L 55.016527 48.553324 
L 55.025858 48.319878 
L 55.131605 48.154755 
L 55.078731 48.640746 
L 55.137826 48.227014 
L 55.20003 48.5146 
L 55.228022 48.168385 
L 55.243573 47.955217 
L 55.284006 48.687035 
L 55.333769 48.236716 
L 55.364872 48.627006 
L 55.433296 48.137063 
L 55.445737 48.38229 
L 55.501721 48.159992 
L 55.461288 48.653423 
L 55.542154 48.468893 
L 55.548375 48.603835 
L 55.591918 48.130668 
L 55.644791 48.263478 
L 55.651012 48.183301 
L 55.672783 48.696116 
L 55.719437 48.627601 
L 55.728767 48.659546 
L 55.734988 48.505426 
L 55.741208 48.548383 
L 55.778531 47.91531 
L 55.859397 48.148646 
L 55.955813 48.687272 
L 55.896719 48.085849 
L 55.996246 48.550357 
L 56.05223 48.077791 
L 56.033569 48.56584 
L 56.111324 48.284265 
L 56.161088 48.506543 
L 56.204631 48.139389 
L 56.210851 47.895315 
L 56.235733 48.632719 
L 56.304158 48.495544 
L 56.33526 48.368349 
L 56.375693 48.689834 
L 56.413016 48.491624 
L 56.416126 48.515837 
L 56.434787 48.101744 
L 56.503212 48.363921 
L 56.543645 48.135257 
L 56.571637 48.49479 
L 56.60896 48.453653 
L 56.677385 48.658565 
L 56.711597 48.373483 
L 56.720928 48.473205 
L 56.724038 48.388608 
L 56.764471 48.6855 
L 56.823565 48.644367 
L 56.90132 48.283826 
L 56.857777 48.676441 
L 56.944863 48.585202 
L 56.951084 48.686359 
L 57.007068 48.20845 
L 57.047501 48.517432 
L 57.053721 48.222363 
L 57.087934 48.693857 
L 57.162579 48.26988 
L 57.277657 48.580749 
L 57.283877 48.501265 
L 57.349192 48.142696 
L 57.302539 48.686931 
L 57.392735 48.517792 
L 57.45494 48.093727 
L 57.414507 48.632785 
L 57.526475 48.388486 
L 57.560687 48.579497 
L 57.538915 48.164869 
L 57.641553 48.500286 
L 57.734859 47.910427 
L 57.700647 48.535544 
L 57.753521 48.391582 
L 57.762851 48.690015 
L 57.809505 48.204127 
L 57.865489 48.512467 
L 57.943244 48.38791 
L 57.968126 48.66659 
L 58.067653 47.853973 
L 58.104976 48.318872 
L 58.120527 48.617316 
L 58.176511 48.055103 
L 58.216943 48.570087 
L 58.241825 48.124852 
L 58.263597 48.69156 
L 58.328911 48.486635 
L 58.356903 48.090447 
L 58.403557 48.561883 
L 58.422218 48.451649 
L 58.524855 48.662852 
L 58.465761 48.267704 
L 58.534186 48.523664 
L 58.636823 48.27979 
L 58.583949 48.673299 
L 58.646154 48.426998 
L 58.720799 48.6566 
L 58.664815 48.235995 
L 58.73635 48.377558 
L 58.748791 48.142902 
L 58.838987 48.650774 
L 58.882531 48.34069 
L 58.848318 48.679592 
L 58.960286 48.409769 
L 59.066034 48.693801 
L 59.072254 48.517238 
L 59.075364 48.515901 
L 59.081585 48.319072 
L 59.150009 48.695673 
L 59.181112 48.504353 
L 59.227765 48.274283 
L 59.29308 48.678394 
L 59.392607 48.412003 
L 59.330402 48.69573 
L 59.405047 48.638957 
L 59.454811 48.125636 
L 59.541897 48.47372 
L 59.641424 48.679752 
L 59.57922 48.370489 
L 59.653865 48.601729 
L 59.775164 48.300812 
L 59.669416 48.676227 
L 59.778274 48.455316 
L 59.887132 48.589091 
L 59.852919 48.191249 
L 59.890242 48.509265 
L 59.980438 48.678478 
L 59.930675 48.231395 
L 59.989769 48.444511 
L 60.027091 48.231465 
L 60.089296 48.60545 
L 60.098627 48.468609 
L 60.195043 48.626886 
L 60.160831 48.195189 
L 60.207484 48.469041 
L 60.210594 48.469469 
L 60.254138 48.144995 
L 60.229256 48.526092 
L 60.322562 48.413086 
L 60.335003 48.493517 
L 60.328783 48.329968 
L 60.341224 48.333746 
L 60.390987 48.026196 
L 60.440751 48.554753 
L 60.450081 48.385308 
L 60.562049 48.654138 
L 60.484294 48.203813 
L 60.56516 48.535824 
L 60.583821 47.960353 
L 60.621144 48.645041 
L 60.686458 48.25704 
L 60.698899 48.232027 
L 60.695789 48.177482 
L 60.705119 48.172547 
L 60.730001 47.822908 
L 60.770434 48.668956 
L 60.801536 48.605417 
L 60.897953 48.693449 
L 60.876182 48.475693 
L 60.910394 48.687546 
L 60.99748 48.274165 
L 61.022362 48.526754 
L 61.084566 48.240073 
L 61.13744 48.688284 
L 61.171652 48.417501 
L 61.246298 48.483102 
L 61.252518 48.689844 
L 61.302282 48.379627 
L 61.358266 48.563013 
L 61.408029 48.262751 
L 61.386258 48.648947 
L 61.476454 48.517959 
L 61.513777 48.665605 
L 61.56043 48.402275 
L 61.588422 48.548128 
L 61.635075 48.664737 
L 61.672398 48.383755 
L 61.694169 48.474586 
L 61.790586 48.340689 
L 61.715941 48.68421 
L 61.799917 48.555682 
L 61.821688 48.441215 
L 61.883893 48.677264 
L 61.899444 48.542212 
L 61.902554 48.62576 
L 61.98342 48.311185 
L 62.002081 48.472455 
L 62.058065 48.308741 
L 62.036294 48.667022 
L 62.114049 48.322967 
L 62.170033 48.699263 
L 62.235348 48.612228 
L 62.288221 48.074432 
L 62.334875 48.656549 
L 62.347316 48.53295 
L 62.393969 48.638596 
L 62.372197 48.265456 
L 62.440622 48.410107 
L 62.54948 48.351105 
L 62.505937 48.673667 
L 62.55259 48.376314 
L 62.630346 48.187443 
L 62.577472 48.582603 
L 62.645897 48.467913 
L 62.745424 48.632159 
L 62.69566 47.865426 
L 62.754754 48.614325 
L 62.773416 48.11727 
L 62.844951 48.665639 
L 62.869833 48.343989 
L 62.928927 48.153006 
L 62.947588 48.598939 
L 62.96936 48.591169 
L 63.053336 48.283705 
L 62.994241 48.673847 
L 63.081328 48.503074 
L 63.162193 48.655835 
L 63.106209 48.238294 
L 63.171524 48.427696 
L 63.215067 48.098963 
L 63.25861 48.646169 
L 63.280382 48.470232 
L 63.311484 48.214862 
L 63.358137 48.682066 
L 63.386129 48.453812 
L 63.39546 48.654058 
L 63.491877 48.285704 
L 63.498097 48.370278 
L 63.572742 48.689019 
L 63.529199 48.359918 
L 63.613175 48.599763 
L 63.641167 48.385832 
L 63.722033 48.678224 
L 63.725143 48.529892 
L 63.82778 48.445696 
L 63.812229 48.660151 
L 63.837111 48.515846 
L 63.861993 48.700244 
L 63.936638 48.484598 
L 63.952189 48.564581 
L 64.051716 48.490548 
L 63.977071 48.670823 
L 64.057937 48.560318 
L 64.126362 48.685741 
L 64.10459 48.491475 
L 64.169905 48.640283 
L 64.24144 48.379886 
L 64.207227 48.690471 
L 64.291203 48.490137 
L 64.337856 48.688601 
L 64.300534 48.377351 
L 64.403171 48.567803 
L 64.459155 48.242765 
L 64.502698 48.64952 
L 64.512029 48.623982 
L 64.552462 48.131525 
L 64.586674 48.668441 
L 64.617776 48.5264 
L 64.67376 48.681719 
L 64.658209 48.419539 
L 64.726634 48.508827 
L 64.829271 48.290799 
L 64.776398 48.656923 
L 64.835492 48.366034 
L 64.851043 48.621512 
L 64.885255 48.115355 
L 64.94746 48.505792 
L 64.972341 48.663957 
L 65.009664 48.128433 
L 65.053207 48.543218 
L 65.071868 48.178504 
L 65.115412 48.67478 
L 65.168285 48.299067 
L 65.221159 48.588589 
L 65.193167 47.985879 
L 65.277143 48.288476 
L 65.292694 48.257882 
L 65.311355 48.50365 
L 65.314466 48.666979 
L 65.410882 48.175172 
L 65.413993 48.195265 
L 65.432654 47.842639 
L 65.463756 48.457074 
L 65.563283 48.632492 
L 65.507299 48.237052 
L 65.569504 48.373109 
L 65.594385 48.236023 
L 65.609936 48.640893 
L 65.675251 48.382717 
L 65.734345 48.688653 
L 65.787219 48.646113 
L 65.80588 48.402384 
L 65.827652 48.671588 
L 65.896077 48.554001 
L 65.94895 48.676014 
L 65.967612 48.389668 
L 66.004934 48.492262 
L 66.107572 48.70371 
L 66.070249 48.365084 
L 66.113792 48.577647 
L 66.120013 48.392351 
L 66.154225 48.656978 
L 66.22576 48.405965 
L 66.334618 48.681888 
L 66.281744 48.284812 
L 66.340838 48.53486 
L 66.424814 48.206769 
L 66.378161 48.665289 
L 66.459027 48.453428 
L 66.515011 48.688334 
L 66.552333 48.260344 
L 66.555443 48.302124 
L 66.564774 48.269216 
L 66.620758 48.557937 
L 66.630089 48.506409 
L 66.667411 48.689362 
L 66.723395 48.312473 
L 66.732726 48.404239 
L 66.745167 48.187414 
L 66.819812 48.642 
L 66.838473 48.509082 
L 66.844694 48.43351 
L 66.863355 48.087368 
L 66.92867 48.572536 
L 66.950441 48.458995 
L 66.993984 48.587705 
L 67.040638 47.90192 
L 67.046858 47.780002 
L 67.090401 48.604217 
L 67.099732 48.588445 
L 67.295676 48.076225 
L 67.112173 48.676027 
L 67.308117 48.301977 
L 67.339219 48.67795 
L 67.367211 48.280718 
L 67.420085 48.443443 
L 67.423195 48.457133 
L 67.454297 48.137842 
L 67.457407 48.04481 
L 67.516501 48.67561 
L 67.560044 48.279973 
L 67.600477 48.686535 
L 67.569375 48.238744 
L 67.672012 48.492868 
L 67.734217 48.21776 
L 67.693784 48.625767 
L 67.78398 48.458673 
L 67.877287 48.193501 
L 67.843074 48.673216 
L 67.892838 48.407227 
L 67.899058 48.620232 
L 67.970594 48.238044 
L 68.001696 48.513174 
L 68.054569 48.269404 
L 68.088782 48.691354 
L 68.107443 48.563457 
L 68.169648 48.669766 
L 68.154096 48.316941 
L 68.21008 48.405194 
L 68.216301 48.376113 
L 68.241183 48.690389 
L 68.297167 48.536205 
L 68.312718 48.681404 
L 68.393583 48.370823 
L 68.412245 48.672658 
L 68.542874 48.31933 
L 68.424686 48.696574 
L 68.555315 48.490129 
L 68.583307 48.696824 
L 68.63307 48.332426 
L 68.667283 48.579596 
L 68.713936 48.252441 
L 68.689054 48.635398 
L 68.77303 48.563954 
L 68.835235 48.691365 
L 68.794802 48.453317 
L 68.875668 48.514017 
L 68.900549 48.274799 
L 68.972084 48.670722 
L 68.981415 48.595636 
L 68.984525 48.661002 
L 69.040509 48.365056 
L 69.080942 48.435137 
L 69.174249 48.176937 
L 69.127595 48.675905 
L 69.18669 48.496217 
L 69.1898 48.633279 
L 69.279996 48.278011 
L 69.298657 48.605563 
L 69.33598 48.352194 
L 69.311098 48.688797 
L 69.423066 48.361955 
L 69.485271 48.676529 
L 69.531924 48.509657 
L 69.634561 48.082936 
L 69.587908 48.633384 
L 69.647002 48.24819 
L 69.681215 48.621069 
L 69.706096 48.018829 
L 69.75586 48.260302 
L 69.75897 48.192459 
L 69.802513 48.641651 
L 69.855387 48.441416 
L 69.948693 48.679005 
L 69.958024 48.365876 
L 69.992237 48.123623 
L 70.03889 48.61441 
L 70.066882 48.270934 
L 70.147748 48.640771 
L 70.116645 48.132676 
L 70.17885 48.422935 
L 70.231723 48.053676 
L 70.194401 48.679151 
L 70.281487 48.545021 
L 70.32814 48.623365 
L 70.303259 48.306 
L 70.359243 48.333183 
L 70.365463 48.206947 
L 70.418337 48.638347 
L 70.45877 48.582365 
L 70.573848 48.243261 
L 70.505423 48.652215 
L 70.61117 48.360352 
L 70.673375 48.652719 
L 70.704477 48.299655 
L 70.726248 48.571269 
L 70.804004 48.319048 
L 70.825776 48.685175 
L 70.841327 48.421462 
L 70.950184 48.68471 
L 70.953295 48.571148 
L 71.040381 48.405911 
L 70.996838 48.653297 
L 71.062152 48.498885 
L 71.105695 48.679082 
L 71.149238 48.296621 
L 71.17723 48.644534 
L 71.180341 48.681785 
L 71.217663 48.265798 
L 71.279868 48.589009 
L 71.345182 48.507896 
L 71.304749 48.682573 
L 71.388725 48.598288 
L 71.391836 48.600598 
L 71.435379 48.375905 
L 71.478922 48.628561 
L 71.503803 48.441404 
L 71.513134 48.662681 
L 71.603331 48.364203 
L 71.618882 48.58531 
L 71.73085 48.225816 
L 71.665535 48.636637 
L 71.74018 48.262606 
L 71.867699 48.670132 
L 71.814825 48.171313 
L 71.88325 48.553208 
L 71.964116 48.274217 
L 71.892581 48.649259 
L 71.995218 48.494748 
L 72.063643 48.346682 
L 72.01699 48.638411 
L 72.100966 48.468576 
L 72.212934 48.684429 
L 72.169391 48.396626 
L 72.216044 48.639251 
L 72.334232 47.985119 
L 72.359114 48.321768 
L 72.390216 48.629421 
L 72.415098 48.29822 
L 72.467972 48.521302 
L 72.542617 48.267547 
L 72.558168 48.687364 
L 72.57994 48.366099 
L 72.620372 48.701527 
L 72.691908 48.390598 
L 72.695018 48.346763 
L 72.769663 48.678818 
L 72.788324 48.594099 
L 72.825647 48.368193 
L 72.878521 48.660989 
L 72.906513 48.502384 
L 72.996709 48.69208 
L 73.00604 48.395426 
L 73.01537 48.49197 
L 73.071354 48.660542 
L 73.024701 48.370923 
L 73.086905 48.485448 
L 73.090016 48.348989 
L 73.139779 48.640801 
L 73.192653 48.450266 
L 73.264188 48.673885 
L 73.248637 48.35487 
L 73.301511 48.538518 
L 73.407258 48.45491 
L 73.369936 48.699039 
L 73.410368 48.456276 
L 73.43525 48.693909 
L 73.460132 48.295034 
L 73.519226 48.535305 
L 73.562769 48.455549 
L 73.593871 48.677969 
L 73.628084 48.574249 
L 73.634304 48.692651 
L 73.71206 48.48867 
L 73.740052 48.5845 
L 73.820917 48.364911 
L 73.774264 48.635934 
L 73.848909 48.626724 
L 73.85202 48.704189 
L 73.876901 48.434203 
L 73.954657 48.551612 
L 73.963988 48.476178 
L 74.054184 48.674103 
L 74.057294 48.618753 
L 74.060404 48.683395 
L 74.150601 48.38739 
L 74.159931 48.497797 
L 74.163042 48.497615 
L 74.166152 48.571316 
L 74.169262 48.61136 
L 74.197254 48.143328 
L 74.271899 48.499604 
L 74.28745 48.178798 
L 74.318553 48.566715 
L 74.355875 48.533688 
L 74.377647 48.701168 
L 74.393198 48.302345 
L 74.464733 48.576016 
L 74.486505 48.238507 
L 74.545599 48.667049 
L 74.582921 48.278151 
L 74.626464 48.614813 
L 74.676228 48.140848 
L 74.694889 48.319204 
L 74.800637 48.1613 
L 74.719771 48.633047 
L 74.806857 48.294964 
L 74.837959 48.69629 
L 74.890833 48.144567 
L 74.893943 48.071552 
L 74.971699 48.669853 
L 74.98103 48.528258 
L 74.98725 48.665333 
L 75.071226 48.244803 
L 75.089887 48.487061 
L 75.136541 48.570906 
L 75.120989 48.314473 
L 75.155202 48.405453 
L 75.198745 48.155735 
L 75.239178 48.67686 
L 75.26717 48.381707 
L 75.320043 48.26649 
L 75.2765 48.613304 
L 75.360476 48.584271 
L 75.425791 48.66414 
L 75.397799 48.227838 
L 75.466224 48.596237 
L 75.581302 48.313122 
L 75.55642 48.65288 
L 75.587522 48.39943 
L 75.627955 48.686266 
L 75.702601 48.683499 
L 75.774136 48.416878 
L 75.817679 48.438775 
L 75.882993 48.682936 
L 75.823899 48.418395 
L 75.938977 48.667301 
L 75.9763 48.469318 
L 76.001182 48.701417 
L 76.050945 48.60726 
L 76.054055 48.605694 
L 76.12248 48.430027 
L 76.138031 48.686109 
L 76.166023 48.552274 
L 76.169134 48.67885 
L 76.268661 48.447255 
L 76.271771 48.462058 
L 76.274881 48.354817 
L 76.371298 48.653087 
L 76.377518 48.629923 
L 76.492596 48.309418 
L 76.39929 48.681608 
L 76.508148 48.482793 
L 76.570352 48.438797 
L 76.626336 48.624254 
L 76.716532 48.131161 
L 76.747634 48.311183 
L 76.83161 48.661523 
L 76.862713 48.548481 
L 76.872043 48.636082 
L 76.890705 48.397653 
L 76.918697 48.553478 
L 76.952909 48.006732 
L 77.002673 48.626382 
L 77.030665 48.486329 
L 77.123971 48.66074 
L 77.099089 48.359539 
L 77.142632 48.517667 
L 77.173735 48.110023 
L 77.223498 48.633513 
L 77.257711 48.319878 
L 77.366568 48.65441 
L 77.351017 48.205239 
L 77.403891 48.584523 
L 77.469206 48.352881 
L 77.484757 48.647274 
L 77.512749 48.593519 
L 77.615386 48.667117 
L 77.562512 48.366933 
L 77.621606 48.570675 
L 77.652709 48.687217 
L 77.680701 48.398326 
L 77.683811 48.407916 
L 77.795779 48.240563 
L 77.742905 48.658318 
L 77.798889 48.276297 
L 77.845542 48.672804 
L 77.913967 48.499044 
L 78.007274 48.703019 
L 77.979282 48.380236 
L 78.019715 48.495635 
L 78.116131 48.34263 
L 78.038376 48.661919 
L 78.125462 48.496555 
L 78.231209 48.678683 
L 78.162785 48.355196 
L 78.23432 48.527652 
L 78.24365 48.334286 
L 78.296524 48.663247 
L 78.340067 48.54145 
L 78.439594 48.685152 
L 78.448925 48.631902 
L 78.511129 48.416757 
L 78.470696 48.67454 
L 78.557783 48.646332 
L 78.719514 48.371875 
L 78.570223 48.664123 
L 78.728845 48.493367 
L 78.828372 48.697984 
L 78.769278 48.392616 
L 78.840813 48.552701 
L 78.903017 48.341261 
L 78.884356 48.697791 
L 78.94345 48.602076 
L 79.021205 48.701805 
L 79.030536 48.394434 
L 79.039867 48.495517 
L 79.123843 48.633119 
L 79.151835 48.411918 
L 79.251362 48.648736 
L 79.167386 48.322081 
L 79.260692 48.512873 
L 79.276243 48.224573 
L 79.294905 48.618418 
L 79.36644 48.582527 
L 79.378881 48.676604 
L 79.434865 48.260863 
L 79.475297 48.553272 
L 79.531281 48.663092 
L 79.549943 48.386765 
L 79.565494 48.432674 
L 79.640139 48.157904 
L 79.612147 48.663204 
L 79.668131 48.576047 
L 79.748997 48.678907 
L 79.705454 48.352338 
L 79.773879 48.531249 
L 79.857855 48.362524 
L 79.79565 48.667593 
L 79.901398 48.44859 
L 80.010255 48.648988 
L 79.976043 48.241841 
L 80.019586 48.616451 
L 80.063129 48.314874 
L 80.103562 48.686588 
L 80.134664 48.326231 
L 80.159546 48.209138 
L 80.168877 48.641042 
L 80.209309 48.543087 
L 80.290175 48.682268 
L 80.271514 48.243515 
L 80.315057 48.49748 
L 80.402143 48.233091 
L 80.377261 48.568405 
L 80.417694 48.567925 
L 80.479899 48.236573 
L 80.532772 48.67382 
L 80.598087 48.463468 
L 80.63852 48.697497 
L 80.64474 48.612992 
L 80.744267 48.375833 
L 80.700724 48.689979 
L 80.769149 48.558457 
L 80.850015 48.688867 
L 80.797141 48.518281 
L 80.878007 48.586305 
L 80.884227 48.454099 
L 80.890448 48.667227 
L 80.986864 48.622421 
L 81.06151 48.697937 
L 81.011746 48.386694 
L 81.080171 48.516848 
L 81.154816 48.441135 
L 81.167257 48.650873 
L 81.195249 48.462257 
L 81.232572 48.686866 
L 81.257454 48.43103 
L 81.310327 48.602029 
L 81.34143 48.36682 
L 81.35076 48.693961 
L 81.422295 48.576212 
L 81.506271 48.690646 
L 81.518712 48.457706 
L 81.524932 48.51207 
L 81.63379 48.385044 
L 81.565365 48.704366 
L 81.6369 48.474859 
L 81.661782 48.665539 
L 81.643121 48.460501 
L 81.745758 48.536797 
L 81.786191 48.262678 
L 81.817293 48.649445 
L 81.857726 48.346103 
L 81.91682 48.280909 
L 81.979025 48.691038 
L 82.047449 48.188755 
L 82.090993 48.52244 
L 82.156307 48.689373 
L 82.174968 48.398434 
L 82.20296 48.565257 
L 82.283826 48.286319 
L 82.321149 48.661613 
L 82.398904 48.207745 
L 82.436227 48.457706 
L 82.454888 48.670227 
L 82.501542 48.286501 
L 82.551305 48.572788 
L 82.638391 48.332981 
L 82.582407 48.6979 
L 82.650832 48.574215 
L 82.731698 48.689724 
L 82.694375 48.240762 
L 82.7628 48.64444 
L 82.859217 48.289914 
L 82.781461 48.680301 
L 82.877878 48.499659 
L 82.980515 48.653868 
L 82.927642 48.309054 
L 82.992956 48.614398 
L 83.052051 48.615647 
L 82.999177 48.552287 
L 83.055161 48.524391 
L 83.073822 48.255088 
L 83.123586 48.675534 
L 83.167129 48.374808 
L 83.263546 48.678352 
L 83.294648 48.636745 
L 83.32264 48.400132 
L 83.366183 48.675611 
L 83.403505 48.538073 
L 83.440828 48.70206 
L 83.46571 48.371515 
L 83.515473 48.687853 
L 83.60878 48.449867 
L 83.630551 48.601717 
L 83.717638 48.49438 
L 83.649213 48.678253 
L 83.720748 48.565248 
L 83.807834 48.697016 
L 83.773622 48.380007 
L 83.832716 48.68858 
L 84.006888 48.388099 
L 84.013109 48.523466 
L 84.121966 48.653186 
L 84.062872 48.350935 
L 84.125076 48.603196 
L 84.153068 48.40768 
L 84.230824 48.664806 
L 84.305469 48.439384 
L 84.349012 48.556458 
L 84.404996 48.695244 
L 84.423658 48.388996 
L 84.46098 48.592535 
L 84.513854 48.39689 
L 84.535626 48.662027 
L 84.582279 48.43286 
L 84.678696 48.696646 
L 84.700467 48.617931 
L 84.768892 48.34479 
L 84.712908 48.64738 
L 84.812435 48.431661 
L 84.908852 48.67159 
L 84.874639 48.221879 
L 84.927513 48.535386 
L 84.946175 48.273726 
L 84.977277 48.653711 
L 85.067473 48.445021 
L 85.148339 48.662156 
L 85.079914 48.347158 
L 85.185662 48.543839 
L 85.226094 48.648876 
L 85.213653 48.27642 
L 85.275858 48.563932 
L 85.285189 48.300296 
L 85.359834 48.680203 
L 85.387826 48.458397 
L 85.474912 48.593102 
L 85.4407 48.201458 
L 85.496684 48.407352 
L 85.534006 48.676401 
L 85.512235 48.405697 
L 85.614872 48.608505 
L 85.642864 48.493498 
L 85.636643 48.655535 
L 85.720619 48.658405 
L 85.779714 48.684742 
L 85.73306 48.481939 
L 85.804595 48.511148 
L 85.857469 48.40873 
L 85.832587 48.670687 
L 85.87302 48.655671 
L 85.953886 48.683903 
L 85.938335 48.450967 
L 85.975657 48.680578 
L 86.01298 48.497726 
L 86.090736 48.504826 
L 86.168491 48.458867 
L 86.109397 48.658823 
L 86.190263 48.64055 
L 86.29912 48.4326 
L 86.196483 48.660066 
L 86.317782 48.597916 
L 86.401758 48.698921 
L 86.351994 48.469759 
L 86.426639 48.654369 
L 86.526166 48.489636 
L 86.491954 48.693477 
L 86.538607 48.511759 
L 86.569709 48.68404 
L 86.647465 48.606233 
L 86.672347 48.43847 
L 86.700339 48.693538 
L 86.759433 48.576219 
L 86.85585 48.660069 
L 86.806086 48.381411 
L 86.871401 48.656244 
L 86.939826 48.375651 
L 86.883842 48.690019 
L 86.989589 48.598115 
L 87.036242 48.680841 
L 87.079786 48.234976 
L 87.082896 48.326116 
L 87.092226 48.17769 
L 87.14821 48.535363 
L 87.182423 48.396919 
L 87.241517 48.662106 
L 87.28506 48.328643 
L 87.300611 48.61446 
L 87.337934 48.224616 
L 87.412579 48.500488 
L 87.465453 48.685965 
L 87.490335 48.431243 
L 87.521437 48.502868 
L 87.577421 48.391756 
L 87.552539 48.612414 
L 87.580531 48.595094 
L 87.583641 48.642141 
L 87.624074 48.346323 
L 87.683168 48.46663 
L 87.779585 48.667864 
L 87.736042 48.254938 
L 87.807577 48.597611 
L 87.928876 48.233527 
L 87.866671 48.664883 
L 87.931986 48.274046 
L 88.006631 48.660949 
L 88.062615 48.634467 
L 88.078166 48.47842 
L 88.149701 48.320104 
L 88.096827 48.684203 
L 88.183914 48.566339 
L 88.202575 48.674581 
L 88.271 48.492315 
L 88.295882 48.640219 
L 88.317653 48.272335 
L 88.354976 48.685266 
L 88.41096 48.519532 
L 88.491825 48.652102 
L 88.466944 48.399817 
L 88.522928 48.606113 
L 88.616234 48.41375 
L 88.606904 48.670139 
L 88.628675 48.539745 
L 88.69399 48.698479 
L 88.662888 48.438095 
L 88.740643 48.613203 
L 88.799737 48.379712 
L 88.821509 48.678512 
L 88.852611 48.574858 
L 88.927256 48.517258 
L 88.908595 48.691382 
L 88.955248 48.536749 
L 89.048555 48.695108 
L 89.039224 48.472232 
L 89.067216 48.57539 
L 89.169853 48.360368 
L 89.088988 48.69673 
L 89.182294 48.463234 
L 89.26005 48.679661 
L 89.213396 48.42409 
L 89.297372 48.609534 
L 89.316034 48.688585 
L 89.365797 48.482675 
L 89.393789 48.585873 
L 89.437332 48.440984 
L 89.446663 48.657121 
L 89.502647 48.610462 
L 89.5493 48.421432 
L 89.521308 48.680918 
L 89.611505 48.553602 
L 89.717252 48.6959 
L 89.679929 48.297876 
L 89.723473 48.630806 
L 89.795008 48.687311 
L 89.785677 48.468784 
L 89.807448 48.501499 
L 89.813669 48.4785 
L 89.847881 48.64834 
L 89.878984 48.599114 
L 89.882094 48.647426 
L 89.906976 48.280419 
L 89.9754 48.429056 
L 89.990951 48.363748 
L 90.022054 48.590146 
L 90.062487 48.529583 
L 90.074927 48.683247 
L 90.102919 48.389255 
L 90.171344 48.490304 
L 90.242879 48.371116 
L 90.202446 48.681935 
L 90.277092 48.452459 
L 90.286422 48.695177 
L 90.329965 48.342357 
L 90.385949 48.512576 
L 90.469925 48.372173 
L 90.423272 48.690925 
L 90.488587 48.533485 
L 90.494807 48.699856 
L 90.519689 48.298976 
L 90.591224 48.331387 
L 90.594334 48.220918 
L 90.622326 48.681959 
L 90.693861 48.543179 
L 90.712523 48.663408 
L 90.746735 48.36955 
L 90.787168 48.436953 
L 90.802719 48.316669 
L 90.830711 48.687128 
L 90.889805 48.535295 
L 90.902246 48.679584 
L 90.970671 48.31713 
L 91.011104 48.563599 
L 91.067088 48.663109 
L 91.082639 48.415966 
L 91.116851 48.515793 
L 91.179056 48.452095 
L 91.144843 48.661442 
L 91.210158 48.597689 
L 91.303464 48.69271 
L 91.269252 48.48275 
L 91.315905 48.53472 
L 91.325236 48.454576 
L 91.331456 48.659694 
L 91.412322 48.593577 
L 91.455865 48.685789 
L 91.430983 48.46517 
L 91.52118 48.553067 
L 91.654919 48.666008 
L 91.539841 48.479829 
L 91.658029 48.636926 
L 91.717124 48.467689 
L 91.748226 48.673609 
L 91.769997 48.47854 
L 91.8011 48.701233 
L 91.869524 48.420817 
L 91.881965 48.569245 
L 91.897516 48.451824 
L 91.965941 48.665181 
L 91.987713 48.593649 
L 92.081019 48.67861 
L 92.08724 48.478201 
L 92.09346 48.588465 
L 92.196097 48.418285 
L 92.158775 48.679944 
L 92.208538 48.433127 
L 92.270743 48.61378 
L 92.264522 48.395671 
L 92.332947 48.557351 
L 92.444915 48.149344 
L 92.392041 48.702203 
L 92.448025 48.341199 
L 92.547552 48.700718 
L 92.454246 48.297899 
L 92.575544 48.59486 
L 92.668851 48.211683 
L 92.687512 48.503399 
L 92.721725 48.651484 
L 92.771488 48.450839 
L 92.79637 48.499446 
L 92.861685 48.292994 
L 92.811921 48.658642 
L 92.889677 48.590787 
L 92.917669 48.700685 
L 92.954991 48.319161 
L 92.992314 48.470376 
L 93.119833 48.659358 
L 93.001644 48.303527 
L 93.122943 48.650313 
L 93.157155 48.349413 
L 93.21936 48.676472 
L 93.234911 48.568827 
L 93.325107 48.676555 
L 93.294005 48.251013 
L 93.337548 48.580839 
L 93.399753 48.43747 
L 93.430855 48.65068 
L 93.449516 48.492561 
L 93.542823 48.703119 
L 93.5055 48.352996 
L 93.561484 48.519531 
L 93.567705 48.426723 
L 93.598807 48.691848 
L 93.667232 48.596997 
L 93.710775 48.658538 
L 93.676562 48.367294 
L 93.726326 48.499004 
L 93.729436 48.352285 
L 93.763648 48.655495 
L 93.835183 48.542251 
L 93.912939 48.352911 
L 93.841404 48.668654 
L 93.937821 48.548343 
L 93.993805 48.701716 
L 93.972033 48.435885 
L 94.059119 48.676652 
L 94.077781 48.404549 
L 94.115103 48.685872 
L 94.174197 48.590472 
L 94.183528 48.693078 
L 94.289276 48.513451 
L 94.376362 48.67923 
L 94.382582 48.434524 
L 94.398133 48.567696 
L 94.401244 48.473586 
L 94.485219 48.663829 
L 94.503881 48.584301 
L 94.594077 48.696235 
L 94.547424 48.524047 
L 94.612738 48.658135 
L 94.687384 48.522966 
L 94.622069 48.690257 
L 94.702935 48.546662 
" clip-path="url(#p7d96d235d0)" style="fill: none; stroke: #ff7f0e; stroke-width: 0.5; stroke-linecap: square"/>
   </g>
  </g>
 </g>
 <defs>
  <clipPath id="p7d96d235d0">
   <rect x="0" y="-0" width="99.212598" height="51.023622"/>
  </clipPath>
 </defs>
</svg>
