<?xml version="1.0" encoding="utf-8" standalone="no"?>
<!DOCTYPE svg PUBLIC "-//W3C//DTD SVG 1.1//EN"
  "http://www.w3.org/Graphics/SVG/1.1/DTD/svg11.dtd">
<svg xmlns:xlink="http://www.w3.org/1999/xlink" width="205.088157pt" height="84.96pt" viewBox="0 0 205.088157 84.96" xmlns="http://www.w3.org/2000/svg" version="1.1">
 <metadata>
  <rdf:RDF xmlns:dc="http://purl.org/dc/elements/1.1/" xmlns:cc="http://creativecommons.org/ns#" xmlns:rdf="http://www.w3.org/1999/02/22-rdf-syntax-ns#">
   <cc:Work>
    <dc:type rdf:resource="http://purl.org/dc/dcmitype/StillImage"/>
    <dc:date>2024-11-06T10:36:29.679745</dc:date>
    <dc:format>image/svg+xml</dc:format>
    <dc:creator>
     <cc:Agent>
      <dc:title>Matplotlib v3.8.4, https://matplotlib.org/</dc:title>
     </cc:Agent>
    </dc:creator>
   </cc:Work>
  </rdf:RDF>
 </metadata>
 <defs>
  <style type="text/css">*{stroke-linejoin: round; stroke-linecap: butt}</style>
 </defs>
 <g id="figure_1">
  <g id="patch_1">
   <path d="M 0 84.96 
L 205.088157 84.96 
L 205.088157 0 
L 0 0 
L 0 84.96 
z
" style="fill: none"/>
  </g>
  <g id="axes_1">
   <g id="patch_2">
    <path d="M 0 84.96 
L 205.088157 84.96 
L 205.088157 0 
L 0 0 
L 0 84.96 
z
" style="fill: none"/>
   </g>
   <g id="PathCollection_1">
    <defs>
     <path id="m8cf687d492" d="M 1.693645 3.535534 
L -1.693645 3.535534 
L -1.693645 3.102307 
L -0.28972 3.102307 
L -0.28972 -1.914996 
Q -0.28972 -1.984042 -0.354704 -2.06121 
Q -0.419688 -2.139732 -0.480611 -2.139732 
Q -0.575379 -2.139732 -0.697224 -2.019241 
Q -1.122327 -1.576538 -1.528477 -1.308479 
L -1.693645 -1.48177 
Q -0.454888 -2.556713 -0.047384 -3.535534 
L 0.039261 -3.535534 
Q 0.464365 -2.539113 1.693645 -1.473647 
L 1.529831 -1.300356 
Q 1.18325 -1.542692 0.697224 -2.009765 
Q 0.576733 -2.131609 0.454888 -2.131609 
Q 0.281597 -2.131609 0.281597 -1.906873 
L 0.281597 3.102307 
L 1.693645 3.102307 
L 1.693645 3.535534 
z
" style="stroke: #000000; stroke-width: 0.1"/>
    </defs>
    <g clip-path="url(#p9e6c69b108)">
     <use xlink:href="#m8cf687d492" x="32.52952" y="75.857143" style="stroke: #000000; stroke-width: 0.1"/>
     <use xlink:href="#m8cf687d492" x="73.091156" y="75.857143" style="stroke: #000000; stroke-width: 0.1"/>
     <use xlink:href="#m8cf687d492" x="113.636309" y="75.857143" style="stroke: #000000; stroke-width: 0.1"/>
     <use xlink:href="#m8cf687d492" x="154.181463" y="75.857143" style="stroke: #000000; stroke-width: 0.1"/>
    </g>
   </g>
   <g id="PathCollection_2">
    <defs>
     <path id="m020838db9f" d="M 1.693645 0.320181 
L 1.529831 0.493472 
Q 1.18325 0.251136 0.697224 -0.21729 
Q 0.576733 -0.337781 0.454888 -0.337781 
Q 0.281597 -0.337781 0.281597 -0.113045 
L 0.281597 3.535534 
L -0.28972 3.535534 
L -0.28972 -0.121168 
Q -0.28972 -0.190213 -0.354704 -0.268736 
Q -0.419688 -0.347258 -0.480611 -0.347258 
Q -0.575379 -0.347258 -0.697224 -0.225413 
Q -1.122327 0.215936 -1.528477 0.485349 
L -1.693645 0.312058 
Q -0.732423 -0.520549 -0.28972 -1.257034 
L -0.28972 -1.914996 
Q -0.28972 -1.984042 -0.354704 -2.06121 
Q -0.419688 -2.139732 -0.480611 -2.139732 
Q -0.575379 -2.139732 -0.697224 -2.019241 
Q -1.122327 -1.576538 -1.528477 -1.308479 
L -1.693645 -1.48177 
Q -0.454888 -2.556713 -0.047384 -3.535534 
L 0.039261 -3.535534 
Q 0.464365 -2.539113 1.693645 -1.473647 
L 1.529831 -1.300356 
Q 1.18325 -1.542692 0.697224 -2.009765 
Q 0.576733 -2.131609 0.454888 -2.131609 
Q 0.281597 -2.131609 0.281597 -1.906873 
L 0.281597 -1.265157 
Q 0.740546 -0.511072 1.693645 0.320181 
z
" style="stroke: #000000; stroke-width: 0.1"/>
    </defs>
    <g clip-path="url(#p9e6c69b108)">
     <use xlink:href="#m020838db9f" x="32.52952" y="66.754286" style="stroke: #000000; stroke-width: 0.1"/>
    </g>
   </g>
   <g id="matplotlib.axis_1">
    <g id="xtick_1"/>
    <g id="xtick_2"/>
    <g id="xtick_3"/>
    <g id="xtick_4"/>
   </g>
   <g id="matplotlib.axis_2">
    <g id="ytick_1"/>
    <g id="ytick_2"/>
    <g id="ytick_3"/>
    <g id="ytick_4"/>
    <g id="ytick_5"/>
    <g id="ytick_6"/>
    <g id="ytick_7"/>
   </g>
   <g id="line2d_1">
    <path d="M 0 42.48 
L 205.088157 42.48 
" clip-path="url(#p9e6c69b108)" style="fill: none; stroke: #555555; stroke-width: 0.75; stroke-linecap: square"/>
   </g>
   <g id="line2d_2">
    <path d="M 33.622811 42.48 
L 33.705219 41.369938 
L 34.034855 45.270609 
L 34.144733 44.906385 
L 34.36449 41.873417 
L 34.694126 38.094782 
L 34.749065 38.020038 
L 34.804004 38.131031 
L 34.968822 39.465588 
L 35.683032 48.178672 
L 35.737971 48.173053 
L 35.84785 47.735958 
L 36.067606 45.405846 
L 36.781816 35.971096 
L 36.891695 35.732366 
L 36.946634 35.796819 
L 37.111452 36.696674 
L 37.386148 40.094815 
L 38.100358 49.696842 
L 38.265176 50.123773 
L 38.375054 49.870278 
L 38.594811 48.162643 
L 38.979386 42.556285 
L 39.528778 35.053319 
L 39.748535 34.048301 
L 39.858414 34.125511 
L 40.023231 34.955929 
L 40.297927 37.97129 
L 41.341773 51.476064 
L 41.451651 51.664069 
L 41.50659 51.623004 
L 41.671408 50.969501 
L 41.946104 48.298134 
L 42.550436 38.872936 
L 42.98995 33.619573 
L 43.209707 32.651454 
L 43.319585 32.664011 
L 43.484403 33.302895 
L 43.759099 35.860029 
L 44.253552 43.385817 
L 44.857884 51.553013 
L 45.13258 52.935161 
L 45.242458 52.947449 
L 45.407276 52.381241 
L 45.681972 50.006938 
L 46.121486 43.616117 
L 46.835696 33.347717 
L 47.110392 31.587001 
L 47.27521 31.3939 
L 47.385088 31.636665 
L 47.604845 32.976893 
L 47.934481 36.797552 
L 49.198083 53.675332 
L 49.41784 54.146738 
L 49.527719 53.958572 
L 49.747475 52.760333 
L 50.077111 49.177256 
L 51.505531 30.549578 
L 51.670349 30.266778 
L 51.780227 30.41639 
L 51.945045 31.138416 
L 52.219741 33.559178 
L 52.714194 40.652987 
L 53.538283 52.688153 
L 53.867918 54.930787 
L 54.032736 55.21343 
L 54.142614 55.077454 
L 54.307432 54.394941 
L 54.582128 52.076982 
L 55.021642 46.040746 
L 56.065487 31.09557 
L 56.395123 29.344929 
L 56.505001 29.248633 
L 56.55994 29.294302 
L 56.724758 29.802504 
L 56.999454 31.819358 
L 57.384029 36.646905 
L 58.70257 55.018878 
L 58.977267 56.144952 
L 59.087145 56.178724 
L 59.251963 55.778869 
L 59.47172 54.436447 
L 59.801355 50.905646 
L 60.460626 40.652774 
L 61.119897 31.363383 
L 61.504471 28.641595 
L 61.724228 28.310297 
L 61.834107 28.494065 
L 62.053864 29.543911 
L 62.383499 32.665531 
L 62.932891 40.727288 
L 63.866858 54.286211 
L 64.196494 56.625656 
L 64.416251 57.10914 
L 64.526129 57.012434 
L 64.690947 56.448032 
L 64.965643 54.449845 
L 65.405157 48.995606 
L 66.833577 28.89497 
L 67.108273 27.571265 
L 67.273091 27.423383 
L 67.437908 27.768492 
L 67.657665 28.972403 
L 67.987301 32.209775 
L 68.536693 40.27236 
L 69.525599 54.765892 
L 69.910174 57.515424 
L 70.129931 57.970629 
L 70.239809 57.878472 
L 70.404627 57.343659 
L 70.679323 55.446071 
L 71.063898 50.985612 
L 71.887986 37.90599 
L 72.547257 29.274677 
L 72.876893 27.059986 
L 73.096649 26.578342 
L 73.206528 26.648885 
L 73.371346 27.141739 
L 73.646042 28.949838 
L 74.030616 33.272241 
L 74.799766 45.375077 
L 75.513976 55.306685 
L 75.89855 58.17694 
L 76.118307 58.765862 
L 76.228186 58.757239 
L 76.393003 58.365348 
L 76.6677 56.737749 
L 77.052274 52.656853 
L 77.711545 42.562845 
L 78.590573 29.734961 
L 78.975147 26.631009 
L 79.249844 25.799069 
L 79.359722 25.810848 
L 79.52454 26.198596 
L 79.799236 27.797791 
L 80.18381 31.809168 
L 80.843081 41.811662 
L 81.777048 55.512021 
L 82.161623 58.643486 
L 82.436319 59.529994 
L 82.546198 59.54823 
L 82.711015 59.213293 
L 82.930772 58.107249 
L 83.260408 55.150729 
L 83.754861 48.447389 
L 85.183281 27.721016 
L 85.567855 25.362845 
L 85.787612 25.0211 
L 85.897491 25.134269 
L 86.117248 25.921915 
L 86.391944 27.906092 
L 86.831458 33.040984 
L 87.710485 47.011919 
L 88.424695 56.681529 
L 88.80927 59.555865 
L 89.083966 60.295891 
L 89.193845 60.268586 
L 89.358662 59.880976 
L 89.633359 58.339809 
L 90.017933 54.495358 
L 90.622265 45.649534 
L 91.775989 28.501366 
L 92.215503 25.06981 
L 92.490199 24.309211 
L 92.600077 24.32175 
L 92.764895 24.680643 
L 93.039591 26.159305 
L 93.424166 29.899845 
L 94.028497 38.616258 
L 95.23716 56.661191 
L 95.676674 60.154693 
L 95.95137 60.986091 
L 96.061249 61.008397 
L 96.226067 60.707754 
L 96.445823 59.696112 
L 96.775459 56.959907 
L 97.269912 50.627819 
L 99.027967 25.680137 
L 99.357603 23.915753 
L 99.57736 23.592905 
L 99.687238 23.694135 
L 99.906995 24.416721 
L 100.181691 26.253729 
L 100.621205 31.073011 
L 101.335415 42.053014 
L 102.324321 56.677704 
L 102.763835 60.468123 
L 103.038531 61.559693 
L 103.203349 61.705001 
L 103.368167 61.463301 
L 103.587924 60.549037 
L 103.917559 57.985529 
L 104.412012 51.909129 
L 106.389825 24.453418 
L 106.71946 23.057278 
L 106.884278 22.921396 
L 107.049095 23.165914 
L 107.268852 24.073931 
L 107.598488 26.609801 
L 108.092941 32.623608 
L 109.191725 50.146839 
L 109.850996 58.606556 
L 110.29051 61.707575 
L 110.565206 62.362285 
L 110.675085 62.334021 
L 110.839902 61.980633 
L 111.114599 60.583678 
L 111.499173 57.071935 
L 112.048566 49.608575 
L 113.696743 25.571224 
L 114.081317 22.968793 
L 114.356013 22.280835 
L 114.465892 22.290997 
L 114.63071 22.612517 
L 114.905406 23.945991 
L 115.28998 27.357066 
L 115.839373 34.692658 
L 117.597428 60.081152 
L 117.982003 62.470199 
L 118.20176 62.984297 
L 118.366577 62.947914 
L 118.531395 62.550253 
L 118.806091 61.107087 
L 119.190666 57.583154 
L 119.740058 50.166274 
L 121.443174 25.211224 
L 121.882688 22.256243 
L 122.157384 21.640604 
L 122.267263 21.671363 
L 122.432081 22.014306 
L 122.706777 23.358623 
L 123.091351 26.740111 
L 123.640744 33.988192 
L 125.508678 60.830831 
L 125.893252 63.128234 
L 126.113009 63.612051 
L 126.277827 63.56517 
L 126.442645 63.167656 
L 126.717341 61.746995 
L 127.101915 58.291264 
L 127.651308 50.996371 
L 129.519242 24.035953 
L 129.903816 21.632527 
L 130.178512 21.027846 
L 130.288391 21.055108 
L 130.453209 21.384417 
L 130.727905 22.685389 
L 131.112479 25.97345 
L 131.661872 33.071627 
L 133.639684 61.449912 
L 134.024259 63.720384 
L 134.298955 64.239375 
L 134.408833 64.181263 
L 134.573651 63.810027 
L 134.848347 62.451882 
L 135.232922 59.111267 
L 135.782314 51.985414 
L 137.815066 23.012341 
L 138.19964 20.86476 
L 138.419397 20.437168 
L 138.584215 20.509781 
L 138.803972 21.128566 
L 139.078668 22.713933 
L 139.463243 26.317706 
L 140.067574 34.527186 
L 141.880569 61.04657 
L 142.320083 64.052609 
L 142.594779 64.787686 
L 142.759597 64.786443 
L 142.924415 64.452698 
L 143.199111 63.173736 
L 143.583685 59.967371 
L 144.133078 53.032026 
L 146.330647 22.07114 
L 146.715222 20.153461 
L 146.934979 19.843105 
L 147.099796 19.993929 
L 147.319553 20.702047 
L 147.649189 22.807294 
L 148.088702 27.352746 
L 148.747973 36.884482 
L 150.286272 59.936081 
L 150.780725 64.03186 
L 151.11036 65.265506 
L 151.275178 65.400844 
L 151.439996 65.211318 
L 151.659753 64.458806 
L 151.989388 62.303498 
L 152.428902 57.721088 
L 153.088173 48.179284 
L 154.626471 25.038211 
L 155.120924 20.821024 
L 155.45056 19.476925 
L 155.670317 19.284232 
L 155.835134 19.513977 
L 156.054891 20.313019 
L 156.384527 22.521784 
L 156.82404 27.145706 
L 157.483311 36.702672 
L 159.02161 59.920837 
L 159.516063 64.246506 
L 159.845698 65.690933 
L 160.065455 65.961104 
L 160.230273 65.793839 
L 160.45003 65.082184 
L 160.779665 63.007885 
L 161.219179 58.553541 
L 161.87845 49.176045 
L 163.526627 24.413914 
L 164.02108 20.261114 
L 164.350715 18.929926 
L 164.570472 18.729604 
L 164.73529 18.944966 
L 164.955047 19.713944 
L 165.284682 21.857938 
L 165.724196 26.373793 
L 166.383467 35.786941 
L 168.031644 60.602756 
L 168.526097 64.836472 
L 168.855732 66.245557 
L 169.075489 66.507281 
L 169.240307 66.342066 
L 169.460064 65.644052 
L 169.789699 63.611023 
L 170.229213 59.238424 
L 170.888484 49.9843 
L 172.64654 23.674998 
L 173.140993 19.64299 
L 173.470628 18.368995 
L 173.690385 18.192502 
L 173.855203 18.417607 
L 174.07496 19.188764 
L 174.404595 21.31472 
L 174.844109 25.776875 
L 175.50338 35.095905 
L 177.261435 61.423349 
L 177.755888 65.499182 
L 178.085524 66.821817 
L 178.305281 67.038993 
L 178.470098 66.848208 
L 178.689855 66.126956 
L 179.019491 64.081616 
L 179.459004 59.727634 
L 180.118275 50.535367 
L 181.986209 22.783217 
L 182.480662 18.94877 
L 182.810298 17.790194 
L 182.975115 17.656159 
L 183.139933 17.822171 
L 183.35969 18.50609 
L 183.689325 20.48866 
L 184.128839 24.754663 
L 184.78811 33.837926 
L 186.710983 62.414603 
L 187.205436 66.246811 
L 187.535072 67.418727 
L 187.754829 67.546731 
L 187.919646 67.296544 
L 188.139403 66.507201 
L 188.469039 64.384798 
L 188.908553 59.973021 
L 189.567823 50.764962 
L 191.490696 22.251789 
L 191.98515 18.44925 
L 192.314785 17.284684 
L 192.534542 17.155019 
L 192.69936 17.400476 
L 192.919117 18.179058 
L 193.248752 20.277104 
L 193.688266 24.64659 
L 194.12778 31.264493 
L 194.732111 39.482465 
L 195.061747 41.638748 
L 195.336443 42.349261 
L 195.611139 42.486678 
L 195.748487 42.48 
M 195.748487 42.48 
L 195.748487 42.488925 
L 205.088157 42.48 
L 205.088157 42.48 
" clip-path="url(#p9e6c69b108)" style="fill: none; stroke: #636efa; stroke-width: 0.75; stroke-linecap: square"/>
   </g>
   <g id="line2d_3">
    <path d="M 33.622811 42.48 
L 33.815098 40.613909 
L 33.924976 41.186727 
L 34.36449 46.178637 
L 34.474369 45.706601 
L 34.694126 42.842361 
L 35.0787 37.725225 
L 35.188579 37.358256 
L 35.243518 37.417341 
L 35.408336 38.504118 
L 35.737971 43.327332 
L 36.122546 48.226425 
L 36.287363 48.728076 
L 36.397242 48.406134 
L 36.616999 46.358898 
L 37.496026 35.32814 
L 37.550966 35.269683 
L 37.605905 35.32602 
L 37.770723 36.160562 
L 38.045419 39.393996 
L 38.814568 49.960032 
L 38.979386 50.530617 
L 39.089264 50.400673 
L 39.254082 49.463488 
L 39.528778 46.253808 
L 40.462745 33.949608 
L 40.627563 33.66696 
L 40.737441 33.945026 
L 40.957198 35.551506 
L 41.341773 40.857435 
L 42.055983 50.859041 
L 42.27574 51.9487 
L 42.385618 51.981863 
L 42.550436 51.388242 
L 42.825132 48.848863 
L 43.319585 41.294123 
L 43.868978 33.833616 
L 44.143674 32.353526 
L 44.253552 32.316692 
L 44.363431 32.603018 
L 44.583188 34.094783 
L 44.912823 38.204611 
L 45.956668 52.529321 
L 46.176425 53.276979 
L 46.286304 53.194698 
L 46.451121 52.507084 
L 46.725818 49.995032 
L 47.220271 42.62576 
L 47.879542 33.223518 
L 48.209177 31.2046 
L 48.319055 31.092522 
L 48.428934 31.270606 
L 48.648691 32.469136 
L 48.978326 36.089027 
L 50.351807 54.104225 
L 50.516625 54.425051 
L 50.626503 54.293274 
L 50.791321 53.586195 
L 51.066017 51.162521 
L 51.56047 44.028847 
L 52.384559 32.174889 
L 52.714194 30.164074 
L 52.879012 30.025101 
L 53.043829 30.479825 
L 53.263586 31.965596 
L 53.648161 36.573502 
L 54.966703 54.629053 
L 55.18646 55.423754 
L 55.296338 55.442324 
L 55.461156 54.995125 
L 55.680913 53.551121 
L 56.065487 49.061671 
L 57.493907 29.711954 
L 57.713664 29.024725 
L 57.823543 29.047188 
L 57.98836 29.537865 
L 58.263057 31.508607 
L 58.647631 36.261203 
L 60.021112 55.319041 
L 60.295808 56.389494 
L 60.405687 56.407362 
L 60.570504 55.991448 
L 60.790261 54.64192 
L 61.174836 50.394045 
L 61.943985 38.227989 
L 62.548317 30.388514 
L 62.877952 28.34743 
L 63.04277 28.073955 
L 63.152648 28.178509 
L 63.317466 28.760782 
L 63.592162 30.801365 
L 64.031676 36.331331 
L 65.405157 55.752403 
L 65.679853 57.143922 
L 65.844671 57.324837 
L 65.954549 57.167098 
L 66.174306 56.197169 
L 66.503941 53.241207 
L 66.998395 46.298466 
L 68.097179 30.142141 
L 68.481754 27.546884 
L 68.701511 27.204427 
L 68.811389 27.357581 
L 69.031146 28.300748 
L 69.360782 31.183518 
L 69.855235 38.00865 
L 71.063898 55.584192 
L 71.393533 57.747692 
L 71.61329 58.178959 
L 71.723169 58.078981 
L 71.887986 57.537847 
L 72.162682 55.643094 
L 72.547257 51.205766 
L 73.371346 38.143266 
L 74.030616 29.361038 
L 74.415191 26.771826 
L 74.634948 26.373159 
L 74.744826 26.481545 
L 74.909644 27.025298 
L 75.18434 28.900359 
L 75.568915 33.27783 
L 76.338064 45.400541 
L 77.052274 55.366541 
L 77.436849 58.302952 
L 77.656606 58.946878 
L 77.766484 58.969808 
L 77.931302 58.629243 
L 78.151059 57.493657 
L 78.480694 54.457198 
L 79.030087 46.746566 
L 80.23875 28.929389 
L 80.623324 26.165084 
L 80.843081 25.605307 
L 80.95296 25.618146 
L 81.117777 26.003279 
L 81.392474 27.587937 
L 81.777048 31.56481 
L 82.38138 40.613888 
L 83.370286 55.35623 
L 83.8098 58.942359 
L 84.084496 59.736221 
L 84.194375 59.720403 
L 84.359192 59.338808 
L 84.633888 57.779582 
L 85.018463 53.866277 
L 85.622795 44.90632 
L 86.66664 29.305136 
L 87.106154 25.701641 
L 87.38085 24.863757 
L 87.490728 24.854622 
L 87.655546 25.191688 
L 87.875303 26.280144 
L 88.204939 29.175632 
L 88.699392 35.762083 
L 90.23769 57.949193 
L 90.622265 60.186276 
L 90.842022 60.485237 
L 91.006839 60.227714 
L 91.226596 59.253969 
L 91.556232 56.535301 
L 92.050685 50.170118 
L 93.753801 26.075231 
L 94.083436 24.375636 
L 94.303193 24.122918 
L 94.468011 24.405744 
L 94.687768 25.400151 
L 95.017403 28.123984 
L 95.511856 34.459611 
L 97.269912 59.27248 
L 97.599547 60.940005 
L 97.819304 61.186978 
L 97.984122 60.90863 
L 98.203879 59.931238 
L 98.533514 57.251764 
L 99.027967 50.997987 
L 100.840962 25.386558 
L 101.170597 23.700752 
L 101.390354 23.425194 
L 101.555172 23.673855 
L 101.774929 24.602255 
L 102.104564 27.194882 
L 102.599018 33.319962 
L 104.521891 60.187602 
L 104.851526 61.689827 
L 105.016344 61.875846 
L 105.126222 61.786556 
L 105.29104 61.334839 
L 105.565736 59.761852 
L 105.950311 56.001701 
L 106.554642 47.388009 
L 107.928123 26.994526 
L 108.367637 23.626347 
L 108.642333 22.79806 
L 108.807151 22.801365 
L 108.971969 23.180938 
L 109.246665 24.626097 
L 109.631239 28.208238 
L 110.180632 35.753605 
L 111.773869 59.074324 
L 112.158444 61.762491 
L 112.43314 62.507377 
L 112.543019 62.517999 
L 112.707836 62.224995 
L 112.927593 61.268194 
L 113.257229 58.692582 
L 113.751682 52.678204 
L 114.795527 36.004199 
L 115.509737 26.459136 
L 115.949251 23.066203 
L 116.223947 22.17876 
L 116.388765 22.129968 
L 116.553583 22.446057 
L 116.828279 23.764741 
L 117.212854 27.146472 
L 117.762246 34.438197 
L 119.520301 59.987808 
L 119.904876 62.507194 
L 120.179572 63.158676 
L 120.289451 63.140324 
L 120.454268 62.813616 
L 120.728964 61.489635 
L 121.113539 58.122888 
L 121.662931 50.875335 
L 123.475926 24.593563 
L 123.860501 22.121258 
L 124.135197 21.488553 
L 124.245075 21.510358 
L 124.409893 21.837807 
L 124.684589 23.151742 
L 125.069164 26.485409 
L 125.618556 33.671289 
L 127.541429 61.1619 
L 127.926004 63.352604 
L 128.145761 63.777719 
L 128.255639 63.757701 
L 128.420457 63.43711 
L 128.695153 62.144945 
L 129.079728 58.858216 
L 129.62912 51.74784 
L 131.606933 23.49074 
L 131.991507 21.311716 
L 132.211264 20.881891 
L 132.321143 20.896288 
L 132.48596 21.204461 
L 132.760656 22.466361 
L 133.145231 25.696145 
L 133.694623 32.720651 
L 135.727375 61.756048 
L 136.11195 63.933056 
L 136.331707 64.372961 
L 136.496524 64.306992 
L 136.716281 63.693469 
L 136.990977 62.109069 
L 137.375552 58.497961 
L 137.979884 50.267703 
L 139.737939 24.371383 
L 140.177453 21.197087 
L 140.452149 20.355019 
L 140.616967 20.29395 
L 140.781784 20.567968 
L 141.001541 21.446396 
L 141.331177 23.809117 
L 141.82563 29.393009 
L 142.594779 41.218161 
L 143.748503 58.524706 
L 144.242956 63.089884 
L 144.572592 64.651909 
L 144.792348 64.97271 
L 144.957166 64.827284 
L 145.176923 64.123045 
L 145.506558 62.016888 
L 145.946072 57.460526 
L 146.605343 47.906992 
L 148.088702 25.53673 
L 148.583156 21.260186 
L 148.912791 19.899537 
L 149.132548 19.708637 
L 149.297366 19.946651 
L 149.517122 20.765453 
L 149.846758 23.019783 
L 150.286272 27.722173 
L 151.000482 38.272919 
L 152.373963 59.083264 
L 152.868416 63.615969 
L 153.198051 65.191484 
L 153.417808 65.539645 
L 153.582626 65.424326 
L 153.802383 64.771968 
L 154.132018 62.763921 
L 154.571532 58.3572 
L 155.230803 48.989385 
L 156.87898 24.376799 
L 157.373433 20.412681 
L 157.703068 19.249562 
L 157.867886 19.141631 
L 158.032704 19.35268 
L 158.252461 20.124418 
L 158.582096 22.289072 
L 159.02161 26.854462 
L 159.680881 36.346779 
L 161.274118 60.306468 
L 161.768571 64.513543 
L 162.098207 65.876975 
L 162.317964 66.095442 
L 162.482781 65.891558 
L 162.702538 65.134825 
L 163.032174 63.002582 
L 163.471688 58.491407 
L 164.130958 49.0717 
L 165.779135 24.315494 
L 166.273589 20.153318 
L 166.603224 18.806524 
L 166.822981 18.591528 
L 166.987799 18.793825 
L 167.207555 19.543023 
L 167.537191 21.653719 
L 167.976705 26.123292 
L 168.635976 35.481674 
L 170.339092 61.014275 
L 170.833545 65.116166 
L 171.16318 66.434331 
L 171.382937 66.637365 
L 171.547755 66.430157 
L 171.767512 65.679817 
L 172.097147 63.578089 
L 172.536661 59.135403 
L 173.195932 49.824487 
L 174.953987 23.539359 
L 175.44844 19.515664 
L 175.778076 18.239853 
L 175.997833 18.058417 
L 176.16265 18.27788 
L 176.382407 19.039134 
L 176.712043 21.146039 
L 177.151557 25.578441 
L 177.810827 34.858087 
L 179.623822 61.867567 
L 180.118275 65.792685 
L 180.447911 67.010779 
L 180.667668 67.159919 
L 180.832485 66.920081 
L 181.052242 66.137149 
L 181.381878 64.009537 
L 181.821391 59.569158 
L 182.480662 50.302559 
L 184.293657 23.165806 
L 184.78811 19.101121 
L 185.117745 17.76395 
L 185.337502 17.526236 
L 185.50232 17.696071 
L 185.722077 18.382608 
L 186.051712 20.364084 
L 186.491226 24.621097 
L 187.150497 33.684629 
L 189.128309 62.893352 
L 189.622763 66.55046 
L 189.952398 67.600872 
L 190.117216 67.686602 
L 190.282033 67.476977 
L 190.50179 66.742981 
L 190.831426 64.703535 
L 191.27094 60.394595 
L 191.93021 51.299451 
L 193.853083 22.800285 
L 194.07284 21.909296 
L 194.182719 22.014244 
L 194.347537 22.813692 
L 194.622233 25.537651 
L 195.226564 34.649757 
L 195.748487 42.48 
M 195.748487 42.48 
L 195.748487 41.929219 
L 205.088157 42.48 
L 205.088157 42.48 
" clip-path="url(#p9e6c69b108)" style="fill: none; stroke: #ef553b; stroke-width: 0.75; stroke-linecap: square"/>
   </g>
   <g id="line2d_4">
    <path d="M 0 42.48 
L 0.659271 28.226989 
L 11.647117 28.226989 
L 12.306388 42.48 
M 12.306388 42.48 
L 14.284201 84.447137 
L 14.284201 84.447137 
L 16.262013 42.48 
M 195.748487 42.48 
L 197.67136 0.248898 
L 203.165283 0.248898 
L 205.088157 42.48 
" clip-path="url(#p9e6c69b108)" style="fill: none; stroke: #00cc96; stroke-width: 0.75; stroke-linecap: square"/>
   </g>
   <g id="line2d_5">
    <path d="M 0.662018 42.48 
L 0.771896 42.455955 
L 1.21141 42.346404 
L 1.321289 42.311116 
L 1.639936 42.201711 
L 1.749815 42.157695 
L 2.046486 42.046922 
L 2.156365 42.007338 
L 3.095826 42.115387 
L 3.205704 42.223093 
L 3.304595 42.331373 
L 3.403485 42.475855 
L 3.414473 42.467459 
L 3.485894 42.361343 
L 3.595773 42.150638 
L 3.650712 42.050546 
L 3.76059 41.794308 
L 3.810036 41.688455 
L 3.919914 41.389644 
L 3.963866 41.283519 
L 4.073744 40.946727 
L 4.112202 40.845693 
L 4.22208 40.476796 
L 4.260538 40.367376 
L 4.370416 39.9723 
L 4.40338 39.875788 
L 4.513258 39.462362 
L 4.546222 39.362374 
L 4.6561 38.938381 
L 4.689064 38.836876 
L 4.798942 38.410923 
L 4.831906 38.310029 
L 4.941784 37.891298 
L 4.974748 37.793246 
L 5.084626 37.391208 
L 5.11759 37.298262 
L 5.227468 36.922369 
L 5.265925 36.819825 
L 5.375804 36.480731 
L 5.419755 36.375211 
L 5.529634 36.083885 
L 5.579079 35.983589 
L 5.688958 35.750781 
L 5.754885 35.647436 
L 5.864763 35.487812 
L 5.985629 35.379843 
L 6.095508 35.325388 
L 6.397674 35.435085 
L 6.507552 35.572857 
L 6.584467 35.683486 
L 6.694346 35.900974 
L 6.749285 36.008084 
L 6.859163 36.288007 
L 6.903115 36.390039 
L 7.012993 36.719687 
L 7.051451 36.819825 
L 7.161329 37.188369 
L 7.199786 37.298262 
L 7.309665 37.696 
L 7.342628 37.793246 
L 7.452507 38.209506 
L 7.48547 38.310029 
L 7.595349 38.735319 
L 7.628312 38.836876 
L 7.738191 39.261936 
L 7.771155 39.362374 
L 7.881033 39.778465 
L 7.913997 39.875788 
L 8.023875 40.274952 
L 8.062332 40.385728 
L 8.172211 40.759963 
L 8.210668 40.862674 
L 8.320547 41.205792 
L 8.364498 41.314164 
L 8.474377 41.620032 
L 8.523822 41.728675 
L 8.6337 41.992408 
L 8.68864 42.095756 
L 8.798518 42.314072 
L 8.869939 42.424498 
L 8.902903 42.475855 
L 8.979818 42.366956 
L 9.073214 42.259098 
L 9.183093 42.14332 
L 9.336923 42.034593 
L 9.446801 41.978364 
L 10.380768 42.087761 
L 10.490647 42.132184 
L 10.787318 42.242126 
L 10.897197 42.282309 
L 11.276278 42.39337 
L 11.386156 42.422061 
L 11.64437 42.478279 
L 11.64437 42.48 
" clip-path="url(#p9e6c69b108)" style="fill: none; stroke: #ab63fa; stroke-width: 0.75; stroke-linecap: square"/>
   </g>
   <g id="legend_1">
    <g id="PathCollection_3">
     <g>
      <use xlink:href="#m8cf687d492" x="14" y="9.427" style="stroke: #000000; stroke-width: 0.1"/>
     </g>
    </g>
    <g id="text_1">
     <!-- $Stitching \ trigger$ -->
     <g transform="translate(24 12.052) scale(0.1 -0.1)">
      <defs>
       <path id="ArialMT-53" d="M 288 1472 
L 859 1522 
Q 900 1178 1048 958 
Q 1197 738 1509 602 
Q 1822 466 2213 466 
Q 2559 466 2825 569 
Q 3091 672 3220 851 
Q 3350 1031 3350 1244 
Q 3350 1459 3225 1620 
Q 3100 1781 2813 1891 
Q 2628 1963 1997 2114 
Q 1366 2266 1113 2400 
Q 784 2572 623 2826 
Q 463 3081 463 3397 
Q 463 3744 659 4045 
Q 856 4347 1234 4503 
Q 1613 4659 2075 4659 
Q 2584 4659 2973 4495 
Q 3363 4331 3572 4012 
Q 3781 3694 3797 3291 
L 3216 3247 
Q 3169 3681 2898 3903 
Q 2628 4125 2100 4125 
Q 1550 4125 1298 3923 
Q 1047 3722 1047 3438 
Q 1047 3191 1225 3031 
Q 1400 2872 2139 2705 
Q 2878 2538 3153 2413 
Q 3553 2228 3743 1945 
Q 3934 1663 3934 1294 
Q 3934 928 3725 604 
Q 3516 281 3123 101 
Q 2731 -78 2241 -78 
Q 1619 -78 1198 103 
Q 778 284 539 648 
Q 300 1013 288 1472 
z
" transform="scale(0.015625)"/>
       <path id="ArialMT-74" d="M 1650 503 
L 1731 6 
Q 1494 -44 1306 -44 
Q 1000 -44 831 53 
Q 663 150 594 308 
Q 525 466 525 972 
L 525 2881 
L 113 2881 
L 113 3319 
L 525 3319 
L 525 4141 
L 1084 4478 
L 1084 3319 
L 1650 3319 
L 1650 2881 
L 1084 2881 
L 1084 941 
Q 1084 700 1114 631 
Q 1144 563 1211 522 
Q 1278 481 1403 481 
Q 1497 481 1650 503 
z
" transform="scale(0.015625)"/>
       <path id="ArialMT-69" d="M 425 3934 
L 425 4581 
L 988 4581 
L 988 3934 
L 425 3934 
z
M 425 0 
L 425 3319 
L 988 3319 
L 988 0 
L 425 0 
z
" transform="scale(0.015625)"/>
       <path id="ArialMT-63" d="M 2588 1216 
L 3141 1144 
Q 3050 572 2676 248 
Q 2303 -75 1759 -75 
Q 1078 -75 664 370 
Q 250 816 250 1647 
Q 250 2184 428 2587 
Q 606 2991 970 3192 
Q 1334 3394 1763 3394 
Q 2303 3394 2647 3120 
Q 2991 2847 3088 2344 
L 2541 2259 
Q 2463 2594 2264 2762 
Q 2066 2931 1784 2931 
Q 1359 2931 1093 2626 
Q 828 2322 828 1663 
Q 828 994 1084 691 
Q 1341 388 1753 388 
Q 2084 388 2306 591 
Q 2528 794 2588 1216 
z
" transform="scale(0.015625)"/>
       <path id="ArialMT-68" d="M 422 0 
L 422 4581 
L 984 4581 
L 984 2938 
Q 1378 3394 1978 3394 
Q 2347 3394 2619 3248 
Q 2891 3103 3008 2847 
Q 3125 2591 3125 2103 
L 3125 0 
L 2563 0 
L 2563 2103 
Q 2563 2525 2380 2717 
Q 2197 2909 1863 2909 
Q 1613 2909 1392 2779 
Q 1172 2650 1078 2428 
Q 984 2206 984 1816 
L 984 0 
L 422 0 
z
" transform="scale(0.015625)"/>
       <path id="ArialMT-6e" d="M 422 0 
L 422 3319 
L 928 3319 
L 928 2847 
Q 1294 3394 1984 3394 
Q 2284 3394 2536 3286 
Q 2788 3178 2913 3003 
Q 3038 2828 3088 2588 
Q 3119 2431 3119 2041 
L 3119 0 
L 2556 0 
L 2556 2019 
Q 2556 2363 2490 2533 
Q 2425 2703 2258 2804 
Q 2091 2906 1866 2906 
Q 1506 2906 1245 2678 
Q 984 2450 984 1813 
L 984 0 
L 422 0 
z
" transform="scale(0.015625)"/>
       <path id="ArialMT-67" d="M 319 -275 
L 866 -356 
Q 900 -609 1056 -725 
Q 1266 -881 1628 -881 
Q 2019 -881 2231 -725 
Q 2444 -569 2519 -288 
Q 2563 -116 2559 434 
Q 2191 0 1641 0 
Q 956 0 581 494 
Q 206 988 206 1678 
Q 206 2153 378 2554 
Q 550 2956 876 3175 
Q 1203 3394 1644 3394 
Q 2231 3394 2613 2919 
L 2613 3319 
L 3131 3319 
L 3131 450 
Q 3131 -325 2973 -648 
Q 2816 -972 2473 -1159 
Q 2131 -1347 1631 -1347 
Q 1038 -1347 672 -1080 
Q 306 -813 319 -275 
z
M 784 1719 
Q 784 1066 1043 766 
Q 1303 466 1694 466 
Q 2081 466 2343 764 
Q 2606 1063 2606 1700 
Q 2606 2309 2336 2618 
Q 2066 2928 1684 2928 
Q 1309 2928 1046 2623 
Q 784 2319 784 1719 
z
" transform="scale(0.015625)"/>
       <path id="ArialMT-72" d="M 416 0 
L 416 3319 
L 922 3319 
L 922 2816 
Q 1116 3169 1280 3281 
Q 1444 3394 1641 3394 
Q 1925 3394 2219 3213 
L 2025 2691 
Q 1819 2813 1613 2813 
Q 1428 2813 1281 2702 
Q 1134 2591 1072 2394 
Q 978 2094 978 1738 
L 978 0 
L 416 0 
z
" transform="scale(0.015625)"/>
       <path id="ArialMT-65" d="M 2694 1069 
L 3275 997 
Q 3138 488 2766 206 
Q 2394 -75 1816 -75 
Q 1088 -75 661 373 
Q 234 822 234 1631 
Q 234 2469 665 2931 
Q 1097 3394 1784 3394 
Q 2450 3394 2872 2941 
Q 3294 2488 3294 1666 
Q 3294 1616 3291 1516 
L 816 1516 
Q 847 969 1125 678 
Q 1403 388 1819 388 
Q 2128 388 2347 550 
Q 2566 713 2694 1069 
z
M 847 1978 
L 2700 1978 
Q 2663 2397 2488 2606 
Q 2219 2931 1791 2931 
Q 1403 2931 1139 2672 
Q 875 2413 847 1978 
z
" transform="scale(0.015625)"/>
      </defs>
      <use xlink:href="#ArialMT-53" transform="translate(0 0.203125)"/>
      <use xlink:href="#ArialMT-74" transform="translate(66.699219 0.203125)"/>
      <use xlink:href="#ArialMT-69" transform="translate(94.482422 0.203125)"/>
      <use xlink:href="#ArialMT-74" transform="translate(116.699219 0.203125)"/>
      <use xlink:href="#ArialMT-63" transform="translate(144.482422 0.203125)"/>
      <use xlink:href="#ArialMT-68" transform="translate(194.482422 0.203125)"/>
      <use xlink:href="#ArialMT-69" transform="translate(250.097656 0.203125)"/>
      <use xlink:href="#ArialMT-6e" transform="translate(272.314453 0.203125)"/>
      <use xlink:href="#ArialMT-67" transform="translate(327.929688 0.203125)"/>
      <use xlink:href="#ArialMT-74" transform="translate(416.0153 0.203125)"/>
      <use xlink:href="#ArialMT-72" transform="translate(443.798503 0.203125)"/>
      <use xlink:href="#ArialMT-69" transform="translate(477.099285 0.203125)"/>
      <use xlink:href="#ArialMT-67" transform="translate(499.316082 0.203125)"/>
      <use xlink:href="#ArialMT-67" transform="translate(554.931316 0.203125)"/>
      <use xlink:href="#ArialMT-65" transform="translate(610.54655 0.203125)"/>
      <use xlink:href="#ArialMT-72" transform="translate(666.161785 0.203125)"/>
     </g>
    </g>
    <g id="PathCollection_4">
     <g>
      <use xlink:href="#m020838db9f" x="109" y="9.427" style="stroke: #000000; stroke-width: 0.1"/>
     </g>
    </g>
    <g id="text_2">
     <!-- $Standard \ trigger$ -->
     <g transform="translate(119 12.052) scale(0.1 -0.1)">
      <defs>
       <path id="ArialMT-61" d="M 2588 409 
Q 2275 144 1986 34 
Q 1697 -75 1366 -75 
Q 819 -75 525 192 
Q 231 459 231 875 
Q 231 1119 342 1320 
Q 453 1522 633 1644 
Q 813 1766 1038 1828 
Q 1203 1872 1538 1913 
Q 2219 1994 2541 2106 
Q 2544 2222 2544 2253 
Q 2544 2597 2384 2738 
Q 2169 2928 1744 2928 
Q 1347 2928 1158 2789 
Q 969 2650 878 2297 
L 328 2372 
Q 403 2725 575 2942 
Q 747 3159 1072 3276 
Q 1397 3394 1825 3394 
Q 2250 3394 2515 3294 
Q 2781 3194 2906 3042 
Q 3031 2891 3081 2659 
Q 3109 2516 3109 2141 
L 3109 1391 
Q 3109 606 3145 398 
Q 3181 191 3288 0 
L 2700 0 
Q 2613 175 2588 409 
z
M 2541 1666 
Q 2234 1541 1622 1453 
Q 1275 1403 1131 1340 
Q 988 1278 909 1158 
Q 831 1038 831 891 
Q 831 666 1001 516 
Q 1172 366 1500 366 
Q 1825 366 2078 508 
Q 2331 650 2450 897 
Q 2541 1088 2541 1459 
L 2541 1666 
z
" transform="scale(0.015625)"/>
       <path id="ArialMT-64" d="M 2575 0 
L 2575 419 
Q 2259 -75 1647 -75 
Q 1250 -75 917 144 
Q 584 363 401 755 
Q 219 1147 219 1656 
Q 219 2153 384 2558 
Q 550 2963 881 3178 
Q 1213 3394 1622 3394 
Q 1922 3394 2156 3267 
Q 2391 3141 2538 2938 
L 2538 4581 
L 3097 4581 
L 3097 0 
L 2575 0 
z
M 797 1656 
Q 797 1019 1065 703 
Q 1334 388 1700 388 
Q 2069 388 2326 689 
Q 2584 991 2584 1609 
Q 2584 2291 2321 2609 
Q 2059 2928 1675 2928 
Q 1300 2928 1048 2622 
Q 797 2316 797 1656 
z
" transform="scale(0.015625)"/>
      </defs>
      <use xlink:href="#ArialMT-53" transform="translate(0 0.203125)"/>
      <use xlink:href="#ArialMT-74" transform="translate(66.699219 0.203125)"/>
      <use xlink:href="#ArialMT-61" transform="translate(94.482422 0.203125)"/>
      <use xlink:href="#ArialMT-6e" transform="translate(150.097656 0.203125)"/>
      <use xlink:href="#ArialMT-64" transform="translate(205.712891 0.203125)"/>
      <use xlink:href="#ArialMT-61" transform="translate(261.328125 0.203125)"/>
      <use xlink:href="#ArialMT-72" transform="translate(316.943359 0.203125)"/>
      <use xlink:href="#ArialMT-64" transform="translate(350.244141 0.203125)"/>
      <use xlink:href="#ArialMT-74" transform="translate(438.329753 0.203125)"/>
      <use xlink:href="#ArialMT-72" transform="translate(466.112957 0.203125)"/>
      <use xlink:href="#ArialMT-69" transform="translate(499.413738 0.203125)"/>
      <use xlink:href="#ArialMT-67" transform="translate(521.630535 0.203125)"/>
      <use xlink:href="#ArialMT-67" transform="translate(577.245769 0.203125)"/>
      <use xlink:href="#ArialMT-65" transform="translate(632.861003 0.203125)"/>
      <use xlink:href="#ArialMT-72" transform="translate(688.476238 0.203125)"/>
     </g>
    </g>
   </g>
  </g>
 </g>
 <defs>
  <clipPath id="p9e6c69b108">
   <rect x="0" y="0" width="205.088157" height="84.96"/>
  </clipPath>
 </defs>
</svg>
