<?xml version="1.0" encoding="utf-8" standalone="no"?>
<!DOCTYPE svg PUBLIC "-//W3C//DTD SVG 1.1//EN"
  "http://www.w3.org/Graphics/SVG/1.1/DTD/svg11.dtd">
<svg xmlns:xlink="http://www.w3.org/1999/xlink" width="99.212598pt" height="51.023622pt" viewBox="0 0 99.212598 51.023622" xmlns="http://www.w3.org/2000/svg" version="1.1">
 <metadata>
  <rdf:RDF xmlns:dc="http://purl.org/dc/elements/1.1/" xmlns:cc="http://creativecommons.org/ns#" xmlns:rdf="http://www.w3.org/1999/02/22-rdf-syntax-ns#">
   <cc:Work>
    <dc:type rdf:resource="http://purl.org/dc/dcmitype/StillImage"/>
    <dc:date>2024-10-30T10:51:16.934061</dc:date>
    <dc:format>image/svg+xml</dc:format>
    <dc:creator>
     <cc:Agent>
      <dc:title>Matplotlib v3.8.4, https://matplotlib.org/</dc:title>
     </cc:Agent>
    </dc:creator>
   </cc:Work>
  </rdf:RDF>
 </metadata>
 <defs>
  <style type="text/css">*{stroke-linejoin: round; stroke-linecap: butt}</style>
 </defs>
 <g id="figure_1">
  <g id="patch_1">
   <path d="M 0 51.023622 
L 99.212598 51.023622 
L 99.212598 0 
L 0 0 
L 0 51.023622 
z
" style="fill: none"/>
  </g>
  <g id="axes_1">
   <g id="patch_2">
    <path d="M 0 51.023622 
L 99.212598 51.023622 
L 99.212598 -0 
L 0 -0 
L 0 51.023622 
z
" style="fill: none"/>
   </g>
   <g id="matplotlib.axis_1">
    <g id="xtick_1"/>
    <g id="xtick_2"/>
   </g>
   <g id="matplotlib.axis_2">
    <g id="ytick_1"/>
    <g id="ytick_2"/>
   </g>
   <g id="line2d_1">
    <path d="M 4.509664 31.469459 
L 4.624742 35.479204 
L 4.559427 29.224203 
L 4.637183 34.542621 
L 4.686946 28.600192 
L 4.73982 35.195944 
L 4.836237 48.29302 
L 4.886 42.737918 
L 5.060173 26.480526 
L 5.116156 21.077686 
L 5.156589 28.275957 
L 5.181471 34.353679 
L 5.234345 17.660073 
L 5.355643 2.319256 
L 5.383635 6.402829 
L 5.560918 46.334978 
L 5.616902 45.764385 
L 5.691547 47.604215 
L 5.72887 45.79949 
L 5.781744 44.819994 
L 5.903042 38.183052 
L 5.965247 41.567653 
L 6.021231 47.846229 
L 6.077214 41.816427 
L 6.15808 39.948291 
L 6.114537 42.603244 
L 6.186072 41.592208 
L 6.29493 45.90537 
L 6.310481 43.321755 
L 6.338473 39.368399 
L 6.406898 46.170764 
L 6.410008 46.426379 
L 6.44422 40.443032 
L 6.450441 40.221742 
L 6.478433 43.837164 
L 6.546858 45.794882 
L 6.57796 43.130913 
L 6.58418 43.36004 
L 6.658826 48.223296 
L 6.689928 43.371778 
L 6.705479 42.052014 
L 6.764573 45.195187 
L 6.795675 43.880773 
L 6.801896 43.777418 
L 6.808116 43.7067 
L 6.829888 44.702573 
L 6.926305 48.641269 
L 6.870321 44.060521 
L 6.988509 47.616313 
L 7.053824 44.871056 
L 7.15024 45.967326 
L 7.209335 48.40503 
L 7.271539 46.756574 
L 7.402168 38.563402 
L 7.439491 41.816026 
L 7.476813 47.250988 
L 7.588781 46.99689 
L 7.601222 46.869364 
L 7.650986 48.157341 
L 7.688308 47.409314 
L 7.71008 47.850902 
L 7.750513 46.380408 
L 7.772284 45.648534 
L 7.818938 47.976114 
L 7.85626 46.746297 
L 8.014882 43.514318 
L 8.030433 44.411416 
L 8.049094 46.265942 
L 8.13307 43.600588 
L 8.142401 43.477417 
L 8.173503 44.85477 
L 8.220156 44.231267 
L 8.238817 45.45555 
L 8.291691 44.180573 
L 8.329014 44.624489 
L 8.357006 42.098891 
L 8.394328 46.654207 
L 8.447202 43.486605 
L 8.55295 47.552044 
L 8.643146 46.885854 
L 8.664918 46.45894 
L 8.714681 47.977123 
L 8.745783 47.212145 
L 8.755114 47.128102 
L 8.764445 47.183869 
L 8.786216 47.989217 
L 8.84531 45.800643 
L 8.851531 45.858089 
L 8.951058 48.385746 
L 9.016372 47.509022 
L 9.277631 40.721166 
L 9.103459 47.883785 
L 9.308733 43.236146 
L 9.40204 48.193728 
L 9.430032 45.064088 
L 9.436252 44.778271 
L 9.489126 46.757962 
L 9.520228 45.826605 
L 9.538889 45.923464 
L 9.625976 48.659343 
L 9.657078 46.546968 
L 9.68507 45.613539 
L 9.747274 47.012993 
L 9.83125 48.565321 
L 9.881014 47.593878 
L 9.9681 46.808953 
L 9.912116 48.11642 
L 9.989871 47.629365 
L 10.098729 48.368504 
L 10.070737 47.311731 
L 10.11117 48.264096 
L 10.126721 48.647223 
L 10.139162 47.611183 
L 10.25424 44.777778 
L 10.269791 45.258084 
L 10.300893 46.756999 
L 10.353767 43.288417 
L 10.384869 42.033905 
L 10.425302 45.34431 
L 10.552821 48.644494 
L 10.465735 43.630874 
L 10.562152 48.294849 
L 10.652348 46.834549 
L 10.686561 47.748366 
L 10.702112 48.436635 
L 10.782977 46.992536 
L 10.842072 46.324874 
L 10.866953 47.352199 
L 10.932268 48.336516 
L 10.982031 47.828929 
L 10.991362 48.066402 
L 11.038015 46.336401 
L 11.047346 46.040146 
L 11.109551 47.71403 
L 11.118881 48.408247 
L 11.209078 47.100764 
L 11.355258 45.633128 
L 11.268172 47.977879 
L 11.358368 45.679137 
L 11.38947 46.361197 
L 11.417462 45.295427 
L 11.442344 44.697633 
L 11.485887 47.274356 
L 11.495218 48.40003 
L 11.535651 44.889238 
L 11.588524 46.033545 
L 11.594745 45.913695 
L 11.644508 47.580519 
L 11.681831 47.652332 
L 11.759587 48.234658 
L 11.722264 47.144322 
L 11.775138 47.373073 
L 11.843562 46.732549 
L 11.80624 47.924554 
L 11.865334 47.911855 
L 11.871554 48.193271 
L 11.896436 47.271169 
L 11.967971 47.42707 
L 11.974192 47.48874 
L 11.983522 47.305037 
L 11.999073 46.847333 
L 12.058168 48.559923 
L 12.076829 48.509867 
L 12.170136 47.739364 
L 12.08616 48.671566 
L 12.188797 48.266435 
L 12.195017 48.571155 
L 12.282103 46.940399 
L 12.288324 46.774424 
L 12.350528 48.179313 
L 12.403402 48.622922 
L 12.434504 47.803984 
L 12.443835 47.5197 
L 12.468717 48.480596 
L 12.534031 48.069956 
L 12.540252 48.276504 
L 12.599346 46.564315 
L 12.664661 42.858012 
L 12.733085 44.550646 
L 12.851274 48.177996 
L 12.876156 47.924965 
L 12.93836 48.562693 
L 12.969462 47.376229 
L 13.050328 46.765447 
L 13.006785 47.622813 
L 13.07832 47.415122 
L 13.249382 48.54159 
L 13.261823 48.046724 
L 13.380011 46.917822 
L 13.292925 48.53792 
L 13.392452 47.331491 
L 13.417334 48.611008 
L 13.463987 46.587543 
L 13.495089 47.321372 
L 13.51064 46.678987 
L 13.585286 48.273932 
L 13.700364 48.669409 
L 13.678592 47.986501 
L 13.703474 48.534077 
L 13.855875 46.500583 
L 13.871426 46.886662 
L 13.905638 48.520476 
L 13.964733 46.576828 
L 13.980284 46.787607 
L 14.036268 48.637236 
L 14.06737 46.63496 
L 14.123354 47.457402 
L 14.148236 47.815719 
L 14.170007 47.347912 
L 14.173117 47.347021 
L 14.176227 47.250152 
L 14.244652 48.440333 
L 14.257093 48.175835 
L 14.316187 48.315645 
L 14.337959 47.835156 
L 14.365951 47.059332 
L 14.400163 48.46108 
L 14.431266 48.439012 
L 14.474809 48.523626 
L 14.515241 48.077086 
L 14.530793 48.157354 
L 14.543233 47.813535 
L 14.608548 48.591793 
L 14.64276 48.111848 
L 14.711185 46.944317 
L 14.757839 47.878751 
L 14.7765 48.244513 
L 14.848035 47.238005 
L 14.879137 46.704991 
L 14.947562 47.37982 
L 14.956893 47.296359 
L 14.963113 47.198956 
L 15.003546 47.840936 
L 15.015987 48.305697 
L 15.103073 47.26236 
L 15.106183 47.308853 
L 15.233702 45.055796 
L 15.149726 47.344006 
L 15.264805 45.353334 
L 15.267915 45.31335 
L 15.302127 46.27637 
L 15.308348 46.262329 
L 15.317678 46.476899 
L 15.401654 48.620329 
L 15.364332 46.464954 
L 15.438977 47.149664 
L 15.445197 46.995155 
L 15.47941 48.361618 
L 15.519843 47.625803 
L 15.560275 47.132811 
L 15.641141 48.484325 
L 15.644251 48.493822 
L 15.659802 48.187562 
L 15.706456 47.3731 
L 15.759329 48.444147 
L 15.76555 48.593981 
L 15.830865 47.804904 
L 15.846416 47.744973 
L 15.90862 48.377684 
L 15.91484 48.545002 
L 15.949053 47.652767 
L 16.001927 47.983552 
L 16.117005 47.771216 
L 16.057911 48.458918 
L 16.120115 47.775314 
L 16.176099 48.597503 
L 16.210311 47.601269 
L 16.232083 47.805053 
L 16.272516 47.087297 
L 16.297398 48.417722 
L 16.322279 48.642084 
L 16.400035 47.964671 
L 16.47779 48.624722 
L 16.493341 47.847895 
L 16.602199 45.891625 
L 16.61775 46.560986 
L 16.701726 48.658953 
L 16.661293 45.961488 
L 16.742159 47.89801 
L 16.801253 47.959914 
L 16.813694 47.352597 
L 16.832355 46.720326 
L 16.885229 48.427922 
L 16.913221 47.769626 
L 16.953654 47.481725 
L 16.987866 48.302969 
L 16.997197 48.265655 
L 17.059401 48.117653 
L 17.018969 48.448355 
L 17.071842 48.395856 
L 17.074953 48.438752 
L 17.102945 47.7975 
L 17.149598 48.002538 
L 17.202472 47.850561 
L 17.224243 48.413341 
L 17.242904 48.281315 
L 17.298888 48.619609 
L 17.280227 48.136216 
L 17.348652 48.289184 
L 17.423297 47.88037 
L 17.376644 48.349346 
L 17.45751 48.238104 
L 17.46373 48.380935 
L 17.519714 47.418591 
L 17.538375 47.560159 
L 17.544596 47.428047 
L 17.60369 48.558883 
L 17.644123 47.704554 
L 17.700107 48.55503 
L 17.768532 48.082282 
L 17.8805 47.272491 
L 17.790303 48.589642 
L 17.908492 47.429575 
L 17.939594 48.162895 
L 17.983137 46.711984 
L 18.001798 45.935604 
L 18.079554 47.499163 
L 18.085774 47.256438 
L 18.101325 46.880351 
L 18.119987 48.027475 
L 18.185301 47.615751 
L 18.210183 47.156991 
L 18.228844 47.975644 
L 18.238175 48.520432 
L 18.266167 47.908334 
L 18.340812 48.19375 
L 18.406127 47.196632 
L 18.440339 48.262798 
L 18.508764 47.633745 
L 18.555417 48.448511 
L 18.58652 47.274723 
L 18.639393 48.521754 
L 18.664275 48.442246 
L 18.766912 48.650632 
L 18.704708 48.247657 
L 18.773133 48.469666 
L 18.788684 48.20649 
L 18.807345 48.56312 
L 18.885101 48.382397 
L 18.950415 48.541827 
L 18.903762 48.204694 
L 18.981517 48.353545 
L 19.003289 47.56554 
L 19.065493 48.49737 
L 19.096596 48.14237 
L 19.109036 48.028399 
L 19.124588 48.097196 
L 19.227225 47.478078 
L 19.193012 48.243396 
L 19.239666 47.756312 
L 19.292539 48.387973 
L 19.336083 47.17627 
L 19.339193 47.168049 
L 19.354744 47.397163 
L 19.43561 47.907212 
L 19.454271 47.315242 
L 19.553798 46.551106 
L 19.504034 48.510881 
L 19.566239 46.976158 
L 19.684427 48.601983 
L 19.696868 48.375782 
L 19.731081 47.703223 
L 19.799505 48.503324 
L 19.808836 48.309718 
L 19.883481 47.750459 
L 19.905253 48.444178 
L 19.992339 48.673277 
L 19.930135 47.734123 
L 20.00478 48.212644 
L 20.023441 47.705779 
L 20.098086 48.328408 
L 20.119858 47.952132 
L 20.306471 48.661861 
L 20.322022 48.387938 
L 20.362455 47.937015 
L 20.340684 48.626171 
L 20.418439 48.518302 
L 20.43088 48.680146 
L 20.455762 48.055245 
L 20.514856 48.268368 
L 20.536627 47.786461 
L 20.580171 48.488155 
L 20.651706 47.922527 
L 20.766784 48.636472 
L 20.72013 47.787006 
L 20.779225 48.165695 
L 20.900523 46.987426 
L 20.810327 48.636169 
L 20.916074 47.248425 
L 20.931625 47.666648 
L 20.99383 45.97941 
L 21.031152 47.414743 
L 21.112018 48.567684 
L 21.084026 47.37537 
L 21.155561 47.798484 
L 21.177333 47.028725 
L 21.245758 48.682409 
L 21.261309 48.041428 
L 21.289301 48.680312 
L 21.332844 47.732099 
L 21.345285 47.485364 
L 21.41371 48.357653 
L 21.41682 48.349438 
L 21.432371 48.59494 
L 21.500796 47.895395 
L 21.553669 47.539348 
L 21.587882 48.297365 
L 21.615874 48.616625 
L 21.646976 47.965902 
L 21.69985 48.354952 
L 21.740283 47.826532 
L 21.777605 48.538892 
L 21.786936 48.463901 
L 21.886463 48.601525 
L 21.827369 47.97021 
L 21.889573 48.499291 
L 22.004651 47.734448 
L 22.010872 47.923087 
L 22.088627 48.369813 
L 22.104178 47.91567 
L 22.12284 48.066898 
L 22.172603 46.90043 
L 22.216146 48.231727 
L 22.225477 48.230352 
L 22.259689 48.457183 
L 22.297012 47.678563 
L 22.303232 47.757903 
L 22.371657 48.406673 
L 22.424531 47.364822 
L 22.455633 46.993003 
L 22.480515 47.57478 
L 22.583152 48.275835 
L 22.520948 47.009363 
L 22.595593 47.821415 
L 22.611144 47.361837 
L 22.69201 48.32478 
L 22.720002 48.167932 
L 22.738663 48.44636 
L 22.782206 48.68146 
L 22.813309 48.061359 
L 22.844411 48.271352 
L 22.906615 47.533165 
L 22.863072 48.649373 
L 22.947048 48.327343 
L 22.96882 48.64218 
L 22.993701 48.238282 
L 23.059016 48.464907 
L 23.071457 48.67136 
L 23.096339 48.213546 
L 23.130551 48.252545 
L 23.142992 48.114093 
L 23.167874 48.680872 
L 23.233188 48.31872 
L 23.289172 48.572197 
L 23.332715 48.043835 
L 23.348266 47.671989 
L 23.422912 48.622049 
L 23.438463 48.356737 
L 23.466455 48.614903 
L 23.485116 48.273123 
L 23.500667 48.33578 
L 23.615745 47.792217 
L 23.572202 48.620179 
L 23.621966 47.80825 
L 23.752595 48.529871 
L 23.699721 47.692663 
L 23.761926 48.392077 
L 23.867673 47.768569 
L 23.814799 48.562947 
L 23.883224 48.221834 
L 23.898775 48.612727 
L 23.926767 47.576081 
L 23.988972 47.897433 
L 24.020074 47.662321 
L 24.051176 48.211251 
L 24.097829 47.925059 
L 24.116491 47.499699 
L 24.181805 48.037771 
L 24.203577 47.835014 
L 24.209797 48.00215 
L 24.272002 46.565269 
L 24.309324 47.702634 
L 24.318655 47.343673 
L 24.38708 48.087595 
L 24.411962 47.91551 
L 24.52393 48.515322 
L 24.439954 47.906714 
L 24.539481 48.385484 
L 24.558142 48.491064 
L 24.595465 47.819692 
L 24.607906 47.961806 
L 24.639008 47.387769 
L 24.707433 48.434169 
L 24.803849 48.615902 
L 24.729204 48.020705 
L 24.81318 48.434866 
L 24.909597 47.94333 
L 24.831841 48.525462 
L 24.925148 48.354478 
L 25.018455 47.801472 
L 24.95936 48.635224 
L 25.030895 48.317459 
L 25.034006 48.400078 
L 25.049557 48.088777 
L 25.130423 48.142855 
L 25.139753 47.945893 
L 25.217509 48.393943 
L 25.23928 48.153781 
L 25.289044 48.668903 
L 25.329477 47.965915 
L 25.348138 48.355911 
L 25.37613 48.460697 
L 25.469436 47.657286 
L 25.575184 48.562782 
L 25.481877 47.653972 
L 25.603176 47.896482 
L 25.634278 47.312093 
L 25.693372 48.062771 
L 25.721364 47.776347 
L 25.736915 48.309734 
L 25.80223 47.040573 
L 25.830222 47.739744 
L 25.858214 48.616153 
L 25.917308 47.484508 
L 25.920418 47.491597 
L 25.923529 47.428033 
L 25.960851 48.284394 
L 26.007505 47.874389 
L 26.144354 48.56335 
L 26.072819 47.846864 
L 26.147464 48.557605 
L 26.23144 47.694466 
L 26.156795 48.62133 
L 26.278094 48.108274 
L 26.340298 48.54603 
L 26.383841 48.156396 
L 26.408723 48.027434 
L 26.461597 48.535165 
L 26.486478 48.450955 
L 26.564234 48.674728 
L 26.545573 48.269667 
L 26.595336 48.390324 
L 26.679312 48.687896 
L 26.617108 48.240943 
L 26.713525 48.573044 
L 26.775729 48.178576 
L 26.750847 48.634787 
L 26.825492 48.468052 
L 26.834823 48.648026 
L 26.887697 47.83434 
L 26.93124 48.247537 
L 26.93435 48.241739 
L 26.953011 48.425741 
L 26.962342 48.351809 
L 27.07431 48.542912 
L 27.055649 48.093676 
L 27.07742 48.519818 
L 27.117853 48.129836 
L 27.083641 48.59447 
L 27.186278 48.503393 
L 27.189388 48.568514 
L 27.20805 48.199066 
L 27.279585 48.230605 
L 27.372891 47.501907 
L 27.316907 48.251938 
L 27.394663 48.159729 
L 27.403993 48.2799 
L 27.400883 48.149474 
L 27.407104 48.230983 
L 27.416434 48.518872 
L 27.453757 47.5938 
L 27.506631 47.906911 
L 27.515961 47.972681 
L 27.534623 47.407541 
L 27.537733 47.3372 
L 27.593717 48.443176 
L 27.596827 48.585053 
L 27.64037 47.05719 
L 27.696354 48.116487 
L 27.743007 48.666907 
L 27.711905 48.030979 
L 27.805212 48.155045 
L 27.876747 47.463287 
L 27.833204 48.407246 
L 27.901629 48.276952 
L 27.907849 48.54651 
L 28.007376 48.088609 
L 28.026037 47.871747 
L 28.094462 48.383056 
L 28.113124 48.114069 
L 28.125564 48.486881 
L 28.156667 48.02652 
L 28.228202 48.299608 
L 28.318398 47.941686 
L 28.34639 48.135673 
L 28.361941 48.578907 
L 28.427256 47.688398 
L 28.452138 48.213642 
L 28.458358 48.03823 
L 28.526783 48.663833 
L 28.554775 48.479462 
L 28.6232 48.264423 
L 28.672963 48.670739 
L 28.797372 47.730048 
L 28.700955 48.679589 
L 28.890679 48.087975 
L 28.900009 48.458866 
L 28.990206 47.731596 
L 28.999536 47.664493 
L 29.024418 48.195761 
L 29.030638 48.129269 
L 29.133276 48.627719 
L 29.092843 47.298604 
L 29.145717 48.344738 
L 29.282566 46.939671 
L 29.295007 47.376109 
L 29.413196 48.404651 
L 29.422526 48.108896 
L 29.506502 47.68891 
L 29.47851 48.438334 
L 29.528274 48.183609 
L 29.602919 48.669252 
L 29.568707 47.801141 
L 29.640242 48.305427 
L 29.643352 48.317119 
L 29.662013 47.994448 
L 29.665123 47.945972 
L 29.736658 48.514069 
L 29.739769 48.442611 
L 29.742879 48.48232 
L 29.820634 48.130163 
L 29.867288 47.833298 
L 29.907721 48.476202 
L 29.913941 48.526633 
L 29.957484 48.119185 
L 29.960594 48.13847 
L 29.976145 48.023577 
L 30.025909 48.68332 
L 30.03524 48.568645 
L 30.03835 48.657783 
L 30.075672 47.940813 
L 30.137877 48.394407 
L 30.221853 47.994067 
L 30.172089 48.562554 
L 30.252955 48.336345 
L 30.296498 48.440002 
L 30.274726 48.125451 
L 30.355592 48.324726 
L 30.424017 47.867178 
L 30.392915 48.455892 
L 30.46134 48.332364 
L 30.514213 48.602132 
L 30.542205 48.104539 
L 30.567087 48.22771 
L 30.654173 47.880768 
L 30.6013 48.532069 
L 30.675945 48.240662 
L 30.685276 48.671887 
L 30.769251 47.980403 
L 30.778582 48.012489 
L 30.794133 47.933772 
L 30.843897 48.296296 
L 30.862558 48.217019 
L 30.874999 48.67925 
L 30.909211 47.717997 
L 30.968306 48.071112 
L 31.046061 48.507901 
L 31.086494 47.844591 
L 31.102045 47.586084 
L 31.182911 48.084818 
L 31.257556 48.584893 
L 31.204682 47.96651 
L 31.301099 48.483754 
L 31.391295 48.677668 
L 31.350863 47.863459 
L 31.397516 48.335446 
L 31.409957 47.733713 
L 31.487712 48.641275 
L 31.503263 48.469347 
L 31.512594 48.577049 
L 31.528145 47.812926 
L 31.540586 47.52693 
L 31.571688 48.383272 
L 31.605901 48.158496 
L 31.658774 48.542231 
L 31.717869 48.466209 
L 31.767632 47.981864 
L 31.817396 48.545709 
L 31.920033 48.694835 
L 31.87649 48.263282 
L 31.923143 48.576509 
L 32.010229 48.006732 
L 32.044442 48.223013 
L 32.119087 48.685859 
L 32.212394 48.435385 
L 32.231055 48.155423 
L 32.252826 48.531578 
L 32.321251 48.403959 
L 32.339913 48.595719 
L 32.399007 48.216286 
L 32.430109 48.398256 
L 32.498534 47.781082 
L 32.538967 48.331914 
L 32.610502 48.607811 
L 32.573179 48.018471 
L 32.647824 48.235756 
L 32.675816 48.592383 
L 32.703808 47.8235 
L 32.753572 48.168684 
L 32.849989 47.959877 
L 32.815776 48.464363 
L 32.86243 48.183805 
L 32.87487 48.465371 
L 32.899752 47.563222 
L 32.971287 48.070605 
L 32.983728 47.912643 
L 33.021051 48.468539 
L 33.080145 48.111216 
L 33.105027 48.017704 
L 33.133019 48.453672 
L 33.170341 47.68123 
L 33.248097 48.7009 
L 33.375616 47.721853 
L 33.388057 48.121044 
L 33.43782 48.465872 
L 33.475143 47.980288 
L 33.484474 48.059042 
L 33.537347 47.826771 
L 33.57156 48.35552 
L 33.658646 48.573179 
L 33.643095 48.292374 
L 33.686638 48.524376 
L 33.773724 48.30889 
L 33.71774 48.677257 
L 33.801716 48.453684 
L 33.823488 48.635746 
L 33.867031 47.950886 
L 33.910574 48.395557 
L 33.988329 48.604903 
L 34.025652 48.294562 
L 34.047423 48.129582 
L 34.081636 48.542786 
L 34.087856 48.601776 
L 34.14695 48.261988 
L 34.162502 48.311327 
L 34.181163 48.199756 
L 34.221596 48.455538 
L 34.258918 48.414843 
L 34.324233 48.533931 
L 34.293131 48.184686 
L 34.361556 48.192525 
L 34.433091 48.080804 
L 34.380217 48.450244 
L 34.454862 48.324318 
L 34.470413 48.690963 
L 34.538838 48.272489 
L 34.573051 48.466008 
L 34.70368 47.656986 
L 34.70679 47.70831 
L 34.737892 47.275153 
L 34.756554 47.88944 
L 34.772105 48.547618 
L 34.837419 47.408328 
L 34.865411 47.777622 
L 34.880962 47.653836 
L 34.890293 47.89778 
L 34.902734 48.551121 
L 34.924505 47.789256 
L 35.002261 48.231886 
L 35.055135 47.689491 
L 35.108008 48.28506 
L 35.114229 48.16599 
L 35.117339 48.15225 
L 35.142221 48.463114 
L 35.176433 48.625566 
L 35.213756 48.232269 
L 35.244858 48.310285 
L 35.297732 47.829459 
L 35.325724 48.420759 
L 35.363046 48.614554 
L 35.41281 47.873838 
L 35.41592 47.826937 
L 35.484345 48.363362 
L 35.490566 48.331598 
L 35.518557 48.42177 
L 35.537219 48.101572 
L 35.593203 48.244608 
L 35.636746 48.182282 
L 35.720722 47.82876 
L 35.664738 48.427343 
L 35.748714 48.028208 
L 35.776706 48.571454 
L 35.876233 48.423672 
L 35.907335 48.178117 
L 35.960209 48.632577 
L 35.98509 48.397732 
L 36.072177 48.696795 
L 35.991311 48.385608 
L 36.11572 48.605382 
L 36.153042 48.311678 
L 36.224577 48.666008 
L 36.289892 47.918903 
L 36.370758 48.186081 
L 36.39564 48.63261 
L 36.467175 47.948091 
L 36.473395 48.022318 
L 36.495167 47.684702 
L 36.520048 48.076055 
L 36.582253 48.014543 
L 36.650678 48.628339 
L 36.604024 47.969486 
L 36.697331 48.159348 
L 36.747094 47.855489 
L 36.765756 48.297629 
L 36.818629 47.897779 
L 36.883944 48.664033 
L 36.927487 47.797451 
L 36.999022 48.502208 
L 37.011463 48.66106 
L 37.042565 47.968956 
L 37.095439 48.441655 
L 37.170084 48.152232 
L 37.145203 48.517477 
L 37.210517 48.226145 
L 37.235399 48.327129 
L 37.306934 48.030677 
L 37.316265 48.135985 
L 37.325595 47.949268 
L 37.39402 48.582598 
L 37.39713 48.538346 
L 37.415792 48.643289 
L 37.428233 48.34341 
L 37.496657 47.677309 
L 37.53398 48.471789 
L 37.561972 48.375793 
L 37.549531 48.613509 
L 37.574413 48.611915 
L 37.583744 48.638622 
L 37.617956 48.311371 
L 37.649058 48.396682 
L 37.748585 47.981413 
L 37.658389 48.500635 
L 37.773467 48.33892 
L 37.879215 48.64801 
L 37.792128 48.329778 
L 37.891655 48.541222 
L 37.975631 48.291803 
L 37.935198 48.645938 
L 38.003623 48.485749 
L 38.012954 48.651687 
L 38.10315 48.224126 
L 38.106261 48.33416 
L 38.134253 48.077235 
L 38.177796 48.607397 
L 38.212008 48.353812 
L 38.292874 48.631684 
L 38.267992 48.199679 
L 38.320866 48.349893 
L 38.327086 48.311003 
L 38.392401 48.64386 
L 38.395511 48.632256 
L 38.404842 48.670715 
L 38.429723 48.23367 
L 38.470156 48.423647 
L 38.600786 47.369144 
L 38.482597 48.656062 
L 38.619447 47.934954 
L 38.647439 48.632386 
L 38.765627 48.391219 
L 38.768737 48.264991 
L 38.837162 48.696236 
L 38.874485 48.467411 
L 38.902477 47.985182 
L 38.977122 48.590068 
L 38.980232 48.619181 
L 39.020665 48.057822 
L 39.061098 47.836799 
L 39.08598 48.484286 
L 39.123303 48.293295 
L 39.160625 48.010003 
L 39.241491 48.612461 
L 39.303695 48.118271 
L 39.353459 48.535098 
L 39.474757 48.237917 
L 39.37523 48.635226 
L 39.484088 48.322407 
L 39.51519 48.668893 
L 39.602276 48.581749 
L 39.726685 48.080697 
L 39.732906 48.109491 
L 39.785779 48.681076 
L 39.857314 48.480385 
L 39.93818 48.26133 
L 39.916409 48.512317 
L 39.966172 48.463667 
L 40.07503 48.690722 
L 39.994164 48.451309 
L 40.084361 48.682857 
L 40.21188 48.140743 
L 40.295855 48.606065 
L 40.239872 47.981583 
L 40.336288 48.237822 
L 40.423375 47.999317 
L 40.395383 48.503361 
L 40.451366 48.083802 
L 40.479358 47.954962 
L 40.50113 48.471777 
L 40.516681 48.379806 
L 40.526012 48.695559 
L 40.600657 47.992849 
L 40.625539 48.311132 
L 40.64109 48.494086 
L 40.656641 48.023977 
L 40.715735 47.920757 
L 40.687743 48.634872 
L 40.753058 48.159869 
L 40.759278 48.312852 
L 40.78416 47.737299 
L 40.858805 48.026211 
L 40.883687 48.63623 
L 40.908569 47.918427 
L 40.976994 48.093488 
L 40.980104 48.080738 
L 41.001875 48.447014 
L 41.014316 48.39018 
L 41.048529 48.531826 
L 41.076521 48.073738 
L 41.092072 47.875195 
L 41.148056 48.56026 
L 41.160497 48.371575 
L 41.172938 48.523358 
L 41.20093 48.096106 
L 41.263134 48.262328 
L 41.297346 48.491565 
L 41.337779 48.048435 
L 41.371992 47.958888 
L 41.403094 48.319781 
L 41.434196 48.187661 
L 41.49018 48.474344 
L 41.530613 48.012646 
L 41.543054 48.17157 
L 41.561715 47.978234 
L 41.577266 48.449771 
L 41.583487 48.596208 
L 41.645691 48.169276 
L 41.683014 48.397812 
L 41.695455 48.203245 
L 41.757659 48.517157 
L 41.788761 48.456772 
L 41.863406 48.599909 
L 41.835414 48.334562 
L 41.894509 48.367826 
L 41.91006 48.270027 
L 41.956713 48.648812 
L 42.000256 48.474022 
L 42.071791 48.346465 
L 42.028248 48.59789 
L 42.099783 48.530065 
L 42.19931 48.687576 
L 42.171318 48.214936 
L 42.205531 48.613593 
L 42.261515 48.204274 
L 42.320609 48.394956 
L 42.417026 48.579268 
L 42.370372 48.047244 
L 42.426356 48.372172 
L 42.441907 47.972273 
L 42.47612 48.402029 
L 42.538324 48.323495 
L 42.600529 48.507258 
L 42.6223 47.688873 
L 42.62541 47.662234 
L 42.668953 48.208575 
L 42.796472 48.597897 
L 42.749819 48.030157 
L 42.799583 48.538368 
L 42.861787 47.740537 
L 42.917771 48.365988 
L 42.955094 48.220879 
L 42.983086 48.440726 
L 42.992416 48.629666 
L 43.079502 48.216946 
L 43.085723 48.252784 
L 43.088833 48.154614 
L 43.107494 48.623201 
L 43.19147 48.396374 
L 43.244344 47.851385 
L 43.216352 48.432314 
L 43.300328 48.411564 
L 43.309659 48.559793 
L 43.356312 48.201399 
L 43.374973 48.276925 
L 43.384304 48.081004 
L 43.440288 48.692227 
L 43.477611 48.508739 
L 43.61446 48.044155 
L 43.561587 48.677328 
L 43.623791 48.055615 
L 43.654893 48.425639 
L 43.707767 47.956981 
L 43.741979 48.182231 
L 43.819735 48.667713 
L 43.797963 48.136756 
L 43.866388 48.313364 
L 43.869498 48.277893 
L 43.919262 48.636731 
L 43.950364 48.561405 
L 43.984576 48.676921 
L 44.025009 48.389095 
L 44.053001 48.428319 
L 44.124536 48.637987 
L 44.105875 48.253141 
L 44.143198 48.371938 
L 44.146308 48.309716 
L 44.183631 48.656927 
L 44.248945 48.464282 
L 44.301819 48.503091 
L 44.286268 48.007885 
L 44.326701 48.24881 
L 44.336031 48.036763 
L 44.376464 48.667435 
L 44.432448 48.412672 
L 44.475991 48.690357 
L 44.45422 48.256728 
L 44.541306 48.394143 
L 44.587959 47.974387 
L 44.566188 48.649268 
L 44.637723 48.489871 
L 44.643943 48.663974 
L 44.662604 48.042011 
L 44.73725 48.09001 
L 44.783903 48.624344 
L 44.852328 47.898077 
L 44.976737 48.687084 
L 45.045162 48.356609 
L 45.048272 48.345558 
L 45.066933 48.675322 
L 45.070043 48.696671 
L 45.129137 48.386622 
L 45.222444 48.103859 
L 45.178901 48.399608 
L 45.247326 48.208428 
L 45.337522 48.632251 
L 45.371735 48.430692 
L 45.405947 48.060803 
L 45.44327 48.470803 
L 45.483703 48.37363 
L 45.536576 48.631683 
L 45.58634 48.3045 
L 45.636103 48.059639 
L 45.651654 48.475755 
L 45.695197 48.302929 
L 45.794725 48.688671 
L 45.73563 48.163912 
L 45.813386 48.59554 
L 45.884921 48.380296 
L 45.916023 48.576699 
L 45.919133 48.704366 
L 45.984448 48.395424 
L 46.024881 48.541845 
L 46.049763 48.66857 
L 46.090195 48.346639 
L 46.130628 48.451231 
L 46.214604 48.637475 
L 46.245706 48.32283 
L 46.270588 48.154488 
L 46.311021 48.56596 
L 46.339013 48.423642 
L 46.354564 48.671544 
L 46.385666 48.083193 
L 46.44165 48.249845 
L 46.447871 48.112121 
L 46.478973 48.692917 
L 46.547398 48.394812 
L 46.562949 48.55957 
L 46.603382 47.869499 
L 46.643815 48.231684 
L 46.814877 47.334882 
L 46.674917 48.541411 
L 46.827318 47.788147 
L 46.898853 48.651552 
L 46.942396 48.084616 
L 46.945506 48.084178 
L 47.041923 48.550506 
L 47.013931 48.059916 
L 47.060584 48.341378 
L 47.157001 48.591389 
L 47.132119 48.071821 
L 47.184993 48.536266 
L 47.197434 48.575755 
L 47.237867 48.412668 
L 47.268969 48.41199 
L 47.2783 48.420583 
L 47.28141 48.297683 
L 47.28452 48.319615 
L 47.343614 48.538489 
L 47.412039 47.886849 
L 47.57066 48.685415 
L 47.607983 48.165832 
L 47.70751 48.277726 
L 47.800816 48.541723 
L 47.735502 47.99637 
L 47.825698 48.425583 
L 47.8568 48.191689 
L 47.922115 48.6493 
L 47.928335 48.527899 
L 47.956327 48.604951 
L 47.98743 48.409961 
L 48.002981 48.0656 
L 48.055855 48.604226 
L 48.096287 48.449716 
L 48.12739 48.703087 
L 48.149161 48.368189 
L 48.202035 48.453734 
L 48.264239 48.306057 
L 48.220696 48.580215 
L 48.295341 48.576458 
L 48.366877 48.685687 
L 48.320223 48.235048 
L 48.401089 48.513365 
L 48.42286 48.617432 
L 48.457073 48.393608 
L 48.547269 47.998836 
L 48.488175 48.631703 
L 48.569041 48.203281 
L 48.615694 48.584882 
L 48.69656 48.531321 
L 48.811638 47.826053 
L 48.820969 48.024885 
L 48.920496 48.629979 
L 48.942267 48.429529 
L 49.044904 48.142618 
L 48.995141 48.439369 
L 49.057345 48.353153 
L 49.076007 48.681589 
L 49.11955 48.040822 
L 49.163093 48.29029 
L 49.231518 48.087152 
L 49.250179 48.623802 
L 49.275061 48.235379 
L 49.281281 48.162379 
L 49.334155 48.628912 
L 49.362147 48.53443 
L 49.39947 48.376115 
L 49.371478 48.545418 
L 49.40258 48.383884 
L 49.461674 47.829313 
L 49.502107 48.576675 
L 49.663838 48.17288 
L 49.567421 48.631495 
L 49.68561 48.254418 
L 49.757145 48.568814 
L 49.704271 48.040831 
L 49.782027 48.134291 
L 49.785137 48.051854 
L 49.82246 48.413641 
L 49.890884 48.178829 
L 49.909546 47.978037 
L 50.021514 48.631694 
L 50.133482 48.26539 
L 50.043285 48.69366 
L 50.142812 48.529692 
L 50.145922 48.595483 
L 50.226788 48.146923 
L 50.25167 48.506658 
L 50.344976 48.68872 
L 50.25789 48.471426 
L 50.372968 48.56856 
L 50.491157 48.31511 
L 50.463165 48.696077 
L 50.494267 48.348512 
L 50.615566 48.626301 
L 50.525369 48.312152 
L 50.628006 48.601207 
L 50.662219 48.294647 
L 50.68088 48.673098 
L 50.752415 48.436114 
L 50.783518 48.674653 
L 50.851942 48.42377 
L 50.864383 48.479709 
L 50.914147 48.631284 
L 50.951469 48.185542 
L 50.95769 48.242237 
L 51.023004 47.756135 
L 50.985682 48.292882 
L 51.069658 48.131709 
L 51.169185 48.6456 
L 51.085209 48.096036 
L 51.190956 48.380489 
L 51.309145 48.080738 
L 51.215838 48.50018 
L 51.321586 48.184793 
L 51.374459 48.678542 
L 51.436664 48.313161 
L 51.52375 48.511123 
L 51.480207 47.748485 
L 51.52997 48.273204 
L 51.542411 48.030069 
L 51.623277 48.608951 
L 51.632608 48.603448 
L 51.772567 47.833066 
L 51.66682 48.668456 
L 51.788119 48.084738 
L 51.834772 48.623676 
L 51.906307 48.270494 
L 51.918748 48.06589 
L 51.977842 48.63607 
L 51.999614 48.481342 
L 52.068038 48.58393 
L 52.0867 48.373057 
L 52.111581 48.530924 
L 52.130243 48.684172 
L 52.167565 48.459216 
L 52.223549 48.553832 
L 52.323076 47.982805 
L 52.245321 48.613875 
L 52.341738 48.259208 
L 52.447485 48.671989 
L 52.463036 48.561214 
L 52.559453 48.676371 
L 52.491028 48.401609 
L 52.575004 48.626634 
L 52.680752 48.337104 
L 52.618547 48.661563 
L 52.696303 48.541529 
L 52.708744 48.65694 
L 52.733625 48.302529 
L 52.786499 48.373197 
L 52.882916 48.237377 
L 52.823822 48.660701 
L 52.892247 48.497499 
L 53.013545 48.694039 
L 52.929569 48.274058 
L 53.016655 48.62496 
L 53.103742 47.723237 
L 53.162836 47.817412 
L 53.165946 47.7962 
L 53.187718 48.311613 
L 53.197048 48.686015 
L 53.293465 48.124699 
L 53.305906 48.275162 
L 53.383661 48.615999 
L 53.343229 48.117554 
L 53.411653 48.202067 
L 53.430315 47.989148 
L 53.483189 48.634332 
L 53.520511 48.124997 
L 53.573385 48.641786 
L 53.64803 48.455138 
L 53.707124 48.213279 
L 53.691573 48.604397 
L 53.756888 48.469442 
L 53.759998 48.585214 
L 53.831533 47.639027 
L 53.868856 48.552595 
L 53.949722 48.641229 
L 53.899958 48.308725 
L 53.965273 48.396431 
L 54.033697 48.122634 
L 54.005705 48.620558 
L 54.07413 48.434975 
L 54.086571 48.564844 
L 54.095902 48.360333 
L 54.145665 48.427722 
L 54.232752 48.110656 
L 54.170547 48.656587 
L 54.263854 48.204946 
L 54.335389 48.639171 
L 54.382042 48.378231 
L 54.385152 48.331132 
L 54.431806 48.586863 
L 54.484679 48.456676 
L 54.512671 48.598825 
L 54.574876 48.396738 
L 54.593537 48.545246 
L 54.652631 48.699 
L 54.705505 48.416636 
L 54.721056 48.369354 
L 54.820583 48.638729 
L 54.91389 48.224653 
L 54.836134 48.674855 
L 54.935661 48.480253 
L 55.019637 48.627141 
L 54.966763 48.357009 
L 55.047629 48.569965 
L 55.147156 48.645159 
L 55.075621 48.372377 
L 55.153377 48.588916 
L 55.265345 48.255381 
L 55.212471 48.626236 
L 55.268455 48.3416 
L 55.308888 48.662232 
L 55.352431 48.220364 
L 55.380423 48.431569 
L 55.464399 47.925604 
L 55.492391 48.36467 
L 55.532824 48.095395 
L 55.585697 48.613997 
L 55.607469 48.270993 
L 55.660343 48.624856 
L 55.682114 48.205286 
L 55.716327 48.326504 
L 55.812743 48.099928 
L 55.738098 48.52212 
L 55.825184 48.357664 
L 55.955813 48.671827 
L 56.036679 48.409062 
L 56.067781 48.554941 
L 56.080222 48.668972 
L 56.136206 47.934031 
L 56.148647 48.002543 
L 56.157978 47.954342 
L 56.18286 48.447387 
L 56.276166 48.655782 
L 56.217072 48.141249 
L 56.294827 48.534535 
L 56.301048 48.6872 
L 56.366362 48.099266 
L 56.403685 48.523672 
L 56.434787 47.9957 
L 56.537425 48.201751 
L 56.580968 48.495509 
L 56.552976 48.191725 
L 56.664944 48.44463 
L 56.683605 48.166833 
L 56.75514 48.654214 
L 56.770691 48.536148 
L 56.795573 48.264692 
L 56.882659 48.525235 
L 56.919982 48.688811 
L 56.963525 48.406695 
L 56.985296 48.466738 
L 57.03817 48.692706 
L 57.100374 48.256882 
L 57.218563 48.616594 
L 57.286988 48.692725 
L 57.243445 48.395856 
L 57.302539 48.51945 
L 57.31809 48.280592 
L 57.398956 48.679851 
L 57.411396 48.450758 
L 57.436278 48.677327 
L 57.504703 48.363322 
L 57.526475 48.581228 
L 57.532695 48.516149 
L 57.629112 48.020685 
L 57.566907 48.597904 
L 57.650883 48.147861 
L 57.660214 47.997555 
L 57.709978 48.638604 
L 57.74108 48.525193 
L 57.825056 48.055434 
L 57.856158 48.493006 
L 57.862378 48.539952 
L 57.909032 47.890488 
L 57.946354 48.366688 
L 57.974346 48.065274 
L 58.045881 48.472885 
L 58.058322 48.278434 
L 58.188951 48.682646 
L 58.095645 48.185628 
L 58.210723 48.472307 
L 58.325801 48.115589 
L 58.260487 48.666192 
L 58.341352 48.234241 
L 58.45021 48.672477 
L 58.459541 48.553815 
L 58.475092 48.269832 
L 58.503084 48.678225 
L 58.571509 48.456514 
L 58.649264 48.670483 
L 58.608831 48.35513 
L 58.683476 48.482568 
L 58.764342 48.156081 
L 58.792334 48.474727 
L 58.817216 48.650727 
L 58.891861 48.38673 
L 58.901192 48.47786 
L 58.907412 48.399536 
L 58.932294 48.6927 
L 59.01316 48.425467 
L 59.056703 48.646752 
L 59.087805 48.30771 
L 59.125128 48.506658 
L 59.15934 48.441269 
L 59.196663 48.687047 
L 59.230875 48.54656 
L 59.243316 48.681716 
L 59.289969 48.355458 
L 59.339733 48.598519 
L 59.417488 48.252516 
L 59.454811 48.486424 
L 59.482803 48.670662 
L 59.532567 48.329075 
L 59.569889 48.653496 
L 59.672526 48.272243 
L 59.625873 48.693428 
L 59.684967 48.42866 
L 59.800045 48.688468 
L 59.778274 48.403648 
L 59.818707 48.583425 
L 59.896462 48.332751 
L 59.86225 48.629547 
L 59.933785 48.441223 
L 59.946226 48.689599 
L 59.983548 48.280511 
L 60.036422 48.368806 
L 60.135949 47.917537 
L 60.061304 48.647881 
L 60.1515 48.195903 
L 60.216815 48.617342 
L 60.266578 48.583542 
L 60.272799 48.639643 
L 60.297681 48.276556 
L 60.331893 48.319426 
L 60.341224 48.197577 
L 60.378546 48.526589 
L 60.4252 48.485897 
L 60.437641 48.675379 
L 60.506065 48.05831 
L 60.518506 48.156866 
L 60.534057 48.117174 
L 60.583821 48.571328 
L 60.586931 48.694002 
L 60.624254 48.361187 
L 60.689568 48.442992 
L 60.695789 48.373186 
L 60.770434 48.57636 
L 60.785985 48.556784 
L 60.801536 48.650747 
L 60.829528 48.397317 
L 60.879292 48.464057 
L 60.957047 48.353008 
L 60.907284 48.592066 
L 60.988149 48.518726 
L 60.99748 48.617408 
L 61.084566 48.339835 
L 61.156101 48.677421 
L 61.115669 48.310723 
L 61.224526 48.608671 
L 61.28362 48.678885 
L 61.361376 48.260928 
L 61.460903 48.633026 
L 61.373817 48.126716 
L 61.464013 48.587764 
L 61.476454 48.695678 
L 61.492005 48.452705 
L 61.575981 48.643223 
L 61.603973 48.669193 
L 61.644406 48.401186 
L 61.659957 48.539864 
L 61.681729 48.34695 
L 61.691059 48.076886 
L 61.737713 48.612943 
L 61.793696 48.2955 
L 61.871452 48.669336 
L 61.927436 48.63022 
L 61.98342 48.46861 
L 61.942987 48.68786 
L 62.039404 48.567388 
L 62.13271 48.168465 
L 62.163813 48.46363 
L 62.201135 48.655642 
L 62.260229 48.399673 
L 62.322434 48.071849 
L 62.337985 48.527224 
L 62.365977 48.508718 
L 62.459284 48.637535 
L 62.400189 47.977685 
L 62.468614 48.381211 
L 62.490386 47.863358 
L 62.5557 48.645565 
L 62.583692 48.159055 
L 62.664558 48.596927 
L 62.69566 48.223067 
L 62.698771 48.142322 
L 62.739203 48.659604 
L 62.792077 48.565712 
L 62.857392 48.643494 
L 62.83562 48.422902 
L 62.882274 48.483116 
L 62.944478 48.120203 
L 62.910265 48.635311 
L 62.997352 48.442989 
L 63.037785 48.641707 
L 63.016013 48.323787 
L 63.099989 48.413255 
L 63.11554 48.34934 
L 63.155973 48.695992 
L 63.171524 48.636797 
L 63.174634 48.687106 
L 63.2555 48.348201 
L 63.280382 48.622736 
L 63.283492 48.624994 
L 63.289712 48.504021 
L 63.295933 48.340391 
L 63.342586 48.625378 
L 63.39857 48.54224 
L 63.417231 48.397223 
L 63.451444 48.688209 
L 63.507428 48.513279 
L 63.582073 48.6384 
L 63.54164 48.394327 
L 63.625616 48.582433 
L 63.638057 48.438037 
L 63.712702 48.659665 
L 63.740694 48.506661 
L 63.830891 48.700305 
L 63.787348 48.467286 
L 63.855772 48.638147 
L 63.949079 48.489439 
L 63.914867 48.681336 
L 63.96463 48.653094 
L 64.042386 48.418827 
L 63.973961 48.687116 
L 64.070378 48.660683 
L 64.089039 48.699053 
L 64.148133 48.499497 
L 64.166794 48.536694 
L 64.213448 48.351082 
L 64.272542 48.677214 
L 64.415612 48.327498 
L 64.424943 48.365674 
L 64.508919 48.677273 
L 64.543131 48.534575 
L 64.614666 48.635734 
L 64.564903 48.409293 
L 64.655099 48.553759 
L 64.770177 48.179017 
L 64.66443 48.684867 
L 64.795059 48.248346 
L 64.832381 47.833205 
L 64.854153 48.368661 
L 64.903917 48.292326 
L 64.916357 48.117318 
L 64.981672 48.615214 
L 65.006554 48.466806 
L 65.074979 48.65996 
L 65.09364 48.283031 
L 65.09675 48.214447 
L 65.137183 48.613295 
L 65.196277 48.428981 
L 65.199387 48.442065 
L 65.214939 48.042308 
L 65.218049 48.057649 
L 65.221159 48.038109 
L 65.246041 48.574814 
L 65.252261 48.656899 
L 65.283363 48.379944 
L 65.354898 48.574914 
L 65.38289 48.643163 
L 65.389111 48.488617 
L 65.413993 48.187009 
L 65.482417 48.614383 
L 65.485528 48.642999 
L 65.547732 48.221473 
L 65.550842 48.162167 
L 65.644149 48.347003 
L 65.647259 48.337442 
L 65.718794 48.659339 
L 65.678361 48.318717 
L 65.759227 48.482966 
L 65.765447 48.334568 
L 65.793439 48.598852 
L 65.874305 48.410902 
L 65.93962 48.699738 
L 65.986273 48.530029 
L 66.011155 48.299899 
L 66.067139 48.668257 
L 66.095131 48.563063 
L 66.148005 48.680959 
L 66.166666 48.406442 
L 66.169776 48.427517 
L 66.22265 48.331489 
L 66.259972 48.608796 
L 66.263083 48.606998 
L 66.266193 48.687453 
L 66.347059 48.292454 
L 66.36883 48.572216 
L 66.424814 48.393121 
L 66.403043 48.674246 
L 66.474578 48.580914 
L 66.477688 48.662876 
L 66.546113 48.388657 
L 66.583435 48.613252 
L 66.65186 48.470782 
L 66.661191 48.65079 
L 66.695403 48.5903 
L 66.7856 48.6928 
L 66.763828 48.343421 
L 66.79493 48.56538 
L 66.810481 48.209622 
L 66.894457 48.663535 
L 66.900678 48.619095 
L 66.906898 48.694458 
L 66.997095 48.333697 
L 67.000205 48.421732 
L 67.07796 47.931071 
L 67.018866 48.509894 
L 67.105952 48.432045 
L 67.22103 48.662696 
L 67.146385 48.036401 
L 67.230361 48.550862 
L 67.245912 48.312983 
L 67.323668 48.634207 
L 67.345439 48.344458 
L 67.395203 48.578662 
L 67.429415 48.272993 
L 67.451187 48.354118 
L 67.457407 48.200929 
L 67.485399 48.695138 
L 67.556934 48.414425 
L 67.566265 48.672212 
L 67.622249 48.253647 
L 67.665792 48.436067 
L 67.675123 48.427875 
L 67.684453 48.62207 
L 67.700004 48.598089 
L 67.762209 48.259666 
L 67.805752 48.6679 
L 67.827523 48.234802 
L 67.886618 48.684495 
L 67.92083 48.333313 
L 68.026577 48.653516 
L 68.039018 48.620206 
L 68.101223 48.286836 
L 68.147876 48.512436 
L 68.231852 48.678757 
L 68.259844 48.577704 
L 68.275395 48.415173 
L 68.287836 48.67505 
L 68.378032 48.428998 
L 68.508662 48.618953 
L 68.384253 48.417561 
L 68.539764 48.463314 
L 68.545984 48.292052 
L 68.608189 48.667115 
L 68.651732 48.418851 
L 68.760589 48.685282 
L 68.785471 48.64279 
L 68.850786 48.438572 
L 68.801022 48.665932 
L 68.900549 48.565118 
L 68.978305 48.697809 
L 69.000076 48.501578 
L 69.006297 48.508001 
L 69.034289 48.327338 
L 69.05606 48.665487 
L 69.115154 48.454913 
L 69.19913 48.665541 
L 69.168028 48.324236 
L 69.224012 48.485856 
L 69.33909 48.339042 
L 69.261335 48.682397 
L 69.342201 48.361432 
L 69.345311 48.323458 
L 69.363972 48.583492 
L 69.444838 48.417608 
L 69.488381 48.683047 
L 69.547475 48.384977 
L 69.550585 48.417944 
L 69.665663 48.188003 
L 69.61901 48.505698 
L 69.668774 48.211377 
L 69.793182 48.680659 
L 69.796293 48.601763 
L 69.830505 48.682414 
L 69.855387 48.446728 
L 69.870938 48.193586 
L 69.948693 48.642438 
L 69.967355 48.377358 
L 70.001567 48.687876 
L 70.060661 48.325727 
L 70.073102 48.35714 
L 70.076212 48.319294 
L 70.147748 48.677962 
L 70.17885 48.359956 
L 70.200621 48.557705 
L 70.250385 48.154629 
L 70.284597 48.258195 
L 70.300148 48.203737 
L 70.315699 48.575208 
L 70.405896 48.649545 
L 70.340581 48.347182 
L 70.418337 48.507331 
L 70.424557 48.375992 
L 70.446329 48.682464 
L 70.527194 48.506869 
L 70.623611 48.699835 
L 70.548966 48.422579 
L 70.642273 48.64961 
L 70.757351 48.540716 
L 70.720028 48.668287 
L 70.760461 48.555821 
L 70.766681 48.686017 
L 70.810224 48.553066 
L 70.872429 48.581978 
L 70.906641 48.312414 
L 70.956405 48.59504 
L 70.990617 48.452402 
L 71.046601 48.679702 
L 71.090144 48.286033 
L 71.093254 48.376043 
L 71.099475 48.280249 
L 71.152349 48.641006 
L 71.192781 48.541459 
L 71.258096 48.474563 
L 71.202112 48.661867 
L 71.295419 48.588582 
L 71.30786 48.685065 
L 71.335852 48.49197 
L 71.401166 48.543018 
L 71.429158 48.466009 
L 71.503803 48.669565 
L 71.510024 48.580845 
L 71.603331 48.693532 
L 71.625102 48.381725 
L 71.668645 48.62206 
L 71.687306 48.266198 
L 71.74018 48.539005 
L 71.845928 48.262551 
L 71.796164 48.678144 
L 71.870809 48.338424 
L 71.898801 48.658294 
L 71.970336 48.088293 
L 71.982777 48.440134 
L 72.038761 48.594724 
L 71.998328 48.204624 
L 72.066753 48.318571 
L 72.069864 48.270232 
L 72.138288 48.620849 
L 72.169391 48.44097 
L 72.259587 48.664277 
L 72.212934 48.244434 
L 72.290689 48.547951 
L 72.343563 48.256876 
L 72.365334 48.659904 
L 72.402657 48.451889 
L 72.477302 48.674412 
L 72.452421 48.269519 
L 72.520845 48.526097 
L 72.58305 48.366336 
L 72.542617 48.676875 
L 72.626593 48.583265 
L 72.632813 48.654373 
L 72.698128 48.354781 
L 72.72612 48.518419 
L 72.772773 48.268555 
L 72.822537 48.580049 
L 72.841198 48.452434 
L 72.878521 48.667071 
L 72.900292 48.349666 
L 72.956276 48.574462 
L 73.01226 48.363865 
L 72.978048 48.694352 
L 73.080685 48.457061 
L 73.102457 48.657889 
L 73.142889 48.414866 
L 73.198873 48.54639 
L 73.229976 48.426233 
L 73.205094 48.570641 
L 73.276629 48.557098 
L 73.373046 48.698351 
L 73.379266 48.526135 
L 73.382376 48.541488 
L 73.385487 48.477322 
L 73.485014 48.667735 
L 73.491234 48.58291 
L 73.537887 48.420932 
L 73.615643 48.67678 
L 73.70895 48.490265 
L 73.649855 48.684664 
L 73.730721 48.629304 
L 73.752493 48.69028 
L 73.848909 48.566446 
L 73.85513 48.643146 
L 73.904893 48.439197 
L 73.957767 48.524311 
L 74.032412 48.703587 
L 74.060404 48.473191 
L 74.066625 48.536044 
L 74.088396 48.36522 
L 74.103947 48.670583 
L 74.166152 48.596091 
L 74.215915 48.700372 
L 74.231466 48.36093 
L 74.234577 48.386804 
L 74.237687 48.295424 
L 74.290561 48.681241 
L 74.343434 48.394102 
L 74.452292 48.638054 
L 74.439851 48.347969 
L 74.461623 48.481415 
L 74.480284 48.335512 
L 74.542488 48.645811 
L 74.56426 48.578588 
L 74.666897 48.639229 
L 74.638905 48.32873 
L 74.676228 48.625145 
L 74.775755 48.245479 
L 74.694889 48.678474 
L 74.794416 48.371498 
L 74.887723 48.682257 
L 74.816188 48.138936 
L 74.903274 48.321727 
L 74.934376 48.543317 
L 74.912605 48.222245 
L 75.018352 48.39891 
L 75.049454 48.136215 
L 75.092997 48.669447 
L 75.111659 48.514907 
L 75.117879 48.63598 
L 75.198745 48.002169 
L 75.201855 47.870285 
L 75.236068 48.540686 
L 75.301382 48.223814 
L 75.366697 48.57435 
L 75.316933 48.002839 
L 75.425791 48.369224 
L 75.432011 48.261416 
L 75.469334 48.582694 
L 75.531538 48.444039 
L 75.631065 48.682624 
L 75.562641 48.335904 
L 75.646617 48.496892 
L 75.743033 48.335343 
L 75.671498 48.688696 
L 75.752364 48.519729 
L 75.814568 48.680495 
L 75.774136 48.485424 
L 75.867442 48.566301 
L 75.935867 48.677313 
L 75.988741 48.412317 
L 76.032284 48.675478 
L 76.106929 48.669823 
L 76.222007 48.492539 
L 76.225118 48.506635 
L 76.333975 48.642993 
L 76.26244 48.376751 
L 76.337085 48.625483 
L 76.411731 48.425416 
L 76.442833 48.690481 
L 76.449053 48.598969 
L 76.452164 48.698246 
L 76.480156 48.453231 
L 76.557911 48.561469 
L 76.632556 48.661282 
L 76.613895 48.394383 
L 76.660548 48.612 
L 76.666769 48.429634 
L 76.716532 48.697865 
L 76.769406 48.61817 
L 76.840941 48.335953 
L 76.778737 48.670468 
L 76.893815 48.527008 
L 76.909366 48.609082 
L 76.924917 48.396084 
L 76.940468 48.435476 
L 76.949799 48.344204 
L 76.990232 48.668766 
L 77.039995 48.548854 
L 77.11153 48.688394 
L 77.127081 48.191851 
L 77.136412 48.258992 
L 77.214168 48.676124 
L 77.257711 48.521644 
L 77.291923 48.282629 
L 77.347907 48.672084 
L 77.372789 48.324605 
L 77.441214 48.696556 
L 77.490977 48.539283 
L 77.590504 48.332036 
L 77.512749 48.62141 
L 77.609165 48.47896 
L 77.702472 48.623411 
L 77.652709 48.284723 
L 77.714913 48.393908 
L 77.718023 48.295616 
L 77.761566 48.575549 
L 77.823771 48.444405 
L 77.945069 48.684896 
L 77.991723 48.386698 
L 77.973061 48.694159 
L 78.057037 48.670483 
L 78.150344 48.285178 
L 78.184556 48.539087 
L 78.190777 48.628548 
L 78.249871 48.445528 
L 78.290304 48.467 
L 78.442704 48.69281 
L 78.455145 48.666133 
L 78.542231 48.496954 
L 78.51735 48.695168 
L 78.564003 48.669857 
L 78.567113 48.674533 
L 78.585775 48.575383 
L 78.610656 48.580285 
L 78.710183 48.445353 
L 78.691522 48.634479 
L 78.719514 48.508847 
L 78.80971 48.698545 
L 78.828372 48.492218 
L 78.831482 48.539851 
L 78.899907 48.689278 
L 78.934119 48.493685 
L 78.94345 48.623185 
L 79.055418 48.476177 
L 79.011875 48.69193 
L 79.058528 48.589824 
L 79.170496 48.681054 
L 79.08963 48.396054 
L 79.173606 48.680193 
L 79.214039 48.531395 
L 79.201598 48.692129 
L 79.294905 48.589664 
L 79.37577 48.66264 
L 79.313566 48.469623 
L 79.391322 48.506431 
L 79.493959 48.325174 
L 79.434865 48.681955 
L 79.503289 48.463903 
L 79.528171 48.654903 
L 79.581045 48.376682 
L 79.590376 48.40054 
L 79.621478 48.314848 
L 79.680572 48.631604 
L 79.683682 48.582914 
L 79.780099 48.69738 
L 79.702344 48.330096 
L 79.79876 48.618936 
L 79.879626 48.415037 
L 79.864075 48.645889 
L 79.913839 48.482975 
L 79.93872 48.661113 
L 79.997814 48.324961 
L 80.022696 48.420528 
L 80.066239 48.679558 
L 80.041358 48.376172 
L 80.131554 48.391679 
L 80.150215 48.173276 
L 80.187538 48.661505 
L 80.234191 48.484038 
L 80.243522 48.675398 
L 80.274624 48.128665 
L 80.339939 48.297655 
L 80.346159 48.234281 
L 80.405253 48.659741 
L 80.417694 48.558669 
L 80.458127 48.286603 
L 80.542103 48.681471 
L 80.607418 48.378073 
L 80.654071 48.570889 
L 80.747377 48.677354 
L 80.716275 48.456241 
L 80.766039 48.591188 
L 80.806472 48.69309 
L 80.843794 48.482909 
L 80.878007 48.653311 
L 80.909109 48.442478 
L 80.974424 48.679009 
L 80.993085 48.600976 
L 80.996195 48.673671 
L 81.077061 48.483058 
L 81.098832 48.567551 
L 81.111273 48.420919 
L 81.145486 48.673989 
L 81.20769 48.552573 
L 81.313438 48.661166 
L 81.304107 48.4665 
L 81.319658 48.617878 
L 81.428516 48.524329 
L 81.391193 48.698994 
L 81.431626 48.574462 
L 81.450287 48.691939 
L 81.521822 48.436546 
L 81.543594 48.630583 
L 81.664892 48.485543 
L 81.587137 48.688887 
L 81.668003 48.562305 
L 81.748868 48.680101 
L 81.683554 48.500283 
L 81.764419 48.551302 
L 81.76753 48.420425 
L 81.839065 48.683965 
L 81.873277 48.581093 
L 81.963474 48.653659 
L 81.90749 48.34082 
L 81.985245 48.639028 
L 82.05367 48.402518 
L 82.087882 48.682739 
L 82.097213 48.599904 
L 82.19363 48.380701 
L 82.206071 48.534154 
L 82.212291 48.676439 
L 82.280716 48.374488 
L 82.318039 48.594633 
L 82.386463 48.214239 
L 82.426896 48.6503 
L 82.47355 48.275447 
L 82.548195 48.436209 
L 82.569966 48.680106 
L 82.594848 48.288407 
L 82.660163 48.51934 
L 82.691265 48.677983 
L 82.719257 48.435247 
L 82.769021 48.529667 
L 82.797013 48.29021 
L 82.821894 48.619088 
L 82.880988 48.493131 
L 82.912091 48.312465 
L 82.890319 48.539309 
L 82.933862 48.509097 
L 82.974295 48.695187 
L 83.04272 48.453634 
L 83.080043 48.674313 
L 83.04894 48.406239 
L 83.160908 48.520396 
L 83.269766 48.459698 
L 83.173349 48.676136 
L 83.272876 48.508557 
L 83.32886 48.677877 
L 83.297758 48.416393 
L 83.403505 48.630231 
L 83.406616 48.48859 
L 83.443938 48.666989 
L 83.515473 48.533223 
L 83.627441 48.687686 
L 83.540355 48.452881 
L 83.642992 48.667662 
L 83.711417 48.682842 
L 83.658543 48.52355 
L 83.723858 48.529938 
L 83.767401 48.478647 
L 83.742519 48.651868 
L 83.770511 48.577709 
L 83.876259 48.69318 
L 83.786062 48.527532 
L 83.882479 48.641545 
L 83.960235 48.669453 
L 83.944684 48.519282 
L 83.985117 48.613397 
L 84.103305 48.390557 
L 84.050431 48.703817 
L 84.106415 48.453001 
L 84.215273 48.680637 
L 84.230824 48.608671 
L 84.333461 48.462798 
L 84.280587 48.697838 
L 84.342792 48.592273 
L 84.383225 48.678332 
L 84.361453 48.525627 
L 84.45476 48.633894 
L 84.529405 48.503498 
L 84.492082 48.693117 
L 84.572948 48.517923 
L 84.656924 48.652776 
L 84.610271 48.42606 
L 84.681806 48.470727 
L 84.778223 48.199871 
L 84.753341 48.549897 
L 84.796884 48.306999 
L 84.868419 48.698064 
L 84.924403 48.668879 
L 84.999048 48.421241 
L 85.045702 48.545662 
L 85.095465 48.668761 
L 85.148339 48.411356 
L 85.154559 48.58937 
L 85.257197 48.312495 
L 85.198102 48.687341 
L 85.272748 48.454264 
L 85.294519 48.659784 
L 85.328732 48.167714 
L 85.387826 48.568602 
L 85.471802 48.281211 
L 85.431369 48.611904 
L 85.537116 48.401758 
L 85.621092 48.698376 
L 85.577549 48.3783 
L 85.664635 48.607831 
L 85.73306 48.374525 
L 85.754832 48.623705 
L 85.782824 48.46866 
L 85.792154 48.34807 
L 85.820146 48.58051 
L 85.826367 48.691783 
L 85.885461 48.454552 
L 85.929004 48.642916 
L 85.932114 48.525873 
L 85.953886 48.69933 
L 86.037862 48.687688 
L 86.068964 48.478698 
L 86.15294 48.60075 
L 86.15605 48.670653 
L 86.202703 48.469418 
L 86.258687 48.561244 
L 86.29912 48.517568 
L 86.342663 48.692233 
L 86.367545 48.572427 
L 86.44219 48.496681 
L 86.420419 48.700465 
L 86.467072 48.612802 
L 86.566599 48.684764 
L 86.519946 48.437197 
L 86.57904 48.648286 
L 86.613253 48.652714 
L 86.588371 48.512028 
L 86.616363 48.521758 
L 86.631914 48.471936 
L 86.669236 48.664245 
L 86.687898 48.635481 
L 86.71278 48.69037 
L 86.759433 48.53446 
L 86.796755 48.622708 
L 86.812307 48.486309 
L 86.824747 48.418176 
L 86.843409 48.665293 
L 86.914944 48.604038 
L 86.924275 48.548635 
L 86.958487 48.580245 
L 87.011361 48.461053 
L 87.042463 48.691736 
L 87.067345 48.55793 
L 87.176202 48.682817 
L 87.129549 48.429985 
L 87.182423 48.634441 
L 87.28195 48.25481 
L 87.257068 48.641274 
L 87.300611 48.471622 
L 87.397028 48.670328 
L 87.362816 48.353862 
L 87.409469 48.531118 
L 87.508996 48.279099 
L 87.477894 48.691552 
L 87.524547 48.413595 
L 87.642735 48.696848 
L 87.652066 48.653287 
L 87.754703 48.424597 
L 87.720491 48.6955 
L 87.779585 48.607449 
L 87.85112 48.686021 
L 87.866671 48.382521 
L 87.869781 48.253116 
L 87.891553 48.685757 
L 87.972419 48.518518 
L 88.075056 48.690524 
L 88.025292 48.352462 
L 88.084387 48.653715 
L 88.13415 48.411451 
L 88.165252 48.667216 
L 88.196355 48.52238 
L 88.202575 48.682593 
L 88.249228 48.46618 
L 88.308322 48.579309 
L 88.345645 48.672461 
L 88.392298 48.463007 
L 88.41407 48.525126 
L 88.504266 48.316149 
L 88.438952 48.688276 
L 88.538479 48.455009 
L 88.619344 48.683293 
L 88.656667 48.648346 
L 88.756194 48.451296 
L 88.771745 48.509394 
L 88.865052 48.696713 
L 88.787296 48.413989 
L 88.905485 48.542338 
L 88.952138 48.411991 
L 88.921036 48.618537 
L 89.011232 48.561631 
L 89.076547 48.686757 
L 89.064106 48.548957 
L 89.12631 48.625952 
L 89.176074 48.527053 
L 89.132531 48.688307 
L 89.235168 48.584416 
L 89.26316 48.687672 
L 89.297372 48.397804 
L 89.340915 48.558563 
L 89.359577 48.483659 
L 89.415561 48.682228 
L 89.443553 48.616748 
L 89.511978 48.699633 
L 89.53997 48.551759 
L 89.55241 48.62386 
L 89.564851 48.618997 
L 89.667489 48.35477 
L 89.642607 48.645647 
L 89.679929 48.45328 
L 89.701701 48.689629 
L 89.782567 48.368532 
L 89.801228 48.617974 
L 89.83544 48.492209 
L 89.888314 48.612594 
L 89.891424 48.697398 
L 89.913196 48.469433 
L 89.997172 48.564879 
L 90.000282 48.57801 
L 90.046935 48.309625 
L 90.068707 48.393658 
L 90.177565 48.177587 
L 90.10603 48.586231 
L 90.183785 48.310798 
L 90.242879 48.691216 
L 90.208667 48.281169 
L 90.314414 48.57617 
L 90.432603 48.347291 
L 90.354847 48.675672 
L 90.441933 48.387087 
L 90.494807 48.665208 
L 90.553901 48.429821 
L 90.597444 48.658549 
L 90.644098 48.255987 
L 90.668979 48.557346 
L 90.756066 48.689615 
L 90.737404 48.428781 
L 90.768506 48.582047 
L 90.840042 48.356442 
L 90.861813 48.60419 
L 90.877364 48.583478 
L 90.970671 48.49031 
L 90.945789 48.695257 
L 90.989332 48.588425 
L 90.992442 48.684049 
L 91.088859 48.36423 
L 91.091969 48.379693 
L 91.09819 48.359035 
L 91.10752 48.47927 
L 91.135512 48.661161 
L 91.166615 48.35591 
L 91.222599 48.640697 
L 91.300354 48.372568 
L 91.23815 48.678239 
L 91.337677 48.620051 
L 91.421653 48.699458 
L 91.37811 48.371158 
L 91.446534 48.637722 
L 91.502518 48.486049 
L 91.480747 48.665252 
L 91.558502 48.609754 
L 91.648699 48.536108 
L 91.570943 48.664681 
L 91.66425 48.63291 
L 91.66736 48.684839 
L 91.692242 48.545432 
L 91.769997 48.598969 
L 91.869524 48.444985 
L 91.785548 48.685761 
L 91.888186 48.536759 
L 91.978382 48.685466 
L 91.931729 48.487211 
L 91.997043 48.576053 
L 92.000154 48.50667 
L 92.09657 48.698568 
L 92.102791 48.635897 
L 92.164995 48.688315 
L 92.152554 48.513498 
L 92.192987 48.584559 
L 92.208538 48.43556 
L 92.23653 48.667708 
L 92.301845 48.628767 
L 92.304955 48.68854 
L 92.388931 48.472752 
L 92.407592 48.592112 
L 92.454246 48.494182 
L 92.50712 48.674387 
L 92.51334 48.665112 
L 92.51956 48.691882 
L 92.522671 48.583764 
L 92.528891 48.614988 
L 92.628418 48.34351 
L 92.566214 48.67298 
L 92.647079 48.429744 
L 92.65952 48.536381 
L 92.662631 48.525881 
L 92.743496 48.664149 
L 92.703063 48.410173 
L 92.780819 48.611443 
L 92.805701 48.257936 
L 92.889677 48.621307 
L 92.973653 48.34423 
L 92.954991 48.652541 
L 93.023416 48.465363 
L 93.132274 48.697475 
L 93.144715 48.645123 
L 93.191368 48.371972 
L 93.169596 48.666775 
L 93.266013 48.48862 
L 93.318887 48.700128 
L 93.371761 48.492641 
L 93.387312 48.372442 
L 93.437075 48.696195 
L 93.477508 48.592629 
L 93.511721 48.685875 
L 93.524161 48.509512 
L 93.527272 48.456922 
L 93.611248 48.696707 
L 93.629909 48.603268 
L 93.716995 48.38372 
L 93.63924 48.683152 
L 93.741877 48.550027 
L 93.813412 48.663451 
L 93.847624 48.447927 
L 93.962702 48.653642 
L 93.872506 48.22714 
L 93.984474 48.61482 
L 94.015576 48.473463 
L 94.043568 48.701067 
L 94.096442 48.590683 
L 94.130654 48.468277 
L 94.155536 48.694179 
L 94.2053 48.602569 
L 94.230181 48.6869 
L 94.248843 48.490257 
L 94.307937 48.544896 
L 94.311047 48.427493 
L 94.407464 48.684901 
L 94.413684 48.635672 
L 94.646951 48.620817 
L 94.693604 48.697864 
L 94.702935 48.563266 
L 94.702935 48.563266 
" clip-path="url(#p977622c4b1)" style="fill: none; stroke: #ff7f0e; stroke-width: 0.5; stroke-linecap: square"/>
   </g>
  </g>
 </g>
 <defs>
  <clipPath id="p977622c4b1">
   <rect x="0" y="-0" width="99.212598" height="51.023622"/>
  </clipPath>
 </defs>
</svg>
