<?xml version="1.0" encoding="utf-8" standalone="no"?>
<!DOCTYPE svg PUBLIC "-//W3C//DTD SVG 1.1//EN"
  "http://www.w3.org/Graphics/SVG/1.1/DTD/svg11.dtd">
<svg xmlns:xlink="http://www.w3.org/1999/xlink" width="99.212598pt" height="51.023622pt" viewBox="0 0 99.212598 51.023622" xmlns="http://www.w3.org/2000/svg" version="1.1">
 <metadata>
  <rdf:RDF xmlns:dc="http://purl.org/dc/elements/1.1/" xmlns:cc="http://creativecommons.org/ns#" xmlns:rdf="http://www.w3.org/1999/02/22-rdf-syntax-ns#">
   <cc:Work>
    <dc:type rdf:resource="http://purl.org/dc/dcmitype/StillImage"/>
    <dc:date>2024-10-30T10:51:19.267982</dc:date>
    <dc:format>image/svg+xml</dc:format>
    <dc:creator>
     <cc:Agent>
      <dc:title>Matplotlib v3.8.4, https://matplotlib.org/</dc:title>
     </cc:Agent>
    </dc:creator>
   </cc:Work>
  </rdf:RDF>
 </metadata>
 <defs>
  <style type="text/css">*{stroke-linejoin: round; stroke-linecap: butt}</style>
 </defs>
 <g id="figure_1">
  <g id="patch_1">
   <path d="M 0 51.023622 
L 99.212598 51.023622 
L 99.212598 0 
L 0 0 
L 0 51.023622 
z
" style="fill: none"/>
  </g>
  <g id="axes_1">
   <g id="patch_2">
    <path d="M 0 51.023622 
L 99.212598 51.023622 
L 99.212598 -0 
L 0 -0 
L 0 51.023622 
z
" style="fill: none"/>
   </g>
   <g id="matplotlib.axis_1">
    <g id="xtick_1"/>
    <g id="xtick_2"/>
   </g>
   <g id="matplotlib.axis_2">
    <g id="ytick_1"/>
    <g id="ytick_2"/>
   </g>
   <g id="line2d_1">
    <path d="M 4.509664 35.680536 
L 4.512774 35.906569 
L 4.556317 31.132413 
L 4.686946 2.319256 
L 4.73982 18.11661 
L 4.802024 44.749796 
L 4.895331 39.905677 
L 4.954425 46.226912 
L 4.997968 39.835293 
L 5.013519 38.675159 
L 5.069503 44.256327 
L 5.103716 47.552179 
L 5.16592 42.274319 
L 5.190802 41.041761 
L 5.231235 45.581281 
L 5.246786 48.13258 
L 5.324541 42.26496 
L 5.44584 24.341885 
L 5.377415 46.734394 
L 5.492493 35.219561 
L 5.532926 46.890087 
L 5.616902 41.311277 
L 5.641784 39.488312 
L 5.707098 43.50797 
L 5.778633 47.62847 
L 5.815956 43.538375 
L 5.843948 41.566066 
L 5.890601 46.855137 
L 5.968357 48.659888 
L 5.934144 45.322657 
L 5.983908 46.385824 
L 6.030561 47.272851 
L 6.114537 44.661556 
L 6.210954 43.444135 
L 6.15186 45.819069 
L 6.235836 44.244015 
L 6.260717 45.575602 
L 6.357134 44.718432 
L 6.363355 44.402964 
L 6.43178 46.51587 
L 6.456661 48.321144 
L 6.525086 45.751785 
L 6.537527 45.330015 
L 6.590401 48.640347 
L 6.605952 47.755003 
L 6.643275 48.540225 
L 6.615283 47.519067 
L 6.705479 47.631447 
L 6.767683 45.341654 
L 6.823667 47.225758 
L 6.885872 44.124537 
L 6.948076 46.350902 
L 7.041383 48.056727 
L 7.069375 46.987592 
L 7.206224 48.328162 
L 7.097367 46.65354 
L 7.218665 47.358153 
L 7.237327 46.536011 
L 7.318192 47.959856 
L 7.324413 47.710684 
L 7.327523 47.815486 
L 7.361735 45.52296 
L 7.364846 45.538012 
L 7.371066 45.211705 
L 7.408389 48.043403 
L 7.42394 47.504591 
L 7.483034 46.220591 
L 7.455042 48.069446 
L 7.501695 47.603035 
L 7.57012 48.548894 
L 7.532797 46.059266 
L 7.610553 47.508973 
L 7.71008 46.209253 
L 7.738072 46.748429 
L 7.766064 47.456762 
L 7.812717 46.073326 
L 7.85004 47.187029 
L 7.915355 45.094237 
L 7.958898 47.168523 
L 8.073976 48.618409 
L 8.039763 47.03046 
L 8.105078 48.510679 
L 8.210825 47.303091 
L 8.170393 48.610918 
L 8.223266 47.587664 
L 8.27303 48.520762 
L 8.307242 47.196061 
L 8.316573 46.758373 
L 8.344565 48.401942 
L 8.403659 48.265385 
L 8.465863 48.623154 
L 8.428541 47.349141 
L 8.515627 48.366229 
L 8.521847 48.46282 
L 8.528068 48.258729 
L 8.640036 45.531387 
L 8.574721 48.48077 
L 8.658697 46.46208 
L 8.664918 46.360372 
L 8.717791 48.049475 
L 8.733342 48.459485 
L 8.770665 46.85591 
L 8.776885 46.891921 
L 8.779996 46.736236 
L 8.860861 48.162281 
L 8.870192 48.559846 
L 8.904404 46.925491 
L 8.954168 47.374831 
L 9.044364 46.739499 
L 8.994601 48.530757 
L 9.063026 47.198279 
L 9.103459 48.104835 
L 9.181214 47.91638 
L 9.234088 46.72016 
L 9.190545 48.005493 
L 9.290072 47.730933 
L 9.296292 47.991975 
L 9.324284 46.612569 
L 9.392709 47.469547 
L 9.41137 46.831143 
L 9.501567 47.562114 
L 9.622865 48.404013 
L 9.54511 47.208851 
L 9.632196 47.915361 
L 9.653968 46.708585 
L 9.734833 48.672538 
L 9.877903 47.014569 
L 9.912116 47.914664 
L 10.036525 48.491477 
L 9.983651 47.71778 
L 10.042745 48.364389 
L 10.142272 47.432427 
L 10.089398 48.575986 
L 10.173374 47.640712 
L 10.195146 48.663597 
L 10.241799 47.526277 
L 10.285342 47.996178 
L 10.372428 47.095724 
L 10.335106 48.453229 
L 10.40042 47.639328 
L 10.450184 47.555704 
L 10.428412 48.12816 
L 10.468845 48.009562 
L 10.484396 48.590905 
L 10.512388 47.196796 
L 10.515498 47.210471 
L 10.518609 47.033865 
L 10.602585 48.38097 
L 10.611915 48.544166 
L 10.633687 47.789368 
L 10.705222 47.818294 
L 10.754985 46.492711 
L 10.882504 48.377243 
L 10.901166 48.180823 
L 10.978921 47.34106 
L 10.95404 48.197979 
L 11.031795 47.59323 
L 11.084669 48.512463 
L 11.149983 47.958739 
L 11.159314 47.27861 
L 11.224629 48.52556 
L 11.258841 48.002867 
L 11.308605 46.93971 
L 11.345927 48.171203 
L 11.377029 48.50721 
L 11.417462 47.391079 
L 11.457895 48.34784 
L 11.488997 47.193349 
L 11.541871 48.580128 
L 11.572973 48.065677 
L 11.641398 48.53036 
L 11.6725 47.517169 
L 11.681831 47.112901 
L 11.712933 48.194992 
L 11.781358 47.646764 
L 11.800019 48.448967 
L 11.856003 47.602753 
L 11.893326 48.009254 
L 11.896436 48.00476 
L 11.967971 48.649161 
L 11.999073 47.653437 
L 12.002184 47.755525 
L 12.027065 48.18199 
L 12.076829 47.72937 
L 12.114152 47.791702 
L 12.148364 47.145713 
L 12.185687 47.911191 
L 12.23234 47.408219 
L 12.294544 48.629517 
L 12.353639 48.521691 
L 12.478047 47.643406 
L 12.459386 48.568139 
L 12.481158 47.84046 
L 12.602456 48.645134 
L 12.605566 48.616641 
L 12.608677 48.62487 
L 12.621117 48.443366 
L 12.65533 47.245302 
L 12.733085 48.352453 
L 12.823282 47.242847 
L 12.79529 48.499285 
L 12.860604 47.833731 
L 12.897927 47.46045 
L 12.913478 48.05339 
L 12.919699 47.875546 
L 13.025446 48.676057 
L 12.997454 47.112099 
L 13.037887 48.374337 
L 13.096981 47.533174 
L 13.044107 48.497118 
L 13.162296 47.993708 
L 13.174737 48.511176 
L 13.212059 47.604836 
L 13.264933 47.818967 
L 13.36135 47.361761 
L 13.292925 48.302215 
L 13.37068 47.660978 
L 13.457767 48.523831 
L 13.479538 47.624791 
L 13.495089 47.216251 
L 13.532412 48.374759 
L 13.575955 48.057717 
L 13.678592 48.668399 
L 13.64127 47.377216 
L 13.687923 48.203218 
L 13.737686 47.417061 
L 13.694143 48.344896 
L 13.799891 48.06652 
L 13.893197 48.41328 
L 13.843434 47.479969 
L 13.902528 48.123127 
L 13.9243 47.708301 
L 13.939851 48.665757 
L 14.008276 48.364757 
L 14.014496 48.56224 
L 14.058039 47.716394 
L 14.092252 48.112624 
L 14.188668 47.592948 
L 14.148236 48.582939 
L 14.21044 47.769891 
L 14.266424 48.389861 
L 14.219771 47.744944 
L 14.328628 48.072216 
L 14.35662 47.735004 
L 14.341069 48.206053 
L 14.375282 48.156775 
L 14.387722 48.54616 
L 14.437486 46.81292 
L 14.484139 48.198103 
L 14.521462 47.107733 
L 14.561895 48.351318 
L 14.599217 47.705065 
L 14.736067 48.372502 
L 14.63343 47.165391 
L 14.739177 48.342643 
L 14.754728 47.845915 
L 14.785831 48.652894 
L 14.844925 48.433366 
L 14.910239 48.671389 
L 14.885358 47.902301 
L 14.950672 48.356942 
L 15.068861 47.499854 
L 15.034648 48.646265 
L 15.071971 47.546179 
L 15.134175 48.526525 
L 15.187049 48.056804 
L 15.295907 48.550904 
L 15.267915 47.649796 
L 15.302127 48.462446 
L 15.392324 47.358189 
L 15.361221 48.675629 
L 15.417205 48.165099 
L 15.420316 48.470116 
L 15.448307 47.85199 
L 15.522953 48.150483 
L 15.606929 47.408643 
L 15.572716 48.48015 
L 15.63181 48.060335 
L 15.672243 48.598524 
L 15.715786 47.479886 
L 15.725117 47.649416 
L 15.728227 47.423392 
L 15.812203 48.585457 
L 15.827754 48.19189 
L 15.830865 48.198645 
L 15.849526 48.686741 
L 15.924171 48.040889 
L 15.939722 48.264366 
L 15.986376 47.767236 
L 16.036139 48.480983 
L 16.0548 48.076474 
L 16.070351 48.602244 
L 16.101454 47.492951 
L 16.166768 48.231207 
L 16.18854 48.643329 
L 16.247634 47.741316 
L 16.263185 47.88996 
L 16.303618 47.641596 
L 16.3285 48.356282 
L 16.359602 48.165758 
L 16.440468 48.590629 
L 16.47468 48.288605 
L 16.564876 47.561133 
L 16.530664 48.666024 
L 16.595979 47.850134 
L 16.602199 47.74771 
L 16.648852 48.323086 
L 16.670624 48.229085 
L 16.679955 48.599326 
L 16.723498 47.953591 
L 16.776371 48.156334 
L 16.782592 47.818059 
L 16.829245 48.651063 
L 16.885229 48.21955 
L 16.987866 48.602808 
L 16.931882 47.707159 
L 16.997197 48.362169 
L 17.102945 47.72728 
L 17.071842 48.61725 
L 17.118496 47.774808 
L 17.205582 48.157622 
L 17.158929 47.171463 
L 17.230464 47.942154 
L 17.329991 47.703403 
L 17.286448 48.421143 
L 17.339321 47.93672 
L 17.423297 48.369734 
L 17.373534 47.719442 
L 17.441959 47.924705 
L 17.448179 47.497425 
L 17.504163 48.517305 
L 17.550816 48.12054 
L 17.625462 47.938879 
L 17.60369 48.534568 
L 17.650343 48.135969 
L 17.703217 48.658715 
L 17.765421 48.474386 
L 17.793413 48.296581 
L 17.774752 48.58837 
L 17.796524 48.394854 
L 17.89294 48.677288 
L 17.908492 47.985527 
L 17.939594 48.676092 
L 18.014239 47.97286 
L 18.020459 48.068012 
L 18.070223 47.724981 
L 18.045341 48.631267 
L 18.123097 48.524853 
L 18.129317 48.487793 
L 18.151089 47.597897 
L 18.179081 48.59562 
L 18.244395 47.723458 
L 18.250616 47.629165 
L 18.284828 48.296896 
L 18.325261 48.290534 
L 18.412347 48.586248 
L 18.381245 48.127178 
L 18.431009 48.234047 
L 18.514984 47.178383 
L 18.480772 48.407131 
L 18.542976 48.09145 
L 18.651834 48.639572 
L 18.654944 48.5238 
L 18.670495 48.63717 
L 18.717149 47.993941 
L 18.763802 48.494006 
L 18.810455 47.93064 
L 18.866439 48.555475 
L 18.962856 48.676424 
L 18.941085 48.116977 
L 18.965966 48.636688 
L 19.01262 47.886677 
L 19.040612 48.665382 
L 19.077934 48.327222 
L 19.16191 48.635119 
L 19.143249 47.883144 
L 19.177461 48.134027 
L 19.199233 47.974699 
L 19.230335 48.443881 
L 19.273878 48.637736 
L 19.332972 48.28547 
L 19.345413 48.029423 
L 19.376515 48.675902 
L 19.43872 48.232689 
L 19.507145 48.653323 
L 19.491594 47.984951 
L 19.550688 48.402141 
L 19.656435 48.649978 
L 19.628443 48.142899 
L 19.659545 48.550457 
L 19.72175 47.773324 
L 19.681317 48.594677 
L 19.765293 48.533171 
L 19.843048 48.688612 
L 19.811946 48.239482 
L 19.874151 48.476475 
L 19.908363 47.714459 
L 19.970567 48.643024 
L 19.995449 48.066325 
L 20.00789 48.415469 
L 20.066984 47.723824 
L 20.101197 47.802503 
L 20.262928 48.598313 
L 20.182062 47.689873 
L 20.266038 48.497207 
L 20.334463 48.101868 
L 20.362455 48.599683 
L 20.378006 48.301149 
L 20.455762 48.529269 
L 20.399778 47.87547 
L 20.468203 48.23439 
L 20.527297 48.085566 
L 20.505525 48.649363 
L 20.57706 48.268642 
L 20.617493 48.645996 
L 20.636155 48.218806 
L 20.685918 48.239478 
L 20.692138 48.049644 
L 20.745012 48.67319 
L 20.791666 48.348647 
L 20.878752 48.654151 
L 20.819658 47.976477 
L 20.906744 48.647563 
L 21.021822 47.788217 
L 21.024932 47.991138 
L 21.046704 48.703796 
L 21.161782 48.65601 
L 21.301742 47.655159 
L 21.395048 48.690854 
L 21.42304 48.60527 
L 21.522567 47.949315 
L 21.541229 48.269682 
L 21.544339 48.372463 
L 21.578551 47.604415 
L 21.640756 48.040933 
L 21.643866 47.980058 
L 21.674968 48.695827 
L 21.724732 48.476196 
L 21.727842 48.581002 
L 21.814928 47.995621 
L 21.830479 48.394711 
L 21.867802 47.991128 
L 21.889573 48.647118 
L 21.939337 48.389197 
L 22.007762 48.608146 
L 21.97977 47.827946 
L 22.029533 48.264455 
L 22.144611 47.857836 
L 22.066856 48.656111 
L 22.150832 47.925843 
L 22.197485 48.5339 
L 22.178824 47.85097 
L 22.27213 48.425852 
L 22.346776 47.884779 
L 22.309453 48.6622 
L 22.387208 48.204858 
L 22.464964 48.676315 
L 22.443192 48.047578 
L 22.489846 48.212571 
L 22.492956 48.093641 
L 22.570711 48.594763 
L 22.598703 48.156684 
L 22.642246 48.617207 
L 22.657798 48.034034 
L 22.707561 48.272988 
L 22.710671 48.069941 
L 22.757325 48.628841 
L 22.813309 48.279388 
L 22.825749 48.072793 
L 22.928387 48.624749 
L 22.965709 48.10485 
L 22.947048 48.662826 
L 23.046575 48.311002 
L 23.096339 48.638192 
L 23.065236 48.031311 
L 23.161653 48.493163 
L 23.189645 48.148277 
L 23.242519 48.64729 
L 23.270511 48.493351 
L 23.360707 48.68 
L 23.338936 48.136359 
L 23.376258 48.496703 
L 23.485116 47.764983 
L 23.40425 48.665687 
L 23.500667 48.047889 
L 23.53799 48.691732 
L 23.618856 48.633733 
L 23.752595 47.971071 
L 23.628186 48.66008 
L 23.768146 48.203511 
L 23.811689 48.652565 
L 23.870783 48.094118 
L 23.901886 48.576538 
L 23.976531 48.120346 
L 24.010743 48.284565 
L 24.085389 48.063923 
L 24.125821 48.689802 
L 24.128932 48.691312 
L 24.160034 47.843026 
L 24.24712 47.974681 
L 24.25023 47.950085 
L 24.265781 48.647966 
L 24.268892 48.697138 
L 24.312435 47.650353 
L 24.327986 48.012461 
L 24.371529 48.657069 
L 24.439954 48.152619 
L 24.452395 47.695634 
L 24.486607 48.545267 
L 24.548811 48.10636 
L 24.67633 48.620652 
L 24.623457 48.023783 
L 24.682551 48.445515 
L 24.694992 48.020354 
L 24.766527 48.644455 
L 24.788298 48.610413 
L 24.791409 48.674078 
L 24.847392 48.077444 
L 24.894046 48.537356 
L 24.95936 48.107301 
L 24.900266 48.6536 
L 25.009124 48.477949 
L 25.015344 48.602243 
L 25.046447 48.194986 
L 25.09932 48.441488 
L 25.189517 48.64009 
L 25.214398 48.022986 
L 25.285934 48.606878 
L 25.257942 47.67725 
L 25.332587 48.242687 
L 25.351248 48.634379 
L 25.388571 48.022382 
L 25.444555 48.43042 
L 25.51298 48.137849 
L 25.52542 48.653008 
L 25.553412 48.389722 
L 25.624947 48.646002 
L 25.646719 48.063422 
L 25.649829 47.967051 
L 25.668491 48.579842 
L 25.746246 48.344888 
L 25.80845 48.661841 
L 25.761797 48.063812 
L 25.861324 48.569056 
L 25.864434 48.578585 
L 25.870655 48.375617 
L 25.9453 48.188555 
L 25.960851 48.683794 
L 25.976402 48.600131 
L 26.035497 48.198226 
L 26.100811 48.308684 
L 26.116362 48.587148 
L 26.153685 47.90432 
L 26.206559 48.43919 
L 26.253212 48.181696 
L 26.293645 48.649417 
L 26.315416 48.486708 
L 26.349629 48.278746 
L 26.36829 48.65165 
L 26.421164 48.408712 
L 26.424274 48.697793 
L 26.523801 48.160637 
L 26.530022 48.450746 
L 26.589116 48.287677 
L 26.542462 48.652555 
L 26.638879 48.504431 
L 26.64821 48.682888 
L 26.710414 48.10337 
L 26.741516 48.563136 
L 26.781949 47.756619 
L 26.834823 48.608465 
L 26.850374 48.443583 
L 26.956122 48.594954 
L 26.92813 48.001145 
L 26.962342 48.56437 
L 27.061869 48.139925 
L 27.033877 48.589485 
L 27.07431 48.427903 
L 27.108522 47.972363 
L 27.176947 48.565818 
L 27.183168 48.454442 
L 27.251593 48.596729 
L 27.195609 48.206401 
L 27.288915 48.482007 
L 27.394663 47.831068 
L 27.369781 48.674176 
L 27.403993 48.021314 
L 27.469308 48.676293 
L 27.515961 48.206263 
L 27.528402 48.056305 
L 27.543953 48.647473 
L 27.609268 48.298897 
L 27.615488 48.646178 
L 27.63726 48.046472 
L 27.715015 48.288412 
L 27.718126 48.090067 
L 27.746118 48.67675 
L 27.823873 48.429774 
L 27.898518 47.739822 
L 27.851865 48.600213 
L 27.951392 47.985767 
L 28.047809 48.622646 
L 28.06647 48.325264 
L 28.100683 48.609603 
L 28.122454 48.153627 
L 28.172218 48.371957 
L 28.243753 48.097425 
L 28.20954 48.650723 
L 28.277965 48.484741 
L 28.355721 48.633744 
L 28.315288 48.110558 
L 28.374382 48.272526 
L 28.377492 48.01543 
L 28.48013 48.630065 
L 28.48324 48.686371 
L 28.560995 48.185545 
L 28.573436 48.305414 
L 28.607649 48.179695 
L 28.588987 48.657053 
L 28.672963 48.555783 
L 28.803592 48.037519 
L 28.697845 48.653689 
L 28.809813 48.339841 
L 28.822254 48.665318 
L 28.847135 47.784242 
L 28.921781 48.40011 
L 29.039969 47.8506 
L 28.955993 48.59757 
L 29.043079 47.909221 
L 29.067961 48.647333 
L 29.158157 48.438039 
L 29.242133 48.102384 
L 29.179929 48.602217 
L 29.257685 48.394581 
L 29.354101 48.679663 
L 29.282566 48.263943 
L 29.369652 48.491177 
L 29.459849 48.103668 
L 29.425636 48.640329 
L 29.4754 48.580501 
L 29.47851 48.585215 
L 29.48162 48.460729 
L 29.487841 48.08537 
L 29.543825 48.632606 
L 29.593588 48.364239 
L 29.702446 48.671861 
L 29.62469 48.113719 
L 29.708666 48.467913 
L 29.798863 48.175852 
L 29.783312 48.618214 
L 29.817524 48.520234 
L 29.885949 48.659601 
L 29.857957 48.213987 
L 29.923272 48.483278 
L 29.973035 48.310786 
L 29.938823 48.551311 
L 29.985476 48.407361 
L 29.988586 48.627849 
L 30.078783 48.066621 
L 30.094334 48.410816 
L 30.196971 48.607841 
L 30.131656 48.189691 
L 30.206302 48.431386 
L 30.209412 48.431132 
L 30.243624 48.63155 
L 30.268506 48.053536 
L 30.32138 48.469534 
L 30.32449 48.46789 
L 30.3276 48.509275 
L 30.396025 48.683072 
L 30.411576 48.080734 
L 30.420907 48.189288 
L 30.427127 47.907696 
L 30.452009 48.69445 
L 30.526654 48.577091 
L 30.6013 48.197987 
L 30.588859 48.6908 
L 30.638622 48.442619 
L 30.669724 48.680699 
L 30.691496 48.160188 
L 30.74748 48.620226 
L 30.769251 48.072743 
L 30.756811 48.673481 
L 30.856338 48.342855 
L 30.899881 48.216377 
L 30.971416 48.677837 
L 31.077163 48.24519 
L 31.086494 48.31521 
L 31.139368 48.66079 
L 31.117596 48.29647 
L 31.201572 48.580187 
L 31.242005 48.688475 
L 31.226454 48.282281 
L 31.31354 48.656695 
L 31.444169 47.874598 
L 31.45972 48.256613 
L 31.475271 48.547833 
L 31.500153 48.153923 
L 31.506374 48.168774 
L 31.612121 48.044669 
L 31.59657 48.660941 
L 31.615231 48.231114 
L 31.668105 48.657806 
L 31.692987 48.033445 
L 31.73342 48.55131 
L 31.73964 48.371821 
L 31.770742 48.653002 
L 31.836057 48.588282 
L 31.839167 48.691941 
L 31.910702 48.123889 
L 31.944915 48.585964 
L 31.985348 48.165965 
L 31.963576 48.659785 
L 32.059993 48.374084 
L 32.109756 48.680325 
L 32.143969 48.142795 
L 32.16574 48.308053 
L 32.16885 48.1918 
L 32.181291 48.694274 
L 32.271488 48.479507 
L 32.277708 48.318834 
L 32.29637 48.69539 
L 32.374125 48.490078 
L 32.433219 48.628055 
L 32.470542 48.150906 
L 32.473652 48.190466 
L 32.489203 47.999484 
L 32.510975 48.677754 
L 32.570069 48.49582 
L 32.598061 48.664093 
L 32.647824 48.396417 
L 32.666486 48.485943 
L 32.750462 48.084968 
L 32.703808 48.676171 
L 32.775343 48.532887 
L 32.781564 48.685745 
L 32.790895 48.25968 
L 32.831327 48.370866 
L 32.890422 48.257236 
L 32.853099 48.642631 
L 32.930854 48.574746 
L 33.01172 48.655468 
L 32.971287 48.297681 
L 33.027271 48.620171 
L 33.108137 48.086752 
L 33.036602 48.683178 
L 33.142349 48.358022 
L 33.223215 48.647817 
L 33.241876 48.319318 
L 33.251207 48.396644 
L 33.341403 48.209841 
L 33.310301 48.698616 
L 33.356955 48.574324 
L 33.425379 48.252275 
L 33.388057 48.671982 
L 33.465812 48.62095 
L 33.540458 48.645195 
L 33.528017 48.34021 
L 33.549788 48.53393 
L 33.57778 48.25997 
L 33.611993 48.673242 
L 33.655536 48.643268 
L 33.664866 48.670807 
L 33.677307 48.253523 
L 33.695969 48.458338 
L 33.699079 48.069429 
L 33.779944 48.622717 
L 33.807936 48.331724 
L 33.811047 48.322359 
L 33.820377 48.624378 
L 33.835928 48.547807 
L 33.882582 48.683198 
L 33.848369 48.305139 
L 33.935455 48.407584 
L 33.99766 48.114683 
L 34.038093 48.526753 
L 34.041203 48.496018 
L 34.13451 48.689776 
L 34.066085 48.179508 
L 34.153171 48.59104 
L 34.243367 48.635675 
L 34.181163 48.301556 
L 34.249588 48.416516 
L 34.2838 48.23878 
L 34.327343 48.608898 
L 34.355335 48.36388 
L 34.408209 48.659497 
L 34.42998 48.296367 
L 34.467303 48.536679 
L 34.485964 48.64118 
L 34.473524 48.386258 
L 34.532618 48.44876 
L 34.535728 48.274026 
L 34.548169 48.64812 
L 34.638365 48.525088 
L 34.7099 48.659029 
L 34.731672 48.088223 
L 34.747223 48.591997 
L 34.762774 48.144112 
L 34.806317 48.693899 
L 34.856081 48.642942 
L 34.946277 48.219635 
L 34.930726 48.669181 
L 34.968049 48.445457 
L 35.058245 48.226993 
L 35.080016 48.694206 
L 35.095568 48.115753 
L 35.191984 48.459813 
L 35.204425 48.657403 
L 35.238638 48.076763 
L 35.241748 48.179808 
L 35.244858 48.033341 
L 35.26974 48.665268 
L 35.344385 48.353473 
L 35.425251 48.635344 
L 35.453243 48.240277 
L 35.490566 48.640174 
L 35.537219 48.118653 
L 35.571431 48.499527 
L 35.667848 48.180985 
L 35.636746 48.662514 
L 35.68962 48.330959 
L 35.786036 48.69513 
L 35.758044 48.153854 
L 35.801588 48.49853 
L 35.891784 48.66378 
L 35.823359 48.227471 
L 35.898004 48.614531 
L 35.904225 48.271531 
L 35.938437 48.6508 
L 36.009972 48.448463 
L 36.025523 48.673603 
L 36.047295 48.366204 
L 36.12505 48.5404 
L 36.190365 48.17531 
L 36.156153 48.646709 
L 36.243239 48.272542 
L 36.277451 48.680292 
L 36.358317 48.575006 
L 36.439183 48.207439 
L 36.417411 48.625032 
L 36.460954 48.495698 
L 36.485836 48.673853 
L 36.504497 48.190467 
L 36.566702 48.259612 
L 36.569812 48.261191 
L 36.585363 48.634669 
L 36.68178 48.452563 
L 36.750205 48.300491 
L 36.728433 48.634742 
L 36.784417 48.452791 
L 36.890165 48.656679 
L 36.837291 48.229434 
L 36.896385 48.530736 
L 36.949259 48.668125 
L 36.918157 48.180217 
L 37.002132 48.47276 
L 37.023904 48.277289 
L 37.033235 48.640259 
L 37.11099 48.438469 
L 37.123431 48.357645 
L 37.222958 48.661858 
L 37.25406 48.137421 
L 37.328706 48.698695 
L 37.334926 48.583716 
L 37.378469 48.672313 
L 37.341146 48.494273 
L 37.3878 48.581006 
L 37.403351 48.206629 
L 37.425122 48.683755 
L 37.499768 48.509388 
L 37.571303 48.623673 
L 37.543311 48.055236 
L 37.602405 48.557418 
L 37.605515 48.32798 
L 37.705042 48.670216 
L 37.714373 48.462331 
L 37.717483 48.573407 
L 37.757916 48.211066 
L 37.82012 48.406824 
L 37.823231 48.220269 
L 37.888545 48.693438 
L 37.932088 48.319556 
L 37.981852 48.244874 
L 37.988072 48.688282 
L 38.040946 48.332987 
L 38.131142 48.685662 
L 38.109371 48.257419 
L 38.162245 48.439444 
L 38.202677 48.239123 
L 38.177796 48.599573 
L 38.23689 48.527293 
L 38.311535 48.695515 
L 38.283543 48.38921 
L 38.348858 48.561959 
L 38.392401 48.650301 
L 38.423503 48.234794 
L 38.457715 48.631244 
L 38.491928 48.108997 
L 38.560353 48.67033 
L 38.566573 48.469621 
L 38.650549 48.646265 
L 38.619447 48.187606 
L 38.678541 48.549646 
L 38.694092 48.685624 
L 38.762517 48.240277 
L 38.787399 48.545903 
L 38.852713 48.317015 
L 38.858934 48.68767 
L 38.902477 48.516144 
L 38.930469 48.653694 
L 38.995784 48.373734 
L 39.005114 48.461589 
L 39.117082 48.138912 
L 39.104641 48.572817 
L 39.120192 48.217982 
L 39.238381 48.67257 
L 39.241491 48.517393 
L 39.281924 48.179921 
L 39.257042 48.667709 
L 39.353459 48.406456 
L 39.37212 48.663607 
L 39.428104 48.152856 
L 39.462317 48.457408 
L 39.524521 48.236313 
L 39.51519 48.659996 
L 39.568064 48.445878 
L 39.617828 48.342714 
L 39.676922 48.665475 
L 39.708024 48.279421 
L 39.78889 48.306565 
L 39.823102 48.259193 
L 39.903968 48.653314 
L 40.006605 48.325618 
L 40.012825 48.681939 
L 40.112353 48.267356 
L 40.137234 48.488553 
L 40.22432 48.276775 
L 40.149675 48.66645 
L 40.233651 48.340492 
L 40.242982 48.687164 
L 40.280304 47.970399 
L 40.342509 48.344558 
L 40.435815 48.695258 
L 40.367391 48.185613 
L 40.460697 48.440068 
L 40.49491 48.242464 
L 40.50735 48.635084 
L 40.572665 48.331095 
L 40.6442 48.65969 
L 40.653531 48.13854 
L 40.684633 48.59771 
L 40.706405 48.018217 
L 40.728176 48.64145 
L 40.793491 48.551597 
L 40.840144 48.692894 
L 40.861916 48.213007 
L 40.902348 48.621552 
L 40.976994 48.23776 
L 40.945891 48.66242 
L 41.017427 48.364055 
L 41.039198 48.676593 
L 41.082741 48.302523 
L 41.126284 48.307415 
L 41.129394 48.095941 
L 41.225811 48.627975 
L 41.232032 48.496961 
L 41.247583 48.69426 
L 41.253803 48.455891 
L 41.278685 48.542535 
L 41.319118 48.19224 
L 41.303567 48.657228 
L 41.390653 48.269009 
L 41.412424 48.682611 
L 41.396873 48.261795 
L 41.502621 48.344292 
L 41.536833 48.153117 
L 41.571046 48.581546 
L 41.608368 48.442624 
L 41.698565 48.685583 
L 41.63636 48.282161 
L 41.717226 48.372648 
L 41.757659 48.6458 
L 41.726557 48.26797 
L 41.782541 48.406668 
L 41.785651 48.189238 
L 41.810533 48.673068 
L 41.891398 48.433635 
L 41.950493 48.689894 
L 41.900729 48.198905 
L 42.015807 48.67097 
L 42.06246 48.158351 
L 42.127775 48.568508 
L 42.252184 48.117251 
L 42.168208 48.632904 
L 42.261515 48.197324 
L 42.311278 48.661151 
L 42.273955 48.183435 
L 42.373482 48.582615 
L 42.429466 48.223462 
L 42.48234 48.63209 
L 42.550765 48.253841 
L 42.603639 48.472638 
L 42.668953 48.69368 
L 42.656513 48.056252 
L 42.709386 48.460972 
L 42.752929 48.088157 
L 42.743599 48.653451 
L 42.818244 48.558638 
L 42.895999 48.289285 
L 42.827575 48.662647 
L 42.927102 48.520855 
L 42.973755 48.667475 
L 43.011078 48.203338 
L 43.03907 48.658429 
L 43.104384 48.219082 
L 43.04529 48.668777 
L 43.18214 48.245167 
L 43.287887 48.621346 
L 43.250565 48.094172 
L 43.294108 48.333983 
L 43.353202 48.296914 
L 43.362532 48.684793 
L 43.381194 48.405622 
L 43.393635 48.674202 
L 43.486941 48.139496 
L 43.490051 48.38559 
L 43.536705 48.231061 
L 43.521154 48.600856 
L 43.564697 48.456648 
L 43.623791 48.637083 
L 43.636232 48.236078 
L 43.670444 48.308087 
L 43.763751 48.662369 
L 43.676665 48.229069 
L 43.791743 48.468405 
L 43.807294 48.09378 
L 43.866388 48.695388 
L 43.903711 48.41359 
L 43.909931 48.688533 
L 43.947254 48.216532 
L 44.012568 48.417709 
L 44.068552 48.172705 
L 44.096544 48.661614 
L 44.115206 48.405621 
L 44.118316 48.617923 
L 44.208512 48.192148 
L 44.224063 48.48078 
L 44.326701 48.315816 
L 44.261386 48.64738 
L 44.332921 48.535703 
L 44.407566 48.670667 
L 44.354693 48.270777 
L 44.438669 48.619855 
L 44.544416 48.149518 
L 44.475991 48.689357 
L 44.550637 48.516547 
L 44.587959 48.67016 
L 44.572408 48.29711 
L 44.656384 48.486547 
L 44.703037 48.678504 
L 44.765242 48.228743 
L 44.836777 48.692043 
L 44.87721 48.580795 
L 44.939414 48.672706 
L 44.905202 48.269457 
L 44.951855 48.577708 
L 45.02339 48.228154 
L 45.042051 48.657913 
L 45.063823 48.310957 
L 45.16957 48.639519 
L 45.16024 48.135248 
L 45.175791 48.424807 
L 45.272208 48.191357 
L 45.197562 48.622194 
L 45.284648 48.446748 
L 45.30331 48.382041 
L 45.362404 48.685277 
L 45.384175 48.337378 
L 45.412167 48.5094 
L 45.430829 48.095318 
L 45.502364 48.629583 
L 45.521025 48.418953 
L 45.545907 48.701632 
L 45.605001 48.270438 
L 45.632993 48.456455 
L 45.664095 48.158142 
L 45.704528 48.638577 
L 45.73563 48.235104 
L 45.766733 48.659365 
L 45.847598 48.456181 
L 45.903582 48.217695 
L 45.888031 48.65311 
L 45.912913 48.476277 
L 45.987558 48.689779 
L 45.950236 48.296302 
L 46.024881 48.598462 
L 46.130628 48.351747 
L 46.037322 48.69809 
L 46.136849 48.539904 
L 46.195943 48.674405 
L 46.239486 48.264107 
L 46.326572 48.655569 
L 46.30169 48.195871 
L 46.351454 48.443404 
L 46.357674 48.186211 
L 46.426099 48.701496 
L 46.463422 48.317799 
L 46.497634 48.672997 
L 46.475863 48.200589 
L 46.5785 48.629927 
L 46.622043 48.236538 
L 46.662476 48.673137 
L 46.690468 48.60411 
L 46.737121 48.671908 
L 46.72468 48.089315 
L 46.752672 48.348043 
L 46.755783 48.270502 
L 46.808656 48.699172 
L 46.852199 48.512743 
L 46.85531 48.685386 
L 46.895742 48.295482 
L 46.961057 48.536311 
L 47.045033 48.187726 
L 47.029482 48.662052 
L 47.094797 48.291593 
L 47.153891 48.680099 
L 47.104127 48.149516 
L 47.216095 48.563422 
L 47.262748 48.197938 
L 47.231646 48.674764 
L 47.321843 48.522941 
L 47.412039 48.665895 
L 47.390267 48.323799 
L 47.4307 48.468717 
L 47.446251 48.336184 
L 47.443141 48.522575 
L 47.449362 48.446313 
L 47.455582 48.018782 
L 47.536448 48.662273 
L 47.56133 48.377337 
L 47.598652 48.6961 
L 47.651526 48.246939 
L 47.657746 48.30409 
L 47.660857 48.18758 
L 47.760384 48.606616 
L 47.810147 48.684128 
L 47.85369 48.356203 
L 47.859911 48.430613 
L 47.872352 48.403502 
L 47.866131 48.547858 
L 47.878572 48.512265 
L 47.962548 48.669085 
L 47.968768 48.356552 
L 47.984319 48.539088 
L 47.99676 48.244703 
L 48.065185 48.66269 
L 48.093177 48.605465 
L 48.102508 48.689029 
L 48.124279 48.271015 
L 48.152271 48.420448 
L 48.202035 48.214629 
L 48.183374 48.656319 
L 48.251798 48.592949 
L 48.354436 48.675092 
L 48.289121 48.303772 
L 48.357546 48.463248 
L 48.401089 48.249105 
L 48.366877 48.659577 
L 48.460183 48.492049 
L 48.547269 48.666937 
L 48.525498 48.251703 
L 48.569041 48.393211 
L 48.584592 48.661266 
L 48.659237 48.22322 
L 48.681009 48.47855 
L 48.755654 48.358261 
L 48.709001 48.696846 
L 48.764985 48.471611 
L 48.768095 48.684411 
L 48.805418 48.265499 
L 48.873842 48.48444 
L 48.995141 48.17126 
L 48.892504 48.676807 
L 49.001361 48.211774 
L 49.063566 48.678826 
L 49.038684 48.134691 
L 49.11955 48.668673 
L 49.163093 48.16232 
L 49.234628 48.438875 
L 49.26884 48.689486 
L 49.284391 48.36812 
L 49.349706 48.656273 
L 49.433682 48.103391 
L 49.362147 48.685808 
L 49.461674 48.432491 
L 49.505217 48.676953 
L 49.526989 48.32315 
L 49.573642 48.526066 
L 49.579862 48.639834 
L 49.589193 48.410006 
L 49.679389 48.175281 
L 49.604744 48.657914 
L 49.698051 48.525367 
L 49.769586 48.034062 
L 49.729153 48.657701 
L 49.791357 48.557951 
L 49.872223 48.658768 
L 49.838011 48.308225 
L 49.900215 48.555542 
L 49.96864 48.1339 
L 49.990411 48.649505 
L 50.002852 48.34008 
L 50.037065 48.66381 
L 50.021514 48.185012 
L 50.11171 48.380002 
L 50.189465 48.617044 
L 50.155253 48.262332 
L 50.214347 48.580092 
L 50.25478 48.693265 
L 50.323205 48.316301 
L 50.39163 48.690362 
L 50.332536 48.311255 
L 50.435173 48.646493 
L 50.506708 48.224672 
L 50.54092 48.690088 
L 50.544031 48.575993 
L 50.603125 48.340709 
L 50.568912 48.679727 
L 50.662219 48.535954 
L 50.705762 48.693294 
L 50.755526 48.157646 
L 50.767966 48.576349 
L 50.833281 48.667562 
L 50.879934 48.390141 
L 50.901706 48.693585 
L 50.973241 48.341519 
L 50.991902 48.476045 
L 51.072768 48.626056 
L 51.047886 48.177914 
L 51.10698 48.53271 
L 51.147413 48.176743 
L 51.125642 48.662846 
L 51.215838 48.541306 
L 51.262491 48.306231 
L 51.24383 48.654247 
L 51.312255 48.489421 
L 51.343357 48.689129 
L 51.337137 48.26423 
L 51.424223 48.540362 
L 51.483317 48.664001 
L 51.445994 48.374738 
L 51.536191 48.614941 
L 51.573513 48.677785 
L 51.654379 48.297113 
L 51.691702 48.700583 
L 51.744575 48.146757 
L 51.763237 48.363763 
L 51.859654 48.207001 
L 51.781898 48.692764 
L 51.872095 48.434759 
L 51.912527 48.219654 
L 51.962291 48.656436 
L 51.980952 48.47379 
L 52.071149 48.651674 
L 52.064928 48.254139 
L 52.083589 48.424545 
L 52.105361 48.300131 
L 52.124022 48.704366 
L 52.189337 48.438516 
L 52.279533 48.674703 
L 52.263982 48.32763 
L 52.295084 48.429509 
L 52.301305 48.166702 
L 52.332407 48.683798 
L 52.403942 48.516112 
L 52.447485 48.667147 
L 52.481698 48.339865 
L 52.50969 48.443366 
L 52.51902 48.285815 
L 52.534571 48.533473 
L 52.537682 48.532614 
L 52.587445 48.679509 
L 52.606106 48.308407 
L 52.643429 48.532446 
L 52.708744 48.166783 
L 52.665201 48.672419 
L 52.755397 48.464606 
L 52.786499 48.686515 
L 52.858034 48.368953 
L 52.861144 48.245377 
L 52.929569 48.676082 
L 52.963782 48.55617 
L 53.029096 48.199361 
L 53.047758 48.683294 
L 53.072639 48.60044 
L 53.07886 48.675517 
L 53.106852 48.190039 
L 53.165946 48.4548 
L 53.259253 48.243008 
L 53.175277 48.662689 
L 53.262363 48.509242 
L 53.281024 48.624953 
L 53.299686 48.271416 
L 53.36811 48.603192 
L 53.414764 48.235452 
L 53.424094 48.68234 
L 53.480078 48.386264 
L 53.50185 48.678422 
L 53.532952 48.373715 
L 53.588936 48.468909 
L 53.694683 48.295439 
L 53.64803 48.648516 
L 53.697794 48.43459 
L 53.741337 48.68893 
L 53.803541 48.357736 
L 53.806651 48.272738 
L 53.856415 48.656883 
L 53.899958 48.55441 
L 53.946611 48.702823 
L 53.996375 48.237233 
L 54.005705 48.328149 
L 54.117673 48.693377 
L 54.133224 48.584441 
L 54.167437 48.134814 
L 54.201649 48.664962 
L 54.242082 48.47312 
L 54.248303 48.669446 
L 54.34783 48.333734 
L 54.35094 48.559055 
L 54.363381 48.300358 
L 54.397593 48.684338 
L 54.459798 48.540826 
L 54.565545 48.656014 
L 54.540663 48.308839 
L 54.571766 48.598795 
L 54.63708 48.670036 
L 54.596647 48.346166 
L 54.658852 48.594645 
L 54.696174 48.327807 
L 54.680623 48.65284 
L 54.77082 48.493871 
L 54.870347 48.674923 
L 54.805032 48.292189 
L 54.882788 48.516661 
L 54.966763 48.240558 
L 54.901449 48.662011 
L 54.991645 48.553774 
L 55.072511 48.686538 
L 55.044519 48.390043 
L 55.091172 48.533241 
L 55.116054 48.186893 
L 55.147156 48.660661 
L 55.20003 48.623877 
L 55.237353 48.340248 
L 55.271565 48.653543 
L 55.318218 48.520055 
L 55.386643 48.675954 
L 55.34621 48.253481 
L 55.433296 48.636926 
L 55.439517 48.485484 
L 55.514162 48.305014 
L 55.526603 48.668236 
L 55.548375 48.503592 
L 55.62613 48.38202 
L 55.598138 48.648172 
L 55.641681 48.64296 
L 55.694555 48.667929 
L 55.660343 48.44578 
L 55.728767 48.648259 
L 55.753649 48.271127 
L 55.812743 48.696313 
L 55.843846 48.399389 
L 55.846956 48.356548 
L 55.862507 48.644126 
L 55.940262 48.587923 
L 56.002467 48.675288 
L 55.965144 48.236919 
L 56.018018 48.374361 
L 56.021128 48.355856 
L 56.0429 48.688014 
L 56.083332 48.631165 
L 56.086443 48.640447 
L 56.105104 48.380788 
L 56.136206 48.603645 
L 56.18908 48.322026 
L 56.241954 48.66098 
L 56.245064 48.427619 
L 56.344591 48.693523 
L 56.266835 48.175434 
L 56.360142 48.637129 
L 56.363252 48.644226 
L 56.366362 48.433436 
L 56.378803 48.288951 
L 56.397465 48.654349 
L 56.46589 48.596215 
L 56.506322 48.680869 
L 56.534314 48.336101 
L 56.559196 48.440105 
L 56.562306 48.257014 
L 56.643172 48.687424 
L 56.668054 48.558223 
L 56.76136 48.199917 
L 56.714707 48.676034 
L 56.773801 48.48868 
L 56.780022 48.687201 
L 56.873328 48.327257 
L 56.885769 48.640901 
L 56.979076 48.290186 
L 56.932423 48.685263 
L 56.997737 48.470778 
L 57.109705 48.678303 
L 57.050611 48.325583 
L 57.112815 48.649456 
L 57.18124 48.683646 
L 57.131477 48.477262 
L 57.187461 48.661927 
L 57.277657 48.367024 
L 57.299429 48.580628 
L 57.339861 48.315089 
L 57.402066 48.683334 
L 57.426948 48.397945 
L 57.417617 48.692514 
L 57.514034 48.531282 
L 57.520254 48.351303 
L 57.582459 48.640025 
L 57.610451 48.517821 
L 57.697537 48.6948 
L 57.616671 48.337605 
L 57.719308 48.527099 
L 57.74419 48.279422 
L 57.784623 48.662509 
L 57.831276 48.474435 
L 57.871709 48.688749 
L 57.921473 48.245092 
L 57.940134 48.428569 
L 58.092535 48.672044 
L 57.980567 48.295581 
L 58.098755 48.548532 
L 58.1734 48.401142 
L 58.111196 48.680319 
L 58.207613 48.538519 
L 58.282258 48.65392 
L 58.272927 48.312359 
L 58.300919 48.462628 
L 58.30403 48.269138 
L 58.384895 48.664109 
L 58.412887 48.382904 
L 58.434659 48.671255 
L 58.45643 48.142469 
L 58.527965 48.584372 
L 58.540406 48.647191 
L 58.549737 48.498565 
L 58.559068 48.580391 
L 58.58706 48.349483 
L 58.636823 48.693744 
L 58.667925 48.6765 
L 58.692807 48.301014 
L 58.779893 48.5993 
L 58.87009 48.657556 
L 58.804775 48.288349 
L 58.87942 48.600708 
L 58.885641 48.25462 
L 58.941625 48.684462 
L 58.991388 48.509253 
L 59.075364 48.683767 
L 59.01938 48.413414 
L 59.103356 48.572885 
L 59.118907 48.672981 
L 59.150009 48.317828 
L 59.174891 48.590201 
L 59.178001 48.281752 
L 59.190442 48.665426 
L 59.283749 48.495319 
L 59.392607 48.662532 
L 59.342843 48.299589 
L 59.395717 48.643675 
L 59.43615 48.277758 
L 59.467252 48.691671 
L 59.510795 48.499969 
L 59.538787 48.680777 
L 59.557448 48.332854 
L 59.619653 48.46606 
L 59.625873 48.27458 
L 59.691188 48.677379 
L 59.703629 48.517749 
L 59.706739 48.68349 
L 59.731621 48.355279 
L 59.815597 48.585431 
L 59.880911 48.357377 
L 59.831148 48.657955 
L 59.927564 48.472586 
L 59.943116 48.69718 
L 59.967997 48.302064 
L 60.039532 48.50309 
L 60.104847 48.43187 
L 60.092406 48.668095 
L 60.139059 48.536466 
L 60.204374 48.678054 
L 60.235476 48.324032 
L 60.251027 48.608489 
L 60.310122 48.682045 
L 60.28835 48.426005 
L 60.350554 48.590292 
L 60.453192 48.366357 
L 60.412759 48.688952 
L 60.462522 48.536709 
L 60.540278 48.320687 
L 60.478073 48.675053 
L 60.57449 48.459463 
L 60.670907 48.7038 
L 60.611813 48.336763 
L 60.689568 48.646813 
L 60.730001 48.312193 
L 60.770434 48.673101 
L 60.801536 48.539717 
L 60.86063 48.645659 
L 60.817087 48.359104 
L 60.910394 48.497434 
L 60.938386 48.650851 
L 60.916614 48.399721 
L 60.957047 48.385688 
L 61.028582 48.29696 
L 60.99748 48.680647 
L 61.047244 48.522968 
L 61.115669 48.689875 
L 61.059685 48.34809 
L 61.156101 48.568274 
L 61.252518 48.361454 
L 61.205865 48.697874 
L 61.264959 48.493125 
L 61.330274 48.669456 
L 61.355155 48.389246 
L 61.376927 48.574074 
L 61.426691 48.418665 
L 61.41425 48.699504 
L 61.482674 48.584145 
L 61.585312 48.618609 
L 61.547989 48.387256 
L 61.588422 48.558186 
L 61.603973 48.310117 
L 61.666177 48.690962 
L 61.69728 48.524983 
L 61.709721 48.689674 
L 61.787476 48.352929 
L 61.812358 48.642523 
L 61.921216 48.333703 
L 61.914995 48.675704 
L 61.924326 48.578369 
L 62.026963 48.365308 
L 61.964759 48.690591 
L 62.036294 48.557943 
L 62.051845 48.689826 
L 62.070506 48.421496 
L 62.142041 48.551951 
L 62.170033 48.337331 
L 62.182474 48.697407 
L 62.254009 48.367176 
L 62.291332 48.672766 
L 62.365977 48.623648 
L 62.4033 48.350485 
L 62.449953 48.685808 
L 62.474835 48.468561 
L 62.524598 48.687764 
L 62.571252 48.263224 
L 62.583692 48.561422 
L 62.664558 48.330752 
L 62.645897 48.68806 
L 62.69255 48.615457 
L 62.754754 48.671459 
L 62.751644 48.37101 
L 62.776526 48.513907 
L 62.83562 48.331122 
L 62.816959 48.682713 
L 62.882274 48.549999 
L 62.885384 48.684061 
L 62.938257 48.383187 
L 62.988021 48.556119 
L 62.991131 48.371539 
L 63.003572 48.668457 
L 63.096879 48.593566 
L 63.146642 48.342181 
L 63.10932 48.64902 
L 63.180855 48.564026 
L 63.183965 48.699817 
L 63.199516 48.406678 
L 63.289712 48.547122 
L 63.327035 48.690918 
L 63.295933 48.474564 
L 63.339476 48.56007 
L 63.342586 48.333091 
L 63.373688 48.668355 
L 63.448334 48.499099 
L 63.451444 48.682444 
L 63.473215 48.343368 
L 63.560301 48.597212 
L 63.588293 48.275542 
L 63.628726 48.696793 
L 63.666049 48.59911 
L 63.694041 48.665285 
L 63.715812 48.338285 
L 63.774907 48.646761 
L 63.834001 48.681952 
L 63.889985 48.320692 
L 63.96774 48.697529 
L 64.005063 48.657955 
L 64.023724 48.663743 
L 64.029945 48.504611 
L 64.036165 48.560056 
L 64.039275 48.355176 
L 64.051716 48.689766 
L 64.145023 48.508798 
L 64.185456 48.664047 
L 64.166794 48.391827 
L 64.253881 48.541111 
L 64.319195 48.376857 
L 64.291203 48.653282 
L 64.359628 48.560297 
L 64.412502 48.659806 
L 64.418722 48.459738 
L 64.462265 48.55047 
L 64.465376 48.409195 
L 64.474706 48.698884 
L 64.571123 48.603865 
L 64.586674 48.32868 
L 64.66443 48.667592 
L 64.67687 48.581673 
L 64.707973 48.662493 
L 64.732854 48.438758 
L 64.779508 48.640709 
L 64.782618 48.37508 
L 64.888365 48.672241 
L 64.938129 48.394532 
L 65.006554 48.441744 
L 65.009664 48.355668 
L 65.056317 48.658576 
L 65.109191 48.627414 
L 65.190057 48.689641 
L 65.193167 48.422549 
L 65.208718 48.559411 
L 65.23671 48.345085 
L 65.314466 48.664157 
L 65.320686 48.485691 
L 65.330017 48.455729 
L 65.351788 48.633495 
L 65.364229 48.615732 
L 65.38289 48.656273 
L 65.398442 48.474235 
L 65.404662 48.61704 
L 65.410882 48.272011 
L 65.510409 48.678344 
L 65.51352 48.49308 
L 65.541512 48.6548 
L 65.535291 48.34541 
L 65.625488 48.542842 
L 65.65659 48.208916 
L 65.721904 48.666128 
L 65.734345 48.45313 
L 65.80588 48.681677 
L 65.815211 48.384824 
L 65.846313 48.498532 
L 65.94584 48.683576 
L 65.920958 48.360103 
L 65.952061 48.620694 
L 65.992494 48.361208 
L 66.029816 48.69185 
L 66.064029 48.458424 
L 66.113792 48.681169 
L 66.0858 48.342963 
L 66.166666 48.461826 
L 66.169776 48.210321 
L 66.197768 48.633994 
L 66.275524 48.572885 
L 66.387492 48.367321 
L 66.287964 48.689004 
L 66.390602 48.392467 
L 66.452806 48.699377 
L 66.477688 48.325003 
L 66.499459 48.375825 
L 66.555443 48.690369 
L 66.614538 48.5026 
L 66.701624 48.67178 
L 66.664301 48.408435 
L 66.729616 48.588036 
L 66.763828 48.409403 
L 66.78871 48.693278 
L 66.835363 48.580984 
L 66.885127 48.695836 
L 66.860245 48.38366 
L 66.944221 48.585292 
L 67.046858 48.151501 
L 67.000205 48.68937 
L 67.056189 48.500296 
L 67.112173 48.399544 
L 67.07796 48.695422 
L 67.161936 48.546484 
L 67.239692 48.43444 
L 67.280125 48.671882 
L 67.295676 48.26892 
L 67.376541 48.688333 
L 67.392093 48.631808 
L 67.49784 48.338409 
L 67.472958 48.659799 
L 67.507171 48.491049 
L 67.544493 48.683995 
L 67.581816 48.278368 
L 67.619139 48.609303 
L 67.718666 48.422784 
L 67.724886 48.667657 
L 67.731107 48.543216 
L 67.833744 48.679516 
L 67.808862 48.431622 
L 67.843074 48.589906 
L 67.936381 48.347223 
L 67.91772 48.659402 
L 67.955042 48.566521 
L 67.958153 48.687206 
L 67.979924 48.325406 
L 68.06079 48.501893 
L 68.079451 48.673732 
L 68.175868 48.360982 
L 68.216301 48.688347 
L 68.272285 48.307321 
L 68.294056 48.584979 
L 68.387363 48.689363 
L 68.365591 48.370851 
L 68.396694 48.5218 
L 68.402914 48.406959 
L 68.421575 48.641595 
L 68.508662 48.475704 
L 68.555315 48.27706 
L 68.542874 48.674478 
L 68.608189 48.598156 
L 68.682834 48.689045 
L 68.692165 48.396649 
L 68.713936 48.488077 
L 68.76992 48.407589 
L 68.76681 48.687064 
L 68.816573 48.623907 
L 68.900549 48.400554 
L 68.857006 48.675164 
L 68.925431 48.605335 
L 68.984525 48.666755 
L 68.950313 48.380263 
L 69.003187 48.497523 
L 69.037399 48.263431 
L 69.096493 48.682549 
L 69.105824 48.600344 
L 69.158698 48.655769 
L 69.140036 48.364019 
L 69.180469 48.527031 
L 69.18669 48.317546 
L 69.220902 48.667948 
L 69.286217 48.565511 
L 69.357752 48.678425 
L 69.363972 48.393515 
L 69.395074 48.557088 
L 69.413736 48.359643 
L 69.454168 48.645283 
L 69.46972 48.640371 
L 69.544365 48.694446 
L 69.513263 48.323073 
L 69.569247 48.593215 
L 69.634561 48.444929 
L 69.674994 48.694913 
L 69.678104 48.624006 
L 69.681215 48.703954 
L 69.715427 48.276353 
L 69.780742 48.623049 
L 69.883379 48.310057 
L 69.861607 48.673293 
L 69.889599 48.655965 
L 69.936253 48.415847 
L 69.973575 48.685598 
L 70.004677 48.587023 
L 70.023339 48.665677 
L 70.076212 48.310758 
L 70.088653 48.653471 
L 70.091764 48.277991 
L 70.197511 48.497191 
L 70.284597 48.634782 
L 70.247275 48.131004 
L 70.303259 48.455339 
L 70.412116 48.259465 
L 70.312589 48.654497 
L 70.415226 48.309357 
L 70.502313 48.681782 
L 70.530305 48.596684 
L 70.595619 48.12515 
L 70.542745 48.643625 
L 70.642273 48.551792 
L 70.664044 48.679674 
L 70.710697 48.260863 
L 70.75424 48.648663 
L 70.831996 48.336494 
L 70.872429 48.428304 
L 70.931523 48.681418 
L 70.971956 48.334174 
L 70.984397 48.592573 
L 71.049711 48.324648 
L 71.087034 48.691005 
L 71.096365 48.549655 
L 71.183451 48.121463 
L 71.102585 48.609695 
L 71.199002 48.569782 
L 71.279868 48.65647 
L 71.208333 48.334064 
L 71.304749 48.577003 
L 71.385615 48.330042 
L 71.398056 48.695393 
L 71.410497 48.522944 
L 71.413607 48.676439 
L 71.491363 48.335909 
L 71.522465 48.603767 
L 71.609551 48.37104 
L 71.59089 48.667817 
L 71.640653 48.389604 
L 71.662425 48.69271 
L 71.705968 48.316502 
L 71.752621 48.610986 
L 71.793054 48.445413 
L 71.761952 48.686735 
L 71.861479 48.669235 
L 71.911242 48.295534 
L 71.973447 48.519065 
L 72.01388 48.675411 
L 72.001439 48.385939 
L 72.085415 48.604237 
L 72.113407 48.208975 
L 72.128958 48.652458 
L 72.197383 48.527562 
L 72.203603 48.658686 
L 72.262697 48.388471 
L 72.30935 48.56503 
L 72.321791 48.447729 
L 72.331122 48.685411 
L 72.418208 48.547533 
L 72.421318 48.686228 
L 72.492853 48.448994 
L 72.527066 48.578627 
L 72.558168 48.335156 
L 72.533286 48.667102 
L 72.632813 48.516123 
L 72.688797 48.687889 
L 72.713679 48.283192 
L 72.747892 48.675362 
L 72.86297 48.296857 
L 72.769663 48.679527 
L 72.86608 48.419258 
L 72.884741 48.696616 
L 72.925174 48.386747 
L 72.981158 48.632992 
L 73.034032 48.22452 
L 73.058914 48.673369 
L 73.096236 48.548837 
L 73.105567 48.696228 
L 73.121118 48.352102 
L 73.211314 48.666365 
L 73.28907 48.259016 
L 73.2984 48.689256 
L 73.320172 48.60926 
L 73.366825 48.686192 
L 73.413479 48.387675 
L 73.422809 48.595971 
L 73.491234 48.361543 
L 73.453911 48.685715 
L 73.531667 48.55808 
L 73.631194 48.649414 
L 73.612533 48.363387 
L 73.640525 48.616154 
L 73.727611 48.323096 
L 73.71828 48.654893 
L 73.752493 48.540209 
L 73.783595 48.684765 
L 73.764933 48.384879 
L 73.86135 48.572082 
L 73.908004 48.337528 
L 73.951547 48.679804 
L 73.973318 48.531432 
L 74.047963 48.675599 
L 74.00131 48.216158 
L 74.069735 48.498894 
L 74.097727 48.327281 
L 74.159931 48.694001 
L 74.175483 48.634825 
L 74.215915 48.661014 
L 74.191034 48.403946 
L 74.262569 48.51565 
L 74.312332 48.360248 
L 74.28745 48.702499 
L 74.365206 48.495293 
L 74.377647 48.683002 
L 74.393198 48.245048 
L 74.474064 48.418515 
L 74.554929 48.682445 
L 74.526937 48.413767 
L 74.582921 48.488046 
L 74.586032 48.42989 
L 74.670008 48.68388 
L 74.685559 48.441433 
L 74.763314 48.683068 
L 74.781975 48.366739 
L 74.797527 48.547421 
L 74.809967 48.472347 
L 74.828629 48.330124 
L 74.865951 48.672972 
L 74.918825 48.535972 
L 75.015242 48.334358 
L 74.977919 48.69053 
L 75.024573 48.48019 
L 75.040124 48.66015 
L 75.055675 48.326559 
L 75.136541 48.523889 
L 75.198745 48.182034 
L 75.170753 48.6737 
L 75.239178 48.521329 
L 75.242288 48.666521 
L 75.295162 48.334995 
L 75.341815 48.416574 
L 75.400909 48.212983 
L 75.444452 48.684654 
L 75.450673 48.515815 
L 75.506657 48.664158 
L 75.519098 48.438326 
L 75.525318 48.505952 
L 75.528428 48.289787 
L 75.606184 48.648048 
L 75.634176 48.453072 
L 75.736813 48.67119 
L 75.655947 48.35886 
L 75.764805 48.56958 
L 75.870552 48.36712 
L 75.861222 48.690412 
L 75.873663 48.447176 
L 75.948308 48.664602 
L 75.942088 48.398255 
L 75.985631 48.521545 
L 76.032284 48.296638 
L 76.010512 48.652425 
L 76.050945 48.499133 
L 76.054055 48.671648 
L 76.11937 48.375719 
L 76.162913 48.631832 
L 76.231338 48.41508 
L 76.246889 48.686818 
L 76.274881 48.584791 
L 76.361967 48.698172 
L 76.315314 48.40013 
L 76.377518 48.625674 
L 76.452164 48.438822 
L 76.461494 48.686672 
L 76.489486 48.562751 
L 76.564132 48.703167 
L 76.576572 48.356101 
L 76.592123 48.483168 
L 76.595234 48.353693 
L 76.604564 48.681372 
L 76.697871 48.582184 
L 76.735194 48.653931 
L 76.741414 48.445268 
L 76.744524 48.547624 
L 76.747634 48.282093 
L 76.816059 48.66178 
L 76.853382 48.556677 
L 76.931137 48.678787 
L 76.878264 48.458061 
L 76.96846 48.622292 
L 77.071097 48.279457 
L 77.046216 48.652331 
L 77.080428 48.574882 
L 77.183065 48.689069 
L 77.151963 48.409445 
L 77.189286 48.678316 
L 77.232829 48.320951 
L 77.298143 48.495127 
L 77.39767 48.671524 
L 77.332356 48.334272 
L 77.410111 48.604964 
L 77.466095 48.68864 
L 77.447434 48.276341 
L 77.515859 48.52721 
L 77.596725 48.697593 
L 77.627827 48.358363 
L 77.67759 48.69689 
L 77.705582 48.337195 
L 77.739795 48.655132 
L 77.795779 48.449181 
L 77.826881 48.684154 
L 77.848652 48.643858 
L 77.861093 48.656428 
L 77.854873 48.544696 
L 77.867314 48.630437 
L 77.904636 48.424246 
L 77.898416 48.680515 
L 77.976171 48.613817 
L 78.078809 48.681438 
L 78.025935 48.427368 
L 78.085029 48.626592 
L 78.10369 48.237435 
L 78.147234 48.671401 
L 78.193887 48.536022 
L 78.277863 48.685576 
L 78.262312 48.241311 
L 78.302745 48.619312 
L 78.343177 48.350312 
L 78.399161 48.668697 
L 78.414712 48.586738 
L 78.461366 48.299633 
L 78.495578 48.672789 
L 78.514239 48.559789 
L 78.560893 48.676567 
L 78.557783 48.348544 
L 78.619987 48.383759 
L 78.65731 48.691323 
L 78.626207 48.274306 
L 78.735065 48.63507 
L 78.80349 48.3813 
L 78.834592 48.701579 
L 78.847033 48.511654 
L 78.871915 48.289669 
L 78.893686 48.670245 
L 78.955891 48.581276 
L 79.058528 48.435197 
L 78.980772 48.686866 
L 79.064748 48.579087 
L 79.074079 48.689056 
L 79.102071 48.329554 
L 79.173606 48.609205 
L 79.204708 48.328537 
L 79.2327 48.672338 
L 79.282464 48.520657 
L 79.391322 48.695752 
L 79.36644 48.408507 
L 79.394432 48.555224 
L 79.490849 48.657116 
L 79.478408 48.47714 
L 79.5064 48.581565 
L 79.528171 48.691236 
L 79.51262 48.482651 
L 79.562384 48.596871 
L 79.568604 48.281948 
L 79.602817 48.680239 
L 79.671241 48.591421 
L 79.705454 48.698807 
L 79.683682 48.409973 
L 79.773879 48.649015 
L 79.814311 48.430595 
L 79.829863 48.663564 
L 79.885847 48.5974 
L 79.954271 48.423522 
L 79.94183 48.66066 
L 79.997814 48.560353 
L 80.010255 48.655581 
L 80.035137 48.363977 
L 80.097341 48.471232 
L 80.140885 48.335113 
L 80.128444 48.658579 
L 80.203089 48.613024 
L 80.280844 48.348501 
L 80.274624 48.668428 
L 80.315057 48.563708 
L 80.339939 48.68723 
L 80.374151 48.36302 
L 80.420804 48.658365 
L 80.49545 48.364422 
L 80.535883 48.406205 
L 80.594977 48.684869 
L 80.610528 48.195711 
L 80.64785 48.589192 
L 80.734937 48.376894 
L 80.654071 48.652317 
L 80.759818 48.53379 
L 80.850015 48.694841 
L 80.806472 48.431061 
L 80.874897 48.631923 
L 80.91844 48.406734 
L 80.977534 48.678849 
L 80.989975 48.428953 
L 81.021077 48.691696 
L 80.996195 48.38334 
L 81.114383 48.633743 
L 81.145486 48.352445 
L 81.157927 48.697294 
L 81.226351 48.520922 
L 81.310327 48.700394 
L 81.251233 48.370447 
L 81.325878 48.482977 
L 81.332099 48.282197 
L 81.35387 48.670141 
L 81.428516 48.597532 
L 81.528043 48.686698 
L 81.48761 48.416488 
L 81.537373 48.632586 
L 81.546704 48.344957 
L 81.612019 48.682298 
L 81.652452 48.407462 
L 81.658672 48.673576 
L 81.671113 48.360105 
L 81.764419 48.501806 
L 81.77686 48.640108 
L 81.77375 48.385597 
L 81.795522 48.401711 
L 81.820403 48.688623 
L 81.848395 48.385042 
L 81.90749 48.51461 
L 81.966584 48.667558 
L 81.982135 48.420175 
L 82.022568 48.55906 
L 82.075441 48.332958 
L 82.122095 48.677077 
L 82.134536 48.477216 
L 82.221622 48.353094 
L 82.181189 48.663495 
L 82.240283 48.470297 
L 82.286936 48.702047 
L 82.346031 48.378022 
L 82.352251 48.569617 
L 82.374023 48.344629 
L 82.361582 48.696306 
L 82.461109 48.569142 
L 82.47666 48.687639 
L 82.520203 48.390086 
L 82.569966 48.574589 
L 82.669493 48.373808 
L 82.585518 48.672848 
L 82.681934 48.45589 
L 82.685045 48.435333 
L 82.744139 48.671386 
L 82.76591 48.528515 
L 82.793902 48.698654 
L 82.775241 48.351588 
L 82.877878 48.601374 
L 82.940083 48.688446 
L 82.927642 48.348695 
L 82.989846 48.649647 
L 83.089373 48.322247 
L 83.064491 48.696603 
L 83.101814 48.48083 
L 83.201341 48.699385 
L 83.164018 48.431891 
L 83.213782 48.554896 
L 83.269766 48.39729 
L 83.32886 48.670028 
L 83.47504 48.397649 
L 83.493702 48.589993 
L 83.596339 48.682447 
L 83.512363 48.284923 
L 83.599449 48.663087 
L 83.615 48.420708 
L 83.686535 48.679943 
L 83.711417 48.599205 
L 83.74874 48.447698 
L 83.74563 48.688821 
L 83.820275 48.603339 
L 83.88559 48.683919 
L 83.89803 48.400166 
L 83.929133 48.670627 
L 83.938463 48.440061 
L 83.944684 48.680674 
L 84.041101 48.640925 
L 84.100195 48.421557 
L 84.059762 48.675401 
L 84.18106 48.61718 
L 84.184171 48.668325 
L 84.215273 48.44651 
L 84.280587 48.550022 
L 84.293028 48.335227 
L 84.32102 48.67882 
L 84.389445 48.578237 
L 84.46098 48.688565 
L 84.473421 48.379112 
L 84.498303 48.526483 
L 84.520074 48.699592 
L 84.582279 48.382932 
L 84.613381 48.566304 
L 84.656924 48.338588 
L 84.628932 48.656702 
L 84.725349 48.537352 
L 84.753341 48.690751 
L 84.74712 48.440468 
L 84.834207 48.557774 
L 84.902631 48.473816 
L 84.849758 48.647066 
L 84.905742 48.633688 
L 84.908852 48.689335 
L 84.930623 48.39859 
L 85.014599 48.62576 
L 85.098575 48.464943 
L 85.117237 48.663221 
L 85.123457 48.522217 
L 85.142118 48.688961 
L 85.17011 48.484776 
L 85.235425 48.575433 
L 85.341173 48.453645 
L 85.263417 48.657034 
L 85.347393 48.506199 
L 85.384716 48.683254 
L 85.418928 48.267182 
L 85.456251 48.589446 
L 85.459361 48.429929 
L 85.502904 48.673142 
L 85.565108 48.651822 
L 85.617982 48.367244 
L 85.633533 48.686184 
L 85.680186 48.569999 
L 85.779714 48.693897 
L 85.739281 48.339315 
L 85.785934 48.593388 
L 85.792154 48.394719 
L 85.813926 48.689347 
L 85.897902 48.523684 
L 85.994319 48.675482 
L 85.963217 48.430557 
L 86.00987 48.613888 
L 86.106287 48.666424 
L 86.121838 48.279748 
L 86.168491 48.661863 
L 86.233806 48.629584 
L 86.258687 48.457454 
L 86.305341 48.683058 
L 86.345774 48.552673 
L 86.423529 48.684654 
L 86.411088 48.395535 
L 86.454631 48.579823 
L 86.557269 48.400118 
L 86.482623 48.689418 
L 86.563489 48.547624 
L 86.603922 48.663397 
L 86.663016 48.421268 
L 86.669236 48.565987 
L 86.672347 48.451578 
L 86.687898 48.671423 
L 86.778094 48.473441 
L 86.815417 48.682958 
L 86.840299 48.412205 
L 86.890062 48.539365 
L 86.955377 48.472263 
L 86.896283 48.677699 
L 86.970928 48.64313 
L 87.00825 48.679424 
L 86.99892 48.38785 
L 87.058014 48.554417 
L 87.151321 48.371042 
L 87.101557 48.649825 
L 87.163761 48.619504 
L 87.166872 48.679057 
L 87.247737 48.357201 
L 87.269509 48.524129 
L 87.29128 48.42888 
L 87.331713 48.655124 
L 87.356595 48.613329 
L 87.409469 48.682037 
L 87.437461 48.432786 
L 87.468563 48.650128 
L 87.481004 48.696865 
L 87.580531 48.303084 
L 87.636515 48.687704 
L 87.692499 48.520678 
L 87.751593 48.243588 
L 87.70494 48.634978 
L 87.782695 48.474733 
L 87.863561 48.671384 
L 87.826238 48.349027 
L 87.894663 48.62403 
L 87.900884 48.49159 
L 87.910214 48.588594 
L 87.913324 48.436904 
L 87.950647 48.695165 
L 88.022182 48.525263 
L 88.124819 48.666241 
L 88.081276 48.411661 
L 88.13726 48.665481 
L 88.159032 48.350752 
L 88.202575 48.684813 
L 88.249228 48.59513 
L 88.323874 48.692455 
L 88.26789 48.494698 
L 88.361196 48.612638 
L 88.364306 48.425389 
L 88.451393 48.697992 
L 88.470054 48.46761 
L 88.507377 48.694705 
L 88.513597 48.426705 
L 88.582022 48.651577 
L 88.597573 48.351835 
L 88.69399 48.580701 
L 88.731312 48.382109 
L 88.718871 48.660169 
L 88.796627 48.507444 
L 88.799737 48.700237 
L 88.805958 48.334425 
L 88.908595 48.595578 
L 88.992571 48.43646 
L 88.945918 48.688264 
L 89.023673 48.520231 
L 89.060996 48.362369 
L 89.076547 48.694261 
L 89.135641 48.468151 
L 89.154302 48.681272 
L 89.210286 48.421913 
L 89.244499 48.57004 
L 89.350246 48.333318 
L 89.344026 48.682349 
L 89.356467 48.500251 
L 89.424891 48.254936 
L 89.375128 48.687851 
L 89.455994 48.570138 
L 89.505757 48.701049 
L 89.493316 48.330505 
L 89.567962 48.64089 
L 89.648827 48.379097 
L 89.630166 48.656239 
L 89.68615 48.494212 
L 89.68926 48.673078 
L 89.69237 48.402887 
L 89.795008 48.655554 
L 89.798118 48.346805 
L 89.885204 48.690231 
L 89.906976 48.483981 
L 89.994062 48.396246 
L 89.913196 48.651903 
L 90.009613 48.483346 
L 90.018943 48.692825 
L 90.099809 48.371412 
L 90.124691 48.616273 
L 90.152683 48.346086 
L 90.134022 48.687754 
L 90.233549 48.596599 
L 90.25221 48.433986 
L 90.323745 48.682813 
L 90.326855 48.406985 
L 90.413941 48.691075 
L 90.432603 48.612117 
L 90.516579 48.681294 
L 90.491697 48.49076 
L 90.54146 48.619933 
L 90.634767 48.412628 
L 90.616106 48.699296 
L 90.653428 48.487298 
L 90.740515 48.695126 
L 90.696971 48.412707 
L 90.771617 48.60058 
L 90.858703 48.410737 
L 90.82449 48.666554 
L 90.883585 48.537198 
L 90.96134 48.691895 
L 90.902246 48.488048 
L 90.995553 48.677047 
L 91.020434 48.41501 
L 91.10441 48.598727 
L 91.157284 48.675074 
L 91.123072 48.358768 
L 91.213268 48.587386 
L 91.278583 48.455624 
L 91.269252 48.689373 
L 91.315905 48.558508 
L 91.331456 48.684636 
L 91.406102 48.376162 
L 91.427873 48.652269 
L 91.52118 48.349656 
L 91.5274 48.696533 
L 91.546062 48.555905 
L 91.623817 48.660209 
L 91.605156 48.426781 
L 91.658029 48.635387 
L 91.682911 48.346456 
L 91.729564 48.674814 
L 91.773108 48.394441 
L 91.816651 48.675989 
L 91.885075 48.552652 
L 91.894406 48.405283 
L 91.891296 48.67204 
L 91.981492 48.5803 
L 92.071689 48.696196 
L 91.997043 48.402861 
L 92.09035 48.628571 
L 92.102791 48.377122 
L 92.133893 48.674688 
L 92.202318 48.582904 
L 92.245861 48.670841 
L 92.23653 48.458684 
L 92.298735 48.49606 
L 92.388931 48.392917 
L 92.323617 48.672177 
L 92.404482 48.588393 
L 92.451136 48.67477 
L 92.413813 48.442736 
L 92.454246 48.585298 
L 92.532001 48.382893 
L 92.472907 48.668187 
L 92.563103 48.564704 
L 92.597316 48.670136 
L 92.569324 48.519248 
L 92.609757 48.568706 
L 92.65019 48.370006 
L 92.678182 48.682057 
L 92.718614 48.656493 
L 92.79326 48.390249 
L 92.805701 48.674888 
L 92.830582 48.54578 
L 92.926999 48.427533 
L 92.945661 48.684272 
L 93.023416 48.394946 
L 92.986093 48.699875 
L 93.057628 48.566287 
L 93.110502 48.689643 
L 93.0794 48.451888 
L 93.160266 48.669406 
L 93.166486 48.44177 
L 93.262903 48.681231 
L 93.272234 48.557632 
L 93.309556 48.421524 
L 93.387312 48.686086 
L 93.474398 48.408318 
L 93.486839 48.694471 
L 93.49928 48.510189 
L 93.564594 48.687802 
L 93.552153 48.401588 
L 93.611248 48.579663 
L 93.614358 48.394207 
L 93.670342 48.689486 
L 93.723216 48.406756 
L 93.751208 48.676436 
L 93.769869 48.328408 
L 93.832073 48.593057 
L 93.835183 48.297926 
L 93.934711 48.680334 
L 93.940931 48.434507 
L 94.006246 48.655935 
L 93.959592 48.344424 
L 94.052899 48.622561 
L 94.07156 48.638482 
L 94.087111 48.382328 
L 94.130654 48.470003 
L 94.133765 48.330514 
L 94.143095 48.676325 
L 94.236402 48.56525 
L 94.295496 48.352506 
L 94.35148 48.684846 
L 94.382582 48.435707 
L 94.376362 48.693145 
L 94.463448 48.558763 
L 94.472779 48.688041 
L 94.544314 48.420205 
L 94.575416 48.617074 
L 94.6314 48.414424 
L 94.609628 48.695369 
L 94.687384 48.597185 
L 94.702935 48.410024 
L 94.696714 48.654963 
L 94.702935 48.410024 
" clip-path="url(#p6731b20f39)" style="fill: none; stroke: #ff7f0e; stroke-width: 0.5; stroke-linecap: square"/>
   </g>
  </g>
 </g>
 <defs>
  <clipPath id="p6731b20f39">
   <rect x="0" y="-0" width="99.212598" height="51.023622"/>
  </clipPath>
 </defs>
</svg>
