<?xml version="1.0" encoding="utf-8" standalone="no"?>
<!DOCTYPE svg PUBLIC "-//W3C//DTD SVG 1.1//EN"
  "http://www.w3.org/Graphics/SVG/1.1/DTD/svg11.dtd">
<svg xmlns:xlink="http://www.w3.org/1999/xlink" width="99.212598pt" height="51.023622pt" viewBox="0 0 99.212598 51.023622" xmlns="http://www.w3.org/2000/svg" version="1.1">
 <metadata>
  <rdf:RDF xmlns:dc="http://purl.org/dc/elements/1.1/" xmlns:cc="http://creativecommons.org/ns#" xmlns:rdf="http://www.w3.org/1999/02/22-rdf-syntax-ns#">
   <cc:Work>
    <dc:type rdf:resource="http://purl.org/dc/dcmitype/StillImage"/>
    <dc:date>2024-10-30T10:51:20.350536</dc:date>
    <dc:format>image/svg+xml</dc:format>
    <dc:creator>
     <cc:Agent>
      <dc:title>Matplotlib v3.8.4, https://matplotlib.org/</dc:title>
     </cc:Agent>
    </dc:creator>
   </cc:Work>
  </rdf:RDF>
 </metadata>
 <defs>
  <style type="text/css">*{stroke-linejoin: round; stroke-linecap: butt}</style>
 </defs>
 <g id="figure_1">
  <g id="patch_1">
   <path d="M 0 51.023622 
L 99.212598 51.023622 
L 99.212598 0 
L 0 0 
L 0 51.023622 
z
" style="fill: none"/>
  </g>
  <g id="axes_1">
   <g id="patch_2">
    <path d="M 0 51.023622 
L 99.212598 51.023622 
L 99.212598 -0 
L 0 -0 
L 0 51.023622 
z
" style="fill: none"/>
   </g>
   <g id="matplotlib.axis_1">
    <g id="xtick_1"/>
    <g id="xtick_2"/>
   </g>
   <g id="matplotlib.axis_2">
    <g id="ytick_1"/>
    <g id="ytick_2"/>
   </g>
   <g id="line2d_1">
    <path d="M 4.509664 40.139103 
L 4.574978 20.143764 
L 4.630962 6.681671 
L 4.683836 19.645691 
L 4.798914 41.923442 
L 4.833126 36.092766 
L 4.88289 26.835851 
L 4.938874 37.199122 
L 4.969976 44.822865 
L 5.02907 31.7592 
L 5.047732 30.890459 
L 5.091275 35.007827 
L 5.193912 46.515427 
L 5.262337 39.169484 
L 5.436509 2.319256 
L 5.476942 14.532754 
L 5.567138 46.934686 
L 5.651114 42.635904 
L 5.772413 47.465766 
L 5.791074 45.253535 
L 5.837728 39.433356 
L 5.896822 45.927565 
L 5.912373 47.527872 
L 5.952806 44.825257 
L 6.005679 45.784007 
L 6.033671 48.080216 
L 6.067884 43.628766 
L 6.083435 42.820258 
L 6.142529 45.39294 
L 6.164301 48.095933 
L 6.226505 43.56512 
L 6.245166 44.396156 
L 6.279379 48.004348 
L 6.335363 43.764424 
L 6.341583 43.767812 
L 6.354024 43.659254 
L 6.388236 45.422164 
L 6.422449 47.612558 
L 6.484653 44.521893 
L 6.490874 44.716511 
L 6.497094 44.607684 
L 6.528196 47.084221 
L 6.543747 48.008907 
L 6.58107 46.325648 
L 6.624613 46.389202 
L 6.758353 40.952935 
L 6.668156 46.93519 
L 6.777014 41.689623 
L 6.895202 46.714063 
L 6.848549 39.648095 
L 6.910753 45.190834 
L 6.923194 43.858665 
L 7.00717 47.717125 
L 7.019611 48.431438 
L 7.060044 46.433093 
L 7.116028 47.702208 
L 7.200004 46.717244 
L 7.162681 48.112759 
L 7.224886 47.688321 
L 7.255988 48.139693 
L 7.28087 46.382447 
L 7.343074 42.874793 
L 7.305751 46.390479 
L 7.405278 44.305136 
L 7.498585 47.574215 
L 7.523467 45.411278 
L 7.532797 44.843844 
L 7.56701 48.374503 
L 7.622994 46.892381 
L 7.678978 47.811702 
L 7.71319 45.434273 
L 7.7163 45.205361 
L 7.775395 48.320713 
L 7.818938 45.572719 
L 7.868701 47.875839 
L 7.952677 47.338708 
L 7.983779 47.626395 
L 8.042874 46.367927 
L 8.045984 46.491118 
L 8.049094 46.355775 
L 8.101968 48.591738 
L 8.142401 46.887366 
L 8.245038 48.079699 
L 8.223266 46.443257 
L 8.257479 47.225362 
L 8.28236 45.935248 
L 8.325904 47.497925 
L 8.369447 47.042308 
L 8.372557 47.3168 
L 8.41299 44.685373 
L 8.462753 45.884114 
L 8.546729 44.349452 
L 8.509407 46.472802 
L 8.571611 45.954567 
L 8.646256 46.702226 
L 8.612044 44.522735 
L 8.680469 45.862363 
L 8.870192 48.598018 
L 8.876413 48.450123 
L 8.969719 46.402701 
L 9.016372 47.045904 
L 9.143891 48.21519 
L 9.109679 46.742271 
L 9.147002 48.067646 
L 9.327394 44.172598 
L 9.153222 48.131143 
L 9.358497 45.79401 
L 9.395819 46.787941 
L 9.417591 44.581578 
L 9.458024 45.437019 
L 9.479795 44.656183 
L 9.507787 47.82235 
L 9.560661 45.82571 
L 9.697511 48.509064 
L 9.703731 48.087783 
L 9.719282 47.554316 
L 9.750384 48.404983 
L 9.815699 47.853614 
L 9.936998 48.63732 
L 9.877903 46.96205 
L 9.940108 48.538242 
L 9.992982 47.429217 
L 10.052076 48.4414 
L 10.120501 47.092968 
L 10.058296 48.55072 
L 10.167154 47.962269 
L 10.176485 48.507307 
L 10.220028 46.646934 
L 10.269791 47.860529 
L 10.369318 46.138205 
L 10.322665 48.377351 
L 10.387979 46.742821 
L 10.39731 46.928638 
L 10.450184 44.239121 
L 10.478176 45.742794 
L 10.481286 45.761068 
L 10.490617 45.344877 
L 10.506168 43.628266 
L 10.559042 47.889474 
L 10.587034 47.003074 
L 10.68034 48.05636 
L 10.646128 46.084569 
L 10.699001 47.619612 
L 10.801639 46.291848 
L 10.726993 47.823481 
L 10.81408 47.011125 
L 10.929158 48.529951 
L 10.842072 46.594134 
L 10.935378 48.468023 
L 10.947819 48.05082 
L 10.972701 47.561613 
L 11.016244 48.562414 
L 11.050456 48.195357 
L 11.072228 48.667191 
L 11.131322 47.182316 
L 11.159314 48.241205 
L 11.230849 47.834915 
L 11.255731 48.597894 
L 11.268172 48.267906 
L 11.358368 48.590246 
L 11.321045 46.521942 
L 11.367699 47.867898 
L 11.411242 46.259986 
L 11.464116 48.309809 
L 11.476556 47.945149 
L 11.479667 48.095374 
L 11.507659 45.699284 
L 11.541871 45.862823 
L 11.625847 45.393202 
L 11.591635 46.764155 
L 11.644508 46.299942 
L 11.647619 46.292499 
L 11.653839 46.480698 
L 11.656949 46.366647 
L 11.753366 47.083659 
L 11.681831 45.585462 
L 11.768917 46.788552 
L 11.775138 46.68239 
L 11.796909 47.315202 
L 11.80313 47.265555 
L 11.821791 48.42085 
L 11.852893 46.885724 
L 11.918208 47.968553 
L 11.924428 47.894619 
L 11.939979 48.63454 
L 11.974192 48.300657 
L 12.064388 48.604979 
L 12.042617 47.836928 
L 12.083049 48.332299 
L 12.08616 48.329367 
L 12.123482 47.652206 
L 12.201238 47.695331 
L 12.213679 47.258717 
L 12.23856 48.604259 
L 12.310095 47.414828 
L 12.397182 48.554554 
L 12.341198 47.355441 
L 12.431394 48.225701 
L 12.524701 47.8874 
L 12.493598 48.630306 
L 12.540252 48.316197 
L 12.698873 45.188734 
L 12.705093 45.643497 
L 12.726865 46.716339 
L 12.807731 44.829825 
L 12.820172 43.673675 
L 12.891707 46.88086 
L 12.894817 46.825359 
L 12.957021 47.61254 
L 13.028556 48.385983 
L 12.994344 46.578885 
L 13.068989 48.025889 
L 13.106312 47.729901 
L 13.156075 48.580239 
L 13.174737 48.277391 
L 13.212059 47.356101 
L 13.283594 48.617657 
L 13.342689 46.939326 
L 13.305366 48.624221 
L 13.404893 47.331405 
L 13.523081 48.395808 
L 13.488869 46.905171 
L 13.538632 47.977936 
L 13.64749 47.275362 
L 13.563514 48.633423 
L 13.653711 47.78099 
L 13.694143 48.635235 
L 13.750127 47.723317 
L 13.762568 47.923121 
L 13.824773 46.847542 
L 13.78434 48.659536 
L 13.858985 48.2421 
L 13.871426 48.647885 
L 13.93363 46.64664 
L 13.949181 47.068566 
L 14.008276 47.865383 
L 14.036268 46.526778 
L 14.061149 47.168745 
L 14.079811 46.131072 
L 14.117133 47.56624 
L 14.160676 47.497838 
L 14.204219 47.039472 
L 14.278865 48.414803 
L 14.319298 47.492918 
L 14.397053 48.020241 
L 14.409494 47.78435 
L 14.459258 48.313967 
L 14.481029 47.998806 
L 14.558785 48.641309 
L 14.586777 47.825492 
L 14.589887 48.121748 
L 14.652091 46.504692 
L 14.605438 48.608981 
L 14.689414 48.216696 
L 14.704965 48.654081 
L 14.77339 47.462686 
L 14.801382 48.540547 
L 14.854255 47.977954 
L 14.844925 48.60449 
L 14.910239 48.572867 
L 14.91335 48.628272 
L 14.963113 47.830778 
L 14.975554 48.017146 
L 14.994215 47.195716 
L 15.068861 48.371568 
L 15.090632 47.460522 
L 15.252364 46.287498 
L 15.109294 48.638687 
L 15.255474 46.478148 
L 15.311458 47.599372 
L 15.364332 46.283275 
L 15.373662 46.761505 
L 15.420316 45.802798 
L 15.445197 45.839019 
L 15.448307 45.769227 
L 15.494961 46.840615 
L 15.501181 46.689237 
L 15.563386 48.594307 
L 15.613149 47.443184 
L 15.731338 46.505274 
L 15.638031 48.351884 
L 15.740668 46.806542 
L 15.774881 48.607637 
L 15.858857 48.244882 
L 15.896179 47.558982 
L 15.924171 48.33366 
L 15.930392 48.083808 
L 15.942832 48.635488 
L 16.036139 47.78676 
L 16.04547 47.610556 
L 16.067241 48.436826 
L 16.129446 48.262909 
L 16.163658 48.610395 
L 16.219642 47.304743 
L 16.225863 47.761043 
L 16.232083 47.563862 
L 16.256965 48.556151 
L 16.32539 48.274965 
L 16.350271 48.634137 
L 16.33161 47.986033 
L 16.409365 48.290126 
L 16.487121 47.517567 
L 16.434247 48.651144 
L 16.521333 48.073487 
L 16.605309 48.521373 
L 16.580428 46.955415 
L 16.62086 47.29634 
L 16.630191 46.66673 
L 16.655073 47.972292 
L 16.707947 47.486461 
L 16.823025 48.315279 
L 16.739049 46.519657 
L 16.826135 48.122897 
L 16.844796 48.4727 
L 16.882119 47.567525 
L 16.947434 46.88772 
L 16.913221 48.529484 
L 16.990977 47.849422 
L 16.997197 47.681546 
L 17.068732 48.454418 
L 17.087393 48.129589 
L 17.143377 48.551484 
L 17.112275 47.582471 
L 17.168259 47.912156 
L 17.171369 47.797762 
L 17.211802 48.673067 
L 17.267786 48.276307 
L 17.286448 48.514443 
L 17.295778 48.12325 
L 17.31444 48.168659 
L 17.373534 46.878758 
L 17.426407 47.927576 
L 17.488612 48.424059 
L 17.513494 47.824322 
L 17.550816 48.388585 
L 17.625462 47.622532 
L 17.659674 48.547287 
L 17.662784 48.232053 
L 17.728099 48.013248 
L 17.756091 48.572684 
L 17.768532 48.281721 
L 17.790303 48.673745 
L 17.858728 47.468314 
L 17.864948 47.580603 
L 17.868059 47.553809 
L 17.896051 48.187473 
L 17.920932 47.979111 
L 17.939594 48.283128 
L 18.011129 47.263755 
L 18.017349 46.932101 
L 18.076443 47.959868 
L 18.113766 47.619576 
L 18.197742 48.066626 
L 18.16975 46.619582 
L 18.207073 47.067372 
L 18.247506 45.864833 
L 18.319041 46.975794 
L 18.387465 48.647612 
L 18.431009 47.091312 
L 18.434119 46.783635 
L 18.474552 48.421837 
L 18.527425 48.082128 
L 18.536756 48.674678 
L 18.617622 47.275797 
L 18.639393 48.197309 
L 18.645614 47.955826 
L 18.698487 48.542131 
L 18.751361 48.052602 
L 18.763802 48.620016 
L 18.794904 47.681966 
L 18.863329 48.480254 
L 18.903762 48.564384 
L 18.987738 47.739024 
L 19.01884 48.65503 
L 19.105926 48.56076 
L 19.127698 47.679616 
L 19.217894 48.072962 
L 19.224115 48.503614 
L 19.239666 47.965483 
L 19.329862 48.494037 
L 19.360964 47.64322 
L 19.426279 48.634736 
L 19.460491 48.250492 
L 19.463602 48.647605 
L 19.519586 47.280087 
L 19.569349 48.136861 
L 19.572459 48.135572 
L 19.57868 47.869284 
L 19.662656 48.656694 
L 19.681317 48.173118 
L 19.802616 48.624978 
L 19.72175 47.961387 
L 19.808836 48.51804 
L 19.892812 47.338647 
L 19.855489 48.64729 
L 19.939465 47.605193 
L 19.983008 48.493575 
L 19.945686 47.588059 
L 20.063874 48.2465 
L 20.076315 47.760769 
L 20.126078 48.563435 
L 20.172732 48.249113 
L 20.231826 48.556154 
L 20.200724 47.555648 
L 20.272259 48.061568 
L 20.275369 47.986614 
L 20.343794 48.658114 
L 20.374896 48.072183 
L 20.399778 48.646536 
L 20.440211 47.999454 
L 20.486864 48.374545 
L 20.517966 48.00274 
L 20.561509 48.59257 
L 20.595722 48.127663 
L 20.601942 48.488166 
L 20.689028 47.382173 
L 20.70769 48.224034 
L 20.72013 48.468345 
L 20.745012 47.708601 
L 20.813437 48.090641 
L 20.844539 47.554282 
L 20.900523 48.609007 
L 20.916074 48.016551 
L 20.919185 48.331646 
L 21.006271 47.473119 
L 21.021822 47.563771 
L 21.087136 48.515434 
L 21.028042 47.349023 
L 21.155561 47.935872 
L 21.258199 46.329788 
L 21.171112 48.122463 
L 21.27375 46.852356 
L 21.357726 48.525426 
L 21.295521 46.580613 
L 21.41993 48.455357 
L 21.500796 47.541739 
L 21.42615 48.523928 
L 21.525677 48.437299 
L 21.528788 48.556865 
L 21.606543 47.905425 
L 21.625205 48.494384 
L 21.637645 47.845547 
L 21.727842 48.635442 
L 21.734062 48.576829 
L 21.786936 47.583755 
L 21.821148 48.602403 
L 21.861581 48.242492 
L 21.867802 48.559959 
L 21.917565 48.117356 
L 21.964218 48.153689 
L 22.017092 47.925137 
L 21.998431 48.672534 
L 22.073076 48.093783 
L 22.091738 48.596656 
L 22.150832 47.316694 
L 22.188154 48.48286 
L 22.256579 47.433929 
L 22.300122 48.415066 
L 22.334335 48.647783 
L 22.362327 48.032161 
L 22.365437 48.110052 
L 22.40587 47.496628 
L 22.464964 48.481957 
L 22.474295 48.079721 
L 22.477405 48.087916 
L 22.480515 47.914101 
L 22.486735 47.678971 
L 22.527168 48.62167 
L 22.589373 47.754042 
L 22.716892 48.683563 
L 22.816419 47.512438 
L 22.83508 48.136629 
L 22.912836 48.658495 
L 22.881733 47.751516 
L 22.947048 48.268789 
L 22.97504 47.483556 
L 23.040355 48.673445 
L 23.049685 48.348699 
L 23.087008 48.636845 
L 23.12122 47.801876 
L 23.155433 48.417921 
L 23.211417 47.799523 
L 23.236298 48.559572 
L 23.267401 48.35579 
L 23.342046 48.67346 
L 23.370038 47.997429 
L 23.373148 48.139688 
L 23.475785 48.685923 
L 23.379369 48.070887 
L 23.482006 48.558257 
L 23.572202 47.721383 
L 23.593974 48.034327 
L 23.668619 48.661566 
L 23.628186 48.017101 
L 23.724603 48.431405 
L 23.758815 47.724764 
L 23.733934 48.623424 
L 23.830351 48.507935 
L 23.833461 48.65589 
L 23.892555 48.198945 
L 23.939208 48.417134 
L 24.048066 47.318525 
L 24.035625 48.585107 
L 24.063617 47.622076 
L 24.116491 48.594009 
L 24.178695 48.524329 
L 24.312435 46.772015 
L 24.231569 48.664724 
L 24.343537 47.898132 
L 24.349757 48.498608 
L 24.443064 47.19044 
L 24.446174 47.321513 
L 24.564362 48.139988 
L 24.477276 46.824031 
L 24.576803 47.591864 
L 24.579914 47.477509 
L 24.639008 48.582698 
L 24.67011 48.106854 
L 24.769637 48.566487 
L 24.713653 47.789852 
L 24.782078 48.335092 
L 24.797629 47.822701 
L 24.856723 48.633663 
L 24.894046 48.049029 
L 24.925148 48.606335 
L 24.990463 47.971529 
L 25.009124 48.375397 
L 25.068218 48.695867 
L 25.027785 47.897411 
L 25.105541 48.116253 
L 25.111761 47.674226 
L 25.155304 48.607864 
L 25.211288 48.093447 
L 25.285934 48.622528 
L 25.257942 47.706707 
L 25.320146 48.010576 
L 25.410342 48.576853 
L 25.357469 47.998978 
L 25.435224 48.21247 
L 25.460106 47.866055 
L 25.481877 48.660952 
L 25.544082 48.09908 
L 25.621837 48.638972 
L 25.553412 47.79963 
L 25.66227 48.274894 
L 25.736915 47.85264 
L 25.677821 48.39526 
L 25.746246 48.206726 
L 25.752467 48.58697 
L 25.774238 47.549819 
L 25.858214 48.520217 
L 25.889316 47.856673 
L 25.923529 48.613889 
L 25.970182 48.062935 
L 26.066599 48.624279 
L 26.038607 47.895914 
L 26.08215 48.157866 
L 26.156795 47.625597 
L 26.138134 48.545936 
L 26.184787 48.260711 
L 26.278094 48.614942 
L 26.22211 47.761845 
L 26.293645 48.22074 
L 26.377621 48.583541 
L 26.309196 48.011235 
L 26.402503 48.351222 
L 26.489589 48.122361 
L 26.430494 48.635612 
L 26.50514 48.514093 
L 26.50825 48.634224 
L 26.533132 47.531755 
L 26.617108 48.622326 
L 26.6451 47.939315 
L 26.725965 48.590512 
L 26.735296 48.596306 
L 26.732186 48.525995 
L 26.738406 48.563583 
L 26.841044 47.867968 
L 26.819272 48.60552 
L 26.853484 48.241322 
L 26.856595 48.123622 
L 26.940571 48.679123 
L 26.956122 48.390645 
L 27.002775 48.664261 
L 27.018326 48.216538 
L 27.064979 48.45193 
L 27.170727 47.766738 
L 27.136514 48.637331 
L 27.183168 47.953769 
L 27.22049 48.638315 
L 27.204939 47.903174 
L 27.301356 48.326844 
L 27.372891 47.765285 
L 27.307577 48.6429 
L 27.403993 48.283096 
L 27.441316 48.664251 
L 27.50352 47.584003 
L 27.509741 47.457137 
L 27.537733 48.323025 
L 27.540843 48.6514 
L 27.562615 47.598967 
L 27.64037 47.929513 
L 27.705685 47.45752 
L 27.718126 48.469723 
L 27.746118 47.960217 
L 27.811432 48.620839 
L 27.836314 47.687777 
L 27.851865 47.847058 
L 27.907849 47.248761 
L 27.873637 48.45967 
L 27.960723 47.938211 
L 27.998045 47.293028 
L 28.041588 48.365293 
L 28.047809 48.134304 
L 28.144226 48.664257 
L 28.103793 47.849855 
L 28.159777 48.376231 
L 28.253083 47.804985 
L 28.212651 48.568121 
L 28.265524 48.193555 
L 28.34328 48.536382 
L 28.330839 48.03315 
L 28.371272 48.041167 
L 28.380602 47.94898 
L 28.461468 48.504783 
L 28.467689 48.266049 
L 28.498791 48.602139 
L 28.517452 48.163763 
L 28.579657 48.402243 
L 28.588987 47.893485 
L 28.638751 48.586665 
L 28.691624 48.115178 
L 28.76627 48.654546 
L 28.713396 47.878257 
L 28.809813 48.624873 
L 28.837805 47.694774 
L 28.90934 48.64904 
L 28.921781 48.508071 
L 29.018198 48.058781 
L 28.962214 48.639735 
L 29.027528 48.338781 
L 29.030638 48.561591 
L 29.0493 47.791096 
L 29.139496 48.517978 
L 29.214141 48.593123 
L 29.257685 47.529403 
L 29.350991 48.510921 
L 29.369652 48.270432 
L 29.375873 47.525822 
L 29.453628 48.606349 
L 29.48162 47.968423 
L 29.512723 48.641621 
L 29.562486 47.915817 
L 29.593588 48.396911 
L 29.674454 48.572837 
L 29.652682 47.844135 
L 29.680674 48.256644 
L 29.76465 48.103373 
L 29.730438 48.636414 
L 29.792642 48.149571 
L 29.870398 48.678783 
L 29.842406 48.087316 
L 29.910831 48.626884 
L 29.966815 48.087967 
L 30.016578 48.665882 
L 30.022799 48.550178 
L 30.03835 47.987362 
L 30.063232 48.657168 
L 30.144097 48.297723 
L 30.175199 48.645567 
L 30.234294 48.033781 
L 30.256065 48.49792 
L 30.352482 48.164501 
L 30.302718 48.68316 
L 30.368033 48.288339 
L 30.411576 48.668717 
L 30.402245 47.862968 
L 30.480001 48.486542 
L 30.532875 48.075133 
L 30.585748 48.646071 
L 30.588859 48.562306 
L 30.663504 48.30081 
L 30.61063 48.651855 
L 30.672835 48.613345 
L 30.675945 48.687538 
L 30.735039 48.151528 
L 30.781692 48.572707 
L 30.915432 47.819832 
L 30.828346 48.640189 
L 30.924762 48.17747 
L 31.011849 48.572948 
L 30.965195 47.943431 
L 31.03051 48.167364 
L 31.055392 47.6325 
L 31.089604 48.536634 
L 31.139368 48.287889 
L 31.151809 48.414629 
L 31.207792 47.806066 
L 31.325981 48.564354 
L 31.366414 48.464613 
L 31.434839 46.877161 
L 31.394406 48.589275 
L 31.481492 48.219545 
L 31.59035 48.659467 
L 31.556137 47.390547 
L 31.59346 48.544513 
L 31.692987 47.736956 
L 31.671215 48.611085 
L 31.705428 48.407432 
L 31.711648 48.667057 
L 31.776963 48.156709 
L 31.817396 48.540079 
L 31.820506 48.606605 
L 31.870269 47.978661 
L 31.904482 48.213613 
L 31.910702 47.890379 
L 31.976017 48.663024 
L 32.007119 48.606995 
L 32.010229 48.613804 
L 32.02267 48.407728 
L 32.032001 47.880262 
L 32.059993 48.653992 
L 32.131528 48.2755 
L 32.147079 48.670794 
L 32.16263 48.19567 
L 32.243496 48.418336 
L 32.280818 48.644454 
L 32.327472 48.09722 
L 32.355464 48.456045 
L 32.399007 48.067978 
L 32.371015 48.626459 
L 32.461211 48.541225 
L 32.476762 48.681977 
L 32.545187 48.095709 
L 32.563848 48.261241 
L 32.622943 47.829902 
L 32.666486 48.65348 
L 32.669596 48.500369 
L 32.72869 48.17859 
L 32.750462 48.668614 
L 32.784674 48.245413 
L 32.896642 48.622845 
L 32.812666 47.963377 
L 32.899752 48.618117 
L 32.902862 48.623225 
L 32.909083 48.515062 
L 32.912193 48.589447 
L 33.01172 47.863588 
L 32.933965 48.676668 
L 33.027271 48.065161 
L 33.105027 48.68736 
L 33.055263 47.883304 
L 33.136129 48.198189 
L 33.167231 47.731383 
L 33.195223 48.458538 
L 33.238766 48.429125 
L 33.285419 48.669946 
L 33.257428 47.709663 
L 33.325852 47.927861 
L 33.328963 47.834326 
L 33.403608 48.6507 
L 33.422269 48.348012 
L 33.43782 47.941903 
L 33.459592 48.545341 
L 33.472033 48.669492 
L 33.506245 47.902643 
L 33.559119 48.629333 
L 33.649315 48.077374 
L 33.602662 48.650671 
L 33.671087 48.428384 
L 33.708409 47.944712 
L 33.733291 48.656022 
L 33.748842 48.416456 
L 33.814157 48.625668 
L 33.783055 48.203677 
L 33.86081 48.520218 
L 33.988329 47.891203 
L 33.947896 48.614871 
L 33.99766 48.081996 
L 34.084746 48.559801 
L 34.034983 47.902529 
L 34.109628 48.533824 
L 34.178053 48.172689 
L 34.193604 48.606316 
L 34.218486 48.519192 
L 34.324233 48.683989 
L 34.299351 48.007635 
L 34.327343 48.501944 
L 34.364666 48.670377 
L 34.383327 48.151892 
L 34.414429 48.339854 
L 34.467303 48.170296 
L 34.510846 48.538562 
L 34.517067 48.316505 
L 34.548169 48.655994 
L 34.585491 48.160342 
L 34.629035 48.569381 
L 34.747223 47.693086 
L 34.641475 48.621211 
L 34.753443 47.931107 
L 34.756554 47.917977 
L 34.765884 48.327154 
L 34.775215 48.300851 
L 34.787656 48.647678 
L 34.809427 47.883889 
L 34.862301 48.17817 
L 34.865411 47.888296 
L 34.964938 48.590275 
L 34.968049 48.386109 
L 34.977379 48.565122 
L 34.996041 47.966943 
L 35.052024 48.007 
L 35.157772 47.569603 
L 35.089347 48.648368 
L 35.167103 47.737443 
L 35.204425 48.671402 
L 35.223087 47.508535 
L 35.288401 48.296119 
L 35.297732 48.336291 
L 35.310173 48.070685 
L 35.313283 47.793645 
L 35.384818 48.571305 
L 35.41592 48.481028 
L 35.471904 48.600176 
L 35.437692 48.02174 
L 35.503006 48.273575 
L 35.55277 47.934755 
L 35.537219 48.652971 
L 35.614974 48.206392 
L 35.69895 48.626433 
L 35.680289 47.869446 
L 35.717612 48.047923 
L 35.720722 48.036719 
L 35.739383 48.234173 
L 35.83891 48.66024 
L 35.751824 48.029121 
L 35.851351 48.523424 
L 35.932217 48.689539 
L 35.898004 48.183821 
L 35.963319 48.559436 
L 36.028634 48.626697 
L 35.97265 48.139017 
L 36.065956 48.506719 
L 36.149932 48.665113 
L 36.181034 48.140007 
L 36.205916 48.574694 
L 36.25568 48.060521 
L 36.293002 48.394029 
L 36.364537 48.591109 
L 36.330325 48.042729 
L 36.370758 48.193453 
L 36.386309 47.814618 
L 36.464064 48.611558 
L 36.470285 48.145344 
L 36.54493 48.692821 
L 36.516938 48.014084 
L 36.582253 48.381829 
L 36.591583 48.702325 
L 36.638237 48.129441 
L 36.653788 48.295645 
L 36.737764 47.491885 
L 36.675559 48.539882 
L 36.765756 47.920461 
L 36.815519 48.541364 
L 36.880834 48.523964 
L 36.902605 48.026496 
L 36.96481 48.658549 
L 36.97103 48.611404 
L 36.97414 48.642563 
L 37.011463 48.102671 
L 37.058116 48.367773 
L 37.067447 48.147087 
L 37.101659 48.622114 
L 37.157643 48.46748 
L 37.226068 48.658245 
L 37.170084 48.203042 
L 37.25717 48.346863 
L 37.275832 47.962329 
L 37.350477 48.650591 
L 37.366028 48.456882 
L 37.375359 48.138873 
L 37.437563 48.606163 
L 37.471776 48.406771 
L 37.521539 48.576212 
L 37.552641 47.981243 
L 37.577523 48.380732 
L 37.655279 48.243841 
L 37.602405 48.67388 
L 37.683271 48.487076 
L 37.723704 48.672416 
L 37.751695 48.117576 
L 37.792128 48.43337 
L 37.804569 48.541615 
L 37.801459 48.426292 
L 37.807679 48.533242 
L 37.860553 48.019383 
L 37.913427 48.661586 
L 37.916537 48.599134 
L 37.978742 48.17685 
L 38.006734 48.686477 
L 38.034726 48.397285 
L 38.044056 48.587969 
L 38.115591 48.105759 
L 38.143583 48.32676 
L 38.168465 48.651904 
L 38.23689 48.039206 
L 38.24311 48.279277 
L 38.24622 48.053279 
L 38.327086 48.656975 
L 38.348858 48.625336 
L 38.463936 47.895537 
L 38.423503 48.63735 
L 38.476377 48.319574 
L 38.479487 48.614826 
L 38.52614 47.887951 
L 38.585234 48.28396 
L 38.631888 48.006174 
L 38.647439 48.6578 
L 38.687872 48.270946 
L 38.728305 48.690629 
L 38.743856 47.960852 
L 38.796729 48.319177 
L 38.846493 47.929362 
L 38.80295 48.519386 
L 38.893146 48.38951 
L 38.908697 48.672725 
L 38.927359 47.968109 
L 39.002004 48.341149 
L 39.057988 47.770231 
L 39.017555 48.619193 
L 39.120192 47.834401 
L 39.241491 48.650381 
L 39.244601 48.667329 
L 39.253932 48.32265 
L 39.269483 48.650249 
L 39.281924 47.887461 
L 39.378341 48.597157 
L 39.449876 47.931613 
L 39.390781 48.65303 
L 39.490308 48.271182 
L 39.493419 48.65819 
L 39.577395 48.010873 
L 39.599166 48.15869 
L 39.717355 48.654749 
L 39.667591 48.133095 
L 39.720465 48.533498 
L 39.79822 48.337206 
L 39.823102 48.689517 
L 39.829322 48.543705 
L 39.832433 48.673718 
L 39.879086 48.177671 
L 39.94129 48.640837 
L 40.07503 47.928267 
L 40.155896 48.601243 
L 40.190108 48.348011 
L 40.193218 47.923245 
L 40.264753 48.657318 
L 40.298966 48.372479 
L 40.339399 48.694249 
L 40.398493 47.992158 
L 40.407823 48.282027 
L 40.414044 48.121977 
L 40.50424 48.666478 
L 40.510461 48.302317 
L 40.544673 48.652864 
L 40.606877 48.045129 
L 40.622429 48.536475 
L 40.728176 47.735339 
L 40.63798 48.653147 
L 40.765499 48.231063 
L 40.78416 48.700584 
L 40.843254 47.861399 
L 40.880577 48.507023 
L 40.899238 47.808853 
L 40.995655 48.296184 
L 41.008096 48.631089 
L 41.014316 48.099043 
L 41.104513 48.357235 
L 41.169827 48.064819 
L 41.151166 48.66455 
L 41.191599 48.513435 
L 41.194709 48.616286 
L 41.219591 48.023003 
L 41.291126 48.135251 
L 41.356441 48.623528 
L 41.303567 47.997831 
L 41.406204 48.383211 
L 41.434196 47.953178 
L 41.499511 48.648669 
L 41.515062 48.462474 
L 41.518172 48.45917 
L 41.524392 48.542564 
L 41.527503 48.638729 
L 41.552384 47.865562 
L 41.62703 48.390041 
L 41.63014 48.149276 
L 41.698565 48.677156 
L 41.738998 48.317901 
L 41.835414 48.649761 
L 41.77321 48.167472 
L 41.847855 48.541757 
L 41.953603 48.148238 
L 41.860296 48.669508 
L 41.959823 48.373484 
L 41.987815 48.666979 
L 41.969154 48.118841 
L 42.05935 48.417253 
L 42.121555 48.16607 
L 42.112224 48.669536 
L 42.168208 48.466714 
L 42.183759 48.688743 
L 42.239743 48.184238 
L 42.280176 48.516171 
L 42.283286 48.516058 
L 42.314388 47.857196 
L 42.367262 48.663811 
L 42.398364 48.094876 
L 42.413915 48.619454 
L 42.510332 48.248679 
L 42.513442 48.068334 
L 42.544545 48.663123 
L 42.61919 48.149037 
L 42.721827 48.636604 
L 42.644072 48.012878 
L 42.740488 48.537016 
L 42.75915 48.355513 
L 42.821354 47.849007 
L 42.861787 48.599812 
L 42.868007 48.342386 
L 42.958204 48.652638 
L 42.886669 47.658077 
L 42.973755 48.252211 
L 43.05151 47.97881 
L 43.020408 48.684091 
L 43.082613 48.273987 
L 43.095054 48.648451 
L 43.19147 48.124979 
L 43.284777 48.648879 
L 43.306548 48.597841 
L 43.350092 47.852961 
L 43.368753 48.649684 
L 43.424737 48.238025 
L 43.480721 48.679863 
L 43.499382 47.949713 
L 43.533595 48.350727 
L 43.570917 48.111679 
L 43.598909 48.671489 
L 43.645562 48.173833 
L 43.661114 48.097419 
L 43.670444 48.340732 
L 43.673554 48.298336 
L 43.776192 48.650668 
L 43.720208 48.031731 
L 43.794853 48.613334 
L 43.928593 48.061605 
L 43.807294 48.66715 
L 43.947254 48.150966 
L 43.972136 48.673527 
L 44.056112 48.265985 
L 44.062332 48.151863 
L 44.127647 48.630681 
L 44.152528 48.469605 
L 44.248945 48.596188 
L 44.196071 48.096467 
L 44.258276 48.490866 
L 44.273827 48.120364 
L 44.326701 48.651329 
L 44.367134 48.555469 
L 44.438669 48.662483 
L 44.376464 48.288716 
L 44.451109 48.495346 
L 44.516424 47.953893 
L 44.482212 48.640256 
L 44.569298 48.156304 
L 44.650164 48.66873 
L 44.637723 48.12916 
L 44.681266 48.272865 
L 44.693707 47.797712 
L 44.74347 48.607954 
L 44.787013 48.394024 
L 44.889651 47.8628 
L 44.855438 48.673444 
L 44.905202 48.228712 
L 44.979847 48.672671 
L 44.942524 48.081274 
L 45.01717 48.581581 
L 45.126027 48.067312 
L 45.085594 48.680829 
L 45.141578 48.115248 
L 45.203783 48.617945 
L 45.188232 47.973464 
L 45.247326 48.25433 
L 45.250436 48.004334 
L 45.328192 48.633656 
L 45.359294 48.097992 
L 45.381065 48.640942 
L 45.4526 48.060405 
L 45.521025 48.526874 
L 45.617442 48.021473 
L 45.567678 48.618204 
L 45.636103 48.215996 
L 45.713859 47.88462 
L 45.760512 48.678001 
L 45.8787 48.074104 
L 45.934684 48.645939 
L 45.990668 48.307522 
L 46.034211 48.020236 
L 46.043542 48.580018 
L 46.093306 48.370444 
L 46.186612 48.657052 
L 46.130628 48.208086 
L 46.205274 48.585566 
L 46.258147 48.39854 
L 46.314131 48.685041 
L 46.363895 48.099915 
L 46.429209 48.524608 
L 46.500744 48.65188 
L 46.43543 48.194687 
L 46.531847 48.570569 
L 46.622043 47.945386 
L 46.640704 48.642194 
L 46.643815 48.374918 
L 46.709129 47.800293 
L 46.690468 48.646024 
L 46.755783 48.215876 
L 46.768223 48.655139 
L 46.833538 48.053016 
L 46.86775 48.429557 
L 46.976608 48.047347 
L 46.933065 48.630685 
L 46.979718 48.382496 
L 46.989049 48.039733 
L 47.020151 48.523518 
L 47.085466 48.439203 
L 47.088576 48.667109 
L 47.188103 47.92238 
L 47.306291 48.636411 
L 47.312512 48.569535 
L 47.337394 47.824737 
L 47.42137 48.674084 
L 47.446251 47.56264 
L 47.536448 48.376618 
L 47.542668 48.624895 
L 47.642195 48.07083 
L 47.654636 47.873078 
L 47.723061 48.641281 
L 47.732392 48.42999 
L 47.735502 48.689915 
L 47.772824 48.149185 
L 47.84436 48.502902 
L 47.8568 48.686306 
L 47.925225 48.137061 
L 47.946997 48.387154 
L 47.968768 47.845495 
L 47.984319 48.637922 
L 48.052744 48.432873 
L 48.058965 48.682007 
L 48.13672 47.755315 
L 48.155382 48.435234 
L 48.158492 48.182512 
L 48.205145 48.692605 
L 48.264239 48.533661 
L 48.373097 48.639477 
L 48.310893 48.191885 
L 48.376207 48.576873 
L 48.438412 48.091592 
L 48.472624 48.64845 
L 48.497506 48.268377 
L 48.593923 48.634215 
L 48.534828 47.954742 
L 48.606363 48.4374 
L 48.705891 48.097165 
L 48.621915 48.662897 
L 48.718331 48.118599 
L 48.758764 48.688511 
L 48.786756 47.944842 
L 48.824079 47.988403 
L 48.830299 47.930229 
L 48.936047 48.682088 
L 48.945377 48.494011 
L 48.97648 48.651657 
L 49.020023 47.942697 
L 49.057345 48.567068 
L 49.156872 47.734943 
L 49.063566 48.637618 
L 49.184864 48.357133 
L 49.225297 48.658925 
L 49.206636 48.081068 
L 49.293722 48.241336 
L 49.393249 48.640103 
L 49.340375 48.121056 
L 49.40569 48.377743 
L 49.415021 48.308668 
L 49.436792 48.069864 
L 49.483446 48.673563 
L 49.523878 48.318309 
L 49.55187 48.678712 
L 49.573642 48.017073 
L 49.645177 48.650478 
L 49.654508 47.947145 
L 49.676279 48.697681 
L 49.763365 48.177258 
L 49.856672 48.65301 
L 49.772696 47.975392 
L 49.881554 48.54482 
L 49.953089 48.103539 
L 49.928207 48.653361 
L 49.990411 48.246775 
L 50.102379 48.667039 
L 50.030844 48.164256 
L 50.10549 48.586774 
L 50.11482 48.677819 
L 50.164584 48.328381 
L 50.198796 48.612997 
L 50.25167 48.065981 
L 50.288993 48.682661 
L 50.307654 48.593068 
L 50.316984 48.654705 
L 50.348087 48.157996 
L 50.404071 48.472076 
L 50.435173 48.110109 
L 50.463165 48.688003 
L 50.516039 48.35069 
L 50.624896 48.652389 
L 50.528479 48.281618 
L 50.628006 48.55244 
L 50.67155 48.132889 
L 50.730644 48.617897 
L 50.739974 48.332243 
L 50.82395 48.660444 
L 50.845722 48.26262 
L 50.851942 48.601628 
L 50.876824 48.684047 
L 50.96391 48.178387 
L 50.995012 48.531717 
L 51.023004 47.61573 
L 51.072768 48.165591 
L 51.128752 48.667351 
L 51.141193 48.063431 
L 51.187846 48.472334 
L 51.24694 48.156286 
L 51.200287 48.666166 
L 51.302924 48.25159 
L 51.318475 48.592557 
L 51.343357 47.954274 
L 51.421113 48.539785 
L 51.505089 47.990175 
L 51.483317 48.579791 
L 51.52997 48.236581 
L 51.564183 47.850751 
L 51.645048 48.642303 
L 51.729024 47.857291 
L 51.688592 48.658797 
L 51.757016 48.16532 
L 51.856543 48.62335 
L 51.800559 47.875779 
L 51.868984 48.421458 
L 51.884535 48.161518 
L 51.962291 48.652629 
L 51.974732 48.504505 
L 51.977842 48.58823 
L 52.068038 48.147524 
L 52.074259 48.21235 
L 52.077369 48.074551 
L 52.111581 48.65957 
L 52.180006 48.421558 
L 52.282644 48.063023 
L 52.201778 48.683369 
L 52.291974 48.094928 
L 52.394611 48.582908 
L 52.403942 48.240602 
L 52.484808 48.683265 
L 52.435044 48.234737 
L 52.531461 48.575925 
L 52.534571 48.254862 
L 52.634098 48.674879 
L 52.640319 48.287681 
L 52.668311 48.679198 
L 52.749177 48.427325 
L 52.767838 48.135984 
L 52.758507 48.659218 
L 52.858034 48.305065 
L 52.882916 48.641753 
L 52.904688 48.056443 
L 52.973112 48.501368 
L 52.997994 48.640703 
L 53.088191 47.973474 
L 53.193938 48.662509 
L 53.203269 48.384156 
L 53.274804 48.291711 
L 53.262363 48.642995 
L 53.287245 48.432531 
L 53.312126 48.632551 
L 53.365 48.177008 
L 53.396102 48.435726 
L 53.50807 48.081532 
L 53.492519 48.654839 
L 53.51118 48.238798 
L 53.626259 48.662793 
L 53.517401 48.067343 
L 53.64803 48.61028 
L 53.722675 48.159735 
L 53.738227 48.643741 
L 53.763108 48.43627 
L 53.809762 47.840324 
L 53.856415 48.668612 
L 53.878186 48.323714 
L 53.943501 48.646266 
L 53.906178 48.107664 
L 53.990154 48.465635 
L 54.015036 48.156667 
L 54.043028 48.652539 
L 54.102122 48.406836 
L 54.136335 48.265183 
L 54.120784 48.663411 
L 54.198539 48.556515 
L 54.201649 48.600044 
L 54.21098 48.12218 
L 54.298066 48.581328 
L 54.35716 48.196225 
L 54.385152 48.670976 
L 54.410034 48.441983 
L 54.438026 48.656325 
L 54.462908 48.024287 
L 54.518892 48.622723 
L 54.568655 48.099395 
L 54.621529 48.648463 
L 54.63086 48.41418 
L 54.668182 48.668021 
L 54.680623 48.237976 
L 54.749048 48.618838 
L 54.823693 48.36159 
L 54.78015 48.704366 
L 54.861016 48.40714 
L 54.966763 48.591455 
L 54.932551 48.258163 
L 54.969874 48.528471 
L 55.044519 48.330843 
L 55.022747 48.655257 
L 55.078731 48.593474 
L 55.119164 48.114909 
L 55.140936 48.676379 
L 55.190699 48.55862 
L 55.221802 48.224739 
L 55.19692 48.680438 
L 55.305777 48.298837 
L 55.34621 48.618594 
L 55.386643 48.18162 
L 55.417745 48.524849 
L 55.467509 47.855464 
L 55.507942 48.638143 
L 55.511052 48.693227 
L 55.554595 48.0228 
L 55.598138 48.339603 
L 55.635461 47.987695 
L 55.607469 48.496856 
L 55.703886 48.378763 
L 55.775421 48.613004 
L 55.794082 48.046896 
L 55.812743 48.322491 
L 55.818964 48.573429 
L 55.825184 47.974234 
L 55.91227 48.097547 
L 55.915381 48.098368 
L 55.971365 48.68438 
L 56.030459 48.453649 
L 56.067781 48.65719 
L 56.04912 48.267621 
L 56.139316 48.509 
L 56.176639 47.88335 
L 56.232623 48.629377 
L 56.251284 48.340029 
L 56.341481 48.621658 
L 56.285497 48.248246 
L 56.353922 48.460772 
L 56.394354 48.015351 
L 56.428567 48.644496 
L 56.462779 48.331308 
L 56.506322 48.638108 
L 56.493882 48.041065 
L 56.580968 48.574796 
L 56.661833 48.19252 
L 56.686715 48.655307 
L 56.696046 48.395968 
L 56.75514 48.638208 
L 56.745809 48.193796 
L 56.808014 48.455679 
L 56.811124 48.453716 
L 56.817344 48.130386 
L 56.8951 48.665819 
L 56.923092 48.334168 
L 56.997737 48.668271 
L 57.016398 48.212872 
L 57.03195 48.616099 
L 57.04439 48.212574 
L 57.143918 48.414871 
L 57.206122 48.667782 
L 57.246555 48.044393 
L 57.252775 48.380396 
L 57.255885 48.103911 
L 57.31498 48.661316 
L 57.361633 48.404607 
L 57.383404 48.660153 
L 57.45494 48.152019 
L 57.470491 48.381456 
L 57.514034 48.26253 
L 57.489152 48.654419 
L 57.526475 48.395957 
L 57.632222 48.680632 
L 57.579348 48.193097 
L 57.635332 48.641864 
L 57.650883 48.069198 
L 57.7473 48.25966 
L 57.828166 48.625025 
L 57.793954 47.927207 
L 57.859268 48.393737 
L 57.918362 48.623626 
L 57.905921 47.871422 
L 57.971236 48.498416 
L 58.073873 48.090391 
L 57.996118 48.627785 
L 58.083204 48.277838 
L 58.132967 48.179451 
L 58.092535 48.625204 
L 58.1734 48.360766 
L 58.185841 48.684867 
L 58.201392 48.068055 
L 58.288478 48.534321 
L 58.384895 48.686453 
L 58.31336 48.13368 
L 58.388006 48.556282 
L 58.415998 48.203972 
L 58.493753 48.69537 
L 58.496863 48.576653 
L 58.59328 48.20095 
L 58.546627 48.643862 
L 58.605721 48.558191 
L 58.655484 48.664862 
L 58.683476 48.096868 
L 58.692807 48.257908 
L 58.73946 47.9365 
L 58.792334 48.663461 
L 58.798555 48.650995 
L 58.894971 48.087726 
L 58.910522 48.544242 
L 58.935404 48.641995 
L 58.922963 48.419343 
L 58.947845 48.629809 
L 58.950955 48.255042 
L 58.985168 48.687074 
L 59.059813 48.510417 
L 59.078474 48.695984 
L 59.094025 48.356313 
L 59.146899 48.504006 
L 59.243316 48.260485 
L 59.171781 48.703168 
L 59.258867 48.451716 
L 59.265088 48.178052 
L 59.327292 48.613933 
L 59.364615 48.465031 
L 59.370835 48.670894 
L 59.395717 48.08017 
L 59.473472 48.461038 
L 59.476583 48.285375 
L 59.548118 48.661685 
L 59.58233 48.429136 
L 59.663196 48.669809 
L 59.597881 48.256099 
L 59.694298 48.610745 
L 59.737841 48.148687 
L 59.7254 48.668726 
L 59.806266 48.265225 
L 59.834258 48.650806 
L 59.843589 48.221266 
L 59.921344 48.509589 
L 60.00843 48.335956 
L 59.933785 48.614529 
L 60.030202 48.349269 
L 60.070635 48.64449 
L 60.126619 47.968636 
L 60.135949 48.049941 
L 60.176382 48.671672 
L 60.251027 48.376384 
L 60.359885 48.056834 
L 60.353665 48.607548 
L 60.362995 48.230695 
L 60.42831 48.644371 
L 60.474963 48.371476 
L 60.518506 48.655256 
L 60.555829 47.985716 
L 60.56827 48.114626 
L 60.57138 47.903626 
L 60.602482 48.664128 
L 60.670907 48.475553 
L 60.71756 47.999866 
L 60.782875 48.65032 
L 60.84819 48.10515 
L 60.910394 48.217086 
L 61.034803 48.67514 
L 60.950827 48.088191 
L 61.037913 48.454452 
L 61.128109 48.643014 
L 61.059685 48.124239 
L 61.13433 48.427149 
L 61.205865 48.211615 
L 61.196534 48.658962 
L 61.243188 48.253629 
L 61.302282 48.231864 
L 61.358266 48.634477 
L 61.42047 48.162379 
L 61.380037 48.656513 
L 61.470234 48.289889 
L 61.56665 48.693437 
L 61.582202 48.518454 
L 61.613304 48.363114 
L 61.638185 48.645027 
L 61.694169 48.484077 
L 61.747043 48.324351 
L 61.70039 48.609487 
L 61.753264 48.566266 
L 61.756374 48.700205 
L 61.855901 48.297475 
L 61.865232 48.625635 
L 61.908775 48.218899 
L 61.952318 48.680607 
L 61.977199 48.468286 
L 62.048735 48.244211 
L 62.086057 48.660177 
L 62.188694 48.179247 
L 62.163813 48.664095 
L 62.201135 48.425696 
L 62.238458 48.680315 
L 62.26334 48.28723 
L 62.313103 48.527093 
L 62.316213 48.214766 
L 62.334875 48.691509 
L 62.421961 48.413633 
L 62.512157 48.644257 
L 62.468614 47.960688 
L 62.537039 48.54009 
L 62.571252 48.156362 
L 62.561921 48.68968 
L 62.645897 48.513071 
L 62.739203 48.651069 
L 62.661448 48.104987 
L 62.745424 48.387256 
L 62.760975 48.212959 
L 62.801408 48.653299 
L 62.82629 48.525281 
L 62.860502 48.690419 
L 62.869833 48.250256 
L 62.932037 48.407142 
L 62.963139 48.018393 
L 62.97558 48.631296 
L 63.009793 48.517713 
L 63.096879 48.678385 
L 63.028454 48.220737 
L 63.11554 48.517287 
L 63.140422 48.129483 
L 63.215067 48.647462 
L 63.224398 48.540715 
L 63.227508 48.546651 
L 63.239949 48.332709 
L 63.25239 48.20304 
L 63.305263 48.655111 
L 63.348807 48.351782 
L 63.466995 48.671231 
L 63.407901 48.192691 
L 63.470105 48.625171 
L 63.473215 48.098172 
L 63.494987 48.663014 
L 63.578963 48.535085 
L 63.672269 48.288596 
L 63.616285 48.665293 
L 63.68782 48.507064 
L 63.765576 48.670155 
L 63.709592 48.280309 
L 63.796678 48.645539 
L 63.82467 48.341276 
L 63.855772 48.681797 
L 63.908646 48.42648 
L 64.011283 48.639732 
L 63.989512 48.24517 
L 64.020614 48.481161 
L 64.029945 48.184269 
L 64.067267 48.674133 
L 64.129472 48.507993 
L 64.145023 48.675503 
L 64.185456 48.145071 
L 64.232109 48.625325 
L 64.300534 48.280146 
L 64.260101 48.658254 
L 64.344077 48.483506 
L 64.353408 48.460734 
L 64.378289 48.664061 
L 64.403171 48.338428 
L 64.459155 48.535925 
L 64.561792 48.175465 
L 64.512029 48.664072 
L 64.568013 48.524533 
L 64.645768 48.659826 
L 64.608446 48.213732 
L 64.658209 48.608199 
L 64.661319 48.195312 
L 64.698642 48.678595 
L 64.767067 48.464668 
L 64.819941 48.009201 
L 64.869704 48.566345 
L 64.882145 48.10859 
L 64.978562 48.683162 
L 64.981672 48.465379 
L 64.994113 48.70144 
L 65.050097 48.283933 
L 65.09986 48.64972 
L 65.115412 48.168844 
L 65.211828 48.218815 
L 65.314466 48.694015 
L 65.23671 48.150769 
L 65.323796 48.396481 
L 65.413993 48.025293 
L 65.354898 48.639949 
L 65.429544 48.583799 
L 65.460646 48.246271 
L 65.479307 48.646874 
L 65.541512 48.536905 
L 65.544622 48.545894 
L 65.553953 48.319407 
L 65.557063 48.334526 
L 65.65348 47.85979 
L 65.569504 48.584033 
L 65.669031 48.230768 
L 65.672141 48.23212 
L 65.780999 48.657713 
L 65.784109 48.466752 
L 65.864975 48.686131 
L 65.836983 48.258569 
L 65.896077 48.566544 
L 65.967612 48.108919 
L 65.914738 48.648954 
L 66.004934 48.60339 
L 66.057808 48.649567 
L 66.026706 48.367551 
L 66.073359 48.412365 
L 66.110682 48.195789 
L 66.160445 48.702899 
L 66.185327 48.331574 
L 66.269303 48.695733 
L 66.191548 48.088719 
L 66.297295 48.55083 
L 66.36883 48.256949 
L 66.312846 48.647464 
L 66.406153 48.568485 
L 66.440365 48.290107 
L 66.468357 48.644594 
L 66.5119 48.500553 
L 66.558554 48.345079 
L 66.623868 48.657798 
L 66.704734 48.298815 
L 66.714065 48.664 
L 66.738946 48.503823 
L 66.807371 48.630856 
L 66.748277 48.040873 
L 66.841584 48.526082 
L 66.875796 48.171923 
L 66.93489 48.655761 
L 66.953552 48.437627 
L 66.984654 48.659123 
L 67.040638 48.343989 
L 67.053079 48.47685 
L 67.062409 48.035337 
L 67.109063 48.600963 
L 67.161936 48.322645 
L 67.273904 48.681294 
L 67.21792 48.255203 
L 67.277014 48.493729 
L 67.289455 48.328122 
L 67.35166 48.634579 
L 67.385872 48.33482 
L 67.407644 48.621772 
L 67.423195 48.143865 
L 67.49784 48.600182 
L 67.513391 48.195092 
L 67.569375 48.670888 
L 67.609808 48.310793 
L 67.703115 48.691721 
L 67.6378 48.295341 
L 67.721776 48.56163 
L 67.724886 48.560354 
L 67.727996 48.58574 
L 67.737327 47.988004 
L 67.821303 48.645977 
L 67.839964 48.33773 
L 67.942602 48.654763 
L 67.911499 48.249316 
L 67.951932 48.573437 
L 68.011026 48.183024 
L 67.998585 48.669813 
L 68.0639 48.447987 
L 68.147876 48.676051 
L 68.079451 48.226705 
L 68.172758 48.388697 
L 68.262954 48.684457 
L 68.20386 48.188592 
L 68.294056 48.569958 
L 68.34382 48.230673 
L 68.396694 48.681935 
L 68.406024 48.330806 
L 68.48689 48.581279 
L 68.430906 48.228718 
L 68.514882 48.269496 
L 68.517992 48.264206 
L 68.521102 48.374669 
L 68.592638 48.654403 
L 68.539764 48.256793 
L 68.63307 48.603114 
L 68.710826 48.696045 
L 68.698385 48.261502 
L 68.735708 48.576614 
L 68.832124 48.210107 
L 68.748149 48.685044 
L 68.847676 48.519069 
L 68.875668 48.659524 
L 68.931652 48.367679 
L 68.956533 48.558029 
L 68.990746 48.194476 
L 68.968974 48.657979 
L 69.068501 48.405772 
L 69.105824 48.2238 
L 69.080942 48.643297 
L 69.168028 48.460788 
L 69.255114 48.678416 
L 69.267555 48.108655 
L 69.279996 48.537615 
L 69.301768 48.62799 
L 69.320429 48.120523 
L 69.323539 48.321143 
L 69.326649 48.089959 
L 69.360862 48.695287 
L 69.432397 48.431637 
L 69.516373 48.676919 
L 69.457279 48.265904 
L 69.535034 48.494672 
L 69.538144 48.128024 
L 69.603459 48.648332 
L 69.643892 48.580826 
L 69.650112 48.622483 
L 69.668774 48.19788 
L 69.702986 47.971814 
L 69.737199 48.590059 
L 69.768301 48.495036 
L 69.830505 48.673916 
L 69.864718 48.183642 
L 69.874048 48.376403 
L 69.883379 48.208977 
L 69.914481 48.631238 
L 69.936253 48.583425 
L 70.023339 48.683654 
L 69.986016 48.062119 
L 70.042 48.443978 
L 70.04511 48.121235 
L 70.073102 48.64798 
L 70.153968 48.31694 
L 70.250385 48.033568 
L 70.194401 48.679069 
L 70.253495 48.432757 
L 70.346802 48.673093 
L 70.312589 48.208118 
L 70.365463 48.491936 
L 70.418337 48.650731 
L 70.384124 48.301144 
L 70.436998 48.530568 
L 70.455659 48.223086 
L 70.517864 48.690896 
L 70.542745 48.550387 
L 70.555186 48.702205 
L 70.60806 48.037143 
L 70.645383 48.60222 
L 70.75424 48.271879 
L 70.75113 48.683667 
L 70.757351 48.476555 
L 70.825776 48.677433 
L 70.763571 48.169823 
L 70.844437 48.451243 
L 70.875539 48.166901 
L 70.943964 48.646419 
L 70.953295 48.511736 
L 71.03105 47.939476 
L 70.965735 48.659729 
L 71.052822 48.617035 
L 71.136798 48.64441 
L 71.090144 48.20854 
L 71.146128 48.558554 
L 71.17412 48.101886 
L 71.183451 48.672121 
L 71.254986 48.629318 
L 71.264317 48.679843 
L 71.31408 48.373939 
L 71.335852 48.500782 
L 71.351403 48.194761 
L 71.345182 48.630106 
L 71.444709 48.439128 
L 71.534906 48.670565 
L 71.45715 48.298236 
L 71.556677 48.497661 
L 71.628212 48.633853 
L 71.59711 48.338222 
L 71.668645 48.541118 
L 71.765062 48.035277 
L 71.718409 48.642904 
L 71.786834 48.324124 
L 71.849038 47.995631 
L 71.901912 48.645204 
L 71.926793 48.017214 
L 72.007659 48.670861 
L 72.01388 48.519151 
L 72.128958 48.050758 
L 72.091635 48.643006 
L 72.132068 48.261506 
L 72.250256 48.66759 
L 72.209823 48.160205 
L 72.259587 48.473978 
L 72.275138 48.317754 
L 72.268918 48.552713 
L 72.278248 48.370352 
L 72.346673 48.016327 
L 72.29691 48.631065 
L 72.387106 48.295481 
L 72.502184 48.660236 
L 72.474192 48.216017 
L 72.505294 48.633694 
L 72.508405 48.665334 
L 72.542617 48.232946 
L 72.58927 48.598813 
L 72.595491 48.352121 
L 72.657695 48.687864 
L 72.701238 48.463208 
L 72.713679 47.905089 
L 72.769663 48.660212 
L 72.810096 48.406797 
L 72.906513 48.684551 
L 72.890962 48.23179 
L 72.915843 48.590375 
L 72.996709 48.185965 
L 72.981158 48.671156 
L 73.024701 48.658185 
L 73.055803 48.246634 
L 73.071354 48.684484 
L 73.136669 48.643357 
L 73.139779 48.650972 
L 73.146 48.396159 
L 73.15222 48.421719 
L 73.158441 48.271625 
L 73.242416 48.665018 
L 73.251747 48.481221 
L 73.332613 48.678312 
L 73.282849 48.230664 
L 73.363715 48.618584 
L 73.463242 48.168214 
L 73.410368 48.690447 
L 73.472573 48.479908 
L 73.522336 48.155841 
L 73.584541 48.670809 
L 73.671627 48.195204 
L 73.593871 48.672356 
L 73.696509 48.504664 
L 73.796036 48.669073 
L 73.72139 48.313569 
L 73.805366 48.592215 
L 73.873791 48.310519 
L 73.904893 48.661802 
L 73.917334 48.544551 
L 73.985759 48.698858 
L 73.979539 48.025714 
L 74.026192 48.562725 
L 74.113278 48.345518 
L 74.075955 48.67276 
L 74.125719 48.586167 
L 74.175483 48.689617 
L 74.166152 48.213731 
L 74.231466 48.523776 
L 74.234577 48.525555 
L 74.237687 48.481111 
L 74.27501 48.210407 
L 74.28123 48.646629 
L 74.349655 48.424027 
L 74.42119 48.241567 
L 74.358985 48.645982 
L 74.455402 48.472344 
L 74.55804 48.693478 
L 74.477174 48.297131 
L 74.56115 48.462414 
L 74.648236 48.021977 
L 74.586032 48.678726 
L 74.663787 48.473936 
L 74.732212 48.692269 
L 74.741543 48.25341 
L 74.769535 48.535573 
L 74.772645 48.108389 
L 74.803747 48.683166 
L 74.881502 48.348776 
L 74.974809 48.67431 
L 74.940597 48.156605 
L 74.99347 48.518304 
L 75.033903 48.636066 
L 75.009021 48.148701 
L 75.086777 48.407479 
L 75.189414 48.07492 
L 75.170753 48.627692 
L 75.195635 48.547585 
L 75.223627 48.01611 
L 75.257839 48.613126 
L 75.307603 48.419957 
L 75.363587 48.087325 
L 75.344925 48.655307 
L 75.40713 48.649428 
L 75.41024 48.672268 
L 75.453783 48.234897 
L 75.456893 48.041578 
L 75.494216 48.642017 
L 75.55953 48.514436 
L 75.568861 48.561222 
L 75.571971 48.380403 
L 75.599963 48.127928 
L 75.593743 48.590424 
L 75.618625 48.508861 
L 75.683939 48.684245 
L 75.69638 48.254615 
L 75.727482 48.515153 
L 75.758585 48.289887 
L 75.783466 48.690029 
L 75.83634 48.584707 
L 75.855001 48.479805 
L 75.861222 48.690172 
L 75.886104 48.162794 
L 75.970079 48.472663 
L 75.97941 48.672711 
L 76.069607 48.297765 
L 76.075827 48.471064 
L 76.078937 48.274806 
L 76.153582 48.621735 
L 76.184685 48.491953 
L 76.234448 48.68897 
L 76.222007 48.328286 
L 76.293542 48.500418 
L 76.355747 48.387038 
L 76.349526 48.660349 
L 76.389959 48.486755 
L 76.4024 48.682605 
L 76.452164 48.134439 
L 76.498817 48.655834 
L 76.589013 48.271381 
L 76.520588 48.687631 
L 76.607675 48.616401 
L 76.657438 48.34694 
L 76.676099 48.659213 
L 76.713422 48.52896 
L 76.781847 48.23563 
L 76.816059 48.652333 
L 76.881374 48.205668 
L 76.850272 48.674761 
L 76.924917 48.542524 
L 77.015113 48.685171 
L 76.946689 47.996901 
L 77.024444 48.548121 
L 77.049326 48.188597 
L 77.080428 48.667818 
L 77.133302 48.521731 
L 77.142632 48.678506 
L 77.217278 48.177166 
L 77.242159 48.665375 
L 77.351017 48.176778 
L 77.357238 48.467298 
L 77.410111 48.683427 
L 77.456765 48.25218 
L 77.469206 48.668523 
L 77.475426 48.679166 
L 77.478536 48.626668 
L 77.481646 48.631311 
L 77.550071 48.245723 
L 77.53763 48.689003 
L 77.593614 48.508233 
L 77.634047 48.660288 
L 77.627827 48.039575 
L 77.67448 48.427953 
L 77.742905 48.652398 
L 77.786448 48.13434 
L 77.81444 48.688726 
L 77.901526 48.517878 
L 77.994833 48.312381 
L 78.016604 48.669297 
L 78.10369 48.113177 
L 78.088139 48.704143 
L 78.128572 48.383785 
L 78.150344 48.292654 
L 78.24054 48.636081 
L 78.343177 48.104204 
L 78.321406 48.681915 
L 78.352508 48.404492 
L 78.427153 48.636018 
L 78.396051 48.088137 
L 78.461366 48.34868 
L 78.542231 48.68504 
L 78.585775 48.487387 
L 78.635538 48.669561 
L 78.697742 48.121957 
L 78.763057 48.666643 
L 78.815931 48.608787 
L 78.862584 48.340319 
L 78.837702 48.699355 
L 78.927899 48.588438 
L 78.968332 48.660959 
L 78.959001 48.34393 
L 79.033646 48.53464 
L 79.126953 48.095786 
L 79.08963 48.650124 
L 79.142504 48.553187 
L 79.204708 48.689411 
L 79.214039 48.203108 
L 79.251362 48.543007 
L 79.341558 48.191076 
L 79.273133 48.678563 
L 79.36333 48.475221 
L 79.437975 48.285439 
L 79.456636 48.659378 
L 79.469077 48.397455 
L 79.559273 48.660618 
L 79.5064 48.295467 
L 79.584155 48.558109 
L 79.587265 48.657999 
L 79.640139 48.196881 
L 79.696123 48.631088 
L 79.724115 48.176675 
L 79.708564 48.671847 
L 79.808091 48.357344 
L 79.817422 48.692355 
L 79.904508 48.271001 
L 79.923169 48.626655 
L 80.016476 48.069038 
L 80.035137 48.607704 
L 80.038247 48.679372 
L 80.06935 48.102368 
L 80.137774 48.534966 
L 80.143995 48.17536 
L 80.150215 48.556866 
L 80.249742 48.389145 
L 80.324388 48.688111 
L 80.290175 48.216423 
L 80.3586 48.556698 
L 80.383482 48.010357 
L 80.458127 48.679908 
L 80.470568 48.42106 
L 80.554544 48.158692 
L 80.486119 48.590618 
L 80.576315 48.451794 
L 80.585646 48.628487 
L 80.660291 48.075068 
L 80.688283 48.488263 
L 80.725606 48.659762 
L 80.731826 48.231152 
L 80.794031 48.633768 
L 80.831353 48.308633 
L 80.865566 48.683377 
L 80.905999 48.455369 
L 80.949542 48.678694 
L 80.999305 48.297244 
L 81.014856 48.65785 
L 81.036628 48.259838 
L 81.080171 48.686631 
L 81.126824 48.442924 
L 81.139265 48.688532 
L 81.173478 48.298992 
L 81.238792 48.565942 
L 81.294776 48.275741 
L 81.282335 48.661036 
L 81.34765 48.617867 
L 81.366311 48.490631 
L 81.375642 48.545498 
L 81.437846 48.320526 
L 81.384973 48.65167 
L 81.48761 48.506415 
L 81.546704 48.180256 
L 81.515602 48.670028 
L 81.599578 48.411691 
L 81.686664 48.666245 
L 81.608908 48.199965 
L 81.711546 48.468807 
L 81.761309 48.655328 
L 81.717766 48.271477 
L 81.820403 48.610637 
L 81.879498 48.287293 
L 81.91993 48.654219 
L 81.932371 48.297205 
L 82.041229 48.630503 
L 82.025678 48.196716 
L 82.047449 48.467085 
L 82.112764 48.646296 
L 82.125205 48.222454 
L 82.159417 48.534895 
L 82.224732 48.169113 
L 82.187409 48.699589 
L 82.271385 48.493066 
L 82.283826 48.656053 
L 82.318039 48.267944 
L 82.383353 48.566873 
L 82.392684 48.513832 
L 82.464219 48.31502 
L 82.445558 48.671518 
L 82.498431 48.55686 
L 82.573077 48.63636 
L 82.545085 48.181184 
L 82.594848 48.529755 
L 82.62284 48.263916 
L 82.635281 48.69829 
L 82.703706 48.509125 
L 82.722367 48.638266 
L 82.772131 48.132183 
L 82.812564 48.451408 
L 82.868548 48.254331 
L 82.859217 48.674339 
L 82.912091 48.37138 
L 83.014728 48.67791 
L 82.986736 48.298487 
L 83.024059 48.610735 
L 83.111145 48.230437 
L 83.076932 48.677271 
L 83.136026 48.547745 
L 83.244884 48.700031 
L 83.216892 48.315617 
L 83.247994 48.630582 
L 83.285317 48.267527 
L 83.338191 48.641266 
L 83.359962 48.363093 
L 83.363073 48.67188 
L 83.369293 48.282435 
L 83.47193 48.534092 
L 83.559016 48.202818 
L 83.521694 48.686296 
L 83.562127 48.399913 
L 83.661654 48.671189 
L 83.593229 48.165103 
L 83.674095 48.648584 
L 83.720748 48.313625 
L 83.711417 48.687955 
L 83.786062 48.468013 
L 83.814054 48.68731 
L 83.866928 48.239124 
L 83.901141 48.630097 
L 83.963345 48.164028 
L 83.972676 48.669657 
L 84.013109 48.583211 
L 84.093974 48.335473 
L 84.072203 48.68889 
L 84.131297 48.426184 
L 84.143738 48.225337 
L 84.205942 48.653844 
L 84.227714 48.570373 
L 84.31169 48.38712 
L 84.333461 48.697753 
L 84.432988 48.375007 
L 84.445429 48.458812 
L 84.448539 48.676517 
L 84.507634 48.370715 
L 84.554287 48.584617 
L 84.610271 48.295329 
L 84.653814 48.65426 
L 84.666255 48.418053 
L 84.719128 48.672872 
L 84.700467 48.27619 
L 84.778223 48.493645 
L 84.781333 48.229393 
L 84.803104 48.680545 
L 84.88708 48.397314 
L 84.927513 48.645531 
L 84.949285 48.25998 
L 85.002159 48.537674 
L 85.02704 48.667518 
L 85.014599 48.331228 
L 85.055032 48.589039 
L 85.058142 48.175055 
L 85.061253 48.686408 
L 85.167 48.464568 
L 85.257197 48.596005 
L 85.194992 48.20936 
L 85.272748 48.412755 
L 85.359834 48.104673 
L 85.369164 48.674486 
L 85.372275 48.375549 
L 85.394046 48.665969 
L 85.403377 48.258153 
L 85.478022 48.289102 
L 85.481132 48.098607 
L 85.574439 48.697738 
L 85.58377 48.605925 
L 85.627313 48.077965 
L 85.664635 48.656657 
L 85.705068 48.225849 
L 85.785934 48.673282 
L 85.757942 48.077404 
L 85.820146 48.544046 
L 85.891681 48.350085 
L 85.860579 48.668835 
L 85.916563 48.46569 
L 85.941445 48.674451 
L 85.991208 48.289266 
L 86.025421 48.415091 
L 86.100066 48.699396 
L 86.056523 48.24784 
L 86.140499 48.516067 
L 86.146719 48.328034 
L 86.240026 48.676149 
L 86.246247 48.386582 
L 86.330222 48.679708 
L 86.311561 48.34209 
L 86.358214 48.556735 
L 86.389317 48.332991 
L 86.407978 48.656316 
L 86.448411 48.513324 
L 86.485733 48.673363 
L 86.516836 48.388597 
L 86.560379 48.604878 
L 86.58215 48.685099 
L 86.594591 48.225386 
L 86.653685 48.552541 
L 86.734551 48.306476 
L 86.666126 48.68059 
L 86.762543 48.56383 
L 86.765653 48.66936 
L 86.85896 48.263614 
L 86.86518 48.463171 
L 86.868291 48.281476 
L 86.883842 48.651688 
L 86.977148 48.397677 
L 87.011361 48.664792 
L 87.033132 48.095895 
L 87.089116 48.541409 
L 87.092226 48.675437 
L 87.132659 48.268002 
L 87.197974 48.550072 
L 87.219745 48.248713 
L 87.232186 48.680876 
L 87.309942 48.522313 
L 87.409469 48.664787 
L 87.372146 48.255877 
L 87.415689 48.557374 
L 87.496555 48.322913 
L 87.462343 48.682871 
L 87.527657 48.519755 
L 87.530767 48.649915 
L 87.549429 48.284697 
L 87.636515 48.491516 
L 87.664507 48.663691 
L 87.642735 48.3346 
L 87.748483 48.646658 
L 87.798246 48.294631 
L 87.785805 48.674359 
L 87.857341 48.367488 
L 87.931986 48.688619 
L 87.944427 48.296746 
L 87.969308 48.524478 
L 88.028403 48.384116 
L 88.040844 48.691003 
L 88.068835 48.5149 
L 88.168363 48.69002 
L 88.084387 48.306962 
L 88.180803 48.67499 
L 88.208795 48.23794 
L 88.218126 48.686954 
L 88.292771 48.517579 
L 88.398519 48.658533 
L 88.389188 48.367229 
L 88.401629 48.518875 
L 88.482495 48.341522 
L 88.429621 48.68124 
L 88.513597 48.439403 
L 88.529148 48.293068 
L 88.519817 48.57237 
L 88.56336 48.457083 
L 88.582022 48.694888 
L 88.628675 48.275591 
L 88.675328 48.518405 
L 88.69399 48.661279 
L 88.70021 48.270823 
L 88.774855 48.587866 
L 88.877493 48.283204 
L 88.821509 48.63802 
L 88.883713 48.34081 
L 88.98013 48.656442 
L 88.945918 48.284856 
L 88.992571 48.64081 
L 89.048555 48.268366 
L 89.014342 48.666774 
L 89.101429 48.542074 
L 89.104539 48.696287 
L 89.176074 48.322134 
L 89.207176 48.414629 
L 89.210286 48.294195 
L 89.216507 48.677556 
L 89.309813 48.594695 
L 89.312924 48.681336 
L 89.390679 48.222681 
L 89.418671 48.553969 
L 89.490206 48.356055 
L 89.511978 48.682577 
L 89.533749 48.373114 
L 89.639497 48.698047 
L 89.571072 48.312461 
L 89.645717 48.648208 
L 89.735913 48.287719 
L 89.754575 48.684548 
L 89.872763 48.27111 
L 89.875873 48.328014 
L 89.96296 48.662022 
L 89.956739 48.311687 
L 89.987841 48.600192 
L 90.034495 48.202419 
L 90.068707 48.660897 
L 90.10603 48.352924 
L 90.134022 48.689692 
L 90.211777 48.155326 
L 90.214887 48.392105 
L 90.273982 48.31398 
L 90.267761 48.684707 
L 90.289533 48.469155 
L 90.292643 48.667315 
L 90.376619 48.15258 
L 90.401501 48.608849 
L 90.438823 48.234151 
L 90.410831 48.674005 
L 90.516579 48.435421 
L 90.553901 48.28785 
L 90.53835 48.693715 
L 90.612995 48.551439 
L 90.616106 48.659674 
L 90.650318 48.252417 
L 90.718743 48.596012 
L 90.765396 48.083919 
L 90.771617 48.699134 
L 90.830711 48.497066 
L 90.883585 48.648981 
L 90.846262 48.298325 
L 90.939569 48.499398 
L 90.983112 48.179088 
L 90.970671 48.695408 
L 91.045316 48.579725 
L 91.051537 48.652166 
L 91.09819 48.099165 
L 91.147953 48.518657 
L 91.182166 48.269067 
L 91.157284 48.650971 
L 91.24748 48.615887 
L 91.306575 48.685355 
L 91.272362 48.327299 
L 91.350118 48.45101 
L 91.356338 48.596946 
L 91.362559 48.298031 
L 91.368779 48.420358 
L 91.402991 48.280766 
L 91.424763 48.691576 
L 91.477637 48.445383 
L 91.577164 48.349357 
L 91.592715 48.663042 
L 91.686021 48.290069 
L 91.617597 48.6728 
L 91.704683 48.588388 
L 91.714013 48.151867 
L 91.720234 48.66536 
L 91.81354 48.64185 
L 91.891296 48.227854 
L 91.866414 48.679381 
L 91.925508 48.562458 
L 92.028146 48.670805 
L 91.9535 48.357523 
L 92.034366 48.623799 
L 92.068578 48.268785 
L 92.118342 48.690389 
L 92.149444 48.482934 
L 92.164995 48.688034 
L 92.202318 48.274618 
L 92.252081 48.446947 
L 92.336057 48.215555 
L 92.323617 48.662031 
L 92.357829 48.531483 
L 92.37338 48.645986 
L 92.398262 48.29566 
L 92.404482 48.536928 
L 92.407592 48.241593 
L 92.460466 48.684651 
L 92.51334 48.553666 
L 92.572434 48.699292 
L 92.538222 48.30326 
L 92.619087 48.643654 
L 92.712394 48.339006 
L 92.703063 48.663661 
L 92.731055 48.48921 
L 92.839913 48.690737 
L 92.79637 48.24343 
L 92.849244 48.571908 
L 92.926999 48.132057 
L 92.895897 48.676755 
L 92.976763 48.304573 
L 93.020306 48.676976 
L 92.998534 48.165161 
L 93.088731 48.477119 
L 93.101172 48.688401 
L 93.132274 48.285404 
L 93.191368 48.62067 
L 93.244242 48.264479 
L 93.197588 48.639227 
L 93.303336 48.522224 
L 93.331328 48.695752 
L 93.399753 48.256821 
L 93.415304 48.559489 
L 93.449516 48.323114 
L 93.443296 48.683409 
L 93.527272 48.494301 
L 93.573925 48.152799 
L 93.605027 48.671969 
L 93.636129 48.357622 
L 93.748097 48.698584 
L 93.676562 48.264114 
L 93.751208 48.607352 
L 93.832073 48.226214 
L 93.844514 48.689426 
L 93.863175 48.492675 
L 93.900498 48.666577 
L 93.92227 48.335266 
L 93.975143 48.639633 
L 94.037348 48.266566 
L 93.984474 48.681523 
L 94.093332 48.366349 
L 94.183528 48.683331 
L 94.199079 48.279499 
L 94.202189 48.410816 
L 94.2053 48.323216 
L 94.276835 48.658094 
L 94.304827 48.628505 
L 94.332819 48.322493 
L 94.388803 48.693946 
L 94.419905 48.435864 
L 94.49144 48.685933 
L 94.513211 48.346026 
L 94.525652 48.483092 
L 94.528763 48.283158 
L 94.609628 48.693199 
L 94.63451 48.581796 
L 94.650061 48.602954 
L 94.643841 48.42659 
L 94.653171 48.575132 
L 94.656282 48.199258 
L 94.681163 48.614152 
L 94.702935 48.482128 
" clip-path="url(#pc73a19c93a)" style="fill: none; stroke: #8c564b; stroke-width: 0.5; stroke-linecap: square"/>
   </g>
  </g>
 </g>
 <defs>
  <clipPath id="pc73a19c93a">
   <rect x="0" y="-0" width="99.212598" height="51.023622"/>
  </clipPath>
 </defs>
</svg>
