<?xml version="1.0" encoding="utf-8" standalone="no"?>
<!DOCTYPE svg PUBLIC "-//W3C//DTD SVG 1.1//EN"
  "http://www.w3.org/Graphics/SVG/1.1/DTD/svg11.dtd">
<svg xmlns:xlink="http://www.w3.org/1999/xlink" width="99.212598pt" height="51.023622pt" viewBox="0 0 99.212598 51.023622" xmlns="http://www.w3.org/2000/svg" version="1.1">
 <metadata>
  <rdf:RDF xmlns:dc="http://purl.org/dc/elements/1.1/" xmlns:cc="http://creativecommons.org/ns#" xmlns:rdf="http://www.w3.org/1999/02/22-rdf-syntax-ns#">
   <cc:Work>
    <dc:type rdf:resource="http://purl.org/dc/dcmitype/StillImage"/>
    <dc:date>2024-10-30T10:51:13.216665</dc:date>
    <dc:format>image/svg+xml</dc:format>
    <dc:creator>
     <cc:Agent>
      <dc:title>Matplotlib v3.8.4, https://matplotlib.org/</dc:title>
     </cc:Agent>
    </dc:creator>
   </cc:Work>
  </rdf:RDF>
 </metadata>
 <defs>
  <style type="text/css">*{stroke-linejoin: round; stroke-linecap: butt}</style>
 </defs>
 <g id="figure_1">
  <g id="patch_1">
   <path d="M 0 51.023622 
L 99.212598 51.023622 
L 99.212598 0 
L 0 0 
L 0 51.023622 
z
" style="fill: none"/>
  </g>
  <g id="axes_1">
   <g id="patch_2">
    <path d="M 0 51.023622 
L 99.212598 51.023622 
L 99.212598 -0 
L 0 -0 
L 0 51.023622 
z
" style="fill: none"/>
   </g>
   <g id="matplotlib.axis_1">
    <g id="xtick_1"/>
    <g id="xtick_2"/>
   </g>
   <g id="matplotlib.axis_2">
    <g id="ytick_1"/>
    <g id="ytick_2"/>
   </g>
   <g id="line2d_1">
    <path d="M 4.509664 14.908915 
L 4.612301 35.404631 
L 4.646513 31.615353 
L 4.73982 9.994869 
L 4.792694 24.964656 
L 4.823796 43.020473 
L 4.886 16.109308 
L 4.907772 21.158035 
L 4.945094 40.526509 
L 5.004189 14.995571 
L 5.200132 2.319256 
L 5.240565 6.994324 
L 5.458281 40.199952 
L 5.492493 37.516006 
L 5.539146 44.674436 
L 5.557808 46.506846 
L 5.623122 40.495482 
L 5.626233 40.562549 
L 5.635563 40.390258 
L 5.669776 42.928533 
L 5.710209 47.773451 
L 5.791074 44.759814 
L 5.896822 24.789653 
L 5.955916 38.582839 
L 5.980798 47.895054 
L 6.064774 37.889989 
L 6.14875 24.48273 
L 6.182962 34.959302 
L 6.235836 44.899149 
L 6.29182 34.904266 
L 6.307371 33.21325 
L 6.357134 43.565039 
L 6.369575 46.145536 
L 6.428669 33.123699 
L 6.447331 31.281296 
L 6.515755 36.681537 
L 6.627723 48.45568 
L 6.730361 45.292855 
L 6.783234 39.993368 
L 6.829888 45.471219 
L 6.848549 47.108094 
L 6.920084 43.257348 
L 6.938745 42.445824 
L 7.00717 45.762766 
L 7.044493 47.079215 
L 7.100477 45.285934 
L 7.128469 44.037745 
L 7.172012 47.3922 
L 7.203114 47.788732 
L 7.218665 47.031417 
L 7.308862 44.085196 
L 7.343074 45.924759 
L 7.392838 42.918113 
L 7.42083 46.280062 
L 7.43327 48.036684 
L 7.523467 44.524329 
L 7.56701 39.622124 
L 7.619884 46.252347 
L 7.638545 47.095109 
L 7.694529 43.644959 
L 7.725631 40.37741 
L 7.772284 45.672065 
L 7.803387 47.240185 
L 7.85004 43.224479 
L 7.868701 42.537807 
L 7.912244 47.83212 
L 7.915355 47.828781 
L 7.921575 48.096803 
L 7.99622 46.049665 
L 8.014882 44.53694 
L 8.086417 47.010137 
L 8.092637 47.866956 
L 8.13618 42.987992 
L 8.182833 44.671001 
L 8.198385 44.367936 
L 8.229487 46.212213 
L 8.319683 47.873379 
L 8.27303 45.596827 
L 8.335234 46.294485 
L 8.453423 42.086715 
L 8.400549 46.527695 
L 8.462753 42.635322 
L 8.624485 48.241793 
L 8.633815 48.347211 
L 8.652477 48.087245 
L 8.69602 45.370689 
L 8.711571 44.829494 
L 8.755114 47.181665 
L 8.779996 46.651901 
L 8.83909 45.58694 
L 8.801767 47.146492 
L 8.898184 46.42671 
L 8.954168 45.966018 
L 8.929286 46.911668 
L 8.98216 46.791782 
L 9.022593 48.470526 
L 9.103459 47.386993 
L 9.187435 46.587694 
L 9.150112 48.282599 
L 9.209206 47.30219 
L 9.221647 48.027275 
L 9.255859 46.262337 
L 9.318064 47.051198 
L 9.342946 48.625624 
L 9.420701 46.979392 
L 9.423811 46.999426 
L 9.529559 44.43904 
L 9.461134 47.143411 
L 9.55133 45.705119 
L 9.675739 47.283872 
L 9.638416 44.291613 
L 9.68196 47.119717 
L 9.700621 46.567934 
L 9.728613 47.442573 
L 9.797038 46.829392 
L 9.82814 47.789061 
L 9.887234 46.799682 
L 9.905895 46.846994 
L 9.909006 46.834969 
L 9.918336 47.172331 
L 9.936998 48.246496 
L 9.9681 46.093501 
L 10.036525 48.048252 
L 10.089398 45.623302 
L 10.164044 46.737969 
L 10.176485 47.808289 
L 10.26046 45.559343 
L 10.263571 45.616324 
L 10.276012 45.548205 
L 10.291563 46.11029 
L 10.39109 48.266235 
L 10.347547 45.765285 
L 10.409751 46.962443 
L 10.453294 48.200021 
L 10.53727 45.350737 
L 10.565262 48.520006 
L 10.602585 43.766456 
L 10.621246 43.271781 
L 10.655458 46.396497 
L 10.714553 48.311366 
L 10.770537 46.863419 
L 10.773647 46.776365 
L 10.829631 48.032799 
L 10.835851 48.460514 
L 10.857623 47.245407 
L 10.935378 47.692691 
L 11.003803 45.180359 
L 11.034905 47.709349 
L 11.093999 46.411505 
L 11.165534 48.639855 
L 11.2464 47.383248 
L 11.299274 46.745063 
L 11.333486 48.008533 
L 11.367699 46.973321 
L 11.445454 47.702735 
L 11.417462 45.634546 
L 11.485887 47.553441 
L 11.548092 47.868744 
L 11.52632 46.546077 
L 11.563643 47.011946 
L 11.579194 46.000914 
L 11.660059 48.393862 
L 11.66628 48.513509 
L 11.706713 47.047086 
L 11.828011 45.150959 
L 11.744035 48.62477 
L 11.831122 45.212804 
L 11.834232 45.137165 
L 11.883995 46.55639 
L 11.921318 48.586315 
L 12.002184 47.109449 
L 12.073719 48.052697 
L 12.101711 46.802401 
L 12.114152 46.546027 
L 12.148364 47.713457 
L 12.204348 47.244652 
L 12.313206 48.31786 
L 12.219899 47.169145 
L 12.331867 47.794679 
L 12.437614 46.942169 
L 12.453166 47.005266 
L 12.51537 48.451539 
L 12.474937 46.897548 
L 12.568244 47.516043 
L 12.664661 46.146853 
L 12.636669 48.555224 
L 12.683322 47.244143 
L 12.695763 48.362836 
L 12.729975 46.043967 
L 12.79529 47.481653 
L 12.997454 44.922892 
L 13.037887 46.209588 
L 13.134304 48.638432 
L 13.180957 47.345399 
L 13.196508 47.230049 
L 13.21828 47.678503 
L 13.22139 47.629293 
L 13.252492 48.6406 
L 13.311586 47.11202 
L 13.330248 47.812681 
L 13.348909 47.112318 
L 13.414224 48.292383 
L 13.435995 47.898534 
L 13.439105 47.98175 
L 13.516861 47.118541 
L 13.538632 47.581807 
L 13.523081 47.09438 
L 13.541743 47.522689 
L 13.600837 48.524224 
L 13.554183 47.41149 
L 13.653711 47.603783 
L 13.675482 47.194725 
L 13.715915 48.347348 
L 13.731466 48.210541 
L 13.743907 48.654744 
L 13.830993 47.800697 
L 13.902528 46.835566 
L 13.874536 48.353788 
L 13.946071 46.94147 
L 13.998945 48.190326 
L 14.020716 46.293891 
L 14.07048 47.538229 
L 14.082921 47.888595 
L 14.092252 48.579748 
L 14.126464 46.865259 
L 14.191779 47.931857 
L 14.222881 46.94022 
L 14.235322 46.527724 
L 14.294416 48.316355 
L 14.316187 48.146343 
L 14.319298 48.140356 
L 14.322408 48.271959 
L 14.344179 48.526881 
L 14.397053 46.771225 
L 14.403274 46.586777 
L 14.446817 48.098965 
L 14.49658 47.133347 
L 14.63032 48.4283 
L 14.757839 46.606228 
L 14.785831 47.163562 
L 14.891578 48.374193 
L 14.907129 48.104782 
L 14.956893 47.44889 
L 14.987995 48.655354 
L 15.022207 47.933829 
L 15.040869 48.548829 
L 15.078191 47.278299 
L 15.121734 47.470365 
L 15.140396 46.092824 
L 15.168388 48.430053 
L 15.224372 48.120449 
L 15.398544 46.170481 
L 15.271025 48.630626 
L 15.407875 46.970673 
L 15.473189 48.341568 
L 15.507402 46.206091 
L 15.526063 44.260137 
L 15.575827 48.443688 
L 15.610039 47.354277 
L 15.616259 47.177072 
L 15.650472 48.065881 
L 15.725117 48.590386 
L 15.706456 47.542654 
L 15.749999 47.708483 
L 15.777991 46.942607 
L 15.824644 48.384561 
L 15.833975 48.646452 
L 15.90551 47.655058 
L 15.936612 48.130153 
L 15.980155 47.501694 
L 15.989486 47.119471 
L 16.029919 47.840753 
L 16.079682 47.776296 
L 16.213422 48.595777 
L 16.123225 47.482806 
L 16.222752 48.439503 
L 16.260075 48.506208 
L 16.33472 48.16076 
L 16.400035 48.513366 
L 16.375153 47.576748 
L 16.440468 48.183742 
L 16.564876 47.231684 
L 16.515113 48.61942 
L 16.574207 47.399747 
L 16.658183 48.327726 
L 16.639522 46.058493 
L 16.667514 47.350591 
L 16.689285 46.084991 
L 16.76082 48.610794 
L 16.776371 47.423915 
L 16.788812 47.237404 
L 16.829245 48.665852 
L 16.875898 47.736704 
L 16.888339 48.597107 
L 16.984756 47.644218 
L 17.031409 46.537844 
L 17.062512 48.365621 
L 17.093614 47.739459 
L 17.112275 48.426289 
L 17.152708 47.375104 
L 17.205582 48.083887 
L 17.283337 46.934645 
L 17.242904 48.109149 
L 17.32688 47.863379 
L 17.348652 48.662197 
L 17.410856 47.159295 
L 17.413967 47.273681 
L 17.420187 47.19063 
L 17.441959 47.902494 
L 17.550816 48.445201 
L 17.494832 47.059456 
L 17.563257 48.355293 
L 17.60991 47.046368 
L 17.569478 48.365512 
L 17.678335 47.940508 
L 17.734319 48.237866 
L 17.780973 47.434757 
L 17.790303 47.099242 
L 17.818295 48.300132 
L 17.868059 48.10848 
L 17.88983 48.627505 
L 17.908492 47.67585 
L 17.967586 48.102402 
L 18.051562 46.691476 
L 18.02357 48.336464 
L 18.076443 48.128668 
L 18.082664 48.533686 
L 18.157309 46.892194 
L 18.182191 47.605004 
L 18.207073 46.628627 
L 18.278608 48.361227 
L 18.440339 47.294633 
L 18.294159 48.43477 
L 18.459 47.699717 
L 18.490103 48.632091 
L 18.524315 47.613307 
L 18.577189 48.301328 
L 18.59274 47.605098 
L 18.605181 47.053201 
L 18.689157 48.433617 
L 18.692267 48.414856 
L 18.695377 48.589672 
L 18.7327 47.658265 
L 18.788684 47.82135 
L 18.798014 47.57657 
L 18.832227 48.620182 
L 18.888211 48.025963 
L 18.944195 48.565846 
L 19.000179 48.101875 
L 19.046832 47.785662 
L 19.065493 48.412595 
L 19.068604 48.40966 
L 19.096596 48.656625 
L 19.124588 47.975289 
L 19.174351 48.288161 
L 19.189902 47.977573 
L 19.208564 48.562752 
L 19.264547 48.336324 
L 19.329862 47.631354 
L 19.376515 48.617395 
L 19.454271 47.226919 
L 19.423169 48.625742 
L 19.500924 47.672358 
L 19.535137 46.882246 
L 19.619113 48.696109 
L 19.681317 47.44178 
L 19.734191 48.282488 
L 19.752852 47.654638 
L 19.793285 48.545337 
L 19.839938 48.278342 
L 19.846159 48.456835 
L 19.880371 46.793479 
L 19.945686 48.170249 
L 20.038992 47.63607 
L 20.020331 48.634883 
L 20.051433 48.22961 
L 20.135409 48.617436 
L 20.157181 48.030828 
L 20.175842 47.753937 
L 20.228716 48.631404 
L 20.256708 48.234171 
L 20.266038 48.450431 
L 20.322022 47.159877 
L 20.337573 47.176223 
L 20.356235 46.929484 
L 20.405998 48.099611 
L 20.443321 47.405497 
L 20.508636 48.415153 
L 20.542848 47.28598 
L 20.564619 48.053165 
L 20.667257 47.21283 
L 20.614383 48.548131 
L 20.682808 47.463523 
L 20.788555 48.662791 
L 20.751233 47.148545 
L 20.800996 48.224065 
L 20.894303 47.315798 
L 20.841429 48.416571 
L 20.916074 48.016443 
L 20.931625 48.467872 
L 20.965838 47.661041 
L 21.024932 47.921324 
L 21.102688 48.618122 
L 21.112018 48.03979 
L 21.124459 47.059788 
L 21.202215 48.549426 
L 21.230207 47.129504 
L 21.27375 46.420912 
L 21.317293 47.309494 
L 21.320403 47.205354 
L 21.363946 48.204017 
L 21.432371 47.619403 
L 21.485245 48.222618 
L 21.547449 47.240438 
L 21.600323 48.633156 
L 21.659417 47.501805 
L 21.665637 47.300778 
L 21.721621 48.643932 
L 21.768275 47.501537 
L 21.824259 48.376423 
L 21.905124 48.17869 
L 21.914455 47.944837 
L 21.926896 48.384427 
L 22.013982 48.211575 
L 22.097958 48.567382 
L 22.069966 47.643905 
L 22.12284 48.207662 
L 22.144611 47.72363 
L 22.222367 48.283176 
L 22.237918 47.888918 
L 22.328114 48.517625 
L 22.349886 47.960281 
L 22.418311 48.664644 
L 22.362327 47.940066 
L 22.461854 48.023139 
L 22.539609 47.404333 
L 22.502287 48.46407 
L 22.561381 48.229721 
L 22.620475 48.52612 
L 22.595593 47.148983 
L 22.642246 47.525867 
L 22.682679 46.870118 
L 22.660908 48.654349 
L 22.735553 48.203964 
L 22.751104 48.606324 
L 22.803978 47.917911 
L 22.83819 47.981937 
L 22.847521 47.59468 
L 22.881733 48.500207 
L 22.943938 48.033413 
L 22.993701 48.62239 
L 23.040355 47.952137 
L 23.046575 47.649594 
L 23.11811 48.37892 
L 23.146102 48.3204 
L 23.149212 48.318957 
L 23.155433 48.378823 
L 23.161653 48.605823 
L 23.198976 47.487047 
L 23.25185 48.032611 
L 23.25496 47.831455 
L 23.342046 48.667513 
L 23.354487 48.410375 
L 23.429132 48.613192 
L 23.385589 47.834775 
L 23.447793 48.301942 
L 23.509998 47.583153 
L 23.556651 48.238485 
L 23.653068 48.607455 
L 23.615745 47.928181 
L 23.665509 48.309987 
L 23.758815 47.857244 
L 23.705942 48.505185 
L 23.771256 48.377193 
L 23.774367 48.382637 
L 23.786807 48.193214 
L 23.855232 47.953088 
L 23.873894 48.532793 
L 23.877004 48.279267 
L 23.880114 48.60364 
L 23.926767 47.621503 
L 23.985862 48.23886 
L 24.082278 48.64037 
L 24.048066 47.724232 
L 24.094719 48.242265 
L 24.125821 47.624615 
L 24.209797 48.019736 
L 24.222238 48.631668 
L 24.284443 48.015289 
L 24.327986 48.391607 
L 24.408851 48.027394 
L 24.446174 48.667397 
L 24.53015 47.41277 
L 24.564362 48.156914 
L 24.657669 48.648466 
L 24.583024 47.997904 
L 24.67322 48.203603 
L 24.726094 46.649901 
L 24.688771 48.261281 
L 24.782078 48.145186 
L 24.850503 48.579637 
L 24.872274 47.587093 
L 24.881605 47.18048 
L 24.937589 48.50037 
L 24.962471 48.342058 
L 25.018455 48.56619 
L 24.981132 47.610254 
L 25.027785 48.125588 
L 25.049557 47.221892 
L 25.0931 48.598789 
L 25.136643 48.282354 
L 25.149084 47.987894 
L 25.177076 48.647783 
L 25.24239 48.301799 
L 25.338807 48.594141 
L 25.279713 48.134747 
L 25.348138 48.303113 
L 25.419673 47.834899 
L 25.435224 48.545767 
L 25.453885 48.483599 
L 25.540972 48.640469 
L 25.506759 48.014067 
L 25.550302 48.392887 
L 25.593845 47.86389 
L 25.65605 48.550077 
L 25.749356 48.654198 
L 25.680931 47.943292 
L 25.761797 48.587845 
L 25.886206 47.696446 
L 25.783569 48.617113 
L 25.889316 47.703439 
L 25.94841 48.658491 
L 26.007505 48.423586 
L 26.060378 48.608926 
L 26.029276 47.476101 
L 26.072819 47.833271 
L 26.08215 47.414871 
L 26.113252 48.629796 
L 26.169236 48.243421 
L 26.22522 48.645358 
L 26.253212 47.88508 
L 26.334078 47.374167 
L 26.299865 48.558405 
L 26.352739 48.119368 
L 26.424274 48.649606 
L 26.405613 47.940138 
L 26.461597 48.116463 
L 26.50203 48.620093 
L 26.558014 47.902604 
L 26.561124 47.935237 
L 26.657541 48.567657 
L 26.682422 48.048884 
L 26.694863 47.783496 
L 26.744627 48.662809 
L 26.78817 48.404027 
L 26.79128 48.427917 
L 26.813052 47.830964 
L 26.834823 47.918271 
L 26.853484 47.59334 
L 26.93435 48.433139 
L 26.93746 48.341299 
L 26.996555 48.650858 
L 26.974783 48.108754 
L 27.036987 48.214596 
L 27.105412 48.495499 
L 27.155176 47.802058 
L 27.248482 48.27123 
L 27.223601 47.556318 
L 27.264033 47.858489 
L 27.276474 47.336321 
L 27.320017 48.548757 
L 27.372891 47.891351 
L 27.444426 48.595489 
L 27.459977 47.579817 
L 27.484859 47.936699 
L 27.4973 47.616278 
L 27.528402 48.582515 
L 27.587496 48.130043 
L 27.63726 48.556748 
L 27.655921 47.321752 
L 27.690134 47.905433 
L 27.696354 47.667116 
L 27.743007 48.562092 
L 27.795881 47.908565 
L 27.889188 48.584215 
L 27.858085 47.644458 
L 27.901629 47.864277 
L 27.910959 47.216968 
L 27.948282 48.543737 
L 28.004266 48.137668 
L 28.007376 48.310685 
L 28.05714 47.735381 
L 28.106903 47.791157 
L 28.110013 47.786074 
L 28.113124 47.987784 
L 28.119344 47.922154 
L 28.175328 48.680461 
L 28.237532 48.525611 
L 28.330839 47.844553 
L 28.34639 48.613425 
L 28.417925 48.02239 
L 28.461468 48.514882 
L 28.514342 48.604284 
L 28.48946 48.071928 
L 28.567216 48.43731 
L 28.669853 48.10576 
L 28.635641 48.601052 
L 28.685404 48.352031 
L 28.700955 48.660056 
L 28.725837 47.861217 
L 28.797372 48.41211 
L 28.822254 48.250485 
L 28.809813 48.519855 
L 28.831584 48.360933 
L 28.865797 48.679734 
L 28.937332 48.231175 
L 28.943552 48.463647 
L 28.993316 47.987498 
L 29.05552 48.294095 
L 29.151937 47.83787 
L 29.170598 48.611119 
L 29.173709 48.612883 
L 29.288787 48.064614 
L 29.19237 48.679351 
L 29.291897 48.067452 
L 29.298117 48.001129 
L 29.32922 48.474019 
L 29.33233 48.570634 
L 29.391424 47.834192 
L 29.434967 48.404548 
L 29.450518 47.698778 
L 29.531384 48.59656 
L 29.562486 47.950016 
L 29.584258 48.59158 
L 29.599809 47.842264 
L 29.677564 48.313679 
L 29.736658 47.974646 
L 29.76465 48.609935 
L 29.780201 48.537118 
L 29.783312 48.546021 
L 29.798863 48.265221 
L 29.867288 47.750902 
L 29.889059 48.449367 
L 29.917051 48.063394 
L 29.988586 48.659472 
L 29.948153 47.93873 
L 30.03524 48.458346 
L 30.03835 48.499107 
L 30.063232 47.832673 
L 30.112995 48.087915 
L 30.209412 47.650506 
L 30.140987 48.676094 
L 30.221853 47.97099 
L 30.271616 48.594992 
L 30.336931 48.177545 
L 30.436458 47.826263 
L 30.408466 48.645674 
L 30.442678 48.27534 
L 30.47067 47.939687 
L 30.495552 48.381914 
L 30.535985 48.301726 
L 30.539095 48.545691 
L 30.570197 47.628777 
L 30.644843 48.258565 
L 30.654173 48.428205 
L 30.672835 48.070635 
L 30.719488 47.859489 
L 30.759921 48.576251 
L 30.769251 48.378649 
L 30.775472 48.596381 
L 30.847007 47.994448 
L 30.878109 48.369831 
L 30.902991 47.741259 
L 30.958975 48.440336 
L 30.965195 48.375433 
L 30.971416 48.633624 
L 31.067833 48.052584 
L 31.089604 47.668975 
L 31.136257 48.667839 
L 31.16736 48.239539 
L 31.198462 47.545012 
L 31.285548 48.484164 
L 31.335312 48.630557 
L 31.347752 47.699683 
L 31.350863 47.580414 
L 31.406847 48.614806 
L 31.444169 48.161037 
L 31.503263 48.610519 
L 31.528145 47.519137 
L 31.553027 48.144265 
L 31.612121 47.435763 
L 31.571688 48.305028 
L 31.624562 48.103051 
L 31.649444 48.431423 
L 31.717869 47.887412 
L 31.73342 48.142258 
L 31.745861 47.991285 
L 31.776963 48.598278 
L 31.811175 48.538447 
L 31.814285 48.601889 
L 31.888931 48.01575 
L 31.895151 47.735424 
L 31.948025 48.637365 
L 31.991568 48.39256 
L 31.994678 48.562584 
L 32.044442 47.936782 
L 32.100426 48.524584 
L 32.203063 48.075585 
L 32.112867 48.56446 
L 32.215504 48.347304 
L 32.227945 48.691629 
L 32.311921 48.217172 
L 32.333692 48.552947 
L 32.336802 48.611017 
L 32.399007 48.012559 
L 32.426999 48.236429 
L 32.464321 48.129274 
L 32.576289 48.667046 
L 32.675816 48.030779 
L 32.697588 48.172912 
L 32.772233 48.524732 
L 32.794005 47.997245 
L 32.800225 48.053403 
L 32.803335 47.86018 
L 32.831327 48.659831 
L 32.909083 48.064177 
L 32.915303 47.945992 
L 32.943295 48.36155 
L 32.958846 48.113394 
L 33.064594 48.552695 
L 33.039712 47.834187 
L 33.070814 48.381697 
L 33.195223 47.467409 
L 33.133019 48.607301 
L 33.207664 47.741661 
L 33.282309 48.582368 
L 33.216995 47.603118 
L 33.325852 48.29753 
L 33.347624 48.599453 
L 33.375616 47.619979 
L 33.422269 48.003906 
L 33.456482 48.068691 
L 33.44093 47.827165 
L 33.459592 48.065905 
L 33.490694 48.627616 
L 33.509355 48.050967 
L 33.57156 48.337437 
L 33.636874 47.720645 
L 33.599552 48.666432 
L 33.683528 48.228585 
L 33.689748 48.323308 
L 33.699079 48.025871 
L 33.705299 48.10706 
L 33.71152 47.896829 
L 33.755063 48.662973 
L 33.804826 48.524074 
L 33.848369 48.631781 
L 33.873251 48.023047 
L 33.901243 48.282186 
L 33.944786 48.508305 
L 33.916794 48.105857 
L 33.99766 48.177235 
L 34.010101 48.034027 
L 34.090966 48.60111 
L 34.106518 48.246918 
L 34.156281 48.683744 
L 34.187383 48.184115 
L 34.224706 48.442852 
L 34.321123 48.17006 
L 34.296241 48.668641 
L 34.336674 48.301216 
L 34.439311 48.656 
L 34.361556 47.74034 
L 34.445532 48.361959 
L 34.482854 48.10188 
L 34.513956 48.582691 
L 34.541948 48.470436 
L 34.613483 48.671894 
L 34.56061 48.184402 
L 34.653916 48.521424 
L 34.70057 48.697702 
L 34.716121 48.13651 
L 34.747223 48.470688 
L 34.796986 47.771786 
L 34.85297 48.587509 
L 34.859191 48.192743 
L 34.862301 48.191712 
L 34.868521 47.664562 
L 34.958718 48.648164 
L 34.974269 47.9985 
L 35.020922 48.629864 
L 35.042694 47.596315 
L 35.095568 48.362296 
L 35.151552 48.616734 
L 35.139111 48.088648 
L 35.182654 48.336577 
L 35.27285 47.532646 
L 35.254189 48.669113 
L 35.294622 48.171488 
L 35.400369 48.58745 
L 35.322614 48.126377 
L 35.41903 48.530954 
L 35.456353 47.726779 
L 35.543439 48.010266 
L 35.611864 48.61841 
L 35.642966 47.987015 
L 35.652297 48.071446 
L 35.751824 47.871419 
L 35.708281 48.645446 
L 35.761155 48.159831 
L 35.767375 48.356109 
L 35.804698 48.653087 
L 35.845131 48.062964 
L 35.879343 48.527045 
L 35.919776 48.11598 
L 35.953988 48.626749 
L 35.988201 48.531192 
L 35.997531 48.66282 
L 36.059736 48.096182 
L 36.084618 48.29028 
L 36.090838 48.096203 
L 36.140601 48.676442 
L 36.190365 48.368017 
L 36.237018 48.695708 
L 36.218357 48.145426 
L 36.280561 48.200664 
L 36.358317 47.851899 
L 36.311664 48.509785 
L 36.383199 48.318032 
L 36.39564 48.656918 
L 36.448513 48.024861 
L 36.488946 48.052848 
L 36.498277 47.971727 
L 36.526269 48.684833 
L 36.582253 48.468077 
L 36.585363 48.686005 
L 36.656898 48.035912 
L 36.688 48.132825 
L 36.753315 47.939738 
L 36.737764 48.502021 
L 36.768866 48.419258 
L 36.775086 48.652191 
L 36.846621 47.938883 
L 36.874613 48.326631 
L 36.96792 48.010323 
L 36.955479 48.647435 
L 36.983471 48.34256 
L 37.055006 47.744694 
L 37.011463 48.57103 
L 37.067447 48.348814 
L 37.073668 48.613476 
L 37.101659 47.724001 
L 37.173195 48.264221 
L 37.241619 48.098185 
L 37.204297 48.641521 
L 37.278942 48.246706 
L 37.39402 48.62806 
L 37.353587 47.973585 
L 37.39713 48.559307 
L 37.418902 47.583687 
L 37.505988 48.344403 
L 37.518429 48.65586 
L 37.571303 48.02483 
L 37.611736 48.136555 
L 37.67705 48.039054 
L 37.639728 48.641735 
L 37.698822 48.48088 
L 37.733034 48.604507 
L 37.779687 48.304678 
L 37.782798 48.307916 
L 37.879215 47.907077 
L 37.807679 48.609092 
L 37.897876 47.973357 
L 38.034726 48.661333 
L 38.040946 48.557906 
L 38.118701 48.682503 
L 38.162245 48.057653 
L 38.283543 48.662342 
L 38.208898 48.028752 
L 38.289764 48.579577 
L 38.336417 47.923418 
L 38.404842 48.206968 
L 38.467046 48.66135 
L 38.485707 48.055374 
L 38.513699 48.183351 
L 38.52614 47.717913 
L 38.579014 48.564908 
L 38.616337 48.237454 
L 38.709643 48.681572 
L 38.653659 48.117383 
L 38.737635 48.322828 
L 38.746966 47.928987 
L 38.824721 48.64618 
L 38.852713 48.068357 
L 38.95224 48.621831 
L 38.964681 48.192542 
L 38.980232 47.838316 
L 39.054878 48.694774 
L 39.061098 48.550682 
L 39.107751 48.626672 
L 39.08287 47.937321 
L 39.126413 48.264057 
L 39.207278 47.77848 
L 39.22283 48.67799 
L 39.23216 48.586892 
L 39.23527 48.643583 
L 39.309916 48.170964 
L 39.347238 47.964638 
L 39.412553 48.56127 
L 39.530741 48.148906 
L 39.50897 48.651832 
L 39.533852 48.157611 
L 39.552513 48.671842 
L 39.645819 48.487413 
L 39.661371 48.017501 
L 39.745347 48.681636 
L 39.757787 48.391264 
L 39.835543 48.688731 
L 39.792 48.028079 
L 39.866645 48.528018 
L 39.953731 48.220316 
L 39.916409 48.660973 
L 39.975503 48.396687 
L 40.050148 48.660414 
L 40.07814 48.308144 
L 40.084361 48.350755 
L 40.087471 48.218369 
L 40.099912 48.655031 
L 40.190108 48.388477 
L 40.196328 48.539592 
L 40.239872 48.133133 
L 40.305186 48.489111 
L 40.392272 48.202543 
L 40.320737 48.698643 
L 40.410934 48.524031 
L 40.423375 48.633686 
L 40.448256 48.084222 
L 40.466918 48.29283 
L 40.488689 48.052179 
L 40.50424 48.65977 
L 40.572665 48.324043 
L 40.634869 48.686393 
L 40.597547 48.014079 
L 40.690853 48.632116 
L 40.715735 48.039459 
L 40.78416 48.679931 
L 40.812152 48.25404 
L 40.849475 48.053206 
L 40.827703 48.505796 
L 40.861916 48.428333 
L 40.865026 48.655066 
L 40.936561 47.966551 
L 40.973883 48.639225 
L 41.076521 48.210973 
L 41.032978 48.686289 
L 41.085851 48.52332 
L 41.113843 48.666749 
L 41.135615 48.205636 
L 41.185378 48.375554 
L 41.256913 47.968046 
L 41.219591 48.636798 
L 41.291126 48.44654 
L 41.319118 48.621029 
L 41.344 47.992517 
L 41.356441 47.818598 
L 41.396873 48.638552 
L 41.446637 48.178798 
L 41.468408 48.652855 
L 41.455968 48.162964 
L 41.555495 48.326091 
L 41.592817 47.857783 
L 41.620809 48.571403 
L 41.667463 48.223729 
L 41.7701 48.663318 
L 41.695455 48.057674 
L 41.807422 48.458288 
L 41.826084 48.198203 
L 41.847855 48.56683 
L 41.91939 48.336119 
L 41.956713 48.246761 
L 42.034468 48.658649 
L 42.146436 47.991335 
L 42.155767 48.094342 
L 42.205531 48.671014 
L 42.270845 48.431309 
L 42.34238 48.141373 
L 42.292617 48.631371 
L 42.389034 48.211057 
L 42.463679 48.61449 
L 42.438797 48.199956 
L 42.501002 48.359761 
L 42.513442 47.751269 
L 42.594308 48.650675 
L 42.612969 48.14419 
L 42.687615 48.651262 
L 42.637851 47.943535 
L 42.724937 48.301828 
L 42.737378 48.250812 
L 42.731158 48.409828 
L 42.740488 48.33191 
L 42.827575 48.674941 
L 42.76848 48.294347 
L 42.852456 48.563125 
L 42.951983 47.965375 
L 42.933322 48.644702 
L 42.964424 48.413941 
L 42.976865 47.968033 
L 43.001747 48.581627 
L 43.073282 48.440525 
L 43.18525 48.646888 
L 43.129266 47.979633 
L 43.18836 48.621763 
L 43.278557 48.131491 
L 43.207021 48.647769 
L 43.306548 48.245117 
L 43.32521 48.683149 
L 43.409186 48.017148 
L 43.418516 47.864618 
L 43.443398 48.669912 
L 43.508713 48.432731 
L 43.589579 48.657688 
L 43.533595 48.295839 
L 43.60824 48.309777 
L 43.673554 47.924774 
L 43.707767 48.685567 
L 43.713987 48.545275 
L 43.729538 48.655701 
L 43.726428 48.455378 
L 43.7482 48.577648 
L 43.813514 47.978034 
L 43.782412 48.645507 
L 43.857057 48.388639 
L 43.937923 48.696474 
L 43.89438 48.334146 
L 43.965915 48.441992 
L 44.065442 48.255716 
L 43.981466 48.663808 
L 44.074773 48.516113 
L 44.130757 48.056884 
L 44.080993 48.658349 
L 44.196071 48.38957 
L 44.214733 48.627368 
L 44.242725 48.171992 
L 44.304929 48.41037 
L 44.398236 48.076985 
L 44.354693 48.656274 
L 44.416897 48.349923 
L 44.485322 48.653887 
L 44.525755 48.385981 
L 44.619061 48.026479 
L 44.547526 48.550417 
L 44.628392 48.447461 
L 44.634612 48.693896 
L 44.671935 48.086676 
L 44.73414 48.334112 
L 44.73725 48.117235 
L 44.830556 48.666392 
L 44.839887 48.485634 
L 44.88032 48.648216 
L 44.892761 48.051234 
L 44.942524 48.256035 
L 45.014059 47.920909 
L 44.970516 48.594772 
L 45.051382 48.353248 
L 45.113586 48.007142 
L 45.079374 48.628959 
L 45.16335 48.311688 
L 45.228664 48.655456 
L 45.265987 48.171247 
L 45.290869 48.0181 
L 45.328192 48.607643 
L 45.368624 48.322581 
L 45.44638 48.600251 
L 45.455711 48.185567 
L 45.477482 48.266551 
L 45.489923 48.628994 
L 45.533466 47.969682 
L 45.536576 48.024912 
L 45.539686 47.874717 
L 45.58945 48.679267 
L 45.639214 48.277384 
L 45.72941 48.683806 
L 45.710749 48.203333 
L 45.769843 48.511208 
L 45.828937 48.686066 
L 45.785394 48.296334 
L 45.847598 48.496843 
L 45.863149 48.136258 
L 45.950236 48.688227 
L 45.953346 48.657073 
L 45.993779 48.137848 
L 45.999999 48.042117 
L 46.062203 48.690016 
L 46.083975 48.416236 
L 46.14929 48.650386 
L 46.102636 48.138371 
L 46.192833 48.426196 
L 46.29547 48.069624 
L 46.208384 48.52693 
L 46.314131 48.218355 
L 46.370115 48.673381 
L 46.398107 48.031867 
L 46.426099 48.372065 
L 46.43854 48.074889 
L 46.460312 48.672281 
L 46.538067 48.114816 
L 46.547398 48.680005 
L 46.559839 48.065106 
L 46.656255 48.562959 
L 46.665586 48.689002 
L 46.702909 48.247203 
L 46.758893 48.525903 
L 46.811766 48.066748 
L 46.849089 48.633483 
L 46.870861 48.401132 
L 46.880191 48.534325 
L 46.933065 48.129632 
L 46.936175 48.207546 
L 46.951726 47.725428 
L 47.029482 48.490708 
L 47.045033 48.132422 
L 47.066805 48.644657 
L 47.14767 47.762316 
L 47.153891 48.111824 
L 47.157001 48.069625 
L 47.200544 48.511405 
L 47.237867 48.480598 
L 47.318732 48.132398 
L 47.253418 48.634423 
L 47.334283 48.455948 
L 47.337394 48.639284 
L 47.356055 47.910213 
L 47.443141 48.441464 
L 47.533338 48.071426 
L 47.464913 48.671571 
L 47.545778 48.29549 
L 47.635975 48.685766 
L 47.648416 48.061263 
L 47.651526 48.084224 
L 47.7044 48.688291 
L 47.729281 48.06976 
L 47.732392 47.909219 
L 47.822588 48.570997 
L 47.831919 48.312702 
L 47.897233 48.640109 
L 47.863021 47.825293 
L 47.943887 48.538057 
L 48.043414 48.141228 
L 48.034083 48.647408 
L 48.058965 48.408773 
L 48.152271 48.625628 
L 48.086957 48.178422 
L 48.164712 48.37089 
L 48.267349 48.018258 
L 48.205145 48.664798 
L 48.27357 48.384009 
L 48.298452 48.68792 
L 48.338885 48.250673 
L 48.341995 48.211431 
L 48.41664 48.618394 
L 48.429081 48.456326 
L 48.478844 48.673959 
L 48.522388 48.370512 
L 48.537939 48.49597 
L 48.55038 48.234433 
L 48.606363 48.679071 
L 48.646796 48.574956 
L 48.681009 48.680713 
L 48.69967 48.246157 
L 48.733882 48.482256 
L 48.83341 48.029334 
L 48.817858 48.668502 
L 48.84585 48.302572 
L 48.901834 48.644406 
L 48.936047 48.135214 
L 48.960929 48.591495 
L 48.97648 48.195691 
L 49.044904 48.675086 
L 49.076007 48.428412 
L 49.172424 48.587254 
L 49.147542 48.211151 
L 49.187975 48.554446 
L 49.212856 47.899485 
L 49.250179 48.639798 
L 49.303053 48.291669 
L 49.331045 48.684903 
L 49.41191 48.214606 
L 49.421241 48.656248 
L 49.480335 48.121584 
L 49.533209 48.591735 
L 49.54565 48.683815 
L 49.586083 48.411504 
L 49.635846 48.620919 
L 49.757145 48.129892 
L 49.722932 48.627749 
L 49.760255 48.140214 
L 49.82246 48.673463 
L 49.769586 48.00424 
L 49.878443 48.660672 
L 49.906435 48.055916 
L 49.884664 48.664188 
L 49.993522 48.453127 
L 50.102379 48.218398 
L 50.083718 48.618674 
L 50.11171 48.245431 
L 50.133482 48.693248 
L 50.223678 48.377771 
L 50.226788 48.208332 
L 50.273441 48.669765 
L 50.332536 48.460428 
L 50.419622 48.648376 
L 50.372968 48.169975 
L 50.444504 48.514848 
L 50.472495 48.353108 
L 50.519149 48.671894 
L 50.544031 48.560405 
L 50.556471 48.684084 
L 50.615566 48.22774 
L 50.643558 48.324435 
L 50.655998 47.88871 
L 50.743085 48.701315 
L 50.755526 48.235869 
L 50.758636 48.20164 
L 50.82084 48.623495 
L 50.833281 48.459326 
L 50.911037 48.665594 
L 50.942139 48.330598 
L 51.007453 48.122714 
L 50.96702 48.539067 
L 51.047886 48.424037 
L 51.060327 48.087531 
L 51.063437 47.977815 
L 51.082099 48.628815 
L 51.166075 48.265234 
L 51.197177 48.679082 
L 51.268712 48.338032 
L 51.287373 48.011888 
L 51.327806 48.626642 
L 51.38068 48.233373 
L 51.489537 47.75989 
L 51.427333 48.620208 
L 51.501978 48.072702 
L 51.561073 48.646199 
L 51.613946 48.220549 
L 51.685481 48.604144 
L 51.725914 48.425893 
L 51.738355 47.903671 
L 51.831662 48.622029 
L 51.834772 48.423247 
L 51.844103 48.613479 
L 51.900087 48.230324 
L 51.94363 48.459868 
L 51.962291 48.125427 
L 51.984062 48.663381 
L 52.024495 48.636247 
L 52.030716 48.471277 
L 52.033826 48.475586 
L 52.068038 48.149389 
L 52.0867 48.654567 
L 52.142684 48.491563 
L 52.170676 48.192694 
L 52.248431 48.654445 
L 52.357289 48.272094 
L 52.338628 48.673747 
L 52.363509 48.304403 
L 52.37595 48.586049 
L 52.413273 48.116276 
L 52.472367 48.321998 
L 52.522131 48.283254 
L 52.500359 48.681906 
L 52.562563 48.481115 
L 52.674531 48.068482 
L 52.627878 48.684014 
L 52.680752 48.377357 
L 52.724295 48.644435 
L 52.752287 48.270201 
L 52.789609 48.414841 
L 52.858034 48.06883 
L 52.80205 48.610813 
L 52.901577 48.392934 
L 52.991774 48.630341 
L 52.948231 48.180091 
L 53.010435 48.386149 
L 53.063309 48.180619 
L 53.041537 48.620439 
L 53.106852 48.612184 
L 53.122403 48.103837 
L 53.21571 48.666126 
L 53.296575 48.217353 
L 53.327678 48.53235 
L 53.355669 48.162303 
L 53.340118 48.67752 
L 53.417874 48.60607 
L 53.483189 48.66122 
L 53.495629 48.291015 
L 53.49874 48.403847 
L 53.601377 47.906247 
L 53.582716 48.567829 
L 53.610708 48.286754 
L 53.663581 48.689739 
L 53.616928 48.171145 
L 53.719565 48.334316 
L 53.828423 48.105795 
L 53.797321 48.687028 
L 53.831533 48.208869 
L 53.865746 48.588129 
L 53.93106 48.184315 
L 53.946611 48.512322 
L 53.983934 48.219648 
L 54.036808 48.687096 
L 54.058579 48.363734 
L 54.07102 48.667909 
L 54.092792 48.223348 
L 54.173657 48.561981 
L 54.248303 48.109856 
L 54.279405 48.685199 
L 54.282515 48.536399 
L 54.366491 48.684088 
L 54.288736 48.37683 
L 54.391373 48.645888 
L 54.406924 48.336977 
L 54.475349 48.655689 
L 54.503341 48.527288 
L 54.593537 48.235268 
L 54.559325 48.675047 
L 54.618419 48.246847 
L 54.708615 48.646571 
L 54.736607 48.634425 
L 54.817473 48.389998 
L 54.755269 48.686638 
L 54.864126 48.486679 
L 54.873457 48.674875 
L 54.954323 47.743186 
L 54.969874 48.330167 
L 55.100503 48.645308 
L 55.041409 48.201873 
L 55.109834 48.590174 
L 55.162707 48.643141 
L 55.228022 48.047605 
L 55.299557 48.653896 
L 55.3431 48.579667 
L 55.361761 48.230723 
L 55.383533 48.685509 
L 55.455068 48.476601 
L 55.542154 48.592046 
L 55.47684 48.228725 
L 55.554595 48.283695 
L 55.595028 48.112604 
L 55.62924 48.56654 
L 55.657232 48.421782 
L 55.660343 48.66992 
L 55.753649 48.162671 
L 55.76609 48.365353 
L 55.837625 48.651067 
L 55.850066 48.272935 
L 55.871838 48.381113 
L 55.921601 47.961966 
L 55.958924 48.508264 
L 55.980695 48.253176 
L 55.993136 48.644666 
L 56.018018 48.148421 
L 56.092663 48.352472 
L 56.164198 48.566112 
L 56.120655 48.207597 
L 56.198411 48.322938 
L 56.210851 48.208174 
L 56.279276 48.662076 
L 56.294827 48.612924 
L 56.33215 48.152942 
L 56.301048 48.659696 
L 56.400575 48.617151 
L 56.450338 48.671302 
L 56.437898 48.171134 
L 56.484551 48.509509 
L 56.515653 48.097652 
L 56.496992 48.63654 
L 56.602739 48.241272 
L 56.646282 48.644806 
L 56.689825 48.194617 
L 56.714707 48.442861 
L 56.773801 48.377774 
L 56.789352 48.677021 
L 56.811124 48.534124 
L 56.910651 48.699164 
L 56.845336 48.307713 
L 56.919982 48.573085 
L 56.926202 48.263692 
L 57.007068 48.697548 
L 57.03195 48.476907 
L 57.056831 48.668181 
L 57.115926 48.310036 
L 57.143918 48.619829 
L 57.252775 48.199517 
L 57.196791 48.679301 
L 57.274547 48.338088 
L 57.31809 48.617108 
L 57.364743 48.266747 
L 57.389625 48.466186 
L 57.417617 48.180755 
L 57.398956 48.638597 
L 57.482931 48.594759 
L 57.573128 48.68323 
L 57.492262 48.251096 
L 57.588679 48.475799 
L 57.663324 47.862369 
L 57.610451 48.670785 
L 57.691316 48.490746 
L 57.694426 48.6095 
L 57.769072 48.272787 
L 57.803284 48.603152 
L 57.831276 48.248756 
L 57.871709 48.6619 
L 57.912142 48.349157 
L 57.943244 48.659855 
L 58.005448 47.992034 
L 58.02411 48.617647 
L 58.052102 48.093036 
L 58.03033 48.636601 
L 58.139188 48.437148 
L 58.142298 48.621905 
L 58.201392 48.123375 
L 58.251156 48.504533 
L 58.294699 48.303827 
L 58.30403 48.677181 
L 58.363124 48.414586 
L 58.415998 48.607233 
L 58.388006 48.268909 
L 58.437769 48.46761 
L 58.440879 48.141088 
L 58.503084 48.6781 
L 58.546627 48.497109 
L 58.605721 48.669755 
L 58.59328 48.241085 
L 58.649264 48.56437 
L 58.655484 48.298472 
L 58.717689 48.685537 
L 58.761232 48.46986 
L 58.845208 48.674091 
L 58.823436 48.129968 
L 58.8732 48.484903 
L 58.882531 48.154791 
L 58.916743 48.667131 
L 58.972727 48.593874 
L 59.01316 48.636011 
L 59.034931 48.332039 
L 59.066034 48.554051 
L 59.134458 48.332816 
L 59.115797 48.680779 
L 59.174891 48.490696 
L 59.196663 48.657571 
L 59.205993 48.254769 
L 59.283749 48.462158 
L 59.336623 48.684744 
L 59.314851 48.314843 
L 59.401937 48.512761 
L 59.479693 48.154664 
L 59.517015 48.158972 
L 59.569889 48.653295 
L 59.604102 48.076717 
L 59.641424 48.316553 
L 59.644534 48.31997 
L 59.691188 48.681648 
L 59.709849 48.27231 
L 59.756502 48.59209 
L 59.759613 48.60689 
L 59.772053 48.264097 
L 59.821817 48.472776 
L 59.837368 48.199368 
L 59.890242 48.688953 
L 59.933785 48.297122 
L 59.974218 48.640629 
L 60.017761 48.271837 
L 60.048863 48.446962 
L 60.107957 48.639877 
L 60.092406 48.296521 
L 60.123508 48.389562 
L 60.139059 48.03692 
L 60.223035 48.617472 
L 60.229256 48.60307 
L 60.313232 48.044797 
L 60.28524 48.62006 
L 60.341224 48.540449 
L 60.397208 48.339401 
L 60.356775 48.668081 
L 60.4252 48.58802 
L 60.468743 48.65722 
L 60.481184 48.225339 
L 60.512286 48.28092 
L 60.555829 47.86273 
L 60.593152 48.636752 
L 60.621144 48.175302 
L 60.627364 48.670315 
L 60.692679 47.981856 
L 60.733111 48.33116 
L 60.792206 48.632654 
L 60.838859 48.301818 
L 60.84819 48.516733 
L 60.941496 48.055204 
L 60.919725 48.665219 
L 60.957047 48.552721 
L 60.99437 48.659928 
L 61.009921 48.174892 
L 61.056574 48.261328 
L 61.059685 48.219617 
L 61.112558 48.682638 
L 61.146771 48.495943 
L 61.168542 48.702513 
L 61.218306 48.412093 
L 61.243188 48.415792 
L 61.246298 48.33655 
L 61.308502 48.630833 
L 61.348935 48.456635 
L 61.383147 48.661051 
L 61.373817 48.214221 
L 61.467123 48.591691 
L 61.495115 48.345455 
L 61.519997 48.666056 
L 61.575981 48.594869 
L 61.582202 48.590126 
L 61.585312 48.603594 
L 61.687949 48.192061 
L 61.659957 48.681592 
L 61.69728 48.353652 
L 61.784366 48.685583 
L 61.809248 48.51498 
L 61.911885 48.698735 
L 61.865232 48.337847 
L 61.921216 48.645376 
L 61.939877 48.687861 
L 61.949207 48.580377 
L 61.958538 48.619599 
L 62.014522 48.366376 
L 62.051845 48.677831 
L 62.070506 48.566396 
L 62.101608 48.187069 
L 62.160702 48.678576 
L 62.176254 48.486145 
L 62.207356 48.678385 
L 62.210466 48.347086 
L 62.285111 48.403258 
L 62.331765 48.662777 
L 62.350426 48.26795 
L 62.365977 48.295021 
L 62.369087 48.152538 
L 62.390859 48.664011 
L 62.471724 48.348678 
L 62.565031 48.651482 
L 62.580582 48.35961 
L 62.680109 48.666669 
L 62.69566 48.559633 
L 62.745424 48.094535 
L 62.708101 48.670888 
L 62.807628 48.45422 
L 62.823179 48.626049 
L 62.851171 48.362619 
L 62.882274 48.384584 
L 62.953809 48.067993 
L 62.925817 48.647435 
L 62.988021 48.524344 
L 63.081328 48.631578 
L 63.009793 48.27998 
L 63.090658 48.488449 
L 63.11865 48.304369 
L 63.137312 48.65781 
L 63.196406 48.509402 
L 63.277271 48.687367 
L 63.233728 48.25725 
L 63.299043 48.381059 
L 63.302153 48.177968 
L 63.333255 48.685803 
L 63.40479 48.52605 
L 63.473215 48.620399 
L 63.504318 48.315417 
L 63.507428 48.270112 
L 63.560301 48.634884 
L 63.591404 48.43488 
L 63.666049 48.701296 
L 63.600734 48.352401 
L 63.700261 48.433538 
L 63.790458 48.256571 
L 63.715812 48.646851 
L 63.793568 48.498326 
L 63.840221 48.692841 
L 63.852662 48.340033 
L 63.905536 48.582216 
L 64.014394 48.375471 
L 63.924197 48.68647 
L 64.017504 48.432441 
L 64.09837 48.658351 
L 64.054826 48.334817 
L 64.123251 48.489365 
L 64.126362 48.312516 
L 64.222778 48.618533 
L 64.232109 48.591592 
L 64.269432 48.672776 
L 64.325416 48.347928 
L 64.334746 48.39746 
L 64.344077 48.302535 
L 64.359628 48.553239 
L 64.375179 48.438317 
L 64.412502 48.698988 
L 64.38762 48.338785 
L 64.487147 48.580155 
L 64.52758 48.679801 
L 64.505808 48.495981 
L 64.53069 48.53829 
L 64.602225 48.206599 
L 64.589784 48.684722 
L 64.639548 48.480577 
L 64.695532 48.684687 
L 64.67687 48.198748 
L 64.745295 48.427921 
L 64.860373 48.161351 
L 64.823051 48.643194 
L 64.863484 48.227585 
L 64.910137 48.685138 
L 64.978562 48.558803 
L 65.043876 48.671191 
L 65.065648 48.267993 
L 65.074979 48.40688 
L 65.106081 48.189563 
L 65.158955 48.643006 
L 65.183836 48.520758 
L 65.258482 48.647257 
L 65.23671 48.137277 
L 65.283363 48.333261 
L 65.286474 48.332992 
L 65.292694 48.669872 
L 65.298914 48.291822 
L 65.401552 48.580495 
L 65.420213 47.935782 
L 65.469977 48.68307 
L 65.51663 48.262339 
L 65.600606 48.228181 
L 65.538401 48.645344 
L 65.609936 48.312714 
L 65.625488 48.649398 
L 65.6597 48.201125 
L 65.725015 48.556503 
L 65.821431 48.270539 
L 65.759227 48.652379 
L 65.833872 48.467157 
L 65.902297 48.697539 
L 65.855644 48.161844 
L 65.94895 48.644604 
L 66.036037 48.315969 
L 66.042257 48.662611 
L 66.060918 48.528693 
L 66.110682 48.674819 
L 66.129343 48.232003 
L 66.163556 48.36223 
L 66.166666 48.342575 
L 66.185327 48.638962 
L 66.238201 48.508164 
L 66.241311 48.644605 
L 66.319067 48.278409 
L 66.350169 48.57236 
L 66.36261 48.681844 
L 66.393712 48.436669 
L 66.459027 48.617735 
L 66.564774 48.353847 
L 66.546113 48.679254 
L 66.570994 48.44122 
L 66.661191 48.666229 
L 66.636309 48.285263 
L 66.682962 48.573057 
L 66.714065 48.425902 
L 66.692293 48.643171 
L 66.79493 48.50858 
L 66.819812 48.679491 
L 66.841584 48.329299 
L 66.897568 48.496397 
L 66.975323 48.134707 
L 66.916229 48.623566 
L 67.012646 48.282244 
L 67.043748 48.603699 
L 67.093511 48.18756 
L 67.121503 48.31831 
L 67.149495 48.129095 
L 67.186818 48.673026 
L 67.224141 48.58017 
L 67.326778 48.279438 
L 67.292566 48.658732 
L 67.339219 48.411206 
L 67.379652 48.665813 
L 67.392093 48.252852 
L 67.448077 48.490011 
L 67.547604 48.17304 
L 67.469848 48.656152 
L 67.556934 48.48198 
L 67.64091 48.680278 
L 67.572485 48.142736 
L 67.665792 48.53988 
L 67.724886 48.165108 
L 67.768429 48.631183 
L 67.77465 48.53577 
L 67.846185 48.194348 
L 67.883507 48.651907 
L 67.936381 48.344069 
L 67.989255 48.682624 
L 67.998585 48.436548 
L 68.088782 48.658864 
L 68.048349 48.229503 
L 68.110553 48.552501 
L 68.126105 48.293549 
L 68.185199 48.664056 
L 68.222521 48.449331 
L 68.325159 48.692443 
L 68.284726 48.359438 
L 68.334489 48.50356 
L 68.337599 48.277936 
L 68.440237 48.690195 
L 68.443347 48.527143 
L 68.452678 48.657138 
L 68.458898 48.295163 
L 68.555315 48.536865 
L 68.661062 48.645399 
L 68.598858 48.41912 
L 68.664173 48.63158 
L 68.76681 48.403566 
L 68.679724 48.675975 
L 68.776141 48.55021 
L 68.779251 48.551507 
L 68.804132 48.318847 
L 68.835235 48.657828 
L 68.891219 48.492435 
L 68.925431 48.641343 
L 68.940982 48.233137 
L 68.947203 48.266761 
L 68.950313 48.067102 
L 69.006297 48.667001 
L 69.05606 48.313376 
L 69.118265 48.688704 
L 69.065391 48.169064 
L 69.161808 48.399061 
L 69.164918 48.257705 
L 69.264445 48.696581 
L 69.270665 48.436442 
L 69.357752 48.381142 
L 69.382633 48.691562 
L 69.47283 48.257119 
L 69.494601 48.403469 
L 69.563026 48.684675 
L 69.513263 48.390782 
L 69.606569 48.41425 
L 69.61279 48.347168 
L 69.6159 48.43254 
L 69.706096 48.011826 
L 69.721647 48.568964 
L 69.737199 48.239532 
L 69.786962 48.653522 
L 69.836726 48.546784 
L 69.861607 48.178271 
L 69.951804 48.657168 
L 70.03578 48.104788 
L 69.986016 48.659112 
L 70.066882 48.34689 
L 70.091764 48.143329 
L 70.082433 48.682214 
L 70.166409 48.501931 
L 70.269046 48.609394 
L 70.17885 48.295774 
L 70.275267 48.567312 
L 70.343691 47.993692 
L 70.377904 48.680053 
L 70.387234 48.522855 
L 70.430778 48.685773 
L 70.440108 48.149382 
L 70.496092 48.560394 
L 70.533415 48.215041 
L 70.539635 48.670581 
L 70.60806 48.503077 
L 70.636052 48.678881 
L 70.682705 48.387962 
L 70.685816 48.456474 
L 70.729359 48.188616 
L 70.75113 48.6671 
L 70.797784 48.397878 
L 70.900421 48.645572 
L 70.831996 48.217825 
L 70.909751 48.511813 
L 70.981287 48.673923 
L 70.987507 48.365257 
L 71.012389 48.45967 
L 71.018609 48.124359 
L 71.049711 48.668064 
L 71.121246 48.438024 
L 71.180341 48.693094 
L 71.130577 48.282528 
L 71.236325 48.596312 
L 71.282978 48.397497 
L 71.248765 48.65443 
L 71.348292 48.496364 
L 71.45093 48.701929 
L 71.435379 48.374504 
L 71.46026 48.524759 
L 71.525575 48.642538 
L 71.469591 48.357008 
L 71.528685 48.459878 
L 71.556677 48.262565 
L 71.575339 48.67413 
L 71.640653 48.358458 
L 71.724629 48.686306 
L 71.768172 48.495157 
L 71.824156 48.113418 
L 71.799274 48.687999 
L 71.870809 48.489517 
L 71.87392 48.693463 
L 71.964116 48.153446 
L 71.979667 48.423992 
L 72.057423 48.666573 
L 72.0201 48.200336 
L 72.094745 48.586459 
L 72.141399 48.339854 
L 72.16628 48.659488 
L 72.209823 48.463876 
L 72.268918 48.683657 
L 72.234705 48.426098 
L 72.318681 48.462517 
L 72.424429 48.221523 
L 72.356004 48.655131 
L 72.430649 48.245699 
L 72.505294 48.625949 
L 72.489743 48.185342 
L 72.542617 48.480501 
L 72.545727 48.307023 
L 72.601711 48.683432 
L 72.651475 48.490712 
L 72.704348 48.640158 
L 72.710569 48.393363 
L 72.760332 48.475578 
L 72.859859 48.261901 
L 72.810096 48.694766 
L 72.86919 48.487622 
L 72.906513 48.668653 
L 72.918954 48.367283 
L 72.950056 48.422188 
L 73.00915 48.236148 
L 73.049583 48.666911 
L 73.058914 48.485491 
L 73.121118 48.655764 
L 73.146 48.206255 
L 73.167771 48.474919 
L 73.195763 48.64317 
L 73.220645 48.307815 
L 73.276629 48.450758 
L 73.2984 48.385535 
L 73.310841 48.685953 
L 73.382376 48.445784 
L 73.404148 48.677895 
L 73.466352 48.265946 
L 73.497455 48.617833 
L 73.5721 48.381165 
L 73.519226 48.68004 
L 73.606312 48.667361 
L 73.609422 48.670215 
L 73.612533 48.53893 
L 73.624974 48.289158 
L 73.640525 48.691438 
L 73.72139 48.487383 
L 73.824028 48.635093 
L 73.749382 48.363115 
L 73.833358 48.541056 
L 73.86135 48.342868 
L 73.870681 48.677183 
L 73.942216 48.495526 
L 74.007531 48.667734 
L 73.960877 48.354684 
L 74.051074 48.62006 
L 74.150601 48.314086 
L 74.082176 48.694638 
L 74.166152 48.343467 
L 74.191034 47.965585 
L 74.27812 48.622497 
L 74.296781 48.38908 
L 74.377647 48.644136 
L 74.396308 48.420165 
L 74.505166 48.660525 
L 74.414969 48.275129 
L 74.508276 48.50382 
L 74.530048 48.673506 
L 74.582921 48.337946 
L 74.617134 48.632488 
L 74.70111 48.69187 
L 74.732212 48.250041 
L 74.785086 48.670802 
L 74.84418 48.617696 
L 74.856621 48.67288 
L 74.8504 48.544621 
L 74.862841 48.566116 
L 74.869062 48.343125 
L 74.937486 48.704366 
L 74.971699 48.534204 
L 75.046344 47.992197 
L 75.086777 48.654789 
L 75.120989 48.236593 
L 75.176973 48.688469 
L 75.204965 48.377958 
L 75.301382 48.703368 
L 75.251619 48.22967 
L 75.313823 48.51687 
L 75.400909 48.084912 
L 75.385358 48.673768 
L 75.419571 48.513858 
L 75.438232 48.113819 
L 75.534649 48.691921 
L 75.649727 48.132002 
L 75.665278 48.306499 
L 75.69949 48.691797 
L 75.780356 48.639559 
L 75.83634 48.692796 
L 75.789687 48.386656 
L 75.867442 48.541101 
L 75.920316 48.249017 
L 75.970079 48.681862 
L 75.9763 48.428704 
L 76.082047 48.684187 
L 76.091378 48.628428 
L 76.197126 48.424437 
L 76.184685 48.663796 
L 76.203346 48.457773 
L 76.271771 48.275166 
L 76.315314 48.689922 
L 76.374408 48.382464 
L 76.424172 48.639324 
L 76.480156 48.686823 
L 76.505037 48.266001 
L 76.517478 48.396438 
L 76.520588 48.393158 
L 76.523699 48.485865 
L 76.529919 48.435338 
L 76.564132 48.677476 
L 76.576572 48.360173 
L 76.638777 48.499283 
L 76.719643 48.426473 
L 76.725863 48.688318 
L 76.744524 48.517375 
L 76.791178 48.628794 
L 76.784957 48.329526 
L 76.853382 48.490749 
L 76.940468 48.355371 
L 76.903146 48.688878 
L 76.956019 48.602194 
L 76.959129 48.673611 
L 76.987121 48.136492 
L 77.055546 48.419303 
L 77.161294 48.145466 
L 77.077318 48.653838 
L 77.167514 48.273746 
L 77.179955 48.690365 
L 77.288813 48.581185 
L 77.351017 48.210442 
L 77.338576 48.669443 
L 77.403891 48.510473 
L 77.478536 48.671087 
L 77.503418 48.300666 
L 77.506528 48.508062 
L 77.559402 48.231779 
L 77.53763 48.63876 
L 77.615386 48.494521 
L 77.718023 48.674817 
L 77.662039 48.390022 
L 77.727354 48.625488 
L 77.777117 48.284187 
L 77.749125 48.695 
L 77.839322 48.614532 
L 77.842432 48.656635 
L 77.870424 48.283198 
L 77.945069 48.564807 
L 78.019715 48.269719 
L 77.95129 48.682338 
L 78.057037 48.405947 
L 78.106801 48.63268 
L 78.147234 48.337139 
L 78.169005 48.482494 
L 78.184556 48.496611 
L 78.187666 48.66575 
L 78.24365 48.284744 
L 78.293414 48.609317 
L 78.302745 48.200597 
L 78.37739 48.641094 
L 78.408492 48.465601 
L 78.470696 48.414591 
L 78.442704 48.676245 
L 78.514239 48.505381 
L 78.601326 48.658113 
L 78.548452 48.265134 
L 78.623097 48.534693 
L 78.700853 48.364491 
L 78.725734 48.702695 
L 78.731955 48.516763 
L 78.840813 48.687257 
L 78.784829 48.303478 
L 78.843923 48.599227 
L 78.847033 48.692648 
L 78.865694 48.3092 
L 78.94967 48.529748 
L 79.052308 48.284817 
L 78.986993 48.689276 
L 79.064748 48.349577 
L 79.170496 48.699033 
L 79.176716 48.50832 
L 79.238921 48.108068 
L 79.254472 48.634266 
L 79.285574 48.532386 
L 79.344668 48.377416 
L 79.338448 48.656815 
L 79.394432 48.409859 
L 79.481518 48.655642 
L 79.419314 48.343493 
L 79.5064 48.528718 
L 79.51262 48.278423 
L 79.587265 48.678764 
L 79.615257 48.362517 
L 79.668131 48.678754 
L 79.708564 48.119706 
L 79.727225 48.577083 
L 79.736556 48.359056 
L 79.761438 48.687084 
L 79.836083 48.628992 
L 79.854744 48.362615 
L 79.845414 48.66077 
L 79.948051 48.485909 
L 80.047578 48.675529 
L 79.988484 48.32593 
L 80.060019 48.564445 
L 80.153325 48.29912 
L 80.08179 48.671671 
L 80.168877 48.447383 
L 80.252852 48.656807 
L 80.234191 48.195563 
L 80.277734 48.451067 
L 80.308836 48.302676 
L 80.327498 48.669272 
L 80.36482 48.551214 
L 80.405253 48.644979 
L 80.464347 48.277159 
L 80.473678 48.598336 
L 80.523442 48.693863 
L 80.591866 48.246105 
L 80.675842 48.680331 
L 80.710055 48.644211 
L 80.769149 48.337614 
L 80.818913 48.632572 
L 80.862456 48.19947 
L 80.825133 48.677912 
L 80.92777 48.618075 
L 81.011746 48.671369 
L 80.961983 48.303813 
L 81.024187 48.543166 
L 81.058399 48.366211 
L 81.105053 48.674551 
L 81.133045 48.603631 
L 81.226351 48.289307 
L 81.179698 48.657996 
L 81.241902 48.652732 
L 81.294776 48.420163 
L 81.263674 48.688183 
L 81.366311 48.45715 
L 81.437846 48.683375 
L 81.450287 48.358769 
L 81.475169 48.486325 
L 81.49072 48.325058 
L 81.565365 48.695174 
L 81.577806 48.41264 
L 81.63068 48.680209 
L 81.686664 48.568285 
L 81.711546 48.29883 
L 81.758199 48.681235 
L 81.801742 48.324073 
L 81.9106 48.678791 
L 81.867057 48.265469 
L 81.91993 48.602159 
L 82.003906 48.213458 
L 81.951033 48.649782 
L 82.028788 48.59101 
L 82.031898 48.681445 
L 82.131425 48.355526 
L 82.137646 48.298044 
L 82.168748 48.670912 
L 82.206071 48.505632 
L 82.296267 48.694912 
L 82.308708 48.439811 
L 82.318039 48.617063 
L 82.389574 48.304522 
L 82.324259 48.664304 
L 82.430007 48.491487 
L 82.507762 48.680143 
L 82.48288 48.269582 
L 82.538864 48.603188 
L 82.632171 48.192847 
L 82.545085 48.691766 
L 82.653942 48.360267 
L 82.741029 48.659638 
L 82.700596 48.329926 
L 82.76591 48.625012 
L 82.837445 48.317846 
L 82.831225 48.672204 
L 82.874768 48.565737 
L 82.933862 48.689883 
L 82.930752 48.426291 
L 82.977405 48.612021 
L 83.089373 48.394279 
L 82.999177 48.68823 
L 83.092483 48.484719 
L 83.167129 48.278664 
L 83.120475 48.672569 
L 83.18268 48.478706 
L 83.210672 48.349468 
L 83.297758 48.644839 
L 83.335081 48.331024 
L 83.319529 48.682955 
L 83.409726 48.554848 
L 83.509253 48.678662 
L 83.428387 48.2967 
L 83.521694 48.641091 
L 83.540355 48.33922 
L 83.60878 48.675314 
L 83.633662 48.555161 
L 83.658543 48.68566 
L 83.667874 48.417559 
L 83.739409 48.556307 
L 83.848267 48.31103 
L 83.817165 48.638986 
L 83.851377 48.493638 
L 83.89492 48.694957 
L 83.944684 48.404544 
L 83.960235 48.576523 
L 83.985117 48.295145 
L 84.022439 48.660577 
L 84.069093 48.367793 
L 84.109525 48.645351 
L 84.084644 48.254291 
L 84.18106 48.542057 
L 84.221493 48.681383 
L 84.265036 48.427463 
L 84.286808 48.478485 
L 84.373894 48.272919 
L 84.336571 48.649978 
L 84.398776 48.406209 
L 84.498303 48.660404 
L 84.439209 48.113547 
L 84.507634 48.413904 
L 84.513854 48.247422 
L 84.607161 48.621452 
L 84.613381 48.467523 
L 84.722239 48.691233 
L 84.647593 48.262838 
L 84.725349 48.559024 
L 84.731569 48.61586 
L 84.73779 48.471123 
L 84.834207 48.414749 
L 84.837317 48.675371 
L 84.840427 48.696373 
L 84.88086 48.419369 
L 84.908852 48.527342 
L 84.911962 48.259256 
L 84.958615 48.645278 
L 85.01771 48.593119 
L 85.098575 48.254004 
L 85.039481 48.675841 
L 85.135898 48.529243 
L 85.182551 48.663518 
L 85.194992 48.290371 
L 85.235425 48.501607 
L 85.266527 48.280767 
L 85.316291 48.684566 
L 85.347393 48.434822 
L 85.406487 48.694443 
L 85.428259 48.309838 
L 85.459361 48.483517 
L 85.499794 48.174135 
L 85.518455 48.617001 
L 85.558888 48.40271 
L 85.599321 48.683413 
L 85.670856 48.662391 
L 85.764162 48.286373 
L 85.792154 48.539803 
L 85.885461 48.661404 
L 85.854359 48.345605 
L 85.901012 48.558779 
L 86.000539 48.409733 
L 85.963217 48.684073 
L 86.01609 48.477556 
L 86.068964 48.185874 
L 86.047192 48.633916 
L 86.093846 48.566248 
L 86.143609 48.675811 
L 86.14983 48.430175 
L 86.202703 48.536564 
L 86.233806 48.679712 
L 86.258687 48.336162 
L 86.2929 48.453846 
L 86.364435 48.370913 
L 86.308451 48.680747 
L 86.395537 48.602191 
L 86.426639 48.443061 
L 86.498174 48.693528 
L 86.504395 48.605528 
L 86.600812 48.679281 
L 86.588371 48.481846 
L 86.610142 48.552617 
L 86.669236 48.643362 
L 86.644355 48.458091 
L 86.672347 48.589061 
L 86.675457 48.412102 
L 86.762543 48.648924 
L 86.781204 48.610763 
L 86.787425 48.626164 
L 86.790535 48.549874 
L 86.809196 48.383285 
L 86.846519 48.653747 
L 86.902503 48.505692 
L 86.952266 48.647907 
L 86.99581 48.257435 
L 87.011361 48.466281 
L 87.042463 48.663798 
L 87.058014 48.26864 
L 87.113998 48.56724 
L 87.188643 48.681216 
L 87.225966 48.347577 
L 87.344154 48.680668 
L 87.27884 48.229061 
L 87.347264 48.543033 
L 87.437461 48.324311 
L 87.403248 48.684417 
L 87.459232 48.416584 
L 87.543208 48.659747 
L 87.5712 48.642732 
L 87.645846 48.15035 
L 87.611633 48.694731 
L 87.695609 48.571238 
L 87.723601 48.653561 
L 87.748483 48.327751 
L 87.785805 48.586897 
L 87.804467 48.36332 
L 87.894663 48.665036 
L 87.919545 48.313961 
L 87.907104 48.693961 
L 88.009741 48.506502 
L 88.103048 48.296278 
L 88.118599 48.641379 
L 88.13726 48.245857 
L 88.230567 48.50816 
L 88.249228 48.68212 
L 88.311433 48.208471 
L 88.326984 48.266551 
L 88.330094 48.210946 
L 88.348755 48.693603 
L 88.42029 48.553633 
L 88.504266 48.656131 
L 88.516707 48.339525 
L 88.526038 48.490584 
L 88.582022 48.33674 
L 88.600683 48.643867 
L 88.634896 48.392311 
L 88.70021 48.661443 
L 88.731312 48.348295 
L 88.746863 48.486406 
L 88.852611 48.265631 
L 88.805958 48.695314 
L 88.855721 48.39736 
L 88.917926 48.695624 
L 88.967689 48.63977 
L 89.057885 48.410844 
L 89.036114 48.689973 
L 89.079657 48.582246 
L 89.082767 48.664797 
L 89.176074 48.389372 
L 89.182294 48.473905 
L 89.185404 48.323689 
L 89.281821 48.693712 
L 89.294262 48.357124 
L 89.356467 48.660711 
L 89.40623 48.527476 
L 89.474655 48.659585 
L 89.449773 48.387802 
L 89.515088 48.542425 
L 89.602174 48.380053 
L 89.592843 48.695389 
L 89.620835 48.534859 
L 89.670599 48.676912 
L 89.698591 48.440509 
L 89.729693 48.668545 
L 89.810559 48.280632 
L 89.841661 48.389246 
L 89.903865 48.68342 
L 89.922527 48.268878 
L 89.953629 48.480979 
L 90.056266 48.405851 
L 90.068707 48.675859 
L 90.158903 48.369618 
L 90.183785 48.437119 
L 90.208667 48.649831 
L 90.277092 48.395454 
L 90.295753 48.574197 
L 90.339296 48.338526 
L 90.314414 48.663598 
L 90.407721 48.460406 
L 90.504138 48.688746 
L 90.476146 48.341215 
L 90.519689 48.574319 
L 90.581893 48.418781 
L 90.53213 48.676112 
L 90.625436 48.590946 
L 90.628547 48.680257 
L 90.724963 48.347253 
L 90.731184 48.466049 
L 90.790278 48.310595 
L 90.743625 48.691022 
L 90.830711 48.389482 
L 90.917797 48.681971 
L 90.877364 48.348345 
L 90.942679 48.499911 
L 90.96445 48.650784 
L 90.983112 48.334857 
L 90.986222 48.444965 
L 91.004883 48.676854 
L 91.09819 48.277174 
L 91.1013 48.267583 
L 91.110631 48.540388 
L 91.119961 48.441098 
L 91.179056 48.667997 
L 91.207048 48.322275 
L 91.231929 48.638677 
L 91.306575 48.347287 
L 91.256811 48.665301 
L 91.356338 48.513953 
L 91.455865 48.678874 
L 91.37811 48.268645 
L 91.471416 48.569721 
L 91.477637 48.286308 
L 91.511849 48.670452 
L 91.583384 48.551028 
L 91.630037 48.3735 
L 91.642478 48.673757 
L 91.651809 48.483899 
L 91.654919 48.699108 
L 91.707793 48.312849 
L 91.763777 48.604785 
L 91.822871 48.696939 
L 91.80732 48.456873 
L 91.835312 48.601631 
L 91.909957 48.397105 
L 91.875745 48.682056 
L 91.94417 48.57703 
L 92.043697 48.696018 
L 91.95039 48.45977 
L 92.068578 48.619666 
L 92.152554 48.309405 
L 92.164995 48.691938 
L 92.177436 48.497576 
L 92.211649 48.673013 
L 92.239641 48.466459 
L 92.289404 48.534888 
L 92.339168 48.346063 
L 92.298735 48.689922 
L 92.395152 48.57638 
L 92.448025 48.658066 
L 92.482238 48.396484 
L 92.500899 48.612694 
L 92.578655 48.357213 
L 92.51956 48.671964 
L 92.609757 48.62001 
L 92.634639 48.643357 
L 92.622198 48.504134 
L 92.637749 48.561043 
L 92.662631 48.269508 
L 92.706174 48.659881 
L 92.746606 48.556531 
L 92.79326 48.66407 
L 92.765268 48.372197 
L 92.846133 48.486907 
L 92.892787 48.332914 
L 92.902117 48.661721 
L 92.948771 48.378038 
L 93.007865 48.67743 
L 93.029636 48.189284 
L 93.057628 48.530752 
L 93.163376 48.366931 
L 93.113612 48.670584 
L 93.169596 48.396995 
L 93.182037 48.684046 
L 93.284675 48.652359 
L 93.405973 48.394164 
L 93.297115 48.693143 
L 93.412194 48.505379 
L 93.493059 48.649623 
L 93.465067 48.375888 
L 93.527272 48.576628 
L 93.549043 48.328386 
L 93.564594 48.661723 
L 93.63924 48.489475 
L 93.723216 48.628755 
L 93.673452 48.320666 
L 93.726326 48.507338 
L 93.729436 48.281271 
L 93.822743 48.658016 
L 93.835183 48.60563 
L 93.92538 48.301423 
L 93.847624 48.684131 
L 93.950262 48.444101 
L 94.000025 48.684016 
L 93.981364 48.421657 
L 94.06223 48.609136 
L 94.077781 48.408563 
L 94.171087 48.679757 
L 94.202189 48.394827 
L 94.177308 48.696469 
L 94.289276 48.636908 
L 94.292386 48.634912 
L 94.332819 48.341513 
L 94.398133 48.696433 
L 94.404354 48.469974 
L 94.423015 48.664763 
L 94.413684 48.425891 
L 94.525652 48.528257 
L 94.528763 48.347767 
L 94.578526 48.669199 
L 94.63451 48.454278 
L 94.699825 48.636256 
L 94.674943 48.35763 
L 94.702935 48.403505 
" clip-path="url(#pb50739e6af)" style="fill: none; stroke: #8c564b; stroke-width: 0.5; stroke-linecap: square"/>
   </g>
  </g>
 </g>
 <defs>
  <clipPath id="pb50739e6af">
   <rect x="0" y="-0" width="99.212598" height="51.023622"/>
  </clipPath>
 </defs>
</svg>
