<?xml version="1.0" encoding="utf-8" standalone="no"?>
<!DOCTYPE svg PUBLIC "-//W3C//DTD SVG 1.1//EN"
  "http://www.w3.org/Graphics/SVG/1.1/DTD/svg11.dtd">
<svg xmlns:xlink="http://www.w3.org/1999/xlink" width="99.212598pt" height="51.023622pt" viewBox="0 0 99.212598 51.023622" xmlns="http://www.w3.org/2000/svg" version="1.1">
 <metadata>
  <rdf:RDF xmlns:dc="http://purl.org/dc/elements/1.1/" xmlns:cc="http://creativecommons.org/ns#" xmlns:rdf="http://www.w3.org/1999/02/22-rdf-syntax-ns#">
   <cc:Work>
    <dc:type rdf:resource="http://purl.org/dc/dcmitype/StillImage"/>
    <dc:date>2024-10-30T10:51:18.000873</dc:date>
    <dc:format>image/svg+xml</dc:format>
    <dc:creator>
     <cc:Agent>
      <dc:title>Matplotlib v3.8.4, https://matplotlib.org/</dc:title>
     </cc:Agent>
    </dc:creator>
   </cc:Work>
  </rdf:RDF>
 </metadata>
 <defs>
  <style type="text/css">*{stroke-linejoin: round; stroke-linecap: butt}</style>
 </defs>
 <g id="figure_1">
  <g id="patch_1">
   <path d="M 0 51.023622 
L 99.212598 51.023622 
L 99.212598 0 
L 0 0 
L 0 51.023622 
z
" style="fill: none"/>
  </g>
  <g id="axes_1">
   <g id="patch_2">
    <path d="M 0 51.023622 
L 99.212598 51.023622 
L 99.212598 -0 
L 0 -0 
L 0 51.023622 
z
" style="fill: none"/>
   </g>
   <g id="matplotlib.axis_1">
    <g id="xtick_1"/>
    <g id="xtick_2"/>
   </g>
   <g id="matplotlib.axis_2">
    <g id="ytick_1"/>
    <g id="ytick_2"/>
   </g>
   <g id="line2d_1">
    <path d="M 4.509664 23.172433 
L 4.680726 41.550898 
L 4.550096 22.244077 
L 4.714938 38.524803 
L 4.817575 26.629573 
L 4.851788 23.325764 
L 4.892221 32.483173 
L 4.917102 40.575652 
L 4.966866 19.921725 
L 5.032181 2.319256 
L 5.081944 17.095697 
L 5.134818 47.592496 
L 5.221904 34.017852 
L 5.259227 38.223061 
L 5.30588 31.412065 
L 5.343203 26.232224 
L 5.402297 33.021526 
L 5.576469 48.286719 
L 5.58891 47.952453 
L 5.613792 46.607279 
L 5.672886 47.12212 
L 5.741311 45.1428 
L 5.772413 44.189869 
L 5.800405 45.96912 
L 5.819066 47.489191 
L 5.86883 42.9244 
L 5.899932 42.055985 
L 5.931034 43.607101 
L 5.952806 46.228301 
L 6.005679 38.459849 
L 6.136309 28.405841 
L 6.167411 33.314026 
L 6.251387 48.199086 
L 6.29804 37.504764 
L 6.382016 46.390536 
L 6.419339 38.442185 
L 6.425559 38.144763 
L 6.462882 43.631437 
L 6.596621 48.440497 
L 6.72414 44.963183 
L 6.624613 48.629853 
L 6.752132 46.678897 
L 6.85788 47.639275 
L 6.792565 46.219566 
L 6.86721 47.074256 
L 6.898313 44.846902 
L 6.954297 48.500879 
L 6.966737 48.080278 
L 7.035162 46.727601 
L 7.069375 48.256154 
L 7.106697 48.541497 
L 7.128469 46.995695 
L 7.14713 46.246865 
L 7.184453 48.038647 
L 7.231106 47.802901 
L 7.305751 47.373106 
L 7.268429 48.25207 
L 7.324413 48.096776 
L 7.330633 48.543511 
L 7.377286 43.510156 
L 7.386617 43.08513 
L 7.439491 47.032372 
L 7.442601 47.115765 
L 7.489254 45.422254 
L 7.551459 43.844338 
L 7.604333 45.287309 
L 7.632324 48.289091 
L 7.700749 43.98618 
L 7.71319 43.392573 
L 7.772284 46.315897 
L 7.803387 47.927041 
L 7.84693 44.129082 
L 7.85004 44.147803 
L 7.85315 44.102682 
L 7.893583 45.036378 
L 7.899803 45.028812 
L 7.955787 46.48653 
L 7.983779 44.168449 
L 7.99622 43.650564 
L 8.033543 47.905505 
L 8.058425 46.206857 
L 8.073976 47.671518 
L 8.111298 44.324265 
L 8.161062 45.931447 
L 8.232597 44.749543 
L 8.260589 46.455447 
L 8.347675 48.543583 
L 8.375667 47.165908 
L 8.378777 47.103715 
L 8.40988 48.33223 
L 8.453423 47.753823 
L 8.462753 48.076283 
L 8.521847 46.894134 
L 8.549839 47.511384 
L 8.587162 46.040181 
L 8.621374 48.130536 
L 8.655587 47.53291 
L 8.671138 48.559204 
L 8.776885 48.166927 
L 8.783106 48.254374 
L 8.804877 47.361877 
L 8.857751 46.767602 
L 8.901294 47.652858 
L 8.907515 47.581541 
L 8.929286 48.45692 
L 9.028813 48.153373 
L 9.137671 46.330423 
L 9.159443 47.18577 
L 9.174994 48.588566 
L 9.246529 45.144305 
L 9.2683 44.469808 
L 9.314954 46.930797 
L 9.346056 46.024158 
L 9.439362 48.184608 
L 9.479795 47.161947 
L 9.504677 46.463206 
L 9.55444 48.50634 
L 9.588653 47.007161 
L 9.709951 48.33725 
L 9.632196 45.680525 
L 9.716172 48.073928 
L 9.759715 46.32878 
L 9.787707 48.502323 
L 9.82814 47.67921 
L 9.887234 48.112602 
L 9.859242 46.558153 
L 9.930777 47.670042 
L 9.955659 46.41484 
L 10.027194 48.245706 
L 10.042745 47.513467 
L 10.048965 47.463216 
L 10.101839 48.252118 
L 10.10806 48.48445 
L 10.136052 47.288271 
L 10.213807 48.420505 
L 10.25113 46.303466 
L 10.331996 47.961786 
L 10.350657 48.410906 
L 10.40042 46.316499 
L 10.437743 47.808874 
L 10.549711 46.937597 
L 10.481286 48.146626 
L 10.559042 47.047337 
L 10.627466 47.657632 
L 10.652348 46.716131 
L 10.655458 46.810667 
L 10.658569 46.688417 
L 10.723883 48.330053 
L 10.742545 47.598483 
L 10.838961 48.488812 
L 10.779867 47.339411 
L 10.851402 47.737522 
L 10.860733 47.317044 
L 10.898056 48.43162 
L 10.950929 48.189197 
L 10.991362 48.619365 
L 11.019354 46.553825 
L 11.025575 46.743576 
L 11.028685 46.618868 
L 11.084669 48.08669 
L 11.10333 47.969983 
L 11.121991 48.414377 
L 11.156204 47.889391 
L 11.209078 47.898265 
L 11.212188 47.900824 
L 11.215298 47.842403 
L 11.314825 47.315338 
L 11.289943 48.207735 
L 11.327266 47.74895 
L 11.38014 48.546481 
L 11.411242 46.156791 
L 11.439234 45.274393 
L 11.495218 47.638615 
L 11.604076 48.48058 
L 11.625847 48.37979 
L 11.691162 46.544935 
L 11.747146 47.78519 
L 11.871554 46.891678 
L 11.834232 48.260259 
L 11.880885 47.111264 
L 11.902657 48.61678 
L 12.017735 48.340418 
L 12.08616 47.181228 
L 12.055057 48.595663 
L 12.142144 48.148969 
L 12.148364 48.139996 
L 12.260332 47.379689 
L 12.23545 48.559892 
L 12.266552 47.547117 
L 12.362969 48.662633 
L 12.303875 46.903116 
L 12.387851 48.367044 
L 12.474937 47.259326 
L 12.450055 48.662278 
L 12.51537 48.058465 
L 12.555803 48.601923 
L 12.527811 47.922311 
L 12.621117 48.039238 
L 12.66155 46.518269 
L 12.742416 47.361428 
L 12.770408 48.56384 
L 12.80462 46.646472 
L 12.848164 47.280871 
L 12.854384 47.143421 
L 12.919699 48.450316 
L 12.950801 47.643868 
L 12.994344 47.425877 
L 13.025446 48.527411 
L 13.034777 48.42899 
L 13.044107 48.622126 
L 13.109422 47.494217 
L 13.134304 48.242481 
L 13.149855 47.447604 
L 13.233831 48.664239 
L 13.240051 48.474957 
L 13.246272 48.612953 
L 13.314697 47.743754 
L 13.37068 46.965839 
L 13.345799 47.937904 
L 13.411113 47.932177 
L 13.491979 48.609858 
L 13.439105 47.730919 
L 13.519971 47.878833 
L 13.585286 47.662788 
L 13.538632 48.318779 
L 13.622608 48.170651 
L 13.728356 48.605817 
L 13.681702 47.926928 
L 13.737686 48.45436 
L 13.877646 46.905287 
L 13.883867 47.009077 
L 13.983394 48.598584 
L 14.011386 47.74955 
L 14.039378 47.042823 
L 14.06426 48.028544 
L 14.117133 47.97594 
L 14.219771 48.408866 
L 14.142015 47.50383 
L 14.229101 48.173702 
L 14.253983 47.106741 
L 14.291306 48.601444 
L 14.35351 47.630277 
L 14.378392 48.606477 
L 14.512131 48.058813 
L 14.527682 47.191312 
L 14.583666 48.568669 
L 14.617879 48.305197 
L 14.645871 47.832851 
L 14.714296 48.393539 
L 14.723626 48.597227 
L 14.77028 47.760121 
L 14.792051 48.022852 
L 14.907129 46.896918 
L 14.826263 48.03033 
L 14.91957 47.110303 
L 15.003546 48.298633 
L 14.944452 47.097975 
L 15.034648 47.509351 
L 15.093742 47.411388 
L 15.05953 47.892783 
L 15.106183 47.826591 
L 15.159057 48.375921 
L 15.19949 47.284932 
L 15.208821 47.528739 
L 15.249253 47.231012 
L 15.305237 47.87886 
L 15.376772 48.492589 
L 15.355001 47.855564 
L 15.417205 48.085212 
L 15.547835 47.226226 
L 15.504291 48.198344 
L 15.550945 47.251376 
L 15.659802 48.592474 
L 15.694015 48.234767 
L 15.809093 47.814842 
L 15.740668 48.449182 
L 15.821534 47.974854 
L 15.883738 48.383534 
L 15.91173 47.773348 
L 15.936612 48.291083 
L 16.023698 47.890576 
L 16.005037 48.668968 
L 16.039249 48.274926 
L 16.05169 48.61161 
L 16.113895 47.749538 
L 16.151217 48.34945 
L 16.179209 48.693629 
L 16.247634 47.957642 
L 16.340941 47.882804 
L 16.297398 48.659399 
L 16.350271 47.997523 
L 16.381374 48.654323 
L 16.446688 47.605656 
L 16.459129 47.375288 
L 16.552436 47.886644 
L 16.564876 48.123755 
L 16.583538 47.152342 
L 16.667514 46.33955 
L 16.639522 47.473603 
L 16.692396 47.098019 
L 16.76082 48.676627 
L 16.819915 48.159746 
L 16.931882 47.666589 
L 16.907001 48.631163 
L 16.941213 47.822784 
L 16.953654 48.248645 
L 16.969205 48.681233 
L 17.04074 47.799823 
L 17.065622 48.618103 
L 17.18381 47.830497 
L 17.18692 47.929387 
L 17.190031 47.883895 
L 17.202472 48.593389 
L 17.280227 48.147086 
L 17.392195 48.617453 
L 17.31444 48.012112 
L 17.401526 48.23574 
L 17.441959 47.603585 
L 17.423297 48.611188 
L 17.519714 47.706234 
L 17.529045 47.645662 
L 17.535265 47.782785 
L 17.628572 48.634368 
L 17.557037 47.614092 
L 17.653454 48.23399 
L 17.712548 48.691721 
L 17.659674 48.179269 
L 17.768532 48.405748 
L 17.8805 47.473203 
L 17.88672 47.604704 
L 17.942704 48.504652 
L 17.983137 47.458522 
L 17.995578 47.634468 
L 18.085774 48.672226 
L 18.104435 47.771101 
L 18.154199 47.371682 
L 18.132427 48.571122 
L 18.210183 47.973374 
L 18.263057 47.619963 
L 18.291049 48.34479 
L 18.297269 48.50329 
L 18.347033 47.65152 
L 18.384355 48.176983 
L 18.424788 47.829201 
L 18.462111 48.556845 
L 18.477662 48.485187 
L 18.490103 47.852744 
L 18.511874 48.603776 
L 18.614512 48.134929 
L 18.676716 48.665891 
L 18.748251 48.445015 
L 18.853998 48.061612 
L 18.826006 48.66727 
L 18.863329 48.24274 
L 18.87266 48.581875 
L 18.916203 48.089948 
L 18.978407 48.442241 
L 19.062383 47.741423 
L 19.037501 48.560925 
L 19.093485 48.263633 
L 19.208564 47.517651 
L 19.168131 48.490496 
L 19.233445 47.98864 
L 19.239666 48.229856 
L 19.255217 47.789919 
L 19.339193 47.945734 
L 19.416948 48.549543 
L 19.463602 47.340012 
L 19.497814 48.676287 
L 19.603561 48.03125 
L 19.606672 48.022952 
L 19.628443 48.278394 
L 19.681317 48.679698 
L 19.72486 47.961809 
L 19.72797 47.991417 
L 19.731081 47.880078 
L 19.808836 48.647488 
L 19.830608 48.279069 
L 19.87104 47.567855 
L 19.846159 48.646697 
L 19.930135 48.334609 
L 19.939465 48.642358 
L 19.964347 47.90602 
L 20.026551 48.013927 
L 20.110527 47.897664 
L 20.048323 48.421372 
L 20.122968 48.329254 
L 20.14163 48.652752 
L 20.194503 47.910308 
L 20.225605 48.127578 
L 20.231826 48.041443 
L 20.272259 48.641437 
L 20.318912 48.416207 
L 20.322022 48.421466 
L 20.328243 48.291376 
L 20.340684 47.836789 
L 20.362455 48.580641 
L 20.4371 48.209728 
L 20.499305 48.643204 
L 20.530407 47.959844 
L 20.552179 48.338088 
L 20.667257 47.49097 
L 20.601942 48.619782 
L 20.670367 47.66064 
L 20.791666 48.631122 
L 20.794776 48.572379 
L 20.875641 47.690893 
L 20.922295 48.056711 
L 20.978279 48.555547 
L 21.006271 47.16528 
L 21.009381 47.147183 
L 21.018712 47.446086 
L 21.124459 48.688156 
L 21.14001 48.56662 
L 21.155561 48.62924 
L 21.164892 48.567217 
L 21.195994 47.479257 
L 21.28308 47.878019 
L 21.286191 47.779547 
L 21.354615 48.482928 
L 21.379497 48.138267 
L 21.42304 48.561919 
L 21.460363 48.102159 
L 21.491465 48.375505 
L 21.531898 48.602478 
L 21.547449 48.134096 
L 21.594102 48.243238 
L 21.678078 48.142414 
L 21.643866 48.617984 
L 21.69985 48.291312 
L 21.786936 48.595415 
L 21.755834 48.000325 
L 21.811818 48.315833 
L 21.933116 48.67914 
L 21.84603 48.067748 
L 21.936227 48.51316 
L 22.045084 48.012343 
L 21.976659 48.61995 
L 22.054415 48.274156 
L 22.110399 48.673924 
L 22.160162 48.189579 
L 22.172603 47.596175 
L 22.200595 48.616751 
L 22.278351 47.961979 
L 22.312563 48.698891 
L 22.396539 48.143684 
L 22.514727 47.54381 
L 22.517838 47.613109 
L 22.542719 48.668528 
L 22.642246 48.35349 
L 22.645357 48.435165 
L 22.704451 47.50239 
L 22.738663 48.190469 
L 22.744884 47.877181 
L 22.83508 48.632924 
L 22.841301 48.52015 
L 22.940828 47.770038 
L 22.96882 48.342909 
L 22.990591 47.788871 
L 23.080787 48.425056 
L 23.124331 48.305039 
L 23.102559 48.580056 
L 23.167874 48.565501 
L 23.177204 48.680057 
L 23.245629 48.097177 
L 23.248739 47.993645 
L 23.292282 48.481119 
L 23.348266 48.260646 
L 23.354487 48.615247 
L 23.373148 47.93099 
L 23.460234 48.444233 
L 23.53799 47.913893 
L 23.516218 48.626865 
L 23.572202 48.22761 
L 23.590864 48.650881 
L 23.631296 48.169519 
L 23.68417 48.286915 
L 23.777477 48.610943 
L 23.727713 47.977392 
L 23.793028 48.352606 
L 23.892555 48.087083 
L 23.833461 48.670419 
L 23.901886 48.360541 
L 23.979641 48.653437 
L 23.954759 48.176667 
L 23.995192 48.243975 
L 24.023184 47.748387 
L 24.076058 48.62067 
L 24.10716 47.864837 
L 24.228459 48.564272 
L 24.281332 47.697362 
L 24.309324 48.68933 
L 24.346647 48.401052 
L 24.355978 48.533359 
L 24.418182 48.018923 
L 24.446174 48.260513 
L 24.449284 48.003819 
L 24.548811 48.61486 
L 24.551922 48.513993 
L 24.576803 48.552805 
L 24.586134 48.14058 
L 24.598575 47.76173 
L 24.66389 48.641454 
L 24.694992 48.093013 
L 24.797629 48.663829 
L 24.735425 47.733277 
L 24.81629 48.278852 
L 24.859833 48.068255 
L 24.841172 48.624513 
L 24.928258 48.116221 
L 24.937589 48.628448 
L 25.002903 48.06215 
L 25.040226 48.323937 
L 25.049557 48.650167 
L 25.133533 48.185151 
L 25.152194 48.355318 
L 25.220619 48.135229 
L 25.208178 48.667405 
L 25.261052 48.36916 
L 25.270382 48.271544 
L 25.295264 48.653644 
L 25.307705 48.525668 
L 25.401012 48.689609 
L 25.341917 48.279577 
L 25.416563 48.421708 
L 25.475657 47.909555 
L 25.444555 48.655951 
L 25.528531 48.327543 
L 25.578294 48.664828 
L 25.628058 48.049242 
L 25.631168 48.032935 
L 25.668491 48.407379 
L 25.708923 48.184012 
L 25.730695 48.500859 
L 25.792899 47.79618 
L 25.820891 48.271907 
L 25.845773 48.687131 
L 25.895537 47.990674 
L 25.898647 47.810492 
L 25.929749 48.615463 
L 25.998174 48.438678 
L 26.107032 48.678478 
L 26.019945 48.288092 
L 26.113252 48.615365 
L 26.116362 48.614868 
L 26.209669 48.051752 
L 26.22833 48.386753 
L 26.284314 48.667494 
L 26.334078 48.231974 
L 26.355849 48.641967 
L 26.427384 48.149215 
L 26.467817 48.560478 
L 26.520691 48.147908 
L 26.477148 48.58435 
L 26.582895 48.420851 
L 26.613997 48.649966 
L 26.676202 48.210652 
L 26.694863 48.53631 
L 26.757068 48.215117 
L 26.769508 48.570133 
L 26.813052 48.292742 
L 26.890807 48.661443 
L 26.841044 48.125656 
L 26.92813 48.468842 
L 26.993444 48.111739 
L 26.949901 48.623633 
L 27.040098 48.429588 
L 27.142735 47.884542 
L 27.058759 48.602296 
L 27.155176 48.289319 
L 27.201829 48.651588 
L 27.21738 47.890014 
L 27.264033 48.260414 
L 27.295136 48.028855 
L 27.341789 48.606042 
L 27.376001 48.149568 
L 27.410214 48.628072 
L 27.49419 48.415219 
L 27.553284 48.058395 
L 27.525292 48.589946 
L 27.559504 48.098419 
L 27.662142 47.906736 
L 27.63415 48.60152 
L 27.668362 48.109331 
L 27.743007 48.569753 
L 27.78344 48.260338 
L 27.861196 47.735783 
L 27.808322 48.619691 
L 27.873637 48.497392 
L 27.876747 48.66148 
L 27.973164 48.011908 
L 27.979384 47.813842 
L 28.022927 48.518062 
L 28.078911 48.12726 
L 28.106903 48.650746 
L 28.165997 48.031924 
L 28.197099 48.314791 
L 28.243753 48.597831 
L 28.218871 48.151165 
L 28.284186 48.332631 
L 28.361941 48.586867 
L 28.396154 48.007956 
L 28.449027 48.598419 
L 28.514342 48.454124 
L 28.533003 48.338502 
L 28.613869 48.623309 
L 28.620089 48.60255 
L 28.750719 47.923333 
L 28.710286 48.675493 
L 28.753829 48.06715 
L 28.859576 48.666737 
L 28.872017 48.363157 
L 28.962214 48.119522 
L 28.931111 48.642333 
L 28.980875 48.348696 
L 29.021308 48.669156 
L 28.996426 48.174025 
L 29.080402 48.364053 
L 29.105284 47.787022 
L 29.151937 48.655251 
L 29.19237 48.275468 
L 29.245244 48.400647 
L 29.270125 48.002527 
L 29.276346 47.900851 
L 29.347881 48.472484 
L 29.350991 48.595839 
L 29.444298 48.151992 
L 29.450518 48.218504 
L 29.453628 48.216814 
L 29.490951 48.018379 
L 29.571817 48.650926 
L 29.683785 47.993961 
L 29.693115 48.161984 
L 29.792642 48.692267 
L 29.749099 47.941339 
L 29.814414 48.381198 
L 29.864177 47.93766 
L 29.826855 48.525074 
L 29.926382 48.245627 
L 30.029019 48.646291 
L 29.938823 48.037359 
L 30.04457 48.389443 
L 30.112995 48.092742 
L 30.122326 48.513496 
L 30.140987 48.399207 
L 30.159648 48.635814 
L 30.17831 48.26938 
L 30.252955 48.458675 
L 30.361813 48.121327 
L 30.293388 48.682242 
L 30.371143 48.303505 
L 30.473781 48.549071 
L 30.427127 48.0418 
L 30.483111 48.337936 
L 30.591969 48.164939 
L 30.514213 48.634123 
L 30.595079 48.218126 
L 30.629292 48.664625 
L 30.663504 47.937746 
L 30.710157 48.425055 
L 30.716378 48.657999 
L 30.781692 47.89519 
L 30.803464 48.109172 
L 30.812795 47.974665 
L 30.859448 48.62224 
L 30.902991 48.240529 
L 30.949644 48.626795 
L 30.990077 47.970298 
L 30.993187 48.000083 
L 30.996298 47.852472 
L 31.080273 48.409196 
L 31.095825 48.397107 
L 31.105155 48.659786 
L 31.164249 47.847597 
L 31.201572 48.305246 
L 31.248225 47.963715 
L 31.260666 48.655922 
L 31.31043 48.246995 
L 31.409957 48.633178 
L 31.360193 48.133617 
L 31.416177 48.385054 
L 31.500153 48.675274 
L 31.531255 48.019966 
L 31.540586 47.773758 
L 31.577909 48.610917 
L 31.618342 48.15024 
L 31.708538 48.642228 
L 31.73653 48.42694 
L 31.848498 48.641471 
L 31.773853 48.198654 
L 31.857828 48.540188 
L 31.960466 48.323525 
L 31.892041 48.676063 
L 31.969796 48.440668 
L 31.972907 48.594635 
L 31.988458 48.117809 
L 32.081764 48.568332 
L 32.112867 48.47517 
L 32.128418 48.590958 
L 32.190622 48.197342 
L 32.221724 48.673198 
L 32.243496 48.356494 
L 32.246606 48.342157 
L 32.259047 48.644922 
L 32.315031 48.379992 
L 32.330582 48.680482 
L 32.367905 48.100768 
L 32.426999 48.516868 
L 32.479872 48.112329 
L 32.454991 48.639836 
L 32.545187 48.296417 
L 32.635383 48.656279 
L 32.566959 48.073243 
L 32.654045 48.298895 
L 32.738021 48.162698 
L 32.716249 48.60468 
L 32.753572 48.347139 
L 32.775343 48.6329 
L 32.818886 48.117213 
L 32.86865 48.451919 
L 32.887311 48.16623 
L 32.968177 48.693879 
L 32.977508 48.465213 
L 33.01172 48.607877 
L 33.027271 48.320396 
L 33.095696 48.107759 
L 33.077035 48.610252 
L 33.129908 48.446797 
L 33.238766 48.66375 
L 33.161011 47.996992 
L 33.244987 48.645704 
L 33.341403 47.917296 
L 33.372506 48.222817 
L 33.394277 48.559966 
L 33.444041 48.168178 
L 33.484474 48.286314 
L 33.543568 47.89986 
L 33.562229 48.574978 
L 33.565339 48.506916 
L 33.618213 48.665081 
L 33.658646 48.385004 
L 33.677307 48.599167 
L 33.695969 48.165951 
L 33.776834 48.669578 
L 33.789275 48.455171 
L 33.842149 48.650623 
L 33.835928 48.400095 
L 33.8577 48.40465 
L 33.86392 48.178772 
L 33.923015 48.689921 
L 33.963447 48.464923 
L 33.972778 48.698261 
L 34.053644 48.340259 
L 34.078526 48.636506 
L 34.174942 48.167941 
L 34.106518 48.654616 
L 34.193604 48.388811 
L 34.2838 48.00091 
L 34.237147 48.588357 
L 34.311792 48.285692 
L 34.324233 48.660231 
L 34.408209 48.197152 
L 34.42065 48.258851 
L 34.498405 48.691548 
L 34.548169 48.487757 
L 34.579271 48.302992 
L 34.644586 48.648385 
L 34.647696 48.654743 
L 34.660137 48.513441 
L 34.719231 47.982872 
L 34.675688 48.661339 
L 34.765884 48.541981 
L 34.772105 48.647098 
L 34.84364 47.992234 
L 34.871632 48.557908 
L 34.924505 47.908848 
L 34.958718 48.662046 
L 34.98671 48.270448 
L 34.98982 48.261012 
L 34.99293 48.506869 
L 35.095568 48.672425 
L 35.061355 47.972036 
L 35.101788 48.554791 
L 35.207535 48.241098 
L 35.176433 48.604617 
L 35.213756 48.408707 
L 35.260409 48.611033 
L 35.27596 48.07429 
L 35.297732 48.235324 
L 35.303952 48.002914 
L 35.353716 48.661776 
L 35.400369 48.465867 
L 35.456353 48.654978 
L 35.425251 48.04739 
L 35.515447 48.626162 
L 35.518557 48.654047 
L 35.571431 48.164942 
L 35.611864 48.59588 
L 35.70206 48.152627 
L 35.618085 48.611728 
L 35.726942 48.275778 
L 35.754934 48.551823 
L 35.739383 48.110093 
L 35.83891 48.469061 
L 35.848241 48.277553 
L 35.863792 48.61115 
L 35.932217 48.543686 
L 35.947768 48.67537 
L 36.006862 48.319716 
L 36.034854 48.462578 
L 36.134381 48.33109 
L 36.053515 48.616748 
L 36.143712 48.5041 
L 36.246349 48.63478 
L 36.218357 48.149939 
L 36.252569 48.554747 
L 36.302333 48.16975 
L 36.274341 48.638624 
L 36.364537 48.332458 
L 36.420521 48.659691 
L 36.476505 48.532609 
L 36.54182 48.064307 
L 36.579143 48.668028 
L 36.582253 48.683269 
L 36.607135 48.400254 
L 36.644457 48.509845 
L 36.728433 48.145559 
L 36.68489 48.601706 
L 36.756425 48.387673 
L 36.82796 48.660452 
L 36.806189 48.148316 
L 36.865283 48.362217 
L 36.952369 48.126359 
L 36.890165 48.592577 
L 36.97103 48.313072 
L 37.011463 48.680244 
L 37.051896 48.041987 
L 37.082998 48.404262 
L 37.092329 48.011481 
L 37.176305 48.606439 
L 37.194966 48.285847 
L 37.269611 48.650907 
L 37.297603 48.020997 
L 37.303824 48.171887 
L 37.319375 48.007562 
L 37.341146 48.50285 
L 37.362918 48.699577 
L 37.434453 48.280858 
L 37.456225 48.60933 
L 37.555752 48.675179 
L 37.487327 48.064031 
L 37.565082 48.669013 
L 37.577523 48.299035 
L 37.67705 48.532961 
L 37.683271 48.699325 
L 37.739255 48.106736 
L 37.785908 48.480357 
L 37.857443 48.690281 
L 37.838782 48.297552 
L 37.897876 48.602278 
L 37.932088 48.271185 
L 37.95386 48.666617 
L 38.009844 48.534872 
L 38.072048 48.694719 
L 38.044056 48.407 
L 38.10315 48.622327 
L 38.177796 48.004295 
L 38.212008 48.52502 
L 38.305315 48.668134 
L 38.261772 48.150777 
L 38.317756 48.326918 
L 38.320866 48.263749 
L 38.389291 48.671826 
L 38.414172 48.545121 
L 38.420393 48.667606 
L 38.445275 48.097652 
L 38.513699 48.21486 
L 38.572794 48.60324 
L 38.628778 48.327597 
L 38.631888 48.235853 
L 38.706533 48.639724 
L 38.740745 48.285946 
L 38.812281 48.655131 
L 38.849603 48.238736 
L 38.924248 48.639732 
L 38.967792 48.611551 
L 39.039327 48.162834 
L 38.998894 48.645001 
L 39.079759 48.497137 
L 39.104641 48.696906 
L 39.120192 48.208547 
L 39.151295 48.13774 
L 39.132633 48.588143 
L 39.182397 48.393078 
L 39.272593 48.585213 
L 39.213499 48.210005 
L 39.281924 48.310075 
L 39.288144 48.061402 
L 39.36901 48.664331 
L 39.390781 48.389588 
L 39.400112 48.29523 
L 39.421884 48.600451 
L 39.51208 48.696514 
L 39.496529 48.37512 
L 39.530741 48.557141 
L 39.540072 48.661614 
L 39.580505 48.286545 
L 39.620938 48.384173 
L 39.717355 48.14008 
L 39.676922 48.603983 
L 39.729795 48.327805 
L 39.844874 48.688473 
L 39.736016 48.327222 
L 39.863535 48.644722 
L 39.869755 48.400372 
L 39.922629 48.68215 
L 39.975503 48.505708 
L 39.978613 48.635751 
L 40.043928 48.200967 
L 40.084361 48.541264 
L 40.134124 48.250162 
L 40.165226 48.615435 
L 40.186998 48.529585 
L 40.2181 48.682207 
L 40.246092 48.213422 
L 40.292745 48.47539 
L 40.367391 48.200421 
L 40.317627 48.668275 
L 40.404713 48.343303 
L 40.463807 48.057515 
L 40.420264 48.676863 
L 40.491799 48.546978 
L 40.597547 48.69689 
L 40.544673 48.036416 
L 40.603767 48.582751 
L 40.606877 48.591282 
L 40.622429 48.324128 
L 40.625539 48.351472 
L 40.6442 48.057034 
L 40.703294 48.546121 
L 40.737507 48.268509 
L 40.753058 48.685736 
L 40.852585 48.361861 
L 40.855695 48.30112 
L 40.874356 48.695369 
L 40.952112 48.518921 
L 41.001875 48.684533 
L 40.970773 48.193879 
L 41.020537 48.304357 
L 41.092072 48.08701 
L 41.051639 48.605139 
L 41.120064 48.5662 
L 41.148056 48.655655 
L 41.135615 48.382195 
L 41.169827 48.565546 
L 41.20093 48.231151 
L 41.232032 48.663382 
L 41.281795 48.433444 
L 41.378212 48.592418 
L 41.365771 48.082405 
L 41.387543 48.289889 
L 41.502621 48.609146 
L 41.418645 48.056647 
L 41.518172 48.439433 
L 41.549274 48.074913 
L 41.567935 48.617712 
L 41.63014 48.395061 
L 41.698565 48.658848 
L 41.655022 48.234891 
L 41.754549 48.549194 
L 41.76699 48.297571 
L 41.794982 48.63783 
L 41.863406 48.595479 
L 41.966044 48.699938 
L 41.882068 48.394572 
L 41.975374 48.608638 
L 42.065571 48.398726 
L 42.018917 48.66623 
L 42.081122 48.658111 
L 42.084232 48.699109 
L 42.161988 48.28775 
L 42.217971 48.11682 
L 42.20242 48.461485 
L 42.230412 48.341232 
L 42.277066 48.689093 
L 42.252184 48.289148 
L 42.345491 48.466511 
L 42.451238 48.274765 
L 42.398364 48.653057 
L 42.460569 48.302545 
L 42.497891 48.545688 
L 42.547655 47.981512 
L 42.566316 48.351757 
L 42.569426 48.208589 
L 42.603639 48.64607 
L 42.675174 48.340335 
L 42.790252 48.672806 
L 42.752929 48.043831 
L 42.793362 48.669216 
L 42.877338 48.220259 
L 42.90222 48.59335 
L 42.90533 48.68411 
L 43.004857 48.45621 
L 43.014188 48.634333 
L 43.017298 48.644769 
L 43.0484 48.363243 
L 43.101274 48.229662 
L 43.119935 48.685661 
L 43.147927 48.460159 
L 43.225683 48.643552 
L 43.179029 48.324417 
L 43.253675 48.356266 
L 43.340761 48.046332 
L 43.315879 48.603347 
L 43.359422 48.344518 
L 43.434068 48.684885 
L 43.477611 48.6481 
L 43.542925 48.266619 
L 43.577138 48.672808 
L 43.592689 48.42143 
L 43.645562 48.151514 
L 43.602019 48.648423 
L 43.701546 48.427485 
L 43.760641 48.252641 
L 43.763751 48.474262 
L 43.766861 48.457188 
L 43.844617 48.666821 
L 43.816625 48.371417 
L 43.878829 48.590004 
L 43.962805 48.382698 
L 43.984576 48.645834 
L 44.102765 48.383662 
L 44.115206 48.634477 
L 44.136977 48.363478 
L 44.227174 48.687096 
L 44.258276 48.257827 
L 44.345362 48.55574 
L 44.351582 48.604625 
L 44.367134 48.397727 
L 44.373354 48.44692 
L 44.404456 48.191634 
L 44.451109 48.682175 
L 44.485322 48.356809 
L 44.513314 48.605425 
L 44.550637 48.092865 
L 44.6004 48.494999 
L 44.662604 48.082726 
L 44.684376 48.671927 
L 44.709258 48.562779 
L 44.796344 48.1323 
L 44.715478 48.681051 
L 44.842997 48.352903 
L 44.858548 48.654216 
L 44.908312 48.035071 
L 44.954965 48.455125 
L 44.989178 48.193654 
L 45.02339 48.647368 
L 45.063823 48.507176 
L 45.070043 48.683679 
L 45.126027 48.196814 
L 45.172681 48.532114 
L 45.219334 48.18722 
L 45.188232 48.671251 
L 45.284648 48.502379 
L 45.290869 48.599181 
L 45.384175 48.259208 
L 45.387286 48.196989 
L 45.461931 48.595271 
L 45.486813 48.41964 
L 45.496143 48.432508 
L 45.502364 48.389179 
L 45.508584 48.174054 
L 45.539686 48.684604 
L 45.611222 48.370428 
L 45.642324 48.648575 
L 45.629883 48.001772 
L 45.748071 48.507991 
L 45.825827 48.429889 
L 45.794725 48.677347 
L 45.853819 48.557033 
L 45.940905 48.426844 
L 45.965787 48.683009 
L 45.996889 48.31986 
L 46.080865 48.451372 
L 46.14929 48.702926 
L 46.124408 48.377612 
L 46.195943 48.634763 
L 46.273698 48.644879 
L 46.211494 48.143028 
L 46.276809 48.504624 
L 46.335903 48.200811 
L 46.367005 48.616659 
L 46.385666 48.565166 
L 46.43854 48.646065 
L 46.454091 48.332613 
L 46.485193 48.469903 
L 46.531847 48.32865 
L 46.550508 48.65108 
L 46.590941 48.502648 
L 46.600272 48.665629 
L 46.674917 48.219467 
L 46.696688 48.385909 
L 46.805546 48.104851 
L 46.762003 48.63045 
L 46.817987 48.245434 
L 46.911294 48.6546 
L 46.830428 48.243777 
L 46.926845 48.31495 
L 46.933065 48.027755 
L 46.979718 48.690591 
L 47.032592 48.236925 
L 47.088576 48.657117 
L 47.129009 48.111463 
L 47.14145 48.235139 
L 47.14767 48.073061 
L 47.240977 48.672131 
L 47.418259 48.125819 
L 47.440031 48.444748 
L 47.471133 48.65442 
L 47.449362 48.281899 
L 47.555109 48.596499 
L 47.589322 48.653275 
L 47.626644 48.245658 
L 47.657746 48.601552 
L 47.741722 48.149352 
L 47.71062 48.66725 
L 47.772824 48.392824 
L 47.782155 48.656333 
L 47.866131 48.149165 
L 47.884792 48.537724 
L 47.971879 48.688297 
L 47.999871 48.26123 
L 48.009201 48.217569 
L 48.015422 48.460863 
L 48.114949 48.692644 
L 48.040303 48.366987 
L 48.12739 48.566827 
L 48.13361 48.686553 
L 48.149161 48.391533 
L 48.233137 48.531006 
L 48.286011 48.688432 
L 48.251798 48.4532 
L 48.301562 48.509662 
L 48.326444 48.301845 
L 48.376207 48.685602 
L 48.407309 48.683453 
L 48.497506 48.379323 
L 48.525498 48.414118 
L 48.597033 48.64006 
L 48.55038 48.17584 
L 48.634355 48.42726 
L 48.727662 48.162749 
L 48.643686 48.607467 
L 48.749434 48.328951 
L 48.820969 48.660309 
L 48.789866 48.062134 
L 48.867622 48.623116 
L 48.873842 48.689597 
L 48.936047 48.081162 
L 48.97959 48.668056 
L 49.035574 48.373602 
L 49.094668 48.426361 
L 49.107109 48.118263 
L 49.194195 48.53478 
L 49.197305 48.468501 
L 49.228407 47.976907 
L 49.309273 48.589146 
L 49.390139 48.359667 
L 49.383918 48.665476 
L 49.421241 48.565869 
L 49.449233 48.009608 
L 49.526989 48.628615 
L 49.536319 48.458328 
L 49.586083 48.660815 
L 49.635846 48.322647 
L 49.638957 48.430709 
L 49.701161 48.073935 
L 49.741594 48.55989 
L 49.744704 48.52644 
L 49.750924 48.660302 
L 49.83179 48.135609 
L 49.847341 48.304917 
L 49.903325 47.919181 
L 49.918876 48.45393 
L 49.956199 48.372403 
L 50.068167 48.684459 
L 49.96864 48.26122 
L 50.089938 48.665562 
L 50.124151 48.237429 
L 50.155253 48.692296 
L 50.205017 48.494377 
L 50.292103 48.685329 
L 50.223678 48.302291 
L 50.313874 48.524098 
L 50.425842 48.363641 
L 50.320095 48.626359 
L 50.432063 48.491589 
L 50.525369 48.689513 
L 50.488047 48.416535 
L 50.544031 48.48323 
L 50.581353 48.286308 
L 50.600015 48.66659 
L 50.624896 48.649349 
L 50.640447 48.300033 
L 50.730644 48.580555 
L 50.733754 48.68097 
L 50.82395 48.323047 
L 50.839501 48.558262 
L 50.883045 48.6807 
L 50.951469 48.286893 
L 51.004343 48.692956 
L 51.047886 48.266703 
L 51.066548 48.619495 
L 51.128752 48.685961 
L 51.156744 48.456244 
L 51.172295 48.583249 
L 51.278042 48.270601 
L 51.181626 48.647791 
L 51.296704 48.31045 
L 51.402451 48.690473 
L 51.340247 48.179982 
L 51.408672 48.548411 
L 51.483317 48.172414 
L 51.445994 48.623887 
L 51.514419 48.546114 
L 51.517529 48.700793 
L 51.545521 48.134833 
L 51.623277 48.639816 
L 51.701032 48.20599 
L 51.66993 48.666254 
L 51.744575 48.406571 
L 51.825441 48.660043 
L 51.766347 48.041524 
L 51.853433 48.496557 
L 51.921858 48.284217 
L 51.878315 48.608569 
L 51.95607 48.503591 
L 51.959181 48.644506 
L 51.971622 48.427287 
L 52.068038 48.637024 
L 52.0867 48.373548 
L 52.102251 48.642175 
L 52.183117 48.535847 
L 52.251541 48.666746 
L 52.279533 48.300907 
L 52.285754 48.31646 
L 52.400832 48.680419 
L 52.335517 48.17107 
L 52.410163 48.564344 
L 52.478587 48.396853 
L 52.441265 48.671743 
L 52.522131 48.524643 
L 52.553233 48.502176 
L 52.534571 48.697496 
L 52.602996 48.646758 
L 52.637209 48.70033 
L 52.686972 48.343771 
L 52.696303 48.549615 
L 52.730515 48.319158 
L 52.774058 48.701131 
L 52.808271 48.488694 
L 52.907798 48.674793 
L 52.867365 48.327359 
L 52.914018 48.553309 
L 53.007325 48.358149 
L 52.976223 48.658984 
L 53.025986 48.388015 
L 53.066419 48.602214 
L 53.091301 48.16396 
L 53.141064 48.509502 
L 53.144175 48.512384 
L 53.159726 48.201223 
L 53.22815 48.688049 
L 53.253032 48.575824 
L 53.265473 48.690885 
L 53.277914 48.439136 
L 53.312126 48.163923 
L 53.346339 48.654485 
L 53.383661 48.595581 
L 53.408543 48.215123 
L 53.436535 48.615701 
L 53.495629 48.467301 
L 53.554724 48.672196 
L 53.579605 48.182652 
L 53.607597 48.549738 
L 53.65114 48.6945 
L 53.688463 48.029854 
L 53.704014 48.223339 
L 53.716455 48.158651 
L 53.750667 48.642522 
L 53.78488 48.615232 
L 53.78799 48.688596 
L 53.828423 48.007968 
L 53.887517 48.418943 
L 53.983934 48.23032 
L 53.971493 48.669327 
L 53.990154 48.445575 
L 54.005705 48.649362 
L 54.030587 48.297079 
L 54.102122 48.516611 
L 54.192319 48.231258 
L 54.127004 48.61107 
L 54.2172 48.406955 
L 54.251413 48.181275 
L 54.332279 48.642715 
L 54.372711 48.411 
L 54.341609 48.65027 
L 54.447357 48.516972 
L 54.553104 48.691793 
L 54.540663 48.452015 
L 54.562435 48.604295 
L 54.618419 48.33848 
L 54.63086 48.693913 
L 54.674403 48.478033 
L 54.78015 48.689159 
L 54.789481 48.57187 
L 54.836134 48.698647 
L 54.901449 48.33918 
L 54.904559 48.312266 
L 54.932551 48.674357 
L 54.988535 48.525595 
L 55.06318 48.662109 
L 55.041409 48.441127 
L 55.100503 48.612254 
L 55.119164 48.6436 
L 55.122274 48.529146 
L 55.181369 48.311568 
L 55.190699 48.690443 
L 55.231132 48.52685 
L 55.318218 48.680398 
L 55.293337 48.408424 
L 55.33688 48.495299 
L 55.3431 48.373535 
L 55.389753 48.686138 
L 55.442627 48.605561 
L 55.542154 48.366178 
L 55.498611 48.634641 
L 55.557705 48.457024 
L 55.647902 48.682105 
L 55.62302 48.326577 
L 55.669673 48.588107 
L 55.778531 48.293088 
L 55.713216 48.674504 
L 55.781641 48.50142 
L 55.797192 48.688343 
L 55.822074 48.129583 
L 55.893609 48.541269 
L 55.90916 48.318625 
L 55.949593 48.694113 
L 56.002467 48.567691 
L 56.027349 48.330852 
L 56.05534 48.674447 
L 56.105104 48.538389 
L 56.117545 48.685047 
L 56.142427 48.218893 
L 56.210851 48.462534 
L 56.266835 48.332073 
L 56.257505 48.680196 
L 56.319709 48.552221 
L 56.406795 48.699963 
L 56.366362 48.171287 
L 56.428567 48.617901 
L 56.444118 48.076112 
L 56.493882 48.657112 
L 56.540535 48.374415 
L 56.543645 48.368065 
L 56.546755 48.468174 
L 56.655613 48.613501 
L 56.60896 48.278653 
L 56.658723 48.508261 
L 56.708487 48.665983 
L 56.730258 48.391871 
L 56.773801 48.646356 
L 56.836006 48.344523 
L 56.873328 48.677051 
L 56.882659 48.610226 
L 56.888879 48.664914 
L 56.935533 48.442758 
L 56.985296 48.564469 
L 57.091044 48.351663 
L 57.04128 48.688965 
L 57.100374 48.370314 
L 57.215453 48.683444 
L 57.218563 48.57267 
L 57.237224 48.440278 
L 57.271437 48.667205 
L 57.330531 48.457377 
L 57.364743 48.686278 
L 57.414507 48.419192 
L 57.442499 48.635657 
L 57.535805 48.353637 
L 57.551356 48.503043 
L 57.59801 48.699203 
L 57.635332 48.369673 
L 57.657104 48.383165 
L 57.672655 48.543006 
L 57.675765 48.508207 
L 57.685096 48.657976 
L 57.772182 48.396314 
L 57.784623 48.442138 
L 57.874819 48.660899 
L 57.809505 48.280902 
L 57.88726 48.456137 
L 57.921473 48.151679 
L 57.949465 48.673609 
L 57.993008 48.525899 
L 57.996118 48.684944 
L 58.02411 48.334546 
L 58.101865 48.470312 
L 58.210723 48.283159 
L 58.120527 48.684103 
L 58.220054 48.319803 
L 58.285368 48.67554 
L 58.30714 48.145908 
L 58.319581 48.003904 
L 58.341352 48.549767 
L 58.366234 48.543808 
L 58.372454 48.425212 
L 58.471981 48.299816 
L 58.45332 48.650376 
L 58.475092 48.419899 
L 58.503084 48.6394 
L 58.531076 48.330155 
L 58.583949 48.330313 
L 58.671036 48.627365 
L 58.689697 48.426532 
L 58.695917 48.146337 
L 58.779893 48.574278 
L 58.798555 48.413652 
L 58.838987 48.662243 
L 58.916743 48.540596 
L 58.975837 48.455307 
L 58.944735 48.673935 
L 59.025601 48.571869 
L 59.031821 48.66249 
L 59.084695 48.361711 
L 59.118907 48.469566 
L 59.218434 48.27268 
L 59.184222 48.683171 
L 59.227765 48.467128 
L 59.286859 48.683365 
L 59.317961 48.403234 
L 59.336623 48.469449 
L 59.398827 48.661723 
L 59.433039 48.275062 
L 59.448591 48.525601 
L 59.529456 48.411267 
L 59.541897 48.683512 
L 59.554338 48.569852 
L 59.616542 48.680904 
L 59.572999 48.35431 
L 59.660086 48.52568 
L 59.688078 48.322371 
L 59.7254 48.691009 
L 59.772053 48.428936 
L 59.887132 48.688621 
L 59.843589 48.323684 
L 59.905793 48.581799 
L 59.924454 48.44038 
L 59.992879 48.65819 
L 60.00843 48.656376 
L 60.01154 48.685233 
L 60.064414 48.467082 
L 60.098627 48.550465 
L 60.120398 48.262401 
L 60.176382 48.672526 
L 60.207484 48.60842 
L 60.216815 48.672204 
L 60.313232 48.444363 
L 60.353665 48.318866 
L 60.366105 48.681252 
L 60.418979 48.500217 
L 60.422089 48.555639 
L 60.518506 48.343831 
L 60.524727 48.256446 
L 60.56827 48.687259 
L 60.621144 48.325246 
L 60.686458 48.6461 
L 60.70823 48.243441 
L 60.736222 48.572784 
L 60.742442 48.276428 
L 60.792206 48.668467 
L 60.84819 48.488789 
L 60.901063 48.680563 
L 60.941496 48.398485 
L 60.953937 48.451794 
L 61.062795 48.226036 
L 60.972598 48.67858 
L 61.065905 48.375434 
L 61.078346 48.682993 
L 61.124999 48.297193 
L 61.177873 48.545116 
L 61.255628 48.365495 
L 61.196534 48.665168 
L 61.286731 48.534117 
L 61.324053 48.656222 
L 61.386258 48.327355 
L 61.389368 48.324756 
L 61.479564 48.667553 
L 61.504446 48.618538 
L 61.510666 48.668721 
L 61.551099 48.444618 
L 61.594642 48.541763 
L 61.69728 48.267674 
L 61.666177 48.677483 
L 61.70661 48.530853 
L 61.712831 48.409712 
L 61.821688 48.68017 
L 61.84657 48.355013 
L 61.924326 48.684494 
L 61.933656 48.582422 
L 61.98342 48.685389 
L 61.949207 48.449245 
L 62.036294 48.555333 
L 62.135821 48.223241 
L 62.048735 48.68355 
L 62.148262 48.445211 
L 62.176254 48.689364 
L 62.254009 48.421747 
L 62.260229 48.468368 
L 62.27267 48.38892 
L 62.278891 48.609654 
L 62.306883 48.588384 
L 62.40952 48.669351 
L 62.381528 48.172357 
L 62.41263 48.589605 
L 62.487276 48.265569 
L 62.518378 48.620793 
L 62.524598 48.531143 
L 62.568141 48.357669 
L 62.636566 48.658597 
L 62.720542 48.313407 
L 62.748534 48.473304 
L 62.770306 48.238077 
L 62.863612 48.676571 
L 62.935147 48.159215 
L 62.869833 48.687764 
L 62.984911 48.374606 
L 63.093768 48.657064 
L 63.059556 48.204817 
L 63.096879 48.583961 
L 63.183965 48.280338 
L 63.127981 48.646831 
L 63.205736 48.590306 
L 63.289712 48.688113 
L 63.25239 48.389468 
L 63.299043 48.457677 
L 63.383019 48.304156 
L 63.39546 48.694939 
L 63.411011 48.435095 
L 63.482546 48.668602 
L 63.460774 48.291001 
L 63.522979 48.515737 
L 63.53542 48.2795 
L 63.594514 48.657741 
L 63.638057 48.420766 
L 63.725143 48.663457 
L 63.753135 48.573832 
L 63.793568 48.424017 
L 63.774907 48.658848 
L 63.861993 48.558676 
L 63.96152 48.415567 
L 63.973961 48.68353 
L 64.008173 48.444727 
L 64.051716 48.688839 
L 64.089039 48.538929 
L 64.194786 48.690712 
L 64.11081 48.500593 
L 64.197897 48.611356 
L 64.204117 48.42714 
L 64.291203 48.672801 
L 64.306754 48.608116 
L 64.409392 48.675334 
L 64.3814 48.410425 
L 64.415612 48.593219 
L 64.431163 48.320989 
L 64.465376 48.648428 
L 64.52447 48.634254 
L 64.561792 48.688997 
L 64.546241 48.387631 
L 64.614666 48.534763 
L 64.723524 48.431868 
L 64.707973 48.675428 
L 64.726634 48.499083 
L 64.735965 48.657593 
L 64.776398 48.282558 
L 64.838602 48.518123 
L 64.919468 48.358251 
L 64.885255 48.645424 
L 64.95057 48.503197 
L 64.966121 48.700702 
L 64.95679 48.424659 
L 65.053207 48.489077 
L 65.059428 48.370272 
L 65.127852 48.688296 
L 65.158955 48.59753 
L 65.267812 48.671131 
L 65.221159 48.280981 
L 65.270923 48.617033 
L 65.330017 48.41681 
L 65.305135 48.673624 
L 65.38289 48.579546 
L 65.386001 48.587643 
L 65.413993 48.374011 
L 65.423323 48.10285 
L 65.476197 48.677666 
L 65.51352 48.598904 
L 65.51663 48.615756 
L 65.560173 48.315021 
L 65.563283 48.254746 
L 65.597496 48.593762 
L 65.65659 48.546701 
L 65.66281 48.46838 
L 65.681472 48.594348 
L 65.774778 48.297733 
L 65.721904 48.664634 
L 65.793439 48.49593 
L 65.896077 48.691074 
L 65.824542 48.408511 
L 65.93962 48.539987 
L 66.023596 48.396199 
L 66.036037 48.652419 
L 66.048478 48.548089 
L 66.126233 48.696469 
L 66.120013 48.418637 
L 66.154225 48.480424 
L 66.278634 48.664625 
L 66.172886 48.354583 
L 66.306626 48.492161 
L 66.315956 48.287127 
L 66.340838 48.61486 
L 66.415483 48.39785 
L 66.50568 48.671773 
L 66.533672 48.619999 
L 66.617648 48.464439 
L 66.570994 48.647168 
L 66.64253 48.570008 
L 66.661191 48.681948 
L 66.710954 48.453268 
L 66.738946 48.643352 
L 66.847804 48.317024 
L 66.850914 48.33396 
L 66.906898 48.695362 
L 66.969103 48.688905 
L 67.090401 48.18624 
L 67.096622 48.324989 
L 67.186818 48.683106 
L 67.2117 48.568198 
L 67.236582 48.268227 
L 67.292566 48.654611 
L 67.320558 48.601253 
L 67.339219 48.418905 
L 67.35477 48.668825 
L 67.429415 48.573782 
L 67.438746 48.675334 
L 67.463628 48.456943 
L 67.535163 48.650268 
L 67.650241 48.327176 
L 67.693784 48.686094 
L 67.749768 48.270998 
L 67.765319 48.474869 
L 67.768429 48.307527 
L 67.861736 48.632476 
L 67.871066 48.619717 
L 67.905279 48.357513 
L 67.970594 48.681257 
L 67.986145 48.546962 
L 68.06701 48.68129 
L 68.045239 48.326 
L 68.091892 48.472951 
L 68.169648 48.377052 
L 68.141656 48.658051 
L 68.178978 48.493313 
L 68.20697 48.673645 
L 68.247403 48.410505 
L 68.290946 48.563969 
L 68.334489 48.365316 
L 68.303387 48.62164 
L 68.402914 48.465005 
L 68.468229 48.652948 
L 68.424686 48.446018 
L 68.517992 48.560736 
L 68.539764 48.38347 
L 68.62374 48.645651 
L 68.642401 48.42373 
L 68.689054 48.700034 
L 68.745038 48.578923 
L 68.835235 48.678482 
L 68.77303 48.459826 
L 68.853896 48.532206 
L 68.884998 48.686271 
L 68.875668 48.407572 
L 68.962754 48.509112 
L 69.024958 48.339008 
L 68.978305 48.695209 
L 69.071611 48.49089 
L 69.115154 48.666809 
L 69.152477 48.393831 
L 69.180469 48.433723 
L 69.19291 48.65298 
L 69.270665 48.389893 
L 69.292437 48.493511 
L 69.357752 48.375324 
L 69.326649 48.654111 
L 69.379523 48.55819 
L 69.398185 48.690234 
L 69.419956 48.47373 
L 69.491491 48.628556 
L 69.609679 48.389073 
L 69.541255 48.688355 
L 69.61279 48.518833 
L 69.650112 48.704366 
L 69.706096 48.369673 
L 69.730978 48.61258 
L 69.76519 48.454147 
L 69.75275 48.690591 
L 69.846056 48.498738 
L 69.89271 48.645061 
L 69.886489 48.34006 
L 69.951804 48.484313 
L 69.967355 48.328003 
L 69.979796 48.672086 
L 70.060661 48.433773 
L 70.091764 48.686204 
L 70.085543 48.411124 
L 70.17885 48.526009 
L 70.237944 48.107046 
L 70.213062 48.66159 
L 70.290818 48.441827 
L 70.405896 48.669528 
L 70.300148 48.192312 
L 70.424557 48.574931 
L 70.520974 48.702042 
L 70.536525 48.319612 
L 70.632942 48.656889 
L 70.586289 48.274201 
L 70.651603 48.595322 
L 70.723138 48.457456 
L 70.713808 48.693094 
L 70.763571 48.5315 
L 70.841327 48.657012 
L 70.847547 48.437247 
L 70.872429 48.544136 
L 70.978176 48.33247 
L 70.962625 48.686094 
L 70.987507 48.517897 
L 71.03416 48.647992 
L 71.006168 48.337423 
L 71.087034 48.435737 
L 71.090144 48.353012 
L 71.17101 48.690866 
L 71.192781 48.524549 
L 71.239435 48.689978 
L 71.248765 48.429886 
L 71.304749 48.637567 
L 71.335852 48.432174 
L 71.410497 48.67531 
L 71.413607 48.61143 
L 71.475812 48.687279 
L 71.510024 48.502564 
L 71.513134 48.539209 
L 71.544236 48.355943 
L 71.566008 48.68842 
L 71.625102 48.481205 
L 71.684196 48.256511 
L 71.662425 48.667634 
L 71.73396 48.456251 
L 71.811715 48.675467 
L 71.830377 48.36152 
L 71.849038 48.641555 
L 71.948565 48.307363 
L 71.914353 48.670742 
L 71.964116 48.364251 
L 71.967226 48.299519 
L 72.032541 48.646224 
L 72.063643 48.564162 
L 72.076084 48.488322 
L 72.175611 48.690827 
L 72.216044 48.393212 
L 72.290689 48.585485 
L 72.383996 48.678174 
L 72.340453 48.277708 
L 72.396437 48.51395 
L 72.399547 48.512055 
L 72.405767 48.632871 
L 72.411988 48.567842 
L 72.511515 48.6869 
L 72.492853 48.416567 
L 72.517735 48.586738 
L 72.58305 48.327748 
L 72.592381 48.692706 
L 72.626593 48.53275 
L 72.710569 48.673083 
L 72.663916 48.389345 
L 72.73234 48.509175 
L 72.797655 48.252738 
L 72.738561 48.552466 
L 72.810096 48.5418 
L 72.850529 48.686979 
L 72.884741 48.36175 
L 72.922064 48.575196 
L 72.978048 48.702409 
L 72.999819 48.355238 
L 73.01537 48.512443 
L 73.027811 48.312278 
L 73.062024 48.677915 
L 73.121118 48.489392 
L 73.14911 48.695963 
L 73.142889 48.380147 
L 73.229976 48.434463 
L 73.233086 48.426755 
L 73.251747 48.622538 
L 73.279739 48.589158 
L 73.307731 48.689665 
L 73.376156 48.485595 
L 73.385487 48.534707 
L 73.43214 48.387601 
L 73.407258 48.680987 
L 73.485014 48.672767 
L 73.497455 48.404147 
L 73.556549 48.696438 
L 73.603202 48.600504 
L 73.646745 48.687769 
L 73.705839 48.458154 
L 73.70895 48.527769 
L 73.777374 48.421228 
L 73.746272 48.678553 
L 73.811587 48.512555 
L 73.85824 48.672169 
L 73.908004 48.415049 
L 73.920444 48.556565 
L 73.942216 48.404239 
L 73.963988 48.691293 
L 74.029302 48.452344 
L 74.069735 48.661588 
L 74.13816 48.418467 
L 74.14438 48.64159 
L 74.187923 48.42491 
L 74.225246 48.671158 
L 74.259458 48.540947 
L 74.340324 48.447468 
L 74.371426 48.68718 
L 74.442961 48.273349 
L 74.492725 48.509566 
L 74.495835 48.455468 
L 74.582921 48.684607 
L 74.598472 48.5884 
L 74.601583 48.588916 
L 74.623354 48.460377 
L 74.660677 48.676378 
L 74.71044 48.572729 
L 74.806857 48.681314 
L 74.785086 48.343292 
L 74.819298 48.572599 
L 74.928156 48.301577 
L 74.887723 48.676145 
L 74.931266 48.419104 
L 74.999691 48.675315 
L 75.033903 48.317879 
L 75.040124 48.361228 
L 75.049454 48.294519 
L 75.061895 48.491258 
L 75.083667 48.673715 
L 75.145871 48.319155 
L 75.173863 48.662836 
L 75.204965 48.110298 
L 75.292052 48.340289 
L 75.304492 48.665308 
L 75.329374 48.27744 
L 75.404019 48.434282 
L 75.441342 48.25018 
L 75.425791 48.654059 
L 75.500436 48.511462 
L 75.603074 48.678903 
L 75.540869 48.437842 
L 75.615514 48.59921 
L 75.711931 48.663017 
L 75.733703 48.356633 
L 75.783466 48.686112 
L 75.848781 48.601707 
L 75.910985 48.670229 
L 75.861222 48.534908 
L 75.920316 48.638507 
L 75.957639 48.431668 
L 76.010512 48.662789 
L 76.029174 48.643107 
L 76.11937 48.683636 
L 76.088268 48.445521 
L 76.131811 48.658148 
L 76.215787 48.327817 
L 76.194015 48.672111 
L 76.243779 48.630001 
L 76.318424 48.677758 
L 76.271771 48.508767 
L 76.343306 48.586277 
L 76.355747 48.440716 
L 76.439723 48.6877 
L 76.449053 48.617264 
L 76.452164 48.678506 
L 76.477045 48.310436 
L 76.557911 48.587983 
L 76.567242 48.435655 
L 76.654328 48.676624 
L 76.666769 48.558235 
L 76.735194 48.665447 
L 76.725863 48.411438 
L 76.772516 48.543235 
L 76.806729 48.677835 
L 76.875154 48.480124 
L 76.977791 48.681558 
L 76.946689 48.276215 
L 76.987121 48.648464 
L 77.083538 48.692084 
L 77.064877 48.436319 
L 77.095979 48.644964 
L 77.123971 48.386124 
L 77.189286 48.649512 
L 77.204837 48.553384 
L 77.217278 48.690235 
L 77.232829 48.414702 
L 77.316805 48.672006 
L 77.360348 48.376867 
L 77.428773 48.575084 
L 77.431883 48.683894 
L 77.518969 48.335806 
L 77.53763 48.5545 
L 77.615386 48.624529 
L 77.590504 48.344525 
L 77.646488 48.55703 
L 77.721133 48.399756 
L 77.662039 48.607181 
L 77.752236 48.549116 
L 77.81755 48.674101 
L 77.786448 48.319932 
L 77.864203 48.667798 
L 77.913967 48.683748 
L 77.985502 48.239321 
L 78.019715 48.665769 
L 78.10058 48.566025 
L 78.141013 48.316643 
L 78.116131 48.679236 
L 78.209438 48.514848 
L 78.212548 48.68423 
L 78.284083 48.297935 
L 78.318296 48.638106 
L 78.333847 48.47287 
L 78.349398 48.683922 
L 78.427153 48.680829 
L 78.532901 48.470295 
L 78.542231 48.566047 
L 78.567113 48.694096 
L 78.570223 48.44082 
L 78.654199 48.660496 
L 78.769278 48.489127 
L 78.66042 48.664334 
L 78.781718 48.610628 
L 78.80971 48.684001 
L 78.856364 48.487421 
L 78.881245 48.499913 
L 78.909237 48.429061 
L 78.893686 48.669578 
L 78.977662 48.489057 
L 78.999434 48.680194 
L 79.061638 48.457839 
L 79.08963 48.620302 
L 79.102071 48.487154 
L 79.126953 48.651406 
L 79.201598 48.597352 
L 79.248251 48.690323 
L 79.217149 48.483805 
L 79.319786 48.640348 
L 79.394432 48.474981 
L 79.353999 48.689836 
L 79.431754 48.627931 
L 79.528171 48.684438 
L 79.484628 48.461863 
L 79.537502 48.585412 
L 79.64636 48.323445 
L 79.599706 48.670541 
L 79.65258 48.547511 
L 79.752107 48.657571 
L 79.689903 48.404354 
L 79.761438 48.546249 
L 79.814311 48.416944 
L 79.78943 48.675997 
L 79.857855 48.445914 
L 79.926279 48.686015 
L 79.93561 48.393517 
L 79.966712 48.427847 
L 80.056909 48.349646 
L 80.010255 48.65827 
L 80.060019 48.486978 
L 80.116003 48.670106 
L 80.150215 48.232314 
L 80.175097 48.660474 
L 80.277734 48.165122 
L 80.290175 48.409477 
L 80.414584 48.639818 
L 80.3586 48.282472 
L 80.420804 48.605763 
L 80.479899 48.398054 
L 80.49856 48.693494 
L 80.526552 48.551764 
L 80.542103 48.669708 
L 80.591866 48.369977 
L 80.63541 48.514807 
L 80.716275 48.478096 
L 80.675842 48.68146 
L 80.734937 48.557075 
L 80.738047 48.68871 
L 80.834464 48.477552 
L 80.843794 48.622983 
L 80.850015 48.399429 
L 80.862456 48.672628 
L 80.952652 48.54381 
L 81.002416 48.688304 
L 81.014856 48.513776 
L 81.06462 48.61983 
L 81.080171 48.423764 
L 81.101943 48.668132 
L 81.176588 48.591702 
L 81.263674 48.462297 
L 81.254343 48.693112 
L 81.285446 48.59297 
L 81.328989 48.465422 
L 81.294776 48.641773 
L 81.35387 48.56994 
L 81.388083 48.685305 
L 81.416075 48.497 
L 81.465838 48.628978 
L 81.478279 48.423987 
L 81.559145 48.669377 
L 81.574696 48.667904 
L 81.62446 48.487653 
L 81.587137 48.689838 
L 81.686664 48.630494 
L 81.723987 48.684631 
L 81.708435 48.431044 
L 81.792411 48.668087 
L 81.898159 48.401493 
L 81.882608 48.687125 
L 81.904379 48.591588 
L 81.963474 48.402148 
L 81.91371 48.614097 
L 82.016347 48.405595 
L 82.028788 48.633664 
L 82.05678 48.399073 
L 82.125205 48.503025 
L 82.174968 48.4446 
L 82.162528 48.689733 
L 82.227842 48.632871 
L 82.327369 48.362341 
L 82.277606 48.682256 
L 82.34292 48.580083 
L 82.349141 48.685328 
L 82.374023 48.456392 
L 82.454888 48.60637 
L 82.513982 48.691714 
L 82.535754 48.329799 
L 82.566856 48.668375 
L 82.632171 48.404636 
L 82.681934 48.508655 
L 82.75658 48.686163 
L 82.781461 48.382193 
L 82.787682 48.407038 
L 82.790792 48.359366 
L 82.849886 48.617313 
L 82.890319 48.526335 
L 82.90587 48.308559 
L 82.943193 48.681908 
L 82.952524 48.657935 
L 83.005397 48.668458 
L 82.983626 48.498052 
L 83.020948 48.629915 
L 83.101814 48.391362 
L 83.129806 48.693877 
L 83.139137 48.338119 
L 83.244884 48.512792 
L 83.288427 48.358167 
L 83.363073 48.640371 
L 83.47504 48.418292 
L 83.378624 48.693297 
L 83.478151 48.424076 
L 83.487481 48.65264 
L 83.546576 48.360573 
L 83.590119 48.516354 
L 83.686535 48.67173 
L 83.711417 48.587492 
L 83.730079 48.439579 
L 83.742519 48.684545 
L 83.823385 48.525593 
L 83.882479 48.685596 
L 83.929133 48.498634 
L 84.009998 48.427315 
L 83.950904 48.673613 
L 84.03177 48.583518 
L 84.146848 48.678467 
L 84.072203 48.351402 
L 84.149958 48.672098 
L 84.199722 48.44776 
L 84.261926 48.568715 
L 84.302359 48.693934 
L 84.352123 48.463584 
L 84.355233 48.4877 
L 84.358343 48.337261 
L 84.429878 48.682965 
L 84.46098 48.675797 
L 84.582279 48.416171 
L 84.467201 48.687185 
L 84.585389 48.453921 
L 84.675585 48.679359 
L 84.60094 48.373249 
L 84.691137 48.597888 
L 84.784443 48.41021 
L 84.700467 48.700976 
L 84.799994 48.589057 
L 84.824876 48.69676 
L 84.88397 48.462128 
L 84.911962 48.606594 
L 84.933734 48.490119 
L 84.961726 48.680911 
L 85.02082 48.57644 
L 85.098575 48.679086 
L 85.033261 48.481412 
L 85.132788 48.612145 
L 85.232315 48.341393 
L 85.16078 48.66515 
L 85.247866 48.512711 
L 85.30074 48.659833 
L 85.328732 48.194976 
L 85.356724 48.600193 
L 85.459361 48.32685 
L 85.378495 48.689202 
L 85.474912 48.375937 
L 85.561998 48.678331 
L 85.571329 48.358567 
L 85.58999 48.545053 
L 85.596211 48.68905 
L 85.686407 48.405581 
L 85.698848 48.537375 
L 85.807706 48.405531 
L 85.739281 48.686704 
L 85.810816 48.441387 
L 85.925894 48.663574 
L 85.929004 48.634613 
L 85.984988 48.461631 
L 85.963217 48.682542 
L 86.037862 48.564937 
L 86.050303 48.694342 
L 86.081405 48.492372 
L 86.14983 48.601882 
L 86.171601 48.4833 
L 86.227585 48.698692 
L 86.255577 48.681666 
L 86.383096 48.456167 
L 86.386206 48.494322 
L 86.445301 48.66991 
L 86.501285 48.621938 
L 86.538607 48.471833 
L 86.588371 48.683825 
L 86.610142 48.618895 
L 86.628804 48.494587 
L 86.675457 48.687711 
L 86.719 48.607844 
L 86.746992 48.678902 
L 86.778094 48.516288 
L 86.809196 48.554911 
L 86.818527 48.400094 
L 86.899393 48.683425 
L 86.914944 48.55911 
L 86.924275 48.678692 
L 86.952266 48.427563 
L 87.023802 48.531131 
L 87.110888 48.668673 
L 87.082896 48.472423 
L 87.129549 48.547211 
L 87.135769 48.396329 
L 87.197974 48.68709 
L 87.241517 48.501605 
L 87.325493 48.675837 
L 87.275729 48.381322 
L 87.347264 48.448071 
L 87.362816 48.227533 
L 87.440571 48.667088 
L 87.453012 48.576371 
L 87.540098 48.393714 
L 87.474783 48.671753 
L 87.56187 48.560265 
L 87.633405 48.664855 
L 87.652066 48.432494 
L 87.673838 48.643267 
L 87.71116 48.385597 
L 87.692499 48.688866 
L 87.788916 48.448462 
L 87.832459 48.689491 
L 87.863561 48.327808 
L 87.900884 48.616033 
L 88.009741 48.372605 
L 87.950647 48.703219 
L 88.015962 48.505217 
L 88.022182 48.39153 
L 88.047064 48.667286 
L 88.081276 48.69416 
L 88.059505 48.492109 
L 88.096827 48.553846 
L 88.099938 48.391545 
L 88.193244 48.674661 
L 88.205685 48.542858 
L 88.26789 48.667076 
L 88.249228 48.384608 
L 88.314543 48.647052 
L 88.373637 48.409406 
L 88.386078 48.691293 
L 88.426511 48.557422 
L 88.432731 48.675189 
L 88.470054 48.331637 
L 88.538479 48.582081 
L 88.644226 48.69806 
L 88.547809 48.44267 
L 88.650447 48.639873 
L 88.749974 48.379579 
L 88.734423 48.663551 
L 88.765525 48.447864 
L 88.84328 48.68447 
L 88.796627 48.327323 
L 88.877493 48.547988 
L 88.914815 48.624703 
L 88.933477 48.35684 
L 88.967689 48.537692 
L 89.001902 48.3863 
L 89.064106 48.664856 
L 89.073437 48.544531 
L 89.107649 48.70325 
L 89.082767 48.526161 
L 89.185404 48.609107 
L 89.25694 48.694895 
L 89.197845 48.499284 
L 89.288042 48.570213 
L 89.291152 48.472979 
L 89.309813 48.687874 
L 89.40001 48.51524 
L 89.431112 48.511191 
L 89.515088 48.692503 
L 89.614615 48.506693 
L 89.524418 48.699727 
L 89.627056 48.512127 
L 89.645717 48.694365 
L 89.68304 48.464999 
L 89.739024 48.613277 
L 89.804338 48.401543 
L 89.838551 48.689937 
L 89.850992 48.552206 
L 89.869653 48.461602 
L 89.947408 48.686098 
L 89.956739 48.566692 
L 89.997172 48.68511 
L 90.040715 48.399784 
L 90.065597 48.554866 
L 90.137132 48.415161 
L 90.124691 48.696182 
L 90.171344 48.547081 
L 90.25221 48.657349 
L 90.214887 48.441216 
L 90.283312 48.653452 
L 90.301973 48.663326 
L 90.295753 48.547993 
L 90.329965 48.587693 
L 90.336186 48.390459 
L 90.417052 48.674883 
L 90.438823 48.463137 
L 90.507248 48.69276 
L 90.501028 48.410709 
L 90.550791 48.508815 
L 90.644098 48.399412 
L 90.600555 48.692559 
L 90.659649 48.521655 
L 90.746735 48.672975 
L 90.696971 48.332956 
L 90.765396 48.455951 
L 90.911577 48.691722 
L 90.771617 48.398437 
L 90.920907 48.668097 
L 90.989332 48.440218 
L 91.001773 48.686804 
L 91.032875 48.509241 
L 91.138623 48.698766 
L 91.09819 48.441035 
L 91.147953 48.681151 
L 91.191496 48.428077 
L 91.228819 48.685326 
L 91.259921 48.622856 
L 91.356338 48.67601 
L 91.275472 48.416687 
L 91.362559 48.62634 
L 91.409212 48.43404 
L 91.399881 48.662155 
L 91.471416 48.509863 
L 91.483857 48.676758 
L 91.499408 48.474564 
L 91.583384 48.665883 
L 91.648699 48.519195 
L 91.602045 48.696934 
L 91.695352 48.534987 
L 91.791769 48.701915 
L 91.738895 48.417025 
L 91.80732 48.643741 
L 91.844643 48.399632 
L 91.913067 48.685726 
L 91.919288 48.556809 
L 91.997043 48.68921 
L 91.934839 48.467416 
L 92.031256 48.602649 
L 92.077909 48.644875 
L 92.081019 48.451405 
L 92.109011 48.690603 
L 92.189877 48.557694 
L 92.286294 48.69007 
L 92.208538 48.447553 
L 92.308065 48.643069 
L 92.360939 48.525615 
L 92.342278 48.692342 
L 92.416923 48.644099 
L 92.463576 48.46632 
L 92.444915 48.676262 
L 92.528891 48.533948 
L 92.597316 48.6865 
L 92.547552 48.474429 
L 92.640859 48.621924 
L 92.696843 48.422185 
L 92.668851 48.671284 
L 92.746606 48.559286 
L 92.749717 48.700528 
L 92.839913 48.358263 
L 92.855464 48.608476 
L 92.874125 48.423647 
L 92.954991 48.691015 
L 92.973653 48.446634 
L 93.091841 48.676884 
L 92.998534 48.352059 
L 93.101172 48.589334 
L 93.126053 48.66066 
L 93.228691 48.415668 
L 93.256683 48.680084 
L 93.244242 48.411948 
L 93.340658 48.594377 
L 93.415304 48.323051 
L 93.430855 48.692308 
L 93.452626 48.493228 
L 93.561484 48.660806 
L 93.458847 48.440764 
L 93.564594 48.638754 
L 93.673452 48.488146 
L 93.626799 48.691043 
L 93.682783 48.490906 
L 93.769869 48.695424 
L 93.710775 48.311599 
L 93.800971 48.587572 
L 93.856955 48.328828 
L 93.838294 48.657363 
L 93.912939 48.439277 
L 93.975143 48.684457 
L 93.919159 48.42645 
L 94.024907 48.628062 
L 94.115103 48.430798 
L 94.043568 48.682704 
L 94.143095 48.510758 
L 94.20841 48.653419 
L 94.242622 48.403223 
L 94.255063 48.569183 
L 94.34526 48.663739 
L 94.314157 48.450132 
L 94.35459 48.534788 
L 94.3577 48.495039 
L 94.395023 48.683509 
L 94.457227 48.568383 
L 94.522542 48.696304 
L 94.475889 48.485181 
L 94.569195 48.623066 
L 94.622069 48.462295 
L 94.590967 48.686587 
L 94.678053 48.598568 
L 94.687384 48.680138 
L 94.693604 48.557617 
L 94.702935 48.600199 
" clip-path="url(#pc634fa664e)" style="fill: none; stroke: #8c564b; stroke-width: 0.5; stroke-linecap: square"/>
   </g>
  </g>
 </g>
 <defs>
  <clipPath id="pc634fa664e">
   <rect x="0" y="-0" width="99.212598" height="51.023622"/>
  </clipPath>
 </defs>
</svg>
