<?xml version="1.0" encoding="utf-8" standalone="no"?>
<!DOCTYPE svg PUBLIC "-//W3C//DTD SVG 1.1//EN"
  "http://www.w3.org/Graphics/SVG/1.1/DTD/svg11.dtd">
<svg xmlns:xlink="http://www.w3.org/1999/xlink" width="99.212598pt" height="51.023622pt" viewBox="0 0 99.212598 51.023622" xmlns="http://www.w3.org/2000/svg" version="1.1">
 <metadata>
  <rdf:RDF xmlns:dc="http://purl.org/dc/elements/1.1/" xmlns:cc="http://creativecommons.org/ns#" xmlns:rdf="http://www.w3.org/1999/02/22-rdf-syntax-ns#">
   <cc:Work>
    <dc:type rdf:resource="http://purl.org/dc/dcmitype/StillImage"/>
    <dc:date>2024-10-30T10:51:19.775105</dc:date>
    <dc:format>image/svg+xml</dc:format>
    <dc:creator>
     <cc:Agent>
      <dc:title>Matplotlib v3.8.4, https://matplotlib.org/</dc:title>
     </cc:Agent>
    </dc:creator>
   </cc:Work>
  </rdf:RDF>
 </metadata>
 <defs>
  <style type="text/css">*{stroke-linejoin: round; stroke-linecap: butt}</style>
 </defs>
 <g id="figure_1">
  <g id="patch_1">
   <path d="M 0 51.023622 
L 99.212598 51.023622 
L 99.212598 0 
L 0 0 
L 0 51.023622 
z
" style="fill: none"/>
  </g>
  <g id="axes_1">
   <g id="patch_2">
    <path d="M 0 51.023622 
L 99.212598 51.023622 
L 99.212598 -0 
L 0 -0 
L 0 51.023622 
z
" style="fill: none"/>
   </g>
   <g id="matplotlib.axis_1">
    <g id="xtick_1"/>
    <g id="xtick_2"/>
   </g>
   <g id="matplotlib.axis_2">
    <g id="ytick_1"/>
    <g id="ytick_2"/>
   </g>
   <g id="line2d_1">
    <path d="M 4.509664 48.458764 
L 4.525215 46.942126 
L 4.655844 27.070225 
L 4.711828 36.105643 
L 4.848678 42.884728 
L 4.898441 47.194342 
L 4.938874 41.547288 
L 5.032181 33.492852 
L 5.088164 34.861282 
L 5.190802 44.849196 
L 5.203243 46.414246 
L 5.256116 35.768748 
L 5.346313 2.319256 
L 5.430289 20.396644 
L 5.688437 47.649449 
L 5.73198 47.167213 
L 5.750641 48.295296 
L 5.806625 44.603936 
L 5.843948 45.953203 
L 5.903042 44.273822 
L 5.906152 44.281305 
L 6.036782 47.332116 
L 6.117647 46.106286 
L 6.189182 43.842906 
L 6.248277 45.16668 
L 6.322922 47.394476 
L 6.372685 45.793098 
L 6.382016 45.748918 
L 6.388236 45.894096 
L 6.438 47.98296 
L 6.518866 46.456138 
L 6.537527 46.138226 
L 6.783234 40.030851 
L 6.587291 46.884625 
L 6.805006 40.852394 
L 6.926305 48.007156 
L 6.985399 47.782341 
L 7.044493 48.411177 
L 7.078705 46.970372 
L 7.081816 46.835558 
L 7.153351 48.108283 
L 7.159571 48.102237 
L 7.203114 48.425827 
L 7.237327 47.667711 
L 7.374176 45.535756 
L 7.324413 47.693206 
L 7.402168 46.2016 
L 7.442601 47.062053 
L 7.483034 45.536929 
L 7.486144 45.626013 
L 7.489254 45.605438 
L 7.504805 46.223619 
L 7.622994 47.901568 
L 7.57323 45.476796 
L 7.647876 47.755035 
L 7.666537 47.648761 
L 7.750513 46.449082 
L 7.800276 47.146361 
L 7.915355 47.869366 
L 7.881142 46.810368 
L 7.924685 47.820426 
L 7.937126 47.595703 
L 7.971338 48.197621 
L 8.030433 47.867822 
L 8.052204 48.591738 
L 8.117519 47.028668 
L 8.226377 46.731697 
L 8.173503 47.58423 
L 8.235707 46.82349 
L 8.294801 48.088272 
L 8.335234 46.587027 
L 8.350785 46.074408 
L 8.41299 47.707025 
L 8.459643 48.368429 
L 8.487635 46.047084 
L 8.568501 44.950831 
L 8.531178 46.276854 
L 8.599603 45.966638 
L 8.683579 48.283616 
L 8.624485 45.440288 
L 8.783106 47.936087 
L 8.786216 47.927857 
L 8.795547 48.160367 
L 8.804877 48.531522 
L 8.867082 46.850391 
L 8.879523 46.671563 
L 8.913735 47.550713 
L 8.951058 47.432285 
L 8.97905 48.583465 
L 9.072356 48.112129 
L 9.153222 47.013027 
L 9.097238 48.552519 
L 9.206096 47.574411 
L 9.330505 48.435811 
L 9.25897 46.536708 
L 9.333615 48.236114 
L 9.467354 44.849739 
L 9.479795 45.308915 
L 9.619755 46.895037 
L 9.759715 48.608045 
L 9.653968 46.636632 
L 9.787707 47.997715 
L 9.800148 47.985094 
L 9.82503 48.278335 
L 9.843691 48.480106 
L 9.893454 47.953503 
L 9.933887 48.250391 
L 10.005422 48.328531 
L 9.986761 47.971827 
L 10.030304 48.144276 
L 10.179595 47.058639 
L 10.095619 48.60247 
L 10.188925 47.36115 
L 10.291563 48.659501 
L 10.25113 46.326918 
L 10.307114 47.762482 
L 10.387979 46.133525 
L 10.335106 48.031876 
L 10.456404 46.984129 
L 10.481286 46.618194 
L 10.499947 47.229612 
L 10.580813 48.265485 
L 10.611915 47.46556 
L 10.652348 46.933616 
L 10.686561 47.972131 
L 10.720773 47.50414 
L 10.761206 46.858221 
L 10.782977 47.881296 
L 10.838961 48.597505 
L 10.81408 47.852062 
L 10.898056 48.378063 
L 10.901166 48.410854 
L 10.950929 47.813027 
L 10.95404 47.856558 
L 11.003803 47.065344 
L 10.96648 47.91299 
L 11.066007 47.78475 
L 11.128212 48.601682 
L 11.196637 48.326317 
L 11.233959 48.657787 
L 11.212188 48.239056 
L 11.280613 48.300833 
L 11.417462 47.41508 
L 11.311715 48.670079 
L 11.420573 47.512998 
L 11.445454 48.567141 
L 11.501438 47.431322 
L 11.544981 48.414277 
L 11.656949 46.168768 
L 11.716043 46.423965 
L 11.874665 47.877886 
L 11.883995 47.810028 
L 11.896436 47.489939 
L 11.939979 48.231298 
L 11.986633 48.092107 
L 12.011514 48.461084 
L 11.992853 48.078998 
L 12.014625 48.453652 
L 12.111041 48.660422 
L 12.064388 47.699982 
L 12.123482 48.353859 
L 12.23545 47.909383 
L 12.182576 48.574101 
L 12.247891 48.161977 
L 12.263442 48.614563 
L 12.338087 47.703329 
L 12.341198 47.662976 
L 12.409622 48.178485 
L 12.50915 48.653487 
L 12.459386 47.794166 
L 12.524701 48.429708 
L 12.664661 46.889998 
L 12.602456 48.65981 
L 12.677101 47.16122 
L 12.683322 47.343412 
L 12.717534 46.181298 
L 12.754857 46.374546 
L 12.79218 45.409788 
L 12.820172 47.20771 
L 12.925919 48.505528 
L 12.845053 47.036652 
L 12.950801 48.230081 
L 13.022336 47.478898 
L 13.072099 47.993288 
L 13.152965 48.253064 
L 13.08765 47.829014 
L 13.202729 48.058414 
L 13.311586 47.432186 
L 13.233831 48.56292 
L 13.327137 47.683101 
L 13.417334 48.556039 
L 13.467097 48.449134 
L 13.495089 47.90462 
L 13.566624 48.655835 
L 13.572845 48.558199 
L 13.579065 48.615891 
L 13.610167 47.986381 
L 13.691033 47.607646 
L 13.719025 48.094619 
L 13.722135 48.061301 
L 13.743907 48.574384 
L 13.79367 48.480951 
L 13.799891 48.608692 
L 13.849654 47.607317 
L 13.874536 47.892092 
L 13.877646 47.810849 
L 13.936741 48.640497 
L 13.970953 48.218117 
L 13.977173 48.241412 
L 14.008276 47.665272 
L 14.061149 46.658113 
L 14.129574 47.363286 
L 14.148236 47.847115 
L 14.229101 47.214179 
L 14.232211 47.178375 
L 14.263314 47.537218 
L 14.306857 47.504574 
L 14.390833 48.62376 
L 14.35973 47.369899 
L 14.421935 47.845525 
L 14.437486 47.460054 
L 14.49658 48.247767 
L 14.518352 48.092922 
L 14.565005 48.676023 
L 14.627209 48.117286 
L 14.736067 47.799383 
L 14.695634 48.421354 
L 14.742288 47.933649 
L 14.816933 48.655207 
L 14.866696 48.55988 
L 14.900909 47.813048 
L 14.941342 48.66888 
L 14.987995 48.421929 
L 14.994215 48.564556 
L 15.034648 48.120446 
L 15.096853 48.35466 
L 15.109294 48.679849 
L 15.134175 48.058783 
L 15.190159 48.101987 
L 15.305237 46.823609 
L 15.317678 47.046993 
L 15.320788 47.102989 
L 15.395434 46.553467 
L 15.401654 46.573925 
L 15.420316 46.33003 
L 15.47941 47.876877 
L 15.522953 48.266292 
L 15.560275 47.462705 
L 15.594488 48.017477 
L 15.659802 48.474314 
L 15.687794 47.553192 
L 15.700235 47.152947 
L 15.784211 48.143284 
L 15.880628 48.673416 
L 15.9024 48.459714 
L 15.989486 47.86315 
L 15.964604 48.613407 
L 16.017478 48.261247 
L 16.04236 48.652215 
L 16.095233 48.224754 
L 16.126335 48.322314 
L 16.166768 48.202502 
L 16.213422 48.557566 
L 16.238303 48.193777 
L 16.241414 48.197241 
L 16.306728 48.652797 
L 16.356492 48.0027 
L 16.434247 48.542999 
L 16.496452 48.233007 
L 16.599089 47.761524 
L 16.539995 48.329888 
L 16.60842 48.074484 
L 16.698616 48.510376 
L 16.714167 47.945614 
L 16.770151 47.137898 
L 16.829245 47.694721 
L 16.832355 47.67578 
L 16.860347 48.178231 
L 16.89456 48.473691 
L 16.928772 47.580438 
L 16.944323 47.797704 
L 16.969205 47.197124 
L 17.03763 47.910678 
L 17.04385 47.908668 
L 17.062512 48.565097 
L 17.134047 47.867983 
L 17.168259 48.512438 
L 17.202472 47.985017 
L 17.255345 48.663874 
L 17.274007 48.583056 
L 17.280227 48.682585 
L 17.342432 47.816303 
L 17.351762 47.708785 
L 17.407746 48.400944 
L 17.494832 48.686315 
L 17.516604 48.387065 
L 17.566367 48.087331 
L 17.619241 48.535385 
L 17.662784 48.283697 
L 17.628572 48.54375 
L 17.734319 48.439263 
L 17.74676 48.594798 
L 17.793413 47.939966 
L 17.836956 48.277733 
L 17.933373 48.662013 
L 17.908492 48.113956 
L 17.948924 48.334199 
L 18.02668 47.5491 
L 18.001798 48.581139 
L 18.057782 48.269038 
L 18.160419 48.50469 
L 18.119987 47.581503 
L 18.16975 48.47072 
L 18.200852 46.697123 
L 18.294159 47.532046 
L 18.362584 48.190507 
L 18.399906 47.38526 
L 18.406127 47.342769 
L 18.440339 47.873672 
L 18.459 48.52847 
L 18.483882 47.56979 
L 18.555417 48.003674 
L 18.561638 47.922539 
L 18.611401 48.676672 
L 18.633173 48.519441 
L 18.682936 48.116137 
L 18.748251 48.666641 
L 18.791794 48.002606 
L 18.87577 48.489804 
L 18.888211 48.675436 
L 18.972187 48.184751 
L 18.975297 48.22489 
L 18.981517 48.154823 
L 18.984628 48.073358 
L 19.049942 48.69975 
L 19.084155 48.365991 
L 19.087265 48.354367 
L 19.102816 48.588514 
L 19.133918 48.549489 
L 19.230335 48.651416 
L 19.193012 48.36811 
L 19.245886 48.584872 
L 19.276988 48.061916 
L 19.364075 48.095215 
L 19.472932 48.67833 
L 19.398287 47.9273 
L 19.494704 48.416806 
L 19.591121 48.1377 
L 19.519586 48.609337 
L 19.603561 48.382448 
L 19.640884 48.657553 
L 19.668876 48.043303 
L 19.712419 48.31051 
L 19.71864 48.211053 
L 19.768403 48.660182 
L 19.805726 48.558012 
L 19.808836 48.597563 
L 19.855489 47.812598 
L 19.892812 48.698297 
L 19.970567 47.588906 
L 20.045213 48.549717 
L 20.175842 48.451836 
L 20.231826 47.981129 
L 20.281589 48.516715 
L 20.29092 48.31237 
L 20.368676 48.657547 
L 20.337573 48.186754 
L 20.409108 48.466429 
L 20.496195 48.073054 
L 20.458872 48.700727 
L 20.521076 48.290204 
L 20.623714 48.62085 
L 20.530407 48.232279 
L 20.642375 48.508314 
L 20.704579 48.315397 
L 20.661036 48.683068 
L 20.741902 48.596812 
L 20.745012 48.632031 
L 20.810327 48.124866 
L 20.832098 48.437493 
L 20.878752 47.852107 
L 20.85387 48.573316 
L 20.937846 48.459826 
L 20.947177 48.688868 
L 20.984499 47.687029 
L 21.024932 48.074782 
L 21.084026 47.888075 
L 21.056034 48.696329 
L 21.1369 47.985727 
L 21.14001 47.998398 
L 21.155561 47.63091 
L 21.233317 46.501261 
L 21.186663 47.717229 
L 21.27997 47.029095 
L 21.457253 48.645885 
L 21.550559 47.735018 
L 21.572331 48.447893 
L 21.581661 48.648415 
L 21.609653 48.019347 
L 21.681188 48.352321 
L 21.771385 48.044771 
L 21.70918 48.643037 
L 21.796267 48.232863 
L 21.855361 48.622927 
L 21.917565 48.527672 
L 22.035754 48.221766 
L 21.976659 48.661912 
L 22.045084 48.483983 
L 22.135281 48.635003 
L 22.082407 48.31707 
L 22.138391 48.560715 
L 22.175713 48.103276 
L 22.241028 48.671429 
L 22.247249 48.634124 
L 22.337445 47.950646 
L 22.371657 48.223862 
L 22.387208 48.180603 
L 22.4152 48.645261 
L 22.418311 48.656286 
L 22.427641 48.291006 
L 22.446303 47.881095 
L 22.489846 48.570815 
L 22.536499 48.206069 
L 22.55516 48.697031 
L 22.592483 48.169857 
L 22.664018 48.647497 
L 22.83508 47.632784 
L 22.872403 48.01931 
L 22.931497 48.624965 
L 22.993701 48.178096 
L 22.999922 48.084598 
L 23.027914 48.667407 
L 23.096339 48.264006 
L 23.189645 48.623963 
L 23.102559 48.24896 
L 23.205196 48.291153 
L 23.211417 48.207748 
L 23.276731 48.570064 
L 23.307834 48.370524 
L 23.345156 48.121212 
L 23.429132 48.687112 
L 23.503777 48.231509 
L 23.547321 48.459463 
L 23.569092 48.640331 
L 23.621966 48.328679 
L 23.665509 48.139284 
L 23.690391 48.535282 
L 23.696611 48.657205 
L 23.783697 48.194991 
L 23.786807 48.197913 
L 23.793028 48.171641 
L 23.805469 48.458621 
L 23.814799 48.61101 
L 23.849012 48.157137 
L 23.917437 48.479601 
L 23.942318 48.615545 
L 23.973421 48.001711 
L 24.023184 48.436041 
L 24.032515 48.254419 
L 24.094719 48.573239 
L 24.135152 48.402259 
L 24.212908 48.634467 
L 24.181805 48.040838 
L 24.24401 48.34592 
L 24.284443 47.682916 
L 24.25023 48.411321 
L 24.324876 48.391858 
L 24.331096 48.56468 
L 24.418182 47.75291 
L 24.449284 47.160057 
L 24.53015 47.609811 
L 24.567473 48.059316 
L 24.645228 48.584015 
L 24.626567 47.874431 
L 24.67633 48.107066 
L 24.685661 47.713176 
L 24.744755 48.603247 
L 24.778968 48.486225 
L 24.785188 48.650514 
L 24.838062 48.172337 
L 24.881605 48.341344 
L 24.909597 48.603739 
L 24.999793 48.139443 
L 25.105541 48.64048 
L 25.009124 48.13871 
L 25.124202 48.367626 
L 25.205068 48.624054 
L 25.24239 48.10668 
L 25.307705 47.992499 
L 25.270382 48.540166 
L 25.341917 48.197431 
L 25.419673 48.678726 
L 25.456996 48.424294 
L 25.475657 48.227597 
L 25.550302 48.581432 
L 25.559633 48.569838 
L 25.677821 48.122358 
L 25.587625 48.614483 
L 25.687152 48.417976 
L 25.783569 48.636327 
L 25.758687 48.271372 
L 25.79601 48.425916 
L 25.898647 48.264001 
L 25.855104 48.566939 
L 25.904867 48.39144 
L 25.970182 48.679914 
L 25.9453 48.160519 
L 26.016835 48.575962 
L 26.113252 48.21517 
L 26.08837 48.651276 
L 26.135024 48.295419 
L 26.240771 47.883243 
L 26.163016 48.371217 
L 26.256322 48.146498 
L 26.274983 48.673203 
L 26.3714 48.485015 
L 26.439825 48.428349 
L 26.421164 48.643374 
L 26.455376 48.575087 
L 26.461597 48.596771 
L 26.50514 48.241869 
L 26.50825 48.201917 
L 26.526911 48.672914 
L 26.595336 48.494311 
L 26.704194 48.698572 
L 26.629549 48.097883 
L 26.713525 48.610991 
L 26.735296 48.466784 
L 26.7975 48.685757 
L 26.822382 48.671025 
L 26.825492 48.691713 
L 26.856595 48.217286 
L 26.878366 48.369821 
L 26.943681 48.663195 
L 26.999665 48.052677 
L 27.002775 48.037258 
L 27.024547 48.412066 
L 27.052539 48.644368 
L 27.130294 48.307468 
L 27.198719 48.197172 
L 27.164506 48.595044 
L 27.223601 48.457833 
L 27.295136 48.667932 
L 27.242262 48.24818 
L 27.338679 48.532037 
L 27.403993 47.994547 
L 27.372891 48.672431 
L 27.466198 48.435993 
L 27.509741 48.545204 
L 27.522182 48.281519 
L 27.562615 48.502693 
L 27.655921 47.729578 
L 27.665252 47.865842 
L 27.767889 48.669406 
L 27.802102 48.08693 
L 27.870526 47.207314 
L 27.92029 47.628168 
L 28.047809 48.693355 
L 28.054029 48.497428 
L 28.05714 48.49904 
L 28.06336 48.480094 
L 28.085132 48.111619 
L 28.169108 48.643618 
L 28.172218 48.488314 
L 28.221981 48.324362 
L 28.265524 48.566798 
L 28.293516 48.44291 
L 28.302847 48.610738 
L 28.35261 48.301669 
L 28.402374 48.430153 
L 28.424146 48.181132 
L 28.467689 48.658225 
L 28.514342 48.416433 
L 28.545444 48.595784 
L 28.62942 48.690754 
L 28.598318 48.341449 
L 28.654302 48.578385 
L 28.660522 48.627827 
L 28.694735 48.292921 
L 28.704065 48.300137 
L 28.788041 48.006694 
L 28.728947 48.678489 
L 28.809813 48.458251 
L 28.822254 48.542955 
L 28.90623 48.318822 
L 28.918671 48.072705 
L 29.002646 48.622644 
L 29.008867 48.672598 
L 29.039969 47.9994 
L 29.077292 48.178707 
L 29.080402 48.075742 
L 29.099063 48.657548 
L 29.176819 48.557667 
L 29.273236 48.197506 
L 29.291897 48.415541 
L 29.301228 48.599279 
L 29.366542 48.182096 
L 29.400755 48.465439 
L 29.434967 48.211587 
L 29.48162 48.661958 
L 29.500282 48.506736 
L 29.546935 48.105498 
L 29.61225 48.647658 
L 29.662013 48.069264 
L 29.733548 48.332854 
L 29.786422 48.610356 
L 29.851737 48.476802 
L 29.857957 48.599242 
L 29.885949 48.199583 
L 29.954374 48.455605 
L 29.994807 48.308683 
L 30.03524 48.635802 
L 30.060121 48.418277 
L 30.140987 48.597657 
L 30.085003 48.284645 
L 30.165869 48.309037 
L 30.358702 48.644725 
L 30.175199 48.264527 
L 30.371143 48.525481 
L 30.47067 48.364925 
L 30.383584 48.68289 
L 30.483111 48.516269 
L 30.489332 48.630893 
L 30.514213 48.35592 
L 30.585748 48.381619 
L 30.595079 48.294907 
L 30.635512 48.673298 
L 30.694606 48.344551 
L 30.759921 48.679266 
L 30.700827 48.284356 
L 30.825235 48.585293 
L 30.924762 48.193552 
L 30.88744 48.645393 
L 30.937203 48.524996 
L 31.014959 48.268001 
L 31.002518 48.637148 
L 31.039841 48.554581 
L 31.042951 48.620169 
L 31.086494 48.148227 
L 31.139368 48.342639 
L 31.142478 48.332152 
L 31.17358 48.566199 
L 31.198462 48.485339 
L 31.201572 48.540654 
L 31.242005 48.174015 
L 31.301099 48.419291 
L 31.413067 47.269329 
L 31.31976 48.65735 
L 31.437949 47.980386 
L 31.469051 48.3688 
L 31.512594 47.557509 
L 31.556137 48.311801 
L 31.664995 48.068411 
L 31.574798 48.449114 
L 31.674326 48.132069 
L 31.804955 48.657267 
L 31.808065 48.629795 
L 31.820506 48.405184 
L 31.867159 48.65185 
L 31.920033 48.521048 
L 31.985348 48.680843 
L 32.01645 48.379426 
L 32.035111 48.62755 
L 32.106646 48.483804 
L 32.063103 48.681696 
L 32.147079 48.591249 
L 32.15952 48.663757 
L 32.243496 48.424508 
L 32.259047 48.6095 
L 32.343023 48.389399 
L 32.29637 48.676695 
L 32.377235 48.506732 
L 32.392786 48.599886 
L 32.414558 48.376088 
L 32.433219 48.030054 
L 32.510975 48.592497 
L 32.517195 48.582428 
L 32.529636 48.660705 
L 32.554518 48.245735 
L 32.557628 48.168339 
L 32.59184 48.689655 
L 32.654045 48.525148 
L 32.660265 48.674573 
L 32.72247 48.352363 
L 32.759792 48.507759 
L 32.86243 48.336273 
L 32.787784 48.695442 
L 32.87176 48.491679 
L 32.940185 48.643869 
L 32.890422 48.289808 
L 32.977508 48.408958 
L 33.086365 48.278298 
L 33.021051 48.674549 
L 33.089476 48.31525 
L 33.133019 48.691366 
L 33.198333 48.231354 
L 33.226325 48.171548 
L 33.251207 48.593127 
L 33.254317 48.664331 
L 33.29475 48.238502 
L 33.350734 48.406513 
L 33.360065 48.268462 
L 33.384947 48.614712 
L 33.465812 48.316444 
L 33.546678 48.666236 
L 33.531127 48.250279 
L 33.565339 48.258854 
L 33.57156 48.160811 
L 33.602662 48.529206 
L 33.621323 48.506398 
L 33.689748 48.675184 
L 33.636874 48.440825 
L 33.730181 48.477779 
L 33.739512 48.291176 
L 33.783055 48.694048 
L 33.848369 48.324645 
L 33.978999 48.633616 
L 33.985219 48.597455 
L 34.010101 48.262942 
L 34.038093 48.660045 
L 34.094077 48.550284 
L 34.159391 48.681406 
L 34.122069 48.462582 
L 34.199824 48.488736 
L 34.27758 48.376497 
L 34.293131 48.634289 
L 34.296241 48.604294 
L 34.299351 48.636971 
L 34.321123 48.19818 
L 34.383327 48.394233 
L 34.392658 48.324992 
L 34.41754 48.651634 
L 34.476634 48.425052 
L 34.56372 48.677572 
L 34.545059 48.334243 
L 34.585491 48.415721 
L 34.688129 48.142226 
L 34.622814 48.665684 
L 34.697459 48.302195 
L 34.7099 48.610714 
L 34.737892 48.22609 
L 34.806317 48.415025 
L 34.85297 48.166718 
L 34.871632 48.598063 
L 34.921395 48.237169 
L 35.033363 48.684945 
L 34.964938 48.054858 
L 35.045804 48.505355 
L 35.13289 47.775965 
L 35.073796 48.545715 
L 35.160882 48.192682 
L 35.254189 48.639433 
L 35.204425 47.894516 
L 35.27285 48.253142 
L 35.282181 48.127225 
L 35.300842 48.408749 
L 35.378598 48.595637 
L 35.400369 48.07759 
L 35.40659 47.975321 
L 35.41592 48.176934 
L 35.499896 48.648993 
L 35.534109 48.479071 
L 35.568321 48.339489 
L 35.593203 48.674819 
L 35.624305 48.63441 
L 35.642966 48.699933 
L 35.683399 48.326342 
L 35.714501 48.48269 
L 35.726942 48.049505 
L 35.817139 48.661895 
L 35.823359 48.582753 
L 35.885563 48.665162 
L 35.870012 48.400461 
L 35.929107 48.477957 
L 35.969539 48.3389 
L 35.950878 48.632483 
L 35.997531 48.573371 
L 36.000642 48.674574 
L 36.047295 48.391876 
L 36.106389 48.556433 
L 36.218357 48.3622 
L 36.193475 48.635832 
L 36.230798 48.387746 
L 36.314774 48.687826 
L 36.277451 48.362939 
L 36.348986 48.675942 
L 36.40186 48.224967 
L 36.510718 48.427646 
L 36.560481 48.680904 
L 36.594694 48.363389 
L 36.628906 48.551478 
L 36.697331 48.669829 
L 36.675559 48.432989 
L 36.715992 48.526274 
L 36.787527 48.642872 
L 36.83107 48.338844 
L 36.880834 48.214579 
L 36.902605 48.498759 
L 36.995912 48.684246 
L 36.918157 48.365057 
L 37.017684 48.676137 
L 37.170084 48.183332 
L 37.179415 48.368837 
L 37.278942 48.675423 
L 37.291383 48.48013 
L 37.306934 48.255165 
L 37.356698 48.635888 
L 37.403351 48.358981 
L 37.406461 48.357431 
L 37.409571 48.382699 
L 37.496657 48.102226 
L 37.52776 48.65714 
L 37.543311 48.478432 
L 37.549531 48.487662 
L 37.568193 48.309442 
L 37.642838 48.607735 
L 37.658389 48.479597 
L 37.742365 48.696401 
L 37.689491 48.471064 
L 37.776577 48.617148 
L 37.81701 48.374835 
L 37.845002 48.660926 
L 37.894766 48.519386 
L 37.975631 48.684573 
L 37.919647 48.396978 
L 38.000513 48.499362 
L 38.040946 48.393876 
L 38.012954 48.652812 
L 38.10004 48.590621 
L 38.156024 48.68782 
L 38.140473 48.451683 
L 38.196457 48.538914 
L 38.299094 48.20486 
L 38.23378 48.591673 
L 38.311535 48.357208 
L 38.426613 48.699616 
L 38.429723 48.613551 
L 38.454605 48.633042 
L 38.560353 48.294912 
L 38.641218 48.692996 
L 38.607006 48.093395 
L 38.678541 48.599411 
L 38.687872 48.674298 
L 38.756297 48.251803 
L 38.762517 48.289895 
L 38.771848 48.194927 
L 38.821611 48.53006 
L 38.858934 48.500376 
L 38.94913 48.68446 
L 38.918028 48.226546 
L 38.970902 48.597711 
L 39.023775 47.841802 
L 39.104641 48.344394 
L 39.188617 48.671159 
L 39.219719 48.529015 
L 39.325467 48.074529 
L 39.275703 48.653833 
L 39.344128 48.293815 
L 39.449876 48.643828 
L 39.456096 48.451724 
L 39.465427 48.285385 
L 39.558733 48.644879 
L 39.599166 48.693859 
L 39.577395 48.508389 
L 39.630268 48.569309 
L 39.714244 48.429311 
L 39.680032 48.665968 
L 39.742236 48.444723 
L 39.779559 48.681133 
L 39.748457 48.433079 
L 39.847984 48.447987 
L 39.903968 48.29098 
L 39.93507 48.596914 
L 39.953731 48.542952 
L 40.043928 48.452431 
L 39.987944 48.68763 
L 40.059479 48.583458 
L 40.065699 48.645497 
L 40.087471 48.393911 
L 40.159006 48.45585 
L 40.190108 48.303304 
L 40.236761 48.578789 
L 40.270974 48.426133 
L 40.35495 48.381493 
L 40.311407 48.69223 
L 40.36428 48.519255 
L 40.404713 48.636801 
L 40.429595 48.274398 
L 40.473138 48.531496 
L 40.510461 48.385004 
L 40.557114 48.601355 
L 40.572665 48.583499 
L 40.628649 48.660251 
L 40.613098 48.268379 
L 40.662861 48.427945 
L 40.737507 48.647694 
L 40.715735 48.307037 
L 40.765499 48.390981 
L 40.771719 48.236883 
L 40.840144 48.638208 
L 40.868136 48.599782 
L 40.874356 48.671631 
L 40.896128 48.464348 
L 40.983214 48.171063 
L 40.92101 48.690528 
L 41.001875 48.535213 
L 41.06097 48.427226 
L 41.032978 48.653086 
L 41.107623 48.568393 
L 41.172938 48.643456 
L 41.129394 48.335451 
L 41.194709 48.47658 
L 41.272465 48.338413 
L 41.253803 48.588132 
L 41.306677 48.4628 
L 41.328449 48.694132 
L 41.378212 48.379943 
L 41.424865 48.561322 
L 41.539944 48.31493 
L 41.521282 48.640743 
L 41.546164 48.445079 
L 41.602148 48.641955 
L 41.567935 48.342969 
L 41.655022 48.398389 
L 41.77321 48.617008 
L 41.695455 48.392871 
L 41.77632 48.568927 
L 41.835414 48.482559 
L 41.878957 48.672757 
L 41.975374 48.46624 
L 41.950493 48.692264 
L 41.997146 48.580599 
L 42.096673 48.652019 
L 42.05002 48.455992 
L 42.109114 48.615175 
L 42.227302 48.252391 
L 42.127775 48.669035 
L 42.242853 48.502212 
L 42.252184 48.655738 
L 42.33927 48.276746 
L 42.351711 48.556987 
L 42.413915 48.672203 
L 42.466789 48.347697 
L 42.528993 48.311167 
L 42.513442 48.653126 
L 42.544545 48.501649 
L 42.563206 48.669202 
L 42.612969 48.311616 
L 42.653402 48.42566 
L 42.656513 48.421036 
L 42.662733 48.576207 
L 42.715607 48.516232 
L 42.734268 48.662395 
L 42.774701 48.230178 
L 42.815134 48.446353 
L 42.818244 48.443248 
L 42.836905 48.542894 
L 42.936432 48.690268 
L 42.858677 48.296093 
L 42.948873 48.65973 
L 43.076392 48.079878 
L 43.079502 48.123297 
L 43.197691 48.675688 
L 43.203911 48.548832 
L 43.222573 48.575963 
L 43.244344 48.269213 
L 43.250565 48.24979 
L 43.284777 48.558237 
L 43.393635 48.660592 
L 43.350092 48.155397 
L 43.396745 48.612362 
L 43.480721 48.430303 
L 43.434068 48.680633 
L 43.511823 48.478667 
L 43.577138 48.662808 
L 43.530484 48.365912 
L 43.626901 48.600752 
L 43.75442 48.287201 
L 43.651783 48.632449 
L 43.760641 48.480712 
L 43.816625 48.644758 
L 43.794853 48.277528 
L 43.863278 48.453978 
L 43.875719 48.369282 
L 43.89749 48.685624 
L 43.965915 48.573301 
L 44.065442 48.666437 
L 44.049891 48.459486 
L 44.071663 48.554933 
L 44.084104 48.39879 
L 44.17119 48.648328 
L 44.1743 48.600527 
L 44.252055 48.695786 
L 44.189851 48.42158 
L 44.273827 48.452747 
L 44.283158 48.375066 
L 44.342252 48.675913 
L 44.373354 48.594042 
L 44.376464 48.620235 
L 44.429338 48.408701 
L 44.466661 48.490824 
L 44.556857 48.316696 
L 44.507093 48.681407 
L 44.569298 48.60112 
L 44.572408 48.668444 
L 44.59418 48.402541 
L 44.678156 48.552347 
L 44.696817 48.69395 
L 44.690596 48.465101 
L 44.762131 48.513695 
L 44.861659 48.437388 
L 44.827446 48.654903 
L 44.864769 48.504151 
L 44.88032 48.670891 
L 44.917642 48.350412 
L 44.976737 48.5393 
L 45.082484 48.674258 
L 45.004729 48.381113 
L 45.085594 48.612843 
L 45.094925 48.376455 
L 45.194452 48.675398 
L 45.203783 48.561351 
L 45.228664 48.443757 
L 45.297089 48.652469 
L 45.318861 48.472937 
L 45.384175 48.269997 
L 45.437049 48.663044 
L 45.44638 48.567047 
L 45.4526 48.406531 
L 45.468151 48.659755 
L 45.555238 48.529209 
L 45.626773 48.69937 
L 45.614332 48.459843 
L 45.660985 48.496099 
L 45.738741 48.397532 
L 45.704528 48.681235 
L 45.769843 48.50657 
L 45.853819 48.68484 
L 45.797835 48.482249 
L 45.884921 48.575364 
L 46.003109 48.371797 
L 45.897362 48.700268 
L 46.00933 48.468517 
L 46.049763 48.650271 
L 46.077755 48.367587 
L 46.118187 48.466581 
L 46.121298 48.453783 
L 46.136849 48.657258 
L 46.195943 48.597039 
L 46.270588 48.687394 
L 46.29547 48.451343 
L 46.388777 48.383095 
L 46.326572 48.692809 
L 46.401217 48.519184 
L 46.488304 48.690819 
L 46.444761 48.263752 
L 46.510075 48.582773 
L 46.5785 48.373247 
L 46.538067 48.679595 
L 46.618933 48.601631 
L 46.684247 48.660918 
L 46.709129 48.37185 
L 46.808656 48.219526 
L 46.765113 48.659074 
L 46.817987 48.370066 
L 46.883302 48.675693 
L 46.923734 48.351666 
L 46.933065 48.26458 
L 46.973498 48.610334 
L 47.026372 48.480895 
L 47.051253 48.323612 
L 47.032592 48.579636 
L 47.107237 48.550747 
L 47.194324 48.632658 
L 47.166332 48.314977 
L 47.216095 48.578179 
L 47.303181 48.178882 
L 47.28141 48.650833 
L 47.334283 48.384956 
L 47.349835 48.69882 
L 47.4307 48.210603 
L 47.446251 48.479044 
L 47.483574 48.220012 
L 47.517786 48.681003 
L 47.555109 48.486926 
L 47.56755 48.681281 
L 47.623534 48.306777 
L 47.667077 48.548833 
L 47.685738 48.255994 
L 47.763494 48.624307 
L 47.775935 48.546964 
L 47.84747 48.677092 
L 47.791486 48.484612 
L 47.884792 48.573384 
L 47.99676 48.196791 
L 47.903454 48.651097 
L 48.006091 48.372895 
L 48.055855 48.679447 
L 48.121169 48.501692 
L 48.230027 48.673423 
L 48.248688 48.595158 
L 48.320223 48.313441 
L 48.27357 48.69711 
L 48.354436 48.596632 
L 48.373097 48.693872 
L 48.407309 48.42922 
L 48.460183 48.550978 
L 48.5566 48.393761 
L 48.509947 48.668502 
L 48.572151 48.510517 
L 48.681009 48.350211 
L 48.634355 48.653896 
L 48.687229 48.428108 
L 48.70278 48.622392 
L 48.792977 48.325987 
L 48.796087 48.296099 
L 48.820969 48.646758 
L 48.876953 48.587816 
L 48.920496 48.673542 
L 48.908055 48.447401 
L 48.97959 48.573868 
L 48.992031 48.426074 
L 49.032464 48.677404 
L 49.082227 48.611379 
L 49.085337 48.68412 
L 49.175534 48.372571 
L 49.187975 48.525961 
L 49.26884 48.661663 
L 49.256399 48.443696 
L 49.299943 48.535575 
L 49.306163 48.458964 
L 49.371478 48.688523 
L 49.4088 48.561351 
L 49.523878 48.68165 
L 49.452343 48.338588 
L 49.526989 48.63786 
L 49.54565 48.324401 
L 49.579862 48.693703 
L 49.642067 48.513449 
L 49.69494 48.64849 
L 49.738484 48.296661 
L 49.754035 48.530087 
L 49.772696 48.532825 
L 49.760255 48.413637 
L 49.782027 48.442078 
L 49.791357 48.332364 
L 49.869113 48.651557 
L 49.890884 48.46923 
L 49.915766 48.672778 
L 49.977971 48.455144 
L 50.009073 48.594606 
L 50.086828 48.542994 
L 50.074387 48.691502 
L 50.121041 48.563106 
L 50.139702 48.391276 
L 50.149033 48.691157 
L 50.198796 48.64035 
L 50.205017 48.659249 
L 50.239229 48.312212 
L 50.282772 48.499898 
L 50.292103 48.419752 
L 50.313874 48.685741 
L 50.382299 48.64964 
L 50.428952 48.404879 
L 50.500487 48.577144 
L 50.519149 48.696552 
L 50.590684 48.516575 
L 50.606235 48.527417 
L 50.609345 48.459497 
L 50.628006 48.654332 
L 50.708872 48.633608 
L 50.780407 48.681995 
L 50.743085 48.363527 
L 50.799069 48.560042 
L 50.81773 48.392581 
L 50.848832 48.590593 
L 50.914147 48.401636 
L 50.970131 48.676124 
L 51.026115 48.439816 
L 51.038556 48.196442 
L 51.066548 48.66171 
L 51.134972 48.419929 
L 51.150523 48.669307 
L 51.231389 48.376991 
L 51.24694 48.631292 
L 51.355798 48.242664 
L 51.365129 48.390921 
L 51.492648 48.667615 
L 51.3869 48.234153 
L 51.501978 48.499755 
L 51.539301 48.186774 
L 51.585954 48.579812 
L 51.610836 48.484036 
L 51.66682 48.606344 
L 51.688592 48.276207 
L 51.716584 48.405668 
L 51.719694 48.396654 
L 51.750796 48.615082 
L 51.753906 48.675129 
L 51.831662 48.228392 
L 51.856543 48.60407 
L 51.906307 48.288056 
L 51.878315 48.653159 
L 51.968511 48.547113 
L 52.058708 48.694822 
L 52.071149 48.443219 
L 52.077369 48.521152 
L 52.102251 48.488916 
L 52.120912 48.689048 
L 52.183117 48.53643 
L 52.195557 48.677444 
L 52.270203 48.323462 
L 52.295084 48.583763 
L 52.391501 48.391472 
L 52.347958 48.671026 
L 52.407052 48.531425 
L 52.463036 48.676539 
L 52.497249 48.376089 
L 52.525241 48.658164 
L 52.553233 48.426984 
L 52.640319 48.501365 
L 52.668311 48.451822 
L 52.65898 48.612185 
L 52.686972 48.551353 
L 52.696303 48.684061 
L 52.783389 48.384358 
L 52.79272 48.471353 
L 52.898467 48.360428 
L 52.864255 48.694478 
L 52.901577 48.365866 
L 52.960672 48.664963 
L 53.013545 48.526061 
L 53.116183 48.3596 
L 53.047758 48.657802 
L 53.125513 48.511893 
L 53.159726 48.39284 
L 53.253032 48.674815 
L 53.340118 48.331908 
L 53.374331 48.485873 
L 53.442756 48.345113 
L 53.405433 48.633979 
L 53.461417 48.617248 
L 53.520511 48.682448 
L 53.489409 48.428787 
L 53.573385 48.63979 
L 53.623148 48.671805 
L 53.663581 48.51038 
L 53.666691 48.391959 
L 53.753778 48.633194 
L 53.775549 48.448267 
L 53.819092 48.66356 
L 53.847084 48.307013 
L 53.893738 48.528943 
L 53.92484 48.341918 
L 53.971493 48.683539 
L 53.999485 48.530708 
L 54.008816 48.696509 
L 54.036808 48.423016 
L 54.111453 48.543816 
L 54.151886 48.695106 
L 54.133224 48.414224 
L 54.186098 48.479466 
L 54.189208 48.334179 
L 54.226531 48.638683 
L 54.294956 48.466682 
L 54.313617 48.696161 
L 54.378932 48.357525 
L 54.416255 48.586415 
L 54.484679 48.404274 
L 54.518892 48.676962 
L 54.525112 48.555249 
L 54.609088 48.403895 
L 54.64019 48.684112 
L 54.674403 48.381723 
L 54.755269 48.530282 
L 54.792591 48.664794 
L 54.839244 48.454681 
L 54.861016 48.568681 
L 54.873457 48.347485 
L 54.91078 48.666081 
L 54.969874 48.58449 
L 54.985425 48.649651 
L 55.038299 48.39734 
L 55.075621 48.572945 
L 55.100503 48.459498 
L 55.131605 48.684628 
L 55.184479 48.619644 
L 55.187589 48.681544 
L 55.234242 48.382232 
L 55.293337 48.572627 
L 55.420856 48.398174 
L 55.333769 48.655037 
L 55.423966 48.409271 
L 55.511052 48.660814 
L 55.495501 48.375091 
L 55.545264 48.546524 
L 55.641681 48.335971 
L 55.570146 48.697468 
L 55.654122 48.502338 
L 55.685224 48.657083 
L 55.747429 48.269899 
L 55.750539 48.256278 
L 55.77231 48.550871 
L 55.825184 48.400577 
L 55.924711 48.637855 
L 55.893609 48.232106 
L 55.946483 48.501724 
L 56.008687 48.693697 
L 55.952703 48.471927 
L 56.05534 48.546458 
L 56.154868 48.208698 
L 56.101994 48.59321 
L 56.176639 48.293547 
L 56.19219 48.105604 
L 56.301048 48.701044 
L 56.319709 48.41807 
L 56.409906 48.610567 
L 56.506322 48.664218 
L 56.434787 48.32034 
L 56.515653 48.511321 
L 56.559196 48.442613 
L 56.568527 48.667113 
L 56.61829 48.635436 
L 56.798683 48.396095 
L 56.624511 48.671887 
L 56.801793 48.430704 
L 56.873328 48.687662 
L 56.854667 48.414475 
L 56.919982 48.647159 
L 57.000847 48.698445 
L 56.972855 48.56093 
L 57.03195 48.6749 
L 57.069272 48.512148 
L 57.063052 48.701713 
L 57.147028 48.591272 
L 57.196791 48.416384 
L 57.234114 48.622181 
L 57.262106 48.55591 
L 57.346082 48.671682 
L 57.305649 48.438378 
L 57.367853 48.53845 
L 57.370964 48.498547 
L 57.402066 48.691913 
L 57.46738 48.652171 
L 57.554467 48.69665 
L 57.535805 48.485489 
L 57.566907 48.58164 
L 57.632222 48.374533 
L 57.585569 48.662204 
L 57.650883 48.615187 
L 57.722418 48.678331 
L 57.675765 48.4308 
L 57.753521 48.520701 
L 57.756631 48.464409 
L 57.772182 48.677542 
L 57.859268 48.529941 
L 57.933913 48.68715 
L 57.899701 48.276718 
L 57.968126 48.489467 
L 58.076984 48.419737 
L 57.989897 48.630068 
L 58.080094 48.471753 
L 58.083204 48.437822 
L 58.151629 48.668011 
L 58.182731 48.523682 
L 58.285368 48.69265 
L 58.188951 48.517543 
L 58.294699 48.607305 
L 58.363124 48.466812 
L 58.344462 48.656314 
L 58.400446 48.645939 
L 58.475092 48.341329 
L 58.506194 48.680391 
L 58.615052 48.422085 
L 58.618162 48.553021 
L 58.639933 48.683789 
L 58.671036 48.437519 
L 58.72702 48.513935 
L 58.761232 48.412572 
L 58.810995 48.692887 
L 58.820326 48.652592 
L 58.845208 48.662085 
L 58.854539 48.524386 
L 58.87009 48.534743 
L 58.87942 48.457262 
L 58.910522 48.663777 
L 58.963396 48.643016 
L 59.025601 48.549781 
L 58.994498 48.688405 
L 59.066034 48.597651 
L 59.118907 48.470784 
L 59.178001 48.691479 
L 59.274418 48.288314 
L 59.314851 48.396817 
L 59.373945 48.655537 
L 59.433039 48.535923 
L 59.495244 48.412216 
L 59.535677 48.608986 
L 59.538787 48.601963 
L 59.625873 48.52433 
L 59.563669 48.68402 
L 59.656975 48.573579 
L 59.7254 48.682796 
L 59.700518 48.455078 
L 59.765833 48.593814 
L 59.837368 48.45606 
L 59.784494 48.667306 
L 59.87158 48.5977 
L 59.915124 48.678124 
L 59.936895 48.405223 
L 59.983548 48.636264 
L 60.00843 48.432412 
L 60.055083 48.663748 
L 60.107957 48.588414 
L 60.210594 48.680859 
L 60.191933 48.351741 
L 60.216815 48.600765 
L 60.303901 48.358279 
L 60.275909 48.688797 
L 60.338114 48.441383 
L 60.443861 48.65553 
L 60.372326 48.399235 
L 60.478073 48.49923 
L 60.518506 48.354273 
L 60.546498 48.654459 
L 60.590041 48.450875 
L 60.649136 48.557102 
L 60.692679 48.345061 
L 60.695789 48.385783 
L 60.705119 48.310868 
L 60.773544 48.606073 
L 60.792206 48.586732 
L 60.85752 48.645044 
L 60.817087 48.292097 
L 60.891733 48.414122 
L 61.009921 48.689131 
L 61.025472 48.591579 
L 61.124999 48.690417 
L 61.14055 48.464694 
L 61.193424 48.684808 
L 61.252518 48.549919 
L 61.361376 48.493153 
L 61.28362 48.672294 
L 61.364486 48.504647 
L 61.376927 48.431035 
L 61.408029 48.621532 
L 61.41425 48.609048 
L 61.498226 48.637972 
L 61.445352 48.411213 
L 61.507556 48.53921 
L 61.538658 48.343688 
L 61.597753 48.673608 
L 61.616414 48.601608 
L 61.622634 48.688622 
L 61.678618 48.459315 
L 61.725272 48.571897 
L 61.731492 48.629577 
L 61.747043 48.57907 
L 61.750153 48.70335 
L 61.812358 48.479911 
L 61.859011 48.619643 
L 61.902554 48.663039 
L 61.865232 48.571363 
L 61.914995 48.544753 
L 61.918105 48.500972 
L 61.939877 48.684888 
L 62.020743 48.585092 
L 62.036294 48.678816 
L 62.117159 48.432885 
L 62.12338 48.353434 
L 62.201135 48.687648 
L 62.216686 48.648963 
L 62.297552 48.470886 
L 62.250899 48.69901 
L 62.344205 48.58285 
L 62.437512 48.691855 
L 62.40952 48.500666 
L 62.449953 48.59571 
L 62.487276 48.395272 
L 62.533929 48.652352 
L 62.565031 48.535621 
L 62.602354 48.683763 
L 62.630346 48.488053 
L 62.673889 48.562819 
L 62.748534 48.673273 
L 62.788967 48.446862 
L 62.876053 48.680768 
L 62.904045 48.588028 
L 62.97869 48.445982 
L 62.922706 48.629974 
L 63.012903 48.591079 
L 63.099989 48.686205 
L 63.053336 48.452784 
L 63.11865 48.56754 
L 63.134201 48.398665 
L 63.202626 48.670866 
L 63.211957 48.622236 
L 63.314594 48.656103 
L 63.271051 48.496307 
L 63.320815 48.65429 
L 63.407901 48.290727 
L 63.355027 48.686083 
L 63.439003 48.522608 
L 63.53853 48.675103 
L 63.519869 48.512879 
L 63.547861 48.563697 
L 63.550971 48.511224 
L 63.647388 48.689011 
L 63.650498 48.631169 
L 63.662939 48.688844 
L 63.728253 48.530185 
L 63.750025 48.579257 
L 63.762466 48.45793 
L 63.834001 48.641523 
L 63.858883 48.584992 
L 63.877544 48.435454 
L 63.896205 48.674925 
L 63.96463 48.614433 
L 64.061047 48.681285 
L 63.983291 48.453617 
L 64.070378 48.642742 
L 64.185456 48.357659 
L 64.095259 48.685093 
L 64.191676 48.36711 
L 64.204117 48.223721 
L 64.228999 48.677286 
L 64.266321 48.521963 
L 64.288093 48.679144 
L 64.362738 48.344615 
L 64.375179 48.478749 
L 64.493367 48.681295 
L 64.484037 48.466103 
L 64.496478 48.664166 
L 64.564903 48.403751 
L 64.617776 48.503054 
L 64.714193 48.692932 
L 64.623997 48.486544 
L 64.729744 48.597321 
L 64.832381 48.338181 
L 64.776398 48.659024 
L 64.844822 48.390348 
L 64.869704 48.677445 
L 64.944349 48.380612 
L 64.963011 48.616503 
L 64.997223 48.678704 
L 65.081199 48.457364 
L 65.112301 48.695807 
L 65.168285 48.445101 
L 65.196277 48.583568 
L 65.270923 48.662194 
L 65.211828 48.296225 
L 65.298914 48.480537 
L 65.389111 48.235069 
L 65.351788 48.553119 
L 65.404662 48.467764 
L 65.432654 48.686265 
L 65.466866 48.385585 
L 65.51352 48.479903 
L 65.538401 48.424798 
L 65.51974 48.577594 
L 65.550842 48.571968 
L 65.553953 48.672054 
L 65.644149 48.200765 
L 65.65348 48.308046 
L 65.725015 48.675557 
L 65.774778 48.633968 
L 65.790329 48.47069 
L 65.874305 48.673117 
L 65.886746 48.574848 
L 65.93962 48.700663 
L 65.94584 48.431847 
L 65.998714 48.58412 
L 66.045367 48.65819 
L 66.07958 48.479316 
L 66.104461 48.517552 
L 66.141784 48.685265 
L 66.203989 48.508637 
L 66.250642 48.687073 
L 66.306626 48.42297 
L 66.312846 48.47046 
L 66.387492 48.660805 
L 66.431035 48.552978 
L 66.490129 48.685834 
L 66.446586 48.515577 
L 66.536782 48.528728 
L 66.64564 48.388656 
L 66.552333 48.667031 
L 66.64875 48.422441 
L 66.717175 48.690562 
L 66.770049 48.665472 
L 66.798041 48.416336 
L 66.882016 48.619947 
L 66.919339 48.67655 
L 66.944221 48.43374 
L 66.990874 48.622766 
L 67.046858 48.37619 
L 67.028197 48.665269 
L 67.099732 48.601407 
L 67.127724 48.680086 
L 67.158826 48.402858 
L 67.2117 48.618072 
L 67.311227 48.501514 
L 67.239692 48.676223 
L 67.320558 48.579122 
L 67.367211 48.671107 
L 67.388982 48.444406 
L 67.432525 48.634147 
L 67.457407 48.436676 
L 67.516501 48.682469 
L 67.544493 48.581227 
L 67.606698 48.420065 
L 67.569375 48.632279 
L 67.650241 48.617837 
L 67.740437 48.677934 
L 67.687563 48.456095 
L 67.755988 48.566561 
L 67.771539 48.406445 
L 67.861736 48.672162 
L 67.939491 48.381236 
L 67.874177 48.695556 
L 67.995475 48.547394 
L 68.007916 48.68094 
L 68.05768 48.363053 
L 68.101223 48.43347 
L 68.107443 48.395746 
L 68.166537 48.662052 
L 68.20386 48.495799 
L 68.303387 48.654968 
L 68.216301 48.38739 
L 68.328269 48.543186 
L 68.418465 48.463767 
L 68.365591 48.645127 
L 68.437127 48.558448 
L 68.48689 48.673894 
L 68.517992 48.436274 
L 68.539764 48.485628 
L 68.567756 48.461184 
L 68.598858 48.597597 
L 68.605078 48.599131 
L 68.608189 48.663692 
L 68.704605 48.441132 
L 68.707716 48.509333 
L 68.76681 48.44618 
L 68.791692 48.657958 
L 68.810353 48.586518 
L 68.872557 48.690415 
L 68.838345 48.398236 
L 68.925431 48.625439 
L 69.040509 48.416374 
L 68.987635 48.68563 
L 69.04673 48.478629 
L 69.093383 48.672951 
L 69.068501 48.476812 
L 69.161808 48.571038 
L 69.177359 48.432556 
L 69.19913 48.693793 
L 69.267555 48.618911 
L 69.320429 48.675186 
L 69.292437 48.427753 
L 69.32976 48.546245 
L 69.410625 48.476796 
L 69.376413 48.684383 
L 69.438617 48.559989 
L 69.447948 48.534765 
L 69.48216 48.646349 
L 69.522593 48.630124 
L 69.531924 48.687132 
L 69.550585 48.371876 
L 69.628341 48.623408 
L 69.681215 48.368354 
L 69.656333 48.676249 
L 69.743419 48.485516 
L 69.818064 48.661751 
L 69.799403 48.405826 
L 69.849166 48.457556 
L 69.855387 48.411231 
L 69.883379 48.631002 
L 69.917591 48.62474 
L 69.964245 48.675561 
L 69.930032 48.54025 
L 69.986016 48.550405 
L 70.03578 48.389957 
L 70.082433 48.682348 
L 70.094874 48.544616 
L 70.101094 48.679249 
L 70.160188 48.215166 
L 70.206842 48.629158 
L 70.228613 48.368647 
L 70.247275 48.650525 
L 70.32192 48.46068 
L 70.359243 48.686185 
L 70.399675 48.328251 
L 70.433888 48.543609 
L 70.499202 48.524251 
L 70.486762 48.687777 
L 70.530305 48.605206 
L 70.636052 48.682658 
L 70.598729 48.521608 
L 70.642273 48.628996 
L 70.713808 48.502465 
L 70.660934 48.686122 
L 70.75424 48.60872 
L 70.816445 48.682019 
L 70.772902 48.46217 
L 70.866208 48.624172 
L 70.965735 48.469592 
L 70.875539 48.67565 
L 70.984397 48.61093 
L 71.043491 48.681362 
L 71.068373 48.354207 
L 71.096365 48.651231 
L 71.130577 48.68867 
L 71.118136 48.520189 
L 71.17723 48.595145 
L 71.239435 48.479744 
L 71.192781 48.680051 
L 71.286088 48.631473 
L 71.379395 48.696205 
L 71.31097 48.493233 
L 71.391836 48.635788 
L 71.407387 48.470053 
L 71.46026 48.69589 
L 71.500693 48.61976 
L 71.522465 48.681812 
L 71.544236 48.520943 
L 71.547347 48.458548 
L 71.621992 48.679331 
L 71.649984 48.56924 
L 71.709078 48.692404 
L 71.677976 48.473154 
L 71.758842 48.597767 
L 71.821046 48.490191 
L 71.768172 48.667812 
L 71.867699 48.612665 
L 71.901912 48.532827 
L 71.905022 48.448538 
L 71.942345 48.67637 
L 72.010769 48.565131 
L 72.035651 48.657309 
L 72.044982 48.530687 
L 72.119627 48.640576 
L 72.16628 48.47875 
L 72.144509 48.646658 
L 72.234705 48.517122 
L 72.250256 48.374781 
L 72.293799 48.604189 
L 72.324902 48.581611 
L 72.390216 48.687573 
L 72.374665 48.434174 
L 72.433759 48.639241 
L 72.492853 48.471278 
L 72.474192 48.654956 
L 72.548837 48.500377 
L 72.564389 48.477713 
L 72.604821 48.662418 
L 72.639034 48.647714 
L 72.682577 48.666345 
L 72.648364 48.56365 
L 72.707459 48.60214 
L 72.72612 48.376442 
L 72.763443 48.694405 
L 72.816316 48.63196 
L 72.841198 48.69413 
L 72.86297 48.442081 
L 72.915843 48.551029 
L 72.918954 48.469766 
L 73.021591 48.680565 
L 73.058914 48.384888 
L 73.136669 48.640743 
L 73.192653 48.702584 
L 73.177102 48.594282 
L 73.236196 48.620388 
L 73.29529 48.456551 
L 73.261078 48.686307 
L 73.348164 48.524704 
L 73.385487 48.674627 
L 73.447691 48.451484 
L 73.460132 48.551785 
L 73.503675 48.692713 
L 73.516116 48.516563 
L 73.5721 48.597914 
L 73.606312 48.694133 
L 73.693398 48.41064 
L 73.749382 48.682009 
L 73.811587 48.635211 
L 73.892452 48.667845 
L 73.842689 48.536583 
L 73.904893 48.574855 
L 73.932885 48.447976 
L 73.948436 48.642306 
L 73.988869 48.618148 
L 74.057294 48.550741 
L 74.100837 48.690811 
L 74.13505 48.464062 
L 74.212805 48.659062 
L 74.253238 48.67991 
L 74.27812 48.4328 
L 74.312332 48.577593 
L 74.321663 48.548432 
L 74.346545 48.696739 
L 74.414969 48.628882 
L 74.480284 48.668337 
L 74.464733 48.46499 
L 74.495835 48.591183 
L 74.592252 48.391866 
L 74.554929 48.668532 
L 74.604693 48.575069 
L 74.673118 48.692563 
L 74.638905 48.4105 
L 74.716661 48.586686 
L 74.806857 48.445641 
L 74.757094 48.67255 
L 74.828629 48.541976 
L 74.8504 48.675282 
L 74.937486 48.476387 
L 74.99347 48.458524 
L 74.965478 48.618975 
L 75.018352 48.551318 
L 75.030793 48.660137 
L 75.092997 48.320632 
L 75.120989 48.433886 
L 75.201855 48.247244 
L 75.183194 48.630417 
L 75.217406 48.571355 
L 75.220516 48.645935 
L 75.257839 48.214216 
L 75.326264 48.597798 
L 75.369807 48.426517 
L 75.41646 48.685024 
L 75.441342 48.498965 
L 75.540869 48.665053 
L 75.453783 48.408305 
L 75.55331 48.533449 
L 75.581302 48.404221 
L 75.565751 48.67742 
L 75.662168 48.519392 
L 75.730593 48.680867 
L 75.743033 48.439869 
L 75.783466 48.629353 
L 75.858112 48.484864 
L 75.799017 48.686457 
L 75.892324 48.667136 
L 75.97319 48.673768 
L 75.957639 48.577176 
L 75.998071 48.640291 
L 76.11315 48.439772 
L 76.013623 48.687275 
L 76.11626 48.495021 
L 76.218897 48.694668 
L 76.237558 48.690139 
L 76.299763 48.469502 
L 76.243779 48.69779 
L 76.355747 48.625435 
L 76.449053 48.690445 
L 76.377518 48.510611 
L 76.464604 48.604364 
L 76.53614 48.704366 
L 76.489486 48.577124 
L 76.573462 48.581412 
L 76.613895 48.418826 
L 76.585903 48.677283 
L 76.669879 48.571149 
L 76.766296 48.536411 
L 76.781847 48.685451 
L 76.915586 48.38945 
L 76.788067 48.691732 
L 76.918697 48.468546 
L 77.005783 48.699696 
L 77.039995 48.653335 
L 77.120861 48.471869 
L 77.058657 48.685992 
L 77.155073 48.534513 
L 77.170624 48.694245 
L 77.242159 48.471212 
L 77.270151 48.615525 
L 77.335466 48.453077 
L 77.288813 48.683009 
L 77.379009 48.610572 
L 77.490977 48.454938 
L 77.441214 48.695234 
L 77.506528 48.580567 
L 77.587394 48.70017 
L 77.602945 48.379377 
L 77.612276 48.520632 
L 77.733574 48.701652 
L 77.66826 48.41433 
L 77.758456 48.555906 
L 77.848652 48.472134 
L 77.798889 48.663258 
L 77.861093 48.637885 
L 77.895306 48.688805 
L 77.879755 48.50014 
L 77.9544 48.559271 
L 77.982392 48.504792 
L 77.976171 48.679266 
L 78.060147 48.627211 
L 78.063258 48.673829 
L 78.144123 48.43893 
L 78.165895 48.598227 
L 78.274753 48.443453 
L 78.181446 48.685795 
L 78.280973 48.459094 
L 78.290304 48.432332 
L 78.405382 48.687551 
L 78.470696 48.488077 
L 78.52046 48.652027 
L 78.598215 48.666468 
L 78.542231 48.518551 
L 78.613767 48.603552 
L 78.644869 48.431073 
L 78.716404 48.626793 
L 78.719514 48.60907 
L 78.750616 48.698117 
L 78.784829 48.440683 
L 78.831482 48.629634 
L 78.878135 48.491842 
L 78.915458 48.690569 
L 78.94345 48.573192 
L 78.974552 48.671297 
L 79.039867 48.548392 
L 79.052308 48.554652 
L 79.08341 48.405525 
L 79.114512 48.670602 
L 79.148724 48.651609 
L 79.22648 48.676899 
L 79.176716 48.504696 
L 79.245141 48.609065 
L 79.254472 48.467011 
L 79.288684 48.652259 
L 79.353999 48.559444 
L 79.456636 48.69119 
L 79.394432 48.545168 
L 79.465967 48.65801 
L 79.478408 48.524272 
L 79.487738 48.695587 
L 79.581045 48.585064 
L 79.65258 48.440809 
L 79.693013 48.684424 
L 79.699233 48.694932 
L 79.811201 48.474215 
L 79.845414 48.678646 
L 79.926279 48.63756 
L 80.044468 48.402307 
L 79.976043 48.697111 
L 80.047578 48.425913 
L 80.116003 48.688328 
L 80.053798 48.406009 
L 80.181317 48.592466 
L 80.252852 48.334763 
L 80.283955 48.653586 
L 80.290175 48.576851 
L 80.36171 48.380566 
L 80.324388 48.645958 
L 80.408364 48.436455 
L 80.417694 48.410525 
L 80.538993 48.687689 
L 80.660291 48.481127 
L 80.663402 48.52158 
L 80.762929 48.671761 
L 80.790921 48.649927 
L 80.899778 48.490116 
L 80.859345 48.691617 
L 80.902888 48.520729 
L 80.980644 48.678055 
L 81.014856 48.643831 
L 81.052179 48.442303 
L 81.024187 48.678698 
L 81.129935 48.484439 
L 81.192139 48.6942 
L 81.245013 48.610293 
L 81.328989 48.512851 
L 81.316548 48.68431 
L 81.360091 48.576224 
L 81.384973 48.684055 
L 81.437846 48.550823 
L 81.475169 48.652489 
L 81.478279 48.683639 
L 81.552924 48.444758 
L 81.584027 48.666806 
L 81.671113 48.438801 
L 81.615129 48.681142 
L 81.699105 48.571534 
L 81.714656 48.694739 
L 81.804852 48.539442 
L 81.807963 48.60245 
L 81.90749 48.406999 
L 81.870167 48.680268 
L 81.91993 48.505577 
L 81.972804 48.650911 
L 82.031898 48.581733 
L 82.115874 48.493908 
L 82.05989 48.696557 
L 82.128315 48.641767 
L 82.168748 48.692677 
L 82.153197 48.49713 
L 82.227842 48.53919 
L 82.234063 48.507063 
L 82.283826 48.668954 
L 82.318039 48.62071 
L 82.411345 48.652815 
L 82.386463 48.453233 
L 82.423786 48.612085 
L 82.498431 48.508257 
L 82.436227 48.680122 
L 82.532644 48.601868 
L 82.62595 48.677155 
L 82.551305 48.506539 
L 82.644612 48.650555 
L 82.731698 48.68468 
L 82.703706 48.473705 
L 82.741029 48.654601 
L 82.800123 48.522548 
L 82.76591 48.682448 
L 82.849886 48.654066 
L 82.980515 48.518825 
L 82.859217 48.688119 
L 82.983626 48.547049 
L 83.095594 48.702256 
L 83.04583 48.526218 
L 83.098704 48.69498 
L 83.114255 48.54303 
L 83.123586 48.470064 
L 83.17957 48.69498 
L 83.213782 48.662489 
L 83.285317 48.687909 
L 83.251105 48.428475 
L 83.313309 48.568781 
L 83.378624 48.481666 
L 83.32575 48.68996 
L 83.419057 48.574112 
L 83.428387 48.701603 
L 83.450159 48.49883 
L 83.534135 48.682964 
L 83.549686 48.517725 
L 83.646103 48.664145 
L 83.705197 48.517623 
L 83.692756 48.691453 
L 83.75807 48.609782 
L 83.776732 48.691733 
L 83.823385 48.469455 
L 83.866928 48.611464 
L 83.870038 48.517898 
L 83.963345 48.684477 
L 83.978896 48.53876 
L 83.997557 48.690285 
L 84.02866 48.531275 
L 84.090864 48.593088 
L 84.199722 48.680448 
L 84.112636 48.399094 
L 84.202832 48.6372 
L 84.227714 48.69716 
L 84.31169 48.500519 
L 84.401886 48.695827 
L 84.423658 48.64868 
L 84.538736 48.421693 
L 84.488972 48.677616 
L 84.557397 48.545736 
L 84.666255 48.685351 
L 84.59783 48.536526 
L 84.669365 48.665161 
L 84.775112 48.419082 
L 84.73468 48.686642 
L 84.784443 48.530053 
L 84.859088 48.692541 
L 84.899521 48.559543 
L 84.933734 48.479431 
L 84.980387 48.700496 
L 85.008379 48.565877 
L 85.101686 48.682052 
L 85.064363 48.524055 
L 85.120347 48.595393 
L 85.17011 48.439916 
L 85.16078 48.673063 
L 85.222984 48.602755 
L 85.226094 48.673486 
L 85.250976 48.436085 
L 85.334952 48.660613 
L 85.387826 48.483185 
L 85.415818 48.686587 
L 85.44692 48.594569 
L 85.462471 48.433615 
L 85.565108 48.654307 
L 85.680186 48.285495 
L 85.642864 48.700918 
L 85.683297 48.351387 
L 85.748611 48.685459 
L 85.798375 48.617283 
L 85.888571 48.496327 
L 85.860579 48.677624 
L 85.901012 48.630946 
L 85.904122 48.691641 
L 85.981878 48.516172 
L 86.00987 48.666708 
L 86.087625 48.481788 
L 86.01609 48.696363 
L 86.121838 48.630015 
L 86.212034 48.680869 
L 86.165381 48.490124 
L 86.236916 48.638629 
L 86.28979 48.546616 
L 86.308451 48.69861 
L 86.345774 48.639333 
L 86.398647 48.688899 
L 86.420419 48.511431 
L 86.44219 48.587002 
L 86.532387 48.523342 
L 86.451521 48.700737 
L 86.547938 48.549549 
L 86.566599 48.676928 
L 86.650575 48.478098 
L 86.659906 48.597821 
L 86.740772 48.687455 
L 86.71589 48.536625 
L 86.768764 48.665735 
L 86.871401 48.5225 
L 86.802976 48.673464 
L 86.883842 48.539482 
L 86.886952 48.457205 
L 86.921164 48.691291 
L 86.989589 48.635826 
L 87.00825 48.472422 
L 87.051794 48.699278 
L 87.104667 48.556918 
L 87.163761 48.691312 
L 87.197974 48.536712 
L 87.219745 48.605938 
L 87.232186 48.510903 
L 87.306832 48.691256 
L 87.325493 48.60139 
L 87.390808 48.699113 
L 87.359705 48.475567 
L 87.43124 48.542614 
L 87.437461 48.500871 
L 87.474783 48.68315 
L 87.518327 48.623854 
L 87.627184 48.686599 
L 87.536988 48.525848 
L 87.633405 48.666137 
L 87.754703 48.473264 
L 87.767144 48.599802 
L 87.779585 48.696548 
L 87.869781 48.494985 
L 87.876002 48.553658 
L 87.879112 48.472075 
L 87.894663 48.675522 
L 87.981749 48.653223 
L 88.068835 48.557381 
L 88.003521 48.680154 
L 88.093717 48.596291 
L 88.146591 48.692409 
L 88.121709 48.524464 
L 88.208795 48.647759 
L 88.311433 48.690456 
L 88.218126 48.561057 
L 88.320763 48.671831 
L 88.358086 48.50848 
L 88.432731 48.621056 
L 88.513597 48.685958 
L 88.479385 48.534692 
L 88.529148 48.628036 
L 88.616234 48.51891 
L 88.582022 48.701257 
L 88.638006 48.652261 
L 88.715761 48.553864 
L 88.675328 48.691338 
L 88.756194 48.640671 
L 88.765525 48.685928 
L 88.830839 48.532016 
L 88.868162 48.669132 
L 88.995681 48.438948 
L 89.036114 48.669998 
L 89.113869 48.662454 
L 89.238278 48.477117 
L 89.12631 48.685743 
L 89.25694 48.613469 
L 89.272491 48.692314 
L 89.316034 48.502068 
L 89.359577 48.522163 
L 89.362687 48.495434 
L 89.381348 48.684036 
L 89.452883 48.640577 
L 89.55241 48.698773 
L 89.465324 48.568944 
L 89.555521 48.612838 
L 89.658158 48.511428 
L 89.580402 48.704039 
L 89.664378 48.633621 
L 89.673709 48.564572 
L 89.770126 48.687276 
L 89.841661 48.494017 
L 89.882094 48.606915 
L 89.990951 48.686976 
L 89.931857 48.538998 
L 89.997172 48.630071 
L 90.009613 48.515285 
L 90.096699 48.682983 
L 90.10914 48.55982 
L 90.118471 48.573871 
L 90.121581 48.669978 
L 90.124691 48.695375 
L 90.196226 48.456128 
L 90.217998 48.571349 
L 90.295753 48.470102 
L 90.264651 48.669567 
L 90.320635 48.611863 
L 90.413941 48.688869 
L 90.420162 48.509699 
L 90.429493 48.637284 
L 90.463705 48.536702 
L 90.482366 48.682171 
L 90.53524 48.661993 
L 90.622326 48.670231 
L 90.603665 48.553964 
L 90.628547 48.580001 
L 90.737404 48.457314 
L 90.721853 48.688503 
L 90.740515 48.468888 
L 90.796498 48.689627 
L 90.746735 48.44807 
L 90.846262 48.478826 
L 90.855593 48.43175 
L 90.871144 48.695327 
L 90.945789 48.606883 
L 90.983112 48.51234 
L 90.970671 48.669378 
L 91.042206 48.61122 
L 91.09819 48.695055 
L 91.057757 48.531169 
L 91.151064 48.576153 
L 91.172835 48.503555 
L 91.207048 48.693163 
L 91.250591 48.6132 
L 91.291023 48.675855 
L 91.347007 48.529908 
L 91.362559 48.400949 
L 91.443424 48.68368 
L 91.452755 48.63147 
L 91.505629 48.675875 
L 91.493188 48.535687 
L 91.561613 48.650746 
L 91.617597 48.469268 
L 91.577164 48.671091 
L 91.676691 48.569802 
L 91.738895 48.522924 
L 91.682911 48.65816 
L 91.745116 48.574284 
L 91.754446 48.697524 
L 91.769997 48.549723 
L 91.857084 48.607457 
L 91.937949 48.542959 
L 91.9535 48.59746 
L 91.965941 48.702553 
L 92.059248 48.530349 
L 92.137003 48.463834 
L 92.08724 48.668448 
L 92.149444 48.578799 
L 92.202318 48.678492 
L 92.174326 48.483751 
L 92.258302 48.639145 
L 92.329837 48.547999 
L 92.304955 48.693361 
L 92.36716 48.66036 
L 92.448025 48.681962 
L 92.432474 48.572055 
L 92.463576 48.584324 
L 92.563103 48.528659 
L 92.51956 48.691566 
L 92.572434 48.552342 
L 92.65019 48.671446 
L 92.628418 48.394536 
L 92.684402 48.590462 
L 92.690622 48.571469 
L 92.715504 48.685462 
L 92.780819 48.606329 
L 92.867905 48.682432 
L 92.880346 48.462352 
L 92.889677 48.615638 
L 92.930109 48.490165 
L 92.911448 48.663402 
L 92.979873 48.60735 
L 92.982983 48.691866 
L 92.989204 48.48049 
L 93.08562 48.568022 
L 93.094951 48.463162 
L 93.169596 48.693517 
L 93.194478 48.600242 
L 93.241131 48.700596 
L 93.284675 48.537383 
L 93.309556 48.664444 
L 93.349989 48.559114 
L 93.315777 48.699113 
L 93.427745 48.59117 
L 93.511721 48.69424 
L 93.533492 48.564006 
L 93.536602 48.567307 
L 93.64546 48.515562 
L 93.617468 48.68545 
L 93.64857 48.564594 
L 93.689003 48.482571 
L 93.710775 48.677849 
L 93.738767 48.607612 
L 93.744987 48.699324 
L 93.7792 48.521714 
L 93.850735 48.662462 
L 93.878727 48.500873 
L 93.856955 48.695675 
L 93.962702 48.665084 
L 94.093332 48.565466 
L 93.968923 48.683989 
L 94.096442 48.597318 
L 94.155536 48.696178 
L 94.121324 48.55843 
L 94.20841 48.667707 
L 94.323488 48.54623 
L 94.239512 48.700259 
L 94.339039 48.628864 
L 94.410574 48.697114 
L 94.367031 48.446938 
L 94.447897 48.610568 
L 94.503881 48.675353 
L 94.454117 48.563034 
L 94.516322 48.535182 
L 94.584746 48.511138 
L 94.569195 48.659402 
L 94.622069 48.527713 
L 94.702935 48.681374 
L 94.681163 48.489999 
L 94.702935 48.681374 
" clip-path="url(#peef30cf9a1)" style="fill: none; stroke: #d62728; stroke-width: 0.5; stroke-linecap: square"/>
   </g>
  </g>
 </g>
 <defs>
  <clipPath id="peef30cf9a1">
   <rect x="0" y="-0" width="99.212598" height="51.023622"/>
  </clipPath>
 </defs>
</svg>
