<?xml version="1.0" encoding="utf-8" standalone="no"?>
<!DOCTYPE svg PUBLIC "-//W3C//DTD SVG 1.1//EN"
  "http://www.w3.org/Graphics/SVG/1.1/DTD/svg11.dtd">
<svg xmlns:xlink="http://www.w3.org/1999/xlink" width="99.212598pt" height="51.023622pt" viewBox="0 0 99.212598 51.023622" xmlns="http://www.w3.org/2000/svg" version="1.1">
 <metadata>
  <rdf:RDF xmlns:dc="http://purl.org/dc/elements/1.1/" xmlns:cc="http://creativecommons.org/ns#" xmlns:rdf="http://www.w3.org/1999/02/22-rdf-syntax-ns#">
   <cc:Work>
    <dc:type rdf:resource="http://purl.org/dc/dcmitype/StillImage"/>
    <dc:date>2024-10-30T10:51:13.470980</dc:date>
    <dc:format>image/svg+xml</dc:format>
    <dc:creator>
     <cc:Agent>
      <dc:title>Matplotlib v3.8.4, https://matplotlib.org/</dc:title>
     </cc:Agent>
    </dc:creator>
   </cc:Work>
  </rdf:RDF>
 </metadata>
 <defs>
  <style type="text/css">*{stroke-linejoin: round; stroke-linecap: butt}</style>
 </defs>
 <g id="figure_1">
  <g id="patch_1">
   <path d="M 0 51.023622 
L 99.212598 51.023622 
L 99.212598 0 
L 0 0 
L 0 51.023622 
z
" style="fill: none"/>
  </g>
  <g id="axes_1">
   <g id="patch_2">
    <path d="M 0 51.023622 
L 99.212598 51.023622 
L 99.212598 -0 
L 0 -0 
L 0 51.023622 
z
" style="fill: none"/>
   </g>
   <g id="matplotlib.axis_1">
    <g id="xtick_1"/>
    <g id="xtick_2"/>
   </g>
   <g id="matplotlib.axis_2">
    <g id="ytick_1"/>
    <g id="ytick_2"/>
   </g>
   <g id="line2d_1">
    <path d="M 4.509664 26.649475 
L 4.643403 31.730862 
L 4.690056 37.423779 
L 4.718048 30.181703 
L 4.795804 2.319256 
L 4.851788 18.879524 
L 4.938874 32.184587 
L 4.976197 24.116619 
L 5.144148 8.357547 
L 5.184581 6.054208 
L 5.225014 11.234753 
L 5.458281 43.576499 
L 5.486273 45.410172 
L 5.526706 39.647999 
L 5.660445 32.655029 
L 5.59513 42.84207 
L 5.672886 33.16764 
L 5.722649 38.170873 
L 5.784854 33.59568 
L 5.850168 17.649266 
L 5.887491 10.639552 
L 5.940365 22.044501 
L 6.01812 42.371577 
L 6.070994 31.002449 
L 6.105206 25.686355 
L 6.16119 35.492658 
L 6.192293 46.277147 
L 6.270048 35.82678 
L 6.30115 32.607032 
L 6.350914 40.315207 
L 6.357134 40.619273 
L 6.400677 35.657862 
L 6.428669 33.028113 
L 6.493984 38.316189 
L 6.599731 45.436814 
L 6.637054 41.610688 
L 6.767683 37.985491 
L 6.699258 42.379121 
L 6.783234 38.553286 
L 6.892092 44.541288 
L 6.913864 40.678298 
L 6.938745 36.878649 
L 6.994729 46.010467 
L 7.066264 48.495304 
L 7.100477 45.401678 
L 7.119138 44.780858 
L 7.181343 47.035346 
L 7.221775 47.238819 
L 7.243547 46.596788 
L 7.402168 41.36512 
L 7.43327 43.795636 
L 7.455042 45.577378 
L 7.526577 41.693984 
L 7.554569 40.358895 
L 7.601222 44.344384 
L 7.610553 44.973522 
L 7.654096 40.60631 
L 7.694529 38.754022 
L 7.744292 42.150313 
L 7.778505 48.421001 
L 7.868701 44.875565 
L 7.899803 48.617416 
L 7.99311 46.363748 
L 8.120629 43.839954 
L 8.12996 43.667477 
L 8.151731 44.691743 
L 8.238817 48.364162 
L 8.297912 46.954065 
L 8.440982 43.304915 
L 8.453423 43.832461 
L 8.465863 44.656678 
L 8.509407 39.052234 
L 8.621374 37.659512 
L 8.56228 42.45521 
L 8.627595 37.856842 
L 8.758224 48.545304 
L 8.916845 47.167249 
L 8.97905 46.472467 
L 9.010152 47.25722 
L 9.072356 48.520239 
L 9.12834 47.660191 
L 9.202986 46.347944 
L 9.252749 46.853482 
L 9.364717 45.569121 
L 9.290072 47.736808 
L 9.383378 46.236357 
L 9.389599 46.447038 
L 9.445583 43.578491 
L 9.489126 38.826319 
L 9.54511 44.522827 
L 9.653968 48.586057 
L 9.672629 46.216827 
L 9.697511 45.587812 
L 9.772156 46.700916 
L 9.778376 46.619524 
L 9.784597 46.478985 
L 9.83125 48.02299 
L 9.837471 48.156259 
L 9.871683 46.285196 
L 9.918336 47.15982 
L 9.921446 47.188064 
L 9.940108 46.371665 
L 9.961879 45.325329 
L 10.027194 46.571057 
L 10.055186 46.053094 
L 10.073847 45.811021 
L 10.11739 47.409088 
L 10.182705 46.529557 
L 10.25424 44.165157 
L 10.297783 45.936878 
L 10.384869 47.335703 
L 10.347547 45.120747 
L 10.403531 46.054345 
L 10.422192 45.086593 
L 10.490617 47.833125 
L 10.499947 48.561206 
L 10.571482 44.711918 
L 10.661679 38.700635 
L 10.615026 44.712488 
L 10.692781 42.622665 
L 10.810969 47.917254 
L 10.829631 47.371218 
L 10.891835 45.929921 
L 10.857623 48.111604 
L 10.919827 47.766317 
L 10.947819 48.594157 
L 10.975811 45.256324 
L 10.991362 44.202396 
L 11.041126 47.187403 
L 11.087779 44.943298 
L 11.090889 44.842403 
L 11.121991 47.071905 
L 11.137542 48.148806 
L 11.193526 47.022056 
L 11.233959 47.308821 
L 11.311715 45.661422 
L 11.345927 47.124178 
L 11.38947 47.777028 
L 11.426793 46.164062 
L 11.454785 47.075174 
L 11.52632 45.7237 
L 11.485887 47.352782 
L 11.554312 47.268115 
L 11.563643 48.03541 
L 11.644508 45.001005 
L 11.66317 44.58358 
L 11.700492 46.905922 
L 11.719154 48.459317 
L 11.787578 44.809819 
L 11.828011 41.769726 
L 11.883995 46.072251 
L 12.002184 48.440401 
L 12.017735 47.588192 
L 12.09238 46.503657 
L 12.123482 47.730478 
L 12.132813 47.843411 
L 12.173246 46.42394 
L 12.204348 46.100274 
L 12.244781 47.520808 
L 12.269663 48.586693 
L 12.325647 47.316378 
L 12.37541 46.430116 
L 12.440725 47.057064 
L 12.546472 48.363208 
L 12.565134 47.232699 
L 12.65844 46.21272 
L 12.624228 48.51847 
L 12.677101 47.034493 
L 12.770408 48.597337 
L 12.789069 47.295925 
L 12.882376 45.1037 
L 12.904147 46.579516 
L 12.907258 46.743538 
L 12.966352 44.565267 
L 13.003675 40.529539 
L 13.056548 46.961837 
L 13.065879 48.295799 
L 13.08454 46.080286 
L 13.168516 47.130598 
L 13.187178 48.27823 
L 13.230721 45.990511 
L 13.292925 48.010713 
L 13.408003 46.526307 
L 13.36446 48.017321 
L 13.426664 47.223094 
L 13.513751 48.213985 
L 13.479538 46.432568 
L 13.538632 47.309689 
L 13.547963 47.190883 
L 13.585286 48.630597 
L 13.607057 48.548403 
L 13.675482 47.39146 
L 13.762568 48.052876 
L 13.78123 48.222304 
L 13.830993 47.167958 
L 13.893197 46.512361 
L 13.918079 48.500258 
L 13.946071 46.678305 
L 14.051819 48.454476 
L 13.983394 45.522964 
L 14.07048 47.503726 
L 14.222881 44.235054 
L 14.120244 48.407604 
L 14.241542 44.907705 
L 14.300636 48.246989 
L 14.35973 45.770693 
L 14.372171 45.375069 
L 14.406384 47.918285 
L 14.412604 48.107197 
L 14.440596 47.038982 
L 14.471698 47.349653 
L 14.49658 45.85282 
L 14.574336 48.035817 
L 14.589887 48.409517 
L 14.648981 47.364516 
L 14.676973 47.770502 
L 14.714296 46.240545 
L 14.788941 47.745537 
L 14.876027 48.673389 
L 14.907129 48.153509 
L 15.009766 47.265915 
L 14.966223 48.551401 
L 15.028428 47.75532 
L 15.037758 47.97523 
L 15.087522 47.232235 
L 15.115514 47.401882 
L 15.131065 46.398067 
L 15.165277 48.236627 
L 15.218151 47.94511 
L 15.267915 48.17542 
L 15.289686 47.572297 
L 15.317678 47.797274 
L 15.429646 45.469538 
L 15.448307 46.392675 
L 15.463859 47.534971 
L 15.532283 44.13914 
L 15.550945 42.898931 
L 15.591378 47.039257 
L 15.610039 46.823145 
L 15.616259 46.687504 
L 15.647362 47.282896 
L 15.687794 48.672107 
L 15.759329 47.386229 
L 15.812203 46.698909 
L 15.790432 48.479375 
L 15.865077 47.697324 
L 15.952163 47.204119 
L 15.899289 47.773171 
L 15.973935 47.546293 
L 16.095233 48.59343 
L 16.04236 45.913348 
L 16.098343 48.308604 
L 16.117005 47.686152 
L 16.163658 48.530639 
L 16.210311 48.093975 
L 16.238303 48.603499 
L 16.322279 48.142248 
L 16.3285 48.07882 
L 16.368933 48.647353 
L 16.409365 48.387563 
L 16.415586 48.595487 
L 16.499562 48.105613 
L 16.515113 48.340368 
L 16.639522 45.783339 
L 16.583538 48.453479 
L 16.655073 46.809922 
L 16.714167 48.30476 
L 16.689285 46.040245 
L 16.773261 48.146338 
L 16.835466 48.534602 
L 16.863458 46.695702 
L 16.869678 46.491389 
L 16.89767 47.773224 
L 16.922552 47.441159 
L 16.956764 48.343691 
L 16.975426 46.834958 
L 17.000307 45.347333 
L 17.065622 47.306893 
L 17.081173 47.162188 
L 17.109165 48.176212 
L 17.165149 46.629577 
L 17.168259 46.635368 
L 17.171369 46.527342 
L 17.218023 48.411241 
L 17.280227 46.605946 
L 17.283337 46.558561 
L 17.311329 47.648962 
L 17.32688 48.529651 
L 17.392195 47.215111 
L 17.420187 47.508646 
L 17.423297 47.511396 
L 17.445069 48.251221 
L 17.494832 46.774954 
L 17.535265 47.835668 
L 17.60369 46.460203 
L 17.547706 47.979954 
L 17.647233 47.636931 
L 17.724989 48.446397 
L 17.74676 47.165768 
L 17.784083 46.930618 
L 17.808965 47.747754 
L 17.852508 48.293272 
L 17.868059 47.482774 
L 17.902271 47.567798 
L 18.02668 46.827231 
L 17.980027 48.048999 
L 18.02979 46.884372 
L 18.067113 48.326836 
L 18.110656 46.727462 
L 18.16975 47.418519 
L 18.197742 45.344927 
L 18.281718 47.092523 
L 18.300379 47.045971 
L 18.287938 47.195493 
L 18.30971 47.163945 
L 18.412347 47.889172 
L 18.381245 45.447629 
L 18.418568 47.40916 
L 18.434119 46.484109 
L 18.474552 48.642641 
L 18.533646 46.734552 
L 18.536756 46.671667 
L 18.58652 47.784111 
L 18.59896 48.541184 
L 18.626952 46.481866 
L 18.704708 48.281182 
L 18.782463 47.37688 
L 18.720259 48.409253 
L 18.816676 48.25634 
L 18.819786 48.259513 
L 18.822896 48.149027 
L 18.888211 47.324291 
L 18.853998 48.458335 
L 18.919313 48.368638 
L 19.028171 48.633023 
L 18.997069 47.77241 
L 19.034391 48.593629 
L 19.037501 48.630684 
L 19.068604 47.786226 
L 19.077934 47.86814 
L 19.081045 47.791725 
L 19.146359 48.46587 
L 19.16502 48.45259 
L 19.264547 48.638766 
L 19.233445 48.025126 
L 19.270768 48.524861 
L 19.364075 47.73575 
L 19.311201 48.529141 
L 19.392067 48.036652 
L 19.426279 48.626036 
L 19.454271 47.67517 
L 19.479153 48.096221 
L 19.563129 46.653759 
L 19.513365 48.534238 
L 19.58801 48.206448 
L 19.594231 48.35823 
L 19.622223 47.471753 
L 19.72797 46.514075 
L 19.671986 48.318716 
L 19.740411 46.716997 
L 19.793285 47.910424 
L 19.855489 46.916492 
L 19.883481 45.207994 
L 19.939465 48.683426 
L 19.955016 48.029691 
L 19.983008 47.771716 
L 20.017221 48.464093 
L 20.045213 48.267231 
L 20.082535 48.577654 
L 20.138519 47.79718 
L 20.247377 47.557626 
L 20.219385 48.282697 
L 20.250487 47.597674 
L 20.262928 47.742681 
L 20.28781 47.280121 
L 20.343794 46.511381 
L 20.381116 47.736849 
L 20.393557 48.393612 
L 20.43088 47.007738 
L 20.496195 48.037653 
L 20.511746 48.096127 
L 20.530407 47.865297 
L 20.623714 47.245067 
L 20.555289 47.930091 
L 20.645485 47.721223 
L 20.738792 46.966484 
L 20.689028 47.809602 
L 20.757453 47.650747 
L 20.782335 48.224709 
L 20.85698 47.291688 
L 20.894303 47.11218 
L 20.909854 47.517552 
L 21.034263 48.650467 
L 20.968948 47.163059 
L 21.037373 48.486107 
L 21.121349 47.421062 
L 21.155561 47.823077 
L 21.192884 48.411034 
L 21.267529 45.652722 
L 21.28308 45.146486 
L 21.326623 47.671993 
L 21.373277 48.623126 
L 21.42615 47.032555 
L 21.429261 47.130696 
L 21.457253 46.290712 
L 21.491465 48.434293 
L 21.507016 48.215683 
L 21.541229 47.360614 
L 21.615874 48.104361 
L 21.628315 48.591944 
L 21.665637 46.979683 
L 21.730952 48.423363 
L 21.734062 48.436803 
L 21.746503 48.086802 
L 21.821148 48.633833 
L 21.877132 47.108994 
L 22.045084 48.663664 
L 22.060635 48.231123 
L 22.144611 47.421878 
L 22.175713 47.857533 
L 22.297012 48.608718 
L 22.306343 48.30949 
L 22.362327 47.838128 
L 22.393429 48.559887 
L 22.421421 48.129534 
L 22.452523 48.621759 
L 22.477405 47.837251 
L 22.527168 48.048824 
L 22.601814 46.934529 
L 22.573822 48.553217 
L 22.623585 48.076165 
L 22.660908 48.555958 
L 22.68579 46.83189 
L 22.723112 47.476005 
L 22.83508 48.319508 
L 22.863072 48.192854 
L 22.943938 47.751113 
L 22.900395 48.456242 
L 22.965709 48.246832 
L 22.98126 48.471362 
L 23.037244 47.094292 
L 23.046575 46.883483 
L 23.099449 48.338525 
L 23.105669 48.53488 
L 23.177204 47.222348 
L 23.211417 48.418494 
L 23.236298 47.419054 
L 23.239409 47.31956 
L 23.317164 48.29866 
L 23.329605 48.605013 
L 23.376258 47.695349 
L 23.472675 47.26136 
L 23.422912 48.283606 
L 23.500667 47.526308 
L 23.54421 47.90118 
L 23.640627 48.452884 
L 23.606415 47.694378 
L 23.662399 48.18348 
L 23.758815 48.521185 
L 23.668619 48.105233 
L 23.777477 48.282592 
L 23.81791 47.539425 
L 23.880114 48.695569 
L 24.013854 47.190783 
L 24.048066 47.568658 
L 24.076058 48.639807 
L 24.125821 47.30917 
L 24.156924 47.60116 
L 24.163144 47.530438 
L 24.200467 47.930162 
L 24.306214 48.697536 
L 24.234679 47.530641 
L 24.324876 48.486787 
L 24.327986 48.601033 
L 24.405741 47.584888 
L 24.408851 47.607422 
L 24.411962 47.582133 
L 24.433733 48.24282 
L 24.436843 48.159152 
L 24.464835 48.639861 
L 24.511489 46.828242 
L 24.517709 46.667657 
L 24.573693 47.692441 
L 24.589244 48.317688 
L 24.642118 47.492919 
L 24.688771 48.07163 
L 24.729204 46.515529 
L 24.797629 48.110533 
L 24.853613 48.247154 
L 24.875384 47.459523 
L 24.887825 46.958557 
L 24.915817 48.628462 
L 24.95936 48.283723 
L 24.965581 48.453381 
L 24.993573 47.507587 
L 25.074439 46.868682 
L 25.021565 47.848185 
L 25.09621 47.737408 
L 25.158414 48.645643 
L 25.223729 48.3186 
L 25.23617 48.583874 
L 25.254831 48.035763 
L 25.261052 48.141532 
L 25.37613 47.719464 
L 25.307705 48.660809 
L 25.37924 47.806094 
L 25.441445 48.527027 
L 25.528531 48.494748 
L 25.534751 48.550204 
L 25.553412 48.057965 
L 25.578294 47.731508 
L 25.609396 48.402963 
L 25.65916 48.046787 
L 25.733805 48.616736 
L 25.687152 47.578691 
L 25.771128 48.159855 
L 25.80223 47.496772 
L 25.830222 48.603493 
L 25.861324 48.378255 
L 25.864434 48.379911 
L 25.886206 47.466089 
L 25.979513 48.046413 
L 26.010615 48.560496 
L 26.075929 47.628445 
L 26.08837 47.220769 
L 26.169236 48.319672 
L 26.184787 48.687059 
L 26.240771 47.021803 
L 26.253212 47.163192 
L 26.256322 47.15534 
L 26.259432 47.22368 
L 26.321637 46.299803 
L 26.383841 48.406649 
L 26.414943 48.585289 
L 26.455376 47.910069 
L 26.520691 47.462215 
L 26.489589 48.570678 
L 26.539352 48.225351 
L 26.623328 48.52982 
L 26.638879 47.753343 
L 26.6451 47.659543 
L 26.716635 48.240866 
L 26.775729 48.680264 
L 26.806831 47.794755 
L 26.844154 46.961257 
L 26.906358 48.185804 
L 26.909468 48.184685 
L 27.021436 48.616914 
L 26.974783 48.118927 
L 27.027657 48.44166 
L 27.186278 47.408922 
L 27.192498 47.554191 
L 27.239152 48.168381 
L 27.276474 47.400158 
L 27.307577 47.921851 
L 27.385332 47.363844 
L 27.407104 47.881795 
L 27.416434 48.528596 
L 27.453757 47.179586 
L 27.525292 48.389599 
L 27.540843 48.6342 
L 27.568835 47.788143 
L 27.606158 47.201528 
L 27.63415 48.630238 
L 27.668362 48.242167 
L 27.770999 48.633608 
L 27.690134 47.475445 
L 27.77411 48.379326 
L 27.839424 48.397475 
L 27.907849 46.331561 
L 27.910959 46.314352 
L 27.91718 46.769796 
L 28.026037 48.154562 
L 28.050919 47.878282 
L 28.05714 47.81601 
L 28.06025 47.895924 
L 28.153556 48.47269 
L 28.128675 47.493986 
L 28.165997 47.774944 
L 28.172218 47.615267 
L 28.218871 48.461225 
L 28.259304 48.403693 
L 28.293516 48.584918 
L 28.327729 47.987221 
L 28.365051 48.349099 
L 28.48946 47.728817 
L 28.408594 48.610112 
L 28.49257 47.750418 
L 28.536113 48.679548 
L 28.607649 48.303453 
L 28.62631 48.629107 
L 28.669853 48.003769 
L 28.716506 48.266096 
L 28.732057 47.96908 
L 28.791152 48.681428 
L 28.834695 48.077419 
L 28.91556 48.69168 
L 28.952883 48.415262 
L 29.005757 47.928116 
L 29.027528 48.57761 
L 29.061741 48.299541 
L 29.074182 48.634074 
L 29.142606 47.258278 
L 29.145717 47.214667 
L 29.173709 48.196594 
L 29.19237 48.601837 
L 29.285677 48.557394 
L 29.313668 47.845635 
L 29.375873 48.603615 
L 29.406975 48.219746 
L 29.422526 48.608387 
L 29.438077 47.764675 
L 29.450518 46.900128 
L 29.48162 48.031213 
L 29.546935 47.73547 
L 29.571817 46.80845 
L 29.602919 48.453406 
L 29.627801 48.387861 
L 29.677564 48.661727 
L 29.705556 47.945035 
L 29.736658 48.395887 
L 29.833075 47.153702 
L 29.786422 48.42162 
L 29.861067 47.922005 
L 29.892169 48.380471 
L 29.917051 47.802625 
L 29.973035 48.096808 
L 29.976145 48.094252 
L 29.979256 48.18547 
L 30.029019 48.513729 
L 30.013468 47.963218 
L 30.085003 48.068509 
L 30.103664 48.53353 
L 30.106775 48.654758 
L 30.18142 47.421881 
L 30.18764 47.483669 
L 30.190751 47.436152 
L 30.243624 48.296785 
L 30.302718 48.004181 
L 30.268506 48.384792 
L 30.349372 48.299583 
L 30.383584 48.476433 
L 30.424017 47.455589 
L 30.439568 47.711278 
L 30.480001 48.242659 
L 30.452009 47.685948 
L 30.551536 47.871505 
L 30.560867 47.683996 
L 30.651063 48.349291 
L 30.74437 48.629852 
L 30.713268 47.831592 
L 30.759921 48.320541 
L 30.766141 48.331943 
L 30.778582 48.193598 
L 30.89677 47.817608 
L 31.002518 48.60459 
L 30.934093 47.760848 
L 31.018069 48.252221 
L 31.046061 48.593874 
L 31.080273 47.54544 
L 31.083384 47.393866 
L 31.16736 48.602007 
L 31.192241 47.504476 
L 31.195352 47.484859 
L 31.207792 47.913183 
L 31.223344 48.507235 
L 31.266887 47.762356 
L 31.31976 48.012292 
L 31.332201 48.672633 
L 31.409957 47.431824 
L 31.465941 47.00652 
L 31.441059 48.465471 
L 31.515704 47.727489 
L 31.612121 48.074644 
L 31.553027 46.773456 
L 31.624562 47.871325 
L 31.637003 47.500662 
L 31.714758 48.636516 
L 31.73964 47.593762 
L 31.761412 48.588896 
L 31.88271 48.050949 
L 31.951135 48.566311 
L 31.892041 47.849265 
L 31.976017 48.003603 
L 31.988458 47.76952 
L 32.02578 48.509909 
L 32.084875 48.09948 
L 32.119087 48.597577 
L 32.181291 48.042397 
L 32.196842 48.166083 
L 32.203063 48.128401 
L 32.221724 48.538801 
L 32.224834 48.468657 
L 32.268378 48.686613 
L 32.290149 48.285109 
L 32.336802 48.579604 
L 32.408337 47.82931 
L 32.343023 48.588325 
L 32.44877 48.494312 
L 32.458101 48.561354 
L 32.470542 48.318222 
L 32.504754 48.131526 
L 32.538967 48.526142 
L 32.5794 48.4085 
L 32.58251 48.590151 
L 32.682037 47.936989 
L 32.769123 48.488698 
L 32.710029 47.911901 
L 32.790895 47.94716 
L 32.803335 47.586923 
L 32.87487 48.582633 
L 32.890422 48.451532 
L 32.924634 47.997741 
L 32.965067 48.58411 
L 32.993059 48.45849 
L 33.061484 48.634383 
L 33.021051 47.471278 
L 33.077035 48.033823 
L 33.198333 46.974487 
L 33.105027 48.621989 
L 33.204554 47.156988 
L 33.232546 48.398992 
L 33.316522 47.357774 
L 33.319632 47.320159 
L 33.338293 48.099017 
L 33.381836 47.702289 
L 33.397387 48.398557 
L 33.450261 47.522491 
L 33.500025 48.185474 
L 33.503135 48.159188 
L 33.528017 48.656511 
L 33.57778 48.438179 
L 33.664866 48.612155 
L 33.636874 47.447493 
L 33.677307 48.093859 
L 33.683528 47.794649 
L 33.779944 48.61726 
L 33.783055 48.62583 
L 33.792385 48.466057 
L 33.798606 48.47596 
L 33.814157 48.034751 
L 33.910574 48.320603 
L 34.031872 47.762187 
L 33.947896 48.563454 
L 34.034983 47.904791 
L 34.072305 48.690391 
L 34.162502 48.389203 
L 34.178053 48.068808 
L 34.258918 48.566148 
L 34.265139 48.488342 
L 34.268249 48.56936 
L 34.330453 47.646979 
L 34.346005 47.722294 
L 34.352225 47.569969 
L 34.42687 48.525997 
L 34.433091 48.635014 
L 34.476634 48.256782 
L 34.529508 48.440348 
L 34.554389 48.437819 
L 34.538838 48.504227 
L 34.56061 48.51654 
L 34.56683 48.648486 
L 34.604153 48.060105 
L 34.672578 48.543989 
L 34.71301 47.827621 
L 34.790766 48.152787 
L 34.868521 47.817563 
L 34.84053 48.651342 
L 34.890293 48.422387 
L 34.905844 48.639027 
L 34.940057 47.820063 
L 34.98982 48.313976 
L 35.095568 47.618375 
L 35.020922 48.475351 
L 35.108008 47.721962 
L 35.13289 48.592588 
L 35.219976 47.90431 
L 35.291511 46.980764 
L 35.241748 48.669435 
L 35.325724 48.017504 
L 35.4097 48.573388 
L 35.372377 47.842564 
L 35.434582 47.985726 
L 35.540329 48.549881 
L 35.55899 48.16967 
L 35.577652 47.690258 
L 35.621195 48.581228 
L 35.667848 48.144571 
L 35.683399 48.669318 
L 35.770485 48.010807 
L 35.776706 48.107348 
L 35.782926 48.043558 
L 35.829579 48.519872 
L 35.860682 48.279276 
L 35.907335 48.60801 
L 35.929107 48.07246 
L 35.97265 48.326831 
L 35.98198 48.280515 
L 35.988201 48.403214 
L 35.994421 48.577529 
L 36.050405 47.964416 
L 36.093948 48.307714 
L 36.131271 48.434221 
L 36.106389 48.237977 
L 36.171704 48.230208 
L 36.181034 47.954117 
L 36.26501 48.614122 
L 36.280561 48.298827 
L 36.361427 48.091909 
L 36.314774 48.502464 
L 36.383199 48.492269 
L 36.39564 48.65218 
L 36.457844 47.815385 
L 36.485836 48.441351 
L 36.554261 47.554102 
L 36.597804 48.355709 
L 36.644457 48.582351 
L 36.68489 48.072589 
L 36.768866 47.632467 
L 36.737764 48.465792 
L 36.793748 47.949385 
L 36.82174 48.562199 
L 36.890165 47.471441 
L 36.902605 46.990815 
L 36.980361 48.421671 
L 36.983471 48.617271 
L 37.061227 47.384536 
L 37.079888 47.843796 
L 37.098549 47.894436 
L 37.120321 48.521047 
L 37.163864 47.44046 
L 37.207407 47.899097 
L 37.263391 47.872948 
L 37.232289 48.60061 
L 37.275832 48.069953 
L 37.288273 48.632083 
L 37.378469 47.877628 
L 37.38469 47.991382 
L 37.518429 48.584542 
L 37.418902 47.652285 
L 37.52776 48.582537 
L 37.552641 47.746319 
L 37.627287 48.635216 
L 37.642838 48.312154 
L 37.745475 48.456146 
L 37.658389 48.052985 
L 37.754806 48.331001 
L 37.857443 47.76336 
L 37.81079 48.67891 
L 37.882325 47.946744 
L 37.907206 48.555923 
L 38.012954 48.431795 
L 38.016064 48.369918 
L 38.050277 48.679466 
L 38.115591 48.566838 
L 38.118701 48.613502 
L 38.162245 48.14303 
L 38.193347 48.269882 
L 38.292874 47.786962 
L 38.221339 48.413581 
L 38.308425 47.946158 
L 38.417283 48.587176 
L 38.327086 47.858319 
L 38.426613 48.102853 
L 38.495038 47.885887 
L 38.470156 48.653793 
L 38.532361 48.23442 
L 38.572794 48.691405 
L 38.591455 48.114831 
L 38.644329 48.292701 
L 38.66299 48.621756 
L 38.681651 48.058018 
L 38.743856 48.104452 
L 38.787399 47.988755 
L 38.759407 48.347236 
L 38.812281 48.193074 
L 38.827832 48.580734 
L 38.918028 47.922139 
L 39.008224 47.473146 
L 38.974012 48.487371 
L 39.014445 47.98468 
L 39.023775 48.511228 
L 39.039327 47.686989 
L 39.126413 48.227891 
L 39.157515 47.347712 
L 39.138854 48.651696 
L 39.23527 48.223538 
L 39.278814 48.593556 
L 39.319246 47.738015 
L 39.322357 47.707242 
L 39.344128 48.544276 
L 39.37212 48.151443 
L 39.400112 47.826498 
L 39.490308 48.580295 
L 39.546292 48.125444 
L 39.50897 48.619737 
L 39.605387 48.390884 
L 39.620938 48.663783 
L 39.65204 48.075917 
L 39.711134 48.3352 
L 39.80133 47.94679 
L 39.751567 48.626919 
L 39.819992 48.35217 
L 39.875976 48.666957 
L 39.93507 48.597417 
L 39.975503 48.082002 
L 40.050148 48.471411 
L 40.155896 48.624086 
L 40.087471 48.346306 
L 40.162116 48.606501 
L 40.255423 48.095911 
L 40.183888 48.693204 
L 40.289635 48.166394 
L 40.326958 48.698634 
L 40.373611 48.053007 
L 40.423375 48.617876 
L 40.451366 48.1517 
L 40.538453 48.488033 
L 40.547783 48.673577 
L 40.619318 47.928638 
L 40.64109 48.260743 
L 40.653531 48.158327 
L 40.672192 48.392678 
L 40.678413 48.631874 
L 40.715735 47.826501 
L 40.77794 48.243458 
L 40.805932 47.977823 
L 40.79038 48.398701 
L 40.821483 48.328059 
L 40.830813 48.578793 
L 40.883687 47.663865 
L 40.93034 48.406407 
L 40.964553 47.883154 
L 40.989435 48.567561 
L 41.036088 48.301982 
L 41.076521 48.658754 
L 41.110733 47.789021 
L 41.141835 48.251328 
L 41.21337 47.711656 
L 41.172938 48.592369 
L 41.250693 48.101809 
L 41.328449 48.654455 
L 41.35022 47.816061 
L 41.356441 47.882519 
L 41.48396 48.665233 
L 41.4964 48.584301 
L 41.586597 47.78015 
L 41.605258 48.498482 
L 41.611479 48.666435 
L 41.683014 47.85414 
L 41.689234 47.7835 
L 41.763879 48.326844 
L 41.76699 48.276689 
L 41.798092 48.548373 
L 41.816753 48.113896 
L 41.891398 48.481369 
L 41.944272 47.971138 
L 42.000256 48.515368 
L 42.046909 48.68249 
L 42.096673 48.273437 
L 42.099783 48.334735 
L 42.146436 47.815467 
L 42.20242 48.594968 
L 42.320609 48.250775 
L 42.255294 48.650515 
L 42.323719 48.269497 
L 42.357931 48.379873 
L 42.34238 48.137759 
L 42.373482 48.239321 
L 42.392144 47.735885 
L 42.441907 48.669517 
L 42.48234 48.242316 
L 42.600529 48.665815 
L 42.510332 47.770404 
L 42.603639 48.583889 
L 42.668953 48.142945 
L 42.690725 48.632058 
L 42.712496 48.532818 
L 42.715607 48.632098 
L 42.752929 48.042793 
L 42.815134 48.399463 
L 42.833795 48.111116 
L 42.89911 48.613182 
L 42.917771 48.44826 
L 42.927102 48.679209 
L 42.973755 47.511346 
L 43.023518 48.356372 
L 43.129266 47.692601 
L 43.076392 48.611698 
L 43.141707 47.980059 
L 43.247454 48.616778 
L 43.194581 47.581277 
L 43.263005 48.360987 
L 43.350092 48.050596 
L 43.281667 48.608452 
L 43.374973 48.168202 
L 43.483831 48.464955 
L 43.402965 47.81304 
L 43.490051 48.437168 
L 43.558476 48.585363 
L 43.533595 48.167108 
L 43.589579 48.263925 
L 43.670444 47.74069 
L 43.689106 48.526553 
L 43.782412 48.678129 
L 43.713987 48.18045 
L 43.797963 48.651763 
L 43.89749 48.069246 
L 43.909931 48.375771 
L 43.950364 48.656018 
L 43.965915 48.270348 
L 44.015679 48.364295 
L 44.043671 48.165513 
L 44.115206 48.573209 
L 44.118316 48.53267 
L 44.227174 48.636092 
L 44.164969 47.973226 
L 44.230284 48.580842 
L 44.280047 48.279933 
L 44.292488 48.682694 
L 44.342252 48.53111 
L 44.357803 48.644704 
L 44.404456 48.068665 
L 44.407566 48.121842 
L 44.413787 48.037488 
L 44.479101 48.431342 
L 44.482212 48.595213 
L 44.541306 48.050391 
L 44.584849 48.231928 
L 44.706148 48.696401 
L 44.668825 48.126335 
L 44.709258 48.532955 
L 44.721699 47.971458 
L 44.74347 48.65062 
L 44.818115 48.440333 
L 44.917642 48.631658 
L 44.867879 47.835783 
L 44.926973 48.466272 
L 45.02028 47.479556 
L 45.048272 48.230052 
L 45.054492 48.545825 
L 45.126027 48.054983 
L 45.16024 48.301202 
L 45.172681 48.576349 
L 45.216224 48.04897 
L 45.293979 47.982578 
L 45.247326 48.663896 
L 45.30953 48.30892 
L 45.396616 48.551818 
L 45.337522 47.859612 
L 45.418388 48.254144 
L 45.489923 48.486736 
L 45.44638 48.099967 
L 45.521025 48.114697 
L 45.524135 48.113834 
L 45.527246 48.210089 
L 45.564568 48.626294 
L 45.601891 48.014971 
L 45.617442 47.918602 
L 45.670316 48.549719 
L 45.698308 48.18599 
L 45.7263 48.678558 
L 45.822717 48.49588 
L 45.928464 48.251015 
L 45.897362 48.546912 
L 45.934684 48.422569 
L 45.944015 48.691063 
L 45.996889 47.87546 
L 46.037322 48.371159 
L 46.130628 48.272612 
L 46.062203 48.622889 
L 46.143069 48.4202 
L 46.161731 48.665692 
L 46.227045 48.367769 
L 46.230155 48.423252 
L 46.264368 47.795049 
L 46.342123 48.322703 
L 46.345233 48.322236 
L 46.360785 48.60579 
L 46.413658 47.874697 
L 46.460312 48.539038 
L 46.556728 47.960742 
L 46.497634 48.599765 
L 46.597161 48.325559 
L 46.653145 48.551327 
L 46.696688 47.962795 
L 46.802436 47.648918 
L 46.730901 48.581014 
L 46.811766 47.811955 
L 46.901963 48.54528 
L 46.926845 48.10057 
L 46.942396 47.736846 
L 46.967277 48.339462 
L 47.045033 47.936657 
L 47.063694 48.67953 
L 47.14767 47.846982 
L 47.157001 48.030935 
L 47.175662 47.860218 
L 47.188103 47.726891 
L 47.247197 48.486892 
L 47.272079 48.347018 
L 47.28141 48.508804 
L 47.337394 47.699603 
L 47.359165 47.758134 
L 47.368496 47.461741 
L 47.449362 48.377237 
L 47.514676 48.644369 
L 47.474243 48.283144 
L 47.56444 48.443113 
L 47.660857 47.779616 
L 47.607983 48.605589 
L 47.679518 48.085313 
L 47.701289 48.664912 
L 47.791486 48.150618 
L 47.813257 48.664696 
L 47.859911 47.948124 
L 47.906564 48.302327 
L 48.006091 47.964165 
L 47.956327 48.642909 
L 48.018532 48.213451 
L 48.108728 48.66751 
L 48.13361 48.420076 
L 48.226917 48.325757 
L 48.177153 48.663983 
L 48.239357 48.470476 
L 48.248688 48.687165 
L 48.267349 48.270415 
L 48.338885 48.270963 
L 48.341995 48.176096 
L 48.41975 48.60414 
L 48.438412 48.576022 
L 48.472624 48.644906 
L 48.528608 48.280259 
L 48.55349 48.122211 
L 48.603253 48.665264 
L 48.628135 48.351141 
L 48.736993 48.623526 
L 48.712111 48.115291 
L 48.749434 48.546403 
L 48.780536 48.042019 
L 48.808528 48.602485 
L 48.864512 48.364435 
L 48.880063 48.652229 
L 48.936047 48.1716 
L 48.973369 48.48119 
L 49.069786 47.90327 
L 49.091558 48.16066 
L 49.097778 48.03909 
L 49.138211 48.512191 
L 49.175534 48.327886 
L 49.191085 48.654848 
L 49.212856 47.593249 
L 49.256399 47.829141 
L 49.26884 47.44855 
L 49.296832 48.642262 
L 49.355926 48.578399 
L 49.464784 47.909532 
L 49.477225 48.18648 
L 49.486556 48.665275 
L 49.498997 47.914558 
L 49.592303 48.566187 
L 49.629626 48.655825 
L 49.651397 48.024501 
L 49.68561 48.38246 
L 49.782027 48.054789 
L 49.716712 48.551715 
L 49.794468 48.297454 
L 49.872223 48.645547 
L 49.890884 48.17505 
L 49.903325 47.832177 
L 49.959309 48.637937 
L 49.999742 48.246216 
L 50.102379 48.048561 
L 50.086828 48.513035 
L 50.1086 48.183801 
L 50.152143 48.635396 
L 50.236119 48.592179 
L 50.348087 48.082308 
L 50.310764 48.672368 
L 50.385409 48.34765 
L 50.39785 48.622366 
L 50.456944 48.303923 
L 50.500487 48.567458 
L 50.581353 48.643699 
L 50.590684 48.372404 
L 50.612455 48.586661 
L 50.628006 48.624411 
L 50.634227 48.408383 
L 50.652888 47.928312 
L 50.68088 48.492464 
L 50.755526 48.039221 
L 50.758636 47.948095 
L 50.81462 48.668853 
L 50.855053 48.279898 
L 50.876824 48.61402 
L 50.945249 48.159384 
L 50.970131 48.572241 
L 51.060327 47.984933 
L 51.113201 48.267745 
L 51.200287 48.682612 
L 51.162964 48.094932 
L 51.225169 48.356398 
L 51.293594 47.916627 
L 51.23761 48.541358 
L 51.349578 48.022551 
L 51.418002 48.661657 
L 51.436664 47.929138 
L 51.486427 48.205365 
L 51.514419 47.761918 
L 51.52997 48.548684 
L 51.598395 48.089009 
L 51.613946 48.505402 
L 51.707253 48.046725 
L 51.710363 48.159836 
L 51.800559 47.908646 
L 51.722804 48.250292 
L 51.80678 48.170871 
L 51.816111 48.669892 
L 51.921858 48.49786 
L 51.987173 47.744859 
L 52.018275 48.650518 
L 52.030716 48.547217 
L 52.064928 48.104032 
L 52.124022 48.688475 
L 52.158235 48.240639 
L 52.22977 48.694545 
L 52.170676 48.070823 
L 52.288864 48.528322 
L 52.385281 48.658369 
L 52.413273 48.011696 
L 52.431934 48.639178 
L 52.534571 48.494425 
L 52.602996 48.640061 
L 52.553233 48.184761 
L 52.643429 48.511456 
L 52.668311 48.128162 
L 52.686972 48.539964 
L 52.758507 48.397936 
L 52.777169 48.671657 
L 52.826932 48.173465 
L 52.864255 48.396144 
L 52.895357 48.08163 
L 52.929569 48.645167 
L 52.973112 48.483244 
L 53.053978 48.639523 
L 53.016655 48.366029 
L 53.091301 48.63066 
L 53.150395 48.075037 
L 53.209489 48.219367 
L 53.309016 48.681482 
L 53.324567 48.269266 
L 53.330788 48.204262 
L 53.343229 48.54351 
L 53.346339 48.656588 
L 53.430315 48.358043 
L 53.448976 48.378033 
L 53.50807 48.234312 
L 53.523621 48.540874 
L 53.526732 48.640414 
L 53.570275 48.037712 
L 53.616928 48.070568 
L 53.629369 47.787497 
L 53.713345 48.467823 
L 53.769329 48.582111 
L 53.735116 47.954413 
L 53.819092 48.377101 
L 53.853305 48.218106 
L 53.840864 48.633495 
L 53.903068 48.449332 
L 53.93417 47.816947 
L 54.018146 48.685647 
L 54.083461 48.127155 
L 54.024367 48.696042 
L 54.136335 48.601027 
L 54.139445 48.65414 
L 54.21098 48.208815 
L 54.21409 48.223729 
L 54.220311 48.012435 
L 54.316727 48.542187 
L 54.338499 48.636803 
L 54.366491 48.334866 
L 54.413144 48.461602 
L 54.459798 48.121401 
L 54.425585 48.479686 
L 54.522002 48.458734 
L 54.565545 48.654017 
L 54.540663 48.319462 
L 54.609088 48.438362 
L 54.618419 48.283111 
L 54.649521 48.613652 
L 54.714836 48.516768 
L 54.77393 48.674308 
L 54.808142 48.403373 
L 54.892118 48.592568 
L 54.941882 47.797825 
L 55.075621 48.668852 
L 55.097393 48.578787 
L 55.165818 48.63451 
L 55.221802 47.879823 
L 55.224912 47.849669 
L 55.277785 48.405649 
L 55.290226 48.658416 
L 55.383533 48.345746 
L 55.389753 48.461211 
L 55.411525 48.672203 
L 55.507942 48.337264 
L 55.526603 48.623268 
L 55.585697 47.984053 
L 55.61991 48.380973 
L 55.675894 48.682096 
L 55.641681 48.260436 
L 55.738098 48.627571 
L 55.850066 48.122077 
L 55.744318 48.638101 
L 55.856286 48.284403 
L 55.865617 48.598906 
L 55.946483 48.080255 
L 55.965144 48.296684 
L 56.05223 47.901902 
L 56.005577 48.57923 
L 56.070892 48.1508 
L 56.083332 48.620767 
L 56.136206 47.553082 
L 56.18286 48.232284 
L 56.198411 48.66126 
L 56.217072 48.031724 
L 56.301048 48.605131 
L 56.304158 48.634809 
L 56.33215 48.220677 
L 56.372583 48.264684 
L 56.441008 48.043522 
L 56.459669 48.528213 
L 56.46589 48.528357 
L 56.540535 48.635685 
L 56.515653 48.002148 
L 56.559196 48.288382 
L 56.596519 47.973992 
L 56.646282 48.600894 
L 56.661833 48.596064 
L 56.664944 48.594683 
L 56.708487 48.000889 
L 56.742699 48.641875 
L 56.773801 48.45773 
L 56.814234 48.680729 
L 56.885769 48.56832 
L 56.90132 48.666638 
L 57.000847 48.298391 
L 57.03506 48.695042 
L 57.112815 48.489978 
L 57.128366 48.31046 
L 57.171909 48.527341 
L 57.224783 48.673757 
L 57.252775 48.143631 
L 57.268326 48.238829 
L 57.277657 48.160684 
L 57.336751 48.589583 
L 57.374074 48.326848 
L 57.492262 48.697226 
L 57.417617 48.263849 
L 57.507813 48.543304 
L 57.60423 48.240788 
L 57.563797 48.672922 
L 57.616671 48.589835 
L 57.622891 48.697172 
L 57.650883 48.205401 
L 57.653994 48.205499 
L 57.669545 47.85572 
L 57.722418 48.673758 
L 57.759741 48.446428 
L 57.781513 48.296219 
L 57.775292 48.484242 
L 57.793954 48.431446 
L 57.849937 48.676645 
L 57.834386 48.321207 
L 57.902811 48.444732 
L 57.933913 48.32244 
L 57.946354 48.547897 
L 57.952575 48.543269 
L 57.955685 48.650699 
L 57.983677 47.938913 
L 58.055212 48.263199 
L 58.126747 48.653465 
L 58.089424 47.990063 
L 58.157849 48.262999 
L 58.179621 47.893481 
L 58.257376 48.628458 
L 58.260487 48.52484 
L 58.266707 48.629965 
L 58.297809 47.87006 
L 58.372454 48.607662 
L 58.496863 48.219747 
L 58.397336 48.610371 
L 58.512414 48.251528 
L 58.602611 48.622189 
L 58.58706 48.197593 
L 58.643044 48.563521 
L 58.745681 48.32285 
L 58.652374 48.644081 
L 58.755011 48.529129 
L 58.835877 48.650937 
L 58.789224 48.063856 
L 58.863869 48.507813 
L 58.87942 48.215798 
L 58.910522 48.637945 
L 58.954066 48.603475 
L 58.960286 48.694528 
L 59.01005 48.261324 
L 59.062923 48.635136 
L 59.146899 48.339918 
L 59.174891 48.401652 
L 59.187332 48.638781 
L 59.252647 48.262457 
L 59.286859 48.463338 
L 59.336623 48.642779 
L 59.29619 48.410274 
L 59.389496 48.471696 
L 59.457921 48.017865 
L 59.504575 48.269804 
L 59.607212 47.991305 
L 59.538787 48.68725 
L 59.625873 48.032526 
L 59.660086 48.674788 
L 59.747172 48.545418 
L 59.753392 48.557587 
L 59.824927 48.267529 
L 59.924454 48.024361 
L 59.86536 48.628611 
L 59.936895 48.195484 
L 59.989769 48.629792 
L 60.055083 48.563487 
L 60.107957 48.638281 
L 60.086186 48.250509 
L 60.123508 48.422189 
L 60.139059 48.120813 
L 60.185713 48.644101 
L 60.232366 48.374142 
L 60.272799 48.656507 
L 60.313232 48.12862 
L 60.325673 48.281762 
L 60.331893 48.055061 
L 60.42831 48.649561 
L 60.43142 48.551783 
L 60.43453 48.5776 
L 60.478073 48.057754 
L 60.484294 48.119788 
L 60.555829 47.872094 
L 60.509176 48.565956 
L 60.583821 48.189266 
L 60.689568 48.663124 
L 60.621144 47.858372 
L 60.695789 48.388411 
L 60.730001 47.181877 
L 60.801536 48.449854 
L 60.85752 48.670726 
L 60.885512 48.218828 
L 60.907284 48.263934 
L 60.947717 48.093318 
L 60.922835 48.435932 
L 60.99437 48.336282 
L 61.106338 48.665919 
L 61.050354 48.045766 
L 61.112558 48.638543 
L 61.162322 48.369264 
L 61.218306 48.696382 
L 61.221416 48.660392 
L 61.302282 48.421294 
L 61.327163 48.680581 
L 61.336494 48.583807 
L 61.386258 48.666532 
L 61.373817 48.350631 
L 61.426691 48.378856 
L 61.544879 48.690971 
L 61.495115 48.224356 
L 61.551099 48.58032 
L 61.613304 48.400091 
L 61.579091 48.663543 
L 61.659957 48.607371 
L 61.687949 48.213869 
L 61.666177 48.664325 
L 61.771925 48.486492 
L 61.790586 48.668079 
L 61.865232 48.317623 
L 61.880783 48.471368 
L 61.883893 48.442681 
L 61.949207 48.665978 
L 61.977199 48.57531 
L 62.011412 48.696614 
L 62.039404 48.40657 
L 62.110939 48.223419 
L 62.076727 48.638396 
L 62.148262 48.43243 
L 62.219797 48.680159 
L 62.154482 48.414658 
L 62.26334 48.51705 
L 62.369087 48.116383 
L 62.313103 48.672556 
L 62.378418 48.32146 
L 62.490386 48.661077 
L 62.499716 48.556282 
L 62.521488 48.693594 
L 62.54637 48.328371 
L 62.602354 48.516092 
L 62.636566 48.024739 
L 62.69255 48.627684 
L 62.726763 48.143757 
L 62.788967 48.658888 
L 62.804518 48.048528 
L 62.848061 48.50021 
L 62.894714 48.120903 
L 62.953809 48.638636 
L 62.956919 48.53039 
L 62.988021 48.224353 
L 63.012903 48.695807 
L 63.075107 48.427409 
L 63.099989 48.193051 
L 63.190185 48.670917 
L 63.305263 48.032058 
L 63.314594 48.376447 
L 63.339476 48.607091 
L 63.39546 48.302903 
L 63.426562 48.440963 
L 63.507428 48.159413 
L 63.482546 48.690173 
L 63.532309 48.34095 
L 63.625616 48.646787 
L 63.550971 48.307573 
L 63.647388 48.543668 
L 63.703372 48.686935 
L 63.690931 48.368443 
L 63.756245 48.521576 
L 63.840221 48.661486 
L 63.778017 48.324518 
L 63.849552 48.499441 
L 63.852662 48.372597 
L 63.893095 48.681569 
L 63.955299 48.563225 
L 63.992622 48.68457 
L 64.033055 48.257667 
L 64.070378 48.620388 
L 64.157464 48.391033 
L 64.120141 48.662477 
L 64.197897 48.575594 
L 64.222778 48.673008 
L 64.25077 48.379533 
L 64.269432 48.450036 
L 64.344077 48.146359 
L 64.297424 48.642152 
L 64.3814 48.304251 
L 64.440494 48.686407 
L 64.499588 48.485787 
L 64.5338 48.214377 
L 64.518249 48.60001 
L 64.614666 48.370382 
L 64.704862 48.63928 
L 64.66754 48.118953 
L 64.723524 48.390108 
L 64.757736 48.682925 
L 64.729744 48.321205 
L 64.841712 48.535203 
L 64.875925 48.08854 
L 64.922578 48.644419 
L 64.95368 48.432333 
L 65.065648 48.353661 
L 64.972341 48.642768 
L 65.071868 48.377169 
L 65.08742 48.659441 
L 65.124742 48.088131 
L 65.168285 48.287939 
L 65.242931 48.03474 
L 65.218049 48.607694 
L 65.270923 48.573365 
L 65.302025 48.07569 
L 65.326906 48.646992 
L 65.37667 48.576353 
L 65.386001 48.676182 
L 65.432654 47.456167 
L 65.438874 47.25718 
L 65.488638 48.400363 
L 65.52285 48.154003 
L 65.647259 48.68105 
L 65.650369 48.662693 
L 65.678361 48.221749 
L 65.762337 48.563266 
L 65.771668 48.61438 
L 65.815211 48.38521 
L 65.852534 48.188816 
L 65.874305 48.662823 
L 65.920958 48.438279 
L 66.011155 48.681604 
L 65.970722 48.212093 
L 66.032926 48.573591 
L 66.135564 48.200498 
L 66.07958 48.64976 
L 66.151115 48.410222 
L 66.203989 48.674045 
L 66.179107 48.40046 
L 66.263083 48.511302 
L 66.272413 48.211443 
L 66.331508 48.638403 
L 66.36572 48.576561 
L 66.468357 48.684732 
L 66.455916 48.411761 
L 66.474578 48.614379 
L 66.546113 48.453145 
L 66.518121 48.644097 
L 66.586546 48.575555 
L 66.689183 48.703802 
L 66.636309 48.219915 
L 66.698514 48.677583 
L 66.757608 48.325237 
L 66.816702 48.530751 
L 66.826033 48.64952 
L 66.872686 48.272153 
L 66.906898 48.380501 
L 66.953552 48.070908 
L 67.000205 48.533617 
L 67.025087 48.216582 
L 67.168157 48.680295 
L 67.06863 48.078199 
L 67.189928 48.583076 
L 67.199259 48.254633 
L 67.236582 48.679918 
L 67.298786 48.561318 
L 67.35788 48.657783 
L 67.326778 48.439706 
L 67.364101 48.496012 
L 67.460517 48.210499 
L 67.420085 48.640762 
L 67.472958 48.539198 
L 67.547604 48.237589 
L 67.49162 48.682941 
L 67.591147 48.370418 
L 67.647131 48.686142 
L 67.63158 48.216573 
L 67.696894 48.346033 
L 67.727996 48.004343 
L 67.77776 48.471513 
L 67.793311 48.380466 
L 67.892838 48.619598 
L 67.995475 48.229173 
L 67.92394 48.621178 
L 68.007916 48.522195 
L 68.098113 48.654628 
L 68.048349 48.139629 
L 68.110553 48.504687 
L 68.122994 48.248097 
L 68.166537 48.615898 
L 68.222521 48.448835 
L 68.256734 48.671151 
L 68.287836 48.301599 
L 68.328269 48.306681 
L 68.421575 48.634214 
L 68.337599 48.194718 
L 68.440237 48.500915 
L 68.462008 48.299598 
L 68.524213 48.614721 
L 68.549094 48.584877 
L 68.657952 48.688748 
L 68.595748 48.324741 
L 68.661062 48.607737 
L 68.695275 48.674126 
L 68.745038 48.431957 
L 68.7637 48.440878 
L 68.875668 48.646828 
L 68.807243 48.248009 
L 68.888108 48.642546 
L 68.940982 48.141021 
L 68.90366 48.68067 
L 69.000076 48.454091 
L 69.105824 48.698004 
L 69.05606 48.205521 
L 69.118265 48.657283 
L 69.171138 48.086925 
L 69.133816 48.693147 
L 69.233343 48.483363 
L 69.239563 48.670179 
L 69.323539 48.284464 
L 69.33909 48.418261 
L 69.354641 48.297584 
L 69.373303 48.67349 
L 69.441728 48.551686 
L 69.531924 48.627673 
L 69.47905 48.151043 
L 69.547475 48.482865 
L 69.575467 48.686578 
L 69.61279 48.253179 
L 69.6159 48.318733 
L 69.702986 47.984918 
L 69.671884 48.622166 
L 69.727868 48.222803 
L 69.734088 48.186308 
L 69.740309 48.356372 
L 69.75897 48.675562 
L 69.780742 48.320872 
L 69.852277 48.539545 
L 69.89893 48.327593 
L 69.917591 48.664157 
L 69.970465 48.396336 
L 70.051331 48.076488 
L 70.007788 48.610124 
L 70.069992 48.460082 
L 70.125976 48.633828 
L 70.094874 48.188941 
L 70.17885 48.385142 
L 70.203732 48.535542 
L 70.237944 47.842885 
L 70.269046 48.107111 
L 70.281487 48.00704 
L 70.334361 48.694431 
L 70.371683 48.156313 
L 70.384124 48.679725 
L 70.489872 48.547644 
L 70.567627 48.651951 
L 70.533415 48.170928 
L 70.583178 48.407114 
L 70.60806 48.292587 
L 70.673375 48.603537 
L 70.688926 48.471802 
L 70.776012 48.698925 
L 70.729359 48.251152 
L 70.797784 48.478107 
L 70.844437 48.212596 
L 70.819555 48.537377 
L 70.866208 48.457404 
L 70.925303 48.674806 
L 70.8942 48.310962 
L 70.978176 48.596658 
L 71.018609 48.340111 
L 71.049711 48.684202 
L 71.093254 48.448732 
L 71.195892 48.692493 
L 71.16479 48.239952 
L 71.205222 48.512685 
L 71.220773 48.33137 
L 71.261206 48.641347 
L 71.31408 48.576772 
L 71.342072 48.395229 
L 71.385615 48.648047 
L 71.426048 48.573153 
L 71.528685 48.685734 
L 71.478922 48.327273 
L 71.534906 48.556999 
L 71.575339 48.634597 
L 71.553567 48.328664 
L 71.603331 48.45582 
L 71.618882 48.194676 
L 71.702858 48.638502 
L 71.715298 48.339584 
L 71.796164 48.649615 
L 71.814825 48.279289 
L 71.817936 48.29702 
L 71.827266 48.160151 
L 71.889471 48.666208 
L 71.914353 48.588117 
L 71.998328 48.672249 
L 71.967226 48.313395 
L 72.01699 48.474283 
L 72.0201 48.405769 
L 72.044982 48.68382 
L 72.122737 48.585597 
L 72.125848 48.672276 
L 72.150729 48.367765 
L 72.231595 48.631248 
L 72.324902 48.207795 
L 72.30002 48.675808 
L 72.337342 48.535875 
L 72.44309 48.679186 
L 72.371555 48.334095 
L 72.4462 48.575264 
L 72.477302 48.17442 
L 72.533286 48.580134 
L 72.564389 48.18654 
L 72.573719 48.072948 
L 72.576829 48.289539 
L 72.629703 48.631668 
L 72.691908 48.398548 
L 72.735451 48.680988 
L 72.747892 48.337554 
L 72.788324 48.361542 
L 72.791435 48.32609 
L 72.819427 48.682856 
L 72.875411 48.618806 
L 72.881631 48.666084 
L 72.956276 48.337793 
L 72.968717 48.505348 
L 73.034032 48.596303 
L 73.093126 48.208111 
L 73.114897 48.650593 
L 73.214425 48.48089 
L 73.239306 48.252469 
L 73.307731 48.607148 
L 73.323282 48.568186 
L 73.388597 48.689621 
L 73.348164 48.390477 
L 73.425919 48.481883 
L 73.469463 48.283383 
L 73.522336 48.590533 
L 73.528557 48.554557 
L 73.634304 48.694739 
L 73.615643 48.387267 
L 73.640525 48.623828 
L 73.71206 48.263599 
L 73.752493 48.594011 
L 73.789815 48.309811 
L 73.771154 48.691345 
L 73.86135 48.544662 
L 73.942216 48.630593 
L 73.904893 48.21307 
L 73.967098 48.452136 
L 73.9982 48.327186 
L 74.032412 48.642885 
L 74.041743 48.631582 
L 74.072845 48.692845 
L 74.128829 48.331556 
L 74.131939 48.362307 
L 74.184813 48.048208 
L 74.197254 48.468874 
L 74.265679 48.668791 
L 74.296781 48.201327 
L 74.402529 48.637162 
L 74.41808 48.349283 
L 74.436741 48.009785 
L 74.508276 48.676419 
L 74.523827 48.502312 
L 74.582921 48.434389 
L 74.56426 48.683474 
L 74.610913 48.610916 
L 74.629575 48.69521 
L 74.648236 48.417383 
L 74.760204 48.283856 
L 74.70111 48.616698 
L 74.763314 48.293924 
L 74.85351 48.66039 
L 74.881502 48.50866 
L 74.925046 48.647319 
L 74.999691 48.2833 
L 75.080557 48.650122 
L 75.049454 48.144989 
L 75.108549 48.395561 
L 75.204965 47.907835 
L 75.139651 48.581282 
L 75.220516 48.330539 
L 75.229847 48.433348 
L 75.254729 48.138539 
L 75.257839 48.008284 
L 75.344925 48.534903 
L 75.360476 48.352857 
L 75.438232 48.08363 
L 75.460003 48.63645 
L 75.562641 48.335107 
L 75.466224 48.642263 
L 75.578192 48.507892 
L 75.649727 48.323051 
L 75.69638 48.682563 
L 75.715041 48.517628 
L 75.721262 48.545193 
L 75.739923 48.408377 
L 75.811458 48.673548 
L 75.83012 48.556619 
L 75.858112 48.688884 
L 75.895434 48.360497 
L 75.926536 48.44541 
L 75.932757 48.374849 
L 75.97319 48.684399 
L 76.032284 48.496046 
L 76.069607 48.407868 
L 76.050945 48.566877 
L 76.100709 48.57962 
L 76.194015 48.668464 
L 76.153582 48.383162 
L 76.200236 48.641851 
L 76.271771 48.283587 
L 76.215787 48.665809 
L 76.312204 48.447314 
L 76.417951 48.669737 
L 76.408621 48.408836 
L 76.436612 48.596783 
L 76.53614 48.447112 
L 76.473935 48.688759 
L 76.54858 48.571161 
L 76.573462 48.67835 
L 76.610785 48.39574 
L 76.632556 48.537386 
L 76.657438 48.372401 
L 76.67921 48.691302 
L 76.744524 48.46441 
L 76.753855 48.686699 
L 76.82228 48.434744 
L 76.859602 48.588424 
L 76.940468 48.299867 
L 76.906256 48.65848 
L 76.96846 48.545665 
L 76.999562 48.312614 
L 77.083538 48.682173 
L 77.161294 48.299016 
L 77.195506 48.478515 
L 77.207947 48.687359 
L 77.282592 48.450409 
L 77.301254 48.510914 
L 77.419442 48.164952 
L 77.382119 48.665217 
L 77.422552 48.271313 
L 77.481646 48.575131 
L 77.466095 48.19384 
L 77.543851 48.537648 
L 77.590504 48.095853 
L 77.627827 48.675017 
L 77.658929 48.386653 
L 77.683811 48.67911 
L 77.795779 48.486557 
L 77.870424 48.201768 
L 77.829991 48.621394 
L 77.913967 48.27603 
L 77.991723 48.650822 
L 78.032155 48.487302 
L 78.044596 48.613804 
L 78.063258 48.35269 
L 78.069478 48.434956 
L 78.081919 48.288607 
L 78.165895 48.691641 
L 78.181446 48.394796 
L 78.209438 48.552401 
L 78.193887 48.360718 
L 78.23432 48.324568 
L 78.24365 48.186997 
L 78.274753 48.532167 
L 78.336957 48.490284 
L 78.430264 48.653784 
L 78.408492 48.448284 
L 78.445815 48.580209 
L 78.536011 48.317665 
L 78.480027 48.591984 
L 78.554672 48.552693 
L 78.579554 48.695641 
L 78.632428 48.445806 
L 78.66664 48.567329 
L 78.682191 48.658193 
L 78.756837 48.457312 
L 78.769278 48.469349 
L 78.772388 48.321581 
L 78.822151 48.680808 
L 78.878135 48.521881 
L 78.927899 48.273168 
L 78.903017 48.630052 
L 78.999434 48.467996 
L 79.105181 48.669232 
L 79.039867 48.302829 
L 79.151835 48.565243 
L 79.22648 48.038166 
L 79.270023 48.342808 
L 79.360219 48.67655 
L 79.276243 48.284753 
L 79.385101 48.474257 
L 79.472187 48.698408 
L 79.500179 48.300272 
L 79.584155 48.671301 
L 79.50951 48.268572 
L 79.624588 48.584581 
L 79.736556 48.232666 
L 79.683682 48.624808 
L 79.739666 48.32025 
L 79.801871 48.15949 
L 79.832973 48.673365 
L 79.842303 48.504412 
L 79.845414 48.507806 
L 79.851634 48.403793 
L 79.854744 48.333003 
L 79.904508 48.679977 
L 79.951161 48.484826 
L 80.016476 48.683996 
L 80.028917 48.38283 
L 80.060019 48.652489 
L 80.153325 48.185937 
L 80.08179 48.666478 
L 80.168877 48.482899 
L 80.171987 48.63172 
L 80.271514 48.28666 
L 80.302616 48.394595 
L 80.386592 48.021881 
L 80.49856 48.698464 
L 80.520331 48.488408 
L 80.598087 48.166325 
L 80.554544 48.639614 
L 80.626079 48.585561 
L 80.650961 48.430256 
L 80.719386 48.683945 
L 80.741157 48.496873 
L 80.806472 48.687537 
L 80.7847 48.460763 
L 80.853125 48.530911 
L 80.859345 48.438536 
L 80.868676 48.358442 
L 80.937101 48.600891 
L 80.968203 48.446954 
L 81.008636 48.649076 
L 81.058399 48.365557 
L 81.080171 48.554275 
L 81.167257 48.634958 
L 81.176588 48.571415 
L 81.220131 48.358167 
L 81.266784 48.678333 
L 81.285446 48.571694 
L 81.369421 48.437157 
L 81.35387 48.686978 
L 81.403634 48.476586 
L 81.456508 48.688483 
L 81.49383 48.29248 
L 81.524932 48.669411 
L 81.556035 48.682325 
L 81.552924 48.568107 
L 81.574696 48.611481 
L 81.677333 48.42862 
L 81.602688 48.651569 
L 81.689774 48.483378 
L 81.779971 48.681678 
L 81.711546 48.314963 
L 81.798632 48.549951 
L 81.857726 48.278203 
L 81.895049 48.655342 
L 81.90749 48.478207 
L 81.951033 48.672343 
L 82.003906 48.297563 
L 82.022568 48.600141 
L 82.143866 48.298288 
L 82.075441 48.683882 
L 82.146977 48.371629 
L 82.249614 48.688971 
L 82.274496 48.621669 
L 82.305598 48.394432 
L 82.349141 48.643241 
L 82.377133 48.572294 
L 82.380243 48.702461 
L 82.457999 48.144979 
L 82.48599 48.522021 
L 82.551305 48.630905 
L 82.501542 48.385741 
L 82.588628 48.458211 
L 82.681934 48.115857 
L 82.604179 48.655867 
L 82.694375 48.411515 
L 82.750359 48.679704 
L 82.700596 48.3387 
L 82.806343 48.475092 
L 82.815674 48.582676 
L 82.90587 48.693113 
L 82.893429 48.484586 
L 82.915201 48.50547 
L 82.921421 48.296389 
L 82.996067 48.692188 
L 83.024059 48.603905 
L 83.101814 48.260465 
L 83.055161 48.69895 
L 83.129806 48.611851 
L 83.132916 48.683143 
L 83.154688 48.19049 
L 83.235554 48.595239 
L 83.32886 48.412586 
L 83.291537 48.677217 
L 83.347521 48.543217 
L 83.403505 48.33956 
L 83.356852 48.598896 
L 83.453269 48.389373 
L 83.518584 48.677994 
L 83.565237 48.609599 
L 83.630551 48.344747 
L 83.677205 48.532467 
L 83.689646 48.671851 
L 83.736299 48.36487 
L 83.739409 48.37363 
L 83.776732 48.300137 
L 83.823385 48.657914 
L 83.835826 48.56559 
L 83.904251 48.675572 
L 83.848267 48.350252 
L 83.938463 48.45291 
L 84.000668 48.662395 
L 83.975786 48.36304 
L 84.047321 48.429468 
L 84.059762 48.284735 
L 84.106415 48.579107 
L 84.162399 48.344249 
L 84.227714 48.703074 
L 84.274367 48.397177 
L 84.299249 48.216695 
L 84.336571 48.5865 
L 84.386335 48.356062 
L 84.470311 48.680913 
L 84.420547 48.203226 
L 84.501413 48.452927 
L 84.513854 48.235209 
L 84.569838 48.682955 
L 84.60405 48.456384 
L 84.660034 48.683348 
L 84.684916 48.357098 
L 84.716018 48.576216 
L 84.722239 48.678251 
L 84.762672 48.50466 
L 84.778223 48.50123 
L 84.874639 48.255533 
L 84.862199 48.638997 
L 84.88397 48.531119 
L 84.961726 48.690221 
L 84.946175 48.333529 
L 84.992828 48.548544 
L 85.014599 48.35678 
L 85.039481 48.695517 
L 85.104796 48.399365 
L 85.201213 48.642088 
L 85.126567 48.302942 
L 85.213653 48.376879 
L 85.328732 48.653061 
L 85.372275 48.562207 
L 85.459361 48.203062 
L 85.400267 48.65648 
L 85.490463 48.340688 
L 85.558888 48.119987 
L 85.611762 48.603319 
L 85.655305 48.676832 
L 85.627313 48.460024 
L 85.708178 48.584601 
L 85.739281 48.308474 
L 85.823257 48.400807 
L 85.950776 48.671088 
L 85.832587 48.301018 
L 85.963217 48.654627 
L 86.01609 48.297443 
L 86.003649 48.689171 
L 86.093846 48.487193 
L 86.196483 48.642989 
L 86.124948 48.401895 
L 86.205814 48.578299 
L 86.221365 48.685632 
L 86.2929 48.459925 
L 86.342663 48.369351 
L 86.308451 48.632049 
L 86.395537 48.529267 
L 86.454631 48.676723 
L 86.504395 48.423591 
L 86.560379 48.693841 
L 86.619473 48.636609 
L 86.691008 48.527817 
L 86.719 48.683687 
L 86.728331 48.645076 
L 86.809196 48.383341 
L 86.746992 48.659812 
L 86.846519 48.577165 
L 86.927385 48.583418 
L 86.930495 48.4887 
L 86.942936 48.310839 
L 87.023802 48.60894 
L 87.036242 48.591316 
L 87.058014 48.305769 
L 87.14199 48.658081 
L 87.229076 48.411392 
L 87.176202 48.670556 
L 87.260178 48.488303 
L 87.344154 48.636978 
L 87.275729 48.334507 
L 87.369036 48.430471 
L 87.471673 48.655961 
L 87.456122 48.376869 
L 87.484114 48.541439 
L 87.518327 48.378963 
L 87.540098 48.676006 
L 87.589862 48.610414 
L 87.596082 48.688399 
L 87.645846 48.284803 
L 87.683168 48.476948 
L 87.736042 48.327447 
L 87.779585 48.671293 
L 87.788916 48.612857 
L 87.792026 48.633207 
L 87.810687 48.358006 
L 87.866671 48.408202 
L 87.928876 48.266621 
L 87.903994 48.631239 
L 87.944427 48.4892 
L 88.050174 48.693963 
L 87.99419 48.325268 
L 88.059505 48.62664 
L 88.13726 48.375457 
L 88.146591 48.687429 
L 88.171473 48.545916 
L 88.252338 48.692761 
L 88.218126 48.365981 
L 88.28033 48.570484 
L 88.292771 48.635212 
L 88.302102 48.333371 
L 88.317653 48.131786 
L 88.392298 48.656598 
L 88.41407 48.308892 
L 88.479385 48.67713 
L 88.466944 48.30565 
L 88.526038 48.472482 
L 88.529148 48.310755 
L 88.600683 48.665528 
L 88.634896 48.575073 
L 88.653557 48.672252 
L 88.709541 48.275376 
L 88.743753 48.51231 
L 88.849501 48.220582 
L 88.793517 48.670496 
L 88.855721 48.469912 
L 88.868162 48.373677 
L 88.902374 48.687841 
L 88.945918 48.583901 
L 88.98013 48.34173 
L 89.057885 48.659529 
L 89.172964 48.428249 
L 89.113869 48.688804 
L 89.176074 48.517479 
L 89.275601 48.635801 
L 89.200956 48.346173 
L 89.288042 48.544208 
L 89.350246 48.323376 
L 89.303593 48.662763 
L 89.393789 48.537161 
L 89.396899 48.67838 
L 89.440443 48.376212 
L 89.502647 48.449812 
L 89.511978 48.391114 
L 89.574182 48.618232 
L 89.661268 48.674576 
L 89.614615 48.492172 
L 89.670599 48.617188 
L 89.698591 48.324008 
L 89.745244 48.625928 
L 89.779457 48.547083 
L 89.863432 48.67231 
L 89.813669 48.205573 
L 89.894535 48.630391 
L 89.997172 48.286126 
L 89.9754 48.683176 
L 90.009613 48.472833 
L 90.040715 48.40917 
L 90.087368 48.663587 
L 90.099809 48.622529 
L 90.186895 48.688977 
L 90.143352 48.366116 
L 90.199336 48.581017 
L 90.301973 48.388487 
L 90.24599 48.682556 
L 90.317525 48.485434 
L 90.351737 48.681792 
L 90.323745 48.442896 
L 90.445044 48.544355 
L 90.463705 48.393851 
L 90.54146 48.676009 
L 90.553901 48.522078 
L 90.563232 48.695647 
L 90.619216 48.336207 
L 90.665869 48.545089 
L 90.67209 48.666837 
L 90.743625 48.338614 
L 90.765396 48.477801 
L 90.830711 48.021138 
L 90.793388 48.586318 
L 90.880474 48.277561 
L 90.886695 48.265354 
L 90.889805 48.455768 
L 90.973781 48.653461 
L 90.989332 48.240014 
L 90.992442 48.155457 
L 91.011104 48.653153 
L 91.085749 48.586923 
L 91.09508 48.406876 
L 91.09819 48.319341 
L 91.147953 48.681975 
L 91.200827 48.504148 
L 91.256811 48.645788 
L 91.284803 48.45677 
L 91.38744 48.329847 
L 91.356338 48.695897 
L 91.390551 48.503769 
L 91.53051 48.689875 
L 91.402991 48.469306 
L 91.533621 48.623922 
L 91.605156 48.467953 
L 91.552282 48.692282 
L 91.642478 48.602076 
L 91.676691 48.686704 
L 91.710903 48.382206 
L 91.717124 48.42604 
L 91.720234 48.404235 
L 91.769997 48.681772 
L 91.794879 48.584962 
L 91.797989 48.670362 
L 91.863304 48.422938 
L 91.900627 48.514379 
L 91.909957 48.472339 
L 91.959721 48.694562 
L 91.987713 48.645186 
L 92.077909 48.704366 
L 92.043697 48.545082 
L 92.099681 48.683707 
L 92.199208 48.457903 
L 92.217869 48.598773 
L 92.314286 48.677451 
L 92.304955 48.500795 
L 92.326727 48.649473 
L 92.429364 48.328211 
L 92.441805 48.487024 
L 92.51023 48.682687 
L 92.497789 48.461827 
L 92.569324 48.559911 
L 92.671961 48.288081 
L 92.634639 48.695177 
L 92.684402 48.453645 
L 92.765268 48.302151 
L 92.709284 48.672015 
L 92.780819 48.51973 
L 92.805701 48.688981 
L 92.889677 48.530247 
L 92.995424 48.6938 
L 92.93633 48.330717 
L 93.007865 48.673886 
L 93.032747 48.446324 
L 93.122943 48.536089 
L 93.21625 48.348033 
L 93.160266 48.672358 
L 93.231801 48.56158 
L 93.303336 48.673734 
L 93.284675 48.4342 
L 93.325107 48.491399 
L 93.409083 48.384743 
L 93.390422 48.66786 
L 93.421524 48.54782 
L 93.521051 48.676919 
L 93.514831 48.444179 
L 93.530382 48.603228 
L 93.555264 48.428841 
L 93.573925 48.636728 
L 93.64546 48.493779 
L 93.760538 48.695031 
L 93.729436 48.297602 
L 93.766759 48.581716 
L 93.853845 48.304701 
L 93.78542 48.653238 
L 93.872506 48.606283 
L 93.875616 48.680526 
L 93.916049 48.346388 
L 93.975143 48.432383 
L 93.978254 48.338433 
L 93.993805 48.617284 
L 94.084001 48.485134 
L 94.090222 48.456145 
L 94.146205 48.657593 
L 94.186638 48.684373 
L 94.20841 48.415046 
L 94.236402 48.517342 
L 94.251953 48.458132 
L 94.270614 48.69851 
L 94.339039 48.53815 
L 94.457227 48.688561 
L 94.395023 48.454481 
L 94.460338 48.674221 
L 94.559865 48.505269 
L 94.49455 48.697306 
L 94.572306 48.589735 
L 94.578526 48.686543 
L 94.64073 48.392931 
L 94.659392 48.544865 
L 94.684274 48.388955 
L 94.702935 48.426344 
" clip-path="url(#p62228d2c31)" style="fill: none; stroke: #e377c2; stroke-width: 0.5; stroke-linecap: square"/>
   </g>
  </g>
 </g>
 <defs>
  <clipPath id="p62228d2c31">
   <rect x="0" y="-0" width="99.212598" height="51.023622"/>
  </clipPath>
 </defs>
</svg>
