<?xml version="1.0" encoding="utf-8" standalone="no"?>
<!DOCTYPE svg PUBLIC "-//W3C//DTD SVG 1.1//EN"
  "http://www.w3.org/Graphics/SVG/1.1/DTD/svg11.dtd">
<svg xmlns:xlink="http://www.w3.org/1999/xlink" width="99.212598pt" height="51.023622pt" viewBox="0 0 99.212598 51.023622" xmlns="http://www.w3.org/2000/svg" version="1.1">
 <metadata>
  <rdf:RDF xmlns:dc="http://purl.org/dc/elements/1.1/" xmlns:cc="http://creativecommons.org/ns#" xmlns:rdf="http://www.w3.org/1999/02/22-rdf-syntax-ns#">
   <cc:Work>
    <dc:type rdf:resource="http://purl.org/dc/dcmitype/StillImage"/>
    <dc:date>2024-10-30T10:51:19.023872</dc:date>
    <dc:format>image/svg+xml</dc:format>
    <dc:creator>
     <cc:Agent>
      <dc:title>Matplotlib v3.8.4, https://matplotlib.org/</dc:title>
     </cc:Agent>
    </dc:creator>
   </cc:Work>
  </rdf:RDF>
 </metadata>
 <defs>
  <style type="text/css">*{stroke-linejoin: round; stroke-linecap: butt}</style>
 </defs>
 <g id="figure_1">
  <g id="patch_1">
   <path d="M 0 51.023622 
L 99.212598 51.023622 
L 99.212598 0 
L 0 0 
L 0 51.023622 
z
" style="fill: none"/>
  </g>
  <g id="axes_1">
   <g id="patch_2">
    <path d="M 0 51.023622 
L 99.212598 51.023622 
L 99.212598 -0 
L 0 -0 
L 0 51.023622 
z
" style="fill: none"/>
   </g>
   <g id="matplotlib.axis_1">
    <g id="xtick_1"/>
    <g id="xtick_2"/>
   </g>
   <g id="matplotlib.axis_2">
    <g id="ytick_1"/>
    <g id="ytick_2"/>
   </g>
   <g id="line2d_1">
    <path d="M 4.509664 23.851592 
L 4.515884 24.370977 
L 4.574978 19.461644 
L 4.658954 6.697075 
L 4.708718 14.432985 
L 4.777142 47.368644 
L 4.892221 44.56913 
L 4.904662 44.653238 
L 4.923323 43.264652 
L 5.097495 28.540596 
L 4.991748 46.215787 
L 5.141038 32.678444 
L 5.181471 42.464274 
L 5.228124 31.148521 
L 5.271667 37.822247 
L 5.408517 2.319256 
L 5.439619 12.938373 
L 5.492493 35.09705 
L 5.567138 23.795224 
L 5.582689 23.433584 
L 5.644894 25.2738 
L 5.778633 47.80194 
L 5.831507 36.576437 
L 5.840838 36.398093 
L 5.862609 39.763551 
L 5.965247 45.648357 
L 5.990128 44.279317 
L 6.117647 47.442893 
L 6.15808 45.339909 
L 6.173631 45.379584 
L 6.214064 42.556626 
L 6.30115 33.550269 
L 6.354024 39.822081 
L 6.478433 43.85445 
L 6.438 39.600197 
L 6.487764 43.038866 
L 6.500204 42.153837 
L 6.531307 47.12063 
L 6.58107 44.892617 
L 6.658826 48.572547 
L 6.699258 45.769662 
L 6.836108 37.778606 
L 6.920084 41.771389 
L 7.016501 45.412897 
L 7.044493 42.671839 
L 7.069375 41.248657 
L 7.128469 46.094818 
L 7.131579 46.047405 
L 7.156461 47.289537 
L 7.168902 48.250491 
L 7.212445 44.606556 
L 7.343074 42.61216 
L 7.302641 45.946232 
L 7.346184 42.697087 
L 7.436381 48.574461 
L 7.579451 47.238215 
L 7.678978 45.299074 
L 7.70386 46.091377 
L 7.747403 46.742453 
L 7.775395 45.753334 
L 7.930906 35.916961 
L 7.980669 40.088591 
L 8.021102 45.856153 
L 8.120629 45.634008 
L 8.13929 45.165493 
L 8.170393 47.457943 
L 8.198385 48.235138 
L 8.263699 46.402631 
L 8.288581 45.994367 
L 8.304132 46.744699 
L 8.313463 47.296188 
L 8.397439 44.852877 
L 8.403659 44.585588 
L 8.428541 47.291776 
L 8.490745 45.504927 
L 8.540509 48.117885 
L 8.580942 44.209922 
L 8.605823 43.309761 
L 8.655587 45.765249 
L 8.677358 46.561704 
L 8.711571 44.739056 
L 8.730232 43.693366 
L 8.814208 45.718684 
L 8.83909 48.625639 
L 8.935507 47.222961 
L 8.960388 48.678634 
L 8.997711 46.30773 
L 9.078577 45.275855 
L 9.112789 46.00838 
L 9.178104 47.375451 
L 9.202986 45.547332 
L 9.215427 45.166079 
L 9.252749 47.93687 
L 9.299402 46.402361 
L 9.333615 48.106571 
L 9.374048 45.998238 
L 9.482905 44.550605 
L 9.423811 47.808119 
L 9.495346 44.867657 
L 9.54822 48.233927 
L 9.641527 47.88557 
L 9.6944 45.364104 
L 9.756605 47.571828 
L 9.759715 47.725244 
L 9.849911 46.744539 
L 9.893454 45.539806 
L 9.933887 47.445885 
L 9.946328 47.832687 
L 10.002312 44.853786 
L 10.017863 44.556297 
L 10.080068 46.037989 
L 10.24802 47.823283 
L 10.282232 47.353715 
L 10.304004 46.466206 
L 10.372428 47.88456 
L 10.381759 48.344121 
L 10.406641 46.998596 
L 10.481286 47.767372 
L 10.552821 46.653348 
L 10.587034 47.935617 
L 10.671009 48.49658 
L 10.627466 46.702888 
L 10.686561 47.43376 
L 10.748765 43.772583 
L 10.81719 45.631907 
L 10.8203 45.623711 
L 10.842072 45.87655 
L 10.848292 45.722928 
L 10.860733 45.939931 
L 10.904276 43.451147 
L 10.919827 43.612617 
L 10.941599 43.251749 
L 10.96337 44.324436 
L 11.062897 48.218152 
L 11.118881 47.213521 
L 11.153094 45.260433 
L 11.23707 46.164642 
L 11.370809 48.465539 
L 11.429903 48.134407 
L 11.473446 46.779678 
L 11.52321 48.457494 
L 11.541871 48.057087 
L 11.660059 47.04008 
L 11.613406 48.252598 
L 11.66939 47.191053 
L 11.675611 47.11684 
L 11.728484 47.434509 
L 11.753366 48.142672 
L 11.80313 46.832944 
L 11.840452 47.529433 
L 11.902657 48.621132 
L 11.936869 47.053619 
L 11.943089 47.150054 
L 12.154584 43.494229 
L 11.989743 48.054847 
L 12.182576 44.337486 
L 12.331867 48.578669 
L 12.344308 47.876653 
L 12.366079 48.491977 
L 12.387851 46.901822 
L 12.409622 45.909067 
L 12.465606 47.869434 
L 12.493598 47.11196 
L 12.618007 48.528669 
L 12.555803 46.830295 
L 12.624228 48.360115 
L 12.698873 46.632903 
L 12.748636 47.547874 
L 12.761077 48.393033 
L 12.776628 46.748999 
L 12.80462 45.647435 
L 12.829502 47.976071 
L 12.876156 47.282213 
L 12.885486 48.024787 
L 12.963242 46.402348 
L 12.994344 47.980295 
L 13.000564 48.095571 
L 13.034777 47.299668 
L 13.165406 45.90517 
L 13.124973 47.72194 
L 13.168516 46.06787 
L 13.174737 45.769429 
L 13.22139 46.542166 
L 13.264933 46.163398 
L 13.389342 47.400964 
L 13.320917 45.350456 
L 13.392452 47.38017 
L 13.470208 46.786418 
L 13.432885 48.225182 
L 13.491979 47.768063 
L 13.4982 47.879363 
L 13.535522 46.765589 
L 13.572845 46.97468 
L 13.672372 46.596241 
L 13.64749 47.713841 
L 13.687923 46.724395 
L 13.799891 48.560906 
L 13.818552 47.674347 
L 13.858985 46.917283 
L 13.9243 47.907978 
L 13.93363 47.325407 
L 13.946071 47.088436 
L 13.977173 48.573633 
L 14.039378 47.456611 
L 14.148236 48.547602 
L 14.117133 47.154252 
L 14.173117 48.012298 
L 14.244652 46.679864 
L 14.204219 48.238013 
L 14.275755 48.040884 
L 14.281975 48.323577 
L 14.365951 47.12587 
L 14.465478 45.007767 
L 14.415714 48.564116 
L 14.49036 46.358205 
L 14.512131 48.420756 
L 14.602328 46.689726 
L 14.664532 42.712305 
L 14.714296 46.643825 
L 14.832484 48.644116 
L 14.844925 48.40715 
L 14.848035 48.485409 
L 14.900909 47.214878 
L 14.935121 47.905669 
L 14.953783 47.283716 
L 15.012877 48.44375 
L 15.037758 48.269908 
L 15.149726 48.622935 
L 15.078191 47.598434 
L 15.152837 48.609604 
L 15.283466 46.681512 
L 15.286576 46.674542 
L 15.289686 46.787615 
L 15.376772 48.270958 
L 15.395434 46.849522 
L 15.407875 46.136252 
L 15.48252 48.209923 
L 15.501181 47.023862 
L 15.563386 48.133477 
L 15.585157 46.736485 
L 15.591378 46.402721 
L 15.61937 48.153081 
L 15.63181 48.269238 
L 15.669133 46.585103 
L 15.687794 45.731081 
L 15.734448 48.58926 
L 15.756219 48.024666 
L 15.759329 48.140385 
L 15.824644 47.478879 
L 15.849526 47.529979 
L 15.886849 45.862151 
L 15.939722 48.585644 
L 15.970824 46.893889 
L 16.026808 48.299769 
L 16.082792 46.980632 
L 16.104564 47.802294 
L 16.113895 48.069695 
L 16.163658 46.965425 
L 16.207201 47.549742 
L 16.272516 48.110936 
L 16.232083 47.193438 
L 16.297398 47.391839 
L 16.353382 46.818543 
L 16.387594 48.184682 
L 16.396925 48.129558 
L 16.440468 48.501093 
L 16.421806 47.533919 
L 16.499562 47.837807 
L 16.583538 47.491481 
L 16.536885 48.327709 
L 16.61153 47.61076 
L 16.627081 48.486945 
L 16.729718 48.026677 
L 16.851017 48.67571 
L 16.779482 47.611271 
L 16.860347 48.447632 
L 17.028299 47.476312 
L 17.046961 48.044052 
L 17.059401 48.325402 
L 17.118496 46.965066 
L 17.211802 45.654571 
L 17.162039 47.067285 
L 17.233574 46.553067 
L 17.236684 46.545904 
L 17.239794 46.687701 
L 17.32066 47.542608 
L 17.339321 46.2264 
L 17.389085 44.617323 
L 17.432628 47.627914 
L 17.451289 48.510142 
L 17.485502 45.865025 
L 17.553926 48.251475 
L 17.631682 48.55102 
L 17.594359 47.55201 
L 17.653454 48.1141 
L 17.675225 47.718123 
L 17.706327 48.44686 
L 17.737429 48.389536 
L 17.74054 48.47741 
L 17.768532 47.72381 
L 17.830736 48.003964 
L 17.868059 47.806005 
L 17.896051 48.652429 
L 17.936484 48.072264 
L 18.0329 48.453287 
L 18.004908 47.740799 
L 18.039121 48.1124 
L 18.132427 46.940248 
L 18.151089 47.985938 
L 18.210183 48.388077 
L 18.235065 47.435662 
L 18.303489 46.916914 
L 18.269277 48.513858 
L 18.343922 47.496256 
L 18.365694 48.27373 
L 18.412347 46.939914 
L 18.45589 47.709233 
L 18.483882 45.757819 
L 18.577189 46.874647 
L 18.630063 48.411573 
L 18.73581 48.04998 
L 18.751361 47.734194 
L 18.798014 47.393704 
L 18.841558 48.235597 
L 18.850888 48.506196 
L 18.909982 47.553145 
L 18.922423 47.313348 
L 18.947305 48.628655 
L 19.006399 48.283711 
L 19.01262 48.417742 
L 19.043722 47.257493 
L 19.096596 47.618531 
L 19.180572 47.078899 
L 19.149469 47.865968 
L 19.199233 47.695058 
L 19.29876 48.649996 
L 19.317421 48.408503 
L 19.351634 47.866174 
L 19.392067 48.552309 
L 19.429389 48.318062 
L 19.491594 48.626115 
L 19.44805 47.763577 
L 19.525806 48.022319 
L 19.538247 47.756862 
L 19.57868 48.65316 
L 19.5849 48.596145 
L 19.58801 48.632269 
L 19.603561 48.088963 
L 19.668876 48.328554 
L 19.746632 47.662836 
L 19.72486 48.514979 
L 19.799505 48.003596 
L 19.874151 47.425537 
L 19.923914 48.53879 
L 20.073205 46.321014 
L 20.094976 46.609587 
L 20.138519 47.890545 
L 20.178952 46.101101 
L 20.206944 46.674321 
L 20.309581 48.450534 
L 20.337573 48.043183 
L 20.421549 46.572921 
L 20.458872 47.351049 
L 20.57706 48.666049 
L 20.586391 48.366808 
L 20.661036 47.747781 
L 20.623714 48.553512 
L 20.70769 48.131957 
L 20.800996 48.549911 
L 20.766784 47.717825 
L 20.816547 48.268669 
L 20.884972 47.601652 
L 20.922295 48.488699 
L 20.925405 48.614897 
L 21.012491 47.85233 
L 21.021822 47.632101 
L 21.071585 48.595406 
L 21.108908 48.521473 
L 21.112018 48.602684 
L 21.171112 47.350473 
L 21.270639 46.638 
L 21.242647 48.536103 
L 21.27997 47.116036 
L 21.391938 48.313012 
L 21.398158 48.140427 
L 21.485245 47.166163 
L 21.513237 47.803282 
L 21.550559 46.904373 
L 21.646976 47.434303 
L 21.690519 48.64463 
L 21.768275 48.190017 
L 21.786936 47.464904 
L 21.855361 48.609273 
L 21.877132 48.234558 
L 21.939337 48.621074 
L 21.914455 47.952542 
L 21.948667 48.002241 
L 21.973549 47.32073 
L 22.004651 48.471766 
L 22.054415 47.997724 
L 22.066856 48.639267 
L 22.141501 47.241092 
L 22.153942 47.401429 
L 22.281461 48.677289 
L 22.306343 48.471464 
L 22.399649 48.6532 
L 22.433862 47.616976 
L 22.542719 48.598979 
L 22.567601 48.342934 
L 22.648467 47.836873 
L 22.604924 48.416087 
L 22.664018 48.270589 
L 22.735553 48.610831 
L 22.760435 47.87328 
L 22.772876 48.156253 
L 22.810198 48.501147 
L 22.83197 47.346044 
L 22.884844 48.181467 
L 22.891064 48.204452 
L 22.894174 48.162035 
L 22.990591 47.609381 
L 23.006142 48.049531 
L 23.015473 48.603615 
L 23.099449 47.920713 
L 23.127441 48.445738 
L 23.130551 48.512416 
L 23.202086 47.703893 
L 23.220747 47.368748 
L 23.286062 48.256068 
L 23.295393 48.583044 
L 23.332715 47.382777 
L 23.40114 48.372949 
L 23.482006 46.197971 
L 23.531769 47.63049 
L 23.653068 48.652212 
L 23.659288 48.420947 
L 23.749485 48.624391 
L 23.783697 47.68223 
L 23.830351 48.623469 
L 23.793028 47.530522 
L 23.904996 47.843516 
L 23.908106 47.803535 
L 23.95787 48.519096 
L 23.988972 48.082697 
L 24.004523 48.548823 
L 24.082278 47.823724 
L 24.094719 48.040228 
L 24.097829 47.948735 
L 24.181805 48.514437 
L 24.197356 48.19413 
L 24.284443 48.694717 
L 24.259561 47.739495 
L 24.312435 48.543675 
L 24.315545 48.551874 
L 24.324876 48.371214 
L 24.430623 47.30068 
L 24.449284 47.760205 
L 24.467946 48.676638 
L 24.505268 47.540333 
L 24.564362 47.930459 
L 24.67633 46.98838 
L 24.626567 48.457057 
L 24.685661 47.564395 
L 24.710543 48.635794 
L 24.803849 47.986261 
L 24.825621 47.267013 
L 24.887825 48.41637 
L 24.909597 48.171542 
L 24.928258 48.587686 
L 24.996683 47.660059 
L 25.015344 48.085143 
L 25.074439 47.671556 
L 25.030895 48.316727 
L 25.124202 47.922294 
L 25.170855 48.640136 
L 25.192627 47.717184 
L 25.22995 47.73105 
L 25.276603 47.418274 
L 25.332587 48.198019 
L 25.394791 48.283728 
L 25.413453 47.767966 
L 25.460106 47.532337 
L 25.503649 48.425321 
L 25.509869 48.265109 
L 25.621837 47.625875 
L 25.534751 48.670069 
L 25.640499 47.666844 
L 25.65916 48.610068 
L 25.761797 48.228855 
L 25.783569 47.479261 
L 25.845773 48.472229 
L 25.870655 48.281093 
L 25.907978 47.925692 
L 25.94219 48.605083 
L 25.960851 48.37035 
L 25.963961 48.543045 
L 26.019945 47.547435 
L 26.069709 48.278207 
L 26.166126 47.976483 
L 26.116362 48.587156 
L 26.175456 48.165335 
L 26.203448 48.677916 
L 26.268763 47.872768 
L 26.284314 48.010152 
L 26.312306 48.61676 
L 26.386951 47.981698 
L 26.399392 48.136524 
L 26.433605 48.42123 
L 26.486478 47.936353 
L 26.517581 47.307412 
L 26.592226 48.005053 
L 26.617108 48.657262 
L 26.679312 47.754717 
L 26.707304 48.401178 
L 26.806831 46.87827 
L 26.837933 47.89901 
L 26.93124 48.371006 
L 26.872146 47.044633 
L 26.953011 48.240146 
L 26.987224 47.727128 
L 27.043208 48.60548 
L 27.049428 48.520595 
L 27.120963 47.843813 
L 27.152066 48.397631 
L 27.176947 48.67752 
L 27.201829 48.024716 
L 27.264033 48.591618 
L 27.267144 48.602189 
L 27.298246 48.350275 
L 27.332458 48.594224 
L 27.422655 47.687719 
L 27.522182 48.560768 
L 27.540843 48.270727 
L 27.606158 48.626709 
L 27.571945 47.826419 
L 27.646591 48.35663 
L 27.687023 47.871007 
L 27.711905 48.576112 
L 27.755448 48.195258 
L 27.826983 48.425572 
L 27.848755 47.665466 
L 27.851865 47.714188 
L 27.854975 47.709568 
L 27.861196 47.841671 
L 27.935841 48.664796 
L 27.898518 47.366935 
L 27.960723 47.64373 
L 27.963833 47.476757 
L 28.016707 48.525717 
L 28.06025 48.219972 
L 28.110013 48.582685 
L 28.091352 47.957885 
L 28.134895 48.053809 
L 28.221981 47.511156 
L 28.187769 48.516164 
L 28.246863 47.939601 
L 28.293516 48.687172 
L 28.355721 47.877886 
L 28.368162 48.138909 
L 28.374382 48.119274 
L 28.405484 48.678781 
L 28.449027 47.914036 
L 28.48946 48.535157 
L 28.604538 47.819241 
L 28.610759 47.926077 
L 28.63253 48.66951 
L 28.697845 47.441899 
L 28.700955 47.481018 
L 28.722727 48.25572 
L 28.778711 48.640772 
L 28.822254 47.990011 
L 28.90934 47.615338 
L 28.893789 48.177262 
L 28.931111 47.898224 
L 28.993316 48.667567 
L 29.021308 47.783151 
L 29.04619 48.448714 
L 29.139496 48.160792 
L 29.086622 48.660343 
L 29.155047 48.483512 
L 29.170598 48.133748 
L 29.204811 48.558424 
L 29.273236 48.324876 
L 29.282566 48.681922 
L 29.354101 47.66797 
L 29.357212 47.600944 
L 29.391424 48.590332 
L 29.425636 48.507217 
L 29.456739 48.587503 
L 29.484731 48.209504 
L 29.503392 48.365599 
L 29.528274 48.010019 
L 29.550045 48.694744 
L 29.609139 48.365518 
L 29.649572 48.637376 
L 29.634021 47.932565 
L 29.717997 48.304643 
L 29.749099 48.160581 
L 29.798863 48.631377 
L 29.823745 48.439475 
L 29.885949 48.690174 
L 29.857957 48.382789 
L 29.910831 48.377224 
L 29.960594 48.558308 
L 30.075672 47.064595 
L 30.122326 48.622511 
L 30.209412 48.259829 
L 30.234294 48.661024 
L 30.284057 47.447173 
L 30.371143 47.203241 
L 30.340041 47.80868 
L 30.389805 47.726614 
L 30.436458 48.619837 
L 30.507993 48.58215 
L 30.517324 48.64158 
L 30.532875 48.198357 
L 30.576418 48.260087 
L 30.61063 47.935609 
L 30.657284 48.438694 
L 30.679055 48.360494 
L 30.769251 48.603603 
L 30.781692 48.054062 
L 30.787913 47.988708 
L 30.800354 48.44357 
L 30.803464 48.505883 
L 30.834566 47.947954 
L 30.899881 48.27369 
L 30.915432 48.100585 
L 30.949644 48.650493 
L 31.018069 48.159777 
L 31.070943 48.549139 
L 31.0274 48.082432 
L 31.074053 48.523718 
L 31.095825 48.657176 
L 31.16736 48.088939 
L 31.198462 48.621425 
L 31.251336 47.818141 
L 31.31354 48.610798 
L 31.413067 47.865098 
L 31.375744 48.648376 
L 31.437949 48.29398 
L 31.521925 48.683239 
L 31.475271 47.611927 
L 31.540586 48.061611 
L 31.553027 47.703512 
L 31.605901 48.662554 
L 31.649444 48.128953 
L 31.674326 48.028195 
L 31.73342 48.484701 
L 31.74275 48.469081 
L 31.826726 48.164233 
L 31.798734 48.661505 
L 31.839167 48.446562 
L 31.845388 48.662865 
L 31.901372 47.815981 
L 31.951135 48.545034 
L 32.02267 47.651751 
L 31.988458 48.618593 
L 32.069323 48.406304 
L 32.084875 48.675427 
L 32.147079 47.823587 
L 32.178181 48.356134 
L 32.237275 48.536766 
L 32.184402 48.150514 
L 32.277708 48.209979 
L 32.30259 47.966114 
L 32.333692 48.637851 
L 32.383456 48.307237 
L 32.399007 48.604432 
L 32.423889 47.98217 
L 32.473652 48.031435 
L 32.492313 47.82153 
L 32.517195 48.609089 
L 32.560738 48.502843 
L 32.570069 48.566722 
L 32.58562 48.169011 
L 32.622943 48.482429 
L 32.660265 48.056521 
L 32.706919 48.518917 
L 32.7318 48.503162 
L 32.759792 48.142061 
L 32.828217 48.614581 
L 32.837548 48.483655 
L 32.843768 48.680848 
L 32.87176 48.088687 
L 32.946406 48.409236 
L 33.01483 48.128896 
L 33.042822 48.559277 
L 33.14857 48.617889 
L 33.101917 47.941231 
L 33.15168 48.545553 
L 33.167231 48.069856 
L 33.198333 48.624364 
L 33.266758 48.413949 
L 33.322742 47.91724 
L 33.372506 48.49831 
L 33.375616 48.456544 
L 33.43782 48.682818 
L 33.453371 48.33016 
L 33.484474 48.570785 
L 33.593331 48.137135 
L 33.602662 48.284373 
L 33.683528 48.622992 
L 33.689748 48.377316 
L 33.736401 46.948468 
L 33.792385 48.569521 
L 33.814157 47.540105 
L 33.823488 47.364784 
L 33.876361 48.594895 
L 33.879472 48.57433 
L 33.891912 48.500464 
L 33.972778 47.144608 
L 33.910574 48.530006 
L 34.028762 47.622393 
L 34.112738 48.68341 
L 34.165612 48.365679 
L 34.178053 48.290018 
L 34.230926 48.67117 
L 34.252698 48.573534 
L 34.258918 48.505965 
L 34.28069 48.039937 
L 34.358445 48.575316 
L 34.364666 48.496683 
L 34.367776 48.647132 
L 34.389548 48.171271 
L 34.470413 48.290121 
L 34.526397 48.216819 
L 34.498405 48.651719 
L 34.538838 48.540957 
L 34.56372 48.647556 
L 34.601043 48.322625 
L 34.647696 48.585376 
L 34.768994 48.024318 
L 34.666357 48.614495 
L 34.793876 48.095451 
L 34.84053 48.638201 
L 34.905844 48.38538 
L 34.98982 47.952555 
L 34.936946 48.582366 
L 35.014702 48.349402 
L 35.052024 48.671939 
L 35.061355 48.310904 
L 35.070686 47.907277 
L 35.160882 48.613266 
L 35.167103 48.413463 
L 35.244858 48.523808 
L 35.223087 47.995586 
L 35.254189 48.281721 
L 35.26663 47.982505 
L 35.279071 48.64885 
L 35.363046 48.317948 
L 35.378598 48.165092 
L 35.394149 47.66354 
L 35.443912 48.564567 
L 35.484345 48.29557 
L 35.503006 48.530713 
L 35.530998 47.915509 
L 35.534109 47.934783 
L 35.540329 47.770762 
L 35.593203 48.450115 
L 35.599423 48.693184 
L 35.652297 47.801524 
L 35.69273 48.158647 
L 35.711391 47.521502 
L 35.782926 48.694326 
L 35.798477 48.52326 
L 35.901115 48.122896 
L 35.820249 48.679525 
L 35.922886 48.411012 
L 35.97887 48.684818 
L 35.947768 48.194454 
L 36.013082 48.374344 
L 36.041074 48.127145 
L 36.053515 48.676198 
L 36.12194 48.391249 
L 36.202806 48.64908 
L 36.162373 48.27675 
L 36.212137 48.554975 
L 36.237018 47.786059 
L 36.2619 48.683175 
L 36.320994 48.596785 
L 36.361427 48.317122 
L 36.389419 47.940654 
L 36.40497 48.684521 
L 36.464064 48.61783 
L 36.488946 48.665654 
L 36.535599 48.18451 
L 36.582253 48.014317 
L 36.569812 48.625269 
L 36.613355 48.539071 
L 36.688 48.701256 
L 36.644457 48.245913 
L 36.722213 48.506066 
L 36.83107 48.112713 
L 36.806189 48.663907 
L 36.837291 48.247161 
L 36.924377 48.662993 
L 36.877724 47.899714 
L 36.952369 48.463581 
L 37.051896 47.995138 
L 37.027014 48.607901 
L 37.070557 48.184574 
L 37.191856 48.626865 
L 37.1141 47.989486 
L 37.194966 48.587934 
L 37.263391 48.219341 
L 37.306934 48.449051 
L 37.310044 48.450262 
L 37.418902 47.984746 
L 37.341146 48.627923 
L 37.425122 48.030868 
L 37.521539 48.637254 
L 37.540201 48.200141 
L 37.558862 47.519336 
L 37.624176 48.621854 
L 37.652168 48.164814 
L 37.664609 48.127424 
L 37.686381 48.555754 
L 37.729924 48.651122 
L 37.751695 48.175037 
L 37.798349 47.234271 
L 37.863663 48.01184 
L 37.869884 47.921784 
L 37.872994 48.085339 
L 37.969411 48.686159 
L 37.988072 48.411949 
L 38.09382 48.230521 
L 38.009844 48.629222 
L 38.10004 48.347904 
L 38.174685 48.164117 
L 38.124922 48.491487 
L 38.187126 48.406516 
L 38.299094 48.679756 
L 38.212008 47.897985 
L 38.305315 48.66283 
L 38.37996 48.270427 
L 38.420393 48.413468 
L 38.432834 48.190539 
L 38.463936 48.589134 
L 38.495038 48.583944 
L 38.582124 48.658642 
L 38.563463 47.938879 
L 38.594565 48.389854 
L 38.597675 48.383402 
L 38.600786 48.463651 
L 38.603896 48.663999 
L 38.653659 48.072756 
L 38.709643 48.445718 
L 38.768737 48.611455 
L 38.781178 48.061831 
L 38.79984 47.64059 
L 38.868264 48.618887 
L 38.883816 48.514444 
L 39.014445 47.852639 
L 38.927359 48.672034 
L 39.026886 48.147181 
L 39.045547 48.660449 
L 39.101531 47.623982 
L 39.148184 48.434426 
L 39.204168 47.987512 
L 39.23527 48.667019 
L 39.266373 48.093585 
L 39.393892 48.682868 
L 39.397002 48.605199 
L 39.527631 48.053914 
L 39.415663 48.684667 
L 39.574284 48.370737 
L 39.583615 48.68858 
L 39.614717 48.22116 
L 39.686252 48.465764 
L 39.720465 48.636666 
L 39.751567 48.381936 
L 39.767118 48.47669 
L 39.844874 48.052467 
L 39.785779 48.614071 
L 39.885306 48.135618 
L 39.981723 48.590015 
L 40.000385 48.396091 
L 40.043928 48.181823 
L 40.006605 48.489075 
L 40.115463 48.342205 
L 40.227431 48.653977 
L 40.174557 48.121891 
L 40.230541 48.544188 
L 40.280304 47.911481 
L 40.339399 48.459894 
L 40.442036 48.694039 
L 40.410934 47.879981 
L 40.448256 48.590376 
L 40.560224 48.298924 
L 40.50424 48.692447 
L 40.563334 48.349622 
L 40.6442 47.945269 
L 40.581996 48.514718 
L 40.665972 48.51858 
L 40.771719 48.642872 
L 40.709515 47.821942 
L 40.774829 48.540372 
L 40.843254 47.995731 
L 40.871246 48.670724 
L 40.896128 48.119724 
L 41.008096 48.666161 
L 40.917899 47.998545 
L 41.014316 48.588418 
L 41.054749 48.378047 
L 41.076521 48.687512 
L 41.120064 48.56704 
L 41.123174 48.668935 
L 41.151166 48.293652 
L 41.228922 48.498495 
L 41.284905 48.137245 
L 41.297346 48.606186 
L 41.35022 48.401427 
L 41.387543 48.677741 
L 41.409314 48.159539 
L 41.459078 48.477397 
L 41.580376 47.540941 
L 41.499511 48.659894 
L 41.586597 47.806809 
L 41.605258 48.679621 
L 41.707895 47.978948 
L 41.826084 47.688265 
L 41.726557 48.506749 
L 41.829194 47.797842 
L 41.931831 48.647946 
L 41.975374 48.562184 
L 42.084232 48.245883 
L 42.05313 48.655134 
L 42.090452 48.310045 
L 42.211751 48.649382 
L 42.127775 48.273621 
L 42.217971 48.365952 
L 42.233523 47.931733 
L 42.320609 48.561973 
L 42.323719 48.480156 
L 42.370372 48.638492 
L 42.395254 48.085156 
L 42.426356 48.40126 
L 42.48545 48.078361 
L 42.451238 48.629465 
L 42.535214 48.310239 
L 42.581867 48.121038 
L 42.647182 48.671355 
L 42.693835 48.680831 
L 42.76226 48.161866 
L 42.855567 48.645168 
L 42.883559 48.412276 
L 42.986196 48.138784 
L 42.917771 48.584672 
L 42.995526 48.198557 
L 43.104384 48.609905 
L 43.054621 48.135658 
L 43.107494 48.481367 
L 43.219462 48.194825 
L 43.144817 48.664318 
L 43.222573 48.231121 
L 43.228793 48.231358 
L 43.231903 48.167002 
L 43.238124 48.158796 
L 43.241234 48.118298 
L 43.272336 48.466951 
L 43.33454 48.350563 
L 43.449619 48.673172 
L 43.415406 48.130871 
L 43.452729 48.664106 
L 43.567807 48.02641 
L 43.458949 48.665999 
L 43.61135 48.463405 
L 43.701546 48.673061 
L 43.676665 48.217742 
L 43.717098 48.413172 
L 43.788633 48.265878 
L 43.75753 48.642905 
L 43.801073 48.505539 
L 43.804184 48.672943 
L 43.878829 48.289396 
L 43.906821 48.5392 
L 43.922372 48.136354 
L 43.956584 48.68424 
L 44.018789 48.347413 
L 44.087214 48.540318 
L 44.04056 48.107504 
L 44.133867 48.521094 
L 44.192961 47.972667 
L 44.164969 48.589836 
L 44.242725 48.527033 
L 44.245835 48.615463 
L 44.326701 48.141388 
L 44.342252 48.487204 
L 44.441779 48.104171 
L 44.367134 48.654594 
L 44.451109 48.429185 
L 44.45422 48.682559 
L 44.541306 48.170515 
L 44.563077 48.52225 
L 44.650164 48.228252 
L 44.609731 48.680518 
L 44.668825 48.397153 
L 44.752801 48.695699 
L 44.706148 48.319696 
L 44.780793 48.470779 
L 44.796344 47.964558 
L 44.830556 48.674005 
L 44.889651 48.448362 
L 44.967406 48.585103 
L 44.923863 48.199895 
L 44.989178 48.35153 
L 44.998508 48.134696 
L 45.0265 48.474965 
L 45.038941 48.320767 
L 45.113586 48.601006 
L 45.138468 48.052712 
L 45.147799 48.209327 
L 45.188232 48.674258 
L 45.247326 48.115983 
L 45.256656 48.224664 
L 45.262877 48.033757 
L 45.334412 48.580246 
L 45.359294 48.414543 
L 45.433939 48.615131 
L 45.458821 48.252959 
L 45.468151 48.135698 
L 45.483703 48.371601 
L 45.489923 48.348748 
L 45.496143 48.596868 
L 45.549017 48.043374 
L 45.598781 48.198318 
L 45.679646 47.771503 
L 45.632993 48.426801 
L 45.716969 48.049965 
L 45.741851 48.58302 
L 45.779173 47.946068 
L 45.838268 48.239783 
L 45.903582 47.681574 
L 45.856929 48.600795 
L 45.962676 47.949974 
L 46.049763 48.659356 
L 46.077755 48.349529 
L 46.093306 48.087548 
L 46.161731 48.63045 
L 46.186612 48.298708 
L 46.202163 48.684073 
L 46.30169 48.501223 
L 46.351454 48.154078 
L 46.404328 48.657318 
L 46.410548 48.514663 
L 46.497634 48.663165 
L 46.454091 48.080751 
L 46.513185 48.482657 
L 46.531847 48.165648 
L 46.590941 48.690437 
L 46.622043 48.549911 
L 46.727791 48.098949 
L 46.671807 48.656614 
L 46.740231 48.402421 
L 46.793105 48.682472 
L 46.758893 48.063982 
L 46.849089 48.624053 
L 46.911294 48.31844 
L 46.898853 48.631992 
L 46.964167 48.375405 
L 46.967277 48.376365 
L 47.073025 48.687875 
L 47.00771 48.197837 
L 47.079245 48.54511 
L 47.091686 48.620409 
L 47.101017 48.323112 
L 47.104127 48.10378 
L 47.188103 48.626409 
L 47.206764 48.611727 
L 47.28763 48.683594 
L 47.331173 48.268796 
L 47.402708 48.668331 
L 47.42448 48.094072 
L 47.436921 48.154263 
L 47.440031 48.069315 
L 47.524007 48.643444 
L 47.533338 48.486036 
L 47.601762 48.3223 
L 47.555109 48.643631 
L 47.617313 48.507468 
L 47.620424 48.665793 
L 47.657746 48.11747 
L 47.729281 48.632566 
L 47.735502 48.68667 
L 47.782155 48.15164 
L 47.803927 48.316928 
L 47.813257 48.223959 
L 47.841249 48.678928 
L 47.900344 48.435178 
L 47.903454 48.622169 
L 47.946997 48.036433 
L 48.009201 48.504315 
L 48.027863 48.01254 
L 48.102508 48.615191 
L 48.124279 48.272955 
L 48.226917 48.695746 
L 48.254909 48.627175 
L 48.310893 48.13253 
L 48.360656 48.672773 
L 48.366877 48.512774 
L 48.373097 48.603015 
L 48.397979 48.050456 
L 48.42286 48.220413 
L 48.425971 48.136197 
L 48.460183 48.668279 
L 48.531718 48.226485 
L 48.600143 48.017479 
L 48.662347 48.657676 
L 48.743213 48.24214 
L 48.771205 48.65531 
L 48.783646 48.385283 
L 48.792977 48.702277 
L 48.796087 48.606243 
L 48.808528 48.047893 
L 48.880063 48.662265 
L 48.904945 48.612269 
L 48.908055 48.683409 
L 48.98581 48.224216 
L 48.998251 48.324112 
L 49.038684 47.850224 
L 49.088448 48.51367 
L 49.103999 48.357428 
L 49.11955 48.607573 
L 49.203526 48.283813 
L 49.212856 48.482845 
L 49.219077 48.234541 
L 49.315494 48.673558 
L 49.321714 48.46749 
L 49.415021 48.663381 
L 49.352816 48.252074 
L 49.433682 48.500648 
L 49.461674 48.334035 
L 49.505217 48.669235 
L 49.54565 48.470851 
L 49.54876 48.617105 
L 49.610965 47.91951 
L 49.654508 48.486314 
L 49.676279 48.168242 
L 49.735373 48.645534 
L 49.760255 48.559186 
L 49.841121 48.656006 
L 49.803798 48.269639 
L 49.866003 48.539604 
L 49.940648 48.057505 
L 49.912656 48.605044 
L 49.987301 48.187109 
L 50.037065 48.102227 
L 50.005962 48.504523 
L 50.083718 48.257681 
L 50.177025 47.932799 
L 50.201906 48.485835 
L 50.211237 48.232731 
L 50.264111 48.656274 
L 50.310764 48.393993 
L 50.320095 48.598829 
L 50.363638 48.188211 
L 50.422732 48.583643 
L 50.516039 48.147206 
L 50.463165 48.671036 
L 50.53781 48.472585 
L 50.646668 48.672909 
L 50.609345 48.419156 
L 50.649778 48.560281 
L 50.67155 48.287198 
L 50.687101 48.626802 
L 50.761746 48.439484 
L 50.81773 48.679536 
L 50.777297 48.24762 
L 50.873714 48.561704 
L 50.904816 48.576102 
L 50.886155 48.472096 
L 50.907926 48.552159 
L 51.019894 48.286268 
L 50.995012 48.654315 
L 51.023004 48.334998 
L 51.063437 48.687279 
L 51.10076 48.267366 
L 51.134972 48.426248 
L 51.197177 48.674996 
L 51.178515 48.283954 
L 51.231389 48.418118 
L 51.268712 47.99907 
L 51.315365 48.648247 
L 51.343357 48.296663 
L 51.449105 48.658181 
L 51.393121 48.148552 
L 51.458435 48.530357 
L 51.52997 48.341751 
L 51.492648 48.66578 
L 51.567293 48.476118 
L 51.645048 48.678965 
L 51.610836 48.394126 
L 51.682371 48.661212 
L 51.791229 48.122015 
L 51.80989 48.302236 
L 51.912527 48.65799 
L 51.828551 47.913904 
L 51.928078 48.515182 
L 51.931189 48.350599 
L 51.95607 48.67415 
L 52.036936 48.48357 
L 52.052487 48.623028 
L 52.061818 48.385751 
L 52.111581 48.26366 
L 52.158235 48.630399 
L 52.164455 48.587017 
L 52.260872 48.692496 
L 52.220439 48.478233 
L 52.267092 48.543312 
L 52.282644 48.068671 
L 52.310636 48.645071 
L 52.382171 48.265383 
L 52.463036 48.6702 
L 52.481698 48.043022 
L 52.491028 48.240843 
L 52.609217 48.698512 
L 52.627878 48.568601 
L 52.699413 48.156551 
L 52.724295 48.638357 
L 52.742956 48.444138 
L 52.770948 48.694833 
L 52.808271 48.368597 
L 52.858034 48.492093 
L 52.920239 48.25797 
L 52.951341 48.536044 
L 52.966892 48.38357 
L 53.057088 48.648802 
L 52.988664 48.324178 
L 53.07575 48.52851 
L 53.091301 48.278129 
L 53.116183 48.678975 
L 53.187718 48.494998 
L 53.193938 48.69009 
L 53.240591 48.394256 
L 53.299686 48.676224 
L 53.405433 47.895111 
L 53.414764 48.418185 
L 53.424094 48.674207 
L 53.445866 48.367195 
L 53.526732 48.550946 
L 53.629369 48.69745 
L 53.592046 48.215369 
L 53.632479 48.696159 
L 53.660471 48.180518 
L 53.744447 48.43568 
L 53.831533 48.66891 
L 53.772439 48.368356 
L 53.853305 48.42312 
L 53.881297 48.318232 
L 53.92173 48.659431 
L 53.943501 48.558958 
L 54.011926 48.659836 
L 53.999485 48.355427 
L 54.036808 48.457209 
L 54.092792 48.19855 
L 54.120784 48.628153 
L 54.127004 48.576445 
L 54.201649 48.695845 
L 54.223421 48.312108 
L 54.226531 48.280859 
L 54.260744 48.653677 
L 54.304287 48.524155 
L 54.313617 48.665389 
L 54.385152 47.862409 
L 54.410034 48.499223 
L 54.438026 47.995939 
L 54.512671 48.593098 
L 54.515782 48.656898 
L 54.559325 48.106089 
L 54.609088 48.383468 
L 54.686844 48.135641 
L 54.652631 48.667029 
L 54.705505 48.496342 
L 54.727277 48.67848 
L 54.77393 48.234763 
L 54.817473 48.664612 
L 54.864126 48.69858 
L 54.938771 48.303122 
L 54.941882 48.242116 
L 54.991645 48.699681 
L 55.038299 48.36775 
L 55.125385 48.573025 
L 55.072511 48.257777 
L 55.150266 48.475197 
L 55.19381 48.589032 
L 55.218691 48.325699 
L 55.221802 48.273053 
L 55.287116 48.690872 
L 55.308888 48.62025 
L 55.330659 48.691459 
L 55.371092 48.456151 
L 55.405305 48.344015 
L 55.436407 48.63405 
L 55.464399 48.573984 
L 55.467509 48.683718 
L 55.520383 48.08845 
L 55.573256 48.529767 
L 55.638571 48.305806 
L 55.588807 48.622583 
L 55.682114 48.557325 
L 55.747429 48.225153 
L 55.688335 48.615532 
L 55.784751 48.433511 
L 55.868727 48.674422 
L 55.881168 48.25754 
L 55.899829 48.656049 
L 56.018018 48.346156 
L 55.921601 48.690452 
L 56.024238 48.414437 
L 56.139316 48.6886 
L 56.083332 48.004992 
L 56.142427 48.674434 
L 56.220182 48.21535 
L 56.257505 48.451845 
L 56.357032 48.154887 
L 56.266835 48.492096 
L 56.369473 48.345005 
L 56.425457 48.70134 
L 56.47211 48.143913 
L 56.47522 48.156851 
L 56.47833 48.135029 
L 56.521873 48.55222 
L 56.546755 48.379236 
L 56.587188 48.339805 
L 56.661833 48.68972 
L 56.727148 48.282764 
L 56.711597 48.698044 
L 56.773801 48.640346 
L 56.776912 48.652346 
L 56.811124 48.359757 
L 56.836006 48.572331 
L 56.851557 48.26861 
L 56.885769 48.666367 
L 56.947974 48.499666 
L 56.954194 48.678365 
L 57.03817 48.251915 
L 57.04128 48.234093 
L 57.056831 48.660397 
L 57.097264 48.452835 
L 57.140807 48.657345 
L 57.162579 48.34294 
L 57.209232 48.517922 
L 57.290098 48.241813 
L 57.262106 48.637231 
L 57.3212 48.491569 
L 57.374074 48.696869 
L 57.336751 48.308601 
L 57.430058 48.533721 
L 57.46738 48.240865 
L 57.476711 48.648275 
L 57.542026 48.48025 
L 57.638442 48.208718 
L 57.582459 48.640425 
L 57.650883 48.434764 
L 57.681986 48.627442 
L 57.74419 48.26902 
L 57.759741 48.393327 
L 57.868599 48.198873 
L 57.797064 48.651007 
L 57.871709 48.306809 
L 57.977456 48.64301 
L 57.896591 48.00919 
L 57.996118 48.618263 
L 58.052102 48.252728 
L 58.02411 48.643005 
L 58.108086 48.519216 
L 58.142298 48.336944 
L 58.1734 48.667289 
L 58.216943 48.519219 
L 58.244935 48.680938 
L 58.272927 48.342309 
L 58.322691 48.535924 
L 58.406667 48.349514 
L 58.360014 48.68766 
L 58.434659 48.402465 
L 58.534186 48.683269 
L 58.487533 48.262534 
L 58.549737 48.575692 
L 58.639933 48.22043 
L 58.571509 48.67491 
L 58.658595 48.457152 
L 58.671036 48.663604 
L 58.702138 48.22244 
L 58.773673 48.595083 
L 58.894971 47.797638 
L 58.863869 48.611129 
L 58.901192 47.930657 
L 59.01627 48.550777 
L 59.056703 48.44143 
L 59.100246 48.137938 
L 59.081585 48.589931 
L 59.168671 48.355646 
L 59.190442 48.675427 
L 59.227765 48.15624 
L 59.283749 48.536797 
L 59.330402 48.203783 
L 59.349064 48.643366 
L 59.392607 48.544386 
L 59.426819 48.693763 
L 59.44548 48.4099 
L 59.489023 48.446229 
L 59.510795 48.150954 
L 59.545007 48.692396 
L 59.591661 48.620427 
L 59.688078 48.68769 
L 59.716069 48.276735 
L 59.781384 48.645244 
L 59.831148 48.451166 
L 59.927564 48.597737 
L 59.884021 48.346411 
L 59.940005 48.517498 
L 60.023981 48.369211 
L 59.986659 48.60815 
L 60.051973 48.451716 
L 60.104847 48.127225 
L 60.126619 48.649207 
L 60.154611 48.54617 
L 60.182603 48.64673 
L 60.163941 48.431639 
L 60.207484 48.511323 
L 60.319452 48.201154 
L 60.241697 48.653186 
L 60.322562 48.214976 
L 60.369216 48.669713 
L 60.446971 48.615884 
L 60.484294 48.38671 
L 60.530947 48.674795 
L 60.555829 48.502333 
L 60.57449 48.673475 
L 60.621144 48.397585 
L 60.664687 48.448611 
L 60.686458 48.165015 
L 60.745552 48.661782 
L 60.773544 48.486136 
L 60.832638 48.224488 
L 60.866851 48.666727 
L 60.885512 48.4569 
L 60.932166 48.682748 
L 60.894843 48.376001 
L 60.988149 48.439709 
L 61.016141 48.210819 
L 61.056574 48.580962 
L 61.097007 48.449443 
L 61.159212 48.609883 
L 61.13122 48.138145 
L 61.205865 48.482693 
L 61.224526 48.413999 
L 61.292951 48.668413 
L 61.314723 48.524293 
L 61.442242 48.25634 
L 61.364486 48.664133 
L 61.460903 48.399091 
L 61.516887 48.677801 
L 61.526218 48.338617 
L 61.579091 48.572504 
L 61.616414 48.320192 
L 61.635075 48.66299 
L 61.691059 48.47968 
L 61.765705 48.675204 
L 61.796807 48.358794 
L 61.799917 48.4443 
L 61.865232 48.688645 
L 61.893224 48.301922 
L 61.908775 48.410032 
L 61.961648 48.191166 
L 61.98964 48.636866 
L 62.002081 48.465894 
L 62.023853 48.62919 
L 62.067396 48.309539 
L 62.104718 48.381433 
L 62.114049 48.156106 
L 62.173143 48.679315 
L 62.210466 48.482265 
L 62.275781 48.687498 
L 62.216686 48.458202 
L 62.322434 48.616805 
L 62.347316 48.326932 
L 62.390859 48.672009 
L 62.434402 48.478955 
L 62.468614 48.691301 
L 62.481055 48.288776 
L 62.54326 48.556559 
L 62.558811 48.126224 
L 62.589913 48.621174 
L 62.655227 48.476482 
L 62.757865 48.694073 
L 62.680109 48.382402 
L 62.767195 48.597737 
L 62.83251 48.405732 
L 62.801408 48.675649 
L 62.885384 48.48412 
L 62.894714 48.333563 
L 62.935147 48.615645 
L 62.97869 48.690875 
L 63.009793 48.396022 
L 63.037785 48.541232 
L 63.134201 48.482286 
L 63.11554 48.702385 
L 63.146642 48.551879 
L 63.25239 48.404379 
L 63.174634 48.681959 
L 63.25861 48.515418 
L 63.367468 48.686864 
L 63.274161 48.409751 
L 63.370578 48.636083 
L 63.442113 48.671676 
L 63.420342 48.444556 
L 63.463885 48.58275 
L 63.513648 48.032165 
L 63.582073 48.268959 
L 63.669159 48.679939 
L 63.606955 48.017576 
L 63.706482 48.56164 
L 63.737584 48.183022 
L 63.802899 48.671513 
L 63.81534 48.503271 
L 63.830891 48.69437 
L 63.883764 48.04303 
L 63.921087 48.518695 
L 63.992622 48.340392 
L 63.96774 48.678788 
L 64.029945 48.510636 
L 64.10148 48.700586 
L 64.120141 48.39966 
L 64.135692 48.488272 
L 64.138802 48.452699 
L 64.157464 48.687135 
L 64.24144 48.513173 
L 64.253881 48.684851 
L 64.319195 48.419934 
L 64.353408 48.593589 
L 64.368959 48.413399 
L 64.437384 48.670643 
L 64.465376 48.556876 
L 64.505808 48.359336 
L 64.480927 48.671621 
L 64.536911 48.6529 
L 64.540021 48.668665 
L 64.583564 48.337186 
L 64.586674 48.312844 
L 64.599115 48.695215 
L 64.651989 48.537577 
L 64.751516 48.6686 
L 64.745295 48.519523 
L 64.760846 48.63777 
L 64.767067 48.449786 
L 64.81061 48.676706 
L 64.872814 48.551748 
L 64.891476 48.678095 
L 64.959901 48.400465 
L 64.975452 48.512831 
L 65.062538 48.195013 
L 65.031436 48.620436 
L 65.08742 48.39258 
L 65.130963 48.692385 
L 65.143403 48.365516 
L 65.199387 48.449685 
L 65.295804 48.247199 
L 65.255371 48.621847 
L 65.305135 48.488361 
L 65.336237 48.647349 
L 65.37356 48.363311 
L 65.417103 48.518016 
L 65.51352 48.008192 
L 65.473087 48.650712 
L 65.538401 48.216999 
L 65.572614 48.67401 
L 65.550842 48.214216 
L 65.66592 48.527595 
L 65.765447 48.166884 
L 65.718794 48.666426 
L 65.780999 48.251113 
L 65.812101 48.398382 
L 65.892967 48.696351 
L 65.908518 48.318426 
L 65.920958 48.36702 
L 65.924069 48.368144 
L 65.976942 48.684198 
L 65.998714 48.341791 
L 66.039147 48.618294 
L 66.101351 48.404188 
L 66.129343 48.673766 
L 66.157335 48.424275 
L 66.207099 48.685741 
L 66.22576 48.330259 
L 66.278634 48.637802 
L 66.375051 48.342338 
L 66.340838 48.671179 
L 66.390602 48.524341 
L 66.455916 48.681689 
L 66.415483 48.426117 
L 66.499459 48.542626 
L 66.555443 48.393557 
L 66.527451 48.663715 
L 66.611427 48.457011 
L 66.673632 48.697055 
L 66.626978 48.293739 
L 66.726505 48.665644 
L 66.748277 48.351108 
L 66.735836 48.670572 
L 66.835363 48.510167 
L 66.894457 48.661177 
L 66.93178 48.296387 
L 66.947331 48.573395 
L 66.950441 48.671096 
L 66.984654 48.351177 
L 67.056189 48.564651 
L 67.065519 48.67564 
L 67.105952 48.390246 
L 67.133944 48.466298 
L 67.137055 48.392197 
L 67.205479 48.68739 
L 67.236582 48.608939 
L 67.239692 48.610718 
L 67.245912 48.504459 
L 67.311227 48.205568 
L 67.336109 48.656014 
L 67.35166 48.424238 
L 67.444966 48.699508 
L 67.404533 48.35955 
L 67.463628 48.533683 
L 67.560044 48.66877 
L 67.49473 48.392144 
L 67.569375 48.492572 
L 67.588036 48.366382 
L 67.628469 48.656281 
L 67.653351 48.56779 
L 67.681343 48.6773 
L 67.721776 48.376476 
L 67.762209 48.525984 
L 67.78087 48.31581 
L 67.821303 48.6827 
L 67.864846 48.543323 
L 67.880397 48.681194 
L 67.951932 48.354069 
L 67.964373 48.442059 
L 67.979924 48.282001 
L 68.032798 48.689614 
L 68.070121 48.50853 
L 68.157207 48.688838 
L 68.126105 48.340735 
L 68.182088 48.536914 
L 68.297167 48.218357 
L 68.266064 48.687641 
L 68.300277 48.299815 
L 68.34693 48.632482 
L 68.362481 47.970659 
L 68.409135 48.345954 
L 68.48689 48.664526 
L 68.521102 48.221576 
L 68.577086 48.660182 
L 68.527323 48.219814 
L 68.654842 48.605704 
L 68.679724 48.401487 
L 68.682834 48.256003 
L 68.738818 48.693267 
L 68.788581 48.498695 
L 68.850786 48.340109 
L 68.835235 48.633966 
L 68.897439 48.51687 
L 68.90366 48.686291 
L 68.931652 48.455445 
L 69.003187 48.576663 
L 69.015627 48.289725 
L 69.074722 48.693686 
L 69.108934 48.666441 
L 69.158698 48.686676 
L 69.124485 48.437255 
L 69.171138 48.525847 
L 69.202241 48.345881 
L 69.273776 48.69068 
L 69.276886 48.610498 
L 69.367082 48.653588 
L 69.357752 48.441161 
L 69.385744 48.599558 
L 69.429287 48.266805 
L 69.451058 48.678239 
L 69.500822 48.446262 
L 69.507042 48.358685 
L 69.547475 48.661948 
L 69.591018 48.56795 
L 69.656333 48.684044 
L 69.690545 48.242587 
L 69.693655 48.324329 
L 69.706096 48.219807 
L 69.783852 48.67098 
L 69.802513 48.273713 
L 69.852277 48.684658 
L 69.90515 48.255172 
L 69.923812 48.506447 
L 69.945583 48.265914 
L 70.007788 48.680789 
L 70.032669 48.514028 
L 70.125976 48.667925 
L 70.085543 48.26402 
L 70.144637 48.582025 
L 70.253495 48.192918 
L 70.17885 48.662768 
L 70.262826 48.205392 
L 70.32192 48.629066 
L 70.368573 48.146768 
L 70.374794 48.239907 
L 70.387234 48.164005 
L 70.443218 48.615143 
L 70.4681 48.54004 
L 70.552076 48.405148 
L 70.527194 48.636221 
L 70.567627 48.518398 
L 70.629832 48.643579 
L 70.657824 48.349099 
L 70.676485 48.56992 
L 70.791563 48.248768 
L 70.732469 48.638987 
L 70.797784 48.379697 
L 70.822665 48.489801 
L 70.810224 48.308956 
L 70.825776 48.441732 
L 70.835106 48.691514 
L 70.859988 48.358239 
L 70.937743 48.503962 
L 71.046601 48.358918 
L 70.996838 48.671681 
L 71.049711 48.454276 
L 71.052822 48.447111 
L 71.062152 48.682512 
L 71.071483 48.595132 
L 71.074593 48.677122 
L 71.090144 48.265481 
L 71.180341 48.556956 
L 71.230104 48.39922 
L 71.242545 48.640326 
L 71.289198 48.597405 
L 71.398056 48.374339 
L 71.351403 48.67986 
L 71.401166 48.435317 
L 71.45404 48.687419 
L 71.422938 48.391093 
L 71.513134 48.514078 
L 71.59089 48.272997 
L 71.531795 48.66161 
L 71.628212 48.482226 
L 71.705968 48.197159 
L 71.746401 48.68262 
L 71.808605 48.352148 
L 71.858369 48.651539 
L 71.967226 48.350213 
L 71.939234 48.677163 
L 71.973447 48.525217 
L 72.091635 48.634803 
L 72.004549 48.266738 
L 72.097856 48.620256 
L 72.197383 48.105494 
L 72.169391 48.677517 
L 72.244036 48.343738 
L 72.256477 48.652377 
L 72.272028 48.241253 
L 72.368445 48.641674 
L 72.374665 48.586818 
L 72.377775 48.640892 
L 72.44309 48.377861 
L 72.430649 48.669042 
L 72.489743 48.531823 
L 72.542617 48.684765 
L 72.508405 48.384302 
L 72.601711 48.605985 
L 72.716789 48.245902 
L 72.639034 48.676263 
L 72.741671 48.471319 
L 72.760332 48.693727 
L 72.797655 48.443334 
L 72.853639 48.581929 
L 72.884741 48.267194 
L 72.956276 48.656453 
L 72.965607 48.522887 
L 72.990489 48.681925 
L 73.00604 48.426628 
L 73.071354 48.461227 
L 73.173992 48.622458 
L 73.093126 48.312533 
L 73.183322 48.568858 
L 73.2984 48.04489 
L 73.270408 48.656225 
L 73.304621 48.203842 
L 73.307731 48.190884 
L 73.317062 48.384465 
L 73.357495 48.345558 
L 73.369936 48.669999 
L 73.450801 48.208614 
L 73.469463 48.459107 
L 73.547218 48.314587 
L 73.56899 48.640784 
L 73.57832 48.525216 
L 73.596982 48.385996 
L 73.612533 48.69893 
L 73.687178 48.538774 
L 73.771154 48.118619 
L 73.755603 48.695452 
L 73.796036 48.53761 
L 73.904893 48.67305 
L 73.827138 48.300492 
L 73.908004 48.613411 
L 73.942216 48.654667 
L 73.963988 48.496659 
L 73.970208 48.598939 
L 74.044853 48.408612 
L 74.072845 48.684493 
L 74.079066 48.587681 
L 74.085286 48.697492 
L 74.119499 48.294924 
L 74.184813 48.570291 
L 74.271899 48.38356 
L 74.28745 48.655532 
L 74.293671 48.540898 
L 74.315442 48.692556 
L 74.377647 48.325429 
L 74.396308 48.405499 
L 74.399418 48.367776 
L 74.446072 48.685092 
L 74.489615 48.549721 
L 74.551819 48.700861 
L 74.523827 48.357742 
L 74.595362 48.52679 
L 74.601583 48.375123 
L 74.676228 48.687054 
L 74.70422 48.49298 
L 74.806857 48.682664 
L 74.788196 48.253036 
L 74.816188 48.52079 
L 74.85351 48.322944 
L 74.84107 48.610988 
L 74.925046 48.451627 
L 74.98103 48.654031 
L 74.956148 48.263274 
L 75.030793 48.458575 
L 75.1241 48.226556 
L 75.068116 48.647208 
L 75.139651 48.472508 
L 75.204965 48.678524 
L 75.192524 48.237632 
L 75.254729 48.548276 
L 75.363587 48.073966 
L 75.282721 48.669233 
L 75.382248 48.135918 
L 75.41024 48.666832 
L 75.500436 48.599957 
L 75.565751 48.183869 
L 75.603074 48.664555 
L 75.609294 48.533199 
L 75.652837 48.295117 
L 75.724372 48.679147 
L 75.733703 48.381628 
L 75.83634 48.552263 
L 75.867442 48.662697 
L 75.879883 48.444638 
L 75.948308 48.626031 
L 75.966969 48.266175 
L 75.988741 48.661289 
L 76.066496 48.514 
L 76.150472 48.664546 
L 76.085158 48.381543 
L 76.172244 48.480426 
L 76.246889 48.680347 
L 76.284212 48.289392 
L 76.352637 48.676506 
L 76.39929 48.488152 
L 76.4024 48.345852 
L 76.498817 48.692234 
L 76.505037 48.549073 
L 76.508148 48.651621 
L 76.607675 48.446172 
L 76.613895 48.557264 
L 76.660548 48.283879 
L 76.629446 48.655638 
L 76.722753 48.587541 
L 76.753855 48.417269 
L 76.806729 48.682981 
L 76.8285 48.494949 
L 76.881374 48.698186 
L 76.840941 48.43201 
L 76.937358 48.434381 
L 76.956019 48.320608 
L 76.96535 48.482116 
L 77.055546 48.682537 
L 76.990232 48.377061 
L 77.077318 48.54316 
L 77.158184 48.341507 
L 77.195506 48.673982 
L 77.229719 48.217332 
L 77.313695 48.551202 
L 77.375899 48.424004 
L 77.366568 48.698949 
L 77.39456 48.565251 
L 77.481646 48.684557 
L 77.428773 48.302525 
L 77.503418 48.604627 
L 77.590504 48.363385 
L 77.553181 48.657488 
L 77.612276 48.513316 
L 77.721133 48.699702 
L 77.662039 48.298056 
L 77.724244 48.555406 
L 77.80822 48.70047 
L 77.842432 48.369766 
L 77.910857 48.678677 
L 77.848652 48.330471 
L 77.95129 48.439033 
L 78.013494 48.334312 
L 77.982392 48.68604 
L 78.057037 48.57804 
L 78.109911 48.655544 
L 78.119242 48.401291 
L 78.144123 48.420935 
L 78.150344 48.229913 
L 78.190777 48.675103 
L 78.252981 48.422864 
L 78.318296 48.671186 
L 78.277863 48.139905 
L 78.355618 48.270602 
L 78.358728 48.16211 
L 78.442704 48.652225 
L 78.452035 48.618127 
L 78.455145 48.699078 
L 78.476917 48.073708 
L 78.554672 48.576626 
L 78.644869 48.326243 
L 78.654199 48.67837 
L 78.66353 48.59389 
L 78.738175 48.652179 
L 78.710183 48.3865 
L 78.775498 48.640781 
L 78.778608 48.650947 
L 78.794159 48.330603 
L 78.819041 48.599333 
L 78.822151 48.365113 
L 78.899907 48.673424 
L 78.927899 48.527728 
L 79.002544 48.624192 
L 78.94034 48.375889 
L 79.030536 48.579971 
L 79.105181 48.306173 
L 79.052308 48.677699 
L 79.139394 48.628625 
L 79.154945 48.696706 
L 79.192267 48.429249 
L 79.248251 48.675072 
L 79.360219 48.380312 
L 79.36644 48.446498 
L 79.397542 48.37024 
L 79.434865 48.683895 
L 79.456636 48.58826 
L 79.549943 48.677692 
L 79.503289 48.407346 
L 79.562384 48.524512 
L 79.574825 48.498028 
L 79.587265 48.669565 
L 79.643249 48.574316 
L 79.733446 48.696174 
L 79.661911 48.449604 
L 79.755217 48.612148 
L 79.857855 48.406691 
L 79.851634 48.660513 
L 79.873406 48.601545 
L 79.885847 48.685007 
L 79.916949 48.491285 
L 79.944941 48.605737 
L 79.991594 48.358232 
L 79.969822 48.673306 
L 80.056909 48.503359 
L 80.103562 48.440726 
L 80.112893 48.653134 
L 80.162656 48.521068 
L 80.175097 48.689815 
L 80.203089 48.30035 
L 80.268404 48.669426 
L 80.280844 48.344103 
L 80.336828 48.673507 
L 80.380372 48.594583 
L 80.427025 48.404648 
L 80.408364 48.648802 
L 80.492339 48.519529 
L 80.601197 48.675951 
L 80.563875 48.276834 
L 80.604307 48.625294 
L 80.64163 48.361693 
L 80.691394 48.68237 
L 80.719386 48.518007 
L 80.722496 48.675944 
L 80.734937 48.341155 
L 80.831353 48.656622 
L 80.865566 48.37393 
L 80.881117 48.688021 
L 80.952652 48.485975 
L 81.049069 48.640024 
L 80.989975 48.415527 
L 81.06462 48.560899 
L 81.139265 48.682096 
L 81.148596 48.448991 
L 81.173478 48.621461 
L 81.223241 48.416082 
L 81.185919 48.682138 
L 81.285446 48.553757 
L 81.34765 48.69129 
L 81.35076 48.449665 
L 81.394303 48.593763 
L 81.428516 48.386492 
L 81.450287 48.692749 
L 81.509381 48.439368 
L 81.574696 48.671205 
L 81.552924 48.337055 
L 81.621349 48.535532 
L 81.689774 48.624448 
L 81.63379 48.350381 
L 81.733317 48.589132 
L 81.839065 48.28196 
L 81.798632 48.697734 
L 81.845285 48.461673 
L 81.941702 48.67912 
L 81.898159 48.419552 
L 81.957253 48.570864 
L 82.063001 48.469844 
L 82.047449 48.698345 
L 82.069221 48.551021 
L 82.19674 48.628254 
L 82.19985 48.687953 
L 82.277606 48.367583 
L 82.305598 48.681612 
L 82.374023 48.311966 
L 82.318039 48.685362 
L 82.423786 48.482297 
L 82.430007 48.656702 
L 82.47355 48.277944 
L 82.523313 48.393138 
L 82.535754 48.323326 
L 82.554415 48.628207 
L 82.61662 48.576958 
L 82.713037 48.700441 
L 82.638391 48.289525 
L 82.722367 48.610789 
L 82.775241 48.371202 
L 82.803233 48.680537 
L 82.831225 48.602154 
L 82.840556 48.391825 
L 82.927642 48.602693 
L 83.008507 48.682813 
L 83.014728 48.427696 
L 83.033389 48.54032 
L 83.123586 48.34699 
L 83.083153 48.683919 
L 83.142247 48.548354 
L 83.157798 48.654115 
L 83.257325 48.478428 
L 83.350632 48.310303 
L 83.285317 48.661222 
L 83.366183 48.447795 
L 83.400395 48.648266 
L 83.428387 48.288471 
L 83.47504 48.504482 
L 83.499922 48.198703 
L 83.531024 48.559833 
L 83.580788 48.558283 
L 83.624331 48.398014 
L 83.695866 48.666517 
L 83.75185 48.429689 
L 83.810944 48.459487 
L 83.89803 48.688194 
L 83.882479 48.349266 
L 83.922912 48.648321 
L 84.03488 48.449495 
L 83.997557 48.676419 
L 84.03799 48.46929 
L 84.134407 48.660081 
L 84.149958 48.579162 
L 84.18106 48.36768 
L 84.224604 48.696522 
L 84.258816 48.598535 
L 84.32102 48.67858 
L 84.302359 48.406848 
L 84.339682 48.569308 
L 84.352123 48.457824 
L 84.398776 48.697767 
L 84.448539 48.509149 
L 84.470311 48.675872 
L 84.504523 48.371012 
L 84.560507 48.545891 
L 84.641373 48.476802 
L 84.660034 48.686303 
L 84.669365 48.558349 
L 84.756451 48.664618 
L 84.703577 48.401109 
L 84.775112 48.505482 
L 84.790664 48.285885 
L 84.846648 48.681395 
L 84.87775 48.591074 
L 84.924403 48.681258 
L 84.918183 48.34334 
L 84.974167 48.597356 
L 85.01771 48.35156 
L 85.073694 48.684075 
L 85.083024 48.527115 
L 85.086134 48.688141 
L 85.15767 48.362114 
L 85.191882 48.565179 
L 85.254086 48.330129 
L 85.204323 48.684451 
L 85.30696 48.436845 
L 85.362944 48.695871 
L 85.331842 48.392308 
L 85.415818 48.432209 
L 85.422038 48.328678 
L 85.487353 48.691967 
L 85.518455 48.555698 
L 85.630423 48.698047 
L 85.605541 48.389309 
L 85.633533 48.60954 
L 85.773493 48.238183 
L 85.708178 48.702709 
L 85.795265 48.335156 
L 85.832587 48.703896 
L 85.907233 48.572784 
L 85.975657 48.517986 
L 85.929004 48.692611 
L 86.01298 48.613611 
L 86.084515 48.646876 
L 86.075184 48.375924 
L 86.100066 48.506897 
L 86.103176 48.330169 
L 86.205814 48.67292 
L 86.208924 48.537413 
L 86.264908 48.677881 
L 86.308451 48.348327 
L 86.317782 48.550918 
L 86.417309 48.425548 
L 86.345774 48.689525 
L 86.423529 48.607654 
L 86.42975 48.690088 
L 86.513725 48.499568 
L 86.516836 48.515662 
L 86.519946 48.380174 
L 86.616363 48.668909 
L 86.625693 48.587776 
L 86.681677 48.672698 
L 86.71278 48.465388 
L 86.737661 48.621377 
L 86.843409 48.385348 
L 86.796755 48.688596 
L 86.85896 48.462539 
L 86.924275 48.692973 
L 86.946046 48.326697 
L 86.974038 48.661704 
L 87.00825 48.37053 
L 87.061124 48.676677 
L 87.082896 48.584182 
L 87.110888 48.688664 
L 87.135769 48.291932 
L 87.191753 48.634815 
L 87.28817 48.283068 
L 87.241517 48.684382 
L 87.303721 48.591979 
L 87.381477 48.682089 
L 87.372146 48.437406 
L 87.390808 48.578217 
L 87.42813 48.331254 
L 87.453012 48.682833 
L 87.499665 48.54755 
L 87.546319 48.659306 
L 87.518327 48.349674 
L 87.577421 48.474576 
L 87.580531 48.341842 
L 87.664507 48.692875 
L 87.686278 48.552666 
L 87.70494 48.675129 
L 87.720491 48.377134 
L 87.726711 48.436105 
L 87.751593 48.108156 
L 87.801357 48.689799 
L 87.832459 48.544008 
L 87.916435 48.691955 
L 87.863561 48.378219 
L 87.944427 48.583599 
L 88.012852 48.677066 
L 87.98486 48.541157 
L 88.031513 48.583363 
L 88.040844 48.461251 
L 88.087497 48.690767 
L 88.143481 48.547032 
L 88.199465 48.67701 
L 88.205685 48.497563 
L 88.255449 48.59813 
L 88.292771 48.375234 
L 88.326984 48.654202 
L 88.367417 48.48836 
L 88.473164 48.683647 
L 88.485605 48.656485 
L 88.585132 48.34832 
L 88.519817 48.689208 
L 88.597573 48.559157 
L 88.603793 48.611823 
L 88.613124 48.486565 
L 88.672218 48.603023 
L 88.728202 48.331146 
L 88.824619 48.296546 
L 88.846391 48.698009 
L 88.899264 48.345695 
L 88.958358 48.565038 
L 89.054775 48.392895 
L 89.070326 48.690544 
L 89.1232 48.349274 
L 89.182294 48.66427 
L 89.247609 48.702839 
L 89.235168 48.464703 
L 89.281821 48.559874 
L 89.368907 48.384575 
L 89.312924 48.691538 
L 89.381348 48.596799 
L 89.471545 48.678958 
L 89.449773 48.410353 
L 89.490206 48.595899 
L 89.55241 48.506942 
L 89.533749 48.683949 
L 89.595954 48.682843 
L 89.599064 48.684226 
L 89.605284 48.588774 
L 89.611505 48.588482 
L 89.651937 48.704366 
L 89.729693 48.429626 
L 89.813669 48.700246 
L 89.767016 48.413159 
L 89.841661 48.518483 
L 89.854102 48.399673 
L 89.875873 48.699961 
L 89.947408 48.579713 
L 90.046935 48.65329 
L 90.031384 48.369719 
L 90.053156 48.547639 
L 90.152683 48.409051 
L 90.065597 48.695181 
L 90.155793 48.462813 
L 90.224218 48.675549 
L 90.196226 48.290394 
L 90.267761 48.529474 
L 90.370398 48.703809 
L 90.345517 48.377449 
L 90.379729 48.607463 
L 90.473036 48.671178 
L 90.454374 48.331523 
L 90.485476 48.522348 
L 90.522799 48.684026 
L 90.566342 48.490994 
L 90.594334 48.520864 
L 90.597444 48.509981 
L 90.631657 48.680131 
L 90.67209 48.618993 
L 90.684531 48.421947 
L 90.784058 48.686088 
L 90.886695 48.259397 
L 90.917797 48.356109 
L 90.992442 48.656556 
L 91.026655 48.551999 
L 91.029765 48.297189 
L 91.135512 48.619806 
L 91.194607 48.665031 
L 91.147953 48.481125 
L 91.213268 48.522074 
L 91.219488 48.414099 
L 91.284803 48.698185 
L 91.319015 48.523648 
L 91.340787 48.67587 
L 91.350118 48.450598 
L 91.424763 48.606282 
L 91.427873 48.45131 
L 91.533621 48.690583 
L 91.645589 48.461687 
L 91.673581 48.59237 
L 91.676691 48.666473 
L 91.698462 48.450386 
L 91.782438 48.575614 
L 91.785548 48.574994 
L 91.891296 48.425402 
L 91.860194 48.696885 
L 91.897516 48.517146 
L 91.937949 48.472458 
L 91.987713 48.676907 
L 91.993933 48.610939 
L 92.043697 48.680626 
L 92.09346 48.456111 
L 92.099681 48.538674 
L 92.112122 48.328991 
L 92.137003 48.618259 
L 92.211649 48.46281 
L 92.217869 48.360299 
L 92.248971 48.631581 
L 92.252081 48.63715 
L 92.264522 48.473411 
L 92.270743 48.359193 
L 92.298735 48.671076 
L 92.36716 48.655423 
L 92.420033 48.396708 
L 92.401372 48.677574 
L 92.500899 48.497528 
L 92.544442 48.425932 
L 92.538222 48.694652 
L 92.563103 48.649489 
L 92.569324 48.692597 
L 92.606647 48.221376 
L 92.65952 48.482868 
L 92.665741 48.381414 
L 92.731055 48.659902 
L 92.762158 48.620503 
L 92.855464 48.684973 
L 92.830582 48.395923 
L 92.864795 48.495316 
L 92.886566 48.22903 
L 92.895897 48.585449 
L 92.973653 48.496233 
L 93.038967 48.667256 
L 93.010975 48.357628 
L 93.07629 48.583594 
L 93.178927 48.28512 
L 93.163376 48.668807 
L 93.188258 48.477757 
L 93.325107 48.686176 
L 93.213139 48.437744 
L 93.331328 48.663085 
L 93.377981 48.371299 
L 93.412194 48.690867 
L 93.443296 48.593094 
L 93.496169 48.69723 
L 93.474398 48.535891 
L 93.524161 48.532416 
L 93.527272 48.454041 
L 93.570815 48.672117 
L 93.629909 48.531954 
L 93.636129 48.694546 
L 93.689003 48.361083 
L 93.741877 48.630378 
L 93.847624 48.392059 
L 93.810302 48.634876 
L 93.856955 48.427769 
L 93.962702 48.687655 
L 93.869396 48.372276 
L 93.978254 48.627475 
L 94.115103 48.392468 
L 93.996915 48.677863 
L 94.127544 48.59357 
L 94.230181 48.669878 
L 94.20841 48.222098 
L 94.239512 48.612169 
L 94.286165 48.426463 
L 94.267504 48.688314 
L 94.34837 48.611888 
L 94.391913 48.653488 
L 94.379472 48.483442 
L 94.416795 48.567777 
L 94.528763 48.350227 
L 94.503881 48.682475 
L 94.534983 48.407229 
L 94.643841 48.695033 
L 94.656282 48.586271 
L 94.665612 48.417829 
L 94.678053 48.680569 
L 94.702935 48.545172 
" clip-path="url(#p932cd927cf)" style="fill: none; stroke: #1f77b4; stroke-width: 0.5; stroke-linecap: square"/>
   </g>
  </g>
 </g>
 <defs>
  <clipPath id="p932cd927cf">
   <rect x="0" y="-0" width="99.212598" height="51.023622"/>
  </clipPath>
 </defs>
</svg>
