<?xml version="1.0" encoding="utf-8" standalone="no"?>
<!DOCTYPE svg PUBLIC "-//W3C//DTD SVG 1.1//EN"
  "http://www.w3.org/Graphics/SVG/1.1/DTD/svg11.dtd">
<svg xmlns:xlink="http://www.w3.org/1999/xlink" width="99.212598pt" height="51.023622pt" viewBox="0 0 99.212598 51.023622" xmlns="http://www.w3.org/2000/svg" version="1.1">
 <metadata>
  <rdf:RDF xmlns:dc="http://purl.org/dc/elements/1.1/" xmlns:cc="http://creativecommons.org/ns#" xmlns:rdf="http://www.w3.org/1999/02/22-rdf-syntax-ns#">
   <cc:Work>
    <dc:type rdf:resource="http://purl.org/dc/dcmitype/StillImage"/>
    <dc:date>2024-10-30T10:51:15.278610</dc:date>
    <dc:format>image/svg+xml</dc:format>
    <dc:creator>
     <cc:Agent>
      <dc:title>Matplotlib v3.8.4, https://matplotlib.org/</dc:title>
     </cc:Agent>
    </dc:creator>
   </cc:Work>
  </rdf:RDF>
 </metadata>
 <defs>
  <style type="text/css">*{stroke-linejoin: round; stroke-linecap: butt}</style>
 </defs>
 <g id="figure_1">
  <g id="patch_1">
   <path d="M 0 51.023622 
L 99.212598 51.023622 
L 99.212598 0 
L 0 0 
L 0 51.023622 
z
" style="fill: none"/>
  </g>
  <g id="axes_1">
   <g id="patch_2">
    <path d="M 0 51.023622 
L 99.212598 51.023622 
L 99.212598 -0 
L 0 -0 
L 0 51.023622 
z
" style="fill: none"/>
   </g>
   <g id="matplotlib.axis_1">
    <g id="xtick_1"/>
    <g id="xtick_2"/>
   </g>
   <g id="matplotlib.axis_2">
    <g id="ytick_1"/>
    <g id="ytick_2"/>
   </g>
   <g id="line2d_1">
    <path d="M 4.509664 40.495358 
L 4.562537 41.7171 
L 4.615411 39.868118 
L 4.646513 34.717762 
L 4.764702 2.319256 
L 4.814465 14.704708 
L 4.901551 47.49093 
L 4.969976 34.022941 
L 4.973086 33.728194 
L 5.01974 39.032481 
L 5.075724 48.630599 
L 5.147259 42.935982 
L 5.175251 41.638494 
L 5.225014 45.826689 
L 5.228124 45.680036 
L 5.231235 45.682351 
L 5.349423 39.625104 
L 5.30277 48.195309 
L 5.380525 41.961026 
L 5.405407 45.348232 
L 5.467611 41.377887 
L 5.495603 42.991508 
L 5.545367 45.705294 
L 5.59513 42.347774 
L 5.660445 36.520025 
L 5.716429 40.419558 
L 5.784854 47.184899 
L 5.834617 40.902444 
L 5.87816 34.727781 
L 5.931034 44.291185 
L 6.027451 48.465428 
L 5.968357 42.957352 
L 6.058553 46.978777 
L 6.083435 45.512037 
L 6.130088 47.023479 
L 6.176742 46.203726 
L 6.198513 46.995936 
L 6.248277 44.717624 
L 6.270048 44.05232 
L 6.319812 46.807812 
L 6.347804 48.147682 
L 6.413118 45.721951 
L 6.419339 45.786933 
L 6.633944 48.500552 
L 6.425559 45.764733 
L 6.655715 47.709667 
L 6.674377 47.436368 
L 6.711699 48.379802 
L 6.749022 48.130169 
L 6.798786 48.547805 
L 6.836108 46.775221 
L 6.845439 46.372267 
L 6.885872 47.107712 
L 6.948076 46.659065 
L 7.038272 48.181064 
L 7.060044 46.944648 
L 7.122248 45.379539 
L 7.168902 46.704547 
L 7.209335 47.272285 
L 7.255988 45.889749 
L 7.262208 45.922284 
L 7.2902 45.727402 
L 7.336854 47.520308 
L 7.343074 47.776581 
L 7.386617 44.962954 
L 7.473703 48.559897 
L 7.557679 46.923621 
L 7.560789 46.685203 
L 7.585671 47.990694 
L 7.657206 47.644741 
L 7.719411 48.55331 
L 7.756733 47.568154 
L 7.772284 48.00536 
L 7.778505 48.387707 
L 7.859371 46.77986 
L 7.906024 44.904602 
L 7.965118 47.066801 
L 7.974449 47.41713 
L 8.017992 45.748632 
L 8.077086 47.150561 
L 8.117519 46.298964 
L 8.170393 47.746718 
L 8.182833 47.98578 
L 8.238817 46.766378 
L 8.27614 47.62896 
L 8.360116 46.93452 
L 8.329014 48.567388 
L 8.381888 47.584794 
L 8.41299 48.194361 
L 8.431651 47.251677 
L 8.500076 48.037358 
L 8.56228 47.521589 
L 8.534288 48.305082 
L 8.615154 47.738822 
L 8.630705 48.109608 
L 8.677358 47.262594 
L 8.720902 47.696401 
L 8.770665 47.338445 
L 8.739563 48.435649 
L 8.829759 47.595673 
L 8.860861 48.406647 
L 8.919956 47.151028 
L 8.935507 47.496441 
L 8.966609 46.922921 
L 8.997711 47.699262 
L 9.003932 47.931849 
L 9.056805 45.758276 
L 9.072356 45.076345 
L 9.137671 48.412405 
L 9.255859 47.168271 
L 9.27141 47.720325 
L 9.367827 48.552525 
L 9.346056 47.515527 
L 9.380268 47.81976 
L 9.40204 46.944286 
L 9.451803 48.481124 
L 9.476685 48.19978 
L 9.517118 48.599215 
L 9.569992 47.947867 
L 9.576212 48.152286 
L 9.635306 47.193363 
L 9.594873 48.270732 
L 9.68507 48.176689 
L 9.790817 47.705914 
L 9.725503 48.473906 
L 9.803258 47.866023 
L 9.924557 48.55677 
L 9.862352 47.348721 
L 9.927667 48.433162 
L 9.943218 47.354575 
L 10.027194 48.655665 
L 10.039635 48.193648 
L 10.042745 48.192352 
L 10.145382 47.653336 
L 10.083178 48.478661 
L 10.154713 47.899618 
L 10.276012 48.611268 
L 10.25424 47.619781 
L 10.279122 48.5294 
L 10.328885 46.747619 
L 10.39731 47.953281 
L 10.412861 48.369458 
L 10.456404 47.552414 
L 10.506168 47.862895 
L 10.521719 47.118465 
L 10.562152 48.452339 
L 10.611915 48.064004 
L 10.67412 48.666408 
L 10.708332 47.6373 
L 10.711442 47.70673 
L 10.714553 47.581919 
L 10.792308 48.074231 
L 10.81408 48.030039 
L 10.81719 48.021087 
L 10.8203 48.29225 
L 10.842072 48.637954 
L 10.876284 47.870474 
L 10.922937 47.922137 
L 11.047346 47.107771 
L 10.985142 48.042076 
L 11.062897 47.704805 
L 11.087779 48.675189 
L 11.159314 47.57281 
L 11.165534 47.639902 
L 11.224629 48.413822 
L 11.280613 46.983466 
L 11.377029 48.66465 
L 11.405021 48.102969 
L 11.470336 47.375419 
L 11.498328 48.35656 
L 11.52321 47.591431 
L 11.628957 48.562023 
L 11.544981 47.582302 
L 11.641398 48.327838 
L 11.678721 47.929858 
L 11.709823 48.682891 
L 11.756476 48.098656 
L 11.784468 48.635229 
L 11.80935 48.04148 
L 11.880885 48.463867 
L 11.9462 48.079178 
L 11.918208 48.58563 
L 11.995963 48.12549 
L 12.048837 47.697985 
L 12.020845 48.633465 
L 12.111041 47.862933 
L 12.173246 48.525821 
L 12.139033 47.378918 
L 12.219899 47.993934 
L 12.300765 47.359986 
L 12.254111 48.212929 
L 12.338087 47.416911 
L 12.431394 48.654134 
L 12.350528 47.211889 
L 12.456276 47.777309 
L 12.502929 48.461533 
L 12.462496 47.711559 
L 12.580685 48.060012 
L 12.605566 47.038176 
L 12.686432 48.50693 
L 12.689542 48.673949 
L 12.726865 47.701161 
L 12.782849 47.763469 
L 12.907258 48.638947 
L 12.79218 47.722726 
L 12.916588 48.203899 
L 12.991234 47.904727 
L 12.93525 48.656264 
L 13.006785 48.246079 
L 13.093871 48.609758 
L 13.037887 47.541458 
L 13.118753 48.440918 
L 13.121863 48.44434 
L 13.128083 48.300829 
L 13.134304 48.399193 
L 13.180957 47.845487 
L 13.215169 48.609384 
L 13.255602 47.951379 
L 13.268043 47.692913 
L 13.289815 48.123065 
L 13.296035 48.450743 
L 13.36446 47.748655 
L 13.392452 47.991019 
L 13.414224 47.360015 
L 13.451546 48.064792 
L 13.50442 47.840241 
L 13.575955 48.367889 
L 13.516861 47.749919 
L 13.591506 47.913558 
L 13.594616 47.627945 
L 13.656821 48.6525 
L 13.700364 48.006298 
L 13.731466 48.625013 
L 13.818552 48.443519 
L 13.942961 47.138169 
L 13.946071 47.296461 
L 13.977173 48.636152 
L 14.058039 47.507832 
L 14.086031 48.44392 
L 14.123354 47.353514 
L 14.173117 47.770074 
L 14.179338 47.589224 
L 14.20733 48.555819 
L 14.266424 48.313792 
L 14.278865 48.45587 
L 14.3504 47.871615 
L 14.372171 48.330258 
L 14.446817 47.90124 
L 14.477919 48.594383 
L 14.599217 47.852374 
L 14.487249 48.691903 
L 14.608548 48.075766 
L 14.692524 48.498085 
L 14.648981 46.702937 
L 14.720516 48.130072 
L 14.848035 47.216174 
L 14.7765 48.637003 
L 14.851145 47.287424 
L 14.860476 47.234082 
L 14.910239 47.955143 
L 14.91957 47.81991 
L 14.963113 48.614317 
L 15.000436 47.439524 
L 15.040869 48.44917 
L 15.171498 47.510553 
L 15.103073 48.687932 
L 15.183939 47.556328 
L 15.20571 48.41807 
L 15.224372 48.684063 
L 15.280356 47.751646 
L 15.314568 48.389453 
L 15.333229 48.636622 
L 15.351891 48.019285 
L 15.355001 47.746471 
L 15.398544 48.6241 
L 15.457638 48.455907 
L 15.463859 48.574955 
L 15.476299 47.970196 
L 15.554055 47.403727 
L 15.532283 48.693266 
L 15.585157 48.127114 
L 15.610039 48.648672 
L 15.647362 48.015169 
L 15.706456 48.443282 
L 15.812203 48.68932 
L 15.740668 47.961939 
L 15.821534 48.60336 
L 15.899289 48.650965 
L 15.939722 48.082238 
L 15.952163 48.491565 
L 15.986376 47.658441 
L 16.04858 48.008302 
L 16.104564 48.395352 
L 16.141887 47.654598 
L 16.144997 47.706087 
L 16.176099 47.350219 
L 16.238303 48.428903 
L 16.244524 48.074375 
L 16.263185 48.554157 
L 16.3285 47.674081 
L 16.359602 48.460166 
L 16.381374 47.66077 
L 16.412476 48.490383 
L 16.46846 48.191894 
L 16.521333 48.502457 
L 16.543105 47.8507 
L 16.577317 48.097699 
L 16.648852 47.639564 
L 16.670624 48.558569 
L 16.686175 48.175483 
L 16.739049 47.972151 
L 16.767041 48.619053 
L 16.788812 48.382193 
L 16.835466 48.631576 
L 16.872788 47.97488 
L 16.882119 48.082873 
L 16.987866 47.864447 
L 16.916331 48.54645 
L 16.997197 47.869877 
L 17.074953 48.618731 
L 17.109165 48.289494 
L 17.17759 48.03966 
L 17.149598 48.612391 
L 17.211802 48.32049 
L 17.301999 48.694093 
L 17.289558 48.065042 
L 17.32066 48.288148 
L 17.410856 47.11316 
L 17.367313 48.302516 
L 17.438848 47.323652 
L 17.547706 48.495116 
L 17.572588 48.024045 
L 17.59747 47.401553 
L 17.628572 48.032568 
L 17.684556 47.835567 
L 17.774752 48.527384 
L 17.74676 47.429802 
L 17.799634 48.258803 
L 17.864948 47.651101 
L 17.88361 48.435888 
L 17.908492 48.27455 
L 18.008019 48.692028 
L 17.964476 47.876302 
L 18.02357 48.522083 
L 18.107546 48.066586 
L 18.070223 48.561903 
L 18.135538 48.401368 
L 18.17597 48.657585 
L 18.194632 48.087456 
L 18.213293 48.245304 
L 18.259946 48.010935 
L 18.303489 48.501684 
L 18.319041 48.327914 
L 18.418568 48.696738 
L 18.371914 48.147754 
L 18.427898 48.348017 
L 18.440339 48.067895 
L 18.480772 48.691435 
L 18.536756 48.374001 
L 18.561638 48.684672 
L 18.630063 48.007216 
L 18.645614 48.421538 
L 18.748251 47.954734 
L 18.689157 48.644323 
L 18.760692 48.251047 
L 18.779353 48.639126 
L 18.832227 47.805312 
L 18.87577 48.540953 
L 18.965966 47.728155 
L 18.894431 48.618418 
L 18.990848 48.286852 
L 19.037501 48.517377 
L 19.062383 47.758195 
L 19.102816 48.336023 
L 19.105926 48.339858 
L 19.15569 47.358769 
L 19.214784 48.079442 
L 19.273878 48.598688 
L 19.308091 47.935685 
L 19.323642 48.026512 
L 19.354744 47.747552 
L 19.339193 48.356303 
L 19.376515 48.314668 
L 19.388956 48.625278 
L 19.44494 47.868352 
L 19.482263 48.230134 
L 19.497814 47.984125 
L 19.525806 48.633577 
L 19.5849 48.264985 
L 19.650215 48.68339 
L 19.628443 48.103733 
L 19.675097 48.112761 
L 19.681317 47.968403 
L 19.703089 48.640144 
L 19.774624 48.405133 
L 19.855489 48.679363 
L 19.824387 48.000358 
L 19.886592 48.536928 
L 19.927024 47.76568 
L 19.986119 48.653736 
L 19.992339 48.453864 
L 20.029662 48.648416 
L 20.048323 48.220465 
L 20.101197 48.376443 
L 20.126078 48.563823 
L 20.178952 47.971347 
L 20.210054 48.36769 
L 20.225605 47.966147 
L 20.306471 48.668045 
L 20.318912 48.248334 
L 20.418439 48.61578 
L 20.390447 47.958076 
L 20.42777 48.293237 
L 20.511746 47.733238 
L 20.461982 48.443282 
L 20.539738 48.191739 
L 20.552179 48.259995 
L 20.642375 48.686314 
L 20.564619 47.96323 
L 20.661036 48.509008 
L 20.689028 48.025722 
L 20.682808 48.590601 
L 20.776114 48.070018 
L 20.869421 48.61997 
L 20.807217 47.793114 
L 20.891193 48.357121 
L 20.906744 48.111499 
L 20.99383 48.609816 
L 21.00005 48.36724 
L 21.062255 48.671227 
L 21.096467 48.044532 
L 21.105798 48.16428 
L 21.171112 48.689881 
L 21.227096 48.404683 
L 21.251978 47.857329 
L 21.27997 48.627516 
L 21.335954 48.38815 
L 21.379497 48.655617 
L 21.351505 47.982469 
L 21.438591 48.309297 
L 21.519457 48.028888 
L 21.457253 48.661382 
L 21.538118 48.359343 
L 21.622094 48.655757 
L 21.578551 48.168269 
L 21.650086 48.45247 
L 21.743393 48.655269 
L 21.668748 48.227305 
L 21.765164 48.641594 
L 21.824259 47.85555 
L 21.790046 48.691209 
L 21.905124 48.094584 
L 21.970439 48.59709 
L 22.007762 47.789312 
L 22.017092 48.146785 
L 22.13217 48.649397 
L 22.023313 47.966443 
L 22.144611 48.401812 
L 22.178824 47.821321 
L 22.253469 48.441452 
L 22.26591 48.676091 
L 22.337445 47.89676 
L 22.340555 48.023979 
L 22.346776 47.730833 
L 22.41209 48.596923 
L 22.436972 48.566155 
L 22.440082 48.641146 
L 22.511617 48.048673 
L 22.539609 48.423586 
L 22.558271 48.162364 
L 22.639136 48.667932 
L 22.648467 48.440722 
L 22.751104 48.670698 
L 22.657798 48.197994 
L 22.763545 48.592 
L 22.782206 48.300243 
L 22.844411 48.67982 
L 22.875513 48.373043 
L 22.96882 48.615877 
L 22.900395 48.014667 
L 22.984371 48.390091 
L 23.012363 48.295171 
L 23.040355 48.659306 
L 23.093228 48.400033 
L 23.11189 48.622447 
L 23.192755 48.079981 
L 23.198976 48.244527 
L 23.202086 48.091375 
L 23.286062 48.639834 
L 23.304723 48.452265 
L 23.348266 48.693759 
L 23.40114 48.150956 
L 23.435353 48.04208 
L 23.407361 48.38511 
L 23.447793 48.282148 
L 23.556651 48.612278 
L 23.488226 47.597952 
L 23.565982 48.526254 
L 23.587753 48.19342 
L 23.671729 48.635968 
L 23.67484 48.540755 
L 23.67795 48.626929 
L 23.737044 47.873498 
L 23.774367 48.227269 
L 23.786807 48.676868 
L 23.901886 48.617319 
L 23.988972 48.02461 
L 24.010743 48.623125 
L 24.016964 48.623334 
L 24.020074 48.556679 
L 24.051176 48.071178 
L 24.038735 48.587609 
L 24.138262 48.354261 
L 24.166254 48.109862 
L 24.212908 48.638751 
L 24.25023 48.217124 
L 24.262671 48.657445 
L 24.343537 47.935684 
L 24.362198 48.411706 
L 24.430623 48.175548 
L 24.374639 48.65395 
L 24.467946 48.565375 
L 24.480387 48.10894 
L 24.567473 48.617614 
L 24.573693 48.685004 
L 24.629677 48.265768 
L 24.67011 48.576062 
L 24.722984 47.938771 
L 24.778968 48.502071 
L 24.850503 48.666432 
L 24.872274 48.226232 
L 24.887825 48.454544 
L 24.894046 48.680262 
L 25.002903 48.26808 
L 25.027785 48.699872 
L 25.055777 48.034516 
L 25.111761 48.319454 
L 25.189517 48.003362 
L 25.214398 48.381443 
L 25.220619 48.380155 
L 25.23617 48.650094 
L 25.289044 47.96911 
L 25.335697 48.574444 
L 25.341917 48.542279 
L 25.345028 48.57237 
L 25.369909 48.113845 
L 25.450775 48.643659 
L 25.453885 48.533337 
L 25.472547 48.677925 
L 25.509869 48.248286 
L 25.540972 48.501104 
L 25.612507 48.112538 
L 25.600066 48.579807 
L 25.652939 48.395528 
L 25.696483 47.996432 
L 25.761797 48.617574 
L 25.79912 48.068924 
L 25.836442 48.632825 
L 25.873765 48.464348 
L 25.907978 48.638106 
L 25.9453 47.929434 
L 25.979513 48.512303 
L 26.032386 47.965875 
L 26.094591 48.010473 
L 26.097701 47.847595 
L 26.175456 48.661429 
L 26.197228 48.264807 
L 26.243881 48.553834 
L 26.268763 48.036573 
L 26.306086 48.156553 
L 26.321637 47.938359 
L 26.36518 48.657781 
L 26.399392 48.301662 
L 26.480258 48.655124 
L 26.498919 47.970273 
L 26.50825 48.148483 
L 26.526911 48.700563 
L 26.554903 48.084553 
L 26.623328 48.559936 
L 26.65132 47.999538 
L 26.629549 48.613709 
L 26.741516 48.366915 
L 26.819272 48.54669 
L 26.772619 48.071539 
L 26.841044 48.141471 
L 26.915689 48.693253 
L 26.850374 47.832693 
L 26.987224 48.271754 
L 27.049428 48.110025 
L 27.083641 48.564675 
L 27.086751 48.545918 
L 27.111633 48.67414 
L 27.152066 48.313969 
L 27.192498 48.536012 
L 27.295136 48.137315 
L 27.201829 48.686905 
L 27.310687 48.268374 
L 27.407104 48.652729 
L 27.35423 47.938861 
L 27.416434 48.189866 
L 27.425765 47.746294 
L 27.512851 48.534195 
L 27.528402 48.134787 
L 27.562615 48.670499 
L 27.64037 48.563189 
L 27.662142 47.88347 
L 27.736787 48.693692 
L 27.758558 48.19289 
L 27.792771 48.635852 
L 27.764779 48.033331 
L 27.873637 48.509569 
L 27.942061 48.091611 
L 27.932731 48.618962 
L 27.982494 48.475212 
L 28.016707 48.636664 
L 28.075801 48.281258 
L 28.091352 48.39736 
L 28.159777 48.683596 
L 28.181548 48.229717 
L 28.20332 48.466247 
L 28.243753 48.660239 
L 28.225091 48.358597 
L 28.262414 48.503382 
L 28.324619 48.227385 
L 28.271745 48.672031 
L 28.371272 48.604133 
L 28.430366 48.106689 
L 28.414815 48.612148 
L 28.48013 48.462353 
L 28.501901 48.64439 
L 28.542334 48.173416 
L 28.585877 48.48457 
L 28.62942 48.100112 
L 28.657412 48.629234 
L 28.694735 48.508286 
L 28.700955 48.62025 
L 28.744498 48.303475 
L 28.788041 48.220188 
L 28.809813 48.600595 
L 28.840915 48.363088 
L 28.853356 48.663305 
L 28.940442 48.015586 
L 28.949773 48.329837 
L 28.971544 48.635212 
L 29.024418 47.917293 
L 29.033749 48.013471 
L 29.043079 47.708442 
L 29.064851 48.240191 
L 29.067961 48.234315 
L 29.123945 48.64325 
L 29.099063 48.095242 
L 29.176819 48.278734 
L 29.223472 48.164172 
L 29.267015 48.633167 
L 29.285677 48.341503 
L 29.397644 48.62249 
L 29.360322 48.176358 
L 29.400755 48.611019 
L 29.413196 48.076754 
L 29.462959 48.693452 
L 29.509612 48.427705 
L 29.565596 48.375636 
L 29.62469 48.66261 
L 29.717997 48.26838 
L 29.727328 48.678749 
L 29.736658 48.569851 
L 29.798863 48.40406 
L 29.773981 48.700841 
L 29.848626 48.471312 
L 29.873508 48.696158 
L 29.917051 48.292611 
L 29.963704 48.643758 
L 30.03835 48.235803 
L 30.069452 48.681614 
L 30.075672 48.59358 
L 30.106775 48.67323 
L 30.190751 48.274962 
L 30.240514 48.67041 
L 30.200081 48.099919 
L 30.299608 48.256791 
L 30.3276 48.649565 
L 30.346262 48.161301 
L 30.427127 48.408818 
L 30.445789 48.147344 
L 30.46756 48.646886 
L 30.532875 48.557025 
L 30.632402 48.08368 
L 30.554646 48.614967 
L 30.672835 48.367272 
L 30.728819 48.630014 
L 30.7537 48.133572 
L 30.784803 48.569208 
L 30.806574 48.276109 
L 30.828346 48.636841 
L 30.89366 48.559177 
L 30.918542 48.642172 
L 30.980746 48.060042 
L 31.002518 48.542395 
L 31.02429 48.643131 
L 31.039841 48.324883 
L 31.083384 48.146711 
L 31.133147 48.615289 
L 31.139368 48.596227 
L 31.142478 48.664873 
L 31.161139 48.009536 
L 31.248225 48.572869 
L 31.294879 48.298096 
L 31.254446 48.645799 
L 31.353973 48.596195 
L 31.441059 48.682517 
L 31.4535 48.292685 
L 31.45972 48.505144 
L 31.543696 48.229557 
L 31.528145 48.675827 
L 31.568578 48.312455 
L 31.627672 48.673982 
L 31.658774 48.165407 
L 31.683656 48.561016 
L 31.764522 48.268901 
L 31.792514 48.648025 
L 31.829837 48.283879 
L 31.860939 48.689972 
L 31.907592 48.431493 
L 32.010229 48.689956 
L 32.004009 48.382922 
L 32.01956 48.557439 
L 32.02267 48.551551 
L 32.050662 48.080921 
L 32.109756 48.671123 
L 32.131528 48.548455 
L 32.147079 48.561128 
L 32.143969 48.280142 
L 32.150189 48.491138 
L 32.206173 47.981376 
L 32.249716 48.539092 
L 32.262157 48.339556 
L 32.336802 48.691581 
L 32.268378 48.240004 
L 32.371015 48.357395 
L 32.374125 48.262961 
L 32.399007 48.661523 
L 32.473652 48.596829 
L 32.523416 48.293372 
L 32.538967 48.659904 
L 32.5794 48.642271 
L 32.58251 48.660222 
L 32.594951 48.106495 
L 32.638494 48.475768 
L 32.650935 48.126234 
L 32.685147 48.646947 
L 32.747351 48.354122 
L 32.778454 48.670076 
L 32.818886 48.249079 
L 32.859319 48.451304 
L 32.915303 48.311275 
L 32.87176 48.665537 
L 32.952626 48.54651 
L 33.027271 48.646587 
L 32.965067 48.244426 
L 33.058373 48.550345 
L 33.111247 48.12465 
L 33.164121 48.642145 
L 33.167231 48.475059 
L 33.226325 48.672195 
L 33.269868 48.281116 
L 33.279199 48.585631 
L 33.332073 48.312309 
L 33.369395 48.685658 
L 33.391167 48.428574 
L 33.425379 48.660591 
L 33.490694 48.314394 
L 33.496914 48.522963 
L 33.500025 48.273458 
L 33.584001 48.702458 
L 33.605772 48.606894 
L 33.658646 48.676025 
L 33.723961 48.412946 
L 33.823488 48.644519 
L 33.807936 48.183361 
L 33.835928 48.608334 
L 33.951007 48.125061 
L 33.870141 48.66466 
L 33.954117 48.273509 
L 33.99455 48.639971 
L 34.013211 48.095664 
L 34.069195 48.635685 
L 34.14073 48.232306 
L 34.090966 48.639608 
L 34.181163 48.406702 
L 34.249588 48.685551 
L 34.271359 48.350612 
L 34.293131 48.545953 
L 34.370886 48.078535 
L 34.395768 48.653863 
L 34.405099 48.498177 
L 34.461083 48.044784 
L 34.42065 48.67887 
L 34.510846 48.401496 
L 34.591712 48.699904 
L 34.573051 48.324367 
L 34.619704 48.664151 
L 34.672578 48.046838 
L 34.647696 48.690515 
L 34.728562 48.580339 
L 34.741002 48.692007 
L 34.772105 48.370606 
L 34.812538 48.426763 
L 34.824978 48.126024 
L 34.893403 48.696005 
L 34.905844 48.383572 
L 34.912065 48.684607 
L 34.943167 48.270911 
L 35.017812 48.647399 
L 35.030253 48.227467 
L 35.12978 48.56345 
L 35.213756 48.661467 
L 35.145331 48.299742 
L 35.229307 48.329613 
L 35.238638 48.252511 
L 35.307063 48.648883 
L 35.331944 48.686912 
L 35.381708 48.420507 
L 35.394149 48.64341 
L 35.443912 48.299157 
L 35.493676 48.668879 
L 35.506117 48.425136 
L 35.530998 48.598043 
L 35.602533 48.168724 
L 35.611864 48.404671 
L 35.614974 48.316178 
L 35.705171 48.697338 
L 35.717612 48.469038 
L 35.810918 48.704366 
L 35.779816 48.292388 
L 35.826469 48.610469 
L 35.851351 48.132452 
L 35.888674 48.698322 
L 35.935327 48.432526 
L 36.006862 48.572947 
L 36.028634 48.243959 
L 36.041074 48.423792 
L 36.090838 48.696031 
L 36.153042 48.30337 
L 36.215247 48.662053 
L 36.243239 48.145373 
L 36.26501 48.35477 
L 36.320994 48.011761 
L 36.274341 48.599425 
L 36.345876 48.439768 
L 36.352096 48.616543 
L 36.39875 48.103182 
L 36.442293 48.187967 
L 36.457844 48.024828 
L 36.532489 48.659283 
L 36.54493 48.330052 
L 36.613355 48.661751 
L 36.576032 48.179821 
L 36.660008 48.484436 
L 36.753315 48.182981 
L 36.709772 48.59533 
L 36.771976 48.4546 
L 36.803078 48.679408 
L 36.787527 48.242372 
L 36.880834 48.375848 
L 36.883944 48.178462 
L 36.927487 48.672959 
L 36.989692 48.447928 
L 36.999022 48.670479 
L 37.095439 48.169888 
L 37.129651 48.660682 
L 37.207407 48.35113 
L 37.226068 48.659419 
L 37.319375 48.48111 
L 37.369138 48.639073 
L 37.39713 48.24608 
L 37.431343 48.556756 
L 37.459335 48.667514 
L 37.477996 48.369036 
L 37.53087 48.502835 
L 37.568193 48.157111 
L 37.633507 48.660057 
L 37.639728 48.548692 
L 37.701932 48.682695 
L 37.652168 48.309643 
L 37.748585 48.580433 
L 37.860553 48.013952 
L 37.829451 48.642711 
L 37.872994 48.416148 
L 37.95697 48.169993 
L 37.904096 48.590795 
L 37.969411 48.460169 
L 37.978742 48.684702 
L 38.059607 48.306578 
L 38.072048 48.348392 
L 38.109371 48.083274 
L 38.084489 48.651726 
L 38.165355 48.51094 
L 38.215118 48.675333 
L 38.187126 48.060432 
L 38.274212 48.533872 
L 38.364409 48.24887 
L 38.299094 48.682412 
L 38.37685 48.37454 
L 38.37996 48.647376 
L 38.401731 48.271236 
L 38.485707 48.352593 
L 38.501259 48.157706 
L 38.563463 48.557474 
L 38.566573 48.577449 
L 38.588345 48.148497 
L 38.594565 48.1502 
L 38.597675 48.035427 
L 38.66299 48.668183 
L 38.694092 48.404002 
L 38.784289 48.349016 
L 38.80295 48.692606 
L 38.883816 48.296127 
L 38.914918 48.400515 
L 38.924248 48.673839 
L 39.011335 48.295567 
L 39.023775 48.427104 
L 39.029996 48.136876 
L 39.098421 48.68912 
L 39.132633 48.439537 
L 39.22594 48.67574 
L 39.138854 48.306245 
L 39.247711 48.602633 
L 39.3659 48.23015 
L 39.313026 48.6833 
L 39.36901 48.25187 
L 39.37212 48.248235 
L 39.37523 48.321955 
L 39.456096 48.657722 
L 39.412553 48.242539 
L 39.484088 48.267628 
L 39.568064 48.675245 
L 39.530741 48.205855 
L 39.592946 48.448369 
L 39.596056 48.286664 
L 39.633379 48.614692 
L 39.698693 48.479483 
L 39.701803 48.637355 
L 39.79511 48.228513 
L 39.807551 48.470506 
L 39.851094 48.144441 
L 39.872866 48.641384 
L 39.916409 48.355854 
L 40.022156 48.649773 
L 39.956842 48.168335 
L 40.028377 48.54479 
L 40.099912 48.281466 
L 40.084361 48.67594 
L 40.146565 48.475221 
L 40.155896 48.668035 
L 40.21499 48.342274 
L 40.258533 48.586985 
L 40.280304 48.030484 
L 40.326958 48.627221 
L 40.376721 48.21096 
L 40.395383 48.667305 
L 40.420264 48.067588 
L 40.488689 48.458058 
L 40.49491 48.215951 
L 40.563334 48.656171 
L 40.597547 48.542787 
L 40.6442 48.224802 
L 40.700184 48.698436 
L 40.703294 48.579755 
L 40.793491 48.681565 
L 40.77794 48.295616 
L 40.796601 48.463135 
L 40.877467 48.216054 
L 40.815262 48.669114 
L 40.899238 48.615661 
L 40.902348 48.630758 
L 40.936561 48.298545 
L 40.952112 48.442934 
L 41.054749 48.154083 
L 41.014316 48.664114 
L 41.06097 48.480035 
L 41.144946 48.697363 
L 41.082741 48.46077 
L 41.172938 48.51689 
L 41.260024 48.28756 
L 41.20093 48.670518 
L 41.272465 48.476071 
L 41.340889 48.692414 
L 41.281795 48.381854 
L 41.381322 48.562979 
L 41.393763 48.165718 
L 41.415535 48.68714 
L 41.49018 48.488425 
L 41.539944 48.690263 
L 41.583487 48.133361 
L 41.595927 48.494311 
L 41.651911 48.111736 
L 41.620809 48.63723 
L 41.704785 48.600186 
L 41.7701 48.276083 
L 41.717226 48.682878 
L 41.813643 48.385966 
L 41.816753 48.58588 
L 41.91939 48.146466 
L 41.922501 48.252396 
L 41.994036 48.619232 
L 41.953603 47.886732 
L 42.05002 48.463541 
L 42.081122 48.342672 
L 42.087342 48.647636 
L 42.093563 48.592067 
L 42.096673 48.692722 
L 42.121555 48.154274 
L 42.1962 48.322581 
L 42.267735 48.263073 
L 42.249074 48.697476 
L 42.286396 48.482288 
L 42.354821 48.698684 
L 42.314388 48.175058 
L 42.398364 48.634121 
L 42.507222 48.03093 
L 42.454348 48.637595 
L 42.513442 48.300874 
L 42.535214 47.999282 
L 42.591198 48.614276 
L 42.600529 48.257861 
L 42.706276 48.687399 
L 42.61919 48.056431 
L 42.712496 48.366572 
L 42.812024 48.682618 
L 42.752929 48.324999 
L 42.824464 48.478219 
L 42.861787 48.20823 
L 42.90533 48.668954 
L 42.920881 48.551485 
L 42.951983 48.694492 
L 42.979975 48.383527 
L 43.032849 48.653377 
L 43.057731 48.284024 
L 43.129266 48.694697 
L 43.144817 48.573934 
L 43.228793 48.642985 
L 43.157258 48.205378 
L 43.241234 48.535564 
L 43.312769 48.149365 
L 43.266116 48.676285 
L 43.350092 48.54116 
L 43.362532 48.678789 
L 43.421627 48.174115 
L 43.452729 48.396262 
L 43.455839 48.315901 
L 43.536705 48.682536 
L 43.552256 48.533572 
L 43.555366 48.64103 
L 43.60513 48.23138 
L 43.654893 48.512322 
L 43.707767 48.105714 
L 43.729538 48.656961 
L 43.766861 48.372397 
L 43.773082 48.248551 
L 43.804184 48.682526 
L 43.869498 48.572303 
L 43.941033 48.650545 
L 43.903711 48.314911 
L 43.965915 48.463235 
L 44.03434 48.696874 
L 44.080993 48.140042 
L 44.18052 48.651735 
L 44.196071 48.587441 
L 44.283158 48.238559 
L 44.236504 48.652869 
L 44.304929 48.532313 
L 44.308039 48.653359 
L 44.373354 48.246093 
L 44.410677 48.364318 
L 44.416897 48.110164 
L 44.475991 48.648884 
L 44.516424 48.356515 
L 44.619061 48.688952 
L 44.584849 48.257834 
L 44.625282 48.663747 
L 44.671935 48.282829 
L 44.74036 48.345994 
L 44.774572 48.039272 
L 44.783903 48.611455 
L 44.842997 48.521477 
L 44.939414 48.659316 
L 44.911422 48.307152 
L 44.945634 48.436444 
L 44.961186 48.199821 
L 45.032721 48.64847 
L 45.066933 48.295482 
L 45.16646 48.676308 
L 45.188232 48.528949 
L 45.210003 48.670784 
L 45.244216 48.219829 
L 45.287759 48.455383 
L 45.396616 48.174496 
L 45.353073 48.623691 
L 45.399727 48.339273 
L 45.461931 48.654056 
L 45.496143 48.274586 
L 45.514805 48.491739 
L 45.564568 48.443803 
L 45.58634 48.654666 
L 45.614332 48.571558 
L 45.617442 48.645967 
L 45.707638 48.147765 
L 45.710749 48.2493 
L 45.716969 48.20917 
L 45.779173 48.670131 
L 45.791614 48.548073 
L 45.86626 48.661709 
L 45.835157 48.20545 
L 45.900472 48.495962 
L 45.940905 48.343838 
L 45.975117 48.677786 
L 46.003109 48.507726 
L 46.102636 48.669281 
L 46.00933 48.357741 
L 46.115077 48.589175 
L 46.171061 48.321588 
L 46.14929 48.655294 
L 46.217714 48.515084 
L 46.279919 48.667309 
L 46.30169 48.134863 
L 46.320352 48.274843 
L 46.323462 48.154379 
L 46.373225 48.662215 
L 46.422989 48.542093 
L 46.450981 48.221721 
L 46.506965 48.599793 
L 46.603382 48.648779 
L 46.559839 48.193224 
L 46.609602 48.52082 
L 46.643815 48.111114 
L 46.71846 48.605563 
L 46.789995 48.287037 
L 46.824207 48.511683 
L 46.827318 48.671242 
L 46.842869 48.012617 
L 46.929955 48.400304 
L 46.942396 48.259581 
L 46.99838 48.682177 
L 47.035702 48.526962 
L 47.14145 48.648954 
L 47.085466 48.195105 
L 47.14767 48.560246 
L 47.188103 48.676437 
L 47.203654 48.435657 
L 47.206764 48.482359 
L 47.209875 48.34092 
L 47.2783 48.697857 
L 47.312512 48.554994 
L 47.365386 48.687323 
L 47.328063 48.218968 
L 47.412039 48.39303 
L 47.418259 48.216073 
L 47.436921 48.65408 
L 47.517786 48.549228 
L 47.56133 48.680311 
L 47.524007 48.465739 
L 47.56755 48.643267 
L 47.579991 48.348552 
L 47.595542 48.680935 
L 47.679518 48.456592 
L 47.782155 48.694404 
L 47.763494 48.293837 
L 47.797706 48.64831 
L 47.909674 48.198946 
L 47.912784 48.242609 
L 48.012311 48.658931 
L 48.027863 48.522622 
L 48.121169 48.655036 
L 48.142941 48.34619 
L 48.146051 48.341275 
L 48.158492 48.521223 
L 48.254909 48.672262 
L 48.180263 48.172085 
L 48.267349 48.567082 
L 48.338885 48.334215 
L 48.335774 48.649296 
L 48.376207 48.509234 
L 48.481955 48.676947 
L 48.450852 48.336095 
L 48.488175 48.64189 
L 48.506836 48.267445 
L 48.537939 48.689872 
L 48.600143 48.53349 
L 48.69656 48.220132 
L 48.674788 48.66472 
L 48.709001 48.646989 
L 48.796087 48.230934 
L 48.84274 48.339805 
L 48.852071 48.692241 
L 48.880063 48.274087 
L 48.951598 48.490424 
L 49.054235 48.222177 
L 49.023133 48.677119 
L 49.063566 48.35293 
L 49.113329 48.667096 
L 49.156872 48.261694 
L 49.169313 48.386995 
L 49.172424 48.281174 
L 49.219077 48.649573 
L 49.275061 48.515446 
L 49.315494 48.249797 
L 49.377698 48.677585 
L 49.39947 48.350784 
L 49.486556 48.50864 
L 49.554981 48.670807 
L 49.54565 48.355676 
L 49.598524 48.62744 
L 49.601634 48.401497 
L 49.607854 48.700055 
L 49.707381 48.497144 
L 49.732263 48.652085 
L 49.741594 48.282996 
L 49.813129 48.428837 
L 49.890884 48.317226 
L 49.847341 48.632252 
L 49.906435 48.480928 
L 49.97175 48.677839 
L 50.002852 48.334755 
L 50.015293 48.509049 
L 50.083718 48.672901 
L 50.049506 48.42347 
L 50.1086 48.543676 
L 50.121041 48.168392 
L 50.211237 48.681079 
L 50.217457 48.487726 
L 50.25789 48.682101 
L 50.236119 48.275879 
L 50.338756 48.582279 
L 50.357417 48.379022 
L 50.441393 48.682747 
L 50.453834 48.475871 
L 50.5347 48.655773 
L 50.460055 48.30579 
L 50.565802 48.561077 
L 50.634227 48.653573 
L 50.587574 48.266791 
L 50.67155 48.58572 
L 50.764856 48.276695 
L 50.777297 48.674796 
L 50.780407 48.590182 
L 50.808399 48.298323 
L 50.81462 48.674633 
L 50.907926 48.404804 
L 50.96702 48.689281 
L 50.988792 48.221004 
L 51.019894 48.566564 
L 51.10387 48.296226 
L 51.035445 48.672144 
L 51.125642 48.57869 
L 51.194067 48.662423 
L 51.209618 48.26224 
L 51.231389 48.531671 
L 51.253161 48.155342 
L 51.330916 48.669498 
L 51.340247 48.60907 
L 51.39001 48.308056 
L 51.405562 48.667399 
L 51.445994 48.616133 
L 51.489537 48.630667 
L 51.505089 48.363959 
L 51.511309 48.576272 
L 51.595285 48.300237 
L 51.620167 48.666685 
L 51.66682 48.350152 
L 51.66371 48.686035 
L 51.732135 48.497674 
L 51.794339 48.332334 
L 51.840992 48.663713 
L 51.862764 48.194449 
L 51.875205 48.687999 
L 51.959181 48.304727 
L 52.027606 48.670071 
L 52.077369 48.568895 
L 52.124022 48.68286 
L 52.09603 48.346395 
L 52.164455 48.410227 
L 52.204888 48.236772 
L 52.192447 48.686674 
L 52.273313 48.363936 
L 52.341738 48.661419 
L 52.37284 48.145625 
L 52.382171 48.349209 
L 52.413273 48.28522 
L 52.463036 48.692933 
L 52.475477 48.577451 
L 52.556343 48.681892 
L 52.503469 48.265906 
L 52.584335 48.664527 
L 52.590555 48.253605 
L 52.606106 48.681439 
L 52.696303 48.513621 
L 52.79583 48.339576 
L 52.705633 48.701309 
L 52.805161 48.508929 
L 52.814491 48.66912 
L 52.817601 48.271305 
L 52.917128 48.563179 
L 52.957561 48.682478 
L 52.982443 48.270179 
L 53.019766 48.524731 
L 53.08197 48.257768 
L 53.032207 48.676812 
L 53.131734 48.474797 
L 53.231261 48.678082 
L 53.156615 48.292705 
L 53.234371 48.52016 
L 53.290355 48.274938 
L 53.240591 48.661162 
L 53.343229 48.590855 
L 53.399213 48.663212 
L 53.417874 48.272038 
L 53.430315 48.455151 
L 53.529842 48.684608 
L 53.542283 48.299226 
L 53.604487 48.652878 
L 53.582716 48.210492 
L 53.654251 48.643314 
L 53.707124 48.282263 
L 53.719565 48.679007 
L 53.763108 48.660388 
L 53.825313 48.136337 
L 53.868856 48.687902 
L 53.909289 48.473016 
L 53.952832 48.662051 
L 53.918619 48.148689 
L 53.987044 48.232135 
L 53.990154 48.218954 
L 54.011926 48.609284 
L 54.018146 48.426076 
L 54.092792 48.675317 
L 54.061689 48.344027 
L 54.130114 48.65951 
L 54.186098 48.365956 
L 54.226531 48.688196 
L 54.242082 48.453605 
L 54.254523 48.408394 
L 54.257633 48.565753 
L 54.260744 48.564369 
L 54.319838 48.702299 
L 54.341609 48.339494 
L 54.363381 48.523667 
L 54.466018 48.258739 
L 54.385152 48.630432 
L 54.472238 48.545734 
L 54.565545 48.674337 
L 54.50023 48.327193 
L 54.574876 48.577127 
L 54.668182 48.347774 
L 54.621529 48.672248 
L 54.683733 48.608404 
L 54.752158 48.65774 
L 54.758379 48.413616 
L 54.761489 48.331613 
L 54.795701 48.652802 
L 54.857906 48.580475 
L 54.941882 48.658341 
L 54.917 48.177324 
L 54.954323 48.442374 
L 54.963653 48.29016 
L 55.044519 48.630791 
L 55.06007 48.519786 
L 55.147156 48.694262 
L 55.094282 48.267499 
L 55.172038 48.594359 
L 55.237353 48.651208 
L 55.20314 48.121297 
L 55.265345 48.456602 
L 55.315108 48.261591 
L 55.324439 48.647072 
L 55.374202 48.541038 
L 55.48617 48.280307 
L 55.439517 48.648907 
L 55.48928 48.284053 
L 55.529713 48.685398 
L 55.604359 48.516251 
L 55.672783 48.683238 
L 55.660343 48.320719 
L 55.700775 48.50583 
L 55.710106 48.261341 
L 55.7692 48.669713 
L 55.809633 48.501496 
L 55.893609 48.666316 
L 55.818964 48.407672 
L 55.90294 48.426033 
L 55.90605 48.249253 
L 55.962034 48.680563 
L 56.011797 48.383996 
L 56.089553 48.679726 
L 56.024238 48.337341 
L 56.117545 48.443589 
L 56.129986 48.297945 
L 56.1953 48.669991 
L 56.226403 48.474117 
L 56.316599 48.691646 
L 56.301048 48.290037 
L 56.338371 48.606725 
L 56.400575 48.688828 
L 56.366362 48.44047 
L 56.409906 48.530083 
L 56.500102 48.237648 
L 56.481441 48.681107 
L 56.518763 48.55782 
L 56.584078 48.371074 
L 56.543645 48.635448 
L 56.627621 48.531725 
L 56.630731 48.665528 
L 56.714707 48.379769 
L 56.736479 48.566165 
L 56.832896 48.290676 
L 56.826675 48.696474 
L 56.839116 48.569994 
L 56.851557 48.666824 
L 56.873328 48.357027 
L 56.944863 48.578875 
L 57.019509 48.33765 
L 56.988407 48.658527 
L 57.053721 48.630913 
L 57.056831 48.631547 
L 57.059942 48.581439 
L 57.153248 48.661588 
L 57.17502 48.316751 
L 57.187461 48.660624 
L 57.246555 48.274811 
L 57.286988 48.485391 
L 57.370964 48.674956 
L 57.330531 48.293612 
L 57.402066 48.592104 
L 57.46427 48.197209 
L 57.45805 48.608573 
L 57.520254 48.489548 
L 57.60112 48.681432 
L 57.554467 48.290119 
L 57.622891 48.346622 
L 57.685096 48.264646 
L 57.638442 48.687219 
L 57.716198 48.470829 
L 57.73797 48.668054 
L 57.753521 48.3456 
L 57.825056 48.547655 
L 57.859268 48.314606 
L 57.837497 48.658111 
L 57.930803 48.474174 
L 57.940134 48.626198 
L 58.03344 48.265555 
L 58.036551 48.504671 
L 58.142298 48.343092 
L 58.092535 48.676976 
L 58.145408 48.519888 
L 58.198282 48.677951 
L 58.1734 48.295883 
L 58.254266 48.479174 
L 58.266707 48.693806 
L 58.328911 48.385323 
L 58.353793 48.502128 
L 58.356903 48.426859 
L 58.378675 48.663237 
L 58.462651 48.453397 
L 58.574619 48.682506 
L 58.503084 48.283054 
L 58.577729 48.60906 
L 58.636823 48.320034 
L 58.608831 48.642561 
L 58.686587 48.562311 
L 58.742571 48.659409 
L 58.779893 48.346152 
L 58.786114 48.499799 
L 58.789224 48.341597 
L 58.810995 48.655199 
L 58.894971 48.414852 
L 58.957176 48.674166 
L 58.944735 48.359238 
L 59.003829 48.545512 
L 59.056703 48.300386 
L 59.075364 48.699555 
L 59.112687 48.655056 
L 59.16245 48.316412 
L 59.202883 48.681306 
L 59.230875 48.623509 
L 59.271308 48.66793 
L 59.277528 48.380074 
L 59.29308 48.430053 
L 59.29619 48.283731 
L 59.308631 48.684611 
L 59.401937 48.503724 
L 59.504575 48.655531 
L 59.426819 48.330608 
L 59.510795 48.556107 
L 59.58855 48.220829 
L 59.594771 48.65367 
L 59.622763 48.234302 
L 59.644534 48.66064 
L 59.734731 48.600874 
L 59.809376 48.119048 
L 59.793825 48.668787 
L 59.846699 48.412615 
L 59.86847 48.692776 
L 59.877801 48.295687 
L 59.958667 48.449364 
L 60.017761 48.356836 
L 59.992879 48.654988 
L 60.048863 48.529146 
L 60.067524 48.678905 
L 60.098627 48.365185 
L 60.154611 48.415729 
L 60.157721 48.304994 
L 60.213705 48.645754 
L 60.263468 48.407731 
L 60.338114 48.684817 
L 60.313232 48.305557 
L 60.381657 48.579806 
L 60.490514 48.383051 
L 60.394097 48.672613 
L 60.493625 48.453873 
L 60.534057 48.37477 
L 60.608703 48.671885 
L 60.611813 48.671191 
L 60.661576 48.69518 
L 60.723781 48.322841 
L 60.757993 48.631849 
L 60.838859 48.609405 
L 60.8513 48.384822 
L 60.86063 48.668349 
L 60.947717 48.569319 
L 61.028582 48.676465 
L 61.003701 48.369629 
L 61.050354 48.549092 
L 61.084566 48.291867 
L 61.097007 48.688199 
L 61.162322 48.468037 
L 61.243188 48.664532 
L 61.233857 48.340021 
L 61.27429 48.622353 
L 61.336494 48.422 
L 61.314723 48.672901 
L 61.383147 48.627638 
L 61.495115 48.358119 
L 61.473344 48.687776 
L 61.504446 48.369512 
L 61.588422 48.698094 
L 61.551099 48.236029 
L 61.616414 48.476223 
L 61.622634 48.262659 
L 61.712831 48.688732 
L 61.725272 48.600214 
L 61.765705 48.675829 
L 61.771925 48.405906 
L 61.821688 48.580227 
L 61.918105 48.303459 
L 61.834129 48.68163 
L 61.936767 48.389654 
L 62.014522 48.671626 
L 61.942987 48.277957 
L 62.064286 48.657332 
L 62.13271 48.392125 
L 62.110939 48.676569 
L 62.176254 48.589298 
L 62.303773 48.289121 
L 62.210466 48.69228 
L 62.316213 48.529069 
L 62.41263 48.688919 
L 62.384638 48.396195 
L 62.425071 48.542829 
L 62.434402 48.580074 
L 62.437512 48.5306 
L 62.477945 48.327995 
L 62.496606 48.67581 
L 62.54637 48.631036 
L 62.571252 48.341798 
L 62.577472 48.693464 
L 62.658338 48.499158 
L 62.673889 48.396767 
L 62.670779 48.675004 
L 62.739203 48.598691 
L 62.82629 48.702001 
L 62.767195 48.191949 
L 62.844951 48.649748 
L 62.848061 48.332682 
L 62.944478 48.671152 
L 62.953809 48.601234 
L 63.016013 48.69037 
L 62.994241 48.444241 
L 63.056446 48.581709 
L 63.143532 48.276525 
L 63.131091 48.679763 
L 63.165304 48.383091 
L 63.239949 48.697941 
L 63.196406 48.331609 
L 63.277271 48.616516 
L 63.283492 48.685522 
L 63.330145 48.444456 
L 63.389239 48.632022 
L 63.417231 48.361816 
L 63.466995 48.680219 
L 63.504318 48.428492 
L 63.613175 48.684814 
L 63.603845 48.343845 
L 63.616285 48.465639 
L 63.68471 48.281509 
L 63.669159 48.647657 
L 63.725143 48.431965 
L 63.834001 48.692176 
L 63.82467 48.33621 
L 63.840221 48.634758 
L 63.883764 48.362895 
L 63.896205 48.690373 
L 63.952189 48.51442 
L 63.96152 48.703862 
L 63.983291 48.339675 
L 64.061047 48.408857 
L 64.11081 48.33147 
L 64.089039 48.674208 
L 64.157464 48.44113 
L 64.216558 48.659503 
L 64.24766 48.343574 
L 64.269432 48.547186 
L 64.306754 48.436951 
L 64.347187 48.665187 
L 64.372069 48.551621 
L 64.424943 48.653964 
L 64.440494 48.341961 
L 64.468486 48.40712 
L 64.471596 48.354734 
L 64.546241 48.675549 
L 64.561792 48.63567 
L 64.645768 48.697948 
L 64.648878 48.342355 
L 64.651989 48.340151 
L 64.655099 48.455864 
L 64.686201 48.686003 
L 64.735965 48.379303 
L 64.770177 48.559203 
L 64.795059 48.322452 
L 64.829271 48.677477 
L 64.888365 48.538407 
L 64.894586 48.675119 
L 64.897696 48.431138 
L 64.984782 48.501202 
L 64.987892 48.334657 
L 65.065648 48.680561 
L 65.09364 48.498095 
L 65.193167 48.682373 
L 65.199387 48.395505 
L 65.202498 48.470609 
L 65.311355 48.66473 
L 65.286474 48.314851 
L 65.320686 48.579051 
L 65.323796 48.429899 
L 65.392221 48.690108 
L 65.432654 48.491158 
L 65.469977 48.661802 
L 65.504189 48.378058 
L 65.544622 48.635123 
L 65.625488 48.352682 
L 65.553953 48.674274 
L 65.65659 48.522448 
L 65.6597 48.520984 
L 65.66592 48.630921 
L 65.718794 48.668277 
L 65.743676 48.429826 
L 65.759227 48.55185 
L 65.830762 48.416478 
L 65.846313 48.685473 
L 65.858754 48.597337 
L 65.892967 48.681922 
L 65.930289 48.397968 
L 65.961391 48.528338 
L 66.070249 48.298173 
L 65.992494 48.684474 
L 66.07958 48.359898 
L 66.157335 48.668526 
L 66.188437 48.559905 
L 66.191548 48.368309 
L 66.216429 48.680685 
L 66.300405 48.384877 
L 66.315956 48.354691 
L 66.356389 48.651801 
L 66.381271 48.589198 
L 66.418594 48.680376 
L 66.403043 48.334205 
L 66.459027 48.5166 
L 66.561664 48.290324 
L 66.524341 48.673034 
L 66.567884 48.482861 
L 66.598986 48.662749 
L 66.577215 48.391422 
L 66.676742 48.570277 
L 66.766938 48.34932 
L 66.682962 48.6974 
L 66.78871 48.481287 
L 66.891347 48.685091 
L 66.875796 48.187307 
L 66.903788 48.594159 
L 67.006425 48.673241 
L 67.025087 48.118366 
L 67.115283 48.694748 
L 67.140165 48.574768 
L 67.155716 48.349185 
L 67.230361 48.643014 
L 67.249022 48.489112 
L 67.35477 48.690466 
L 67.289455 48.267764 
L 67.36099 48.638195 
L 67.373431 48.383787 
L 67.398313 48.688208 
L 67.472958 48.507298 
L 67.550714 48.698724 
L 67.575596 48.358144 
L 67.588036 48.622918 
L 67.628469 48.692618 
L 67.647131 48.31413 
L 67.672012 48.529031 
L 67.675123 48.29265 
L 67.696894 48.694727 
L 67.78087 48.565489 
L 67.78398 48.671446 
L 67.821303 48.362642 
L 67.892838 48.613617 
L 67.958153 48.690046 
L 67.976814 48.324501 
L 67.998585 48.593914 
L 68.085672 48.377491 
L 68.098113 48.699408 
L 68.104333 48.420352 
L 68.178978 48.674102 
L 68.172758 48.340185 
L 68.213191 48.593724 
L 68.262954 48.386673 
L 68.278505 48.66979 
L 68.325159 48.462615 
L 68.415355 48.649542 
L 68.35004 48.2888 
L 68.440237 48.641271 
L 68.502441 48.284847 
L 68.458898 48.687657 
L 68.558425 48.307897 
L 68.567756 48.699328 
L 68.673503 48.657924 
L 68.779251 48.357431 
L 68.704605 48.697316 
L 68.788581 48.528545 
L 68.838345 48.672649 
L 68.857006 48.341412 
L 68.897439 48.501777 
L 68.940982 48.394596 
L 68.934762 48.664334 
L 68.972084 48.553374 
L 69.043619 48.673148 
L 69.05295 48.441829 
L 69.080942 48.659018 
L 69.096493 48.399923 
L 69.087163 48.684613 
L 69.19291 48.445862 
L 69.252004 48.659011 
L 69.233343 48.296612 
L 69.304878 48.594871 
L 69.391964 48.23122 
L 69.33287 48.699647 
L 69.416846 48.463557 
L 69.435507 48.675938 
L 69.510152 48.428196 
L 69.528814 48.506646 
L 69.584798 48.337919 
L 69.640782 48.659147 
L 69.699876 48.309047 
L 69.684325 48.691474 
L 69.75275 48.500456 
L 69.855387 48.338254 
L 69.777631 48.667364 
L 69.858497 48.608825 
L 69.889599 48.687569 
L 69.90204 48.356845 
L 69.951804 48.555065 
L 69.992237 48.241491 
L 69.967355 48.700126 
L 70.063772 48.409033 
L 70.088653 48.674225 
L 70.144637 48.367394 
L 70.17574 48.534038 
L 70.219283 48.403629 
L 70.200621 48.665885 
L 70.281487 48.564593 
L 70.377904 48.684866 
L 70.297038 48.326821 
L 70.384124 48.491785 
L 70.424557 48.340306 
L 70.412116 48.660697 
L 70.483651 48.537016 
L 70.536525 48.674152 
L 70.542745 48.26177 
L 70.589399 48.52447 
L 70.667154 48.345466 
L 70.598729 48.665205 
L 70.695146 48.540755 
L 70.75113 48.68531 
L 70.763571 48.313469 
L 70.794673 48.481263 
L 70.875539 48.256494 
L 70.828886 48.680356 
L 70.906641 48.374974 
L 70.953295 48.670234 
L 70.981287 48.365057 
L 71.015499 48.493808 
L 71.052822 48.303809 
L 71.03105 48.687837 
L 71.121246 48.573353 
L 71.155459 48.410622 
L 71.139908 48.686137 
L 71.161679 48.536167 
L 71.1679 48.267833 
L 71.186561 48.693034 
L 71.270537 48.63645 
L 71.382505 48.331395 
L 71.332741 48.679789 
L 71.394946 48.507263 
L 71.441599 48.683662 
L 71.435379 48.376052 
L 71.510024 48.677747 
L 71.572228 48.327561 
L 71.621992 48.620253 
L 71.671755 48.665908 
L 71.696637 48.301333 
L 71.712188 48.474685 
L 71.777503 48.32066 
L 71.789944 48.651964 
L 71.821046 48.551435 
L 71.923683 48.349974 
L 71.830377 48.690524 
L 71.936124 48.444759 
L 71.961006 48.678937 
L 72.035651 48.245147 
L 72.048092 48.515482 
L 72.153839 48.397788 
L 72.113407 48.691921 
L 72.15695 48.598928 
L 72.188052 48.674871 
L 72.16628 48.383181 
L 72.244036 48.514056 
L 72.29691 48.28762 
L 72.30935 48.638707 
L 72.352894 48.444598 
L 72.365334 48.314176 
L 72.467972 48.642219 
L 72.486633 48.354331 
L 72.517735 48.681111 
L 72.58616 48.51728 
L 72.685687 48.693537 
L 72.632813 48.456273 
L 72.695018 48.639176 
L 72.7199 48.364701 
L 72.791435 48.674012 
L 72.806986 48.479571 
L 72.86608 48.669382 
L 72.859859 48.375711 
L 72.912733 48.416989 
L 72.956276 48.679162 
L 72.987378 48.385353 
L 73.027811 48.648273 
L 73.058914 48.410678 
L 73.043362 48.674976 
L 73.136669 48.510709 
L 73.217535 48.685149 
L 73.189543 48.398875 
L 73.248637 48.682254 
L 73.254857 48.310304 
L 73.332613 48.700394 
L 73.357495 48.508339 
L 73.373046 48.650207 
L 73.444581 48.304466 
L 73.466352 48.608102 
L 73.5721 48.437613 
L 73.516116 48.675391 
L 73.57832 48.459626 
L 73.637414 48.666063 
L 73.587651 48.35353 
L 73.687178 48.404764 
L 73.690288 48.403483 
L 73.736941 48.686972 
L 73.749382 48.299591 
L 73.802256 48.668183 
L 73.808477 48.227029 
L 73.914224 48.548985 
L 73.917334 48.666379 
L 73.942216 48.26199 
L 74.019972 48.453457 
L 74.032412 48.228803 
L 74.057294 48.597632 
L 74.063515 48.561585 
L 74.066625 48.679099 
L 74.147491 48.434311 
L 74.172372 48.571619 
L 74.184813 48.449072 
L 74.178593 48.620294 
L 74.187923 48.459657 
L 74.197254 48.266658 
L 74.262569 48.620509 
L 74.290561 48.449162 
L 74.321663 48.676833 
L 74.346545 48.197684 
L 74.402529 48.63723 
L 74.511386 48.299422 
L 74.439851 48.685401 
L 74.517607 48.316154 
L 74.582921 48.697673 
L 74.629575 48.655382 
L 74.660677 48.366385 
L 74.713551 48.666026 
L 74.738432 48.549742 
L 74.819298 48.665374 
L 74.757094 48.312982 
L 74.8504 48.652505 
L 74.881502 48.3926 
L 74.900164 48.678609 
L 74.959258 48.633152 
L 74.965478 48.70051 
L 75.027683 48.440101 
L 75.061895 48.627368 
L 75.117879 48.357266 
L 75.12721 48.636794 
L 75.173863 48.583485 
L 75.236068 48.687219 
L 75.189414 48.318317 
L 75.26406 48.502866 
L 75.26717 48.282358 
L 75.360476 48.664779 
L 75.376027 48.431408 
L 75.481775 48.676953 
L 75.419571 48.395703 
L 75.487995 48.563608 
L 75.537759 48.670463 
L 75.506657 48.385225 
L 75.575082 48.499341 
L 75.578192 48.324713 
L 75.637286 48.66006 
L 75.680829 48.453751 
L 75.749254 48.689363 
L 75.777246 48.374309 
L 75.792797 48.593998 
L 75.858112 48.361048 
L 75.823899 48.654425 
L 75.907875 48.450873 
L 75.998071 48.688608 
L 76.016733 48.365196 
L 76.019843 48.53352 
L 76.035394 48.424892 
L 76.063386 48.687576 
L 76.12559 48.525049 
L 76.128701 48.69543 
L 76.162913 48.337247 
L 76.237558 48.577567 
L 76.321534 48.657476 
L 76.302873 48.379102 
L 76.324645 48.607348 
L 76.327755 48.354207 
L 76.424172 48.681943 
L 76.436612 48.45419 
L 76.511258 48.667096 
L 76.533029 48.334394 
L 76.551691 48.618775 
L 76.657438 48.335562 
L 76.585903 48.684954 
L 76.660548 48.507595 
L 76.763186 48.684005 
L 76.697871 48.373393 
L 76.772516 48.633487 
L 76.778737 48.360655 
L 76.872043 48.665442 
L 76.881374 48.543705 
L 76.887594 48.684341 
L 76.952909 48.258574 
L 76.990232 48.602393 
L 76.996452 48.403281 
L 77.030665 48.689502 
L 77.099089 48.622841 
L 77.179955 48.687673 
L 77.158184 48.295725 
L 77.201727 48.570458 
L 77.273262 48.234802 
L 77.291923 48.691861 
L 77.307474 48.466542 
L 77.338576 48.675379 
L 77.341687 48.354368 
L 77.419442 48.523209 
L 77.425662 48.373974 
L 77.444324 48.665069 
L 77.522079 48.571316 
L 77.53763 48.661684 
L 77.599835 48.37245 
L 77.630937 48.626819 
L 77.730464 48.250444 
L 77.721133 48.672554 
L 77.742905 48.606717 
L 77.842432 48.658139 
L 77.764676 48.460941 
L 77.845542 48.600032 
L 77.901526 48.293527 
L 77.923298 48.684521 
L 77.9544 48.605616 
L 78.038376 48.334426 
L 77.976171 48.668259 
L 78.063258 48.620357 
L 78.066368 48.675824 
L 78.072588 48.303727 
L 78.172115 48.625446 
L 78.175226 48.62787 
L 78.178336 48.618083 
L 78.221879 48.381884 
L 78.268532 48.687828 
L 78.287193 48.613737 
L 78.296524 48.691108 
L 78.361839 48.406589 
L 78.38672 48.602681 
L 78.461366 48.272932 
L 78.427153 48.684255 
L 78.501799 48.388977 
L 78.52668 48.700461 
L 78.536011 48.37127 
L 78.613767 48.526727 
L 78.647979 48.43894 
L 78.685302 48.684101 
L 78.719514 48.606286 
L 78.725734 48.602567 
L 78.787939 48.259276 
L 78.744396 48.685172 
L 78.834592 48.538493 
L 78.871915 48.675996 
L 78.893686 48.333047 
L 78.94656 48.631136 
L 79.046087 48.680446 
L 79.055418 48.433349 
L 79.108292 48.393918 
L 79.164275 48.651424 
L 79.167386 48.384697 
L 79.192267 48.669925 
L 79.273133 48.670425 
L 79.385101 48.216798 
L 79.360219 48.690014 
L 79.391322 48.506353 
L 79.456636 48.695219 
L 79.403762 48.431508 
L 79.503289 48.625798 
L 79.553053 48.290033 
L 79.587265 48.67447 
L 79.615257 48.408356 
L 79.689903 48.670509 
L 79.677462 48.245444 
L 79.730336 48.663058 
L 79.817422 48.401478 
L 79.761438 48.672239 
L 79.839193 48.61413 
L 79.94183 48.688862 
L 79.901398 48.313371 
L 79.948051 48.568393 
L 80.013366 48.671103 
L 79.957382 48.341694 
L 80.041358 48.532767 
L 80.044468 48.390602 
L 80.084901 48.691321 
L 80.150215 48.566741 
L 80.224861 48.700318 
L 80.187538 48.357833 
L 80.252852 48.531757 
L 80.330608 48.368104 
L 80.287065 48.674202 
L 80.36482 48.370821 
L 80.473678 48.650533 
L 80.476788 48.503194 
L 80.514111 48.667207 
L 80.520331 48.395338 
L 80.588756 48.574678 
L 80.678953 48.333424 
L 80.632299 48.685959 
L 80.706945 48.440445 
L 80.772259 48.677133 
L 80.738047 48.356142 
L 80.818913 48.652313 
L 80.871786 48.433656 
L 80.905999 48.681367 
L 80.93088 48.505004 
L 80.933991 48.502607 
L 80.937101 48.565661 
L 81.042848 48.690215 
L 80.968203 48.414652 
L 81.045959 48.573897 
L 81.129935 48.235672 
L 81.07084 48.662527 
L 81.154816 48.461301 
L 81.263674 48.685106 
L 81.161037 48.380467 
L 81.269894 48.648842 
L 81.360091 48.410948 
L 81.300997 48.686945 
L 81.388083 48.547785 
L 81.465838 48.685751 
L 81.459618 48.262079 
L 81.500051 48.5847 
L 81.556035 48.298989 
L 81.546704 48.685348 
L 81.574696 48.560699 
L 81.577806 48.697668 
L 81.664892 48.316717 
L 81.683554 48.657045 
L 81.77064 48.226687 
L 81.714656 48.66547 
L 81.792411 48.487864 
L 81.863946 48.686986 
L 81.842175 48.421341 
L 81.901269 48.481212 
L 81.926151 48.320919 
L 81.951033 48.649131 
L 82.007017 48.554166 
L 82.100323 48.66064 
L 82.094103 48.341641 
L 82.115874 48.591476 
L 82.134536 48.3528 
L 82.171858 48.688303 
L 82.221622 48.443721 
L 82.311818 48.68284 
L 82.296267 48.393567 
L 82.33359 48.587999 
L 82.361582 48.31624 
L 82.383353 48.657421 
L 82.442447 48.487214 
L 82.445558 48.685944 
L 82.529534 48.281064 
L 82.554415 48.597864 
L 82.604179 48.352146 
L 82.569966 48.683952 
L 82.669493 48.451601 
L 82.744139 48.692692 
L 82.678824 48.378631 
L 82.787682 48.636317 
L 82.840556 48.345923 
L 82.812564 48.655756 
L 82.90276 48.425454 
L 82.958744 48.686578 
L 82.992956 48.409941 
L 83.011618 48.444569 
L 83.017838 48.519706 
L 83.020948 48.453525 
L 83.04583 48.647239 
L 83.108035 48.355736 
L 83.132916 48.525341 
L 83.198231 48.681021 
L 83.157798 48.342637 
L 83.241774 48.536488 
L 83.297758 48.372743 
L 83.275986 48.662958 
L 83.341301 48.609188 
L 83.447048 48.690422 
L 83.372403 48.376079 
L 83.453269 48.627741 
L 83.531024 48.291528 
L 83.562127 48.632511 
L 83.565237 48.576484 
L 83.658543 48.378509 
L 83.590119 48.68911 
L 83.664764 48.535295 
L 83.677205 48.689421 
L 83.705197 48.368015 
L 83.773622 48.483307 
L 83.776732 48.334022 
L 83.876259 48.678378 
L 83.879369 48.677786 
L 83.901141 48.355501 
L 83.960235 48.683521 
L 83.994447 48.540434 
L 84.081533 48.671316 
L 84.006888 48.363968 
L 84.100195 48.46556 
L 84.17173 48.683481 
L 84.159289 48.311814 
L 84.227714 48.506853 
L 84.274367 48.412226 
L 84.243265 48.648679 
L 84.31169 48.557043 
L 84.352123 48.703716 
L 84.336571 48.385569 
L 84.420547 48.467762 
L 84.45476 48.690912 
L 84.520074 48.303908 
L 84.535626 48.655227 
L 84.582279 48.446108 
L 84.541846 48.670786 
L 84.656924 48.63017 
L 84.660034 48.691448 
L 84.706688 48.368563 
L 84.759561 48.491569 
L 84.772002 48.322093 
L 84.831096 48.686666 
L 84.855978 48.532252 
L 84.859088 48.694504 
L 84.905742 48.282341 
L 84.964836 48.559086 
L 85.055032 48.37702 
L 84.999048 48.66097 
L 85.076804 48.427477 
L 85.107906 48.687542 
L 85.167 48.365086 
L 85.191882 48.631977 
L 85.229205 48.677578 
L 85.201213 48.520692 
L 85.235425 48.634179 
L 85.257197 48.397379 
L 85.266527 48.681386 
L 85.344283 48.625402 
L 85.400267 48.688689 
L 85.369164 48.447371 
L 85.45003 48.68334 
L 85.462471 48.260569 
L 85.493573 48.702225 
L 85.561998 48.595985 
L 85.617982 48.414844 
L 85.642864 48.680422 
L 85.72684 48.352488 
L 85.652195 48.686876 
L 85.754832 48.533856 
L 85.773493 48.685806 
L 85.851249 48.311046 
L 85.860579 48.476594 
L 85.910343 48.395919 
L 85.894792 48.690317 
L 85.960106 48.498056 
L 85.981878 48.682727 
L 86.040972 48.408045 
L 86.068964 48.52161 
L 86.134279 48.295788 
L 86.15294 48.698095 
L 86.171601 48.483626 
L 86.174711 48.679581 
L 86.236916 48.383073 
L 86.283569 48.557237 
L 86.389317 48.691803 
L 86.29601 48.380795 
L 86.398647 48.633761 
L 86.411088 48.451375 
L 86.507505 48.682797 
L 86.510615 48.488274 
L 86.569709 48.675476 
L 86.57593 48.446643 
L 86.619473 48.592372 
L 86.678567 48.30645 
L 86.628804 48.695009 
L 86.728331 48.605433 
L 86.743882 48.686245 
L 86.753212 48.389571 
L 86.837188 48.590117 
L 86.911834 48.364191 
L 86.899393 48.687741 
L 86.936715 48.596263 
L 87.020691 48.690567 
L 87.00514 48.409692 
L 87.042463 48.564533 
L 87.14821 48.271786 
L 87.135769 48.691395 
L 87.154431 48.47864 
L 87.173092 48.398952 
L 87.269509 48.65781 
L 87.297501 48.340816 
L 87.369036 48.690245 
L 87.381477 48.484417 
L 87.42813 48.687036 
L 87.453012 48.402756 
L 87.493445 48.629587 
L 87.536988 48.360524 
L 87.512106 48.677671 
L 87.608523 48.547573 
L 87.698719 48.428987 
L 87.624074 48.686856 
L 87.70805 48.493617 
L 87.717381 48.682869 
L 87.757813 48.308014 
L 87.816908 48.412198 
L 87.882222 48.67664 
L 87.935096 48.612954 
L 87.99108 48.407944 
L 88.009741 48.679029 
L 88.040844 48.66367 
L 88.043954 48.691235 
L 88.062615 48.434123 
L 88.13415 48.508306 
L 88.165252 48.693677 
L 88.155922 48.446569 
L 88.174583 48.581584 
L 88.177693 48.377226 
L 88.249228 48.698914 
L 88.286551 48.464968 
L 88.370527 48.6937 
L 88.326984 48.311388 
L 88.401629 48.600402 
L 88.432731 48.28846 
L 88.494936 48.680044 
L 88.510487 48.635755 
L 88.541589 48.688565 
L 88.55403 48.500267 
L 88.575801 48.63913 
L 88.681549 48.424391 
L 88.675328 48.687443 
L 88.684659 48.433235 
L 88.737533 48.681497 
L 88.790407 48.388617 
L 88.796627 48.656027 
L 88.877493 48.373566 
L 88.815288 48.688704 
L 88.905485 48.627236 
L 88.908595 48.635065 
L 88.911705 48.376867 
L 88.930366 48.443799 
L 88.995681 48.342443 
L 88.992571 48.698803 
L 89.029893 48.622787 
L 89.036114 48.6893 
L 89.042334 48.522708 
L 89.11698 48.478877 
L 89.088988 48.675208 
L 89.138751 48.581106 
L 89.222727 48.683197 
L 89.144972 48.413171 
L 89.247609 48.593869 
L 89.288042 48.351748 
L 89.272491 48.691704 
L 89.356467 48.622795 
L 89.446663 48.688798 
L 89.428002 48.380841 
L 89.459104 48.62878 
L 89.468435 48.317903 
L 89.564851 48.699026 
L 89.567962 48.451954 
L 89.592843 48.672303 
L 89.664378 48.375066 
L 89.676819 48.623553 
L 89.679929 48.415285 
L 89.711032 48.670067 
L 89.788787 48.54452 
L 89.850992 48.395988 
L 89.82922 48.691398 
L 89.894535 48.630321 
L 89.900755 48.684698 
L 89.953629 48.452945 
L 89.910086 48.691735 
L 90.009613 48.519811 
L 90.10914 48.664208 
L 90.096699 48.382838 
L 90.121581 48.611672 
L 90.205557 48.338136 
L 90.137132 48.698072 
L 90.230438 48.474789 
L 90.233549 48.674177 
L 90.329965 48.351432 
L 90.342406 48.612675 
L 90.351737 48.416739 
L 90.357957 48.673523 
L 90.454374 48.566947 
L 90.485476 48.695512 
L 90.516579 48.37239 
L 90.560122 48.590031 
L 90.594334 48.368357 
L 90.640987 48.665993 
L 90.668979 48.528599 
L 90.728074 48.696371 
L 90.724963 48.428045 
L 90.777837 48.556862 
L 90.799609 48.615332 
L 90.805829 48.574676 
L 90.874254 48.694306 
L 90.81827 48.425246 
L 90.914687 48.536239 
L 90.986222 48.659666 
L 90.936458 48.482681 
L 90.992442 48.621888 
L 91.088859 48.389503 
L 91.048426 48.685074 
L 91.1013 48.593965 
L 91.169725 48.429148 
L 91.110631 48.659364 
L 91.185276 48.664728 
L 91.188386 48.694821 
L 91.213268 48.4047 
L 91.269252 48.42143 
L 91.272362 48.417087 
L 91.303464 48.672274 
L 91.328346 48.314838 
L 91.38433 48.502216 
L 91.471416 48.67496 
L 91.390551 48.441506 
L 91.490078 48.557649 
L 91.493188 48.313657 
L 91.574053 48.671632 
L 91.602045 48.466514 
L 91.623817 48.695689 
L 91.633148 48.406731 
L 91.714013 48.590397 
L 91.760667 48.368168 
L 91.745116 48.683275 
L 91.822871 48.571656 
L 91.897516 48.370027 
L 91.931729 48.663393 
L 91.95039 48.264281 
L 91.975272 48.668095 
L 92.040586 48.526786 
L 92.043697 48.676267 
L 92.08724 48.388959 
L 92.149444 48.663147 
L 92.220979 48.424857 
L 92.205428 48.68007 
L 92.261412 48.598647 
L 92.345388 48.28503 
L 92.270743 48.688909 
L 92.37338 48.486715 
L 92.3796 48.701242 
L 92.448025 48.370757 
L 92.485348 48.579213 
L 92.497789 48.342138 
L 92.563103 48.698494 
L 92.584875 48.630145 
L 92.587985 48.675781 
L 92.600426 48.275169 
L 92.693733 48.622165 
L 92.721725 48.353506 
L 92.743496 48.686109 
L 92.805701 48.552832 
L 92.821252 48.430108 
L 92.824362 48.640492 
L 92.852354 48.567529 
L 92.899007 48.683889 
L 92.858574 48.404746 
L 92.961212 48.529594 
L 93.038967 48.646988 
L 92.970542 48.363047 
L 93.051408 48.492667 
L 93.07318 48.341093 
L 93.138494 48.687622 
L 93.157155 48.445817 
L 93.200699 48.692007 
L 93.241131 48.352606 
L 93.269123 48.597727 
L 93.303336 48.372922 
L 93.309556 48.698913 
L 93.377981 48.66236 
L 93.381091 48.675541 
L 93.427745 48.45494 
L 93.443296 48.60737 
L 93.533492 48.353998 
L 93.468177 48.698851 
L 93.552153 48.548375 
L 93.561484 48.693254 
L 93.636129 48.336089 
L 93.670342 48.655798 
L 93.685893 48.313232 
L 93.754318 48.672547 
L 93.776089 48.499032 
L 93.7792 48.688676 
L 93.850735 48.334651 
L 93.884947 48.61853 
L 93.891167 48.447841 
L 93.906719 48.687741 
L 94.000025 48.463654 
L 94.040458 48.687126 
L 94.099552 48.367855 
L 94.115103 48.64622 
L 94.223961 48.390094 
L 94.186638 48.666912 
L 94.227071 48.61062 
L 94.329708 48.689984 
L 94.276835 48.427632 
L 94.332819 48.558564 
L 94.35459 48.629701 
L 94.3577 48.584367 
L 94.360811 48.684596 
L 94.419905 48.328154 
L 94.466558 48.559094 
L 94.544314 48.358091 
L 94.49766 48.668091 
L 94.578526 48.422996 
L 94.600298 48.673184 
L 94.659392 48.402401 
L 94.693604 48.624942 
L 94.699825 48.448681 
L 94.702935 48.564006 
" clip-path="url(#p6045cdc6a0)" style="fill: none; stroke: #9467bd; stroke-width: 0.5; stroke-linecap: square"/>
   </g>
  </g>
 </g>
 <defs>
  <clipPath id="p6045cdc6a0">
   <rect x="0" y="-0" width="99.212598" height="51.023622"/>
  </clipPath>
 </defs>
</svg>
