<?xml version="1.0" encoding="utf-8" standalone="no"?>
<!DOCTYPE svg PUBLIC "-//W3C//DTD SVG 1.1//EN"
  "http://www.w3.org/Graphics/SVG/1.1/DTD/svg11.dtd">
<svg xmlns:xlink="http://www.w3.org/1999/xlink" width="99.212598pt" height="51.023622pt" viewBox="0 0 99.212598 51.023622" xmlns="http://www.w3.org/2000/svg" version="1.1">
 <metadata>
  <rdf:RDF xmlns:dc="http://purl.org/dc/elements/1.1/" xmlns:cc="http://creativecommons.org/ns#" xmlns:rdf="http://www.w3.org/1999/02/22-rdf-syntax-ns#">
   <cc:Work>
    <dc:type rdf:resource="http://purl.org/dc/dcmitype/StillImage"/>
    <dc:date>2024-10-30T10:51:17.205840</dc:date>
    <dc:format>image/svg+xml</dc:format>
    <dc:creator>
     <cc:Agent>
      <dc:title>Matplotlib v3.8.4, https://matplotlib.org/</dc:title>
     </cc:Agent>
    </dc:creator>
   </cc:Work>
  </rdf:RDF>
 </metadata>
 <defs>
  <style type="text/css">*{stroke-linejoin: round; stroke-linecap: butt}</style>
 </defs>
 <g id="figure_1">
  <g id="patch_1">
   <path d="M 0 51.023622 
L 99.212598 51.023622 
L 99.212598 0 
L 0 0 
L 0 51.023622 
z
" style="fill: none"/>
  </g>
  <g id="axes_1">
   <g id="patch_2">
    <path d="M 0 51.023622 
L 99.212598 51.023622 
L 99.212598 -0 
L 0 -0 
L 0 51.023622 
z
" style="fill: none"/>
   </g>
   <g id="matplotlib.axis_1">
    <g id="xtick_1"/>
    <g id="xtick_2"/>
   </g>
   <g id="matplotlib.axis_2">
    <g id="ytick_1"/>
    <g id="ytick_2"/>
   </g>
   <g id="line2d_1">
    <path d="M 4.509664 2.723095 
L 4.699387 47.348801 
L 4.556317 2.319256 
L 4.711828 45.193027 
L 4.823796 36.662917 
L 4.854898 36.900386 
L 4.929543 43.394457 
L 4.957535 47.44204 
L 5.007299 37.773998 
L 5.103716 21.605375 
L 5.153479 31.140515 
L 5.197022 42.10711 
L 5.268557 33.110448 
L 5.30588 39.609989 
L 5.333872 30.772844 
L 5.383635 16.066871 
L 5.439619 31.46346 
L 5.514265 47.83521 
L 5.58891 45.006266 
L 5.59513 44.962733 
L 5.604461 45.228149 
L 5.744421 47.24073 
L 5.803515 48.484876 
L 5.822176 47.078693 
L 5.86572 44.791622 
L 5.921703 47.158633 
L 5.931034 47.127277 
L 5.983908 45.085698 
L 6.061663 46.096201 
L 6.108317 47.267057 
L 6.142529 41.643121 
L 6.179852 38.800374 
L 6.245166 43.052114 
L 6.30115 46.575666 
L 6.344693 42.597581 
L 6.347804 42.733627 
L 6.382016 44.150763 
L 6.419339 42.28415 
L 6.509535 39.866353 
L 6.462882 43.676847 
L 6.531307 42.133139 
L 6.599731 47.975617 
L 6.665046 47.052677 
L 6.696148 45.124174 
L 6.705479 44.674983 
L 6.752132 46.520735 
L 6.854769 47.757297 
L 6.817447 45.627615 
L 6.8641 46.909098 
L 6.901423 44.235284 
L 6.957407 48.533937 
L 6.960517 48.646554 
L 7.022721 47.277321 
L 7.025832 47.317488 
L 7.069375 46.531801 
L 7.106697 48.4185 
L 7.134689 47.266418 
L 7.14713 47.444865 
L 7.168902 47.153565 
L 7.193783 46.580896 
L 7.221775 47.537028 
L 7.28087 47.02876 
L 7.293311 47.409485 
L 7.333743 45.633791 
L 7.364846 46.273264 
L 7.389727 45.8264 
L 7.405278 46.490498 
L 7.492365 48.548268 
L 7.455042 46.38229 
L 7.523467 47.104141 
L 7.526577 47.101927 
L 7.529687 47.220731 
L 7.554569 48.172706 
L 7.591892 45.810846 
L 7.607443 45.604723 
L 7.644765 47.128837 
L 7.71319 48.342554 
L 7.747403 46.532576 
L 7.762954 45.987748 
L 7.803387 47.52829 
L 7.831379 47.411891 
L 7.834489 47.446056 
L 7.865591 46.77204 
L 7.868701 46.785041 
L 7.893583 46.14073 
L 7.946457 47.837053 
L 7.965118 47.585223 
L 7.983779 47.918608 
L 8.008661 47.098622 
L 8.13618 45.307496 
L 8.021102 47.2449 
L 8.161062 46.214703 
L 8.217046 48.133353 
L 8.254369 44.881794 
L 8.257479 45.009225 
L 8.294801 48.468235 
L 8.350785 44.964727 
L 8.397439 46.172936 
L 8.41921 44.663146 
L 8.468974 47.386333 
L 8.503186 46.864785 
L 8.655587 48.452631 
L 8.512517 46.838771 
L 8.661807 48.185649 
L 8.714681 46.412599 
L 8.776885 47.808198 
L 8.8422 47.117051 
L 8.882633 47.723783 
L 8.898184 48.447703 
L 8.929286 47.405919 
L 8.994601 47.853083 
L 9.053695 48.376132 
L 9.084797 47.539101 
L 9.12523 48.575031 
L 9.230978 45.90394 
L 9.240308 45.750345 
L 9.25897 46.334556 
L 9.355386 47.951952 
L 9.318064 46.132787 
L 9.380268 47.130746 
L 9.464244 48.478243 
L 9.510897 47.43309 
L 9.529559 47.035566 
L 9.566881 47.958514 
L 9.594873 48.622563 
L 9.619755 47.321273 
L 9.625976 47.374501 
L 9.629086 47.318205 
L 9.703731 47.859052 
L 9.744164 48.59969 
L 9.790817 47.383021 
L 9.797038 47.199253 
L 9.82814 48.595684 
L 9.896565 47.467265 
L 10.027194 48.619189 
L 10.030304 48.559079 
L 10.045855 48.641747 
L 10.067627 47.652556 
L 10.151603 46.414692 
L 10.11428 48.23999 
L 10.173374 47.538433 
L 10.279122 48.487178 
L 10.223138 47.464465 
L 10.285342 48.052654 
L 10.409751 46.154896 
L 10.422192 46.425083 
L 10.555931 48.628738 
L 10.450184 46.10421 
L 10.565262 48.371262 
L 10.615026 47.01656 
L 10.67412 48.381483 
L 10.67723 48.325571 
L 10.754985 48.544917 
L 10.717663 47.619038 
L 10.776757 47.945882 
L 10.789198 48.072494 
L 10.81719 47.51326 
L 10.838961 47.532513 
L 10.860733 47.023595 
L 10.904276 48.410336 
L 10.941599 47.888368 
L 10.978921 47.254783 
L 10.997583 48.242679 
L 11.028685 48.586856 
L 11.047346 47.656798 
L 11.090889 47.733445 
L 11.184196 47.555175 
L 11.143763 48.444429 
L 11.196637 47.914076 
L 11.212188 48.519777 
L 11.261951 47.28616 
L 11.302384 47.793635 
L 11.370809 46.670784 
L 11.336597 48.047638 
L 11.439234 47.230863 
L 11.442344 47.19259 
L 11.464116 48.132703 
L 11.504548 47.772349 
L 11.52632 48.457628 
L 11.591635 47.205599 
L 11.594745 47.157734 
L 11.619627 47.981647 
L 11.653839 47.873815 
L 11.700492 48.517224 
L 11.765807 47.951958 
L 11.883995 47.369936 
L 11.800019 48.602479 
L 11.893326 47.685052 
L 11.905767 48.315349 
L 11.992853 47.427663 
L 11.999073 47.551781 
L 12.002184 47.550447 
L 12.005294 47.624715 
L 12.064388 48.551012 
L 12.117262 47.745767 
L 12.120372 47.739361 
L 12.132813 47.948484 
L 12.188797 48.51318 
L 12.216789 47.544679 
L 12.244781 48.119427 
L 12.257222 48.149875 
L 12.319426 48.59785 
L 12.359859 47.836459 
L 12.440725 47.439561 
L 12.403402 48.655052 
L 12.459386 48.110579 
L 12.465606 48.53966 
L 12.540252 47.065132 
L 12.565134 47.822146 
L 12.708204 46.124382 
L 12.574464 47.958957 
L 12.782849 46.709802 
L 12.916588 48.588192 
L 12.817061 45.467877 
L 12.932139 48.229817 
L 12.93525 48.30388 
L 12.975683 47.367103 
L 13.003675 47.428772 
L 13.050328 46.935922 
L 13.096981 48.098006 
L 13.199618 48.650587 
L 13.246272 48.296132 
L 13.333358 47.646645 
L 13.264933 48.39639 
L 13.352019 48.339534 
L 13.429775 48.646048 
L 13.389342 47.739097 
L 13.451546 47.997175 
L 13.479538 47.241152 
L 13.50131 48.515532 
L 13.544853 48.312212 
L 13.554183 48.54476 
L 13.582175 47.956359 
L 13.6506 48.168991 
L 13.653711 48.167108 
L 13.669262 48.636217 
L 13.722135 47.504422 
L 13.762568 48.319969 
L 13.78123 47.320702 
L 13.846544 48.609252 
L 13.871426 48.344145 
L 13.874536 48.344561 
L 13.877646 48.290026 
L 13.980284 47.416673 
L 13.908749 48.348276 
L 13.995835 47.893117 
L 14.098472 48.62931 
L 14.030047 47.207359 
L 14.110913 48.207152 
L 14.117133 48.167144 
L 14.129574 48.297499 
L 14.154456 48.672828 
L 14.232211 47.968711 
L 14.253983 47.490922 
L 14.297526 48.689767 
L 14.328628 48.193913 
L 14.400163 48.585596 
L 14.35973 47.88711 
L 14.437486 48.216835 
L 14.533903 48.694038 
L 14.443706 48.214453 
L 14.549454 48.24565 
L 14.658312 47.809209 
L 14.568115 48.669491 
L 14.670752 48.02994 
L 14.683193 48.542836 
L 14.714296 47.373748 
L 14.77961 48.026289 
L 14.879137 47.552105 
L 14.844925 48.478645 
L 14.891578 47.795387 
L 15.009766 48.639064 
L 14.984885 47.550492 
L 15.031538 48.433533 
L 15.165277 46.99066 
L 15.084412 48.503565 
L 15.180829 47.209246 
L 15.19638 48.552242 
L 15.227482 47.018649 
L 15.292796 47.564642 
L 15.361221 47.056965 
L 15.386103 48.410054 
L 15.426536 48.537963 
L 15.404764 47.790705 
L 15.47941 48.231463 
L 15.510512 46.782825 
L 15.541614 48.425547 
L 15.591378 48.062426 
L 15.597598 48.079952 
L 15.600708 48.036236 
L 15.62248 47.70433 
L 15.656692 48.063953 
L 15.712676 47.83357 
L 15.805983 48.645112 
L 15.740668 47.641361 
L 15.871297 48.611278 
L 15.899289 47.769093 
L 15.989486 48.399624 
L 15.992596 48.464199 
L 16.023698 47.766403 
L 16.070351 47.861257 
L 16.085903 47.790773 
L 16.113895 48.588033 
L 16.132556 48.483339 
L 16.172989 48.01172 
L 16.244524 48.607524 
L 16.275626 47.671127 
L 16.319169 48.65574 
L 16.356492 48.427299 
L 16.462239 48.677864 
L 16.400035 47.920112 
L 16.47157 48.514427 
L 16.571097 47.547661 
L 16.524444 48.516093 
L 16.589758 48.107554 
L 16.683065 48.607103 
L 16.62086 47.797521 
L 16.698616 48.293079 
L 16.791923 47.707866 
L 16.735939 48.603874 
L 16.813694 48.03067 
L 16.916331 48.601088 
L 16.931882 48.150611 
L 17.03452 47.939372 
L 17.006528 48.685818 
L 17.04385 48.083799 
L 17.096724 48.648712 
L 17.074953 47.979116 
L 17.18692 48.317282 
L 17.202472 47.987731 
L 17.221133 48.66227 
L 17.286448 48.584744 
L 17.289558 48.667109 
L 17.31444 48.007649 
L 17.385975 48.303267 
L 17.473061 47.888225 
L 17.432628 48.667565 
L 17.488612 48.304612 
L 17.572588 48.645073 
L 17.550816 48.081811 
L 17.60058 48.426668 
L 17.696997 48.603001 
L 17.625462 47.961994 
L 17.706327 48.461211 
L 17.780973 47.895969 
L 17.762311 48.638734 
L 17.824516 48.091146 
L 17.88672 48.64577 
L 17.911602 47.81314 
L 17.933373 48.185659 
L 18.045341 47.153226 
L 17.964476 48.661472 
L 18.054672 47.334416 
L 18.157309 48.401814 
L 18.135538 47.03501 
L 18.17286 48.118729 
L 18.210183 47.390804 
L 18.241285 48.613273 
L 18.263057 48.329151 
L 18.350143 48.558291 
L 18.303489 47.854078 
L 18.365694 48.18745 
L 18.424788 47.659201 
L 18.459 48.58805 
L 18.462111 48.660699 
L 18.505654 47.804118 
L 18.552307 48.345084 
L 18.58963 47.777344 
L 18.645614 48.582624 
L 18.658055 48.515945 
L 18.664275 48.532125 
L 18.667385 48.508755 
L 18.723369 48.066402 
L 18.692267 48.590329 
L 18.779353 48.228487 
L 18.900652 48.638773 
L 18.788684 48.069629 
L 18.916203 48.535735 
L 19.003289 47.952643 
L 18.965966 48.611857 
L 19.034391 48.474095 
L 19.043722 48.65438 
L 19.115257 47.969755 
L 19.140139 48.526832 
L 19.15569 48.129512 
L 19.177461 48.570592 
L 19.248996 48.442606 
L 19.252107 48.629895 
L 19.29876 47.981033 
L 19.351634 48.115386 
L 19.367185 48.215508 
L 19.376515 47.989559 
L 19.382736 48.006014 
L 19.423169 47.868669 
L 19.401397 48.559344 
L 19.44494 48.520223 
L 19.460491 48.583597 
L 19.510255 47.955676 
L 19.513365 48.036805 
L 19.556908 47.760152 
L 19.606672 48.611382 
L 19.616002 48.361321 
L 19.715529 48.687092 
L 19.687537 48.143477 
L 19.737301 48.633156 
L 19.86171 47.957492 
L 19.87104 48.213438 
L 19.951906 48.640128 
L 19.899032 47.818448 
L 19.976788 48.170968 
L 19.989229 48.003071 
L 20.082535 48.355341 
L 20.14163 48.65317 
L 20.119858 48.083378 
L 20.188283 48.295142 
L 20.200724 48.057843 
L 20.253597 48.700636 
L 20.278479 48.509728 
L 20.281589 48.68018 
L 20.365565 47.965545 
L 20.384227 48.328981 
L 20.396668 47.956269 
L 20.418439 48.684295 
L 20.486864 48.608781 
L 20.489974 48.689993 
L 20.536627 47.978945 
L 20.592611 48.516605 
L 20.698359 47.904701 
L 20.617493 48.610988 
L 20.7108 48.280616 
L 20.726351 48.614531 
L 20.748122 47.882773 
L 20.816547 48.216745 
L 20.822768 48.225128 
L 20.825878 48.31991 
L 20.875641 48.459779 
L 20.86009 47.886615 
L 20.931625 48.299925 
L 21.040483 47.769581 
L 20.959617 48.382704 
L 21.046704 47.916855 
L 21.14312 48.607495 
L 21.158672 48.19493 
L 21.199104 47.753488 
L 21.233317 48.548537 
L 21.27375 47.962424 
L 21.367056 48.682978 
L 21.317293 47.825124 
L 21.382607 48.003674 
L 21.395048 47.773837 
L 21.41371 48.588399 
L 21.485245 48.073294 
L 21.503906 48.664872 
L 21.600323 48.496989 
L 21.640756 48.07909 
L 21.612764 48.627592 
L 21.70607 48.541702 
L 21.70918 48.60349 
L 21.752724 48.059758 
L 21.814928 48.497712 
L 21.833589 47.983745 
L 21.852251 48.610261 
L 21.923786 48.482158 
L 21.926896 48.595405 
L 21.970439 48.042747 
L 22.032643 48.408905 
L 22.141501 47.797593 
L 22.116619 48.593139 
L 22.150832 48.161645 
L 22.225477 48.678518 
L 22.250359 47.880811 
L 22.256579 48.022568 
L 22.259689 47.999125 
L 22.26902 48.491886 
L 22.306343 48.437238 
L 22.396539 48.625228 
L 22.346776 47.938753 
L 22.41209 48.301326 
L 22.421421 48.064101 
L 22.492956 47.717118 
L 22.452523 48.582913 
L 22.530279 47.993835 
L 22.592483 48.636788 
L 22.654687 48.437125 
L 22.657798 48.434921 
L 22.664018 48.528552 
L 22.747994 48.693627 
L 22.704451 48.290337 
L 22.775986 48.632178 
L 22.794647 48.640177 
L 22.797757 48.579918 
L 22.819529 47.92825 
L 22.841301 48.639284 
L 22.912836 48.340937 
L 22.993701 48.66559 
L 22.97504 48.175542 
L 23.027914 48.394424 
L 23.077677 48.219642 
L 23.102559 48.63032 
L 23.130551 48.441774 
L 23.164763 48.668577 
L 23.223858 48.087553 
L 23.226968 48.118868 
L 23.279842 48.66113 
L 23.329605 48.197495 
L 23.335826 47.932515 
L 23.422912 48.665721 
L 23.438463 48.156471 
L 23.488226 48.659242 
L 23.53799 47.963629 
L 23.556651 48.656377 
L 23.565982 48.182692 
L 23.668619 48.440429 
L 23.746375 48.588234 
L 23.737044 48.271468 
L 23.771256 48.540943 
L 23.870783 48.183877 
L 23.805469 48.624068 
L 23.883224 48.448922 
L 23.929878 47.931724 
L 23.901886 48.687579 
L 24.001413 48.40876 
L 24.004523 48.404801 
L 24.010743 48.567127 
L 24.020074 48.667588 
L 24.072948 48.080869 
L 24.10094 48.319794 
L 24.144483 47.775275 
L 24.181805 48.614269 
L 24.209797 48.323457 
L 24.212908 48.317592 
L 24.219128 48.51702 
L 24.225348 48.640999 
L 24.278222 47.674629 
L 24.296884 47.777906 
L 24.306214 47.502361 
L 24.38708 48.431682 
L 24.402631 47.986819 
L 24.480387 48.593729 
L 24.411962 47.89494 
L 24.53326 48.142569 
L 24.604795 48.631559 
L 24.648338 47.9285 
L 24.763417 48.699856 
L 24.778968 48.42768 
L 24.803849 48.355254 
L 24.794519 48.479104 
L 24.81629 48.4507 
L 24.872274 48.654346 
L 24.900266 48.116191 
L 24.925148 48.449263 
L 24.931368 48.608397 
L 24.962471 48.291891 
L 25.027785 48.021994 
L 24.990463 48.581718 
L 25.068218 48.416228 
L 25.111761 48.301996 
L 25.130423 48.641209 
L 25.167745 48.586878 
L 25.226839 48.685759 
L 25.198847 48.198839 
L 25.270382 48.501443 
L 25.279713 48.166623 
L 25.313925 48.656186 
L 25.37924 48.535773 
L 25.438334 48.032656 
L 25.497428 48.28128 
L 25.509869 48.261849 
L 25.51298 48.288499 
L 25.550302 48.700348 
L 25.603176 48.098874 
L 25.621837 48.404002 
L 25.690262 47.74772 
L 25.721364 48.620134 
L 25.730695 48.34749 
L 25.743136 48.654444 
L 25.79912 48.009149 
L 25.836442 48.33078 
L 25.929749 47.940613 
L 25.911088 48.639841 
L 25.94219 48.297228 
L 25.967072 48.66754 
L 26.057268 48.473786 
L 26.069709 48.617564 
L 26.08837 48.189162 
L 26.163016 48.418345 
L 26.172346 48.524993 
L 26.181677 48.357789 
L 26.271873 48.103121 
L 26.259432 48.537091 
L 26.290535 48.301082 
L 26.36829 48.63895 
L 26.346519 48.247323 
L 26.402503 48.442788 
L 26.492699 48.223745 
L 26.458486 48.580852 
L 26.50514 48.467569 
L 26.523801 48.693472 
L 26.539352 48.091673 
L 26.607777 48.326002 
L 26.660651 48.256148 
L 26.629549 48.602903 
L 26.669981 48.532507 
L 26.716635 48.686347 
L 26.753957 48.256993 
L 26.775729 48.491857 
L 26.781949 48.198132 
L 26.803721 48.610852 
L 26.887697 48.308671 
L 26.897028 48.278205 
L 26.915689 48.583151 
L 26.93746 48.515218 
L 26.971673 48.647419 
L 26.959232 48.275687 
L 27.046318 48.541852 
L 27.061869 48.332401 
L 27.089861 48.681173 
L 27.111633 48.574437 
L 27.114743 48.664703 
L 27.148955 48.069332 
L 27.21427 48.401958 
L 27.226711 47.866583 
L 27.310687 48.572907 
L 27.326238 48.130982 
L 27.379112 48.634841 
L 27.332458 48.109082 
L 27.441316 48.337371 
L 27.49108 47.984027 
L 27.466198 48.554253 
L 27.547063 48.402786 
L 27.590607 48.648746 
L 27.565725 48.083282 
L 27.649701 48.415048 
L 27.671472 47.857873 
L 27.746118 48.685402 
L 27.758558 48.505543 
L 27.77722 48.681208 
L 27.802102 48.451312 
L 27.808322 48.465783 
L 27.895408 47.899873 
L 27.867416 48.6242 
L 27.92029 48.321002 
L 27.951392 48.63934 
L 28.004266 48.01528 
L 28.010486 47.861269 
L 28.078911 48.436865 
L 28.091352 48.359317 
L 28.103793 48.604013 
L 28.113124 48.145882 
L 28.20021 48.337917 
L 28.265524 48.162162 
L 28.293516 48.651342 
L 28.309067 48.439469 
L 28.383713 48.668457 
L 28.411705 48.343803 
L 28.414815 48.408192 
L 28.442807 47.943554 
L 28.498791 48.6758 
L 28.523673 48.360112 
L 28.536113 48.697847 
L 28.548554 48.274362 
L 28.644971 48.520844 
L 28.725837 48.065423 
L 28.676073 48.65269 
L 28.76627 48.295288 
L 28.856466 48.658448 
L 28.806703 47.996726 
L 28.878238 48.397386 
L 28.940442 48.279811 
L 28.91556 48.65942 
L 28.962214 48.53433 
L 29.030638 48.654106 
L 29.002646 48.078154 
L 29.064851 48.453207 
L 29.19548 47.929144 
L 29.148827 48.664174 
L 29.201701 48.031459 
L 29.232803 48.600568 
L 29.260795 47.903309 
L 29.344771 48.359663 
L 29.357212 48.159381 
L 29.388314 48.6966 
L 29.441188 48.378334 
L 29.506502 48.683581 
L 29.48162 47.951329 
L 29.546935 48.260058 
L 29.553155 48.322509 
L 29.556266 48.263748 
L 29.649572 48.022285 
L 29.61536 48.574893 
L 29.665123 48.130077 
L 29.686895 48.657933 
L 29.780201 48.462838 
L 29.805083 48.667797 
L 29.854847 48.152017 
L 29.867288 47.786893 
L 29.945043 48.664507 
L 29.957484 48.469394 
L 30.03835 48.695392 
L 29.963704 48.331556 
L 30.050791 48.421449 
L 30.066342 48.168707 
L 30.137877 48.619765 
L 30.156538 48.443827 
L 30.200081 48.60542 
L 30.215632 48.101511 
L 30.262286 48.37633 
L 30.268506 48.188423 
L 30.299608 48.655972 
L 30.371143 48.402033 
L 30.46756 48.685289 
L 30.405356 48.182172 
L 30.486221 48.626786 
L 30.619961 48.240433 
L 30.557757 48.649976 
L 30.629292 48.278953 
L 30.635512 48.637958 
L 30.694606 48.161456 
L 30.738149 48.305615 
L 30.74748 48.663683 
L 30.812795 48.225959 
L 30.859448 48.445113 
L 30.930983 48.073236 
L 30.909211 48.676836 
L 30.971416 48.363735 
L 31.086494 48.691896 
L 31.018069 48.151502 
L 31.102045 48.602353 
L 31.16736 47.932429 
L 31.108265 48.651931 
L 31.220233 48.463722 
L 31.282438 48.666877 
L 31.263776 48.199463 
L 31.31043 48.262012 
L 31.347752 48.001927 
L 31.366414 48.661297 
L 31.419287 48.342479 
L 31.437949 47.959033 
L 31.481492 48.636303 
L 31.509484 48.422821 
L 31.512594 48.642855 
L 31.60279 48.00892 
L 31.618342 48.396683 
L 31.652554 48.617779 
L 31.714758 48.361618 
L 31.74275 48.658501 
L 31.767632 48.297611 
L 31.826726 48.56798 
L 31.88582 48.170005 
L 31.836057 48.652795 
L 31.951135 48.438268 
L 32.050662 48.645066 
L 32.02267 48.082728 
L 32.059993 48.478608 
L 32.115977 48.302888 
L 32.100426 48.691497 
L 32.131528 48.594474 
L 32.134638 48.689799 
L 32.16263 48.282379 
L 32.237275 48.487579 
L 32.330582 48.175725 
L 32.271488 48.673785 
L 32.346133 48.487292 
L 32.420778 48.697781 
L 32.433219 48.271845 
L 32.451881 48.329969 
L 32.454991 48.323523 
L 32.461211 48.516933 
L 32.548297 48.686549 
L 32.476762 48.343604 
L 32.566959 48.419599 
L 32.675816 48.10033 
L 32.598061 48.62392 
L 32.682037 48.261124 
L 32.734911 48.66908 
L 32.800225 48.456945 
L 32.87176 48.172444 
L 32.843768 48.617162 
L 32.909083 48.530516 
L 33.017941 48.230184 
L 32.968177 48.621499 
L 33.024161 48.389877 
L 33.136129 48.605751 
L 33.058373 48.130359 
L 33.139239 48.493728 
L 33.164121 47.958652 
L 33.185892 48.662837 
L 33.244987 48.577655 
L 33.260538 48.692232 
L 33.29164 48.1948 
L 33.29475 48.061024 
L 33.319632 48.651359 
L 33.391167 48.631006 
L 33.409828 48.371356 
L 33.416049 48.37918 
L 33.42849 48.129815 
L 33.512466 48.614371 
L 33.521796 48.51981 
L 33.593331 48.220152 
L 33.528017 48.626537 
L 33.618213 48.603359 
L 33.636874 48.648356 
L 33.677307 48.273244 
L 33.708409 48.421077 
L 33.842149 48.633998 
L 33.730181 48.372276 
L 33.848369 48.53395 
L 33.867031 48.357821 
L 33.913684 48.686849 
L 33.957227 48.496677 
L 34.059864 48.647018 
L 33.99455 48.244824 
L 34.066085 48.428538 
L 34.094077 48.68586 
L 34.184273 48.589876 
L 34.271359 48.266721 
L 34.196714 48.672805 
L 34.293131 48.506946 
L 34.349115 48.664056 
L 34.377107 48.251398 
L 34.405099 48.608789 
L 34.467303 48.201744 
L 34.42065 48.683266 
L 34.510846 48.548856 
L 34.517067 48.686905 
L 34.588602 48.087672 
L 34.622814 48.622509 
L 34.663247 48.665095 
L 34.685019 48.377717 
L 34.691239 48.42317 
L 34.744113 47.873014 
L 34.70679 48.60419 
L 34.800097 48.45354 
L 34.887183 48.113181 
L 34.809427 48.605862 
L 34.924505 48.196136 
L 34.964938 48.625023 
L 35.027143 48.086201 
L 35.033363 48.153479 
L 35.039584 48.08915 
L 35.108008 48.564743 
L 35.12978 48.332798 
L 35.145331 48.696817 
L 35.229307 48.265514 
L 35.244858 48.617 
L 35.300842 47.828175 
L 35.356826 48.564958 
L 35.397259 48.664711 
L 35.428361 48.157808 
L 35.459463 48.346188 
L 35.521668 48.197091 
L 35.54966 48.555696 
L 35.562101 48.328776 
L 35.630525 48.628015 
L 35.580762 48.221396 
L 35.677179 48.5046 
L 35.758044 48.213752 
L 35.726942 48.545695 
L 35.786036 48.502145 
L 35.848241 48.661911 
L 35.820249 48.366789 
L 35.894894 48.538974 
L 35.994421 48.222758 
L 35.938437 48.680662 
L 36.003752 48.450573 
L 36.078397 48.683636 
L 36.065956 48.175194 
L 36.11572 48.654425 
L 36.209026 48.280062 
L 36.227688 48.53805 
L 36.233908 48.65841 
L 36.330325 48.379334 
L 36.411191 48.259065 
L 36.383199 48.642451 
L 36.436072 48.436843 
L 36.445403 48.38604 
L 36.451624 48.544006 
L 36.485836 48.635883 
L 36.470285 48.229434 
L 36.557371 48.450685 
L 36.607135 48.227845 
L 36.644457 48.674071 
L 36.666229 48.498973 
L 36.740874 48.634261 
L 36.715992 48.117074 
L 36.756425 48.159696 
L 36.846621 48.59724 
L 36.793748 48.108596 
L 36.890165 48.47203 
L 36.905716 48.263126 
L 36.995912 48.643564 
L 37.030124 48.156429 
L 37.048786 48.685336 
L 37.132762 48.28314 
L 37.163864 48.592274 
L 37.222958 48.2022 
L 37.24784 48.546917 
L 37.325595 48.194578 
L 37.25717 48.668075 
L 37.356698 48.392483 
L 37.409571 48.686158 
L 37.428233 48.177905 
L 37.462445 48.322458 
L 37.487327 47.972221 
L 37.53087 48.67741 
L 37.561972 48.362675 
L 37.636617 48.682436 
L 37.67394 48.416872 
L 37.761026 48.686256 
L 37.692601 48.374557 
L 37.782798 48.523096 
L 37.841892 48.266909 
L 37.879215 48.63899 
L 37.897876 48.353031 
L 37.984962 48.694007 
L 37.904096 48.312504 
L 38.016064 48.416523 
L 38.019174 48.357777 
L 38.050277 48.676648 
L 38.118701 48.517591 
L 38.156024 48.673086 
L 38.208898 48.138229 
L 38.227559 48.632315 
L 38.24622 48.174669 
L 38.317756 48.684084 
L 38.336417 48.60357 
L 38.398621 48.68267 
L 38.417283 48.424859 
L 38.426613 48.504539 
L 38.52614 48.134427 
L 38.485707 48.594286 
L 38.544802 48.444468 
L 38.579014 48.642697 
L 38.628778 48.229002 
L 38.65677 48.504265 
L 38.740745 48.307368 
L 38.725194 48.623363 
L 38.759407 48.548592 
L 38.765627 48.560196 
L 38.768737 48.464186 
L 38.771848 48.505895 
L 38.796729 48.333266 
L 38.840273 48.633374 
L 38.877595 48.5163 
L 38.880705 48.671841 
L 38.95224 48.124203 
L 38.983343 48.465027 
L 39.033106 48.011359 
L 39.005114 48.656307 
L 39.0922 48.51904 
L 39.107751 48.30858 
L 39.126413 48.692273 
L 39.201058 48.475695 
L 39.278814 48.692023 
L 39.291254 48.410505 
L 39.309916 48.430992 
L 39.409443 48.271017 
L 39.37212 48.688351 
L 39.415663 48.462771 
L 39.5183 48.642134 
L 39.474757 48.223405 
L 39.536962 48.594428 
L 39.568064 48.666513 
L 39.645819 48.40071 
L 39.676922 48.655965 
L 39.720465 48.226869 
L 39.754677 48.304905 
L 39.891527 48.672463 
L 39.764008 48.284378 
L 39.897747 48.653156 
L 39.947511 48.30109 
L 39.959952 48.687195 
L 40.009715 48.406614 
L 40.07192 48.682983 
L 40.124793 48.503414 
L 40.168336 48.18239 
L 40.149675 48.606689 
L 40.233651 48.572039 
L 40.270974 48.686193 
L 40.255423 48.171453 
L 40.336288 48.575719 
L 40.35495 48.268578 
L 40.445146 48.624287 
L 40.49802 48.640954 
L 40.488689 48.336368 
L 40.519791 48.450247 
L 40.600657 48.092698 
L 40.588216 48.645868 
L 40.63798 48.318147 
L 40.656641 48.656557 
L 40.731286 48.286026 
L 40.740617 48.442609 
L 40.749948 48.182704 
L 40.805932 48.63137 
L 40.849475 48.41211 
L 40.92723 48.629951 
L 40.893018 48.201812 
L 40.949002 48.269521 
L 40.958332 48.095734 
L 40.992545 48.650804 
L 41.054749 48.390446 
L 41.095182 48.074292 
L 41.129394 48.617195 
L 41.144946 48.477335 
L 41.21337 48.653687 
L 41.250693 48.367904 
L 41.253803 48.445473 
L 41.256913 48.44777 
L 41.260024 48.321237 
L 41.365771 48.065143 
L 41.288016 48.669938 
L 41.371992 48.247737 
L 41.440416 48.644638 
L 41.49018 48.563495 
L 41.527503 48.231034 
L 41.543054 48.594505 
L 41.614589 48.336948 
L 41.704785 48.661016 
L 41.692344 48.330874 
L 41.729667 48.61717 
L 41.7701 48.418391 
L 41.819863 48.686843 
L 41.835414 48.538723 
L 41.838525 48.673069 
L 41.91006 48.315121 
L 41.947382 48.650967 
L 41.969154 48.346958 
L 41.990925 48.688595 
L 42.06246 48.438753 
L 42.152657 48.676732 
L 42.168208 48.366295 
L 42.177539 48.64378 
L 42.217971 48.222134 
L 42.292617 48.476554 
L 42.301947 48.675669 
L 42.323719 48.228145 
L 42.407695 48.594259 
L 42.513442 48.275096 
L 42.423246 48.674783 
L 42.522773 48.481254 
L 42.563206 47.932989 
L 42.538324 48.615762 
L 42.628521 48.490087 
L 42.703166 48.685614 
L 42.650292 48.107602 
L 42.734268 48.34175 
L 42.740488 48.199205 
L 42.830685 48.513945 
L 42.843126 48.355125 
L 42.90844 48.629273 
L 42.861787 48.001219 
L 42.951983 48.364518 
L 42.955094 48.347459 
L 42.976865 48.613776 
L 43.017298 48.498122 
L 43.020408 48.624097 
L 43.082613 48.188434 
L 43.126156 48.436358 
L 43.241234 48.110904 
L 43.18525 48.590375 
L 43.253675 48.315078 
L 43.32521 48.694858 
L 43.371863 48.521559 
L 43.387414 48.180178 
L 43.390524 48.245011 
L 43.396745 48.083144 
L 43.4745 48.636199 
L 43.496272 48.495186 
L 43.521154 48.322305 
L 43.527374 48.656116 
L 43.595799 48.62522 
L 43.598909 48.629138 
L 43.61446 48.48872 
L 43.617571 48.524053 
L 43.642452 48.156731 
L 43.664224 48.682105 
L 43.729538 48.364828 
L 43.844617 48.645888 
L 43.804184 48.17809 
L 43.847727 48.617211 
L 43.925482 48.659367 
L 43.89438 48.393002 
L 43.944144 48.479816 
L 44.003238 48.416313 
L 43.984576 48.691723 
L 44.043671 48.538358 
L 44.049891 48.64852 
L 44.115206 48.288044 
L 44.155639 48.618044 
L 44.286268 48.151047 
L 44.205402 48.680851 
L 44.298709 48.33536 
L 44.31426 48.312855 
L 44.410677 48.664134 
L 44.510204 48.164386 
L 44.491542 48.679994 
L 44.535085 48.286193 
L 44.628392 48.627878 
L 44.650164 48.503209 
L 44.715478 48.196011 
L 44.675045 48.66551 
L 44.762131 48.369638 
L 44.774572 48.430103 
L 44.777683 48.329276 
L 44.780793 48.183774 
L 44.874099 48.677577 
L 44.88654 48.407544 
L 44.898981 48.628191 
L 44.926973 48.275288 
L 44.998508 48.442005 
L 45.057602 48.484663 
L 45.141578 48.601006 
L 45.157129 48.329538 
L 45.16957 48.592734 
L 45.200673 48.190523 
L 45.225554 48.641545 
L 45.278428 48.548957 
L 45.297089 48.644655 
L 45.353073 48.359333 
L 45.371735 48.425544 
L 45.402837 48.164353 
L 45.468151 48.622709 
L 45.480592 48.434815 
L 45.530356 48.670248 
L 45.499254 48.357953 
L 45.59256 48.522823 
L 45.632993 48.215149 
L 45.614332 48.589919 
L 45.695197 48.564366 
L 45.791614 48.679804 
L 45.716969 48.272869 
L 45.804055 48.542507 
L 45.87559 48.447531 
L 45.838268 48.664583 
L 45.891141 48.545503 
L 45.990668 48.693386 
L 45.916023 48.438181 
L 45.999999 48.618455 
L 46.111967 48.356233 
L 46.080865 48.670243 
L 46.115077 48.505246 
L 46.205274 48.696555 
L 46.177282 48.377981 
L 46.217714 48.522926 
L 46.242596 48.263201 
L 46.314131 48.631193 
L 46.326572 48.401457 
L 46.348344 48.700989 
L 46.43543 48.412284 
L 46.450981 48.37729 
L 46.482083 48.658333 
L 46.525626 48.528053 
L 46.628264 48.641508 
L 46.562949 48.369345 
L 46.631374 48.553332 
L 46.752672 48.26781 
L 46.678027 48.695905 
L 46.755783 48.280692 
L 46.86464 48.66727 
L 46.811766 48.058545 
L 46.873971 48.532349 
L 46.973498 48.303026 
L 46.908183 48.671676 
L 46.979718 48.51366 
L 47.0046 48.665048 
L 47.029482 48.185786 
L 47.085466 48.41715 
L 47.15078 48.213451 
L 47.104127 48.626994 
L 47.175662 48.446108 
L 47.188103 48.645884 
L 47.256528 48.303089 
L 47.28452 48.486867 
L 47.415149 48.033457 
L 47.384047 48.614739 
L 47.42137 48.096364 
L 47.502235 48.603428 
L 47.539558 48.349486 
L 47.589322 48.639144 
L 47.642195 48.263378 
L 47.651526 48.402297 
L 47.673297 48.630609 
L 47.732392 48.204528 
L 47.735502 48.127009 
L 47.810147 48.65913 
L 47.831919 48.455936 
L 47.894123 48.703392 
L 47.859911 48.328719 
L 47.940776 48.469197 
L 47.946997 48.381103 
L 47.971879 48.596736 
L 47.981209 48.559514 
L 48.077626 48.676768 
L 48.006091 48.035287 
L 48.086957 48.528414 
L 48.105618 48.38699 
L 48.13672 48.680622 
L 48.195814 48.526147 
L 48.317113 48.15571 
L 48.211366 48.683415 
L 48.326444 48.330316 
L 48.345105 48.672591 
L 48.441522 48.538122 
L 48.537939 48.336418 
L 48.453963 48.6578 
L 48.56282 48.47526 
L 48.637466 48.686685 
L 48.581482 48.359349 
L 48.668568 48.398519 
L 48.681009 48.260732 
L 48.752544 48.627172 
L 48.777426 48.391712 
L 48.873842 48.689152 
L 48.824079 48.309575 
L 48.898724 48.59674 
L 49.010692 48.270941 
L 48.917385 48.673817 
L 49.020023 48.273536 
L 49.138211 48.682044 
L 49.203526 48.044442 
L 49.247069 48.668074 
L 49.250179 48.69342 
L 49.296832 48.22403 
L 49.334155 48.540553 
L 49.436792 48.099685 
L 49.374588 48.577961 
L 49.449233 48.240405 
L 49.561201 48.683984 
L 49.570532 48.532433 
L 49.620295 48.681358 
L 49.579862 48.307162 
L 49.6825 48.601473 
L 49.707381 48.189643 
L 49.747814 48.654107 
L 49.794468 48.465852 
L 49.844231 48.66969 
L 49.813129 48.317661 
L 49.897105 48.435115 
L 49.906435 48.230115 
L 49.990411 48.674911 
L 49.999742 48.653732 
L 50.005962 48.685869 
L 50.021514 48.51686 
L 50.055726 48.621897 
L 50.10549 48.301229 
L 50.139702 48.641347 
L 50.164584 48.574426 
L 50.189465 48.683058 
L 50.226788 48.351541 
L 50.273441 48.586848 
L 50.379189 48.41153 
L 50.363638 48.679707 
L 50.385409 48.565171 
L 50.413401 48.686946 
L 50.432063 48.393891 
L 50.484936 48.459476 
L 50.491157 48.355205 
L 50.53159 48.679097 
L 50.587574 48.521354 
L 50.609345 48.684825 
L 50.618676 48.379506 
L 50.702652 48.578664 
L 50.733754 48.338084 
L 50.715093 48.666778 
L 50.808399 48.511807 
L 50.904816 48.683559 
L 50.81773 48.400003 
L 50.920367 48.62804 
L 51.019894 48.267563 
L 50.939029 48.652932 
L 51.041666 48.446868 
L 51.047886 48.234625 
L 51.10387 48.68476 
L 51.141193 48.453666 
L 51.203397 48.697406 
L 51.212728 48.391178 
L 51.259381 48.647972 
L 51.274932 48.320913 
L 51.355798 48.657848 
L 51.374459 48.521022 
L 51.439774 48.368372 
L 51.411782 48.680178 
L 51.442884 48.551229 
L 51.445994 48.639994 
L 51.483317 48.042881 
L 51.542411 48.286804 
L 51.645048 48.669471 
L 51.548632 48.281485 
L 51.697922 48.41359 
L 51.725914 48.05033 
L 51.747686 48.560678 
L 51.80367 48.442178 
L 51.903197 48.645171 
L 51.822331 48.337276 
L 51.912527 48.449026 
L 51.921858 48.243895 
L 52.005834 48.660457 
L 52.018275 48.566084 
L 52.033826 48.346241 
L 52.074259 48.659449 
L 52.120912 48.626851 
L 52.198668 48.674994 
L 52.167565 48.366262 
L 52.220439 48.576609 
L 52.323076 48.229147 
L 52.248431 48.623049 
L 52.338628 48.416557 
L 52.397722 48.661724 
L 52.385281 48.383886 
L 52.453706 48.588831 
L 52.534571 48.401712 
L 52.466147 48.674296 
L 52.562563 48.550636 
L 52.618547 48.687664 
L 52.637209 48.350667 
L 52.674531 48.586523 
L 52.770948 48.37354 
L 52.714964 48.670916 
L 52.80205 48.468895 
L 52.823822 48.668021 
L 52.858034 48.391166 
L 52.917128 48.549465 
L 52.991774 48.687781 
L 53.007325 48.397933 
L 53.022876 48.503497 
L 53.038427 48.632851 
L 53.053978 48.394197 
L 53.060199 48.411011 
L 53.100631 48.201867 
L 53.119293 48.592736 
L 53.165946 48.47619 
L 53.22815 48.684402 
L 53.271694 48.261401 
L 53.302796 48.677301 
L 53.392992 48.486922 
L 53.405433 48.283192 
L 53.483189 48.699477 
L 53.49874 48.693105 
L 53.623148 48.296759 
L 53.626259 48.338426 
L 53.722675 48.702396 
L 53.654251 48.297107 
L 53.738227 48.421372 
L 53.750667 48.556209 
L 53.744447 48.406209 
L 53.756888 48.512164 
L 53.822202 47.997057 
L 53.868856 48.68671 
L 53.946611 48.35063 
L 53.983934 48.468201 
L 54.077241 48.663879 
L 54.030587 48.208331 
L 54.099012 48.662473 
L 54.189208 48.203543 
L 54.133224 48.666555 
L 54.21409 48.513339 
L 54.316727 48.660265 
L 54.257633 48.232548 
L 54.329168 48.648019 
L 54.397593 48.346786 
L 54.444247 48.500539 
L 54.534443 48.676698 
L 54.469128 48.301452 
L 54.559325 48.580843 
L 54.593537 48.350673 
L 54.63086 48.690929 
L 54.671293 48.557193 
L 54.689954 48.684362 
L 54.758379 48.513435 
L 54.78015 48.583827 
L 54.864126 48.339587 
L 54.786371 48.661247 
L 54.892118 48.540338 
L 54.985425 48.678703 
L 54.948102 48.388297 
L 55.004086 48.6679 
L 55.072511 48.297166 
L 55.116054 48.541531 
L 55.128495 48.699567 
L 55.221802 48.455575 
L 55.224912 48.451368 
L 55.231132 48.602714 
L 55.274675 48.689613 
L 55.265345 48.35004 
L 55.3431 48.68317 
L 55.423966 48.36269 
L 55.389753 48.688043 
L 55.464399 48.394853 
L 55.557705 48.339123 
L 55.520383 48.697962 
L 55.567036 48.398965 
L 55.675894 48.65443 
L 55.616799 48.387206 
L 55.679004 48.506444 
L 55.682114 48.374958 
L 55.775421 48.680222 
L 55.787862 48.58207 
L 55.850066 48.643061 
L 55.825184 48.324798 
L 55.893609 48.560494 
L 55.90916 48.14204 
L 55.993136 48.65611 
L 55.999357 48.540703 
L 56.092663 48.674303 
L 56.036679 48.330589 
L 56.108214 48.490628 
L 56.198411 48.598629 
L 56.145537 48.016282 
L 56.213962 48.502027 
L 56.238843 48.25746 
L 56.260615 48.65808 
L 56.319709 48.554174 
L 56.322819 48.653817 
L 56.366362 48.292627 
L 56.422346 48.348328 
L 56.431677 48.081923 
L 56.493882 48.663614 
L 56.521873 48.64337 
L 56.524984 48.642361 
L 56.531204 48.305421 
L 56.605849 48.647789 
L 56.636952 48.46654 
L 56.717817 48.289018 
L 56.75514 48.639525 
L 56.808014 48.243498 
L 56.867108 48.581113 
L 56.870218 48.668631 
L 56.963525 48.420705 
L 56.975966 48.561628 
L 57.016398 48.686954 
L 57.003958 48.370717 
L 57.069272 48.479542 
L 57.109705 48.395888 
L 57.153248 48.694908 
L 57.171909 48.570078 
L 57.262106 48.672846 
L 57.249665 48.392165 
L 57.283877 48.627623 
L 57.32742 48.284689 
L 57.355412 48.683618 
L 57.402066 48.566427 
L 57.495372 48.666548 
L 57.473601 48.397115 
L 57.510923 48.643361 
L 57.60734 48.32587 
L 57.619781 48.676333 
L 57.622891 48.585201 
L 57.669545 48.294148 
L 57.641553 48.682629 
L 57.734859 48.481304 
L 57.784623 48.663215 
L 57.821945 48.265266 
L 57.825056 48.193723 
L 57.862378 48.61285 
L 57.915252 48.5702 
L 57.918362 48.635623 
L 57.986787 48.300535 
L 58.02411 48.526776 
L 58.086314 48.253706 
L 58.111196 48.605766 
L 58.114306 48.579441 
L 58.17029 48.658373 
L 58.195172 48.374976 
L 58.223164 48.54426 
L 58.328911 48.185606 
L 58.30403 48.677921 
L 58.341352 48.351657 
L 58.428438 48.680134 
L 58.347573 48.273771 
L 58.45332 48.378066 
L 58.45643 48.318802 
L 58.512414 48.680949 
L 58.552847 48.586742 
L 58.633713 48.684168 
L 58.605721 48.311131 
L 58.661705 48.645044 
L 58.73324 48.309511 
L 58.671036 48.651827 
L 58.773673 48.578743 
L 58.776783 48.692963 
L 58.826547 48.395915 
L 58.882531 48.570976 
L 58.944735 48.483904 
L 58.957176 48.687074 
L 58.988278 48.622302 
L 59.056703 48.70012 
L 59.047372 48.48793 
L 59.081585 48.483378 
L 59.115797 48.465487 
L 59.100246 48.693383 
L 59.168671 48.517373 
L 59.190442 48.67491 
L 59.252647 48.441065 
L 59.280639 48.625346 
L 59.389496 48.435716 
L 59.311741 48.686644 
L 59.408158 48.472976 
L 59.510795 48.701499 
L 59.473472 48.296676 
L 59.520126 48.571647 
L 59.554338 48.268725 
L 59.538787 48.680234 
L 59.622763 48.514913 
L 59.716069 48.693311 
L 59.641424 48.28704 
L 59.734731 48.57958 
L 59.756502 48.635229 
L 59.828037 48.451473 
L 59.831148 48.34358 
L 59.880911 48.68203 
L 59.936895 48.513633 
L 59.992879 48.673146 
L 59.974218 48.452353 
L 60.051973 48.652822 
L 60.129729 48.143232 
L 60.170162 48.58161 
L 60.179492 48.685473 
L 60.191933 48.402476 
L 60.269689 48.527543 
L 60.272799 48.423306 
L 60.29457 48.679191 
L 60.375436 48.593588 
L 60.481184 48.684837 
L 60.43453 48.500001 
L 60.484294 48.674678 
L 60.537168 48.074241 
L 60.599372 48.485612 
L 60.680238 48.671098 
L 60.695789 48.390083 
L 60.705119 48.529775 
L 60.785985 48.405676 
L 60.798426 48.668697 
L 60.813977 48.521146 
L 60.84819 48.640595 
L 60.916614 48.34384 
L 60.922835 48.510633 
L 61.025472 48.399285 
L 60.981929 48.695009 
L 61.028582 48.52555 
L 61.050354 48.685092 
L 61.124999 48.400964 
L 61.14366 48.635344 
L 61.212085 48.471802 
L 61.196534 48.702199 
L 61.255628 48.574646 
L 61.2774 48.38289 
L 61.364486 48.679284 
L 61.395588 48.298907 
L 61.426691 48.686384 
L 61.476454 48.593532 
L 61.492005 48.532305 
L 61.498226 48.378985 
L 61.582202 48.667164 
L 61.594642 48.607908 
L 61.638185 48.689525 
L 61.687949 48.269215 
L 61.691059 48.209479 
L 61.759484 48.689104 
L 61.778145 48.546807 
L 61.883893 48.685444 
L 61.799917 48.357641 
L 61.890113 48.570539 
L 61.961648 48.300868 
L 61.896334 48.68671 
L 61.992751 48.580741 
L 62.095388 48.688576 
L 62.061175 48.469957 
L 62.104718 48.633369 
L 62.110939 48.367447 
L 62.154482 48.66994 
L 62.216686 48.57489 
L 62.27267 48.259905 
L 62.238458 48.650724 
L 62.325544 48.558939 
L 62.425071 48.686032 
L 62.365977 48.385015 
L 62.434402 48.600367 
L 62.471724 48.102649 
L 62.527708 48.661143 
L 62.54948 48.539089 
L 62.639676 48.67806 
L 62.589913 48.337384 
L 62.667668 48.67258 
L 62.767195 48.358098 
L 62.748534 48.689417 
L 62.776526 48.540935 
L 62.816959 48.6868 
L 62.869833 48.438264 
L 62.885384 48.466526 
L 62.953809 48.169635 
L 62.900935 48.655929 
L 62.997352 48.399551 
L 63.093768 48.665898 
L 63.031564 48.308702 
L 63.10932 48.471976 
L 63.12176 48.282237 
L 63.143532 48.642896 
L 63.202626 48.637106 
L 63.302153 48.673374 
L 63.239949 48.361062 
L 63.305263 48.615144 
L 63.317704 48.355399 
L 63.379909 48.680648 
L 63.423452 48.486325 
L 63.454554 48.477906 
L 63.457664 48.667384 
L 63.473215 48.581112 
L 63.479436 48.68838 
L 63.529199 48.46835 
L 63.582073 48.565308 
L 63.638057 48.392288 
L 63.619396 48.686853 
L 63.68471 48.457026 
L 63.799788 48.693452 
L 63.843332 48.457351 
L 63.911756 48.619425 
L 63.989512 48.686591 
L 63.945969 48.436592 
L 64.014394 48.592318 
L 64.042386 48.401185 
L 64.117031 48.673701 
L 64.120141 48.61702 
L 64.225889 48.687254 
L 64.173015 48.433943 
L 64.232109 48.652123 
L 64.266321 48.698126 
L 64.284983 48.397244 
L 64.325416 48.611425 
L 64.350297 48.251128 
L 64.337856 48.679711 
L 64.446714 48.332548 
L 64.487147 48.672188 
L 64.564903 48.557216 
L 64.580454 48.663514 
L 64.620887 48.466139 
L 64.66754 48.536753 
L 64.776398 48.400787 
L 64.735965 48.686037 
L 64.779508 48.449439 
L 64.875925 48.649247 
L 64.860373 48.270613 
L 64.891476 48.582382 
L 64.916357 48.446788 
L 64.966121 48.675686 
L 65.003444 48.491656 
L 65.068758 48.671946 
L 65.084309 48.34449 
L 65.115412 48.596073 
L 65.224269 48.186584 
L 65.162065 48.689944 
L 65.23982 48.456414 
L 65.258482 48.689665 
L 65.277143 48.36861 
L 65.348678 48.502965 
L 65.417103 48.210655 
L 65.354898 48.689567 
L 65.445095 48.489575 
L 65.451315 48.645758 
L 65.473087 48.377052 
L 65.553953 48.4822 
L 65.597496 48.170889 
L 65.569504 48.49712 
L 65.66592 48.38144 
L 65.709464 48.691471 
L 65.687692 48.352141 
L 65.780999 48.512471 
L 65.843203 48.655382 
L 65.880526 48.43755 
L 65.896077 48.653372 
L 66.017375 48.427205 
L 65.917848 48.685927 
L 66.020486 48.528755 
L 66.029816 48.453932 
L 66.070249 48.620211 
L 66.141784 48.687343 
L 66.101351 48.46315 
L 66.175997 48.531449 
L 66.256862 48.44827 
L 66.207099 48.644788 
L 66.281744 48.566651 
L 66.340838 48.686834 
L 66.322177 48.392757 
L 66.390602 48.576817 
L 66.409263 48.472694 
L 66.471467 48.669559 
L 66.496349 48.632293 
L 66.533672 48.675904 
L 66.611427 48.48711 
L 66.720285 48.697971 
L 66.658081 48.432926 
L 66.723395 48.685274 
L 66.829143 48.360129 
L 66.7856 48.687917 
L 66.838473 48.566742 
L 66.913119 48.454311 
L 66.941111 48.655546 
L 66.950441 48.54847 
L 67.037527 48.301709 
L 67.009536 48.663781 
L 67.040638 48.543798 
L 67.043748 48.652192 
L 67.096622 48.329026 
L 67.143275 48.407476 
L 67.146385 48.34632 
L 67.168157 48.699265 
L 67.245912 48.574519 
L 67.320558 48.422415 
L 67.267684 48.69618 
L 67.35166 48.56144 
L 67.388982 48.681574 
L 67.438746 48.403455 
L 67.460517 48.559634 
L 67.49473 48.362994 
L 67.482289 48.65873 
L 67.566265 48.615043 
L 67.569375 48.674084 
L 67.594257 48.414258 
L 67.672012 48.630201 
L 67.727996 48.241673 
L 67.687563 48.676973 
L 67.78087 48.502505 
L 67.808862 48.691159 
L 67.830634 48.406294 
L 67.892838 48.551174 
L 67.955042 48.674432 
L 67.91772 48.376707 
L 67.998585 48.562502 
L 68.098113 48.339984 
L 68.029688 48.638471 
L 68.107443 48.586572 
L 68.116774 48.688554 
L 68.126105 48.595574 
L 68.138545 48.387748 
L 68.213191 48.697727 
L 68.234962 48.637789 
L 68.34382 48.439108 
L 68.272285 48.692438 
L 68.35004 48.519072 
L 68.440237 48.678403 
L 68.374922 48.378205 
L 68.462008 48.553261 
L 68.542874 48.316165 
L 68.508662 48.702061 
L 68.564646 48.64507 
L 68.645511 48.492632 
L 68.592638 48.679328 
L 68.676613 48.633414 
L 68.679724 48.678557 
L 68.707716 48.436448 
L 68.779251 48.631526 
L 68.819684 48.449256 
L 68.860116 48.685878 
L 68.891219 48.60205 
L 69.000076 48.412609 
L 68.928541 48.684336 
L 69.003187 48.591922 
L 69.096493 48.696763 
L 69.034289 48.452145 
L 69.118265 48.63661 
L 69.158698 48.359732 
L 69.19602 48.687672 
L 69.227122 48.559727 
L 69.242674 48.68537 
L 69.304878 48.422 
L 69.33909 48.637249 
L 69.404405 48.668695 
L 69.345311 48.456636 
L 69.423066 48.598729 
L 69.429287 48.414037 
L 69.438617 48.682277 
L 69.531924 48.534569 
L 69.62212 48.675266 
L 69.575467 48.366264 
L 69.647002 48.650779 
L 69.684325 48.249013 
L 69.746529 48.695153 
L 69.76519 48.475458 
L 69.852277 48.684902 
L 69.830505 48.456319 
L 69.877158 48.490442 
L 69.880269 48.484228 
L 69.883379 48.649982 
L 69.926922 48.535789 
L 69.973575 48.698404 
L 69.986016 48.4602 
L 70.03889 48.588772 
L 70.097984 48.301395 
L 70.122866 48.698144 
L 70.150858 48.474935 
L 70.194401 48.635705 
L 70.237944 48.262749 
L 70.262826 48.563936 
L 70.312589 48.289905 
L 70.269046 48.632528 
L 70.368573 48.477163 
L 70.455659 48.676201 
L 70.424557 48.408062 
L 70.477431 48.582635 
L 70.576958 48.390468 
L 70.520974 48.676664 
L 70.586289 48.528486 
L 70.676485 48.692533 
L 70.620501 48.485527 
L 70.698256 48.571149 
L 70.757351 48.44996 
L 70.738689 48.682602 
L 70.772902 48.599804 
L 70.813335 48.690051 
L 70.788453 48.470632 
L 70.881759 48.61961 
L 70.947074 48.339913 
L 70.8942 48.662508 
L 70.993727 48.568729 
L 71.052822 48.672373 
L 71.018609 48.358186 
L 71.083924 48.545369 
L 71.108806 48.346678 
L 71.155459 48.669623 
L 71.192781 48.5958 
L 71.270537 48.472404 
L 71.233214 48.675315 
L 71.282978 48.631359 
L 71.370064 48.670017 
L 71.338962 48.377935 
L 71.394946 48.657917 
L 71.497583 48.427341 
L 71.419828 48.683643 
L 71.506914 48.551667 
L 71.541126 48.691658 
L 71.578449 48.457794 
L 71.612661 48.567585 
L 71.671755 48.435068 
L 71.659314 48.675719 
L 71.721519 48.594207 
L 71.861479 48.489346 
L 71.948565 48.386468 
L 71.905022 48.66864 
L 71.970336 48.4201 
L 71.995218 48.644583 
L 71.982777 48.370297 
L 72.085415 48.547299 
L 72.141399 48.397358 
L 72.122737 48.690151 
L 72.194272 48.441706 
L 72.225375 48.313224 
L 72.30935 48.701096 
L 72.324902 48.359609 
L 72.421318 48.633306 
L 72.44931 48.37795 
L 72.492853 48.678544 
L 72.539507 48.405739 
L 72.648364 48.668989 
L 72.57994 48.397189 
L 72.654585 48.624419 
L 72.778994 48.273989 
L 72.660805 48.675305 
L 72.791435 48.395099 
L 72.816316 48.684824 
L 72.890962 48.292619 
L 72.903403 48.484312 
L 72.906513 48.379059 
L 72.965607 48.668206 
L 73.00915 48.433865 
L 73.055803 48.420316 
L 73.124228 48.669602 
L 73.130449 48.612679 
L 73.164661 48.483775 
L 73.15533 48.682798 
L 73.242416 48.565477 
L 73.301511 48.467001 
L 73.28596 48.688933 
L 73.345054 48.65867 
L 73.385487 48.510467 
L 73.450801 48.690825 
L 73.463242 48.576548 
L 73.5721 48.682334 
L 73.506785 48.435188 
L 73.57521 48.668818 
L 73.674737 48.427129 
L 73.687178 48.562007 
L 73.761823 48.488454 
L 73.71517 48.652019 
L 73.792925 48.544499 
L 73.895563 48.681844 
L 73.811587 48.480737 
L 73.904893 48.596455 
L 74.013751 48.673687 
L 74.00442 48.505978 
L 74.019972 48.663878 
L 74.032412 48.415528 
L 74.131939 48.625814 
L 74.206585 48.698398 
L 74.169262 48.44804 
L 74.234577 48.583007 
L 74.28434 48.426833 
L 74.299891 48.67849 
L 74.349655 48.47683 
L 74.355875 48.689216 
L 74.362096 48.415384 
L 74.464733 48.607418 
L 74.536268 48.67859 
L 74.474064 48.445712 
L 74.573591 48.617438 
L 74.601583 48.405138 
L 74.666897 48.685306 
L 74.682448 48.566398 
L 74.694889 48.691086 
L 74.775755 48.319572 
L 74.788196 48.5083 
L 74.822408 48.39043 
L 74.884613 48.671388 
L 74.887723 48.662815 
L 75.049454 48.235875 
L 75.052565 48.366943 
L 75.068116 48.655052 
L 75.145871 48.258533 
L 75.170753 48.615798 
L 75.176973 48.646498 
L 75.204965 48.129961 
L 75.248508 48.481098 
L 75.301382 48.113574 
L 75.341815 48.676164 
L 75.354256 48.567599 
L 75.366697 48.680929 
L 75.441342 48.299947 
L 75.456893 48.445864 
L 75.543979 48.652246 
L 75.565751 48.32857 
L 75.571971 48.665246 
L 75.677719 48.545332 
L 75.749254 48.433918 
L 75.687049 48.698355 
L 75.786577 48.58684 
L 75.886104 48.69502 
L 75.858112 48.422141 
L 75.898544 48.669751 
L 75.914096 48.440031 
L 75.926536 48.698644 
L 76.010512 48.546485 
L 76.085158 48.68275 
L 76.103819 48.470942 
L 76.12248 48.581986 
L 76.197126 48.689278 
L 76.218897 48.449308 
L 76.234448 48.606941 
L 76.302873 48.35771 
L 76.293542 48.655185 
L 76.343306 48.636347 
L 76.355747 48.663338 
L 76.386849 48.446141 
L 76.417951 48.549156 
L 76.514368 48.421368 
L 76.473935 48.702026 
L 76.523699 48.528212 
L 76.620115 48.690746 
L 76.638777 48.654417 
L 76.663659 48.683555 
L 76.68854 48.366749 
L 76.741414 48.630224 
L 76.750745 48.411532 
L 76.834721 48.698433 
L 76.850272 48.521931 
L 76.853382 48.69124 
L 76.937358 48.404642 
L 76.959129 48.501962 
L 77.083538 48.675662 
L 77.039995 48.453 
L 77.086648 48.609956 
L 77.130192 48.373428 
L 77.1022 48.685516 
L 77.192396 48.627157 
L 77.211057 48.696536 
L 77.232829 48.303384 
L 77.291923 48.522382 
L 77.375899 48.392825 
L 77.326135 48.67949 
L 77.38834 48.600916 
L 77.438103 48.684557 
L 77.419442 48.385978 
L 77.497198 48.631627 
L 77.574953 48.331499 
L 77.562512 48.653329 
L 77.609165 48.54123 
L 77.665149 48.381989 
L 77.727354 48.690933 
L 77.774007 48.375593 
L 77.789558 48.695674 
L 77.842432 48.54229 
L 77.882865 48.683642 
L 77.895306 48.451649 
L 77.95751 48.615567 
L 77.966841 48.630127 
L 77.963731 48.5132 
L 77.976171 48.54601 
L 78.032155 48.683623 
L 78.088139 48.349438 
L 78.184556 48.687085 
L 78.200107 48.556925 
L 78.305855 48.443572 
L 78.215658 48.631348 
L 78.308965 48.46425 
L 78.405382 48.694193 
L 78.330737 48.394198 
L 78.420933 48.637327 
L 78.442704 48.696931 
L 78.539121 48.447654 
L 78.573334 48.689808 
L 78.651089 48.590362 
L 78.654199 48.46253 
L 78.728845 48.698609 
L 78.759947 48.652234 
L 78.828372 48.443797 
L 78.791049 48.690917 
L 78.878135 48.536352 
L 78.927899 48.440511 
L 79.005654 48.696992 
L 79.08963 48.519688 
L 79.120732 48.535235 
L 79.151835 48.704366 
L 79.161165 48.47044 
L 79.2327 48.605064 
L 79.248251 48.514451 
L 79.257582 48.680068 
L 79.338448 48.648092 
L 79.422424 48.539955 
L 79.441085 48.628641 
L 79.456636 48.444664 
L 79.503289 48.686288 
L 79.549943 48.683741 
L 79.565494 48.700267 
L 79.581045 48.564543 
L 79.599706 48.576718 
L 79.637029 48.39077 
L 79.686792 48.692872 
L 79.711674 48.520071 
L 79.717895 48.383882 
L 79.776989 48.699984 
L 79.814311 48.585104 
L 79.842303 48.678872 
L 79.857855 48.372561 
L 79.923169 48.560424 
L 80.007145 48.370867 
L 79.93872 48.688449 
L 80.022696 48.62315 
L 80.025806 48.694625 
L 80.047578 48.279281 
L 80.128444 48.538818 
L 80.143995 48.216182 
L 80.187538 48.658693 
L 80.237301 48.366661 
L 80.249742 48.664192 
L 80.339939 48.330344 
L 80.346159 48.343708 
L 80.445686 48.684112 
L 80.3586 48.188461 
L 80.461237 48.405222 
L 80.489229 48.33681 
L 80.523442 48.650855 
L 80.551434 48.588956 
L 80.622969 48.44053 
L 80.560764 48.643524 
L 80.660291 48.524017 
L 80.669622 48.680748 
L 80.728716 48.487362 
L 80.775369 48.671076 
L 80.853125 48.450241 
L 80.78781 48.686111 
L 80.887337 48.588019 
L 80.902888 48.688109 
L 80.946432 48.476956 
L 80.999305 48.672688 
L 81.027297 48.49827 
L 81.06151 48.681676 
L 81.117494 48.514998 
L 81.182808 48.701155 
L 81.2108 48.489526 
L 81.241902 48.675926 
L 81.34765 48.441566 
L 81.276115 48.685599 
L 81.356981 48.598084 
L 81.384973 48.523599 
L 81.416075 48.684619 
L 81.447177 48.626729 
L 81.450287 48.702124 
L 81.506271 48.498521 
L 81.552924 48.613288 
L 81.559145 48.420394 
L 81.605798 48.688848 
L 81.661782 48.605554 
L 81.683554 48.496613 
L 81.668003 48.658494 
L 81.758199 48.663317 
L 81.807963 48.702607 
L 81.801742 48.40498 
L 81.829734 48.556891 
L 81.9106 48.410103 
L 81.839065 48.689749 
L 81.938592 48.579035 
L 81.963474 48.678518 
L 82.007017 48.450223 
L 82.022568 48.542899 
L 82.028788 48.33725 
L 82.063001 48.692529 
L 82.134536 48.442706 
L 82.171858 48.673913 
L 82.252724 48.534648 
L 82.262055 48.454631 
L 82.290047 48.644611 
L 82.324259 48.580001 
L 82.417566 48.691875 
L 82.386463 48.386074 
L 82.436227 48.609674 
L 82.470439 48.503065 
L 82.489101 48.35336 
L 82.504652 48.666089 
L 82.582407 48.403818 
L 82.585518 48.391879 
L 82.61662 48.666373 
L 82.638391 48.61131 
L 82.691265 48.702264 
L 82.647722 48.458837 
L 82.731698 48.666228 
L 82.797013 48.384671 
L 82.818784 48.703586 
L 82.843666 48.502733 
L 82.90587 48.438428 
L 82.955634 48.689277 
L 83.030279 48.466438 
L 83.070712 48.608796 
L 83.173349 48.672018 
L 83.101814 48.399432 
L 83.176459 48.630709 
L 83.1889 48.407007 
L 83.220002 48.695695 
L 83.288427 48.557815 
L 83.338191 48.383699 
L 83.32575 48.686502 
L 83.397285 48.550033 
L 83.4626 48.680873 
L 83.503032 48.4306 
L 83.506143 48.516629 
L 83.555906 48.449309 
L 83.596339 48.694865 
L 83.61189 48.599723 
L 83.658543 48.479926 
L 83.621221 48.704153 
L 83.730079 48.518711 
L 83.764291 48.695945 
L 83.74563 48.485869 
L 83.848267 48.669583 
L 83.944684 48.409761 
L 83.978896 48.587224 
L 84.003778 48.450252 
L 84.087754 48.677397 
L 84.137517 48.44824 
L 84.165509 48.683028 
L 84.199722 48.60538 
L 84.283698 48.680763 
L 84.243265 48.516591 
L 84.308579 48.588421 
L 84.380115 48.539948 
L 84.31791 48.638006 
L 84.383225 48.617673 
L 84.467201 48.696303 
L 84.439209 48.464937 
L 84.488972 48.549529 
L 84.563617 48.444817 
L 84.579169 48.689075 
L 84.59783 48.546367 
L 84.653814 48.698437 
L 84.616491 48.428153 
L 84.706688 48.534245 
L 84.796884 48.35709 
L 84.762672 48.684452 
L 84.809325 48.631576 
L 84.812435 48.70133 
L 84.818656 48.474496 
L 84.911962 48.580029 
L 84.918183 48.405144 
L 84.958615 48.681101 
L 85.02082 48.562241 
L 85.076804 48.690986 
L 85.033261 48.480214 
L 85.132788 48.619883 
L 85.194992 48.692332 
L 85.257197 48.325139 
L 85.291409 48.670573 
L 85.266527 48.264638 
L 85.369164 48.450435 
L 85.431369 48.683607 
L 85.375385 48.43671 
L 85.490463 48.529909 
L 85.518455 48.318354 
L 85.596211 48.633405 
L 85.599321 48.623053 
L 85.652195 48.691505 
L 85.683297 48.452136 
L 85.686407 48.34591 
L 85.72995 48.658077 
L 85.789044 48.587755 
L 85.817036 48.482606 
L 85.835697 48.668984 
L 85.851249 48.591564 
L 85.854359 48.692168 
L 85.910343 48.514237 
L 85.963217 48.661709 
L 86.065854 48.484253 
L 85.969437 48.681295 
L 86.078295 48.515287 
L 86.100066 48.678535 
L 86.177822 48.411038 
L 86.190263 48.671381 
L 86.29601 48.472916 
L 86.212034 48.692537 
L 86.30223 48.603151 
L 86.383096 48.693213 
L 86.395537 48.476986 
L 86.411088 48.625429 
L 86.488844 48.490042 
L 86.445301 48.682625 
L 86.523056 48.585453 
L 86.541717 48.473557 
L 86.594591 48.691583 
L 86.631914 48.536717 
L 86.684788 48.701228 
L 86.746992 48.666966 
L 86.843409 48.446781 
L 86.802976 48.682145 
L 86.86207 48.55498 
L 86.930495 48.673959 
L 86.964707 48.467601 
L 86.974038 48.58841 
L 87.033132 48.46016 
L 87.070455 48.685644 
L 87.086006 48.573534 
L 87.188643 48.647546 
L 87.104667 48.410477 
L 87.197974 48.576649 
L 87.204194 48.439192 
L 87.272619 48.698995 
L 87.306832 48.598561 
L 87.309942 48.693844 
L 87.412579 48.44495 
L 87.474783 48.68019 
L 87.530767 48.555043 
L 87.636515 48.492049 
L 87.596082 48.684568 
L 87.639625 48.580961 
L 87.717381 48.679173 
L 87.729822 48.438447 
L 87.742262 48.515944 
L 87.745373 48.4378 
L 87.820018 48.684929 
L 87.85112 48.545187 
L 87.956868 48.690855 
L 87.876002 48.419118 
L 87.959978 48.594752 
L 88.003521 48.37299 
L 88.056395 48.692063 
L 88.068835 48.580675 
L 88.087497 48.684566 
L 88.078166 48.455605 
L 88.177693 48.578823 
L 88.190134 48.485964 
L 88.264779 48.68751 
L 88.286551 48.603119 
L 88.354976 48.65364 
L 88.308322 48.399022 
L 88.386078 48.529971 
L 88.473164 48.30996 
L 88.438952 48.683205 
L 88.494936 48.504908 
L 88.547809 48.69462 
L 88.538479 48.456982 
L 88.606904 48.537909 
L 88.712651 48.459946 
L 88.644226 48.669735 
L 88.715761 48.476934 
L 88.762415 48.674317 
L 88.827729 48.576547 
L 88.883713 48.5193 
L 88.877493 48.690004 
L 88.933477 48.609792 
L 88.958358 48.678619 
L 88.967689 48.51083 
L 89.039224 48.641835 
L 89.070326 48.686742 
L 89.151192 48.458922 
L 89.166743 48.692528 
L 89.26316 48.663606 
L 89.294262 48.456512 
L 89.309813 48.67682 
L 89.375128 48.608018 
L 89.387569 48.430428 
L 89.393789 48.677451 
L 89.483986 48.628564 
L 89.558631 48.522385 
L 89.490206 48.667788 
L 89.614615 48.577335 
L 89.720362 48.682315 
L 89.639497 48.491672 
L 89.723473 48.54381 
L 89.770126 48.691329 
L 89.813669 48.463857 
L 89.838551 48.683108 
L 89.922527 48.508996 
L 89.950519 48.629652 
L 90.050046 48.324784 
L 89.956739 48.679156 
L 90.065597 48.52713 
L 90.127801 48.684922 
L 90.165124 48.457155 
L 90.171344 48.617886 
L 90.174454 48.284495 
L 90.270871 48.67506 
L 90.280202 48.593728 
L 90.320635 48.699752 
L 90.336186 48.4366 
L 90.38906 48.603548 
L 90.426382 48.391307 
L 90.476146 48.672574 
L 90.494807 48.670523 
L 90.656539 48.260758 
L 90.501028 48.689213 
L 90.668979 48.390588 
L 90.740515 48.663237 
L 90.777837 48.423013 
L 90.790278 48.29571 
L 90.864923 48.695767 
L 90.877364 48.617474 
L 90.970671 48.403367 
L 90.945789 48.691151 
L 91.001773 48.576655 
L 91.079528 48.683294 
L 91.09819 48.392717 
L 91.110631 48.570844 
L 91.172835 48.459033 
L 91.138623 48.690034 
L 91.222599 48.52419 
L 91.315905 48.69748 
L 91.272362 48.463153 
L 91.337677 48.608483 
L 91.402991 48.689466 
L 91.368779 48.468396 
L 91.452755 48.66987 
L 91.490078 48.484587 
L 91.514959 48.680944 
L 91.561613 48.612786 
L 91.66736 48.689183 
L 91.608266 48.49613 
L 91.67047 48.629393 
L 91.682911 48.470937 
L 91.745116 48.680298 
L 91.776218 48.643644 
L 91.829092 48.669018 
L 91.844643 48.497174 
L 91.850863 48.554315 
L 91.853973 48.430461 
L 91.922398 48.679672 
L 91.956611 48.647754 
L 91.962831 48.701845 
L 91.987713 48.518434 
L 92.059248 48.651594 
L 92.062358 48.47962 
L 92.09657 48.675251 
L 92.168106 48.59979 
L 92.23342 48.665227 
L 92.189877 48.506152 
L 92.242751 48.51678 
L 92.245861 48.384459 
L 92.292514 48.686312 
L 92.351609 48.572835 
L 92.37649 48.42458 
L 92.401372 48.693104 
L 92.460466 48.597354 
L 92.494679 48.696926 
L 92.476017 48.475278 
L 92.556883 48.537862 
L 92.578655 48.403952 
L 92.569324 48.679541 
L 92.65641 48.662987 
L 92.755937 48.684181 
L 92.681292 48.47146 
L 92.759047 48.659498 
L 92.808811 48.405022 
L 92.836803 48.677317 
L 92.867905 48.65482 
L 92.883456 48.675392 
L 92.874125 48.570172 
L 92.886566 48.6194 
L 92.989204 48.432898 
L 92.93944 48.700442 
L 92.995424 48.575656 
L 93.091841 48.658134 
L 93.017196 48.364723 
L 93.104282 48.610609 
L 93.160266 48.470882 
L 93.210029 48.68367 
L 93.21625 48.537862 
L 93.334438 48.690639 
L 93.228691 48.435566 
L 93.340658 48.583656 
L 93.393532 48.447434 
L 93.421524 48.654784 
L 93.449516 48.576765 
L 93.527272 48.525481 
L 93.493059 48.676712 
L 93.542823 48.639037 
L 93.608137 48.686119 
L 93.555264 48.510622 
L 93.64857 48.628254 
L 93.716995 48.423696 
L 93.698334 48.664948 
L 93.760538 48.587311 
L 93.800971 48.69829 
L 93.844514 48.458539 
L 93.856955 48.50939 
L 93.869396 48.28162 
L 93.940931 48.67888 
L 93.962702 48.663521 
L 94.015576 48.518338 
L 94.059119 48.678605 
L 94.07467 48.586156 
L 94.149316 48.696655 
L 94.099552 48.456622 
L 94.189749 48.684168 
L 94.301716 48.451862 
L 94.261284 48.695838 
L 94.304827 48.545924 
L 94.363921 48.694374 
L 94.323488 48.52681 
L 94.416795 48.649824 
L 94.472779 48.502477 
L 94.460338 48.687215 
L 94.534983 48.600634 
L 94.600298 48.684369 
L 94.63451 48.50524 
L 94.646951 48.616257 
L 94.702935 48.568203 
L 94.665612 48.650501 
L 94.702935 48.568203 
" clip-path="url(#pefef188ffe)" style="fill: none; stroke: #2ca02c; stroke-width: 0.5; stroke-linecap: square"/>
   </g>
  </g>
 </g>
 <defs>
  <clipPath id="pefef188ffe">
   <rect x="0" y="-0" width="99.212598" height="51.023622"/>
  </clipPath>
 </defs>
</svg>
