<?xml version="1.0" encoding="utf-8" standalone="no"?>
<!DOCTYPE svg PUBLIC "-//W3C//DTD SVG 1.1//EN"
  "http://www.w3.org/Graphics/SVG/1.1/DTD/svg11.dtd">
<svg xmlns:xlink="http://www.w3.org/1999/xlink" width="99.212598pt" height="51.023622pt" viewBox="0 0 99.212598 51.023622" xmlns="http://www.w3.org/2000/svg" version="1.1">
 <metadata>
  <rdf:RDF xmlns:dc="http://purl.org/dc/elements/1.1/" xmlns:cc="http://creativecommons.org/ns#" xmlns:rdf="http://www.w3.org/1999/02/22-rdf-syntax-ns#">
   <cc:Work>
    <dc:type rdf:resource="http://purl.org/dc/dcmitype/StillImage"/>
    <dc:date>2024-10-30T10:51:13.725001</dc:date>
    <dc:format>image/svg+xml</dc:format>
    <dc:creator>
     <cc:Agent>
      <dc:title>Matplotlib v3.8.4, https://matplotlib.org/</dc:title>
     </cc:Agent>
    </dc:creator>
   </cc:Work>
  </rdf:RDF>
 </metadata>
 <defs>
  <style type="text/css">*{stroke-linejoin: round; stroke-linecap: butt}</style>
 </defs>
 <g id="figure_1">
  <g id="patch_1">
   <path d="M 0 51.023622 
L 99.212598 51.023622 
L 99.212598 0 
L 0 0 
L 0 51.023622 
z
" style="fill: none"/>
  </g>
  <g id="axes_1">
   <g id="patch_2">
    <path d="M 0 51.023622 
L 99.212598 51.023622 
L 99.212598 -0 
L 0 -0 
L 0 51.023622 
z
" style="fill: none"/>
   </g>
   <g id="matplotlib.axis_1">
    <g id="xtick_1"/>
    <g id="xtick_2"/>
   </g>
   <g id="matplotlib.axis_2">
    <g id="ytick_1"/>
    <g id="ytick_2"/>
   </g>
   <g id="line2d_1">
    <path d="M 4.509664 25.824073 
L 4.534545 27.507105 
L 4.59986 24.581867 
L 4.618521 25.50941 
L 4.693167 39.979004 
L 4.730489 26.730337 
L 4.789583 4.112961 
L 4.845567 22.527982 
L 4.935764 29.828902 
L 4.960645 24.954155 
L 5.122377 6.994721 
L 5.175251 2.319256 
L 5.218794 6.997121 
L 5.458281 42.894625 
L 5.467611 42.756629 
L 5.501824 43.367853 
L 5.517375 41.741577 
L 5.663555 32.119726 
L 5.601351 44.500876 
L 5.675996 32.80659 
L 5.72887 39.430269 
L 5.787964 33.33552 
L 5.86883 10.068895 
L 5.890601 6.783468 
L 5.934144 17.977601 
L 5.993239 40.702085 
L 6.067884 30.124575 
L 6.102096 24.830147 
L 6.15808 33.592615 
L 6.189182 47.309987 
L 6.270048 34.412858 
L 6.29493 30.929795 
L 6.347804 39.613538 
L 6.354024 40.088725 
L 6.403788 33.444311 
L 6.422449 31.778981 
L 6.484653 36.84363 
L 6.599731 45.84674 
L 6.633944 41.054931 
L 6.770794 36.796555 
L 6.699258 42.705929 
L 6.773904 36.908922 
L 6.805006 40.285261 
L 6.895202 45.683857 
L 6.854769 40.118941 
L 6.916974 40.571114 
L 6.941856 36.478305 
L 7.00095 46.801733 
L 7.069375 48.344574 
L 7.103587 44.950331 
L 7.125359 44.056942 
L 7.159571 45.965444 
L 7.221775 48.054353 
L 7.28709 47.338041 
L 7.405278 41.658979 
L 7.442601 44.940278 
L 7.445711 45.256015 
L 7.526577 42.762757 
L 7.560789 40.075687 
L 7.610553 45.295673 
L 7.613663 45.261467 
L 7.616773 45.301287 
L 7.626104 44.110813 
L 7.70697 38.071849 
L 7.747403 42.253458 
L 7.778505 48.432423 
L 7.865591 43.89804 
L 7.899803 48.67329 
L 7.99311 45.88605 
L 8.083306 46.231977 
L 8.120629 42.986996 
L 8.126849 42.906119 
L 8.229487 47.059507 
L 8.248148 47.764759 
L 8.319683 45.856729 
L 8.440982 42.45739 
L 8.391218 47.248571 
L 8.453423 42.93266 
L 8.475194 44.512633 
L 8.521847 36.789249 
L 8.524958 36.797634 
L 8.568501 42.685789 
L 8.674248 39.863756 
L 8.724012 42.523314 
L 8.758224 48.380966 
L 8.860861 46.659782 
L 8.926176 46.449146 
L 8.901294 46.941288 
L 8.957278 46.699748 
L 9.069246 48.523665 
L 8.98527 46.488774 
L 9.084797 47.559174 
L 9.206096 46.363567 
L 9.12212 48.303862 
L 9.212316 46.737475 
L 9.224757 47.353266 
L 9.25897 46.372047 
L 9.26208 46.390927 
L 9.361607 45.094882 
L 9.290072 47.258218 
L 9.383378 45.705924 
L 9.389599 45.974273 
L 9.451803 43.076338 
L 9.489126 38.824209 
L 9.55133 44.602623 
L 9.650857 48.16191 
L 9.669519 45.971101 
L 9.6944 45.171247 
L 9.769046 46.517848 
L 9.778376 46.160429 
L 9.83436 48.423291 
L 9.790817 46.093849 
L 9.893454 46.264777 
L 9.958769 44.814996 
L 9.927667 46.754129 
L 10.008533 45.992278 
L 10.101839 47.144931 
L 10.067627 45.825675 
L 10.126721 46.664461 
L 10.25424 43.770984 
L 10.170264 46.981451 
L 10.288452 45.081132 
L 10.387979 47.535898 
L 10.344436 44.140278 
L 10.406641 45.561267 
L 10.425302 44.453649 
L 10.459515 47.441791 
L 10.493727 47.291993 
L 10.503058 48.290207 
L 10.577703 43.564095 
L 10.664789 38.885543 
L 10.618136 44.10066 
L 10.692781 42.792716 
L 10.81719 47.912573 
L 10.829631 47.713622 
L 10.860733 48.65589 
L 10.879394 46.589616 
L 10.997583 43.632878 
L 10.95404 48.523312 
L 11.013134 44.594518 
L 11.137542 48.029964 
L 11.10022 44.302023 
L 11.153094 47.473777 
L 11.305494 45.792248 
L 11.221518 48.013086 
L 11.311715 45.840767 
L 11.38947 47.532219 
L 11.420573 45.969246 
L 11.5201 45.071125 
L 11.485887 47.381797 
L 11.535651 45.610629 
L 11.591635 47.4309 
L 11.625847 45.059481 
L 11.660059 43.970439 
L 11.697382 46.651719 
L 11.719154 48.391571 
L 11.787578 44.406648 
L 11.834232 41.441528 
L 11.880885 45.632275 
L 11.995963 48.105644 
L 12.039506 47.394172 
L 12.185687 45.672977 
L 12.132813 47.961233 
L 12.191907 45.699239 
L 12.201238 45.610639 
L 12.219899 46.454374 
L 12.260332 48.526994 
L 12.338087 46.930885 
L 12.37541 46.207946 
L 12.443835 47.105784 
L 12.549582 48.194163 
L 12.478047 46.864374 
L 12.562023 47.328763 
L 12.664661 45.550434 
L 12.630448 48.356006 
L 12.677101 46.483614 
L 12.695763 48.613143 
L 12.789069 47.026602 
L 12.879266 44.572283 
L 12.904147 46.567211 
L 12.910368 46.778651 
L 12.972572 44.416827 
L 13.000564 40.980432 
L 13.062769 47.632972 
L 13.068989 48.405389 
L 13.090761 46.049935 
L 13.168516 47.016462 
L 13.193398 48.596919 
L 13.21828 46.403043 
L 13.236941 45.897331 
L 13.292925 47.778938 
L 13.296035 47.794285 
L 13.314697 47.512269 
L 13.411113 46.4212 
L 13.383121 47.801395 
L 13.429775 47.231617 
L 13.516861 48.258855 
L 13.482648 46.084764 
L 13.538632 47.17996 
L 13.547963 46.777237 
L 13.610167 48.669629 
L 13.635049 47.979966 
L 13.64127 48.030579 
L 13.656821 47.692328 
L 13.684813 47.288648 
L 13.747017 48.31044 
L 13.756348 48.152544 
L 13.78745 48.561446 
L 13.830993 47.004726 
L 13.896308 45.979479 
L 13.918079 48.466299 
L 13.946071 46.322048 
L 14.051819 48.534173 
L 13.983394 44.930256 
L 14.0767 47.153542 
L 14.082921 46.986264 
L 14.095362 47.370298 
L 14.117133 48.565532 
L 14.188668 45.556684 
L 14.219771 44.087854 
L 14.278865 46.863317 
L 14.303747 48.179442 
L 14.365951 45.656392 
L 14.372171 45.41851 
L 14.415714 47.589188 
L 14.446817 47.410274 
L 14.459258 47.771561 
L 14.49036 45.496089 
L 14.527682 46.206317 
L 14.530793 46.104216 
L 14.574336 48.281992 
L 14.583666 48.616392 
L 14.63654 46.451335 
L 14.63965 46.505934 
L 14.711185 45.761466 
L 14.670752 47.858942 
L 14.748508 46.55959 
L 14.863586 48.53359 
L 14.879137 47.919965 
L 14.947562 47.44638 
L 14.897799 48.450817 
L 14.966223 48.255234 
L 14.984885 48.438437 
L 15.006656 47.325606 
L 15.05642 47.689238 
L 15.06264 47.783732 
L 15.068861 47.663152 
L 15.134175 46.144346 
L 15.165277 48.272131 
L 15.174608 47.888632 
L 15.283466 47.04075 
L 15.261694 48.18566 
L 15.305237 47.5401 
L 15.314568 48.07883 
L 15.389213 45.282464 
L 15.398544 45.65286 
L 15.466969 47.718565 
L 15.435867 45.017045 
L 15.510512 45.964096 
L 15.550945 42.671657 
L 15.591378 47.070591 
L 15.606929 46.686441 
L 15.61937 46.33235 
L 15.647362 47.224411 
L 15.740668 48.515834 
L 15.712676 46.785756 
L 15.759329 47.750019 
L 15.812203 46.771038 
L 15.852636 48.554483 
L 15.868187 47.873676 
L 15.874408 48.021348 
L 15.933502 47.197817 
L 15.949053 47.232425 
L 16.04547 45.881256 
L 15.989486 48.07279 
L 16.067241 46.47715 
L 16.163658 48.689387 
L 16.225863 48.594422 
L 16.288067 47.822516 
L 16.260075 48.601016 
L 16.362712 48.323115 
L 16.418696 48.63817 
L 16.443578 48.012407 
L 16.47779 48.561336 
L 16.555546 47.181551 
L 16.60842 47.461202 
L 16.664404 47.997262 
L 16.639522 45.012246 
L 16.679955 45.838324 
L 16.686175 45.516829 
L 16.711057 48.298985 
L 16.770151 47.653484 
L 16.835466 48.493564 
L 16.869678 46.603861 
L 16.959874 48.405732 
L 16.975426 46.89085 
L 17.003418 45.195833 
L 17.065622 47.553072 
L 17.081173 47.543634 
L 17.084283 47.526038 
L 17.096724 47.944218 
L 17.109165 48.335003 
L 17.168259 46.878616 
L 17.205582 47.955051 
L 17.280227 45.926972 
L 17.211802 47.975092 
L 17.31444 47.92318 
L 17.32688 48.602729 
L 17.401526 46.925074 
L 17.413967 47.108032 
L 17.454399 48.096606 
L 17.497943 46.523337 
L 17.553926 47.760395 
L 17.60058 46.279247 
L 17.659674 47.75777 
L 17.724989 48.588304 
L 17.74676 46.967036 
L 17.762311 47.19071 
L 17.784083 46.765411 
L 17.818295 47.956364 
L 17.852508 48.119292 
L 17.905381 47.080073 
L 17.908492 46.928723 
L 17.970696 48.194012 
L 18.001798 47.676382 
L 18.036011 46.938854 
L 18.054672 47.913298 
L 18.064003 48.627102 
L 18.132427 46.794276 
L 18.160419 47.540494 
L 18.16664 47.730804 
L 18.182191 46.045675 
L 18.197742 44.840812 
L 18.278608 47.126629 
L 18.325261 47.481049 
L 18.340812 46.712606 
L 18.381245 45.400593 
L 18.412347 48.14562 
L 18.44656 46.893621 
L 18.468331 48.566529 
L 18.536756 46.719165 
L 18.567858 47.348252 
L 18.580299 47.138568 
L 18.59585 48.159135 
L 18.654944 48.536459 
L 18.623842 46.185993 
L 18.707818 48.394106 
L 18.791794 47.309411 
L 18.720259 48.403066 
L 18.832227 47.997024 
L 18.925534 48.538313 
L 18.891321 47.264675 
L 18.944195 48.137887 
L 18.993958 47.516089 
L 19.028171 48.635519 
L 19.065493 47.604876 
L 19.143249 48.501593 
L 19.196123 48.00813 
L 19.264547 48.493443 
L 19.311201 48.601472 
L 19.332972 47.770898 
L 19.339193 48.00673 
L 19.429389 48.658842 
L 19.457381 47.28582 
L 19.513365 48.554852 
L 19.544467 46.692556 
L 19.550688 46.73121 
L 19.553798 46.422683 
L 19.594231 48.538059 
L 19.656435 47.146293 
L 19.671986 48.15389 
L 19.72175 46.425799 
L 19.765293 47.115717 
L 19.774624 47.018206 
L 19.787064 47.502898 
L 19.796395 47.968852 
L 19.86171 46.57942 
L 19.883481 45.102161 
L 19.939465 48.6404 
L 19.958127 47.921991 
L 19.986119 47.587512 
L 20.017221 48.520038 
L 20.063874 48.083997 
L 20.082535 48.625671 
L 20.14474 47.686851 
L 20.185173 47.31203 
L 20.216275 48.324711 
L 20.256708 47.623463 
L 20.262928 47.885676 
L 20.340684 46.050461 
L 20.343794 46.159313 
L 20.393557 48.189816 
L 20.530407 47.735502 
L 20.592611 46.929064 
L 20.549068 47.751498 
L 20.642375 47.580157 
L 20.670367 47.716186 
L 20.70769 46.833777 
L 20.726351 47.057143 
L 20.732571 46.771523 
L 20.779225 48.238435 
L 20.828988 47.477113 
L 20.925405 48.035234 
L 20.897413 46.81291 
L 20.940956 47.557009 
L 20.978279 46.883131 
L 21.031152 48.435183 
L 21.043593 47.875879 
L 21.124459 46.950154 
L 21.146231 48.355192 
L 21.149341 48.52797 
L 21.220876 46.567482 
L 21.223986 46.602642 
L 21.27686 44.863304 
L 21.245758 46.936601 
L 21.323513 46.701954 
L 21.376387 48.631576 
L 21.438591 47.47262 
L 21.451032 46.839311 
L 21.466583 45.983718 
L 21.507016 48.239119 
L 21.547449 47.460998 
L 21.631425 48.632359 
L 21.656307 47.521196 
L 21.671858 46.79241 
L 21.740283 48.693922 
L 21.765164 47.587979 
L 21.821148 48.618433 
L 21.867802 47.707028 
L 21.97977 47.023283 
L 21.923786 48.424276 
L 21.98599 47.033086 
L 21.99221 47.003212 
L 22.001541 47.675481 
L 22.048194 48.583253 
L 22.091738 47.13842 
L 22.116619 48.166627 
L 22.144611 47.460464 
L 22.228587 48.036407 
L 22.284571 48.60718 
L 22.247249 47.785672 
L 22.346776 48.124785 
L 22.362327 47.745791 
L 22.396539 48.612227 
L 22.452523 48.452009 
L 22.499176 48.479803 
L 22.480515 47.765162 
L 22.514727 48.089174 
L 22.601814 46.622296 
L 22.567601 48.282494 
L 22.623585 48.165946 
L 22.664018 48.54365 
L 22.68579 46.608792 
L 22.723112 47.379424 
L 22.866182 48.496163 
L 22.810198 47.35748 
L 22.878623 48.304139 
L 23.015473 47.1462 
L 22.894174 48.677794 
L 23.018583 47.188686 
L 23.105669 48.389478 
L 23.043465 46.877926 
L 23.152323 47.687382 
L 23.177204 47.142849 
L 23.217637 48.408187 
L 23.25496 47.770181 
L 23.329605 48.424098 
L 23.357597 47.717303 
L 23.363818 47.779532 
L 23.472675 47.133751 
L 23.422912 48.223332 
L 23.491337 47.256029 
L 23.637517 48.514513 
L 23.503777 47.141811 
L 23.665509 48.147296 
L 23.709052 47.983966 
L 23.758815 48.403864 
L 23.765036 48.61196 
L 23.82102 47.282002 
L 23.861453 48.136814 
L 23.864563 48.129653 
L 23.880114 48.367326 
L 23.982751 48.616261 
L 23.926767 47.727144 
L 23.985862 48.37803 
L 24.013854 46.986028 
L 24.082278 48.49618 
L 24.11027 47.206307 
L 24.212908 48.329601 
L 24.125821 46.84526 
L 24.231569 47.562856 
L 24.234679 47.464871 
L 24.299994 48.576889 
L 24.324876 48.005374 
L 24.340427 48.679166 
L 24.408851 47.447395 
L 24.436843 48.367507 
L 24.443064 48.351381 
L 24.471056 48.528693 
L 24.477276 48.63772 
L 24.520819 46.568422 
L 24.52704 46.680325 
L 24.561252 46.640774 
L 24.539481 46.961999 
L 24.564362 46.925794 
L 24.617236 48.572012 
L 24.685661 47.940757 
L 24.735425 46.244443 
L 24.788298 48.179946 
L 24.800739 48.493494 
L 24.878495 47.312964 
L 24.887825 46.901053 
L 24.912707 48.432559 
L 24.915817 48.565993 
L 24.993573 47.568497 
L 25.074439 46.939696 
L 25.09932 47.871795 
L 25.195737 48.647556 
L 25.117982 47.677888 
L 25.217509 48.44492 
L 25.264162 47.857429 
L 25.310815 48.664026 
L 25.326366 48.467916 
L 25.369909 47.666074 
L 25.338807 48.541125 
L 25.432114 48.354765 
L 25.441445 48.628049 
L 25.488098 47.95119 
L 25.544082 48.583997 
L 25.578294 47.43892 
L 25.65916 48.127964 
L 25.749356 48.660955 
L 25.687152 47.647608 
L 25.768018 48.268282 
L 25.892426 47.319189 
L 25.824002 48.627223 
L 25.895537 47.584123 
L 26.007505 48.389497 
L 25.929749 47.263975 
L 26.013725 48.287571 
L 26.091481 47.273608 
L 26.131913 47.579797 
L 26.184787 48.658361 
L 26.22211 47.284322 
L 26.22833 47.381531 
L 26.321637 45.948846 
L 26.271873 47.968106 
L 26.337188 47.135391 
L 26.433605 48.682081 
L 26.455376 47.777423 
L 26.570454 48.624419 
L 26.520691 47.380786 
L 26.582895 48.274679 
L 26.694863 47.453399 
L 26.620218 48.603539 
L 26.707304 47.894702 
L 26.744627 48.417723 
L 26.800611 47.68025 
L 26.841044 46.91179 
L 26.897028 48.291226 
L 26.900138 48.280831 
L 26.984114 48.397314 
L 26.93746 48.022018 
L 27.002775 48.168634 
L 27.021436 48.583868 
L 27.142735 47.510344 
L 27.242262 48.005892 
L 27.186278 47.354242 
L 27.254703 47.552736 
L 27.270254 47.005993 
L 27.329348 48.158965 
L 27.363561 47.557884 
L 27.416434 48.481236 
L 27.388442 47.390063 
L 27.444426 47.501859 
L 27.453757 46.923879 
L 27.528402 48.614885 
L 27.537733 48.601875 
L 27.540843 48.620175 
L 27.562615 48.094383 
L 27.606158 46.938177 
L 27.63415 48.551562 
L 27.668362 48.329981 
L 27.736787 48.545333 
L 27.690134 47.117865 
L 27.77722 48.280771 
L 27.910959 46.377188 
L 27.851865 48.497994 
L 27.9234 46.928753 
L 28.032258 48.305265 
L 27.960723 46.802266 
L 28.041588 47.790634 
L 28.047809 47.782261 
L 28.054029 48.02017 
L 28.06025 47.936552 
L 28.153556 48.437207 
L 28.134895 47.274598 
L 28.165997 47.619641 
L 28.169108 47.489462 
L 28.256194 48.488659 
L 28.355721 48.677243 
L 28.324619 47.976194 
L 28.361941 48.540429 
L 28.48324 47.665721 
L 28.405484 48.627911 
L 28.48635 47.775767 
L 28.539224 48.615852 
L 28.49257 47.695227 
L 28.6232 48.260465 
L 28.638751 48.648054 
L 28.682294 47.945127 
L 28.722727 48.17167 
L 28.735168 47.748379 
L 28.794262 48.586031 
L 28.834695 48.086625 
L 28.90623 48.617869 
L 28.952883 48.527247 
L 28.959103 48.622931 
L 29.005757 47.862272 
L 29.036859 48.149852 
L 29.145717 47.135988 
L 29.074182 48.596857 
L 29.161268 47.461952 
L 29.251464 48.673908 
L 29.282566 48.352384 
L 29.288787 48.406568 
L 29.295007 48.275069 
L 29.391424 47.555417 
L 29.33233 48.592945 
L 29.410085 48.078113 
L 29.425636 48.623763 
L 29.450518 46.964094 
L 29.509612 47.750369 
L 29.571817 46.603447 
L 29.525163 47.915838 
L 29.587368 47.731689 
L 29.677564 48.660858 
L 29.699336 48.079549 
L 29.727328 48.610272 
L 29.814414 47.554451 
L 29.879729 48.346899 
L 29.833075 47.005355 
L 29.932602 47.919953 
L 29.935712 47.908922 
L 29.960594 48.207193 
L 29.979256 48.105697 
L 30.019688 48.542072 
L 30.085003 47.868722 
L 30.088113 47.85975 
L 30.097444 48.137356 
L 30.106775 48.61439 
L 30.18142 47.33508 
L 30.18764 47.58401 
L 30.190751 47.443223 
L 30.271616 48.455197 
L 30.287167 48.02176 
L 30.380474 48.565584 
L 30.333821 47.867297 
L 30.396025 48.031582 
L 30.427127 47.514556 
L 30.480001 48.294276 
L 30.501773 48.035925 
L 30.504883 48.175836 
L 30.563977 47.350261 
L 30.60441 47.84451 
L 30.710157 47.612009 
L 30.647953 48.271507 
L 30.713268 47.653564 
L 30.74748 48.611755 
L 30.828346 48.1047 
L 30.871889 48.327314 
L 30.902991 47.732483 
L 30.921652 47.856278 
L 30.930983 47.699849 
L 31.002518 48.643627 
L 31.02429 48.113466 
L 31.046061 48.65674 
L 31.086494 47.247273 
L 31.136257 48.62343 
L 31.189131 47.360143 
L 31.257556 47.727208 
L 31.269997 47.53183 
L 31.332201 48.664544 
L 31.350863 47.929294 
L 31.363303 48.561139 
L 31.416177 47.111147 
L 31.4535 47.492939 
L 31.469051 46.763996 
L 31.531255 47.887926 
L 31.571688 46.970102 
L 31.683656 48.381667 
L 31.696097 47.907042 
L 31.73653 47.270622 
L 31.714758 48.588185 
L 31.789404 48.564324 
L 31.898261 47.814901 
L 31.826726 48.641135 
L 31.929364 47.844271 
L 31.951135 48.593837 
L 31.985348 47.743175 
L 32.044442 48.121888 
L 32.084875 47.94944 
L 32.119087 48.648765 
L 32.137748 48.434657 
L 32.215504 48.680834 
L 32.187512 47.804114 
L 32.243496 48.604298 
L 32.290149 48.092363 
L 32.330582 48.628737 
L 32.358574 48.174584 
L 32.458101 48.604149 
L 32.402117 47.709092 
L 32.470542 48.27958 
L 32.507864 47.982836 
L 32.548297 48.504576 
L 32.5794 48.203868 
L 32.58251 48.458494 
L 32.685147 47.953774 
L 32.688257 47.899118 
L 32.762903 48.458151 
L 32.846878 48.577567 
L 32.809556 47.663161 
L 32.86554 48.363631 
L 32.918414 47.855125 
L 32.87487 48.614518 
L 32.986838 48.049985 
L 33.064594 48.667071 
L 33.017941 47.311698 
L 33.101917 48.612527 
L 33.198333 46.877124 
L 33.216995 48.212659 
L 33.226325 48.419644 
L 33.269868 47.079143 
L 33.313411 47.635052 
L 33.325852 47.373682 
L 33.341403 48.276181 
L 33.425379 47.507602 
L 33.43782 47.611095 
L 33.531127 48.647218 
L 33.450261 47.605143 
L 33.599552 48.423523 
L 33.636874 47.192124 
L 33.664866 48.644591 
L 33.71463 48.188898 
L 33.751952 48.616188 
L 33.814157 48.136108 
L 33.823488 48.22847 
L 33.879472 47.977407 
L 33.845259 48.43 
L 33.929235 48.204379 
L 33.951007 48.637684 
L 34.006991 47.634799 
L 34.031872 47.664688 
L 34.072305 48.615766 
L 34.156281 48.353713 
L 34.159391 48.357572 
L 34.168722 48.210916 
L 34.171832 48.182645 
L 34.212265 48.630164 
L 34.243367 48.447279 
L 34.252698 48.635685 
L 34.330453 47.638435 
L 34.333564 47.686219 
L 34.358445 47.512871 
L 34.42065 48.392308 
L 34.504626 48.654146 
L 34.451752 48.189526 
L 34.520177 48.366379 
L 34.607263 47.970396 
L 34.538838 48.680284 
L 34.635255 48.081453 
L 34.672578 48.63163 
L 34.722341 47.880567 
L 34.744113 48.032353 
L 34.756554 47.795018 
L 34.775215 48.450688 
L 34.803207 48.301156 
L 34.908954 48.669817 
L 34.871632 47.720029 
L 34.915175 48.523029 
L 35.008481 47.655997 
L 34.964938 48.675199 
L 35.033363 47.899086 
L 35.098678 47.474772 
L 35.058245 48.472209 
L 35.12667 48.246012 
L 35.173323 48.600511 
L 35.191984 47.54737 
L 35.216866 48.074147 
L 35.291511 47.047214 
L 35.26663 48.616709 
L 35.325724 47.925811 
L 35.341275 48.627581 
L 35.431471 47.813738 
L 35.440802 48.217484 
L 35.503006 48.475329 
L 35.484345 47.5844 
L 35.55277 48.335164 
L 35.627415 48.590445 
L 35.577652 47.715279 
L 35.646077 48.084773 
L 35.655407 47.801663 
L 35.686509 48.686981 
L 35.748714 48.206039 
L 35.826469 48.666352 
L 35.779816 47.803477 
L 35.854461 47.947249 
L 35.894894 48.598944 
L 35.97265 48.394368 
L 36.069066 47.950542 
L 35.994421 48.564966 
L 36.087728 48.18337 
L 36.097058 48.418182 
L 36.162373 48.051336 
L 36.168593 48.177393 
L 36.174814 47.832745 
L 36.26501 48.653998 
L 36.274341 48.343524 
L 36.311664 48.637081 
L 36.283672 48.029191 
L 36.336545 48.119234 
L 36.339656 48.114184 
L 36.39564 48.589871 
L 36.361427 47.902825 
L 36.445403 47.998153 
L 36.54804 47.459273 
L 36.479615 48.633243 
L 36.557371 47.792072 
L 36.604024 48.573713 
L 36.67867 48.359206 
L 36.69111 47.619835 
L 36.740874 48.578784 
L 36.793748 47.981803 
L 36.855952 48.625845 
L 36.887054 47.446037 
L 36.902605 46.813932 
L 36.96481 48.490589 
L 36.980361 48.259389 
L 36.986581 48.515287 
L 37.055006 47.322092 
L 37.089219 48.208002 
L 37.163864 47.298695 
L 37.11099 48.539149 
L 37.182525 48.382941 
L 37.185635 48.605564 
L 37.260281 47.656575 
L 37.291383 48.419242 
L 37.415792 47.679492 
L 37.310044 48.556509 
L 37.418902 47.75969 
L 37.524649 48.628769 
L 37.53398 48.145277 
L 37.546421 47.611068 
L 37.627287 48.700788 
L 37.639728 48.39236 
L 37.661499 48.071614 
L 37.742365 48.349887 
L 37.748585 48.594908 
L 37.845002 47.884429 
L 37.848112 47.988544 
L 37.882325 47.647631 
L 37.910317 48.597273 
L 37.95075 48.108755 
L 38.059607 48.697639 
L 38.072048 48.54442 
L 38.156024 48.020884 
L 38.09382 48.615757 
L 38.190237 48.284917 
L 38.196457 48.113195 
L 38.208898 48.220473 
L 38.218228 48.573045 
L 38.292874 47.560003 
L 38.314645 47.878035 
L 38.417283 48.548491 
L 38.327086 47.691374 
L 38.429723 48.052437 
L 38.498148 47.57736 
L 38.463936 48.611574 
L 38.532361 48.016178 
L 38.572794 48.469564 
L 38.588345 47.741716 
L 38.647439 48.215173 
L 38.687872 47.913584 
L 38.700313 48.589717 
L 38.746966 48.204109 
L 38.824721 48.680206 
L 38.79984 48.012965 
L 38.855824 48.115759 
L 38.9398 47.648142 
L 38.977122 48.568579 
L 39.008224 47.314857 
L 39.023775 48.668071 
L 39.095311 48.21126 
L 39.201058 48.446163 
L 39.163735 47.468717 
L 39.210389 48.430218 
L 39.316136 47.588107 
L 39.257042 48.496089 
L 39.328577 47.874957 
L 39.428104 48.530824 
L 39.403222 47.680581 
L 39.443655 48.376052 
L 39.452986 48.483115 
L 39.471647 48.138911 
L 39.530741 48.055157 
L 39.50586 48.65745 
L 39.561844 48.452956 
L 39.568064 48.682166 
L 39.589836 48.021275 
L 39.64893 48.255278 
L 39.65204 47.945981 
L 39.751567 48.667548 
L 39.754677 48.523193 
L 39.832433 48.681303 
L 39.804441 47.959794 
L 39.854204 48.458428 
L 39.966172 48.176703 
L 39.916409 48.679383 
L 39.969282 48.247834 
L 39.984833 48.061962 
L 40.000385 48.649534 
L 40.07192 48.238894 
L 40.180777 48.598105 
L 40.121683 48.096113 
L 40.186998 48.379963 
L 40.21188 48.504289 
L 40.255423 47.933388 
L 40.283415 48.29569 
L 40.36117 48.045711 
L 40.317627 48.701095 
L 40.389162 48.251637 
L 40.420264 48.590771 
L 40.485579 48.010617 
L 40.49802 48.188741 
L 40.581996 48.657707 
L 40.603767 48.175316 
L 40.703294 47.697314 
L 40.675302 48.614814 
L 40.718845 47.791783 
L 40.746837 48.631741 
L 40.837034 48.424021 
L 40.917899 47.364142 
L 40.939671 48.445548 
L 40.964553 47.985122 
L 41.076521 48.660057 
L 41.020537 47.812359 
L 41.088962 48.444022 
L 41.21337 47.747128 
L 41.129394 48.603504 
L 41.216481 47.793283 
L 41.328449 48.556143 
L 41.331559 48.547888 
L 41.35022 47.577267 
L 41.403094 48.553021 
L 41.443527 48.179792 
L 41.49018 48.66511 
L 41.549274 48.217502 
L 41.577266 47.715199 
L 41.614589 48.560309 
L 41.664352 47.928693 
L 41.77943 48.575817 
L 41.686124 47.54068 
L 41.788761 48.452852 
L 41.838525 48.008189 
L 41.891398 48.605159 
L 41.897619 48.459454 
L 41.925611 48.507334 
L 41.941162 48.095832 
L 41.947382 47.947738 
L 42.018917 48.606608 
L 42.037579 48.547707 
L 42.06246 48.674853 
L 42.106004 48.125338 
L 42.112224 48.231977 
L 42.133996 47.61864 
L 42.165098 48.589153 
L 42.217971 48.511256 
L 42.286396 48.68727 
L 42.239743 48.030888 
L 42.314388 48.275974 
L 42.392144 47.620145 
L 42.423246 48.283196 
L 42.510332 47.820818 
L 42.466789 48.495961 
L 42.538324 48.22219 
L 42.569426 48.668796 
L 42.631631 48.080844 
L 42.650292 48.39244 
L 42.75604 47.939983 
L 42.715607 48.701479 
L 42.76848 48.107462 
L 42.855567 48.66931 
L 42.799583 47.925266 
L 42.880448 48.178379 
L 42.955094 48.639552 
L 42.961314 48.318481 
L 42.973755 47.415031 
L 43.017298 48.423959 
L 43.070172 47.963892 
L 43.085723 48.674182 
L 43.129266 47.559369 
L 43.175919 48.036227 
L 43.19147 47.610817 
L 43.256785 48.66297 
L 43.281667 48.350638 
L 43.406076 47.661564 
L 43.312769 48.625384 
L 43.443398 47.883411 
L 43.505603 48.621303 
L 43.561587 48.406423 
L 43.564697 48.558043 
L 43.620681 47.763685 
L 43.658003 48.006366 
L 43.676665 47.687986 
L 43.726428 48.651931 
L 43.763751 48.167222 
L 43.788633 48.680523 
L 43.816625 48.108631 
L 43.881939 48.654767 
L 43.89749 48.196694 
L 43.922372 48.660061 
L 44.000128 48.198583 
L 44.018789 48.050321 
L 44.080993 48.632776 
L 44.096544 48.421785 
L 44.099655 48.483722 
L 44.17741 48.020277 
L 44.18052 48.053894 
L 44.183631 47.884118 
L 44.248945 48.695288 
L 44.286268 48.339743 
L 44.292488 48.603635 
L 44.32048 48.14346 
L 44.388905 48.355991 
L 44.45733 47.946352 
L 44.426228 48.450065 
L 44.500873 48.20921 
L 44.566188 48.459203 
L 44.587959 47.913126 
L 44.609731 48.328653 
L 44.668825 47.889895 
L 44.625282 48.674606 
L 44.727919 47.97456 
L 44.74658 48.684058 
L 44.852328 48.312425 
L 44.867879 47.857985 
L 44.933194 48.610639 
L 44.958075 48.511766 
L 45.035831 47.578284 
L 45.057602 48.690796 
L 45.076264 48.276476 
L 45.082484 48.611232 
L 45.126027 47.981885 
L 45.185121 48.321472 
L 45.219334 47.976474 
L 45.253546 48.595583 
L 45.3002 48.178038 
L 45.31264 48.619414 
L 45.343743 47.910154 
L 45.409057 48.231877 
L 45.437049 48.063622 
L 45.493033 48.529087 
L 45.505474 48.406293 
L 45.564568 48.627638 
L 45.598781 47.856982 
L 45.605001 47.752883 
L 45.632993 48.456926 
L 45.713859 48.697429 
L 45.692087 48.070439 
L 45.744961 48.49256 
L 45.822717 48.23921 
L 45.844488 48.611062 
L 45.856929 48.320996 
L 45.956456 48.649087 
L 45.912913 48.056649 
L 45.968897 48.371617 
L 45.996889 47.735673 
L 46.049763 48.648124 
L 46.062203 48.63118 
L 46.130628 48.127147 
L 46.161731 48.653212 
L 46.199053 48.389922 
L 46.208384 48.578714 
L 46.264368 47.625743 
L 46.29858 48.14942 
L 46.398107 47.821783 
L 46.360785 48.599997 
L 46.413658 47.885554 
L 46.500744 48.641857 
L 46.525626 48.097666 
L 46.553618 48.018802 
L 46.609602 48.449103 
L 46.612712 48.5674 
L 46.699799 47.865589 
L 46.706019 47.979425 
L 46.709129 47.974677 
L 46.71535 48.158045 
L 46.730901 48.408888 
L 46.789995 47.755875 
L 46.796215 47.580691 
L 46.845979 48.520377 
L 46.880191 48.258635 
L 46.908183 48.625252 
L 46.948616 47.597513 
L 46.982829 48.106466 
L 47.038813 47.476895 
L 47.066805 48.60255 
L 47.076135 48.523114 
L 47.079245 48.59399 
L 47.14456 47.692764 
L 47.166332 48.102811 
L 47.178772 47.924015 
L 47.247197 48.451536 
L 47.272079 48.235833 
L 47.318732 48.505217 
L 47.296961 48.072429 
L 47.331173 48.063942 
L 47.374716 47.465153 
L 47.436921 48.341903 
L 47.443141 48.301247 
L 47.455582 48.493935 
L 47.489794 48.663174 
L 47.551999 48.102616 
L 47.56133 48.314866 
L 47.576881 47.725205 
L 47.607983 48.484978 
L 47.676408 48.075634 
L 47.70751 48.661418 
L 47.732392 47.926245 
L 47.788376 48.198089 
L 47.859911 47.776819 
L 47.841249 48.665504 
L 47.897233 48.250208 
L 47.909674 48.079879 
L 47.956327 48.696574 
L 47.98743 48.476137 
L 48.071406 48.62493 
L 48.012311 47.813437 
L 48.086957 48.240894 
L 48.096287 48.332566 
L 48.108728 48.678247 
L 48.164712 48.165058 
L 48.208255 48.5121 
L 48.251798 48.659802 
L 48.27668 48.166135 
L 48.317113 48.538628 
L 48.345105 48.023944 
L 48.41975 48.569716 
L 48.432191 48.255332 
L 48.438412 48.692619 
L 48.531718 47.966799 
L 48.537939 48.113226 
L 48.55038 47.933432 
L 48.581482 48.639588 
L 48.637466 48.391416 
L 48.656127 48.572127 
L 48.668568 48.263481 
L 48.677899 48.541942 
L 48.687229 48.700457 
L 48.712111 47.954731 
L 48.777426 48.315439 
L 48.84274 47.81152 
L 48.811638 48.624853 
L 48.876953 48.417763 
L 48.883173 48.658875 
L 48.901834 47.914368 
L 48.97959 48.39295 
L 49.063566 47.919895 
L 49.085337 48.603765 
L 49.091558 48.262202 
L 49.11644 47.778547 
L 49.135101 48.518859 
L 49.191085 48.460751 
L 49.194195 48.619589 
L 49.26573 47.318539 
L 49.299943 48.518024 
L 49.387029 48.148992 
L 49.4088 48.544447 
L 49.415021 48.247638 
L 49.439902 48.652952 
L 49.464784 47.705462 
L 49.526989 48.387671 
L 49.558091 48.163961 
L 49.589193 48.615679 
L 49.617185 48.5025 
L 49.623405 48.670109 
L 49.651397 48.004708 
L 49.722932 48.325016 
L 49.726043 48.322981 
L 49.788247 47.963762 
L 49.803798 48.644394 
L 49.83179 48.525253 
L 49.906435 47.904126 
L 49.878443 48.623038 
L 49.946868 48.462077 
L 49.959309 48.659517 
L 50.002852 47.988631 
L 50.055726 48.512923 
L 50.1086 47.865963 
L 50.155253 48.545296 
L 50.180135 48.175245 
L 50.211237 48.704142 
L 50.189465 48.135232 
L 50.292103 48.314809 
L 50.307654 48.674386 
L 50.335646 48.135054 
L 50.338756 48.031442 
L 50.416512 48.690013 
L 50.435173 48.439092 
L 50.494267 48.69142 
L 50.456944 48.121272 
L 50.522259 48.521166 
L 50.556471 48.196299 
L 50.581353 48.667043 
L 50.637337 48.258633 
L 50.640447 48.269734 
L 50.649778 47.931183 
L 50.652888 47.864358 
L 50.68088 48.467789 
L 50.752415 47.951581 
L 50.82084 48.646825 
L 50.758636 47.855356 
L 50.876824 48.473519 
L 50.907926 48.59364 
L 51.004343 48.16557 
L 51.085209 48.520843 
L 51.060327 47.858483 
L 51.119421 48.295582 
L 51.159854 47.979315 
L 51.200287 48.651122 
L 51.231389 48.277926 
L 51.268712 48.596942 
L 51.287373 47.818476 
L 51.296704 47.791428 
L 51.306034 48.064303 
L 51.309145 48.003406 
L 51.418002 48.64167 
L 51.355798 47.830344 
L 51.424223 48.414262 
L 51.514419 47.626687 
L 51.52997 48.576055 
L 51.533081 48.689324 
L 51.592175 47.913687 
L 51.629497 48.307111 
L 51.713473 47.811017 
L 51.701032 48.325791 
L 51.741465 48.014632 
L 51.816111 48.623068 
L 51.800559 47.8802 
L 51.862764 48.347496 
L 51.94363 48.645765 
L 51.977842 48.041713 
L 51.990283 47.613616 
L 52.027606 48.584139 
L 52.074259 48.254266 
L 52.124022 48.666509 
L 52.170676 47.995433 
L 52.189337 48.634487 
L 52.201778 48.11337 
L 52.2391 48.681627 
L 52.310636 48.369604 
L 52.338628 48.694397 
L 52.403942 48.101605 
L 52.416383 47.967268 
L 52.428824 48.604267 
L 52.497249 48.535776 
L 52.528351 48.661791 
L 52.547012 48.289944 
L 52.606106 48.512547 
L 52.668311 48.099897 
L 52.630988 48.587632 
L 52.721185 48.30974 
L 52.770948 48.682019 
L 52.746066 48.141546 
L 52.823822 48.23338 
L 52.914018 48.032925 
L 52.929569 48.450807 
L 52.957561 48.076697 
L 53.044647 48.637971 
L 53.141064 47.881642 
L 53.053978 48.692439 
L 53.175277 48.35333 
L 53.181497 48.598591 
L 53.234371 48.046386 
L 53.284134 48.337257 
L 53.324567 48.08141 
L 53.346339 48.597758 
L 53.389882 48.407305 
L 53.464527 48.62558 
L 53.402323 48.238474 
L 53.495629 48.471473 
L 53.601377 47.918295 
L 53.536062 48.677671 
L 53.610708 48.172694 
L 53.719565 48.601496 
L 53.629369 47.774375 
L 53.722675 48.310465 
L 53.738227 47.831795 
L 53.769329 48.571565 
L 53.831533 48.389177 
L 53.92173 47.749749 
L 53.868856 48.568805 
L 53.946611 48.210569 
L 54.002595 48.69345 
L 53.983934 47.985383 
L 54.058579 48.404537 
L 54.083461 47.817117 
L 54.136335 48.678843 
L 54.158106 48.389241 
L 54.201649 48.646269 
L 54.2172 47.932967 
L 54.266964 48.287918 
L 54.338499 48.683243 
L 54.35716 48.170952 
L 54.363381 48.279365 
L 54.459798 48.082998 
L 54.382042 48.60882 
L 54.472238 48.354747 
L 54.518892 48.606906 
L 54.543774 48.217723 
L 54.584206 48.409055 
L 54.624639 48.091625 
L 54.661962 48.617627 
L 54.696174 48.310089 
L 54.702395 48.287937 
L 54.721056 48.679729 
L 54.77704 48.485935 
L 54.792591 48.694676 
L 54.854796 48.360512 
L 54.885898 48.656518 
L 54.944992 47.706041 
L 55.000976 48.178336 
L 55.075621 48.664498 
L 55.047629 48.078157 
L 55.116054 48.302772 
L 55.125385 48.271507 
L 55.134715 48.521965 
L 55.137826 48.494983 
L 55.159597 48.686929 
L 55.221802 47.829631 
L 55.234242 47.776404 
L 55.243573 48.033404 
L 55.311998 48.702698 
L 55.377313 48.625639 
L 55.427076 48.184056 
L 55.455068 48.645552 
L 55.492391 48.316392 
L 55.532824 48.653245 
L 55.582587 47.912385 
L 55.585697 47.966051 
L 55.591918 47.792322 
L 55.62924 48.599693 
L 55.675894 48.420686 
L 55.734988 48.664562 
L 55.700775 48.365625 
L 55.781641 48.38975 
L 55.887389 48.102896 
L 55.865617 48.672572 
L 55.899829 48.132867 
L 55.90916 48.5938 
L 55.980695 47.841109 
L 56.011797 48.306196 
L 56.136206 47.599105 
L 56.080222 48.605881 
L 56.139316 47.671431 
L 56.198411 48.610566 
L 56.263725 48.490628 
L 56.316599 48.67541 
L 56.33526 48.05602 
L 56.366362 48.444865 
L 56.441008 47.807249 
L 56.47211 48.614223 
L 56.493882 48.6892 
L 56.500102 48.514305 
L 56.599629 47.837018 
L 56.552976 48.66267 
L 56.61518 48.212577 
L 56.624511 48.220658 
L 56.621401 48.099677 
L 56.636952 48.129039 
L 56.745809 48.664439 
L 56.708487 47.954738 
L 56.75203 48.534033 
L 56.857777 48.309738 
L 56.804904 48.628317 
L 56.863998 48.417479 
L 56.969745 48.202102 
L 56.876439 48.629563 
L 56.979076 48.353197 
L 57.03506 48.635226 
L 57.000847 48.191836 
L 57.097264 48.570777 
L 57.106595 48.648916 
L 57.125256 47.974046 
L 57.196791 48.48038 
L 57.249665 48.113241 
L 57.218563 48.640317 
L 57.308759 48.356205 
L 57.31498 48.194526 
L 57.352302 48.597087 
L 57.386515 48.369561 
L 57.479821 48.665966 
L 57.414507 48.276008 
L 57.498483 48.513208 
L 57.510923 48.655714 
L 57.570018 48.380907 
L 57.591789 48.477274 
L 57.669545 47.721675 
L 57.616671 48.644435 
L 57.703757 48.36233 
L 57.762851 48.64039 
L 57.731749 48.215805 
L 57.818835 48.528387 
L 57.859268 48.678196 
L 57.902811 48.320276 
L 57.983677 47.941608 
L 57.952575 48.539191 
L 58.021 48.244919 
L 58.089424 47.890573 
L 58.070763 48.423145 
L 58.104976 48.378514 
L 58.126747 48.658458 
L 58.204503 47.876276 
L 58.213833 48.319435 
L 58.260487 48.56374 
L 58.300919 47.888316 
L 58.325801 48.389836 
L 58.328911 48.385226 
L 58.332022 48.572568 
L 58.422218 48.633287 
L 58.409777 48.292868 
L 58.437769 48.616715 
L 58.552847 48.073789 
L 58.559068 48.141692 
L 58.58706 48.0345 
L 58.677256 48.680788 
L 58.792334 48.07845 
L 58.842098 48.671897 
L 58.919853 48.552609 
L 58.922963 48.5559 
L 58.929184 48.447272 
L 58.941625 48.500966 
L 59.01316 48.208896 
L 58.954066 48.647473 
L 59.050482 48.540172 
L 59.053593 48.617194 
L 59.146899 48.332185 
L 59.15312 48.401043 
L 59.199773 48.343728 
L 59.187332 48.621732 
L 59.212214 48.521578 
L 59.227765 48.612811 
L 59.258867 48.108652 
L 59.314851 48.350406 
L 59.426819 48.14416 
L 59.345953 48.627515 
L 59.429929 48.146551 
L 59.535677 48.664822 
L 59.451701 47.818988 
L 59.548118 48.547005 
L 59.610322 47.874421 
L 59.560558 48.591133 
L 59.656975 48.334916 
L 59.663196 48.682795 
L 59.72851 48.306989 
L 59.765833 48.365417 
L 59.831148 48.125159 
L 59.800045 48.537056 
L 59.852919 48.488431 
L 59.86225 48.578723 
L 59.927564 48.020665 
L 59.930675 48.112092 
L 59.936895 48.038302 
L 59.980438 48.586713 
L 59.983548 48.520862 
L 59.986659 48.649175 
L 60.023981 48.252323 
L 60.086186 48.347787 
L 60.132839 48.105715 
L 60.104847 48.672037 
L 60.191933 48.465704 
L 60.28213 48.618118 
L 60.254138 48.137266 
L 60.29457 48.322581 
L 60.303901 47.962156 
L 60.350554 48.655388 
L 60.409649 48.191942 
L 60.4252 48.63665 
L 60.478073 48.060585 
L 60.524727 48.519089 
L 60.624254 47.767954 
L 60.596262 48.656358 
L 60.639805 48.39319 
L 60.680238 48.606653 
L 60.658466 48.241675 
L 60.698899 48.430951 
L 60.726891 47.260223 
L 60.804647 48.461738 
L 60.85752 48.64793 
L 60.882402 48.061061 
L 60.907284 48.262438 
L 60.941496 47.938138 
L 60.929055 48.458207 
L 61.016141 48.030597 
L 61.109448 48.679646 
L 61.128109 48.332101 
L 61.14055 48.253351 
L 61.187204 48.63974 
L 61.218306 48.401816 
L 61.252518 48.683277 
L 61.243188 48.283447 
L 61.330274 48.603664 
L 61.376927 48.246933 
L 61.411139 48.669503 
L 61.442242 48.557865 
L 61.547989 48.695325 
L 61.495115 48.264285 
L 61.551099 48.559897 
L 61.56354 48.250272 
L 61.647516 48.681641 
L 61.659957 48.553804 
L 61.663067 48.671498 
L 61.687949 48.076225 
L 61.768815 48.48456 
L 61.865232 48.191384 
L 61.809248 48.680185 
L 61.880783 48.448153 
L 61.911885 48.311128 
L 61.995861 48.676229 
L 62.12338 48.208288 
L 62.002081 48.694958 
L 62.12649 48.354759 
L 62.201135 48.692121 
L 62.142041 48.105011 
L 62.235348 48.565702 
L 62.278891 48.180827 
L 62.316213 48.697332 
L 62.347316 48.299953 
L 62.397079 48.689086 
L 62.365977 48.138403 
L 62.462394 48.516066 
L 62.54948 48.335498 
L 62.493496 48.683108 
L 62.571252 48.524413 
L 62.630346 48.035903 
L 62.683219 48.617089 
L 62.720542 47.894072 
L 62.704991 48.663529 
L 62.810738 48.071889 
L 62.841841 48.667347 
L 62.866722 47.997031 
L 62.928927 48.534632 
L 62.97247 48.213468 
L 63.012903 48.6884 
L 63.040895 48.432998 
L 63.140422 48.648606 
L 63.096879 48.203973 
L 63.146642 48.408112 
L 63.162193 48.089184 
L 63.177744 48.668165 
L 63.249279 48.426853 
L 63.342586 48.609768 
L 63.305263 47.960684 
L 63.358137 48.417576 
L 63.414121 48.566392 
L 63.470105 48.194036 
L 63.479436 48.679355 
L 63.507428 48.090188 
L 63.585183 48.602134 
L 63.690931 48.347213 
L 63.647388 48.667342 
L 63.694041 48.446799 
L 63.781127 48.117279 
L 63.806009 48.670818 
L 63.852662 48.15828 
L 63.911756 48.689502 
L 63.917977 48.467995 
L 63.927307 48.685007 
L 64.023724 48.397618 
L 64.045496 48.212755 
L 64.073488 48.687454 
L 64.11081 48.590275 
L 64.151243 48.661201 
L 64.157464 48.372594 
L 64.163684 48.470683 
L 64.272542 48.162086 
L 64.235219 48.694875 
L 64.275652 48.409546 
L 64.340967 48.109469 
L 64.303644 48.629883 
L 64.38762 48.389944 
L 64.452935 48.678318 
L 64.499588 48.467509 
L 64.52758 48.248397 
L 64.521359 48.681052 
L 64.614666 48.278407 
L 64.701752 48.605467 
L 64.66754 48.022376 
L 64.726634 48.429551 
L 64.832381 48.278812 
L 64.760846 48.629684 
L 64.838602 48.3825 
L 64.919468 48.620761 
L 64.882145 48.146474 
L 64.95057 48.437646 
L 64.95368 48.27834 
L 64.963011 48.66502 
L 65.062538 48.377284 
L 65.115412 47.984828 
L 65.09053 48.560933 
L 65.177616 48.105787 
L 65.286474 48.610373 
L 65.23982 47.990246 
L 65.292694 48.494517 
L 65.302025 47.987251 
L 65.326906 48.628872 
L 65.404662 48.129256 
L 65.417103 48.580201 
L 65.441985 47.263672 
L 65.51352 48.289391 
L 65.529071 48.119245 
L 65.581945 48.671997 
L 65.619267 48.48561 
L 65.647259 48.677852 
L 65.678361 48.219066 
L 65.703243 48.355856 
L 65.743676 48.163572 
L 65.725015 48.679348 
L 65.812101 48.396948 
L 65.830762 48.1268 
L 65.871195 48.624691 
L 65.902297 48.477926 
L 65.970722 48.13361 
L 66.011155 48.667605 
L 66.08891 48.669688 
L 66.129343 48.074129 
L 66.191548 48.666853 
L 66.247532 48.579591 
L 66.312846 48.192763 
L 66.331508 48.607821 
L 66.3595 48.546091 
L 66.449696 48.213368 
L 66.403043 48.669057 
L 66.462137 48.464659 
L 66.468357 48.691773 
L 66.546113 48.386056 
L 66.574105 48.63451 
L 66.636309 48.184395 
L 66.673632 48.67252 
L 66.686073 48.570988 
L 66.757608 48.26038 
L 66.798041 48.644599 
L 66.841584 48.196306 
L 66.922449 48.461862 
L 67.009536 48.56794 
L 66.959772 47.937795 
L 67.015756 48.33916 
L 67.056189 48.00422 
L 67.037527 48.655673 
L 67.127724 48.307247 
L 67.230361 48.668239 
L 67.133944 48.225553 
L 67.249022 48.587906 
L 67.277014 48.079808 
L 67.298786 48.668585 
L 67.367211 48.264058 
L 67.373431 48.331987 
L 67.423195 48.60267 
L 67.460517 48.141251 
L 67.476069 48.290147 
L 67.547604 48.099316 
L 67.566265 48.607505 
L 67.584926 48.345232 
L 67.63158 48.270603 
L 67.594257 48.4328 
L 67.6378 48.446956 
L 67.647131 48.657433 
L 67.718666 47.888642 
L 67.727996 48.008945 
L 67.796421 48.639808 
L 67.734217 47.97716 
L 67.871066 48.461977 
L 67.92083 48.655987 
L 67.983034 48.219517 
L 68.104333 48.677081 
L 68.048349 48.13139 
L 68.107443 48.622566 
L 68.20075 48.051644 
L 68.169648 48.641348 
L 68.219411 48.28496 
L 68.253624 48.671021 
L 68.290946 48.226003 
L 68.331379 48.345775 
L 68.399804 48.647348 
L 68.353151 48.063944 
L 68.424686 48.375305 
L 68.452678 48.06138 
L 68.527323 48.694944 
L 68.533543 48.384117 
L 68.567756 48.67631 
L 68.592638 48.333877 
L 68.648621 48.604567 
L 68.732597 48.354891 
L 68.657952 48.670636 
L 68.7637 48.543221 
L 68.872557 48.67129 
L 68.788581 48.252728 
L 68.875668 48.610993 
L 68.962754 48.0881 
L 68.881888 48.645007 
L 68.990746 48.330929 
L 69.04984 47.963019 
L 69.102714 48.607954 
L 69.105824 48.644665 
L 69.161808 48.024065 
L 69.168028 48.198933 
L 69.171138 48.05474 
L 69.242674 48.64412 
L 69.273776 48.414939 
L 69.301768 48.668931 
L 69.32976 48.109958 
L 69.388854 48.584006 
L 69.488381 47.988546 
L 69.519483 48.243219 
L 69.587908 48.676158 
L 69.61901 48.113908 
L 69.625231 48.139489 
L 69.702986 47.931029 
L 69.715427 48.513822 
L 69.734088 48.198288 
L 69.749639 48.655093 
L 69.777631 48.070484 
L 69.864718 48.477202 
L 69.973575 48.207407 
L 69.886489 48.628697 
L 69.976685 48.327965 
L 70.007788 48.625406 
L 70.042 47.98944 
L 70.085543 48.259406 
L 70.157078 48.121213 
L 70.125976 48.574884 
L 70.18196 48.355997 
L 70.194401 48.68135 
L 70.253495 47.916803 
L 70.281487 48.022166 
L 70.331251 48.642561 
L 70.309479 48.019255 
L 70.415226 48.269506 
L 70.424557 48.116403 
L 70.449439 48.674627 
L 70.514754 48.386131 
L 70.567627 48.70014 
L 70.558297 48.147679 
L 70.626721 48.624467 
L 70.710697 48.211426 
L 70.664044 48.652482 
L 70.738689 48.402139 
L 70.760461 48.675192 
L 70.813335 48.179765 
L 70.838216 48.234268 
L 70.8942 48.148981 
L 70.878649 48.64854 
L 70.915972 48.589241 
L 70.962625 48.669314 
L 71.009279 48.37693 
L 71.015499 48.493242 
L 71.121246 48.109004 
L 71.055932 48.670101 
L 71.127467 48.348475 
L 71.189671 48.696234 
L 71.1679 48.16364 
L 71.239435 48.503587 
L 71.248765 48.290618 
L 71.295419 48.685917 
L 71.348292 48.460976 
L 71.373174 48.684197 
L 71.435379 48.317849 
L 71.463371 48.629244 
L 71.494473 48.202878 
L 71.575339 48.572685 
L 71.581559 48.676287 
L 71.625102 48.103029 
L 71.681086 48.483752 
L 71.718409 48.396626 
L 71.73396 48.695484 
L 71.786834 48.49118 
L 71.799274 48.632302 
L 71.827266 48.13318 
L 71.898801 48.554617 
L 71.917463 48.68151 
L 71.920573 48.429632 
L 71.948565 48.43459 
L 71.957896 48.067817 
L 72.044982 48.688517 
L 72.054312 48.420379 
L 72.128958 48.690627 
L 72.150729 48.253068 
L 72.16628 48.468041 
L 72.219154 48.670771 
L 72.203603 48.334353 
L 72.240926 48.423478 
L 72.324902 48.295226 
L 72.278248 48.628178 
L 72.349783 48.371403 
L 72.44309 48.632366 
L 72.371555 48.105089 
L 72.461751 48.434465 
L 72.527066 48.627801 
L 72.474192 48.058443 
L 72.558168 48.401782 
L 72.573719 48.125748 
L 72.626593 48.683271 
L 72.663916 48.580287 
L 72.766553 48.656374 
L 72.754112 48.23735 
L 72.772773 48.565038 
L 72.791435 48.38453 
L 72.8723 48.661649 
L 72.878521 48.620256 
L 72.887851 48.664733 
L 72.922064 48.419694 
L 72.943835 48.491126 
L 73.00915 48.18937 
L 73.030922 48.640245 
L 73.052693 48.505052 
L 73.118008 48.650835 
L 73.096236 48.170137 
L 73.139779 48.258978 
L 73.142889 48.051975 
L 73.164661 48.67648 
L 73.245527 48.311127 
L 73.307731 48.690033 
L 73.363715 48.601881 
L 73.469463 48.080321 
L 73.391707 48.652813 
L 73.481903 48.331448 
L 73.522336 48.653949 
L 73.491234 48.157236 
L 73.593871 48.495662 
L 73.609422 48.653867 
L 73.70895 48.287632 
L 73.71206 48.27006 
L 73.755603 48.651202 
L 73.758713 48.582086 
L 73.761823 48.697716 
L 73.814697 48.26758 
L 73.867571 48.591795 
L 73.917334 48.006603 
L 73.942216 48.633822 
L 74.010641 48.265406 
L 74.063515 48.683907 
L 74.128829 48.484687 
L 74.181703 48.083206 
L 74.228356 48.614124 
L 74.243907 48.282092 
L 74.265679 48.655695 
L 74.299891 48.16616 
L 74.358985 48.435498 
L 74.439851 48.004742 
L 74.402529 48.660754 
L 74.464733 48.393108 
L 74.470953 48.686991 
L 74.492725 48.329935 
L 74.573591 48.510991 
L 74.617134 48.346776 
L 74.635795 48.637451 
L 74.682448 48.460096 
L 74.71044 48.68246 
L 74.753983 48.254015 
L 74.791306 48.419661 
L 74.85351 48.649392 
L 74.806857 48.225319 
L 74.887723 48.360518 
L 74.893943 48.216732 
L 74.937486 48.631659 
L 74.999691 48.266203 
L 75.018352 48.625527 
L 75.046344 47.960791 
L 75.108549 48.410302 
L 75.204965 47.839964 
L 75.139651 48.596635 
L 75.220516 48.330524 
L 75.223627 48.518861 
L 75.307603 48.049864 
L 75.326264 48.136782 
L 75.329374 48.128279 
L 75.344925 48.390076 
L 75.391579 48.640083 
L 75.40713 48.157558 
L 75.432011 48.239732 
L 75.447563 47.952126 
L 75.463114 48.665211 
L 75.534649 48.416414 
L 75.599963 48.682731 
L 75.55953 48.253628 
L 75.640396 48.341288 
L 75.643506 48.245018 
L 75.687049 48.687061 
L 75.739923 48.495334 
L 75.743033 48.670393 
L 75.786577 48.365595 
L 75.848781 48.457937 
L 75.914096 48.648146 
L 75.932757 48.102735 
L 75.966969 48.61418 
L 76.019843 48.674015 
L 76.038504 48.414425 
L 76.050945 48.518772 
L 76.075827 48.279724 
L 76.138031 48.608068 
L 76.162913 48.485389 
L 76.169134 48.664498 
L 76.26244 48.386055 
L 76.268661 48.395863 
L 76.312204 48.274636 
L 76.337085 48.61821 
L 76.374408 48.299026 
L 76.477045 48.676842 
L 76.489486 48.610795 
L 76.492596 48.322132 
L 76.592123 48.662528 
L 76.601454 48.445952 
L 76.626336 48.32223 
L 76.68854 48.700472 
L 76.710312 48.498016 
L 76.750745 48.657071 
L 76.806729 48.318613 
L 76.82539 48.592743 
L 76.834721 48.657386 
L 76.853382 48.313281 
L 76.924917 48.539469 
L 76.937358 48.136196 
L 76.96535 48.617183 
L 77.033775 48.399695 
L 77.099089 48.681947 
L 77.052436 48.285262 
L 77.142632 48.393042 
L 77.151963 48.4065 
L 77.158184 48.300982 
L 77.161294 48.118437 
L 77.179955 48.683022 
L 77.263931 48.526805 
L 77.341687 48.641035 
L 77.354127 48.16069 
L 77.375899 48.57371 
L 77.422552 48.102411 
L 77.38523 48.667688 
L 77.484757 48.541008 
L 77.494087 48.677012 
L 77.556292 48.165344 
L 77.578063 48.025515 
L 77.630937 48.639887 
L 77.655819 48.437854 
L 77.680701 48.564669 
L 77.67759 48.329875 
L 77.683811 48.536035 
L 77.686921 48.662224 
L 77.777117 48.368829 
L 77.789558 48.436509 
L 77.864203 48.248617 
L 77.81133 48.64174 
L 77.885975 48.467253 
L 77.991723 48.66483 
L 77.935739 48.204637 
L 77.997943 48.50658 
L 78.081919 48.190141 
L 78.050817 48.687515 
L 78.106801 48.439501 
L 78.206328 48.685674 
L 78.193887 48.292607 
L 78.221879 48.567992 
L 78.308965 48.084404 
L 78.284083 48.652073 
L 78.330737 48.439066 
L 78.368059 48.660936 
L 78.358728 48.369303 
L 78.439594 48.440661 
L 78.539121 48.249493 
L 78.480027 48.688867 
L 78.545342 48.509819 
L 78.635538 48.683335 
L 78.651089 48.414345 
L 78.65731 48.630644 
L 78.769278 48.171181 
L 78.691522 48.691517 
L 78.772388 48.224752 
L 78.822151 48.6981 
L 78.884356 48.471055 
L 78.94345 48.572077 
L 78.968332 48.300587 
L 78.980772 48.500464 
L 79.021205 48.657154 
L 79.09274 48.255893 
L 79.136283 48.65562 
L 79.201598 48.295439 
L 79.22648 48.056921 
L 79.291795 48.50471 
L 79.36333 48.658353 
L 79.347778 48.28241 
L 79.403762 48.589828 
L 79.503289 48.190648 
L 79.469077 48.63228 
L 79.51573 48.453902 
L 79.553053 48.680178 
L 79.571714 48.372877 
L 79.624588 48.509742 
L 79.736556 47.988929 
L 79.683682 48.659043 
L 79.745887 48.128613 
L 79.832973 48.679043 
L 79.860965 48.458671 
L 79.879626 48.551825 
L 79.882736 48.393053 
L 79.982263 48.642158 
L 79.966712 48.327397 
L 79.994704 48.485403 
L 80.091121 48.690428 
L 80.028917 48.210316 
L 80.103562 48.490641 
L 80.112893 48.342 
L 80.134664 48.560066 
L 80.153325 48.169446 
L 80.240412 48.609094 
L 80.277734 47.967057 
L 80.3586 48.299238 
L 80.395923 48.164622 
L 80.411474 48.572172 
L 80.430135 48.532484 
L 80.464347 48.683293 
L 80.492339 48.313192 
L 80.532772 48.506801 
L 80.566985 48.256249 
L 80.63852 48.670002 
L 80.64163 48.565486 
L 80.688283 48.70362 
L 80.657181 48.370312 
L 80.734937 48.499705 
L 80.741157 48.325437 
L 80.769149 48.677864 
L 80.843794 48.503497 
L 80.856235 48.621596 
L 80.871786 48.307267 
L 80.940211 48.434372 
L 81.030408 48.267015 
L 80.983754 48.666042 
L 81.045959 48.453149 
L 81.151706 48.687559 
L 81.06462 48.393266 
L 81.154816 48.634483 
L 81.223241 48.158448 
L 81.189029 48.676671 
L 81.263674 48.466183 
L 81.325878 48.64736 
L 81.35076 48.406349 
L 81.375642 48.523406 
L 81.496941 48.259927 
L 81.434736 48.703468 
L 81.500051 48.42952 
L 81.580916 48.704366 
L 81.615129 48.619385 
L 81.708435 48.295264 
L 81.730207 48.44594 
L 81.851506 48.15373 
L 81.758199 48.671646 
L 81.854616 48.244492 
L 81.947922 48.643827 
L 81.991466 48.447172 
L 82.000796 48.210944 
L 82.084772 48.692368 
L 82.100323 48.544137 
L 82.187409 48.313531 
L 82.215401 48.684568 
L 82.280716 48.293326 
L 82.327369 48.538108 
L 82.436227 48.677922 
L 82.408235 48.086182 
L 82.439337 48.579494 
L 82.461109 48.068739 
L 82.523313 48.686053 
L 82.551305 48.498123 
L 82.597958 48.656928 
L 82.641501 48.229899 
L 82.653942 48.296995 
L 82.681934 48.047958 
L 82.750359 48.657099 
L 82.75658 48.61193 
L 82.803233 48.368146 
L 82.828115 48.685892 
L 82.871658 48.583409 
L 82.90587 48.667616 
L 82.924532 48.234727 
L 82.983626 48.627335 
L 83.101814 48.253853 
L 83.055161 48.636981 
L 83.104924 48.261424 
L 83.120475 48.682415 
L 83.170239 48.05502 
L 83.216892 48.529589 
L 83.32264 48.284717 
L 83.251105 48.654841 
L 83.32886 48.435518 
L 83.363073 48.62827 
L 83.397285 48.154925 
L 83.437718 48.518339 
L 83.443938 48.349079 
L 83.512363 48.651292 
L 83.546576 48.54167 
L 83.559016 48.584045 
L 83.552796 48.494281 
L 83.565237 48.505502 
L 83.61189 48.291691 
L 83.646103 48.588829 
L 83.677205 48.350231 
L 83.683425 48.695199 
L 83.74563 48.306413 
L 83.786062 48.508172 
L 83.863818 48.19571 
L 83.8887 48.65528 
L 83.89181 48.651115 
L 83.963345 48.302072 
L 84.013109 48.465261 
L 84.019329 48.639946 
L 84.059762 48.17255 
L 84.121966 48.537176 
L 84.156179 48.235757 
L 84.224604 48.632101 
L 84.227714 48.61903 
L 84.230824 48.6263 
L 84.237044 48.517697 
L 84.246375 48.523375 
L 84.286808 48.198616 
L 84.330351 48.629404 
L 84.358343 48.360042 
L 84.420547 48.226073 
L 84.373894 48.411487 
L 84.429878 48.398934 
L 84.476531 48.657308 
L 84.516964 48.22311 
L 84.538736 48.399766 
L 84.548066 48.48236 
L 84.563617 48.656473 
L 84.625822 48.287271 
L 84.663145 48.627121 
L 84.703577 48.320135 
L 84.722239 48.682691 
L 84.768892 48.604643 
L 84.772002 48.693864 
L 84.796884 48.337973 
L 84.871529 48.382199 
L 84.874639 48.169199 
L 84.927513 48.654394 
L 84.977277 48.654188 
L 85.008379 48.29077 
L 85.073694 48.688704 
L 85.092355 48.371294 
L 85.176331 48.692646 
L 85.126567 48.216894 
L 85.207433 48.458834 
L 85.213653 48.286922 
L 85.241645 48.671802 
L 85.313181 48.530991 
L 85.331842 48.692847 
L 85.387826 48.338274 
L 85.412708 48.444432 
L 85.459361 48.173809 
L 85.499794 48.62887 
L 85.524675 48.247154 
L 85.633533 48.668035 
L 85.558888 48.075932 
L 85.642864 48.629353 
L 85.754832 48.231469 
L 85.764162 48.384472 
L 85.87302 48.642581 
L 85.851249 48.256732 
L 85.879241 48.492788 
L 85.885461 48.388223 
L 85.975657 48.684929 
L 85.988098 48.521305 
L 85.994319 48.703733 
L 86.078295 48.280191 
L 86.100066 48.662263 
L 86.15605 48.32415 
L 86.212034 48.57476 
L 86.2929 48.353941 
L 86.227585 48.68685 
L 86.327112 48.390209 
L 86.404868 48.683887 
L 86.336443 48.335128 
L 86.43908 48.570303 
L 86.44219 48.380074 
L 86.547938 48.655259 
L 86.625693 48.476588 
L 86.58215 48.668499 
L 86.663016 48.549778 
L 86.762543 48.664351 
L 86.681677 48.436145 
L 86.771874 48.550184 
L 86.871401 48.665679 
L 86.809196 48.305294 
L 86.880731 48.624355 
L 86.949156 48.291078 
L 86.992699 48.444477 
L 87.036242 48.700542 
L 87.070455 48.261784 
L 87.110888 48.612816 
L 87.191753 48.289994 
L 87.204194 48.64226 
L 87.222856 48.558235 
L 87.28195 48.30045 
L 87.309942 48.657546 
L 87.331713 48.472995 
L 87.356595 48.667979 
L 87.403248 48.360196 
L 87.443681 48.561668 
L 87.468563 48.600825 
L 87.453012 48.326257 
L 87.518327 48.398911 
L 87.617854 48.296329 
L 87.586751 48.674772 
L 87.620964 48.499918 
L 87.720491 48.67247 
L 87.692499 48.312637 
L 87.729822 48.402501 
L 87.732932 48.207071 
L 87.751593 48.567615 
L 87.838679 48.412019 
L 87.84801 48.644392 
L 87.922655 48.178683 
L 87.950647 48.484688 
L 87.975529 48.297687 
L 88.037733 48.647564 
L 88.043954 48.609336 
L 88.099938 48.643664 
L 88.075056 48.394771 
L 88.13104 48.479667 
L 88.152811 48.27537 
L 88.183914 48.682326 
L 88.243008 48.461463 
L 88.314543 48.121431 
L 88.26789 48.654755 
L 88.342535 48.469631 
L 88.345645 48.648394 
L 88.364306 48.198525 
L 88.448282 48.383647 
L 88.457613 48.194643 
L 88.476274 48.69475 
L 88.55714 48.357595 
L 88.641116 48.679992 
L 88.569581 48.252214 
L 88.675328 48.571171 
L 88.718871 48.178988 
L 88.759304 48.677894 
L 88.787296 48.508207 
L 88.84328 48.261435 
L 88.899264 48.659429 
L 89.023673 48.247505 
L 88.933477 48.691518 
L 89.026783 48.445799 
L 89.12009 48.684748 
L 89.138751 48.540923 
L 89.197845 48.26189 
L 89.160523 48.607879 
L 89.253829 48.421342 
L 89.275601 48.665678 
L 89.319144 48.312833 
L 89.365797 48.612728 
L 89.415561 48.292325 
L 89.40312 48.648818 
L 89.477765 48.557077 
L 89.580402 48.675675 
L 89.505757 48.302494 
L 89.586623 48.623718 
L 89.68615 48.254426 
L 89.639497 48.657922 
L 89.707921 48.363704 
L 89.785677 48.655453 
L 89.813669 48.190457 
L 89.857212 48.670084 
L 89.934968 48.412017 
L 90.022054 48.659728 
L 90.012723 48.293802 
L 90.034495 48.48092 
L 90.140242 48.330545 
L 90.127801 48.678188 
L 90.146462 48.412285 
L 90.149573 48.398492 
L 90.162014 48.660735 
L 90.199336 48.620429 
L 90.202446 48.679876 
L 90.25843 48.340275 
L 90.298863 48.427106 
L 90.361068 48.366892 
L 90.354847 48.65089 
L 90.39528 48.471086 
L 90.441933 48.689804 
L 90.466815 48.296838 
L 90.507248 48.556319 
L 90.522799 48.309793 
L 90.566342 48.687037 
L 90.625436 48.420268 
L 90.718743 48.670998 
L 90.728074 48.396016 
L 90.731184 48.515454 
L 90.830711 48.042909 
L 90.808939 48.647722 
L 90.843152 48.341747 
L 90.973781 48.667377 
L 90.858703 48.257425 
L 90.976891 48.566572 
L 90.986222 48.082935 
L 91.014214 48.666568 
L 91.085749 48.638472 
L 91.1013 48.229548 
L 91.154174 48.671638 
L 91.23504 48.432376 
L 91.294134 48.343884 
L 91.350118 48.669548 
L 91.38433 48.12857 
L 91.430983 48.69893 
L 91.465196 48.548674 
L 91.561613 48.674137 
L 91.496298 48.380772 
L 91.583384 48.571452 
L 91.608266 48.268528 
L 91.682911 48.695449 
L 91.695352 48.539533 
L 91.766887 48.694805 
L 91.710903 48.285143 
L 91.80421 48.515295 
L 91.832202 48.676681 
L 91.872635 48.343429 
L 91.900627 48.504369 
L 91.903737 48.321872 
L 91.969051 48.688116 
L 92.012595 48.402269 
L 92.09346 48.680801 
L 92.124562 48.519301 
L 92.127673 48.378517 
L 92.205428 48.680429 
L 92.23342 48.552249 
L 92.258302 48.656098 
L 92.242751 48.470825 
L 92.329837 48.564407 
L 92.410703 48.252811 
L 92.382711 48.688036 
L 92.438695 48.532993 
L 92.454246 48.655031 
L 92.497789 48.31001 
L 92.550663 48.585686 
L 92.647079 48.206308 
L 92.625308 48.647886 
L 92.678182 48.425734 
L 92.731055 48.692108 
L 92.768378 48.217519 
L 92.79015 48.6887 
L 92.849244 48.463562 
L 92.902117 48.638894 
L 92.948771 48.319963 
L 92.989204 48.685996 
L 93.014085 48.555869 
L 93.08562 48.698702 
L 93.101172 48.375334 
L 93.122943 48.612577 
L 93.22558 48.387484 
L 93.147825 48.689844 
L 93.231801 48.63048 
L 93.234911 48.629326 
L 93.337548 48.35037 
L 93.312666 48.691392 
L 93.349989 48.43976 
L 93.437075 48.684508 
L 93.409083 48.344476 
L 93.461957 48.514508 
L 93.471288 48.600754 
L 93.474398 48.479631 
L 93.539713 48.342894 
L 93.483729 48.656244 
L 93.580145 48.65116 
L 93.676562 48.273115 
L 93.698334 48.454476 
L 93.794751 48.682654 
L 93.741877 48.215192 
L 93.807191 48.548479 
L 93.860065 48.114434 
L 93.838294 48.660889 
L 93.92227 48.372584 
L 93.996915 48.621231 
L 93.978254 48.245749 
L 94.021797 48.363084 
L 94.099552 48.215552 
L 94.108883 48.59793 
L 94.127544 48.529439 
L 94.174197 48.686146 
L 94.195969 48.436836 
L 94.21152 48.480373 
L 94.21463 48.317918 
L 94.317268 48.699537 
L 94.323488 48.414244 
L 94.388803 48.691443 
L 94.35148 48.257425 
L 94.432346 48.402235 
L 94.435456 48.328665 
L 94.444787 48.701385 
L 94.538093 48.521585 
L 94.572306 48.675379 
L 94.622069 48.391157 
L 94.653171 48.604409 
L 94.665612 48.321997 
L 94.702935 48.340493 
" clip-path="url(#p551961c81c)" style="fill: none; stroke: #7f7f7f; stroke-width: 0.5; stroke-linecap: square"/>
   </g>
  </g>
 </g>
 <defs>
  <clipPath id="p551961c81c">
   <rect x="0" y="-0" width="99.212598" height="51.023622"/>
  </clipPath>
 </defs>
</svg>
