<?xml version="1.0" encoding="utf-8" standalone="no"?>
<!DOCTYPE svg PUBLIC "-//W3C//DTD SVG 1.1//EN"
  "http://www.w3.org/Graphics/SVG/1.1/DTD/svg11.dtd">
<svg xmlns:xlink="http://www.w3.org/1999/xlink" width="99.212598pt" height="51.023622pt" viewBox="0 0 99.212598 51.023622" xmlns="http://www.w3.org/2000/svg" version="1.1">
 <metadata>
  <rdf:RDF xmlns:dc="http://purl.org/dc/elements/1.1/" xmlns:cc="http://creativecommons.org/ns#" xmlns:rdf="http://www.w3.org/1999/02/22-rdf-syntax-ns#">
   <cc:Work>
    <dc:type rdf:resource="http://purl.org/dc/dcmitype/StillImage"/>
    <dc:date>2024-10-30T10:51:16.409249</dc:date>
    <dc:format>image/svg+xml</dc:format>
    <dc:creator>
     <cc:Agent>
      <dc:title>Matplotlib v3.8.4, https://matplotlib.org/</dc:title>
     </cc:Agent>
    </dc:creator>
   </cc:Work>
  </rdf:RDF>
 </metadata>
 <defs>
  <style type="text/css">*{stroke-linejoin: round; stroke-linecap: butt}</style>
 </defs>
 <g id="figure_1">
  <g id="patch_1">
   <path d="M 0 51.023622 
L 99.212598 51.023622 
L 99.212598 0 
L 0 0 
L 0 51.023622 
z
" style="fill: none"/>
  </g>
  <g id="axes_1">
   <g id="patch_2">
    <path d="M 0 51.023622 
L 99.212598 51.023622 
L 99.212598 -0 
L 0 -0 
L 0 51.023622 
z
" style="fill: none"/>
   </g>
   <g id="matplotlib.axis_1">
    <g id="xtick_1"/>
    <g id="xtick_2"/>
   </g>
   <g id="matplotlib.axis_2">
    <g id="ytick_1"/>
    <g id="ytick_2"/>
   </g>
   <g id="line2d_1">
    <path d="M 4.509664 10.459811 
L 4.515884 10.827433 
L 4.534545 8.352623 
L 4.556317 7.592041 
L 4.581199 10.724629 
L 4.652734 38.242131 
L 4.721159 16.534976 
L 4.929543 41.31074 
L 4.982417 34.146415 
L 5.004189 33.044303 
L 5.063283 36.499682 
L 5.200132 44.587822 
L 5.215684 46.799419 
L 5.287219 42.833682 
L 5.364974 2.319256 
L 5.433399 24.208911 
L 5.598241 45.642116 
L 5.638673 47.923606 
L 5.694657 45.24802 
L 5.710209 45.024256 
L 5.750641 47.496867 
L 5.822176 45.82741 
L 5.862609 41.061532 
L 5.931034 46.029056 
L 5.983908 47.912643 
L 6.030561 44.086282 
L 6.043002 43.58917 
L 6.083435 45.80068 
L 6.167411 47.682833 
L 6.126978 44.164804 
L 6.214064 46.928032 
L 6.266938 43.52222 
L 6.29493 41.942583 
L 6.326032 45.186965 
L 6.366465 44.281923 
L 6.465992 46.71619 
L 6.425559 39.676513 
L 6.478433 45.159719 
L 6.500204 43.639635 
L 6.540637 46.827076 
L 6.57796 46.554615 
L 6.587291 47.484123 
L 6.624613 42.271173 
L 6.680597 46.032096 
L 6.72414 42.92854 
L 6.767683 46.298749 
L 6.817447 43.69136 
L 6.963627 47.836811 
L 6.901423 42.676973 
L 6.982289 47.34119 
L 7.075595 45.112579 
L 7.041383 47.811766 
L 7.103587 46.455747 
L 7.221775 48.229002 
L 7.131579 46.219771 
L 7.224886 47.702835 
L 7.377286 41.539466 
L 7.28709 48.496608 
L 7.399058 42.381493 
L 7.439491 48.181416 
L 7.585671 47.21394 
L 7.619884 46.565524 
L 7.666537 47.913017 
L 7.70386 46.853532 
L 7.70697 46.84186 
L 7.71008 47.005528 
L 7.784725 48.640407 
L 7.815827 46.820042 
L 7.834489 46.613197 
L 7.871811 48.485952 
L 7.896693 47.447841 
L 7.906024 48.467907 
L 7.99622 46.055603 
L 8.067755 48.331354 
L 8.002441 46.003571 
L 8.151731 47.818003 
L 8.245038 42.186003 
L 8.27925 45.663829 
L 8.291691 46.311518 
L 8.347675 43.946746 
L 8.378777 45.352137 
L 8.403659 42.85209 
L 8.484525 45.607748 
L 8.612044 48.467624 
L 8.500076 45.567659 
L 8.621374 47.966586 
L 8.70535 46.313746 
L 8.742673 46.916073 
L 8.832869 47.950022 
L 8.811098 46.779174 
L 8.860861 47.721326 
L 8.938617 46.614019 
L 8.901294 48.466911 
L 8.969719 47.807255 
L 8.98527 48.142055 
L 9.044364 46.73269 
L 9.047475 46.591991 
L 9.084797 48.655946 
L 9.147002 46.903184 
L 9.162553 47.415732 
L 9.218537 44.105445 
L 9.224757 44.111358 
L 9.246529 41.856921 
L 9.305623 48.087564 
L 9.330505 44.661653 
L 9.336725 44.405006 
L 9.355386 45.608251 
L 9.473575 48.645798 
L 9.414481 45.09135 
L 9.479795 47.961383 
L 9.532669 46.584875 
L 9.557551 48.453577 
L 9.594873 47.504152 
L 9.719282 48.598647 
L 9.632196 45.729153 
L 9.731723 48.34916 
L 9.809479 46.50859 
L 9.778376 48.631744 
L 9.859242 46.974048 
L 9.983651 48.658499 
L 9.992982 48.314393 
L 10.139162 46.027339 
L 10.017863 48.609432 
L 10.148493 46.276051 
L 10.207587 48.303327 
L 10.154713 46.235577 
L 10.272901 47.576458 
L 10.412861 43.569028 
L 10.447074 45.137557 
L 10.54349 48.669837 
L 10.496837 44.981695 
L 10.577703 48.00235 
L 10.608805 48.393306 
L 10.667899 47.173762 
L 10.692781 46.825698 
L 10.739434 48.416843 
L 10.742545 48.503596 
L 10.773647 46.94869 
L 10.807859 47.4634 
L 10.860733 46.055251 
L 10.891835 48.375805 
L 10.910496 47.917048 
L 10.96026 48.431935 
L 10.985142 46.394708 
L 10.997583 46.799683 
L 11.059787 46.190097 
L 11.038015 47.907726 
L 11.075338 46.776273 
L 11.146873 48.538903 
L 11.187306 47.292605 
L 11.190416 47.046203 
L 11.221518 48.544188 
L 11.286833 48.035518 
L 11.293053 48.365756 
L 11.324156 46.174915 
L 11.370809 46.363174 
L 11.398801 44.532308 
L 11.467226 48.008596 
L 11.473446 48.419332 
L 11.557422 46.186563 
L 11.563643 45.730579 
L 11.628957 47.762182 
L 11.66317 46.350238 
L 11.681831 48.443289 
L 11.80624 48.012377 
L 11.893326 47.36783 
L 11.846673 48.354778 
L 11.911987 48.005986 
L 11.918208 48.576171 
L 12.005294 47.247041 
L 12.020845 47.86265 
L 12.107931 48.594726 
L 12.045727 47.526862 
L 12.126592 47.611826 
L 12.188797 48.507838 
L 12.204348 47.078838 
L 12.207458 46.922209 
L 12.22923 48.492108 
L 12.285214 48.236264 
L 12.291434 48.596229 
L 12.306985 47.618966 
L 12.394071 48.158676 
L 12.422063 48.549374 
L 12.434504 47.509237 
L 12.493598 47.863725 
L 12.530921 46.143208 
L 12.608677 47.188939 
L 12.614897 47.555154 
L 12.698873 45.106941 
L 12.739306 44.620305 
L 12.770408 46.101636 
L 12.885486 48.427432 
L 12.813951 44.280348 
L 12.901037 48.260085 
L 13.016115 46.309515 
L 12.972572 48.551317 
L 13.025446 46.442354 
L 13.028556 46.24426 
L 13.072099 48.612091 
L 13.112532 47.830809 
L 13.121863 47.622082 
L 13.134304 47.982409 
L 13.137414 48.340534 
L 13.184067 47.271168 
L 13.243161 48.198039 
L 13.339578 45.808286 
L 13.249382 48.474706 
L 13.37068 46.883275 
L 13.457767 48.631601 
L 13.482648 46.952185 
L 13.529302 46.5893 
L 13.560404 48.306037 
L 13.575955 47.932231 
L 13.628829 48.679875 
L 13.659931 47.182132 
L 13.691033 48.213885 
L 13.78434 46.513245 
L 13.803001 47.678057 
L 13.880757 48.644083 
L 13.834103 47.208189 
L 13.914969 47.858235 
L 14.042488 45.888309 
L 14.017606 48.286909 
L 14.045598 45.963602 
L 14.179338 48.364781 
L 14.182448 48.311436 
L 14.201109 47.190352 
L 14.222881 48.437162 
L 14.294416 47.995568 
L 14.297526 47.997644 
L 14.378392 48.452117 
L 14.334849 46.665855 
L 14.406384 47.972932 
L 14.527682 47.004548 
L 14.465478 48.557448 
L 14.537013 47.411963 
L 14.580556 48.6492 
L 14.648981 47.976931 
L 14.670752 48.50175 
L 14.711185 47.771807 
L 14.754728 47.808907 
L 14.764059 47.587163 
L 14.829374 48.525207 
L 14.857366 47.986082 
L 14.900909 48.608314 
L 14.91957 46.952224 
L 14.941342 47.337406 
L 14.981774 46.602925 
L 15.022207 48.512471 
L 15.05331 47.178192 
L 15.165277 46.804876 
L 15.06575 47.544854 
L 15.174608 47.098743 
L 15.187049 48.427953 
L 15.221261 45.843335 
L 15.283466 46.719897 
L 15.308348 46.1843 
L 15.330119 47.308145 
L 15.420316 48.50839 
L 15.395434 46.35129 
L 15.429646 47.256505 
L 15.48252 46.13145 
L 15.532283 47.632594 
L 15.535394 47.605135 
L 15.560275 46.665589 
L 15.588267 47.673515 
L 15.644251 47.390578 
L 15.756219 48.571903 
L 15.700235 47.089016 
L 15.759329 48.4137 
L 15.865077 47.553664 
L 15.802873 48.571794 
L 15.874408 47.855224 
L 15.989486 48.608171 
L 15.936612 46.993489 
L 15.992596 48.4084 
L 16.085903 46.713257 
L 16.014368 48.446494 
L 16.110784 48.089727 
L 16.19165 48.632357 
L 16.138776 46.990821 
L 16.213422 47.939862 
L 16.244524 47.090045 
L 16.303618 48.597706 
L 16.322279 48.135563 
L 16.344051 48.605162 
L 16.406255 47.244594 
L 16.505782 45.973865 
L 16.452909 48.107811 
L 16.518223 46.941948 
L 16.546215 48.428664 
L 16.577317 46.534548 
L 16.627081 46.760051 
L 16.651963 46.278196 
L 16.664404 46.982 
L 16.735939 48.574215 
L 16.779482 48.294065 
L 16.813694 46.470927 
L 16.885229 48.632393 
L 16.922552 47.549245 
L 17.018969 48.341014 
L 17.059401 48.60881 
L 17.04074 47.810568 
L 17.112275 48.220564 
L 17.165149 47.708731 
L 17.137157 48.637714 
L 17.221133 48.341504 
L 17.31444 47.123629 
L 17.289558 48.456999 
L 17.339321 48.043833 
L 17.423297 48.539221 
L 17.373534 47.605171 
L 17.451289 48.279162 
L 17.454399 48.282876 
L 17.46062 48.551572 
L 17.525934 46.900529 
L 17.553926 47.536768 
L 17.557037 47.224997 
L 17.60369 48.660085 
L 17.656564 48.091869 
L 17.662784 48.201669 
L 17.675225 47.846045 
L 17.777862 47.402554 
L 17.737429 48.414643 
L 17.787193 47.694539 
L 17.830736 48.4604 
L 17.846287 47.562652 
L 17.88672 48.018294 
L 18.001798 46.676309 
L 17.967586 48.49333 
L 18.004908 46.754403 
L 18.110656 48.065521 
L 18.036011 46.233031 
L 18.116876 47.040839 
L 18.144868 48.449734 
L 18.129317 46.591737 
L 18.197742 46.739538 
L 18.203962 46.109149 
L 18.269277 48.107456 
L 18.300379 47.307386 
L 18.384355 48.646172 
L 18.412347 47.599622 
L 18.421678 47.38987 
L 18.44656 48.58078 
L 18.508764 48.392161 
L 18.511874 48.59663 
L 18.561638 47.516127 
L 18.611401 48.118838 
L 18.723369 47.731276 
L 18.651834 48.561088 
L 18.726479 47.866463 
L 18.841558 48.533593 
L 18.782463 47.637408 
L 18.844668 48.186199 
L 18.857109 47.420935 
L 18.937974 48.630182 
L 18.953525 48.109448 
L 18.981517 48.641735 
L 19.006399 47.771382 
L 19.028171 47.880589 
L 19.065493 47.365171 
L 19.093485 48.465855 
L 19.115257 48.288986 
L 19.140139 48.596716 
L 19.189902 47.631428 
L 19.193012 47.429804 
L 19.276988 48.621062 
L 19.289429 48.363222 
L 19.317421 47.367749 
L 19.373405 48.533331 
L 19.413838 47.664244 
L 19.44183 46.756749 
L 19.494704 48.359732 
L 19.497814 48.327161 
L 19.572459 48.652108 
L 19.532026 47.019304 
L 19.609782 48.469453 
L 19.696868 47.243145 
L 19.72175 48.12802 
L 19.743521 48.567766 
L 19.818167 47.596542 
L 19.830608 48.239306 
L 19.911473 47.421454 
L 19.886592 48.577067 
L 19.945686 47.710009 
L 19.973678 48.628086 
L 20.011 47.596181 
L 20.060764 48.159062 
L 20.066984 47.434241 
L 20.088756 48.54405 
L 20.172732 47.981483 
L 20.266038 48.613174 
L 20.200724 47.936605 
L 20.28781 48.323022 
L 20.29403 48.590914 
L 20.393557 48.097153 
L 20.399778 48.420302 
L 20.415329 48.704366 
L 20.421549 48.109163 
L 20.452652 48.120223 
L 20.455762 47.73299 
L 20.545958 48.560993 
L 20.561509 48.290307 
L 20.56773 48.53028 
L 20.648595 47.726367 
L 20.670367 47.192458 
L 20.723241 48.620695 
L 20.754343 47.999511 
L 20.800996 48.601896 
L 20.85076 47.630414 
L 20.869421 48.57041 
L 20.968948 47.33925 
L 20.987609 47.757681 
L 21.062255 48.084134 
L 21.015601 46.517262 
L 21.084026 47.368502 
L 21.087136 47.317894 
L 21.13379 48.30919 
L 21.1369 48.338406 
L 21.155561 47.608695 
L 21.174223 48.034176 
L 21.202215 46.447924 
L 21.27375 48.505161 
L 21.286191 47.666062 
L 21.348395 48.569934 
L 21.367056 47.501149 
L 21.379497 47.077175 
L 21.407489 48.579895 
L 21.457253 48.512121 
L 21.460363 48.592915 
L 21.479024 47.781232 
L 21.535008 47.846613 
L 21.55989 47.034248 
L 21.609653 48.621899 
L 21.637645 48.360186 
L 21.653196 47.967182 
L 21.643866 48.363836 
L 21.656307 48.016837 
L 21.659417 47.601696 
L 21.69674 48.638037 
L 21.765164 48.099076 
L 21.84914 48.656547 
L 21.780716 47.82241 
L 21.870912 47.967915 
L 21.976659 47.488408 
L 21.920675 48.516147 
L 21.98599 47.64975 
L 22.007762 48.626885 
L 21.99221 47.415599 
L 22.113509 48.012587 
L 22.12284 48.090844 
L 22.138391 47.393548 
L 22.141501 47.421534 
L 22.150832 47.112151 
L 22.200595 48.354199 
L 22.219257 48.245642 
L 22.222367 48.540439 
L 22.256579 47.54703 
L 22.328114 48.337706 
L 22.427641 47.309502 
L 22.440082 47.719586 
L 22.55205 48.696042 
L 22.505397 47.421303 
L 22.558271 48.636147 
L 22.583152 47.673728 
L 22.676459 47.968563 
L 22.701341 47.143855 
L 22.729333 48.417516 
L 22.779096 48.28751 
L 22.785317 48.654 
L 22.813309 47.526558 
L 22.825749 47.349475 
L 22.847521 48.347742 
L 22.900395 47.805755 
L 22.950158 48.656465 
L 22.987481 47.618239 
L 23.021693 48.410779 
L 23.083898 47.727412 
L 23.043465 48.630857 
L 23.133661 48.320692 
L 23.139882 48.157573 
L 23.186535 48.680541 
L 23.242519 48.184256 
L 23.248739 48.670669 
L 23.335826 47.639688 
L 23.357597 48.494356 
L 23.360707 48.633803 
L 23.438463 47.832713 
L 23.460234 48.168886 
L 23.469565 47.857263 
L 23.565982 48.590593 
L 23.609525 47.705682 
L 23.68728 48.166707 
L 23.705942 48.659223 
L 23.755705 48.031426 
L 23.799248 48.291622 
L 23.814799 47.772509 
L 23.861453 48.552468 
L 23.911216 48.042771 
L 23.917437 48.003426 
L 23.929878 48.676929 
L 24.026294 48.360446 
L 24.138262 47.079895 
L 24.088499 48.597187 
L 24.144483 47.273962 
L 24.24712 48.356513 
L 24.262671 47.695129 
L 24.284443 47.022488 
L 24.321765 48.521181 
L 24.355978 48.13193 
L 24.439954 48.560217 
L 24.405741 47.191423 
L 24.452395 47.789781 
L 24.464835 47.44919 
L 24.53637 48.502208 
L 24.551922 48.181659 
L 24.617236 48.524291 
L 24.642118 47.436861 
L 24.67011 47.94513 
L 24.657669 47.266825 
L 24.67633 47.910496 
L 24.719873 48.669353 
L 24.698102 47.382969 
L 24.800739 48.55756 
L 24.887825 48.004164 
L 24.81007 48.65381 
L 24.915817 48.339114 
L 24.922038 48.57683 
L 24.95625 47.815263 
L 25.021565 48.404134 
L 25.034006 47.857625 
L 25.071328 48.650701 
L 25.130423 48.341327 
L 25.158414 48.668904 
L 25.192627 47.842698 
L 25.24239 48.457352 
L 25.335697 47.376675 
L 25.292154 48.67912 
L 25.37302 47.774926 
L 25.401012 48.449931 
L 25.466326 47.24134 
L 25.469436 47.116005 
L 25.51609 48.372423 
L 25.556523 48.02429 
L 25.559633 48.493617 
L 25.609396 47.146267 
L 25.66538 48.201361 
L 25.79601 47.048133 
L 25.736915 48.484671 
L 25.811561 47.304457 
L 25.920418 48.589505 
L 25.926639 48.182501 
L 25.932859 47.688857 
L 25.967072 48.632762 
L 26.035497 47.962701 
L 26.110142 48.506836 
L 26.138134 47.649716 
L 26.141244 47.380267 
L 26.184787 48.471395 
L 26.240771 48.164349 
L 26.250102 48.523413 
L 26.278094 47.807954 
L 26.352739 48.286501 
L 26.374511 48.600179 
L 26.442935 48.064691 
L 26.461597 48.315475 
L 26.474038 47.873047 
L 26.51447 48.611222 
L 26.567344 48.39095 
L 26.570454 48.671586 
L 26.657541 47.761049 
L 26.676202 48.378877 
L 26.722855 48.621364 
L 26.79128 47.864178 
L 26.872146 48.695661 
L 26.909468 48.457445 
L 26.968563 48.05175 
L 26.921909 48.681477 
L 27.005885 48.533633 
L 27.008995 48.646158 
L 27.06809 47.625961 
L 27.105412 48.151163 
L 27.139625 47.488101 
L 27.114743 48.51214 
L 27.22049 47.825782 
L 27.254703 48.452684 
L 27.229821 47.73668 
L 27.310687 47.759688 
L 27.323128 47.235281 
L 27.35112 48.641384 
L 27.416434 48.010204 
L 27.519072 48.543847 
L 27.49108 47.608754 
L 27.528402 48.079731 
L 27.578166 47.912469 
L 27.547063 48.518792 
L 27.593717 48.507544 
L 27.599937 48.617836 
L 27.659031 47.359457 
L 27.662142 47.456284 
L 27.665252 47.285903 
L 27.696354 48.471668 
L 27.764779 47.816288 
L 27.864306 48.615135 
L 27.873637 47.875185 
L 27.879857 47.300153 
L 27.935841 48.571786 
L 27.982494 47.917069 
L 27.998045 47.722849 
L 28.100683 48.599856 
L 28.190879 47.875897 
L 28.215761 48.352578 
L 28.240643 48.486084 
L 28.249973 48.007003 
L 28.253083 48.172207 
L 28.271745 47.75152 
L 28.312178 48.569966 
L 28.358831 48.412845 
L 28.433476 47.296117 
L 28.374382 48.661199 
L 28.48635 48.049291 
L 28.570326 48.693618 
L 28.545444 48.038937 
L 28.607649 48.222489 
L 28.641861 48.067773 
L 28.691624 48.645182 
L 28.716506 48.228517 
L 28.760049 48.416803 
L 28.76627 47.737327 
L 28.800482 47.865176 
L 28.803592 47.857044 
L 28.806703 48.058343 
L 28.903119 48.500441 
L 28.822254 47.777587 
L 28.921781 48.275354 
L 29.008867 48.040778 
L 28.965324 48.571961 
L 29.021308 48.466947 
L 29.024418 48.596398 
L 29.092843 47.113134 
L 29.120835 48.297833 
L 29.19859 47.4221 
L 29.151937 48.617911 
L 29.232803 48.183862 
L 29.235913 48.459706 
L 29.267015 47.089317 
L 29.33855 48.151492 
L 29.344771 47.849364 
L 29.388314 48.544415 
L 29.447408 48.256767 
L 29.543825 48.619003 
L 29.490951 47.732493 
L 29.556266 48.574417 
L 29.599809 47.756761 
L 29.668234 48.302676 
L 29.742879 48.164454 
L 29.75843 48.662623 
L 29.76154 48.516156 
L 29.76465 48.630879 
L 29.854847 48.070626 
L 29.857957 48.211339 
L 29.873508 47.571228 
L 29.938823 48.645389 
L 29.976145 47.644823 
L 29.982366 47.557287 
L 30.04457 48.553634 
L 30.057011 48.618125 
L 30.106775 47.81969 
L 30.144097 48.391162 
L 30.209412 47.780643 
L 30.165869 48.593576 
L 30.237404 48.462615 
L 30.296498 48.649591 
L 30.315159 47.960245 
L 30.346262 48.563306 
L 30.361813 48.060373 
L 30.436458 48.612029 
L 30.458229 48.34657 
L 30.535985 48.649745 
L 30.517324 48.028124 
L 30.570197 48.450296 
L 30.685276 47.632318 
L 30.654173 48.677688 
L 30.691496 47.740329 
L 30.756811 48.641728 
L 30.803464 48.03681 
L 30.812795 47.668586 
L 30.859448 48.601544 
L 30.906101 48.490192 
L 30.974526 48.650012 
L 30.993187 48.074758 
L 31.039841 47.759666 
L 31.080273 48.539714 
L 31.089604 48.535369 
L 31.158029 47.865642 
L 31.238895 47.954695 
L 31.266887 48.519571 
L 31.31043 47.688076 
L 31.353973 48.445536 
L 31.434839 47.439724 
L 31.375744 48.548404 
L 31.462831 48.403484 
L 31.512594 48.546543 
L 31.534366 47.458026 
L 31.543696 47.832895 
L 31.546806 47.607864 
L 31.640113 48.548254 
L 31.646334 48.241631 
L 31.702317 48.638792 
L 31.652554 48.096898 
L 31.752081 48.431519 
L 31.761412 48.082887 
L 31.820506 48.636716 
L 31.860939 48.537712 
L 31.941804 48.173431 
L 31.867159 48.61716 
L 31.969796 48.309729 
L 32.007119 48.650081 
L 32.028891 47.751105 
L 32.078654 48.478479 
L 32.137748 48.668144 
L 32.193732 48.107565 
L 32.274598 48.597931 
L 32.240386 48.041578 
L 32.311921 48.476155 
L 32.333692 47.850398 
L 32.352353 48.649974 
L 32.420778 48.376482 
L 32.430109 48.632213 
L 32.454991 47.966361 
L 32.526526 48.194781 
L 32.557628 47.65799 
L 32.58873 48.67981 
L 32.641604 47.809773 
L 32.654045 48.083847 
L 32.666486 48.59411 
L 32.762903 48.10184 
L 32.787784 47.640176 
L 32.797115 48.333622 
L 32.803335 48.26619 
L 32.846878 48.660569 
L 32.884201 47.732095 
L 32.912193 48.318668 
L 33.021051 47.859113 
L 32.968177 48.65242 
L 33.024161 47.993143 
L 33.108137 48.618209 
L 33.086365 47.766007 
L 33.142349 48.494015 
L 33.176562 47.683573 
L 33.229436 48.561841 
L 33.235656 48.412111 
L 33.276089 48.688214 
L 33.29475 47.660956 
L 33.344514 48.227595 
L 33.450261 47.6819 
L 33.397387 48.661371 
L 33.459592 47.774037 
L 33.556009 48.604207 
L 33.534237 47.709944 
L 33.57467 48.545435 
L 33.599552 47.981617 
L 33.643095 48.658096 
L 33.686638 48.110954 
L 33.795496 48.66017 
L 33.801716 48.529311 
L 33.832818 47.9827 
L 33.907463 48.677397 
L 33.910574 48.612648 
L 33.923015 48.67058 
L 34.034983 48.113078 
L 34.131399 48.666471 
L 34.066085 47.943984 
L 34.153171 48.416227 
L 34.27758 47.587907 
L 34.218486 48.697342 
L 34.28069 47.657958 
L 34.352225 48.646265 
L 34.395768 48.338229 
L 34.445532 47.667757 
L 34.495295 48.670332 
L 34.501516 48.240389 
L 34.579271 48.043388 
L 34.610373 48.658543 
L 34.728562 47.267114 
L 34.800097 48.654467 
L 34.84986 48.205536 
L 34.899624 47.688411 
L 34.952497 48.652341 
L 34.98982 47.68792 
L 35.092457 48.319682 
L 35.173323 48.69139 
L 35.120449 47.950615 
L 35.198205 48.19698 
L 35.291511 47.371169 
L 35.257299 48.515484 
L 35.307063 48.143111 
L 35.353716 48.557609 
L 35.328834 47.524789 
L 35.41592 48.260782 
L 35.503006 47.71637 
L 35.447022 48.618094 
L 35.537219 48.091152 
L 35.543439 48.664699 
L 35.571431 47.943618 
L 35.649187 48.424418 
L 35.761155 47.66402 
L 35.670958 48.463161 
L 35.767375 47.958336 
L 35.792257 48.660016 
L 35.888674 48.284121 
L 35.901115 47.906486 
L 35.922886 48.656094 
L 35.997531 48.406405 
L 36.009972 48.184916 
L 36.013082 48.442551 
L 36.022413 48.313256 
L 36.072177 47.87803 
L 36.087728 48.599161 
L 36.131271 48.085712 
L 36.240129 48.616853 
L 36.209026 47.822764 
L 36.246349 48.390519 
L 36.249459 48.392998 
L 36.252569 48.634177 
L 36.342766 47.862858 
L 36.358317 48.35569 
L 36.451624 47.860101 
L 36.373868 48.607715 
L 36.467175 48.374832 
L 36.495167 47.812793 
L 36.551151 48.583721 
L 36.554261 48.698828 
L 36.588473 47.933182 
L 36.656898 48.464044 
L 36.762646 47.697661 
L 36.67867 48.628626 
L 36.771976 47.855631 
L 36.887054 48.641585 
L 36.793748 47.63584 
L 36.890165 48.418891 
L 36.905716 47.737626 
L 36.952369 48.625249 
L 36.999022 48.48931 
L 37.030124 47.962812 
L 37.067447 48.642825 
L 37.10477 48.409201 
L 37.142092 48.694296 
L 37.160754 48.173533 
L 37.213627 48.408757 
L 37.229179 47.771448 
L 37.269611 48.628811 
L 37.325595 48.307901 
L 37.409571 48.607499 
L 37.38469 48.221134 
L 37.422012 48.338552 
L 37.484217 47.271023 
L 37.456225 48.621968 
L 37.53398 48.238959 
L 37.642838 48.634615 
L 37.549531 47.88494 
L 37.649058 48.561329 
L 37.686381 48.653212 
L 37.717483 48.157465 
L 37.742365 48.556796 
L 37.832561 48.127239 
L 37.757916 48.599373 
L 37.854333 48.388223 
L 37.96319 48.663623 
L 37.916537 47.96819 
L 37.966301 48.614801 
L 38.016064 47.984907 
L 38.09693 48.382448 
L 38.10315 48.662155 
L 38.124922 47.936588 
L 38.196457 48.012666 
L 38.199567 47.842754 
L 38.255551 48.589394 
L 38.305315 47.895066 
L 38.38307 48.649933 
L 38.423503 48.619189 
L 38.52303 47.854807 
L 38.473267 48.624485 
L 38.532361 48.113929 
L 38.535471 48.648657 
L 38.628778 47.560274 
L 38.641218 48.252315 
L 38.644329 48.24934 
L 38.653659 48.663716 
L 38.750076 47.98966 
L 38.753186 47.700647 
L 38.849603 48.530189 
L 38.855824 48.344969 
L 38.896256 48.588721 
L 38.933579 47.717899 
L 38.964681 48.299304 
L 38.980232 48.164163 
L 38.992673 48.445907 
L 39.014445 48.594573 
L 39.036216 47.443303 
L 39.0922 48.287962 
L 39.095311 48.050087 
L 39.145074 48.613942 
L 39.201058 48.443572 
L 39.204168 48.561988 
L 39.219719 47.714908 
L 39.313026 48.550299 
L 39.344128 47.706061 
L 39.322357 48.663484 
L 39.424994 48.122921 
L 39.437435 47.916867 
L 39.540072 48.678353 
L 39.739126 47.35259 
L 39.751567 47.79191 
L 39.857314 48.602052 
L 39.879086 48.31585 
L 39.944401 47.940361 
L 39.897747 48.577624 
L 39.991054 48.104823 
L 40.096801 48.657512 
L 40.056369 47.993798 
L 40.115463 48.571679 
L 40.22432 48.055092 
L 40.196328 48.685055 
L 40.227431 48.197397 
L 40.267864 48.626416 
L 40.317627 48.066373 
L 40.320737 47.781989 
L 40.342509 48.584416 
L 40.423375 48.350045 
L 40.426485 48.569328 
L 40.526012 47.826393 
L 40.529122 48.020028 
L 40.606877 47.586024 
L 40.628649 48.635994 
L 40.634869 48.152152 
L 40.672192 48.598344 
L 40.700184 47.949955 
L 40.743727 48.570094 
L 40.759278 47.569251 
L 40.796601 48.667211 
L 40.855695 48.36872 
L 40.899238 47.729338 
L 40.933451 48.564292 
L 40.970773 47.878074 
L 40.995655 48.584062 
L 41.07341 47.679951 
L 41.082741 48.082305 
L 41.095182 48.238924 
L 41.107623 47.856016 
L 41.110733 47.749557 
L 41.151166 48.6665 
L 41.20093 48.307812 
L 41.20404 48.636082 
L 41.306677 47.778594 
L 41.309787 47.63359 
L 41.340889 48.701579 
L 41.409314 47.981288 
L 41.471519 48.667792 
L 41.527503 48.450547 
L 41.561715 47.79976 
L 41.611479 48.666197 
L 41.642581 47.623397 
L 41.720336 48.589182 
L 41.782541 48.11006 
L 41.735887 48.693635 
L 41.835414 48.535823 
L 41.841635 48.614173 
L 41.897619 47.737373 
L 41.941162 48.449059 
L 41.956713 48.694345 
L 41.969154 48.230379 
L 42.003366 48.346036 
L 42.087342 48.009471 
L 42.022028 48.687746 
L 42.112224 48.427187 
L 42.224192 47.562128 
L 42.174428 48.637883 
L 42.236633 47.869824 
L 42.258404 48.654349 
L 42.242853 47.867765 
L 42.361042 48.627082 
L 42.364152 48.63166 
L 42.451238 47.850359 
L 42.47612 48.351861 
L 42.538324 48.573035 
L 42.507222 47.875408 
L 42.575647 48.194101 
L 42.591198 47.449814 
L 42.668953 48.202328 
L 42.684504 48.00454 
L 42.700056 48.5885 
L 42.777811 47.924484 
L 42.802693 48.545079 
L 42.886669 47.866356 
L 42.911551 48.358311 
L 42.917771 48.618372 
L 42.951983 47.757843 
L 43.014188 48.026033 
L 43.026629 47.713239 
L 43.04529 48.500444 
L 43.119935 48.123871 
L 43.126156 48.628239 
L 43.154148 47.656077 
L 43.235013 48.407747 
L 43.238124 48.413521 
L 43.300328 47.660132 
L 43.340761 48.571749 
L 43.346981 48.405316 
L 43.449619 48.634229 
L 43.384304 47.602234 
L 43.452729 48.597832 
L 43.477611 47.863069 
L 43.527374 48.654726 
L 43.561587 48.319719 
L 43.570917 48.603827 
L 43.648673 47.514285 
L 43.667334 48.242949 
L 43.710877 47.796515 
L 43.766861 48.638109 
L 43.773082 48.356062 
L 43.878829 48.665562 
L 43.832176 48.019854 
L 43.881939 48.597183 
L 43.919262 48.153999 
L 43.937923 48.661684 
L 43.993907 48.228124 
L 44.02812 48.635565 
L 44.056112 48.082374 
L 44.068552 48.120041 
L 44.071663 47.990851 
L 44.161859 48.568294 
L 44.168079 48.452608 
L 44.214733 48.640872 
L 44.258276 47.811837 
L 44.270717 47.588478 
L 44.326701 48.616831 
L 44.351582 48.109163 
L 44.451109 48.624408 
L 44.432448 47.910264 
L 44.46355 48.504729 
L 44.547526 47.959244 
L 44.491542 48.663608 
L 44.572408 48.588541 
L 44.690596 47.636262 
L 44.703037 47.845333 
L 44.799454 48.642215 
L 44.818115 48.403092 
L 44.892761 47.724603 
L 44.914532 48.566044 
L 44.923863 48.379287 
L 44.982957 48.640662 
L 44.951855 47.977287 
L 45.035831 48.586407 
L 45.076264 47.999613 
L 45.057602 48.65956 
L 45.141578 48.397002 
L 45.144689 48.679738 
L 45.200673 47.728852 
L 45.250436 48.376553 
L 45.256656 48.273175 
L 45.262877 48.503299 
L 45.346853 48.009691 
L 45.30331 48.588352 
L 45.374845 48.255666 
L 45.427719 48.648163 
L 45.458821 47.816851 
L 45.483703 48.339199 
L 45.567678 48.665295 
L 45.59567 48.101759 
L 45.648544 48.632881 
L 45.685867 47.916817 
L 45.704528 48.15146 
L 45.800945 47.433257 
L 45.744961 48.649524 
L 45.816496 47.931993 
L 45.825827 47.815767 
L 45.860039 48.483805 
L 45.87248 48.162453 
L 45.894252 47.911021 
L 45.987558 48.681615 
L 46.074644 48.194831 
L 46.024881 48.694007 
L 46.099526 48.495819 
L 46.121298 47.75047 
L 46.133739 48.558193 
L 46.223935 48.05682 
L 46.29236 48.62234 
L 46.339013 48.417815 
L 46.422989 48.069475 
L 46.360785 48.665221 
L 46.444761 48.613421 
L 46.466532 47.756938 
L 46.57228 48.359388 
L 46.668696 48.683316 
L 46.58161 47.964239 
L 46.684247 48.491204 
L 46.687358 48.596118 
L 46.71535 47.626635 
L 46.780664 48.097012 
L 46.808656 47.569649 
L 46.833538 48.514198 
L 46.852199 48.26902 
L 46.889522 48.661748 
L 46.877081 48.037713 
L 46.961057 48.459408 
L 47.029482 47.804978 
L 46.982829 48.677463 
L 47.069915 48.170426 
L 47.107237 48.587355 
L 47.172552 47.774102 
L 47.178772 48.112006 
L 47.272079 48.661904 
L 47.250308 48.037324 
L 47.29074 48.366293 
L 47.293851 47.952461 
L 47.349835 48.639044 
L 47.399598 48.390559 
L 47.4307 47.341811 
L 47.464913 48.658371 
L 47.520897 47.874447 
L 47.589322 48.603721 
L 47.629754 47.822489 
L 47.632865 47.774042 
L 47.673297 48.534874 
L 47.71373 48.150778 
L 47.828808 48.687634 
L 47.794596 47.87308 
L 47.831919 48.574816 
L 47.940776 47.75747 
L 47.946997 48.209055 
L 48.012311 47.774044 
L 47.968768 48.653177 
L 48.055855 47.975767 
L 48.086957 48.688883 
L 48.167822 48.469785 
L 48.177153 48.571539 
L 48.245578 48.088038 
L 48.251798 48.112599 
L 48.254909 47.842347 
L 48.335774 48.639666 
L 48.354436 48.610617 
L 48.376207 48.69901 
L 48.382428 48.446797 
L 48.388648 48.563583 
L 48.475734 47.905434 
L 48.401089 48.637177 
L 48.497506 48.490907 
L 48.506836 48.67356 
L 48.534828 47.905725 
L 48.609474 48.62945 
L 48.712111 47.928385 
L 48.628135 48.640643 
L 48.724552 48.295026 
L 48.792977 48.630738 
L 48.814748 47.611838 
L 48.820969 47.880398 
L 48.824079 47.746429 
L 48.895614 48.648557 
L 48.920496 48.07972 
L 48.957818 48.572804 
L 48.9827 47.848383 
L 49.035574 48.468517 
L 49.100888 47.94908 
L 49.057345 48.654273 
L 49.135101 48.236283 
L 49.144432 48.653691 
L 49.169313 47.409297 
L 49.243959 48.431818 
L 49.293722 47.963357 
L 49.324824 48.622658 
L 49.359037 48.224842 
L 49.433682 47.624752 
L 49.418131 48.588711 
L 49.461674 48.355745 
L 49.558091 48.608597 
L 49.520768 47.911085 
L 49.570532 48.342353 
L 49.604744 48.522032 
L 49.617185 48.011535 
L 49.629626 48.291271 
L 49.704271 47.805742 
L 49.713602 48.665942 
L 49.738484 47.816089 
L 49.760255 48.678119 
L 49.791357 47.760741 
L 49.850451 48.193319 
L 49.906435 47.689367 
L 49.949979 48.607766 
L 49.956199 48.463852 
L 49.981081 48.611038 
L 49.97175 48.241993 
L 50.030844 48.346274 
L 50.071277 47.982685 
L 50.096159 48.674945 
L 50.139702 48.357908 
L 50.152143 47.966323 
L 50.24856 48.691039 
L 50.341866 48.038499 
L 50.363638 48.096342 
L 50.469385 48.619605 
L 50.475606 48.34534 
L 50.488047 48.196061 
L 50.54092 47.946403 
L 50.562692 48.622263 
L 50.593794 48.518637 
L 50.640447 48.103967 
L 50.600015 48.657018 
L 50.705762 48.502175 
L 50.718203 48.685332 
L 50.758636 48.089323 
L 50.805289 48.323329 
L 50.82084 47.862684 
L 50.892375 48.633359 
L 50.907926 48.372441 
L 50.911037 48.568299 
L 50.95769 47.953292 
L 51.013674 48.054429 
L 51.041666 47.767265 
L 51.10076 48.514789 
L 51.116311 48.339522 
L 51.122531 48.242053 
L 51.125642 48.602297 
L 51.147413 48.330734 
L 51.187846 48.671017 
L 51.24072 48.098411 
L 51.256271 48.3834 
L 51.268712 47.708856 
L 51.287373 48.52721 
L 51.365129 48.332403 
L 51.368239 48.646923 
L 51.411782 47.88266 
L 51.467766 48.006767 
L 51.533081 47.743456 
L 51.570403 48.503383 
L 51.573513 48.667111 
L 51.610836 48.006801 
L 51.679261 48.442279 
L 51.738355 48.616919 
L 51.713473 47.796323 
L 51.772567 48.20474 
L 51.791229 48.040726 
L 51.840992 48.596473 
L 51.881425 48.22641 
L 51.918748 48.657512 
L 51.934299 48.001179 
L 51.993393 48.549354 
L 52.055598 48.630629 
L 52.024495 48.13635 
L 52.083589 48.483385 
L 52.180006 48.079705 
L 52.09292 48.685085 
L 52.195557 48.417052 
L 52.198668 48.619521 
L 52.285754 47.769052 
L 52.304415 48.444761 
L 52.344848 47.924762 
L 52.385281 48.633432 
L 52.413273 48.469395 
L 52.431934 48.520018 
L 52.438155 48.367944 
L 52.441265 48.043886 
L 52.540792 48.676938 
L 52.547012 48.567804 
L 52.637209 48.265847 
L 52.553233 48.674408 
L 52.668311 48.433338 
L 52.755397 48.69803 
L 52.742956 48.229827 
L 52.777169 48.475526 
L 52.786499 48.127444 
L 52.805161 48.596639 
L 52.882916 48.358322 
L 52.892247 48.670644 
L 52.948231 48.012941 
L 52.991774 48.425172 
L 53.100631 47.898478 
L 53.060199 48.565958 
L 53.113072 48.107717 
L 53.212599 48.680407 
L 53.144175 47.905098 
L 53.231261 48.658064 
L 53.312126 48.025244 
L 53.346339 48.434794 
L 53.433425 48.04134 
L 53.374331 48.595035 
L 53.448976 48.179625 
L 53.495629 48.677018 
L 53.520511 47.853758 
L 53.560944 48.386464 
L 53.657361 47.895266 
L 53.601377 48.637654 
L 53.669802 48.451186 
L 53.704014 48.672122 
L 53.769329 48.120667 
L 53.809762 47.761345 
L 53.865746 48.572564 
L 53.868856 48.398404 
L 53.977713 48.611378 
L 53.952832 48.100346 
L 53.980824 48.4492 
L 54.06791 48.584731 
L 54.052359 48.048288 
L 54.086571 48.453161 
L 54.099012 48.076716 
L 54.114563 48.562574 
L 54.198539 48.128798 
L 54.279405 48.678999 
L 54.263854 47.936965 
L 54.313617 48.370357 
L 54.326058 48.68628 
L 54.391373 48.166403 
L 54.425585 48.491248 
L 54.459798 48.197881 
L 54.4909 48.624604 
L 54.534443 48.380885 
L 54.63397 48.642606 
L 54.565545 48.049875 
L 54.643301 48.339937 
L 54.705505 48.680105 
L 54.736607 48.032978 
L 54.755269 48.613555 
L 54.867236 48.147367 
L 54.823693 48.683131 
L 54.870347 48.211535 
L 54.876567 48.073278 
L 54.907669 48.606995 
L 54.926331 48.466158 
L 54.929441 48.663579 
L 55.007196 47.946764 
L 55.025858 48.163001 
L 55.028968 47.879545 
L 55.122274 48.61019 
L 55.131605 48.438628 
L 55.168928 48.618646 
L 55.20625 48.118721 
L 55.240463 48.581037 
L 55.268455 48.158763 
L 55.262234 48.643446 
L 55.352431 48.329232 
L 55.389753 48.66266 
L 55.442627 47.965707 
L 55.464399 48.462212 
L 55.554595 47.924577 
L 55.526603 48.645173 
L 55.573256 48.501385 
L 55.651012 48.142669 
L 55.663453 48.63513 
L 55.679004 48.293689 
L 55.685224 48.67512 
L 55.781641 47.937755 
L 55.787862 48.147896 
L 55.859397 48.638582 
L 55.831405 47.938622 
L 55.893609 48.372202 
L 55.899829 47.904398 
L 55.962034 48.595956 
L 56.002467 48.490379 
L 56.011797 48.623431 
L 56.008687 48.45494 
L 56.014908 48.532157 
L 56.067781 48.632374 
L 56.136206 47.662366 
L 56.151757 47.586519 
L 56.179749 48.477601 
L 56.1953 48.216464 
L 56.254395 48.653986 
L 56.226403 48.060997 
L 56.304158 48.281807 
L 56.400575 47.94539 
L 56.372583 48.684463 
L 56.406795 48.465567 
L 56.416126 48.699861 
L 56.437898 47.843531 
L 56.506322 48.50399 
L 56.60896 47.887427 
L 56.556086 48.5533 
L 56.61518 48.361578 
L 56.711597 48.64692 
L 56.624511 47.962827 
L 56.724038 48.389095 
L 56.742699 48.024996 
L 56.780022 48.6919 
L 56.832896 48.331229 
L 56.8951 48.67697 
L 56.851557 48.147036 
L 56.944863 48.629713 
L 57.04439 48.280494 
L 56.985296 48.664835 
L 57.059942 48.476905 
L 57.119036 48.658007 
L 57.156358 48.179172 
L 57.162579 48.450078 
L 57.193681 48.201062 
L 57.17502 48.6795 
L 57.274547 48.358682 
L 57.293208 47.907951 
L 57.311869 48.596146 
L 57.364743 48.348747 
L 57.420727 48.696154 
L 57.439388 48.076057 
L 57.473601 48.287841 
L 57.566907 47.977728 
L 57.591789 48.67104 
L 57.60734 47.852067 
L 57.703757 48.520388 
L 57.772182 48.17255 
L 57.719308 48.687499 
L 57.818835 48.405059 
L 57.843717 48.651628 
L 57.88415 48.081191 
L 57.946354 48.552239 
L 58.052102 48.008564 
L 58.039661 48.609568 
L 58.061432 48.120362 
L 58.108086 48.628486 
L 58.083204 47.868948 
L 58.1734 48.563277 
L 58.269817 48.649394 
L 58.288478 47.982273 
L 58.388006 48.677128 
L 58.406667 48.509364 
L 58.459541 48.063355 
L 58.45332 48.628753 
L 58.515525 48.546535 
L 58.546627 48.06676 
L 58.5995 48.658726 
L 58.633713 48.354121 
L 58.652374 48.674337 
L 58.699028 47.966649 
L 58.73946 48.259033 
L 58.751901 47.874051 
L 58.835877 48.64581 
L 58.842098 48.362212 
L 58.845208 48.6758 
L 58.910522 48.05411 
L 58.950955 48.324098 
L 58.985168 48.656634 
L 59.050482 48.181193 
L 59.056703 48.328772 
L 59.066034 48.111434 
L 59.087805 48.652788 
L 59.15934 48.508394 
L 59.171781 48.662551 
L 59.246426 48.259454 
L 59.261977 48.331755 
L 59.358394 48.163159 
L 59.364615 48.638618 
L 59.367725 48.586801 
L 59.470362 48.093976 
L 59.405047 48.686553 
L 59.482803 48.261955 
L 59.58855 48.623482 
L 59.545007 47.992359 
L 59.594771 48.405759 
L 59.656975 48.178289 
L 59.709849 48.632071 
L 59.747172 48.131942 
L 59.765833 48.687082 
L 59.824927 48.410883 
L 59.912013 48.172545 
L 59.877801 48.651546 
L 59.921344 48.460797 
L 59.952446 48.698906 
L 59.980438 48.171143 
L 60.033312 48.550167 
L 60.129729 47.908025 
L 60.14528 48.326591 
L 60.238586 48.629216 
L 60.257248 48.168785 
L 60.328783 48.625062 
L 60.369216 48.474659 
L 60.409649 48.091564 
L 60.453192 48.633998 
L 60.481184 48.253125 
L 60.57449 48.613515 
L 60.515396 47.50802 
L 60.596262 48.468836 
L 60.639805 48.067186 
L 60.646025 48.641451 
L 60.705119 48.45685 
L 60.757993 48.692433 
L 60.751773 48.000882 
L 60.804647 48.414773 
L 60.885512 48.014741 
L 60.8513 48.675562 
L 60.913504 48.488181 
L 60.99748 48.155732 
L 60.975709 48.639494 
L 61.022362 48.336884 
L 61.034803 48.659592 
L 61.121889 48.163633 
L 61.13744 48.655555 
L 61.146771 48.271861 
L 61.205865 48.699644 
L 61.252518 48.379833 
L 61.339604 48.641639 
L 61.355155 48.220128 
L 61.364486 48.607631 
L 61.395588 48.121996 
L 61.426691 48.66576 
L 61.473344 48.480199 
L 61.498226 48.646382 
L 61.541769 48.086667 
L 61.579091 48.574923 
L 61.582202 48.210202 
L 61.672398 48.681194 
L 61.687949 48.606548 
L 61.694169 47.935747 
L 61.731492 48.662764 
L 61.806137 48.193457 
L 61.865232 48.685449 
L 61.914995 48.497305 
L 61.918105 48.183926 
L 61.98342 48.663955 
L 62.023853 48.558145 
L 62.12027 48.1291 
L 62.030073 48.638743 
L 62.142041 48.405517 
L 62.157592 48.683863 
L 62.185584 48.124751 
L 62.250899 48.491324 
L 62.27267 47.914194 
L 62.359757 48.634006 
L 62.362867 48.353621 
L 62.449953 48.634433 
L 62.387749 47.9842 
L 62.471724 48.263628 
L 62.477945 48.122425 
L 62.496606 48.436746 
L 62.499716 48.311604 
L 62.509047 48.648445 
L 62.589913 48.088335 
L 62.611684 48.388143 
L 62.617905 47.92031 
L 62.670779 48.666106 
L 62.720542 48.496237 
L 62.813849 48.676475 
L 62.760975 48.132919 
L 62.82629 48.418226 
L 62.844951 48.081612 
L 62.854282 48.680004 
L 62.941368 48.121391 
L 63.056446 48.59926 
L 63.146642 48.229419 
L 63.068887 48.642348 
L 63.171524 48.42284 
L 63.174634 48.673788 
L 63.26172 48.049434 
L 63.280382 48.449247 
L 63.289712 48.096176 
L 63.351917 48.634035 
L 63.39235 48.361997 
L 63.470105 48.694695 
L 63.463885 48.285771 
L 63.501207 48.569336 
L 63.554081 48.104427 
L 63.510538 48.677569 
L 63.613175 48.500464 
L 63.666049 48.636144 
L 63.644277 48.217022 
L 63.722033 48.564113 
L 63.774907 48.153257 
L 63.806009 48.607011 
L 63.837111 48.266403 
L 63.917977 48.672364 
L 63.846442 47.947117 
L 63.955299 48.607709 
L 64.011283 47.948618 
L 64.061047 48.642192 
L 64.067267 48.517297 
L 64.169905 48.665769 
L 64.113921 48.208265 
L 64.176125 48.543887 
L 64.191676 48.217921 
L 64.263211 48.616085 
L 64.272542 48.520656 
L 64.322305 48.680776 
L 64.359628 48.216271 
L 64.378289 48.472565 
L 64.421832 48.140516 
L 64.474706 48.643791 
L 64.484037 48.576389 
L 64.555572 48.668668 
L 64.512029 48.199399 
L 64.589784 48.487638 
L 64.596005 48.168277 
L 64.611556 48.682249 
L 64.695532 48.523991 
L 64.714193 48.691182 
L 64.770177 48.209154 
L 64.801279 48.442767 
L 64.81683 47.947592 
L 64.838602 48.553134 
L 64.919468 48.235978 
L 64.94746 48.146912 
L 65.031436 48.686684 
L 65.09364 48.169052 
L 65.143403 48.446371 
L 65.158955 48.675169 
L 65.218049 47.896293 
L 65.255371 48.496465 
L 65.317576 48.202757 
L 65.320686 48.6309 
L 65.364229 48.455569 
L 65.438874 48.644587 
L 65.407772 48.143744 
L 65.466866 48.312899 
L 65.476197 48.143569 
L 65.497969 48.635273 
L 65.572614 48.478876 
L 65.609936 48.519556 
L 65.622377 48.00834 
L 65.625488 47.605192 
L 65.728125 48.634763 
L 65.815211 47.841709 
L 65.79966 48.657809 
L 65.840093 48.526885 
L 65.880526 48.657068 
L 65.855644 48.33629 
L 65.924069 48.428785 
L 65.927179 48.181189 
L 65.933399 48.672458 
L 66.032926 48.450002 
L 66.08891 48.675762 
L 66.129343 48.249097 
L 66.135564 48.591514 
L 66.175997 48.065514 
L 66.203989 48.611064 
L 66.247532 48.48682 
L 66.356389 48.659721 
L 66.322177 48.224288 
L 66.3595 48.568993 
L 66.390602 48.253056 
L 66.36883 48.655371 
L 66.474578 48.365823 
L 66.580325 48.611835 
L 66.496349 48.051231 
L 66.583435 48.57031 
L 66.65186 48.260545 
L 66.676742 48.671663 
L 66.695403 48.362994 
L 66.745167 48.061843 
L 66.763828 48.654795 
L 66.798041 48.383458 
L 66.878906 48.677943 
L 66.819812 48.242902 
L 66.910008 48.483295 
L 66.922449 48.684055 
L 67.000205 48.189253 
L 67.021976 48.573034 
L 67.043748 47.97756 
L 67.031307 48.62276 
L 67.137055 48.047476 
L 67.21481 48.670436 
L 67.261463 48.570571 
L 67.35166 48.106217 
L 67.317447 48.656224 
L 67.373431 48.544331 
L 67.379652 48.133532 
L 67.460517 48.666863 
L 67.479179 48.498638 
L 67.522722 48.650529 
L 67.513391 47.701157 
L 67.584926 48.357615 
L 67.597367 48.162197 
L 67.675123 48.664202 
L 67.687563 48.440651 
L 67.790201 48.682533 
L 67.731107 48.170659 
L 67.796421 48.354211 
L 67.836854 48.611957 
L 67.805752 48.023225 
L 67.911499 48.593314 
L 68.023467 48.170337 
L 68.001696 48.66481 
L 68.026577 48.318249 
L 68.091892 47.994748 
L 68.141656 48.678919 
L 68.20697 47.881905 
L 68.253624 48.430498 
L 68.262954 48.651928 
L 68.303387 48.18741 
L 68.359371 48.488856 
L 68.434016 48.193765 
L 68.371812 48.633423 
L 68.468229 48.468527 
L 68.49311 48.67262 
L 68.542874 48.044545 
L 68.580197 48.535844 
L 68.592638 48.467465 
L 68.648621 48.116634 
L 68.695275 48.62796 
L 68.701495 48.54552 
L 68.707716 48.682569 
L 68.77303 48.142148 
L 68.776141 48.308166 
L 68.788581 48.021953 
L 68.860116 48.65629 
L 68.884998 48.36986 
L 68.90677 48.681905 
L 68.968974 48.18039 
L 68.996966 48.489431 
L 69.006297 48.13982 
L 69.021848 48.682251 
L 69.108934 48.43581 
L 69.183579 47.986799 
L 69.140036 48.675686 
L 69.205351 48.390159 
L 69.208461 48.685318 
L 69.295547 47.944536 
L 69.311098 48.407155 
L 69.342201 47.990345 
L 69.419956 48.601352 
L 69.423066 48.303243 
L 69.516373 48.671422 
L 69.491491 48.095897 
L 69.531924 48.484673 
L 69.606569 47.995415 
L 69.553696 48.66377 
L 69.647002 48.157555 
L 69.668774 48.00719 
L 69.699876 48.579004 
L 69.740309 48.499119 
L 69.824285 48.630969 
L 69.774521 48.161257 
L 69.852277 48.544573 
L 69.908261 48.673887 
L 69.877158 48.232251 
L 69.958024 48.51773 
L 70.079323 47.606436 
L 69.982906 48.595988 
L 70.088653 48.132279 
L 70.110425 48.631446 
L 70.169519 47.891355 
L 70.203732 48.538317 
L 70.213062 48.648984 
L 70.234834 48.094911 
L 70.293928 48.092259 
L 70.297038 47.967179 
L 70.337471 48.575587 
L 70.393455 48.44305 
L 70.455659 48.672804 
L 70.430778 48.089973 
L 70.499202 48.385704 
L 70.536525 48.201213 
L 70.508533 48.650294 
L 70.61117 48.248882 
L 70.685816 48.648673 
L 70.701367 48.065911 
L 70.732469 48.619071 
L 70.75113 48.130504 
L 70.844437 48.426215 
L 70.915972 47.956778 
L 70.8942 48.595931 
L 70.956405 48.217406 
L 71.068373 48.646797 
L 71.006168 48.073672 
L 71.074593 48.611192 
L 71.080814 48.471508 
L 71.083924 48.526387 
L 71.143018 47.805602 
L 71.192781 48.380372 
L 71.245655 48.617466 
L 71.236325 48.024218 
L 71.301639 48.375956 
L 71.31097 48.123422 
L 71.370064 48.674309 
L 71.407387 48.548087 
L 71.503803 48.124966 
L 71.45404 48.64886 
L 71.510024 48.435234 
L 71.562898 48.666538 
L 71.528685 48.087911 
L 71.615771 48.205775 
L 71.618882 48.021255 
L 71.693527 48.656054 
L 71.718409 48.570235 
L 71.765062 48.292546 
L 71.74018 48.675035 
L 71.802385 48.453339 
L 71.808605 48.693998 
L 71.867699 48.025672 
L 71.911242 48.658699 
L 71.951675 47.784469 
L 72.02321 48.430253 
L 72.041872 48.659456 
L 72.082304 48.148812 
L 72.132068 48.439506 
L 72.138288 48.133419 
L 72.144509 48.604066 
L 72.244036 48.373091 
L 72.253367 48.683731 
L 72.30002 47.856624 
L 72.359114 48.624077 
L 72.380886 48.415431 
L 72.371555 48.647263 
L 72.393326 48.53859 
L 72.405767 47.865608 
L 72.427539 48.672791 
L 72.502184 48.410141 
L 72.598601 48.680981 
L 72.58616 48.172792 
L 72.611042 48.399549 
L 72.72301 48.088231 
L 72.657695 48.683678 
L 72.72612 48.102772 
L 72.769663 48.612383 
L 72.834978 48.326452 
L 72.838088 48.140289 
L 72.912733 48.634465 
L 72.943835 48.298436 
L 73.055803 48.647793 
L 73.074465 48.495928 
L 73.080685 47.950551 
L 73.124228 48.629552 
L 73.183322 48.578415 
L 73.229976 48.109907 
L 73.264188 48.664282 
L 73.2984 48.321457 
L 73.332613 48.228229 
L 73.307731 48.654607 
L 73.363715 48.441455 
L 73.385487 48.680799 
L 73.453911 48.181767 
L 73.472573 48.633804 
L 73.57521 48.346392 
L 73.488124 48.663593 
L 73.584541 48.418998 
L 73.631194 48.663688 
L 73.646745 48.145091 
L 73.684068 48.423661 
L 73.761823 48.071535 
L 73.699619 48.66914 
L 73.789815 48.537183 
L 73.827138 48.662007 
L 73.889342 48.20664 
L 73.892452 48.331971 
L 73.914224 48.302813 
L 73.917334 48.538412 
L 73.923555 48.410569 
L 73.932885 48.21947 
L 74.035523 48.694342 
L 74.051074 48.479969 
L 74.066625 48.546756 
L 74.072845 48.120338 
L 74.169262 48.651251 
L 74.178593 48.354509 
L 74.234577 48.672467 
L 74.225246 48.175803 
L 74.290561 48.627649 
L 74.368316 48.171269 
L 74.340324 48.693 
L 74.402529 48.507682 
L 74.439851 48.6756 
L 74.480284 48.092509 
L 74.511386 48.544769 
L 74.586032 48.035692 
L 74.592252 48.661781 
L 74.626464 48.311139 
L 74.632685 48.284154 
L 74.651346 48.649071 
L 74.676228 48.471919 
L 74.713551 48.685622 
L 74.766424 48.080288 
L 74.785086 48.38759 
L 74.803747 48.249706 
L 74.800637 48.541646 
L 74.816188 48.367302 
L 74.878392 48.698309 
L 74.865951 48.075143 
L 74.921935 48.353104 
L 75.024573 47.685117 
L 74.959258 48.651044 
L 75.037013 48.055389 
L 75.1241 48.677104 
L 75.173863 48.470847 
L 75.211186 47.782726 
L 75.242288 48.632972 
L 75.292052 47.95524 
L 75.301382 47.535358 
L 75.382248 48.656046 
L 75.391579 48.497644 
L 75.472444 48.659 
L 75.453783 48.061799 
L 75.484885 48.274659 
L 75.55953 48.163377 
L 75.515987 48.650784 
L 75.565751 48.278777 
L 75.599963 48.629788 
L 75.624845 48.250568 
L 75.677719 48.603468 
L 75.739923 48.256142 
L 75.711931 48.662792 
L 75.789687 48.462002 
L 75.845671 48.661673 
L 75.848781 48.275058 
L 75.901655 48.578834 
L 75.914096 48.165412 
L 75.97941 48.670336 
L 76.016733 48.399219 
L 76.072717 48.068708 
L 76.12559 48.657485 
L 76.209566 48.156492 
L 76.237558 48.319522 
L 76.290432 48.689355 
L 76.274881 48.295045 
L 76.349526 48.590113 
L 76.380629 48.206095 
L 76.430392 48.66662 
L 76.467715 48.432325 
L 76.483266 48.233015 
L 76.477045 48.623145 
L 76.53614 48.465258 
L 76.54547 48.691567 
L 76.582793 48.159994 
L 76.641887 48.545119 
L 76.68232 48.206652 
L 76.666769 48.69157 
L 76.753855 48.361005 
L 76.775626 48.642978 
L 76.840941 48.21512 
L 76.865823 48.580365 
L 76.918697 48.655043 
L 76.928027 48.290278 
L 76.959129 48.306322 
L 76.96224 48.080097 
L 76.974681 48.695679 
L 77.064877 48.55428 
L 77.095979 48.593385 
L 77.086648 48.117797 
L 77.136412 48.381129 
L 77.223498 48.142904 
L 77.183065 48.642131 
L 77.24527 48.459142 
L 77.332356 48.700622 
L 77.260821 48.132617 
L 77.347907 48.408695 
L 77.351017 47.919978 
L 77.407001 48.621606 
L 77.456765 48.540925 
L 77.478536 47.867188 
L 77.522079 48.549738 
L 77.571843 48.342474 
L 77.593614 48.641843 
L 77.66826 48.138084 
L 77.708692 48.672067 
L 77.752236 48.131407 
L 77.777117 48.188163 
L 77.904636 48.675436 
L 77.945069 48.117317 
L 77.976171 48.681384 
L 78.013494 48.652156 
L 78.09436 47.980445 
L 78.137903 48.227075 
L 78.181446 48.697387 
L 78.212548 48.098499 
L 78.252981 48.531703 
L 78.330737 48.683711 
L 78.284083 48.206215 
L 78.336957 48.422288 
L 78.427153 48.22866 
L 78.371169 48.671821 
L 78.448925 48.289665 
L 78.467586 48.697322 
L 78.564003 48.581287 
L 78.654199 48.229775 
L 78.626207 48.684648 
L 78.679081 48.230739 
L 78.781718 48.608618 
L 78.775498 48.210377 
L 78.794159 48.560089 
L 78.825261 48.044877 
L 78.903017 48.653961 
L 78.906127 48.469536 
L 79.008764 48.656393 
L 78.924789 48.273682 
L 79.014985 48.623627 
L 79.0803 48.020842 
L 79.036756 48.667848 
L 79.126953 48.34649 
L 79.161165 48.6778 
L 79.189157 48.165089 
L 79.242031 48.553738 
L 79.319786 48.174998 
L 79.341558 48.642973 
L 79.350889 48.446726 
L 79.381991 48.671288 
L 79.444195 48.17418 
L 79.462857 48.628443 
L 79.553053 48.150772 
L 79.50951 48.642636 
L 79.571714 48.470273 
L 79.621478 48.684634 
L 79.640139 48.090673 
L 79.680572 48.559011 
L 79.717895 48.130609 
L 79.745887 48.678317 
L 79.79254 48.500864 
L 79.873406 48.661406 
L 79.811201 48.063715 
L 79.888957 48.283781 
L 79.895177 47.836687 
L 79.93561 48.654067 
L 80.000925 48.102843 
L 80.050688 47.85887 
L 80.038247 48.661194 
L 80.084901 48.368822 
L 80.109782 48.630729 
L 80.137774 47.991233 
L 80.193758 48.513491 
L 80.227971 47.96679 
L 80.209309 48.671699 
L 80.302616 48.59393 
L 80.305726 48.649439 
L 80.36482 48.146962 
L 80.386592 48.279148 
L 80.464347 47.953047 
L 80.436355 48.696453 
L 80.49856 48.211059 
L 80.517221 48.688758 
L 80.529662 48.027933 
L 80.619858 48.41116 
L 80.710055 48.644728 
L 80.734937 48.135646 
L 80.818913 48.633176 
L 80.753598 48.080778 
L 80.853125 48.566578 
L 80.899778 48.228147 
L 80.949542 48.695529 
L 80.965093 48.39748 
L 81.021077 48.669888 
L 81.030408 48.152553 
L 81.07084 48.57255 
L 81.133045 48.077447 
L 81.111273 48.677748 
L 81.182808 48.32348 
L 81.248123 48.695693 
L 81.260564 48.167333 
L 81.288556 48.357734 
L 81.325878 48.150144 
L 81.384973 48.656733 
L 81.391193 48.550051 
L 81.422295 48.700418 
L 81.409854 48.200302 
L 81.500051 48.478459 
L 81.596468 48.668494 
L 81.593357 48.256989 
L 81.605798 48.57692 
L 81.63379 48.316213 
L 81.692884 48.634272 
L 81.714656 48.458333 
L 81.717766 48.656575 
L 81.779971 48.185296 
L 81.826624 48.595121 
L 81.898159 48.13037 
L 81.870167 48.644642 
L 81.951033 48.405907 
L 81.997686 48.689969 
L 81.963474 48.076157 
L 82.066111 48.617823 
L 82.084772 48.11489 
L 82.159417 48.64147 
L 82.178079 48.445806 
L 82.277606 48.662724 
L 82.271385 48.219729 
L 82.280716 48.231741 
L 82.286936 47.997449 
L 82.34292 48.595435 
L 82.389574 48.362804 
L 82.445558 48.644953 
L 82.489101 48.020121 
L 82.501542 48.444796 
L 82.520203 48.081397 
L 82.573077 48.66331 
L 82.607289 48.466315 
L 82.685045 48.669977 
L 82.62284 48.261766 
L 82.716147 48.557852 
L 82.793902 48.063635 
L 82.7628 48.641395 
L 82.828115 48.425828 
L 82.837445 48.260383 
L 82.834335 48.679436 
L 82.912091 48.60147 
L 82.971185 48.680002 
L 82.940083 48.159028 
L 83.017838 48.618782 
L 83.070712 48.111886 
L 83.04583 48.684989 
L 83.132916 48.338807 
L 83.232443 48.659756 
L 83.145357 48.140225 
L 83.247994 48.641059 
L 83.316419 48.675702 
L 83.359962 48.277614 
L 83.412836 48.667567 
L 83.46882 48.241898 
L 83.47193 48.617968 
L 83.565237 48.676074 
L 83.518584 47.988594 
L 83.571457 48.458127 
L 83.577678 48.129351 
L 83.646103 48.654307 
L 83.680315 48.301427 
L 83.74563 48.699403 
L 83.779842 48.165181 
L 83.792283 48.560486 
L 83.89492 48.212022 
L 83.838936 48.685422 
L 83.89803 48.547264 
L 83.916692 48.683509 
L 83.944684 48.380726 
L 84.006888 48.457265 
L 84.109525 48.678125 
L 84.065982 48.115312 
L 84.118856 48.570447 
L 84.17173 48.24141 
L 84.18106 48.633501 
L 84.227714 48.423947 
L 84.293028 48.66525 
L 84.265036 48.039569 
L 84.339682 48.531792 
L 84.389445 48.12952 
L 84.423658 48.682101 
L 84.445429 48.482224 
L 84.476531 48.671727 
L 84.482752 48.207155 
L 84.554287 48.403518 
L 84.579169 48.256546 
L 84.625822 48.6516 
L 84.656924 48.334059 
L 84.750231 48.68106 
L 84.697357 47.919214 
L 84.765782 48.647226 
L 84.840427 48.21912 
L 84.859088 48.695091 
L 84.88086 48.304432 
L 84.911962 48.660851 
L 84.896411 48.1759 
L 84.992828 48.494352 
L 85.086134 48.681814 
L 85.002159 48.148901 
L 85.107906 48.591298 
L 85.176331 48.151506 
L 85.117237 48.637282 
L 85.219874 48.381755 
L 85.250976 48.037187 
L 85.334952 48.686156 
L 85.415818 48.043735 
L 85.44692 48.362297 
L 85.474912 48.618711 
L 85.537116 48.060279 
L 85.555778 48.370979 
L 85.558888 48.364246 
L 85.561998 48.374866 
L 85.565108 48.691891 
L 85.658415 48.137808 
L 85.673966 48.582176 
L 85.686407 48.054684 
L 85.739281 48.684192 
L 85.785934 48.507797 
L 85.810816 48.224385 
L 85.841918 48.657217 
L 85.891681 48.468219 
L 85.919673 48.694154 
L 85.950776 48.22889 
L 86.000539 48.350738 
L 86.075184 48.660378 
L 86.047192 48.301997 
L 86.115617 48.563617 
L 86.180932 48.169 
L 86.208924 48.679717 
L 86.224475 48.566395 
L 86.227585 48.698289 
L 86.311561 48.271821 
L 86.333333 48.550937 
L 86.358214 48.15791 
L 86.404868 48.699147 
L 86.43908 48.384239 
L 86.498174 48.687568 
L 86.519946 48.204033 
L 86.547938 48.358636 
L 86.613253 48.641084 
L 86.619473 48.29225 
L 86.663016 48.537 
L 86.768764 48.254682 
L 86.694118 48.650218 
L 86.771874 48.288302 
L 86.852739 48.693611 
L 86.877621 48.279496 
L 86.883842 48.388193 
L 86.980258 48.667858 
L 86.964707 48.151833 
L 86.99581 48.593346 
L 87.026912 48.283404 
L 87.089116 48.678194 
L 87.107777 48.527839 
L 87.151321 48.229378 
L 87.216635 48.696583 
L 87.294391 48.253883 
L 87.328603 48.520029 
L 87.393918 48.64577 
L 87.372146 48.044195 
L 87.43124 48.389351 
L 87.443681 48.132562 
L 87.518327 48.655274 
L 87.540098 48.390963 
L 87.574311 48.686144 
L 87.546319 48.182919 
L 87.624074 48.516048 
L 87.627184 48.239331 
L 87.686278 48.683648 
L 87.732932 48.654125 
L 87.739152 48.098728 
L 87.8449 48.602732 
L 87.894663 48.683278 
L 87.872892 48.139534 
L 87.938206 48.538457 
L 87.950647 48.2041 
L 87.99419 48.627008 
L 88.050174 48.441704 
L 88.115489 48.697242 
L 88.106158 48.096791 
L 88.162142 48.501852 
L 88.249228 48.690766 
L 88.187024 48.278427 
L 88.255449 48.616757 
L 88.361196 48.089139 
L 88.323874 48.68624 
L 88.367417 48.457721 
L 88.470054 48.041841 
L 88.386078 48.676769 
L 88.479385 48.281276 
L 88.526038 48.668506 
L 88.519817 48.249985 
L 88.597573 48.537784 
L 88.603793 48.617307 
L 88.656667 48.32181 
L 88.631785 48.700348 
L 88.715761 48.428133 
L 88.802847 48.669677 
L 88.753084 48.160982 
L 88.827729 48.502674 
L 88.908595 48.28011 
L 88.939697 48.671627 
L 89.017453 48.093177 
L 88.964579 48.680164 
L 89.051665 48.458883 
L 89.101429 48.664617 
L 89.057885 48.183641 
L 89.163633 48.572565 
L 89.207176 48.203234 
L 89.250719 48.645472 
L 89.272491 48.510085 
L 89.312924 48.678133 
L 89.297372 48.303064 
L 89.378238 48.447292 
L 89.465324 48.288002 
L 89.434222 48.660545 
L 89.480875 48.478128 
L 89.483986 48.702534 
L 89.564851 48.263486 
L 89.592843 48.544604 
L 89.630166 48.230576 
L 89.599064 48.636879 
L 89.695481 48.451708 
L 89.773236 48.658629 
L 89.754575 48.194134 
L 89.807448 48.549951 
L 89.878984 48.234602 
L 89.866543 48.690795 
L 89.916306 48.630574 
L 89.919416 48.691811 
L 89.97229 48.228594 
L 90.012723 48.560329 
L 90.059376 48.253336 
L 90.102919 48.63404 
L 90.124691 48.406091 
L 90.149573 48.092529 
L 90.137132 48.692158 
L 90.221108 48.441475 
L 90.25532 48.670357 
L 90.314414 48.333127 
L 90.333076 48.509517 
L 90.336186 48.50781 
L 90.339296 48.616787 
L 90.420162 48.179125 
L 90.357957 48.650349 
L 90.451264 48.414373 
L 90.488587 48.661276 
L 90.479256 48.211973 
L 90.544571 48.422825 
L 90.547681 48.031815 
L 90.569452 48.673712 
L 90.653428 48.404028 
L 90.665869 48.318141 
L 90.700082 48.630691 
L 90.715633 48.55078 
L 90.731184 48.679658 
L 90.796498 48.206037 
L 90.81827 48.640058 
L 90.917797 48.276263 
L 90.911577 48.676006 
L 90.930238 48.496288 
L 90.933348 48.670862 
L 91.017324 48.235286 
L 91.039096 48.479815 
L 91.045316 48.326559 
L 91.116851 48.685159 
L 91.138623 48.565246 
L 91.141733 48.66478 
L 91.185276 48.116045 
L 91.24437 48.560971 
L 91.303464 48.320966 
L 91.272362 48.674116 
L 91.353228 48.576249 
L 91.390551 47.9728 
L 91.406102 48.659675 
L 91.468306 48.502646 
L 91.558502 48.263484 
L 91.577164 48.629802 
L 91.611376 48.060417 
L 91.633148 48.657297 
L 91.689132 48.298922 
L 91.748226 48.6641 
L 91.785548 48.274881 
L 91.8011 48.558996 
L 91.80732 48.64069 
L 91.841532 48.28563 
L 91.900627 48.525123 
L 91.922398 48.22759 
L 91.959721 48.651566 
L 92.009484 48.459112 
L 92.062358 48.666166 
L 92.034366 48.245879 
L 92.121452 48.504566 
L 92.199208 48.205666 
L 92.214759 48.670977 
L 92.2272 48.497828 
L 92.332947 48.677315 
L 92.23653 48.222229 
L 92.339168 48.607891 
L 92.429364 48.227847 
L 92.37338 48.656527 
L 92.451136 48.574449 
L 92.541332 48.320553 
L 92.51956 48.665629 
L 92.556883 48.556611 
L 92.6533 48.680386 
L 92.612867 48.041062 
L 92.65641 48.370452 
L 92.65952 48.149086 
L 92.721725 48.683471 
L 92.765268 48.522792 
L 92.79326 48.256466 
L 92.827472 48.637 
L 92.864795 48.408711 
L 92.871015 48.65588 
L 92.926999 48.2746 
L 92.973653 48.495296 
L 93.057628 48.142203 
L 92.995424 48.636688 
L 93.07318 48.603025 
L 93.104282 48.265865 
L 93.101172 48.679476 
L 93.191368 48.489686 
L 93.259793 48.686115 
L 93.21625 48.074837 
L 93.300226 48.567491 
L 93.390422 48.105886 
L 93.353099 48.644127 
L 93.409083 48.139779 
L 93.50861 48.667962 
L 93.521051 48.398833 
L 93.555264 48.686551 
L 93.552153 48.359328 
L 93.629909 48.597879 
L 93.682783 48.075412 
L 93.654791 48.666347 
L 93.741877 48.498693 
L 93.79164 48.198306 
L 93.810302 48.644155 
L 93.841404 48.34212 
L 93.875616 48.685892 
L 93.891167 48.048348 
L 93.953372 48.608535 
L 93.996915 48.357358 
L 94.049789 48.681834 
L 94.06534 48.527496 
L 94.115103 48.233045 
L 94.105773 48.639805 
L 94.177308 48.37006 
L 94.270614 48.671213 
L 94.261284 48.231592 
L 94.289276 48.61486 
L 94.292386 48.230293 
L 94.398133 48.664624 
L 94.407464 48.295855 
L 94.516322 48.349781 
L 94.590967 48.666617 
L 94.528763 48.198098 
L 94.63451 48.652599 
L 94.674943 48.234526 
L 94.693604 48.669108 
L 94.702935 48.489941 
" clip-path="url(#p00e86c0fc1)" style="fill: none; stroke: #bcbd22; stroke-width: 0.5; stroke-linecap: square"/>
   </g>
  </g>
 </g>
 <defs>
  <clipPath id="p00e86c0fc1">
   <rect x="0" y="-0" width="99.212598" height="51.023622"/>
  </clipPath>
 </defs>
</svg>
