<?xml version="1.0" encoding="utf-8" standalone="no"?>
<!DOCTYPE svg PUBLIC "-//W3C//DTD SVG 1.1//EN"
  "http://www.w3.org/Graphics/SVG/1.1/DTD/svg11.dtd">
<svg xmlns:xlink="http://www.w3.org/1999/xlink" width="99.212598pt" height="51.023622pt" viewBox="0 0 99.212598 51.023622" xmlns="http://www.w3.org/2000/svg" version="1.1">
 <metadata>
  <rdf:RDF xmlns:dc="http://purl.org/dc/elements/1.1/" xmlns:cc="http://creativecommons.org/ns#" xmlns:rdf="http://www.w3.org/1999/02/22-rdf-syntax-ns#">
   <cc:Work>
    <dc:type rdf:resource="http://purl.org/dc/dcmitype/StillImage"/>
    <dc:date>2024-10-30T10:51:12.403682</dc:date>
    <dc:format>image/svg+xml</dc:format>
    <dc:creator>
     <cc:Agent>
      <dc:title>Matplotlib v3.8.4, https://matplotlib.org/</dc:title>
     </cc:Agent>
    </dc:creator>
   </cc:Work>
  </rdf:RDF>
 </metadata>
 <defs>
  <style type="text/css">*{stroke-linejoin: round; stroke-linecap: butt}</style>
 </defs>
 <g id="figure_1">
  <g id="patch_1">
   <path d="M 0 51.023622 
L 99.212598 51.023622 
L 99.212598 0 
L 0 0 
L 0 51.023622 
z
" style="fill: none"/>
  </g>
  <g id="axes_1">
   <g id="patch_2">
    <path d="M 0 51.023622 
L 99.212598 51.023622 
L 99.212598 -0 
L 0 -0 
L 0 51.023622 
z
" style="fill: none"/>
   </g>
   <g id="matplotlib.axis_1">
    <g id="xtick_1"/>
    <g id="xtick_2"/>
   </g>
   <g id="matplotlib.axis_2">
    <g id="ytick_1"/>
    <g id="ytick_2"/>
   </g>
   <g id="line2d_1">
    <path d="M 4.509664 25.703224 
L 4.515884 25.883046 
L 4.540766 22.033092 
L 4.60297 15.77922 
L 4.662064 19.470218 
L 4.755371 27.711477 
L 4.817575 24.554889 
L 4.823796 24.641068 
L 4.870449 36.221097 
L 4.88911 42.213512 
L 4.945094 21.580053 
L 5.02285 2.319256 
L 5.075724 13.952312 
L 5.147259 37.552352 
L 5.231235 31.623048 
L 5.318321 46.732225 
L 5.392966 36.509426 
L 5.399186 36.356184 
L 5.436509 37.586941 
L 5.501824 44.477233 
L 5.576469 40.758955 
L 5.803515 45.398644 
L 5.831507 45.144592 
L 5.834617 45.122231 
L 5.850168 45.71399 
L 5.86883 46.732943 
L 5.896822 42.826914 
L 5.962136 34.665851 
L 6.01812 39.797651 
L 6.039892 41.779686 
L 6.086545 33.255826 
L 6.114537 28.874629 
L 6.189182 34.545009 
L 6.248277 43.514247 
L 6.360244 42.58653 
L 6.388236 43.523009 
L 6.43489 40.861559 
L 6.44422 40.677954 
L 6.469102 41.791858 
L 6.621503 45.521482 
L 6.624613 45.471559 
L 6.627723 45.506484 
L 6.646385 44.485111 
L 6.665046 43.604613 
L 6.693038 45.451073 
L 6.71792 48.598525 
L 6.805006 45.73526 
L 6.892092 47.47675 
L 6.920084 45.962096 
L 7.047603 44.180371 
L 7.193783 48.440163 
L 7.243547 47.443173 
L 7.358625 44.751198 
L 7.377286 45.71414 
L 7.464373 48.554462 
L 7.489254 45.792761 
L 7.529687 42.68315 
L 7.610553 44.733616 
L 7.619884 44.914545 
L 7.632324 44.29587 
L 7.644765 43.658546 
L 7.722521 45.508053 
L 7.800276 47.032971 
L 7.756733 45.24878 
L 7.831379 45.659736 
L 7.881142 44.36846 
L 7.902914 46.167019 
L 7.934016 47.758586 
L 7.99622 45.003503 
L 8.002441 45.116679 
L 8.008661 45.037753 
L 8.030433 46.423844 
L 8.061535 47.718892 
L 8.114409 45.279813 
L 8.126849 45.411287 
L 8.164172 47.206831 
L 8.245038 48.550267 
L 8.210825 45.014238 
L 8.263699 46.766881 
L 8.363226 45.330162 
L 8.322793 48.07122 
L 8.381888 46.081037 
L 8.465863 48.551297 
L 8.425431 45.467013 
L 8.490745 46.221729 
L 8.549839 44.731772 
L 8.515627 46.938146 
L 8.574721 46.877475 
L 8.680469 48.416809 
L 8.615154 45.044189 
L 8.689799 48.06351 
L 8.867082 45.048443 
L 8.888853 45.986431 
L 9.047475 48.387652 
L 9.050585 48.323017 
L 9.12212 46.51397 
L 9.159443 48.288598 
L 9.162553 48.322186 
L 9.193655 47.72018 
L 9.230978 48.071256 
L 9.25897 46.673696 
L 9.346056 47.23623 
L 9.380268 48.498232 
L 9.445583 47.228831 
L 9.476685 45.48927 
L 9.523338 47.765889 
L 9.55444 47.406715 
L 9.573102 48.034333 
L 9.604204 46.267955 
L 9.663298 45.127518 
L 9.629086 47.098809 
L 9.6944 47.05282 
L 9.793927 48.572659 
L 9.753495 46.412704 
L 9.818809 48.324573 
L 9.82503 48.337585 
L 9.856132 46.7516 
L 9.887234 48.555601 
L 9.946328 47.143336 
L 10.129831 48.483594 
L 10.136052 48.308292 
L 10.185815 47.314486 
L 10.25424 47.705454 
L 10.272901 48.401093 
L 10.313334 47.105077 
L 10.363098 47.628864 
L 10.428412 47.900023 
L 10.456404 46.352939 
L 10.515498 45.415007 
L 10.53727 47.594655 
L 10.583923 48.263582 
L 10.608805 46.517656 
L 10.643018 47.356841 
L 10.667899 45.154293 
L 10.739434 47.67932 
L 10.751875 47.458883 
L 10.764316 47.734383 
L 10.863843 48.579071 
L 10.842072 47.721588 
L 10.879394 47.915156 
L 11.013134 46.18745 
L 11.066007 48.195872 
L 11.022464 46.161226 
L 11.174865 47.788162 
L 11.289943 48.640177 
L 11.215298 47.207262 
L 11.299274 48.106109 
L 11.423683 46.626526 
L 11.436124 46.521794 
L 11.448565 46.910365 
L 11.572973 48.534049 
L 11.576084 48.594756 
L 11.607186 47.56309 
L 11.635178 47.722847 
L 11.737815 47.021973 
L 11.709823 48.505036 
L 11.750256 47.290398 
L 11.868444 48.061272 
L 11.793799 46.503585 
L 11.877775 47.855126 
L 12.014625 47.027313 
L 11.924428 47.956836 
L 12.023955 47.300722 
L 12.067498 48.625474 
L 12.151474 48.292071 
L 12.22612 48.427703 
L 12.204348 47.975317 
L 12.241671 48.229264 
L 12.331867 47.265354 
L 12.310095 48.467018 
L 12.356749 47.813467 
L 12.471827 48.532517 
L 12.474937 48.4871 
L 12.605566 47.292322 
L 12.624228 48.043589 
L 12.695763 48.568998 
L 12.667771 46.535037 
L 12.736196 48.256597 
L 12.80151 47.552293 
L 12.851274 48.518932 
L 12.857494 48.371905 
L 12.947691 46.140708 
L 12.972572 47.734478 
L 13.022336 48.662952 
L 13.068989 46.772668 
L 13.072099 46.664299 
L 13.140524 48.077243 
L 13.190288 48.627089 
L 13.165406 47.323181 
L 13.255602 48.389332 
L 13.376901 46.866677 
L 13.264933 48.540109 
L 13.423554 47.60383 
L 13.445326 48.272876 
L 13.51064 46.925991 
L 13.526191 47.240809 
L 13.638159 48.537912 
L 13.663041 48.029078 
L 13.700364 46.923689 
L 13.78123 47.547969 
L 13.834103 47.984046 
L 13.862095 46.660584 
L 13.868316 46.419192 
L 13.899418 47.836032 
L 13.939851 47.811288 
L 14.054929 48.670202 
L 13.970953 47.134589 
L 14.058039 48.566965 
L 14.089141 47.592561 
L 14.166897 48.600534 
L 14.173117 48.697836 
L 14.21355 47.849953 
L 14.225991 47.506644 
L 14.294416 48.068398 
L 14.322408 47.806676 
L 14.378392 47.517285 
L 14.446817 48.626353 
L 14.555674 47.872811 
L 14.537013 48.6454 
L 14.565005 48.060133 
L 14.574336 48.671732 
L 14.652091 47.85543 
L 14.683193 48.376193 
L 14.708075 47.471209 
L 14.742288 48.452075 
L 14.801382 48.108549 
L 14.848035 48.523009 
L 14.894688 47.426315 
L 14.91335 48.192086 
L 14.91957 48.39366 
L 14.969334 47.739067 
L 15.015987 47.995869 
L 15.103073 47.29596 
L 15.05331 48.591597 
L 15.143506 47.587334 
L 15.271025 48.621392 
L 15.180829 46.985203 
L 15.280356 48.336156 
L 15.302127 47.63552 
L 15.323899 48.504153 
L 15.395434 48.097067 
L 15.401654 48.604368 
L 15.491851 47.549991 
L 15.498071 47.638473 
L 15.557165 46.605216 
L 15.591378 47.956602 
L 15.597598 48.021797 
L 15.606929 47.796693 
L 15.610039 47.819263 
L 15.728227 47.303071 
L 15.653582 48.614889 
L 15.731338 47.368196 
L 15.830865 48.644799 
L 15.76555 47.203159 
L 15.858857 48.489115 
L 15.942832 48.142466 
L 15.958384 48.647814 
L 15.977045 48.28823 
L 16.008147 48.545215 
L 16.036139 48.148985 
L 16.04236 48.175773 
L 16.117005 47.271697 
L 16.073462 48.221033 
L 16.157438 47.666199 
L 16.163658 47.77867 
L 16.166768 47.755401 
L 16.235193 48.502734 
L 16.281846 48.07442 
L 16.284957 48.090379 
L 16.303618 47.736047 
L 16.312949 47.826067 
L 16.393814 47.587477 
L 16.359602 48.483703 
L 16.421806 47.927205 
L 16.440468 47.393183 
L 16.496452 48.658895 
L 16.533774 47.695033 
L 16.564876 48.560858 
L 16.599089 46.779884 
L 16.639522 47.58097 
L 16.658183 46.834918 
L 16.717277 48.254003 
L 16.739049 48.145795 
L 16.767041 48.59802 
L 16.795033 47.961794 
L 16.854127 48.436934 
L 16.919442 47.813349 
L 16.89456 48.53372 
L 16.956764 48.472465 
L 17.028299 48.583551 
L 17.006528 47.812338 
L 17.062512 48.288581 
L 17.074953 47.954811 
L 17.102945 48.620268 
L 17.140267 48.589039 
L 17.143377 48.651832 
L 17.211802 47.952251 
L 17.233574 48.249508 
L 17.333101 47.659476 
L 17.280227 48.620208 
L 17.348652 48.020244 
L 17.445069 48.434546 
L 17.45751 47.972714 
L 17.513494 47.856769 
L 17.476171 48.367504 
L 17.525934 48.189656 
L 17.60991 48.663901 
L 17.550816 47.784941 
L 17.637902 48.375397 
L 17.731209 47.53959 
L 17.693886 48.597144 
L 17.74987 48.279693 
L 17.787193 48.615903 
L 17.821405 47.635367 
L 17.858728 48.488107 
L 17.8805 47.486084 
L 17.964476 48.628194 
L 17.967586 48.543272 
L 18.110656 47.167003 
L 18.113766 47.293962 
L 18.179081 48.496466 
L 18.154199 47.155187 
L 18.225734 47.606356 
L 18.263057 47.130982 
L 18.287938 48.451731 
L 18.325261 47.930274 
L 18.365694 48.48802 
L 18.393686 47.176456 
L 18.431009 47.568675 
L 18.564748 48.641074 
L 18.570968 48.172364 
L 18.626952 47.367151 
L 18.679826 48.110626 
L 18.723369 48.375072 
L 18.698487 47.955445 
L 18.785574 48.178988 
L 18.891321 47.971556 
L 18.860219 48.524394 
L 18.894431 48.057351 
L 18.909982 48.262341 
L 18.990848 47.388538 
L 19.071714 48.420896 
L 19.180572 48.184617 
L 19.264547 47.58745 
L 19.199233 48.194681 
L 19.292539 48.014563 
L 19.401397 48.668629 
L 19.339193 47.75682 
L 19.420058 48.490867 
L 19.429389 48.61129 
L 19.43561 48.326282 
L 19.43872 48.390436 
L 19.507145 47.615787 
L 19.485373 48.604079 
L 19.553798 47.89618 
L 19.662656 48.619096 
L 19.671986 48.451859 
L 19.72797 47.692905 
L 19.706199 48.500667 
L 19.783954 48.226375 
L 19.808836 48.622284 
L 19.86793 47.530108 
L 19.895922 48.358826 
L 19.911473 47.700798 
L 19.973678 48.607467 
L 20.00789 48.213658 
L 20.048323 47.95648 
L 20.032772 48.43458 
L 20.110527 48.219099 
L 20.188283 48.660196 
L 20.15096 48.038994 
L 20.216275 48.114195 
L 20.362455 48.665093 
L 20.225605 47.918649 
L 20.374896 48.406821 
L 20.399778 47.961615 
L 20.452652 48.511751 
L 20.486864 48.20339 
L 20.592611 48.606117 
L 20.524187 47.854343 
L 20.598832 48.517748 
L 20.664147 47.53243 
L 20.689028 48.59833 
L 20.70769 48.356172 
L 20.738792 48.551148 
L 20.800996 47.92634 
L 20.810327 48.024303 
L 20.813437 47.988086 
L 20.85698 48.597083 
L 20.897413 48.290468 
L 20.903633 48.617513 
L 20.956507 47.618499 
L 21.00005 47.794831 
L 21.146231 48.623584 
L 21.012491 47.691027 
L 21.155561 48.447547 
L 21.174223 47.884171 
L 21.267529 48.219958 
L 21.27686 48.495952 
L 21.289301 47.47575 
L 21.295521 46.998162 
L 21.385718 48.276133 
L 21.388828 48.454248 
L 21.485245 47.790754 
L 21.488355 47.873066 
L 21.55678 48.669156 
L 21.618984 48.553171 
L 21.668748 47.590951 
L 21.740283 48.002398 
L 21.755834 47.492501 
L 21.84292 48.221588 
L 21.936227 48.670608 
L 21.861581 48.032691 
L 21.957998 48.385402 
L 22.026423 47.514769 
L 22.060635 48.553761 
L 22.063746 48.581925 
L 22.091738 47.837302 
L 22.094848 47.856743 
L 22.163273 47.755406 
L 22.185044 48.388129 
L 22.200595 48.650454 
L 22.2628 47.992305 
L 22.290792 48.317819 
L 22.40587 47.787054 
L 22.349886 48.537137 
L 22.4152 48.05253 
L 22.430752 48.574587 
L 22.502287 47.729733 
L 22.505397 47.621875 
L 22.583152 48.635022 
L 22.604924 47.893357 
L 22.629806 48.57936 
L 22.664018 47.708464 
L 22.69201 47.845661 
L 22.701341 47.526801 
L 22.754214 48.607815 
L 22.797757 48.058494 
L 22.915946 48.625308 
L 22.925276 48.371649 
L 23.040355 47.900175 
L 22.965709 48.510803 
L 23.043465 48.021486 
L 23.102559 48.689073 
L 23.174094 48.501743 
L 23.245629 47.928144 
L 23.195866 48.663104 
L 23.282952 48.510395 
L 23.292282 48.677759 
L 23.335826 48.046216 
L 23.382479 48.1924 
L 23.426022 48.034759 
L 23.450904 48.560424 
L 23.457124 48.478865 
L 23.522439 48.666297 
L 23.506888 48.11532 
L 23.547321 48.25857 
L 23.559761 48.10536 
L 23.634407 48.631007 
L 23.646848 48.3173 
L 23.68417 48.601332 
L 23.656178 48.150486 
L 23.755705 48.278305 
L 23.861453 48.608081 
L 23.814799 47.996428 
L 23.873894 48.434098 
L 23.998302 47.982609 
L 23.951649 48.64365 
L 24.010743 48.089202 
L 24.085389 48.655089 
L 24.10405 48.026868 
L 24.125821 48.397337 
L 24.234679 48.675913 
L 24.175585 48.08784 
L 24.2409 48.513552 
L 24.293773 47.858436 
L 24.362198 47.93754 
L 24.368419 47.791977 
L 24.38708 48.308831 
L 24.396411 48.64799 
L 24.455505 47.885466 
L 24.495938 48.391488 
L 24.598575 47.387754 
L 24.539481 48.556091 
L 24.611016 47.935846 
L 24.67633 48.676004 
L 24.719873 47.930134 
L 24.722984 48.006366 
L 24.741645 47.207313 
L 24.766527 48.668946 
L 24.828731 48.307666 
L 24.900266 47.677804 
L 24.940699 48.126845 
L 24.981132 48.55639 
L 25.009124 47.693156 
L 25.046447 47.910759 
L 25.049557 47.913497 
L 25.052667 47.816548 
L 25.058887 47.707143 
L 25.09621 48.621227 
L 25.145974 48.25489 
L 25.192627 48.636372 
L 25.226839 48.051823 
L 25.248611 48.093076 
L 25.267272 47.899174 
L 25.310815 48.587843 
L 25.332587 48.175542 
L 25.338807 48.421487 
L 25.37924 47.924773 
L 25.444555 48.282736 
L 25.534751 48.654964 
L 25.509869 48.073595 
L 25.550302 48.320532 
L 25.606286 47.97207 
L 25.649829 48.656481 
L 25.652939 48.639016 
L 25.65605 48.664193 
L 25.690262 48.109126 
L 25.693372 48.213973 
L 25.786679 47.851129 
L 25.768018 48.585378 
L 25.80534 48.148421 
L 25.920418 48.658274 
L 25.827112 47.696145 
L 25.926639 48.561271 
L 25.93597 48.612607 
L 25.982623 48.301226 
L 25.988843 48.418589 
L 26.004394 48.063566 
L 26.066599 48.469093 
L 26.097701 48.258394 
L 26.150575 48.636959 
L 26.135024 47.755135 
L 26.212779 48.50387 
L 26.219 48.658875 
L 26.306086 48.053143 
L 26.309196 47.848987 
L 26.337188 48.67513 
L 26.411833 48.37573 
L 26.414943 48.378584 
L 26.421164 48.123197 
L 26.50825 48.615401 
L 26.520691 48.510713 
L 26.558014 48.694895 
L 26.567344 48.321495 
L 26.617108 48.31961 
L 26.65443 48.591546 
L 26.738406 48.024342 
L 26.862815 48.68829 
L 26.865925 48.608605 
L 26.92813 48.68381 
L 26.984114 48.281319 
L 27.033877 48.580176 
L 27.099192 48.468346 
L 27.114743 48.033925 
L 27.189388 48.656221 
L 27.229821 48.246292 
L 27.363561 48.692785 
L 27.298246 48.041604 
L 27.366671 48.607101 
L 27.481749 48.155805 
L 27.379112 48.686846 
L 27.484859 48.225939 
L 27.556394 48.585168 
L 27.575055 48.11655 
L 27.606158 47.84878 
L 27.624819 48.653253 
L 27.677693 48.257021 
L 27.764779 48.600092 
L 27.78344 47.902227 
L 27.876747 47.696789 
L 27.823873 48.667191 
L 27.886077 48.023195 
L 27.92651 48.641103 
L 27.994935 47.954418 
L 28.097572 48.667903 
L 28.007376 47.776065 
L 28.122454 48.6346 
L 28.165997 47.833642 
L 28.231312 48.507678 
L 28.284186 48.652478 
L 28.318398 47.970488 
L 28.324619 48.018422 
L 28.327729 47.882957 
L 28.371272 48.685454 
L 28.430366 48.087223 
L 28.539224 48.666611 
L 28.495681 47.876547 
L 28.551665 48.467594 
L 28.663632 48.079537 
L 28.607649 48.67193 
L 28.679184 48.207468 
L 28.722727 48.556313 
L 28.747608 48.015484 
L 28.750719 48.105642 
L 28.753829 47.986411 
L 28.844025 48.671231 
L 28.847135 48.560692 
L 28.850246 48.646369 
L 28.900009 48.226482 
L 28.949773 48.414758 
L 29.005757 47.929011 
L 29.036859 48.671978 
L 29.05863 48.406076 
L 29.067961 48.584641 
L 29.117725 48.093216 
L 29.161268 48.344267 
L 29.186149 48.164393 
L 29.214141 48.618928 
L 29.239023 48.502936 
L 29.347881 48.662119 
L 29.276346 47.997254 
L 29.350991 48.611299 
L 29.466069 48.154744 
L 29.394534 48.691292 
L 29.469179 48.222234 
L 29.487841 48.68731 
L 29.556266 48.138373 
L 29.581147 48.299143 
L 29.671344 48.009983 
L 29.637131 48.614411 
L 29.683785 48.385162 
L 29.786422 48.619981 
L 29.739769 47.777954 
L 29.798863 48.572943 
L 29.851737 48.003986 
L 29.917051 48.39716 
L 30.022799 48.659117 
L 29.973035 48.152229 
L 30.025909 48.546749 
L 30.04457 48.038824 
L 30.116105 48.554405 
L 30.134767 48.392335 
L 30.206302 48.667438 
L 30.17831 48.237451 
L 30.246734 48.43493 
L 30.346262 48.684073 
L 30.302718 48.300585 
L 30.355592 48.675676 
L 30.386694 48.17253 
L 30.408466 48.690769 
L 30.46756 48.57513 
L 30.520434 48.676243 
L 30.501773 48.208796 
L 30.548426 48.498218 
L 30.644843 48.574354 
L 30.666614 48.208099 
L 30.775472 48.00386 
L 30.74748 48.61123 
L 30.778582 48.077626 
L 30.856338 48.675868 
L 30.934093 48.511094 
L 31.005628 48.042967 
L 31.03673 48.695252 
L 31.052281 48.143405 
L 31.061612 48.02507 
L 31.114486 48.65362 
L 31.154919 48.218095 
L 31.17047 48.524762 
L 31.210903 47.867346 
L 31.266887 48.393354 
L 31.344642 47.800387 
L 31.301099 48.593322 
L 31.378855 48.114922 
L 31.388185 48.483729 
L 31.478382 47.7296 
L 31.484602 47.478996 
L 31.528145 48.649428 
L 31.568578 48.574961 
L 31.60279 48.00634 
L 31.643223 48.672549 
L 31.677436 48.414562 
L 31.727199 48.679383 
L 31.783183 48.162628 
L 31.795624 48.667756 
L 31.904482 48.433006 
L 31.988458 48.076201 
L 31.960466 48.632829 
L 32.01956 48.24647 
L 32.038221 48.614014 
L 32.056883 48.109089 
L 32.131528 48.347398 
L 32.16885 48.628427 
L 32.193732 47.985287 
L 32.243496 48.449616 
L 32.367905 47.861032 
L 32.315031 48.572889 
L 32.371015 48.068171 
L 32.426999 48.625066 
L 32.492313 48.539119 
L 32.538967 48.182946 
L 32.510975 48.642587 
L 32.610502 48.349617 
L 32.632273 48.697296 
L 32.713139 48.223564 
L 32.716249 48.229098 
L 32.72869 47.984198 
L 32.781564 48.666785 
L 32.821997 48.265507 
L 32.87487 48.660641 
L 32.856209 48.057194 
L 32.930854 48.288417 
L 32.989949 48.085572 
L 33.002389 48.578522 
L 33.077035 48.676957 
L 33.049043 48.251245 
L 33.111247 48.636185 
L 33.120578 48.184561 
L 33.226325 48.347771 
L 33.29786 48.654682 
L 33.307191 48.152358 
L 33.412939 48.032109 
L 33.356955 48.633817 
L 33.416049 48.161823 
L 33.450261 48.679266 
L 33.493804 47.964455 
L 33.540458 48.655562 
L 33.559119 48.530109 
L 33.621323 48.248773 
L 33.590221 48.636448 
L 33.674197 48.292459 
L 33.764393 48.634348 
L 33.683528 48.282224 
L 33.789275 48.501427 
L 33.792385 48.496888 
L 33.801716 48.639942 
L 33.804826 48.630272 
L 33.807936 48.68014 
L 33.86392 48.236431 
L 33.907463 48.515819 
L 33.910574 48.512133 
L 33.913684 48.695593 
L 33.969668 48.29005 
L 34.019431 48.513723 
L 34.050534 48.681199 
L 34.128289 48.353481 
L 34.237147 48.67198 
L 34.162502 48.255037 
L 34.240257 48.64431 
L 34.311792 48.033968 
L 34.265139 48.653518 
L 34.361556 48.306473 
L 34.467303 48.67727 
L 34.479744 48.549126 
L 34.557499 48.290989 
L 34.535728 48.678563 
L 34.591712 48.401912 
L 34.681908 48.656209 
L 34.632145 48.375788 
L 34.70057 48.438012 
L 34.753443 48.0777 
L 34.775215 48.6106 
L 34.803207 48.576783 
L 34.893403 47.902002 
L 34.815648 48.673057 
L 34.946277 48.423384 
L 35.048914 48.688906 
L 35.036473 48.014994 
L 35.055135 48.377494 
L 35.061355 47.969726 
L 35.095568 48.561391 
L 35.160882 48.413328 
L 35.167103 48.678956 
L 35.260409 47.898522 
L 35.26663 48.099686 
L 35.378598 48.659685 
L 35.288401 47.882377 
L 35.387928 48.648454 
L 35.475014 48.231723 
L 35.487455 48.660318 
L 35.503006 48.537668 
L 35.565211 48.676463 
L 35.55277 48.271853 
L 35.605644 48.542497 
L 35.708281 48.080398 
L 35.621195 48.66719 
L 35.717612 48.397175 
L 35.823359 48.663634 
L 35.801588 48.110895 
L 35.83269 48.62583 
L 35.913555 48.129271 
L 35.866902 48.637782 
L 35.950878 48.350538 
L 36.016193 48.660021 
L 36.069066 48.552153 
L 36.097058 48.088851 
L 36.134381 48.669245 
L 36.181034 48.312932 
L 36.25568 48.674937 
L 36.283672 48.227367 
L 36.289892 48.24002 
L 36.342766 48.66359 
L 36.392529 48.25557 
L 36.460954 48.664845 
L 36.507607 48.09918 
L 36.557371 48.656176 
L 36.532489 47.993287 
L 36.619575 48.245619 
L 36.628906 48.154939 
L 36.653788 48.369376 
L 36.672449 48.632691 
L 36.759535 48.244141 
L 36.768866 48.547654 
L 36.799968 48.072567 
L 36.82174 48.627582 
L 36.883944 48.268093 
L 36.999022 48.657549 
L 36.949259 47.875706 
L 37.008353 48.651612 
L 37.089219 47.9597 
L 37.123431 48.438604 
L 37.210517 48.178416 
L 37.170084 48.664639 
L 37.222958 48.465517 
L 37.269611 48.68007 
L 37.25406 48.202642 
L 37.331816 48.46311 
L 37.443784 48.073325 
L 37.378469 48.690417 
L 37.453114 48.405219 
L 37.490437 48.621707 
L 37.552641 48.35071 
L 37.565082 48.56685 
L 37.67394 48.359485 
L 37.596184 48.653501 
L 37.67705 48.547855 
L 37.686381 48.673946 
L 37.754806 48.201681 
L 37.789018 48.555845 
L 37.876104 48.37395 
L 37.81079 48.678141 
L 37.900986 48.456655 
L 38.012954 48.664462 
L 37.932088 48.25767 
L 38.016064 48.643384 
L 38.118701 48.258235 
L 38.022285 48.689986 
L 38.134253 48.301254 
L 38.196457 48.669953 
L 38.156024 48.273966 
L 38.24622 48.37829 
L 38.261772 48.283198 
L 38.302204 48.657149 
L 38.351968 48.371303 
L 38.454605 48.599335 
L 38.404842 48.326719 
L 38.463936 48.411941 
L 38.51681 48.682997 
L 38.479487 48.083589 
L 38.585234 48.536992 
L 38.613226 48.203561 
L 38.687872 48.651761 
L 38.694092 48.425709 
L 38.709643 48.68884 
L 38.740745 48.324226 
L 38.79984 48.449866 
L 38.80295 48.241045 
L 38.818501 48.649768 
L 38.908697 48.540828 
L 38.958461 48.243849 
L 38.980232 48.657975 
L 39.023775 48.283293 
L 39.08909 48.633869 
L 39.036216 47.928982 
L 39.123303 48.208855 
L 39.154405 47.8901 
L 39.135743 48.626867 
L 39.22594 48.29721 
L 39.278814 48.578702 
L 39.294365 48.035417 
L 39.337908 48.45502 
L 39.440545 48.64303 
L 39.3659 48.235085 
L 39.456096 48.64021 
L 39.524521 48.682066 
L 39.549403 48.441008 
L 39.65515 48.111562 
L 39.639599 48.65439 
L 39.664481 48.345113 
L 39.742236 48.698068 
L 39.714244 48.236454 
L 39.776449 48.384456 
L 39.835543 48.280478 
L 39.863535 48.505301 
L 39.866645 48.496349 
L 39.93818 48.660385 
L 39.969282 48.425962 
L 39.991054 48.234845 
L 40.047038 48.557762 
L 40.07814 48.414419 
L 40.146565 48.643951 
L 40.131014 48.180097 
L 40.186998 48.564628 
L 40.298966 48.13387 
L 40.21499 48.66101 
L 40.302076 48.197806 
L 40.426485 48.669992 
L 40.35806 48.144548 
L 40.438926 48.44757 
L 40.448256 48.27503 
L 40.49491 48.674472 
L 40.554004 48.359317 
L 40.619318 48.589702 
L 40.63798 47.911797 
L 40.64109 47.873794 
L 40.684633 48.591344 
L 40.687743 48.53252 
L 40.690853 48.650912 
L 40.709515 48.084783 
L 40.793491 48.471075 
L 40.855695 48.276767 
L 40.840144 48.684226 
L 40.905459 48.303413 
L 40.961443 48.637417 
L 40.945891 48.05807 
L 41.011206 48.308969 
L 41.023647 48.084206 
L 41.045419 48.686481 
L 41.116954 48.394427 
L 41.21337 48.67826 
L 41.191599 48.289283 
L 41.228922 48.543468 
L 41.284905 48.647935 
L 41.344 48.262004 
L 41.399984 48.665621 
L 41.35333 47.993645 
L 41.468408 48.484504 
L 41.518172 48.260317 
L 41.536833 48.693651 
L 41.577266 48.404007 
L 41.642581 48.660674 
L 41.605258 48.105744 
L 41.689234 48.499661 
L 41.714116 48.679405 
L 41.7701 48.467269 
L 41.798092 48.506156 
L 41.807422 48.277855 
L 41.885178 48.669786 
L 41.91006 48.413995 
L 41.987815 48.696233 
L 42.025138 48.60705 
L 42.112224 48.681087 
L 42.140216 48.370304 
L 42.149547 48.676397 
L 42.227302 48.245757 
L 42.252184 48.447575 
L 42.320609 48.63313 
L 42.33616 48.382378 
L 42.33927 48.289671 
L 42.420136 48.686142 
L 42.438797 48.4977 
L 42.494781 48.688584 
L 42.519663 48.296089 
L 42.544545 48.441339 
L 42.575647 48.300861 
L 42.634741 48.684448 
L 42.653402 48.479189 
L 42.731158 48.660792 
L 42.749819 48.382912 
L 42.76226 48.178158 
L 42.840015 48.678795 
L 42.855567 48.530581 
L 42.90222 48.217904 
L 42.933322 48.611854 
L 42.958204 48.562341 
L 43.063951 48.666433 
L 43.0484 48.388341 
L 43.070172 48.631407 
L 43.076392 48.503277 
L 43.104384 48.094828 
L 43.088833 48.627672 
L 43.18836 48.346493 
L 43.194581 48.696623 
L 43.287887 48.196853 
L 43.300328 48.564808 
L 43.303438 48.339832 
L 43.3221 48.667106 
L 43.412296 48.427784 
L 43.455839 48.697464 
L 43.4745 48.322945 
L 43.527374 48.546285 
L 43.60824 48.67027 
L 43.546035 48.41158 
L 43.623791 48.528147 
L 43.670444 48.169912 
L 43.729538 48.666533 
L 43.825955 48.171954 
L 43.741979 48.700233 
L 43.89127 48.277364 
L 44.021899 48.676442 
L 43.909931 48.223855 
L 44.04056 48.587728 
L 44.105875 48.168523 
L 44.077883 48.638019 
L 44.152528 48.531018 
L 44.1743 48.694339 
L 44.239615 48.347367 
L 44.248945 48.360517 
L 44.286268 48.254946 
L 44.264496 48.627331 
L 44.31426 48.512351 
L 44.32048 48.572976 
L 44.376464 48.15072 
L 44.416897 48.432128 
L 44.435558 48.253706 
L 44.451109 48.605228 
L 44.525755 48.453855 
L 44.541306 48.532332 
L 44.575518 48.212808 
L 44.662604 47.991297 
L 44.637723 48.600772 
L 44.675045 48.427915 
L 44.762131 48.681469 
L 44.712368 48.24715 
L 44.783903 48.493496 
L 44.799454 48.220307 
L 44.827446 48.672258 
L 44.895871 48.403835 
L 44.902091 48.539812 
L 44.939414 48.274739 
L 44.942524 48.228832 
L 45.010949 48.643368 
L 45.035831 48.377184 
L 45.070043 48.664472 
L 45.082484 48.32049 
L 45.147799 48.548173 
L 45.213113 48.326966 
L 45.237995 48.664979 
L 45.259767 48.444549 
L 45.293979 48.631131 
L 45.275318 48.426806 
L 45.321971 48.526913 
L 45.325081 48.274199 
L 45.377955 48.679121 
L 45.430829 48.546538 
L 45.44327 48.265624 
L 45.521025 48.687967 
L 45.549017 48.429204 
L 45.611222 48.666137 
L 45.629883 48.302868 
L 45.667206 48.602157 
L 45.720079 48.316901 
L 45.751181 48.649695 
L 45.779173 48.481776 
L 45.819606 48.680936 
L 45.838268 48.454695 
L 45.888031 48.45665 
L 45.900472 48.383201 
L 45.947125 48.648662 
L 45.987558 48.492841 
L 46.034211 48.665447 
L 46.00933 48.447693 
L 46.099526 48.55751 
L 46.1524 48.698699 
L 46.143069 48.3805 
L 46.199053 48.510198 
L 46.245706 48.378955 
L 46.279919 48.633982 
L 46.28925 48.5677 
L 46.360785 48.643536 
L 46.379446 48.369269 
L 46.391887 48.411169 
L 46.469642 48.658779 
L 46.407438 48.387823 
L 46.510075 48.438956 
L 46.5785 48.425899 
L 46.556728 48.649081 
L 46.594051 48.593793 
L 46.662476 48.615397 
L 46.606492 48.436762 
L 46.678027 48.520119 
L 46.684247 48.327882 
L 46.746452 48.665534 
L 46.786885 48.562701 
L 46.821097 48.200731 
L 46.86464 48.643697 
L 46.889522 48.597576 
L 46.898853 48.598565 
L 46.901963 48.488098 
L 46.905073 48.501829 
L 46.939286 48.098633 
L 46.973498 48.642837 
L 47.026372 48.113061 
L 47.066805 48.688065 
L 47.135229 48.137825 
L 47.13834 48.031867 
L 47.172552 48.660573 
L 47.234756 48.520267 
L 47.340504 48.027479 
L 47.321843 48.675787 
L 47.349835 48.243312 
L 47.396488 48.668781 
L 47.368496 47.992965 
L 47.464913 48.591209 
L 47.492905 48.294419 
L 47.56444 48.627416 
L 47.579991 48.37165 
L 47.629754 48.682089 
L 47.604873 48.324976 
L 47.695069 48.635479 
L 47.797706 48.219796 
L 47.785265 48.686995 
L 47.810147 48.462887 
L 47.915895 48.657916 
L 47.869241 48.201794 
L 47.922115 48.535653 
L 47.931446 48.669407 
L 47.953217 48.372187 
L 47.981209 48.440476 
L 48.034083 48.119867 
L 48.096287 48.275083 
L 48.174043 48.689012 
L 48.105618 48.256697 
L 48.214476 48.591418 
L 48.27357 48.280267 
L 48.245578 48.669183 
L 48.329554 48.465149 
L 48.382428 48.671332 
L 48.357546 48.297593 
L 48.435301 48.496472 
L 48.438412 48.304877 
L 48.534828 48.646837 
L 48.544159 48.468175 
L 48.5566 48.371002 
L 48.569041 48.643007 
L 48.572151 48.69542 
L 48.631245 48.382914 
L 48.665458 48.544251 
L 48.715221 48.666628 
L 48.780536 48.267829 
L 48.895614 48.622681 
L 48.848961 48.172937 
L 48.904945 48.450835 
L 48.926716 48.235637 
L 48.988921 48.660392 
L 49.013802 48.380658 
L 49.072896 48.632028 
L 49.044904 48.30791 
L 49.12577 48.451772 
L 49.225297 48.144873 
L 49.147542 48.673608 
L 49.231518 48.321837 
L 49.237738 48.674831 
L 49.26884 48.176329 
L 49.346596 48.65874 
L 49.415021 48.310061 
L 49.352816 48.681349 
L 49.495886 48.45468 
L 49.505217 48.684408 
L 49.558091 48.364209 
L 49.607854 48.55153 
L 49.663838 48.623209 
L 49.654508 48.264737 
L 49.698051 48.351679 
L 49.701161 48.261947 
L 49.754035 48.645713 
L 49.803798 48.470222 
L 49.881554 48.634277 
L 49.903325 48.197285 
L 49.915766 48.518957 
L 49.943758 48.326059 
L 49.962419 48.686263 
L 50.024624 48.600815 
L 50.086828 48.492564 
L 50.040175 48.654447 
L 50.093049 48.521826 
L 50.158363 48.430041 
L 50.139702 48.697172 
L 50.198796 48.596694 
L 50.282772 48.684356 
L 50.220568 48.293393 
L 50.304544 48.556928 
L 50.39785 48.664599 
L 50.341866 48.438129 
L 50.416512 48.559509 
L 50.494267 48.340038 
L 50.506708 48.681179 
L 50.522259 48.621232 
L 50.553361 48.663426 
L 50.575133 48.366576 
L 50.578243 48.211077 
L 50.621786 48.684142 
L 50.68399 48.421437 
L 50.774187 48.677806 
L 50.746195 48.335261 
L 50.795958 48.488255 
L 50.81773 48.345828 
L 50.836391 48.685969 
L 50.898596 48.548487 
L 51.007453 48.695779 
L 50.942139 48.401465 
L 51.010564 48.589303 
L 51.035445 48.304458 
L 51.091429 48.625931 
L 51.113201 48.567561 
L 51.116311 48.682894 
L 51.197177 48.439572 
L 51.222059 48.522962 
L 51.268712 48.681649 
L 51.23761 48.259424 
L 51.340247 48.676887 
L 51.402451 48.308231 
L 51.458435 48.525222 
L 51.461545 48.638309 
L 51.511309 48.120695 
L 51.564183 48.351283 
L 51.66993 48.649964 
L 51.601505 48.329916 
L 51.682371 48.471361 
L 51.769457 48.094929 
L 51.738355 48.62464 
L 51.797449 48.348133 
L 51.850323 48.686477 
L 51.862764 48.294967 
L 51.921858 48.503644 
L 51.931189 48.403451 
L 52.021385 48.686234 
L 52.027606 48.528315 
L 52.061818 48.686834 
L 52.036936 48.400954 
L 52.136463 48.516146 
L 52.186227 48.296755 
L 52.173786 48.644918 
L 52.223549 48.60391 
L 52.295084 48.68942 
L 52.316856 48.375586 
L 52.329297 48.558723 
L 52.37595 48.175391 
L 52.344848 48.649789 
L 52.472367 48.208191 
L 52.522131 48.676637 
L 52.599886 48.639003 
L 52.680752 48.268222 
L 52.699413 48.680488 
L 52.711854 48.373284 
L 52.774058 48.663712 
L 52.79272 48.364106 
L 52.820712 48.502157 
L 52.826932 48.254404 
L 52.907798 48.638719 
L 52.929569 48.489013 
L 52.93268 48.49022 
L 52.93579 48.435331 
L 52.94201 48.262978 
L 53.038427 48.670586 
L 53.091301 48.168239 
L 53.169056 48.32731 
L 53.197048 48.630496 
L 53.22193 48.308605 
L 53.277914 48.322672 
L 53.287245 48.174921 
L 53.315237 48.656426 
L 53.324567 48.599145 
L 53.355669 48.666711 
L 53.36811 48.20866 
L 53.420984 48.42098 
L 53.492519 48.671135 
L 53.470748 48.38666 
L 53.539172 48.561902 
L 53.588936 48.255437 
L 53.626259 48.673401 
L 53.65114 48.380181 
L 53.660471 48.638324 
L 53.688463 48.1493 
L 53.759998 48.291972 
L 53.875076 48.667256 
L 53.766219 48.258993 
L 53.918619 48.569898 
L 53.965273 48.36183 
L 54.008816 48.64341 
L 54.030587 48.511318 
L 54.036808 48.53125 
L 54.058579 48.673207 
L 54.139445 48.30002 
L 54.145665 48.468777 
L 54.148776 48.381423 
L 54.170547 48.659183 
L 54.257633 48.446137 
L 54.260744 48.384558 
L 54.322948 48.677911 
L 54.35716 48.602427 
L 54.456687 48.674081 
L 54.366491 48.527437 
L 54.466018 48.648969 
L 54.503341 48.696125 
L 54.577986 48.385056 
L 54.649521 48.681488 
L 54.689954 48.541561 
L 54.764599 48.685426 
L 54.721056 48.538612 
L 54.798812 48.581742 
L 54.811252 48.352593 
L 54.885898 48.672773 
L 54.91078 48.546499 
L 54.963653 48.695419 
L 54.941882 48.391708 
L 55.016527 48.632365 
L 55.128495 48.300479 
L 55.109834 48.694541 
L 55.131605 48.381578 
L 55.147156 48.680871 
L 55.178258 48.327711 
L 55.249793 48.654245 
L 55.311998 48.677349 
L 55.364872 48.326298 
L 55.458178 48.679336 
L 55.47995 48.606636 
L 55.504832 48.667059 
L 55.517272 48.372766 
L 55.585697 48.583124 
L 55.691445 48.41977 
L 55.660343 48.665274 
L 55.694555 48.466987 
L 55.797192 48.640519 
L 55.731878 48.419079 
L 55.806523 48.570622 
L 55.809633 48.576706 
L 55.812743 48.38262 
L 55.893609 48.177949 
L 55.859397 48.614909 
L 55.921601 48.235114 
L 56.002467 48.648601 
L 56.036679 48.548999 
L 56.083332 48.697676 
L 56.157978 48.247109 
L 56.235733 48.65082 
L 56.19219 48.225985 
L 56.276166 48.562036 
L 56.319709 48.330368 
L 56.297938 48.692519 
L 56.388134 48.535142 
L 56.391244 48.69111 
L 56.447228 48.320189 
L 56.496992 48.598653 
L 56.528094 48.346694 
L 56.590298 48.651812 
L 56.60896 48.385564 
L 56.643172 48.683963 
L 56.683605 48.354539 
L 56.724038 48.544148 
L 56.764471 48.677559 
L 56.826675 48.439385 
L 56.907541 48.261946 
L 56.848447 48.653839 
L 56.935533 48.44839 
L 56.947974 48.301031 
L 57.019509 48.650329 
L 57.03817 48.489419 
L 57.100374 48.145185 
L 57.150138 48.695589 
L 57.243445 48.403076 
L 57.262106 48.601632 
L 57.271437 48.622837 
L 57.277657 48.462505 
L 57.286988 48.534001 
L 57.290098 48.323528 
L 57.370964 48.684356 
L 57.395845 48.565983 
L 57.398956 48.657994 
L 57.417617 48.348197 
L 57.504703 48.561215 
L 57.551356 48.274632 
L 57.563797 48.639619 
L 57.610451 48.593714 
L 57.638442 48.658966 
L 57.666434 48.184455 
L 57.716198 48.537429 
L 57.787733 48.393223 
L 57.759741 48.680031 
L 57.825056 48.589764 
L 57.828166 48.648717 
L 57.896591 48.123599 
L 57.930803 48.627714 
L 58.02411 48.302617 
L 58.002338 48.68627 
L 58.042771 48.529275 
L 58.064543 48.676859 
L 58.055212 48.412702 
L 58.089424 48.53585 
L 58.095645 48.375802 
L 58.139188 48.700336 
L 58.201392 48.400481 
L 58.207613 48.689675 
L 58.30714 48.305464 
L 58.31647 48.191844 
L 58.341352 48.665831 
L 58.397336 48.444929 
L 58.493753 48.685709 
L 58.487533 48.395562 
L 58.509304 48.553818 
L 58.574619 48.355034 
L 58.534186 48.630093 
L 58.608831 48.587544 
L 58.671036 48.682052 
L 58.667925 48.456257 
L 58.717689 48.64481 
L 58.795444 48.236862 
L 58.810995 48.654783 
L 58.832767 48.493048 
L 58.947845 48.667283 
L 58.848318 48.440107 
L 58.954066 48.662872 
L 59.02249 48.434147 
L 59.072254 48.558308 
L 59.16245 48.660822 
L 59.090915 48.447274 
L 59.168671 48.544717 
L 59.174891 48.408221 
L 59.221545 48.693932 
L 59.280639 48.453767 
L 59.289969 48.687474 
L 59.339733 48.40848 
L 59.395717 48.620194 
L 59.451701 48.418845 
L 59.44237 48.628871 
L 59.507685 48.581646 
L 59.513905 48.454148 
L 59.58855 48.697297 
L 59.613432 48.591583 
L 59.650755 48.64469 
L 59.697408 48.363472 
L 59.71918 48.561275 
L 59.834258 48.171784 
L 59.784494 48.684262 
L 59.837368 48.349631 
L 59.899572 48.670535 
L 59.958667 48.617865 
L 60.067524 48.457888 
L 59.977328 48.684126 
L 60.073745 48.564122 
L 60.107957 48.639233 
L 60.111067 48.529508 
L 60.120398 48.375878 
L 60.135949 48.67784 
L 60.223035 48.451396 
L 60.28213 48.687059 
L 60.325673 48.423656 
L 60.328783 48.471499 
L 60.387877 48.328523 
L 60.369216 48.664046 
L 60.437641 48.514897 
L 60.443861 48.695543 
L 60.530947 48.275019 
L 60.540278 48.304155 
L 60.599372 48.668825 
L 60.624254 48.231204 
L 60.664687 48.58939 
L 60.71134 48.209493 
L 60.770434 48.615767 
L 60.785985 48.347983 
L 60.885512 48.662328 
L 60.841969 48.319416 
L 60.901063 48.623726 
L 60.944606 48.286327 
L 60.975709 48.638765 
L 61.022362 48.375159 
L 61.106338 48.692156 
L 61.128109 48.339187 
L 61.14366 48.596382 
L 61.162322 48.647284 
L 61.190314 48.427121 
L 61.224526 48.514478 
L 61.305392 48.381596 
L 61.324053 48.670153 
L 61.336494 48.459222 
L 61.367596 48.687802 
L 61.432911 48.396146 
L 61.436021 48.259234 
L 61.464013 48.629735 
L 61.538658 48.529939 
L 61.613304 48.678042 
L 61.56354 48.388752 
L 61.638185 48.509019 
L 61.725272 48.333291 
L 61.737713 48.632946 
L 61.747043 48.546846 
L 61.790586 48.513603 
L 61.809248 48.673961 
L 61.83724 48.63598 
L 61.942987 48.690102 
L 61.874562 48.423007 
L 61.946097 48.680685 
L 61.961648 48.448532 
L 62.042514 48.687425 
L 62.061175 48.531325 
L 62.064286 48.672715 
L 62.104718 48.36643 
L 62.170033 48.517755 
L 62.247789 48.244576 
L 62.232238 48.55157 
L 62.282001 48.448424 
L 62.381528 48.254049 
L 62.325544 48.657098 
L 62.387749 48.417615 
L 62.434402 48.689003 
L 62.502827 48.607025 
L 62.54326 48.700184 
L 62.524598 48.473344 
L 62.571252 48.508357 
L 62.611684 48.365117 
L 62.633456 48.687246 
L 62.673889 48.558821 
L 62.726763 48.673888 
L 62.754754 48.303489 
L 62.785857 48.580618 
L 62.795187 48.409475 
L 62.8294 48.689164 
L 62.897825 48.475939 
L 62.991131 48.657223 
L 62.963139 48.293143 
L 63.003572 48.483265 
L 63.059556 48.227018 
L 63.034674 48.686065 
L 63.10932 48.663546 
L 63.143532 48.444301 
L 63.221287 48.561545 
L 63.283492 48.686524 
L 63.311484 48.332162 
L 63.333255 48.622352 
L 63.426562 48.300031 
L 63.414121 48.6888 
L 63.442113 48.68256 
L 63.53542 48.357479 
L 63.557191 48.598234 
L 63.613175 48.679533 
L 63.638057 48.3875 
L 63.666049 48.565201 
L 63.743804 48.694775 
L 63.718923 48.449688 
L 63.778017 48.648667 
L 63.81534 48.4005 
L 63.796678 48.666692 
L 63.889985 48.549121 
L 63.977071 48.663572 
L 63.96152 48.341505 
L 63.998843 48.509991 
L 64.033055 48.694904 
L 64.008173 48.496939 
L 64.10459 48.503271 
L 64.1077 48.475168 
L 64.123251 48.675676 
L 64.201007 48.63877 
L 64.281873 48.486259 
L 64.294313 48.699534 
L 64.316085 48.59013 
L 64.372069 48.661088 
L 64.3814 48.437986 
L 64.421832 48.486389 
L 64.431163 48.401793 
L 64.487147 48.698862 
L 64.508919 48.567211 
L 64.568013 48.695332 
L 64.546241 48.355315 
L 64.617776 48.619761 
L 64.630217 48.451106 
L 64.679981 48.697844 
L 64.732854 48.506939 
L 64.835492 48.680792 
L 64.801279 48.357737 
L 64.841712 48.586795 
L 64.854153 48.382284 
L 64.95057 48.661426 
L 65.102971 48.362372 
L 64.981672 48.679793 
L 65.109191 48.483187 
L 65.118522 48.656742 
L 65.186947 48.207767 
L 65.221159 48.559018 
L 65.277143 48.207434 
L 65.242931 48.685926 
L 65.333127 48.435825 
L 65.417103 48.656629 
L 65.404662 48.269288 
L 65.448205 48.610542 
L 65.566393 48.259315 
L 65.482417 48.693911 
L 65.575724 48.439338 
L 65.609936 48.660193 
L 65.588165 48.304546 
L 65.687692 48.505528 
L 65.746786 48.320693 
L 65.721904 48.577667 
L 65.784109 48.460946 
L 65.812101 48.684494 
L 65.843203 48.437171 
L 65.899187 48.624405 
L 65.970722 48.260031 
L 65.911628 48.657336 
L 66.011155 48.423256 
L 66.107572 48.675679 
L 66.023596 48.381394 
L 66.126233 48.641338 
L 66.172886 48.19653 
L 66.191548 48.654414 
L 66.238201 48.550835 
L 66.312846 48.356017 
L 66.291075 48.671989 
L 66.347059 48.551221 
L 66.378161 48.696259 
L 66.418594 48.398021 
L 66.449696 48.438459 
L 66.452806 48.307985 
L 66.499459 48.703005 
L 66.552333 48.659478 
L 66.574105 48.681894 
L 66.598986 48.448603 
L 66.617648 48.567225 
L 66.64564 48.27644 
L 66.714065 48.668072 
L 66.726505 48.505195 
L 66.79182 48.693473 
L 66.804261 48.326314 
L 66.832253 48.585993 
L 66.854025 48.263952 
L 66.891347 48.677904 
L 66.944221 48.450259 
L 67.006425 48.677366 
L 66.953552 48.3525 
L 67.018866 48.446038 
L 67.025087 48.155776 
L 67.040638 48.626651 
L 67.127724 48.574452 
L 67.143275 48.285951 
L 67.168157 48.634019 
L 67.236582 48.510061 
L 67.34855 48.680601 
L 67.311227 48.406291 
L 67.35166 48.669028 
L 67.367211 48.346738 
L 67.429415 48.687307 
L 67.466738 48.528408 
L 67.49473 48.683017 
L 67.550714 48.390555 
L 67.572485 48.531474 
L 67.581816 48.258354 
L 67.675123 48.693661 
L 67.687563 48.41993 
L 67.700004 48.670799 
L 67.746658 48.318691 
L 67.799531 48.593941 
L 67.815083 48.431678 
L 67.830634 48.668963 
L 67.908389 48.56596 
L 67.91461 48.656752 
L 67.942602 48.427548 
L 68.017247 48.537715 
L 68.051459 48.284107 
L 68.032798 48.67966 
L 68.126105 48.459505 
L 68.20697 48.701406 
L 68.241183 48.643875 
L 68.312718 48.366367 
L 68.34693 48.675826 
L 68.35004 48.590504 
L 68.418465 48.694657 
L 68.396694 48.366089 
L 68.462008 48.637395 
L 68.558425 48.504077 
L 68.517992 48.690468 
L 68.580197 48.511375 
L 68.676613 48.684198 
L 68.636181 48.501917 
L 68.692165 48.565298 
L 68.710826 48.674469 
L 68.729487 48.466033 
L 68.801022 48.618749 
L 68.819684 48.399612 
L 68.881888 48.680894 
L 68.91299 48.551826 
L 69.018738 48.668985 
L 68.925431 48.455333 
L 69.021848 48.609698 
L 69.096493 48.413933 
L 69.090273 48.695402 
L 69.130706 48.631665 
L 69.143146 48.449533 
L 69.224012 48.676312 
L 69.242674 48.477685 
L 69.33287 48.682066 
L 69.267555 48.39927 
L 69.354641 48.607957 
L 69.423066 48.453987 
L 69.438617 48.699489 
L 69.466609 48.578346 
L 69.553696 48.704366 
L 69.48216 48.468224 
L 69.569247 48.6442 
L 69.650112 48.36304 
L 69.594128 48.645519 
L 69.678104 48.491755 
L 69.771411 48.682162 
L 69.721647 48.363425 
L 69.790072 48.567808 
L 69.827395 48.683212 
L 69.861607 48.381891 
L 69.880269 48.468728 
L 69.883379 48.238801 
L 69.939363 48.700523 
L 69.989126 48.470443 
L 70.051331 48.229695 
L 70.085543 48.677799 
L 70.094874 48.526737 
L 70.166409 48.632418 
L 70.125976 48.38262 
L 70.172629 48.431304 
L 70.234834 48.139779 
L 70.256605 48.680614 
L 70.281487 48.56983 
L 70.337471 48.33022 
L 70.297038 48.683414 
L 70.393455 48.534891 
L 70.499202 48.665018 
L 70.433888 48.25031 
L 70.508533 48.626089 
L 70.558297 48.291983 
L 70.61117 48.652853 
L 70.617391 48.649236 
L 70.660934 48.43064 
L 70.632942 48.690287 
L 70.729359 48.552155 
L 70.763571 48.690464 
L 70.791563 48.459623 
L 70.838216 48.515724 
L 70.844437 48.338689 
L 70.863098 48.677618 
L 70.947074 48.562948 
L 71.02483 48.372763 
L 70.990617 48.654799 
L 71.055932 48.540464 
L 71.087034 48.677282 
L 71.068373 48.400795 
L 71.16479 48.458397 
L 71.195892 48.661434 
L 71.254986 48.395068 
L 71.279868 48.62589 
L 71.292309 48.536228 
L 71.382505 48.399939 
L 71.335852 48.643027 
L 71.398056 48.622871 
L 71.401166 48.660394 
L 71.429158 48.457425 
L 71.503803 48.638646 
L 71.516244 48.41241 
L 71.562898 48.657849 
L 71.621992 48.4647 
L 71.625102 48.687009 
L 71.646874 48.326779 
L 71.73396 48.597321 
L 71.852148 48.282752 
L 71.761952 48.686011 
L 71.855258 48.310937 
L 71.87392 48.689404 
L 71.961006 48.279644 
L 71.970336 48.142478 
L 72.029431 48.687713 
L 72.057423 48.581115 
L 72.16628 48.695034 
L 72.104076 48.531345 
L 72.169391 48.629447 
L 72.184942 48.44371 
L 72.253367 48.649811 
L 72.278248 48.592565 
L 72.315571 48.689423 
L 72.337342 48.274444 
L 72.383996 48.593321 
L 72.486633 48.297413 
L 72.408878 48.654621 
L 72.495964 48.429219 
L 72.514625 48.688121 
L 72.561278 48.411417 
L 72.611042 48.624973 
L 72.698128 48.656024 
L 72.691908 48.398586 
L 72.716789 48.617664 
L 72.791435 48.313369 
L 72.72612 48.663142 
L 72.831867 48.577948 
L 72.86919 48.674984 
L 72.856749 48.474582 
L 72.940725 48.562005 
L 72.984268 48.684692 
L 73.01537 48.461451 
L 73.040252 48.523134 
L 73.043362 48.36153 
L 73.108677 48.667041 
L 73.14911 48.605776 
L 73.223755 48.441273 
L 73.164661 48.694471 
L 73.248637 48.662342 
L 73.251747 48.698355 
L 73.282849 48.507816 
L 73.341944 48.540478 
L 73.345054 48.432185 
L 73.441471 48.656154 
L 73.447691 48.587379 
L 73.513006 48.673318 
L 73.497455 48.412833 
L 73.547218 48.64763 
L 73.584541 48.425454 
L 73.646745 48.693177 
L 73.656076 48.602112 
L 73.752493 48.697857 
L 73.680958 48.454485 
L 73.764933 48.62207 
L 73.768044 48.470406 
L 73.873791 48.701832 
L 73.945326 48.404934 
L 73.988869 48.604352 
L 74.069735 48.68021 
L 74.085286 48.431906 
L 74.091507 48.65224 
L 74.187923 48.27523 
L 74.14127 48.682501 
L 74.203474 48.593925 
L 74.219026 48.459256 
L 74.250128 48.667122 
L 74.312332 48.477088 
L 74.330994 48.702777 
L 74.411859 48.466166 
L 74.4243 48.59778 
L 74.430521 48.686341 
L 74.439851 48.391492 
L 74.483394 48.524949 
L 74.489615 48.38084 
L 74.520717 48.690434 
L 74.589142 48.6326 
L 74.598472 48.651943 
L 74.604693 48.501759 
L 74.623354 48.398584 
L 74.673118 48.683441 
L 74.71044 48.54702 
L 74.822408 48.676972 
L 74.785086 48.271944 
L 74.825519 48.65692 
L 74.834849 48.686236 
L 74.865951 48.478528 
L 74.931266 48.399725 
L 74.956148 48.633924 
L 74.965478 48.45939 
L 75.002801 48.683037 
L 75.043234 48.311536 
L 75.077446 48.586936 
L 75.1241 48.303191 
L 75.108549 48.681184 
L 75.186304 48.486482 
L 75.254729 48.637845 
L 75.198745 48.301964 
L 75.298272 48.613282 
L 75.341815 48.671808 
L 75.41646 48.191671 
L 75.500436 48.691141 
L 75.534649 48.577101 
L 75.612404 48.673943 
L 75.562641 48.383509 
L 75.637286 48.61923 
L 75.649727 48.385707 
L 75.677719 48.694127 
L 75.746144 48.604458 
L 75.802128 48.684932 
L 75.777246 48.358417 
L 75.83945 48.596411 
L 75.904765 48.398936 
L 75.886104 48.675278 
L 75.948308 48.620265 
L 76.001182 48.460279 
L 75.97319 48.662131 
L 76.057166 48.61474 
L 76.141142 48.679432 
L 76.094488 48.372314 
L 76.144252 48.561251 
L 76.153582 48.43967 
L 76.246889 48.66469 
L 76.25311 48.620506 
L 76.299763 48.441183 
L 76.290432 48.671549 
L 76.358857 48.621347 
L 76.461494 48.679979 
L 76.40551 48.364547 
L 76.467715 48.626038 
L 76.473935 48.592022 
L 76.54236 48.38105 
L 76.517478 48.655651 
L 76.582793 48.606027 
L 76.623226 48.669022 
L 76.613895 48.362332 
L 76.67921 48.509713 
L 76.697871 48.443708 
L 76.744524 48.686844 
L 76.772516 48.550443 
L 76.8285 48.683969 
L 76.875154 48.322525 
L 76.881374 48.506455 
L 76.990232 48.263216 
L 76.890705 48.6459 
L 76.996452 48.356538 
L 77.015113 48.678027 
L 77.049326 48.353578 
L 77.10842 48.498214 
L 77.167514 48.345889 
L 77.176845 48.695025 
L 77.207947 48.6419 
L 77.211057 48.686041 
L 77.226608 48.389794 
L 77.310584 48.58369 
L 77.363458 48.355961 
L 77.316805 48.667667 
L 77.419442 48.572254 
L 77.456765 48.672077 
L 77.472316 48.453211 
L 77.522079 48.521301 
L 77.556292 48.365861 
L 77.53763 48.678469 
L 77.627827 48.531493 
L 77.637157 48.666247 
L 77.665149 48.433514 
L 77.733574 48.583881 
L 77.736684 48.434365 
L 77.755346 48.679419 
L 77.845542 48.504762 
L 77.926408 48.674991 
L 77.948179 48.41402 
L 77.9544 48.572124 
L 77.979282 48.371837 
L 78.050817 48.639256 
L 78.069478 48.486602 
L 78.137903 48.398143 
L 78.085029 48.654414 
L 78.175226 48.539965 
L 78.224989 48.69851 
L 78.262312 48.454344 
L 78.280973 48.475332 
L 78.284083 48.357985 
L 78.312075 48.688696 
L 78.38672 48.501577 
L 78.411602 48.699137 
L 78.417823 48.477133 
L 78.501799 48.617065 
L 78.511129 48.677929 
L 78.532901 48.41926 
L 78.610656 48.60836 
L 78.647979 48.524723 
L 78.691522 48.694195 
L 78.719514 48.628382 
L 78.80038 48.682999 
L 78.769278 48.421 
L 78.819041 48.628235 
L 78.822151 48.445506 
L 78.906127 48.684634 
L 78.931009 48.513292 
L 78.980772 48.676772 
L 78.986993 48.360755 
L 79.036756 48.534533 
L 79.055418 48.444036 
L 79.136283 48.679842 
L 79.145614 48.573939 
L 79.217149 48.405583 
L 79.167386 48.672412 
L 79.238921 48.510725 
L 79.335338 48.702656 
L 79.263803 48.458572 
L 79.350889 48.630962 
L 79.434865 48.692951 
L 79.381991 48.418254 
L 79.447306 48.569941 
L 79.456636 48.464197 
L 79.478408 48.689618 
L 79.546833 48.55413 
L 79.637029 48.693213 
L 79.624588 48.261976 
L 79.65569 48.558753 
L 79.661911 48.647597 
L 79.699233 48.42684 
L 79.702344 48.370016 
L 79.767658 48.635029 
L 79.801871 48.448434 
L 79.867185 48.667368 
L 79.854744 48.39218 
L 79.910728 48.640603 
L 79.966712 48.281486 
L 79.994704 48.671979 
L 80.022696 48.572049 
L 80.056909 48.372603 
L 80.07557 48.679655 
L 80.137774 48.493939 
L 80.21553 48.589447 
L 80.153325 48.229585 
L 80.224861 48.410153 
L 80.287065 48.219649 
L 80.302616 48.689057 
L 80.327498 48.591485 
L 80.339939 48.684514 
L 80.420804 48.304216 
L 80.433245 48.535148 
L 80.514111 48.410408 
L 80.467458 48.670533 
L 80.542103 48.562377 
L 80.613638 48.688766 
L 80.626079 48.453956 
L 80.64474 48.635706 
L 80.753598 48.355926 
L 80.654071 48.685259 
L 80.756708 48.49567 
L 80.812692 48.682345 
L 80.825133 48.459988 
L 80.868676 48.567625 
L 80.874897 48.34779 
L 80.946432 48.671921 
L 80.977534 48.504949 
L 81.024187 48.701626 
L 81.008636 48.381543 
L 81.089502 48.568944 
L 81.164147 48.661247 
L 81.173478 48.409246 
L 81.176588 48.471258 
L 81.263674 48.416411 
L 81.238792 48.678809 
L 81.279225 48.603082 
L 81.378752 48.672212 
L 81.338319 48.493209 
L 81.384973 48.575022 
L 81.428516 48.48254 
L 81.447177 48.680556 
L 81.500051 48.50287 
L 81.540484 48.702651 
L 81.552924 48.445013 
L 81.615129 48.606326 
L 81.62446 48.404317 
L 81.711546 48.693824 
L 81.727097 48.585746 
L 81.826624 48.347593 
L 81.739538 48.650748 
L 81.842175 48.448977 
L 81.91371 48.627621 
L 81.863946 48.305375 
L 81.954143 48.579669 
L 81.966584 48.336438 
L 81.994576 48.657476 
L 82.05989 48.6021 
L 82.106544 48.666251 
L 82.081662 48.406667 
L 82.128315 48.511588 
L 82.131425 48.389603 
L 82.187409 48.672705 
L 82.237173 48.478472 
L 82.262055 48.671454 
L 82.324259 48.423717 
L 82.349141 48.561033 
L 82.355361 48.684975 
L 82.395794 48.420551 
L 82.470439 48.611234 
L 82.489101 48.438781 
L 82.563746 48.659062 
L 82.579297 48.564868 
L 82.62284 48.658748 
L 82.663273 48.409127 
L 82.691265 48.633949 
L 82.797013 48.36636 
L 82.700596 48.645809 
L 82.809453 48.47521 
L 82.880988 48.687861 
L 82.89965 48.414016 
L 82.921421 48.658441 
L 83.020948 48.437598 
L 82.968075 48.684284 
L 83.033389 48.582595 
L 83.036499 48.679821 
L 83.092483 48.374519 
L 83.142247 48.551822 
L 83.18579 48.687003 
L 83.210672 48.444375 
L 83.244884 48.500027 
L 83.247994 48.35175 
L 83.282207 48.668133 
L 83.350632 48.662163 
L 83.419057 48.479254 
L 83.372403 48.690647 
L 83.46882 48.488091 
L 83.518584 48.68131 
L 83.552796 48.476539 
L 83.580788 48.576109 
L 83.683425 48.540368 
L 83.615 48.700251 
L 83.686535 48.598011 
L 83.773622 48.674254 
L 83.739409 48.48352 
L 83.795393 48.635051 
L 83.801614 48.530111 
L 83.838936 48.69402 
L 83.910471 48.603365 
L 83.991337 48.679103 
L 83.941573 48.454674 
L 84.006888 48.640888 
L 84.050431 48.402206 
L 84.069093 48.657593 
L 84.118856 48.57068 
L 84.128187 48.474393 
L 84.125076 48.664313 
L 84.227714 48.566815 
L 84.330351 48.695422 
L 84.280587 48.425333 
L 84.342792 48.645453 
L 84.349012 48.531882 
L 84.358343 48.442401 
L 84.389445 48.685238 
L 84.45476 48.589294 
L 84.526295 48.483567 
L 84.467201 48.643457 
L 84.541846 48.60443 
L 84.622712 48.695895 
L 84.585389 48.425773 
L 84.650704 48.578926 
L 84.672475 48.481792 
L 84.716018 48.677631 
L 84.759561 48.614097 
L 84.784443 48.409688 
L 84.831096 48.672384 
L 84.868419 48.544547 
L 84.88086 48.685919 
L 84.88397 48.511196 
L 84.980387 48.626248 
L 85.045702 48.383103 
L 85.002159 48.667221 
L 85.079914 48.593762 
L 85.083024 48.703884 
L 85.151449 48.480712 
L 85.188772 48.57101 
L 85.241645 48.30418 
L 85.204323 48.69085 
L 85.297629 48.511883 
L 85.359834 48.694234 
L 85.338062 48.438921 
L 85.403377 48.53214 
L 85.415818 48.211974 
L 85.487353 48.666199 
L 85.509124 48.633399 
L 85.512235 48.678229 
L 85.530896 48.290836 
L 85.608651 48.543741 
L 85.670856 48.41031 
L 85.695738 48.687702 
L 85.714399 48.605686 
L 85.73306 48.692419 
L 85.773493 48.462005 
L 85.820146 48.627613 
L 85.86991 48.389904 
L 85.826367 48.674842 
L 85.925894 48.631486 
L 85.972547 48.675212 
L 85.935225 48.474707 
L 86.034752 48.626317 
L 86.090736 48.431834 
L 86.096956 48.684152 
L 86.146719 48.552436 
L 86.193373 48.504509 
L 86.168491 48.677211 
L 86.202703 48.625617 
L 86.255577 48.678884 
L 86.280459 48.47113 
L 86.308451 48.613569 
L 86.417309 48.399608 
L 86.327112 48.635576 
L 86.423529 48.412506 
L 86.541717 48.683097 
L 86.557269 48.646467 
L 86.616363 48.500498 
L 86.603922 48.690568 
L 86.669236 48.608133 
L 86.71589 48.693982 
L 86.728331 48.533444 
L 86.765653 48.587402 
L 86.830968 48.363827 
L 86.840299 48.626249 
L 86.877621 48.522508 
L 86.911834 48.665287 
L 86.886952 48.350806 
L 86.983369 48.487091 
L 86.986479 48.404197 
L 87.017581 48.676111 
L 87.089116 48.60132 
L 87.107777 48.688931 
L 87.110888 48.557736 
L 87.123329 48.295948 
L 87.135769 48.66747 
L 87.222856 48.466875 
L 87.263288 48.698605 
L 87.294391 48.347361 
L 87.334824 48.564692 
L 87.350375 48.339683 
L 87.384587 48.648906 
L 87.440571 48.648448 
L 87.456122 48.378564 
L 87.471673 48.6942 
L 87.549429 48.542592 
L 87.589862 48.673425 
L 87.577421 48.384777 
L 87.658286 48.48223 
L 87.739152 48.362588 
L 87.788916 48.67576 
L 87.866671 48.401744 
L 87.900884 48.618147 
L 87.963088 48.46309 
L 87.910214 48.671935 
L 88.009741 48.591878 
L 88.059505 48.687961 
L 88.106158 48.361953 
L 88.112379 48.42707 
L 88.230567 48.683629 
L 88.239898 48.612137 
L 88.286551 48.358789 
L 88.27411 48.692298 
L 88.354976 48.498969 
L 88.42029 48.699531 
L 88.364306 48.469829 
L 88.454503 48.500094 
L 88.522928 48.355236 
L 88.501156 48.665344 
L 88.55714 48.521711 
L 88.634896 48.68776 
L 88.650447 48.430873 
L 88.665998 48.677895 
L 88.765525 48.350442 
L 88.6971 48.697988 
L 88.777966 48.548996 
L 88.871272 48.680107 
L 88.793517 48.441811 
L 88.883713 48.589639 
L 88.939697 48.425067 
L 88.893044 48.686578 
L 88.992571 48.647442 
L 89.020563 48.463572 
L 89.008122 48.669598 
L 89.101429 48.591624 
L 89.12631 48.693748 
L 89.179184 48.537118 
L 89.210286 48.66175 
L 89.294262 48.47966 
L 89.26316 48.691028 
L 89.319144 48.585917 
L 89.421781 48.696648 
L 89.359577 48.510249 
L 89.428002 48.612661 
L 89.480875 48.432191 
L 89.518198 48.682503 
L 89.536859 48.611675 
L 89.589733 48.689189 
L 89.605284 48.498212 
L 89.645717 48.6229 
L 89.726583 48.479986 
L 89.655048 48.687665 
L 89.754575 48.544942 
L 89.782567 48.690912 
L 89.857212 48.450922 
L 89.866543 48.570696 
L 89.941188 48.464022 
L 89.947408 48.683986 
L 89.978511 48.546256 
L 90.031384 48.683423 
L 90.040715 48.493691 
L 90.084258 48.594219 
L 90.165124 48.49691 
L 90.11225 48.689584 
L 90.196226 48.535492 
L 90.202446 48.689295 
L 90.25532 48.405901 
L 90.308194 48.62801 
L 90.357957 48.46305 
L 90.329965 48.699071 
L 90.413941 48.583401 
L 90.417052 48.676992 
L 90.501028 48.394042 
L 90.522799 48.581752 
L 90.53835 48.313807 
L 90.609885 48.683123 
L 90.634767 48.561507 
L 90.693861 48.667058 
L 90.721853 48.340253 
L 90.737404 48.396903 
L 90.740515 48.30871 
L 90.777837 48.653325 
L 90.843152 48.545455 
L 90.924017 48.673374 
L 90.908466 48.42894 
L 90.95823 48.629885 
L 90.96445 48.376714 
L 91.026655 48.680783 
L 91.067088 48.63728 
L 91.160394 48.66353 
L 91.09819 48.335522 
L 91.175945 48.632841 
L 91.197717 48.44254 
L 91.182166 48.681889 
L 91.287913 48.612025 
L 91.315905 48.384081 
L 91.365669 48.658938 
L 91.402991 48.505271 
L 91.446534 48.687009 
L 91.409212 48.415897 
L 91.514959 48.584039 
L 91.52429 48.482876 
L 91.570943 48.683728 
L 91.611376 48.656199 
L 91.620707 48.690629 
L 91.636258 48.388358 
L 91.679801 48.546706 
L 91.751336 48.376309 
L 91.763777 48.680658 
L 91.791769 48.50081 
L 91.885075 48.680958 
L 91.841532 48.482181 
L 91.900627 48.527207 
L 91.903737 48.475772 
L 91.919288 48.68894 
L 92.000154 48.595821 
L 92.003264 48.675112 
L 92.059248 48.484688 
L 92.109011 48.581048 
L 92.115232 48.420764 
L 92.205428 48.701741 
L 92.217869 48.639333 
L 92.239641 48.678793 
L 92.258302 48.39807 
L 92.308065 48.576267 
L 92.364049 48.393538 
L 92.320506 48.657953 
L 92.416923 48.5556 
L 92.476017 48.649946 
L 92.488458 48.484925 
L 92.525781 48.522485 
L 92.594206 48.687961 
L 92.572434 48.376969 
L 92.625308 48.569341 
L 92.628418 48.411687 
L 92.724835 48.663114 
L 92.734166 48.655297 
L 92.774598 48.371907 
L 92.749717 48.677756 
L 92.843023 48.603932 
L 92.917669 48.692094 
L 92.864795 48.463722 
L 92.948771 48.632477 
L 93.001644 48.455032 
L 93.057628 48.693886 
L 93.122943 48.410556 
L 93.175817 48.508636 
L 93.259793 48.677292 
L 93.21625 48.424867 
L 93.290895 48.654945 
L 93.294005 48.655301 
L 93.343769 48.389307 
L 93.396642 48.681435 
L 93.402863 48.607378 
L 93.477508 48.687011 
L 93.458847 48.405953 
L 93.50239 48.625988 
L 93.555264 48.421 
L 93.589476 48.693834 
L 93.611248 48.482656 
L 93.65168 48.699468 
L 93.713885 48.412606 
L 93.720105 48.491189 
L 93.804081 48.648544 
L 93.726326 48.474445 
L 93.816522 48.529216 
L 93.919159 48.37448 
L 93.835183 48.65781 
L 93.92538 48.4324 
L 93.9316 48.695262 
L 94.037348 48.605337 
L 94.124434 48.51287 
L 94.077781 48.690906 
L 94.146205 48.571309 
L 94.21152 48.682664 
L 94.239512 48.452109 
L 94.255063 48.649888 
L 94.360811 48.489985 
L 94.283055 48.688554 
L 94.363921 48.558579 
L 94.466558 48.693735 
L 94.469668 48.51085 
L 94.472779 48.619761 
L 94.482109 48.526393 
L 94.513211 48.702776 
L 94.584746 48.577715 
L 94.656282 48.68701 
L 94.622069 48.523126 
L 94.690494 48.668023 
L 94.702935 48.532433 
L 94.702935 48.532433 
" clip-path="url(#p49fe86a5a6)" style="fill: none; stroke: #2ca02c; stroke-width: 0.5; stroke-linecap: square"/>
   </g>
  </g>
 </g>
 <defs>
  <clipPath id="p49fe86a5a6">
   <rect x="0" y="-0" width="99.212598" height="51.023622"/>
  </clipPath>
 </defs>
</svg>
