<?xml version="1.0" encoding="utf-8" standalone="no"?>
<!DOCTYPE svg PUBLIC "-//W3C//DTD SVG 1.1//EN"
  "http://www.w3.org/Graphics/SVG/1.1/DTD/svg11.dtd">
<svg xmlns:xlink="http://www.w3.org/1999/xlink" width="99.212598pt" height="51.023622pt" viewBox="0 0 99.212598 51.023622" xmlns="http://www.w3.org/2000/svg" version="1.1">
 <metadata>
  <rdf:RDF xmlns:dc="http://purl.org/dc/elements/1.1/" xmlns:cc="http://creativecommons.org/ns#" xmlns:rdf="http://www.w3.org/1999/02/22-rdf-syntax-ns#">
   <cc:Work>
    <dc:type rdf:resource="http://purl.org/dc/dcmitype/StillImage"/>
    <dc:date>2024-10-30T10:51:15.829000</dc:date>
    <dc:format>image/svg+xml</dc:format>
    <dc:creator>
     <cc:Agent>
      <dc:title>Matplotlib v3.8.4, https://matplotlib.org/</dc:title>
     </cc:Agent>
    </dc:creator>
   </cc:Work>
  </rdf:RDF>
 </metadata>
 <defs>
  <style type="text/css">*{stroke-linejoin: round; stroke-linecap: butt}</style>
 </defs>
 <g id="figure_1">
  <g id="patch_1">
   <path d="M 0 51.023622 
L 99.212598 51.023622 
L 99.212598 0 
L 0 0 
L 0 51.023622 
z
" style="fill: none"/>
  </g>
  <g id="axes_1">
   <g id="patch_2">
    <path d="M 0 51.023622 
L 99.212598 51.023622 
L 99.212598 -0 
L 0 -0 
L 0 51.023622 
z
" style="fill: none"/>
   </g>
   <g id="matplotlib.axis_1">
    <g id="xtick_1"/>
    <g id="xtick_2"/>
   </g>
   <g id="matplotlib.axis_2">
    <g id="ytick_1"/>
    <g id="ytick_2"/>
   </g>
   <g id="line2d_1">
    <path d="M 4.509664 36.363265 
L 4.556317 39.03363 
L 4.59986 45.688272 
L 4.640293 35.998937 
L 4.761591 2.319256 
L 4.817575 15.204004 
L 4.910882 47.59909 
L 4.973086 36.087677 
L 4.979307 35.69277 
L 5.01974 40.016684 
L 5.047732 44.206729 
L 5.116156 37.920168 
L 5.144148 37.286053 
L 5.178361 38.413455 
L 5.215684 38.393078 
L 5.237455 38.978094 
L 5.290329 48.371429 
L 5.405407 43.674478 
L 5.45206 45.077696 
L 5.473832 43.388332 
L 5.607571 32.269753 
L 5.648004 34.777387 
L 5.716429 39.64631 
L 5.766192 36.060254 
L 5.822176 31.093898 
L 5.884381 34.402541 
L 6.136309 47.950411 
L 6.15808 46.356603 
L 6.242056 46.065224 
L 6.201623 47.130063 
L 6.260717 46.627852 
L 6.273158 47.131414 
L 6.307371 44.670527 
L 6.326032 43.551369 
L 6.397567 46.198205 
L 6.403788 46.311065 
L 6.447331 44.220686 
L 6.462882 43.694891 
L 6.518866 46.732819 
L 6.521976 46.689706 
L 6.528196 46.542837 
L 6.571739 44.65608 
L 6.615283 47.522933 
L 6.661936 48.511718 
L 6.702369 46.696956 
L 6.72103 47.173447 
L 6.745912 48.253747 
L 6.780124 47.020197 
L 6.826778 47.071107 
L 6.8641 44.600944 
L 6.941856 46.763452 
L 6.966737 47.167449 
L 7.016501 45.805997 
L 7.019611 45.866514 
L 7.1378 47.671354 
L 7.032052 45.824003 
L 7.175122 46.659936 
L 7.327523 43.625961 
L 7.339964 43.906819 
L 7.439491 48.207648 
L 7.526577 47.427165 
L 7.582561 46.122373 
L 7.551459 48.510472 
L 7.635435 47.501056 
L 7.657206 48.314711 
L 7.731852 46.470635 
L 7.738072 46.414602 
L 7.756733 46.927307 
L 7.790946 48.156265 
L 7.85004 46.826923 
L 7.871811 47.067783 
L 7.930906 47.201391 
L 7.946457 46.838911 
L 7.949567 46.84787 
L 7.99 45.913373 
L 8.073976 46.080488 
L 8.117519 46.772113 
L 8.151731 45.909756 
L 8.201495 46.521403 
L 8.241928 45.737129 
L 8.291691 46.830956 
L 8.297912 46.746137 
L 8.450312 48.603077 
L 8.322793 46.636153 
L 8.472084 48.288995 
L 8.503186 46.923972 
L 8.599603 47.225665 
L 8.615154 46.907591 
L 8.652477 47.634284 
L 8.686689 47.506331 
L 8.70224 47.822243 
L 8.727122 48.620956 
L 8.773775 46.532952 
L 8.795547 47.137102 
L 8.851531 48.394948 
L 8.801767 47.11551 
L 8.919956 47.433944 
L 9.031924 45.697359 
L 8.966609 47.626895 
L 9.056805 46.472352 
L 9.165663 47.323316 
L 9.12523 45.962683 
L 9.178104 47.013558 
L 9.209206 46.310076 
L 9.246529 47.527645 
L 9.277631 47.335752 
L 9.324284 48.534858 
L 9.364717 46.509461 
L 9.367827 46.490064 
L 9.386489 47.059819 
L 9.470465 48.602866 
L 9.498457 47.087395 
L 9.520228 47.853767 
L 9.532669 48.45935 
L 9.616645 47.183408 
L 9.769046 48.623671 
L 9.843691 47.928483 
L 9.853022 47.586627 
L 9.905895 48.611454 
L 9.949438 48.129424 
L 10.014753 48.551209 
L 10.036525 47.41261 
L 10.042745 47.305569 
L 10.067627 47.96022 
L 10.070737 47.958049 
L 10.151603 48.544412 
L 10.092509 47.343995 
L 10.167154 47.813935 
L 10.188925 47.324465 
L 10.238689 48.452711 
L 10.276012 47.870623 
L 10.294673 48.05324 
L 10.310224 47.765477 
L 10.353767 45.706847 
L 10.409751 47.980382 
L 10.419082 48.527555 
L 10.468845 47.751278 
L 10.518609 48.04893 
L 10.53416 47.699603 
L 10.562152 48.124263 
L 10.630577 47.914596 
L 10.730104 48.697327 
L 10.649238 47.67821 
L 10.748765 48.328946 
L 10.898056 46.540679 
L 10.782977 48.510597 
L 10.96026 47.220879 
L 10.969591 47.102597 
L 10.988252 47.48113 
L 11.016244 48.664477 
L 11.090889 47.209137 
L 11.093999 47.252214 
L 11.10644 46.845338 
L 11.174865 48.287005 
L 11.181086 48.487134 
L 11.233959 46.826806 
L 11.261951 47.291141 
L 11.293053 46.351451 
L 11.327266 47.666748 
L 11.352148 48.305078 
L 11.398801 46.92834 
L 11.414352 46.700141 
L 11.495218 47.747215 
L 11.613406 48.581096 
L 11.52321 47.611516 
L 11.650729 48.28953 
L 11.681831 47.923661 
L 11.731595 48.681213 
L 11.756476 48.500179 
L 11.759587 48.530662 
L 11.81557 48.080831 
L 11.859114 48.486227 
L 11.905767 47.562029 
L 11.939979 48.638739 
L 11.977302 48.111472 
L 11.983522 48.068624 
L 12.005294 48.350021 
L 12.055057 48.337082 
L 12.061278 48.404693 
L 12.09549 47.564117 
L 12.104821 47.606188 
L 12.120372 47.902721 
L 12.23234 48.467321 
L 12.173246 47.421743 
L 12.23545 48.378634 
L 12.347418 46.940397 
L 12.285214 48.511673 
L 12.397182 47.824917 
L 12.471827 48.204289 
L 12.496709 47.510805 
L 12.502929 47.654419 
L 12.642889 46.469006 
L 12.65844 46.843848 
L 12.723755 48.664702 
L 12.776628 47.383181 
L 12.779739 47.296748 
L 12.823282 47.867407 
L 12.869935 47.758643 
L 12.922809 48.597208 
L 12.991234 48.174297 
L 13.000564 48.070632 
L 13.07521 48.553761 
L 13.08765 48.431993 
L 13.140524 47.849008 
L 13.106312 48.700996 
L 13.180957 48.617314 
L 13.196508 48.65866 
L 13.230721 48.065758 
L 13.233831 48.068559 
L 13.283594 47.933366 
L 13.252492 48.328624 
L 13.320917 48.257348 
L 13.327137 48.433758 
L 13.392452 47.746499 
L 13.432885 48.392274 
L 13.488869 47.49013 
L 13.538632 48.468255 
L 13.544853 48.63686 
L 13.610167 47.840147 
L 13.631939 47.952 
L 13.659931 47.482989 
L 13.691033 48.499987 
L 13.747017 48.662359 
L 13.78434 47.903042 
L 13.840324 46.303776 
L 13.918079 47.070439 
L 14.008276 48.138631 
L 14.039378 47.850779 
L 14.042488 47.823952 
L 14.086031 48.292152 
L 14.101582 48.603075 
L 14.176227 47.406997 
L 14.182448 47.527976 
L 14.204219 47.847539 
L 14.303747 48.601474 
L 14.229101 47.756797 
L 14.34729 48.384347 
L 14.440596 48.021923 
L 14.453037 48.404493 
L 14.462368 48.66102 
L 14.49969 47.907234 
L 14.558785 48.394257 
L 14.596107 48.635095 
L 14.689414 47.636223 
L 14.810712 48.651743 
L 14.820043 48.378317 
L 14.891578 47.174255 
L 14.941342 48.198462 
L 14.972444 48.436625 
L 15.025318 47.758154 
L 15.028428 47.838824 
L 15.071971 47.402914 
L 15.106183 48.294742 
L 15.112404 48.290692 
L 15.115514 48.321813 
L 15.140396 47.474017 
L 15.177718 47.260102 
L 15.211931 48.083169 
L 15.274135 48.654499 
L 15.302127 47.534303 
L 15.323899 48.181446 
L 15.410985 48.434237 
L 15.395434 48.00178 
L 15.429646 48.068978 
L 15.550945 47.677366 
L 15.476299 48.595459 
L 15.554055 47.689425 
L 15.662913 48.625494 
L 15.678464 48.293324 
L 15.697125 47.872499 
L 15.76866 48.616312 
L 15.777991 48.431474 
L 15.781101 48.556148 
L 15.821534 47.80618 
L 15.886849 48.446758 
L 15.977045 47.719639 
L 16.008147 48.136529 
L 16.017478 48.292651 
L 16.020588 48.496923 
L 16.070351 47.240593 
L 16.123225 48.075848 
L 16.126335 47.94581 
L 16.163658 48.415741 
L 16.228973 48.231696 
L 16.256965 48.557824 
L 16.291177 47.649279 
L 16.322279 48.139866 
L 16.434247 47.530625 
L 16.400035 48.230517 
L 16.446688 47.575351 
L 16.47157 47.866549 
L 16.546215 47.299871 
L 16.592868 47.063354 
L 16.62086 47.781755 
L 16.667514 48.49368 
L 16.735939 48.253936 
L 16.742159 48.141806 
L 16.770151 48.675123 
L 16.838576 48.343057 
L 16.844796 48.428797 
L 16.879009 47.898603 
L 16.919442 48.026118 
L 16.931882 47.868907 
L 16.947434 48.391767 
L 17.022079 48.116999 
L 17.149598 48.635965 
L 17.074953 48.032553 
L 17.165149 48.544819 
L 17.218023 48.308819 
L 17.249125 48.652718 
L 17.274007 48.427075 
L 17.382864 48.672942 
L 17.311329 47.624525 
L 17.389085 48.563115 
L 17.488612 47.502468 
L 17.423297 48.644823 
L 17.510383 47.971762 
L 17.538375 48.453897 
L 17.60369 47.360676 
L 17.613021 47.063395 
L 17.650343 47.956027 
L 17.703217 47.691757 
L 17.734319 48.081074 
L 17.771642 47.538959 
L 17.805854 47.65887 
L 17.836956 47.138227 
L 17.911602 47.786159 
L 18.02668 48.598954 
L 18.036011 48.366407 
L 18.067113 48.136469 
L 18.113766 48.598375 
L 18.147978 48.279787 
L 18.213293 48.553089 
L 18.16664 48.036705 
L 18.259946 48.522573 
L 18.284828 47.960737 
L 18.359473 48.660667 
L 18.368804 48.54372 
L 18.412347 48.645467 
L 18.434119 47.930551 
L 18.468331 48.412153 
L 18.580299 48.033894 
L 18.505654 48.511176 
L 18.59896 48.275817 
L 18.620732 48.210581 
L 18.726479 48.644957 
L 18.841558 48.188025 
L 18.891321 48.600086 
L 18.928644 48.017779 
L 19.037501 47.758557 
L 18.981517 48.240927 
L 19.043722 47.832701 
L 19.065493 48.344973 
L 19.15258 47.827854 
L 19.171241 47.247041 
L 19.221004 48.285692 
L 19.267658 47.550624 
L 19.289429 47.289722 
L 19.320531 47.788191 
L 19.323642 47.724158 
L 19.385846 48.302161 
L 19.43561 47.768021 
L 19.603561 48.628068 
L 19.619113 48.359613 
L 19.625333 48.139592 
L 19.703089 48.63792 
L 19.731081 48.250314 
L 19.743521 48.03958 
L 19.780844 48.625083 
L 19.799505 48.493629 
L 19.86793 48.615124 
L 19.833718 48.0978 
L 19.905253 48.39644 
L 19.930135 48.091612 
L 20.00478 48.594078 
L 20.026551 48.654606 
L 20.063874 47.982951 
L 20.091866 48.169268 
L 20.163401 48.029526 
L 20.126078 48.521226 
L 20.185173 48.291449 
L 20.250487 48.02911 
L 20.300251 48.618828 
L 20.365565 47.956468 
L 20.421549 48.316454 
L 20.440211 48.66904 
L 20.524187 48.17945 
L 20.527297 48.20628 
L 20.57084 48.090959 
L 20.620603 48.430635 
L 20.623714 48.514627 
L 20.685918 47.670797 
L 20.7108 48.00686 
L 20.832098 47.029722 
L 20.748122 48.689481 
L 20.844539 47.370886 
L 20.975169 48.530794 
L 20.99383 48.65226 
L 21.031152 48.253588 
L 21.062255 48.358988 
L 21.093357 48.201402 
L 21.1369 48.578841 
L 21.14001 48.560686 
L 21.214655 48.639378 
L 21.199104 48.063216 
L 21.223986 48.335266 
L 21.242647 48.069399 
L 21.267529 48.569968 
L 21.332844 48.39343 
L 21.335954 48.392094 
L 21.339064 48.460791 
L 21.345285 48.566956 
L 21.404379 47.980134 
L 21.447922 48.43269 
L 21.550559 48.161129 
L 21.494575 48.656022 
L 21.563 48.219892 
L 21.684299 48.629489 
L 21.628315 48.200412 
L 21.693629 48.558922 
L 21.790046 48.206939 
L 21.712291 48.674361 
L 21.818038 48.427173 
L 21.830479 48.632255 
L 21.880243 47.900994 
L 21.926896 48.437589 
L 21.973549 47.934359 
L 21.936227 48.676155 
L 22.045084 48.229976 
L 22.12284 47.797692 
L 22.169493 48.595999 
L 22.331224 47.288015 
L 22.356106 47.920912 
L 22.374768 48.663556 
L 22.471184 48.213473 
L 22.489846 47.743748 
L 22.570711 48.57296 
L 22.639136 48.616113 
L 22.601814 48.224441 
L 22.664018 48.347885 
L 22.682679 47.946329 
L 22.744884 48.628925 
L 22.766655 48.487667 
L 22.800868 48.685467 
L 22.82886 48.339867 
L 22.872403 48.484658 
L 22.96882 48.044409 
L 22.903505 48.498811 
L 22.98126 48.416317 
L 23.055906 48.642325 
L 23.024804 48.253276 
L 23.090118 48.495608 
L 23.149212 48.239713 
L 23.102559 48.683389 
L 23.202086 48.378001 
L 23.26118 48.657239 
L 23.304723 47.994568 
L 23.310944 48.30701 
L 23.422912 48.054106 
L 23.345156 48.661015 
L 23.429132 48.083254 
L 23.482006 48.512984 
L 23.547321 48.163331 
L 23.590864 48.684429 
L 23.556651 48.098505 
L 23.712162 48.433842 
L 23.82724 47.99663 
L 23.786807 48.571607 
L 23.842791 48.080714 
L 23.95787 48.516013 
L 23.979641 48.31278 
L 23.998302 47.830836 
L 24.032515 48.432205 
L 24.085389 48.38885 
L 24.194246 48.689351 
L 24.132042 47.652954 
L 24.212908 48.641886 
L 24.306214 48.031468 
L 24.231569 48.687708 
L 24.349757 48.292233 
L 24.455505 48.681857 
L 24.402631 48.272625 
L 24.467946 48.449939 
L 24.583024 48.670123 
L 24.520819 48.380315 
L 24.589244 48.589006 
L 24.685661 48.293058 
L 24.595465 48.680839 
L 24.701212 48.451722 
L 24.713653 48.664543 
L 24.794519 48.20924 
L 24.81007 48.393751 
L 24.81318 48.318988 
L 24.894046 48.683306 
L 24.918928 48.347633 
L 24.940699 48.63594 
L 24.928258 48.296336 
L 25.027785 48.345428 
L 25.121092 47.804535 
L 25.086879 48.574453 
L 25.149084 47.892583 
L 25.195737 48.41586 
L 25.264162 48.076399 
L 25.267272 48.016272 
L 25.301485 48.627998 
L 25.357469 48.414664 
L 25.385461 48.177025 
L 25.419673 48.66878 
L 25.444555 48.560026 
L 25.481877 48.661841 
L 25.531641 48.108784 
L 25.537861 48.234932 
L 25.590735 47.965464 
L 25.637388 48.405759 
L 25.65605 48.031468 
L 25.708923 48.567576 
L 25.66538 47.971986 
L 25.780459 48.442583 
L 25.79912 47.876995 
L 25.864434 48.690232 
L 25.892426 48.363611 
L 25.998174 48.64382 
L 25.973292 48.031042 
L 26.010615 48.539689 
L 26.122583 48.11212 
L 26.044827 48.679952 
L 26.128803 48.145301 
L 26.200338 48.643118 
L 26.265653 48.491325 
L 26.324747 48.15055 
L 26.296755 48.60172 
L 26.3714 48.581117 
L 26.383841 48.661576 
L 26.458486 48.307232 
L 26.474038 48.448273 
L 26.50203 48.669994 
L 26.558014 48.303855 
L 26.564234 48.352456 
L 26.570454 48.159592 
L 26.657541 48.654624 
L 26.676202 48.243028 
L 26.688643 48.155339 
L 26.716635 48.569791 
L 26.769508 48.309968 
L 26.822382 48.613457 
L 26.7975 47.960009 
L 26.875256 48.119985 
L 26.881476 48.061386 
L 26.900138 48.465773 
L 26.971673 48.63867 
L 26.946791 48.236226 
L 26.999665 48.340434 
L 27.099192 47.980361 
L 27.027657 48.599914 
L 27.111633 48.30152 
L 27.167617 48.153137 
L 27.148955 48.449352 
L 27.204939 48.380094 
L 27.254703 48.660002 
L 27.239152 48.214034 
L 27.313797 48.341022 
L 27.413324 48.008361 
L 27.338679 48.617142 
L 27.422655 48.392773 
L 27.522182 48.665524 
L 27.475528 47.954818 
L 27.534623 48.452381 
L 27.609268 48.229176 
L 27.581276 48.675327 
L 27.63726 48.614149 
L 27.64037 48.65761 
L 27.668362 48.216245 
L 27.727456 48.344927 
L 27.743007 48.15292 
L 27.764779 48.611765 
L 27.805212 48.606203 
L 27.808322 48.675317 
L 27.879857 48.134113 
L 27.907849 48.492228 
L 27.932731 48.378798 
L 27.963833 48.618227 
L 27.966943 48.681414 
L 27.998045 48.335472 
L 28.06336 48.432242 
L 28.172218 48.235574 
L 28.100683 48.656228 
L 28.175328 48.370911 
L 28.296627 48.665232 
L 28.225091 48.197323 
L 28.299737 48.663045 
L 28.399264 48.216539 
L 28.414815 48.441241 
L 28.427256 48.665818 
L 28.508121 48.246805 
L 28.514342 48.396982 
L 28.588987 48.121392 
L 28.548554 48.58418 
L 28.6232 48.406551 
L 28.62631 48.391694 
L 28.682294 48.633134 
L 28.756939 48.684507 
L 28.735168 48.527636 
L 28.784931 48.647722 
L 28.834695 48.092082 
L 28.90934 48.248548 
L 28.937332 48.625306 
L 29.005757 47.884514 
L 29.008867 47.888341 
L 29.027528 47.58565 
L 29.095953 48.442553 
L 29.108394 48.299142 
L 29.217252 48.618235 
L 29.161268 47.912723 
L 29.226582 48.588812 
L 29.257685 48.625892 
L 29.347881 48.124972 
L 29.375873 48.635894 
L 29.494061 48.445692 
L 29.543825 48.276728 
L 29.568707 48.652893 
L 29.602919 48.390155 
L 29.62158 48.693441 
L 29.705556 48.202864 
L 29.864177 48.641358 
L 29.879729 48.463959 
L 29.889059 48.35345 
L 29.917051 48.654952 
L 29.982366 48.528512 
L 30.001027 48.663099 
L 30.081893 48.241194 
L 30.088113 48.372759 
L 30.109885 48.638302 
L 30.140987 48.299926 
L 30.215632 48.567899 
L 30.290278 48.257053 
L 30.249845 48.643071 
L 30.32138 48.531177 
L 30.368033 48.6948 
L 30.343151 48.234047 
L 30.430237 48.511693 
L 30.507993 48.663125 
L 30.46445 48.444121 
L 30.520434 48.491771 
L 30.563977 48.688467 
L 30.635512 48.252852 
L 30.75059 48.53663 
L 30.728819 48.096677 
L 30.7537 48.463326 
L 30.775472 48.056795 
L 30.840787 48.663838 
L 30.862558 48.594346 
L 30.865668 48.684062 
L 30.952754 48.264829 
L 30.971416 48.585642 
L 31.067833 48.094405 
L 31.021179 48.64315 
L 31.086494 48.404091 
L 31.145588 48.586745 
L 31.182911 47.977692 
L 31.186021 48.061836 
L 31.338422 48.689921 
L 31.347752 48.618738 
L 31.406847 48.157198 
L 31.381965 48.665282 
L 31.45972 48.597863 
L 31.577909 48.1601 
L 31.521925 48.67971 
L 31.59657 48.541368 
L 31.699207 48.680849 
L 31.627672 48.28201 
L 31.705428 48.596964 
L 31.745861 48.323538 
L 31.764522 48.690515 
L 31.817396 48.530287 
L 31.88271 48.690498 
L 31.907592 48.314929 
L 31.926253 48.53636 
L 32.038221 48.133683 
L 32.000899 48.669337 
L 32.044442 48.281665 
L 32.087985 48.6814 
L 32.128418 48.272491 
L 32.15641 48.384785 
L 32.16263 48.343417 
L 32.190622 48.618052 
L 32.227945 48.577067 
L 32.321251 48.670893 
L 32.283929 48.461277 
L 32.336802 48.609151 
L 32.417668 48.373716 
L 32.436329 48.663522 
L 32.44566 48.57141 
L 32.44877 48.625222 
L 32.517195 48.151538 
L 32.542077 48.351226 
L 32.545187 48.357167 
L 32.566959 48.174278 
L 32.635383 47.833844 
L 32.669596 48.424595 
L 32.675816 48.183844 
L 32.747351 48.639315 
L 32.688257 48.077099 
L 32.784674 48.178118 
L 32.787784 48.115876 
L 32.825107 48.673181 
L 32.86865 48.631177 
L 32.87176 48.697084 
L 32.946406 48.24532 
L 32.968177 48.416926 
L 33.039712 48.217906 
L 32.996169 48.675541 
L 33.073925 48.610658 
L 33.136129 48.413546 
L 33.182782 48.660329 
L 33.276089 48.034651 
L 33.238766 48.678429 
L 33.300971 48.419015 
L 33.316522 48.676573 
L 33.353844 48.300811 
L 33.416049 48.58617 
L 33.44093 48.477877 
L 33.462702 48.688651 
L 33.518686 48.644716 
L 33.521796 48.675246 
L 33.549788 48.367908 
L 33.608882 48.480265 
L 33.695969 48.303987 
L 33.630654 48.589144 
L 33.71774 48.465913 
L 33.779944 48.594699 
L 33.795496 48.272952 
L 33.820377 48.391974 
L 33.832818 48.336277 
L 33.873251 48.678045 
L 33.904353 48.505287 
L 33.941676 48.674478 
L 33.988329 48.365158 
L 34.016321 48.567488 
L 34.056754 48.365482 
L 34.031872 48.646407 
L 34.118958 48.60707 
L 34.178053 48.652469 
L 34.131399 48.448752 
L 34.209155 48.555277 
L 34.224706 48.371291 
L 34.265139 48.633314 
L 34.324233 48.433169 
L 34.42376 48.615678 
L 34.383327 48.326535 
L 34.436201 48.497497 
L 34.461083 47.965655 
L 34.538838 48.569241 
L 34.545059 48.509481 
L 34.616594 48.600704 
L 34.597932 48.113297 
L 34.647696 48.44804 
L 34.672578 48.127786 
L 34.716121 48.54219 
L 34.756554 48.493953 
L 34.759664 48.649424 
L 34.837419 48.15778 
L 34.865411 48.477833 
L 34.871632 48.308311 
L 34.905844 48.691552 
L 34.974269 48.486982 
L 35.020922 48.680066 
L 35.030253 48.45657 
L 35.089347 48.549034 
L 35.170213 48.398479 
L 35.114229 48.64113 
L 35.198205 48.569861 
L 35.207535 48.624193 
L 35.219976 48.418171 
L 35.223087 48.426449 
L 35.238638 48.139593 
L 35.328834 48.655379 
L 35.4097 48.267485 
L 35.447022 48.40028 
L 35.534109 48.287943 
L 35.468794 48.653765 
L 35.546549 48.385305 
L 35.562101 48.671205 
L 35.649187 48.311752 
L 35.655407 48.361726 
L 35.711391 48.193006 
L 35.686509 48.663211 
L 35.754934 48.531528 
L 35.829579 48.621484 
L 35.776706 48.141552 
L 35.854461 48.434545 
L 35.894894 48.373 
L 35.873123 48.686787 
L 35.950878 48.399143 
L 35.966429 48.669101 
L 36.037964 48.372761 
L 36.062846 48.51885 
L 36.159263 48.368459 
L 36.11572 48.671789 
L 36.168593 48.513406 
L 36.181034 48.667272 
L 36.209026 48.186107 
L 36.274341 48.377585 
L 36.280561 48.5007 
L 36.299223 48.160812 
L 36.352096 48.343413 
L 36.367648 47.888905 
L 36.460954 48.416905 
L 36.482726 48.682015 
L 36.529379 48.249773 
L 36.572922 48.503242 
L 36.585363 48.418912 
L 36.597804 48.567215 
L 36.619575 48.535108 
L 36.675559 48.684523 
L 36.641347 48.306751 
L 36.728433 48.553163 
L 36.775086 48.16621 
L 36.759535 48.629159 
L 36.837291 48.521355 
L 36.911936 48.584395 
L 36.890165 48.19558 
L 36.933708 48.430966 
L 37.011463 48.376711 
L 36.96481 48.570228 
L 37.027014 48.569714 
L 37.030124 48.672654 
L 37.042565 48.387773 
L 37.135872 48.639111 
L 37.173195 48.433676 
L 37.154533 48.699656 
L 37.25095 48.498791 
L 37.269611 48.654056 
L 37.306934 48.286632 
L 37.356698 48.489587 
L 37.369138 48.285896 
L 37.431343 48.653103 
L 37.474886 48.340325 
L 37.53087 48.687818 
L 37.549531 48.209772 
L 37.589964 48.616438 
L 37.624176 48.307509 
L 37.695712 48.654259 
L 37.698822 48.65378 
L 37.804569 48.197928 
L 37.729924 48.660579 
L 37.823231 48.577994 
L 37.857443 48.640304 
L 37.876104 48.205984 
L 37.907206 48.31629 
L 37.910317 48.238106 
L 37.975631 48.614514 
L 38.006734 48.585791 
L 38.131142 48.21756 
L 38.028505 48.672164 
L 38.149804 48.421901 
L 38.258661 48.669289 
L 38.215118 48.152575 
L 38.261772 48.656997 
L 38.37996 48.115491 
L 38.271102 48.672778 
L 38.389291 48.289784 
L 38.460826 48.569181 
L 38.488818 48.03292 
L 38.498148 47.968632 
L 38.538581 48.521079 
L 38.563463 48.383252 
L 38.644329 48.629227 
L 38.597675 48.207384 
L 38.687872 48.60874 
L 38.79984 48.179299 
L 38.784289 48.679869 
L 38.812281 48.236941 
L 38.865154 48.653552 
L 38.927359 48.520685 
L 38.94602 48.302536 
L 38.995784 48.694292 
L 39.039327 48.476089 
L 39.079759 48.691852 
L 39.126413 48.313403 
L 39.151295 48.532903 
L 39.176176 48.303975 
L 39.238381 48.656113 
L 39.241491 48.643736 
L 39.269483 48.678854 
L 39.303695 48.40395 
L 39.331687 48.473617 
L 39.424994 48.687565 
L 39.446765 48.195338 
L 39.499639 48.689635 
L 39.564954 48.591105 
L 39.586725 48.659851 
L 39.630268 48.464849 
L 39.704914 48.35619 
L 39.720465 48.683413 
L 39.732906 48.577962 
L 39.823102 48.649846 
L 39.764008 48.287274 
L 39.832433 48.551474 
L 39.835543 48.3943 
L 39.925739 48.663393 
L 39.944401 48.494826 
L 40.040817 48.430878 
L 39.997274 48.66521 
L 40.047038 48.560858 
L 40.140344 48.655893 
L 40.099912 48.402679 
L 40.155896 48.518123 
L 40.227431 48.227311 
L 40.174557 48.597634 
L 40.249202 48.535939 
L 40.345619 48.676113 
L 40.270974 47.78738 
L 40.351839 48.566378 
L 40.376721 48.264616 
L 40.404713 48.685788 
L 40.460697 48.487523 
L 40.49491 48.657467 
L 40.563334 48.288858 
L 40.569555 48.431916 
L 40.613098 48.625339 
L 40.625539 48.318199 
L 40.6442 48.406789 
L 40.653531 48.178284 
L 40.737507 48.664939 
L 40.749948 48.536851 
L 40.802821 48.691204 
L 40.768609 48.346903 
L 40.855695 48.376617 
L 40.973883 48.680524 
L 40.865026 48.374184 
L 40.976994 48.656872 
L 41.039198 48.283865 
L 41.088962 48.562689 
L 41.151166 48.695888 
L 41.107623 48.416267 
L 41.197819 48.616993 
L 41.225811 48.386091 
L 41.260024 48.69222 
L 41.312897 48.517011 
L 41.340889 48.676321 
L 41.387543 48.327872 
L 41.424865 48.558095 
L 41.49018 48.229542 
L 41.449747 48.651393 
L 41.558605 48.462191 
L 41.586597 48.687172 
L 41.658132 48.365959 
L 41.670573 48.491291 
L 41.673683 48.401281 
L 41.760769 48.646195 
L 41.77943 48.545652 
L 41.782541 48.696332 
L 41.882068 48.297947 
L 41.885178 48.366027 
L 41.894509 48.171163 
L 41.944272 48.507103 
L 41.984705 48.478495 
L 42.015807 48.686881 
L 42.040689 48.382093 
L 42.099783 48.59845 
L 42.165098 48.186548 
L 42.121555 48.637953 
L 42.214861 48.434407 
L 42.227302 48.311562 
L 42.286396 48.637942 
L 42.308168 48.542535 
L 42.33927 48.583705 
L 42.373482 48.159586 
L 42.389034 48.190511 
L 42.392144 48.184299 
L 42.404585 48.361508 
L 42.407695 48.342702 
L 42.448128 48.600553 
L 42.507222 48.08933 
L 42.516553 48.303404 
L 42.535214 48.142477 
L 42.553875 48.494706 
L 42.556985 48.470695 
L 42.637851 48.2713 
L 42.675174 48.69113 
L 42.703166 48.3219 
L 42.740488 48.703794 
L 42.796472 48.413167 
L 42.846236 48.699885 
L 42.886669 48.33491 
L 42.939543 48.627029 
L 43.020408 48.215325 
L 42.961314 48.674607 
L 43.05151 48.55745 
L 43.132376 48.680603 
L 43.095054 48.410047 
L 43.157258 48.455782 
L 43.163478 48.310839 
L 43.256785 48.641028 
L 43.263005 48.572245 
L 43.266116 48.63979 
L 43.309659 48.270962 
L 43.368753 48.574163 
L 43.421627 48.318413 
L 43.437178 48.662068 
L 43.486941 48.332506 
L 43.499382 48.269694 
L 43.539815 48.68432 
L 43.574027 48.473275 
L 43.589579 48.655583 
L 43.636232 48.435222 
L 43.682885 48.500618 
L 43.707767 48.313372 
L 43.729538 48.655237 
L 43.791743 48.505866 
L 43.875719 48.375145 
L 43.829065 48.70044 
L 43.89749 48.530188 
L 43.906821 48.669998 
L 43.925482 48.339807 
L 44.000128 48.447886 
L 44.006348 48.317792 
L 44.099655 48.700374 
L 44.102765 48.697003 
L 44.205402 48.338952 
L 44.220953 48.555357 
L 44.245835 48.646171 
L 44.354693 48.212743 
L 44.401346 48.20829 
L 44.485322 48.679807 
L 44.581739 48.266815 
L 44.59729 48.570911 
L 44.619061 48.433192 
L 44.631502 48.180123 
L 44.671935 48.656762 
L 44.731029 48.395545 
L 44.74658 48.686689 
L 44.783903 48.308447 
L 44.849218 48.515833 
L 44.855438 48.703653 
L 44.905202 48.341323 
L 44.976737 48.669973 
L 45.098035 48.324303 
L 45.175791 48.688637 
L 45.144689 48.215379 
L 45.219334 48.629578 
L 45.30953 48.303279 
L 45.287759 48.679951 
L 45.343743 48.505817 
L 45.409057 48.686139 
L 45.390396 48.269612 
L 45.4526 48.468746 
L 45.499254 48.682461 
L 45.517915 48.389161 
L 45.564568 48.537215 
L 45.611222 48.306484 
L 45.657875 48.65338 
L 45.673426 48.592925 
L 45.676536 48.595253 
L 45.679646 48.490438 
L 45.685867 48.553182 
L 45.692087 48.382303 
L 45.73252 48.669246 
L 45.791614 48.600933 
L 45.841378 48.672929 
L 45.86626 48.301689 
L 45.894252 48.533387 
L 45.909803 48.389439 
L 45.993779 48.664625 
L 45.999999 48.64999 
L 46.093306 48.262857 
L 46.049763 48.660203 
L 46.115077 48.532096 
L 46.230155 48.680371 
L 46.14929 48.442777 
L 46.233266 48.679096 
L 46.339013 48.260971 
L 46.276809 48.685726 
L 46.354564 48.459467 
L 46.413658 48.453981 
L 46.367005 48.694795 
L 46.43543 48.466594 
L 46.43854 48.657314 
L 46.541177 48.207254 
L 46.5785 48.596199 
L 46.656255 48.351998 
L 46.690468 48.678964 
L 46.740231 48.309475 
L 46.777554 48.540985 
L 46.833538 48.331273 
L 46.802436 48.686409 
L 46.870861 48.560527 
L 46.873971 48.669724 
L 46.948616 48.324048 
L 46.979718 48.626645 
L 47.041923 48.336055 
L 47.076135 48.646622 
L 47.094797 48.540133 
L 47.116568 48.689873 
L 47.160111 48.265884 
L 47.206764 48.544611 
L 47.28141 48.414601 
L 47.28763 48.683855 
L 47.300071 48.673698 
L 47.303181 48.676931 
L 47.315622 48.58732 
L 47.318732 48.626278 
L 47.349835 48.351784 
L 47.412039 48.679963 
L 47.4307 48.535523 
L 47.508456 48.656755 
L 47.458692 48.310501 
L 47.536448 48.427418 
L 47.555109 48.356717 
L 47.623534 48.648603 
L 47.632865 48.581473 
L 47.726171 48.646945 
L 47.676408 48.316325 
L 47.744833 48.627948 
L 47.835029 48.365339 
L 47.766604 48.690957 
L 47.866131 48.516391 
L 47.878572 48.637646 
L 47.950107 48.298815 
L 47.974989 48.481734 
L 47.999871 48.69142 
L 48.018532 48.104562 
L 48.090067 48.572863 
L 48.121169 48.27617 
L 48.195814 48.590621 
L 48.198925 48.574141 
L 48.202035 48.668021 
L 48.27357 48.488384 
L 48.307782 48.631311 
L 48.388648 48.25889 
L 48.373097 48.651683 
L 48.41975 48.584207 
L 48.447742 48.678565 
L 48.478844 48.364623 
L 48.531718 48.657798 
L 48.581482 48.205249 
L 48.649907 48.499167 
L 48.70278 48.603182 
L 48.674788 48.245229 
L 48.752544 48.365479 
L 48.802307 48.19027 
L 48.817858 48.593857 
L 48.852071 48.501493 
L 48.957818 48.682162 
L 48.920496 48.218043 
L 48.964039 48.620261 
L 48.970259 48.675997 
L 48.988921 48.50354 
L 48.992031 48.504973 
L 49.082227 48.623267 
L 49.107109 48.290499 
L 49.215967 48.669515 
L 49.222187 48.579397 
L 49.237738 48.366705 
L 49.25951 48.658529 
L 49.337265 48.429279 
L 49.415021 48.692239 
L 49.368367 48.38908 
L 49.449233 48.518199 
L 49.567421 48.306831 
L 49.486556 48.666372 
L 49.570532 48.330133 
L 49.68561 48.667344 
L 49.607854 48.212211 
L 49.69183 48.603725 
L 49.763365 48.396712 
L 49.775806 48.659234 
L 49.806908 48.511156 
L 49.82868 48.610448 
L 49.841121 48.434456 
L 49.884664 48.461959 
L 49.890884 48.311436 
L 49.97175 48.687563 
L 49.987301 48.54374 
L 50.061946 48.681342 
L 50.024624 48.441464 
L 50.080608 48.489155 
L 50.180135 48.369893 
L 50.133482 48.667584 
L 50.189465 48.454808 
L 50.239229 48.680739 
L 50.301433 48.52459 
L 50.369858 48.340254 
L 50.316984 48.699733 
L 50.404071 48.504156 
L 50.438283 48.685524 
L 50.506708 48.302294 
L 50.512928 48.424556 
L 50.525369 48.677798 
L 50.609345 48.38732 
L 50.628006 48.542424 
L 50.68088 48.392096 
L 50.715093 48.670195 
L 50.718203 48.666936 
L 50.721313 48.702882 
L 50.780407 48.44463 
L 50.81462 48.517712 
L 50.886155 48.335745 
L 50.855053 48.604234 
L 50.923477 48.500244 
L 51.019894 48.644949 
L 50.942139 48.317226 
L 51.032335 48.628507 
L 51.063437 48.292388 
L 51.091429 48.671181 
L 51.144303 48.443562 
L 51.181626 48.664086 
L 51.24383 48.339492 
L 51.256271 48.552717 
L 51.315365 48.646683 
L 51.271822 48.348836 
L 51.358908 48.627639 
L 51.458435 48.450075 
L 51.421113 48.671218 
L 51.470876 48.52721 
L 51.533081 48.390583 
L 51.551742 48.681829 
L 51.564183 48.605454 
L 51.604616 48.701704 
L 51.585954 48.307128 
L 51.66993 48.645362 
L 51.685481 48.426774 
L 51.701032 48.693621 
L 51.781898 48.592933 
L 51.868984 48.687185 
L 51.797449 48.417886 
L 51.884535 48.553199 
L 51.928078 48.410727 
L 51.940519 48.675226 
L 51.990283 48.551555 
L 52.046267 48.688302 
L 52.083589 48.377348 
L 52.0867 48.398028 
L 52.09292 48.305978 
L 52.130243 48.64362 
L 52.176896 48.54211 
L 52.22977 48.641927 
L 52.214219 48.443399 
L 52.285754 48.498632 
L 52.351068 48.341389 
L 52.335517 48.654381 
L 52.37906 48.523602 
L 52.463036 48.672006 
L 52.469257 48.485911 
L 52.491028 48.582974 
L 52.531461 48.38641 
L 52.571894 48.68308 
L 52.599886 48.569057 
L 52.602996 48.636183 
L 52.643429 48.298507 
L 52.708744 48.590836 
L 52.739846 48.274309 
L 52.79272 48.686756 
L 52.823822 48.47368 
L 52.873585 48.684222 
L 52.848704 48.200142 
L 52.93579 48.556791 
L 52.966892 48.203051 
L 53.010435 48.68845 
L 53.044647 48.588317 
L 53.050868 48.688656 
L 53.141064 48.384948 
L 53.147285 48.426718 
L 53.253032 48.256813 
L 53.237481 48.644271 
L 53.259253 48.363865 
L 53.268583 48.302616 
L 53.315237 48.621656 
L 53.333898 48.453186 
L 53.346339 48.644692 
L 53.386772 48.312327 
L 53.442756 48.368718 
L 53.529842 48.693006 
L 53.452086 48.339315 
L 53.564054 48.58442 
L 53.64803 48.439405 
L 53.592046 48.66562 
L 53.672912 48.515417 
L 53.719565 48.683834 
L 53.747557 48.375096 
L 53.78799 48.597732 
L 53.809762 48.377326 
L 53.822202 48.6806 
L 53.899958 48.52614 
L 53.909289 48.666693 
L 53.993265 48.376051 
L 53.999485 48.485059 
L 54.052359 48.362441 
L 54.102122 48.67717 
L 54.105233 48.591023 
L 54.114563 48.697245 
L 54.158106 48.317791 
L 54.20787 48.502333 
L 54.232752 48.405314 
L 54.220311 48.612988 
L 54.242082 48.622346 
L 54.316727 48.649013 
L 54.294956 48.497545 
L 54.338499 48.585002 
L 54.425585 48.436208 
L 54.366491 48.646731 
L 54.447357 48.639507 
L 54.4909 48.337724 
L 54.506451 48.682685 
L 54.574876 48.496879 
L 54.652631 48.673731 
L 54.587317 48.476091 
L 54.689954 48.589606 
L 54.758379 48.464208 
L 54.795701 48.680916 
L 54.798812 48.653233 
L 54.811252 48.540446 
L 54.814363 48.583841 
L 54.898339 48.38385 
L 54.92322 48.654731 
L 54.960543 48.580426 
L 54.982315 48.295722 
L 55.000976 48.618852 
L 55.072511 48.500829 
L 55.178258 48.691196 
L 55.137826 48.179874 
L 55.184479 48.600033 
L 55.299557 48.289435 
L 55.19692 48.6487 
L 55.305777 48.440679 
L 55.377313 48.286557 
L 55.417745 48.637794 
L 55.473729 48.38879 
L 55.436407 48.694542 
L 55.532824 48.444133 
L 55.554595 48.673073 
L 55.542154 48.402084 
L 55.644791 48.536141 
L 55.747429 48.426195 
L 55.694555 48.675558 
L 55.756759 48.463863 
L 55.884278 48.661865 
L 55.825184 48.428111 
L 55.887389 48.649225 
L 55.949593 48.651444 
L 56.002467 48.400955 
L 56.086443 48.675137 
L 56.120655 48.655567 
L 56.167308 48.456213 
L 56.217072 48.676821 
L 56.229513 48.570189 
L 56.257505 48.683015 
L 56.316599 48.304596 
L 56.341481 48.606784 
L 56.353922 48.690784 
L 56.416126 48.457213 
L 56.450338 48.597306 
L 56.534314 48.674316 
L 56.481441 48.347329 
L 56.556086 48.599973 
L 56.596519 48.246042 
L 56.640062 48.696021 
L 56.664944 48.600278 
L 56.699156 48.702758 
L 56.702266 48.535633 
L 56.770691 48.536302 
L 56.789352 48.686981 
L 56.848447 48.511088 
L 56.876439 48.537021 
L 56.904431 48.357406 
L 56.932423 48.638867 
L 56.985296 48.479308 
L 57.028839 48.645301 
L 57.022619 48.403348 
L 57.100374 48.571708 
L 57.212342 48.689517 
L 57.153248 48.344046 
L 57.215453 48.652127 
L 57.330531 48.350176 
L 57.280767 48.676055 
L 57.333641 48.441822 
L 57.374074 48.672002 
L 57.436278 48.296773 
L 57.45805 48.225661 
L 57.479821 48.541868 
L 57.486042 48.432536 
L 57.517144 48.276199 
L 57.60112 48.674379 
L 57.619781 48.361545 
L 57.713088 48.585012 
L 57.778402 48.686804 
L 57.797064 48.34641 
L 57.815725 48.457394 
L 57.821945 48.329025 
L 57.837497 48.636257 
L 57.924583 48.480261 
L 57.937024 48.676046 
L 57.989897 48.440445 
L 58.036551 48.510746 
L 58.151629 48.688813 
L 58.070763 48.454437 
L 58.154739 48.597713 
L 58.157849 48.599764 
L 58.17029 48.486992 
L 58.1734 48.53372 
L 58.241825 48.420679 
L 58.207613 48.670604 
L 58.279148 48.646455 
L 58.360014 48.348439 
L 58.335132 48.676179 
L 58.400446 48.45929 
L 58.518635 48.689755 
L 58.428438 48.434137 
L 58.524855 48.611804 
L 58.549737 48.682321 
L 58.636823 48.427127 
L 58.683476 48.659671 
L 58.658595 48.424207 
L 58.748791 48.51348 
L 58.779893 48.43215 
L 58.810995 48.67904 
L 58.851428 48.648066 
L 58.885641 48.365762 
L 58.910522 48.680365 
L 58.975837 48.576433 
L 59.01005 48.682768 
L 59.075364 48.443881 
L 59.078474 48.490259 
L 59.081585 48.402733 
L 59.122017 48.687314 
L 59.187332 48.499809 
L 59.221545 48.668323 
L 59.193553 48.469261 
L 59.2993 48.526308 
L 59.30241 48.472567 
L 59.364615 48.696621 
L 59.408158 48.553152 
L 59.44548 48.388887 
L 59.526346 48.676843 
L 59.57922 48.419972 
L 59.557448 48.693071 
L 59.638314 48.557255 
L 59.681857 48.699788 
L 59.765833 48.32411 
L 59.781384 48.664729 
L 59.852919 48.285134 
L 59.884021 48.477077 
L 59.902683 48.294389 
L 59.964887 48.669772 
L 59.992879 48.476483 
L 60.067524 48.683802 
L 60.020871 48.352838 
L 60.117288 48.650393 
L 60.216815 48.354348 
L 60.135949 48.680184 
L 60.232366 48.492074 
L 60.238586 48.681586 
L 60.260358 48.387397 
L 60.344334 48.58613 
L 60.412759 48.697452 
L 60.446971 48.483443 
L 60.450081 48.538979 
L 60.543388 48.69564 
L 60.468743 48.46631 
L 60.56516 48.5905 
L 60.583821 48.444239 
L 60.636695 48.702275 
L 60.674017 48.577577 
L 60.757993 48.681582 
L 60.730001 48.398415 
L 60.779765 48.562585 
L 60.838859 48.421837 
L 60.801536 48.695304 
L 60.888622 48.575108 
L 60.957047 48.6526 
L 60.916614 48.488279 
L 60.99748 48.570208 
L 61.022362 48.467999 
L 61.016141 48.671238 
L 61.103228 48.620368 
L 61.109448 48.663666 
L 61.13744 48.365752 
L 61.202755 48.52062 
L 61.314723 48.691136 
L 61.230747 48.350953 
L 61.330274 48.666197 
L 61.408029 48.52746 
L 61.383147 48.694732 
L 61.439131 48.598584 
L 61.498226 48.669239 
L 61.541769 48.425511 
L 61.544879 48.599218 
L 61.656847 48.442181 
L 61.588422 48.681184 
L 61.659957 48.448108 
L 61.731492 48.676626 
L 61.775035 48.543081 
L 61.778145 48.482116 
L 61.806137 48.703689 
L 61.883893 48.550021 
L 61.998971 48.436824 
L 61.914995 48.696504 
L 62.008302 48.458882 
L 62.095388 48.676296 
L 62.079837 48.375135 
L 62.117159 48.418362 
L 62.12649 48.333145 
L 62.138931 48.489386 
L 62.157592 48.671578 
L 62.229127 48.422421 
L 62.254009 48.631948 
L 62.294442 48.375486 
L 62.319324 48.696496 
L 62.365977 48.521276 
L 62.425071 48.384514 
L 62.378418 48.677004 
L 62.440622 48.571152 
L 62.527708 48.686955 
L 62.474835 48.473347 
L 62.54948 48.581094 
L 62.583692 48.653835 
L 62.589913 48.559333 
L 62.596133 48.381766 
L 62.670779 48.682419 
L 62.701881 48.494072 
L 62.792077 48.674674 
L 62.717432 48.445997 
L 62.813849 48.648725 
L 62.8294 48.391893 
L 62.897825 48.671381 
L 62.922706 48.545256 
L 62.994241 48.681461 
L 62.941368 48.390237 
L 63.034674 48.639022 
L 63.152863 48.438148 
L 63.065776 48.681582 
L 63.171524 48.514382 
L 63.193296 48.677229 
L 63.208847 48.421671 
L 63.286602 48.637244 
L 63.314594 48.410912 
L 63.361247 48.682591 
L 63.39546 48.581181 
L 63.39857 48.693766 
L 63.482546 48.449839 
L 63.504318 48.531174 
L 63.588293 48.699168 
L 63.53542 48.460358 
L 63.606955 48.487231 
L 63.610065 48.424159 
L 63.656718 48.6875 
L 63.715812 48.514864 
L 63.756245 48.696062 
L 63.796678 48.447334 
L 63.830891 48.55435 
L 63.883764 48.67369 
L 63.837111 48.482341 
L 63.886875 48.542955 
L 63.936638 48.663881 
L 63.998843 48.394373 
L 64.023724 48.690476 
L 64.11081 48.501305 
L 64.166794 48.43434 
L 64.188566 48.692744 
L 64.219668 48.53023 
L 64.272542 48.382333 
L 64.344077 48.665191 
L 64.449824 48.342103 
L 64.421832 48.690487 
L 64.459155 48.546599 
L 64.52758 48.312323 
L 64.502698 48.703658 
L 64.564903 48.557057 
L 64.661319 48.671021 
L 64.608446 48.40169 
L 64.67687 48.645831 
L 64.751516 48.444683 
L 64.686201 48.673442 
L 64.791949 48.557782 
L 64.869704 48.699914 
L 64.875925 48.503942 
L 64.879035 48.526825 
L 64.882145 48.389148 
L 64.944349 48.648407 
L 64.987892 48.624164 
L 65.09364 48.696244 
L 65.012774 48.429161 
L 65.09675 48.682667 
L 65.180726 48.445656 
L 65.121632 48.699453 
L 65.214939 48.473377 
L 65.277143 48.670146 
L 65.320686 48.409875 
L 65.323796 48.370293 
L 65.345568 48.659806 
L 65.420213 48.457542 
L 65.438874 48.679048 
L 65.485528 48.405333 
L 65.538401 48.665919 
L 65.631708 48.372166 
L 65.591275 48.687161 
L 65.65659 48.461756 
L 65.690802 48.6492 
L 65.728125 48.685534 
L 65.706353 48.511001 
L 65.765447 48.540174 
L 65.80277 48.432197 
L 65.858754 48.68459 
L 65.871195 48.635213 
L 65.889856 48.678654 
L 65.920958 48.468153 
L 65.924069 48.486659 
L 65.927179 48.400266 
L 65.976942 48.670633 
L 66.029816 48.544321 
L 66.148005 48.687651 
L 66.08269 48.435546 
L 66.151115 48.645805 
L 66.250642 48.473075 
L 66.207099 48.67859 
L 66.266193 48.508395 
L 66.281744 48.685494 
L 66.350169 48.397575 
L 66.378161 48.636428 
L 66.403043 48.371384 
L 66.387492 48.667499 
L 66.487019 48.607907 
L 66.567884 48.698264 
L 66.539892 48.455054 
L 66.598986 48.627507 
L 66.667411 48.690666 
L 66.620758 48.517976 
L 66.698514 48.57524 
L 66.813592 48.318254 
L 66.760718 48.677386 
L 66.816702 48.343413 
L 66.922449 48.689433 
L 66.93489 48.681321 
L 67.046858 48.200825 
L 67.000205 48.68306 
L 67.053079 48.235274 
L 67.168157 48.682613 
L 67.171267 48.569171 
L 67.193038 48.409196 
L 67.20859 48.664575 
L 67.252133 48.63093 
L 67.34855 48.697938 
L 67.286345 48.420286 
L 67.36099 48.606198 
L 67.469848 48.456626 
L 67.382762 48.678327 
L 67.476069 48.535465 
L 67.49162 48.679401 
L 67.504061 48.4719 
L 67.581816 48.503169 
L 67.584926 48.458613 
L 67.625359 48.69001 
L 67.687563 48.533166 
L 67.734217 48.690026 
L 67.762209 48.464729 
L 67.799531 48.553073 
L 67.839964 48.686638 
L 67.818193 48.367673 
L 67.911499 48.608772 
L 67.973704 48.457002 
L 67.942602 48.693756 
L 68.017247 48.568949 
L 68.06079 48.693725 
L 68.098113 48.456911 
L 68.126105 48.682401 
L 68.20697 48.413798 
L 68.238072 48.578801 
L 68.331379 48.677721 
L 68.312718 48.511188 
L 68.35004 48.630684 
L 68.424686 48.445565 
L 68.443347 48.681105 
L 68.462008 48.500404 
L 68.533543 48.698686 
L 68.558425 48.383711 
L 68.570866 48.521733 
L 68.573976 48.453104 
L 68.595748 48.683678 
L 68.676613 48.58769 
L 68.77303 48.640107 
L 68.717046 48.341418 
L 68.788581 48.61724 
L 68.829014 48.470783 
L 68.801022 48.669983 
L 68.90366 48.511714 
L 68.975195 48.671466 
L 68.937872 48.382643 
L 69.009407 48.531057 
L 69.012517 48.37273 
L 69.074722 48.685193 
L 69.118265 48.556315 
L 69.19602 48.674574 
L 69.155587 48.507135 
L 69.227122 48.554537 
L 69.301768 48.679755 
L 69.273776 48.402057 
L 69.33909 48.57445 
L 69.444838 48.362432 
L 69.354641 48.640458 
L 69.457279 48.406375 
L 69.47594 48.683835 
L 69.510152 48.383217 
L 69.569247 48.532211 
L 69.684325 48.66974 
L 69.634561 48.448261 
L 69.693655 48.651419 
L 69.721647 48.357444 
L 69.793182 48.689699 
L 69.821174 48.45214 
L 69.886489 48.700759 
L 69.933142 48.658063 
L 69.986016 48.54855 
L 70.007788 48.698692 
L 70.042 48.635415 
L 70.079323 48.674896 
L 70.097984 48.479164 
L 70.101094 48.4894 
L 70.104204 48.426588 
L 70.163299 48.672759 
L 70.209952 48.535207 
L 70.315699 48.418492 
L 70.234834 48.683574 
L 70.31881 48.443923 
L 70.381014 48.679138 
L 70.359243 48.345105 
L 70.430778 48.510278 
L 70.539635 48.692993 
L 70.443218 48.48357 
L 70.542745 48.542264 
L 70.639162 48.683755 
L 70.620501 48.446823 
L 70.667154 48.641068 
L 70.788453 48.442235 
L 70.676485 48.658965 
L 70.816445 48.595993 
L 70.819555 48.674499 
L 70.919082 48.406561 
L 71.02483 48.68929 
L 71.043491 48.635169 
L 71.068373 48.441598 
L 71.083924 48.698598 
L 71.158569 48.492397 
L 71.273647 48.681701 
L 71.223884 48.43615 
L 71.276757 48.61035 
L 71.320301 48.511084 
L 71.30786 48.674325 
L 71.385615 48.601272 
L 71.485142 48.674793 
L 71.432268 48.48981 
L 71.488252 48.64053 
L 71.553567 48.348391 
L 71.500693 48.683177 
L 71.60022 48.571218 
L 71.615771 48.687961 
L 71.699747 48.372071 
L 71.746401 48.312214 
L 71.718409 48.642829 
L 71.780613 48.559977 
L 71.845928 48.669786 
L 71.87392 48.41702 
L 71.892581 48.609094 
L 71.939234 48.444115 
L 71.951675 48.667221 
L 72.001439 48.642293 
L 72.119627 48.425587 
L 72.088525 48.696623 
L 72.132068 48.48635 
L 72.144509 48.69517 
L 72.219154 48.459429 
L 72.244036 48.619075 
L 72.272028 48.451551 
L 72.30313 48.684895 
L 72.356004 48.597743 
L 72.415098 48.68942 
L 72.380886 48.451217 
L 72.467972 48.649095 
L 72.570609 48.682832 
L 72.505294 48.4995 
L 72.576829 48.640024 
L 72.679467 48.438291 
L 72.629703 48.674765 
L 72.691908 48.519289 
L 72.738561 48.687644 
L 72.710569 48.418043 
L 72.803875 48.598137 
L 72.806986 48.672348 
L 72.86608 48.410183 
L 72.912733 48.544934 
L 72.940725 48.682968 
L 72.925174 48.475005 
L 73.00915 48.531505 
L 73.01537 48.371846 
L 73.108677 48.673233 
L 73.114897 48.666948 
L 73.130449 48.453785 
L 73.170881 48.691938 
L 73.236196 48.608327 
L 73.341944 48.688645 
L 73.257968 48.513955 
L 73.345054 48.610839 
L 73.413479 48.67091 
L 73.401038 48.506439 
L 73.453911 48.608664 
L 73.481903 48.417006 
L 73.494344 48.69775 
L 73.565879 48.561503 
L 73.56899 48.689828 
L 73.606312 48.483199 
L 73.671627 48.535878 
L 73.749382 48.406997 
L 73.690288 48.673484 
L 73.780485 48.481082 
L 73.799146 48.684809 
L 73.824028 48.439744 
L 73.895563 48.634517 
L 73.932885 48.479432 
L 73.988869 48.685007 
L 74.010641 48.569564 
L 74.088396 48.665983 
L 74.016861 48.51911 
L 74.097727 48.521049 
L 74.203474 48.285085 
L 74.175483 48.675719 
L 74.212805 48.483371 
L 74.243907 48.689087 
L 74.293671 48.440919 
L 74.327883 48.632674 
L 74.399418 48.474259 
L 74.42119 48.702104 
L 74.439851 48.532617 
L 74.548709 48.66672 
L 74.514497 48.378742 
L 74.551819 48.602406 
L 74.56737 48.663364 
L 74.573591 48.581898 
L 74.595362 48.406331 
L 74.657567 48.692421 
L 74.685559 48.52241 
L 74.688669 48.520665 
L 74.691779 48.643931 
L 74.713551 48.692636 
L 74.722881 48.5404 
L 74.791306 48.575963 
L 74.890833 48.418098 
L 74.84107 48.677111 
L 74.906384 48.574824 
L 74.99036 48.690671 
L 74.937486 48.449812 
L 75.018352 48.627542 
L 75.024573 48.653526 
L 75.033903 48.545207 
L 75.046344 48.468969 
L 75.117879 48.68193 
L 75.139651 48.530995 
L 75.245398 48.69091 
L 75.189414 48.493779 
L 75.251619 48.683339 
L 75.26717 48.60585 
L 75.27028 48.654218 
L 75.329374 48.328919 
L 75.382248 48.521655 
L 75.400909 48.481256 
L 75.41646 48.618687 
L 75.450673 48.675738 
L 75.460003 48.511547 
L 75.519098 48.589489 
L 75.568861 48.479532 
L 75.599963 48.668251 
L 75.627955 48.567194 
L 75.69327 48.684511 
L 75.634176 48.455426 
L 75.730593 48.576709 
L 75.767915 48.398814 
L 75.811458 48.681626 
L 75.83945 48.582965 
L 75.942088 48.682447 
L 75.886104 48.468415 
L 75.957639 48.606048 
L 76.032284 48.435937 
L 75.9763 48.678873 
L 76.069607 48.44878 
L 76.097599 48.695168 
L 76.178464 48.57154 
L 76.26555 48.417647 
L 76.234448 48.703754 
L 76.287322 48.528779 
L 76.309093 48.700871 
L 76.4024 48.67099 
L 76.427282 48.410725 
L 76.445943 48.684202 
L 76.517478 48.487477 
L 76.529919 48.34999 
L 76.567242 48.657314 
L 76.607675 48.552997 
L 76.694761 48.684978 
L 76.660548 48.417782 
L 76.710312 48.496299 
L 76.732083 48.292343 
L 76.763186 48.688231 
L 76.81917 48.527761 
L 76.82539 48.668585 
L 76.906256 48.391522 
L 76.928027 48.564528 
L 76.96535 48.331103 
L 76.949799 48.626186 
L 77.036885 48.580566 
L 77.074208 48.430171 
L 77.148853 48.639394 
L 77.195506 48.460487 
L 77.214168 48.680206 
L 77.257711 48.596887 
L 77.360348 48.680982 
L 77.273262 48.532918 
L 77.363458 48.656201 
L 77.366568 48.515548 
L 77.39767 48.670035 
L 77.475426 48.597061 
L 77.497198 48.700218 
L 77.559402 48.478786 
L 77.581173 48.603849 
L 77.590504 48.469501 
L 77.67759 48.704366 
L 77.690031 48.575954 
L 77.708692 48.671905 
L 77.702472 48.4485 
L 77.801999 48.601482 
L 77.864203 48.458975 
L 77.851763 48.690776 
L 77.913967 48.503424 
L 77.976171 48.694586 
L 77.963731 48.469842 
L 78.022825 48.54613 
L 78.025935 48.413767 
L 78.078809 48.684003 
L 78.131682 48.524243 
L 78.206328 48.700301 
L 78.172115 48.433756 
L 78.246761 48.654225 
L 78.268532 48.531584 
L 78.274753 48.685633 
L 78.358728 48.61276 
L 78.399161 48.682399 
L 78.420933 48.542959 
L 78.445815 48.546106 
L 78.473807 48.423667 
L 78.492468 48.696274 
L 78.542231 48.621128 
L 78.619987 48.694849 
L 78.629318 48.505175 
L 78.651089 48.623691 
L 78.763057 48.471877 
L 78.694632 48.677378 
L 78.772388 48.598674 
L 78.778608 48.690875 
L 78.79727 48.475179 
L 78.881245 48.548286 
L 78.887466 48.456411 
L 78.974552 48.670917 
L 78.986993 48.542527 
L 78.993213 48.672011 
L 79.08652 48.473102 
L 79.09274 48.496073 
L 79.117622 48.382701 
L 79.136283 48.681736 
L 79.198488 48.497292 
L 79.301125 48.688538 
L 79.22959 48.485942 
L 79.307346 48.540068 
L 79.394432 48.404027 
L 79.413093 48.639533 
L 79.447306 48.327348 
L 79.425534 48.69153 
L 79.525061 48.605794 
L 79.571714 48.65511 
L 79.534392 48.482826 
L 79.621478 48.515181 
L 79.699233 48.426147 
L 79.677462 48.679164 
L 79.730336 48.475471 
L 79.745887 48.681532 
L 79.783209 48.467854 
L 79.845414 48.616494 
L 79.892067 48.697477 
L 79.904508 48.449421 
L 79.954271 48.617774 
L 80.019586 48.432089 
L 79.979153 48.665643 
L 80.07246 48.556726 
L 80.181317 48.699053 
L 80.08179 48.512483 
L 80.190648 48.665697 
L 80.259073 48.458812 
L 80.249742 48.682526 
L 80.302616 48.49444 
L 80.374151 48.695484 
L 80.420804 48.674042 
L 80.486119 48.400179 
L 80.439466 48.692663 
L 80.535883 48.611948 
L 80.610528 48.687726 
L 80.570095 48.467248 
L 80.64163 48.610281 
L 80.744267 48.400041 
L 80.672732 48.690208 
L 80.753598 48.550917 
L 80.766039 48.499348 
L 80.772259 48.630471 
L 80.78159 48.653302 
L 80.818913 48.702585 
L 80.828243 48.456146 
L 80.865566 48.570594 
L 80.965093 48.475395 
L 80.902888 48.68491 
L 80.977534 48.531495 
L 81.06773 48.661646 
L 81.077061 48.491641 
L 81.086391 48.571659 
L 81.161037 48.485633 
L 81.098832 48.699121 
L 81.185919 48.558298 
L 81.238792 48.683281 
L 81.279225 48.504428 
L 81.297886 48.67704 
L 81.34143 48.469488 
L 81.310327 48.681499 
L 81.409854 48.575793 
L 81.416075 48.692261 
L 81.444067 48.470719 
L 81.521822 48.653965 
L 81.531153 48.699122 
L 81.534263 48.549724 
L 81.537373 48.391428 
L 81.63068 48.673425 
L 81.643121 48.53881 
L 81.664892 48.682222 
L 81.702215 48.483217 
L 81.748868 48.607113 
L 81.839065 48.270117 
L 81.795522 48.670217 
L 81.857726 48.658576 
L 81.960363 48.409447 
L 81.972804 48.462664 
L 81.982135 48.676477 
L 82.075441 48.34329 
L 82.090993 48.603128 
L 82.140756 48.428354 
L 82.159417 48.667002 
L 82.19674 48.630581 
L 82.265165 48.674145 
L 82.237173 48.473152 
L 82.302488 48.603289 
L 82.405125 48.400573 
L 82.398904 48.685964 
L 82.423786 48.507908 
L 82.47977 48.686827 
L 82.501542 48.473646 
L 82.535754 48.615701 
L 82.635281 48.513168 
L 82.582407 48.697919 
L 82.644612 48.549287 
L 82.675714 48.69885 
L 82.744139 48.493007 
L 82.75658 48.572168 
L 82.852996 48.673113 
L 82.868548 48.425791 
L 82.961854 48.683253 
L 82.980515 48.529869 
L 82.986736 48.669299 
L 83.020948 48.388196 
L 83.095594 48.659148 
L 83.160908 48.431518 
L 83.195121 48.68123 
L 83.213782 48.499327 
L 83.282207 48.676771 
L 83.226223 48.49159 
L 83.32575 48.612383 
L 83.425277 48.539832 
L 83.381734 48.677627 
L 83.428387 48.623709 
L 83.484371 48.698371 
L 83.506143 48.523259 
L 83.540355 48.65154 
L 83.580788 48.668617 
L 83.615 48.502123 
L 83.627441 48.549818 
L 83.630551 48.437385 
L 83.652323 48.701461 
L 83.736299 48.61271 
L 83.776732 48.4638 
L 83.804724 48.673912 
L 83.845157 48.565998 
L 83.944684 48.69792 
L 83.89181 48.501127 
L 83.954014 48.636729 
L 83.985117 48.509425 
L 84.003778 48.698145 
L 84.069093 48.526985 
L 84.084644 48.671733 
L 84.17484 48.392042 
L 84.17795 48.511202 
L 84.237044 48.695112 
L 84.299249 48.66868 
L 84.345902 48.677372 
L 84.330351 48.547088 
L 84.370784 48.542974 
L 84.373894 48.421881 
L 84.408106 48.690133 
L 84.479642 48.520825 
L 84.516964 48.693341 
L 84.566728 48.403127 
L 84.591609 48.557697 
L 84.691137 48.669372 
L 84.607161 48.451397 
L 84.709798 48.614431 
L 84.790664 48.476892 
L 84.73468 48.672434 
L 84.824876 48.485523 
L 84.927513 48.688932 
L 84.834207 48.462534 
L 84.946175 48.648162 
L 85.039481 48.460599 
L 85.055032 48.673785 
L 85.058142 48.623861 
L 85.123457 48.421479 
L 85.098575 48.676046 
L 85.179441 48.567736 
L 85.232315 48.700833 
L 85.260307 48.494575 
L 85.288299 48.557862 
L 85.30074 48.515655 
L 85.403377 48.696626 
L 85.515345 48.471336 
L 85.518455 48.524101 
L 85.602431 48.47026 
L 85.537116 48.691606 
L 85.621092 48.585211 
L 85.717509 48.685579 
L 85.673966 48.479634 
L 85.72684 48.619679 
L 85.764162 48.488135 
L 85.782824 48.69791 
L 85.835697 48.582604 
L 85.888571 48.698302 
L 85.851249 48.496607 
L 85.953886 48.620129 
L 85.994319 48.467655 
L 86.01298 48.687903 
L 86.059633 48.605197 
L 86.137389 48.674202 
L 86.090736 48.461003 
L 86.165381 48.544904 
L 86.199593 48.480144 
L 86.224475 48.672645 
L 86.252467 48.578792 
L 86.29912 48.701762 
L 86.283569 48.560827 
L 86.364435 48.605431 
L 86.423529 48.699109 
L 86.376876 48.479681 
L 86.473293 48.693184 
L 86.57593 48.479161 
L 86.588371 48.5687 
L 86.678567 48.69171 
L 86.613253 48.536289 
L 86.700339 48.583022 
L 86.728331 48.667765 
L 86.72211 48.481379 
L 86.796755 48.552315 
L 86.871401 48.499617 
L 86.849629 48.665589 
L 86.905613 48.578634 
L 86.980258 48.697318 
L 86.936715 48.526865 
L 87.020691 48.65895 
L 87.135769 48.305045 
L 87.14199 48.491657 
L 87.188643 48.68296 
L 87.160651 48.420125 
L 87.260178 48.557788 
L 87.297501 48.323398 
L 87.319272 48.688653 
L 87.365926 48.629706 
L 87.443681 48.682947 
L 87.390808 48.520118 
L 87.471673 48.618619 
L 87.56809 48.518328 
L 87.540098 48.673651 
L 87.577421 48.575441 
L 87.596082 48.683756 
L 87.670727 48.449906 
L 87.686278 48.534456 
L 87.782695 48.700827 
L 87.745373 48.457974 
L 87.807577 48.6567 
L 87.84801 48.496909 
L 87.907104 48.694053 
L 87.919545 48.632215 
L 88.043954 48.469449 
L 87.950647 48.695746 
L 88.050174 48.546784 
L 88.075056 48.672967 
L 88.13726 48.483143 
L 88.159032 48.569717 
L 88.171473 48.444384 
L 88.239898 48.689992 
L 88.26789 48.558938 
L 88.342535 48.696715 
L 88.27722 48.481683 
L 88.379857 48.561424 
L 88.460723 48.555439 
L 88.398519 48.689874 
L 88.473164 48.568357 
L 88.507377 48.692914 
L 88.575801 48.501958 
L 88.582022 48.577969 
L 88.690879 48.495803 
L 88.613124 48.662657 
L 88.69399 48.5321 
L 88.756194 48.690026 
L 88.799737 48.483058 
L 88.802847 48.546399 
L 88.805958 48.520613 
L 88.84017 48.698896 
L 88.905485 48.600018 
L 88.955248 48.672742 
L 88.933477 48.439332 
L 89.014342 48.568319 
L 89.045445 48.527005 
L 89.054775 48.690815 
L 89.101429 48.582314 
L 89.104539 48.697236 
L 89.144972 48.477164 
L 89.210286 48.658335 
L 89.26938 48.480511 
L 89.278711 48.700685 
L 89.319144 48.672575 
L 89.424891 48.53063 
L 89.440443 48.572136 
L 89.483986 48.678304 
L 89.459104 48.428549 
L 89.55241 48.615229 
L 89.586623 48.502122 
L 89.651937 48.702507 
L 89.664378 48.593611 
L 89.714142 48.666612 
L 89.68926 48.494606 
L 89.767016 48.508591 
L 89.869653 48.687041 
L 89.897645 48.66574 
L 89.910086 48.435579 
L 89.931857 48.700789 
L 90.009613 48.619217 
L 90.022054 48.693351 
L 90.043825 48.531496 
L 90.11536 48.654914 
L 90.205557 48.501219 
L 90.140242 48.675556 
L 90.227328 48.586038 
L 90.336186 48.516823 
L 90.273982 48.691374 
L 90.339296 48.551593 
L 90.379729 48.67041 
L 90.348627 48.535026 
L 90.448154 48.612995 
L 90.510358 48.428343 
L 90.469925 48.686537 
L 90.557012 48.616352 
L 90.560122 48.690594 
L 90.578783 48.501082 
L 90.665869 48.662799 
L 90.718743 48.529308 
L 90.68142 48.694403 
L 90.777837 48.614444 
L 90.805829 48.685104 
L 90.852482 48.489058 
L 90.877364 48.648299 
L 90.889805 48.470162 
L 90.980001 48.674682 
L 90.989332 48.589073 
L 91.001773 48.701006 
L 91.035985 48.414396 
L 91.088859 48.586131 
L 91.166615 48.508308 
L 91.135512 48.68399 
L 91.191496 48.663348 
L 91.24126 48.685224 
L 91.269252 48.471437 
L 91.272362 48.460659 
L 91.322126 48.62887 
L 91.328346 48.547389 
L 91.356338 48.690271 
L 91.421653 48.506477 
L 91.440314 48.612709 
L 91.486967 48.396184 
L 91.455865 48.690006 
L 91.549172 48.675739 
L 91.639368 48.652968 
L 91.558502 48.528055 
L 91.642478 48.626825 
L 91.751336 48.54065 
L 91.66736 48.683791 
L 91.754446 48.550642 
L 91.822871 48.693301 
L 91.794879 48.546027 
L 91.866414 48.571553 
L 91.913067 48.67939 
L 91.969051 48.458028 
L 91.978382 48.59241 
L 92.043697 48.523609 
L 91.990823 48.684933 
L 92.068578 48.610582 
L 92.08724 48.701252 
L 92.102791 48.501819 
L 92.180546 48.647202 
L 92.261412 48.49477 
L 92.289404 48.67598 
L 92.292514 48.565139 
L 92.364049 48.695814 
L 92.329837 48.342214 
L 92.413813 48.603719 
L 92.426254 48.535658 
L 92.420033 48.632081 
L 92.429364 48.572075 
L 92.454246 48.345814 
L 92.494679 48.675007 
L 92.541332 48.529395 
L 92.65019 48.683415 
L 92.622198 48.413433 
L 92.65641 48.613247 
L 92.662631 48.386722 
L 92.681292 48.664543 
L 92.765268 48.570608 
L 92.889677 48.683455 
L 92.827472 48.403466 
L 92.892787 48.660766 
L 92.951881 48.504553 
L 92.982983 48.688455 
L 93.007865 48.585012 
L 93.094951 48.687426 
L 93.060739 48.454611 
L 93.110502 48.609148 
L 93.169596 48.508334 
L 93.21625 48.700983 
L 93.21936 48.641714 
L 93.300226 48.446032 
L 93.315777 48.677872 
L 93.334438 48.599578 
L 93.346879 48.701192 
L 93.371761 48.563414 
L 93.443296 48.621943 
L 93.449516 48.457477 
L 93.514831 48.68657 
L 93.549043 48.644477 
L 93.611248 48.695182 
L 93.64546 48.456778 
L 93.65168 48.542158 
L 93.692113 48.698582 
L 93.664121 48.468174 
L 93.766759 48.609808 
L 93.800971 48.474724 
L 93.776089 48.693993 
L 93.875616 48.634965 
L 93.909829 48.697531 
L 93.975143 48.503696 
L 93.981364 48.596898 
L 94.003135 48.461299 
L 94.052899 48.699658 
L 94.090222 48.596359 
L 94.111993 48.676413 
L 94.155536 48.505167 
L 94.202189 48.627911 
L 94.304827 48.517188 
L 94.264394 48.683717 
L 94.307937 48.565642 
L 94.311047 48.695869 
L 94.410574 48.45736 
L 94.419905 48.629312 
L 94.438566 48.512044 
L 94.49766 48.698356 
L 94.531873 48.56786 
L 94.606518 48.682409 
L 94.569195 48.516122 
L 94.64073 48.554953 
L 94.646951 48.489441 
L 94.668722 48.685913 
L 94.702935 48.589851 
" clip-path="url(#p605b9e4d0f)" style="fill: none; stroke: #e377c2; stroke-width: 0.5; stroke-linecap: square"/>
   </g>
  </g>
 </g>
 <defs>
  <clipPath id="p605b9e4d0f">
   <rect x="0" y="-0" width="99.212598" height="51.023622"/>
  </clipPath>
 </defs>
</svg>
