<?xml version="1.0" encoding="utf-8" standalone="no"?>
<!DOCTYPE svg PUBLIC "-//W3C//DTD SVG 1.1//EN"
  "http://www.w3.org/Graphics/SVG/1.1/DTD/svg11.dtd">
<svg xmlns:xlink="http://www.w3.org/1999/xlink" width="99.212598pt" height="51.023622pt" viewBox="0 0 99.212598 51.023622" xmlns="http://www.w3.org/2000/svg" version="1.1">
 <metadata>
  <rdf:RDF xmlns:dc="http://purl.org/dc/elements/1.1/" xmlns:cc="http://creativecommons.org/ns#" xmlns:rdf="http://www.w3.org/1999/02/22-rdf-syntax-ns#">
   <cc:Work>
    <dc:type rdf:resource="http://purl.org/dc/dcmitype/StillImage"/>
    <dc:date>2024-10-31T23:12:52.683330</dc:date>
    <dc:format>image/svg+xml</dc:format>
    <dc:creator>
     <cc:Agent>
      <dc:title>Matplotlib v3.8.4, https://matplotlib.org/</dc:title>
     </cc:Agent>
    </dc:creator>
   </cc:Work>
  </rdf:RDF>
 </metadata>
 <defs>
  <style type="text/css">*{stroke-linejoin: round; stroke-linecap: butt}</style>
 </defs>
 <g id="figure_1">
  <g id="patch_1">
   <path d="M 0 51.023622 
L 99.212598 51.023622 
L 99.212598 0 
L 0 0 
L 0 51.023622 
z
" style="fill: none"/>
  </g>
  <g id="axes_1">
   <g id="patch_2">
    <path d="M 0 51.023622 
L 99.212598 51.023622 
L 99.212598 -0 
L 0 -0 
L 0 51.023622 
z
" style="fill: none"/>
   </g>
   <g id="matplotlib.axis_1">
    <g id="xtick_1"/>
    <g id="xtick_2"/>
   </g>
   <g id="matplotlib.axis_2">
    <g id="ytick_1"/>
    <g id="ytick_2"/>
   </g>
   <g id="line2d_1">
    <path d="M 4.509664 0.540401 
L 4.520938 -0 
L 4.535287 1.84725 
L 4.760773 45.804766 
L 4.791521 42.03086 
L 4.916563 36.66417 
L 4.877615 45.316466 
L 4.928862 37.384182 
L 5.102076 49.707454 
L 5.141024 47.067866 
L 5.142049 47.067117 
L 5.155373 47.193356 
L 5.223018 48.432474 
L 5.237368 46.890316 
L 5.282465 44.686456 
L 5.326537 50.293306 
L 5.35421 50.735922 
L 5.406482 48.473902 
L 5.478227 50.728169 
L 5.532549 47.406178 
L 5.541773 47.501522 
L 5.59712 50.818774 
L 5.670915 47.952656 
L 5.693464 47.359209 
L 5.719087 48.688509 
L 5.749835 50.077694 
L 5.815431 48.56742 
L 5.840029 49.442216 
L 5.857453 48.912566 
L 5.90255 50.012277 
L 6.021443 50.642716 
L 5.963022 48.275747 
L 6.022468 50.640515 
L 6.156734 48.378874 
L 6.212081 49.307883 
L 6.272552 49.691271 
L 6.250004 48.932686 
L 6.285876 48.972862 
L 6.2992 48.12439 
L 6.355572 50.405038 
L 6.383245 50.153141 
L 6.513412 50.819154 
L 6.426292 49.588222 
L 6.514437 50.800977 
L 6.598481 48.124976 
L 6.664077 48.85258 
L 6.665102 48.851799 
L 6.674327 48.967947 
L 6.807568 50.927415 
L 6.834217 50.123392 
L 6.841391 50.19827 
L 6.846516 50.016683 
L 6.860865 49.20704 
L 6.93466 50.72762 
L 6.949009 50.569439 
L 6.991032 51.009726 
L 7.079176 49.043178 
L 7.149897 48.23333 
L 7.123248 50.228496 
L 7.168345 49.548265 
L 7.295437 50.404248 
L 7.199093 49.363172 
L 7.300562 50.305914 
L 7.310811 49.999952 
L 7.326185 50.834442 
L 7.397931 50.768915 
L 7.402031 50.921984 
L 7.431754 49.286932 
L 7.502474 50.500377 
L 7.629566 49.354351 
L 7.569095 50.949258 
L 7.639816 49.69399 
L 7.65724 50.440337 
L 7.739234 49.272195 
L 7.744359 49.341068 
L 7.869401 50.89648 
L 7.888875 50.357825 
L 7.950371 49.891816 
L 7.934997 50.697337 
L 7.961645 50.59552 
L 7.974969 50.883133 
L 8.036466 49.608836 
L 8.071313 50.513689 
L 8.102061 50.256158 
L 8.085662 50.983272 
L 8.176882 50.61835 
L 8.259901 49.620683 
L 8.27425 50.635002 
L 8.339846 50.997967 
L 8.300899 49.683815 
L 8.380844 50.234897 
L 8.391093 50.138707 
L 8.404417 49.884024 
L 8.451564 50.701959 
L 8.481287 50.602235 
L 8.484362 50.60375 
L 8.493587 50.480148 
L 8.556108 50.307839 
L 8.522285 51.016159 
L 8.586856 50.855894 
L 8.588906 51.002008 
L 8.662701 50.028272 
L 8.690374 50.184634 
L 8.697549 50.110339 
L 8.734446 51.016274 
L 8.773394 50.705034 
L 8.776469 50.729773 
L 8.845139 50.234856 
L 8.860513 50.445092 
L 8.887162 49.941736 
L 8.944558 51.008559 
L 8.972231 50.373906 
L 8.980431 50.298502 
L 8.995805 50.887658 
L 8.997855 50.926954 
L 9.060376 49.939729 
L 9.098298 50.658964 
L 9.106498 50.703318 
L 9.142371 50.216242 
L 9.147495 50.117134 
L 9.175169 50.898535 
L 9.241789 50.516729 
L 9.307385 51.008496 
L 9.275612 50.080474 
L 9.355557 50.702151 
L 9.380156 50.299526 
L 9.399629 50.94215 
L 9.463175 50.882531 
L 9.561569 49.992581 
L 9.518522 50.973206 
L 9.584118 50.784701 
L 9.687636 50.973969 
L 9.670212 50.118166 
L 9.691736 50.705778 
L 9.755282 49.851804 
L 9.720434 50.862328 
L 9.803454 50.659444 
L 9.865975 50.865428 
L 9.822928 50.19847 
L 9.903897 50.533235 
L 9.988967 50.099502 
L 9.952069 50.987798 
L 10.010491 50.872715 
L 10.02484 50.478007 
L 10.124259 50.839702 
L 10.129383 50.863093 
L 10.183705 50.492809 
L 10.254425 50.195599 
L 10.209328 50.918356 
L 10.287223 50.547055 
L 10.349744 51.000185 
L 10.322071 50.14924 
L 10.394841 50.409479 
L 10.40919 50.581098 
L 10.446088 50.706746 
L 10.486061 50.193012 
L 10.521933 50.630362 
L 10.615202 50.136682 
L 10.597779 51.008627 
L 10.640826 50.493627 
L 10.668499 50.350201 
L 10.6562 50.963137 
L 10.697197 50.737066 
L 10.753569 50.98692 
L 10.723846 50.25885 
L 10.796616 50.314127 
L 10.804815 50.441234 
L 10.930882 50.973579 
L 10.850938 50.248156 
L 10.932932 50.945917 
L 10.990329 50.340659 
L 10.945232 51.006864 
L 11.0467 50.856313 
L 11.104097 51.009374 
L 11.057974 50.367248 
L 11.149194 50.433724 
L 11.165593 50.117727 
L 11.196341 50.846318 
L 11.259887 50.419667 
L 11.28961 51.00777 
L 11.320358 50.333214 
L 11.376729 50.559766 
L 11.421826 50.968657 
L 11.452575 50.264334 
L 11.483323 50.525234 
L 11.507921 50.069902 
L 11.531495 50.885482 
L 11.59914 50.301845 
L 11.625789 50.284027 
L 11.646287 50.757039 
L 11.734432 50.991225 
L 11.687285 50.560423 
L 11.760055 50.868606 
L 11.8359 50.197279 
L 11.880997 50.71862 
L 11.966067 50.946807 
L 11.935319 50.36924 
L 11.989641 50.658938 
L 12.031663 51.012908 
L 12.055236 50.447906 
L 12.056261 50.446644 
L 12.065486 50.588523 
L 12.131082 50.934226 
L 12.091109 50.483589 
L 12.185403 50.918819 
L 12.302246 50.075893 
L 12.257149 50.951736 
L 12.312495 50.29004 
L 12.428313 50.946562 
L 12.351443 50.255448 
L 12.435487 50.682183 
L 12.445737 50.397161 
L 12.528756 50.982043 
L 12.54618 50.679338 
L 12.572829 50.394026 
L 12.62715 50.923803 
L 12.628175 50.932344 
L 12.646624 50.223638 
L 12.688646 50.540268 
L 12.697871 50.305704 
L 12.715295 50.999863 
L 12.794215 50.740544 
L 12.845461 50.556983 
L 12.832137 50.968813 
L 12.858786 50.923132 
L 12.927456 50.983802 
L 12.936681 50.48346 
L 12.986902 50.435117 
L 12.996127 50.995656 
L 13.035074 50.726303 
L 13.10682 50.93711 
L 13.129368 50.082251 
L 13.158067 50.066536 
L 13.169341 50.473716 
L 13.241086 51.013191 
L 13.276959 50.352205 
L 13.375353 50.259471 
L 13.33538 50.988727 
L 13.381503 50.449552 
L 13.461447 50.967358 
L 13.481946 50.422151 
L 13.492196 50.446545 
L 13.57829 50.997804 
L 13.618263 50.605176 
L 13.627487 50.440345 
L 13.647986 50.985534 
L 13.718706 50.84632 
L 13.724856 50.992935 
L 13.781227 50.546923 
L 13.813 50.587693 
L 13.8171 50.40467 
L 13.853998 50.979302 
L 13.921643 50.652686 
L 13.943167 50.939748 
L 13.983139 50.454796 
L 14.029262 50.499632 
L 14.034386 50.43766 
L 14.118431 50.921986 
L 14.168653 51.013527 
L 14.21375 50.405508 
L 14.216825 50.356466 
L 14.271146 50.979597 
L 14.307019 50.783965 
L 14.313169 50.988217 
L 14.413612 50.521585 
L 14.45461 50.943772 
L 14.480233 50.376828 
L 14.483308 50.349522 
L 14.549929 50.917222 
L 14.563253 50.757798 
L 14.570427 51.015802 
L 14.643198 50.241225 
L 14.678046 50.877062 
L 14.782589 50.543566 
L 14.753891 50.951686 
L 14.790788 50.85032 
L 14.852285 51.014443 
L 14.883033 50.442362 
L 14.900456 50.744267 
L 14.959903 50.518384 
L 14.934279 51.011201 
L 14.974252 50.892482 
L 15.050097 50.959372 
L 15.006025 50.385026 
L 15.062396 50.619554 
L 15.07982 50.35575 
L 15.119793 50.99967 
L 15.172064 50.692187 
L 15.193588 50.977406 
L 15.24586 50.392787 
L 15.270458 50.423075 
L 15.298131 50.291348 
L 15.31863 50.699198 
L 15.376026 50.546738 
L 15.384226 50.530711 
L 15.417024 50.692372 
L 15.426248 50.691132 
L 15.463146 50.960873 
L 15.451872 50.518384 
L 15.531817 50.607172 
L 15.536941 50.524143 
L 15.572814 51.016395 
L 15.63841 50.711521 
L 15.758327 50.982944 
L 15.659933 50.622114 
L 15.761402 50.953031 
L 15.821873 50.581804 
L 15.846472 50.977655 
L 15.880295 50.827447 
L 15.899768 50.95941 
L 15.960239 50.544035 
L 15.964339 50.443185 
L 16.000212 50.973079 
L 16.063758 50.814064 
L 16.099631 50.918508 
L 16.143703 50.407903 
L 16.171376 50.194587 
L 16.229797 50.745558 
L 16.256446 50.363591 
L 16.389687 50.960831 
L 16.397887 50.844116 
L 16.42761 50.523468 
L 16.462458 50.960351 
L 16.50858 50.837211 
L 16.513704 51.002626 
L 16.58955 50.611381 
L 16.623373 50.576756 
L 16.652071 51.011822 
L 16.675644 50.922716 
L 16.751489 51.012467 
L 16.723816 50.7347 
L 16.764814 50.75499 
L 16.852958 50.695969 
L 16.798636 50.982043 
L 16.861157 50.845145 
L 16.864232 50.971306 
L 16.942127 50.538288 
L 16.968776 50.754432 
L 17.095868 50.329097 
L 17.037446 50.882274 
L 17.099967 50.361693 
L 17.202461 51.006249 
L 17.229109 50.639912 
L 17.236284 50.544448 
L 17.305979 50.93486 
L 17.327503 50.905469 
L 17.392074 50.974327 
L 17.358251 50.408976 
L 17.411548 50.507725 
L 17.412573 50.497197 
L 17.422822 50.968026 
L 17.495592 50.789605 
L 17.520191 50.915986 
L 17.546839 50.646171 
L 17.565288 50.687069 
L 17.569388 50.657486 
L 17.647283 50.998136 
L 17.671881 50.733733 
L 17.683155 50.855221 
L 17.750801 50.994885 
L 17.737477 50.522158 
L 17.780524 50.674301 
L 17.819472 50.57587 
L 17.849195 50.960871 
L 17.885068 50.809103 
L 17.924015 50.966575 
L 17.959888 50.537185 
L 17.993711 50.710496 
L 18.043933 50.426984 
L 18.00601 50.806484 
L 18.118753 50.512813 
L 18.271468 51.001854 
L 18.286842 50.872727 
L 18.299142 50.336106 
L 18.357563 51.02122 
L 18.40266 50.70719 
L 18.478505 51.014778 
L 18.423159 50.465468 
L 18.514378 50.788341 
L 18.516428 50.787742 
L 18.531802 50.934386 
L 18.55435 51.00503 
L 18.580999 50.778844 
L 18.632245 50.782921 
L 18.687592 50.55815 
L 18.696816 50.988625 
L 18.71424 50.918902 
L 18.768562 51.002666 
L 18.735764 50.680362 
L 18.816734 50.69291 
L 18.833133 50.447284 
L 18.847482 50.91808 
L 18.929477 50.633265 
L 18.930502 50.63279 
L 18.940751 50.744373 
L 18.962275 50.905515 
L 19.017621 50.562857 
L 19.051444 50.737596 
L 19.069893 50.474881 
L 19.147788 50.945481 
L 19.154962 50.884336 
L 19.179561 50.528732 
L 19.245157 50.96703 
L 19.27898 50.671382 
L 19.393772 51.016093 
L 19.364049 50.655232 
L 19.400947 50.831196 
L 19.409146 50.561312 
L 19.447069 51.002527 
L 19.512665 50.772746 
L 19.570061 50.766115 
L 19.543413 50.986502 
L 19.580311 50.923591 
L 19.58441 51.005758 
L 19.677679 50.694371 
L 19.685879 50.783061 
L 19.779148 50.997307 
L 19.739175 50.745212 
L 19.792472 50.783367 
L 19.901115 50.6394 
L 19.866267 51.00345 
L 19.90624 50.67232 
L 19.962611 51.006122 
L 19.924689 50.632706 
L 20.015908 50.65439 
L 20.016933 50.65382 
L 20.024107 50.766855 
L 20.107127 50.630297 
L 20.144025 50.999975 
L 20.250618 50.727535 
L 20.186047 51.013563 
L 20.256768 50.913667 
L 20.259843 51.006641 
L 20.293665 50.617862 
L 20.367461 50.915073 
L 20.37771 50.997445 
L 20.484303 50.695664 
L 20.489428 50.685716 
L 20.549899 50.919167 
L 20.557074 51.019934 
L 20.624719 50.644312 
L 20.652393 50.722418 
L 20.655468 50.702321 
L 20.668792 50.994985 
L 20.742587 50.875033 
L 20.77026 50.995083 
L 20.807158 50.638258 
L 20.850205 50.759746 
L 20.942449 50.539512 
L 20.955774 50.970355 
L 21.077741 50.673083 
L 20.986522 51.011865 
L 21.08594 50.837125 
L 21.159736 50.996634 
L 21.124888 50.723017 
L 21.193558 50.758748 
L 21.212007 50.656475 
L 21.221232 51.007414 
L 21.295027 50.930683 
L 21.384196 51.001341 
L 21.311426 50.459466 
L 21.398546 50.798861 
L 21.502064 50.617214 
L 21.428269 51.00427 
L 21.511288 50.747585 
L 21.626081 50.981899 
L 21.549211 50.594703 
L 21.630181 50.866835 
L 21.64043 50.554226 
L 21.699876 51.006893 
L 21.738824 50.929618 
L 21.794171 51.007601 
L 21.836193 50.625964 
L 21.840293 50.567119 
L 21.867966 51.000072 
L 21.939711 50.797056 
L 22.065778 50.996235 
L 22.009407 50.705912 
L 22.066803 50.99538 
L 22.173397 50.757195 
L 22.181596 50.967698 
L 22.245142 51.006156 
L 22.19697 50.788935 
L 22.28204 50.870212 
L 22.339436 50.662878 
L 22.36096 50.999193 
L 22.392733 50.87898 
L 22.479852 51.017188 
L 22.43168 50.675832 
L 22.488052 50.835068 
L 22.558772 50.570789 
L 22.513675 50.954478 
L 22.59977 50.798336 
L 22.700213 51.001954 
L 22.688939 50.613696 
L 22.714562 50.851581 
L 22.766834 50.510553 
L 22.793482 51.006334 
L 22.821156 50.889702 
L 22.82628 50.99238 
L 22.875477 50.575891 
L 22.921599 50.710364 
L 22.923649 50.688343 
L 22.949272 51.004238 
L 23.021018 50.874159 
L 23.051766 51.012957 
L 23.032292 50.648491 
L 23.134786 50.962662 
L 23.14811 50.983539 
L 23.161434 50.806251 
L 23.205506 50.828245 
L 23.21883 50.514075 
L 23.262903 51.01921 
L 23.306975 50.914292 
L 23.336698 50.996841 
L 23.352072 50.710201 
L 23.394094 50.743533 
L 23.400244 50.629048 
L 23.418693 50.998915 
L 23.501713 50.796817 
L 23.520161 50.763027 
L 23.537585 50.946746 
L 23.551934 51.01679 
L 23.574483 50.636771 
L 23.644179 50.788141 
L 23.674927 50.986528 
L 23.699525 50.748732 
L 23.757946 50.803873 
L 23.818418 50.689434 
L 23.806118 51.012768 
L 23.861465 50.903145 
L 23.865565 51.009724 
L 23.945509 50.55539 
L 23.964983 50.795312 
L 23.970108 50.592753 
L 24.032629 51.012117 
L 24.073626 50.914499 
L 24.155621 50.619963 
L 24.0931 51.010903 
L 24.18022 50.921975 
L 24.185344 51.0061 
L 24.283738 50.756312 
L 24.287838 50.672224 
L 24.316536 51.022703 
L 24.390331 50.836313 
L 24.395456 50.999474 
L 24.423129 50.677537 
L 24.503074 50.9313 
L 24.614792 50.623836 
L 24.581994 51.003596 
L 24.618892 50.711146 
L 24.672189 51.007972 
L 24.739834 50.947227 
L 24.743934 50.963657 
L 24.749059 50.837626 
L 24.753158 50.765515 
L 24.821829 51.011088 
L 24.857702 50.889224 
L 24.895624 51.001898 
L 24.922273 50.654078 
L 24.972495 50.975847 
L 25.026816 50.353976 
L 25.086262 50.884166 
L 25.12111 51.013027 
L 25.097537 50.760131 
L 25.196955 50.879413 
L 25.251277 50.720124 
L 25.281 50.926146 
L 25.305598 50.902633 
L 25.310723 51.001486 
L 25.388618 50.764587 
L 25.415267 50.913836 
L 25.423466 50.731243 
L 25.441915 51.019508 
L 25.524935 50.947134 
L 25.580281 50.649591 
L 25.551583 51.012005 
L 25.627428 50.993967 
L 25.718647 51.005066 
L 25.639727 50.784357 
L 25.723772 50.783231 
L 25.727872 50.67902 
L 25.739146 50.970184 
L 25.83344 50.823089 
L 25.876487 51.017682 
L 25.956432 50.875627 
L 26.017928 50.736118 
L 25.99333 51.009374 
L 26.060976 50.947691 
L 26.06405 50.997162 
L 26.138871 50.499796 
L 26.139896 50.496906 
L 26.152195 50.769444 
L 26.261863 51.006792 
L 26.183968 50.673096 
L 26.269038 50.979771 
L 26.328484 50.716847 
L 26.398179 50.8609 
L 26.424828 51.004715 
L 26.501698 50.708057 
L 26.504773 50.731514 
L 26.61854 51.016536 
L 26.623665 50.859383 
L 26.62879 50.743458 
L 26.645189 51.001428 
L 26.733333 50.873924 
L 26.808153 51.011712 
L 26.746657 50.837861 
L 26.846076 50.95007 
L 26.853251 51.011619 
L 26.918846 50.613363 
L 26.921921 50.550777 
L 27.01519 51.013776 
L 27.018265 50.972067 
L 27.112559 50.710579 
L 27.039789 51.00596 
L 27.127933 50.974038 
L 27.224277 51.003751 
L 27.164831 50.681007 
L 27.228377 50.819722 
L 27.270399 50.569783 
L 27.241701 51.015485 
L 27.33497 50.910588 
L 27.373918 51.007608 
L 27.440538 50.73483 
L 27.442588 50.744879 
L 27.458987 51.016748 
L 27.565581 50.913917 
L 27.686523 50.704818 
L 27.663974 51.012652 
L 27.688573 50.710213 
L 27.817715 50.9903 
L 27.821814 50.892321 
L 27.846413 50.646676 
L 27.867936 50.999173 
L 27.930457 50.950969 
L 27.951981 51.014954 
L 27.982729 50.797315 
L 28.040126 50.925039 
L 28.062674 50.738634 
L 28.05345 50.940787 
L 28.150819 50.910423 
L 28.157993 50.960512 
L 28.20514 50.754026 
L 28.250237 50.801465 
L 28.299434 50.624412 
L 28.278935 50.97571 
L 28.334282 50.873527 
L 28.446 51.011357 
L 28.408077 50.647579 
L 28.44805 50.978589 
L 28.548493 50.790689 
L 28.452149 51.001567 
L 28.572067 50.907185 
L 28.587441 51.013208 
L 28.600765 50.747236 
L 28.679685 50.858564 
L 28.790378 50.757131 
L 28.738106 50.956634 
L 28.793453 50.787741 
L 28.868273 51.01231 
L 28.823176 50.725568 
L 28.907221 50.86012 
L 28.995365 50.71462 
L 28.938994 51.000255 
L 29.00254 50.960151 
L 29.104008 51.020284 
L 29.032263 50.659817 
L 29.111183 50.873252 
L 29.147056 50.688852 
L 29.134756 51.016887 
L 29.2311 50.744368 
L 29.319245 51.009213 
L 29.346918 50.867533 
L 29.461711 50.764277 
L 29.438137 50.990136 
L 29.464785 50.789896 
L 29.508858 50.993769 
L 29.54883 50.705795 
L 29.575478 50.799287 
L 29.589828 50.666741 
L 29.678997 50.997977 
L 29.680022 50.984022 
L 29.737418 50.627297 
L 29.79379 50.937747 
L 29.894233 51.019215 
L 29.822488 50.681293 
L 29.903458 50.915097 
L 29.961879 50.725451 
L 29.923956 50.988049 
L 30.016201 50.875997 
L 30.02645 51.014154 
L 30.054123 50.743424 
L 30.128943 50.893128 
L 30.209913 50.747694 
L 30.147392 51.013319 
L 30.235537 50.930654 
L 30.304207 51.012549 
L 30.334955 50.81439 
L 30.34623 50.925544 
L 30.452823 50.998644 
L 30.419 50.793252 
L 30.455898 50.925981 
L 30.563516 50.729649 
L 30.464097 50.99606 
L 30.569666 50.857632 
L 30.643461 50.996955 
L 30.579915 50.75038 
L 30.684458 50.957395 
L 30.766453 50.731421 
L 30.73468 51.019193 
L 30.824874 50.81456 
L 30.847423 51.007274 
L 30.89252 50.707115 
L 30.932493 50.771148 
L 31.017562 50.663697 
L 30.970415 51.008365 
L 31.038061 50.823394 
L 31.115956 50.984973 
L 31.057535 50.726565 
L 31.148754 50.814525 
L 31.205125 50.731528 
L 31.161053 51.004992 
L 31.225624 50.979635 
L 31.231774 51.012176 
L 31.239973 50.797887 
L 31.266621 50.81258 
L 31.36809 50.680195 
L 31.277896 50.979992 
L 31.373215 50.833113 
L 31.401913 51.006949 
L 31.416262 50.756609 
L 31.484933 50.87414 
L 31.556678 50.795877 
L 31.531055 51.003822 
L 31.577177 50.942166 
L 31.671471 51.021565 
L 31.612025 50.708839 
L 31.688895 50.965512 
L 31.786264 51.01676 
L 31.748341 50.750937 
L 31.793438 50.920969 
L 31.84366 50.798427 
L 31.818037 51.021337 
L 31.906181 50.842523 
L 31.923605 51.003519 
L 31.968702 50.692551 
L 32.020974 50.918195 
L 32.038398 50.738038 
L 32.067096 51.002656 
L 32.125517 50.975439 
L 32.185988 51.006745 
L 32.15319 50.706062 
L 32.196238 50.764206 
L 32.218786 50.618201 
L 32.294631 51.011496 
L 32.303856 50.869866 
L 32.39405 50.739974 
L 32.384826 51.006503 
L 32.414549 50.856207 
L 32.534466 51.017181 
L 32.450422 50.639304 
L 32.535491 51.012099 
L 32.573414 50.604249 
L 32.652334 50.956509 
L 32.657459 51.01502 
L 32.697431 50.769529 
L 32.764052 50.976824 
L 32.774301 50.97833 
L 32.789675 50.87072 
L 32.832722 50.684196 
L 32.802999 51.004187 
L 32.895243 50.963964 
L 32.897293 51.009797 
L 32.957765 50.800966 
L 33.006961 50.980272 
L 33.037709 50.806021 
L 33.061283 51.015926 
L 33.119704 50.932765 
L 33.121754 51.018931 
L 33.184275 50.728656 
L 33.227322 50.809609 
L 33.231422 50.742923 
L 33.258071 51.014749 
L 33.334941 50.904471 
L 33.438459 50.605295 
L 33.362614 50.98932 
L 33.474332 50.777123 
L 33.480481 51.01531 
L 33.541978 50.671341 
L 33.5881 50.879957 
L 33.647546 51.018548 
L 33.674194 50.730286 
L 33.694693 50.794679 
L 33.695718 50.790709 
L 33.705967 51.008085 
L 33.757214 50.989143 
L 33.758239 51.017113 
L 33.795137 50.688605 
L 33.865857 50.957542 
L 33.943752 50.75788 
L 33.882256 51.005734 
L 33.97655 50.967433 
L 34.083143 51.00079 
L 34.067769 50.700094 
L 34.085193 50.963959 
L 34.163088 50.771851 
L 34.154889 50.998829 
L 34.199986 50.864207 
L 34.205111 50.901144 
L 34.214335 50.74364 
L 34.218435 50.718015 
L 34.280956 51.009447 
L 34.308629 50.929748 
L 34.36705 51.014195 
L 34.357826 50.816597 
L 34.418297 50.932315 
L 34.439821 50.675118 
L 34.45622 51.001414 
L 34.530015 50.873369 
L 34.543339 51.007518 
L 34.631484 50.738182 
L 34.636608 50.650377 
L 34.660182 51.00785 
L 34.735002 50.927604 
L 34.755501 50.994728 
L 34.790349 50.811642 
L 34.794448 50.762026 
L 34.874393 51.014052 
L 34.893867 50.966181 
L 34.905141 51.014328 
L 34.915391 50.7846 
L 34.999435 50.911947 
L 35.046582 50.71297 
L 35.052732 51.00836 
L 35.110128 50.922909 
L 35.174699 51.006276 
L 35.1665 50.781744 
L 35.219796 50.896607 
L 35.32229 51.009651 
L 35.283342 50.814201 
L 35.333564 50.945498 
L 35.427858 50.807017 
L 35.40121 50.99386 
L 35.444257 50.956249 
L 35.528302 50.822291 
L 35.504728 50.989583 
L 35.564175 50.866654 
L 35.625671 51.017471 
L 35.636945 50.812217 
L 35.674868 50.888592 
L 35.700491 50.659295 
L 35.709716 51.003495 
L 35.783511 50.971379 
L 35.80401 51.004291 
L 35.903428 50.703933 
L 35.997722 51.01639 
L 36.044869 50.88588 
L 36.052044 50.784961 
L 36.097141 51.01122 
L 36.154537 50.907146 
L 36.19861 50.802515 
L 36.162737 51.002401 
L 36.251906 50.950068 
L 36.254981 51.008223 
L 36.315452 50.75336 
L 36.35645 50.842667 
L 36.414871 50.800977 
L 36.382073 51.019068 
L 36.462018 50.914256 
L 36.51019 50.826199 
L 36.529664 51.009803 
L 36.542988 51.010323 
L 36.544013 51.01882 
L 36.556312 50.850008 
L 36.641382 50.908949 
L 36.745925 50.79993 
L 36.678279 51.014033 
L 36.7531 50.897275 
L 36.861743 51.000902 
L 36.796147 50.712624 
L 36.866867 50.952701 
L 36.91094 51.021573 
L 36.945787 50.79547 
L 36.951937 50.798195 
L 36.966286 50.736185 
L 36.98781 51.011651 
L 37.05648 50.871832 
L 37.06058 50.979552 
L 37.163074 50.722279 
L 37.319889 51.012282 
L 37.323988 50.882989 
L 37.328088 50.820867 
L 37.367036 50.994033 
L 37.432632 50.935416 
L 37.443906 51.019325 
L 37.527951 50.837724 
L 37.533075 50.837587 
L 37.634544 50.740046 
L 37.584322 51.018249 
L 37.642743 50.878089 
L 37.70219 51.021143 
L 37.721663 50.80945 
L 37.756511 50.959347 
L 37.862079 50.739226 
L 37.800583 51.011244 
L 37.869254 50.876251 
L 37.978922 51.000987 
L 37.908201 50.798335 
L 37.983022 50.942422 
L 37.988146 51.004711 
L 38.01582 50.796393 
L 38.054767 50.828064 
L 38.057842 50.800844 
L 38.091665 51.023068 
L 38.155211 50.971111 
L 38.157261 51.019826 
L 38.256679 50.772248 
L 38.368397 51.007533 
L 38.322275 50.760623 
L 38.377622 50.868161 
L 38.427844 50.68475 
L 38.47909 50.97998 
L 38.48524 50.926392 
L 38.533412 51.020397 
L 38.512913 50.831242 
L 38.601058 50.969905 
L 38.608232 50.875557 
L 38.64718 51.004584 
L 38.713801 50.925193 
L 38.80297 51.018939 
L 38.722 50.835292 
L 38.824494 50.939036 
L 38.887015 50.763423 
L 38.932112 51.013386 
L 38.936211 50.924581 
L 38.947486 50.746317 
L 38.998733 51.010624 
L 39.047929 50.924504 
L 39.143248 50.836916 
L 39.076628 51.014356 
L 39.153498 50.951805 
L 39.204744 51.003622 
L 39.173996 50.792948 
L 39.264191 50.952937 
L 39.365659 51.015746 
L 39.294939 50.796135 
L 39.373859 50.942113 
L 39.463028 50.852173 
L 39.470203 51.006541 
L 39.483527 50.95952 
L 39.535799 51.007987 
L 39.555272 50.75628 
L 39.58602 50.901437 
L 39.652641 50.715062 
L 39.686464 51.001205 
L 39.695688 50.928747 
L 39.768459 50.988717 
L 39.776658 50.745027 
L 39.777683 50.74483 
L 39.783833 50.838422 
L 39.786908 50.849068 
L 39.794082 51.017107 
L 39.817656 50.740239 
L 39.90785 50.967958 
L 39.98267 50.988275 
L 39.963197 50.861203 
L 39.98677 50.911383 
L 39.989845 50.851966 
L 40.004194 51.013804 
L 40.094388 50.992989 
L 40.14871 51.013759 
L 40.156909 50.788326 
L 40.203031 50.97187 
L 40.212256 50.731156 
L 40.236854 50.995912 
L 40.312699 50.961255 
L 40.380345 51.020265 
L 40.419293 50.836281 
L 40.420318 50.839466 
L 40.474639 51.012346 
L 40.463365 50.813605 
L 40.53921 50.909576 
L 40.593532 51.017396 
L 40.604806 50.753114 
L 40.657078 50.938613 
L 40.751372 50.784502 
L 40.676551 51.016688 
L 40.770845 50.879233 
L 40.785195 51.012457 
L 40.879489 50.82352 
L 40.94406 50.719522 
L 40.903062 51.005367 
L 40.979932 50.919034 
L 41.066027 51.01509 
L 41.048603 50.780698 
L 41.096775 50.945667 
L 41.112149 50.991803 
L 41.118298 50.839719 
L 41.150071 50.724825 
L 41.182869 50.96905 
L 41.218742 50.947963 
L 41.265889 51.009899 
L 41.312011 50.820172 
L 41.33251 50.99541 
L 41.438078 50.780109 
L 41.374532 51.01789 
L 41.461652 50.936391 
L 41.498549 50.992485 
L 41.564145 50.812516 
L 41.570295 50.84644 
L 41.64409 50.789133 
L 41.629741 51.015291 
L 41.670739 50.954671 
L 41.698412 51.020756 
L 41.738384 50.764083 
L 41.777332 50.803174 
L 41.930047 51.015746 
L 41.933122 50.914964 
L 41.96182 50.824325 
L 41.978219 50.998197 
L 42.039715 50.985905 
L 42.066364 51.014864 
L 42.082762 50.87203 
L 42.097112 50.871364 
L 42.100186 50.788685 
L 42.116585 51.008509 
L 42.20678 50.925083 
L 42.293899 50.738519 
L 42.2734 51.002197 
L 42.317473 50.89137 
L 42.417916 51.012864 
L 42.397418 50.763161 
L 42.429191 50.929927 
L 42.44149 51.016092 
L 42.470188 50.774395 
L 42.497861 50.782323 
L 42.501961 50.721022 
L 42.578831 51.009902 
L 42.600355 50.9523 
L 42.677225 51.015696 
L 42.623928 50.824544 
L 42.713098 50.98371 
L 42.774594 50.822378 
L 42.812516 51.022701 
L 42.824816 50.935601 
L 42.933459 51.019393 
L 42.843264 50.808215 
L 42.935509 50.966952 
L 43.014429 50.836696 
L 43.039027 51.018943 
L 43.045177 50.973242 
L 43.14357 51.009761 
L 43.092324 50.791003 
L 43.15587 50.971841 
L 43.258363 51.010534 
L 43.241964 50.847608 
L 43.265538 50.9558 
L 43.371106 51.011043 
L 43.287061 50.871349 
L 43.38033 50.920527 
L 43.450026 50.814242 
L 43.396729 51.001018 
L 43.46745 50.990365 
L 43.4695 51.022768 
L 43.54022 50.846205 
L 43.576093 50.982754 
L 43.630415 50.752122 
L 43.646814 51.01647 
L 43.689861 50.917566 
L 43.720609 50.844694 
L 43.713434 51.004382 
L 43.778005 50.986027 
L 43.77903 51.005628 
L 43.8559 50.759264 
L 43.882549 50.86443 
L 43.989142 51.022163 
L 43.903047 50.809969 
L 44.002466 50.900648 
L 44.027065 50.825637 
L 44.056788 51.012328 
L 44.10496 50.974791 
L 44.126483 51.00727 
L 44.154156 50.834556 
L 44.212578 50.918455 
L 44.230002 50.813204 
L 44.25665 51.014614 
L 44.319171 50.974904 
L 44.334545 51.017401 
L 44.369393 50.831273 
L 44.425764 50.859578 
L 44.426789 50.858272 
L 44.447288 51.005777 
L 44.450363 51.005945 
L 44.457537 51.011307 
L 44.463687 50.829014 
L 44.532358 50.877224 
L 44.569255 50.80774 
L 44.597953 51.005643 
L 44.631776 50.989536 
L 44.632801 51.017581 
L 44.664574 50.847481 
L 44.73837 50.879025 
L 44.839838 51.006591 
L 44.800891 50.750457 
L 44.852137 50.90785 
L 44.864437 50.818574 
L 44.930032 51.01018 
L 44.96283 50.887569 
L 45.064299 51.011315 
L 45.014077 50.792322 
L 45.077623 51.001384 
L 45.208815 50.785335 
L 45.12067 51.018919 
L 45.234438 50.850336 
L 45.354356 51.015831 
L 45.254937 50.846734 
L 45.356405 50.961163 
L 45.422001 50.803656 
L 45.408677 51.017231 
L 45.467098 50.972589 
L 45.558318 51.018958 
L 45.528595 50.832243 
L 45.568567 50.839565 
L 45.706933 51.019038 
L 45.716158 50.910679 
L 45.814551 50.769957 
L 45.76023 51.0111 
L 45.829926 50.855117 
L 45.844275 51.012525 
L 45.926269 50.815544 
L 45.935494 50.816009 
L 45.937544 50.793344 
L 45.970342 51.017587 
L 46.045162 50.838772 
L 46.066686 50.955847 
L 46.162005 51.019848 
L 46.115882 50.85276 
L 46.176354 50.956613 
L 46.225551 50.792075 
L 46.185578 51.019986 
L 46.287047 50.952972 
L 46.332144 50.991267 
L 46.300371 50.81024 
L 46.39569 50.929334 
L 46.402864 50.839277 
L 46.435662 51.01424 
L 46.499208 50.962397 
L 46.535081 51.014648 
L 46.578128 50.811296 
L 46.600677 50.830415 
L 46.621175 50.798035 
L 46.676522 51.018768 
L 46.704195 50.890976 
L 46.802589 51.014149 
L 46.808739 50.747444 
L 46.809764 50.748956 
L 46.891758 51.013276 
L 46.936856 50.94037 
L 47.000402 50.765602 
L 46.94608 51.013435 
L 47.045499 50.994241 
L 47.046524 51.020206 
L 47.062923 50.852384 
L 47.154142 50.938679 
L 47.167466 51.014897 
L 47.201289 50.836782 
L 47.252536 50.871604 
L 47.25561 50.810387 
L 47.333505 51.014812 
L 47.359129 50.97135 
L 47.361179 51.013063 
L 47.443174 50.811064 
L 47.467772 50.91441 
L 47.537468 50.81009 
L 47.528243 51.021877 
L 47.568216 50.990862 
L 47.569241 51.015786 
L 47.617412 50.826666 
L 47.674809 50.92241 
L 47.74348 50.757901 
L 47.716831 51.006322 
L 47.788577 50.851564 
L 47.875696 51.009588 
L 47.905419 50.943589 
L 47.909519 50.828202 
L 47.977165 51.02087 
L 48.015087 50.982343 
L 48.121681 51.020331 
L 48.023287 50.850461 
L 48.126805 50.993047 
L 48.182152 50.697211 
L 48.250822 50.828387 
L 48.37074 51.012663 
L 48.386114 50.921183 
L 48.440435 50.829642 
L 48.461959 51.017689 
L 48.491682 50.965372 
L 48.552153 51.019339 
L 48.497832 50.880032 
L 48.600325 50.933908 
L 48.634148 50.725419 
L 48.610575 50.997724 
L 48.708968 50.985403 
L 48.821711 50.87393 
L 48.738692 51.022787 
L 48.826836 50.927727 
L 48.92523 51.008508 
L 48.91703 50.82356 
L 48.935479 50.924353 
L 48.940604 50.833579 
L 48.989801 51.010796 
L 49.043097 50.979024 
L 49.045147 51.020293 
L 49.096394 50.848707 
L 49.149691 50.892758 
L 49.174289 50.777996 
L 49.206062 51.008182 
L 49.252184 50.95518 
L 49.310605 51.001983 
L 49.355703 50.813392 
L 49.362877 50.947227 
L 49.449997 50.764071 
L 49.422323 51.015287 
L 49.46947 50.984919 
L 49.470495 51.013701 
L 49.574014 50.802217 
L 49.611936 50.78368 
L 49.63141 51.002584 
L 49.671383 50.893401 
L 49.774901 51.020363 
L 49.689831 50.842525 
L 49.7954 50.977449 
L 49.899943 50.866973 
L 49.829223 51.019312 
L 49.906093 50.968469 
L 49.925567 50.992263 
L 49.912242 50.892613 
L 49.933766 50.862107 
L 49.962464 50.828374 
L 50.024985 51.020952 
L 50.035235 50.98925 
L 50.052658 50.781897 
L 50.042409 51.003907 
L 50.164376 50.982931 
L 50.274044 51.020096 
L 50.214598 50.849021 
L 50.275069 51.004324 
L 50.389862 50.883428 
L 50.371413 51.017048 
L 50.392937 50.909222 
L 50.504655 51.01563 
L 50.456483 50.832477 
L 50.506705 50.984949 
L 50.587675 50.763359 
L 50.538478 51.018313 
L 50.622522 50.880355 
L 50.721941 51.014396 
L 50.633797 50.824167 
L 50.739365 50.98414 
L 50.851083 50.855027 
L 50.800861 51.006033 
L 50.855183 50.943807 
L 50.905405 51.006272 
L 50.932053 50.696604 
L 50.965876 50.965896 
L 51.042746 50.747783 
L 50.989449 51.018905 
L 51.082718 50.894528 
L 51.086818 51.012174 
L 51.113466 50.831416 
L 51.194436 50.935182 
L 51.257982 50.8049 
L 51.201611 50.996557 
L 51.305129 50.916539 
L 51.309229 51.01935 
L 51.364576 50.819635 
L 51.417872 50.986483 
L 51.431196 50.786447 
L 51.513191 51.019562 
L 51.536765 50.853475 
L 51.540864 50.999517 
L 51.581862 50.851142 
L 51.649508 50.938501 
L 51.672056 50.842685 
L 51.678206 51.016493 
L 51.760201 50.94326 
L 51.796073 51.012623 
L 51.85347 50.837597 
L 51.855519 50.810127 
L 51.881143 51.00846 
L 51.960063 50.909355 
L 51.967237 51.002534 
L 52.036933 50.755988 
L 52.073831 50.947206 
L 52.161975 50.80993 
L 52.16915 51.016068 
L 52.181449 51.008759 
L 52.228596 50.728298 
L 52.302391 50.964982 
L 52.389511 51.020841 
L 52.340314 50.762098 
L 52.412059 50.971316 
L 52.47458 50.780922 
L 52.423334 51.021155 
L 52.521727 50.962707 
L 52.523777 51.015837 
L 52.558625 50.730053 
L 52.629346 50.862665 
L 52.782061 51.001998 
L 52.791285 50.930861 
L 52.839457 50.842576 
L 52.845607 51.007946 
L 52.900953 50.954238 
L 52.981923 51.013593 
L 52.9563 50.78549 
L 53.009596 50.919863 
L 53.090566 50.810026 
L 53.03727 51.009767 
L 53.120289 50.914792 
L 53.244307 50.995874 
L 53.174611 50.786211 
L 53.253531 50.965446 
L 53.307853 50.816003 
L 53.281204 51.017579 
L 53.368324 50.949649 
L 53.420596 51.021255 
L 53.43392 50.852116 
L 53.482092 50.972114 
L 53.555887 51.015205 
L 53.495416 50.819998 
L 53.575361 50.924133 
L 53.663505 50.824425 
L 53.619433 51.017354 
L 53.684004 50.978633 
L 53.742425 51.013078 
L 53.695278 50.85757 
L 53.759849 50.859521 
L 53.812121 50.773627 
L 53.82647 51.014911 
L 53.829545 51.015201 
L 53.878742 51.016374 
L 53.845944 50.802198 
L 53.922814 50.943379 
L 53.947412 50.771784 
L 54.006858 51.0169 
L 54.035557 50.894374 
L 54.107302 51.012419 
L 54.043756 50.831315 
L 54.148299 50.953488 
L 54.267192 50.846541 
L 54.153424 50.998391 
L 54.283591 51.015606 
L 54.379935 51.012836 
L 54.292815 50.859621 
L 54.381985 50.965486 
L 54.465004 50.815734 
L 54.387109 51.012811 
L 54.496777 50.929967 
L 54.573648 51.014055 
L 54.503952 50.810275 
L 54.60747 50.929652 
L 54.61772 50.863286 
L 54.632069 51.023085 
L 54.713039 50.965221 
L 54.762236 51.014055 
L 54.782734 50.835665 
L 54.819632 50.925736 
L 54.904702 50.844112 
L 54.84833 51.017914 
L 54.92725 50.955834 
L 54.951849 51.008475 
L 54.939549 50.822903 
L 55.033843 50.885431 
L 55.139412 50.852131 
L 55.041018 51.016158 
L 55.142487 50.891444 
L 55.159911 51.021502 
L 55.241905 50.734355 
L 55.254205 50.931811 
L 55.302377 51.002653 
L 55.265479 50.798976 
L 55.3198 50.858744 
L 55.3239 50.789385 
L 55.405895 51.017316 
L 55.427419 50.925376 
L 55.539137 51.018129 
L 55.513513 50.795635 
L 55.541186 50.966726 
L 55.575009 50.790843 
L 55.548361 51.013625 
L 55.652904 50.928459 
L 55.735924 51.020305 
L 55.702101 50.848988 
L 55.761547 50.866251 
L 55.792296 50.842991 
L 55.881465 51.015081 
L 55.95526 50.81339 
L 55.938861 51.0215 
L 55.997283 50.842103 
L 56.062878 51.01066 
L 56.105926 50.827719 
L 56.107976 50.787355 
L 56.160247 51.01926 
L 56.211494 50.928276 
L 56.310913 50.999564 
L 56.280165 50.876345 
L 56.322187 50.929433 
L 56.42673 51.007009 
L 56.338586 50.835615 
L 56.429805 50.900717 
L 56.528199 50.783147 
L 56.495401 51.015163 
L 56.537423 50.962844 
L 56.639917 50.874814 
L 56.563047 51.01488 
L 56.649141 50.976403 
L 56.75266 51.021188 
L 56.741385 50.785046 
L 56.75676 50.94249 
L 56.762909 50.791564 
L 56.783408 51.008615 
L 56.869502 50.884556 
L 56.934073 51.017106 
L 56.927924 50.865473 
L 56.98532 50.979063 
L 57.080639 50.85816 
L 56.997619 51.009201 
L 57.107287 50.918674 
L 57.169808 51.020725 
L 57.197482 50.869454 
L 57.213881 50.885158 
L 57.328673 50.995016 
L 57.340973 50.917151 
L 57.344047 50.865929 
L 57.361471 51.009767 
L 57.450641 50.951781 
L 57.513162 51.018592 
L 57.478314 50.842051 
L 57.54186 50.89865 
L 57.61873 50.786183 
L 57.649478 51.001643 
L 57.739672 50.860635 
L 57.813468 50.821834 
L 57.801168 51.004891 
L 57.822692 50.979613 
L 57.824742 51.020453 
L 57.838066 50.844265 
L 57.93441 50.998139 
L 58.051253 50.872139 
L 58.012305 51.019142 
L 58.054327 50.911398 
L 58.099425 51.013069 
L 58.151696 50.857525 
L 58.24394 50.803629 
L 58.188594 51.02051 
L 58.259315 50.90075 
L 58.33721 51.017057 
L 58.32696 50.860464 
L 58.371032 50.915989 
L 58.456102 50.872991 
L 58.384357 51.017589 
L 58.477626 50.965695 
L 58.562695 51.014438 
L 58.4848 50.823271 
L 58.588319 50.958884 
L 58.699012 50.999446 
L 58.655964 50.904162 
L 58.706186 50.951701 
L 58.766657 50.887191 
L 58.80663 51.017108 
L 58.816879 50.96196 
L 58.839428 51.017691 
L 58.827129 50.874486 
L 58.924497 50.916914 
L 59.03519 50.827208 
L 58.991118 51.020022 
L 59.03724 50.871188 
L 59.040315 51.020168 
L 59.151008 50.991313 
L 59.225828 51.020771 
L 59.210454 50.814395 
L 59.251452 50.87794 
L 59.358045 50.831852 
L 59.265801 51.016059 
L 59.360095 50.874041 
L 59.364195 51.014293 
L 59.372394 50.852731 
L 59.471813 50.9281 
L 59.578406 50.903349 
L 59.531259 51.017295 
L 59.580456 50.935663 
L 59.67475 51.021783 
L 59.655276 50.872713 
L 59.692174 50.949722 
L 59.730096 50.765989 
L 59.696274 51.01536 
L 59.802867 50.964146 
L 59.891011 51.016877 
L 59.844889 50.851946 
L 59.910485 50.91476 
L 59.921759 50.847862 
L 59.929959 51.004099 
L 59.943283 50.993046 
L 59.944308 51.022209 
L 59.976081 50.875343 
L 60.053976 50.983137 
L 60.15032 50.894002 
L 60.083699 51.012759 
L 60.171844 50.957222 
L 60.266138 50.862966 
L 60.189267 51.001668 
L 60.271262 51.000935 
L 60.272287 51.015425 
L 60.284586 50.87095 
L 60.374781 50.916899 
L 60.480349 50.875642 
L 60.419878 51.013233 
L 60.485474 50.925152 
L 60.492648 51.02079 
L 60.541845 50.84697 
L 60.601291 50.983791 
L 60.728383 50.838085 
L 60.606416 51.013284 
L 60.744782 50.977925 
L 60.845226 51.013144 
L 60.780655 50.88333 
L 60.853425 50.950712 
L 60.900572 50.809917 
L 60.869824 51.017676 
L 60.963094 50.950746 
L 60.979492 51.019815 
L 61.002041 50.894774 
L 61.073787 50.966517 
L 61.167056 50.838999 
L 61.160906 51.013877 
L 61.186529 50.914447 
L 61.258275 51.017531 
L 61.191654 50.802749 
L 61.298247 50.940268 
L 61.388442 50.858385 
L 61.341295 51.000907 
L 61.407915 50.945181 
L 61.513484 51.01248 
L 61.507334 50.852326 
L 61.515534 50.937217 
L 61.552431 50.845029 
L 61.563706 51.000626 
L 61.625202 50.934618 
L 61.715396 51.012269 
L 61.731795 50.836831 
L 61.735895 50.96691 
L 61.801491 50.839433 
L 61.796366 51.017335 
L 61.847613 50.922515 
L 61.851712 50.858966 
L 61.873236 51.018729 
L 61.956256 50.949514 
L 61.96958 51.014099 
L 62.062849 50.861037 
L 62.064899 50.840097 
L 62.12947 51.005342 
L 62.167392 50.945103 
L 62.237088 51.019757 
L 62.199165 50.814305 
L 62.276035 50.913124 
L 62.359055 50.85688 
L 62.344706 51.017559 
L 62.379554 50.986988 
L 62.410302 51.020165 
L 62.470773 50.845371 
L 62.490247 50.982313 
L 62.546618 51.016023 
L 62.556868 50.850784 
L 62.599915 50.969231 
L 62.68191 51.001833 
L 62.60709 50.92196 
L 62.690109 50.906245 
L 62.789528 50.770188 
L 62.737256 51.016171 
L 62.796703 50.973519 
L 62.826426 51.011769 
L 62.854099 50.828813 
L 62.899196 50.92692 
L 62.905346 50.828012 
L 62.992465 51.004254 
L 63.003739 50.991044 
L 63.06831 51.022266 
L 63.054986 50.801607 
L 63.111358 50.940716 
L 63.184128 50.842415 
L 63.133906 51.007842 
L 63.204627 50.967908 
L 63.247674 51.014223 
L 63.231275 50.862144 
L 63.31532 50.965019 
L 63.439337 50.99381 
L 63.444462 50.878233 
L 63.483409 50.834319 
L 63.470085 51.016988 
L 63.515182 50.993149 
L 63.54388 51.016464 
L 63.537731 50.829528 
L 63.602302 50.929224 
L 63.651499 50.883239 
L 63.685321 51.018902 
L 63.712995 50.921279 
L 63.793965 51.01572 
L 63.808314 50.844335 
L 63.818563 50.900752 
L 63.821638 50.85039 
L 63.868785 51.006185 
L 63.927206 50.942239 
L 63.934381 51.020153 
L 64.007151 50.864922 
L 64.036874 50.930396 
L 64.069672 50.847173 
L 64.114769 51.017392 
L 64.149617 50.870339 
L 64.250061 51.017631 
L 64.265435 50.95145 
L 64.34333 50.873174 
L 64.302332 51.011003 
L 64.374078 50.974342 
L 64.381252 51.016666 
L 64.470422 50.73837 
L 64.471447 50.726618 
L 64.49092 51.019176 
L 64.564716 50.924342 
L 64.653885 51.018137 
L 64.625187 50.849967 
L 64.670284 50.897259 
L 64.748179 50.84729 
L 64.73998 51.019378 
L 64.780977 50.892628 
L 64.882446 51.015186 
L 64.878346 50.8439 
L 64.888595 50.90764 
L 64.906019 50.826415 
L 64.931643 51.015313 
L 64.996213 50.983025 
L 65.056685 51.018037 
L 65.067959 50.839596 
L 65.103832 50.886597 
L 65.190951 51.017616 
L 65.145854 50.779731 
L 65.218624 50.969437 
L 65.245273 50.895221 
L 65.281145 51.011352 
L 65.330342 50.962085 
L 65.432836 51.013451 
L 65.390814 50.855902 
L 65.44411 50.978428 
L 65.504581 50.904393 
L 65.522005 51.021759 
L 65.554803 50.964714 
L 65.659347 51.013557 
L 65.575302 50.869153 
L 65.661396 50.943834 
L 65.674721 50.846985 
L 65.713668 51.015034 
L 65.773114 50.915554 
L 65.812062 51.01812 
L 65.805912 50.861862 
L 65.887907 50.955189 
L 65.935054 50.856185 
L 65.999625 50.846199 
L 65.958628 51.018774 
L 66.039597 50.932908 
L 66.157465 51.011021 
L 66.052922 50.808619 
L 66.15849 51.003548 
L 66.201537 50.83707 
L 66.173864 51.016726 
L 66.272258 50.961268 
L 66.32043 51.018831 
L 66.337854 50.856729 
L 66.381926 50.947928 
L 66.463921 51.016582 
L 66.425998 50.879755 
L 66.492619 50.925902 
L 66.507993 50.827581 
L 66.556165 51.021939 
L 66.600237 50.982949 
L 66.686332 51.015124 
L 66.665833 50.867013 
L 66.695556 50.87181 
L 66.698631 50.825725 
L 66.782676 51.015933 
L 66.801124 50.956224 
L 66.816498 51.017935 
L 66.899518 50.904585 
L 66.909767 50.912749 
L 66.926166 50.87271 
L 66.95384 51.018361 
L 67.007136 51.002252 
L 67.061458 51.008855 
L 67.073757 50.88483 
L 67.106555 50.92672 
L 67.210073 50.839124 
L 67.144478 51.005315 
L 67.214173 50.965513 
L 67.364839 50.855961 
L 67.385337 50.959475 
L 67.42531 51.022781 
L 67.473482 50.791915 
L 67.49603 50.953202 
L 67.597499 50.828071 
L 67.558551 51.012086 
L 67.605698 50.97024 
L 67.607748 51.014419 
L 67.650796 50.813394 
L 67.713317 50.894283 
L 67.81991 50.872126 
L 67.751239 51.011708 
L 67.82196 50.896511 
L 67.922403 51.003944 
L 67.837334 50.879593 
L 67.934703 50.964685 
L 67.97365 50.812527 
L 68.008498 51.017511 
L 68.046421 50.932289 
L 68.136615 50.876929 
L 68.05052 51.002925 
L 68.145839 50.96432 
L 68.243208 51.012203 
L 68.179662 50.881275 
L 68.255507 50.956141 
L 68.329303 50.861479 
L 68.335452 51.019124 
L 68.365175 50.976173 
L 68.462544 51.020618 
L 68.403098 50.824687 
L 68.476893 51.0144 
L 68.557863 50.839963 
L 68.588611 50.99608 
L 68.661382 50.85417 
L 68.617309 51.019796 
L 68.729027 50.995779 
L 68.76285 51.007234 
L 68.738252 50.928255 
L 68.767975 50.894792 
L 68.84177 50.888589 
L 68.813072 51.012387 
L 68.859194 50.991308 
L 68.955538 51.016589 
L 68.917615 50.885623 
L 68.969887 50.989998 
L 68.995511 50.75532 
L 69.037533 51.008969 
L 69.08878 50.9421 
L 69.142076 51.013888 
L 69.156425 50.813976 
L 69.198448 50.919994 
L 69.255844 50.846331 
L 69.228171 51.004351 
L 69.304016 50.997859 
L 69.32144 51.01383 
L 69.31529 50.871125 
L 69.326565 50.861266 
L 69.422909 50.842748 
L 69.383961 51.017889 
L 69.431108 50.963349 
L 69.482355 50.894107 
L 69.436233 51.01631 
L 69.536676 50.986069 
L 69.604322 51.018755 
L 69.578699 50.805459 
L 69.640195 50.857 
L 69.743713 50.836675 
L 69.691442 51.001823 
L 69.747813 50.889079 
L 69.764212 51.019254 
L 69.861581 50.964062 
L 69.926152 50.839316 
L 69.870805 51.019861 
L 69.974324 50.910259 
L 70.032745 51.021328 
L 69.989698 50.818906 
L 70.077842 50.886135 
L 70.081942 50.848587 
L 70.154712 51.012251 
L 70.18341 50.980752 
L 70.356624 50.899971 
L 70.378148 50.973254 
L 70.439644 51.016337 
L 70.392497 50.906533 
L 70.488841 51.008143 
L 70.50524 50.85312 
L 70.500115 51.021916 
L 70.601584 50.96064 
L 70.607734 51.021481 
L 70.619008 50.772949 
L 70.713302 51.007044 
L 70.781973 50.833861 
L 70.74405 51.009783 
L 70.82502 50.952996 
L 70.915214 51.021288 
L 70.930588 50.890287 
L 70.936738 51.003168 
L 70.989009 50.881406 
L 71.036157 51.010861 
L 71.051531 50.941887 
L 71.118151 51.020564 
L 71.100727 50.86744 
L 71.162224 50.943042 
L 71.212445 50.815748 
L 71.262667 51.020826 
L 71.271892 50.951308 
L 71.315964 51.012829 
L 71.362086 50.840346 
L 71.38361 50.961964 
L 71.483028 50.841516 
L 71.409233 51.006134 
L 71.486103 50.950715 
L 71.487128 51.008638 
L 71.557849 50.840993 
L 71.596796 50.977729 
L 71.639843 50.883385 
L 71.629594 51.019063 
L 71.707489 50.980489 
L 71.808958 51.009636 
L 71.715689 50.830832 
L 71.813057 50.940372 
L 71.910426 50.864595 
L 71.833556 51.011394 
L 71.922725 50.954959 
L 71.972947 51.016981 
L 71.962698 50.899352 
L 72.029319 50.920123 
L 72.033418 50.835747 
L 72.079541 51.021643 
L 72.141037 50.900433 
L 72.183059 51.01829 
L 72.238405 50.827883 
L 72.25173 50.89672 
L 72.39727 51.017015 
L 72.259929 50.825701 
L 72.400345 50.917481 
L 72.447492 50.857489 
L 72.473116 51.015276 
L 72.507963 50.983621 
L 72.624806 50.876024 
L 72.513088 51.019427 
L 72.626856 50.891698 
L 72.666828 51.01495 
L 72.677078 50.864384 
L 72.740624 50.985 
L 72.787771 51.015128 
L 72.855416 50.847008 
L 72.928187 50.858789 
L 72.886165 51.009905 
L 72.936386 50.933458 
L 73.048104 51.015527 
L 72.960985 50.868471 
L 73.049129 50.980588 
L 73.143423 50.865784 
L 73.098326 51.019625 
L 73.162897 50.872705 
L 73.163922 50.867277 
L 73.179296 51.014207 
L 73.261291 50.950316 
L 73.374034 50.994295 
L 73.380183 50.865597 
L 73.381208 50.864037 
L 73.387358 51.018645 
L 73.43553 50.970017 
L 73.542123 51.015194 
L 73.51035 50.843391 
L 73.545198 50.949579 
L 73.643592 50.887476 
L 73.649741 51.020747 
L 73.652816 51.019047 
L 73.786058 50.871231 
L 73.802457 50.966352 
L 73.9029 51.010427 
L 73.887526 50.863119 
L 73.912125 50.93748 
L 73.929549 51.021046 
L 74.001294 50.8414 
L 74.022818 50.94266 
L 74.091488 50.850862 
L 74.028967 51.005085 
L 74.135561 50.933306 
L 74.227805 51.013717 
L 74.183732 50.885064 
L 74.249328 50.964065 
L 74.29955 50.894414 
L 74.293401 51.021062 
L 74.361046 50.969371 
L 74.46354 51.014161 
L 74.393844 50.840848 
L 74.472764 51.009395 
L 74.593707 50.866142 
L 74.478914 51.017297 
L 74.596781 50.944189 
L 74.679801 51.017307 
L 74.656228 50.851935 
L 74.710549 50.987728 
L 74.778195 51.017373 
L 74.748472 50.872016 
L 74.815093 50.923036 
L 74.903237 50.904995 
L 74.84789 51.015272 
L 74.906312 50.980357 
L 74.93706 51.016866 
L 74.93091 50.854294 
L 75.014955 50.922724 
L 75.063127 50.863405 
L 75.041603 51.013261 
L 75.113349 50.970563 
L 75.210718 51.009737 
L 75.16562 50.848857 
L 75.219942 50.904641 
L 75.223017 50.872261 
L 75.24659 51.021652 
L 75.324485 51.000341 
L 75.352159 51.015385 
L 75.337809 50.822081 
L 75.425954 50.925446 
L 75.429029 50.848148 
L 75.509999 51.014613 
L 75.535622 50.958553 
L 75.553046 51.010616 
L 75.547921 50.788758 
L 75.64734 51.00566 
L 75.749833 50.860125 
L 75.655539 51.012271 
L 75.759058 50.972471 
L 75.872826 50.885424 
L 75.814404 51.010421 
L 75.8759 50.912899 
L 75.920998 51.016941 
L 75.939446 50.847068 
L 75.988643 50.949543 
L 76.038865 50.844515 
L 76.020416 51.011433 
L 76.097286 50.975991 
L 76.20593 51.010918 
L 76.168007 50.870767 
L 76.206955 50.981308 
L 76.300224 50.837164 
L 76.253077 51.014799 
L 76.319697 50.942473 
L 76.367869 50.782017 
L 76.390418 51.017404 
L 76.425266 50.985832 
L 76.488812 50.830737 
L 76.458064 51.014049 
L 76.552358 50.962217 
L 76.662026 51.016978 
L 76.595405 50.832632 
L 76.664076 50.985416 
L 76.706098 50.899288 
L 76.687649 51.013671 
L 76.780918 50.965979 
L 76.83114 51.020482 
L 76.823966 50.876822 
L 76.892636 50.982291 
L 76.947983 50.860376 
L 76.901861 51.012368 
L 77.004354 50.940182 
L 77.068925 51.017105 
L 77.109922 50.863023 
L 77.112997 50.901513 
L 77.211391 50.845753 
L 77.175518 51.018856 
L 77.222665 50.915092 
L 77.291336 51.021301 
L 77.29851 50.873806 
L 77.322084 50.876496 
L 77.325159 50.831327 
L 77.331308 51.012468 
L 77.430727 50.920187 
L 77.446101 51.016129 
L 77.518872 50.855596 
L 77.542445 50.952169 
L 77.613166 50.81346 
L 77.567044 51.004 
L 77.658263 50.858009 
L 77.760756 51.018017 
L 77.77408 50.923734 
L 77.838651 50.8484 
L 77.851975 51.018848 
L 77.883748 50.954335 
L 77.913472 51.019327 
L 77.988292 50.853153 
L 77.993417 50.92249 
L 78.049788 50.863913 
L 78.000591 51.013447 
L 78.074386 50.995387 
L 78.17688 51.015673 
L 78.159456 50.863313 
L 78.185079 50.994654 
L 78.212753 50.9046 
L 78.192254 51.021939 
L 78.294747 51.014755 
L 78.329595 51.021383 
L 78.335745 50.901797 
L 78.349069 50.916207 
L 78.386992 50.851523 
L 78.427989 51.010587 
L 78.451563 50.97542 
L 78.544832 51.017628 
L 78.467962 50.855358 
L 78.562256 50.970819 
L 78.630926 50.876232 
L 78.677048 51.008219 
L 78.787741 50.862266 
L 78.713946 51.013946 
L 78.789791 50.915859 
L 78.876911 51.018745 
L 78.896384 50.839767 
L 78.901509 50.97696 
L 78.919958 50.861969 
L 78.992728 51.018736 
L 79.012202 50.979842 
L 79.075748 51.022032 
L 79.043975 50.845478 
L 79.11982 50.939607 
L 79.144419 50.826072 
L 79.12392 51.020808 
L 79.224364 50.976517 
L 79.226414 51.008009 
L 79.276635 50.820013 
L 79.334032 50.961932 
L 79.396553 50.859941 
L 79.371954 51.019499 
L 79.444725 50.957394 
L 79.473423 51.014032 
L 79.551318 50.902248 
L 79.552343 50.907962 
L 79.582066 50.923474 
L 79.557468 50.983853 
L 79.586166 50.98756 
L 79.587191 51.01905 
L 79.657911 50.85716 
L 79.694809 50.910072 
L 79.748106 50.870268 
L 79.724532 51.012166 
L 79.802427 50.987142 
L 79.876222 51.021764 
L 79.884422 50.863656 
L 79.91107 50.958433 
L 79.979741 50.869073 
L 79.91927 51.012282 
L 80.018688 50.995612 
L 80.105808 51.016112 
L 80.080185 50.890003 
L 80.120157 50.948675 
L 80.16013 50.850117 
L 80.196002 51.016854 
L 80.229825 50.970446 
L 80.331294 50.891811 
L 80.233925 50.977492 
L 80.355892 50.985435 
L 80.459411 51.022347 
L 80.372291 50.903474 
L 80.464535 50.916837 
L 80.492209 50.821464 
L 80.527056 51.016689 
L 80.570104 50.989523 
L 80.643899 51.017499 
L 80.6275 50.86334 
L 80.668497 50.897079 
L 80.746392 50.839795 
L 80.692071 51.007844 
L 80.774066 50.971207 
L 80.857085 50.855888 
L 80.778165 51.016713 
L 80.906282 50.969768 
L 80.997502 51.009325 
L 81.003651 50.854547 
L 81.018 50.971711 
L 81.076422 50.870025 
L 81.023125 51.019769 
L 81.128693 50.96148 
L 81.183015 51.020682 
L 81.202489 50.832053 
L 81.237336 50.931751 
L 81.249636 50.893908 
L 81.244511 51.010207 
L 81.33778 50.979099 
L 81.356229 51.01842 
L 81.415675 50.847193 
L 81.448473 50.987325 
L 81.527393 50.888497 
L 81.480246 51.021607 
L 81.560191 50.964862 
L 81.566341 51.017365 
L 81.637061 50.898021 
L 81.671909 50.961026 
L 81.771328 50.844397 
L 81.678059 51.01414 
L 81.783627 50.976098 
L 81.790801 50.905949 
L 81.895345 51.014485 
L 81.990664 50.891768 
L 81.97529 51.023305 
L 82.010138 50.965426 
L 82.12288 51.018444 
L 82.04396 50.853138 
L 82.13108 50.960087 
L 82.194626 50.84452 
L 82.167978 51.017147 
L 82.240748 50.950473 
L 82.259197 51.012609 
L 82.312493 50.848382 
L 82.352466 50.968586 
L 82.441635 50.856955 
L 82.424211 51.015129 
L 82.463159 50.932382 
L 82.528755 51.016828 
L 82.564627 50.813131 
L 82.574877 50.958167 
L 82.666096 50.872219 
L 82.586151 51.011055 
L 82.680445 50.993459 
L 82.68147 51.019207 
L 82.781914 50.839293 
L 82.788063 50.928088 
L 82.794213 50.841788 
L 82.802412 51.014228 
L 82.896706 50.967848 
L 83.007399 51.020404 
L 82.91208 50.876233 
L 83.009449 50.996607 
L 83.059671 50.896513 
L 83.016624 51.018223 
L 83.125267 50.937895 
L 83.202137 51.017352 
L 83.180614 50.86077 
L 83.234935 50.920884 
L 83.343578 50.804597 
L 83.268758 51.013239 
L 83.346653 50.897313 
L 83.440947 51.021075 
L 83.404049 50.849522 
L 83.457346 50.880414 
L 83.564964 51.007858 
L 83.576238 50.90981 
L 83.667458 50.859647 
L 83.63876 51.019478 
L 83.684882 50.96349 
L 83.747403 51.016012 
L 83.760727 50.90048 
L 83.7966 50.999658 
L 83.833497 50.903995 
L 83.828373 51.01662 
L 83.906268 51.003734 
L 84.006711 51.018981 
L 83.964689 50.804516 
L 84.015936 50.991066 
L 84.063083 50.816192 
L 84.081532 51.01618 
L 84.126629 50.999356 
L 84.127654 51.014737 
L 84.196324 50.862437 
L 84.234247 50.969943 
L 84.34904 50.843089 
L 84.34084 51.01377 
L 84.351089 50.875906 
L 84.447433 51.014595 
L 84.441284 50.855655 
L 84.462807 50.942434 
L 84.678044 50.973017 
L 84.478181 51.013397 
L 84.680094 50.994774 
L 84.738515 51.019213 
L 84.781562 50.85207 
L 84.786687 50.93417 
L 84.896355 50.819485 
L 84.811285 51.015181 
L 84.898405 50.8805 
L 84.929153 51.016257 
L 84.949652 50.86646 
L 85.011148 50.969607 
L 85.024472 50.880734 
L 85.05522 51.021232 
L 85.119791 50.981015 
L 85.212035 51.016428 
L 85.182312 50.847083 
L 85.223309 50.88475 
L 85.29403 51.019376 
L 85.324778 50.860088 
L 85.337077 50.902742 
L 85.429321 50.84977 
L 85.357576 51.019477 
L 85.434446 50.960204 
L 85.519516 51.012255 
L 85.45187 50.872369 
L 85.546164 50.978718 
L 85.640458 50.893367 
L 85.631234 51.012101 
L 85.656857 50.952909 
L 85.679405 51.015569 
L 85.675306 50.845925 
L 85.766525 50.950706 
L 85.835196 50.825151 
L 85.84647 51.015202 
L 85.875168 50.97993 
L 85.905916 51.018818 
L 85.881318 50.932455 
L 85.911041 50.883758 
L 85.970487 50.791071 
L 85.928465 51.018448 
L 86.019684 50.914531 
L 86.219546 50.983714 
L 86.224671 50.859244 
L 86.226721 50.845151 
L 86.269768 51.017441 
L 86.329214 50.924165 
L 86.339464 51.012411 
L 86.409159 50.877062 
L 86.440932 50.95447 
L 86.540351 50.848313 
L 86.456306 51.014656 
L 86.55265 50.936921 
L 86.662318 51.000357 
L 86.581348 50.846472 
L 86.664368 50.950652 
L 86.742263 50.845236 
L 86.698191 51.020075 
L 86.778136 50.905984 
L 86.831433 51.01986 
L 86.816059 50.852417 
L 86.888829 50.916287 
L 86.986198 51.013461 
L 86.962624 50.871535 
L 87.006697 50.960321 
L 87.10304 50.847656 
L 87.03232 51.017108 
L 87.11739 50.942024 
L 87.178886 51.018711 
L 87.140963 50.905846 
L 87.228083 50.949738 
L 87.258831 51.015468 
L 87.27113 50.854293 
L 87.272155 50.831268 
L 87.290604 51.01217 
L 87.376698 50.964102 
L 87.463818 50.863434 
L 87.395147 51.00947 
L 87.487391 50.966763 
L 87.490466 51.02163 
L 87.508915 50.819141 
L 87.598084 50.967354 
L 87.690328 51.015819 
L 87.615508 50.821259 
L 87.708777 50.9625 
L 87.7385 50.844528 
L 87.81537 51.00933 
L 87.820495 50.945086 
L 87.890191 51.014417 
L 87.843044 50.885772 
L 87.934263 50.957021 
L 88.047006 51.015827 
L 87.970136 50.847843 
L 88.06238 50.928086 
L 88.072629 50.851532 
L 88.162823 51.022742 
L 88.172048 50.960891 
L 88.276591 51.01757 
L 88.258142 50.901019 
L 88.283766 50.966852 
L 88.37806 50.84021 
L 88.348337 51.015299 
L 88.395484 50.943528 
L 88.480553 51.019388 
L 88.420082 50.825072 
L 88.507202 50.963016 
L 88.574847 50.864401 
L 88.555374 51.019852 
L 88.61892 50.942614 
L 88.715264 51.014004 
L 88.698865 50.868977 
L 88.729613 50.933378 
L 88.833131 51.019492 
L 88.781884 50.836034 
L 88.837231 50.905511 
L 88.854655 50.823916 
L 88.918201 51.005589 
L 88.931525 50.982496 
L 88.991996 51.017629 
L 89.00737 50.830442 
L 89.028894 50.892282 
L 89.031968 50.843156 
L 89.089365 51.015107 
L 89.135487 50.964035 
L 89.147786 51.014501 
L 89.191858 50.843243 
L 89.245155 50.958555 
L 89.287177 50.829291 
L 89.25028 51.019892 
L 89.357898 50.941114 
L 89.422469 51.008494 
L 89.383521 50.894794 
L 89.467566 50.935224 
L 89.56186 50.864696 
L 89.515738 51.016274 
L 89.576209 50.947283 
L 89.624381 51.014281 
L 89.617206 50.872755 
L 89.687927 50.977983 
L 89.72175 50.98384 
L 89.724825 50.872422 
L 89.727899 50.813366 
L 89.776071 51.016591 
L 89.833468 50.93079 
L 89.911363 51.022444 
L 89.885739 50.902747 
L 89.943136 50.902574 
L 90.168622 50.962321 
L 90.171696 50.87558 
L 90.173746 50.832558 
L 90.277265 51.022302 
L 90.281364 50.911993 
L 90.390008 51.018082 
L 90.345935 50.873149 
L 90.392057 50.927137 
L 90.482252 50.844082 
L 90.402307 51.019345 
L 90.503775 50.890699 
L 90.58372 50.916489 
L 90.524274 51.007714 
L 90.588845 50.958282 
L 90.691339 51.015908 
L 90.616518 50.853736 
L 90.698513 50.955283 
L 90.773333 50.859318 
L 90.720037 51.01696 
L 90.811256 50.942956 
L 90.892226 51.019415 
L 90.883001 50.862308 
L 90.921949 50.938599 
L 90.991645 50.829182 
L 90.938348 51.006491 
L 91.031617 50.970843 
L 91.06134 50.84093 
L 91.102338 51.016619 
L 91.14231 50.973863 
L 91.244804 50.830115 
L 91.191507 51.02042 
L 91.249928 50.995475 
L 91.251978 51.012272 
L 91.327823 50.846446 
L 91.337048 50.895588 
L 91.339098 50.854473 
L 91.363696 51.018634 
L 91.447741 50.889412 
L 91.500012 51.020606 
L 91.546134 50.881352 
L 91.560484 50.953369 
L 91.62198 50.889526 
L 91.669127 51.013946 
L 91.712174 50.880631 
L 91.78187 50.976752 
L 91.879238 51.019724 
L 91.806468 50.891721 
L 91.893588 50.989734 
L 91.943809 50.864504 
L 91.904862 51.010048 
L 92.00633 50.968084 
L 92.075001 51.010275 
L 92.013505 50.872424 
L 92.112924 50.926289 
L 92.194918 50.890848 
L 92.121123 51.010175 
L 92.220542 50.966973 
L 92.227716 51.016499 
L 92.303562 50.884073 
L 92.331235 50.968458 
L 92.349684 51.009917 
L 92.394781 50.839144 
L 92.439878 50.955329 
L 92.510599 50.895695 
L 92.466526 51.018487 
L 92.551596 50.945835 
L 92.632566 51.021194 
L 92.577219 50.871609 
L 92.663314 51.00404 
L 92.676638 50.802589 
L 92.699187 51.01229 
L 92.775032 50.961121 
L 92.790406 50.833837 
L 92.835503 51.017187 
L 92.8847 50.961029 
L 92.992318 51.021558 
L 92.926722 50.906691 
L 92.996418 50.997956 
L 93.101986 50.85403 
L 93.012817 51.011943 
L 93.110186 50.931063 
L 93.211654 51.014094 
L 93.120435 50.865109 
L 93.241377 50.953243 
L 93.355145 50.885208 
L 93.263926 51.020429 
L 93.35617 50.891341 
L 93.450464 51.015399 
L 93.468913 50.943287 
L 93.581656 50.84975 
L 93.476087 51.014146 
L 93.582681 50.860914 
L 93.603179 51.016181 
L 93.696449 51.001583 
L 93.813291 50.892104 
L 93.839939 51.004808 
L 93.884012 51.020138 
L 93.860438 50.881151 
L 93.949607 50.988528 
L 94.033652 50.861145 
L 93.971131 51.018779 
L 94.06235 50.974861 
L 94.103348 51.020981 
L 94.080799 50.857063 
L 94.169969 50.912894 
L 94.22224 50.812924 
L 94.243764 51.019554 
L 94.272462 50.999271 
L 94.343183 51.011185 
L 94.353432 50.887665 
L 94.375981 50.954776 
L 94.466175 50.799779 
L 94.432352 51.019859 
L 94.486674 50.95707 
L 94.581993 51.01877 
L 94.513322 50.906393 
L 94.598391 50.968344 
L 94.681411 50.876102 
L 94.607616 50.998369 
L 94.702935 50.967943 
" clip-path="url(#p1b94df8d8a)" style="fill: none; stroke: #8c564b; stroke-width: 0.5; stroke-linecap: square"/>
   </g>
  </g>
 </g>
 <defs>
  <clipPath id="p1b94df8d8a">
   <rect x="0" y="-0" width="99.212598" height="51.023622"/>
  </clipPath>
 </defs>
</svg>
