<?xml version="1.0" encoding="utf-8" standalone="no"?>
<!DOCTYPE svg PUBLIC "-//W3C//DTD SVG 1.1//EN"
  "http://www.w3.org/Graphics/SVG/1.1/DTD/svg11.dtd">
<svg xmlns:xlink="http://www.w3.org/1999/xlink" width="127.44pt" height="84.96pt" viewBox="0 0 127.44 84.96" xmlns="http://www.w3.org/2000/svg" version="1.1">
 <metadata>
  <rdf:RDF xmlns:dc="http://purl.org/dc/elements/1.1/" xmlns:cc="http://creativecommons.org/ns#" xmlns:rdf="http://www.w3.org/1999/02/22-rdf-syntax-ns#">
   <cc:Work>
    <dc:type rdf:resource="http://purl.org/dc/dcmitype/StillImage"/>
    <dc:date>2024-10-31T23:50:00.879311</dc:date>
    <dc:format>image/svg+xml</dc:format>
    <dc:creator>
     <cc:Agent>
      <dc:title>Matplotlib v3.8.4, https://matplotlib.org/</dc:title>
     </cc:Agent>
    </dc:creator>
   </cc:Work>
  </rdf:RDF>
 </metadata>
 <defs>
  <style type="text/css">*{stroke-linejoin: round; stroke-linecap: butt}</style>
 </defs>
 <g id="figure_1">
  <g id="patch_1">
   <path d="M 0 84.96 
L 127.44 84.96 
L 127.44 0 
L 0 0 
L 0 84.96 
z
" style="fill: none"/>
  </g>
  <g id="axes_1">
   <g id="patch_2">
    <path d="M 0 28.32 
L 127.44 28.32 
L 127.44 0 
L 0 0 
L 0 28.32 
z
" style="fill: none"/>
   </g>
   <g id="matplotlib.axis_1">
    <g id="xtick_1"/>
    <g id="xtick_2"/>
    <g id="xtick_3"/>
    <g id="xtick_4"/>
    <g id="xtick_5"/>
    <g id="xtick_6"/>
    <g id="xtick_7"/>
    <g id="xtick_8"/>
    <g id="xtick_9"/>
   </g>
   <g id="matplotlib.axis_2">
    <g id="ytick_1"/>
    <g id="ytick_2"/>
    <g id="ytick_3"/>
   </g>
   <g id="line2d_1">
    <path d="M 0 14.160532 
L 0.170887 14.217961 
L 0.81968 14.198811 
L 1.104975 14.141298 
L 1.361306 14.32382 
L 1.829074 14.178751 
L 1.970998 14.130616 
L 2.156367 14.093218 
L 2.269327 14.18005 
L 2.534347 14.309901 
L 2.547381 14.295763 
L 2.980392 14.049323 
L 2.987633 14.060295 
L 3.242516 14.292255 
L 3.362716 14.223511 
L 3.781246 14.085733 
L 3.787038 14.096809 
L 3.981097 14.239534 
L 4.257703 14.051684 
L 4.414108 13.973328 
L 4.654509 14.145284 
L 4.813811 14.230528 
L 5.125174 13.987583 
L 5.280131 13.912818 
L 5.451018 14.024754 
L 5.656662 14.208319 
L 5.891271 14.099006 
L 6.166428 13.86743 
L 6.360487 13.985711 
L 6.593647 14.186717 
L 6.944111 13.943972 
L 7.184512 13.835207 
L 7.411879 14.042139 
L 7.61173 14.175789 
L 7.873854 13.988807 
L 8.067913 13.788626 
L 8.250386 13.821722 
L 8.416928 13.996118 
L 8.597953 14.157178 
L 8.742773 14.131488 
L 9.242401 13.720545 
L 9.474113 13.978879 
L 9.673964 14.167688 
L 9.901332 14.027051 
L 10.157663 13.672717 
L 10.306827 13.641515 
L 10.490748 13.84765 
L 10.800663 14.17611 
L 10.984584 14.038004 
L 11.340841 13.537373 
L 11.536347 13.680323 
L 11.869433 14.17716 
L 12.022942 14.117776 
L 12.228586 13.757461 
L 12.470435 13.484452 
L 12.606566 13.543756 
L 13.181501 14.067806 
L 13.216257 14.029815 
L 13.417557 13.705534 
L 13.611616 13.460613 
L 13.846224 13.546547 
L 14.276339 14.067438 
L 14.44433 13.971023 
L 14.612321 13.713252 
L 14.820861 13.427438 
L 15.009127 13.398757 
L 15.235046 13.706323 
L 15.56958 14.052486 
L 15.770879 13.8436 
L 16.086586 13.323997 
L 16.280645 13.309227 
L 16.467463 13.588197 
L 16.901922 14.015095 
L 17.068465 13.7748 
L 17.375483 13.213428 
L 17.575334 13.235873 
L 17.879456 13.784568 
L 18.138683 14.004451 
L 18.148821 13.996552 
L 18.35012 13.736325 
L 18.826578 13.152153 
L 18.843956 13.164973 
L 19.026429 13.39745 
L 19.31462 13.850875 
L 19.472474 13.910612 
L 19.672325 13.719869 
L 20.096647 13.148503 
L 20.410906 13.340907 
L 20.898949 13.874435 
L 21.10749 13.681213 
L 21.205967 13.498838 
L 21.502848 13.032283 
L 21.692562 13.058304 
L 21.890965 13.39921 
L 22.150193 13.88594 
L 22.32108 13.924676 
L 22.480382 13.710931 
L 22.719335 13.207581 
L 22.9076 12.972633 
L 23.046627 13.006225 
L 23.23779 13.288344 
L 23.775071 13.870345 
L 23.98506 13.578762 
L 24.267458 13.073271 
L 24.5151 12.998867 
L 24.74826 13.362652 
L 24.99735 13.835039 
L 25.172582 13.936392 
L 25.360848 13.748545 
L 25.789515 13.030389 
L 25.983573 13.037059 
L 26.187769 13.311357 
L 26.609195 13.907104 
L 26.814839 13.8235 
L 27.50563 13.0273 
L 27.712722 13.262583 
L 28.026981 13.840133 
L 28.329655 13.910013 
L 28.693152 13.267568 
L 28.8959 12.976159 
L 29.133405 13.020929 
L 29.56352 13.820762 
L 29.757578 13.997386 
L 29.919776 13.886112 
L 30.588844 12.820791 
L 30.606222 12.832511 
L 30.79304 13.096983 
L 31.110195 13.742299 
L 31.376664 13.889402 
L 31.548999 13.689852 
L 32.076144 12.753667 
L 32.293373 12.850148 
L 32.445434 13.110173 
L 32.572876 13.403235 
L 32.808932 13.812438 
L 33.066711 13.79291 
L 33.401245 13.125868 
L 33.609786 12.774446 
L 33.81543 12.735606 
L 34.021074 13.02481 
L 34.475808 13.820777 
L 34.710416 13.779605 
L 35.001504 13.234624 
L 35.305626 12.743466 
L 35.534441 12.788246 
L 36.319365 13.840176 
L 36.342536 13.82116 
L 36.517768 13.573379 
L 36.898644 12.782807 
L 37.205662 12.679513 
L 37.490957 13.189608 
L 37.72991 13.693838 
L 38.04272 13.786159 
L 38.238227 13.455264 
L 38.38884 13.103926 
L 38.708892 12.556764 
L 38.91888 12.620716 
L 39.081079 12.890186 
L 39.450369 13.694911 
L 39.635739 13.834417 
L 39.776214 13.738296 
L 40.132471 13.001215 
L 40.355493 12.611981 
L 40.522036 12.546755 
L 40.74361 12.768879 
L 41.388059 13.824791 
L 41.583565 13.66524 
L 42.229462 12.476156 
L 42.377178 12.529755 
L 42.749365 13.276199 
L 43.039005 13.767442 
L 43.196858 13.787076 
L 43.390917 13.541611 
L 43.852892 12.528524 
L 44.100534 12.397035 
L 44.290248 12.638506 
L 44.934696 13.789265 
L 44.939041 13.787128 
L 45.134547 13.574779 
L 45.789133 12.378006 
L 45.94409 12.437022 
L 46.133804 12.715873 
L 46.433581 13.379422 
L 46.652259 13.714632 
L 46.811561 13.739107 
L 46.983897 13.522736 
L 47.612415 12.278945 
L 47.839782 12.413313 
L 48.624705 13.708376 
L 48.642084 13.696184 
L 48.818764 13.473394 
L 49.442937 12.214296 
L 49.581964 12.240623 
L 49.828158 12.627909 
L 50.424816 13.687743 
L 50.565291 13.613617 
L 50.785417 13.22204 
L 51.2416 12.256712 
L 51.458829 12.199038 
L 51.655784 12.477079 
L 52.332093 13.694219 
L 52.481257 13.58023 
L 53.329901 12.083056 
L 53.34728 12.097582 
L 53.576095 12.459641 
L 54.236474 13.64167 
L 54.410257 13.483474 
L 54.656451 12.93196 
L 54.931609 12.281505 
L 55.2198 12.035004 
L 55.409514 12.234351 
L 56.085823 13.606551 
L 56.298708 13.537081 
L 56.491318 13.177453 
L 57.108251 11.926238 
L 57.290724 12.043772 
L 57.613672 12.771825 
L 57.965584 13.52578 
L 58.184262 13.555559 
L 58.391354 13.22384 
L 59.147314 11.904899 
L 59.170485 11.922702 
L 59.390611 12.252854 
L 59.933686 13.49744 
L 60.1234 13.567838 
L 60.250841 13.440958 
L 60.475312 12.949747 
L 60.90253 11.910456 
L 61.163206 11.83738 
L 61.347127 12.11244 
L 61.756967 13.168739 
L 61.988679 13.511429 
L 62.208805 13.439539 
L 62.541891 12.691945 
L 62.828634 11.981536 
L 63.083517 11.745349 
L 63.231233 11.847259 
L 63.523769 12.459169 
L 63.791686 13.160329 
L 64.116082 13.523052 
L 64.24642 13.4059 
L 64.538956 12.711158 
L 64.845974 11.892097 
L 65.181956 11.66315 
L 65.347051 11.891998 
L 66.165283 13.476633 
L 66.189902 13.46324 
L 66.379616 13.187087 
L 67.016823 11.61229 
L 67.23695 11.583661 
L 67.393355 11.803202 
L 68.00015 13.323578 
L 68.256481 13.440053 
L 68.447643 13.125488 
L 69.019682 11.580233 
L 69.228222 11.4387 
L 69.234015 11.442921 
L 69.499035 11.805963 
L 69.962459 13.054828 
L 70.217342 13.407003 
L 70.360713 13.352725 
L 70.577943 12.927932 
L 71.068882 11.554423 
L 71.390382 11.412897 
L 71.514927 11.574502 
L 71.81036 12.31969 
L 72.079725 13.065031 
L 72.39688 13.348699 
L 72.540252 13.179027 
L 73.419308 11.270484 
L 73.623504 11.48732 
L 74.411324 13.300407 
L 74.564833 13.267843 
L 74.566281 13.265351 
L 74.934123 12.371366 
L 75.32224 11.332142 
L 75.526436 11.17079 
L 75.533677 11.1759 
L 75.755252 11.407901 
L 76.172333 12.507786 
L 76.189711 12.520594 
L 76.204193 12.61099 
L 76.414182 13.103035 
L 76.586518 13.248364 
L 76.706718 13.185199 
L 76.923948 12.735871 
L 77.465574 11.235905 
L 77.648047 11.085937 
L 77.776937 11.139329 
L 77.913067 11.334414 
L 78.250497 12.177406 
L 78.564756 13.022852 
L 78.66613 13.151894 
L 78.774745 13.190224 
L 78.808054 13.166057 
L 78.942736 12.995371 
L 79.817448 10.978679 
L 80.001369 11.114366 
L 80.403968 12.055957 
L 80.417002 11.757006 
L 80.431484 11.373449 
L 80.528513 11.685755 
L 80.582097 11.911553 
L 80.596579 11.557701 
L 80.609612 11.229254 
L 80.70809 11.534831 
L 80.793534 11.67003 
L 80.95718 11.745068 
L 81.075932 11.636209 
L 81.369916 10.934802 
L 81.685624 9.99879 
L 82.063603 9.576884 
L 82.080982 9.595273 
L 82.286626 9.845428 
L 82.505304 10.288716 
L 82.5082 10.286963 
L 82.51689 10.28282 
L 82.544405 10.403423 
L 82.54875 10.405187 
L 82.599437 10.52927 
L 82.970176 11.541679 
L 83.142511 11.654464 
L 83.258367 11.570238 
L 83.540766 10.944152 
L 84.008534 9.65604 
L 84.280795 9.475513 
L 84.408236 9.597773 
L 85.359703 11.582688 
L 85.433561 11.532229 
L 85.859331 10.560086 
L 86.167797 9.680142 
L 86.570396 9.397784 
L 86.667426 9.500405 
L 87.300288 10.962285 
L 87.543586 11.463902 
L 87.546482 11.462776 
L 87.663786 11.455389 
L 87.67682 11.508743 
L 87.688406 11.544575 
L 87.770953 11.417383 
L 88.096797 10.629992 
L 88.670284 9.367248 
L 89.054057 9.656787 
L 89.224944 10.031969 
L 89.634784 11.132546 
L 89.636232 11.131964 
L 89.644921 11.134303 
L 89.675334 11.237148 
L 89.914286 11.817592 
L 89.934561 11.786346 
L 90.041728 11.665261 
L 90.195237 11.354288 
L 90.607973 10.131881 
L 90.89182 9.603156 
L 91.188701 9.698115 
L 91.21332 9.654911 
L 91.530476 10.970113 
L 91.624608 11.26719 
L 91.87225 11.929601 
L 92.222714 12.844914 
L 92.229955 12.832708 
L 92.667311 11.835568 
L 92.987363 10.888704 
L 93.268314 10.50551 
L 93.274106 10.510461 
L 93.4001 10.563433 
L 93.413133 10.487223 
L 93.427615 10.444444 
L 93.494232 10.543806 
L 93.515955 10.530407 
L 93.701325 11.580117 
L 94.486248 13.693289 
L 94.535487 13.65115 
L 94.987325 12.549968 
L 95.249449 11.722499 
L 95.57819 11.220202 
L 95.591224 11.236102 
L 95.725906 11.572923 
L 95.837417 12.087024 
L 95.847555 12.070921 
L 95.853347 12.067471 
L 95.908379 12.175584 
L 95.909827 12.176514 
L 95.960514 12.303184 
L 96.166158 12.884199 
L 96.661442 14.306599 
L 96.675924 14.227205 
L 96.726611 13.858224 
L 96.814951 14.02766 
L 97.053904 13.654598 
L 97.628839 11.869334 
L 97.869239 11.520491 
L 97.875032 11.526467 
L 98.028541 11.532149 
L 98.092262 11.376093 
L 98.124122 11.363379 
L 98.176257 11.501503 
L 98.250116 11.640741 
L 98.523825 12.408469 
L 99.163929 13.921878 
L 99.207375 13.896279 
L 99.656316 12.672878 
L 99.909751 11.865805 
L 100.138566 11.429056 
L 100.358692 11.353732 
L 100.36883 11.410587 
L 100.386208 11.347453 
L 100.643987 12.402727 
L 100.680192 12.513802 
L 101.026312 13.569602 
L 101.271057 14.151826 
L 101.281195 14.07519 
L 101.327537 13.859466 
L 101.386913 14.150182 
L 101.502769 14.353183 
L 101.517251 14.351069 
L 101.602695 14.257474 
L 102.050188 12.936527 
L 102.355758 12.038818 
L 102.656983 11.743463 
L 102.668569 11.766045 
L 102.713463 11.702632 
L 102.758357 12.140434 
L 102.771391 12.51602 
L 102.86842 12.158501 
L 102.943726 11.983703 
L 102.994413 12.147641 
L 103.551969 13.721041 
L 103.666377 13.877575 
L 103.677963 13.972499 
L 103.746028 13.587064 
L 103.754717 13.603084 
L 103.887951 13.753617 
L 103.918364 13.73006 
L 104.000911 13.616582 
L 104.160213 13.22508 
L 104.538192 11.954763 
L 104.809006 11.27521 
L 105.055199 11.131741 
L 105.06244 11.150968 
L 105.143539 11.204242 
L 105.094301 11.119217 
L 105.173952 11.144624 
L 105.260843 11.081317 
L 105.213053 11.23371 
L 105.270981 11.202533 
L 105.402767 11.559454 
L 105.531656 11.935953 
L 105.964668 13.168915 
L 105.976253 13.156056 
L 106.013907 13.041323 
L 106.081972 12.91076 
L 106.034181 13.097271 
L 106.132659 12.971604 
L 106.302098 13.132667 
L 106.360026 13.06657 
L 106.755384 11.922111 
L 107.021853 11.028617 
L 107.412866 10.431134 
L 107.423003 10.572 
L 107.485276 11.868497 
L 107.572168 11.698063 
L 107.621407 11.820611 
L 107.651819 11.533648 
L 107.661956 11.549494 
L 107.709747 11.359218 
L 107.741607 11.309326 
L 107.774916 11.411623 
L 107.814017 11.401269 
L 107.863256 11.51818 
L 108.384607 12.845175 
L 108.396193 12.760623 
L 108.439639 12.529036 
L 108.520738 12.565387 
L 108.72783 12.704553 
L 108.761139 12.663062 
L 108.843686 12.520229 
L 109.703916 10.023174 
L 109.722742 10.031783 
L 109.840046 9.969489 
L 109.847287 10.058611 
L 109.889285 11.408998 
L 109.980522 10.644246 
L 110.171684 11.686165 
L 110.012382 10.636513 
L 110.183269 11.524383 
L 110.191959 11.407314 
L 110.283195 11.753663 
L 110.304918 11.696216 
L 110.429463 12.052202 
L 110.765445 12.946678 
L 110.78572 12.788666 
L 110.820477 12.698355 
L 110.871164 12.985248 
L 111.039155 13.294917 
L 111.141977 13.324257 
L 111.06667 13.278477 
L 111.15501 13.300353 
L 111.560506 12.209553 
L 111.939934 10.9433 
L 112.23247 10.517532 
L 112.242607 10.723134 
L 112.384531 13.090512 
L 112.404806 13.004911 
L 112.52211 13.492279 
L 112.575693 13.382999 
L 112.580038 13.364815 
L 112.607553 13.707236 
L 112.679963 13.415528 
L 112.737891 13.616489 
L 112.710375 13.291689 
L 112.807405 13.528408 
L 112.814646 13.522163 
L 112.85954 13.662307 
L 112.884159 13.619891 
L 113.033324 14.003687 
L 113.079666 13.882602 
L 113.101389 13.726177 
L 113.163661 13.906723 
L 113.192625 13.860823 
L 113.199866 13.886869 
L 113.225934 13.67818 
L 113.291103 13.795175 
L 113.298344 13.781839 
L 113.351927 13.946848 
L 113.47792 14.07912 
L 113.521366 14.14311 
L 113.531504 13.940182 
L 113.656049 13.357292 
L 114.594481 10.68854 
L 114.60317 10.721579 
L 114.626342 10.630895 
L 114.7002 12.048819 
L 114.960875 15.965782 
L 115.014459 16.64838 
L 115.082524 16.188741 
L 115.114384 16.226996 
L 115.212862 15.638763 
L 115.253412 15.736988 
L 115.267893 15.548775 
L 115.32727 15.287682 
L 115.382301 15.484006 
L 115.531466 15.726992 
L 115.540155 15.692164 
L 115.558981 15.543175 
L 115.6647 15.582373 
L 115.705249 15.686244 
L 115.766074 15.533316 
L 115.76897 15.533382 
L 115.786348 15.663729 
L 115.951443 15.893037 
L 116.03399 15.899328 
L 115.974614 15.839783 
L 116.060058 15.852862 
L 116.078885 15.899601 
L 116.199085 15.670723 
L 116.451071 14.850384 
L 116.760986 13.742514 
L 117.115794 13.014574 
L 117.121587 13.095588 
L 117.191101 14.45265 
L 117.266407 14.11612 
L 117.302612 14.246275 
L 117.32868 13.736365 
L 117.36054 13.798179 
L 117.37647 13.688604 
L 117.408331 13.961876 
L 117.435846 14.154136 
L 117.470603 13.78616 
L 117.48943 13.82447 
L 117.573425 13.407969 
L 117.616871 13.676558 
L 117.629905 13.695572 
L 117.66611 13.24157 
L 117.815274 12.792133 
L 117.832653 12.846765 
L 117.877547 12.722189 
L 117.968783 12.590594 
L 117.94706 12.806486 
L 117.999195 12.616242 
L 118.004988 12.602968 
L 118.031056 12.700285 
L 118.104914 12.652787 
L 118.310558 12.860762 
L 118.333729 12.783773 
L 118.440896 12.754014 
L 118.364141 12.793899 
L 118.451033 12.764631 
L 118.629162 12.677204 
L 119.467668 10.061039 
L 119.479254 10.276878 
L 119.571939 10.843122 
L 119.602351 10.79924 
L 119.632763 10.738233 
L 119.6429 10.959489 
L 119.826822 14.25158 
L 119.993364 16.035909 
L 120.006398 16.556145 
L 120.106324 16.181341 
L 120.112117 16.188557 
L 120.135288 15.993225 
L 120.161355 15.656178 
L 120.191768 16.01465 
L 120.252592 15.886713 
L 120.285901 15.999907 
L 120.393067 16.327845 
L 120.411894 16.183248 
L 120.423479 16.122009 
L 120.492993 16.466652 
L 120.601608 16.646907 
L 120.530646 16.43062 
L 120.645054 16.596668 
L 120.705878 16.689063 
L 120.991173 16.911352 
L 121.005655 16.878988 
L 121.46763 15.664787 
L 121.975948 14.093407 
L 121.991878 14.589817 
L 122.113527 16.726075 
L 122.146835 16.616265 
L 122.171455 16.581952 
L 122.201867 17.272922 
L 122.427786 21.997197 
L 122.471232 22.670722 
L 122.446612 21.922143 
L 122.547986 22.240737 
L 122.595777 22.028059 
L 122.784043 21.355627 
L 122.839074 21.422546 
L 122.894106 21.546201 
L 122.937552 21.342014 
L 123.001272 21.255247 
L 123.041822 21.379491 
L 123.072234 21.345663 
L 123.237329 21.759136 
L 123.480626 21.950251 
L 123.49366 21.90426 
L 123.511038 21.911509 
L 123.676133 21.71402 
L 123.728268 21.579509 
L 123.971565 20.728691 
L 124.030941 20.473004 
L 124.536362 18.992167 
L 124.5465 19.223824 
L 124.673941 20.836353 
L 124.684079 20.476134 
L 124.694216 20.20619 
L 124.757937 22.054848 
L 124.973718 25.96892 
L 125.011371 25.765268 
L 125.138813 25.001256 
L 125.185155 25.039011 
L 125.193844 24.926171 
L 125.316941 24.265963 
L 125.337216 24.301423 
L 125.363284 24.18327 
L 125.500863 23.800686 
L 125.505207 23.805991 
L 125.563135 23.857832 
L 125.58341 23.705474 
L 125.59934 23.559075 
L 125.673198 23.956248 
L 125.681887 23.904537 
L 125.690576 23.843788 
L 125.74416 24.080881 
L 125.780365 24.020272 
L 125.929529 24.183945 
L 125.944011 24.161361 
L 126.116347 24.035594 
L 126.12214 24.047687 
L 126.133725 24.081078 
L 126.200342 23.919391 
L 126.478396 23.005163 
L 126.892581 21.57744 
L 126.964991 21.420777 
L 127.10257 21.213828 
L 127.108363 21.271687 
L 127.398002 27.032727 
L 127.421173 26.300629 
L 127.434207 26.119932 
L 127.44 26.188495 
" clip-path="url(#pd24a97d0cc)" style="fill: none; stroke: #5f4690; stroke-width: 0.5; stroke-linecap: square"/>
   </g>
  </g>
  <g id="axes_2">
   <g id="patch_3">
    <path d="M 0 56.64 
L 127.44 56.64 
L 127.44 28.32 
L 0 28.32 
L 0 56.64 
z
" style="fill: none"/>
   </g>
   <g id="matplotlib.axis_3">
    <g id="xtick_10"/>
    <g id="xtick_11"/>
    <g id="xtick_12"/>
    <g id="xtick_13"/>
    <g id="xtick_14"/>
    <g id="xtick_15"/>
    <g id="xtick_16"/>
    <g id="xtick_17"/>
    <g id="xtick_18"/>
   </g>
   <g id="matplotlib.axis_4">
    <g id="ytick_4"/>
    <g id="ytick_5"/>
    <g id="ytick_6"/>
   </g>
   <g id="line2d_2">
    <path d="M 0 42.47992 
L 0.315707 42.523862 
L 0.402599 42.620282 
L 0.45039 42.55406 
L 0.596658 42.30178 
L 0.650241 42.381752 
L 0.816784 42.715208 
L 0.871815 42.631751 
L 1.060081 42.208338 
L 1.120905 42.306263 
L 1.323653 42.81085 
L 1.387374 42.707745 
L 1.608948 42.114764 
L 1.675565 42.228219 
L 1.911622 42.906171 
L 1.981135 42.784909 
L 2.231674 42.020874 
L 2.304083 42.150648 
L 2.567656 43.002397 
L 2.64441 42.860673 
L 2.921016 41.927462 
L 2.99777 42.072376 
L 3.28741 43.097926 
L 3.369957 42.936759 
L 3.669734 41.83382 
L 3.752282 41.996375 
L 4.065093 43.194967 
L 4.153433 43.01272 
L 4.474933 41.738714 
L 4.560376 41.913425 
L 4.896358 43.292588 
L 4.990491 43.087304 
L 5.330818 41.643272 
L 5.419158 41.826152 
L 5.778311 43.390571 
L 5.881133 43.146457 
L 6.235942 41.54918 
L 6.322834 41.724968 
L 6.537167 42.961697 
L 6.705158 43.487374 
L 6.737018 43.460817 
L 6.83984 43.101272 
L 7.187408 41.45618 
L 7.248232 41.545015 
L 7.391604 42.264042 
L 7.679795 43.58298 
L 7.701518 43.569702 
L 7.792755 43.303189 
L 8.185217 41.364828 
L 8.27935 41.569716 
L 8.48789 42.872978 
L 8.697879 43.677209 
L 8.718154 43.665764 
L 8.806494 43.418788 
L 9.067169 41.739165 
L 9.223575 41.272141 
L 9.256883 41.300872 
L 9.359705 41.670164 
L 9.759408 43.774433 
L 9.836163 43.63558 
L 9.998361 42.691424 
L 10.302483 41.17839 
L 10.314068 41.18259 
L 10.393719 41.363569 
L 10.57764 42.528577 
L 10.857142 43.869519 
L 10.864383 43.867634 
L 10.93969 43.717664 
L 11.104784 42.726306 
L 11.42194 41.087469 
L 11.430629 41.089989 
L 11.507383 41.24997 
L 11.675374 42.282928 
L 11.996875 43.965294 
L 12.002667 43.963889 
L 12.077974 43.815999 
L 12.240172 42.837646 
L 12.580498 40.994044 
L 12.587739 40.99612 
L 12.664494 41.154637 
L 12.831037 42.187089 
L 13.172812 44.063012 
L 13.178604 44.061535 
L 13.253911 43.913755 
L 13.414661 42.935952 
L 13.773814 40.900552 
L 13.782503 40.903035 
L 13.859257 41.063709 
L 14.022904 42.086241 
L 14.384953 44.159181 
L 14.390746 44.157784 
L 14.466053 44.010099 
L 14.623906 43.04749 
L 15.004782 40.807762 
L 15.013472 40.810635 
L 15.091674 40.980151 
L 15.259665 42.059729 
L 15.631852 44.255355 
L 15.634749 44.25485 
L 15.708607 44.122234 
L 15.859219 43.232599 
L 16.269059 40.715908 
L 16.286438 40.724563 
L 16.371881 40.951907 
L 16.558699 42.273204 
L 16.906267 44.351629 
L 16.978677 44.254363 
L 17.116255 43.51353 
L 17.566645 40.624725 
L 17.607195 40.663941 
L 17.715809 41.098973 
L 18.021379 43.615708 
L 18.22992 44.445932 
L 18.242954 44.440166 
L 18.324053 44.243099 
L 18.497837 43.058084 
L 18.896091 40.533644 
L 18.968501 40.645926 
L 19.110424 41.446815 
L 19.576744 44.542864 
L 19.612949 44.510337 
L 19.715771 44.12393 
L 19.959069 42.093118 
L 20.248708 40.441903 
L 20.312429 40.49888 
L 20.324015 40.527711 
L 20.455801 41.216496 
L 20.956877 44.642906 
L 21.016253 44.558481 
L 21.145143 43.895519 
L 21.657805 40.343139 
L 21.725871 40.451811 
L 21.864898 41.233377 
L 22.365974 44.743422 
L 22.415213 44.685871 
L 22.532517 44.151629 
L 22.85981 41.211161 
L 23.082832 40.24802 
L 23.090073 40.250101 
L 23.166828 40.410084 
L 23.323233 41.418089 
L 23.806931 44.841415 
L 23.825758 44.831101 
L 23.911202 44.59589 
L 24.090778 43.271202 
L 24.529582 40.15462 
L 24.601992 40.250075 
L 24.735227 40.970927 
L 25.276853 44.940935 
L 25.347814 44.824165 
L 25.48829 44.01078 
L 26.022675 40.057827 
L 26.077706 40.129223 
L 26.200803 40.734112 
L 26.539682 43.953379 
L 26.775738 45.043518 
L 26.777186 45.043334 
L 26.849596 44.918739 
L 26.991519 44.077088 
L 27.536042 39.957813 
L 27.592522 40.032577 
L 27.717067 40.656857 
L 28.04436 43.847724 
L 28.296346 45.14947 
L 28.368756 45.050146 
L 28.50199 44.314049 
L 29.076925 39.857209 
L 29.159472 40.013016 
L 29.311533 40.995842 
L 29.857504 45.249737 
L 29.898053 45.209798 
L 30.00522 44.772036 
L 30.235484 42.651504 
L 30.607671 39.797268 
L 30.658357 39.776444 
L 30.703252 39.850466 
L 30.829245 40.49586 
L 31.140608 43.632544 
L 31.418662 45.325762 
L 31.4679 45.313863 
L 31.499761 45.250775 
L 31.627202 44.590265 
L 31.942909 41.391779 
L 32.220963 39.70084 
L 32.270202 39.712384 
L 32.302063 39.775003 
L 32.429504 40.433558 
L 32.740867 43.60446 
L 33.026162 45.412678 
L 33.073952 45.411832 
L 33.111605 45.342379 
L 33.237599 44.69399 
L 33.54172 41.580966 
L 33.838601 39.610231 
L 33.886391 39.604101 
L 33.926941 39.675293 
L 34.052934 40.324174 
L 34.346918 43.35666 
L 34.655385 45.514797 
L 34.704623 45.530831 
L 34.748069 45.458032 
L 34.872614 44.820245 
L 35.160806 41.832247 
L 35.477961 39.516036 
L 35.530096 39.491172 
L 35.576439 39.567898 
L 35.702432 40.222794 
L 35.99352 43.274223 
L 36.312124 45.611531 
L 36.364259 45.635908 
L 36.409153 45.562652 
L 36.533698 44.924713 
L 36.816097 41.972981 
L 37.147734 39.43944 
L 37.202765 39.405004 
L 37.250556 39.481006 
L 37.376549 40.130669 
L 37.658948 43.095036 
L 37.993482 45.683002 
L 38.049961 45.722156 
L 38.097752 45.648409 
L 38.222297 45.016129 
L 38.496007 42.155546 
L 38.845022 39.363898 
L 38.904398 39.318328 
L 38.952189 39.391555 
L 39.076734 40.023398 
L 39.347547 42.864228 
L 39.703804 45.775046 
L 39.764628 45.825722 
L 39.813867 45.749753 
L 39.938412 45.111508 
L 40.210673 42.230275 
L 40.569826 39.265422 
L 40.630651 39.214433 
L 40.67989 39.28964 
L 40.802986 39.916979 
L 41.069455 42.738774 
L 41.440194 45.876488 
L 41.503914 45.931753 
L 41.551705 45.858341 
L 41.674802 45.232385 
L 41.938374 42.437519 
L 42.316354 39.181325 
L 42.381523 39.120321 
L 42.430761 39.195671 
L 42.555306 39.835061 
L 42.820327 42.664902 
L 43.199755 45.9603 
L 43.264923 46.026159 
L 43.31561 45.950667 
L 43.440155 45.313505 
L 43.703728 42.496555 
L 44.090396 39.099918 
L 44.157014 39.032913 
L 44.206252 39.106266 
L 44.327901 39.718419 
L 44.584232 42.436957 
L 44.986831 46.052374 
L 45.054897 46.122148 
L 45.104135 46.048166 
L 45.22868 45.41254 
L 45.487908 42.632256 
L 45.887611 39.013069 
L 45.957124 38.936354 
L 46.006363 39.007977 
L 46.128011 39.618288 
L 46.379998 42.300594 
L 46.797079 46.151894 
L 46.866593 46.227569 
L 46.915831 46.154728 
L 47.038928 45.53031 
L 47.293811 42.789855 
L 47.709444 38.92196 
L 47.780406 38.840434 
L 47.829644 38.912031 
L 47.951293 39.521872 
L 48.200383 42.183509 
L 48.62905 46.235148 
L 48.700012 46.320735 
L 48.750699 46.24895 
L 48.872347 45.640083 
L 49.121437 42.978088 
L 49.557345 38.837335 
L 49.629755 38.755479 
L 49.678994 38.828757 
L 49.80209 39.452688 
L 50.052629 42.154533 
L 50.489985 46.33833 
L 50.560946 46.422974 
L 50.611633 46.350306 
L 50.733282 45.737313 
L 50.980924 43.068737 
L 51.426969 38.7374 
L 51.499379 38.650525 
L 51.548618 38.721045 
L 51.668818 39.320736 
L 51.912115 41.932409 
L 52.371194 46.439994 
L 52.443604 46.524502 
L 52.492843 46.452296 
L 52.614492 45.839175 
L 52.859237 43.197272 
L 53.318316 38.659206 
L 53.393622 38.567314 
L 53.442861 38.638975 
L 53.563061 39.239572 
L 53.803462 41.818006 
L 54.277023 46.532991 
L 54.349433 46.618666 
L 54.398672 46.548066 
L 54.518872 45.948579 
L 54.759273 43.362244 
L 55.238627 38.550258 
L 55.309589 38.465688 
L 55.360275 38.538188 
L 55.481924 39.153978 
L 55.72667 41.822773 
L 56.201679 46.630055 
L 56.276985 46.722979 
L 56.326224 46.651222 
L 56.446424 46.047872 
L 56.686825 43.445147 
L 57.174868 38.470012 
L 57.248726 38.379207 
L 57.297965 38.449308 
L 57.418165 39.048618 
L 57.657118 41.629435 
L 58.15385 46.728169 
L 58.227708 46.817329 
L 58.276947 46.745864 
L 58.398595 46.13382 
L 58.641893 43.475308 
L 59.135728 38.373683 
L 59.211035 38.280368 
L 59.260273 38.351883 
L 59.380474 38.955958 
L 59.619427 41.559568 
L 60.126296 46.834244 
L 60.198706 46.922198 
L 60.249393 46.848399 
L 60.369593 46.241337 
L 60.607098 43.650639 
L 61.11976 38.280858 
L 61.193618 38.191276 
L 61.242857 38.262617 
L 61.365954 38.886847 
L 61.604906 41.5116 
L 62.120465 46.929053 
L 62.192875 47.017085 
L 62.243562 46.943889 
L 62.365211 46.327584 
L 62.602715 43.72165 
L 63.124066 38.188232 
L 63.197925 38.095586 
L 63.248611 38.168603 
L 63.37026 38.785612 
L 63.606316 41.380151 
L 64.132012 47.020353 
L 64.208767 47.119512 
L 64.258006 47.04913 
L 64.379654 46.43596 
L 64.615711 43.843044 
L 65.151544 38.09251 
L 65.225402 38.005113 
L 65.274641 38.077353 
L 65.39629 38.69462 
L 65.633794 41.315702 
L 66.172524 47.126843 
L 66.246382 47.215897 
L 66.295621 47.144474 
L 66.417269 46.529816 
L 66.654774 43.907205 
L 67.197848 38.000922 
L 67.270258 37.908106 
L 67.322393 37.981964 
L 67.442594 38.589557 
L 67.680098 41.21522 
L 68.230414 47.228903 
L 68.304272 47.317826 
L 68.35351 47.245644 
L 68.475159 46.62899 
L 68.709767 44.034964 
L 69.265875 37.912183 
L 69.341182 37.820438 
L 69.39042 37.892687 
L 69.510621 38.497427 
L 69.739436 41.005976 
L 70.318715 47.350177 
L 70.385333 47.415306 
L 70.434571 47.33982 
L 70.55622 46.715247 
L 70.790828 44.101648 
L 71.357074 37.809861 
L 71.429484 37.721963 
L 71.48017 37.795437 
L 71.601819 38.414761 
L 71.834979 41.009232 
L 72.409914 47.428227 
L 72.482324 47.515171 
L 72.531562 47.443617 
L 72.653211 46.830488 
L 72.890716 44.184666 
L 73.468547 37.716541 
L 73.539508 37.633279 
L 73.590195 37.705066 
L 73.71474 38.346304 
L 73.952245 41.02174 
L 74.535869 47.54543 
L 74.602486 47.617478 
L 74.653173 47.543403 
L 74.77627 46.911537 
L 75.016671 44.194391 
L 75.594502 37.634282 
L 75.669808 37.539925 
L 75.719047 37.609265 
L 75.840695 38.223612 
L 76.072407 40.798891 
L 76.682099 47.654816 
L 76.745819 47.712123 
L 76.795058 47.636203 
L 76.918155 46.998846 
L 77.152763 44.348988 
L 77.747973 37.531907 
L 77.820383 37.444362 
L 77.871069 37.517979 
L 77.994166 38.148814 
L 78.225878 40.749594 
L 78.845707 47.764213 
L 78.906531 47.814124 
L 78.954322 47.739777 
L 79.07597 47.117605 
L 79.30913 44.494542 
L 79.921718 37.433978 
L 79.991232 37.354043 
L 80.041919 37.429595 
L 80.160671 38.026304 
L 80.392383 40.604679 
L 80.996281 47.631855 
L 81.081725 47.768574 
L 81.130964 47.703669 
L 81.242475 47.173459 
L 81.462601 44.816086 
L 82.133117 37.145204 
L 82.185252 37.113316 
L 82.233043 37.188518 
L 82.359036 37.844337 
L 82.59654 40.564463 
L 83.210576 47.773635 
L 83.284435 47.866396 
L 83.335122 47.7924 
L 83.455322 47.178934 
L 83.685586 44.591361 
L 84.327137 37.084992 
L 84.38941 37.018285 
L 84.442993 37.093001 
L 84.570435 37.762159 
L 84.813732 40.576493 
L 85.429216 47.872088 
L 85.504523 47.970007 
L 85.553761 47.895448 
L 85.679755 47.242568 
L 85.911466 44.594857 
L 86.55157 37.007363 
L 86.621083 36.926641 
L 86.67177 36.998993 
L 86.793419 37.619047 
L 87.010649 40.027772 
L 87.686957 47.994431 
L 87.74923 48.043347 
L 87.79702 47.963338 
L 87.921565 47.299098 
L 88.154725 44.605063 
L 88.796277 36.901306 
L 88.871584 36.807576 
L 88.92227 36.881409 
L 89.043919 37.510669 
L 89.256804 39.879854 
L 89.94325 48.022185 
L 89.99973 48.075935 
L 90.053313 47.996434 
L 90.174962 47.364477 
L 90.402329 44.781586 
L 91.07719 36.701111 
L 91.148151 36.648235 
L 91.188701 36.71919 
L 91.311798 37.421706 
L 91.537717 39.97864 
L 92.208232 48.087861 
L 92.293676 48.145168 
L 92.335674 48.063064 
L 92.463115 47.358587 
L 92.704964 44.484541 
L 93.345068 36.645553 
L 93.405892 36.536377 
L 93.472509 36.617783 
L 93.578228 37.18034 
L 93.788217 39.385618 
L 94.563003 48.283963 
L 94.635413 48.180278 
L 94.762854 47.457668 
L 95.004703 44.551532 
L 95.647703 36.589334 
L 95.712872 36.461912 
L 95.766456 36.578424 
L 95.870726 37.006922 
L 96.082163 39.144328 
L 96.884465 48.50667 
L 96.893154 48.503096 
L 96.977149 48.30589 
L 97.133555 47.164624 
L 97.436228 42.936128 
L 97.927167 36.802543 
L 98.048816 36.490597 
L 98.087917 36.560508 
L 98.261701 37.518404 
L 98.541203 41.13681 
L 99.106001 48.343979 
L 99.217512 48.604551 
L 99.260958 48.557433 
L 99.375366 48.048625 
L 99.585354 45.838011 
L 100.387656 36.392329 
L 100.455722 36.583509 
L 100.581715 37.276882 
L 100.800393 39.82513 
L 101.517251 48.748452 
L 101.576627 48.799114 
L 101.627314 48.72276 
L 101.747514 48.100773 
L 101.971985 45.541172 
L 102.714911 36.424664 
L 102.746771 36.400733 
L 102.781528 36.517868 
L 102.856834 36.785125 
L 103.063927 38.659765 
L 103.481008 45.089233 
L 103.845954 49.027048 
L 103.947328 49.208258 
L 103.989325 49.152163 
L 104.100837 48.63216 
L 104.31517 46.3318 
L 105.126161 36.622902 
L 105.201467 36.725478 
L 105.330357 37.525212 
L 105.56062 40.309136 
L 106.271686 49.371284 
L 106.329614 49.436825 
L 106.386093 49.359604 
L 106.500501 48.779653 
L 106.719179 46.337152 
L 107.493965 36.838545 
L 107.556238 36.839167 
L 107.58665 36.899261 
L 107.680783 37.434096 
L 107.986353 41.087187 
L 108.668454 49.918075 
L 108.737967 50.012165 
L 108.791551 49.935353 
L 108.911751 49.32147 
L 109.139118 46.714456 
L 109.895078 37.237817 
L 109.958799 37.112432 
L 110.012382 37.20827 
L 110.122445 37.907325 
L 110.419326 41.676277 
L 111.06667 50.203048 
L 111.162251 50.390575 
L 111.21149 50.329219 
L 111.328794 49.755808 
L 111.544576 47.365448 
L 112.348326 37.385882 
L 112.36136 37.35906 
L 112.430873 37.47798 
L 112.564107 38.170116 
L 112.840713 41.845443 
L 113.524263 50.965317 
L 113.612603 51.016447 
L 113.543089 50.950694 
L 113.648808 50.966952 
L 113.764664 50.431522 
L 113.96886 48.244453 
L 114.740749 38.060728 
L 114.810263 38.116571 
L 114.840675 38.104291 
L 114.868191 38.222074 
L 114.978254 38.628018 
L 115.156382 40.596483 
L 115.978959 52.014557 
L 116.077436 52.159014 
L 116.115089 52.100623 
L 116.248324 51.397084 
L 116.477139 48.685282 
L 117.24034 38.753165 
L 117.327231 38.588763 
L 117.382263 38.725042 
L 117.496671 39.484111 
L 117.836997 44.457129 
L 118.404691 52.485718 
L 118.543718 52.870211 
L 118.578475 52.835464 
L 118.682745 52.411084 
L 118.8797 50.448713 
L 119.344572 42.900477 
L 119.671864 39.531285 
L 119.78772 39.316361 
L 119.816684 39.343591 
L 119.942678 39.86957 
L 120.115013 41.901718 
L 121.038964 53.595425 
L 121.066479 53.577639 
L 121.150475 53.30169 
L 121.334396 51.687292 
L 121.687756 46.115651 
L 122.130905 40.372298 
L 122.281518 39.900702 
L 122.309034 39.906784 
L 122.345238 39.938076 
L 122.358272 40.001575 
L 122.575502 41.901776 
L 122.865142 46.572159 
L 123.373459 53.932986 
L 123.544347 54.554543 
L 123.568966 54.541132 
L 123.637031 54.372916 
L 123.786196 53.306542 
L 124.058457 49.503868 
L 124.688423 40.749286 
L 124.747799 40.456466 
L 124.821658 40.609099 
L 124.88393 40.706141 
L 125.040335 41.71059 
L 125.35025 46.431358 
L 125.900565 54.705466 
L 126.074349 55.352549 
L 126.101865 55.336311 
L 126.197446 55.024058 
L 126.368333 53.528594 
L 126.701419 48.313272 
L 127.180773 41.737755 
L 127.185117 41.739442 
L 127.19091 41.736042 
L 127.203944 41.632172 
L 127.341523 41.307244 
L 127.395106 41.290834 
L 127.416829 41.220632 
L 127.437104 41.155113 
L 127.44 41.157712 
" clip-path="url(#pe998808ef8)" style="fill: none; stroke: #1d6996; stroke-width: 0.5; stroke-linecap: square"/>
   </g>
   <g id="line2d_3">
    <path d="M 0 42.479891 
L 0.147716 42.548796 
L 0.228815 42.465485 
L 0.317155 42.368257 
L 0.366394 42.436253 
L 0.496732 42.643834 
L 0.548867 42.568638 
L 0.703824 42.273221 
L 0.760304 42.358461 
L 0.936984 42.738722 
L 0.994912 42.64716 
L 1.190419 42.177765 
L 1.252692 42.279091 
L 1.465577 42.833753 
L 1.530746 42.723304 
L 1.758113 42.082139 
L 1.827626 42.20225 
L 2.069475 42.929696 
L 2.141885 42.801442 
L 2.398216 41.986383 
L 2.473523 42.12471 
L 2.742888 43.024381 
L 2.819642 42.88089 
L 3.103489 41.891308 
L 3.18314 42.046659 
L 3.477124 43.119351 
L 3.559671 42.957297 
L 3.866689 41.79509 
L 3.952133 41.969691 
L 4.269289 43.215281 
L 4.35618 43.034571 
L 4.684921 41.698431 
L 4.77471 41.890242 
L 5.113588 43.311375 
L 5.204825 43.112781 
L 5.55384 41.601186 
L 5.647973 41.809849 
L 6.007126 43.407193 
L 6.102708 43.191047 
L 6.47055 41.50474 
L 6.569027 41.728288 
L 6.947007 43.50262 
L 7.048381 43.265653 
L 7.43505 41.409539 
L 7.536424 41.649155 
L 7.93323 43.596728 
L 8.0375 43.345072 
L 8.441548 41.314783 
L 8.547266 41.569178 
L 8.810838 43.259488 
L 8.961451 43.69045 
L 8.994759 43.65993 
L 9.100478 43.268582 
L 9.490043 41.218522 
L 9.561005 41.335896 
L 9.713066 42.180927 
L 10.030221 43.786283 
L 10.044703 43.779558 
L 10.127251 43.572949 
L 10.325654 42.270631 
L 10.579088 41.123762 
L 10.589226 41.12708 
L 10.667428 41.298608 
L 10.84266 42.396238 
L 11.139541 43.878538 
L 11.145334 43.877053 
L 11.22064 43.728163 
L 11.384287 42.740585 
L 11.708683 41.029451 
L 11.717372 41.032002 
L 11.794127 41.19413 
L 11.963566 42.249906 
L 12.287962 43.973276 
L 12.293755 43.971758 
L 12.369061 43.822594 
L 12.529811 42.845462 
L 12.875931 40.933003 
L 12.88462 40.935747 
L 12.961375 41.099373 
L 13.127917 42.14652 
L 13.472589 44.068975 
L 13.478381 44.067571 
L 13.553688 43.919737 
L 13.712989 42.945955 
L 14.079384 40.836754 
L 14.088073 40.839672 
L 14.166276 41.009721 
L 14.334267 42.087056 
L 14.69342 44.163905 
L 14.697764 44.163081 
L 14.771622 44.025428 
L 14.925131 43.103948 
L 15.317593 40.740624 
L 15.330627 40.745975 
L 15.410278 40.935122 
L 15.582613 42.084222 
L 15.949008 44.257634 
L 16.021418 44.139477 
L 16.166237 43.310014 
L 16.590559 40.64494 
L 16.616627 40.662694 
L 16.709312 40.956261 
L 16.922197 42.589592 
L 17.229215 44.351192 
L 17.303073 44.258298 
L 17.437755 43.540217 
L 17.896834 40.550798 
L 17.941728 40.598826 
L 18.054688 41.082613 
L 18.564454 44.444939 
L 18.661483 44.226398 
L 18.838163 42.988432 
L 19.232073 40.455708 
L 19.304483 40.562177 
L 19.44351 41.337036 
L 19.918519 44.540046 
L 19.960517 44.497128 
L 20.07058 44.0408 
L 20.354427 41.579803 
L 20.606413 40.358114 
L 20.678823 40.473625 
L 20.820747 41.289182 
L 21.305893 44.636645 
L 21.346443 44.595822 
L 21.455057 44.151469 
L 21.71863 41.836214 
L 21.998132 40.261859 
L 22.069094 40.340469 
L 22.07199 40.348248 
L 22.202328 41.033755 
L 22.723679 44.733022 
L 22.793193 44.619424 
L 22.933668 43.812459 
L 23.443434 40.162727 
L 23.492672 40.220583 
L 23.609976 40.758852 
L 23.916995 43.586819 
L 24.167533 44.828967 
L 24.239943 44.719005 
L 24.377522 43.938362 
L 24.906114 40.063977 
L 24.964042 40.142493 
L 25.090035 40.782613 
L 25.64904 44.927354 
L 25.740276 44.736826 
L 25.903923 43.612115 
L 26.397758 39.962332 
L 26.410792 39.967199 
L 26.490443 40.155145 
L 26.652641 41.273302 
L 27.155166 45.029057 
L 27.169648 45.022692 
L 27.250747 44.820573 
L 27.41729 43.638218 
L 27.918366 39.858368 
L 27.928504 39.861677 
L 28.005258 40.030521 
L 28.161664 41.075718 
L 28.688808 45.129907 
L 28.716324 45.110439 
L 28.810456 44.798903 
L 29.005963 43.180799 
L 29.443319 39.768899 
L 29.49111 39.776548 
L 29.525866 39.844389 
L 29.653308 40.51307 
L 29.999427 43.980037 
L 30.245621 45.219753 
L 30.316583 45.117188 
L 30.449817 44.372787 
L 31.04213 39.674462 
L 31.129022 39.847571 
L 31.283979 40.88217 
L 31.840087 45.302057 
L 31.876292 45.270722 
L 31.977666 44.889051 
L 32.190551 42.999542 
L 32.610529 39.609321 
L 32.659767 39.590509 
L 32.704662 39.664345 
L 32.830655 40.310197 
L 33.128984 43.364762 
L 33.428761 45.381088 
L 33.476551 45.388913 
L 33.517101 45.318483 
L 33.641646 44.681978 
L 33.932734 41.686444 
L 34.242648 39.502731 
L 34.291887 39.485656 
L 34.336781 39.561381 
L 34.462774 40.215761 
L 34.756759 43.2777 
L 35.066673 45.480937 
L 35.115912 45.499495 
L 35.160806 45.425027 
L 35.285351 44.782138 
L 35.570646 41.801568 
L 35.892146 39.407598 
L 35.944281 39.378888 
L 35.992072 39.456211 
L 36.118065 40.112202 
L 36.404808 43.130791 
L 36.729205 45.564484 
L 36.782788 45.593344 
L 36.82913 45.517641 
L 36.955124 44.864538 
L 37.23897 41.872982 
L 37.570608 39.326894 
L 37.625639 39.291909 
L 37.67343 39.367647 
L 37.797975 40.006825 
L 38.074581 42.91334 
L 38.417804 45.636799 
L 38.475732 45.680527 
L 38.524971 45.604041 
L 38.649516 44.96423 
L 38.923225 42.078418 
L 39.275137 39.239488 
L 39.334513 39.19541 
L 39.382304 39.270251 
L 39.505401 39.898404 
L 39.774766 42.741296 
L 40.135367 45.731392 
L 40.196191 45.783694 
L 40.24543 45.708805 
L 40.368527 45.080273 
L 40.634995 42.255306 
L 41.002838 39.14434 
L 41.06511 39.087731 
L 41.114349 39.161849 
L 41.237446 39.789374 
L 41.502466 42.60847 
L 41.876101 45.821208 
L 41.939822 45.883119 
L 41.990509 45.806475 
L 42.113606 45.174892 
L 42.377178 42.360575 
L 42.756606 39.05858 
L 42.821775 38.99357 
L 42.871014 39.066544 
L 42.992662 39.680058 
L 43.250441 42.414492 
L 43.644351 45.905984 
L 43.70952 45.972362 
L 43.760207 45.896902 
L 43.883304 45.268571 
L 44.142532 42.49658 
L 44.53789 38.967993 
L 44.604507 38.899094 
L 44.653746 38.971947 
L 44.775394 39.585022 
L 45.030277 42.300324 
L 45.437221 45.998582 
L 45.505286 46.069676 
L 45.554525 45.995967 
L 45.677622 45.368654 
L 45.933953 42.612079 
L 46.340897 38.873757 
L 46.41041 38.79642 
L 46.459649 38.868238 
L 46.581298 39.481224 
L 46.833284 42.181223 
L 47.251813 46.087643 
L 47.321327 46.16773 
L 47.372014 46.093681 
L 47.493662 45.477171 
L 47.744201 42.78563 
L 48.169971 38.782241 
L 48.239485 38.702933 
L 48.290171 38.777294 
L 48.41182 39.393621 
L 48.663807 42.107443 
L 49.092473 46.172777 
L 49.163435 46.256956 
L 49.214122 46.183605 
L 49.337219 45.557997 
L 49.587757 42.849183 
L 50.022217 38.689884 
L 50.094627 38.604961 
L 50.143865 38.677078 
L 50.265514 39.291175 
L 50.514604 41.983139 
L 50.957753 46.274587 
L 51.028714 46.359777 
L 51.079401 46.286387 
L 51.20105 45.669599 
L 51.447244 43.001912 
L 51.897633 38.590022 
L 51.970043 38.50283 
L 52.02073 38.576929 
L 52.142379 39.19632 
L 52.390021 41.889976 
L 52.843307 46.359902 
L 52.917165 46.45014 
L 52.966404 46.379288 
L 53.086604 45.777847 
L 53.328453 43.172237 
L 53.79767 38.497363 
L 53.870079 38.410305 
L 53.920766 38.48431 
L 54.043863 39.113257 
L 54.290057 41.805999 
L 54.75348 46.453853 
L 54.827338 46.549079 
L 54.878025 46.477452 
L 54.998226 45.874236 
L 55.241523 43.230899 
L 55.719429 38.394714 
L 55.791839 38.306764 
L 55.842525 38.380458 
L 55.965622 39.010402 
L 56.211816 41.719666 
L 56.685377 46.544554 
L 56.760683 46.642515 
L 56.81137 46.569996 
L 56.933019 45.953822 
L 57.174868 43.311338 
L 57.662911 38.306385 
L 57.736769 38.214391 
L 57.786008 38.284611 
L 57.907656 38.895891 
L 58.148057 41.51871 
L 58.644789 46.650085 
L 58.717199 46.739385 
L 58.767886 46.666263 
L 58.889535 46.048205 
L 59.131384 43.388592 
L 59.628116 38.206449 
L 59.703422 38.110428 
L 59.752661 38.180545 
L 59.871413 38.772663 
L 60.106021 41.318132 
L 60.624476 46.75309 
L 60.695438 46.834757 
L 60.744677 46.763264 
L 60.864877 46.15705 
L 61.10383 43.537725 
L 61.61794 38.108638 
L 61.691798 38.016211 
L 61.742485 38.089523 
L 61.862686 38.69791 
L 62.098742 41.285468 
L 62.621542 46.841606 
L 62.693952 46.931131 
L 62.744638 46.858405 
L 62.864839 46.250494 
L 63.103792 43.617169 
L 63.626591 38.011534 
L 63.701898 37.915339 
L 63.751136 37.98474 
L 63.869889 38.577198 
L 64.103048 41.121126 
L 64.643226 46.938961 
L 64.715636 47.025077 
L 64.764875 46.953413 
L 64.885076 46.346508 
L 65.119684 43.766514 
L 65.66131 37.90753 
L 65.73372 37.820388 
L 65.784407 37.894159 
L 65.907503 38.527026 
L 66.146456 41.193216 
L 66.680841 47.021163 
L 66.756148 47.121497 
L 66.806835 47.050372 
L 66.927035 46.445392 
L 67.158747 43.896409 
L 67.714855 37.805622 
L 67.787265 37.721287 
L 67.836504 37.793804 
L 67.958152 38.413843 
L 68.194209 41.040124 
L 68.745972 47.11971 
L 68.81983 47.21347 
L 68.870517 47.140732 
L 68.990718 46.532532 
L 69.223878 43.954051 
L 69.788675 37.7109 
L 69.859637 37.625606 
L 69.910324 37.698647 
L 70.030524 38.307649 
L 70.262236 40.871386 
L 70.834274 47.226858 
L 70.905236 47.309188 
L 70.954474 47.23772 
L 71.076123 46.619209 
L 71.310731 44.003194 
L 71.879873 37.620449 
L 71.955179 37.528077 
L 72.004418 37.599871 
L 72.126067 38.219912 
L 72.360675 40.839702 
L 72.937058 47.314023 
L 73.009468 47.401599 
L 73.060155 47.328016 
L 73.180355 46.715687 
L 73.412067 44.137166 
L 73.998587 37.51212 
L 74.068101 37.427738 
L 74.120236 37.502136 
L 74.243333 38.137552 
L 74.479389 40.801504 
L 75.060117 47.404929 
L 75.133975 47.497837 
L 75.184662 47.424931 
L 75.30631 46.803948 
L 75.538022 44.21096 
L 76.13468 37.413398 
L 76.201297 37.330574 
L 76.25488 37.405339 
L 76.377977 38.037143 
L 76.612585 40.682396 
L 77.206346 47.500988 
L 77.280205 47.592417 
L 77.329443 47.521645 
L 77.448196 46.925993 
L 77.675563 44.410201 
L 78.298288 37.292183 
L 78.359112 37.230658 
L 78.411247 37.306402 
L 78.532896 37.934025 
L 78.764608 40.545774 
L 79.375747 47.605953 
L 79.445261 47.686249 
L 79.495948 47.61241 
L 79.616148 46.999824 
L 79.84786 44.400611 
L 80.473482 37.151871 
L 80.535754 37.090688 
L 80.587889 37.168515 
L 80.655955 37.410005 
L 80.839876 39.056634 
L 81.623351 47.703207 
L 81.666797 47.660644 
L 81.773964 47.206929 
L 81.97816 45.156029 
L 82.718189 36.951623 
L 82.787703 37.04302 
L 82.907903 37.693165 
L 83.139615 40.346383 
L 83.768133 47.72071 
L 83.837646 47.794972 
L 83.886885 47.720318 
L 84.008534 47.093112 
L 84.237349 44.506286 
L 84.881797 36.91681 
L 84.942622 36.848135 
L 84.996205 36.924807 
L 85.119302 37.566793 
L 85.352462 40.229023 
L 85.989669 47.806199 
L 86.060631 47.889255 
L 86.111318 47.813645 
L 86.234414 47.175871 
L 86.466126 44.532779 
L 87.113471 36.824388 
L 87.181536 36.752257 
L 87.232223 36.830319 
L 87.35532 37.478331 
L 87.591376 40.204307 
L 88.234376 47.911863 
L 88.30389 47.992269 
L 88.354577 47.918041 
L 88.473329 47.314822 
L 88.699248 44.779858 
L 89.375557 36.713509 
L 89.433484 36.661774 
L 89.484171 36.737204 
L 89.604372 37.352722 
L 89.825946 39.849719 
L 90.515289 48.066757 
L 90.57032 48.105404 
L 90.619559 48.028422 
L 90.741208 47.39403 
L 90.970023 44.779503 
L 91.646331 36.680543 
L 91.708604 36.624931 
L 91.757843 36.702178 
L 91.88094 37.345977 
L 92.114099 40.040595 
L 92.780271 48.189883 
L 92.849784 48.268462 
L 92.899023 48.196789 
L 93.019223 47.586987 
L 93.245142 45.037114 
L 93.943174 36.633088 
L 94.001102 36.589751 
L 94.050341 36.667699 
L 94.174886 37.328367 
L 94.410942 40.094214 
L 95.09594 48.372825 
L 95.153868 48.415815 
L 95.201658 48.341041 
L 95.324755 47.699563 
L 95.55357 45.070672 
L 96.245809 36.614167 
L 96.312426 36.553997 
L 96.360217 36.630351 
L 96.480417 37.254168 
L 96.706336 39.81862 
L 97.443469 48.533648 
L 97.492708 48.520043 
L 97.52312 48.457862 
L 97.647665 47.794968 
L 97.882273 45.053464 
L 98.568719 36.504853 
L 98.638233 36.428207 
L 98.687471 36.501234 
L 98.806224 37.105216 
L 99.024902 39.569351 
L 99.780861 48.627939 
L 99.828652 48.617671 
L 99.86196 48.551861 
L 99.985057 47.897505 
L 100.215321 45.216871 
L 100.916249 36.45427 
L 100.984314 36.377263 
L 101.035001 36.450921 
L 101.155201 37.065455 
L 101.38112 39.632014 
L 102.084945 48.651878 
L 102.163147 48.762337 
L 102.213834 48.691296 
L 102.334035 48.083103 
L 102.557057 45.55751 
L 103.299983 36.309037 
L 103.353566 36.273622 
L 103.402805 36.3511 
L 103.528798 37.020139 
L 103.766303 39.805811 
L 104.473024 48.755111 
L 104.539641 48.827297 
L 104.590328 48.75257 
L 104.711976 48.124163 
L 104.937895 45.529714 
L 105.685166 36.230485 
L 105.741645 36.199671 
L 105.786539 36.273858 
L 105.908188 36.907239 
L 106.1399 39.57683 
L 106.878481 48.896628 
L 106.934961 48.939485 
L 106.984199 48.863879 
L 107.105848 48.230343 
L 107.336112 45.562718 
L 108.081934 36.143149 
L 108.139862 36.098126 
L 108.1891 36.17751 
L 108.315094 36.841074 
L 108.539564 39.434445 
L 109.299868 48.993329 
L 109.350555 49.01525 
L 109.395449 48.941909 
L 109.519995 48.284646 
L 109.74881 45.609049 
L 110.48015 36.219294 
L 110.555456 36.120997 
L 110.604695 36.189004 
L 110.721999 36.770983 
L 110.945022 39.281263 
L 111.737186 49.25505 
L 111.786425 49.260017 
L 111.825526 49.188873 
L 111.944278 48.570916 
L 112.162956 46.073424 
L 112.900089 36.745398 
L 112.991326 36.579305 
L 113.040565 36.641061 
L 113.144835 37.09744 
L 113.364961 39.454419 
L 114.204916 49.84456 
L 114.277326 49.748104 
L 114.403319 49.044676 
L 114.640824 46.197501 
L 115.441677 36.966308 
L 115.512639 37.062535 
L 115.660355 37.95149 
L 115.918135 41.33492 
L 116.585754 50.290529 
L 116.679887 50.461706 
L 116.727677 50.401562 
L 116.840637 49.866329 
L 117.047729 47.627996 
L 117.919545 37.094797 
L 117.989058 37.203082 
L 118.110707 37.890701 
L 118.349659 40.804368 
L 119.098378 50.701198 
L 119.166443 50.771733 
L 119.215682 50.697256 
L 119.335882 50.077013 
L 119.573387 47.399494 
L 120.26997 38.33352 
L 120.419135 37.945635 
L 120.446651 37.977958 
L 120.552369 38.414268 
L 120.739187 40.261408 
L 121.231574 48.307177 
L 121.561763 51.689283 
L 121.660241 51.879688 
L 121.708031 51.819559 
L 121.822439 51.275017 
L 122.041117 48.897747 
L 122.792732 39.488353 
L 122.925966 39.157031 
L 122.962171 39.195497 
L 123.069338 39.661722 
L 123.261948 41.665324 
L 124.158383 53.267024 
L 124.216311 53.227754 
L 124.233689 53.186261 
L 124.365475 52.460675 
L 124.601531 49.682261 
L 125.244531 40.922845 
L 125.448727 40.056359 
L 125.461761 40.06776 
L 125.56748 40.400468 
L 125.738367 41.922444 
L 126.078694 47.346927 
L 126.552254 53.850424 
L 126.70866 54.352379 
L 126.737624 54.330915 
L 126.833205 53.995166 
L 127.012782 52.370726 
L 127.44 48.238565 
L 127.44 48.238565 
" clip-path="url(#pe998808ef8)" style="fill: none; stroke: #38a6a5; stroke-width: 0.5; stroke-linecap: square"/>
   </g>
   <g id="line2d_4">
    <path d="M 0 42.487192 
L 8.157701 42.51737 
L 11.870881 42.534263 
L 13.799881 42.539716 
L 15.566683 42.546181 
L 17.248041 42.536191 
L 89.306043 42.978421 
L 89.698505 42.953244 
L 93.033705 42.897952 
L 94.153163 42.928392 
L 96.229879 42.913071 
L 96.70344 42.849439 
L 96.858397 42.826691 
L 98.494861 42.888168 
L 99.313093 42.822015 
L 100.257318 42.837675 
L 101.285539 42.818876 
L 101.449186 42.794496 
L 102.029913 42.742972 
L 103.841609 42.659923 
L 104.727906 42.621771 
L 105.92267 42.694909 
L 107.724229 42.487212 
L 108.01242 42.498093 
L 110.470013 42.413737 
L 110.784272 42.383951 
L 110.940677 42.382858 
L 112.2484 42.308342 
L 112.374393 42.241131 
L 112.385979 42.221342 
L 112.46563 42.30163 
L 112.471423 42.302401 
L 113.750182 42.325463 
L 114.765369 42.144493 
L 114.898603 42.037713 
L 114.918878 42.086207 
L 115.065146 42.149951 
L 115.41561 42.144179 
L 116.099159 42.021879 
L 116.708851 41.990025 
L 117.366333 42.148378 
L 117.493774 42.341985 
L 117.528531 42.326396 
L 117.563288 42.328715 
L 117.606734 42.404763 
L 117.744313 42.46097 
L 117.75445 42.445272 
L 117.761691 42.442018 
L 117.806585 42.554635 
L 117.812378 42.554394 
L 118.094777 42.472427 
L 118.416277 42.42144 
L 119.926747 42.319538 
L 119.97309 42.353087 
L 120.010743 42.242126 
L 120.155563 42.293372 
L 120.319209 42.472881 
L 120.479959 42.5257 
L 120.6885 42.499924 
L 121.023033 42.51103 
L 124.330718 42.298766 
L 125.283633 42.426417 
L 125.40673 42.448298 
L 125.547205 42.393552 
L 126.119243 42.386836 
L 126.420468 42.35171 
L 127.345867 42.192474 
L 127.393658 42.144863 
L 127.437104 42.229272 
L 127.44 42.228502 
" clip-path="url(#pe998808ef8)" style="fill: none; stroke: #0f8554; stroke-width: 0.5; stroke-linecap: square"/>
   </g>
  </g>
  <g id="axes_3">
   <g id="patch_4">
    <path d="M 0 84.96 
L 127.44 84.96 
L 127.44 56.64 
L 0 56.64 
L 0 84.96 
z
" style="fill: none"/>
   </g>
   <g id="matplotlib.axis_5">
    <g id="xtick_19"/>
    <g id="xtick_20"/>
    <g id="xtick_21"/>
    <g id="xtick_22"/>
    <g id="xtick_23"/>
    <g id="xtick_24"/>
    <g id="xtick_25"/>
    <g id="xtick_26"/>
    <g id="xtick_27"/>
   </g>
   <g id="matplotlib.axis_6">
    <g id="ytick_7"/>
    <g id="ytick_8"/>
    <g id="ytick_9"/>
   </g>
   <g id="line2d_5">
    <path d="M 0 70.8 
L 89.899804 70.680597 
L 90.025798 70.670451 
L 92.157545 70.639054 
L 92.299469 70.60638 
L 102.908969 70.85681 
L 103.0451 70.883002 
L 107.728573 71.313447 
L 107.942907 71.333228 
L 108.322335 71.363697 
L 108.555494 71.468223 
L 109.9979 71.465382 
L 110.176028 71.445763 
L 110.191959 71.509521 
L 110.393258 71.498873 
L 111.492441 71.533691 
L 112.519213 71.388161 
L 112.603209 71.377669 
L 112.627828 71.418059 
L 112.685756 71.535681 
L 112.700238 71.537372 
L 112.74658 71.448112 
L 112.85954 71.417099 
L 112.863884 71.419462 
L 113.152076 71.553986 
L 113.324411 71.622062 
L 113.60681 71.585303 
L 114.524968 71.587273 
L 114.708889 71.658817 
L 114.859502 71.724031 
L 114.900051 71.718775 
L 114.93336 71.643209 
L 115.011562 71.505369 
L 115.079628 71.584412 
L 115.199828 71.713589 
L 115.211414 71.700861 
L 115.257756 71.679513 
L 115.30265 71.764048 
L 115.483675 71.813609 
L 116.012267 71.937938 
L 117.341713 71.836367 
L 117.65018 71.566324 
L 117.664662 71.603765 
L 117.761691 71.683472 
L 117.789207 71.623381 
L 117.806585 71.568416 
L 117.892029 71.67216 
L 118.128085 71.785152 
L 118.136774 71.771278 
L 118.222218 71.786253 
L 118.241045 71.809486 
L 118.440896 71.838226 
L 119.489391 71.877839 
L 119.621178 71.8563 
L 119.751515 71.70856 
L 119.861578 71.663743 
L 119.873164 71.667215 
L 120.081705 71.635629 
L 120.087497 71.646468 
L 120.167148 71.738501 
L 120.217835 71.6686 
L 120.413342 71.487539 
L 120.433617 71.504374 
L 120.713119 71.53385 
L 120.876765 71.576709 
L 121.196817 71.566454 
L 122.214901 71.429756 
L 122.401718 71.163184 
L 122.414752 71.175136 
L 122.56102 71.311732 
L 122.624741 71.268892 
L 122.726115 71.409031 
L 122.88252 71.408294 
L 122.959275 71.490158 
L 123.117128 71.524756 
L 124.607324 71.55918 
L 124.921583 71.116122 
L 124.928824 71.12895 
L 125.051921 71.13241 
L 125.273495 71.276777 
L 125.292322 71.227079 
L 125.363284 71.327503 
L 125.622511 71.532743 
L 125.647131 71.511683 
L 125.935322 71.540165 
L 126.275649 71.579285 
L 127.160498 71.533747 
L 127.196703 71.560977 
L 127.274905 71.538668 
L 127.44 71.388722 
L 127.44 71.388722 
" clip-path="url(#p314d4bdaf8)" style="fill: none; stroke: #73af48; stroke-width: 0.5; stroke-linecap: square"/>
   </g>
   <g id="line2d_6">
    <path d="M 0 70.800002 
L 31.308599 70.818813 
L 51.705023 70.832072 
L 80.593682 70.893367 
L 80.726916 70.911742 
L 83.576971 70.918494 
L 87.379939 70.920469 
L 88.760072 70.893534 
L 89.783948 70.894079 
L 91.113394 70.821933 
L 91.689777 70.801222 
L 97.811311 70.638873 
L 100.40069 70.62945 
L 100.516546 70.638106 
L 101.134927 70.639995 
L 102.234109 70.633396 
L 102.869868 70.704307 
L 103.071168 70.780618 
L 103.708375 70.843027 
L 103.830024 70.852358 
L 105.021891 70.853193 
L 106.730765 70.967305 
L 107.712643 71.078027 
L 107.877738 71.129776 
L 108.403434 71.213765 
L 108.555494 71.263207 
L 109.328832 71.248768 
L 110.257127 71.384654 
L 110.380224 71.428783 
L 111.754564 71.42594 
L 112.375842 71.321048 
L 112.433769 71.312456 
L 112.462733 71.377709 
L 112.472871 71.375209 
L 112.519213 71.351231 
L 112.574245 71.425661 
L 112.60176 71.395139 
L 112.8914 71.78284 
L 113.070977 71.840986 
L 113.280965 71.968971 
L 114.081819 71.956357 
L 114.710337 71.879025 
L 114.830538 71.802202 
L 114.843571 71.835965 
L 114.930463 71.860647 
L 114.873984 71.802388 
L 114.950738 71.814768 
L 115.013011 71.753969 
L 115.056457 71.844053 
L 115.175209 72.123923 
L 115.370716 72.392261 
L 115.602427 72.493508 
L 115.770418 72.577868 
L 115.780556 72.561375 
L 115.925376 72.527664 
L 117.18386 72.456794 
L 117.322887 72.461417 
L 117.44888 72.621528 
L 117.667558 73.159999 
L 117.80224 73.442048 
L 117.949957 73.57064 
L 118.12374 73.684871 
L 118.125189 73.684197 
L 118.288835 73.704552 
L 118.886941 73.708351 
L 119.689243 73.599717 
L 119.813788 73.459584 
L 119.821029 73.469203 
L 119.951367 73.495721 
L 119.881853 73.41331 
L 119.952815 73.494551 
L 120.006398 73.445986 
L 120.062878 73.53268 
L 120.377137 74.024445 
L 120.384378 74.019166 
L 120.394515 74.017644 
L 120.420583 74.099427 
L 120.456788 74.101837 
L 120.79277 74.075055 
L 120.95352 74.012304 
L 121.357567 73.999433 
L 122.101941 73.875617 
L 122.232279 73.828611 
L 122.326412 73.686123 
L 122.471232 73.492848 
L 122.491506 73.547449 
L 122.836178 74.177255 
L 122.84197 74.172607 
L 122.895554 74.185285 
L 122.927414 74.243062 
L 123.135955 74.31265 
L 124.720284 74.056857 
L 124.815865 73.882714 
L 124.862207 73.92146 
L 125.005579 73.907118 
L 125.014268 73.924009 
L 125.273495 74.365092 
L 125.77602 74.828447 
L 127.277802 74.472662 
L 127.400899 74.234403 
L 127.422622 74.276844 
L 127.435655 74.270432 
L 127.44 74.264545 
" clip-path="url(#p314d4bdaf8)" style="fill: none; stroke: #edad08; stroke-width: 0.5; stroke-linecap: square"/>
   </g>
   <g id="line2d_7">
    <path d="M 0 70.799999 
L 56.258158 70.77409 
L 107.638785 70.720124 
L 107.886427 70.690645 
L 110.378776 70.632088 
L 112.879815 70.518203 
L 113.651704 70.490547 
L 115.159279 70.424771 
L 115.522776 70.371267 
L 116.885531 70.36064 
L 117.635698 70.251961 
L 118.033952 70.166751 
L 118.713157 70.158221 
L 120.422031 70.01623 
L 121.17075 70.023155 
L 122.64936 69.893005 
L 123.34884 69.831626 
L 125.180811 69.710462 
L 125.858567 69.614287 
L 127.287939 69.605154 
L 127.44 69.572927 
L 127.44 69.572927 
" clip-path="url(#p314d4bdaf8)" style="fill: none; stroke: #e17c05; stroke-width: 0.5; stroke-linecap: square"/>
   </g>
   <g id="line2d_8">
    <path d="M 0 70.799999 
L 80.60382 70.8135 
L 80.728365 70.812616 
L 82.884732 70.813519 
L 83.610279 70.78683 
L 84.224315 70.793427 
L 85.15261 70.812406 
L 87.684061 70.84403 
L 87.812951 70.831051 
L 89.853462 70.891706 
L 90.009867 70.982914 
L 91.62316 70.967438 
L 92.147408 71.008559 
L 92.292228 71.127753 
L 93.233557 71.130273 
L 93.527541 71.076853 
L 93.644845 71.058087 
L 93.647741 71.059016 
L 93.989516 71.064708 
L 94.473214 71.163561 
L 94.596311 71.17443 
L 96.622341 71.150657 
L 96.654201 71.214643 
L 96.89605 71.015279 
L 97.331958 71.01599 
L 101.281195 70.915117 
L 101.327537 70.784092 
L 101.395602 70.892917 
L 101.518699 70.907835 
L 102.726496 70.915309 
L 102.824974 70.754893 
L 102.948071 70.530358 
L 102.971242 70.535786 
L 103.362255 70.541471 
L 104.758319 70.344509 
L 106.006666 70.202328 
L 106.08342 70.053204 
L 106.138452 70.063297 
L 107.252116 70.044218 
L 107.49831 69.91587 
L 107.601132 69.90155 
L 107.615614 69.917025 
L 107.622855 69.91598 
L 107.644578 69.803427 
L 107.805328 69.519859 
L 107.809672 69.520923 
L 108.264407 69.521796 
L 108.499015 69.245584 
L 109.181116 69.225953 
L 110.042794 69.072029 
L 110.344019 68.732228 
L 110.735033 68.702357 
L 110.827718 68.542168 
L 110.869715 68.631853 
L 111.01888 68.70478 
L 111.2839 68.68924 
L 112.529351 68.460497 
L 112.814646 67.648189 
L 113.091251 67.382668 
L 113.22883 67.203583 
L 113.238968 67.21483 
L 113.440267 67.269151 
L 114.694407 67.207051 
L 115.070939 66.649757 
L 115.337407 65.685903 
L 115.538707 65.585854 
L 115.689319 65.401075 
L 115.699457 65.407835 
L 115.748695 65.356068 
L 115.725524 65.354855 
L 115.760281 65.316571 
L 115.767522 65.301397 
L 115.821105 65.409665 
L 115.848621 65.405763 
L 116.186051 65.390513 
L 117.131725 65.361496 
L 117.192549 65.28996 
L 117.249029 65.350695 
L 117.421364 65.304488 
L 117.498119 65.03882 
L 117.822515 63.939004 
L 117.878995 63.815425 
L 118.012229 63.601994 
L 118.023815 63.6073 
L 118.086087 63.549389 
L 118.096225 63.519766 
L 118.146912 63.572383 
L 118.22077 63.514735 
L 118.478549 63.408633 
L 119.276506 63.393815 
L 119.737033 63.211304 
L 119.832614 63.174485 
L 119.871716 63.204082 
L 119.88475 63.205644 
L 119.905024 63.142423 
L 119.939781 63.117568 
L 119.994813 62.949602 
L 120.170045 62.232052 
L 120.18163 62.252506 
L 120.193216 62.274674 
L 120.255488 62.126941 
L 120.375689 62.08739 
L 120.387274 62.100023 
L 120.394515 62.09589 
L 120.416238 61.992583 
L 120.532094 61.967271 
L 120.498786 62.019003 
L 120.534991 61.96864 
L 120.601608 61.981666 
L 120.64795 61.923897 
L 120.917315 61.933855 
L 122.191729 61.729115 
L 122.242416 61.579082 
L 122.323515 61.622836 
L 122.437923 61.566935 
L 122.500196 61.312872 
L 122.734804 60.60918 
L 122.749286 60.622416 
L 123.07513 60.037951 
L 123.148989 60.084452 
L 123.865847 60.078336 
L 124.605876 60.026845 
L 124.671045 59.956155 
L 124.733317 60.025852 
L 124.775315 59.921484 
L 125.257565 59.072233 
L 125.448727 58.461436 
L 125.458865 58.477476 
L 125.463209 58.479896 
L 125.493622 58.349143 
L 125.619615 58.123572 
L 125.668854 58.221561 
L 125.748504 58.23071 
L 125.692025 58.166349 
L 125.768779 58.177948 
L 125.896221 58.183218 
L 126.266959 58.143073 
L 127.231459 58.011535 
L 127.364694 57.927617 
L 127.44 58.021904 
L 127.44 58.021904 
" clip-path="url(#p314d4bdaf8)" style="fill: none; stroke: #cc503e; stroke-width: 0.5; stroke-linecap: square"/>
   </g>
   <g id="line2d_9">
    <path d="M 0 70.8 
L 110.084792 70.703418 
L 110.306366 70.662264 
L 111.03481 70.66303 
L 112.591623 70.546431 
L 112.908779 70.39987 
L 114.986943 70.299985 
L 115.679182 70.137032 
L 117.306957 70.093917 
L 117.737072 69.832392 
L 118.084639 69.782294 
L 119.975986 69.540596 
L 120.540783 69.364766 
L 121.903538 69.352738 
L 122.206211 69.246854 
L 122.475576 68.994062 
L 123.302498 68.867943 
L 124.776763 68.653026 
L 125.10116 68.541639 
L 125.886083 68.427892 
L 126.174275 68.418207 
L 127.073606 68.420435 
L 127.376279 68.263428 
L 127.44 68.222469 
L 127.44 68.222469 
" clip-path="url(#p314d4bdaf8)" style="fill: none; stroke: #94346e; stroke-width: 0.5; stroke-linecap: square"/>
   </g>
  </g>
 </g>
 <defs>
  <clipPath id="pd24a97d0cc">
   <rect x="0" y="0" width="127.44" height="28.32"/>
  </clipPath>
  <clipPath id="pe998808ef8">
   <rect x="0" y="28.32" width="127.44" height="28.32"/>
  </clipPath>
  <clipPath id="p314d4bdaf8">
   <rect x="0" y="56.64" width="127.44" height="28.32"/>
  </clipPath>
 </defs>
</svg>
