<?xml version="1.0" encoding="utf-8" standalone="no"?>
<!DOCTYPE svg PUBLIC "-//W3C//DTD SVG 1.1//EN"
  "http://www.w3.org/Graphics/SVG/1.1/DTD/svg11.dtd">
<svg xmlns:xlink="http://www.w3.org/1999/xlink" width="56.692913pt" height="28.346457pt" viewBox="0 0 56.692913 28.346457" xmlns="http://www.w3.org/2000/svg" version="1.1">
 <metadata>
  <rdf:RDF xmlns:dc="http://purl.org/dc/elements/1.1/" xmlns:cc="http://creativecommons.org/ns#" xmlns:rdf="http://www.w3.org/1999/02/22-rdf-syntax-ns#">
   <cc:Work>
    <dc:type rdf:resource="http://purl.org/dc/dcmitype/StillImage"/>
    <dc:date>2024-11-01T11:33:20.536248</dc:date>
    <dc:format>image/svg+xml</dc:format>
    <dc:creator>
     <cc:Agent>
      <dc:title>Matplotlib v3.8.4, https://matplotlib.org/</dc:title>
     </cc:Agent>
    </dc:creator>
   </cc:Work>
  </rdf:RDF>
 </metadata>
 <defs>
  <style type="text/css">*{stroke-linejoin: round; stroke-linecap: butt}</style>
 </defs>
 <g id="figure_1">
  <g id="patch_1">
   <path d="M 0 28.346457 
L 56.692913 28.346457 
L 56.692913 0 
L 0 0 
L 0 28.346457 
z
" style="fill: none"/>
  </g>
  <g id="axes_1">
   <g id="patch_2">
    <path d="M 0 28.346457 
L 56.692913 28.346457 
L 56.692913 0 
L 0 0 
L 0 28.346457 
z
" style="fill: none"/>
   </g>
   <g id="matplotlib.axis_1">
    <g id="xtick_1"/>
    <g id="xtick_2"/>
   </g>
   <g id="matplotlib.axis_2">
    <g id="ytick_1"/>
    <g id="ytick_2"/>
   </g>
   <g id="line2d_1">
    <path d="M 2.576951 27.041334 
L 2.597449 26.330945 
L 2.660702 27.745109 
L 2.687644 26.928408 
L 2.79658 28.021985 
L 2.728641 26.326435 
L 2.798337 27.620838 
L 2.879746 26.226594 
L 2.904344 28.346457 
L 2.909615 26.903555 
L 2.937142 27.946462 
L 2.967012 26.271165 
L 3.020894 27.555699 
L 3.126316 26.338873 
L 3.069505 27.840455 
L 3.132173 26.89487 
L 3.163799 28.144687 
L 3.188398 26.468526 
L 3.243451 27.491455 
L 3.251065 26.015372 
L 3.349459 28.031014 
L 3.355316 26.555652 
L 3.389285 27.979403 
L 3.405684 26.325653 
L 3.466594 26.991333 
L 3.46718 26.990848 
L 3.523405 27.952599 
L 3.53629 26.469615 
L 3.578459 27.252754 
L 3.621799 27.887356 
L 3.664553 26.454574 
L 3.68798 27.182769 
L 3.691494 26.362232 
L 3.755333 27.816826 
L 3.798673 27.319908 
L 3.828543 26.300906 
L 3.813901 27.775293 
L 3.909366 26.898128 
L 3.957978 27.826817 
L 3.98609 26.052572 
L 4.020059 27.306222 
L 4.10674 26.412092 
L 4.086827 27.887678 
L 4.130752 27.536469 
L 4.212161 27.826855 
L 4.200448 26.402248 
L 4.239103 27.086248 
L 4.326369 26.330775 
L 4.292985 27.884699 
L 4.348624 27.301915 
L 4.381422 27.93911 
L 4.368537 26.215142 
L 4.458732 27.102624 
L 4.550683 26.268184 
L 4.544826 28.10734 
L 4.567082 26.833012 
L 4.594023 27.953162 
L 4.636192 26.37386 
L 4.678361 27.692179 
L 4.718772 26.267972 
L 4.78144 27.943016 
L 4.789639 27.107659 
L 4.79901 26.270667 
L 4.791982 28.137545 
L 4.900918 26.822916 
L 4.979399 27.986342 
L 4.91146 26.304883 
L 5.011611 27.312502 
L 5.106491 26.26012 
L 5.109419 27.925581 
L 5.123475 26.700927 
L 5.148659 26.110375 
L 5.152759 27.830032 
L 5.225383 26.630117 
L 5.225969 28.094525 
L 5.264624 26.362916 
L 5.336076 27.048005 
L 5.371802 26.341931 
L 5.445598 27.812441 
L 5.446769 27.010188 
L 5.552191 27.819031 
L 5.460825 26.36164 
L 5.554534 26.972251 
L 5.656442 26.326923 
L 5.563319 27.953679 
L 5.665227 27.019522 
L 5.72848 27.730268 
L 5.689825 26.319135 
L 5.774748 27.020855 
L 5.866114 26.356326 
L 5.803447 28.14858 
L 5.886027 26.899133 
L 5.966851 27.741428 
L 5.932296 26.444372 
L 5.997306 27.555898 
L 6.053531 27.89404 
L 6.068758 26.448386 
L 6.105656 27.487469 
L 6.176523 26.262195 
L 6.195265 27.855623 
L 6.216349 27.155216 
L 6.315914 28.110431 
L 6.310057 26.409013 
L 6.327042 27.313164 
L 6.36394 25.570613 
L 6.332899 27.82408 
L 6.437735 27.230498 
L 6.518558 27.928652 
L 6.499231 26.393176 
L 6.547842 27.223833 
L 6.616367 26.144578 
L 6.560727 27.988275 
L 6.658535 26.973028 
L 6.739359 28.014982 
L 6.720617 26.412599 
L 6.769228 27.403134 
L 6.794998 26.245048 
L 6.838924 28.013557 
L 6.880507 27.115441 
L 6.967187 27.937783 
L 6.983586 26.365035 
L 6.9912 27.339656 
L 7.029855 26.40234 
L 6.992371 27.974645 
L 7.103064 26.818593 
L 7.181545 28.173968 
L 7.163389 26.456417 
L 7.214343 27.127435 
L 7.308051 26.394936 
L 7.283453 27.844178 
L 7.32445 26.65294 
L 7.368376 27.961115 
L 7.434558 26.097189 
L 7.435729 26.960127 
L 7.483755 27.810806 
L 7.520652 26.456864 
L 7.546422 27.314135 
L 7.584491 25.989594 
L 7.597376 27.848767 
L 7.658286 26.642239 
L 7.672928 27.736608 
L 7.742624 26.357891 
L 7.769565 27.618272 
L 7.848632 26.198698 
L 7.815834 27.722307 
L 7.880844 26.760147 
L 7.944097 27.927729 
L 7.925355 26.023896 
L 7.992122 27.190009 
L 8.090516 26.292295 
L 8.030191 27.793393 
L 8.103401 27.002739 
L 8.142056 27.838946 
L 8.130928 26.287761 
L 8.21468 27.752623 
L 8.269733 26.336218 
L 8.296675 28.020614 
L 8.325958 26.732814 
L 8.403854 27.835411 
L 8.334158 26.243726 
L 8.436651 27.442777 
L 8.528603 26.458046 
L 8.472378 27.913834 
L 8.54793 26.995281 
L 8.578971 26.332226 
L 8.626997 27.683721 
L 8.655695 26.963423 
L 8.699621 27.754144 
L 8.762288 26.355781 
L 8.766973 27.260776 
L 8.817342 27.749708 
L 8.878838 25.971991 
L 8.956733 28.02081 
L 8.990702 27.5333 
L 9.025257 26.083013 
L 9.086168 27.938893 
L 9.101981 27.012047 
L 9.176948 27.924654 
L 9.181047 26.384293 
L 9.210331 27.150351 
L 9.250743 26.202814 
L 9.251914 27.770429 
L 9.321024 27.096838 
L 9.41239 27.928243 
L 9.326295 26.335328 
L 9.431131 27.054126 
L 9.50317 26.107785 
L 9.453973 28.030247 
L 9.54241 26.907666 
L 9.579893 28.014808 
L 9.605078 26.387997 
L 9.653103 27.297123 
L 9.727484 26.050947 
L 9.728655 27.908858 
L 9.764967 26.631102 
L 9.81885 26.235368 
L 9.820607 27.866626 
L 9.872732 26.97436 
L 9.963512 28.05107 
L 9.975811 26.307321 
L 9.983425 27.206735 
L 10.030865 26.508575 
L 10.02618 27.95538 
L 10.094118 26.971643 
L 10.126916 27.779219 
L 10.111103 26.155355 
L 10.204225 26.782089 
L 10.220624 26.46184 
L 10.258108 27.780653 
L 10.313747 26.942949 
L 10.369386 28.091953 
L 10.357087 26.338927 
L 10.425026 27.311131 
L 10.469537 26.480211 
L 10.462509 27.89627 
L 10.536304 26.788889 
L 10.618885 28.061394 
L 10.638212 26.308005 
L 10.648169 27.408969 
L 10.689752 26.530206 
L 10.656954 27.83817 
L 10.699708 26.606469 
L 10.700294 28.024016 
L 10.733092 26.358022 
L 10.810987 27.150644 
L 10.873655 26.297488 
L 10.820944 27.936316 
L 10.92168 26.975809 
L 10.930465 26.319337 
L 11.033544 27.768701 
L 11.134867 26.557553 
L 11.145409 26.848967 
L 11.201048 27.926678 
L 11.179964 26.423273 
L 11.256102 27.181589 
L 11.309984 26.301512 
L 11.321112 28.007183 
L 11.366795 27.092797 
L 11.445861 28.127334 
L 11.380265 26.486646 
L 11.478073 27.542038 
L 11.5097 26.240742 
L 11.536055 27.870073 
L 11.589352 26.735731 
L 11.680132 28.066173 
L 11.693603 26.394345 
L 11.700631 27.023738 
L 11.768569 26.252139 
L 11.712344 27.776313 
L 11.811324 27.152296 
L 11.891562 26.356865 
L 11.852321 28.014492 
L 11.920845 26.79909 
L 12.02861 28.101069 
L 12.027439 26.228649 
L 12.032124 27.445168 
L 12.091863 26.085779 
L 12.141646 27.853948 
L 12.142817 27.388095 
L 12.16683 27.910702 
L 12.251167 26.249248 
L 12.252924 27.269946 
L 12.357761 26.396009 
L 12.307978 28.288842 
L 12.363617 26.961444 
L 12.415743 27.85829 
L 12.4134 26.244755 
L 12.47431 26.807097 
L 12.50828 27.931617 
L 12.57739 26.343077 
L 12.585589 27.026954 
L 12.627758 26.125086 
L 12.641228 28.04457 
L 12.695696 26.973165 
L 12.698039 28.106196 
L 12.698625 26.185436 
L 12.806389 26.829207 
L 12.840944 27.75817 
L 12.843287 26.386491 
L 12.917668 27.158307 
L 12.958666 26.391401 
L 13.002591 27.717439 
L 13.028947 26.931385 
L 13.109185 27.680967 
L 13.100399 26.156962 
L 13.13964 27.478209 
L 13.205236 26.312476 
L 13.195279 27.721409 
L 13.250333 26.964582 
L 13.306558 27.98211 
L 13.256775 26.444246 
L 13.361026 27.79142 
L 13.454734 26.051351 
L 13.38621 27.871086 
L 13.472304 27.253549 
L 13.56367 26.376041 
L 13.577141 27.832236 
L 13.582997 27.200564 
L 13.685491 27.735432 
L 13.588854 26.297849 
L 13.69369 27.519429 
L 13.720046 26.349903 
L 13.714775 27.976876 
L 13.804969 27.305033 
L 13.840695 26.279039 
L 13.86588 27.976217 
L 13.915076 26.642369 
L 13.977158 27.939512 
L 14.015227 26.272517 
L 14.026355 27.091639 
L 14.097222 27.907552 
L 14.104836 26.375677 
L 14.125335 26.587454 
L 14.220214 26.188504 
L 14.175117 27.906371 
L 14.228414 27.170737 
L 14.335007 28.14604 
L 14.318608 26.395709 
L 14.339692 27.436327 
L 14.351992 26.364425 
L 14.403531 28.164974 
L 14.4498 27.186663 
L 14.558736 28.011161 
L 14.465613 26.413364 
L 14.560493 27.000002 
L 14.638388 26.270949 
L 14.661815 28.229615 
L 14.664743 27.573559 
L 14.746738 28.163709 
L 14.773094 26.493588 
L 14.776022 27.84235 
L 14.844546 26.27127 
L 14.887886 27.007256 
L 14.897843 27.860575 
L 14.94704 26.362004 
L 14.999165 27.436518 
L 15.017907 26.161224 
L 15.100487 28.032231 
L 15.110444 26.800739 
L 15.14617 27.903603 
L 15.200052 26.403154 
L 15.221722 26.960428 
L 15.243978 27.757846 
L 15.295518 25.805253 
L 15.333001 27.207765 
L 15.3494 26.457333 
L 15.369899 28.053734 
L 15.444865 26.716252 
L 15.460679 27.927033 
L 15.534474 26.409981 
L 15.556144 27.467683 
L 15.615883 26.386419 
L 15.658052 27.963405 
L 15.666837 26.867126 
L 15.722476 28.063534 
L 15.692021 26.001646 
L 15.778116 27.263988 
L 15.823799 26.363169 
L 15.8074 27.933525 
L 15.888809 26.933729 
L 15.940934 27.937668 
L 15.946791 26.479504 
L 15.999502 27.329075 
L 16.108438 26.053599 
L 16.052213 27.98719 
L 16.110195 27.043244 
L 16.181647 27.838073 
L 16.198632 26.162805 
L 16.221473 27.636282 
L 16.289998 26.250826 
L 16.241386 27.823845 
L 16.332752 27.426313 
L 16.363793 28.000175 
L 16.346223 26.411248 
L 16.400691 27.857171 
L 16.401276 26.30954 
L 16.442859 27.890193 
L 16.511384 26.867287 
L 16.544182 27.805484 
L 16.547696 26.360519 
L 16.622077 26.947424 
L 16.626176 27.849891 
L 16.68533 26.334939 
L 16.707586 26.811332 
L 16.763225 26.403869 
L 16.744483 28.060819 
L 16.817693 27.05635 
L 16.818279 27.053234 
L 16.818864 27.318543 
L 16.81945 27.076852 
L 16.920186 26.123312 
L 16.909644 27.792707 
L 16.930143 26.983461 
L 16.950056 27.789884 
L 17.010381 26.408661 
L 17.040836 27.046965 
L 17.068948 26.229683 
L 17.072463 27.831286 
L 17.151529 26.846053 
L 17.159728 27.944425 
L 17.153872 26.370989 
L 17.263393 27.320762 
L 17.266322 26.412982 
L 17.348902 27.951855 
L 17.375258 26.877812 
L 17.405713 27.795362 
L 17.451396 26.412029 
L 17.486536 26.993451 
L 17.593715 25.881029 
L 17.492979 27.960909 
L 17.596644 27.088207 
L 17.609529 27.959457 
L 17.617728 26.437635 
L 17.707337 26.853185 
L 17.734863 26.433907 
L 17.760633 28.000818 
L 17.816858 26.900686 
L 17.862541 28.208743 
L 17.834429 26.206627 
L 17.927551 26.871415 
L 17.928137 26.090571 
L 17.957421 27.843694 
L 18.038244 27.041894 
L 18.047615 26.297387 
L 18.089784 28.154612 
L 18.131953 27.365633 
L 18.188763 27.809466 
L 18.229761 26.490797 
L 18.24206 27.162334 
L 18.317027 27.91526 
L 18.332254 26.208746 
L 18.343968 27.453067 
L 18.404293 26.190213 
L 18.345725 27.923261 
L 18.455246 27.09435 
L 18.543098 26.272827 
L 18.544855 27.763057 
L 18.565939 26.97309 
L 18.637392 27.911645 
L 18.590538 26.169058 
L 18.677218 27.274224 
L 18.779712 26.298653 
L 18.679561 27.835061 
L 18.789083 26.598754 
L 18.811924 27.876466 
L 18.835351 26.206189 
L 18.900947 27.481501 
L 18.941359 26.234405 
L 18.979428 27.72699 
L 19.01164 27.415203 
L 19.086021 26.295222 
L 19.032139 27.764232 
L 19.125847 26.989178 
L 19.201399 27.945598 
L 19.223655 26.30367 
L 19.237126 27.34403 
L 19.296279 26.235961 
L 19.288665 27.818778 
L 19.348404 26.723828 
L 19.352504 27.884153 
L 19.353675 26.40432 
L 19.46144 27.567328 
L 19.545192 26.320995 
L 19.505951 27.800152 
L 19.575061 26.628013 
L 19.627187 27.764274 
L 19.643586 26.134439 
L 19.68634 27.176103 
L 19.776534 27.932977 
L 19.768335 26.266818 
L 19.790005 27.157246 
L 19.81636 26.380881 
L 19.839788 27.912651 
L 19.900698 27.266205 
L 19.996749 26.357901 
L 19.91534 28.047736 
L 20.011977 27.042918 
L 20.026619 27.910718 
L 20.033061 26.324198 
L 20.12267 26.913669 
L 20.233948 27.831757 
L 20.212278 26.431904 
L 20.234534 27.412619 
L 20.240391 26.282686 
L 20.266161 28.317844 
L 20.345227 27.148827 
L 20.395595 27.792595 
L 20.36514 26.090893 
L 20.454749 27.198767 
L 20.562513 26.310436 
L 20.518002 27.885477 
L 20.565442 27.491431 
L 20.643922 26.350621 
L 20.635137 27.707172 
L 20.67672 27.022835 
L 20.756958 27.839064 
L 20.710104 26.245539 
L 20.787413 26.907704 
L 20.808498 26.474189 
L 20.817283 27.964004 
L 20.894007 26.939923 
L 21.004114 27.878923 
L 20.946717 26.051308 
L 21.005285 27.131017 
L 21.034569 26.277588 
L 21.052139 27.87526 
L 21.115393 27.200999 
L 21.170446 27.985004 
L 21.156976 26.517133 
L 21.224329 27.086047 
L 21.240142 26.450303 
L 21.277625 27.856464 
L 21.335607 26.894622 
L 21.434587 27.899308 
L 21.428144 26.281482 
L 21.446886 27.162114 
L 21.533566 26.249425 
L 21.538837 27.964657 
L 21.556993 26.925389 
L 21.611461 27.810494 
L 21.609118 26.066393 
L 21.668272 27.62314 
L 21.739724 26.214422 
L 21.735625 27.821867 
L 21.779551 26.930451 
L 21.872088 27.935891 
L 21.825233 26.150297 
L 21.889658 27.490164 
L 21.923627 26.074353 
L 21.989223 27.846588 
L 22.000351 27.070835 
L 22.108115 27.918045 
L 22.002108 26.236207 
L 22.110458 27.040137 
L 22.173126 26.409104 
L 22.149113 28.068743 
L 22.221151 27.206656 
L 22.261563 27.949678 
L 22.273862 26.474063 
L 22.331259 27.133912 
L 22.421453 26.288514 
L 22.381041 27.983084 
L 22.441952 27.182536 
L 22.482949 27.742769 
L 22.477678 26.486817 
L 22.55323 27.416166 
L 22.592471 26.428294 
L 22.659823 28.207225 
L 22.66568 26.864292 
L 22.711363 28.214869 
L 22.677394 26.476648 
L 22.776959 27.140128 
L 22.875938 26.298986 
L 22.884724 27.881661 
L 22.888238 26.915051 
L 22.974332 27.998476 
L 22.916936 26.142318 
L 22.993074 27.065788 
L 22.993659 26.367027 
L 23.025872 28.017001 
L 23.103767 26.550814 
L 23.10611 27.986042 
L 23.128951 26.374025 
L 23.215631 27.292782 
L 23.250772 26.284868 
L 23.290012 28.022954 
L 23.32691 26.757858 
L 23.369079 27.769863 
L 23.418275 26.113688 
L 23.437017 26.860348 
L 23.437603 26.197013 
L 23.519012 27.762433 
L 23.54771 27.28326 
L 23.623263 25.818702 
L 23.640247 28.12507 
L 23.658989 26.922055 
L 23.669531 26.472302 
L 23.698229 27.813361 
L 23.764996 27.044314 
L 23.775539 27.914304 
L 23.842891 26.349056 
L 23.875104 27.264827 
L 23.960613 26.458558 
L 23.934257 27.869968 
L 23.985797 27.208166 
L 24.080091 26.230426 
L 24.083605 27.882483 
L 24.091804 26.790463 
L 24.176142 27.910421 
L 24.124017 26.362948 
L 24.203083 27.459678 
L 24.280978 26.520685 
L 24.262822 27.932474 
L 24.314362 27.33525 
L 24.419784 28.091097 
L 24.323733 26.28454 
L 24.421541 26.631634 
L 24.422126 26.418659 
L 24.444382 28.114639 
L 24.531648 26.788209 
L 24.600758 28.059175 
L 24.608372 26.319107 
L 24.642927 27.0745 
L 24.66284 28.021154 
L 24.682753 26.424294 
L 24.75362 27.293424 
L 24.832686 26.416084 
L 24.821558 27.991489 
L 24.864313 26.716513 
L 24.867241 27.843908 
L 24.960949 26.132112 
L 24.975591 27.043845 
L 25.008389 27.747337 
L 25.08277 26.368398 
L 25.133724 27.959828 
L 25.186435 26.304968 
L 25.194049 27.505038 
L 25.26843 26.468497 
L 25.250274 28.170852 
L 25.305913 26.714477 
L 25.373852 27.756454 
L 25.412507 26.302697 
L 25.417192 27.198143 
L 25.430077 28.181063 
L 25.452918 26.421554 
L 25.526714 27.418778 
L 25.565954 26.309083 
L 25.582353 28.046188 
L 25.637407 27.478804 
L 25.703002 26.365529 
L 25.65732 28.109699 
L 25.7481 27.069724 
L 25.789097 27.717281 
L 25.801396 26.473419 
L 25.858207 26.936714 
L 25.957772 26.365793 
L 25.886905 28.016731 
L 25.968314 26.390797 
L 25.99467 27.920297 
L 26.057923 26.311772 
L 26.079593 27.092184 
L 26.138746 27.824101 
L 26.139332 26.316131 
L 26.190286 27.27159 
L 26.195557 26.26483 
L 26.296293 27.740317 
L 26.300979 27.362478 
L 26.382388 27.988692 
L 26.373603 26.389775 
L 26.410501 27.13231 
L 26.463212 26.455758 
L 26.478439 27.782115 
L 26.521779 26.964534 
L 26.551063 26.390983 
L 26.619002 28.218529 
L 26.633058 26.875214 
L 26.685769 28.01131 
L 26.638915 26.37648 
L 26.744922 27.239811 
L 26.818718 26.063897 
L 26.747851 27.926628 
L 26.854444 26.984576 
L 26.961037 27.982397 
L 26.95928 26.344402 
L 26.965137 27.58717 
L 26.975679 26.489898 
L 27.038347 27.831113 
L 27.076416 27.053903 
L 27.095743 27.952407 
L 27.12327 26.450984 
L 27.187109 27.017976 
L 27.289016 26.28817 
L 27.217564 27.790275 
L 27.297216 27.354805 
L 27.402052 27.877485 
L 27.335871 26.271058 
L 27.40908 27.645416 
L 27.488732 26.120792 
L 27.465891 27.854139 
L 27.522116 27.039298 
L 27.606453 28.175727 
L 27.591812 26.369433 
L 27.633395 27.188099 
L 27.728274 27.85758 
L 27.719489 26.288928 
L 27.744673 27.705133 
L 27.755216 26.448748 
L 27.758144 28.083547 
L 27.856538 27.051983 
L 27.920376 27.978189 
L 27.918034 26.289258 
L 27.967816 27.568106 
L 28.042783 26.30203 
L 28.046883 27.91566 
L 28.079681 26.776192 
L 28.088466 27.790107 
L 28.168704 26.059571 
L 28.190959 27.193799 
L 28.289939 26.138765 
L 28.275297 27.926383 
L 28.302238 26.784095 
L 28.412345 27.833381 
L 28.327422 26.245027 
L 28.412931 27.540824 
L 28.49844 26.22492 
L 28.445143 27.944926 
L 28.523624 27.281838 
L 28.578678 27.94381 
L 28.531238 26.521621 
L 28.634317 27.356574 
L 28.72334 26.480871 
L 28.728611 27.898592 
L 28.745596 26.554569 
L 28.842818 27.702401 
L 28.749695 26.170228 
L 28.85746 27.632943 
L 28.866831 26.457773 
L 28.933012 28.144498 
L 28.968739 27.374373 
L 28.971081 26.505469 
L 28.972839 27.784023 
L 29.079432 26.881802 
L 29.171383 28.326949 
L 29.147956 26.290636 
L 29.19071 27.144417 
L 29.249278 26.262657 
L 29.266263 27.927043 
L 29.300232 26.820649 
L 29.410339 27.962694 
L 29.352943 26.408191 
L 29.411511 27.918819 
L 29.469493 26.074198 
L 29.523375 26.800407 
L 29.546802 27.983987 
L 29.554416 26.508555 
L 29.634654 27.28003 
L 29.652224 26.255618 
L 29.664523 27.97384 
L 29.747104 26.835515 
L 29.840227 27.999721 
L 29.76936 26.151425 
L 29.858968 27.667821 
L 29.936278 26.425172 
L 29.959119 28.034142 
L 29.970247 26.968364 
L 30.041114 28.136182 
L 30.016515 26.395994 
L 30.078597 27.102177 
L 30.174648 26.128132 
L 30.158835 27.742058 
L 30.18929 27.337093 
L 30.246687 26.185164 
L 30.21096 28.126509 
L 30.300569 27.033811 
L 30.326924 28.104858 
L 30.394863 26.370349 
L 30.410676 27.450904 
L 30.451088 26.466246 
L 30.503799 27.930627 
L 30.521369 27.341366 
L 30.56061 27.895729 
L 30.593993 26.209193 
L 30.629134 27.761551 
L 30.699415 26.327442 
L 30.721085 27.904944 
L 30.740412 27.197402 
L 30.839978 27.923077 
L 30.791952 26.312552 
L 30.84642 26.993597 
L 30.860476 26.229072 
L 30.856377 27.927257 
L 30.955942 26.401508 
L 30.981711 28.005069 
L 30.960627 26.279006 
L 31.06722 27.234694 
L 31.156829 27.920334 
L 31.168543 26.271732 
L 31.177328 27.086861 
L 31.218911 26.419281 
L 31.277478 27.939379 
L 31.287435 27.330795 
L 31.313205 28.044232 
L 31.374701 26.286498 
L 31.396957 27.232289 
L 31.400471 26.305974 
L 31.423898 27.984494 
L 31.508235 26.641089 
L 31.597258 27.963381 
L 31.565632 26.40821 
L 31.619514 27.190576 
L 31.668711 26.265661 
L 31.659926 27.771083 
L 31.730793 26.918061 
L 31.822744 26.42444 
L 31.75012 27.924488 
L 31.830358 26.935637 
L 31.852028 27.822191 
L 31.922309 26.216537 
L 31.941051 26.702281 
L 32.044716 27.752141 
L 31.951593 26.406125 
L 32.051744 27.093799 
L 32.099769 26.184726 
L 32.078099 27.881692 
L 32.162437 27.131741 
L 32.21749 26.224058 
L 32.201092 27.937147 
L 32.27313 27.201374 
L 32.288357 27.84396 
L 32.360396 26.395529 
L 32.383823 27.317539 
L 32.432434 26.453302 
L 32.393194 27.867341 
L 32.495687 27.028931 
L 32.507986 27.908852 
L 32.506229 26.413349 
L 32.60638 27.366436 
L 32.649135 26.47052 
L 32.676661 27.790992 
L 32.717073 26.860478 
L 32.818981 27.907316 
L 32.814881 26.210539 
L 32.827766 27.27199 
L 32.858221 26.174169 
L 32.893362 27.776943 
L 32.939045 26.769133 
L 32.941388 27.767139 
L 32.99527 26.428261 
L 33.049738 27.115646 
L 33.076093 26.318326 
L 33.08195 27.967275 
L 33.160431 26.747134 
L 33.252968 27.782 
L 33.203771 26.152075 
L 33.27171 27.013486 
L 33.292794 28.21326 
L 33.315635 26.30348 
L 33.382403 27.210993 
L 33.404073 26.427019 
L 33.485482 27.853309 
L 33.493681 26.89907 
L 33.549321 27.791459 
L 33.592661 26.496887 
L 33.604374 27.458435 
L 33.668213 26.303903 
L 33.626044 27.998538 
L 33.715653 26.884078 
L 33.762507 27.860477 
L 33.790034 26.267668 
L 33.826932 27.248124 
L 33.836302 26.326117 
L 33.863829 27.848357 
L 33.937625 27.074481 
L 34.046561 27.913574 
L 33.945238 26.346614 
L 34.048318 27.59877 
L 34.136755 26.451544 
L 34.131484 27.798587 
L 34.159596 26.920169 
L 34.208207 27.846633 
L 34.214064 26.477243 
L 34.270289 27.28627 
L 34.325343 26.441536 
L 34.307773 27.994081 
L 34.381568 27.133828 
L 34.470005 27.993018 
L 34.475862 26.448931 
L 34.49109 26.982287 
L 34.5438 26.35255 
L 34.533258 27.984523 
L 34.600026 27.203064 
L 34.628724 27.979281 
L 34.671478 26.216702 
L 34.710719 27.639634 
L 34.758158 26.291804 
L 34.780414 27.831921 
L 34.821997 27.152308 
L 34.842496 28.144028 
L 34.865337 26.540757 
L 34.93269 27.413738 
L 35.025813 26.338018 
L 35.014099 27.811608 
L 35.043969 27.161323 
L 35.076767 27.982237 
L 35.089652 26.302782 
L 35.152905 27.375706 
L 35.224943 26.525901 
L 35.219086 27.846721 
L 35.264184 26.90423 
L 35.281168 27.893994 
L 35.302838 26.280101 
L 35.375462 27.671391 
L 35.463314 26.319486 
L 35.39069 27.956716 
L 35.486155 27.30709 
L 35.547651 27.880284 
L 35.544137 26.294044 
L 35.59392 26.841572 
L 35.594505 26.38628 
L 35.61969 27.872651 
L 35.704027 26.716629 
L 35.74971 27.899937 
L 35.804764 26.448477 
L 35.815306 27.143273 
L 35.845175 26.331173 
L 35.917214 28.132159 
L 35.925413 26.855853 
L 35.983981 27.836657 
L 35.967582 26.324276 
L 36.036692 27.142763 
L 36.132743 26.248937 
L 36.070075 27.945537 
L 36.147385 26.660097 
L 36.178426 28.076575 
L 36.17374 26.232144 
L 36.258663 26.842229 
L 36.365257 27.940852 
L 36.332459 26.449742 
L 36.371114 27.283006 
L 36.461308 26.443028 
L 36.434367 27.931082 
L 36.482392 27.011906 
L 36.534517 27.891329 
L 36.51109 26.40959 
L 36.593085 27.478859 
L 36.621198 26.3436 
L 36.62354 27.861634 
L 36.704364 27.174061 
L 36.749461 27.787468 
L 36.808029 26.522256 
L 36.810371 27.14124 
L 36.875382 26.343293 
L 36.902908 27.99057 
L 36.921064 27.377306 
L 36.952105 26.448064 
L 37.024729 27.978989 
L 37.03 26.68426 
L 37.071583 27.822575 
L 37.095011 26.267975 
L 37.141279 27.180099 
L 37.203947 27.923721 
L 37.220346 26.226491 
L 37.250215 27.088947 
L 37.253729 26.23062 
L 37.292384 27.865961 
L 37.361494 26.761914 
L 37.424161 28.142131 
L 37.464573 26.532812 
L 37.471015 27.555504 
L 37.471601 26.317615 
L 37.563552 27.793365 
L 37.582294 26.824104 
L 37.595179 27.966945 
L 37.625048 26.215114 
L 37.693573 27.122602 
L 37.702358 26.167114 
L 37.728713 27.88672 
L 37.803094 27.090922 
L 37.893289 28.018349 
L 37.889775 26.13883 
L 37.914373 27.439194 
L 37.942486 26.326968 
L 38.003982 27.91527 
L 38.027409 27.054657 
L 38.13693 27.746542 
L 38.074849 26.143022 
L 38.138102 26.957014 
L 38.141616 26.318813 
L 38.170314 28.009464 
L 38.244695 27.206996 
L 38.273393 27.742713 
L 38.262851 26.327084 
L 38.355388 27.507715 
L 38.418055 26.166832 
L 38.360659 27.848246 
L 38.467252 26.714119 
L 38.507664 27.875403 
L 38.490679 26.345827 
L 38.577945 26.986747 
L 38.615429 26.293251 
L 38.674582 27.761431 
L 38.688638 27.193971 
L 38.736664 26.495815 
L 38.781761 28.10129 
L 38.799917 26.629339 
L 38.856142 27.884052 
L 38.899482 26.273649 
L 38.911196 27.213805 
L 38.938137 28.104685 
L 38.921152 26.262259 
L 39.017789 27.075219 
L 39.034188 26.42315 
L 39.061129 27.819858 
L 39.128482 26.889832 
L 39.235661 28.128231 
L 39.212234 26.405268 
L 39.239761 27.281962 
L 39.266116 25.733745 
L 39.244446 28.020244 
L 39.350454 27.232232 
L 39.432448 28.042846 
L 39.353382 26.466379 
L 39.460561 27.317887 
L 39.514443 26.057681 
L 39.53787 27.916994 
L 39.571254 26.796707 
L 39.57184 28.170959 
L 39.622794 26.112016 
L 39.682533 27.226878 
L 39.739929 26.317226 
L 39.707717 27.972124 
L 39.792054 27.193638 
L 39.795568 28.083077 
L 39.820167 26.313934 
L 39.903333 27.557534 
L 39.981814 26.409392 
L 39.9742 27.889912 
L 40.014612 26.669724 
L 40.098949 27.870821 
L 40.033939 26.335362 
L 40.12589 27.615971 
L 40.237169 26.386177 
L 40.163959 27.962937 
L 40.237755 27.093708 
L 40.298665 27.969789 
L 40.306865 26.122357 
L 40.347862 27.471252 
L 40.404087 26.26535 
L 40.349033 28.112469 
L 40.459141 27.264986 
L 40.500138 26.371383 
L 40.520637 27.921526 
L 40.569834 27.153832 
L 40.573348 28.097208 
L 40.648314 26.427901 
L 40.679941 27.459897 
L 40.692826 26.406812 
L 40.75725 27.717477 
L 40.79122 26.576173 
L 40.829874 27.918588 
L 40.89547 26.197213 
L 40.902498 27.662778 
L 40.965752 26.393942 
L 40.912455 27.918271 
L 41.014363 26.871259 
L 41.047746 27.928394 
L 41.096943 26.215559 
L 41.125056 26.605573 
L 41.187723 28.048625 
L 41.147311 26.261412 
L 41.23692 27.255165 
L 41.314229 26.358403 
L 41.341171 27.90357 
L 41.347027 26.944787 
L 41.450692 28.096819 
L 41.417894 26.450083 
L 41.45772 26.99866 
L 41.492861 25.918234 
L 41.531516 27.724226 
L 41.563142 26.858029 
L 41.581884 27.936113 
L 41.646308 26.218705 
L 41.674421 27.124282 
L 41.760516 27.918007 
L 41.700776 26.180885 
L 41.7857 27.316024 
L 41.790385 27.877982 
L 41.887608 26.183868 
L 41.89405 27.087334 
L 41.998301 26.184892 
L 41.97663 27.954196 
L 42.005329 26.956846 
L 42.069167 27.982386 
L 42.014114 26.386525 
L 42.116607 27.10025 
L 42.203873 27.724474 
L 42.191574 26.476425 
L 42.227886 27.670093 
L 42.324523 26.293537 
L 42.301681 27.91103 
L 42.339165 27.071094 
L 42.407103 26.333829 
L 42.405932 27.789737 
L 42.447515 26.715903 
L 42.454543 27.95634 
L 42.489684 26.446725 
L 42.558794 27.465602 
L 42.585735 26.302094 
L 42.635517 27.906765 
L 42.669487 27.152704 
L 42.710484 28.142307 
L 42.762609 26.309558 
L 42.780765 27.349153 
L 42.796579 26.301725 
L 42.877402 28.130229 
L 42.892044 27.152662 
L 42.988095 26.382041 
L 42.9143 27.950886 
L 43.002737 27.385375 
L 43.013279 26.126507 
L 43.081218 27.943677 
L 43.114016 27.018554 
L 43.180197 26.520631 
L 43.128658 27.928993 
L 43.210067 27.106866 
L 43.27742 27.801702 
L 43.244036 26.098211 
L 43.321345 27.551456 
L 43.398655 26.084157 
L 43.42911 27.852786 
L 43.433795 26.916985 
L 43.440238 27.827178 
L 43.473621 26.424153 
L 43.545074 27.267441 
L 43.621798 26.279773 
L 43.561473 27.869554 
L 43.655767 27.348528 
L 43.711992 27.750417 
L 43.682123 26.25805 
L 43.761775 27.102199 
L 43.844355 26.290093 
L 43.762946 27.89201 
L 43.871882 26.443758 
L 43.967347 27.940765 
L 43.940406 26.238601 
L 43.982575 27.131349 
L 44.047 26.18854 
L 44.037629 27.986745 
L 44.093268 26.664593 
L 44.138365 27.966556 
L 44.195176 26.418318 
L 44.204547 26.937316 
L 44.207475 27.836753 
L 44.304112 25.911008 
L 44.31524 27.463757 
L 44.402506 26.399053 
L 44.322854 27.92093 
L 44.425933 27.301833 
L 44.456388 26.345188 
L 44.477472 27.927083 
L 44.525498 27.372156 
L 44.526084 27.893182 
L 44.582894 26.141985 
L 44.635605 26.855987 
L 44.645562 27.860371 
L 44.681288 26.369013 
L 44.745712 27.155485 
L 44.824779 26.299877 
L 44.849377 28.023255 
L 44.856405 27.265577 
L 44.934886 28.084516 
L 44.936643 26.387319 
L 44.962413 27.229223 
L 44.98174 26.448788 
L 45.017467 28.037429 
L 45.073106 27.172769 
L 45.115861 27.929409 
L 45.08072 26.375314 
L 45.183213 27.22397 
L 45.183799 26.415868 
L 45.237681 27.870359 
L 45.294492 26.899536 
L 45.395814 27.93503 
L 45.37063 26.119119 
L 45.405771 27.58307 
L 45.486594 26.486649 
L 45.44384 27.894803 
L 45.517049 27.418504 
L 45.558633 27.87958 
L 45.598459 26.39682 
L 45.624228 27.068723 
L 45.649412 26.401951 
L 45.688067 27.917943 
L 45.734921 26.832696 
L 45.77299 28.000229 
L 45.801689 26.377111 
L 45.8462 27.434216 
L 45.8503 26.359894 
L 45.870798 27.960163 
L 45.956893 26.739378 
L 45.990862 27.765307 
L 46.010775 26.242934 
L 46.068172 27.500822 
L 46.0711 26.269812 
L 46.112098 28.335001 
L 46.17945 27.16472 
L 46.182379 26.551743 
L 46.25676 27.903892 
L 46.290143 27.265294 
L 46.385609 26.44216 
L 46.31767 27.912469 
L 46.400251 26.856047 
L 46.474046 27.747621 
L 46.487517 26.238319 
L 46.511529 27.419793 
L 46.517386 26.026301 
L 46.602895 27.969503 
L 46.623394 27.246141 
L 46.68489 27.963765 
L 46.729401 26.068919 
L 46.732915 27.004801 
L 46.744629 26.564699 
L 46.741115 27.86421 
L 46.843608 26.705848 
L 46.854736 27.910273 
L 46.952544 26.34901 
L 46.955473 27.313903 
L 46.970115 26.280732 
L 46.987685 28.067067 
L 47.06558 27.630714 
L 47.156946 26.287856 
L 47.072023 27.956999 
L 47.180373 26.800425 
L 47.220785 27.867764 
L 47.278767 26.213648 
L 47.291066 27.140708 
L 47.380674 26.336362 
L 47.302194 27.904335 
L 47.401173 27.407259 
L 47.401759 27.98397 
L 47.470283 26.352915 
L 47.511866 27.474382 
L 47.535879 26.475959 
L 47.517723 27.868689 
L 47.622559 27.22466 
L 47.669413 27.821919 
L 47.626659 26.412802 
L 47.732081 26.843395 
L 47.763707 28.292686 
L 47.819347 26.3658 
L 47.845702 27.263337 
L 47.892556 26.24119 
L 47.849802 27.745752 
L 47.957567 26.90591 
L 48.017306 28.116764 
L 48.044247 26.488385 
L 48.068845 27.751927 
L 48.072945 26.23663 
L 48.12917 27.835091 
L 48.180124 26.573187 
L 48.198866 28.075141 
L 48.280275 26.395889 
L 48.291403 27.362492 
L 48.3324 26.3549 
L 48.332986 27.77322 
L 48.363441 26.892064 
L 48.368712 28.188406 
L 48.452464 26.334023 
L 48.474134 26.719128 
L 48.478819 28.046656 
L 48.563157 26.380746 
L 48.585413 27.428875 
L 48.590684 26.303647 
L 48.692591 27.969957 
L 48.696106 27.435863 
L 48.76873 26.32564 
L 48.717776 27.896179 
L 48.804456 26.813177 
L 48.839011 27.952952 
L 48.857752 26.33986 
L 48.915734 27.284373 
L 48.916906 27.895565 
L 48.948532 26.257149 
L 49.014128 27.520494 
L 49.109008 26.295931 
L 49.07211 28.225878 
L 49.125407 27.129559 
L 49.169918 26.233799 
L 49.152934 27.870427 
L 49.234343 26.895181 
L 49.312238 27.894745 
L 49.282954 26.457983 
L 49.345622 27.183288 
L 49.425274 26.351826 
L 49.426445 27.817118 
L 49.4569 26.724803 
L 49.469785 27.808104 
L 49.501412 26.415827 
L 49.568179 27.141037 
L 49.584578 26.194355 
L 49.649002 28.057093 
L 49.677701 26.719549 
L 49.787222 27.766566 
L 49.701128 25.997325 
L 49.788979 27.028523 
L 49.889716 27.930982 
L 49.808892 26.325799 
L 49.89733 27.372598 
L 49.899087 26.319008 
L 49.941841 28.099034 
L 50.008608 26.888973 
L 50.077718 26.301717 
L 50.07889 27.801249 
L 50.109345 27.246128 
L 50.159127 28.070019 
L 50.1439 26.360355 
L 50.220038 27.070645 
L 50.270992 27.803167 
L 50.28212 26.534495 
L 50.327217 27.074413 
L 50.432639 26.333353 
L 50.351815 27.769234 
L 50.43791 27.172852 
L 50.50292 27.924202 
L 50.49882 26.188233 
L 50.548017 27.526217 
L 50.61947 26.368179 
L 50.638797 27.765372 
L 50.659296 27.149904 
L 50.675109 26.225461 
L 50.681551 27.877368 
L 50.768232 27.591157 
L 50.768817 28.208506 
L 50.851983 26.158388 
L 50.878339 27.079454 
L 50.979075 26.371022 
L 50.87951 27.920478 
L 50.984347 27.257595 
L 50.984932 27.999327 
L 51.011288 26.319761 
L 51.09504 27.060534 
L 51.180548 27.914589 
L 51.126666 26.49055 
L 51.201047 26.873588 
L 51.280699 26.272427 
L 51.206318 27.963055 
L 51.311154 26.928065 
L 51.354495 27.905382 
L 51.408963 26.257977 
L 51.421847 26.725035 
L 51.457574 27.869098 
L 51.531369 26.179664 
L 51.533712 27.126105 
L 51.643819 27.891534 
L 51.551282 26.344407 
L 51.64499 27.28594 
L 51.646162 26.44921 
L 51.65319 27.82161 
L 51.756269 26.946903 
L 51.864034 28.021094 
L 51.831822 26.408825 
L 51.865205 27.091817 
L 51.969456 26.232699 
L 51.971213 27.921729 
L 51.976484 26.854761 
L 52.05145 27.994182 
L 51.988783 26.492181 
L 52.087177 26.675398 
L 52.107675 27.927525 
L 52.182642 26.081564 
L 52.198455 27.279128 
L 52.232425 26.441029 
L 52.304463 27.800534 
L 52.309734 27.057157 
L 52.405785 27.900004 
L 52.317934 26.290581 
L 52.420427 27.082575 
L 52.51765 26.057021 
L 52.496565 27.945582 
L 52.524678 27.479804 
L 52.525263 27.79985 
L 52.544591 26.196072 
L 52.634785 27.186396 
L 52.703309 26.367761 
L 52.667583 27.994526 
L 52.741964 27.337303 
L 52.813417 27.844567 
L 52.75192 26.331966 
L 52.852071 27.34872 
L 52.905368 26.377909 
L 52.941094 28.1087 
L 52.962764 27.079297 
L 52.993805 28.003437 
L 53.018404 26.415427 
L 53.073457 26.796093 
L 53.173022 27.956674 
L 53.114455 26.301746 
L 53.184736 27.183932 
L 53.194107 26.2308 
L 53.226319 27.892068 
L 53.274345 27.200633 
L 53.314756 28.191272 
L 53.336426 26.405344 
L 53.384452 27.088029 
L 53.463518 26.172041 
L 53.46469 27.875033 
L 53.495731 26.987536 
L 53.568355 27.912515 
L 53.575968 26.455986 
L 53.606424 27.420475 
L 53.640393 26.514057 
L 53.704232 27.956723 
L 53.717117 27.363125 
L 53.729416 28.125036 
L 53.772756 26.307502 
L 53.823124 27.06546 
L 53.848308 26.43007 
L 53.890477 28.156334 
L 53.934403 26.981564 
L 53.987699 26.468338 
L 53.961344 28.059837 
L 54.043339 27.121129 
L 54.083751 27.825832 
L 54.100149 26.525574 
L 54.115963 27.257133 
" clip-path="url(#pb4050520b2)" style="fill: none; stroke: #ff7f0e; stroke-width: 0.05; stroke-linecap: square"/>
   </g>
  </g>
 </g>
 <defs>
  <clipPath id="pb4050520b2">
   <rect x="0" y="0" width="56.692913" height="28.346457"/>
  </clipPath>
 </defs>
</svg>
