<?xml version="1.0" encoding="utf-8" standalone="no"?>
<!DOCTYPE svg PUBLIC "-//W3C//DTD SVG 1.1//EN"
  "http://www.w3.org/Graphics/SVG/1.1/DTD/svg11.dtd">
<svg xmlns:xlink="http://www.w3.org/1999/xlink" width="99.212598pt" height="51.023622pt" viewBox="0 0 99.212598 51.023622" xmlns="http://www.w3.org/2000/svg" version="1.1">
 <metadata>
  <rdf:RDF xmlns:dc="http://purl.org/dc/elements/1.1/" xmlns:cc="http://creativecommons.org/ns#" xmlns:rdf="http://www.w3.org/1999/02/22-rdf-syntax-ns#">
   <cc:Work>
    <dc:type rdf:resource="http://purl.org/dc/dcmitype/StillImage"/>
    <dc:date>2024-10-31T23:12:52.198750</dc:date>
    <dc:format>image/svg+xml</dc:format>
    <dc:creator>
     <cc:Agent>
      <dc:title>Matplotlib v3.8.4, https://matplotlib.org/</dc:title>
     </cc:Agent>
    </dc:creator>
   </cc:Work>
  </rdf:RDF>
 </metadata>
 <defs>
  <style type="text/css">*{stroke-linejoin: round; stroke-linecap: butt}</style>
 </defs>
 <g id="figure_1">
  <g id="patch_1">
   <path d="M 0 51.023622 
L 99.212598 51.023622 
L 99.212598 0 
L 0 0 
L 0 51.023622 
z
" style="fill: none"/>
  </g>
  <g id="axes_1">
   <g id="patch_2">
    <path d="M 0 51.023622 
L 99.212598 51.023622 
L 99.212598 -0 
L 0 -0 
L 0 51.023622 
z
" style="fill: none"/>
   </g>
   <g id="matplotlib.axis_1">
    <g id="xtick_1"/>
    <g id="xtick_2"/>
   </g>
   <g id="matplotlib.axis_2">
    <g id="ytick_1"/>
    <g id="ytick_2"/>
   </g>
   <g id="line2d_1">
    <path d="M 4.509664 1.552 
L 4.527087 -0 
L 4.545536 3.556034 
L 4.757698 42.896246 
L 4.847892 45.180565 
L 4.79972 39.729272 
L 4.88274 43.699954 
L 4.916563 41.31455 
L 4.984209 44.337195 
L 5.103101 48.729701 
L 5.12155 47.651885 
L 5.185096 46.583818 
L 5.220969 48.321693 
L 5.292714 46.335419 
L 5.342936 49.697059 
L 5.35831 50.025774 
L 5.396232 48.264259 
L 5.412631 47.574738 
L 5.477202 49.962556 
L 5.483352 50.103916 
L 5.527424 47.622979 
L 5.552023 47.110733 
L 5.59097 48.956848 
L 5.605319 50.969705 
L 5.694489 48.021218 
L 5.705763 47.714766 
L 5.751885 49.428779 
L 5.785708 49.062571 
L 5.809281 48.330045 
L 5.836955 49.80777 
L 5.867703 49.467819 
L 5.9046 50.767466 
L 5.960972 48.136639 
L 5.975321 47.978607 
L 6.014268 49.261794 
L 6.032717 50.828358 
L 6.134186 50.208608 
L 6.177233 48.13694 
L 6.261278 49.077742 
L 6.39042 50.838256 
L 6.298175 48.087341 
L 6.395544 50.66297 
L 6.46729 49.067445 
L 6.501113 50.818334 
L 6.503162 50.809955 
L 6.504187 50.808651 
L 6.510337 50.96039 
L 6.511362 51.011105 
L 6.588232 49.32583 
L 6.600531 48.339727 
L 6.62923 50.384175 
L 6.700975 49.073455 
L 6.729673 48.503163 
L 6.749147 49.335286 
L 6.819867 50.843148 
L 6.78502 49.124386 
L 6.85779 49.216529 
L 6.858815 49.210093 
L 6.868039 49.758514 
L 6.927486 50.826237 
L 6.982832 50.167916 
L 7.002306 50.96531 
L 7.072002 49.802815 
L 7.152971 48.506031 
L 7.124273 50.699903 
L 7.17962 49.967154 
L 7.25854 49.127337 
L 7.288263 49.988553 
L 7.403056 50.827369 
L 7.308762 49.736457 
L 7.415355 50.452868 
L 7.429704 49.251664 
L 7.4953 50.743695 
L 7.532197 49.926731 
L 7.561921 50.951473 
L 7.626491 49.635673 
L 7.630591 49.514114 
L 7.711561 50.84402 
L 7.713611 50.817089 
L 7.745384 49.450253 
L 7.847877 50.094556 
L 7.930897 50.700546 
L 7.945246 49.834528 
L 8.033391 49.71044 
L 7.96677 50.806521 
L 8.04774 50.152858 
L 8.061064 50.905332 
L 8.165607 50.513641 
L 8.175857 50.591647 
L 8.213779 49.978052 
L 8.218904 49.791933 
L 8.287575 50.98481 
L 8.316273 50.427034 
L 8.334722 50.887186 
L 8.399293 49.763907 
L 8.406467 49.659034 
L 8.476163 50.439687 
L 8.496661 50.114472 
L 8.498711 50.107852 
L 8.51306 50.635972 
L 8.585831 50.932978 
L 8.555083 50.197051 
L 8.617604 50.314952 
L 8.734446 50.992256 
L 8.659626 49.983118 
L 8.743671 50.695993 
L 8.847189 50.181765 
L 8.855389 50.573732 
L 8.948658 50.791559 
L 8.886137 50.080458 
L 8.961982 50.292625 
L 9.022453 50.933561 
L 9.045002 50.219244 
L 9.062426 49.650241 
L 9.108548 50.477626 
L 9.15467 50.278469 
L 9.167994 50.809769 
L 9.255113 50.186439 
L 9.268438 50.461682 
L 9.380156 50.268999 
L 9.350432 50.945649 
L 9.382205 50.277364 
L 9.400654 50.99334 
L 9.506223 50.432452 
L 9.562594 50.144816 
L 9.521597 51.013057 
L 9.617941 50.376217 
L 9.690711 51.013241 
L 9.672262 50.148746 
L 9.730683 50.454065 
L 9.756307 49.613796 
L 9.833177 50.657708 
L 9.93772 51.00708 
L 9.910047 50.289351 
L 9.942845 50.638417 
L 9.962319 50.190195 
L 9.952069 50.885007 
L 10.058663 50.494193 
L 10.17243 50.875416 
L 10.183705 50.54574 
L 10.254425 50.243317 
L 10.213428 50.94761 
L 10.290298 50.581814 
L 10.309772 50.968584 
L 10.323096 50.066315 
L 10.397916 50.39346 
L 10.485036 50.049857 
L 10.446088 50.930754 
L 10.509634 50.374405 
L 10.595729 50.966799 
L 10.614178 50.258564 
L 10.625452 50.522217 
L 10.707447 50.997314 
L 10.667474 50.338933 
L 10.719746 50.359323 
L 10.797641 50.203262 
L 10.750494 50.905624 
L 10.829414 50.388945 
L 10.89501 50.167737 
L 10.914484 50.604397 
L 11.028251 51.012079 
L 10.992379 50.393153 
L 11.030301 50.905801 
L 11.080523 51.009698 
L 11.150219 50.291149 
L 11.164568 50.041064 
L 11.195316 51.000195 
L 11.258862 50.338105 
L 11.334707 50.984762 
L 11.317283 50.224107 
L 11.394153 50.625817 
L 11.504846 50.133676 
L 11.461799 50.905939 
L 11.510996 50.290672 
L 11.52432 50.962485 
L 11.606315 50.063763 
L 11.617589 50.069168 
L 11.625789 50.059495 
L 11.637063 50.216336 
L 11.750831 50.989769 
L 11.764155 50.737716 
L 11.83795 50.232022 
L 11.815402 50.850427 
L 11.883047 50.665902 
L 11.965042 50.924785 
L 11.935319 50.272872 
L 12.00194 50.871168 
L 12.030638 50.893133 
L 12.042937 50.500929 
L 12.054211 50.356815 
L 12.133131 50.939108 
L 12.134156 50.959849 
L 12.194628 50.489481 
L 12.225376 50.604695 
L 12.301221 50.210455 
L 12.254074 51.003072 
L 12.340168 50.422097 
L 12.407814 50.02322 
L 12.429338 50.717796 
L 12.451886 50.352872 
L 12.531831 50.996213 
L 12.571804 50.549966 
L 12.648674 50.422695 
L 12.6251 50.998899 
L 12.679422 50.640596 
L 12.697871 50.353312 
L 12.71427 50.994811 
L 12.746043 50.841296 
L 12.763467 51.005147 
L 12.840337 50.546803 
L 12.845461 50.453679 
L 12.894658 50.94574 
L 12.945905 50.70677 
L 12.995102 50.97392 
L 12.985878 50.385796 
L 13.050448 50.448225 
L 13.128344 50.15197 
L 13.103745 50.928478 
L 13.164216 50.320414 
L 13.239037 50.880944 
L 13.274909 50.309182 
L 13.280034 50.247336 
L 13.332306 51.002409 
L 13.363054 50.720196 
L 13.408151 50.996082 
L 13.377403 50.380674 
L 13.465547 50.680183 
L 13.516794 50.44287 
L 13.541392 50.981668 
L 13.567016 50.874373 
L 13.58034 51.016835 
L 13.626462 50.411525 
L 13.660285 50.610537 
L 13.683858 50.463255 
L 13.700257 50.874765 
L 13.747404 51.011859 
L 13.782252 50.430864 
L 13.799676 50.635201 
L 13.824275 50.998788 
L 13.816075 50.495826 
L 13.906269 50.594335 
L 13.913444 50.493644 
L 13.940092 50.931496 
L 14.010813 50.700874 
L 14.124581 50.952187 
L 14.036436 50.48105 
L 14.129705 50.803798 
L 14.149179 50.460479 
L 14.165578 50.982528 
L 14.243473 50.703383 
L 14.251672 50.996012 
L 14.327518 50.528807 
L 14.355191 50.715436 
L 14.482283 50.185635 
L 14.402338 51.005953 
L 14.490482 50.363922 
L 14.568377 50.999259 
L 14.6145 50.850544 
L 14.725193 50.986527 
L 14.642173 50.249309 
L 14.727242 50.932707 
L 14.781564 50.503829 
L 14.791813 50.971025 
L 14.837935 50.934172 
L 14.934279 50.999131 
L 14.883033 50.442242 
L 14.940429 50.839463 
L 15.008075 50.42158 
L 15.018324 50.990702 
L 15.047022 50.925757 
L 15.051122 51.01098 
L 15.080845 50.45067 
L 15.15464 50.867867 
L 15.300181 50.36717 
L 15.193588 50.971835 
L 15.302231 50.369458 
L 15.434448 50.82933 
L 15.347328 50.200733 
L 15.446747 50.510765 
L 15.450847 50.449163 
L 15.521567 50.881138 
L 15.546166 50.800172 
L 15.572814 51.022558 
L 15.588188 50.513146 
L 15.653784 50.735775 
L 15.658909 50.621007 
L 15.681457 51.012285 
L 15.757302 50.945113 
L 15.758327 50.947005 
L 15.779851 50.766621 
L 15.823923 50.561853 
L 15.867995 50.998197 
L 15.892594 50.719244 
L 16.000212 50.98915 
L 15.965364 50.54707 
L 16.005337 50.771704 
L 16.038135 50.527152 
L 16.02481 50.951473 
L 16.11193 50.897733 
L 16.11398 50.919575 
L 16.172401 50.26537 
L 16.189825 50.344724 
L 16.250296 50.182342 
L 16.228772 50.685192 
L 16.26977 50.636779 
L 16.311792 50.346402 
L 16.388662 50.934942 
L 16.481931 50.523665 
L 16.509605 50.82155 
L 16.513704 50.944975 
L 16.561876 50.577415 
L 16.618248 50.735495 
L 16.730991 50.666245 
L 16.657195 51.002526 
L 16.734066 50.677791 
L 16.753539 50.97457 
L 16.811961 50.665876 
L 16.851933 50.721481 
L 16.942127 50.604419 
L 16.865257 50.999145 
L 16.949302 50.81028 
L 16.965701 50.960735 
L 17.007723 50.574657 
L 17.057945 50.725666 
L 17.174788 50.277102 
L 17.177862 50.294693 
L 17.304954 50.906753 
L 17.332628 50.859744 
L 17.357226 50.483248 
L 17.419747 50.957075 
L 17.441271 50.873452 
L 17.518141 50.958814 
L 17.456645 50.618537 
L 17.546839 50.689918 
L 17.578612 50.86355 
L 17.647283 50.932241 
L 17.634984 50.702562 
L 17.69033 50.88289 
L 17.737477 50.469982 
L 17.793848 50.975773 
L 17.888143 50.991089 
L 17.820497 50.585662 
L 17.892242 50.828743 
L 17.960913 50.643811 
L 17.924015 50.975201 
L 18.002935 50.833033 
L 18.004985 50.850539 
L 18.043933 50.339745 
L 18.08698 50.497407 
L 18.127977 50.387826 
L 18.138227 50.663816 
L 18.249945 50.884659 
L 18.158725 50.468315 
L 18.253019 50.861403 
L 18.298117 50.405367 
L 18.270443 50.959912 
L 18.355513 50.933589 
L 18.358588 51.000267 
L 18.374987 50.477338 
L 18.461081 50.804236 
L 18.463131 50.785278 
L 18.48158 51.021191 
L 18.557425 50.979756 
L 18.559475 50.996339 
L 18.64352 50.676447 
L 18.652744 50.812156 
L 18.698866 51.006548 
L 18.688617 50.502724 
L 18.763437 50.809325 
L 18.847482 50.973218 
L 18.833133 50.470007 
L 18.873105 50.800366 
L 18.888479 50.60485 
L 18.897704 50.994297 
L 18.984823 50.757846 
L 18.991998 50.926618 
L 19.068868 50.42556 
L 19.093466 50.706505 
L 19.223633 50.930797 
L 19.178536 50.494929 
L 19.224658 50.927756 
L 19.263606 50.629717 
L 19.245157 50.991347 
L 19.3456 50.84586 
L 19.447069 51.006129 
L 19.408121 50.554293 
L 19.457318 50.862411 
L 19.537263 51.020093 
L 19.480892 50.689386 
L 19.569036 50.850933 
L 19.660255 50.644083 
L 19.639757 51.004756 
L 19.668455 50.880584 
L 19.779148 50.991735 
L 19.753525 50.707186 
L 19.780173 50.976037 
L 19.90009 50.644953 
L 19.810921 51.011941 
L 19.90214 50.656424 
L 19.997459 51.006299 
L 20.011808 50.635151 
L 20.017958 50.571176 
L 20.087653 50.914507 
L 20.115327 50.736312 
L 20.157349 51.013921 
L 20.232169 50.896649 
L 20.30084 50.655097 
L 20.258818 50.999425 
L 20.344912 50.868063 
L 20.431007 51.010399 
L 20.446381 50.754188 
L 20.455605 50.866162 
L 20.561173 51.01546 
L 20.488403 50.591097 
L 20.571423 50.995974 
L 20.572448 51.002675 
L 20.623695 50.612029 
L 20.625744 50.597053 
L 20.672891 50.976087 
L 20.711839 50.863404 
L 20.731313 50.987598 
L 20.755911 50.706355 
L 20.812283 50.76875 
L 20.892228 50.628187 
L 20.879928 50.988177 
L 20.906577 50.897117 
L 20.987547 50.997919 
L 20.942449 50.552493 
L 21.01522 50.816621 
L 21.09824 50.960327 
L 21.076716 50.611618 
L 21.122838 50.773637 
L 21.197658 50.664072 
L 21.160761 51.002339 
L 21.219182 50.952002 
L 21.301177 51.005021 
L 21.310401 50.514429 
L 21.32475 50.760262 
L 21.327825 50.72246 
L 21.377022 51.01235 
L 21.424169 50.950298 
L 21.426219 51.02085 
L 21.502064 50.705556 
L 21.528712 50.74071 
L 21.598408 50.958037 
L 21.549211 50.646341 
L 21.634281 50.701384 
L 21.679378 50.513906 
L 21.701926 50.961583 
L 21.738824 50.881985 
L 21.795195 50.980169 
L 21.841318 50.636617 
L 21.842342 50.631347 
L 21.868991 51.009423 
L 21.909988 50.85506 
L 22.000182 51.002118 
L 21.973534 50.676645 
L 22.019656 50.836451 
L 22.067828 50.986333 
L 22.104726 50.750102 
L 22.159047 50.673332 
L 22.207219 50.921432 
L 22.210294 51.008532 
L 22.230793 50.799424 
L 22.318937 50.96325 
L 22.338411 50.699101 
L 22.36096 50.986138 
L 22.434755 50.816361 
L 22.480877 50.998057 
L 22.501376 50.655114 
L 22.546473 50.866244 
L 22.557747 50.618049 
L 22.610019 50.967265 
L 22.657166 50.870791 
L 22.767859 50.457234 
L 22.702263 50.984711 
L 22.777083 50.761586 
L 22.808856 51.020047 
L 22.876502 50.641826 
L 22.887776 50.749375 
L 22.976946 50.990097 
L 22.910325 50.629193 
L 23.009744 50.951757 
L 23.033317 50.632795 
L 23.054841 51.012502 
L 23.122487 50.948611 
L 23.125561 50.986467 
L 23.211656 50.604193 
L 23.217805 50.490453 
L 23.262903 50.990237 
L 23.317224 50.749281 
L 23.417668 50.99415 
L 23.400244 50.674392 
L 23.428942 50.768549 
L 23.474039 50.993098 
L 23.481214 50.727132 
L 23.54271 50.819478 
L 23.573458 50.697087 
L 23.551934 51.010611 
L 23.646228 50.857469 
L 23.686201 50.974812 
L 23.713874 50.727489 
L 23.759996 50.887584 
L 23.819442 50.659338 
L 23.803043 50.999453 
L 23.863515 50.954249 
L 23.865565 51.007464 
L 23.946534 50.647503 
L 23.967033 50.768806 
L 23.971133 50.635902 
L 23.997781 51.017802 
L 24.075676 50.88058 
L 24.084901 51.013259 
L 24.146397 50.71549 
L 24.152546 50.63154 
L 24.183294 51.011708 
L 24.247865 50.92606 
L 24.286813 50.669939 
L 24.322686 51.011121 
L 24.372907 50.863632 
L 24.394431 51.014429 
L 24.423129 50.64321 
L 24.484625 50.911756 
L 24.492825 50.738189 
L 24.580969 51.000938 
L 24.598393 50.830246 
L 24.605568 50.920933 
L 24.609667 50.756639 
L 24.613767 50.625727 
L 24.715236 51.017572 
L 24.753158 50.732902 
L 24.826954 50.95682 
L 24.868976 51.0146 
L 24.877176 50.784592 
L 24.917148 50.810848 
L 25.027841 50.447617 
L 24.973519 50.975924 
L 25.031941 50.576249 
L 25.12111 51.017342 
L 25.147758 50.858573 
L 25.152883 51.007068 
L 25.250252 50.73562 
L 25.253327 50.708993 
L 25.310723 50.95417 
L 25.351721 50.861451 
L 25.437815 51.007914 
L 25.387593 50.734879 
L 25.452164 50.784281 
L 25.514685 50.695723 
L 25.493162 51.008452 
L 25.550558 50.99324 
L 25.646902 51.01642 
L 25.579256 50.664884 
L 25.658176 50.96625 
L 25.727872 50.700707 
L 25.718647 51.009621 
L 25.770919 50.913325 
L 25.846764 50.973487 
L 25.794493 50.675889 
L 25.854964 50.815381 
L 25.860088 50.748127 
L 25.871363 51.002081 
L 25.962582 50.870767 
L 26.065075 51.001355 
L 26.018953 50.722303 
L 26.075325 50.930716 
L 26.183968 50.596231 
L 26.160394 51.007437 
L 26.188068 50.776362 
L 26.261863 51.000619 
L 26.210616 50.740819 
L 26.299786 50.841647 
L 26.314135 50.94525 
L 26.38178 50.729401 
L 26.384855 50.7019 
L 26.449426 51.019853 
L 26.483249 50.872144 
L 26.523221 51.014559 
L 26.500673 50.710298 
L 26.575493 50.817995 
L 26.627765 50.688534 
L 26.657488 51.019496 
L 26.684136 50.891928 
L 26.70361 50.776959 
L 26.77638 50.983474 
L 26.794829 50.867467 
L 26.852226 51.00786 
L 26.890148 50.847607 
L 26.907572 50.910108 
L 26.920896 50.596393 
L 27.009041 50.990467 
L 27.055163 51.00142 
L 27.032614 50.875407 
L 27.062337 50.909591 
L 27.165856 50.668042 
L 27.145357 51.015031 
L 27.17508 50.8777 
L 27.242726 51.00692 
L 27.270399 50.669623 
L 27.284748 50.869503 
L 27.329845 50.707697 
L 27.300122 51.008597 
L 27.383142 50.965551 
L 27.393391 50.837852 
L 27.441563 50.731191 
L 27.412865 51.004552 
L 27.504084 50.842975 
L 27.550207 50.743722 
L 27.539957 50.987344 
L 27.608628 50.862918 
L 27.65885 50.995971 
L 27.686523 50.63385 
L 27.722396 50.956852 
L 27.754169 50.841626 
L 27.845388 50.646593 
L 27.785942 50.99814 
L 27.862812 50.887797 
L 27.865887 51.015163 
L 27.921233 50.766741 
L 27.973505 50.886085 
L 28.068824 50.778131 
L 28.020652 51.01854 
L 28.079073 50.912682 
L 28.140569 51.005998 
L 28.114946 50.772177 
L 28.191816 50.946419 
L 28.301484 50.603268 
L 28.320958 50.842055 
L 28.398853 50.991947 
L 28.409102 50.704298 
L 28.433701 50.894878 
L 28.501346 51.01299 
L 28.547468 50.819816 
L 28.673535 51.015668 
L 28.600765 50.719099 
L 28.681735 50.82248 
L 28.787303 50.66117 
L 28.76783 50.992914 
L 28.794478 50.781624 
L 28.859049 51.014289 
L 28.824201 50.641827 
L 28.906196 50.801847 
L 28.99434 50.728481 
L 28.936944 50.986153 
L 28.999465 50.865975 
L 29.102983 51.007203 
L 29.031238 50.631303 
L 29.110158 50.865369 
L 29.147056 50.682091 
L 29.131682 51.013122 
L 29.219826 50.877938 
L 29.321295 50.995486 
L 29.22905 50.743355 
L 29.329494 50.877187 
L 29.362292 50.814089 
L 29.394065 50.942149 
L 29.436087 50.923183 
L 29.477085 51.011223 
L 29.463761 50.705509 
L 29.54473 50.861271 
L 29.590852 50.71524 
L 29.644149 50.997089 
L 29.654398 50.915719 
L 29.739468 50.656154 
L 29.677972 51.019589 
L 29.767141 50.894788 
L 29.799939 51.009373 
L 29.823513 50.706734 
L 29.876809 50.873479 
L 30.003901 50.683533 
L 29.892183 51.003544 
L 30.015176 50.796862 
L 30.117669 50.997971 
L 30.052073 50.688356 
L 30.130993 50.864202 
L 30.200689 50.728049 
L 30.145342 50.981074 
L 30.234512 50.885883 
L 30.25501 51.012324 
L 30.334955 50.821098 
L 30.345205 50.904588 
L 30.400551 51.015565 
L 30.369803 50.830971 
L 30.4149 50.823406 
L 30.417975 50.753412 
L 30.486646 51.010038 
L 30.522519 50.92195 
L 30.563516 50.713773 
L 30.625012 50.945886 
L 30.639361 50.877232 
L 30.717256 51.013047 
L 30.724431 50.778453 
L 30.757229 50.940349 
L 30.767478 50.768959 
L 30.792076 51.000343 
L 30.869972 50.896107 
L 30.947867 51.009011 
L 30.938642 50.748346 
L 30.97554 50.859328 
L 31.018587 50.733269 
L 30.984764 50.934653 
L 31.080083 50.941522 
L 31.123131 51.006329 
L 31.149779 50.731155 
L 31.180527 50.875577 
L 31.2041 50.671826 
L 31.277896 50.999929 
L 31.284045 50.951954 
L 31.28712 50.986859 
L 31.367065 50.700827 
L 31.381414 50.819704 
L 31.395763 50.74582 
L 31.465459 51.020153 
L 31.477758 50.917862 
L 31.563853 51.016033 
L 31.556678 50.804807 
L 31.590501 50.980413 
L 31.612025 50.719014 
L 31.645848 51.0131 
L 31.707344 50.793214 
L 31.818037 51.019098 
L 31.752441 50.702872 
L 31.825211 50.91441 
L 31.844685 50.806413 
L 31.92463 51.012378 
L 31.942054 50.839706 
L 32.055822 51.008997 
L 31.968702 50.720371 
L 32.058896 50.942194 
L 32.154215 50.699348 
L 32.113218 51.01882 
L 32.183938 50.873461 
L 32.203412 50.663262 
L 32.297706 51.016898 
L 32.39405 50.685017 
L 32.421723 50.903295 
L 32.507818 51.019597 
L 32.449397 50.552204 
L 32.541641 50.972896 
L 32.572389 50.60796 
L 32.63696 51.020993 
L 32.652334 50.963518 
L 32.71383 51.005756 
L 32.696406 50.77171 
L 32.763027 50.955912 
L 32.841947 51.010379 
L 32.831698 50.701943 
L 32.862446 50.854483 
L 32.957765 50.752813 
L 32.895243 51.016774 
L 32.981338 50.846223 
L 33.078707 51.004786 
L 33.021311 50.796147 
L 33.099206 50.944022 
L 33.184275 50.758536 
L 33.157627 51.021036 
L 33.211948 50.904682 
L 33.215023 51.002999 
L 33.239622 50.769649 
L 33.323666 50.925678 
L 33.439484 50.643795 
L 33.364664 51.006621 
L 33.445634 50.73815 
L 33.479457 51.007658 
L 33.541978 50.612376 
L 33.562476 50.831676 
L 33.674194 50.676335 
L 33.645496 51.014616 
L 33.677269 50.686436 
L 33.782837 50.989373 
L 33.792062 50.74235 
L 33.794112 50.692138 
L 33.81666 51.016947 
L 33.89763 50.914315 
L 33.990899 50.769319 
L 33.921204 50.991488 
L 33.997049 50.96033 
L 34.042146 50.997827 
L 34.067769 50.723415 
L 34.102617 50.811119 
L 34.103642 50.810226 
L 34.111842 50.943561 
L 34.154889 50.986528 
L 34.163088 50.746979 
L 34.21126 50.791253 
L 34.222535 50.711513 
L 34.283006 51.00669 
L 34.312729 50.904518 
L 34.396774 51.020133 
L 34.358851 50.820579 
L 34.421372 50.882696 
L 34.439821 50.698684 
L 34.465444 50.995463 
L 34.530015 50.909799 
L 34.597661 50.989063 
L 34.633534 50.785828 
L 34.713479 50.653238 
L 34.658132 51.017424 
L 34.740127 50.894049 
L 34.826221 50.946652 
L 34.794448 50.707736 
L 34.836471 50.83158 
L 34.935889 50.71229 
L 34.875418 50.998138 
L 34.945114 50.842521 
L 35.051707 50.990398 
L 35.045558 50.738917 
L 35.054782 50.831352 
L 35.165475 50.776265 
L 35.099879 51.017343 
L 35.1665 50.781265 
L 35.258744 51.01672 
L 35.280268 50.852834 
L 35.282318 50.823022 
L 35.288467 51.00775 
L 35.383786 51.002857 
L 35.39711 51.009394 
L 35.408385 50.86519 
L 35.40941 50.864774 
L 35.427858 50.779709 
L 35.441182 50.980477 
L 35.442207 50.981434 
L 35.455532 50.85938 
L 35.475005 50.766801 
L 35.506778 51.016646 
L 35.566225 50.84819 
L 35.625671 51.013618 
L 35.659494 50.811343 
L 35.676918 50.856923 
L 35.701516 50.694971 
L 35.694341 51.013658 
L 35.783511 50.967687 
L 35.784536 51.019753 
L 35.88088 50.753752 
L 35.893179 50.896567 
L 35.927002 51.003441 
L 35.905478 50.755399 
L 36.001822 50.877369 
L 36.052044 50.75171 
L 36.03872 51.00766 
L 36.096116 50.985337 
L 36.147363 51.007871 
L 36.182211 50.786811 
L 36.189385 50.815252 
L 36.19656 50.768849 
L 36.237557 50.987738 
L 36.249856 50.964729 
L 36.345175 51.005131 
L 36.314427 50.72203 
L 36.353375 50.830223 
L 36.357475 50.782428 
L 36.381048 51.021787 
L 36.457918 50.914471 
L 36.621908 50.908833 
L 36.632157 50.985933 
L 36.710052 51.015914 
L 36.696728 50.841612 
L 36.739775 50.951806 
L 36.797172 50.707604 
L 36.82997 51.007085 
L 36.849443 50.954769 
L 36.917089 51.015848 
L 36.946812 50.800524 
L 36.950912 50.85784 
L 37.001134 50.742584 
L 36.97961 50.99314 
L 37.047256 50.948127 
L 37.048281 51.01384 
L 37.131301 50.741236 
L 37.156924 50.876232 
L 37.165123 50.72857 
L 37.245068 51.006287 
L 37.260442 50.965568 
L 37.310664 51.01128 
L 37.287091 50.903523 
L 37.323988 50.880924 
L 37.327063 50.834157 
L 37.405983 51.010528 
L 37.432632 50.929453 
L 37.442881 51.020277 
L 37.535125 50.785453 
L 37.633519 50.719068 
L 37.561773 51.014836 
L 37.639668 50.822095 
L 37.712439 51.015669 
L 37.755486 50.978247 
L 37.862079 50.743767 
L 37.830306 51.011468 
L 37.869254 50.881051 
L 37.978922 51.015496 
L 37.909226 50.783621 
L 37.991221 50.982259 
L 38.057842 50.777141 
L 38.095765 51.006868 
L 38.108064 50.890002 
L 38.134712 51.016285 
L 38.125488 50.792611 
L 38.218757 50.910391 
L 38.322275 50.785363 
L 38.317151 51.003871 
L 38.3274 50.943367 
L 38.343799 51.013086 
L 38.428869 50.71984 
L 38.432968 50.780848 
L 38.538537 51.018308 
L 38.467816 50.767338 
L 38.551861 50.91023 
L 38.608232 50.851086 
L 38.563135 51.015649 
L 38.657429 50.931154 
L 38.735324 50.991975 
L 38.7261 50.829459 
L 38.766072 50.908202 
L 38.847042 50.74803 
L 38.80092 51.020347 
L 38.87779 50.906261 
L 38.970034 51.013897 
L 38.946461 50.750861 
L 38.984383 50.890916 
L 38.987458 50.79508 
L 39.075603 51.018029 
L 39.095076 50.872479 
L 39.164772 51.019844 
L 39.19142 50.82377 
L 39.208844 50.933783 
L 39.217044 50.758347 
L 39.306213 50.996347 
L 39.323637 50.799263 
L 39.326712 50.790906 
L 39.337986 50.960613 
L 39.408707 50.916795 
L 39.505051 51.012248 
L 39.464053 50.860721 
L 39.522474 50.954372 
L 39.529649 50.8576 
L 39.591145 50.753804 
L 39.625993 51.021071 
L 39.633167 50.957466 
L 39.711062 51.004393 
L 39.653666 50.760568 
L 39.741811 50.871017 
L 39.778708 50.728424 
L 39.797157 51.014969 
L 39.848404 50.91512 
L 39.879152 51.015563 
L 39.870952 50.853422 
L 39.959097 50.90854 
L 40.031867 50.806267 
L 40.004194 51.0126 
L 40.06774 50.971554 
L 40.14871 50.992687 
L 40.155884 50.774237 
L 40.176383 50.955594 
L 40.211231 50.742728 
L 40.199957 51.011378 
L 40.292201 50.929207 
L 40.314749 51.018833 
L 40.303475 50.874891 
L 40.403919 50.948027 
L 40.419293 50.828194 
L 40.426467 50.988988 
L 40.511537 50.967905 
L 40.563809 51.003302 
L 40.604806 50.759122 
L 40.61403 50.79943 
L 40.731898 51.018274 
L 40.750347 50.812406 
L 40.752397 50.788381 
L 40.786219 51.01696 
L 40.851815 50.967603 
L 40.904087 51.002351 
L 40.945084 50.732232 
L 40.961483 50.94903 
L 41.050653 50.762783 
L 41.037329 51.008968 
L 41.072176 50.942756 
L 41.09165 51.00638 
L 41.150071 50.747337 
L 41.167495 50.87141 
L 41.274089 50.792653 
L 41.181844 51.012148 
L 41.278188 50.842929 
L 41.33251 51.00794 
L 41.367358 50.836199 
L 41.388881 50.838612 
L 41.436028 50.751511 
L 41.421679 51.008664 
L 41.493425 50.91394 
L 41.539547 51.015731 
L 41.564145 50.793379 
L 41.605143 50.926435 
L 41.643065 50.797247 
L 41.628716 51.011965 
L 41.704561 50.97507 
L 41.809105 51.021229 
L 41.737359 50.793988 
L 41.818329 51.006922 
L 41.96182 50.802902 
L 41.822429 51.014751 
L 41.978219 50.983026 
L 41.980269 51.009968 
L 41.999743 50.838453 
L 42.082762 50.877653 
L 42.101211 50.784406 
L 42.164757 51.015789 
L 42.176032 50.978276 
L 42.27955 51.008348 
L 42.254952 50.828791 
L 42.284675 50.95618 
L 42.292874 50.777172 
L 42.398443 50.75532 
L 42.308248 50.984568 
L 42.401517 50.799346 
L 42.440465 51.002681 
L 42.501961 50.741347 
L 42.517335 50.850553 
L 42.541933 50.789787 
L 42.558332 51.011838 
L 42.627003 50.858388 
L 42.712073 51.017175 
L 42.731546 50.814217 
L 42.738721 50.882003 
L 42.773569 50.791252 
L 42.803292 51.016511 
L 42.846339 50.928865 
L 42.932434 51.013846 
L 42.918085 50.829648 
L 42.957032 50.952542 
L 43.014429 50.840432 
L 43.038002 51.010504 
L 43.067725 50.930683 
L 43.142545 51.006869 
L 43.091299 50.799181 
L 43.179443 50.945665 
L 43.22249 51.007834 
L 43.241964 50.84214 
L 43.285011 50.906253 
L 43.341383 50.886575 
L 43.348557 51.017442 
L 43.393655 50.920529 
L 43.506397 51.017046 
L 43.450026 50.820329 
L 43.507422 50.983593 
L 43.589417 50.834098 
L 43.521771 51.014289 
L 43.622215 50.883008 
L 43.63144 50.779604 
L 43.671412 51.002956 
L 43.727783 50.946487 
L 43.856925 50.784221 
L 43.743157 51.010889 
L 43.865125 50.96893 
L 43.8682 51.022655 
L 43.902022 50.803433 
L 43.974793 50.944848 
L 44.027065 50.832817 
L 44.066012 51.015665 
L 44.090611 50.873753 
L 44.184905 51.002671 
L 44.153132 50.781186 
L 44.205403 50.953259 
L 44.349919 50.909641 
L 44.218727 51.005908 
L 44.354019 50.980676 
L 44.456512 51.012692 
L 44.421665 50.82161 
L 44.460612 50.868186 
L 44.569255 50.800982 
L 44.48726 50.991327 
L 44.57233 50.840639 
L 44.686098 50.991953 
L 44.688148 50.9758 
L 44.801916 50.739321 
L 44.72607 51.014489 
L 44.806015 50.871807 
L 44.840863 51.007617 
L 44.831639 50.783492 
L 44.918758 50.988051 
L 45.015102 50.827261 
L 44.929007 51.014272 
L 45.029451 50.973267 
L 45.109396 51.007935 
L 45.099147 50.866367 
L 45.138094 50.915668 
L 45.229314 50.810185 
L 45.143219 50.976098 
L 45.243663 50.971963 
L 45.349231 51.015397 
L 45.255962 50.813509 
L 45.354356 50.970068 
L 45.397403 50.787504 
L 45.408677 51.01893 
L 45.466074 50.942831 
L 45.476323 51.020396 
L 45.52757 50.794126 
L 45.577791 50.965248 
L 45.663886 50.816037 
L 45.591116 51.009166 
L 45.697709 50.939754 
L 45.746906 51.016882 
L 45.769454 50.80125 
L 45.807377 50.920787 
L 45.813527 50.751695 
L 45.855549 51.010525 
L 45.91807 50.924916 
L 46.022613 51.001819 
L 45.938569 50.79967 
L 46.037987 50.904353 
L 46.116907 50.826068 
L 46.095384 50.991017 
L 46.145606 50.915387 
L 46.157905 51.018151 
L 46.225551 50.773482 
L 46.258348 50.95939 
L 46.339318 50.826951 
L 46.333169 50.990327 
L 46.366992 50.969036 
L 46.47051 51.009233 
L 46.402864 50.839986 
L 46.47666 50.934534 
L 46.562754 50.861355 
L 46.495108 51.012036 
L 46.570954 50.993765 
L 46.571979 51.017187 
L 46.621175 50.809217 
L 46.680622 50.969959 
L 46.781065 50.761268 
L 46.708295 50.985597 
L 46.797464 50.843428 
L 46.890733 50.999549 
L 46.808739 50.745876 
L 46.911232 50.921113 
L 46.999377 50.767388 
L 46.965554 51.016829 
L 47.01885 50.993971 
L 47.035249 51.010258 
L 47.052673 50.838382 
L 47.119294 50.9205 
L 47.200264 50.85039 
L 47.17669 51.020775 
L 47.229987 50.926552 
L 47.26381 51.003808 
L 47.270984 50.825418 
L 47.339655 50.910954 
L 47.403201 50.901014 
L 47.348879 51.003994 
L 47.407301 50.979535 
L 47.484171 51.013696 
L 47.458548 50.812894 
L 47.515944 50.945663 
L 47.617412 50.78974 
L 47.528243 51.009937 
L 47.624587 50.953089 
L 47.699407 51.00333 
L 47.635861 50.84436 
L 47.72913 50.89808 
L 47.744504 50.785768 
L 47.750654 51.015645 
L 47.838798 50.939554 
L 47.919768 51.010121 
L 47.909519 50.84296 
L 47.962816 50.991073 
L 48.024312 50.825229 
L 48.05301 51.007048 
L 48.076583 50.930716 
L 48.119631 51.00392 
L 48.179077 50.727752 
L 48.182152 50.670538 
L 48.227249 50.998519 
L 48.280546 50.999184 
L 48.28157 51.017867 
L 48.338967 50.881674 
L 48.385089 50.89257 
L 48.60955 50.979481 
L 48.390214 50.869489 
L 48.613649 50.876108 
L 48.632098 50.746012 
L 48.624924 51.012181 
L 48.722293 50.94946 
L 48.821711 50.860238 
L 48.764315 51.011371 
L 48.839135 50.944209 
L 48.932404 51.016328 
L 48.91703 50.781436 
L 48.939579 50.837717 
L 48.940604 50.82825 
L 48.972377 51.014178 
L 49.041047 50.916824 
L 49.07897 51.013236 
L 49.055397 50.859626 
L 49.15174 50.916581 
L 49.223486 50.809989 
L 49.207087 51.007076 
L 49.261409 50.927247 
L 49.340329 51.004257 
L 49.284982 50.846203 
L 49.354678 50.867528 
L 49.451022 50.775828 
L 49.418224 51.018694 
L 49.459221 50.963313 
L 49.576064 50.747323 
L 49.511493 51.006922 
L 49.600662 50.904181 
L 49.70623 51.013446 
L 49.610911 50.734104 
L 49.71853 50.974906 
L 50.049584 50.835563 
L 50.052658 50.763965 
L 50.128504 51.010332 
L 50.159252 50.892196 
L 50.275069 51.009674 
L 50.213573 50.814451 
L 50.279169 51.002712 
L 50.286344 51.019004 
L 50.318117 50.842477 
L 50.376538 50.934012 
L 50.458533 50.817886 
L 50.431885 51.018968 
L 50.485181 50.961127 
L 50.5805 51.005595 
L 50.516954 50.863943 
L 50.5846 50.898205 
L 50.600999 50.795369 
L 50.664545 51.011075 
L 50.695293 50.895675 
L 50.807011 51.003869 
L 50.711692 50.843597 
L 50.809061 50.934725 
L 50.883881 50.772247 
L 50.833659 51.017506 
L 50.923853 50.867581 
L 50.98125 51.011548 
L 50.932053 50.742146 
L 51.036596 50.906018 
L 51.041721 50.724242 
L 51.14114 51.019844 
L 51.146264 50.954598 
L 51.257982 50.819424 
L 51.227234 51.002007 
L 51.262082 50.894499 
L 51.308204 51.019623 
L 51.278481 50.823482 
L 51.374825 50.94798 
L 51.430171 50.802026 
L 51.390199 51.007366 
L 51.483468 50.966392 
L 51.512166 51.016493 
L 51.534715 50.8022 
L 51.591086 50.924179 
L 51.672056 50.850154 
L 51.600311 50.998076 
L 51.694605 50.963064 
L 51.907791 50.852549 
L 51.929315 50.981553 
L 51.966212 51.008187 
L 52.030783 50.84083 
L 52.036933 50.798779 
L 52.067681 50.989201 
L 52.125077 50.927358 
L 52.186574 51.01747 
L 52.203997 50.827486 
L 52.225521 50.840058 
L 52.229621 50.738537 
L 52.280868 51.003242 
L 52.337239 50.791827 
L 52.341339 50.738982 
L 52.410009 51.016013 
L 52.440757 50.933975 
L 52.55145 51.007592 
L 52.473555 50.752054 
L 52.552475 50.969435 
L 52.558625 50.69246 
L 52.593473 51.017692 
L 52.663168 50.981929 
L 52.725689 50.868933 
L 52.699041 51.015755 
L 52.774886 50.952641 
L 52.876355 51.018387 
L 52.795385 50.818803 
L 52.887629 50.981766 
L 52.9563 50.768582 
L 52.980898 51.009661 
L 52.999347 50.97464 
L 53.100816 51.021099 
L 53.089541 50.816033 
L 53.10594 50.922138 
L 53.174611 50.773853 
L 53.168461 50.978795 
L 53.216633 50.923824 
L 53.280179 51.01602 
L 53.308878 50.787335 
L 53.327326 50.950154 
L 53.434945 50.848668 
L 53.414446 51.015779 
L 53.438019 50.940528 
L 53.543588 51.001873 
L 53.496441 50.847258 
L 53.547687 50.921004 
L 53.58151 50.827049 
L 53.557937 51.011156 
L 53.656331 50.95885 
L 53.65838 51.018965 
L 53.663505 50.880072 
L 53.763949 50.885888 
L 53.861318 51.014107 
L 53.812121 50.754943 
L 53.867467 50.884171 
L 53.946387 50.718664 
L 53.89719 51.014313 
L 53.97611 50.959938 
L 54.042731 50.808435 
L 54.014033 51.012824 
L 54.086803 50.949316 
L 54.192372 51.01815 
L 54.097053 50.838521 
L 54.198521 50.966579 
L 54.285641 51.007879 
L 54.266167 50.824558 
L 54.308189 50.94482 
L 54.414783 50.848651 
L 54.338937 51.014434 
L 54.418882 50.941982 
L 54.527526 51.015815 
L 54.503952 50.81554 
L 54.5306 50.969213 
L 54.61772 50.815327 
L 54.553149 51.017371 
L 54.639243 50.98312 
L 54.733537 51.002163 
L 54.687415 50.849955 
L 54.746862 50.947257 
L 54.783759 50.819041 
L 54.753011 51.016231 
L 54.862679 50.915324 
L 54.952874 51.009301 
L 54.940574 50.848274 
L 54.975422 50.95151 
L 55.026669 50.822237 
L 54.997971 51.018529 
L 55.08509 50.96326 
L 55.16196 51.014589 
L 55.134287 50.895937 
L 55.191684 50.938977 
L 55.241905 50.766156 
L 55.217307 51.007438 
L 55.301352 50.937007 
L 55.382321 51.017981 
L 55.324925 50.7909 
L 55.41307 50.982636 
L 55.414094 51.013106 
L 55.422294 50.795315 
L 55.520688 50.917029 
L 55.575009 50.783827 
L 55.539137 51.002843 
L 55.630356 50.937087 
L 55.734899 51.016677 
L 55.702101 50.853143 
L 55.741049 50.948062 
L 55.792296 50.845227 
L 55.754373 51.002482 
L 55.851742 50.939106 
L 55.908113 51.013743 
L 55.95526 50.815774 
L 55.962435 50.940929 
L 55.995233 50.812245 
L 56.033155 51.015336 
L 56.075178 50.912195 
L 56.107976 50.760622 
L 56.154098 51.020699 
L 56.186896 50.909275 
L 56.333461 50.9923 
L 56.208419 50.884 
L 56.335511 50.94099 
L 56.339611 50.855721 
L 56.407257 51.009554 
L 56.446204 50.957304 
L 56.528199 50.793122 
L 56.495401 51.02192 
L 56.558947 50.9367 
L 56.633767 51.014313 
L 56.577396 50.857851 
L 56.668615 50.936417 
L 56.762909 50.78227 
L 56.702438 51.019393 
L 56.778283 50.938647 
L 56.873602 51.019078 
L 56.790582 50.82945 
L 56.887951 50.94131 
L 56.927924 50.837715 
L 56.90435 51.010636 
L 56.995569 50.992776 
L 56.998644 51.020883 
L 57.079614 50.836424 
L 57.100113 50.913653 
L 57.197482 50.873305 
L 57.167759 51.018684 
L 57.203631 50.96734 
L 57.311249 50.902181 
L 57.22208 51.00556 
L 57.327648 50.996446 
L 57.418868 51.018682 
L 57.343022 50.858686 
L 57.422967 50.897686 
L 57.477289 50.846911 
L 57.503937 51.021355 
L 57.530586 50.952227 
L 57.61873 50.751574 
L 57.563384 51.013494 
L 57.643328 50.938816 
L 57.668952 51.017142 
L 57.681251 50.860582 
L 57.755046 50.945955 
L 57.814493 50.824987 
L 57.788869 51.009999 
L 57.866764 50.92439 
L 57.901612 50.862808 
L 57.877014 51.02123 
L 57.948759 50.986254 
L 58.025629 51.010338 
L 57.961058 50.877319 
L 58.056377 50.931593 
L 58.153746 50.848772 
L 58.073801 51.014124 
L 58.159896 50.94186 
L 58.213192 51.010014 
L 58.24599 50.814484 
L 58.269564 50.89851 
L 58.293137 51.017913 
L 58.32696 50.846764 
L 58.389481 50.972636 
L 58.545271 50.895062 
L 58.406905 51.014046 
L 58.559621 50.993021 
L 58.562695 51.01281 
L 58.647765 50.905135 
L 58.663139 50.926081 
L 58.766657 50.878888 
L 58.749234 51.01877 
L 58.775882 50.904666 
L 58.839428 51.022469 
L 58.827129 50.894939 
L 58.895799 51.009411 
L 58.997268 50.857658 
L 58.898874 51.013185 
L 59.015717 50.946565 
L 59.11411 51.01992 
L 59.03519 50.842399 
L 59.12641 50.937413 
L 59.228903 51.014339 
L 59.210454 50.781158 
L 59.244277 50.990276 
L 59.358045 50.832307 
L 59.261701 51.017717 
L 59.36112 50.907673 
L 59.364195 51.021697 
L 59.372394 50.839763 
L 59.472838 50.933566 
L 59.551758 50.898949 
L 59.485137 50.999422 
L 59.573281 50.962425 
L 59.669625 51.015915 
L 59.623503 50.879351 
L 59.681925 50.896492 
L 59.718822 51.021843 
L 59.730096 50.795742 
L 59.794667 50.91454 
L 59.899211 50.815024 
L 59.833615 51.008881 
L 59.90536 50.919932 
L 60.002729 51.014646 
L 59.920734 50.866729 
L 60.016053 50.910826 
L 60.064225 50.840769 
L 60.082674 51.019491 
L 60.126746 50.917389 
L 60.188243 51.010068 
L 60.149295 50.874836 
L 60.237439 50.924091 
L 60.335833 50.873602 
L 60.271262 51.014397 
L 60.345058 50.984843 
L 60.452676 50.875845 
L 60.419878 51.019466 
L 60.455751 50.976989 
L 60.490598 51.021984 
L 60.541845 50.848704 
L 60.566444 51.002231 
L 60.585917 50.887443 
L 60.597192 51.017212 
L 60.682261 50.919501 
L 60.795004 51.011893 
L 60.715059 50.817878 
L 60.798079 50.969252 
L 60.900572 50.801981 
L 60.869824 51.015573 
L 60.905697 50.977674 
L 61.011265 51.014448 
L 60.952844 50.861047 
L 61.01639 50.983866 
L 61.065587 50.890778 
L 61.037914 51.011682 
L 61.129133 50.984246 
L 61.161931 51.021651 
L 61.190629 50.821472 
L 61.191654 50.792546 
L 61.258275 51.022731 
L 61.296197 50.979686 
L 61.333095 51.018541 
L 61.388442 50.872877 
L 61.407915 50.99081 
L 61.506309 50.848918 
L 61.422264 51.011937 
L 61.519633 50.98003 
L 61.582154 51.017292 
L 61.551406 50.806699 
L 61.628276 50.935448 
L 61.737945 50.842329 
L 61.705147 51.010396 
L 61.739994 50.877921 
L 61.816865 51.021584 
L 61.800466 50.841531 
L 61.849662 50.861176 
L 61.850687 50.855093 
L 61.872211 51.013445 
L 61.941907 50.96727 
L 61.97163 51.008586 
L 62.028001 50.881082 
L 62.049525 50.922378 
L 62.063874 50.850159 
L 62.100772 51.015039 
L 62.160218 50.905142 
L 62.238113 51.018576 
L 62.19814 50.7909 
L 62.269886 50.888614 
L 62.465649 50.997339 
L 62.27911 50.831411 
L 62.466673 50.968956 
L 62.470773 50.843246 
L 62.535344 51.01781 
L 62.577366 50.962333 
L 62.580441 51.012497 
L 62.645012 50.872959 
L 62.688059 50.976287 
L 62.789528 50.799022 
L 62.721882 51.019938 
L 62.798752 50.972629 
L 62.854099 50.831737 
L 62.803877 51.01075 
L 62.928919 50.941742 
L 63.039612 51.018264 
L 62.957617 50.846928 
L 63.042687 50.98478 
L 63.053961 50.801929 
L 63.06831 51.009252 
L 63.15748 50.885463 
L 63.246649 51.019948 
L 63.184128 50.818894 
L 63.284572 50.914396 
L 63.350168 50.854412 
L 63.322494 51.018561 
L 63.393215 50.962733 
L 63.429088 51.01867 
L 63.482384 50.825035 
L 63.496733 50.88646 
L 63.566429 50.819879 
L 63.510057 51.019129 
L 63.593077 50.919604 
L 63.70172 51.020998 
L 63.652523 50.875687 
L 63.704795 50.96073 
L 63.808314 50.820581 
L 63.733493 51.016213 
L 63.822663 50.87864 
L 63.889283 51.014129 
L 63.830862 50.847648 
L 63.937455 50.98966 
L 64.008176 50.864674 
L 63.964104 51.008205 
L 64.050198 50.971108 
L 64.129118 50.864929 
L 64.113744 51.014897 
L 64.161916 50.978999 
L 64.238786 51.015353 
L 64.17729 50.899849 
L 64.272609 50.975115 
L 64.362804 51.020821 
L 64.313607 50.887344 
L 64.382277 50.990771 
L 64.471447 50.734297 
L 64.390477 51.012607 
L 64.496045 50.910568 
L 64.538067 50.848651 
L 64.57599 50.997307 
L 64.602638 50.953883 
L 64.698982 51.019348 
L 64.624162 50.807577 
L 64.718456 50.975873 
L 64.748179 50.837329 
L 64.821974 51.017341 
L 64.830174 50.953958 
L 64.890645 50.827644 
L 64.835299 50.994192 
L 64.928568 50.991161 
L 64.997238 51.022142 
L 64.991089 50.842246 
L 65.034136 50.941832 
L 65.145854 50.787086 
L 65.077183 51.017893 
L 65.147904 50.829718 
L 65.158153 51.02208 
L 65.261672 50.930621 
L 65.301644 51.012752 
L 65.346741 50.875549 
L 65.377489 50.959839 
L 65.388764 50.832322 
L 65.412337 51.011149 
L 65.487157 50.952067 
L 65.570177 51.008362 
L 65.499457 50.873549 
L 65.596825 50.953186 
L 65.675746 50.862093 
L 65.660371 51.011624 
L 65.707518 50.943223 
L 65.813087 51.015412 
L 65.719818 50.864537 
L 65.820261 50.96549 
L 65.827436 50.876084 
L 65.885857 51.016976 
L 65.92788 50.979994 
L 66.030373 51.016826 
L 65.971952 50.837826 
L 66.034473 50.901086 
L 66.111343 50.838727 
L 66.043697 50.9901 
L 66.119542 50.973763 
L 66.172839 51.019649 
L 66.201537 50.801642 
L 66.228186 50.963689 
L 66.337854 50.82023 
L 66.319405 51.019287 
L 66.341953 50.918778 
L 66.353228 51.019455 
L 66.424973 50.877087 
L 66.451621 50.904998 
L 66.521317 50.844734 
L 66.462896 51.015646 
L 66.55309 50.953749 
L 66.55514 51.016042 
L 66.565389 50.869793 
L 66.661733 50.920438 
L 66.736553 50.836961 
L 66.730404 51.01656 
L 66.771401 50.93819 
L 66.86877 51.009639 
L 66.796 50.896095 
L 66.883119 50.965496 
L 66.989712 50.877084 
L 66.95384 51.017844 
L 66.994837 50.969075 
L 67.095281 51.018202 
L 67.088106 50.887742 
L 67.10143 50.894195 
L 67.1783 50.885665 
L 67.114755 51.007294 
L 67.19265 50.964493 
L 67.194699 51.016479 
L 67.277719 50.850626 
L 67.301293 50.933401 
L 67.365864 50.852242 
L 67.355614 51.008752 
L 67.409936 50.966415 
L 67.483731 51.01781 
L 67.474507 50.79679 
L 67.518579 50.916463 
L 67.597499 50.820293 
L 67.607748 51.004682 
L 67.623122 50.974642 
L 67.625172 51.019936 
L 67.648746 50.815276 
L 67.729716 50.868244 
L 67.730741 50.866083 
L 67.769688 51.021881 
L 67.789162 50.979821 
L 67.810685 51.016773 
L 67.818885 50.878949 
L 67.89883 50.957241 
L 67.972625 50.792088 
L 67.920354 51.009518 
L 68.006448 51.004428 
L 68.083318 51.010318 
L 68.013623 50.854833 
L 68.108942 50.913505 
L 68.180687 50.88815 
L 68.113041 50.952792 
L 68.191961 50.997895 
L 68.244233 51.021577 
L 68.283181 50.87822 
L 68.314954 50.845283 
L 68.321103 51.020947 
L 68.3785 50.988056 
L 68.426672 51.011412 
L 68.403098 50.815224 
L 68.479968 50.922863 
L 68.557863 50.857863 
L 68.568113 51.019112 
L 68.586561 50.992579 
L 68.656257 51.016911 
L 68.660357 50.874099 
L 68.662407 50.853771 
L 68.753626 51.020598 
L 68.77105 50.880604 
L 68.866369 51.016044 
L 68.891992 50.964426 
L 68.995511 50.774237 
L 68.936064 51.015139 
L 69.00166 50.979395 
L 69.037533 51.021503 
L 69.085705 50.849088 
L 69.108253 50.913713 
L 69.156425 50.835523 
L 69.120553 51.005631 
L 69.214847 50.997894 
L 69.328614 50.865684 
L 69.369612 50.985427 
L 69.370637 51.015503 
L 69.421884 50.856054 
L 69.478255 50.933554 
L 69.577674 50.788847 
L 69.515153 51.017865 
L 69.589973 50.916688 
L 69.684267 51.017527 
L 69.640195 50.853189 
L 69.701691 50.930296 
L 69.743713 50.832814 
L 69.71399 51.020925 
L 69.808284 50.96567 
L 69.907703 51.017676 
L 69.865681 50.88145 
L 69.921027 50.979743 
L 69.989698 50.813625 
L 69.939476 51.014109 
L 70.030695 50.965115 
L 70.090141 51.004699 
L 70.080917 50.851302 
L 70.142413 50.983771 
L 70.226458 51.009369 
L 70.233632 50.849147 
L 70.253106 50.994259 
L 70.26848 50.845801 
L 70.259256 51.012527 
L 70.378148 50.948862 
L 70.439644 51.02041 
L 70.416071 50.896298 
L 70.489866 50.992774 
L 70.506265 50.865247 
L 70.510365 51.011669 
L 70.601584 50.953205 
L 70.691778 51.022203 
L 70.704078 50.783387 
L 70.713302 51.016861 
L 70.781973 50.841795 
L 70.826045 50.932363 
L 70.937763 51.015023 
L 70.882416 50.88341 
L 70.938788 50.99817 
L 71.045381 50.86265 
L 70.970561 51.011927 
L 71.051531 50.939264 
L 71.159149 51.004652 
L 71.100727 50.863012 
L 71.161199 50.952129 
L 71.21142 50.835239 
L 71.202196 51.019749 
L 71.271892 50.955571 
L 71.299565 51.015462 
L 71.362086 50.814845 
L 71.38361 50.972768 
L 71.476879 51.020764 
L 71.392834 50.888585 
L 71.479953 50.908823 
L 71.557849 50.835363 
L 71.512751 51.015485 
L 71.588597 50.95983 
L 71.698265 51.020303 
L 71.677766 50.877878 
L 71.701339 50.980043 
L 71.714664 50.823637 
L 71.737212 51.019159 
L 71.819207 50.94958 
L 71.879678 51.019052 
L 71.854055 50.832916 
L 71.92785 50.928858 
L 72.035468 50.826942 
L 71.973972 51.015861 
L 72.046743 50.82901 
L 72.16051 51.015344 
L 72.171785 51.005313 
L 72.179984 51.014451 
L 72.238405 50.823516 
L 72.257879 50.889506 
L 72.259929 50.827497 
L 72.267104 51.020381 
L 72.366522 50.96102 
L 72.376772 51.018926 
L 72.448517 50.87546 
L 72.47824 50.977205 
L 72.588933 50.897059 
L 72.48234 50.990574 
L 72.598158 50.987115 
L 72.600208 51.019375 
L 72.677078 50.813842 
L 72.706801 50.950991 
L 72.767272 50.851267 
L 72.775472 51.018957 
L 72.819544 50.921259 
L 72.910763 51.018547 
L 72.855416 50.849126 
L 72.926137 50.893463 
L 72.95996 50.856286 
L 72.939461 51.016857 
L 73.035805 50.930023 
L 73.142398 50.856759 
L 73.047079 51.018097 
L 73.146498 50.952286 
L 73.242842 51.017107 
L 73.163922 50.856356 
L 73.247967 50.922574 
L 73.250017 50.871868 
L 73.27564 51.020166 
L 73.35866 50.934939 
L 73.412981 51.01434 
L 73.380183 50.885071 
L 73.471403 50.980616 
L 73.562622 51.008492 
L 73.490876 50.861267 
L 73.581071 50.987026 
L 73.688689 50.877835 
L 73.632317 51.018173 
L 73.691764 50.934962 
L 73.774783 51.01103 
L 73.778883 50.868925 
L 73.803482 50.984464 
L 73.805531 51.021162 
L 73.841404 50.89674 
L 73.912125 50.943912 
L 73.939798 51.020668 
L 74.002319 50.88299 
L 74.024868 50.953728 
L 74.148885 51.012747 
L 74.056641 50.884925 
L 74.151959 50.974142 
L 74.184757 50.897131 
L 74.231904 51.016234 
L 74.263677 50.955683 
L 74.348747 50.997097 
L 74.319024 50.888852 
L 74.369246 50.915876 
L 74.392819 50.807045 
L 74.449191 51.016284 
L 74.471739 50.977458 
L 74.54656 51.013826 
L 74.572183 50.876424 
L 74.582432 50.973625 
L 74.656228 50.862906 
L 74.678776 51.009903 
L 74.6962 50.942878 
L 74.780245 51.014572 
L 74.748472 50.886746 
L 74.802793 50.932112 
L 74.903237 50.898811 
L 74.842766 51.015798 
L 74.911436 50.955817 
L 75.021105 51.016805 
L 74.93091 50.876039 
L 75.023154 50.969576 
L 75.063127 50.832688 
L 75.029304 51.013789 
L 75.137947 50.897053 
L 75.16562 50.838095 
L 75.211742 51.010391 
L 75.228141 50.955219 
L 75.326535 51.014068 
L 75.294762 50.887641 
L 75.33576 50.889062 
L 75.338834 50.837624 
L 75.352159 51.021652 
L 75.445428 50.90099 
L 75.530497 51.011631 
L 75.545871 50.832459 
L 75.547921 50.785335 
L 75.57457 51.017737 
L 75.65349 50.953052 
L 75.743684 51.018883 
L 75.660664 50.851283 
L 75.765207 50.986003 
L 75.872826 50.873329 
L 75.829778 51.021927 
L 75.87795 50.952539 
L 75.89025 51.010275 
L 75.940471 50.84597 
L 75.988643 50.957176 
L 76.03784 50.838773 
L 76.019391 51.003881 
L 76.096262 50.986198 
L 76.185431 51.016254 
L 76.166982 50.86355 
L 76.20593 50.982844 
L 76.310473 50.853131 
L 76.253077 51.018179 
L 76.318672 50.95275 
L 76.366844 50.779629 
L 76.398617 51.019964 
L 76.426291 50.992777 
L 76.502136 51.019127 
L 76.488812 50.834189 
L 76.531859 50.964855 
L 76.59438 50.840175 
L 76.564657 51.016783 
L 76.644602 50.924868 
L 76.774769 51.012732 
L 76.655876 50.882511 
L 76.783993 50.911912 
L 76.786043 50.866847 
L 76.832165 51.018024 
L 76.891611 50.995554 
L 76.923384 51.01405 
L 76.947983 50.858965 
L 76.99103 50.922613 
L 76.99308 50.862446 
L 77.059701 51.01918 
L 77.101723 50.924518 
L 77.15502 50.848913 
L 77.105823 50.968976 
L 77.175518 51.004602 
L 77.176543 51.014914 
L 77.212416 50.863043 
L 77.280062 50.951277 
L 77.326184 50.853779 
L 77.303635 51.013882 
L 77.392805 50.874794 
L 77.503498 51.007718 
L 77.423553 50.824881 
L 77.514772 50.923785 
L 77.613166 50.780764 
L 77.530146 51.011581 
L 77.625465 50.927811 
L 77.733083 51.013321 
L 77.657238 50.830082 
L 77.737183 50.957988 
L 77.838651 50.838881 
L 77.760756 51.006133 
L 77.846851 50.960631 
L 77.886823 51.019176 
L 77.879649 50.89419 
L 77.956519 50.942276 
L 78.049788 50.854052 
L 77.966768 51.00883 
L 78.067212 50.947751 
L 78.175855 51.013306 
L 78.113334 50.875522 
L 78.185079 50.986135 
L 78.212753 50.903569 
L 78.235301 51.017054 
L 78.294747 51.015271 
L 78.386992 50.859904 
L 78.425939 50.974564 
L 78.534582 51.010374 
L 78.468986 50.857603 
L 78.537657 50.987459 
L 78.631951 50.88168 
L 78.596078 51.012114 
L 78.651425 50.947032 
L 78.747769 51.017416 
L 78.694472 50.922502 
L 78.765193 50.986755 
L 78.834888 51.017094 
L 78.787741 50.877045 
L 78.876911 50.9932 
L 78.927133 50.997108 
L 78.896384 50.852377 
L 78.943531 50.905189 
L 79.043975 50.865493 
L 78.951731 51.00453 
L 79.0532 50.925042 
L 79.145444 50.850708 
L 79.076773 51.007875 
L 79.157743 50.973181 
L 79.158768 51.015827 
L 79.257162 50.843107 
L 79.267411 50.947052 
L 79.379129 51.005686 
L 79.276635 50.808226 
L 79.381179 50.971686 
L 79.395528 50.849636 
L 79.390403 50.998867 
L 79.490847 50.996743 
L 79.594365 51.013072 
L 79.504171 50.895794 
L 79.60154 50.989389 
L 79.657911 50.874563 
L 79.635363 51.013748 
L 79.713258 50.966527 
L 79.809602 51.012253 
L 79.747081 50.864175 
L 79.812677 50.904506 
L 79.884422 50.868793 
L 79.879297 51.020836 
L 79.91927 50.986639 
L 79.979741 50.853164 
L 79.950018 51.01876 
L 80.035087 50.951463 
L 80.117082 51.021749 
L 80.082234 50.865796 
L 80.148855 50.977094 
L 80.196002 51.012924 
L 80.16013 50.81054 
L 80.254424 50.939874 
L 80.281072 50.844366 
L 80.271847 51.021117 
L 80.356917 50.987868 
L 80.46146 51.021465 
L 80.373316 50.904242 
L 80.46556 50.924685 
L 80.493233 50.817559 
L 80.47376 51.008942 
L 80.569079 50.967334 
L 80.573178 51.016996 
L 80.628525 50.871083 
L 80.679772 50.963473 
L 80.747417 50.868702 
L 80.711545 51.016424 
L 80.78944 50.986016 
L 80.87041 51.018253 
L 80.847861 50.865401 
L 80.899108 50.984935 
L 81.003651 50.830647 
L 80.924731 51.011526 
L 81.012876 50.952389 
L 81.068222 51.021532 
L 81.076422 50.832386 
L 81.121519 50.953821 
L 81.202489 50.816259 
L 81.171741 51.017335 
L 81.234262 50.905264 
L 81.356229 51.014791 
L 81.249636 50.884648 
L 81.380827 50.922308 
L 81.41465 50.846454 
L 81.480246 51.018743 
L 81.48947 50.94885 
L 81.563266 51.021387 
L 81.520219 50.894014 
L 81.601188 50.979163 
L 81.687283 50.866142 
L 81.607338 51.012585 
L 81.719056 50.913285 
L 81.804126 51.014486 
L 81.770303 50.834171 
L 81.841023 50.932788 
L 81.901494 50.874612 
L 81.882021 51.022752 
L 81.951716 50.939826 
L 82.059334 51.000307 
L 82.04396 50.853822 
L 82.063434 50.938824 
L 82.153628 50.930916 
L 82.088033 51.010065 
L 82.160803 50.996615 
L 82.259197 51.011196 
L 82.194626 50.845129 
L 82.264321 50.944802 
L 82.312493 50.867887 
L 82.303269 51.020715 
L 82.375014 50.944955 
L 82.496982 51.019559 
L 82.441635 50.870367 
L 82.501081 51.009073 
L 82.557453 50.850815 
L 82.524655 51.022726 
L 82.614849 50.957797 
L 82.726567 51.016984 
L 82.712218 50.832524 
L 82.728617 50.979566 
L 82.780889 50.810931 
L 82.802412 51.009975 
L 82.844435 50.920631 
L 82.929504 51.010731 
L 82.911056 50.85457 
L 82.956153 50.935553 
L 83.131417 50.96171 
L 83.133466 50.897466 
L 83.15499 50.874171 
L 83.202137 51.010651 
L 83.24211 50.935773 
L 83.329229 51.002153 
L 83.254409 50.908173 
L 83.333329 50.876518 
L 83.343578 50.825521 
L 83.367152 51.014844 
L 83.433773 50.964973 
L 83.47887 51.021421 
L 83.507568 50.872214 
L 83.532166 50.914019 
L 83.615186 50.853696 
L 83.622361 51.010645 
L 83.63876 50.990877 
L 83.728954 51.021566 
L 83.667458 50.861422 
L 83.741253 50.949962 
L 83.761752 50.884071 
L 83.748428 51.017123 
L 83.841697 51.007054 
L 83.877569 51.019608 
L 83.913442 50.894534 
L 83.924716 50.914649 
L 83.965714 50.82464 
L 84.007736 51.016719 
L 84.030285 50.946999 
L 84.090756 51.017465 
L 84.063083 50.831583 
L 84.144053 50.969824 
L 84.197349 50.855555 
L 84.205549 51.006216 
L 84.253721 50.985255 
L 84.34084 51.012109 
L 84.286519 50.85105 
L 84.361339 50.936378 
L 84.468957 50.825633 
L 84.411561 51.015403 
L 84.473057 50.881119 
L 84.556077 51.022058 
L 84.50073 50.854025 
L 84.58375 50.887988 
L 84.586825 50.870242 
L 84.591949 51.014218 
L 84.680094 50.988745 
L 84.759014 51.018323 
L 84.691368 50.846598 
L 84.788737 50.933767 
L 84.866632 51.015694 
L 84.894305 50.840434 
L 84.89533 50.827033 
L 84.90353 51.014918 
L 84.995774 50.93792 
L 84.998849 51.014674 
L 85.060345 50.887488 
L 85.106467 50.936505 
L 85.122866 51.008471 
L 85.181287 50.850685 
L 85.21716 50.934149 
L 85.295055 51.013831 
L 85.231509 50.88427 
L 85.322728 50.898536 
L 85.430346 50.823615 
L 85.388324 51.014318 
L 85.433421 50.88769 
L 85.544114 51.014231 
L 85.496967 50.85268 
L 85.546164 50.984193 
L 85.641483 50.894982 
L 85.567688 51.012158 
L 85.657882 50.955271 
L 85.68043 51.018217 
L 85.706054 50.844213 
L 85.77165 51.008388 
L 85.836221 50.844293 
L 85.903866 51.00413 
L 85.952038 51.014251 
L 85.914116 50.88339 
L 85.967412 50.884025 
L 85.970487 50.80258 
L 85.992011 51.016409 
L 86.07503 50.995668 
L 86.165225 50.867102 
L 86.116028 51.021107 
L 86.205197 50.904908 
L 86.293342 51.006197 
L 86.225696 50.83661 
L 86.318965 50.940198 
L 86.425558 50.86139 
L 86.341514 51.0167 
L 86.435808 50.910635 
L 86.509603 51.01519 
L 86.540351 50.860816 
L 86.547526 50.950451 
L 86.5629 50.836039 
L 86.572124 51.01146 
L 86.659244 50.91979 
L 86.676667 51.019193 
L 86.727914 50.87424 
L 86.770961 50.954844 
L 86.892929 50.870895 
L 86.830408 51.019473 
L 86.894979 50.891137 
L 86.997472 51.016393 
L 86.961599 50.858793 
L 87.008746 50.951177 
L 87.102016 50.840995 
L 87.054869 51.017935 
L 87.118414 50.944516 
L 87.209634 51.019554 
L 87.141988 50.89468 
L 87.232182 51.007892 
L 87.27318 50.822319 
L 87.263955 51.020236 
L 87.344925 50.96231 
L 87.437169 51.018776 
L 87.391047 50.895981 
L 87.455618 50.995119 
L 87.50994 50.839171 
L 87.468942 51.014672 
L 87.566311 50.945525 
L 87.658555 51.015818 
L 87.616533 50.846946 
L 87.678029 51.009223 
L 87.7385 50.856714 
L 87.690328 51.018364 
L 87.791797 50.957571 
L 87.899415 51.017753 
L 87.805121 50.876457 
L 87.90249 50.942994 
L 87.970136 50.864474 
L 87.950662 51.011635 
L 88.019333 50.942408 
L 88.077754 51.006276 
L 88.072629 50.823157 
L 88.1331 50.983479 
L 88.238669 51.014156 
L 88.154624 50.912112 
L 88.243793 50.982576 
L 88.257117 50.891701 
L 88.353461 51.01953 
L 88.354486 50.990499 
L 88.449805 50.821887 
L 88.443656 51.017407 
L 88.471329 50.878885 
L 88.542049 51.015778 
L 88.590221 50.964539 
L 88.699889 50.89266 
L 88.603546 51.015508 
L 88.702964 50.954038 
L 88.758311 51.022867 
L 88.781884 50.818158 
L 88.812632 50.92041 
L 88.854655 50.797659 
L 88.918201 51.013361 
L 88.9223 50.948828 
L 89.024794 50.834545 
L 88.946899 51.012839 
L 89.036068 50.911503 
L 89.139587 51.01791 
L 89.124213 50.893483 
L 89.149836 51.004589 
L 89.192883 50.868298 
L 89.175459 51.012663 
L 89.261554 50.990827 
L 89.287177 50.836775 
L 89.305626 51.008413 
L 89.372247 50.972331 
L 89.40197 51.005465 
L 89.449117 50.90746 
L 89.481915 50.963047 
L 89.562885 50.850031 
L 89.546486 51.017387 
L 89.595683 50.933647 
L 89.716625 51.002979 
L 89.617206 50.865979 
L 89.722775 50.931529 
L 89.726875 50.818835 
L 89.803745 51.017701 
L 89.833468 50.940529 
L 89.934936 51.016034 
L 89.884715 50.874649 
L 89.943136 50.902409 
L 90.015906 50.856576 
L 89.95236 51.014912 
L 90.04358 50.94968 
L 90.079452 51.015674 
L 90.105076 50.870552 
L 90.154273 50.947996 
L 90.173746 50.826748 
L 90.207569 51.019535 
L 90.263941 50.979457 
L 90.345935 50.87747 
L 90.286489 51.01889 
L 90.387958 50.926803 
L 90.401282 51.017007 
L 90.409481 50.858982 
L 90.498651 50.913945 
L 90.557072 50.900211 
L 90.533499 51.019588 
L 90.597045 50.991443 
L 90.705688 51.016351 
L 90.616518 50.821185 
L 90.706713 50.993909 
L 90.801007 50.860138 
L 90.763084 51.018785 
L 90.818431 50.979002 
L 90.853278 51.022541 
L 90.883001 50.862735 
L 90.928099 50.956419 
L 90.992669 50.84255 
L 90.936298 51.004482 
L 91.039817 50.983998 
L 91.102338 51.01631 
L 91.062365 50.843549 
L 91.15051 50.982636 
L 91.243779 50.856265 
L 91.339098 50.840656 
L 91.268377 51.01497 
L 91.349347 50.934771 
L 91.418018 51.0174 
L 91.392394 50.857352 
L 91.46209 50.981388 
L 91.491813 51.016256 
L 91.54511 50.875496 
L 91.561509 50.889176 
L 91.620955 50.859778 
L 91.583032 51.008883 
L 91.666052 50.949068 
L 91.735748 51.011703 
L 91.711149 50.891973 
L 91.77777 50.962226 
L 91.806468 50.876942 
L 91.835166 51.015268 
L 91.888463 50.964642 
L 92.083201 50.956873 
L 91.891538 50.982896 
L 92.08525 50.988531 
L 92.086275 51.018461 
L 92.114974 50.889919 
L 92.192869 50.92795 
L 92.278963 50.873825 
L 92.265639 51.014023 
L 92.304587 50.900992 
L 92.384531 51.010909 
L 92.394781 50.828475 
L 92.421429 50.973991 
L 92.431678 50.8694 
L 92.502399 51.009893 
L 92.535197 50.931869 
L 92.632566 51.016598 
L 92.578244 50.874636 
L 92.64589 50.960169 
L 92.677663 50.798299 
L 92.734034 51.015463 
L 92.755558 50.976558 
L 92.864201 51.008678 
L 92.790406 50.853558 
L 92.866251 50.976111 
L 92.932872 50.908108 
L 92.913398 51.016713 
L 92.975919 50.993701 
L 93.03639 51.01026 
L 93.047665 50.847289 
L 93.079438 50.941657 
L 93.101986 50.838846 
L 93.150158 51.013309 
L 93.187056 50.963904 
L 93.214729 51.017523 
L 93.20038 50.86751 
L 93.297749 50.954389 
L 93.35412 50.869033 
L 93.366419 51.014999 
L 93.408442 50.954829 
L 93.499661 50.890727 
L 93.450464 51.01964 
L 93.51401 50.962161 
L 93.540658 51.014748 
L 93.575506 50.849397 
L 93.625728 50.995484 
L 93.702598 51.00692 
L 93.647252 50.902933 
L 93.731296 50.973274 
L 93.743596 50.869657 
L 93.739496 51.011006 
L 93.840964 51.009662 
L 93.930134 51.011579 
L 93.897336 50.864392 
L 93.943458 50.961896 
L 94.033652 50.86675 
L 93.948583 51.013183 
L 94.051076 50.97178 
L 94.104373 51.019487 
L 94.081824 50.858166 
L 94.159719 50.921848 
L 94.223265 50.788917 
L 94.23249 51.01749 
L 94.267337 50.973613 
L 94.291936 51.01862 
L 94.354457 50.860345 
L 94.375981 50.954658 
L 94.4672 50.818599 
L 94.422103 51.017033 
L 94.486674 50.967021 
L 94.589167 50.91746 
L 94.509222 51.013662 
L 94.593267 50.975759 
L 94.673212 51.018276 
L 94.62504 50.885293 
L 94.702935 50.990339 
" clip-path="url(#p288d53d159)" style="fill: none; stroke: #9467bd; stroke-width: 0.5; stroke-linecap: square"/>
   </g>
  </g>
 </g>
 <defs>
  <clipPath id="p288d53d159">
   <rect x="0" y="-0" width="99.212598" height="51.023622"/>
  </clipPath>
 </defs>
</svg>
