<?xml version="1.0" encoding="utf-8" standalone="no"?>
<!DOCTYPE svg PUBLIC "-//W3C//DTD SVG 1.1//EN"
  "http://www.w3.org/Graphics/SVG/1.1/DTD/svg11.dtd">
<svg xmlns:xlink="http://www.w3.org/1999/xlink" width="56.692913pt" height="28.346457pt" viewBox="0 0 56.692913 28.346457" xmlns="http://www.w3.org/2000/svg" version="1.1">
 <metadata>
  <rdf:RDF xmlns:dc="http://purl.org/dc/elements/1.1/" xmlns:cc="http://creativecommons.org/ns#" xmlns:rdf="http://www.w3.org/1999/02/22-rdf-syntax-ns#">
   <cc:Work>
    <dc:type rdf:resource="http://purl.org/dc/dcmitype/StillImage"/>
    <dc:date>2024-11-01T11:33:20.327391</dc:date>
    <dc:format>image/svg+xml</dc:format>
    <dc:creator>
     <cc:Agent>
      <dc:title>Matplotlib v3.8.4, https://matplotlib.org/</dc:title>
     </cc:Agent>
    </dc:creator>
   </cc:Work>
  </rdf:RDF>
 </metadata>
 <defs>
  <style type="text/css">*{stroke-linejoin: round; stroke-linecap: butt}</style>
 </defs>
 <g id="figure_1">
  <g id="patch_1">
   <path d="M 0 28.346457 
L 56.692913 28.346457 
L 56.692913 0 
L 0 0 
L 0 28.346457 
z
" style="fill: none"/>
  </g>
  <g id="axes_1">
   <g id="patch_2">
    <path d="M 0 28.346457 
L 56.692913 28.346457 
L 56.692913 0 
L 0 0 
L 0 28.346457 
z
" style="fill: none"/>
   </g>
   <g id="matplotlib.axis_1">
    <g id="xtick_1"/>
    <g id="xtick_2"/>
   </g>
   <g id="matplotlib.axis_2">
    <g id="ytick_1"/>
    <g id="ytick_2"/>
   </g>
   <g id="line2d_1">
    <path d="M 2.576951 26.433405 
L 2.681201 27.788949 
L 2.608577 26.247821 
L 2.688229 27.108927 
L 2.694086 26.273059 
L 2.77081 28.004561 
L 2.799508 26.671842 
L 2.845776 27.974552 
L 2.88736 26.338742 
L 2.909615 27.197583 
L 2.953541 26.003172 
L 2.982825 27.853785 
L 3.020308 27.722377 
L 3.03085 26.300193 
L 3.118116 27.838945 
L 3.131587 27.030597 
L 3.157357 27.964639 
L 3.236423 26.360153 
L 3.241694 26.807107 
L 3.331303 26.251318 
L 3.330132 28.307705 
L 3.351802 27.327781 
L 3.390456 26.296589 
L 3.367029 27.880137 
L 3.461909 26.714594 
L 3.548589 28.00362 
L 3.51462 26.406378 
L 3.573188 27.177551 
L 3.587244 26.376347 
L 3.64464 27.958633 
L 3.682709 27.172659 
L 3.75709 27.948218 
L 3.736006 26.188217 
L 3.790474 26.71784 
L 3.79106 26.251365 
L 3.8344 27.811464 
L 3.900581 27.161348 
L 3.979062 27.767778 
L 3.955049 26.255876 
L 3.987847 26.841219 
L 4.065156 26.358962 
L 4.009517 27.83512 
L 4.097369 26.968563 
L 4.12841 28.09135 
L 4.125481 26.352923 
L 4.208062 27.074358 
L 4.288885 26.314831 
L 4.247888 27.693355 
L 4.307041 26.894869 
L 4.386693 28.346457 
L 4.384351 26.47337 
L 4.41832 27.101124 
L 4.514371 27.799747 
L 4.498558 26.391241 
L 4.528427 26.607629 
L 4.599294 27.930175 
L 4.572939 26.225729 
L 4.638535 27.344586 
L 4.733414 26.216527 
L 4.650834 27.754081 
L 4.749228 27.074582 
L 4.830637 28.041085 
L 4.849378 26.243838 
L 4.859335 27.219305 
L 4.871048 26.344207 
L 4.9548 27.990336 
L 4.970028 27.319413 
L 4.971199 27.774225 
L 4.994041 26.164149 
L 5.079549 27.687245 
L 5.154516 26.257826 
L 5.172086 27.90746 
L 5.190828 27.052853 
L 5.254667 26.352635 
L 5.267552 27.879244 
L 5.302107 26.654665 
L 5.402258 27.790927 
L 5.351889 26.201066 
L 5.413386 27.162952 
L 5.465511 26.252993 
L 5.424513 27.77859 
L 5.524079 26.857316 
L 5.599045 27.74433 
L 5.577961 26.363035 
L 5.635357 27.300105 
L 5.705638 26.294096 
L 5.695096 27.902347 
L 5.747222 26.854067 
L 5.763035 27.75625 
L 5.804618 26.286917 
L 5.8585 27.072927 
L 5.874314 26.24117 
L 5.941666 28.148894 
L 5.966851 27.048679 
L 6.045917 27.776044 
L 5.99672 26.293716 
L 6.077544 27.266029 
L 6.175937 26.227649 
L 6.143725 27.940722 
L 6.189408 26.530073 
L 6.273745 27.812434 
L 6.293073 26.325532 
L 6.300687 26.793676 
L 6.3124 27.916299 
L 6.308886 26.392467 
L 6.409623 27.538504 
L 6.517973 26.357933 
L 6.455891 27.843302 
L 6.520901 27.033487 
L 6.528515 26.256482 
L 6.556628 27.854856 
L 6.611681 26.857832 
L 6.612267 28.060448 
L 6.64975 26.317325 
L 6.722374 27.252953 
L 6.747558 26.256823 
L 6.739944 27.831889 
L 6.833653 26.752091 
L 6.863522 27.958313 
L 6.850052 26.197506 
L 6.944932 27.209961 
L 7.000571 26.525365 
L 6.981829 28.007061 
L 7.05621 26.526874 
L 7.153433 27.930373 
L 7.057967 26.153416 
L 7.167489 26.744158 
L 7.178617 27.954082 
L 7.173931 26.287165 
L 7.278768 27.298585 
L 7.364862 26.28369 
L 7.329721 28.010647 
L 7.390046 26.655138 
L 7.422258 27.919467 
L 7.482583 26.43866 
L 7.501325 27.40306 
L 7.575706 26.485884 
L 7.542908 27.795661 
L 7.612018 27.213563 
L 7.692256 27.817759 
L 7.681128 26.373165 
L 7.722125 27.57854 
L 7.81232 26.387842 
L 7.738524 27.869795 
L 7.833404 27.066128 
L 7.876158 26.448134 
L 7.884358 27.752382 
L 7.921255 27.134016 
L 7.999736 27.837248 
L 8.016721 26.348079 
L 8.031948 26.964872 
L 8.087588 26.231334 
L 8.107501 27.857936 
L 8.14147 27.368726 
L 8.225222 27.941285 
L 8.154941 26.30572 
L 8.250992 26.855562 
L 8.251577 26.853678 
L 8.252163 27.122445 
L 8.253334 27.027109 
L 8.344114 27.982493 
L 8.274419 26.224238 
L 8.364027 27.595536 
L 8.445437 26.176951 
L 8.378084 28.129442 
L 8.475306 27.316052 
L 8.505761 26.19548 
L 8.513375 27.859783 
L 8.586585 26.366763 
L 8.638124 27.944667 
L 8.595956 26.098385 
L 8.697864 26.695965 
L 8.789815 27.89051 
L 8.720119 26.265563 
L 8.809142 27.166465 
L 8.887037 27.912763 
L 8.919835 25.97709 
L 8.959661 27.902093 
L 9.031114 27.036072 
L 9.099638 26.182206 
L 9.12248 27.922871 
L 9.141221 26.81773 
L 9.185147 27.894866 
L 9.224973 26.355325 
L 9.251914 26.680297 
L 9.32571 28.049479 
L 9.362022 26.347224 
L 9.372564 27.761169 
L 9.418832 26.16495 
L 9.4733 27.153193 
L 9.514298 26.171702 
L 9.571694 27.827472 
L 9.584579 26.944205 
L 9.640804 28.161782 
L 9.661303 26.395506 
L 9.695858 27.317558 
L 9.776095 26.237209 
L 9.758525 28.082882 
L 9.807722 26.841349 
L 9.824121 27.867579 
L 9.835249 26.057258 
L 9.918415 26.877735 
L 9.954141 26.227184 
L 9.941256 27.665054 
L 10.024422 27.246535 
L 10.102318 27.852759 
L 10.08299 26.26733 
L 10.133358 27.623531 
L 10.222967 26.347234 
L 10.22941 27.912509 
L 10.244637 27.011208 
L 10.281535 26.326589 
L 10.253422 27.928137 
L 10.348302 26.906884 
L 10.355916 28.072977 
L 10.453138 26.270764 
L 10.459581 27.135479 
L 10.524005 27.777468 
L 10.512877 26.440291 
L 10.570859 27.543186 
L 10.602486 26.389144 
L 10.651097 27.892877 
L 10.683309 26.988133 
L 10.717864 27.743844 
L 10.732506 26.405362 
L 10.794588 27.414412 
L 10.825629 26.143911 
L 10.803373 27.702147 
L 10.905867 26.937878 
L 10.936908 27.860626 
L 10.908209 26.151758 
L 11.015974 27.013892 
L 11.030616 26.075623 
L 11.109097 27.860149 
L 11.126081 27.07722 
L 11.202219 27.721874 
L 11.185235 26.308551 
L 11.235017 27.161702 
L 11.315255 26.345597 
L 11.285971 27.946023 
L 11.345125 27.204544 
L 11.353324 28.005953 
L 11.400178 26.42443 
L 11.455818 27.001207 
L 11.475731 27.814643 
L 11.482759 26.519566 
L 11.490958 27.364015 
L 11.537813 26.272345 
L 11.504429 27.768574 
L 11.602237 26.909959 
L 11.649677 26.020908 
L 11.613365 27.803529 
L 11.713516 26.24791 
L 11.726986 28.079337 
L 11.824794 27.190367 
L 11.890976 26.389227 
L 11.922017 27.821365 
L 11.934902 26.771955 
L 12.014554 27.780925 
L 12.033295 26.221506 
L 12.04618 27.292611 
L 12.114705 26.455076 
L 12.127589 27.857472 
L 12.153945 27.030999 
L 12.262881 27.925927 
L 12.259367 26.378247 
L 12.265224 27.446064 
L 12.302121 26.387569 
L 12.372988 27.858176 
L 12.377088 26.979501 
L 12.446198 26.001044 
L 12.412229 27.843688 
L 12.481924 27.165673 
L 12.515308 27.897416 
L 12.558648 26.168711 
L 12.592617 26.790025 
L 12.626001 27.956697 
L 12.6465 26.369194 
L 12.70331 26.867032 
L 12.738451 26.333519 
L 12.802875 27.894637 
L 12.811075 27.355614 
L 12.836259 28.120739 
L 12.825717 26.378287 
L 12.921768 27.32054 
L 13.006691 26.176868 
L 12.932896 27.761069 
L 13.032461 26.710978 
L 13.081658 27.742864 
L 13.118555 26.192523 
L 13.14374 26.965925 
L 13.171266 27.913844 
L 13.249161 26.418793 
L 13.254433 27.539577 
L 13.33877 26.36902 
L 13.344627 27.940732 
L 13.365711 27.058079 
L 13.455905 26.172291 
L 13.400266 27.994904 
L 13.474647 27.144177 
L 13.515645 27.86951 
L 13.579483 26.260623 
L 13.58534 27.203934 
L 13.63688 27.80161 
L 13.60291 26.147882 
L 13.678463 26.801141 
L 13.71946 26.266684 
L 13.748744 28.131002 
L 13.78857 27.032121 
L 13.822539 27.889878 
L 13.891649 26.447865 
L 13.899263 27.592521 
L 13.918005 26.371783 
L 14.008785 27.952166 
L 14.010542 26.609879 
L 14.043925 27.62255 
L 14.11245 26.361901 
L 14.121821 26.827516 
L 14.155204 26.256516 
L 14.221386 28.079839 
L 14.230756 26.697937 
L 14.239542 28.002288 
L 14.259455 26.257623 
L 14.342035 27.168716 
L 14.353163 27.849164 
L 14.417588 26.17428 
L 14.453314 27.37526 
L 14.480255 26.143945 
L 14.561078 28.06142 
L 14.564593 26.725181 
L 14.672943 27.667046 
L 14.591534 26.276734 
L 14.675871 26.951931 
L 14.761966 26.073601 
L 14.691684 27.788779 
L 14.786564 26.801037 
L 14.836347 27.794005 
L 14.855088 26.324972 
L 14.897257 27.253505 
L 14.915413 26.184198 
L 14.952311 27.874469 
L 15.008536 27.038809 
L 15.045434 27.73877 
L 15.041919 26.141168 
L 15.119229 27.136198 
L 15.214694 26.348109 
L 15.140899 27.788408 
L 15.229922 26.77891 
L 15.26682 28.019831 
L 15.269162 26.279997 
L 15.341201 27.126148 
L 15.443694 26.37515 
L 15.373413 27.910144 
L 15.452479 26.428479 
L 15.462436 27.769031 
L 15.546773 26.34149 
L 15.563172 26.974529 
L 15.656881 26.029751 
L 15.5743 27.660781 
L 15.674451 26.437416 
L 15.724819 27.978126 
L 15.759374 26.364332 
L 15.78573 27.145966 
L 15.794515 26.035026 
L 15.851911 27.965996 
L 15.897008 26.653218 
L 15.903451 27.710311 
L 15.987788 26.43591 
L 16.008287 26.847646 
L 16.034642 26.266798 
L 16.046356 27.819579 
L 16.114295 27.133103 
L 16.159392 27.781995 
L 16.16642 26.346993 
L 16.223816 26.909733 
L 16.27067 26.335588 
L 16.255443 27.967609 
L 16.333923 27.259612 
L 16.439345 26.448336 
L 16.422361 27.878555 
L 16.444031 26.991632 
L 16.483857 27.980755 
L 16.52954 26.102369 
L 16.555309 27.100587 
L 16.584008 26.236175 
L 16.636719 27.771535 
L 16.667174 26.811188 
L 16.733355 27.947136 
L 16.704072 26.543879 
L 16.775524 27.086285 
L 16.852248 26.127976 
L 16.781967 27.711782 
L 16.886803 26.626251 
L 16.988125 27.801817 
L 16.911987 26.370062 
L 16.997496 27.555775 
L 17.041422 26.356118 
L 17.020337 27.778919 
L 17.108774 26.523548 
L 17.176127 27.733841 
L 17.141572 26.287544 
L 17.220639 27.576308 
L 17.287992 26.269107 
L 17.242895 27.730801 
L 17.333089 26.966377 
L 17.371158 27.967399 
L 17.388143 26.395704 
L 17.444368 27.542498 
L 17.45081 26.313031 
L 17.455495 27.814264 
L 17.555646 26.953225 
L 17.561503 27.877584 
L 17.621828 26.257935 
L 17.652869 27.513564 
L 17.723736 26.341451 
L 17.662825 27.874169 
L 17.764147 27.074913 
L 17.786989 26.274808 
L 17.859027 27.878918 
L 17.873083 26.970524 
L 17.93048 27.967068 
L 17.893582 26.256693 
L 17.983776 27.742845 
L 18.004275 26.284303 
L 18.022431 28.008344 
L 18.095055 27.144622 
L 18.117311 27.860742 
L 18.161822 26.254642 
L 18.205748 27.33812 
L 18.236789 26.288493 
L 18.266658 27.83109 
L 18.316441 27.026164 
L 18.377937 27.697544 
L 18.339868 26.320039 
L 18.42772 27.16059 
L 18.490387 26.332954 
L 18.440019 27.704941 
L 18.535484 27.144314 
L 18.554812 28.014033 
L 18.608108 26.316976 
L 18.646763 27.475355 
L 18.674875 26.209989 
L 18.659648 27.868463 
L 18.758627 26.857157 
L 18.816024 27.990195 
L 18.84765 26.388994 
L 18.871077 27.550983 
L 18.951315 26.273331 
L 18.943701 28.065759 
L 18.982356 27.158274 
L 19.019254 26.258249 
L 19.00344 28.004506 
L 19.087192 27.048359 
L 19.09422 27.813519 
L 19.183829 26.407084 
L 19.197885 27.054537 
L 19.308578 26.188884 
L 19.302721 27.891166 
L 19.309164 26.930975 
L 19.385302 27.779452 
L 19.414 26.320185 
L 19.421028 27.468879 
L 19.498338 26.19359 
L 19.524693 27.875288 
L 19.531136 27.452777 
L 19.587946 28.074314 
L 19.586775 26.314985 
L 19.641829 27.158428 
L 19.700396 27.905222 
L 19.688097 26.209585 
L 19.727337 26.912758 
L 19.814603 26.3593 
L 19.756621 27.872142 
L 19.83803 27.063857 
L 19.840959 27.669604 
L 19.862629 26.368547 
L 19.897184 27.422443 
L 19.952238 26.075426 
L 19.996163 28.036404 
L 20.008463 26.861968 
L 20.031304 28.001974 
L 20.035404 26.458588 
L 20.11857 27.018732 
L 20.119156 26.323029 
L 20.215207 27.874041 
L 20.229263 27.141623 
L 20.23102 26.337998 
L 20.274946 28.023773 
L 20.338785 27.260422 
L 20.448306 27.871715 
L 20.420779 26.25723 
L 20.448892 27.234788 
L 20.450063 26.251493 
L 20.510388 27.882934 
L 20.560171 26.967283 
L 20.599997 26.330779 
L 20.631037 27.719148 
L 20.667349 26.795974 
L 20.70659 28.043105 
L 20.693705 26.226973 
L 20.778628 27.476039 
L 20.829582 26.306287 
L 20.844224 27.939068 
L 20.890492 26.786159 
L 20.907477 26.226527 
L 20.917434 27.820706 
L 21.000014 27.310585 
L 21.109536 26.235779 
L 21.052139 27.918562 
L 21.111293 26.972761 
L 21.166346 28.075109 
L 21.134134 26.237606 
L 21.221986 27.210117 
L 21.32038 26.252386 
L 21.312766 27.77643 
L 21.33385 26.856974 
L 21.375433 28.03005 
L 21.378362 26.397151 
L 21.444543 26.998957 
L 21.448057 26.384478 
L 21.512482 28.044709 
L 21.554065 27.084739 
L 21.605604 27.845278 
L 21.565193 26.308761 
L 21.665343 27.765029 
L 21.712198 26.465965 
L 21.687599 28.099225 
L 21.777208 27.205476 
L 21.855689 28.078699 
L 21.794192 26.229513 
L 21.887901 27.540119 
L 21.984538 26.301393 
L 21.973995 27.825268 
L 21.99918 26.971967 
L 22.010307 27.82622 
L 22.067704 26.027215 
L 22.110458 27.056232 
L 22.141499 27.996898 
L 22.191867 26.524312 
L 22.21998 27.191846 
L 22.228765 26.200345 
L 22.234036 27.89157 
L 22.330673 26.72858 
L 22.41501 27.776442 
L 22.406225 26.396054 
L 22.441366 27.201509 
L 22.499934 26.4129 
L 22.50989 27.685327 
L 22.551473 27.212851 
L 22.644596 27.98457 
L 22.619997 26.367338 
L 22.662166 27.339823 
L 22.765245 26.315918 
L 22.767588 27.89101 
L 22.772859 27.333853 
L 22.850754 27.802612 
L 22.799215 25.8771 
L 22.883552 27.242839 
L 22.975503 26.178075 
L 22.991902 27.977639 
L 22.994245 27.068085 
L 23.042271 27.95033 
L 23.005373 26.139259 
L 23.104352 27.045094 
L 23.159992 26.411626 
L 23.117823 27.909166 
L 23.215045 26.820397 
L 23.316953 27.697343 
L 23.272442 26.125755 
L 23.325738 27.440505 
L 23.341552 26.370314 
L 23.333352 27.709429 
L 23.436431 27.193951 
L 23.530726 27.866586 
L 23.519012 26.047884 
L 23.546539 27.082873 
L 23.56528 26.029825 
L 23.608035 27.807779 
L 23.655475 26.957607 
L 23.744498 28.181297 
L 23.660746 26.294488 
L 23.766168 27.295559 
L 23.852848 26.180647 
L 23.767339 28.005955 
L 23.876861 27.1328 
L 23.915515 28.106695 
L 23.936014 26.185199 
L 23.986968 27.299987 
L 23.998682 26.269236 
L 24.013324 27.923092 
L 24.098247 27.02351 
L 24.154472 26.414551 
L 24.116403 27.831717 
L 24.209525 26.692352 
L 24.279807 27.909299 
L 24.312605 26.123949 
L 24.320804 27.073716 
L 24.364144 27.917853 
L 24.339546 26.048691 
L 24.429154 26.92334 
L 24.518763 26.237214 
L 24.509978 27.76282 
L 24.539847 26.969599 
L 24.54629 27.964353 
L 24.600758 26.151048 
L 24.651126 27.174233 
L 24.697395 27.952181 
L 24.755962 26.197264 
L 24.759476 27.228956 
L 24.760062 26.34346 
L 24.812773 27.79134 
L 24.870169 26.538038 
L 24.901796 27.885186 
L 24.926394 26.253278 
L 24.981448 27.112665 
L 25.055243 27.739054 
L 25.047044 26.166158 
L 25.089798 27.510001 
L 25.094484 25.997794 
L 25.193463 28.068568 
L 25.201077 26.513203 
L 25.297714 28.094924 
L 25.259059 26.138401 
L 25.312356 27.185629 
L 25.346325 26.406367 
L 25.342225 27.761282 
L 25.423049 26.639751 
L 25.470489 27.944052 
L 25.438276 26.44207 
L 25.534327 27.284636 
L 25.548384 26.355187 
L 25.589967 27.908256 
L 25.64502 27.083003 
L 25.700074 27.79945 
L 25.751028 26.208427 
L 25.755128 26.708568 
L 25.786754 27.774233 
L 25.782069 26.323126 
L 25.864649 27.227561 
L 25.964214 26.264376 
L 25.934931 27.800181 
L 25.975342 27.040361 
L 25.987056 27.987686 
L 26.05148 26.259534 
L 26.086035 26.968464 
L 26.152217 26.415879 
L 26.090721 27.845407 
L 26.168616 27.340594 
L 26.182672 27.820825 
L 26.271109 26.222999 
L 26.279309 27.488066 
L 26.296879 26.42153 
L 26.378288 27.981378 
L 26.392345 27.073185 
L 26.435685 27.88689 
L 26.485467 25.864401 
L 26.503038 26.995358 
L 26.557506 26.172153 
L 26.569805 28.008064 
L 26.611974 26.769271 
L 26.642429 27.964242 
L 26.638329 26.277295 
L 26.723252 27.728079 
L 26.809347 26.305609 
L 26.788262 28.065381 
L 26.834531 27.32652 
L 26.919454 26.422462 
L 26.922968 27.992472 
L 26.945224 26.866409 
L 26.98095 27.878681 
L 27.006134 26.484168 
L 27.056503 27.056032 
L 27.086958 27.78791 
L 27.106285 26.208795 
L 27.168367 27.390573 
L 27.259147 26.189992 
L 27.272032 27.881932 
L 27.279646 26.616245 
L 27.328257 27.867439 
L 27.293702 26.36896 
L 27.392681 27.618043 
L 27.463548 26.223518 
L 27.406152 27.691773 
L 27.50396 27.159012 
L 27.605868 27.76675 
L 27.600597 26.09988 
L 27.613482 27.210581 
L 27.632809 26.308206 
L 27.640423 27.995836 
L 27.72476 27.043161 
L 27.786256 27.799607 
L 27.739402 26.230895 
L 27.835453 27.141553 
L 27.850095 26.122145 
L 27.890507 27.842897 
L 27.946146 27.122931 
L 28.047468 27.824979 
L 28.041026 26.371923 
L 28.056254 27.371452 
L 28.063282 26.107915 
L 28.117164 28.100685 
L 28.167532 26.967354 
L 28.202673 27.884874 
L 28.190959 26.260615 
L 28.278811 27.063376 
L 28.380133 26.372671 
L 28.28701 27.853658 
L 28.388333 27.137569 
L 28.464471 27.979096 
L 28.449243 26.161286 
L 28.499026 27.316674 
L 28.538266 26.410599 
L 28.537095 28.199533 
L 28.610304 26.816627 
L 28.672972 28.004536 
L 28.692885 26.335549 
L 28.721583 26.983731 
L 28.734468 26.21957 
L 28.784836 27.935964 
L 28.830519 27.30091 
L 28.912514 27.921282 
L 28.873859 26.339355 
L 28.940041 27.674685 
L 28.969324 25.856823 
L 29.026135 27.905248 
L 29.051319 26.904702 
L 29.135657 27.989286 
L 29.141514 26.302456 
L 29.162012 27.092367 
L 29.267434 26.412481 
L 29.228779 28.077027 
L 29.273877 26.585371 
L 29.364071 27.787424 
L 29.309603 26.210588 
L 29.385155 26.732162 
L 29.471836 27.766644 
L 29.475935 26.256501 
L 29.495848 27.438291 
L 29.525132 26.093087 
L 29.529818 27.843919 
L 29.607127 26.621859 
L 29.631725 27.726382 
L 29.706692 26.260319 
L 29.718991 27.413731 
L 29.721334 27.431006 
L 29.723091 26.665364 
L 29.728362 27.260866 
L 29.740661 26.115261 
L 29.816799 27.992535 
L 29.839055 27.223819 
L 29.849012 27.999672 
L 29.870682 26.461512 
L 29.949162 27.068997 
L 29.971418 26.168425 
L 30.010659 27.98811 
L 30.059855 26.902887 
L 30.060441 28.197062 
L 30.155907 26.401374 
L 30.170548 27.016853 
L 30.227359 27.906168 
L 30.217403 26.195994 
L 30.249029 26.800547 
L 30.282413 26.32031 
L 30.339809 27.905395 
L 30.359137 27.070543 
L 30.37495 28.093998 
L 30.374364 26.458574 
L 30.463973 26.920713 
L 30.528397 26.051559 
L 30.510827 27.80507 
L 30.573494 27.191576 
L 30.619177 26.28278 
L 30.632648 27.883708 
L 30.681845 26.947084 
L 30.699415 27.914094 
L 30.69063 26.25933 
L 30.793123 27.3992 
L 30.843492 26.078427 
L 30.847591 28.023938 
L 30.904988 26.579025 
L 30.942471 27.921253 
L 30.917287 26.281197 
L 31.016266 26.827997 
L 31.060192 27.82782 
L 31.097676 26.276854 
L 31.127545 27.331754 
L 31.150387 26.304736 
L 31.132816 27.718202 
L 31.238238 26.922791 
L 31.266936 27.855515 
L 31.262251 26.194662 
L 31.348931 27.124542 
L 31.403399 26.376437 
L 31.437954 27.783454 
L 31.459624 27.129644 
L 31.467238 26.500629 
L 31.460795 27.575105 
L 31.481294 27.424735 
L 31.556261 27.871938 
L 31.59023 26.056712 
L 31.590816 27.409679 
L 31.635327 26.125782 
L 31.597258 27.861838 
L 31.702094 26.763539 
L 31.764762 28.040818 
L 31.74602 26.076417 
L 31.813959 27.214854 
L 31.898882 26.117806 
L 31.913524 28.203053 
L 31.924652 26.7109 
L 32.012503 27.885811 
L 31.990833 26.43034 
L 32.035345 27.504048 
L 32.077514 26.09511 
L 32.055844 27.779678 
L 32.146624 27.055952 
L 32.211634 26.033824 
L 32.209291 27.762287 
L 32.257317 26.78282 
L 32.328769 28.243188 
L 32.313542 26.302448 
L 32.369181 27.806501 
L 32.409007 26.412083 
L 32.444148 27.949805 
L 32.481045 26.58236 
L 32.549569 28.00756 
L 32.561283 26.148307 
L 32.59291 26.973028 
L 32.64972 26.289401 
L 32.668462 27.907372 
L 32.703603 27.095725 
L 32.77037 26.057496 
L 32.712973 27.843557 
L 32.810196 27.4527 
L 32.850022 27.898566 
L 32.908004 26.288838 
L 32.920303 27.601204 
L 32.92616 26.106083 
L 32.928503 27.843572 
L 33.032168 26.692419 
L 33.110063 27.973501 
L 33.057352 26.486676 
L 33.143446 27.074849 
L 33.244768 26.359184 
L 33.16863 27.782983 
L 33.253554 27.10906 
L 33.329106 28.04591 
L 33.25941 26.15684 
L 33.362489 26.909739 
L 33.398216 26.270578 
L 33.375374 27.712187 
L 33.472597 26.681079 
L 33.558691 27.975403 
L 33.478454 26.031415 
L 33.583875 27.64224 
L 33.619016 26.379426 
L 33.606717 28.011373 
L 33.695154 27.200349 
L 33.772464 26.41137 
L 33.776563 27.902605 
L 33.806433 27.061213 
L 33.860901 27.821053 
L 33.900727 26.285254 
L 33.914783 27.256177 
L 34.001463 26.415891 
L 33.918297 27.688757 
L 34.025476 27.283885 
L 34.043046 27.95208 
L 34.057103 26.243479 
L 34.134998 27.627913 
L 34.209964 26.380568 
L 34.137926 27.931433 
L 34.246276 27.098738 
L 34.327686 27.957463 
L 34.301916 26.234592 
L 34.356969 27.374473 
L 34.448335 26.386119 
L 34.450092 27.97025 
L 34.468248 27.098938 
L 34.532673 26.507929 
L 34.50866 27.808973 
L 34.568399 26.548312 
L 34.578355 28.262585 
L 34.617596 26.394859 
L 34.679678 27.153574 
L 34.682606 27.790169 
L 34.709547 26.178107 
L 34.790371 27.63118 
L 34.791542 26.214889 
L 34.843082 27.811887 
L 34.901649 26.640108 
L 34.90692 28.085498 
L 34.961388 26.251679 
L 35.013514 27.377873 
L 35.107222 26.064147 
L 35.038698 27.814981 
L 35.125378 26.951701 
L 35.128892 27.784562 
L 35.141191 26.240484 
L 35.233143 26.666245 
L 35.249542 26.115415 
L 35.284097 27.682682 
L 35.328022 26.601138 
L 35.328608 27.676686 
L 35.40416 26.220973 
L 35.439301 27.035237 
L 35.539452 26.260667 
L 35.48147 27.91367 
L 35.548237 27.697166 
L 35.616176 27.941055 
L 35.556436 26.344639 
L 35.651902 27.239204 
L 35.736239 26.345347 
L 35.671229 28.072043 
L 35.762595 26.733405 
L 35.870945 27.944273 
L 35.797735 26.262 
L 35.873288 27.328625 
L 35.884416 26.434153 
L 35.953526 27.764792 
L 35.983981 27.245987 
L 36.012679 27.906479 
L 36.085889 25.876998 
L 36.094674 26.917786 
L 36.095845 27.760545 
L 36.097602 26.116606 
L 36.205367 27.413795 
L 36.206538 26.461618 
L 36.300247 27.842889 
L 36.316646 26.673721 
L 36.350029 27.995436 
L 36.39864 26.339944 
L 36.42851 27.073411 
L 36.457208 27.647638 
L 36.485321 26.353134 
L 36.538032 27.050031 
L 36.644625 26.246644 
L 36.600699 27.987262 
L 36.648725 27.380547 
L 36.756489 26.204395 
L 36.697921 27.734205 
L 36.759418 27.631309 
L 36.78343 26.319247 
L 36.796901 27.924632 
L 36.871868 27.154393 
L 36.935121 27.831873 
L 36.935706 25.974307 
L 36.981389 26.568541 
L 37.08564 26.209044 
L 37.065727 27.726558 
L 37.087982 26.750649 
L 37.177005 27.99504 
L 37.182276 26.300949 
L 37.198675 27.127191 
L 37.2672 26.109278 
L 37.288284 27.876913 
L 37.309954 26.94368 
L 37.398391 27.798265 
L 37.368522 26.390045 
L 37.421233 27.550291 
L 37.495028 26.430163 
L 37.442903 28.013451 
L 37.531926 27.517761 
L 37.532511 27.520878 
L 37.533097 27.189444 
L 37.548325 26.2333 
L 37.567652 27.723096 
L 37.644376 26.971331 
L 37.657846 27.802545 
L 37.684788 26.293715 
L 37.755069 27.145238 
L 37.823007 26.257284 
L 37.835892 28.184274 
L 37.866348 26.824868 
L 37.960056 27.763675 
L 37.87279 26.100749 
L 37.977041 26.653685 
L 38.072506 27.831062 
L 38.01511 26.274535 
L 38.088905 27.297197 
L 38.093005 26.090675 
L 38.173828 27.968096 
L 38.200184 26.966066 
L 38.291549 27.824552 
L 38.30092 26.430848 
L 38.312048 27.283976 
L 38.337818 26.221208 
L 38.363588 27.896784 
L 38.423327 26.848225 
L 38.484237 27.831665 
L 38.445582 26.268561 
L 38.53402 26.881545 
L 38.64237 28.000674 
L 38.645298 26.293362 
L 38.721436 27.841082 
L 38.707966 26.214755 
L 38.756577 27.362972 
L 38.835643 26.220923 
L 38.78059 27.805386 
L 38.866684 27.154701 
L 38.885426 28.008816 
L 38.960393 26.077384 
L 38.977377 27.260655 
L 38.999047 26.295609 
L 39.047659 27.990107 
L 39.08807 26.661481 
L 39.124382 27.768372 
L 39.159523 26.273453 
L 39.199349 27.359997 
L 39.266702 26.352256 
L 39.219262 27.835825 
L 39.310628 26.897075 
L 39.401993 27.736051 
L 39.334055 26.083424 
L 39.421906 27.535453 
L 39.475203 26.160871 
L 39.450604 27.799989 
L 39.532599 27.586491 
L 39.602881 26.218983 
L 39.586482 27.773925 
L 39.646806 26.72305 
L 39.659106 27.877974 
L 39.669648 26.16323 
L 39.758085 27.235139 
L 39.769213 26.139974 
L 39.849451 27.865088 
L 39.868778 26.855586 
L 39.932617 27.974927 
L 39.9783 26.262697 
L 39.979471 27.394753 
L 39.981228 26.294022 
L 40.044481 27.959792 
L 40.09075 26.507131 
L 40.154003 28.08338 
L 40.118277 26.267842 
L 40.201443 26.705291 
L 40.28988 27.854103 
L 40.22077 26.067618 
L 40.316235 26.934623 
L 40.417558 26.252669 
L 40.359576 27.965288 
L 40.425171 27.158889 
L 40.440985 27.847767 
L 40.428685 26.306776 
L 40.535864 27.419363 
L 40.566905 26.143105 
L 40.565734 27.771205 
L 40.647143 27.060681 
L 40.749637 25.920591 
L 40.660614 28.090258 
L 40.753151 26.655828 
L 40.775992 27.810817 
L 40.78712 26.36423 
L 40.864429 27.032804 
L 40.876143 26.15655 
L 40.874972 27.864337 
L 40.975122 26.731455 
L 40.989764 28.16147 
L 41.005578 26.077628 
L 41.087572 27.678169 
L 41.143212 26.170316 
L 41.168982 27.828594 
L 41.198851 27.378241 
L 41.239848 26.34776 
L 41.209979 27.956924 
L 41.31013 27.007823 
L 41.397396 27.836051 
L 41.398567 26.30876 
L 41.421408 27.164295 
L 41.47002 26.362296 
L 41.441321 27.973499 
L 41.532101 26.674714 
L 41.603554 27.735794 
L 41.636352 26.323913 
L 41.64338 27.318714 
L 41.718347 26.281175 
L 41.697848 27.764836 
L 41.754659 26.825696 
L 41.839582 27.92379 
L 41.793313 26.25196 
L 41.864766 26.945381 
L 41.951446 26.356641 
L 41.953203 27.830778 
L 41.976045 26.81965 
L 42.046326 27.907501 
L 42.013528 26.212834 
L 42.087909 27.523617 
L 42.14882 26.265605 
L 42.187474 28.041077 
L 42.199188 27.04463 
L 42.224958 27.936535 
L 42.288211 26.371361 
L 42.309295 27.307248 
L 42.375477 26.048047 
L 42.412374 27.911951 
L 42.419988 27.542345 
L 42.501983 26.398318 
L 42.446344 27.773982 
L 42.533024 26.685134 
L 42.562308 27.960452 
L 42.616776 25.999744 
L 42.643717 26.941786 
L 42.6812 26.337037 
L 42.693499 28.187105 
L 42.754996 26.848828 
L 42.832891 27.757272 
L 42.821763 26.205068 
L 42.865689 27.264334 
L 42.919571 26.330789 
L 42.882673 27.789075 
L 42.976382 26.391181 
L 43.045491 27.927537 
L 42.984581 26.205545 
L 43.08766 27.12236 
L 43.170241 27.836375 
L 43.194253 26.299358 
L 43.19601 26.887391 
L 43.196596 26.218159 
L 43.202453 27.908631 
L 43.306703 27.014376 
L 43.413882 26.344886 
L 43.390455 27.800149 
L 43.416811 26.653217 
L 43.464251 27.921104 
L 43.482407 26.445926 
L 43.527504 27.817178 
L 43.581972 26.105034 
L 43.586072 27.98365 
L 43.638782 26.85961 
L 43.734248 26.350525 
L 43.699107 27.833545 
L 43.74479 27.084003 
L 43.834984 27.903552 
L 43.756504 26.321089 
L 43.854897 26.955839 
L 43.95622 26.373241 
L 43.938064 27.973295 
L 43.966176 26.50391 
L 44.053442 28.022811 
L 44.008931 25.988596 
L 44.078626 27.304589 
L 44.088583 26.442087 
L 44.172334 27.946046 
L 44.189905 27.120151 
L 44.229145 26.394338 
L 44.281856 27.778052 
L 44.300598 26.943067 
L 44.382007 26.331355 
L 44.411876 27.87039 
L 44.458731 26.047464 
L 44.473373 28.017101 
L 44.523155 26.786043 
L 44.536626 27.838464 
L 44.524912 26.422713 
L 44.633848 26.958059 
L 44.655518 26.43851 
L 44.731656 27.912385 
L 44.742784 26.459967 
L 44.777925 28.170513 
L 44.827707 26.245032 
L 44.854063 26.864619 
L 44.955385 26.318606 
L 44.924344 28.200148 
L 44.964756 26.891595 
L 44.992283 27.948094 
L 45.030352 26.225619 
L 45.075449 27.151753 
L 45.114689 26.374288 
L 45.159786 27.815111 
L 45.186142 27.244302 
L 45.269894 26.336835 
L 45.289807 27.774018 
L 45.296835 26.963285 
L 45.380001 27.843532 
L 45.303277 26.308004 
L 45.407528 26.929633 
L 45.435055 26.213426 
L 45.451454 28.037354 
L 45.515292 26.818795 
L 45.538134 27.938471 
L 45.604901 26.401334 
L 45.626571 27.115822 
L 45.644141 26.300754 
L 45.682796 27.861847 
L 45.73785 26.794093 
L 45.739021 27.867552 
L 45.794075 26.152285 
L 45.849128 27.047588 
L 45.864356 28.001104 
L 45.955136 26.219298 
L 45.95865 27.179924 
L 45.971535 26.39249 
L 46.055287 28.098133 
L 46.069929 26.856781 
L 46.168908 27.726275 
L 46.158952 26.245598 
L 46.181207 27.133181 
L 46.279016 26.367465 
L 46.192335 27.674172 
L 46.292486 26.848829 
L 46.342854 27.981026 
L 46.334069 26.135013 
L 46.403179 26.999128 
L 46.472289 27.900101 
L 46.444762 26.262515 
L 46.50333 26.889379 
L 46.508601 26.335633 
L 46.573025 28.022898 
L 46.614609 26.763352 
L 46.643892 27.805358 
L 46.621637 26.241939 
L 46.725302 27.406466 
L 46.799097 26.145231 
L 46.824867 27.97755 
L 46.835995 27.126802 
L 46.838337 27.916799 
L 46.898662 26.325865 
L 46.946688 27.434666 
L 46.967772 26.145081 
L 47.03981 27.957616 
L 47.058552 26.4786 
L 47.096035 27.986616 
L 47.147575 26.426644 
L 47.169831 26.679483 
L 47.277595 28.146799 
L 47.26881 26.338419 
L 47.281695 27.350289 
L 47.356662 26.261192 
L 47.354319 27.98731 
L 47.392388 27.275952 
L 47.486096 28.089383 
L 47.451541 26.392136 
L 47.492539 27.186616 
L 47.518309 26.171192 
L 47.589176 28.172852 
L 47.602646 26.557204 
L 47.709239 27.835161 
L 47.707482 26.399221 
L 47.713925 27.134967 
L 47.742037 26.188907 
L 47.757851 28.112716 
L 47.824618 27.098882 
L 47.871472 27.818027 
L 47.850973 26.223048 
L 47.934139 27.043605 
L 47.934725 26.224294 
L 48.036633 27.909863 
L 48.044832 27.381094 
L 48.153183 26.259738 
L 48.084073 27.790576 
L 48.156697 26.896215 
L 48.251576 26.302459 
L 48.204722 27.589789 
L 48.267975 26.425207 
L 48.345285 27.925744 
L 48.269732 26.206062 
L 48.37984 27.176655 
L 48.423766 26.108739 
L 48.487604 27.874529 
L 48.490533 26.92562 
L 48.498732 27.771795 
L 48.597712 26.221438 
L 48.601226 27.06561 
L 48.680878 26.268877 
L 48.634024 28.099943 
L 48.712504 26.675123 
L 48.799185 27.70954 
L 48.762287 26.436146 
L 48.823197 27.269996 
L 48.911635 26.273601 
L 48.827883 28.006669 
L 48.934476 27.141441 
L 48.975474 27.875341 
L 49.0071 26.061568 
L 49.044583 27.321003 
L 49.116036 26.172614 
L 49.114865 27.808026 
L 49.155276 27.196294 
L 49.246642 27.918502 
L 49.158205 26.40029 
L 49.265384 27.234902 
L 49.351478 25.732345 
L 49.347379 27.782228 
L 49.374905 26.800379 
L 49.437573 27.887887 
L 49.472714 26.432155 
L 49.486184 27.737825 
L 49.580478 26.278968 
L 49.542995 28.094365 
L 49.597463 27.177403 
L 49.704056 27.786272 
L 49.649588 26.436604 
L 49.704642 26.976051 
L 49.774923 26.226532 
L 49.782537 28.16077 
L 49.815335 27.03533 
L 49.870388 27.793171 
L 49.853404 26.046975 
L 49.926028 27.035979 
L 50.008608 26.203515 
L 49.956483 28.007216 
L 50.035549 27.263556 
L 50.119301 27.99198 
L 50.081818 26.371233 
L 50.146242 27.216613 
L 50.181969 26.203002 
L 50.177283 27.965063 
L 50.257521 27.057661 
L 50.261621 28.037267 
L 50.3647 26.217298 
L 50.369385 27.517487 
L 50.376414 26.382507 
L 50.388127 28.042139 
L 50.480664 27.118233 
L 50.576129 27.982917 
L 50.573201 26.299293 
L 50.591357 27.009933 
L 50.627083 27.772024 
L 50.616541 26.357451 
L 50.702636 27.239442 
L 50.762375 26.178677 
L 50.731334 27.737981 
L 50.813329 26.97887 
L 50.870725 27.834789 
L 50.835585 26.235205 
L 50.924022 27.383324 
L 50.945692 26.39838 
L 50.939835 28.030316 
L 51.0353 26.895166 
L 51.104996 27.879055 
L 51.069855 26.364284 
L 51.146579 27.141547 
L 51.193433 26.329438 
L 51.211589 28.246411 
L 51.257272 26.96956 
L 51.313497 27.94949 
L 51.301198 26.405798 
L 51.367379 27.233796 
L 51.415405 26.173137 
L 51.442346 27.993785 
L 51.478658 26.925105 
L 51.533712 27.833543 
L 51.490372 26.296081 
L 51.589351 27.145597 
L 51.63152 26.128666 
L 51.630349 28.086088 
L 51.699458 27.115124 
L 51.80898 27.894657 
L 51.704144 26.218152 
L 51.810737 27.417676 
L 51.840021 26.349618 
L 51.89566 27.90025 
L 51.92143 26.636454 
L 51.972384 27.962154 
L 51.982926 26.372321 
L 52.032709 27.039997 
L 52.03388 27.098746 
L 52.081906 26.267381 
L 52.135202 27.840157 
L 52.145159 26.754349 
L 52.160386 28.01322 
L 52.199627 26.165061 
L 52.256438 27.020508 
L 52.317934 26.250029 
L 52.281036 27.89799 
L 52.368302 26.810117 
L 52.375916 27.932013 
L 52.378258 26.362374 
L 52.470795 27.067179 
L 52.471381 26.194962 
L 52.483095 27.817495 
L 52.582074 26.744041 
L 52.684568 27.94578 
L 52.588517 26.222063 
L 52.693353 27.227282 
L 52.747821 26.220828 
L 52.697452 27.73944 
L 52.805217 26.740467 
L 52.839772 27.848068 
L 52.810488 26.306215 
L 52.91591 27.187835 
L 52.986191 26.272032 
L 53.01079 27.734084 
L 53.026603 27.164215 
L 53.061744 27.859214 
L 53.083999 26.244868 
L 53.137296 27.49685 
L 53.185907 26.556145 
L 53.238033 27.819406 
L 53.24916 26.752694 
L 53.32237 27.892118 
L 53.264974 26.387165 
L 53.360439 27.369461 
L 53.429549 26.391924 
L 53.440091 28.079326 
L 53.471718 27.007698 
L 53.478746 26.347426 
L 53.559569 27.97296 
L 53.582411 26.87769 
L 53.643321 28.209294 
L 53.690175 26.306458 
L 53.693104 27.374292 
L 53.728244 26.183462 
L 53.744643 27.896014 
L 53.803797 27.127358 
L 53.890477 27.949401 
L 53.895162 26.243018 
L 53.91449 26.698861 
L 54.003513 28.01342 
L 53.981843 26.324582 
L 54.025768 27.115181 
L 54.099564 27.68925 
L 54.057395 26.344997 
L 54.115963 27.02612 
" clip-path="url(#p39d7de9a9e)" style="fill: none; stroke: #1f77b4; stroke-width: 0.05; stroke-linecap: square"/>
   </g>
  </g>
 </g>
 <defs>
  <clipPath id="p39d7de9a9e">
   <rect x="0" y="0" width="56.692913" height="28.346457"/>
  </clipPath>
 </defs>
</svg>
