<?xml version="1.0" encoding="utf-8" standalone="no"?>
<!DOCTYPE svg PUBLIC "-//W3C//DTD SVG 1.1//EN"
  "http://www.w3.org/Graphics/SVG/1.1/DTD/svg11.dtd">
<svg xmlns:xlink="http://www.w3.org/1999/xlink" width="99.212598pt" height="51.023622pt" viewBox="0 0 99.212598 51.023622" xmlns="http://www.w3.org/2000/svg" version="1.1">
 <metadata>
  <rdf:RDF xmlns:dc="http://purl.org/dc/elements/1.1/" xmlns:cc="http://creativecommons.org/ns#" xmlns:rdf="http://www.w3.org/1999/02/22-rdf-syntax-ns#">
   <cc:Work>
    <dc:type rdf:resource="http://purl.org/dc/dcmitype/StillImage"/>
    <dc:date>2024-10-31T23:12:50.109571</dc:date>
    <dc:format>image/svg+xml</dc:format>
    <dc:creator>
     <cc:Agent>
      <dc:title>Matplotlib v3.8.4, https://matplotlib.org/</dc:title>
     </cc:Agent>
    </dc:creator>
   </cc:Work>
  </rdf:RDF>
 </metadata>
 <defs>
  <style type="text/css">*{stroke-linejoin: round; stroke-linecap: butt}</style>
 </defs>
 <g id="figure_1">
  <g id="patch_1">
   <path d="M 0 51.023622 
L 99.212598 51.023622 
L 99.212598 0 
L 0 0 
L 0 51.023622 
z
" style="fill: none"/>
  </g>
  <g id="axes_1">
   <g id="patch_2">
    <path d="M 0 51.023622 
L 99.212598 51.023622 
L 99.212598 -0 
L 0 -0 
L 0 51.023622 
z
" style="fill: none"/>
   </g>
   <g id="matplotlib.axis_1">
    <g id="xtick_1"/>
    <g id="xtick_2"/>
   </g>
   <g id="matplotlib.axis_2">
    <g id="ytick_1"/>
    <g id="ytick_2"/>
   </g>
   <g id="line2d_1">
    <path d="M 4.509664 -0 
L 4.574234 2.751348 
L 4.757698 45.331166 
L 4.88274 42.876159 
L 4.904264 41.798952 
L 4.950386 44.908969 
L 5.005732 49.849605 
L 5.061079 44.955853 
L 5.062104 44.947279 
L 5.081577 45.690289 
L 5.097976 45.554807 
L 5.261966 48.540016 
L 5.27119 47.916739 
L 5.286564 46.817145 
L 5.367534 49.475243 
L 5.377784 49.621304 
L 5.393158 48.344182 
L 5.411607 46.796541 
L 5.492576 49.755519 
L 5.493601 49.735425 
L 5.530499 47.415531 
L 5.625818 48.812604 
L 5.696539 48.357297 
L 5.749835 50.380866 
L 5.764184 50.47641 
L 5.777508 49.98216 
L 5.808256 48.099423 
L 5.900501 49.023174 
L 5.915875 49.972671 
L 5.963022 48.115148 
L 6.008119 48.763226 
L 6.099338 50.881606 
L 6.137261 49.334134 
L 6.154685 49.087693 
L 6.203881 49.741967 
L 6.211056 49.765662 
L 6.23053 49.268003 
L 6.250004 48.333201 
L 6.315599 50.773308 
L 6.316624 50.818151 
L 6.377095 49.485797 
L 6.405794 49.898085 
L 6.46729 49.007742 
L 6.510337 50.013009 
L 6.521611 50.949312 
L 6.602581 49.083239 
L 6.615905 49.601157 
L 6.70405 50.36855 
L 6.724548 49.597183 
L 6.737873 49.155957 
L 6.765546 50.295859 
L 6.821917 50.291978 
L 6.841391 50.875537 
L 6.85984 49.202324 
L 6.93056 50.093559 
L 6.964383 50.155278 
L 6.977707 49.997612 
L 7.061752 49.33264 
L 7.034079 50.433783 
L 7.09045 49.974479 
L 7.17142 50.958327 
L 7.150922 48.67313 
L 7.206268 50.199528 
L 7.319011 50.924041 
L 7.261615 49.864914 
L 7.324136 50.442723 
L 7.430729 48.736253 
L 7.360008 50.931939 
L 7.442003 49.482346 
L 7.501449 50.804121 
L 7.562945 50.399162 
L 7.57627 50.577216 
L 7.624442 49.53696 
L 7.630591 49.359439 
L 7.682863 50.764314 
L 7.735135 49.517939 
L 7.742309 49.63854 
L 7.877601 50.673182 
L 7.87965 50.661355 
L 7.949346 49.816869 
L 7.96267 50.870028 
L 7.96472 50.971609 
L 8.035441 49.064821 
L 8.072338 50.771909 
L 8.220954 49.672248 
L 8.159458 51.007337 
L 8.232228 50.072619 
L 8.2763 50.97656 
L 8.261951 49.781357 
L 8.356245 50.666048 
L 8.36137 50.743482 
L 8.405442 50.122491 
L 8.460789 50.498935 
L 8.489487 50.244762 
L 8.51716 50.878136 
L 8.560207 50.589295 
L 8.565332 50.868442 
L 8.650402 49.683536 
L 8.658601 49.520876 
L 8.708823 50.817276 
L 8.733421 50.776228 
L 8.744696 50.982944 
L 8.823616 50.633189 
L 8.835915 50.650681 
L 8.889212 49.499884 
L 8.91176 50.879911 
L 8.946608 50.598442 
L 8.972231 50.831156 
L 9.049101 50.241902 
L 9.062426 50.06608 
L 9.106498 50.417695 
L 9.15262 50.378355 
L 9.173119 50.892856 
L 9.255113 50.073508 
L 9.268438 50.622972 
L 9.289961 49.991249 
L 9.349408 50.775916 
L 9.379131 50.596273 
L 9.38118 50.584424 
L 9.39553 50.836381 
L 9.460101 50.828128 
L 9.46625 50.899743 
L 9.510322 50.362456 
L 9.536971 50.38851 
L 9.54722 50.165103 
L 9.589242 50.951509 
L 9.62409 50.789791 
L 9.726584 50.980812 
L 9.673287 50.001372 
L 9.733758 50.73376 
L 9.761431 49.846009 
L 9.849576 50.523908 
L 9.896723 50.983686 
L 9.910047 50.205938 
L 9.956169 50.34801 
L 9.988967 49.865297 
L 10.034064 51.002619 
L 10.065837 50.461409 
L 10.080186 50.440584 
L 10.120159 50.791327 
L 10.197029 51.003269 
L 10.183705 50.410195 
L 10.228802 50.760658 
L 10.323096 50.003919 
L 10.277999 51.015636 
L 10.346669 50.501068 
L 10.41534 50.815138 
L 10.432764 50.261695 
L 10.454288 50.476155 
L 10.491185 50.176647 
L 10.539357 50.899333 
L 10.556781 50.765931 
L 10.563956 50.739689 
L 10.567031 50.659946 
L 10.58138 50.163036 
L 10.6562 50.893384 
L 10.673624 50.729264 
L 10.676699 50.964291 
L 10.722821 50.249196 
L 10.784317 50.70836 
L 10.896035 50.0306 
L 10.910384 50.275875 
L 11.003653 50.981282 
L 11.034401 50.828714 
L 11.094872 50.25212 
L 11.066174 50.985906 
L 11.153293 50.415629 
L 11.201465 50.738738 
L 11.254762 50.309279 
L 11.277311 50.734422 
L 11.380829 50.992621 
L 11.315233 50.027715 
L 11.392103 50.794118 
L 11.506896 50.091866 
L 11.422851 50.939534 
L 11.512021 50.209064 
L 11.549943 50.993231 
L 11.611439 50.130639 
L 11.621689 50.176893 
L 11.670886 50.732376 
L 11.732382 50.977084 
L 11.687285 50.496254 
L 11.776454 50.680014 
L 11.870748 50.112178 
L 11.824626 51.004767 
L 11.885097 50.76152 
L 11.965042 51.016965 
L 11.908671 50.604623 
L 11.99989 50.901658 
L 12.041912 50.980187 
L 12.059336 50.480673 
L 12.16183 50.416735 
L 12.117757 50.847619 
L 12.166954 50.519421 
L 12.244849 50.377228 
L 12.285847 50.981122 
L 12.303271 49.981923 
L 12.406789 50.340385 
L 12.521582 50.992994 
L 12.494934 50.292682 
L 12.553355 50.607999 
L 12.647649 50.207067 
L 12.626125 50.993033 
L 12.667123 50.447371 
L 12.713245 51.001545 
L 12.699921 50.407292 
L 12.798314 50.890349 
L 12.846486 50.522234 
L 12.891584 51.009829 
L 12.910032 50.858833 
L 12.924381 50.981382 
L 12.939755 50.237682 
L 13.017651 50.686309 
L 13.0238 50.971502 
L 13.068897 50.289769 
L 13.11297 50.411999 
L 13.126294 50.02047 
L 13.169341 50.87912 
L 13.217513 50.698674 
L 13.301558 50.161955 
L 13.252361 50.850161 
L 13.323081 50.763627 
L 13.409176 50.989809 
L 13.374328 50.139647 
L 13.431724 50.695405 
L 13.504495 50.916219 
L 13.481946 50.471949 
L 13.547542 50.785883 
L 13.601864 50.627275 
L 13.57419 50.961938 
L 13.647986 50.922298 
L 13.723831 51.003694 
L 13.686933 50.499465 
L 13.74228 50.751119 
L 13.818125 50.2572 
L 13.773028 50.91244 
L 13.851948 50.803884 
L 13.880646 50.972035 
L 13.916519 50.294799 
L 13.963666 50.862772 
L 13.964691 50.863515 
L 13.971865 50.732358 
L 13.982115 50.509467 
L 14.040536 50.859185 
L 14.084608 50.657152 
L 14.171728 50.869035 
L 14.13278 50.40377 
L 14.197351 50.705633 
L 14.210675 50.18383 
L 14.250648 50.993152 
L 14.304969 50.816533 
L 14.346991 50.987187 
L 14.360316 50.623168 
L 14.413612 50.700823 
L 14.485358 50.343515 
L 14.460759 50.846249 
L 14.52533 50.684255 
L 14.630899 50.977527 
L 14.6022 50.362401 
L 14.636023 50.690891 
L 14.643198 50.348114 
L 14.656522 51.018347 
L 14.745691 50.788155 
L 14.850235 50.912767 
L 14.782589 50.371531 
L 14.855359 50.755404 
L 14.959903 50.429116 
L 14.890207 50.805151 
L 14.968102 50.68715 
L 14.978352 51.013346 
L 15.069571 50.262253 
L 15.070596 50.266903 
L 15.176164 51.005426 
L 15.216137 50.823791 
L 15.232535 50.990202 
L 15.336054 50.459422 
L 15.344253 50.392682 
L 15.413949 50.822679 
L 15.435473 50.637636 
L 15.532841 50.947847 
L 15.449822 50.496123 
L 15.552315 50.71599 
L 15.658909 50.406547 
L 15.615861 50.969668 
L 15.665058 50.588885 
L 15.756277 51.008103 
L 15.778826 50.76768 
L 15.891569 50.615758 
L 15.810599 51.01236 
L 15.894644 50.666435 
L 15.999187 50.99182 
L 15.967414 50.506745 
L 16.006362 50.685443 
L 16.038135 50.444811 
L 16.097581 51.004544 
L 16.121154 50.609551 
L 16.132429 50.729022 
L 16.138578 50.937904 
L 16.169326 50.511752 
L 16.240047 50.655146 
L 16.34254 50.50586 
L 16.282069 50.926289 
L 16.34869 50.693124 
L 16.353815 51.00456 
L 16.441959 50.510424 
L 16.462458 50.85924 
L 16.495256 50.475832 
L 16.487056 50.997775 
L 16.57725 50.697769 
L 16.578275 50.698754 
L 16.586475 50.55396 
L 16.58955 50.519712 
L 16.647971 51.010202 
L 16.684869 50.755155 
L 16.800686 51.005031 
L 16.805811 50.856147 
L 16.876532 50.546694 
L 16.817085 50.966635 
L 16.917529 50.822204 
L 16.979025 51.000336 
L 16.942127 50.532276 
L 17.032322 50.93906 
L 17.175813 50.650621 
L 17.186062 50.759177 
L 17.268057 50.997832 
L 17.225009 50.663244 
L 17.29573 50.731306 
L 17.357226 50.278898 
L 17.323403 51.014105 
L 17.402323 50.798843 
L 17.504817 51.018673 
L 17.481243 50.421354 
L 17.519166 50.945772 
L 17.520191 50.946262 
L 17.529415 50.830214 
L 17.567338 50.678952 
L 17.584762 51.003233 
L 17.641133 50.827166 
L 17.702629 51.014146 
L 17.732352 50.489593 
L 17.736452 50.414424 
L 17.813322 51.004521 
L 17.834846 50.728281 
L 17.92094 50.960238 
L 17.85637 50.621491 
L 17.950664 50.737431 
L 18.024459 50.653249 
L 18.01216 51.005532 
L 18.053157 50.862812 
L 18.057257 50.951579 
L 18.132077 50.569757 
L 18.1577 50.634638 
L 18.1618 50.564064 
L 18.258144 50.928784 
L 18.263269 50.998408 
L 18.299142 50.377542 
L 18.369862 50.944786 
L 18.39651 50.585162 
L 18.471331 50.991524 
L 18.480555 50.943623 
L 18.497979 50.812506 
L 18.570749 51.011644 
L 18.596373 50.892065 
L 18.612772 50.915563 
L 18.634295 50.677497 
L 18.687592 50.378041 
L 18.671193 51.016341 
L 18.740889 50.714399 
L 18.80546 51.023281 
L 18.833133 50.42902 
L 18.854656 50.847878 
L 18.888479 50.6305 
L 18.900778 50.971633 
L 18.95305 50.914172 
L 18.96125 50.998375 
L 19.016596 50.686178 
L 19.073993 50.660158 
L 19.02992 50.962158 
L 19.107815 50.771991 
L 19.207234 51.005353 
L 19.179561 50.549097 
L 19.224658 50.903761 
L 19.288204 50.969915 
L 19.27283 50.528746 
L 19.336376 50.917789 
L 19.352775 50.58686 
L 19.401972 50.970687 
L 19.447069 50.921825 
L 19.448094 50.92232 
L 19.454243 50.812244 
L 19.482942 50.697072 
L 19.521889 50.911178 
L 19.565961 50.799959 
L 19.59056 50.698298 
L 19.644881 50.88294 
L 19.700228 50.9903 
L 19.675629 50.625757 
L 19.739175 50.706617 
L 19.797597 50.611353 
L 19.769924 50.995247 
L 19.822195 50.895526 
L 19.893941 51.003967 
L 19.832445 50.548884 
L 19.930838 50.804488 
L 20.018983 50.673703 
L 19.947237 51.017878 
L 20.033332 50.843665 
L 20.040506 51.018958 
L 20.109177 50.618262 
L 20.133776 50.619625 
L 20.224995 50.981291 
L 20.248568 50.635656 
L 20.249593 50.635068 
L 20.253693 50.737803 
L 20.367461 50.987781 
L 20.299815 50.574087 
L 20.368486 50.918879 
L 20.403333 50.680726 
L 20.384885 51.010467 
L 20.478154 50.991157 
L 20.479179 51.011086 
L 20.491478 50.6569 
L 20.578597 50.796838 
L 20.683141 50.547143 
L 20.643168 51.009899 
L 20.692365 50.758825 
L 20.76821 51.012116 
L 20.781535 50.605697 
L 20.802033 50.768572 
L 20.85123 50.633092 
L 20.864554 51.000124 
L 20.907602 50.864345 
L 20.985497 51.015206 
L 20.944499 50.580368 
L 21.022394 50.987526 
L 21.09619 50.697062 
L 21.144362 50.718369 
L 21.198683 50.510297 
L 21.165885 50.966379 
L 21.244805 50.831569 
L 21.301177 51.007509 
L 21.311426 50.540216 
L 21.353448 50.80236 
L 21.377022 51.000784 
L 21.400595 50.669862 
L 21.473366 50.849362 
L 21.497964 50.634157 
L 21.514363 51.018578 
L 21.584059 50.848328 
L 21.626081 50.926142 
L 21.639405 50.673464 
L 21.673228 50.717642 
L 21.678353 50.667628 
L 21.71935 50.953103 
L 21.767522 50.923158 
L 21.786996 51.005278 
L 21.80442 50.546798 
L 21.872066 50.766318 
L 21.87514 50.74146 
L 21.965335 50.982584 
L 21.976609 50.857184 
L 22.067828 50.975063 
L 21.985833 50.703461 
L 22.087302 50.867112 
L 22.099601 50.895108 
L 22.107801 50.765858 
L 22.173397 50.694569 
L 22.150848 50.974789 
L 22.209269 50.886538 
L 22.290239 50.999617 
L 22.252317 50.664427 
L 22.320987 50.928595 
L 22.35071 50.475198 
L 22.382483 51.016431 
L 22.43578 50.819284 
L 22.460378 51.019841 
L 22.501376 50.655582 
L 22.546473 50.830249 
L 22.557747 50.671632 
L 22.605919 50.965387 
L 22.647942 50.958302 
L 22.746335 51.011314 
L 22.687914 50.574453 
L 22.752485 50.901598 
L 22.766834 50.55238 
L 22.811931 50.990943 
L 22.875477 50.602697 
L 22.964646 50.99883 
L 23.004619 50.766577 
L 23.005644 50.765738 
L 23.011794 50.890961 
L 23.075339 51.021714 
L 23.033317 50.640615 
L 23.121462 50.875312 
L 23.122487 50.874735 
L 23.131711 50.987882 
L 23.134786 51.0206 
L 23.213706 50.702457 
L 23.22088 50.529257 
L 23.269052 50.987598 
L 23.319274 50.849785 
L 23.374621 51.009355 
L 23.400244 50.571458 
L 23.430992 50.873651 
L 23.458665 50.975975 
L 23.479164 50.661734 
L 23.481214 50.627606 
L 23.496588 50.979997 
L 23.583707 50.840553 
L 23.697475 50.772136 
L 23.685176 51.006003 
L 23.6985 50.773507 
L 23.798944 50.993288 
L 23.812268 50.795023 
L 23.911687 50.659639 
L 23.867614 50.996623 
L 23.920911 50.809072 
L 24.01213 50.996188 
L 23.93936 50.523851 
L 24.036729 50.955899 
L 24.149472 50.723234 
L 24.042878 51.001545 
L 24.168945 50.935908 
L 24.182269 51.016675 
L 24.195594 50.875544 
L 24.279638 50.955097 
L 24.303212 50.78273 
L 24.312436 51.0192 
L 24.392381 50.926951 
L 24.454902 51.004004 
L 24.423129 50.744354 
L 24.48975 50.784533 
L 24.505124 50.731294 
L 24.519473 50.999646 
L 24.593269 50.905804 
L 24.648615 50.974469 
L 24.612742 50.696154 
L 24.695762 50.795178 
L 24.821829 50.99252 
L 24.704986 50.715074 
L 24.826954 50.972708 
L 24.921248 50.700434 
L 24.895624 51.000087 
L 24.942771 50.881752 
L 24.947896 51.020462 
L 25.026816 50.35 
L 25.051415 50.833096 
L 25.072938 50.603441 
L 25.108811 51.011264 
L 25.160058 50.923283 
L 25.222579 50.988984 
L 25.246152 50.807237 
L 25.267676 50.845593 
L 25.371194 51.009306 
L 25.304574 50.774311 
L 25.382469 50.890674 
L 25.470613 50.6845 
L 25.484962 51.015105 
L 25.492137 50.937672 
L 25.520835 51.008485 
L 25.577206 50.676914 
L 25.625378 51.013931 
L 25.721722 50.85946 
L 25.816016 50.672478 
L 25.767844 51.010004 
L 25.834465 50.753721 
L 25.836515 50.754586 
L 25.844714 50.857749 
L 25.853939 51.020999 
L 25.913385 50.72899 
L 25.949258 50.761148 
L 25.992305 51.016266 
L 26.017928 50.610264 
L 26.07635 50.881753 
L 26.139896 50.549703 
L 26.161419 51.007116 
L 26.188068 50.821366 
L 26.261863 51.010261 
L 26.209591 50.780213 
L 26.298761 50.851667 
L 26.377681 50.983245 
L 26.329509 50.719519 
L 26.415603 50.867007 
L 26.500673 50.681772 
L 26.459675 51.00368 
L 26.519122 50.901805 
L 26.609316 50.998724 
L 26.580618 50.609582 
L 26.62264 50.795085 
L 26.62674 50.718493 
L 26.644164 51.003943 
L 26.732308 50.830796 
L 26.799954 51.017399 
L 26.743583 50.820781 
L 26.854276 50.960197 
L 26.920896 50.646356 
L 26.86555 50.992576 
L 26.999816 50.890727 
L 27.01724 50.945302 
L 27.063362 50.686493 
L 27.10231 50.735192 
L 27.135108 50.625696 
L 27.152532 50.884688 
L 27.186355 50.996667 
L 27.25605 50.714563 
L 27.269374 50.666342 
L 27.302172 51.009738 
L 27.340095 51.00393 
L 27.34112 51.01749 
L 27.42004 50.762114 
L 27.437464 50.832675 
L 27.470262 50.730671 
L 27.449763 50.995521 
L 27.538932 50.975128 
L 27.560456 50.992177 
L 27.551231 50.761961 
L 27.615802 50.872308 
L 27.689598 50.663554 
L 27.701897 50.982428 
L 27.722396 50.904408 
L 27.81874 51.010878 
L 27.799266 50.793275 
L 27.831039 50.880007 
L 27.844363 50.627614 
L 27.852562 51.018479 
L 27.940707 50.920618 
L 27.981704 50.78044 
L 27.950956 51.018728 
L 28.050375 50.942802 
L 28.091372 50.993324 
L 28.12827 50.73633 
L 28.156968 50.87524 
L 28.175417 50.884876 
L 28.194891 50.777737 
L 28.309683 50.59271 
L 28.27996 50.847794 
L 28.312758 50.612574 
L 28.326082 51.014207 
L 28.433701 50.825913 
L 28.434726 50.811862 
L 28.44805 51.008437 
L 28.538244 50.913077 
L 28.544394 51.017011 
L 28.600765 50.76849 
L 28.652012 50.972512 
L 28.712483 50.860771 
L 28.749381 50.991376 
L 28.766805 50.918332 
L 28.862124 50.998608 
L 28.824201 50.736876 
L 28.870323 50.889057 
L 28.929769 50.672192 
L 28.901071 51.00467 
L 28.976916 50.965228 
L 29.048662 51.005012 
L 29.032263 50.698698 
L 29.086584 50.947838 
L 29.090684 51.017308 
L 29.145006 50.814853 
L 29.228025 50.76256 
L 29.15628 51.015954 
L 29.253649 50.849435 
L 29.361267 50.657137 
L 29.266973 50.993342 
L 29.375616 50.798631 
L 29.495533 50.962444 
L 29.463761 50.599312 
L 29.498608 50.953596 
L 29.588803 50.66009 
L 29.529356 51.000084 
L 29.624675 50.900143 
L 29.651324 51.010754 
L 29.637999 50.741144 
L 29.730244 50.83828 
L 29.737418 50.703196 
L 29.796864 51.016508 
L 29.839912 50.858515 
L 29.901408 51.01259 
L 29.94958 50.847755 
L 29.952655 50.809181 
L 30.03055 51.013699 
L 30.059248 50.861871 
L 30.139193 50.997539 
L 30.098195 50.69966 
L 30.165841 50.803368 
L 30.209913 50.71433 
L 30.18224 51.003169 
L 30.26936 50.923261 
L 30.279609 51.01562 
L 30.369803 50.779338 
L 30.376978 50.827125 
L 30.438474 50.803509 
L 30.431299 50.985921 
L 30.458973 50.970645 
L 30.461022 51.018316 
L 30.547117 50.696668 
L 30.559416 50.710537 
L 30.57889 50.669737 
L 30.622962 50.998662 
L 30.65576 50.881731 
L 30.741855 51.011426 
L 30.760304 50.746221 
L 30.765428 50.646278 
L 30.804376 51.017144 
L 30.863822 50.967649 
L 30.904819 50.973757 
L 30.89457 50.681196 
L 30.949917 50.805536 
L 31.002188 50.749518 
L 30.991939 51.015235 
L 31.061634 50.800528 
L 31.114931 51.006425 
L 31.183602 50.943705 
L 31.207175 50.731515 
L 31.224599 51.005469 
L 31.296345 50.922073 
L 31.326068 51.015818 
L 31.36809 50.672981 
L 31.393713 50.738176 
L 31.394738 50.722634 
L 31.479808 51.003024 
L 31.496207 50.869452 
L 31.563853 51.016747 
L 31.596651 50.768017 
L 31.603825 50.803205 
L 31.609975 50.723994 
L 31.617149 50.97162 
L 31.710418 50.869162 
L 31.821111 51.010742 
L 31.745266 50.708229 
L 31.826236 50.949386 
L 31.867234 50.789012 
L 31.888757 50.982767 
L 31.932829 50.977849 
L 31.979976 51.010979 
L 31.967677 50.590262 
L 32.036348 50.892112 
L 32.133717 50.724615 
L 32.062996 51.008095 
L 32.146016 50.947537 
L 32.154215 50.741809 
L 32.231085 51.00767 
L 32.267983 50.831719 
L 32.303856 51.00911 
L 32.287457 50.754986 
L 32.379701 50.858479 
L 32.451447 50.625899 
L 32.429923 51.012537 
L 32.48117 50.945084 
L 32.484244 51.011299 
L 32.572389 50.731347 
L 32.592888 50.963375 
L 32.619536 50.708197 
L 32.654384 51.017602 
L 32.70563 50.880689 
L 32.764052 51.017987 
L 32.748678 50.805435 
L 32.816323 50.886736 
L 32.831698 50.769256 
L 32.876795 51.009937 
L 32.921892 50.948491 
L 32.95674 50.763055 
L 33.014136 51.014653 
L 33.038734 50.907245 
L 33.141228 51.00556 
L 33.091006 50.803816 
L 33.150452 50.917157 
L 33.184275 50.655422 
L 33.224248 51.001022 
L 33.26217 50.911466 
L 33.333916 51.021796 
L 33.308292 50.831533 
L 33.373888 50.916981 
L 33.425135 50.747187 
L 33.396437 50.993194 
L 33.480481 50.955798 
L 33.555302 51.008448 
L 33.544027 50.709415 
L 33.568626 50.821881 
L 33.601424 50.759248 
L 33.665995 50.934873 
L 33.677269 50.842418 
L 33.73774 51.011753 
L 33.697768 50.7649 
L 33.792062 50.878425 
L 33.805386 50.695753 
L 33.831009 51.0128 
L 33.90173 50.898535 
L 33.948877 51.014066 
L 33.989874 50.761328 
L 34.014473 50.958784 
L 34.067769 50.795754 
L 34.080069 51.012537 
L 34.128241 50.862879 
L 34.236884 51.015147 
L 34.218435 50.759143 
L 34.243033 50.917162 
L 34.265582 50.807476 
L 34.350651 51.009806 
L 34.441871 50.711063 
L 34.366025 51.015358 
L 34.470569 50.848068 
L 34.581262 51.014601 
L 34.478768 50.805243 
L 34.585362 50.928951 
L 34.637633 50.730475 
L 34.598686 51.002214 
L 34.698104 50.894581 
L 34.799573 50.761186 
L 34.723728 51.008054 
L 34.824172 50.881817 
L 34.871319 51.007303 
L 34.916416 50.795877 
L 34.93179 50.821819 
L 34.936914 50.761865 
L 34.964588 51.002598 
L 35.036333 50.948634 
L 35.038383 51.012024 
L 35.045558 50.703073 
L 35.148051 50.981892 
L 35.258744 51.00869 
L 35.194173 50.733192 
L 35.259769 51.002243 
L 35.282318 50.800305 
L 35.32844 51.012667 
L 35.378661 50.922503 
L 35.483205 51.017864 
L 35.471931 50.762383 
L 35.489354 50.929605 
L 35.553925 50.778352 
L 35.534452 51.011459 
L 35.605172 50.873482 
L 35.665643 51.00974 
L 35.698441 50.705553 
L 35.700491 50.679548 
L 35.708691 51.007683 
L 35.80196 50.85603 
L 35.839882 51.019644 
L 35.903428 50.763088 
L 35.919827 50.999867 
L 35.9516 50.854999 
L 36.055119 50.790916 
L 36.03052 51.016308 
L 36.063318 50.841772 
L 36.073568 50.772432 
L 36.138138 51.012784 
L 36.162737 51.014953 
L 36.19656 50.811166 
L 36.212959 50.865159 
L 36.313402 50.741819 
L 36.297003 50.996256 
L 36.317502 50.907793 
L 36.366699 51.005023 
L 36.359524 50.872151 
L 36.428195 50.891835 
L 36.450744 50.74188 
L 36.473292 51.003265 
L 36.537863 50.931753 
L 36.549137 51.009469 
L 36.556312 50.801753 
L 36.645481 50.875741 
L 36.678279 51.01762 
L 36.67008 50.828795 
L 36.768474 50.965228 
L 36.794097 50.719839 
L 36.851493 51.010661 
L 36.885316 50.846256 
L 36.889416 51.013369 
L 36.966286 50.67885 
L 36.997034 50.939178 
L 37.031882 50.739442 
L 37.071854 51.022349 
L 37.106702 50.995414 
L 37.155899 50.714071 
L 37.198946 51.008577 
L 37.22457 50.871434 
L 37.322963 51.011267 
L 37.238919 50.855408 
L 37.359861 50.903322 
L 37.466454 50.832857 
L 37.392659 51.0111 
L 37.472604 50.89815 
L 37.551524 50.997603 
L 37.501302 50.795012 
L 37.586372 50.932497 
L 37.597646 50.723818 
L 37.614045 51.007637 
L 37.70014 50.871943 
L 37.787259 51.007589 
L 37.721663 50.751471 
L 37.811858 50.926876 
L 37.861054 50.761554 
L 37.870279 51.007888 
L 37.925625 50.862973 
L 37.976872 50.987036 
L 37.956373 50.766872 
L 38.026069 50.809458 
L 38.124463 50.752141 
L 38.093715 50.975925 
L 38.131637 50.877049 
L 38.174685 51.02033 
L 38.16546 50.811969 
L 38.24233 50.880512 
L 38.322275 50.783762 
L 38.308951 51.01757 
L 38.351998 50.885695 
L 38.442193 51.001562 
L 38.426819 50.713313 
L 38.459617 50.841672 
L 38.541611 51.015592 
L 38.599008 50.97664 
L 38.609257 50.833486 
L 38.617457 50.995315 
L 38.71585 50.966453 
L 38.779396 51.018428 
L 38.755823 50.809152 
L 38.823469 50.940155 
L 38.847042 50.757402 
L 38.899314 50.998575 
L 38.935187 50.905045 
L 38.940311 51.005031 
L 38.947486 50.77213 
L 39.036655 50.880344 
L 39.03973 50.809179 
L 39.075603 51.012109 
L 39.146323 50.895313 
L 39.207819 51.014257 
L 39.173996 50.783167 
L 39.253941 50.8283 
L 39.325687 50.72642 
L 39.281615 50.985311 
L 39.360535 50.852677 
L 39.441505 50.99926 
L 39.427155 50.794183 
L 39.476352 50.966452 
L 39.50915 50.863994 
L 39.530674 50.78795 
L 39.51735 51.015614 
L 39.613694 50.967577 
L 39.627018 51.017326 
L 39.652641 50.76496 
L 39.720287 50.891997 
L 39.734636 50.776612 
L 39.811506 50.951422 
L 39.83303 50.850666 
L 39.859678 51.017494 
L 39.845329 50.82081 
L 39.950897 50.97407 
L 39.964221 50.811394 
L 40.005219 50.999385 
L 40.06364 50.920844 
L 40.141535 51.022523 
L 40.110787 50.801308 
L 40.181508 50.982067 
L 40.280926 50.772525 
L 40.228655 51.011371 
L 40.3045 50.899872 
L 40.411093 51.016498 
L 40.320899 50.852914 
L 40.415193 50.930331 
L 40.505387 50.812255 
L 40.470539 51.000457 
L 40.526911 50.894298 
L 40.53716 51.015927 
L 40.602756 50.722822 
L 40.637604 50.886489 
L 40.704225 50.834935 
L 40.684751 51.018149 
L 40.743172 50.951774 
L 40.840541 51.010028 
L 40.768796 50.826703 
L 40.846691 50.889607 
L 40.880514 50.819213 
L 40.910237 51.01254 
L 40.957384 50.892454 
L 41.027079 51.007502 
L 40.973783 50.743661 
L 41.068077 50.888873 
L 41.113174 51.016996 
L 41.136747 50.759741 
L 41.17057 50.838736 
L 41.276139 50.824994 
L 41.177745 51.011166 
L 41.279213 50.858053 
L 41.320211 51.005253 
L 41.370433 50.829506 
L 41.389906 50.888456 
L 41.394006 50.798223 
L 41.423729 51.012187 
L 41.499574 50.920023 
L 41.587719 50.771148 
L 41.513923 51.016861 
L 41.608218 50.920855 
L 41.695337 50.994789 
L 41.621542 50.795433 
L 41.717886 50.876389 
L 41.776307 50.783151 
L 41.798855 51.019383 
L 41.814229 50.98455 
L 41.817304 51.00865 
L 41.868551 50.795765 
L 41.917748 50.898378 
L 41.95977 50.793201 
L 42.002818 51.009874 
L 42.017167 50.975836 
L 42.107361 51.017282 
L 42.100186 50.766109 
L 42.124785 50.941326 
L 42.134009 50.785642 
L 42.176032 51.002537 
L 42.234453 50.9422 
L 42.2857 51.013927 
L 42.293899 50.766892 
L 42.346171 50.96932 
L 42.397418 50.711535 
L 42.373844 50.996885 
L 42.471213 50.866792 
L 42.577806 51.017149 
L 42.504011 50.803551 
L 42.584981 50.909389 
L 42.625978 50.801653 
L 42.604455 50.985427 
L 42.701823 50.951125 
L 42.803292 51.007929 
L 42.785868 50.822478 
L 42.811491 50.933596 
L 42.843264 50.78537 
L 42.835065 51.006314 
L 42.921159 50.924979 
L 42.956007 51.01894 
L 43.013404 50.793003 
L 43.030828 50.912851 
L 43.093349 50.784778 
L 43.045177 50.997752 
L 43.140496 50.929525 
L 43.23479 51.020603 
L 43.240939 50.839528 
L 43.258363 50.986709 
L 43.286036 50.841376 
L 43.274762 51.009931 
L 43.368031 50.996432 
L 43.462325 51.018539 
L 43.449001 50.761957 
L 43.470525 50.910908 
L 43.54022 50.829088 
L 43.575068 51.011166 
L 43.580193 50.919027 
L 43.670387 51.007359 
L 43.63144 50.796688 
L 43.694986 50.934046 
L 43.751357 50.830286 
L 43.724709 51.006563 
L 43.802604 50.964753 
L 43.880499 50.986595 
L 43.856925 50.867171 
L 43.910222 50.930248 
L 43.984017 50.855417 
L 43.918421 50.999764 
L 43.994267 51.002215 
L 43.998366 51.02175 
L 44.029114 50.850426 
L 44.087536 50.902758 
L 44.141857 50.813296 
L 44.127508 51.022571 
L 44.185929 50.974878 
L 44.217702 51.007799 
L 44.239226 50.799961 
L 44.296622 50.999544 
L 44.301747 50.804056 
L 44.320196 51.012802 
L 44.40834 50.938025 
L 44.515959 51.011449 
L 44.462662 50.76311 
L 44.519033 50.947316 
L 44.551831 50.842986 
L 44.57438 51.008015 
L 44.626652 50.98923 
L 44.662524 50.834677 
L 44.630751 51.007909 
L 44.763993 50.916479 
L 44.876736 51.004902 
L 44.800891 50.704682 
L 44.877761 50.97062 
L 44.97308 50.746474 
L 44.927983 51.01691 
L 44.990504 50.890868 
L 45.088897 51.017107 
L 45.016127 50.847302 
L 45.103246 50.952664 
L 45.183191 50.78181 
L 45.136044 51.014021 
L 45.214964 50.941717 
L 45.324632 50.847717 
L 45.263136 51.000865 
L 45.331807 50.890721 
L 45.412777 51.012998 
L 45.398428 50.81308 
L 45.445575 50.942272 
L 45.513221 50.850295 
L 45.461974 51.012079 
L 45.557293 50.935452 
L 45.584966 51.021208 
L 45.611614 50.77255 
L 45.669011 50.973356 
L 45.768429 50.77522 
L 45.706933 51.013267 
L 45.783803 50.83766 
L 45.825826 50.7871 
L 45.795078 50.996514 
L 45.882197 50.947461 
L 45.963167 51.01874 
L 45.978541 50.833273 
L 45.99289 50.939761 
L 46.07386 51.013862 
L 46.056436 50.868557 
L 46.105633 50.971065 
L 46.212226 50.772252 
L 46.189678 51.011182 
L 46.218376 50.905818 
L 46.31677 51.014897 
L 46.225551 50.80414 
L 46.329069 50.890667 
L 46.418238 51.013572 
L 46.340343 50.765619 
L 46.441812 50.905795 
L 46.546355 50.826616 
L 46.502283 51.014559 
L 46.55353 50.90964 
L 46.645774 51.016769 
L 46.6222 50.801403 
L 46.668323 50.967319 
L 46.783115 50.801452 
L 46.681647 51.008384 
L 46.785165 50.808762 
L 46.882534 51.011963 
L 46.913282 50.955258 
L 47.000402 50.741701 
L 46.919432 51.008737 
L 47.026025 50.924479 
L 47.051648 50.800207 
L 47.082396 51.021526 
L 47.132618 50.954634 
L 47.159266 51.007896 
L 47.218713 50.787359 
L 47.239211 50.852296 
L 47.254585 50.812099 
L 47.26586 51.00583 
L 47.332481 50.952227 
L 47.34683 51.020415 
L 47.378603 50.862596 
L 47.438049 50.895105 
L 47.537468 50.782826 
L 47.449323 51.009329 
L 47.543617 50.924613 
L 47.58154 51.02288 
L 47.634836 50.81542 
L 47.653285 50.906448 
L 47.74348 50.770696 
L 47.719906 51.022246 
L 47.763978 50.895673 
L 47.780377 51.007387 
L 47.825474 50.802859 
L 47.876721 50.974819 
L 47.909519 50.835432 
L 47.883896 51.015648 
L 47.991514 50.958405 
L 48.083758 51.021466 
L 48.074534 50.864966 
L 48.102207 50.948722 
L 48.183177 50.739501 
L 48.203675 51.016872 
L 48.21085 50.955072 
L 48.238523 51.008134 
L 48.217 50.797386 
L 48.320518 50.944917 
L 48.402513 50.801919 
L 48.414812 51.012249 
L 48.432236 50.926898 
L 48.454785 50.821238 
L 48.509106 51.016099 
L 48.536779 51.003182 
L 48.606475 51.019012 
L 48.615699 50.763223 
L 48.626974 50.858759 
L 48.634148 50.650047 
L 48.731517 51.005378 
L 48.734592 50.995393 
L 48.889357 50.875207 
L 48.895507 50.960689 
L 48.962127 51.019254 
L 48.916005 50.782337 
L 49.003125 50.911934 
L 49.096394 50.798144 
L 49.043097 50.985549 
L 49.102544 50.9756 
L 49.107668 51.014484 
L 49.156865 50.704889 
L 49.210162 50.939479 
L 49.243985 50.804086 
L 49.218361 51.007269 
L 49.320855 50.933643 
L 49.416174 51.014676 
L 49.348528 50.782433 
L 49.432573 50.966755 
L 49.451022 50.74702 
L 49.480745 51.011915 
L 49.541216 50.993925 
L 49.577089 50.78586 
L 49.661133 50.992311 
L 49.723654 51.017018 
L 49.688806 50.869608 
L 49.771826 50.998359 
L 49.7913 51.00043 
L 49.799499 50.8491 
L 49.800524 50.842854 
L 49.827173 51.01984 
L 49.903018 50.903858 
L 49.974763 51.013343 
L 49.962464 50.809373 
L 50.012686 50.883794 
L 50.029085 50.78755 
L 50.038309 51.008915 
L 50.121329 50.896426 
L 50.224848 51.020292 
L 50.142853 50.779729 
L 50.229972 50.874537 
L 50.316067 50.830753 
L 50.237147 50.983286 
L 50.334516 50.932715 
L 50.344765 50.858184 
L 50.382688 51.006717 
L 50.41651 50.988171 
L 50.43086 51.016549 
L 50.456483 50.809578 
L 50.525154 50.922838 
L 50.5764 51.019081 
L 50.567176 50.848238 
L 50.581525 50.854597 
L 50.58665 50.729765 
L 50.644046 51.019379 
L 50.690168 50.923612 
L 50.701442 50.827141 
L 50.735265 51.019798 
L 50.797786 50.947599 
L 50.872607 51.017429 
L 50.853133 50.834482 
L 50.907454 50.969621 
L 50.934103 50.745334 
L 50.998674 51.01456 
L 51.019172 50.934002 
L 51.042746 50.797658 
L 51.087843 51.008701 
L 51.123716 50.968807 
L 51.201611 51.019838 
L 51.182137 50.828026 
L 51.230309 50.923649 
L 51.259007 50.775905 
L 51.29283 51.01141 
L 51.337927 50.982182 
L 51.398398 51.010185 
L 51.430171 50.833567 
L 51.44452 50.913934 
L 51.462969 50.786162 
L 51.45477 51.008525 
L 51.557263 50.869372 
L 51.653607 50.997379 
L 51.581862 50.83569 
L 51.678206 50.91711 
L 51.734577 50.803421 
L 51.697679 51.0206 
L 51.783774 50.986749 
L 51.865769 51.007824 
L 51.854495 50.8002 
L 51.890367 50.947786 
L 52.00311 50.819965 
L 51.983636 51.004468 
L 52.00516 50.841827 
L 52.108678 51.009764 
L 52.043083 50.824843 
L 52.116878 50.8685 
L 52.214247 51.007373 
L 52.161975 50.839091 
L 52.225521 50.85724 
L 52.32699 51.022154 
L 52.339289 50.790664 
L 52.340314 50.787128 
L 52.347488 51.005671 
L 52.402835 50.967763 
L 52.496104 51.017913 
L 52.488929 50.825824 
L 52.513528 50.983649 
L 52.55965 50.724917 
L 52.524802 50.994477 
L 52.63242 50.88724 
L 52.696991 51.019923 
L 52.705191 50.801473 
L 52.748238 50.984762 
L 52.858931 50.835839 
L 52.768737 51.008796 
L 52.860981 50.890063 
L 52.880455 51.016234 
L 52.9563 50.767342 
L 52.973724 50.971042 
L 53.02907 51.007816 
L 52.989098 50.833664 
L 53.082367 50.95085 
L 53.19101 50.773313 
L 53.121314 51.013409 
L 53.19921 50.879405 
L 53.289404 51.012227 
L 53.210484 50.801743 
L 53.308878 50.85134 
L 53.341675 51.019864 
L 53.363199 50.809648 
L 53.42367 50.883094 
L 53.495416 50.766196 
L 53.440069 51.018525 
L 53.536413 50.856287 
L 53.636857 51.018821 
L 53.647106 50.851568 
L 53.772148 51.008389 
L 53.663505 50.831999 
L 53.780348 50.92517 
L 53.812121 50.796225 
L 53.796747 51.004426 
L 53.893091 50.92794 
L 53.900265 51.014886 
L 53.950487 50.805004 
L 54.007883 50.973455 
L 54.021208 50.782299 
L 54.031457 51.008548 
L 54.118576 50.968954 
L 54.153424 51.019818 
L 54.167773 50.811197 
L 54.228244 50.943601 
L 54.267192 50.833116 
L 54.286666 51.021895 
L 54.336888 50.93299 
L 54.440406 51.018817 
L 54.425032 50.831959 
L 54.448605 50.977885 
L 54.522401 51.015127 
L 54.465004 50.779566 
L 54.557249 50.962965 
L 54.679216 50.81874 
L 54.564423 51.018097 
L 54.682291 50.833179 
L 54.708939 50.884496 
L 54.691515 50.931832 
L 54.716114 50.93687 
L 54.809383 51.014512 
L 54.768385 50.834858 
L 54.818607 50.893729 
L 54.824757 50.831886 
L 54.880103 51.013219 
L 54.921101 50.993135 
L 54.922126 51.021778 
L 54.939549 50.822232 
L 55.027694 50.867803 
L 55.144536 51.011086 
L 55.035893 50.824268 
L 55.145561 50.975565 
L 55.24293 50.773774 
L 55.155811 51.011272 
L 55.256254 50.973886 
L 55.296227 50.879885 
L 55.298277 50.833909 
L 55.317751 51.02112 
L 55.40282 50.987462 
L 55.430493 51.021909 
L 55.412045 50.879123 
L 55.447917 50.886056 
L 55.532987 50.827563 
L 55.472516 50.994978 
L 55.548361 50.950865 
L 55.576034 50.76331 
L 55.584234 51.01695 
L 55.653929 50.985737 
L 55.660079 51.019519 
L 55.702101 50.842445 
L 55.763597 50.971878 
L 55.80357 50.999898 
L 55.768722 50.897082 
L 55.817919 50.876161 
L 55.918363 50.815635 
L 55.845592 51.01206 
L 55.925537 50.908969 
L 56.007532 51.010207 
L 55.954235 50.744198 
L 56.037255 50.933702 
L 56.136674 50.862499 
L 56.060829 51.011265 
L 56.140773 50.973684 
L 56.197145 51.009833 
L 56.146923 50.819634 
L 56.252491 50.990147 
L 56.302713 50.898161 
L 56.305788 50.835602 
L 56.343711 51.011696 
L 56.411356 50.957859 
L 56.506675 51.009992 
L 56.457478 50.84714 
L 56.519999 50.926961 
L 56.529224 50.877322 
L 56.550748 51.021136 
L 56.628643 50.962669 
L 56.687064 51.017682 
L 56.696288 50.840468 
L 56.737286 50.904891 
L 56.74241 50.816231 
L 56.783408 51.019527 
L 56.843879 50.987854 
L 56.901275 50.845127 
L 56.907425 51.019126 
L 56.962771 50.954004 
L 57.038617 51.01829 
L 57.025293 50.867089 
L 57.07244 50.930664 
L 57.166734 50.921539 
L 57.091913 51.01539 
L 57.179033 50.95937 
L 57.240529 51.01744 
L 57.197482 50.840902 
L 57.276402 50.892837 
L 57.343022 50.863129 
L 57.297925 51.010549 
L 57.38197 50.986094 
L 57.477289 50.812487 
L 57.398369 51.022365 
L 57.518286 50.971556 
L 57.586957 51.012813 
L 57.544935 50.854235 
L 57.61463 50.86216 
L 57.617705 50.80628 
L 57.646403 51.012525 
L 57.723273 50.922294 
L 57.786819 51.003569 
L 57.804243 50.832602 
L 57.833966 50.945416 
L 57.858565 50.830621 
L 57.873939 51.008963 
L 57.944659 50.929966 
L 57.973358 51.019056 
L 57.960033 50.825497 
L 58.055352 50.964737 
L 58.135297 50.824107 
L 58.099425 51.021601 
L 58.16707 50.93596 
L 58.237791 51.011059 
L 58.210118 50.869449 
L 58.274689 50.928153 
L 58.32901 50.878829 
L 58.300312 51.013404 
L 58.382307 50.985948 
L 58.452002 51.009051 
L 58.473526 50.887271 
L 58.481725 50.895813 
L 58.4848 50.844204 
L 58.579094 51.017191 
L 58.589344 50.996546 
L 58.701062 51.017223 
L 58.636491 50.88991 
L 58.702087 51.006445 
L 58.766657 50.860816 
L 58.816879 50.975863 
L 58.896824 51.01756 
L 58.826104 50.840339 
L 58.924497 50.890629 
L 59.033141 50.829988 
L 58.95832 51.016856 
L 59.036215 50.887012 
L 59.111036 51.012448 
L 59.148958 50.977046 
L 59.157158 50.782104 
L 59.175607 51.010526 
L 59.263751 50.989864 
L 59.304748 51.010817 
L 59.339596 50.836624 
L 59.353945 50.897343 
L 59.35702 50.811288 
L 59.412367 51.01326 
L 59.463613 50.95 
L 59.51486 51.01683 
L 59.51896 50.906251 
L 59.574306 50.950043 
L 59.649127 50.839395 
L 59.669625 51.008573 
L 59.687049 50.918436 
L 59.778268 51.016271 
L 59.730096 50.802786 
L 59.795692 50.914894 
L 59.886912 50.867275 
L 59.835665 51.0081 
L 59.903311 50.952836 
L 60.012979 51.020504 
L 59.922784 50.849116 
L 60.016053 51.006739 
L 60.021178 50.895121 
L 60.043727 51.015032 
L 60.128796 50.947658 
L 60.145195 51.01083 
L 60.184143 50.842619 
L 60.237439 50.905961 
L 60.31431 50.86335 
L 60.274337 51.018652 
L 60.344033 50.992014 
L 60.390155 50.870484 
L 60.370681 51.014539 
L 60.455751 50.978495 
L 60.553119 51.014984 
L 60.478299 50.834367 
L 60.566444 50.987546 
L 60.585917 50.847318 
L 60.597192 51.015877 
L 60.684311 50.915375 
L 60.746832 51.019339 
L 60.699685 50.840228 
L 60.802179 50.993679 
L 60.899548 50.799484 
L 60.894423 51.017839 
L 60.914922 50.943752 
L 60.988717 51.01686 
L 60.971293 50.866387 
L 61.023565 50.924423 
L 61.094285 50.875281 
L 61.060462 51.019094 
L 61.130158 50.994713 
L 61.191654 50.755118 
L 61.139382 51.016857 
L 61.240851 50.973549 
L 61.24905 51.01255 
L 61.272624 50.822397 
L 61.349494 50.925242 
L 61.402791 51.01438 
L 61.389467 50.890123 
L 61.450963 50.891154 
L 61.453013 50.861531 
L 61.490935 51.002271 
L 61.561656 50.901072 
L 61.622127 50.863763 
L 61.614952 51.003193 
L 61.642626 51.000969 
L 61.687723 51.002282 
L 61.670299 50.90391 
L 61.690798 50.907609 
L 61.800466 50.866794 
L 61.715396 51.009359 
L 61.802515 50.892124 
L 61.895785 51.017965 
L 61.849662 50.879345 
L 61.915258 50.986168 
L 62.004428 50.832923 
L 61.960355 51.015706 
L 62.029026 50.877552 
L 62.101797 51.014123 
L 62.063874 50.822402 
L 62.144844 50.952996 
L 62.228888 50.840311 
L 62.184816 51.019213 
L 62.258612 50.886144 
L 62.351881 51.018986 
L 62.323183 50.852355 
L 62.372379 50.926031 
L 62.374429 50.889869 
L 62.403127 51.021793 
L 62.481023 50.98461 
L 62.556868 50.81853 
L 62.534319 51.00716 
L 62.591716 50.994355 
L 62.694209 50.885219 
L 62.621439 51.017002 
L 62.717783 50.968361 
L 62.798752 51.015072 
L 62.790553 50.780872 
L 62.827451 50.969613 
L 62.856149 50.87127 
L 62.933019 51.011682 
L 62.935069 51.008604 
L 63.038587 51.009012 
L 62.957617 50.883234 
L 63.040637 50.976126 
L 63.113408 50.853383 
L 63.06831 51.012619 
L 63.150305 50.992822 
L 63.287647 50.824441 
L 63.154405 50.997734 
L 63.30507 50.939222 
L 63.372716 51.019751 
L 63.350168 50.877426 
L 63.415763 50.939983 
L 63.482384 50.85717 
L 63.429088 51.021751 
L 63.527481 50.930526 
L 63.599227 51.004329 
L 63.537731 50.814425 
L 63.6351 50.879472 
L 63.636124 50.871281 
L 63.676097 51.017127 
L 63.735543 50.950407 
L 63.747842 51.014838 
L 63.806264 50.814291 
L 63.844186 50.936157 
L 63.884159 50.887149 
L 63.851361 51.016115 
L 63.954879 50.947095 
L 64.024575 51.009799 
L 64.006126 50.878345 
L 64.062498 50.927 
L 64.069672 50.82813 
L 64.138343 51.008435 
L 64.169091 51.0091 
L 64.235712 51.02079 
L 64.229562 50.877305 
L 64.274659 50.962548 
L 64.330006 50.881473 
L 64.303357 51.014007 
L 64.387402 50.931044 
L 64.42225 51.021001 
L 64.472472 50.828617 
L 64.498095 50.923037 
L 64.632361 50.999848 
L 64.64876 50.898677 
L 64.673359 50.829627 
L 64.66311 51.016988 
L 64.718456 51.007337 
L 64.719481 51.018937 
L 64.747154 50.880322 
L 64.825049 50.9524 
L 64.907044 50.849728 
L 64.845548 51.019237 
L 64.933692 50.991307 
L 65.011588 51.015423 
L 64.991089 50.854278 
L 65.037211 50.908489 
L 65.145854 50.724651 
L 65.074109 51.018534 
L 65.150979 50.874395 
L 65.214525 51.01805 
L 65.244248 50.864364 
L 65.264746 51.001397 
L 65.319068 51.008038 
L 65.271921 50.940662 
L 65.323168 50.908014 
L 65.388764 50.797406 
L 65.336492 51.000898 
L 65.427711 50.976568 
L 65.441035 51.020167 
L 65.483058 50.883679 
L 65.530205 50.936439 
L 65.627574 50.832773 
L 65.544554 51.022374 
L 65.642948 50.909292 
L 65.754666 50.997004 
L 65.650122 50.852501 
L 65.758765 50.934577 
L 65.827436 50.841916 
L 65.839735 51.0127 
L 65.869458 50.914643 
L 65.967852 51.020067 
L 65.908406 50.882435 
L 65.970927 50.872514 
L 65.971952 50.855894 
L 65.976052 51.010866 
L 66.07547 50.963101 
L 66.15849 51.014311 
L 66.114418 50.840177 
L 66.177964 50.896705 
L 66.249709 50.83617 
L 66.215886 51.015128 
L 66.285582 50.952916 
L 66.345028 51.017797 
L 66.337854 50.84611 
L 66.39525 50.93253 
L 66.503893 50.995363 
L 66.405499 50.922146 
L 66.506968 50.897156 
L 66.575639 50.865393 
L 66.569489 51.016711 
L 66.610486 50.980524 
L 66.736553 50.783657 
L 66.642259 51.015771 
L 66.741678 50.912885 
L 66.782676 51.01674 
L 66.786775 50.884266 
L 66.853396 50.940413 
L 66.95384 51.015637 
L 66.910792 50.861794 
L 66.966139 50.99496 
L 66.989712 50.842365 
L 66.997912 51.016363 
L 67.076832 50.980588 
L 67.167026 51.018668 
L 67.1783 50.846658 
L 67.187525 50.991693 
L 67.210073 50.849688 
L 67.19265 51.004773 
L 67.301293 50.956256 
L 67.389437 50.822616 
L 67.391487 50.798605 
L 67.401736 51.016015 
L 67.493981 50.934133 
L 67.57495 51.015738 
L 67.598524 50.8515 
L 67.603649 50.92471 
L 67.652845 50.870998 
L 67.626197 51.012189 
L 67.710242 50.944861 
L 67.752264 51.010363 
L 67.717416 50.881755 
L 67.818885 50.906627 
L 67.82196 50.875067 
L 67.834259 51.005224 
L 67.928553 50.913385 
L 67.947002 51.020714 
L 67.97365 50.848225 
L 68.045396 50.950949 
L 68.136615 50.873911 
L 68.108942 51.01042 
L 68.159163 50.931038 
L 68.259607 51.00692 
L 68.180687 50.85615 
L 68.268832 50.92285 
L 68.314954 50.796202 
L 68.347752 51.015989 
L 68.381574 50.86618 
L 68.485093 51.016828 
L 68.403098 50.847584 
L 68.508666 50.944085 
L 68.556838 50.86321 
L 68.52404 51.012933 
L 68.616285 50.97125 
L 68.672656 51.012323 
L 68.660357 50.819311 
L 68.728002 51.001877 
L 68.84177 50.866276 
L 68.801798 51.012485 
L 68.844845 50.928877 
L 68.850995 51.015501 
L 68.908391 50.813817 
L 68.956563 50.973044 
L 68.994486 50.809074 
L 68.982186 51.017622 
L 69.064181 50.997092 
L 69.121578 51.017917 
L 69.085705 50.773384 
L 69.1554 50.870021 
L 69.15745 50.832679 
L 69.16155 51.010044 
L 69.261994 51.004439 
L 69.329639 50.855097 
L 69.268143 51.012239 
L 69.375762 50.931013 
L 69.553075 50.994828 
L 69.55615 50.894959 
L 69.64122 50.832749 
L 69.656594 51.018661 
L 69.662743 50.945793 
L 69.686317 51.018078 
L 69.719115 50.820017 
L 69.774461 50.97016 
L 69.927177 50.798304 
L 69.777536 51.012489 
L 69.934351 50.905357 
L 69.985598 51.011433 
L 69.9487 50.800442 
L 70.047094 50.984679 
L 70.147538 50.861126 
L 70.073742 51.019268 
L 70.161887 50.936738 
L 70.228508 51.006992 
L 70.265405 50.868002 
L 70.267455 50.852928 
L 70.342275 51.01397 
L 70.368924 50.95171 
L 70.479617 51.010928 
L 70.456043 50.883273 
L 70.481667 50.978866 
L 70.506265 50.856237 
L 70.550337 51.012314 
L 70.59236 50.977084 
L 70.687679 51.008972 
L 70.619008 50.792396 
L 70.699978 50.960421 
L 70.806571 50.851933 
L 70.766599 51.017483 
L 70.811696 50.940153 
L 70.915214 51.008585 
L 70.920339 50.902898 
L 70.930588 50.875709 
L 70.98491 51.007752 
L 71.017708 50.980582 
L 71.093553 51.011607 
L 71.049481 50.86324 
L 71.100727 50.889405 
L 71.166323 50.852889 
L 71.1325 51.016474 
L 71.206296 50.921868 
L 71.289316 51.014007 
L 71.212445 50.843541 
L 71.318014 50.961557 
L 71.362086 50.820952 
L 71.327238 51.000763 
L 71.427682 50.960749 
L 71.439981 51.018337 
L 71.498402 50.842106 
L 71.5353 50.912907 
L 71.557849 50.788037 
L 71.550674 51.015267 
L 71.643943 50.93994 
L 71.746437 51.015669 
L 71.715689 50.83694 
L 71.757711 50.986799 
L 71.795633 50.832329 
L 71.829456 51.011481 
L 71.869429 50.969811 
L 71.968848 51.01361 
L 71.890952 50.849455 
L 71.979097 50.955875 
L 72.033418 50.841886 
L 71.987296 51.011278 
L 72.079541 51.002085 
L 72.185109 51.01771 
L 72.149236 50.869973 
L 72.186134 50.989801 
L 72.260954 50.840963 
L 72.214832 51.019569 
L 72.298877 50.92716 
L 72.312201 51.017981 
L 72.337824 50.84546 
L 72.40957 50.922268 
L 72.432118 50.880441 
L 72.47619 51.004863 
L 72.513088 50.96859 
L 72.519238 51.014427 
L 72.529487 50.887778 
L 72.622756 50.949974 
L 72.678103 50.826324 
L 72.639155 51.016364 
L 72.733449 50.946106 
L 72.825693 51.019634 
L 72.768297 50.853336 
L 72.840042 50.865914 
L 72.843117 50.822284 
L 72.867716 51.012111 
L 72.946636 50.949036 
L 73.527774 50.885439 
L 73.532899 51.004784 
L 73.627193 51.019794 
L 73.603619 50.866816 
L 73.640517 50.972647 
L 73.67024 50.876934 
L 73.650766 51.017485 
L 73.75121 50.954329 
L 73.75531 51.019344 
L 73.788107 50.850975 
L 73.860878 50.930001 
L 73.939798 51.017907 
L 73.889576 50.815345 
L 73.976696 50.957786 
L 74.002319 50.843941 
L 74.006419 51.011624 
L 74.087389 50.944959 
L 74.118137 51.017541 
L 74.098663 50.888131 
L 74.199106 50.960893 
L 74.264702 50.901681 
L 74.229855 51.014546 
L 74.3057 51.00481 
L 74.306725 51.017451 
L 74.394869 50.804912 
L 74.409218 50.923387 
L 74.483014 50.865769 
L 74.45739 51.012857 
L 74.517861 50.9316 
L 74.582432 51.016357 
L 74.572183 50.882963 
L 74.630604 50.960989 
L 74.748472 50.900261 
L 74.635729 50.996201 
L 74.751547 50.958082 
L 74.759746 51.006171 
L 74.794594 50.831036 
L 74.86224 50.992128 
L 74.929885 50.850749 
L 74.917586 51.020236 
L 74.978057 50.909584 
L 75.085675 51.018385 
L 75.062102 50.853389 
L 75.095925 50.932757 
L 75.163571 50.80127 
L 75.143072 51.01841 
L 75.206618 50.943816 
L 75.231216 51.016409 
L 75.25479 50.868311 
L 75.319361 51.000184 
L 75.337809 50.86739 
L 75.33166 51.018617 
L 75.431079 50.951723 
L 75.528447 51.013763 
L 75.443378 50.836219 
L 75.540747 50.916297 
L 75.628891 51.014875 
L 75.584819 50.776233 
L 75.657589 50.976036 
L 75.687312 50.850353 
L 75.669888 51.011687 
L 75.771357 50.921584 
L 75.88 51.012501 
L 75.872826 50.906499 
L 75.8841 50.967737 
L 75.952771 51.017702 
L 75.932272 50.851556 
L 75.991718 50.946549 
L 76.038865 50.885533 
L 76.066538 51.010282 
L 76.104461 50.908954 
L 76.185431 51.01919 
L 76.169032 50.894593 
L 76.229503 50.993563 
L 76.292024 50.872203 
L 76.315598 51.019018 
L 76.341221 50.928707 
L 76.406817 51.013138 
L 76.366844 50.82544 
L 76.450889 50.916085 
L 76.486762 50.836162 
L 76.499061 51.0117 
L 76.558507 50.95927 
L 76.641527 50.876298 
L 76.565682 51.017466 
L 76.6692 50.983714 
L 76.731721 51.021691 
L 76.775794 50.896012 
L 76.822941 50.83837 
L 76.803467 51.00442 
L 76.882387 50.971108 
L 77.003329 50.896267 
L 76.900836 51.008409 
L 77.022803 50.981957 
L 77.126321 51.020126 
L 77.102748 50.859451 
L 77.133496 50.974267 
L 77.212416 50.853374 
L 77.170394 51.010426 
L 77.244189 50.973483 
L 77.292361 51.011459 
L 77.326184 50.857267 
L 77.354882 50.965964 
L 77.423553 50.864434 
L 77.436877 51.010161 
L 77.459425 51.008112 
L 77.54142 51.003539 
L 77.519896 50.87035 
L 77.54552 50.941238 
L 77.61624 50.829329 
L 77.556794 51.00898 
L 77.659288 50.88173 
L 77.760756 51.013075 
L 77.745382 50.851686 
L 77.77613 50.931153 
L 77.838651 50.868936 
L 77.846851 51.016418 
L 77.883748 50.989318 
L 77.884773 51.018847 
L 77.988292 50.853649 
L 77.992392 50.984504 
L 78.043638 50.861571 
L 78.018015 51.008367 
L 78.10206 51.009718 
L 78.149207 51.007477 
L 78.113334 50.894545 
L 78.163556 50.888661 
L 78.271174 50.851011 
L 78.18303 51.020218 
L 78.273224 50.87801 
L 78.379817 51.015201 
L 78.284498 50.866348 
L 78.383917 50.90223 
L 78.465912 50.843062 
L 78.426964 51.004225 
L 78.48846 50.980959 
L 78.541757 51.020835 
L 78.497685 50.888912 
L 78.591979 50.929862 
L 78.684223 51.011345 
L 78.598128 50.87918 
L 78.721121 50.977493 
L 78.794916 50.861636 
L 78.745719 51.015628 
L 78.832838 50.973369 
L 78.909709 51.021595 
L 78.920983 50.8334 
L 78.942507 50.953987 
L 79.043975 50.865145 
L 78.96198 51.015636 
L 79.05115 50.976027 
L 79.135194 51.012505 
L 79.083948 50.84991 
L 79.154668 50.887393 
L 79.155693 50.884342 
L 79.160818 51.016378 
L 79.246912 50.94717 
L 79.355555 51.015031 
L 79.278685 50.824306 
L 79.35863 50.995582 
L 79.397578 50.849366 
L 79.442675 51.020334 
L 79.469323 50.99485 
L 79.564642 51.012639 
L 79.517495 50.915306 
L 79.574892 50.95478 
L 79.631263 50.894925 
L 79.664061 51.009492 
L 79.688659 50.904572 
L 79.713258 51.013167 
L 79.696859 50.870745 
L 79.802427 50.985757 
L 79.861873 50.854381 
L 79.870073 51.010608 
L 79.914145 50.956587 
L 79.99204 51.017708 
L 79.978716 50.864762 
L 80.023813 50.935889 
L 80.093509 50.873463 
L 80.039187 51.012769 
L 80.125282 50.982029 
L 80.209326 51.016479 
L 80.15808 50.799983 
L 80.235975 50.985824 
L 80.332319 50.875037 
L 80.267748 51.011845 
L 80.349743 50.972907 
L 80.38254 51.015731 
L 80.429687 50.90089 
L 80.46146 51.004558 
L 80.532181 50.845933 
L 80.595727 50.97341 
L 80.656198 51.014464 
L 80.661323 50.846286 
L 80.709495 50.987245 
L 80.746392 50.853461 
L 80.713595 51.013017 
L 80.828387 50.970687 
L 80.896033 51.020813 
L 80.878609 50.903434 
L 80.942155 50.985368 
L 80.992377 50.874226 
L 80.987252 51.008023 
L 81.061048 50.92787 
L 81.18404 51.016954 
L 81.078471 50.808789 
L 81.189164 51.005426 
L 81.202489 50.866036 
L 81.196339 51.015941 
L 81.302932 50.985905 
L 81.366478 51.012468 
L 81.382877 50.881345 
L 81.403376 50.942546 
L 81.415675 50.889876 
L 81.505869 51.01551 
L 81.514069 50.953704 
L 81.595039 51.016221 
L 81.518169 50.910056 
L 81.627837 50.989854 
L 81.636036 50.886009 
L 81.64936 51.012982 
L 81.74058 50.964262 
L 81.770303 50.848392 
L 81.750829 51.003549 
L 81.855372 50.952066 
L 81.919943 51.020183 
L 81.900469 50.900668 
L 81.96709 50.959957 
L 82.002963 50.892222 
L 81.974265 51.01453 
L 82.077783 50.946318 
L 82.088033 51.018612 
L 82.134155 50.860878 
L 82.190526 50.999756 
L 82.245873 50.829881 
L 82.271496 51.016063 
L 82.301219 50.989982 
L 82.347341 50.830562 
L 82.308394 51.009169 
L 82.429336 50.973704 
L 82.471358 51.01631 
L 82.511331 50.84455 
L 82.540029 50.988799 
L 82.640473 51.009247 
L 82.565652 50.848863 
L 82.646622 50.969324 
L 82.712218 50.870969 
L 82.706069 51.021015 
L 82.75834 50.944272 
L 82.853659 51.009846 
L 82.781914 50.787837 
L 82.868008 50.900955 
L 82.943853 51.016397 
L 82.91208 50.893733 
L 82.985876 50.983695 
L 82.996125 50.887171 
L 83.026873 51.01993 
L 83.100669 50.944057 
L 83.202137 51.006668 
L 83.141666 50.891849 
L 83.216486 50.960024 
L 83.228785 50.831466 
L 83.297456 51.013493 
L 83.328204 50.931032 
L 83.342553 50.800758 
L 83.370227 51.021587 
L 83.435822 50.944634 
L 83.493219 51.012103 
L 83.505518 50.894343 
L 83.544466 50.915898 
L 83.569064 50.863756 
L 83.550615 51.018841 
L 83.655159 50.910975 
L 83.666433 50.880417 
L 83.678732 51.012063 
L 83.754577 50.960746 
L 83.816073 51.01409 
L 83.833497 50.913086 
L 83.864245 50.953976 
L 83.964689 50.833448 
L 83.890894 51.017882 
L 83.976988 50.889055 
L 84.091781 51.011805 
L 84.063083 50.831308 
L 84.093831 50.934724 
L 84.1912 50.867946 
L 84.11228 51.017891 
L 84.204524 50.947582 
L 84.314192 51.018265 
L 84.276269 50.898105 
L 84.316242 50.963385 
L 84.350065 50.869078 
L 84.392087 51.018945 
L 84.42796 50.952264 
L 84.527378 51.023016 
L 84.50278 50.819423 
L 84.542752 50.987879 
L 84.686243 50.971922 
L 84.688293 50.935527 
L 84.692393 50.850402 
L 84.738515 51.011004 
L 84.797961 50.970056 
L 84.89943 51.020317 
L 84.815385 50.918385 
L 84.906604 50.912179 
L 84.949652 50.850081 
L 84.959901 51.013358 
L 85.016272 50.954276 
L 85.060345 50.888463 
L 85.115691 51.021448 
L 85.12799 50.929899 
L 85.155664 51.017387 
L 85.180262 50.857777 
L 85.241758 50.983213 
L 85.307354 51.00998 
L 85.324778 50.859283 
L 85.347326 50.948835 
L 85.428296 50.837973 
L 85.438546 51.018029 
L 85.45597 50.963489 
L 85.458019 51.018249 
L 85.538989 50.88159 
L 85.566663 50.960709 
L 85.675306 50.900682 
L 85.631234 51.01579 
L 85.678381 50.941102 
L 85.77165 51.008499 
L 85.76345 50.831085 
L 85.790098 50.981034 
L 85.835196 50.857947 
L 85.813672 51.019186 
L 85.900791 50.964994 
L 85.989961 51.022676 
L 85.970487 50.858685 
L 86.014559 51.017554 
L 86.129352 50.899972 
L 86.130377 50.91171 
L 86.150876 51.011573 
L 86.226721 50.869191 
L 86.24517 51.003804 
L 86.32204 51.01568 
L 86.259519 50.882669 
L 86.327165 50.911184 
L 86.335364 50.867145 
L 86.401985 51.017189 
L 86.430683 50.983544 
L 86.503453 51.022118 
L 86.448107 50.890336 
L 86.538301 50.91099 
L 86.540351 50.84659 
L 86.600822 51.017937 
L 86.646944 50.990008 
L 86.672568 50.861885 
L 86.682817 51.015192 
L 86.756612 51.003463 
L 86.757637 51.014928 
L 86.815034 50.813103 
L 86.863206 50.954443 
L 86.960574 50.863694 
L 86.930851 51.018597 
L 86.976973 50.916054 
L 87.03642 50.853152 
L 87.02822 51.020774 
L 87.080492 50.956196 
L 87.174786 51.018309 
L 87.168636 50.87303 
L 87.189135 50.930682 
L 87.27318 50.83828 
L 87.200409 51.021827 
L 87.283429 50.961292 
L 87.365424 51.020921 
L 87.310077 50.862949 
L 87.394122 50.949177 
L 87.50379 51.020937 
L 87.42487 50.888092 
L 87.50584 50.97003 
L 87.616533 50.803656 
L 87.595009 51.020322 
L 87.618583 50.869064 
L 87.671879 51.022084 
L 87.732351 51.012238 
L 87.805121 50.882435 
L 87.787697 51.022173 
L 87.845094 50.929587 
L 87.909664 51.016962 
L 87.934263 50.908077 
L 87.955787 50.95473 
L 87.971161 50.843245 
L 88.027532 51.022693 
L 88.06648 50.949338 
L 88.113627 50.866464 
L 88.078779 51.007991 
L 88.157699 50.979378 
L 88.225344 51.022949 
L 88.187422 50.905987 
L 88.268392 50.998837 
L 88.37806 50.88434 
L 88.296065 51.01838 
L 88.38011 50.932223 
L 88.479528 51.0136 
L 88.419057 50.834626 
L 88.490803 50.956124 
L 88.536925 50.867693 
L 88.518476 51.015702 
L 88.600471 50.97765 
L 88.611745 51.012718 
L 88.638393 50.860186 
L 88.710139 50.95013 
L 88.779834 50.864152 
L 88.735762 51.01753 
L 88.819807 50.944708 
L 88.895652 51.015796 
L 88.852605 50.848928 
L 88.931525 50.992119 
L 89.00737 50.821715 
L 88.952024 51.01874 
L 89.045293 50.941517 
L 89.130362 51.011182 
L 89.125238 50.87154 
L 89.154961 50.919202 
L 89.220557 50.857031 
L 89.16521 51.012656 
L 89.264629 50.93154 
L 89.351748 51.017704 
L 89.309726 50.860508 
L 89.379422 50.99106 
L 89.492164 50.877761 
L 89.390696 51.014795 
L 89.495239 50.926302 
L 89.584409 51.022023 
L 89.502414 50.887114 
L 89.611057 51.013902 
L 89.727899 50.793454 
L 89.700226 51.021506 
L 89.730974 50.866588 
L 89.825268 51.018702 
L 89.79452 50.848567 
L 89.843717 50.975842 
L 89.913413 51.016271 
L 89.878565 50.896696 
L 89.942111 50.925985 
L 89.945186 50.879713 
L 89.96261 51.019058 
L 90.052804 50.922695 
L 90.138898 51.017005 
L 90.061003 50.85989 
L 90.166572 51.009454 
L 90.273165 50.873257 
L 90.254716 51.015654 
L 90.28034 50.917744 
L 90.35721 51.014051 
L 90.34491 50.852489 
L 90.391033 50.949526 
L 90.480202 50.826328 
L 90.470977 51.020772 
L 90.50275 50.90619 
L 90.58987 51.01204 
L 90.614468 50.891593 
L 90.616518 50.875041 
L 90.708762 51.02104 
L 90.717987 50.975528 
L 90.758984 51.014752 
L 90.773333 50.86788 
L 90.823555 50.925788 
L 90.930148 50.878689 
L 90.829705 51.000098 
L 90.935273 50.987837 
L 91.003944 51.020387 
L 90.967046 50.89491 
L 91.045966 50.980423 
L 91.127961 51.011919 
L 91.06134 50.866356 
L 91.14641 50.944022 
L 91.228405 50.865755 
L 91.192532 51.015752 
L 91.259153 50.931133 
L 91.271452 51.019825 
L 91.341147 50.889445 
L 91.37292 51.000489 
L 91.447741 50.852618 
L 91.46209 51.022882 
L 91.486688 50.956415 
L 91.514362 51.021503 
L 91.577907 50.876093 
L 91.597381 50.956971 
L 91.62198 50.900072 
L 91.674251 51.017518 
L 91.706024 50.959723 
L 91.784944 51.021273 
L 91.711149 50.895642 
L 91.816717 50.966304 
L 91.915111 50.862747 
L 91.857715 51.022092 
L 91.92741 50.949655 
L 92.023754 51.01217 
L 91.965333 50.867078 
L 92.036054 50.916478 
L 92.114974 50.881673 
L 92.100624 51.013718 
L 92.142647 50.936444 
L 92.225667 51.021772 
L 92.193894 50.862607 
L 92.25334 50.926909 
L 92.351734 51.015485 
L 92.319961 50.888133 
L 92.358908 50.897888 
L 92.392731 50.829293 
L 92.446028 51.01198 
L 92.466526 50.986345 
L 92.56082 51.00464 
L 92.504449 50.894319 
L 92.56287 50.947369 
L 92.676638 50.794367 
L 92.572095 51.02166 
L 92.678688 50.845348 
L 92.742234 51.00944 
L 92.789381 50.841213 
L 92.790406 50.837138 
L 92.810905 51.012273 
L 92.869326 50.971753 
L 92.958495 51.015917 
L 92.918523 50.912929 
L 92.982069 50.973374 
L 93.017941 50.856425 
L 93.057914 51.016327 
L 93.091737 50.982713 
L 93.150158 51.015101 
L 93.12146 50.900126 
L 93.19833 50.911922 
L 93.302873 50.854254 
L 93.295699 51.016936 
L 93.307998 50.918901 
L 93.408442 51.020368 
L 93.35617 50.867583 
L 93.421766 51.007199 
L 93.51196 50.886424 
L 93.52016 51.016708 
L 93.533484 50.990019 
L 93.6698 50.924145 
L 93.679025 50.992699 
L 93.729246 51.020339 
L 93.773319 50.880019 
L 93.788693 50.972908 
L 93.881962 51.008247 
L 93.804067 50.888811 
L 93.895286 50.949764 
L 93.976256 50.872471 
L 93.925009 51.014517 
L 94.007004 50.932731 
L 94.079774 50.87999 
L 94.016228 51.011925 
L 94.098223 50.995635 
L 94.193542 51.018128 
L 94.14537 50.85934 
L 94.207891 50.977652 
L 94.221215 50.834063 
L 94.286811 51.016684 
L 94.319609 50.961515 
L 94.416978 51.015995 
L 94.354457 50.872087 
L 94.434402 50.949683 
L 94.466175 50.840418 
L 94.522546 51.022684 
L 94.540995 50.991042 
L 94.617865 51.009508 
L 94.589167 50.891785 
L 94.644514 50.924336 
L 94.681411 50.869035 
L 94.698835 51.022319 
L 94.702935 50.995571 
" clip-path="url(#p967c858e41)" style="fill: none; stroke: #1f77b4; stroke-width: 0.5; stroke-linecap: square"/>
   </g>
  </g>
 </g>
 <defs>
  <clipPath id="p967c858e41">
   <rect x="0" y="-0" width="99.212598" height="51.023622"/>
  </clipPath>
 </defs>
</svg>
