<?xml version="1.0" encoding="utf-8" standalone="no"?>
<!DOCTYPE svg PUBLIC "-//W3C//DTD SVG 1.1//EN"
  "http://www.w3.org/Graphics/SVG/1.1/DTD/svg11.dtd">
<svg xmlns:xlink="http://www.w3.org/1999/xlink" width="99.212598pt" height="51.023622pt" viewBox="0 0 99.212598 51.023622" xmlns="http://www.w3.org/2000/svg" version="1.1">
 <metadata>
  <rdf:RDF xmlns:dc="http://purl.org/dc/elements/1.1/" xmlns:cc="http://creativecommons.org/ns#" xmlns:rdf="http://www.w3.org/1999/02/22-rdf-syntax-ns#">
   <cc:Work>
    <dc:type rdf:resource="http://purl.org/dc/dcmitype/StillImage"/>
    <dc:date>2024-10-31T23:12:51.096375</dc:date>
    <dc:format>image/svg+xml</dc:format>
    <dc:creator>
     <cc:Agent>
      <dc:title>Matplotlib v3.8.4, https://matplotlib.org/</dc:title>
     </cc:Agent>
    </dc:creator>
   </cc:Work>
  </rdf:RDF>
 </metadata>
 <defs>
  <style type="text/css">*{stroke-linejoin: round; stroke-linecap: butt}</style>
 </defs>
 <g id="figure_1">
  <g id="patch_1">
   <path d="M 0 51.023622 
L 99.212598 51.023622 
L 99.212598 0 
L 0 0 
L 0 51.023622 
z
" style="fill: none"/>
  </g>
  <g id="axes_1">
   <g id="patch_2">
    <path d="M 0 51.023622 
L 99.212598 51.023622 
L 99.212598 -0 
L 0 -0 
L 0 51.023622 
z
" style="fill: none"/>
   </g>
   <g id="matplotlib.axis_1">
    <g id="xtick_1"/>
    <g id="xtick_2"/>
   </g>
   <g id="matplotlib.axis_2">
    <g id="ytick_1"/>
    <g id="ytick_2"/>
   </g>
   <g id="line2d_1">
    <path d="M 4.509664 3.017581 
L 4.522988 2.102279 
L 4.542461 -0 
L 4.576284 9.760844 
L 4.633681 37.865615 
L 4.725925 32.135397 
L 4.738224 33.076559 
L 4.866341 46.494354 
L 4.910413 42.395433 
L 4.913488 42.339813 
L 4.95961 43.983883 
L 4.990358 47.768281 
L 5.061079 42.67399 
L 5.062104 42.669433 
L 5.074403 43.064778 
L 5.262991 48.723121 
L 5.265041 48.692676 
L 5.288614 47.041848 
L 5.351135 49.465598 
L 5.361385 49.493665 
L 5.376759 49.07914 
L 5.412631 45.398358 
L 5.481302 49.498096 
L 5.487452 49.828004 
L 5.570471 48.352198 
L 5.580721 48.48093 
L 5.66784 50.495222 
L 5.701663 48.78617 
L 5.809281 47.798027 
L 5.755985 50.083866 
L 5.824655 48.370858 
L 5.905625 50.444814 
L 5.853354 47.757407 
L 5.946623 48.942154 
L 5.967121 48.743932 
L 6.020418 49.40651 
L 6.079864 50.999369 
L 6.117787 49.312995 
L 6.14956 49.905378 
L 6.245904 48.378168 
L 6.268452 49.464417 
L 6.387345 50.593192 
L 6.296126 48.485348 
L 6.398619 50.231423 
L 6.473439 49.308743 
L 6.509312 50.159012 
L 6.543135 50.905473 
L 6.596432 48.922663 
L 6.605656 48.275194 
L 6.643579 50.976954 
L 6.6979 50.030327 
L 6.698925 50.034643 
L 6.713274 49.655457 
L 6.731723 49.041606 
L 6.794244 50.815997 
L 6.817818 49.896347 
L 6.922361 50.791709 
L 6.856765 48.650175 
L 6.935685 50.315434 
L 6.986932 50.192911 
L 7.027929 50.609573 
L 7.039204 50.946683 
L 7.083276 49.602015 
L 7.129398 50.368963 
L 7.152971 48.230991 
L 7.185769 50.568134 
L 7.24829 49.720772 
L 7.257515 49.67036 
L 7.301587 50.124865 
L 7.316961 50.354327 
L 7.32721 49.736334 
L 7.427654 48.585403 
L 7.360008 50.794133 
L 7.438928 49.489467 
L 7.494275 50.978201 
L 7.559871 50.544483 
L 7.593694 50.781227 
L 7.621367 50.311062 
L 7.731035 49.580264 
L 7.662364 50.672841 
L 7.740259 49.739123 
L 7.809955 50.463335 
L 7.878626 50.351442 
L 8.014942 49.192931 
L 7.96677 50.572269 
L 8.03749 49.400329 
L 8.182006 51.010098 
L 8.186106 50.930081 
L 8.265026 49.945207 
L 8.311148 50.540825 
L 8.36342 50.964357 
L 8.409542 50.159803 
L 8.415692 50.226932 
L 8.522285 50.698889 
L 8.541759 50.556322 
L 8.652452 49.636141 
L 8.569432 50.572226 
L 8.669875 50.150253 
L 8.731372 50.932832 
L 8.790818 50.690215 
L 8.890237 49.726779 
L 8.83079 50.759516 
L 8.906636 50.577222 
L 8.953783 50.98253 
L 8.924059 50.227406 
L 9.018353 50.64628 
L 9.042952 50.756889 
L 9.066525 50.11536 
L 9.118797 50.461443 
L 9.23359 50.047452 
L 9.166969 50.8476 
L 9.240764 50.332757 
L 9.347358 50.957214 
L 9.293036 49.862265 
L 9.355557 50.57571 
L 9.38118 50.397796 
L 9.400654 50.967012 
L 9.460101 50.733438 
L 9.467275 50.846026 
L 9.54517 50.329017 
L 9.563619 50.615489 
L 9.568744 50.674551 
L 9.575918 50.370381 
L 9.674312 50.074504 
L 9.62614 50.987803 
L 9.684561 50.433666 
L 9.693786 50.835422 
L 9.759382 49.955561 
L 9.799354 50.652405 
L 9.852651 50.909184 
L 9.876224 50.342631 
L 9.903897 50.532709 
L 9.961294 50.031087 
L 9.94797 50.962687 
L 10.015615 50.491845 
L 10.02074 50.418972 
L 10.033039 50.902479 
L 10.10581 50.863766 
L 10.119134 51.014959 
L 10.18268 50.6186 
L 10.239051 50.489778 
L 10.248276 50.994651 
L 10.292348 50.622093 
L 10.309772 50.974594 
L 10.324121 49.944456 
L 10.394841 50.392269 
L 10.405091 50.371496 
L 10.416365 50.73132 
L 10.50246 50.380653 
L 10.530133 50.907259 
L 10.559856 51.009444 
L 10.57933 50.189428 
L 10.633651 50.70623 
L 10.664399 50.272235 
L 10.653125 50.991476 
L 10.700272 50.881861 
L 10.704372 50.918194 
L 10.720771 50.26685 
L 10.783292 50.599011 
L 10.900134 50.192847 
L 10.81199 50.809937 
L 10.905259 50.218215 
L 10.945232 51.019454 
L 11.038501 50.50859 
L 11.093847 50.069369 
L 11.079498 50.977916 
L 11.152268 50.378701 
L 11.160468 50.333853 
L 11.20454 51.002515 
L 11.234263 50.757842 
L 11.286535 50.839608 
L 11.298834 50.489441 
L 11.312158 50.119918 
L 11.371605 50.995473 
L 11.405427 50.631632 
L 11.420802 51.008446 
L 11.503821 50.240827 
L 11.519195 50.843338 
L 11.608365 50.19135 
L 11.641163 50.423406 
L 11.75493 50.972603 
L 11.76313 50.694054 
L 11.869723 50.02183 
L 11.806177 50.869465 
L 11.880997 50.422307 
L 12.00194 51.010194 
L 12.057286 50.344858 
L 12.113658 50.955464 
L 12.114683 50.99265 
L 12.16183 50.332268 
L 12.211027 50.480783 
L 12.275597 50.898622 
L 12.294046 50.333846 
L 12.301221 50.180622 
L 12.331969 50.934396 
L 12.407814 50.21706 
L 12.408839 50.216629 
L 12.414989 50.327629 
L 12.539006 50.966733 
L 12.542081 50.896592 
L 12.663023 50.19552 
L 12.62715 50.923242 
L 12.668148 50.325187 
L 12.765516 51.008095 
L 12.788065 50.801047 
L 12.845461 50.474165 
L 12.87211 51.005538 
L 12.900808 50.768276 
L 12.906958 50.985131 
L 12.937706 50.262212 
L 12.999202 50.623479 
L 13.059673 50.32121 
L 13.040199 50.885242 
L 13.094521 50.810803 
L 13.09862 50.957076 
L 13.124244 50.196595 
L 13.200089 50.547004 
L 13.202139 50.545801 
L 13.215463 50.677355 
L 13.232887 51.010628 
L 13.302583 50.293343 
L 13.334356 50.929626 
L 13.376378 50.322812 
L 13.34153 50.991311 
L 13.456323 50.738081 
L 13.544467 51.008549 
L 13.494245 50.41036 
L 13.579315 50.968564 
L 13.583415 50.998316 
L 13.626462 50.587923 
L 13.628512 50.583522 
L 13.649011 50.94896 
L 13.73818 51.005021 
L 13.682833 50.499742 
L 13.747404 50.60776 
L 13.816075 50.294149 
L 13.833499 50.986512 
L 13.852973 50.774947 
L 13.956491 50.980014 
L 13.911394 50.338385 
L 13.963666 50.810035 
L 13.98109 50.609484 
L 14.05181 51.015192 
L 14.062059 50.948968 
L 14.173777 51.002328 
L 14.133805 50.599785 
L 14.174802 50.983193 
L 14.2117 50.448582 
L 14.229124 51.002991 
L 14.28857 50.808509 
L 14.346991 50.962551 
L 14.325468 50.549974 
L 14.396188 50.750626 
L 14.483308 50.30112 
L 14.406438 51.003635 
L 14.524305 50.674397 
L 14.547879 50.952961 
L 14.601175 50.412467 
L 14.631923 50.674887 
L 14.641148 50.173992 
L 14.723143 50.852784 
L 14.743641 50.534859 
L 14.835886 50.98631 
L 14.778489 50.385021 
L 14.859459 50.686127 
L 14.961953 50.545038 
L 14.893282 50.988989 
L 14.968102 50.671089 
L 14.987576 51.00935 
L 15.070596 50.425167 
L 15.074695 50.492848 
L 15.091094 51.006245 
L 15.198713 50.740282 
L 15.248934 50.557421 
L 15.215112 50.96438 
L 15.311455 50.667141 
L 15.321705 50.83499 
L 15.346303 50.465125 
L 15.418049 50.569379 
L 15.423173 50.481222 
L 15.458021 50.980036 
L 15.516443 50.930664 
L 15.545141 50.963998 
L 15.605612 50.38988 
L 15.618936 50.721585 
L 15.63021 50.346324 
L 15.698881 50.895729 
L 15.727579 50.798476 
L 15.78805 50.724345 
L 15.756277 50.985861 
L 15.811624 50.911938 
L 15.848522 51.003625 
L 15.891569 50.647886 
L 15.921292 50.909752 
L 16.039159 50.48604 
L 16.000212 50.985529 
L 16.043259 50.641039 
L 16.100656 50.955688 
L 16.053509 50.597117 
L 16.153952 50.669691 
L 16.230822 50.889725 
L 16.175476 50.518372 
L 16.249271 50.61798 
L 16.313842 50.513087 
L 16.274895 50.986438 
L 16.34869 50.80071 
L 16.414286 50.966719 
L 16.441959 50.518291 
L 16.459383 50.796327 
L 16.559827 50.49505 
L 16.509605 50.885406 
L 16.573151 50.763413 
L 16.599799 51.003824 
L 16.5875 50.684775 
L 16.684869 50.779949 
L 16.782237 50.992009 
L 16.732016 50.768502 
L 16.806836 50.884422 
L 16.855008 50.631256 
L 16.898055 51.012073 
L 16.918554 50.853045 
L 16.933928 50.996644 
L 17.007723 50.568808 
L 17.027197 50.757654 
L 17.040521 50.931437 
L 17.125591 50.600638 
L 17.127641 50.60147 
L 17.155314 50.845823 
L 17.206561 50.930563 
L 17.174788 50.542593 
L 17.264982 50.82905 
L 17.356201 50.367522 
L 17.316229 50.923349 
L 17.3808 50.766239 
L 17.425897 50.91327 
L 17.411548 50.398962 
L 17.475094 50.496959 
L 17.479193 50.448356 
L 17.496617 51.000349 
L 17.569388 50.802324 
L 17.68418 50.9592 
L 17.633959 50.683879 
L 17.69033 50.89221 
L 17.738502 50.498988 
L 17.704679 50.998391 
L 17.796923 50.966305 
L 17.799998 51.005689 
L 17.858419 50.699487 
L 17.899417 50.768728 
L 17.92914 51.013738 
L 17.961938 50.614104 
L 18.015234 50.872768 
L 18.131052 50.50704 
L 18.062382 50.967303 
L 18.137202 50.632265 
L 18.253019 50.968792 
L 18.188449 50.487164 
L 18.255069 50.955581 
L 18.297092 50.399748 
L 18.361663 50.978916 
L 18.380111 50.74346 
L 18.384211 50.997316 
L 18.420084 50.438185 
L 18.492854 50.905047 
L 18.580999 50.701872 
L 18.502079 51.004859 
L 18.592273 50.987514 
L 18.668118 51.00858 
L 18.644545 50.628545 
L 18.681442 50.788467 
L 18.689642 50.53198 
L 18.72039 51.013578 
L 18.79111 50.831701 
L 18.848507 50.968498 
L 18.835183 50.455275 
L 18.88438 50.745585 
L 18.889504 50.619888 
L 18.964324 51.020173 
L 18.989948 50.931848 
L 19.03402 50.995454 
L 19.020696 50.665627 
L 19.098591 50.882995 
L 19.140613 51.010679 
L 19.122164 50.780585 
L 19.149838 50.795333 
L 19.178536 50.588883 
L 19.245157 50.936967 
L 19.283079 50.974842 
L 19.260531 50.610699 
L 19.34765 50.720159 
L 19.408121 50.560912 
L 19.43272 50.990593 
L 19.455268 50.804239 
L 19.578261 51.009652 
L 19.478842 50.727089 
L 19.580311 50.9427 
L 19.692028 50.696952 
L 19.696128 50.756685 
L 19.780173 51.011484 
L 19.797597 50.646184 
L 19.810921 50.910272 
L 19.83347 50.547126 
L 19.873442 51.013781 
L 19.931863 50.83232 
L 19.947237 51.001424 
L 19.98311 50.706512 
L 20.015908 50.729213 
L 20.021033 50.654159 
L 20.045631 51.017478 
L 20.117377 50.907601 
L 20.220895 51.004868 
L 20.199371 50.714637 
L 20.22602 50.894897 
L 20.338763 50.566128 
L 20.308014 51.010269 
L 20.343887 50.726527 
L 20.367461 51.001928 
L 20.401284 50.680769 
L 20.45868 50.938419 
L 20.474054 51.00687 
L 20.465855 50.851777 
L 20.479179 50.845737 
L 20.488403 50.638871 
L 20.522226 51.015389 
L 20.586797 50.960404 
L 20.598071 51.014482 
L 20.679041 50.717622 
L 20.684166 50.635948 
L 20.771285 51.01672 
L 20.788709 50.754543 
L 20.880953 51.016604 
L 20.817407 50.666673 
L 20.906577 50.920424 
L 20.909651 50.945755 
L 20.916826 50.682484 
L 20.944499 50.622515 
L 20.987547 50.974154 
L 21.01727 50.861365 
L 21.109514 51.014216 
L 21.065442 50.728809 
L 21.131037 50.908553 
L 21.196633 50.615516 
L 21.220207 51.011322 
L 21.24378 50.858483 
L 21.265304 51.006349 
L 21.309376 50.68878 
L 21.3227 50.696286 
L 21.341149 50.674919 
L 21.358573 50.984379 
L 21.418019 50.858297 
L 21.453892 50.983472 
L 21.496939 50.748949 
L 21.525637 50.826998 
L 21.629156 51.021329 
L 21.546136 50.735572 
L 21.635306 50.804669 
L 21.680403 50.707723 
L 21.712176 50.939051 
L 21.739849 50.900466 
L 21.788021 51.004582 
L 21.805445 50.629232 
L 21.840293 50.81782 
L 21.931512 50.705335 
L 21.853617 50.999935 
L 21.959185 50.713951 
L 22.038105 51.009864 
L 21.974559 50.705364 
L 22.104726 50.844347 
L 22.162122 50.706743 
L 22.210294 50.961647 
L 22.214394 50.88042 
L 22.251292 50.746949 
L 22.265641 51.004043 
L 22.315863 50.946865 
L 22.329187 51.01129 
L 22.349685 50.579157 
L 22.410157 50.720145 
L 22.540323 50.935222 
L 22.497276 50.659317 
L 22.552623 50.756274 
L 22.621293 50.742985 
L 22.604894 51.013514 
L 22.645892 50.94251 
L 22.648966 50.947887 
L 22.683814 50.710557 
L 22.688939 50.588313 
L 22.74531 50.948682 
L 22.789383 50.900117 
L 22.810906 51.010181 
L 22.844729 50.744846 
L 22.872402 50.78524 
L 22.91135 50.631789 
L 22.895976 51.020612 
L 22.973871 50.892721 
L 22.997444 50.936627 
L 23.002569 50.781341 
L 23.034342 50.634091 
L 23.026143 51.012495 
L 23.106088 50.98343 
L 23.109162 51.01366 
L 23.202431 50.805784 
L 23.21883 50.576572 
L 23.267002 51.013934 
L 23.304925 50.850099 
L 23.334648 51.007305 
L 23.398194 50.666446 
L 23.418693 50.915597 
L 23.480189 50.663434 
L 23.474039 50.993777 
L 23.528361 50.928881 
L 23.609331 51.00415 
L 23.572433 50.752319 
L 23.633929 50.861241 
L 23.745647 50.787787 
L 23.684151 51.014047 
L 23.748722 50.813932 
L 23.832767 50.709956 
L 23.867614 51.009128 
L 23.972158 50.66824 
L 23.978307 50.943223 
L 24.042878 51.017983 
L 24.077726 50.798181 
L 24.090025 51.00397 
L 24.153571 50.713559 
L 24.183294 51.01802 
L 24.204818 50.973893 
L 24.210968 51.013599 
L 24.286813 50.810353 
L 24.314486 50.961553 
L 24.423129 50.721698 
L 24.393406 51.021999 
L 24.429279 50.918397 
L 24.432354 51.016581 
L 24.505124 50.694406 
L 24.535872 50.772297 
L 24.612742 50.594978 
L 24.548171 51.00508 
L 24.621967 50.882234 
L 24.627091 51.002937 
L 24.678338 50.751572 
L 24.731635 50.862101 
L 24.863851 51.016664 
L 24.751109 50.779822 
L 24.868976 50.937276 
L 24.876151 50.721448 
L 24.96327 51.016995 
L 24.981719 50.874198 
L 25.007342 50.949956 
L 25.025791 50.520085 
L 25.027841 50.471062 
L 25.092412 51.011952 
L 25.12111 50.988517 
L 25.136484 51.003123 
L 25.20823 50.851886 
L 25.224629 50.892817 
L 25.255377 50.821066 
L 25.237953 50.997867 
L 25.334297 50.904944 
L 25.411167 51.016723 
L 25.387593 50.698798 
L 25.449089 50.954456 
L 25.51366 50.716874 
L 25.548508 51.013353 
L 25.579256 50.745368 
L 25.664326 51.011192 
L 25.638702 50.737366 
L 25.696099 50.830036 
L 25.782193 51.000989 
L 25.725822 50.653428 
L 25.808842 50.818777 
L 25.814991 50.68997 
L 25.848814 51.013947 
L 25.91851 50.837335 
L 25.982056 51.018729 
L 26.017928 50.695931 
L 26.019978 50.681017 
L 26.073275 50.958928 
L 26.106073 50.932743 
L 26.192167 50.99974 
L 26.186018 50.662969 
L 26.214716 50.813707 
L 26.282362 51.017923 
L 26.322334 50.805936 
L 26.326434 50.832405 
L 26.386905 50.798807 
L 26.343858 50.981583 
L 26.401254 50.907851 
L 26.4689 51.020957 
L 26.493498 50.778797 
L 26.510922 50.877127 
L 26.613416 51.015348 
L 26.578568 50.657424 
L 26.619565 50.864035 
L 26.625715 50.744617 
L 26.644164 51.011366 
L 26.732308 50.800029 
L 26.8635 51.013645 
L 26.86555 50.98517 
L 26.919871 50.727763 
L 26.929096 51.012474 
L 26.980343 50.913571 
L 27.049013 51.021059 
L 27.063362 50.805705 
L 27.091036 50.910145 
L 27.188404 50.960504 
L 27.136133 50.697855 
L 27.203778 50.910863 
L 27.270399 50.747898 
L 27.236576 51.010505 
L 27.317546 50.855704 
L 27.344195 50.988209 
L 27.33087 50.698468 
L 27.433364 50.970738 
L 27.551231 50.760462 
L 27.522533 51.004331 
L 27.555331 50.819318 
L 27.560456 51.016393 
L 27.602478 50.806509 
L 27.667049 50.838738 
L 27.688573 50.684902 
L 27.722396 51.01539 
L 27.771593 50.959635 
L 27.828989 51.008181 
L 27.843338 50.685651 
L 27.874086 50.790622 
L 27.921233 50.737577 
L 27.936607 51.013134 
L 27.982729 50.81628 
L 28.001178 51.019764 
L 28.095472 50.862268 
L 28.113921 50.823342 
L 28.136469 50.999104 
L 28.171317 51.014282 
L 28.21129 50.732675 
L 28.238963 50.870611 
L 28.28406 50.95046 
L 28.251262 50.788971 
L 28.303534 50.763413 
L 28.312758 50.636833 
L 28.352731 51.009602 
L 28.397828 50.941671 
L 28.44805 51.020678 
L 28.410127 50.757406 
L 28.509546 50.963604 
L 28.602815 50.745991 
L 28.611014 51.014285 
L 28.623314 50.917716 
L 28.628438 50.820811 
L 28.704284 51.004295 
L 28.734007 50.923894 
L 28.744256 51.006053 
L 28.787303 50.692145 
L 28.841625 50.872387 
L 28.850849 51.006569 
L 28.928744 50.731473 
L 28.957443 50.916831 
L 29.030213 50.729059 
L 28.999465 51.001175 
L 29.065061 50.968813 
L 29.07941 51.001702 
L 29.110158 50.848417 
L 29.139881 50.845464 
L 29.146031 50.659904 
L 29.15423 51.005466 
L 29.248524 50.949045 
L 29.353068 50.990337 
L 29.288497 50.796652 
L 29.355117 50.925799 
L 29.46581 50.679572 
L 29.380741 51.008603 
L 29.470935 50.74546 
L 29.541656 50.987998 
L 29.55088 50.71673 
L 29.584703 50.817461 
L 29.590852 50.722667 
L 29.678997 51.01964 
L 29.693346 50.846081 
L 29.738443 50.61656 
L 29.770216 50.946694 
L 29.772266 51.005129 
L 29.823513 50.769944 
L 29.880909 50.956164 
L 29.936256 51.013599 
L 29.912682 50.837804 
L 29.94753 50.86702 
L 30.005951 50.776783 
L 30.0326 50.995921 
L 30.058223 50.865712 
L 30.088971 51.011886 
L 30.151492 50.731523 
L 30.167891 50.834744 
L 30.208888 50.696554 
L 30.183265 51.008415 
L 30.271409 50.903563 
L 30.360579 51.008105 
L 30.33393 50.81606 
L 30.376978 50.863799 
L 30.415925 50.784678 
L 30.408751 50.995628 
L 30.480496 50.925278 
L 30.485621 50.998547 
L 30.58094 50.725705 
L 30.718281 51.012074 
L 30.720331 50.914119 
L 30.773628 50.76122 
L 30.780802 51.01287 
L 30.829999 50.97694 
L 30.920193 50.689968 
L 30.849473 51.000724 
L 30.945817 50.898811 
L 30.995014 50.990342 
L 31.05036 50.815575 
L 31.053435 50.823638 
L 31.05856 50.780086 
L 31.082133 50.99105 
L 31.141579 50.950409 
L 31.143629 51.009171 
L 31.205125 50.716455 
L 31.246123 50.725071 
L 31.249198 50.696692 
L 31.28712 51.010615 
L 31.347591 50.885138 
L 31.401913 50.997649 
L 31.394738 50.663863 
L 31.45316 50.819242 
L 31.492107 50.74943 
L 31.479808 50.941812 
L 31.542329 50.901013 
L 31.636623 51.003294 
L 31.60895 50.781487 
L 31.654047 50.916134 
L 31.665321 51.017917 
L 31.703244 50.804076 
L 31.743216 50.815222 
L 31.798563 50.725179 
L 31.822136 50.996609 
L 31.850835 50.867152 
L 31.927705 50.994345 
L 31.917455 50.82093 
L 31.960503 50.850861 
L 31.969727 50.678597 
L 32.045572 51.01454 
L 32.064021 50.982559 
L 32.15524 50.716005 
L 32.091694 51.008379 
L 32.185988 50.913846 
L 32.188038 51.010138 
L 32.202387 50.746303 
L 32.297706 50.994307 
L 32.362277 50.777032 
L 32.417624 50.95956 
L 32.526267 51.021824 
L 32.450422 50.586778 
L 32.529342 50.987471 
L 32.617486 50.691928 
L 32.579563 51.000871 
L 32.647209 50.847576 
L 32.657459 51.016364 
L 32.695381 50.759049 
L 32.768152 50.981299 
L 32.829648 50.81688 
L 32.773276 51.010415 
L 32.884994 50.915975 
L 32.939316 51.012497 
L 32.95674 50.783222 
L 32.997737 50.943305 
L 33.099206 50.973902 
L 33.037709 50.873806 
L 33.10433 50.922237 
L 33.1853 50.72223 
L 33.148402 51.017877 
L 33.215023 50.915184 
L 33.286769 50.997897 
L 33.232447 50.749043 
L 33.325716 50.916663 
L 33.389262 50.745259 
L 33.406686 50.981684 
L 33.444609 50.802326 
L 33.560426 51.008725 
L 33.544027 50.717829 
L 33.561451 50.984055 
L 33.568626 50.75851 
L 33.677269 50.776503 
L 33.695718 50.692765 
L 33.727491 50.988842 
L 33.74184 51.013474 
L 33.804361 50.768471 
L 33.831009 50.919738 
L 33.942727 50.717084 
L 33.861757 50.990361 
L 33.945802 50.795264 
L 34.046246 51.023243 
L 33.988849 50.788439 
L 34.05957 50.959889 
L 34.067769 50.762762 
L 34.115941 51.017002 
L 34.172313 50.885073 
L 34.299405 51.001289 
L 34.225609 50.777423 
L 34.303504 50.946508 
L 34.411123 50.835136 
L 34.351676 51.004177 
L 34.416247 50.907392 
L 34.497217 50.986258 
L 34.440846 50.730727 
L 34.525915 50.905514 
L 34.639683 50.76628 
L 34.624309 51.015541 
L 34.641733 50.776904 
L 34.759601 51.015852 
L 34.715528 50.697037 
L 34.764725 50.950297 
L 34.797523 50.75632 
L 34.826221 51.006533 
L 34.875418 50.956503 
L 34.905141 50.993445 
L 34.934865 50.713212 
L 34.977912 50.905245 
L 35.045558 50.758007 
L 35.019934 50.98533 
L 35.088605 50.886019 
L 35.1583 51.010335 
L 35.193148 50.754168 
L 35.197248 50.842332 
L 35.222871 51.022713 
L 35.211597 50.799597 
L 35.307941 50.863011 
L 35.416584 50.831522 
L 35.39711 51.011672 
L 35.419659 50.848912 
L 35.535477 51.007708 
L 35.472955 50.750364 
L 35.537526 50.944072 
L 35.638995 50.810583 
L 35.626696 51.015797 
L 35.647194 50.957646 
L 35.71074 50.997682 
L 35.702541 50.752849 
L 35.726114 50.823693 
L 35.729189 50.729857 
L 35.830658 51.005221 
L 35.835783 50.893131 
L 35.933151 51.019874 
L 35.88088 50.760184 
L 35.9516 50.923809 
L 36.055119 50.82566 
L 36.014121 51.002854 
L 36.066393 50.907572 
L 36.161712 51.0216 
L 36.073568 50.829578 
L 36.174011 50.89146 
L 36.197585 50.775245 
L 36.27548 51.003644 
L 36.283679 50.891014 
L 36.387198 51.011162 
L 36.312377 50.793543 
L 36.393347 50.875739 
L 36.452794 50.77197 
L 36.42717 50.998512 
L 36.494816 50.980281 
L 36.539913 51.005288 
L 36.554262 50.833481 
L 36.604484 50.963932 
L 36.716202 50.874506 
L 36.631132 51.020858 
L 36.720302 50.933737 
L 36.83202 51.007695 
L 36.796147 50.73538 
L 36.833044 50.992171 
L 36.947837 50.801672 
L 36.839194 51.015588 
L 36.957062 50.845123 
L 37.059555 51.008215 
L 36.967311 50.766789 
L 37.072879 50.927838 
L 37.166148 50.780273 
L 37.140525 50.992731 
L 37.184597 50.897221 
L 37.22662 50.84168 
L 37.207146 51.011492 
L 37.291191 50.947178 
L 37.389584 51.011108 
L 37.360886 50.878419 
L 37.404958 50.971624 
L 37.489003 51.005347 
L 37.46338 50.839009 
L 37.496178 50.912311 
L 37.596621 50.746302 
L 37.567923 51.015324 
L 37.607895 50.87172 
L 37.713464 51.016738 
L 37.632494 50.726376 
L 37.717564 50.886583 
L 37.720638 50.818896 
L 37.797508 51.022165 
L 37.825182 50.975429 
L 37.828257 51.014308 
L 37.86003 50.751699 
L 37.9328 50.9236 
L 37.958423 50.813606 
L 38.040418 51.006922 
L 38.044518 51.003383 
L 38.051692 50.903262 
L 38.078341 50.79876 
L 38.149061 50.989896 
L 38.158286 50.943522 
L 38.211582 51.017115 
L 38.230031 50.811438 
L 38.268979 50.943067 
L 38.383771 50.786517 
L 38.342774 51.000202 
L 38.385821 50.789522 
L 38.505739 51.015996 
L 38.427844 50.694136 
L 38.542636 50.971546 
L 38.609257 50.834921 
L 38.590808 51.01574 
L 38.652304 50.991175 
L 38.706626 50.927365 
L 38.709701 50.890077 
L 38.754798 50.836518 
L 38.741474 51.010555 
L 38.810144 50.972528 
L 38.898289 51.009356 
L 38.846017 50.739972 
L 38.903414 50.831463 
L 38.945436 50.75552 
L 38.938261 51.000044 
L 38.992583 50.949504 
L 39.022306 51.009852 
L 39.038705 50.830773 
L 39.101226 50.94706 
L 39.165797 51.005493 
L 39.217044 50.806898 
L 39.218069 50.805644 
L 39.229343 50.950408 
L 39.259066 50.916887 
L 39.279565 51.018084 
L 39.327737 50.799881 
L 39.374884 50.973702 
L 39.42818 50.84323 
L 39.390258 51.016262 
L 39.498901 50.940517 
L 39.615744 51.007013 
L 39.591145 50.822662 
L 39.616768 50.991982 
L 39.635217 51.001825 
L 39.734636 50.737742 
L 39.861728 50.996964 
L 39.867878 50.94858 
L 39.964221 50.824895 
L 39.882227 51.007174 
L 39.978571 50.932122 
L 40.080039 51.02014 
L 40.032892 50.816325 
L 40.087214 50.885779 
L 40.153834 50.816771 
L 40.14666 51.021304 
L 40.194832 50.899511 
L 40.204056 51.012106 
L 40.280926 50.776431 
L 40.30655 50.932532 
L 40.418268 50.832684 
L 40.340373 51.00762 
L 40.419293 50.840205 
L 40.515637 51.011455 
L 40.538185 50.96125 
L 40.586357 51.015405 
L 40.604806 50.770344 
L 40.638629 50.91422 
L 40.662202 50.844757 
L 40.684751 51.018058 
L 40.743172 51.002105 
L 40.827217 51.00801 
L 40.770845 50.830281 
L 40.844641 50.956574 
L 40.945084 50.789045 
L 40.872314 51.013724 
L 40.957384 50.932425 
L 40.997356 51.019277 
L 41.051678 50.725162 
L 41.058852 50.768861 
L 41.061927 50.758404 
L 41.09165 51.000488 
L 41.128548 50.938861 
L 41.183894 51.01053 
L 41.171595 50.805418 
L 41.238216 50.902057 
L 41.275114 50.810702 
L 41.317136 51.018287 
L 41.341734 50.957019 
L 41.344809 51.011936 
L 41.391956 50.790085 
L 41.448328 50.868663 
L 41.479076 50.853179 
L 41.463702 51.004185 
L 41.483175 50.978226 
L 41.526223 51.011957 
L 41.586694 50.739365 
L 41.702512 51.01565 
L 41.72301 50.886807 
L 41.736334 50.785801 
L 41.796806 51.014414 
L 41.822429 51.000535 
L 41.887 51.016179 
L 41.869576 50.837633 
L 41.915698 50.916854 
L 41.935172 50.82107 
L 42.003842 50.989925 
L 42.018192 50.990268 
L 42.054064 51.010494 
L 42.101211 50.815964 
L 42.105311 50.896572 
L 42.163732 51.012716 
L 42.170907 50.804709 
L 42.218054 50.962399 
L 42.294924 50.750148 
L 42.228303 50.997857 
L 42.329772 50.955605 
L 42.398443 50.663026 
L 42.442515 50.99279 
L 42.483512 50.995804 
L 42.470188 50.834838 
L 42.498886 50.871186 
L 42.504011 50.799768 
L 42.576781 51.017744 
L 42.602405 51.000897 
L 42.702848 51.02258 
L 42.624953 50.835086 
L 42.706948 50.949596 
L 42.783818 50.790823 
L 42.714123 51.014645 
L 42.820716 50.884601 
L 42.83199 51.016887 
L 42.842239 50.795213 
L 42.932434 50.907308 
L 43.013404 50.78597 
L 42.953957 50.98899 
L 43.020578 50.975716 
L 43.025703 51.012967 
L 43.091299 50.783697 
L 43.114872 50.882462 
L 43.117947 50.818541 
L 43.218391 51.019209 
L 43.22249 50.994919 
L 43.239914 50.863792 
L 43.249139 51.014115 
L 43.344458 50.973834 
L 43.351632 51.019737 
L 43.441827 50.802661 
L 43.449001 50.852419 
L 43.451051 50.825462 
L 43.497173 51.017533 
L 43.553544 50.993692 
L 43.63144 50.787164 
L 43.557644 51.002481 
L 43.705235 50.968189 
L 43.804654 51.014639 
L 43.754432 50.744759 
L 43.812853 50.936109 
L 43.837452 50.857539 
L 43.827202 51.006551 
L 43.917396 50.963554 
L 43.993242 51.010882 
L 44.006566 50.88823 
L 44.025015 50.892958 
L 44.116234 50.833524 
L 44.068062 51.00599 
L 44.126483 50.972882 
L 44.208478 51.014594 
L 44.148007 50.793433 
L 44.234101 50.917721 
L 44.301747 50.747587 
L 44.321221 51.010636 
L 44.342745 50.938247 
L 44.352994 51.013169 
L 44.367343 50.831278 
L 44.453438 50.931638 
L 44.49546 51.007556 
L 44.461637 50.785074 
L 44.562081 50.922139 
L 44.638951 50.818379 
L 44.601028 51.014125 
L 44.671749 50.922967 
L 44.684048 51.018217 
L 44.717871 50.893359 
L 44.780392 50.902129 
L 44.795766 51.007524 
L 44.799866 50.789271 
L 44.801916 50.733737 
L 44.876736 51.000514 
L 44.905434 50.976531 
L 44.974105 50.779682 
L 44.927983 51.018133 
L 45.020227 50.954607 
L 45.068399 51.017198 
L 45.125795 50.854331 
L 45.183191 50.786801 
L 45.166792 51.002182 
L 45.234438 50.881074 
L 45.326682 50.872267 
L 45.251862 51.013983 
L 45.331807 50.91787 
L 45.338982 51.013117 
L 45.397403 50.830574 
L 45.44455 50.971739 
L 45.494772 50.815533 
L 45.459924 51.016244 
L 45.558318 50.952277 
L 45.631088 51.014058 
L 45.568567 50.82437 
L 45.638263 50.85049 
L 45.68746 50.786924 
L 45.646462 51.01091 
L 45.738706 50.969339 
L 45.765355 50.796577 
L 45.812502 50.719563 
L 45.775604 51.013909 
L 45.870923 50.912747 
L 45.972392 51.008471 
L 45.936519 50.816429 
L 45.979566 50.862413 
L 46.072835 51.007785 
L 46.098459 50.906768 
L 46.181478 50.81079 
L 46.106658 51.005046 
L 46.187628 50.98826 
L 46.188653 51.016779 
L 46.213251 50.757187 
L 46.296271 50.96991 
L 46.340343 50.828556 
L 46.366992 51.012026 
L 46.406964 50.933318 
L 46.451036 51.011133 
L 46.457186 50.8528 
L 46.517657 50.961968 
L 46.579153 50.831469 
L 46.589402 51.017047 
L 46.6304 50.887114 
L 46.758517 50.989859 
L 46.762617 50.954155 
L 46.781065 50.805292 
L 46.829237 51.007073 
L 46.87331 50.959979 
L 46.945055 51.007951 
L 46.922506 50.829051 
L 46.970678 50.894528 
L 46.998352 50.753572 
L 47.035249 51.022814 
L 47.069072 50.955633 
L 47.133643 51.004834 
L 47.170541 50.84918 
L 47.179765 50.953724 
L 47.218713 50.752982 
L 47.26381 51.010028 
L 47.291483 50.938698 
L 47.301732 50.836541 
L 47.406276 51.017338 
L 47.476996 50.855498 
L 47.519019 50.952342 
L 47.538492 50.821622 
L 47.558991 51.015243 
L 47.624587 50.966334 
L 47.629712 50.996738 
L 47.635861 50.808 
L 47.730155 50.865428 
L 47.758854 50.829954 
L 47.750654 51.012443 
L 47.832649 50.93797 
L 47.877746 51.014136 
L 47.910544 50.870289 
L 47.940267 50.891042 
L 47.941292 50.890595 
L 47.954616 50.998779 
L 47.962816 50.992295 
L 48.018162 51.021274 
L 48.026362 50.847134 
L 48.071459 50.966683 
L 48.182152 50.786095 
L 48.089908 51.018172 
L 48.187276 50.889135 
L 48.280546 51.011849 
L 48.217 50.754261 
L 48.301044 50.981562 
L 48.376889 51.012166 
L 48.323593 50.853639 
L 48.380989 50.902115 
L 48.401488 50.805781 
L 48.394313 51.002037 
L 48.490657 50.909697 
L 48.565478 51.015433 
L 48.597251 50.840498 
L 48.631073 50.703337 
L 48.666946 50.988706 
L 48.700769 50.927191 
L 48.778664 51.01377 
L 48.715118 50.826421 
L 48.817612 50.939233 
L 48.91703 50.829886 
L 48.881158 51.006395 
L 48.92318 50.973379 
L 48.963152 51.019708 
L 48.940604 50.828456 
L 49.031823 50.915953 
L 49.086145 51.007809 
L 49.096394 50.815566 
L 49.138416 50.893929 
L 49.15789 50.781775 
L 49.181464 51.015468 
L 49.248084 50.89709 
L 49.338279 51.016629 
L 49.348528 50.798732 
L 49.358777 50.885881 
L 49.404899 51.013733 
L 49.451022 50.797066 
L 49.47562 50.996705 
L 49.577089 50.818237 
L 49.535066 51.012218 
L 49.599637 50.953794 
L 49.692906 51.006751 
L 49.610911 50.78988 
L 49.71033 50.95095 
L 49.799499 50.854079 
L 49.715455 51.012226 
L 49.846647 50.925056 
L 49.849721 51.014 
L 49.898918 50.841111 
L 49.95529 50.889455 
L 50.051634 50.748729 
L 49.974763 51.00981 
L 50.069057 50.840199 
L 50.077257 51.014434 
L 50.140803 50.831178 
L 50.184875 50.949689 
L 50.212548 50.829755 
L 50.221773 51.013201 
L 50.295568 50.947703 
L 50.407286 51.009437 
L 50.318117 50.843292 
L 50.411386 50.962269 
L 50.459558 50.839296 
L 50.42881 51.018492 
L 50.524129 50.911617 
L 50.539503 51.019062 
L 50.602024 50.80818 
L 50.633797 50.885405 
L 50.743465 51.012044 
L 50.686068 50.841566 
L 50.767038 50.971919 
L 50.884906 50.80269 
L 50.794712 51.010293 
L 50.886956 50.822831 
L 50.956651 51.018011 
L 50.933078 50.78102 
L 51.002773 50.978089 
L 51.011998 51.012713 
L 51.040696 50.808967 
L 51.052995 50.802777 
L 51.086818 51.013875 
L 51.090918 51.003407 
L 51.145239 51.018275 
L 51.112441 50.784117 
L 51.180087 50.853615 
L 51.181112 50.853357 
L 51.186237 50.954898 
L 51.188287 50.961066 
L 51.29078 51.020167 
L 51.257982 50.779102 
L 51.29693 50.937636 
L 51.331778 50.827671 
L 51.342027 51.012904 
L 51.404548 50.963939 
L 51.439396 51.016894 
L 51.465019 50.781734 
L 51.514216 50.93074 
L 51.53369 50.791479 
L 51.599286 51.013271 
L 51.623884 50.921332 
L 51.711004 51.015767 
L 51.732527 50.858446 
L 52.024634 50.994805 
L 52.031808 50.877511 
L 52.117903 50.848248 
L 52.074856 50.979571 
L 52.127127 50.974397 
L 52.212197 51.011384 
L 52.228596 50.746036 
L 52.229621 50.731898 
L 52.302391 51.018343 
L 52.321865 50.992242 
L 52.330064 50.883792 
L 52.342364 50.792549 
L 52.40591 51.020818 
L 52.440757 50.891859 
L 52.510453 50.991085 
L 52.48688 50.809705 
L 52.55145 50.903172 
L 52.552475 50.904398 
L 52.5576 50.739992 
L 52.558625 50.733935 
L 52.620121 50.99663 
L 52.633445 50.943223 
L 52.714415 51.015756 
L 52.704166 50.778334 
L 52.746188 51.005281 
L 52.857906 50.869569 
L 52.79026 51.01704 
L 52.859956 50.897923 
L 52.900953 51.020404 
L 52.955275 50.760149 
L 52.972699 50.957356 
L 53.082367 51.019634 
L 52.987048 50.857421 
L 53.083392 50.9742 
L 53.172561 50.78537 
L 53.100816 51.009062 
L 53.196135 50.862777 
L 53.281204 51.01923 
L 53.305803 50.861399 
L 53.307853 50.832693 
L 53.340651 51.020973 
L 53.411371 50.972812 
L 53.458518 51.017164 
L 53.496441 50.793981 
L 53.516939 50.923937 
L 53.535388 50.810821 
L 53.615333 51.003773 
L 53.621483 50.986413 
L 53.713727 51.006233 
L 53.647106 50.854124 
L 53.730126 50.977248 
L 53.813146 50.816096 
L 53.7414 51.018997 
L 53.843894 50.884774 
L 53.947412 50.776466 
L 53.878742 51.01405 
L 53.953562 50.879239 
L 54.005833 51.008706 
L 54.019158 50.840843 
L 54.06733 50.967109 
L 54.179048 50.822682 
L 54.118576 51.003211 
L 54.182122 50.879607 
L 54.244643 51.020669 
L 54.266167 50.784917 
L 54.29179 50.832532 
L 54.368661 51.009874 
L 54.397359 50.800494 
L 54.398384 50.799661 
L 54.402483 50.93229 
L 54.408633 51.013653 
L 54.46398 50.785343 
L 54.514201 50.964631 
L 54.868829 50.902235 
L 54.879078 50.985387 
L 54.975422 51.015112 
L 54.939549 50.853787 
L 54.983622 50.884113 
L 55.027694 50.856419 
L 55.00207 51.013685 
L 55.073816 50.983939 
L 55.178359 51.019152 
L 55.136337 50.86653 
L 55.182459 50.950976 
L 55.243955 50.802348 
L 55.271628 51.011777 
L 55.292127 50.938553 
L 55.373097 51.021849 
L 55.299302 50.859189 
L 55.40487 51.010192 
L 55.48584 50.814815 
L 55.47969 51.01767 
L 55.517613 50.935246 
L 55.599608 51.014414 
L 55.575009 50.782098 
L 55.629331 50.959529 
L 55.723625 51.013689 
L 55.701076 50.833252 
L 55.740024 50.954997 
L 55.791271 50.864283 
L 55.796395 51.019628 
L 55.850717 50.92734 
L 55.942961 51.011712 
L 55.95321 50.770619 
L 55.954235 50.768689 
L 55.971659 50.972209 
L 56.007532 51.011328 
L 55.994208 50.801783 
L 56.079277 50.906005 
L 56.106951 50.83846 
L 56.095676 51.002909 
L 56.186896 50.931129 
L 56.327312 51.009158 
L 56.207394 50.901302 
L 56.336536 50.915771 
L 56.338586 50.881054 
L 56.363184 51.01538 
L 56.447229 50.925574 
L 56.465678 50.842769 
L 56.453379 51.018489 
L 56.541523 51.011019 
L 56.672715 50.887627 
L 56.67579 50.957326 
L 56.784433 51.015072 
L 56.765984 50.839923 
L 56.786483 50.983313 
L 56.862328 50.856116 
L 56.818256 51.010718 
L 56.901275 50.868762 
L 56.98327 51.016195 
L 56.928949 50.846642 
L 57.018118 50.954564 
L 57.023243 50.874128 
L 57.036567 51.020292 
L 57.129836 50.917185 
L 57.239504 51.012851 
L 57.195432 50.886081 
L 57.242579 50.977053 
L 57.260003 50.839433 
L 57.247703 51.020673 
L 57.358396 50.934772 
L 57.373771 51.008609 
L 57.45474 50.857884 
L 57.470114 50.961987 
L 57.476264 50.833896 
L 57.562359 51.013412 
L 57.581832 50.944279 
L 57.587982 51.022996 
L 57.617705 50.797329 
L 57.6956 50.993643 
L 57.806293 50.873061 
L 57.745822 51.012592 
L 57.808343 50.935545 
L 57.819617 51.012838 
L 57.814493 50.835764 
L 57.919036 50.92632 
L 57.961058 50.832813 
L 57.937485 51.002017 
L 58.001031 50.99681 
L 58.0943 51.015358 
L 58.051253 50.850735 
L 58.103524 50.912486 
L 58.135297 50.834372 
L 58.118898 51.00616 
L 58.206018 50.964649 
L 58.301337 51.017167 
L 58.24599 50.845692 
L 58.313636 50.915242 
L 58.32901 50.867391 
L 58.343359 51.019353 
L 58.421254 50.954679 
L 58.473526 50.881403 
L 58.442778 51.012136 
L 58.528872 50.977142 
L 58.576019 51.010521 
L 58.635466 50.884043 
L 58.737959 51.018113 
L 58.647765 50.877034 
L 58.754358 50.948749 
L 58.774857 50.842685 
L 58.837378 51.01785 
L 58.864026 50.951862 
L 58.896824 51.019403 
L 58.947046 50.84386 
L 58.96652 50.890921 
L 59.034166 50.846296 
L 59.038265 51.004031 
L 59.074138 50.966072 
L 59.157158 50.811277 
L 59.112061 51.013416 
L 59.194055 50.908405 
L 59.317048 51.000391 
L 59.210454 50.82976 
L 59.325247 50.928649 
L 59.358045 50.823395 
L 59.413392 51.017224 
L 59.43594 50.941097 
L 59.492312 51.009521 
L 59.464638 50.883574 
L 59.546633 50.954079 
L 59.650152 50.87591 
L 59.556882 51.015004 
L 59.662451 50.890153 
L 59.75367 51.015978 
L 59.731121 50.813793 
L 59.776219 50.966925 
L 59.798767 50.85327 
L 59.853089 51.018179 
L 59.889986 50.933905 
L 59.987355 51.002264 
L 59.899211 50.820159 
L 60.000679 50.923223 
L 60.133921 51.014413 
L 60.020153 50.898976 
L 60.147245 50.946002 
L 60.183118 50.863048 
L 60.200542 51.003275 
L 60.257938 50.950249 
L 60.271262 51.020066 
L 60.31226 50.842099 
L 60.370681 50.986982 
L 60.479324 50.816582 
L 60.419878 51.006478 
L 60.484449 50.885392 
L 60.554144 51.020797 
L 60.512122 50.848257 
L 60.600266 50.989008 
L 60.714034 50.835219 
L 60.61769 51.016746 
L 60.718134 50.889727 
L 60.844201 51.004491 
L 60.845226 50.986664 
L 60.900572 50.78079 
L 60.894423 51.003252 
L 60.956944 50.964296 
L 61.040989 51.020454 
L 61.002041 50.837305 
L 61.064562 50.910143 
L 61.169105 50.858514 
L 61.157831 51.022155 
L 61.17218 50.927881 
L 61.2593 51.01213 
L 61.192679 50.766647 
L 61.281848 50.934528 
L 61.284923 50.881773 
L 61.299272 51.01613 
L 61.392541 50.937745 
L 61.50016 51.019382 
L 61.466337 50.882207 
L 61.503234 50.961409 
L 61.551406 50.831254 
L 61.539107 51.00819 
L 61.612902 50.980282 
L 61.714371 51.017006 
L 61.691822 50.87728 
L 61.72257 50.97598 
L 61.737945 50.832691 
L 61.816865 51.018771 
L 61.833263 50.983653 
L 61.854787 50.841546 
L 61.843513 51.017971 
L 61.953181 50.875834 
L 61.972655 51.015597 
L 62.004428 50.830335 
L 62.061824 50.860643 
L 62.063874 50.83364 
L 62.105896 51.020359 
L 62.167392 50.987664 
L 62.179692 51.021885 
L 62.19814 50.837656 
L 62.273986 50.919966 
L 62.324207 50.828539 
L 62.352906 51.016988 
L 62.379554 50.991326 
L 62.4431 51.018769 
L 62.470773 50.904101 
L 62.486147 50.933531 
L 62.557893 50.834669 
L 62.508696 51.018208 
L 62.588641 50.978163 
L 62.633738 51.02069 
L 62.645012 50.869194 
L 62.691134 50.926095 
L 62.790553 50.764448 
L 62.774154 51.017807 
L 62.798752 50.996216 
L 62.855124 50.868013 
L 62.803877 51.00959 
L 62.91867 50.957132 
L 63.021163 51.00411 
L 63.000665 50.862374 
L 63.029363 50.950935 
L 63.111358 50.859712 
L 63.037562 51.01114 
L 63.143131 50.952249 
L 63.14928 51.021953 
L 63.185153 50.866382 
L 63.253824 50.963237 
L 63.286622 50.842728 
L 63.306095 51.011609 
L 63.362467 50.993282 
L 63.437287 51.015941 
L 63.444462 50.887097 
L 63.470085 50.954291 
L 63.566429 50.76695 
L 63.54593 50.999605 
L 63.583853 50.87868 
L 63.683272 51.019438 
L 63.650474 50.868739 
L 63.702745 50.96874 
L 63.807289 50.831442 
L 63.77859 51.008452 
L 63.817538 50.907217 
L 63.830862 50.887291 
L 63.852386 51.018945 
L 63.904658 50.989832 
L 63.961029 51.017467 
L 63.917982 50.874968 
L 64.005101 50.901578 
L 64.099395 50.855289 
L 64.091196 51.01731 
L 64.112719 50.964246 
L 64.190614 51.017665 
L 64.149617 50.875155 
L 64.220338 50.916501 
L 64.314632 50.877462 
L 64.274659 51.01803 
L 64.324881 50.981251 
L 64.402776 51.019938 
L 64.396626 50.871232 
L 64.433524 50.959388 
L 64.473497 50.795934 
L 64.480671 51.011979 
L 64.546267 50.916157 
L 64.665159 51.012622 
L 64.624162 50.854691 
L 64.667209 50.967031 
L 64.672334 50.822153 
L 64.712306 51.018692 
L 64.778927 50.93597 
L 64.81275 51.019315 
L 64.877321 50.85997 
L 64.886545 50.879644 
L 64.990064 50.81881 
L 64.933692 51.003602 
L 64.994164 50.922275 
L 65.012612 51.01323 
L 65.066934 50.790613 
L 65.103832 50.87312 
L 65.187876 51.009765 
L 65.144829 50.750044 
L 65.217599 50.953149 
L 65.244248 50.879345 
L 65.264746 51.016619 
L 65.328292 50.939268 
L 65.424636 51.016721 
L 65.387739 50.856758 
L 65.44206 50.989365 
L 65.484083 50.889812 
L 65.463584 51.01993 
L 65.554803 50.966464 
L 65.617324 51.0155 
L 65.627574 50.836563 
L 65.662421 50.961548 
L 65.667546 50.859722 
L 65.709568 51.018092 
L 65.775164 50.906996 
L 65.786439 51.014002 
L 65.827436 50.835221 
L 65.888932 50.980346 
L 65.972977 50.848329 
L 65.893032 51.015563 
L 66.005775 50.971407 
L 66.031398 51.017294 
L 66.112368 50.898219 
L 66.201537 50.869468 
L 66.131842 51.011627 
L 66.212812 50.943821 
L 66.299931 51.009648 
L 66.248684 50.862717 
L 66.323505 50.936511 
L 66.336829 50.836071 
L 66.328629 51.018252 
L 66.428048 50.982445 
L 66.429073 51.015357 
L 66.460846 50.880105 
L 66.538741 50.97246 
L 66.628935 51.020019 
L 66.574614 50.872175 
L 66.647384 50.937285 
L 66.697606 50.786525 
L 66.744753 50.994489 
L 66.756027 50.945348 
L 66.860571 51.01836 
L 66.796 50.899697 
L 66.867745 50.990457 
L 66.926166 50.89007 
L 66.952815 51.019611 
L 66.981513 50.945578 
L 66.989712 50.865546 
L 67.006111 51.01443 
L 67.076832 51.000638 
L 67.156777 51.01287 
L 67.152677 50.897632 
L 67.176251 50.922939 
L 67.210073 50.873234 
L 67.18855 51.00752 
L 67.286944 50.932482 
L 67.322816 51.011697 
L 67.333066 50.877605 
L 67.388412 50.917244 
L 67.475532 50.79104 
L 67.402761 51.014024 
L 67.497055 50.984545 
L 67.651821 50.869594 
L 67.685643 50.982529 
L 67.785062 51.008313 
L 67.716391 50.882044 
L 67.795311 50.96634 
L 67.906004 50.873353 
L 67.832209 51.016448 
L 67.909079 50.909827 
L 68.017722 51.015344 
L 67.972625 50.835232 
L 68.020797 50.914704 
L 68.116116 50.866648 
L 68.026947 51.008872 
L 68.128415 50.944686 
L 68.196061 51.007948 
L 68.179662 50.839805 
L 68.233984 50.913225 
L 68.314954 50.772571 
L 68.276006 51.008207 
L 68.340577 50.94832 
L 68.3662 51.011769 
L 68.403098 50.810357 
L 68.44922 50.924954 
L 68.480993 50.875466 
L 68.473819 51.007601 
L 68.550689 50.971796 
L 68.579387 51.021025 
L 68.556838 50.863046 
L 68.659332 50.883946 
L 68.661382 50.846201 
L 68.729027 51.020787 
L 68.769 50.896938 
L 68.869444 51.00929 
L 68.788474 50.852004 
L 68.905316 50.932551 
L 68.995511 50.81864 
L 68.964763 51.020295 
L 69.013959 50.982442 
L 69.211772 50.863445 
L 69.021134 51.001567 
L 69.215872 50.9829 
L 69.216897 51.021665 
L 69.31529 50.868571 
L 69.32554 50.986764 
L 69.347063 50.896478 
L 69.39421 51.014075 
L 69.438283 50.933433 
L 69.48338 50.874029 
L 69.501829 51.015008 
L 69.55 50.923973 
L 69.571524 51.008937 
L 69.578699 50.842416 
L 69.661718 50.945489 
L 69.71194 51.021179 
L 69.719115 50.812352 
L 69.774461 50.988437 
L 69.811359 51.014492 
L 69.865681 50.826943 
L 69.87798 50.911757 
L 69.931276 50.789329 
L 69.95895 51.017658 
L 69.983548 50.927 
L 70.087067 51.019332 
L 69.988673 50.850196 
L 70.095266 50.960371 
L 70.098341 51.016872 
L 70.148563 50.864547 
L 70.201859 50.912655 
L 70.26848 50.855251 
L 70.297178 51.019798 
L 70.305378 50.993159 
L 70.534963 50.899398 
L 70.549312 50.999459 
L 70.649756 51.021023 
L 70.620033 50.785361 
L 70.65898 50.989263 
L 70.705102 50.780509 
L 70.694853 51.023187 
L 70.770698 50.970862 
L 70.870117 51.015354 
L 70.784022 50.867894 
L 70.879341 50.961625 
L 70.930588 50.870324 
L 70.915214 51.020905 
L 70.992084 50.928364 
L 71.092528 51.013021 
L 71.047431 50.850277 
L 71.104827 50.975072 
L 71.14685 51.009821 
L 71.164273 50.875755 
L 71.212445 50.837272 
L 71.236019 51.020359 
L 71.259592 50.977776 
L 71.340562 51.021258 
L 71.361061 50.80187 
L 71.37131 51.00426 
L 71.412308 50.84964 
L 71.401033 51.018686 
L 71.485078 50.930058 
L 71.507627 51.017452 
L 71.556824 50.792765 
L 71.596796 50.950725 
L 71.638818 50.885174 
L 71.628569 51.017043 
L 71.702364 51.007885 
L 71.719788 50.883079 
L 71.779235 50.861928 
L 71.727988 51.006753 
L 71.826382 50.915136 
L 71.833556 51.021921 
L 71.891977 50.843908 
L 71.941174 50.988171 
L 72.036493 50.855982 
L 71.974997 51.016058 
L 72.053917 50.942544 
L 72.08159 51.015629 
L 72.060067 50.898175 
L 72.16461 50.956796 
L 72.238405 50.814728 
L 72.224056 51.011836 
L 72.277353 50.920171 
L 72.370622 51.005723 
L 72.337824 50.826544 
L 72.387021 50.90876 
L 72.451592 50.896709 
L 72.416744 51.007625 
L 72.48439 51.005692 
L 72.627881 50.920413 
L 72.635055 50.985255 
L 72.744723 51.016063 
L 72.677078 50.821348 
L 72.745748 51.006342 
L 72.842092 50.849121 
L 72.805195 51.018616 
L 72.858491 50.924261 
L 72.942536 51.013202 
L 72.95996 50.840519 
L 72.971234 50.993658 
L 72.998907 50.888876 
L 73.003007 51.019943 
L 73.082952 50.972326 
L 73.163922 50.828494 
L 73.1178 50.996631 
L 73.197745 50.915378 
L 73.301263 50.896341 
L 73.26744 51.015091 
L 73.306388 50.936145 
L 73.385308 51.008093 
L 73.378133 50.905318 
L 73.415031 50.921692 
L 73.477552 50.861273 
L 73.499076 51.009969 
L 73.523674 50.962147 
L 73.605669 50.903328 
L 73.570821 51.017618 
L 73.631292 50.992255 
L 73.710212 51.011892 
L 73.671265 50.900678 
L 73.734811 50.950342 
L 73.779908 50.896852 
L 73.754285 51.011621 
L 73.844479 50.960494 
L 73.937748 51.020096 
L 73.889576 50.851322 
L 73.951072 50.908348 
L 73.988995 50.880993 
L 73.968496 51.001201 
L 74.026917 50.985146 
L 74.06894 51.015954 
L 74.056641 50.865736 
L 74.132486 50.940704 
L 74.209356 50.916312 
L 74.148885 51.018832 
L 74.232929 51.011394 
L 74.325174 51.022434 
L 74.319024 50.875694 
L 74.337473 50.971359 
L 74.392819 50.7973 
L 74.399994 51.018626 
L 74.448166 50.949976 
L 74.539385 51.01798 
L 74.481989 50.862244 
L 74.559884 50.980403 
L 74.656228 50.810796 
L 74.649053 51.017232 
L 74.670577 50.974034 
L 74.731048 51.018154 
L 74.748472 50.853414 
L 74.77922 50.964194 
L 74.793569 50.855363 
L 74.86019 51.017308 
L 74.887863 50.995553 
L 74.997531 51.018419 
L 74.929885 50.907426 
L 74.998556 51.002484 
L 75.062102 50.843345 
L 75.035454 51.022025 
L 75.113349 50.947203 
L 75.164595 50.841538 
L 75.120523 51.005226 
L 75.209693 50.990318 
L 75.289638 51.017107 
L 75.255815 50.883935 
L 75.315261 50.910172 
L 75.396231 50.909588 
L 75.320386 51.014841 
L 75.399306 50.966644 
L 75.430054 50.856938 
L 75.512048 51.015963 
L 75.584819 50.788227 
L 75.625816 50.952691 
L 75.708836 51.016844 
L 75.660664 50.865428 
L 75.738559 50.955115 
L 75.770332 50.894067 
L 75.753933 51.021758 
L 75.852327 50.915638 
L 75.889225 51.015579 
L 75.932272 50.86518 
L 75.96507 50.95805 
L 76.066538 51.020212 
L 75.973269 50.888884 
L 76.071663 50.923137 
L 76.075763 50.872252 
L 76.162882 51.021442 
L 76.177231 51.000698 
L 76.252052 51.021697 
L 76.232578 50.901376 
L 76.286899 50.970454 
L 76.365819 50.800292 
L 76.306373 51.022705 
L 76.396568 50.998687 
L 76.397592 51.020501 
L 76.486762 50.810787 
L 76.504186 50.950686 
L 76.59233 50.84311 
L 76.565682 51.017389 
L 76.613854 50.97152 
L 76.640502 50.895475 
L 76.623078 51.003753 
L 76.732746 50.965019 
L 76.841389 51.016299 
L 76.785018 50.85601 
L 76.843439 50.957367 
L 76.947983 50.869717 
L 76.935683 51.011856 
L 76.955157 50.928546 
L 76.99308 50.875179 
L 76.966431 51.018793 
L 77.055601 50.991613 
L 77.127346 51.02159 
L 77.102748 50.877299 
L 77.15297 50.897586 
L 77.15502 50.855394 
L 77.258538 51.017846 
L 77.263663 50.882085 
L 77.364106 51.017344 
L 77.299535 50.858141 
L 77.388705 50.969999 
L 77.424578 50.847007 
L 77.398954 51.014325 
L 77.498373 50.982463 
L 77.557819 51.009425 
L 77.519896 50.906813 
L 77.580368 50.910555 
L 77.614191 50.823758 
L 77.596767 50.997033 
L 77.683886 50.964627 
L 77.772031 51.01202 
L 77.743332 50.849051 
L 77.794579 50.965594 
L 77.904247 50.934592 
L 77.801754 50.990658 
L 77.919621 51.00853 
L 77.970868 51.018801 
L 77.987267 50.865983 
L 78.01904 50.96249 
L 78.112309 50.864612 
L 78.098985 51.017476 
L 78.128708 50.970123 
L 78.175855 51.021514 
L 78.144082 50.889476 
L 78.239401 50.979674 
L 78.322421 50.914505 
L 78.294747 51.017019 
L 78.353169 50.966797 
L 78.420815 51.01269 
L 78.400316 50.86265 
L 78.462837 50.973237 
L 78.504859 50.89571 
L 78.522283 51.015974 
L 78.57353 50.969383 
L 78.599153 50.898245 
L 78.688323 51.014902 
L 78.795941 50.892666 
L 78.801065 50.986905 
L 78.80824 51.019917 
L 78.830789 50.856673 
L 78.912783 50.997846 
L 78.986579 51.0129 
L 78.920983 50.855197 
L 78.998878 50.905941 
L 79.045 50.849649 
L 79.014252 51.011154 
L 79.102396 50.974727 
L 79.20284 51.012492 
L 79.145444 50.888667 
L 79.215139 50.990148 
L 79.27766 50.842735 
L 79.264336 51.01505 
L 79.325832 50.983229 
L 79.411927 51.014633 
L 79.396553 50.841967 
L 79.428326 50.953804 
L 79.431401 50.877703 
L 79.452924 51.01453 
L 79.537994 50.969475 
L 79.586166 51.013014 
L 79.617939 50.901303 
L 79.645612 50.945685 
L 79.695834 50.865617 
L 79.713258 51.010559 
L 79.75528 50.962273 
L 79.779879 51.020612 
L 79.83215 50.865965 
L 79.861873 50.894653 
L 79.950018 51.016972 
L 79.959242 50.881931 
L 79.975641 50.923609 
L 80.083259 50.858127 
L 80.039187 51.018158 
L 80.086334 50.91241 
L 80.175504 51.01588 
L 80.15808 50.793894 
L 80.200102 50.994871 
L 80.281072 50.857733 
L 80.210351 51.005723 
L 80.336418 50.961233 
L 80.39689 51.017982 
L 80.347693 50.90911 
L 80.445062 50.908849 
L 80.54858 51.019455 
L 80.533206 50.83347 
L 80.559854 50.927631 
L 80.661323 50.850814 
L 80.570104 51.014112 
L 80.671572 50.908763 
L 80.747417 50.857752 
L 80.676697 51.009579 
L 80.764841 50.967673 
L 80.863235 51.017368 
L 80.805839 50.894162 
L 80.875534 50.988004 
L 80.965729 50.883778 
L 80.980078 51.021984 
L 80.986227 50.950029 
L 81.037474 51.007007 
L 81.077447 50.805021 
L 81.097945 50.977542 
L 81.196339 51.013234 
L 81.137918 50.892015 
L 81.199414 50.927659 
L 81.202489 50.872478 
L 81.244511 51.013914 
L 81.310107 50.927604 
L 81.398251 51.021911 
L 81.41465 50.871932 
L 81.423875 50.969594 
L 81.518169 50.905714 
L 81.480246 51.016123 
L 81.533543 50.981154 
L 81.631936 51.019392 
L 81.636036 50.891939 
L 81.645261 50.990742 
L 81.686258 50.886493 
L 81.73443 51.019912 
L 81.754929 51.003262 
L 81.827699 51.013652 
L 81.770303 50.876286 
L 81.851273 50.931688 
L 81.901494 50.894904 
L 81.910719 51.019603 
L 81.958891 50.966117 
L 82.015262 51.017545 
L 81.982464 50.912931 
L 82.067534 50.955571 
L 82.177202 50.894629 
L 82.096232 51.017851 
L 82.179252 50.916896 
L 82.261247 51.012052 
L 82.248947 50.838331 
L 82.29097 50.976591 
L 82.347341 50.842281 
L 82.37399 51.013236 
L 82.400638 51.00183 
L 82.582051 50.907119 
L 82.585126 50.972241 
L 82.586151 51.009195 
L 82.651747 50.907268 
L 82.694794 50.935563 
L 82.780889 50.800714 
L 82.728617 51.02029 
L 82.801387 50.989394 
L 82.882357 51.009551 
L 82.863909 50.881495 
L 82.907981 50.952049 
L 82.9951 50.900396 
L 82.961277 51.022702 
L 83.016624 50.999301 
L 83.062746 51.017945 
L 83.058646 50.917214 
L 83.113993 50.921595 
L 83.218536 50.865152 
L 83.131417 51.016167 
L 83.221611 50.951641 
L 83.285157 51.022442 
L 83.228785 50.870255 
L 83.330254 50.903067 
L 83.342553 50.814486 
L 83.416349 51.018491 
L 83.438897 50.987983 
L 83.495269 51.006305 
L 83.506543 50.847128 
L 83.533191 50.917101 
L 83.570089 50.864854 
L 83.631585 51.02015 
L 83.637735 50.96468 
L 83.71153 51.01746 
L 83.668483 50.886185 
L 83.749453 50.974205 
L 83.761752 50.897058 
L 83.777126 51.008273 
L 83.859121 50.974851 
L 83.929841 51.016613 
L 83.965714 50.853939 
L 84.01901 51.009025 
L 84.064108 50.80842 
L 84.083581 50.928136 
L 84.096906 50.866656 
L 84.113305 51.015932 
L 84.193249 50.94519 
L 84.230147 51.017603 
L 84.198374 50.881121 
L 84.304967 51.01379 
L 84.355189 51.021398 
L 84.350065 50.889082 
L 84.404386 50.955425 
L 84.501755 50.848656 
L 84.448458 51.013087 
L 84.516104 50.934473 
L 84.607323 51.021014 
L 84.623722 50.922303 
L 84.628847 50.980003 
L 84.692393 50.849726 
L 84.716991 51.016353 
L 84.738515 51.002557 
L 84.848183 50.864225 
L 84.762089 51.01495 
L 84.852283 50.984754 
L 84.957851 51.017151 
L 84.948627 50.844092 
L 84.961951 50.958778 
L 85.05317 51.016856 
L 85.05932 50.849603 
L 85.070594 50.938392 
L 85.146439 50.956971 
L 85.089043 51.019931 
L 85.150539 51.010194 
L 85.151564 51.019596 
L 85.180262 50.881786 
L 85.258157 50.994426 
L 85.338102 50.880602 
L 85.28788 51.020655 
L 85.373975 50.932004 
L 85.430346 50.833954 
L 85.446745 51.012509 
L 85.476468 50.991271 
L 85.545139 51.009389 
L 85.496967 50.883456 
L 85.583062 50.95665 
L 85.640458 50.893095 
L 85.60356 51.020724 
L 85.689655 51.00039 
L 85.819822 50.88064 
L 85.700929 51.00869 
L 85.831096 50.980202 
L 85.92949 51.011294 
L 85.836221 50.850811 
L 85.938714 50.936373 
L 85.971512 50.813388 
L 85.999185 51.01424 
L 86.050432 50.928433 
L 86.094504 51.01785 
L 86.129352 50.900896 
L 86.163175 50.960931 
L 86.258494 50.861007 
L 86.183674 51.008987 
L 86.273868 50.951035 
L 86.31999 51.013029 
L 86.363037 50.855405 
L 86.385586 50.974594 
L 86.425558 50.87078 
L 86.393785 51.002384 
L 86.499354 50.983612 
L 86.5547 51.017039 
L 86.580324 50.859902 
L 86.611072 51.005301 
L 86.618246 50.851974 
L 86.646944 51.006917 
L 86.721765 50.975694 
L 86.764812 51.012005 
L 86.815034 50.824427 
L 86.832458 50.980259 
L 86.890879 50.9 
L 86.935976 51.014355 
L 86.942126 51.003465 
L 86.95955 50.860762 
L 86.986198 51.016515 
L 87.064093 50.935364 
L 87.127639 51.013134 
L 87.169661 50.89884 
L 87.177861 50.998226 
L 87.27318 50.849377 
L 87.200409 51.016512 
L 87.292653 50.978576 
L 87.335701 50.871328 
L 87.320327 51.019983 
L 87.404371 50.979261 
L 87.432045 51.017894 
L 87.461768 50.855349 
L 87.508915 50.886978 
L 87.528389 50.857101 
L 87.524289 51.00428 
L 87.608334 50.964577 
L 87.702628 51.019704 
L 87.616533 50.828701 
L 87.720051 51.000736 
L 87.739525 50.874537 
L 87.816395 51.015324 
L 87.831769 50.977902 
L 87.844069 50.903489 
L 87.848168 51.015551 
L 87.939388 51.002632 
L 87.940413 51.019738 
L 87.980385 50.86763 
L 88.049056 50.992287 
L 88.119776 50.870168 
L 88.078779 51.01155 
L 88.164873 50.957411 
L 88.22432 51.018754 
L 88.186397 50.890647 
L 88.277616 50.974489 
L 88.353461 51.0214 
L 88.314514 50.877063 
L 88.37396 50.936003 
L 88.44878 50.818368 
L 88.480553 51.020266 
L 88.481578 51.006596 
L 88.573822 50.857531 
L 88.600471 50.956545 
L 88.61892 51.014261 
L 88.638393 50.891003 
L 88.711164 50.969648 
L 88.780859 50.838256 
L 88.733712 51.016974 
L 88.820832 50.939161 
L 88.919226 51.018008 
L 88.85363 50.861129 
L 88.93255 51.006282 
L 89.008395 50.849897 
L 88.987896 51.017074 
L 89.046318 50.95524 
L 89.130362 51.0192 
L 89.125238 50.87142 
L 89.155986 50.953391 
L 89.221581 50.863124 
L 89.166235 51.016248 
L 89.266679 50.9632 
L 89.351748 51.017276 
L 89.309726 50.862629 
L 89.376347 50.947532 
L 89.425544 51.013241 
L 89.492164 50.879669 
L 89.611057 51.01949 
L 89.616182 50.92206 
L 89.727899 50.863637 
L 89.686902 51.021958 
L 89.728924 50.883407 
L 89.777096 51.013048 
L 89.79247 50.861497 
L 89.841667 50.953422 
L 89.95031 51.012462 
L 89.884715 50.864324 
L 89.953385 50.979418 
L 90.059978 50.863021 
L 89.986183 51.018544 
L 90.064078 50.950184 
L 90.152223 51.012032 
L 90.106101 50.888361 
L 90.172721 50.897504 
L 90.334661 50.985112 
L 90.179896 50.866793 
L 90.342861 50.898973 
L 90.408456 50.847252 
L 90.43613 51.018628 
L 90.452529 50.937092 
L 90.607294 51.00995 
L 90.481227 50.861481 
L 90.615493 50.907104 
L 90.640092 50.878784 
L 90.654441 51.012729 
L 90.717987 50.975732 
L 90.814331 51.016984 
L 90.774358 50.855835 
L 90.825605 50.937295 
L 90.884026 50.865617 
L 90.837904 51.015491 
L 90.935273 50.953645 
L 90.995744 51.007632 
L 90.968071 50.868229 
L 91.044941 50.930154 
L 91.091063 51.01288 
L 91.062365 50.865317 
L 91.162809 50.960233 
L 91.246853 50.873511 
L 91.191507 51.020435 
L 91.274527 50.954415 
L 91.365746 51.012672 
L 91.341147 50.879339 
L 91.384195 50.942218 
L 91.478489 50.898744 
L 91.390344 51.013101 
L 91.485663 50.97033 
L 91.570733 51.020284 
L 91.503087 50.880743 
L 91.595331 50.957069 
L 91.69065 50.883283 
L 91.645553 51.014669 
L 91.704999 50.977031 
L 91.783919 51.00872 
L 91.806468 50.874165 
L 91.814668 50.953127 
L 91.899737 51.020337 
L 91.915111 50.867004 
L 91.921261 50.931014 
L 91.965333 50.835971 
L 91.93151 51.01838 
L 92.029904 50.964535 
L 92.086275 51.010641 
L 92.113949 50.870489 
L 92.139572 50.943877 
L 92.204143 50.898029 
L 92.237966 51.022458 
L 92.24924 50.981964 
L 92.363008 50.869396 
L 92.284088 51.00574 
L 92.370182 50.982796 
L 92.447053 51.016063 
L 92.393756 50.844848 
L 92.47985 50.956233 
L 92.578244 50.880714 
L 92.56287 51.015999 
L 92.591568 50.917724 
L 92.64589 51.021036 
L 92.677663 50.789592 
L 92.702261 50.936131 
L 92.790406 50.840934 
L 92.744284 51.013644 
L 92.808855 50.995891 
L 92.910323 51.016274 
L 92.820129 50.858718 
L 92.916473 50.958286 
L 93.017941 50.866285 
L 92.95952 51.01992 
L 93.028191 50.939263 
L 93.048689 50.847522 
L 93.140934 51.011855 
L 93.201405 50.849877 
L 93.189106 51.019442 
L 93.252652 50.988534 
L 93.310048 51.021925 
L 93.35412 50.871768 
L 93.355145 50.866985 
L 93.36027 51.011322 
L 93.445339 50.955035 
L 93.504786 51.0143 
L 93.482237 50.899024 
L 93.553983 50.911987 
L 93.581656 50.842567 
L 93.558082 51.012226 
L 93.652376 50.970527 
L 93.707723 50.996843 
L 93.686199 50.903662 
L 93.717972 50.891473 
L 93.772294 50.849704 
L 93.761019 51.017931 
L 93.824565 50.934776 
L 93.969081 51.018455 
L 93.897336 50.86856 
L 93.972156 50.988607 
L 93.976256 50.875399 
L 93.980356 51.009113 
L 94.083874 50.924852 
L 94.186368 51.013778 
L 94.146395 50.8717 
L 94.195592 50.955124 
L 94.22224 50.824026 
L 94.268362 51.017792 
L 94.30526 50.95644 
L 94.418003 51.014451 
L 94.38623 50.85524 
L 94.419028 51.00072 
L 94.4672 50.866104 
L 94.457975 51.011745 
L 94.532796 50.945797 
L 94.570718 51.015015 
L 94.564569 50.888773 
L 94.642464 50.940498 
L 94.683461 50.864806 
L 94.69986 51.018098 
L 94.702935 51.00475 
" clip-path="url(#p30f7a0afb4)" style="fill: none; stroke: #2ca02c; stroke-width: 0.5; stroke-linecap: square"/>
   </g>
  </g>
 </g>
 <defs>
  <clipPath id="p30f7a0afb4">
   <rect x="0" y="-0" width="99.212598" height="51.023622"/>
  </clipPath>
 </defs>
</svg>
