<?xml version="1.0" encoding="utf-8" standalone="no"?>
<!DOCTYPE svg PUBLIC "-//W3C//DTD SVG 1.1//EN"
  "http://www.w3.org/Graphics/SVG/1.1/DTD/svg11.dtd">
<svg xmlns:xlink="http://www.w3.org/1999/xlink" width="56.692913pt" height="28.346457pt" viewBox="0 0 56.692913 28.346457" xmlns="http://www.w3.org/2000/svg" version="1.1">
 <metadata>
  <rdf:RDF xmlns:dc="http://purl.org/dc/elements/1.1/" xmlns:cc="http://creativecommons.org/ns#" xmlns:rdf="http://www.w3.org/1999/02/22-rdf-syntax-ns#">
   <cc:Work>
    <dc:type rdf:resource="http://purl.org/dc/dcmitype/StillImage"/>
    <dc:date>2024-11-01T11:33:20.742006</dc:date>
    <dc:format>image/svg+xml</dc:format>
    <dc:creator>
     <cc:Agent>
      <dc:title>Matplotlib v3.8.4, https://matplotlib.org/</dc:title>
     </cc:Agent>
    </dc:creator>
   </cc:Work>
  </rdf:RDF>
 </metadata>
 <defs>
  <style type="text/css">*{stroke-linejoin: round; stroke-linecap: butt}</style>
 </defs>
 <g id="figure_1">
  <g id="patch_1">
   <path d="M 0 28.346457 
L 56.692913 28.346457 
L 56.692913 0 
L 0 0 
L 0 28.346457 
z
" style="fill: none"/>
  </g>
  <g id="axes_1">
   <g id="patch_2">
    <path d="M 0 28.346457 
L 56.692913 28.346457 
L 56.692913 0 
L 0 0 
L 0 28.346457 
z
" style="fill: none"/>
   </g>
   <g id="matplotlib.axis_1">
    <g id="xtick_1"/>
    <g id="xtick_2"/>
   </g>
   <g id="matplotlib.axis_2">
    <g id="ytick_1"/>
    <g id="ytick_2"/>
   </g>
   <g id="line2d_1">
    <path d="M 2.576951 27.358091 
L 2.680615 26.301868 
L 2.668902 27.886157 
L 2.688229 27.220964 
L 2.723956 27.853355 
L 2.692329 26.150658 
L 2.795408 27.650696 
L 2.795994 26.343734 
L 2.83992 27.762328 
L 2.906687 26.720057 
L 3.002152 27.904851 
L 2.925429 26.135942 
L 3.017966 27.353743 
L 3.070091 26.228718 
L 3.022065 28.072365 
L 3.12983 26.809932 
L 3.206554 27.744014 
L 3.187812 26.383877 
L 3.241109 27.313089 
L 3.261607 26.300661 
L 3.313733 27.820089 
L 3.352387 27.033641 
L 3.395727 27.729756 
L 3.410369 26.178907 
L 3.456638 26.976049 
L 3.50642 26.26411 
L 3.527505 27.917629 
L 3.566745 27.558203 
L 3.620042 26.426307 
L 3.665139 27.973005 
L 3.677438 26.959862 
L 3.723707 27.730902 
L 3.771732 26.15551 
L 3.788717 27.242937 
L 3.833814 27.721138 
L 3.827957 26.335952 
L 3.897067 27.026004 
L 3.978476 26.176448 
L 3.94275 27.909243 
L 4.005417 27.246082 
L 4.065156 27.800048 
L 4.02943 26.352629 
L 4.115525 27.385892 
L 4.188734 28.068868 
L 4.227389 26.213595 
L 4.268972 27.895067 
L 4.290642 26.109278 
L 4.338668 27.056824 
L 4.397821 26.221234 
L 4.438233 27.807819 
L 4.448775 27.182411 
L 4.514957 27.852434 
L 4.512028 26.353811 
L 4.559468 27.284666 
L 4.59168 26.121616 
L 4.626235 27.701641 
L 4.671332 26.776617 
L 4.736343 27.848887 
L 4.767384 26.127642 
L 4.782025 27.427714 
L 4.837079 26.337173 
L 4.858749 27.751027 
L 4.893304 26.869228 
L 4.985841 26.428323 
L 4.985255 27.979758 
L 5.003411 26.729376 
L 5.088335 27.774359 
L 5.02801 26.246642 
L 5.114104 27.004558 
L 5.218355 26.132928 
L 5.117033 27.909104 
L 5.224797 26.794251 
L 5.228897 27.745695 
L 5.310306 26.256479 
L 5.336076 27.215652 
L 5.404015 26.36854 
L 5.377074 27.707274 
L 5.442669 27.249317 
L 5.463754 27.78054 
L 5.471368 26.220006 
L 5.553948 27.579748 
L 5.559219 26.299266 
L 5.603731 27.998342 
L 5.665227 27.204722 
L 5.731408 26.190609 
L 5.710324 28.013849 
L 5.774748 27.258244 
L 5.789976 27.820698 
L 5.868457 26.38484 
L 5.885441 27.321922 
L 5.932881 26.211787 
L 5.930539 27.809614 
L 5.99672 27.107661 
L 6.021319 26.289576 
L 6.079301 27.958487 
L 6.106827 26.895959 
L 6.126155 27.762215 
L 6.213421 25.985451 
L 6.21752 26.810971 
L 6.22162 26.554598 
L 6.219863 27.023212 
L 6.222791 26.720482 
L 6.229234 27.80747 
L 6.296001 26.102381 
L 6.33407 27.088243 
L 6.337584 27.576977 
L 6.33817 26.71992 
L 6.340513 26.803804 
L 6.367454 26.305074 
L 6.362768 27.916991 
L 6.451206 26.411547 
L 6.458234 27.802026 
L 6.538472 26.362454 
L 6.56307 27.24379 
L 6.61051 26.249208 
L 6.659707 27.889695 
L 6.673763 26.953376 
L 6.734088 27.625518 
L 6.772742 26.293097 
L 6.78387 27.367836 
L 6.811983 25.97455 
L 6.852395 27.958098 
L 6.895149 26.815556 
L 6.935561 26.293134 
L 6.905105 27.78896 
L 7.005842 26.767516 
L 7.007013 27.891556 
L 7.09955 26.10664 
L 7.117121 27.290114 
L 7.148162 26.065717 
L 7.147576 27.738096 
L 7.228399 26.837896 
L 7.252412 27.837119 
L 7.257097 26.226526 
L 7.340264 27.449214 
L 7.346706 26.313939 
L 7.38009 27.766905 
L 7.452128 26.91977 
L 7.460328 26.334291 
L 7.511867 27.846164 
L 7.554036 26.919795 
L 7.576292 27.808173 
L 7.580977 26.108129 
L 7.665315 27.317243 
L 7.667072 26.004446 
L 7.726225 28.026578 
L 7.776593 26.840832 
L 7.77835 27.747826 
L 7.850389 26.37666 
L 7.887286 26.567916 
L 7.888458 27.665786 
L 7.914227 25.852451 
L 7.999736 27.27739 
L 8.022578 26.405896 
L 8.02902 27.756174 
L 8.110429 26.983393 
L 8.139127 27.915202 
L 8.14557 26.309059 
L 8.221122 26.811478 
L 8.250992 27.720838 
L 8.23225 26.331656 
L 8.333572 27.316344 
L 8.342357 26.317156 
L 8.436651 27.788077 
L 8.444851 26.966799 
L 8.508104 27.786275 
L 8.505176 26.247575 
L 8.555544 26.81613 
L 8.59127 26.298938 
L 8.62114 27.997829 
L 8.662137 27.158291 
L 8.680879 27.841703 
L 8.693764 26.26258 
L 8.77283 27.195374 
L 8.864196 26.261229 
L 8.7986 27.680594 
L 8.883523 27.036402 
L 8.909293 28.048732 
L 8.949119 25.981947 
L 8.993631 27.579065 
L 9.029357 26.349549 
L 9.092024 28.116766 
L 9.104909 27.308428 
L 9.171091 26.392801 
L 9.182804 27.744226 
L 9.215602 26.654086 
L 9.285883 27.840954 
L 9.249571 26.100406 
L 9.326881 26.884882 
L 9.369635 26.073925 
L 9.345623 28.046776 
L 9.437574 26.816783 
L 9.454559 27.908059 
L 9.501998 26.070864 
L 9.549438 27.786094 
L 9.584579 26.345179 
L 9.660717 27.254367 
L 9.770824 26.327493 
L 9.731584 27.823519 
L 9.77141 27.059762 
L 9.851648 27.813758 
L 9.783123 26.412461 
L 9.882103 27.247808 
L 9.894988 26.10517 
L 9.958827 27.77773 
L 9.993382 26.774736 
L 10.015052 27.967363 
L 10.037307 25.978515 
L 10.104075 27.418997 
L 10.126916 26.303646 
L 10.131601 27.766369 
L 10.214768 26.821769 
L 10.313747 27.794634 
L 10.323704 25.928183 
L 10.326046 27.474349 
L 10.339517 26.234815 
L 10.402184 28.041966 
L 10.437325 26.841731 
L 10.444353 27.842492 
L 10.485936 26.215745 
L 10.548018 27.116217 
L 10.642898 26.346005 
L 10.642312 28.063027 
L 10.658711 26.724774 
L 10.737192 27.754154 
L 10.721378 26.29592 
L 10.770575 27.636612 
L 10.796931 26.030882 
L 10.814501 27.92431 
L 10.88244 26.612335 
L 10.972634 27.813468 
L 10.887711 26.237509 
L 10.993133 27.728441 
L 11.096212 26.424499 
L 11.061657 27.835559 
L 11.104411 27.146388 
L 11.104997 28.063864 
L 11.172936 26.031764 
L 11.215104 26.674173 
L 11.297099 27.834061 
L 11.297685 26.108223 
L 11.325797 26.738097 
L 11.370894 26.235149 
L 11.336925 27.612235 
L 11.407206 26.765877 
L 11.420677 27.880446 
L 11.431219 26.254897 
L 11.517899 27.22352 
L 11.568268 26.161327 
L 11.519657 27.845358 
L 11.628592 26.949537 
L 11.689503 27.857833 
L 11.726401 26.175408 
L 11.739871 27.103759 
L 11.752756 26.360627 
L 11.744557 27.777206 
L 11.850564 27.122767 
L 11.853493 27.842675 
L 11.863449 26.207336 
L 11.957743 27.526538 
L 11.958329 26.415113 
L 11.961257 27.781554 
L 12.068436 27.118196 
L 12.096549 27.727028 
L 12.176201 26.384599 
L 12.179129 27.18533 
L 12.257024 26.367785 
L 12.1926 28.094825 
L 12.28338 27.274105 
L 12.358346 27.932044 
L 12.309735 26.215141 
L 12.393487 27.162691 
L 12.48661 26.441997 
L 12.465525 27.872503 
L 12.504766 27.012389 
L 12.610188 27.82396 
L 12.611359 26.325908 
L 12.613702 26.657557 
L 12.709753 26.171549 
L 12.70331 27.98088 
L 12.724395 26.690127 
L 12.765978 27.785201 
L 12.833916 26.394225 
L 12.836259 27.518846 
L 12.944024 26.349614 
L 12.928796 28.031731 
L 12.948709 26.562927 
L 12.955151 27.87991 
L 13.00552 26.329993 
L 13.059402 27.088833 
L 13.141397 26.223031 
L 13.157796 27.907653 
L 13.170681 26.743596 
L 13.181223 27.863361 
L 13.229248 26.210945 
L 13.281959 27.49967 
L 13.337599 26.298561 
L 13.37801 27.751675 
L 13.392652 26.718253 
L 13.419008 27.778574 
L 13.404366 26.262887 
L 13.503931 26.889804 
L 13.527944 28.093449 
L 13.564256 26.474987 
L 13.611696 26.486129 
L 13.612281 26.030003 
L 13.633366 27.901034 
L 13.721217 27.411666 
L 13.817854 26.196253 
L 13.811412 27.978591 
L 13.83191 27.083134 
L 13.893992 27.887404 
L 13.922105 26.186884 
L 13.942603 26.925416 
L 14.028112 26.285893 
L 14.039826 27.762342 
L 14.053296 26.665934 
L 14.060324 27.871359 
L 14.140562 26.330653 
L 14.164575 27.21081 
L 14.182145 26.408546 
L 14.26824 27.748853 
L 14.275854 26.624193 
L 14.282296 27.900867 
L 14.309823 26.267544 
L 14.387132 27.308218 
L 14.480255 26.130585 
L 14.466199 27.969953 
L 14.497825 26.697799 
L 14.516567 28.038079 
L 14.552293 26.263127 
L 14.609104 26.928305 
L 14.662401 27.884416 
L 14.64483 26.040264 
L 14.720383 27.313235 
L 14.815262 26.338586 
L 14.750252 27.935363 
L 14.831076 26.956726 
L 14.928298 27.916095 
L 14.879101 26.36629 
L 14.941769 27.061224 
L 14.952897 26.162595 
L 15.047776 27.850092 
L 15.050705 27.170426 
L 15.119815 27.83098 
L 15.114543 26.301773 
L 15.161398 27.118367 
L 15.202395 28.012038 
L 15.222894 26.292259 
L 15.271505 27.176894 
L 15.324216 26.394253 
L 15.277362 27.759914 
L 15.382198 26.931388 
L 15.42261 27.787666 
L 15.474149 26.316158 
L 15.493477 27.264528 
L 15.494648 26.212586 
L 15.496991 27.686397 
L 15.604755 26.796951 
L 15.664494 27.773944 
L 15.612955 26.123474 
L 15.71662 27.052894 
L 15.824384 26.238726 
L 15.786901 28.028603 
L 15.827898 26.88239 
L 15.936249 27.971782 
L 15.892909 26.300692 
L 15.939177 27.192667 
L 15.947377 26.320524 
L 15.957333 27.936747 
L 16.04987 26.944835 
L 16.065683 27.927735 
L 16.127179 26.27685 
L 16.161149 27.137427 
L 16.169348 26.193886 
L 16.217959 28.083353 
L 16.271842 26.778734 
L 16.366136 27.806018 
L 16.336852 26.166655 
L 16.382535 26.920255 
L 16.399519 26.31485 
L 16.480343 27.675833 
L 16.487957 27.068109 
L 16.566437 27.908843 
L 16.581079 26.403761 
L 16.599821 27.375206 
L 16.622077 26.194736 
L 16.626176 27.769276 
L 16.7111 26.875692 
L 16.803051 28.080769 
L 16.766739 26.299044 
L 16.821793 26.622418 
L 16.924872 27.916993 
L 16.873332 26.366383 
L 16.933657 26.857804 
L 16.940099 26.479605 
L 16.99281 27.937118 
L 17.043179 26.73302 
L 17.070705 27.765541 
L 17.066606 26.215807 
L 17.153872 26.987136 
L 17.169685 26.156376 
L 17.213025 27.692843 
L 17.263979 26.546694 
L 17.340117 27.972248 
L 17.354759 26.272975 
L 17.375843 27.524354 
L 17.486536 26.323884 
L 17.422697 28.005839 
L 17.487122 26.900031 
L 17.525777 26.366906 
L 17.577902 28.059904 
L 17.598401 26.513043 
L 17.698551 27.840884 
L 17.634713 26.213666 
L 17.709679 26.994731 
L 17.77059 27.850216 
L 17.750677 26.014861 
L 17.818615 27.358874 
L 17.875426 26.121534 
L 17.829743 28.075692 
L 17.929894 27.026017 
L 17.949221 27.777751 
L 17.997833 26.126535 
L 18.037659 27.151265 
L 18.074556 26.207762 
L 18.124925 27.921664 
L 18.148937 26.784308 
L 18.176464 27.705046 
L 18.249674 26.209207 
L 18.260216 27.177371 
L 18.26783 26.2264 
L 18.272515 27.708653 
L 18.369738 27.3923 
L 18.447047 28.143009 
L 18.424791 26.418767 
L 18.479845 26.584414 
L 18.497415 27.892642 
L 18.532556 26.322905 
L 18.591124 27.305341 
L 18.591709 26.172149 
L 18.698888 27.804657 
L 18.701817 27.132525 
L 18.795525 26.128967 
L 18.715287 27.757391 
L 18.811924 26.654276 
L 18.85585 27.864682 
L 18.83008 25.995076 
L 18.923203 27.080064 
L 18.951901 27.988772 
L 19.023939 26.375535 
L 19.033896 27.122413 
L 19.090706 26.201279 
L 19.045023 27.794304 
L 19.140489 26.802757 
L 19.203742 27.957226 
L 19.1891 26.261622 
L 19.251768 27.06178 
L 19.273438 26.168415 
L 19.269338 27.775202 
L 19.362461 27.159096 
L 19.425128 27.853122 
L 19.468468 26.120635 
L 19.472568 27.42209 
L 19.475496 26.107594 
L 19.583261 27.870453 
L 19.583847 26.937595 
L 19.682826 27.857636 
L 19.620159 26.030621 
L 19.69454 27.095573 
L 19.788248 26.206794 
L 19.746079 27.821791 
L 19.804061 27.142405 
L 19.867314 27.698167 
L 19.838616 26.186084 
L 19.914754 27.076109 
L 20.01022 26.159909 
L 19.980936 27.941967 
L 20.024276 27.17611 
L 20.112713 27.781403 
L 20.101585 26.257703 
L 20.134969 27.397176 
L 20.184751 26.246336 
L 20.20115 27.598706 
L 20.246833 26.651985 
L 20.324728 27.849339 
L 20.298373 26.100219 
L 20.358698 27.575639 
L 20.385639 26.317681 
L 20.39501 27.966808 
L 20.469976 27.197172 
L 20.512145 26.271093 
L 20.519759 27.881462 
L 20.581255 27.13991 
L 20.584769 27.822615 
L 20.645094 26.172547 
L 20.690191 26.620592 
L 20.690777 26.619534 
L 20.799713 27.774833 
L 20.707176 26.189046 
L 20.802055 27.295922 
L 20.871751 25.89801 
L 20.841296 27.82073 
L 20.913334 26.259839 
L 20.95726 27.84983 
L 21.024613 26.918412 
L 21.067953 28.090481 
L 21.12652 26.343526 
L 21.136477 27.511118 
L 21.224914 26.196527 
L 21.237213 27.682816 
L 21.247756 26.693551 
L 21.292267 27.809411 
L 21.274111 26.070624 
L 21.359034 27.071403 
L 21.40296 26.270858 
L 21.422287 27.819035 
L 21.470899 26.604918 
L 21.53708 27.956801 
L 21.537666 26.319748 
L 21.582177 26.732767 
L 21.589205 26.39236 
L 21.59272 27.762621 
L 21.647773 27.124132 
L 21.746167 27.679011 
L 21.736796 26.324029 
L 21.758466 27.122918 
L 21.781893 27.89096 
L 21.808834 26.218619 
L 21.869745 27.357641 
L 21.966967 26.230785 
L 21.884387 27.677374 
L 21.982781 26.936792 
L 21.996251 27.671146 
L 22.033734 26.307532 
L 22.092888 26.722465 
L 22.128029 26.396561 
L 22.150284 27.666853 
L 22.185425 27.370018 
L 22.231693 28.034029 
L 22.224665 26.262984 
L 22.294947 26.804288 
L 22.338287 27.95347 
L 22.351757 26.416198 
L 22.407982 26.982435 
L 22.481192 26.276037 
L 22.484706 27.798981 
L 22.51809 26.675787 
L 22.522189 27.776155 
L 22.569629 26.245274 
L 22.628783 27.117191 
L 22.715463 26.428667 
L 22.660995 27.774479 
L 22.739476 26.874489 
L 22.762903 27.845569 
L 22.78633 26.086201 
L 22.85134 27.233069 
L 22.89468 27.792415 
L 22.865396 26.405039 
L 22.960276 27.534694 
L 22.981946 26.199153 
L 23.045199 27.807848 
L 23.070969 27.291923 
L 23.117823 27.778561 
L 23.12778 26.332722 
L 23.181662 27.324926 
L 23.230273 26.292115 
L 23.290598 27.643308 
L 23.292355 26.844437 
L 23.308168 28.01821 
L 23.370836 26.270177 
L 23.403634 27.342607 
L 23.466887 27.828217 
L 23.458102 26.320121 
L 23.513741 26.899185 
L 23.571723 26.06229 
L 23.574651 27.76197 
L 23.623848 27.111341 
L 23.695887 27.856527 
L 23.674216 26.236349 
L 23.735127 27.509147 
L 23.803651 26.263013 
L 23.760897 27.919482 
L 23.846406 27.04826 
L 23.869833 26.130977 
L 23.875104 27.813352 
L 23.953584 26.81769 
L 24.046707 27.663596 
L 24.030308 26.251986 
L 24.064277 27.527804 
L 24.150958 26.362587 
L 24.159743 27.775789 
L 24.175556 27.049999 
L 24.176142 27.049644 
L 24.261651 26.336048 
L 24.270436 27.697474 
L 24.287421 26.463025 
L 24.372929 27.765211 
L 24.29972 26.249978 
L 24.398699 26.894415 
L 24.40397 27.408706 
L 24.408656 26.537634 
L 24.417441 26.973669 
L 24.450824 27.82938 
L 24.460195 26.110226 
L 24.52872 27.358012 
L 24.582016 26.321088 
L 24.555661 27.795748 
L 24.639998 26.931366 
L 24.644098 27.816628 
L 24.743077 25.954889 
L 24.751277 27.155896 
L 24.79286 26.311797 
L 24.774118 27.853949 
L 24.86197 27.219187 
L 24.877783 27.867389 
L 24.866655 26.054604 
L 24.968563 26.612671 
L 25.033573 26.338152 
L 24.993162 27.608927 
L 25.076913 26.976419 
L 25.154223 27.724907 
L 25.08687 26.367878 
L 25.187606 27.560605 
L 25.194049 26.01221 
L 25.248517 27.709781 
L 25.298885 27.005534 
L 25.327583 26.209197 
L 25.309427 27.883556 
L 25.403136 26.707926 
L 25.453504 27.734116 
L 25.43242 26.287603 
L 25.514414 27.147963 
L 25.604023 27.618198 
L 25.523785 26.209518 
L 25.625107 27.183124 
L 25.72233 26.129157 
L 25.650877 27.938859 
L 25.736386 26.574114 
L 25.814867 27.915473 
L 25.811938 26.233528 
L 25.847665 27.251162 
L 25.943716 27.780098 
L 25.852936 26.310297 
L 25.957186 26.96141 
L 25.959529 26.132901 
L 25.971828 27.683016 
L 26.068465 26.554458 
L 26.074322 27.854226 
L 26.158659 26.387227 
L 26.179744 27.515902 
L 26.250025 26.16943 
L 26.196728 27.749698 
L 26.291608 26.707491 
L 26.370674 27.826491 
L 26.340805 26.274188 
L 26.402301 26.887937 
L 26.497181 26.132609 
L 26.505966 27.847854 
L 26.512994 26.821268 
L 26.592646 27.781604 
L 26.519437 26.305536 
L 26.624273 27.204075 
L 26.693968 26.336344 
L 26.70861 27.763658 
L 26.73438 27.206414 
L 26.830431 27.922718 
L 26.755464 26.23155 
L 26.845073 27.313539 
L 26.93351 26.053645 
L 26.89017 27.695363 
L 26.955766 27.198508 
L 26.968065 26.119234 
L 27.008477 27.584487 
L 27.027804 26.708575 
L 27.02839 27.823415 
L 27.107456 26.355885 
L 27.139083 27.232434 
L 27.169538 26.228617 
L 27.151382 27.870385 
L 27.250362 26.871592 
L 27.311858 27.706375 
L 27.325914 26.2438 
L 27.361055 27.276941 
L 27.404981 26.2507 
L 27.461206 27.930032 
L 27.472333 26.738068 
L 27.509817 27.927913 
L 27.53383 26.193573 
L 27.583026 27.055266 
L 27.654479 26.326393 
L 27.597668 27.796233 
L 27.693134 27.165662 
L 27.700162 27.772893 
L 27.715389 26.455774 
L 27.803241 27.178117 
L 27.876451 26.23013 
L 27.865323 28.100452 
L 27.915105 26.736269 
L 27.984215 27.805406 
L 28.005885 26.252195 
L 28.015256 27.13332 
L 28.024627 26.104307 
L 28.083195 27.891793 
L 28.125949 26.57317 
L 28.230785 27.7236 
L 28.219658 26.214888 
L 28.236642 27.246226 
L 28.279982 26.000186 
L 28.244842 27.908229 
L 28.347335 27.483576 
L 28.379547 26.257053 
L 28.428744 27.842144 
L 28.4592 26.713834 
L 28.496683 27.765765 
L 28.518939 26.204275 
L 28.570478 26.863937 
L 28.60679 27.842146 
L 28.631974 26.167679 
L 28.680586 27.356756 
L 28.746767 26.304302 
L 28.696985 28.253232 
L 28.791864 26.677021 
L 28.825834 27.68985 
L 28.868588 25.938476 
L 28.900215 27.206631 
L 28.967567 26.228632 
L 28.958197 27.696551 
L 29.010908 27.196164 
L 29.047805 26.102412 
L 29.067133 27.733802 
L 29.121015 26.979465 
L 29.153813 27.964965 
L 29.228194 26.225942 
L 29.231122 27.057744 
L 29.326002 26.075525 
L 29.327173 27.663397 
L 29.341815 26.947697 
L 29.3506 27.638132 
L 29.422053 26.229755 
L 29.452508 27.060626 
L 29.491163 26.078995 
L 29.455437 27.890311 
L 29.563201 26.885628 
L 29.594242 27.881086 
L 29.567301 26.291344 
L 29.67448 27.376261 
L 29.724848 26.262232 
L 29.676823 27.899645 
L 29.785759 27.037466 
L 29.846083 26.420952 
L 29.835541 27.674432 
L 29.896452 26.885393 
L 29.941549 27.97239 
L 29.994845 26.266604 
L 30.006559 27.1045 
L 30.099682 25.901133 
L 30.083868 27.823889 
L 30.117838 26.877663 
L 30.131894 26.240469 
L 30.122523 27.761991 
L 30.226188 27.120602 
L 30.226773 28.018679 
L 30.227945 26.275829 
L 30.336881 27.093246 
L 30.366165 26.338825 
L 30.403648 27.888798 
L 30.448159 26.845384 
L 30.53074 27.962865 
L 30.543039 26.284357 
L 30.558267 26.669716 
L 30.60395 26.290713 
L 30.601021 28.015903 
L 30.668374 26.880371 
L 30.752126 28.021692 
L 30.772625 26.223467 
L 30.779653 27.044204 
L 30.855791 26.242367 
L 30.804251 27.712355 
L 30.890346 26.799519 
L 31.000453 27.96416 
L 30.931929 26.285064 
L 31.001624 27.272078 
L 31.047307 26.121494 
L 31.105875 27.794734 
L 31.112903 26.988678 
L 31.113489 26.98847 
L 31.215982 27.703401 
L 31.130473 26.154328 
L 31.221839 26.829929 
L 31.223596 25.936458 
L 31.22301 27.64429 
L 31.333118 26.69415 
L 31.378215 27.864754 
L 31.379972 26.373435 
L 31.444396 27.333497 
L 31.48188 26.433895 
L 31.449082 27.774103 
L 31.555675 27.040679 
L 31.559775 26.079057 
L 31.556847 27.71478 
L 31.627128 27.089516 
L 31.722008 27.866761 
L 31.727864 26.37376 
L 31.737821 26.938746 
L 31.740749 26.157345 
L 31.834458 27.665657 
L 31.846757 26.717333 
L 31.847342 27.794351 
L 31.871355 26.247082 
L 31.95745 26.671967 
L 32.031831 26.061363 
L 31.994933 27.981339 
L 32.064629 26.535431 
L 32.090984 28.346457 
L 32.103283 26.280172 
L 32.175907 26.968181 
L 32.271373 26.21295 
L 32.233304 27.724162 
L 32.280744 26.766908 
L 32.295971 27.898728 
L 32.357467 26.126818 
L 32.391437 27.177078 
L 32.475774 26.137159 
L 32.470503 27.773929 
L 32.501544 27.420016 
L 32.527314 26.183797 
L 32.568897 27.673562 
L 32.611651 27.08452 
L 32.67139 28.001049 
L 32.656748 26.248856 
L 32.72293 27.517909 
L 32.800239 26.378864 
L 32.822495 27.65867 
L 32.834209 26.976891 
L 32.90449 28.033859 
L 32.92616 26.191192 
L 32.944902 27.388988 
L 33.052081 26.348514 
L 32.967743 27.751862 
L 33.05618 26.619763 
L 33.153988 26.464 
L 33.08605 27.975156 
L 33.161017 27.127473 
L 33.232469 27.756421 
L 33.180344 26.344618 
L 33.27171 27.073348 
L 33.373032 26.273872 
L 33.305679 27.799057 
L 33.382403 26.432405 
L 33.385917 27.810664 
L 33.416372 26.403717 
L 33.493096 26.917693 
L 33.53995 26.212596 
L 33.562205 27.598744 
L 33.603203 27.130221 
L 33.679927 27.798351 
L 33.616673 26.160111 
L 33.713896 26.984496 
L 33.75665 26.252903 
L 33.751965 27.86134 
L 33.824589 26.838203 
L 33.853287 27.801101 
L 33.902484 26.451174 
L 33.935868 27.092684 
L 33.96808 26.06351 
L 33.945824 27.645012 
L 34.046561 27.050729 
L 34.05886 27.644307 
L 34.137926 26.222466 
L 34.157254 27.032991 
L 34.17131 27.886299 
L 34.160768 26.10793 
L 34.266189 27.038315 
L 34.324757 26.229035 
L 34.288445 27.896587 
L 34.376882 26.471191 
L 34.451263 27.762514 
L 34.45712 26.093789 
L 34.488161 27.250279 
L 34.494604 26.112491 
L 34.568399 27.963572 
L 34.598854 27.2784 
L 34.687291 27.93407 
L 34.622867 26.444831 
L 34.70369 27.143348 
L 34.756987 26.169286 
L 34.740002 27.956771 
L 34.814969 26.850949 
L 34.861238 27.924316 
L 34.885836 26.191356 
L 34.926248 27.223652 
L 35.021127 26.314795 
L 34.969002 27.956295 
L 35.036941 26.979575 
L 35.073253 27.746852 
L 35.11425 26.167704 
L 35.148805 27.482526 
L 35.2267 26.242669 
L 35.249542 27.974025 
L 35.260084 27.06722 
L 35.308109 27.906981 
L 35.280582 26.263744 
L 35.370777 27.454966 
L 35.428759 26.4272 
L 35.468585 27.941291 
L 35.48147 26.821306 
L 35.560536 27.835494 
L 35.508411 26.160537 
L 35.592748 27.15651 
L 35.613833 26.124449 
L 35.625546 27.771002 
L 35.70227 26.832431 
L 35.781337 27.836038 
L 35.705198 26.124873 
L 35.812963 27.097855 
L 35.911357 26.340494 
L 35.888515 27.786443 
L 35.923656 26.907578 
L 35.934198 27.951466 
L 36.005651 26.356408 
L 36.034935 27.253756 
L 36.087646 26.216835 
L 36.070661 27.720619 
L 36.146213 27.095432 
L 36.213566 27.773804 
L 36.182525 26.271711 
L 36.258078 27.4062 
L 36.339487 26.152959 
L 36.262178 27.633109 
L 36.369356 27.18011 
L 36.427339 26.3025 
L 36.43261 27.796029 
L 36.480049 26.976211 
L 36.533346 27.707842 
L 36.520461 26.161605 
L 36.590742 26.935209 
L 36.596599 27.774058 
L 36.608313 26.294214 
L 36.697921 27.116044 
L 36.785187 26.242857 
L 36.747118 27.77191 
L 36.8092 26.967454 
L 36.865425 26.104568 
L 36.891781 27.964675 
L 36.918722 27.169874 
L 36.919893 26.990413 
L 36.921064 27.258347 
L 36.922236 27.041727 
L 36.931021 26.053783 
L 36.936292 27.727105 
L 37.032929 26.978627 
L 37.119609 27.881348 
L 37.127809 26.30584 
L 37.143622 26.996541 
L 37.169392 27.999724 
L 37.179348 26.305223 
L 37.252558 26.842323 
L 37.273056 26.156355 
L 37.270128 27.75981 
L 37.362665 26.835934 
L 37.373207 26.188456 
L 37.474529 27.850335 
L 37.571752 25.932458 
L 37.524312 27.946339 
L 37.585808 26.87937 
L 37.607478 28.122929 
L 37.640276 26.193849 
L 37.690059 27.198495 
L 37.787281 26.455193 
L 37.783767 27.781779 
L 37.800752 27.24378 
L 37.879818 27.737228 
L 37.801923 26.257755 
L 37.909688 27.631413 
L 37.951271 26.156312 
L 38.001053 27.765148 
L 38.020966 26.860972 
L 38.104132 27.87381 
L 38.033851 26.320943 
L 38.131659 27.544294 
L 38.217168 26.416205 
L 38.177928 27.759946 
L 38.242938 26.589916 
L 38.346603 27.723646 
L 38.314976 26.275378 
L 38.354217 26.876138 
L 38.37003 28.087634 
L 38.461981 25.871081 
L 38.502393 27.852522 
L 38.573846 27.602919 
L 38.583216 28.307527 
L 38.686881 26.358461 
L 38.757163 27.893652 
L 38.79816 26.96529 
L 38.85907 26.308597 
L 38.852042 27.683577 
L 38.907682 27.10325 
L 39.003733 27.788679 
L 38.960978 26.304677 
L 39.01896 27.27281 
L 39.033602 26.155175 
L 39.120283 27.777339 
L 39.130239 26.679363 
L 39.130825 27.634674 
L 39.201106 26.347906 
L 39.241518 26.971855 
L 39.328198 27.637985 
L 39.245032 26.123534 
L 39.352796 27.168288 
L 39.381495 26.189612 
L 39.38208 28.02492 
L 39.462318 26.88234 
L 39.522643 27.822856 
L 39.550755 26.315522 
L 39.573597 27.345809 
L 39.676676 26.318449 
L 39.622794 27.677918 
L 39.685461 26.564438 
L 39.793811 27.782551 
L 39.71006 26.333918 
L 39.797325 27.362117 
L 39.892791 26.181044 
L 39.858822 27.754259 
L 39.909775 26.572521 
L 39.950187 27.991751 
L 39.972443 26.190209 
L 40.021054 27.74731 
L 40.117691 26.31187 
L 40.086064 28.063594 
L 40.132918 27.131937 
L 40.240097 27.74591 
L 40.163374 26.251442 
L 40.243611 27.312578 
L 40.321507 26.30281 
L 40.334391 27.747868 
L 40.355476 27.180532 
L 40.366018 26.330599 
L 40.388859 27.781499 
L 40.464412 26.697664 
L 40.49311 27.824828 
L 40.518294 26.273572 
L 40.57569 27.068214 
L 40.617859 26.331551 
L 40.60146 27.713674 
L 40.686969 26.921511 
L 40.754908 27.901903 
L 40.780092 26.312844 
L 40.797662 26.765218 
L 40.837488 27.693369 
L 40.829289 26.184714 
L 40.908941 27.167566 
L 40.909527 26.107225 
L 40.95111 27.713907 
L 41.019634 26.917133 
L 41.096943 27.964588 
L 41.082887 26.201722 
L 41.131498 27.103811 
L 41.208222 26.285734 
L 41.191823 27.753447 
L 41.239263 27.238907 
L 41.28846 27.894188 
L 41.298416 26.359935 
L 41.348784 27.013623 
L 41.400324 26.354526 
L 41.389782 28.095441 
L 41.456549 26.991039 
L 41.558457 27.83345 
L 41.543229 26.001185 
L 41.567242 27.061425 
L 41.648651 26.324607 
L 41.60004 27.792744 
L 41.677935 26.813717 
L 41.727132 27.754659 
L 41.690234 25.980722 
L 41.788628 27.047 
L 41.848953 26.09223 
L 41.793313 28.026832 
L 41.899321 26.687741 
L 41.953203 28.141297 
L 42.004743 26.191067 
L 42.0106 27.216327 
L 42.04984 26.199111 
L 42.092009 27.776499 
L 42.121293 26.506979 
L 42.171075 27.74549 
L 42.169318 26.225543 
L 42.232571 26.730647 
L 42.322766 27.876363 
L 42.263027 26.159973 
L 42.343264 27.275304 
L 42.371963 27.786826 
L 42.454543 26.359255 
L 42.548837 28.102694 
L 42.537124 26.232313 
L 42.566407 27.404436 
L 42.615019 26.249876 
L 42.634346 27.813109 
L 42.677686 27.131778 
L 42.689985 27.968964 
L 42.699356 26.364973 
L 42.788379 26.990351 
L 42.816492 26.220105 
L 42.839919 27.929812 
L 42.900243 26.603252 
L 42.909614 27.785988 
L 42.99688 26.052188 
L 43.011522 27.165862 
L 43.04842 27.773413 
L 43.030849 26.150596 
L 43.11753 26.894017 
L 43.160284 26.259617 
L 43.126315 27.891132 
L 43.22588 26.899909 
L 43.245207 27.83288 
L 43.325445 26.270574 
L 43.336573 27.331852 
L 43.384599 26.287344 
L 43.432038 28.008845 
L 43.447266 27.424867 
L 43.484164 25.988853 
L 43.501734 27.730073 
L 43.556788 27.044008 
L 43.656353 28.008199 
L 43.582557 26.27144 
L 43.667481 26.858732 
L 43.757089 27.807779 
L 43.676852 26.345811 
L 43.775831 27.112561 
L 43.849626 26.17271 
L 43.864268 27.714349 
L 43.886524 27.035351 
L 43.959148 27.797136 
L 43.950363 26.123168 
L 43.99546 26.91974 
L 44.024158 26.234962 
L 44.079212 27.834642 
L 44.106153 27.217378 
L 44.199276 26.269878 
L 44.120209 27.879298 
L 44.218017 26.941798 
L 44.300598 27.991135 
L 44.275414 26.31941 
L 44.326953 27.182144 
L 44.387278 26.433808 
L 44.377321 27.822061 
L 44.437646 26.940832 
L 44.535454 27.819149 
L 44.479229 26.282687 
L 44.548339 27.194627 
L 44.570595 26.173854 
L 44.65259 27.810241 
L 44.659618 27.057608 
L 44.703544 26.218794 
L 44.690659 27.887695 
L 44.770311 26.567447 
L 44.80838 27.79467 
L 44.827707 26.344528 
L 44.881004 27.052431 
L 44.931372 26.187182 
L 44.948942 27.679947 
L 44.991111 27.129233 
L 45.080134 27.903535 
L 45.042651 26.101282 
L 45.101804 26.987495 
L 45.126403 26.336461 
L 45.15393 27.79705 
L 45.211326 27.242242 
L 45.259351 27.777049 
L 45.240024 26.306284 
L 45.319676 27.673979 
L 45.354231 26.225049 
L 45.328461 27.761815 
L 45.430955 27.365527 
L 45.451454 26.137448 
L 45.498308 27.915071 
L 45.542234 27.156666 
L 45.583231 27.852119 
L 45.639456 25.998465 
L 45.652341 27.113252 
L 45.757177 26.360788 
L 45.661126 27.767343 
L 45.760105 26.608152 
L 45.823359 27.651195 
L 45.805203 26.298419 
L 45.870798 27.346565 
L 45.89364 25.978582 
L 45.942837 28.132257 
L 45.982077 26.851316 
L 46.061729 27.713528 
L 46.015461 26.257796 
L 46.093356 27.196051 
L 46.101555 26.23017 
L 46.144895 27.788052 
L 46.206977 26.469488 
L 46.303028 28.086068 
L 46.286629 26.319974 
L 46.318842 27.430904 
L 46.409622 26.212429 
L 46.389709 27.882642 
L 46.429535 26.905729 
L 46.460575 28.012681 
L 46.491616 26.315388 
L 46.540228 27.162023 
L 46.588253 26.28438 
L 46.571854 27.772078 
L 46.650335 26.926953 
L 46.732915 27.735862 
L 46.729401 26.290751 
L 46.761028 27.199354 
L 46.863521 26.144497 
L 46.782112 28.016295 
L 46.872307 26.828268 
L 46.959572 27.667055 
L 46.908033 26.184632 
L 46.983 27.409035 
L 47.023411 26.291201 
L 46.991199 27.759882 
L 47.094278 26.922974 
L 47.145232 27.803604 
L 47.188572 26.165648 
L 47.205557 27.200417 
L 47.288723 27.729697 
L 47.218442 26.450731 
L 47.315664 27.136747 
L 47.394145 26.354651 
L 47.39883 27.775154 
L 47.426943 26.815527 
L 47.433971 26.346684 
L 47.448027 27.758757 
L 47.470869 26.781606 
L 47.486682 27.746267 
L 47.515966 26.27365 
L 47.582147 27.205163 
L 47.603232 27.727982 
L 47.674684 26.115983 
L 47.69284 27.064128 
L 47.747308 25.950706 
L 47.729738 27.968924 
L 47.794163 26.609815 
L 47.873815 27.970096 
L 47.86503 26.316626 
L 47.904856 27.180116 
L 47.971623 26.14805 
L 47.995636 27.887608 
L 48.01672 26.700758 
L 48.105743 27.959204 
L 48.062988 26.21445 
L 48.127999 27.158506 
L 48.174853 26.219288 
L 48.174267 27.666177 
L 48.238106 27.43471 
L 48.299602 27.883408 
L 48.333571 26.299794 
L 48.348213 27.230949 
L 48.389211 26.156091 
L 48.391553 27.845785 
L 48.460078 26.621879 
L 48.522745 27.734162 
L 48.530359 26.270974 
L 48.571356 27.079356 
L 48.672678 26.237195 
L 48.575456 27.852707 
L 48.682049 26.778262 
L 48.73066 28.032809 
L 48.711333 26.287385 
L 48.793328 27.509178 
L 48.851896 26.22449 
L 48.896993 27.788279 
L 48.905192 26.789098 
L 48.922177 27.702786 
L 48.979573 26.408774 
L 49.015885 27.091359 
L 49.034627 26.390305 
L 49.073867 27.753503 
L 49.127164 26.99703 
L 49.210916 27.932309 
L 49.178118 26.136247 
L 49.237271 26.931619 
L 49.293496 26.187597 
L 49.256013 27.725178 
L 49.346793 26.550041 
L 49.448115 27.813637 
L 49.388376 26.287471 
L 49.458072 27.141866 
L 49.50844 26.371805 
L 49.500826 27.819891 
L 49.568179 26.72211 
L 49.64666 27.801224 
L 49.672429 26.229706 
L 49.679458 27.408598 
L 49.780194 27.964623 
L 49.771409 26.355141 
L 49.788394 26.654193 
L 49.816506 26.334693 
L 49.812992 27.819756 
L 49.899087 26.759014 
L 49.973468 27.90674 
L 49.943598 26.353584 
L 50.00978 27.424686 
L 50.110516 26.31015 
L 50.025593 27.851974 
L 50.121058 26.900115 
L 50.197196 26.005024 
L 50.191925 27.997192 
L 50.229994 27.135189 
L 50.279777 27.78835 
L 50.333073 26.031091 
L 50.33893 27.137634 
L 50.419754 26.332117 
L 50.358843 27.765243 
L 50.450209 26.770767 
L 50.505263 27.714699 
L 50.47715 26.060356 
L 50.561488 27.147061 
L 50.662224 26.207727 
L 50.565002 27.836608 
L 50.668666 26.776301 
L 50.723134 27.681769 
L 50.764132 26.178197 
L 50.779945 27.571069 
L 50.838513 26.310456 
L 50.859012 27.894723 
L 50.891224 26.858844 
L 50.894738 28.081886 
L 50.892395 26.169779 
L 51.003088 27.247932 
L 51.083912 26.173557 
L 51.042914 27.831789 
L 51.114367 27.004024 
L 51.17352 27.929922 
L 51.157707 26.229018 
L 51.224474 27.129638 
L 51.301784 26.288484 
L 51.263129 27.843009 
L 51.335753 26.914305 
L 51.442346 27.940686 
L 51.341024 26.257993 
L 51.446446 27.38069 
L 51.492714 25.988646 
L 51.530198 28.182647 
L 51.557725 27.115159 
L 51.639134 28.035288 
L 51.58818 26.225943 
L 51.668418 27.305424 
L 51.708244 26.167363 
L 51.73577 27.823552 
L 51.779111 26.513428 
L 51.790824 27.887525 
L 51.830064 26.294311 
L 51.890389 27.275322 
L 51.979998 26.262996 
L 51.905617 27.88847 
L 52.001668 26.727378 
L 52.078977 28.02672 
L 52.077806 25.871651 
L 52.112361 27.223523 
L 52.137545 26.253216 
L 52.15453 27.820217 
L 52.22364 26.829333 
L 52.303877 28.054658 
L 52.247067 26.202211 
L 52.334918 27.340186 
L 52.406371 26.209853 
L 52.409885 27.78584 
L 52.446197 27.11634 
L 52.453811 28.043479 
L 52.481923 26.309943 
L 52.556304 26.772635 
L 52.640056 26.094956 
L 52.576217 27.740618 
L 52.665826 26.621415 
L 52.733179 27.950806 
L 52.713851 26.197584 
L 52.777105 26.992009 
L 52.886041 25.962241 
L 52.867299 27.832327 
L 52.887212 26.917417 
L 52.947537 27.827224 
L 52.95515 26.385238 
L 52.997905 27.464736 
L 53.053544 26.089006 
L 53.094542 27.757188 
L 53.108598 26.907832 
L 53.146667 27.737933 
L 53.202306 26.389635 
L 53.219291 27.081361 
L 53.222219 26.386326 
L 53.242718 27.897228 
L 53.329398 26.878239 
L 53.399094 27.937715 
L 53.355754 26.325832 
L 53.440091 26.961637 
L 53.484603 26.388114 
L 53.533214 27.919631 
L 53.550784 26.864942 
L 53.650935 27.818776 
L 53.570697 25.889784 
L 53.656792 27.498189 
L 53.7505 26.261997 
L 53.664991 27.975694 
L 53.76807 26.804707 
L 53.779784 26.271405 
L 53.813168 28.037556 
L 53.878178 26.850552 
L 53.94026 27.720526 
L 53.978914 26.20554 
L 53.988285 27.073085 
L 54.031625 26.108752 
L 54.036896 27.694918 
L 54.098978 27.094511 
L 54.114791 27.652604 
L 54.11362 26.236605 
L 54.115963 27.053235 
" clip-path="url(#pf411ba46a3)" style="fill: none; stroke: #2ca02c; stroke-width: 0.05; stroke-linecap: square"/>
   </g>
  </g>
 </g>
 <defs>
  <clipPath id="pf411ba46a3">
   <rect x="0" y="0" width="56.692913" height="28.346457"/>
  </clipPath>
 </defs>
</svg>
