<?xml version="1.0" encoding="utf-8" standalone="no"?>
<!DOCTYPE svg PUBLIC "-//W3C//DTD SVG 1.1//EN"
  "http://www.w3.org/Graphics/SVG/1.1/DTD/svg11.dtd">
<svg xmlns:xlink="http://www.w3.org/1999/xlink" width="485.899971pt" height="127.723125pt" viewBox="0 0 485.899971 127.723125" xmlns="http://www.w3.org/2000/svg" version="1.1">
 <metadata>
  <rdf:RDF xmlns:dc="http://purl.org/dc/elements/1.1/" xmlns:cc="http://creativecommons.org/ns#" xmlns:rdf="http://www.w3.org/1999/02/22-rdf-syntax-ns#">
   <cc:Work>
    <dc:type rdf:resource="http://purl.org/dc/dcmitype/StillImage"/>
    <dc:date>2024-11-26T19:28:30.653214</dc:date>
    <dc:format>image/svg+xml</dc:format>
    <dc:creator>
     <cc:Agent>
      <dc:title>Matplotlib v3.8.4, https://matplotlib.org/</dc:title>
     </cc:Agent>
    </dc:creator>
   </cc:Work>
  </rdf:RDF>
 </metadata>
 <defs>
  <style type="text/css">*{stroke-linejoin: round; stroke-linecap: butt}</style>
 </defs>
 <g id="figure_1">
  <g id="patch_1">
   <path d="M 0 127.723125 
L 485.899971 127.723125 
L 485.899971 0 
L 0 0 
z
" style="fill: #ffffff"/>
  </g>
  <g id="axes_1">
   <g id="patch_2">
    <path d="M 30.19125 102.319687 
L 237.459971 102.319687 
L 237.459971 15.583768 
L 30.19125 15.583768 
z
" style="fill: #ffffff"/>
   </g>
   <g id="PathCollection_1">
    <defs>
     <path id="m62d82c5ce8" d="M -1.286088 -1.685594 
Q -0.767532 -2.160651 -0.497379 -2.5075 
Q -0.227226 -2.855494 -0.094439 -3.162278 
L 0.0704 -3.162278 
Q 0.237529 -2.80856 0.504247 -2.475448 
Q 0.770966 -2.143481 1.286088 -1.68216 
L 1.286088 -1.406283 
Q 0.567207 -1.74283 0.180293 -2.111428 
L 0.180293 3.162278 
L -0.180293 3.162278 
L -0.180293 -2.111428 
Q -0.523708 -1.838986 -0.69427 -1.731383 
Q -0.863688 -1.624924 -1.286088 -1.413152 
L -1.286088 -1.685594 
z
" style="stroke: #555555; stroke-width: 0.5"/>
    </defs>
    <g clip-path="url(#p564d908512)">
     <use xlink:href="#m62d82c5ce8" x="45.264377" y="93.646096" style="fill: #555555; stroke: #555555; stroke-width: 0.5"/>
     <use xlink:href="#m62d82c5ce8" x="91.901956" y="93.646096" style="fill: #555555; stroke: #555555; stroke-width: 0.5"/>
     <use xlink:href="#m62d82c5ce8" x="138.533184" y="93.646096" style="fill: #555555; stroke: #555555; stroke-width: 0.5"/>
     <use xlink:href="#m62d82c5ce8" x="185.164413" y="93.646096" style="fill: #555555; stroke: #555555; stroke-width: 0.5"/>
    </g>
   </g>
   <g id="matplotlib.axis_1">
    <g id="xtick_1">
     <g id="line2d_1">
      <defs>
       <path id="m7618751b4c" d="M 0 0 
L 0 1.5 
" style="stroke: #000000; stroke-width: 0.8"/>
      </defs>
      <g>
       <use xlink:href="#m7618751b4c" x="32.307965" y="102.319687" style="stroke: #000000; stroke-width: 0.8"/>
      </g>
     </g>
     <g id="text_1">
      <!-- 0 -->
      <g transform="translate(30.639684 111.614375) scale(0.06 -0.06)">
       <defs>
        <path id="ArialMT-30" d="M 266 2259 
Q 266 3072 433 3567 
Q 600 4063 929 4331 
Q 1259 4600 1759 4600 
Q 2128 4600 2406 4451 
Q 2684 4303 2865 4023 
Q 3047 3744 3150 3342 
Q 3253 2941 3253 2259 
Q 3253 1453 3087 958 
Q 2922 463 2592 192 
Q 2263 -78 1759 -78 
Q 1097 -78 719 397 
Q 266 969 266 2259 
z
M 844 2259 
Q 844 1131 1108 757 
Q 1372 384 1759 384 
Q 2147 384 2411 759 
Q 2675 1134 2675 2259 
Q 2675 3391 2411 3762 
Q 2147 4134 1753 4134 
Q 1366 4134 1134 3806 
Q 844 3388 844 2259 
z
" transform="scale(0.015625)"/>
       </defs>
       <use xlink:href="#ArialMT-30"/>
      </g>
     </g>
    </g>
    <g id="xtick_2">
     <g id="line2d_2">
      <g>
       <use xlink:href="#m7618751b4c" x="74.642262" y="102.319687" style="stroke: #000000; stroke-width: 0.8"/>
      </g>
     </g>
     <g id="text_2">
      <!-- 20 -->
      <g transform="translate(71.3057 111.614375) scale(0.06 -0.06)">
       <defs>
        <path id="ArialMT-32" d="M 3222 541 
L 3222 0 
L 194 0 
Q 188 203 259 391 
Q 375 700 629 1000 
Q 884 1300 1366 1694 
Q 2113 2306 2375 2664 
Q 2638 3022 2638 3341 
Q 2638 3675 2398 3904 
Q 2159 4134 1775 4134 
Q 1369 4134 1125 3890 
Q 881 3647 878 3216 
L 300 3275 
Q 359 3922 746 4261 
Q 1134 4600 1788 4600 
Q 2447 4600 2831 4234 
Q 3216 3869 3216 3328 
Q 3216 3053 3103 2787 
Q 2991 2522 2730 2228 
Q 2469 1934 1863 1422 
Q 1356 997 1212 845 
Q 1069 694 975 541 
L 3222 541 
z
" transform="scale(0.015625)"/>
       </defs>
       <use xlink:href="#ArialMT-32"/>
       <use xlink:href="#ArialMT-30" x="55.615234"/>
      </g>
     </g>
    </g>
    <g id="xtick_3">
     <g id="line2d_3">
      <g>
       <use xlink:href="#m7618751b4c" x="116.97656" y="102.319687" style="stroke: #000000; stroke-width: 0.8"/>
      </g>
     </g>
     <g id="text_3">
      <!-- 40 -->
      <g transform="translate(113.639998 111.614375) scale(0.06 -0.06)">
       <defs>
        <path id="ArialMT-34" d="M 2069 0 
L 2069 1097 
L 81 1097 
L 81 1613 
L 2172 4581 
L 2631 4581 
L 2631 1613 
L 3250 1613 
L 3250 1097 
L 2631 1097 
L 2631 0 
L 2069 0 
z
M 2069 1613 
L 2069 3678 
L 634 1613 
L 2069 1613 
z
" transform="scale(0.015625)"/>
       </defs>
       <use xlink:href="#ArialMT-34"/>
       <use xlink:href="#ArialMT-30" x="55.615234"/>
      </g>
     </g>
    </g>
    <g id="xtick_4">
     <g id="line2d_4">
      <g>
       <use xlink:href="#m7618751b4c" x="159.310858" y="102.319687" style="stroke: #000000; stroke-width: 0.8"/>
      </g>
     </g>
     <g id="text_4">
      <!-- 60 -->
      <g transform="translate(155.974295 111.614375) scale(0.06 -0.06)">
       <defs>
        <path id="ArialMT-36" d="M 3184 3459 
L 2625 3416 
Q 2550 3747 2413 3897 
Q 2184 4138 1850 4138 
Q 1581 4138 1378 3988 
Q 1113 3794 959 3422 
Q 806 3050 800 2363 
Q 1003 2672 1297 2822 
Q 1591 2972 1913 2972 
Q 2475 2972 2870 2558 
Q 3266 2144 3266 1488 
Q 3266 1056 3080 686 
Q 2894 316 2569 119 
Q 2244 -78 1831 -78 
Q 1128 -78 684 439 
Q 241 956 241 2144 
Q 241 3472 731 4075 
Q 1159 4600 1884 4600 
Q 2425 4600 2770 4297 
Q 3116 3994 3184 3459 
z
M 888 1484 
Q 888 1194 1011 928 
Q 1134 663 1356 523 
Q 1578 384 1822 384 
Q 2178 384 2434 671 
Q 2691 959 2691 1453 
Q 2691 1928 2437 2201 
Q 2184 2475 1800 2475 
Q 1419 2475 1153 2201 
Q 888 1928 888 1484 
z
" transform="scale(0.015625)"/>
       </defs>
       <use xlink:href="#ArialMT-36"/>
       <use xlink:href="#ArialMT-30" x="55.615234"/>
      </g>
     </g>
    </g>
    <g id="xtick_5">
     <g id="line2d_5">
      <g>
       <use xlink:href="#m7618751b4c" x="201.645155" y="102.319687" style="stroke: #000000; stroke-width: 0.8"/>
      </g>
     </g>
     <g id="text_5">
      <!-- 80 -->
      <g transform="translate(198.308593 111.614375) scale(0.06 -0.06)">
       <defs>
        <path id="ArialMT-38" d="M 1131 2484 
Q 781 2613 612 2850 
Q 444 3088 444 3419 
Q 444 3919 803 4259 
Q 1163 4600 1759 4600 
Q 2359 4600 2725 4251 
Q 3091 3903 3091 3403 
Q 3091 3084 2923 2848 
Q 2756 2613 2416 2484 
Q 2838 2347 3058 2040 
Q 3278 1734 3278 1309 
Q 3278 722 2862 322 
Q 2447 -78 1769 -78 
Q 1091 -78 675 323 
Q 259 725 259 1325 
Q 259 1772 486 2073 
Q 713 2375 1131 2484 
z
M 1019 3438 
Q 1019 3113 1228 2906 
Q 1438 2700 1772 2700 
Q 2097 2700 2305 2904 
Q 2513 3109 2513 3406 
Q 2513 3716 2298 3927 
Q 2084 4138 1766 4138 
Q 1444 4138 1231 3931 
Q 1019 3725 1019 3438 
z
M 838 1322 
Q 838 1081 952 856 
Q 1066 631 1291 507 
Q 1516 384 1775 384 
Q 2178 384 2440 643 
Q 2703 903 2703 1303 
Q 2703 1709 2433 1975 
Q 2163 2241 1756 2241 
Q 1359 2241 1098 1978 
Q 838 1716 838 1322 
z
" transform="scale(0.015625)"/>
       </defs>
       <use xlink:href="#ArialMT-38"/>
       <use xlink:href="#ArialMT-30" x="55.615234"/>
      </g>
     </g>
    </g>
    <g id="text_6">
     <!-- Time [ms] -->
     <g transform="translate(116.421861 122.533125) scale(0.08 -0.08)">
      <defs>
       <path id="ArialMT-54" d="M 1659 0 
L 1659 4041 
L 150 4041 
L 150 4581 
L 3781 4581 
L 3781 4041 
L 2266 4041 
L 2266 0 
L 1659 0 
z
" transform="scale(0.015625)"/>
       <path id="ArialMT-69" d="M 425 3934 
L 425 4581 
L 988 4581 
L 988 3934 
L 425 3934 
z
M 425 0 
L 425 3319 
L 988 3319 
L 988 0 
L 425 0 
z
" transform="scale(0.015625)"/>
       <path id="ArialMT-6d" d="M 422 0 
L 422 3319 
L 925 3319 
L 925 2853 
Q 1081 3097 1340 3245 
Q 1600 3394 1931 3394 
Q 2300 3394 2536 3241 
Q 2772 3088 2869 2813 
Q 3263 3394 3894 3394 
Q 4388 3394 4653 3120 
Q 4919 2847 4919 2278 
L 4919 0 
L 4359 0 
L 4359 2091 
Q 4359 2428 4304 2576 
Q 4250 2725 4106 2815 
Q 3963 2906 3769 2906 
Q 3419 2906 3187 2673 
Q 2956 2441 2956 1928 
L 2956 0 
L 2394 0 
L 2394 2156 
Q 2394 2531 2256 2718 
Q 2119 2906 1806 2906 
Q 1569 2906 1367 2781 
Q 1166 2656 1075 2415 
Q 984 2175 984 1722 
L 984 0 
L 422 0 
z
" transform="scale(0.015625)"/>
       <path id="ArialMT-65" d="M 2694 1069 
L 3275 997 
Q 3138 488 2766 206 
Q 2394 -75 1816 -75 
Q 1088 -75 661 373 
Q 234 822 234 1631 
Q 234 2469 665 2931 
Q 1097 3394 1784 3394 
Q 2450 3394 2872 2941 
Q 3294 2488 3294 1666 
Q 3294 1616 3291 1516 
L 816 1516 
Q 847 969 1125 678 
Q 1403 388 1819 388 
Q 2128 388 2347 550 
Q 2566 713 2694 1069 
z
M 847 1978 
L 2700 1978 
Q 2663 2397 2488 2606 
Q 2219 2931 1791 2931 
Q 1403 2931 1139 2672 
Q 875 2413 847 1978 
z
" transform="scale(0.015625)"/>
       <path id="ArialMT-20" transform="scale(0.015625)"/>
       <path id="ArialMT-5b" d="M 434 -1272 
L 434 4581 
L 1675 4581 
L 1675 4116 
L 997 4116 
L 997 -806 
L 1675 -806 
L 1675 -1272 
L 434 -1272 
z
" transform="scale(0.015625)"/>
       <path id="ArialMT-73" d="M 197 991 
L 753 1078 
Q 800 744 1014 566 
Q 1228 388 1613 388 
Q 2000 388 2187 545 
Q 2375 703 2375 916 
Q 2375 1106 2209 1216 
Q 2094 1291 1634 1406 
Q 1016 1563 777 1677 
Q 538 1791 414 1992 
Q 291 2194 291 2438 
Q 291 2659 392 2848 
Q 494 3038 669 3163 
Q 800 3259 1026 3326 
Q 1253 3394 1513 3394 
Q 1903 3394 2198 3281 
Q 2494 3169 2634 2976 
Q 2775 2784 2828 2463 
L 2278 2388 
Q 2241 2644 2061 2787 
Q 1881 2931 1553 2931 
Q 1166 2931 1000 2803 
Q 834 2675 834 2503 
Q 834 2394 903 2306 
Q 972 2216 1119 2156 
Q 1203 2125 1616 2013 
Q 2213 1853 2448 1751 
Q 2684 1650 2818 1456 
Q 2953 1263 2953 975 
Q 2953 694 2789 445 
Q 2625 197 2315 61 
Q 2006 -75 1616 -75 
Q 969 -75 630 194 
Q 291 463 197 991 
z
" transform="scale(0.015625)"/>
       <path id="ArialMT-5d" d="M 1363 -1272 
L 122 -1272 
L 122 -806 
L 800 -806 
L 800 4116 
L 122 4116 
L 122 4581 
L 1363 4581 
L 1363 -1272 
z
" transform="scale(0.015625)"/>
      </defs>
      <use xlink:href="#ArialMT-54"/>
      <use xlink:href="#ArialMT-69" x="57.333984"/>
      <use xlink:href="#ArialMT-6d" x="79.550781"/>
      <use xlink:href="#ArialMT-65" x="162.851562"/>
      <use xlink:href="#ArialMT-20" x="218.466797"/>
      <use xlink:href="#ArialMT-5b" x="246.25"/>
      <use xlink:href="#ArialMT-6d" x="274.033203"/>
      <use xlink:href="#ArialMT-73" x="357.333984"/>
      <use xlink:href="#ArialMT-5d" x="407.333984"/>
     </g>
    </g>
   </g>
   <g id="matplotlib.axis_2">
    <g id="ytick_1">
     <g id="line2d_6">
      <defs>
       <path id="mdc1bc0dcff" d="M 0 0 
L -1.5 0 
" style="stroke: #000000; stroke-width: 0.8"/>
      </defs>
      <g>
       <use xlink:href="#mdc1bc0dcff" x="30.19125" y="93.646096" style="stroke: #000000; stroke-width: 0.8"/>
      </g>
     </g>
     <g id="text_7">
      <!-- −60 -->
      <g transform="translate(15.01375 95.793439) scale(0.06 -0.06)">
       <defs>
        <path id="ArialMT-2212" d="M 3381 1997 
L 356 1997 
L 356 2522 
L 3381 2522 
L 3381 1997 
z
" transform="scale(0.015625)"/>
       </defs>
       <use xlink:href="#ArialMT-2212"/>
       <use xlink:href="#ArialMT-36" x="58.398438"/>
       <use xlink:href="#ArialMT-30" x="114.013672"/>
      </g>
     </g>
    </g>
    <g id="ytick_2">
     <g id="line2d_7">
      <g>
       <use xlink:href="#mdc1bc0dcff" x="30.19125" y="82.081306" style="stroke: #000000; stroke-width: 0.8"/>
      </g>
     </g>
     <g id="text_8">
      <!-- −40 -->
      <g transform="translate(15.01375 84.22865) scale(0.06 -0.06)">
       <use xlink:href="#ArialMT-2212"/>
       <use xlink:href="#ArialMT-34" x="58.398438"/>
       <use xlink:href="#ArialMT-30" x="114.013672"/>
      </g>
     </g>
    </g>
    <g id="ytick_3">
     <g id="line2d_8">
      <g>
       <use xlink:href="#mdc1bc0dcff" x="30.19125" y="70.516517" style="stroke: #000000; stroke-width: 0.8"/>
      </g>
     </g>
     <g id="text_9">
      <!-- −20 -->
      <g transform="translate(15.01375 72.663861) scale(0.06 -0.06)">
       <use xlink:href="#ArialMT-2212"/>
       <use xlink:href="#ArialMT-32" x="58.398438"/>
       <use xlink:href="#ArialMT-30" x="114.013672"/>
      </g>
     </g>
    </g>
    <g id="ytick_4">
     <g id="line2d_9">
      <g>
       <use xlink:href="#mdc1bc0dcff" x="30.19125" y="58.951728" style="stroke: #000000; stroke-width: 0.8"/>
      </g>
     </g>
     <g id="text_10">
      <!-- 0 -->
      <g transform="translate(21.854688 61.099071) scale(0.06 -0.06)">
       <use xlink:href="#ArialMT-30"/>
      </g>
     </g>
    </g>
    <g id="ytick_5">
     <g id="line2d_10">
      <g>
       <use xlink:href="#mdc1bc0dcff" x="30.19125" y="47.386938" style="stroke: #000000; stroke-width: 0.8"/>
      </g>
     </g>
     <g id="text_11">
      <!-- 20 -->
      <g transform="translate(18.518125 49.534282) scale(0.06 -0.06)">
       <use xlink:href="#ArialMT-32"/>
       <use xlink:href="#ArialMT-30" x="55.615234"/>
      </g>
     </g>
    </g>
    <g id="ytick_6">
     <g id="line2d_11">
      <g>
       <use xlink:href="#mdc1bc0dcff" x="30.19125" y="35.822149" style="stroke: #000000; stroke-width: 0.8"/>
      </g>
     </g>
     <g id="text_12">
      <!-- 40 -->
      <g transform="translate(18.518125 37.969493) scale(0.06 -0.06)">
       <use xlink:href="#ArialMT-34"/>
       <use xlink:href="#ArialMT-30" x="55.615234"/>
      </g>
     </g>
    </g>
    <g id="ytick_7">
     <g id="line2d_12">
      <g>
       <use xlink:href="#mdc1bc0dcff" x="30.19125" y="24.25736" style="stroke: #000000; stroke-width: 0.8"/>
      </g>
     </g>
     <g id="text_13">
      <!-- 60 -->
      <g transform="translate(18.518125 26.404703) scale(0.06 -0.06)">
       <use xlink:href="#ArialMT-36"/>
       <use xlink:href="#ArialMT-30" x="55.615234"/>
      </g>
     </g>
    </g>
    <g id="text_14">
     <!-- Amplitude [mT/m, mG] -->
     <g transform="translate(9.42375 98.955478) rotate(-90) scale(0.08 -0.08)">
      <defs>
       <path id="ArialMT-41" d="M -9 0 
L 1750 4581 
L 2403 4581 
L 4278 0 
L 3588 0 
L 3053 1388 
L 1138 1388 
L 634 0 
L -9 0 
z
M 1313 1881 
L 2866 1881 
L 2388 3150 
Q 2169 3728 2063 4100 
Q 1975 3659 1816 3225 
L 1313 1881 
z
" transform="scale(0.015625)"/>
       <path id="ArialMT-70" d="M 422 -1272 
L 422 3319 
L 934 3319 
L 934 2888 
Q 1116 3141 1344 3267 
Q 1572 3394 1897 3394 
Q 2322 3394 2647 3175 
Q 2972 2956 3137 2557 
Q 3303 2159 3303 1684 
Q 3303 1175 3120 767 
Q 2938 359 2589 142 
Q 2241 -75 1856 -75 
Q 1575 -75 1351 44 
Q 1128 163 984 344 
L 984 -1272 
L 422 -1272 
z
M 931 1641 
Q 931 1000 1190 694 
Q 1450 388 1819 388 
Q 2194 388 2461 705 
Q 2728 1022 2728 1688 
Q 2728 2322 2467 2637 
Q 2206 2953 1844 2953 
Q 1484 2953 1207 2617 
Q 931 2281 931 1641 
z
" transform="scale(0.015625)"/>
       <path id="ArialMT-6c" d="M 409 0 
L 409 4581 
L 972 4581 
L 972 0 
L 409 0 
z
" transform="scale(0.015625)"/>
       <path id="ArialMT-74" d="M 1650 503 
L 1731 6 
Q 1494 -44 1306 -44 
Q 1000 -44 831 53 
Q 663 150 594 308 
Q 525 466 525 972 
L 525 2881 
L 113 2881 
L 113 3319 
L 525 3319 
L 525 4141 
L 1084 4478 
L 1084 3319 
L 1650 3319 
L 1650 2881 
L 1084 2881 
L 1084 941 
Q 1084 700 1114 631 
Q 1144 563 1211 522 
Q 1278 481 1403 481 
Q 1497 481 1650 503 
z
" transform="scale(0.015625)"/>
       <path id="ArialMT-75" d="M 2597 0 
L 2597 488 
Q 2209 -75 1544 -75 
Q 1250 -75 995 37 
Q 741 150 617 320 
Q 494 491 444 738 
Q 409 903 409 1263 
L 409 3319 
L 972 3319 
L 972 1478 
Q 972 1038 1006 884 
Q 1059 663 1231 536 
Q 1403 409 1656 409 
Q 1909 409 2131 539 
Q 2353 669 2445 892 
Q 2538 1116 2538 1541 
L 2538 3319 
L 3100 3319 
L 3100 0 
L 2597 0 
z
" transform="scale(0.015625)"/>
       <path id="ArialMT-64" d="M 2575 0 
L 2575 419 
Q 2259 -75 1647 -75 
Q 1250 -75 917 144 
Q 584 363 401 755 
Q 219 1147 219 1656 
Q 219 2153 384 2558 
Q 550 2963 881 3178 
Q 1213 3394 1622 3394 
Q 1922 3394 2156 3267 
Q 2391 3141 2538 2938 
L 2538 4581 
L 3097 4581 
L 3097 0 
L 2575 0 
z
M 797 1656 
Q 797 1019 1065 703 
Q 1334 388 1700 388 
Q 2069 388 2326 689 
Q 2584 991 2584 1609 
Q 2584 2291 2321 2609 
Q 2059 2928 1675 2928 
Q 1300 2928 1048 2622 
Q 797 2316 797 1656 
z
" transform="scale(0.015625)"/>
       <path id="ArialMT-2f" d="M 0 -78 
L 1328 4659 
L 1778 4659 
L 453 -78 
L 0 -78 
z
" transform="scale(0.015625)"/>
       <path id="ArialMT-2c" d="M 569 0 
L 569 641 
L 1209 641 
L 1209 0 
Q 1209 -353 1084 -570 
Q 959 -788 688 -906 
L 531 -666 
Q 709 -588 793 -436 
Q 878 -284 888 0 
L 569 0 
z
" transform="scale(0.015625)"/>
       <path id="ArialMT-47" d="M 2638 1797 
L 2638 2334 
L 4578 2338 
L 4578 638 
Q 4131 281 3656 101 
Q 3181 -78 2681 -78 
Q 2006 -78 1454 211 
Q 903 500 622 1047 
Q 341 1594 341 2269 
Q 341 2938 620 3517 
Q 900 4097 1425 4378 
Q 1950 4659 2634 4659 
Q 3131 4659 3532 4498 
Q 3934 4338 4162 4050 
Q 4391 3763 4509 3300 
L 3963 3150 
Q 3859 3500 3706 3700 
Q 3553 3900 3268 4020 
Q 2984 4141 2638 4141 
Q 2222 4141 1919 4014 
Q 1616 3888 1430 3681 
Q 1244 3475 1141 3228 
Q 966 2803 966 2306 
Q 966 1694 1177 1281 
Q 1388 869 1791 669 
Q 2194 469 2647 469 
Q 3041 469 3416 620 
Q 3791 772 3984 944 
L 3984 1797 
L 2638 1797 
z
" transform="scale(0.015625)"/>
      </defs>
      <use xlink:href="#ArialMT-41"/>
      <use xlink:href="#ArialMT-6d" x="66.699219"/>
      <use xlink:href="#ArialMT-70" x="150"/>
      <use xlink:href="#ArialMT-6c" x="205.615234"/>
      <use xlink:href="#ArialMT-69" x="227.832031"/>
      <use xlink:href="#ArialMT-74" x="250.048828"/>
      <use xlink:href="#ArialMT-75" x="277.832031"/>
      <use xlink:href="#ArialMT-64" x="333.447266"/>
      <use xlink:href="#ArialMT-65" x="389.0625"/>
      <use xlink:href="#ArialMT-20" x="444.677734"/>
      <use xlink:href="#ArialMT-5b" x="472.460938"/>
      <use xlink:href="#ArialMT-6d" x="500.244141"/>
      <use xlink:href="#ArialMT-54" x="583.544922"/>
      <use xlink:href="#ArialMT-2f" x="644.628906"/>
      <use xlink:href="#ArialMT-6d" x="672.412109"/>
      <use xlink:href="#ArialMT-2c" x="755.712891"/>
      <use xlink:href="#ArialMT-20" x="783.496094"/>
      <use xlink:href="#ArialMT-6d" x="811.279297"/>
      <use xlink:href="#ArialMT-47" x="894.580078"/>
      <use xlink:href="#ArialMT-5d" x="972.363281"/>
     </g>
    </g>
   </g>
   <g id="line2d_13">
    <path d="M 30.19125 58.951728 
L 237.459971 58.951728 
" clip-path="url(#p564d908512)" style="fill: none; stroke: #555555; stroke-width: 0.8; stroke-linecap: square"/>
   </g>
   <g id="line2d_14">
    <path d="M 45.26226 58.951728 
L 45.272844 58.336627 
L 45.336345 60.284142 
L 45.357512 60.48205 
L 45.378679 60.210687 
L 45.505682 56.509172 
L 45.569184 57.625834 
L 45.717354 62.079054 
L 45.759688 61.745983 
L 45.992527 55.254121 
L 46.077195 56.942616 
L 46.288867 63.152586 
L 46.331201 62.818578 
L 46.479371 57.838689 
L 46.627541 54.308493 
L 46.669875 54.598885 
L 46.796878 58.481552 
L 47.00855 63.99161 
L 47.029717 63.867972 
L 47.135553 61.314248 
L 47.410726 53.537523 
L 47.431893 53.655001 
L 47.537728 56.077825 
L 47.834069 64.724731 
L 47.876403 64.452194 
L 48.003406 61.010648 
L 48.278579 52.861713 
L 48.299746 52.865424 
L 48.363247 53.597191 
L 48.553752 60.194068 
L 48.765423 65.367209 
L 48.78659 65.327749 
L 48.871259 64.050759 
L 49.273435 52.235924 
L 49.358103 53.124963 
L 49.548608 59.68014 
L 49.802613 65.952059 
L 49.866115 65.419954 
L 50.014285 61.110363 
L 50.352959 51.679506 
L 50.416461 52.229649 
L 50.564631 56.485019 
L 50.924472 66.483504 
L 50.987974 65.909314 
L 51.136144 61.691093 
L 51.495985 51.159741 
L 51.517152 51.174572 
L 51.601821 52.17302 
L 51.792325 58.521749 
L 52.109833 66.997148 
L 52.152167 66.820998 
L 52.258003 64.850946 
L 52.744847 50.671526 
L 52.808348 51.17086 
L 52.956519 55.06171 
L 53.379862 67.470914 
L 53.401029 67.435047 
L 53.485697 66.432407 
L 53.676202 60.287881 
L 54.014876 50.286116 
L 54.036043 50.210868 
L 54.078377 50.317702 
L 54.184213 52.020063 
L 54.459386 62.140581 
L 54.713392 67.910927 
L 54.755726 67.822844 
L 54.861562 66.196098 
L 55.115568 57.006492 
L 55.390741 49.842763 
L 55.411908 49.772238 
L 55.454242 49.876306 
L 55.560078 51.509021 
L 55.814084 60.658757 
L 56.110424 68.305807 
L 56.131591 68.347882 
L 56.173925 68.192555 
L 56.279761 66.471167 
L 56.554934 56.436591 
L 56.830107 49.430685 
L 56.872441 49.360871 
L 56.893608 49.44317 
L 56.999444 50.979574 
L 57.232283 59.072274 
L 57.570957 68.657997 
L 57.613291 68.750972 
L 57.634458 68.682628 
L 57.740294 67.233137 
L 57.973133 59.287722 
L 58.332974 49.032026 
L 58.375309 48.958 
L 58.396476 49.033534 
L 58.502312 50.495985 
L 58.73515 58.404017 
L 59.094992 68.988855 
L 59.137326 69.149184 
L 59.17966 69.015314 
L 59.285496 67.441174 
L 59.518335 59.454737 
L 59.878176 48.768268 
L 59.92051 48.568567 
L 59.984012 48.809829 
L 60.111015 51.132724 
L 60.449689 63.782048 
L 60.703695 69.461606 
L 60.724862 69.522851 
L 60.767196 69.432341 
L 60.873032 68.001081 
L 61.105871 60.280329 
L 61.508047 48.333219 
L 61.550381 48.191906 
L 61.592715 48.329501 
L 61.698551 49.85137 
L 61.93139 57.636933 
L 62.333565 69.707265 
L 62.3759 69.888877 
L 62.418234 69.796229 
L 62.52407 68.398044 
L 62.735741 61.661545 
L 63.180251 48.00928 
L 63.222586 47.835723 
L 63.26492 47.932078 
L 63.370756 49.32125 
L 63.582427 56.003289 
L 64.026937 69.96921 
L 64.090439 70.245279 
L 64.132773 70.0975 
L 64.238609 68.6045 
L 64.471447 60.98734 
L 64.89479 47.802658 
L 64.958292 47.48569 
L 65.000626 47.601128 
L 65.106462 49.002155 
L 65.339301 56.454647 
L 65.783811 70.304457 
L 65.847312 70.588156 
L 65.889646 70.455192 
L 65.995482 69.028352 
L 66.228321 61.583307 
L 66.693998 47.33551 
L 66.736332 47.153663 
L 66.799834 47.357299 
L 66.926837 49.408408 
L 67.20201 59.101212 
L 67.583018 70.539054 
L 67.667687 70.912876 
L 67.710021 70.724387 
L 67.837024 68.721586 
L 68.09103 59.982866 
L 68.514373 47.126641 
L 68.577874 46.820379 
L 68.620209 46.925133 
L 68.726044 48.242581 
L 68.937716 54.593145 
L 69.466895 71.069058 
L 69.509229 71.239724 
L 69.57273 71.038144 
L 69.699733 69.051764 
L 69.953739 60.404378 
L 70.377082 47.034547 
L 70.461751 46.501668 
L 70.504085 46.595611 
L 70.609921 47.8614 
L 70.821592 54.068627 
L 71.371938 71.356518 
L 71.435439 71.555545 
L 71.477774 71.390768 
L 71.604777 69.522271 
L 71.858782 61.080395 
L 72.32446 46.56312 
L 72.409128 46.194088 
L 72.451463 46.361794 
L 72.578465 48.222769 
L 72.832471 56.619565 
L 73.298149 71.383957 
L 73.382817 71.867421 
L 73.425151 71.761432 
L 73.530987 70.502531 
L 73.742659 64.40633 
L 74.335339 46.017993 
L 74.377673 45.88536 
L 74.420007 45.982587 
L 74.525843 47.209489 
L 74.737515 53.227328 
L 75.351362 72.079734 
L 75.393696 72.166595 
L 75.436031 72.026222 
L 75.563033 70.286067 
L 75.795872 62.975548 
L 76.325051 46.015936 
L 76.409719 45.587764 
L 76.452054 45.710003 
L 76.557889 46.975593 
L 76.769561 52.988034 
L 77.383408 72.27543 
L 77.44691 72.457393 
L 77.489244 72.301004 
L 77.616247 70.542953 
L 77.849086 63.275018 
L 78.399431 45.692363 
L 78.4841 45.297997 
L 78.526434 45.430105 
L 78.63227 46.699583 
L 78.843942 52.659383 
L 79.478956 72.576123 
L 79.542457 72.743482 
L 79.584792 72.58313 
L 79.711795 70.839431 
L 79.944633 63.650162 
L 80.516146 45.393621 
L 80.600815 45.01372 
L 80.643149 45.146401 
L 80.770152 46.799641 
L 81.002991 53.846706 
L 81.595671 72.701504 
L 81.680339 73.0252 
L 81.722674 72.867528 
L 81.849677 71.155449 
L 82.082515 64.064315 
L 82.675195 45.109347 
L 82.759864 44.734653 
L 82.802198 44.863646 
L 82.929201 46.482902 
L 83.16204 53.427803 
L 83.775887 72.981136 
L 83.860556 73.301893 
L 83.90289 73.148867 
L 84.029893 71.472666 
L 84.262732 64.483814 
L 84.876579 44.830912 
L 84.961248 44.460956 
L 85.003582 44.586387 
L 85.109418 45.787455 
L 85.321089 51.484022 
L 86.040772 73.518089 
L 86.083106 73.572905 
L 86.104274 73.523252 
L 86.210109 72.516982 
L 86.400614 67.852031 
L 87.204965 44.192754 
L 87.268467 44.457329 
L 87.39547 46.310848 
L 87.649475 54.257266 
L 88.242156 73.341588 
L 88.347991 73.837597 
L 88.369158 73.785901 
L 88.474994 72.782908 
L 88.665499 68.166455 
L 89.491017 43.930465 
L 89.512185 43.972252 
L 89.61802 44.920734 
L 89.808525 49.435492 
L 90.634043 74.103268 
L 90.676378 74.036555 
L 90.782213 73.014816 
L 90.972718 68.412449 
L 91.798237 43.673696 
L 91.819404 43.675714 
L 91.882905 43.9759 
L 92.031075 46.320447 
L 92.306248 55.38445 
L 92.856594 73.476292 
L 92.983597 74.362799 
L 93.025931 74.270792 
L 93.131767 73.201704 
L 93.343438 67.877083 
L 94.168957 43.414024 
L 94.232459 43.614681 
L 94.359462 45.284659 
L 94.5923 52.03434 
L 95.290816 74.300095 
L 95.375485 74.612339 
L 95.417819 74.481097 
L 95.544822 72.964726 
L 95.777661 66.445659 
L 96.518511 43.323916 
L 96.582012 43.166782 
L 96.624347 43.299818 
L 96.751349 44.812776 
L 96.984188 51.303514 
L 97.725038 74.648975 
L 97.78854 74.864318 
L 97.830874 74.771963 
L 97.93671 73.727797 
L 98.148381 68.52875 
L 99.016234 42.916505 
L 99.079736 43.142538 
L 99.206739 44.822838 
L 99.439577 51.495923 
L 100.180428 74.871375 
L 100.243929 75.108285 
L 100.286263 75.033917 
L 100.392099 74.045407 
L 100.582603 69.642632 
L 101.492791 42.673225 
L 101.535125 42.769997 
L 101.640961 43.807051 
L 101.852632 48.934567 
L 102.741653 75.350004 
L 102.76282 75.333477 
L 102.847488 74.811807 
L 103.016825 71.703518 
L 103.334333 60.555581 
L 103.863511 43.463787 
L 104.011681 42.435002 
L 104.032849 42.468629 
L 104.117517 43.054463 
L 104.286854 46.263889 
L 104.625529 58.353399 
L 105.112373 74.22687 
L 105.28171 75.587402 
L 105.302878 75.556369 
L 105.387546 74.983914 
L 105.556883 71.81174 
L 105.895558 59.780955 
L 106.403569 43.377616 
L 106.551739 42.199585 
L 106.572906 42.208883 
L 106.657575 42.692447 
L 106.826912 45.691583 
L 107.144419 56.661858 
L 107.694765 74.680903 
L 107.842935 75.821716 
L 107.864103 75.808202 
L 107.948771 75.311038 
L 108.118108 72.300337 
L 108.435616 61.340808 
L 108.985961 43.202578 
L 109.155299 41.969946 
L 109.176466 42.013207 
L 109.282301 42.885145 
L 109.472806 46.995408 
L 109.874982 62.142237 
L 110.298325 74.905502 
L 110.446495 76.052193 
L 110.467662 76.041925 
L 110.55233 75.563518 
L 110.721668 72.612076 
L 111.039175 61.759364 
L 111.610688 42.926258 
L 111.758858 41.739249 
L 111.801192 41.789329 
L 111.907028 42.670322 
L 112.097532 46.764294 
L 112.499708 61.869648 
L 112.923051 74.911355 
L 113.092388 76.281846 
L 113.113555 76.260129 
L 113.198224 75.742165 
L 113.367561 72.743354 
L 113.685068 61.88447 
L 114.256581 42.864944 
L 114.425919 41.508688 
L 114.447086 41.530982 
L 114.531754 42.048464 
L 114.701092 45.034604 
L 115.018599 55.85842 
L 115.611279 75.354773 
L 115.759449 76.503983 
L 115.801783 76.450365 
L 115.907619 75.575034 
L 116.098123 71.533332 
L 116.500299 56.514081 
L 116.944809 42.687224 
L 117.114147 41.285606 
L 117.135314 41.299653 
L 117.219982 41.779173 
L 117.389319 44.673265 
L 117.706827 55.353921 
L 118.299507 75.267881 
L 118.468844 76.726383 
L 118.490011 76.720824 
L 118.57468 76.277515 
L 118.744017 73.460864 
L 119.040357 63.728529 
L 119.696539 42.075185 
L 119.844709 41.064122 
L 119.865876 41.086514 
L 119.950544 41.593855 
L 120.119882 44.516393 
L 120.437389 55.185953 
L 121.051236 75.639519 
L 121.220573 76.948758 
L 121.241741 76.926344 
L 121.326409 76.421427 
L 121.495746 73.514135 
L 121.813254 62.882445 
L 122.427101 42.276833 
L 122.596438 40.84851 
L 122.617605 40.854539 
L 122.702274 41.292145 
L 122.871611 44.065567 
L 123.167951 53.689146 
L 123.8453 76.123284 
L 123.99347 77.16528 
L 124.014637 77.15037 
L 124.099306 76.680052 
L 124.268643 73.857161 
L 124.564983 64.198524 
L 125.242332 41.71748 
L 125.390502 40.632315 
L 125.432836 40.688642 
L 125.538672 41.540164 
L 125.729176 45.451157 
L 126.110185 59.378983 
L 126.618196 75.795068 
L 126.808701 77.379702 
L 126.872202 77.181268 
L 126.999205 75.70766 
L 127.232044 69.719066 
L 128.205733 40.43101 
L 128.248067 40.445218 
L 128.269234 40.513118 
L 128.37507 41.451795 
L 128.586741 46.084759 
L 129.010084 62.055881 
L 129.454594 75.92519 
L 129.645099 77.591386 
L 129.666266 77.577547 
L 129.750934 77.120773 
L 129.920272 74.363163 
L 130.216612 64.855258 
L 130.915128 41.435971 
L 131.084465 40.206866 
L 131.105632 40.232109 
L 131.1903 40.731769 
L 131.359638 43.558521 
L 131.655978 53.126115 
L 132.354494 76.549816 
L 132.523831 77.801342 
L 132.544998 77.77997 
L 132.629667 77.297736 
L 132.799004 74.512526 
L 133.095344 65.010661 
L 133.815027 41.084538 
L 133.963197 40.001949 
L 134.005531 40.046805 
L 134.111367 40.846934 
L 134.301871 44.603981 
L 134.661713 57.416236 
L 135.233226 76.333802 
L 135.42373 78.007009 
L 135.444897 77.99834 
L 135.529566 77.570673 
L 135.698903 74.904818 
L 135.995243 65.578047 
L 136.736093 40.885537 
L 136.905431 39.797066 
L 136.926598 39.836352 
L 137.032434 40.61561 
L 137.222938 44.316508 
L 137.582779 57.038388 
L 138.154292 76.259753 
L 138.365964 78.213373 
L 138.429465 78.048305 
L 138.556468 76.684161 
L 138.789307 70.980876 
L 139.847664 39.588311 
L 139.911166 39.757255 
L 140.038169 41.123613 
L 140.271007 46.815684 
L 141.329365 78.41362 
L 141.350532 78.408752 
L 141.435201 78.004436 
L 141.604538 75.417733 
L 141.900878 66.257832 
L 142.684062 40.338587 
L 142.832232 39.3866 
L 142.853399 39.403288 
L 142.938068 39.85251 
L 143.107405 42.513923 
L 143.403745 51.745241 
L 144.18693 77.654991 
L 144.3351 78.616754 
L 144.356267 78.602263 
L 144.440936 78.163669 
L 144.610273 75.530451 
L 144.906613 66.350324 
L 145.689797 40.258398 
L 145.859135 39.190885 
L 145.880302 39.227483 
L 145.986138 39.975875 
L 146.176642 43.562343 
L 146.515316 55.206484 
L 147.150331 76.83475 
L 147.362002 78.813836 
L 147.425504 78.679372 
L 147.552507 77.40492 
L 147.785345 71.922616 
L 148.293357 52.397624 
L 148.7167 40.31933 
L 148.886037 38.992949 
L 148.907204 38.99485 
L 148.991873 39.37792 
L 149.16121 41.882961 
L 149.436383 50.070855 
L 150.304236 78.354433 
L 150.431239 79.012352 
L 150.473573 78.932955 
L 150.579409 78.085502 
L 150.769913 74.370084 
L 151.129755 61.78918 
L 151.743602 40.925516 
L 151.955273 38.804916 
L 151.997608 38.820896 
L 152.018775 38.884776 
L 152.124611 39.756403 
L 152.315115 43.500827 
L 152.674957 56.095151 
L 153.288804 77.007728 
L 153.521642 79.20722 
L 153.585144 79.038581 
L 153.712147 77.716929 
L 153.944985 72.215582 
L 154.452997 52.704224 
L 154.87634 40.256215 
L 155.088011 38.603542 
L 155.151513 38.821176 
L 155.299683 40.590106 
L 155.553689 47.232211 
L 156.590879 79.291508 
L 156.65438 79.394245 
L 156.696715 79.279018 
L 156.823718 78.065061 
L 157.035389 73.382391 
L 157.458732 57.631383 
L 157.987911 40.46014 
L 158.199582 38.415898 
L 158.263084 38.50606 
L 158.390087 39.661944 
L 158.601758 44.250116 
L 159.003934 59.041509 
L 159.55428 77.319074 
L 159.787119 79.58998 
L 159.85062 79.455767 
L 159.977623 78.218677 
L 160.210461 72.898358 
L 160.676139 55.209499 
L 161.162983 40.079084 
L 161.374655 38.218011 
L 161.438156 38.358436 
L 161.565159 39.603252 
L 161.797998 44.923183 
L 162.263675 62.601094 
L 162.750519 77.825539 
L 162.962191 79.776408 
L 163.025692 79.666907 
L 163.152695 78.48644 
L 163.364367 73.895616 
L 163.766542 59.144168 
L 164.338056 40.208724 
L 164.570894 38.028899 
L 164.634396 38.178643 
L 164.761398 39.433063 
L 164.994237 44.743643 
L 165.459914 62.393638 
L 165.946759 77.812527 
L 166.179597 79.968313 
L 166.243099 79.815106 
L 166.370102 78.558117 
L 166.60294 73.255439 
L 167.068618 55.621812 
L 167.555462 40.10422 
L 167.788301 37.844287 
L 167.851802 37.96484 
L 167.978805 39.154305 
L 168.190477 43.726599 
L 168.592652 58.419909 
L 169.164165 77.647443 
L 169.397004 80.136417 
L 169.439338 80.136952 
L 169.460506 80.084061 
L 169.566341 79.293225 
L 169.756846 75.778744 
L 170.09552 64.453391 
L 170.83637 39.39176 
L 171.048042 37.656643 
L 171.111543 37.817504 
L 171.238546 39.077227 
L 171.471385 44.349316 
L 171.915895 61.066776 
L 172.445073 78.137491 
L 172.677912 80.337385 
L 172.741414 80.209431 
L 172.868416 79.017575 
L 173.080088 74.47216 
L 173.482264 59.844753 
L 174.074944 39.915468 
L 174.307783 37.487983 
L 174.350117 37.493274 
L 174.371284 37.548401 
L 174.47712 38.343548 
L 174.667624 41.840043 
L 175.006299 53.100177 
L 175.747149 78.484912 
L 175.979987 80.521455 
L 176.043489 80.353687 
L 176.170492 79.092249 
L 176.40333 73.851095 
L 176.84784 57.192384 
L 177.377019 39.822016 
L 177.609858 37.315694 
L 177.652192 37.302258 
L 177.673359 37.347601 
L 177.779195 38.090288 
L 177.969699 41.484947 
L 178.308374 52.600898 
L 179.070391 78.709222 
L 179.30323 80.702395 
L 179.366731 80.528459 
L 179.493734 79.262618 
L 179.726573 74.036345 
L 180.171083 57.413107 
L 180.721429 39.455346 
L 180.954267 37.120785 
L 180.996602 37.13623 
L 181.017769 37.195563 
L 181.123605 38.002833 
L 181.314109 41.487177 
L 181.652783 52.674731 
L 182.414801 78.819466 
L 182.647639 80.882689 
L 182.711141 80.734269 
L 182.838144 79.525355 
L 183.070982 74.409923 
L 183.494325 58.765134 
L 184.065838 39.613114 
L 184.298677 36.978432 
L 184.341011 36.933342 
L 184.383345 37.024793 
L 184.510348 38.1084 
L 184.72202 42.428742 
L 185.103028 55.88224 
L 185.75921 78.419604 
L 185.992049 81.018201 
L 186.034383 81.058175 
L 186.076717 80.962168 
L 186.20372 79.868381 
L 186.415392 75.542343 
L 186.7964 62.097313 
L 187.452582 39.488063 
L 187.706588 36.765621 
L 187.748922 36.776672 
L 187.770089 36.832982 
L 187.875925 37.617321 
L 188.066429 41.033675 
L 188.405104 52.086364 
L 189.209455 79.435119 
L 189.421127 81.235192 
L 189.484628 81.124548 
L 189.611631 80.003455 
L 189.823303 75.65546 
L 190.204311 62.216614 
L 190.88166 39.071137 
L 191.114499 36.605727 
L 191.156833 36.585915 
L 191.178 36.626412 
L 191.283836 37.328943 
L 191.47434 40.596083 
L 191.791848 50.63558 
L 192.659701 79.918694 
L 192.871372 81.40932 
L 192.956041 81.07549 
L 193.104211 79.236157 
L 193.358217 72.787727 
L 193.972064 49.057104 
L 194.37424 38.058238 
L 194.585911 36.402735 
L 194.649413 36.550257 
L 194.776415 37.73296 
L 195.009254 42.735253 
L 195.432597 58.195531 
L 196.046444 78.89354 
L 196.30045 81.575275 
L 196.342784 81.566144 
L 196.363952 81.511773 
L 196.469787 80.746595 
L 196.660292 77.397998 
L 196.998966 66.494388 
L 197.845652 37.869479 
L 198.057324 36.229248 
L 198.120825 36.376546 
L 198.247828 37.552179 
L 198.480667 42.523664 
L 198.904009 57.931206 
L 199.517857 78.828519 
L 199.771863 81.724321 
L 199.814197 81.756008 
L 199.856531 81.655881 
L 199.983534 80.574289 
L 200.195206 76.336608 
L 200.576214 63.090178 
L 201.295897 38.48168 
L 201.528736 36.083064 
L 201.57107 36.066124 
L 201.592237 36.106913 
L 201.698073 36.799647 
L 201.888577 40.007771 
L 202.206085 49.900033 
L 203.116272 80.517111 
L 203.306776 81.930021 
L 203.327944 81.924974 
L 203.412612 81.57841 
L 203.581949 79.361279 
L 203.857122 71.979742 
L 205.000148 36.114289 
L 205.084817 35.887271 
L 205.127151 35.969187 
L 205.254154 36.988758 
L 205.465826 41.10949 
L 205.825667 53.348798 
L 206.587685 79.629502 
L 206.820523 82.068132 
L 206.862857 82.097294 
L 206.905192 81.996586 
L 207.032195 80.924624 
L 207.243866 76.734272 
L 207.624875 63.590761 
L 208.365725 38.185624 
L 208.598564 35.751149 
L 208.640898 35.721258 
L 208.683232 35.820767 
L 208.810235 36.886453 
L 209.021907 41.059431 
L 209.402915 54.171353 
L 210.143766 79.685631 
L 210.376604 82.22011 
L 210.418938 82.270459 
L 210.461273 82.191853 
L 210.567108 81.435832 
L 210.757613 78.156638 
L 211.096287 67.443993 
L 211.985307 37.266618 
L 212.196979 35.550806 
L 212.26048 35.656328 
L 212.387483 36.725246 
L 212.599155 40.887134 
L 212.980163 53.960719 
L 213.721014 79.649301 
L 213.975019 82.410604 
L 214.017354 82.431891 
L 214.038521 82.394515 
L 214.144357 81.730834 
L 214.334861 78.617642 
L 214.652368 68.925694 
L 215.626057 36.541423 
L 215.816561 35.384024 
L 215.90123 35.694379 
L 216.0494 37.437117 
L 216.303406 43.613199 
L 216.811417 63.041438 
L 217.340596 79.930585 
L 217.594602 82.586554 
L 217.636936 82.592614 
L 217.658103 82.547971 
L 217.763939 81.851732 
L 217.954443 78.697169 
L 218.271951 68.980963 
L 219.245639 36.466936 
L 219.436144 35.215043 
L 219.499645 35.364305 
L 219.626648 36.506831 
L 219.859487 41.31568 
L 220.261663 55.557991 
L 220.960179 79.716519 
L 221.214184 82.70404 
L 221.256519 82.771002 
L 221.298853 82.711711 
L 221.404689 82.014876 
L 221.595193 78.871795 
L 221.9127 69.193424 
L 222.907556 36.175941 
L 223.098061 35.054164 
L 223.182729 35.369155 
L 223.330899 37.103564 
L 223.584905 43.228901 
L 224.092917 62.59004 
L 224.622095 79.833029 
L 224.876101 82.858079 
L 224.918435 82.934599 
L 224.96077 82.885724 
L 225.066605 82.218299 
L 225.25711 79.136427 
L 225.574617 69.555142 
L 226.59064 35.941221 
L 226.759977 34.887307 
L 226.781144 34.895258 
L 226.865813 35.238737 
L 227.03515 37.383758 
L 227.310323 44.526364 
L 227.987672 70.712164 
L 228.389848 81.380173 
L 228.601519 83.093545 
L 228.665021 83.006345 
L 228.792024 81.999286 
L 229.003695 77.997723 
L 229.363537 66.049279 
L 230.210223 36.991218 
L 230.443061 34.745412 
L 230.485396 34.734137 
L 230.506563 34.775053 
L 230.612398 35.441799 
L 230.802903 38.504583 
L 231.078076 47.096636 
L 231.437917 57.843018 
L 231.628422 58.951387 
L 231.744841 58.951728 
M 231.744841 58.951728 
L 231.744841 58.955682 
L 235.343256 58.951728 
L 235.343256 58.951728 
" clip-path="url(#p564d908512)" style="fill: none; stroke: #6699cc; stroke-width: 0.8; stroke-linecap: square"/>
   </g>
   <g id="line2d_15">
    <path d="M 45.26226 58.951728 
L 45.315178 58.009995 
L 45.357512 59.370822 
L 45.421014 60.974826 
L 45.463348 60.368504 
L 45.611518 56.141924 
L 45.653852 56.701381 
L 45.844357 62.378912 
L 45.907858 61.591031 
L 46.140697 55.001838 
L 46.204198 55.997408 
L 46.458204 63.378203 
L 46.521705 62.578652 
L 46.818045 54.108736 
L 46.881547 54.919634 
L 47.199054 64.190611 
L 47.283723 63.082354 
L 47.622397 53.359857 
L 47.685898 54.090432 
L 47.876403 60.814856 
L 48.066907 64.879989 
L 48.088074 64.761317 
L 48.19391 62.465897 
L 48.532584 52.695832 
L 48.574919 53.01062 
L 48.701922 56.391325 
L 49.019429 65.519571 
L 49.040596 65.454242 
L 49.125265 64.106477 
L 49.52744 52.095103 
L 49.612109 52.840251 
L 49.781446 58.328828 
L 50.077786 66.085549 
L 50.141288 65.506304 
L 50.289458 61.164595 
L 50.628132 51.541176 
L 50.670466 51.741976 
L 50.797469 54.544502 
L 51.199645 66.617165 
L 51.241979 66.486861 
L 51.347815 64.550754 
L 51.813492 51.037186 
L 51.876994 51.574474 
L 52.025164 55.626713 
L 52.42734 67.115239 
L 52.490841 66.634591 
L 52.639011 62.745272 
L 53.062354 50.55068 
L 53.125856 51.012046 
L 53.274026 54.805322 
L 53.718536 67.579837 
L 53.782037 67.097078 
L 53.930207 63.323491 
L 54.374718 50.097742 
L 54.395885 50.112609 
L 54.480553 51.003583 
L 54.671058 56.897494 
L 55.052066 68.001255 
L 55.073233 68.027754 
L 55.094401 67.971521 
L 55.179069 66.941837 
L 55.369573 60.915169 
L 55.750582 49.709418 
L 55.771749 49.661001 
L 55.814084 49.806396 
L 55.919919 51.519081 
L 56.195092 61.564404 
L 56.470265 68.400161 
L 56.491432 68.45099 
L 56.533767 68.315699 
L 56.639602 66.653612 
L 56.893608 57.544083 
L 57.189948 49.391963 
L 57.232283 49.247367 
L 57.274617 49.411803 
L 57.380453 51.114743 
L 57.634458 60.220051 
L 57.951966 68.775631 
L 57.9943 68.845439 
L 58.015467 68.766688 
L 58.121303 67.279045 
L 58.354141 59.316663 
L 58.713983 48.958531 
L 58.756317 48.853972 
L 58.798652 49.046264 
L 58.925654 51.302703 
L 59.243162 63.148087 
L 59.518335 69.229833 
L 59.539502 69.240823 
L 59.560669 69.178858 
L 59.666505 67.809105 
L 59.878176 60.944889 
L 60.280352 48.656462 
L 60.322686 48.472157 
L 60.365021 48.574052 
L 60.470856 50.04207 
L 60.703695 57.832074 
L 61.084704 69.381713 
L 61.148205 69.61441 
L 61.190539 69.418397 
L 61.317542 67.233635 
L 61.613882 56.328616 
L 61.93139 48.18822 
L 61.973724 48.106966 
L 61.994891 48.170146 
L 62.100727 49.493857 
L 62.312398 56.159252 
L 62.756908 69.813506 
L 62.799243 69.980129 
L 62.841577 69.874661 
L 62.947413 68.455313 
L 63.180251 60.867506 
L 63.603594 47.955362 
L 63.667096 47.753153 
L 63.70943 47.952711 
L 63.836433 50.076367 
L 64.111606 59.97063 
L 64.471447 70.138562 
L 64.513782 70.326323 
L 64.577283 70.113952 
L 64.704286 67.990443 
L 64.979459 58.133092 
L 65.339301 47.685287 
L 65.402802 47.399983 
L 65.445136 47.534222 
L 65.550972 48.971675 
L 65.783811 56.451945 
L 66.228321 70.360449 
L 66.291822 70.671743 
L 66.334157 70.559557 
L 66.439992 69.189164 
L 66.651664 62.673362 
L 67.138508 47.327838 
L 67.20201 47.065281 
L 67.244344 47.205625 
L 67.35018 48.627906 
L 67.583018 56.00546 
L 68.048696 70.674337 
L 68.112197 71.000648 
L 68.154531 70.907274 
L 68.260367 69.610007 
L 68.472039 63.268603 
L 69.001217 46.888158 
L 69.043552 46.740281 
L 69.085886 46.838264 
L 69.191722 48.13298 
L 69.403393 54.434061 
L 69.932572 71.097031 
L 69.996073 71.322073 
L 70.038408 71.168998 
L 70.165411 69.308489 
L 70.419416 60.819867 
L 70.863926 46.86326 
L 70.948595 46.422309 
L 70.990929 46.560395 
L 71.096765 47.9248 
L 71.308437 54.252378 
L 71.858782 71.449174 
L 71.922284 71.630858 
L 71.964618 71.456356 
L 72.091621 69.568655 
L 72.345627 61.122755 
L 72.811304 46.524293 
L 72.895973 46.11371 
L 72.938307 46.25847 
L 73.06531 48.047565 
L 73.319316 56.341162 
L 73.80616 71.57972 
L 73.890829 71.937638 
L 73.933163 71.770523 
L 74.060166 69.933763 
L 74.314172 61.619095 
L 74.801016 46.240786 
L 74.885685 45.810113 
L 74.928019 45.936752 
L 75.033855 47.228431 
L 75.245526 53.324337 
L 75.838206 72.025533 
L 75.901708 72.240758 
L 75.944042 72.101965 
L 76.071045 70.373234 
L 76.303884 63.092706 
L 76.85423 45.797377 
L 76.917731 45.515267 
L 76.960065 45.606271 
L 77.065901 46.792132 
L 77.277573 52.672141 
L 77.912587 72.409087 
L 77.954921 72.534017 
L 77.997256 72.437788 
L 78.103091 71.249304 
L 78.314763 65.395194 
L 78.970944 45.295018 
L 79.013279 45.229626 
L 79.055613 45.382995 
L 79.182616 47.113236 
L 79.415455 54.301126 
L 79.986968 72.473925 
L 80.071636 72.815851 
L 80.11397 72.662484 
L 80.240973 70.944645 
L 80.473812 63.802187 
L 81.045325 45.386778 
L 81.129994 44.942207 
L 81.172328 45.040739 
L 81.278164 46.206824 
L 81.489835 51.941942 
L 82.167184 72.985289 
L 82.209518 73.100675 
L 82.251852 73.003728 
L 82.357688 71.850222 
L 82.56936 66.161452 
L 83.267876 44.731418 
L 83.31021 44.668799 
L 83.352544 44.816394 
L 83.479547 46.482758 
L 83.712386 53.473231 
L 84.326233 73.038879 
L 84.410902 73.371595 
L 84.453236 73.226025 
L 84.580239 71.576497 
L 84.813077 64.63569 
L 85.448092 44.639842 
L 85.511593 44.392498 
L 85.553928 44.485313 
L 85.659763 45.603995 
L 85.871435 51.160818 
L 86.612285 73.615175 
L 86.633452 73.645255 
L 86.675787 73.552012 
L 86.781622 72.440151 
L 86.993294 66.918997 
L 87.734144 44.186618 
L 87.776478 44.1299 
L 87.797645 44.177573 
L 87.903481 45.164232 
L 88.093986 49.767444 
L 88.919504 73.904289 
L 88.983006 73.605329 
L 89.131176 71.230023 
L 89.406349 62.064463 
L 89.935527 44.732625 
L 90.06253 43.862559 
L 90.104865 43.968382 
L 90.2107 45.088201 
L 90.422372 50.549998 
L 91.205556 74.153345 
L 91.226724 74.169887 
L 91.247891 74.137026 
L 91.332559 73.516271 
L 91.501896 70.087599 
L 91.861738 56.714983 
L 92.263914 44.53688 
L 92.390917 43.6054 
L 92.433251 43.68375 
L 92.539087 44.723204 
L 92.750758 50.011576 
L 93.576277 74.426418 
L 93.639779 74.212344 
L 93.766781 72.512094 
L 93.99962 65.710494 
L 94.698136 43.61499 
L 94.761637 43.353068 
L 94.803972 43.418958 
L 94.909807 44.41482 
L 95.100312 48.910088 
L 95.968165 74.67806 
L 96.010499 74.588217 
L 96.116335 73.540751 
L 96.328006 68.305077 
L 97.174692 43.102501 
L 97.217027 43.173085 
L 97.322862 44.167562 
L 97.513367 48.623637 
L 98.402387 74.925651 
L 98.444721 74.822213 
L 98.550557 73.75423 
L 98.762229 68.526828 
L 99.630082 42.855122 
L 99.693583 43.066315 
L 99.820586 44.714054 
L 100.053425 51.332164 
L 100.794275 74.883168 
L 100.878943 75.16454 
L 100.921278 75.027608 
L 101.048281 73.531918 
L 101.281119 67.144591 
L 102.064304 42.755632 
L 102.127805 42.618945 
L 102.170139 42.757626 
L 102.297142 44.250616 
L 102.529981 50.612314 
L 103.313166 75.21888 
L 103.376667 75.409949 
L 103.419001 75.309199 
L 103.524837 74.270961 
L 103.736508 69.170229 
L 104.646696 42.376 
L 104.710197 42.615803 
L 104.8372 44.283696 
L 105.070039 50.845613 
L 105.853223 75.44478 
L 105.916725 75.647085 
L 105.959059 75.557058 
L 106.064895 74.555743 
L 106.276566 69.553014 
L 107.207921 42.141302 
L 107.229088 42.177434 
L 107.313757 42.765328 
L 107.483094 45.945613 
L 107.821768 57.951508 
L 108.32978 74.544324 
L 108.499117 75.879829 
L 108.520284 75.849056 
L 108.604953 75.285278 
L 108.77429 72.160943 
L 109.091797 61.096345 
L 109.642143 43.083124 
L 109.790313 41.909799 
L 109.832647 41.967805 
L 109.938483 42.87561 
L 110.128987 47.033596 
L 110.55233 63.054044 
L 110.954506 74.957753 
L 111.102676 76.109146 
L 111.123843 76.100147 
L 111.208512 75.628205 
L 111.377849 72.694691 
L 111.695356 61.872226 
L 112.266869 42.940909 
L 112.436207 41.680857 
L 112.457374 41.71735 
L 112.56321 42.545484 
L 112.753714 46.549855 
L 113.134723 60.719833 
L 113.6004 75.15454 
L 113.74857 76.334201 
L 113.790904 76.285784 
L 113.89674 75.416109 
L 114.087244 71.361742 
L 114.48942 56.309086 
L 114.93393 42.68825 
L 115.103267 41.455483 
L 115.124435 41.492964 
L 115.23027 42.317749 
L 115.420775 46.287673 
L 115.801783 60.396062 
L 116.267461 75.138717 
L 116.436798 76.561747 
L 116.457965 76.549853 
L 116.542634 76.077527 
L 116.711971 73.190847 
L 117.008311 63.351973 
L 117.643325 42.324191 
L 117.791495 41.230543 
L 117.812662 41.24246 
L 117.897331 41.712239 
L 118.066668 44.582911 
L 118.363008 54.38405 
L 118.998023 75.574172 
L 119.16736 76.781305 
L 119.188527 76.744125 
L 119.294363 75.932541 
L 119.484867 72.025329 
L 119.865876 58.021561 
L 120.35272 42.473786 
L 120.522057 41.012936 
L 120.543225 41.016465 
L 120.627893 41.447887 
L 120.79723 44.226155 
L 121.093571 53.885557 
L 121.749752 75.809913 
L 121.919089 77.000075 
L 121.940256 76.963004 
L 122.046092 76.15942 
L 122.236597 72.291701 
L 122.596438 59.224959 
L 123.10445 42.516207 
L 123.294954 40.792586 
L 123.316121 40.805092 
L 123.40079 41.267131 
L 123.570127 44.080074 
L 123.866467 53.737551 
L 124.543816 76.168938 
L 124.691986 77.218831 
L 124.713153 77.205558 
L 124.797822 76.7429 
L 124.967159 73.939258 
L 125.263499 64.311841 
L 125.940848 41.730313 
L 126.110185 40.581011 
L 126.131352 40.620021 
L 126.237188 41.422434 
L 126.427692 45.249549 
L 126.787534 58.22593 
L 127.316712 75.69971 
L 127.507217 77.431332 
L 127.528384 77.423299 
L 127.613052 76.986055 
L 127.78239 74.249523 
L 128.07873 64.736706 
L 128.777246 41.474201 
L 128.925416 40.368302 
L 128.96775 40.413338 
L 129.073586 41.227229 
L 129.26409 45.047733 
L 129.623931 57.982233 
L 130.174277 76.049835 
L 130.364782 77.644434 
L 130.428283 77.459643 
L 130.555286 76.027006 
L 130.788125 70.138379 
L 131.782981 40.169394 
L 131.825315 40.179786 
L 131.846482 40.244919 
L 131.952318 41.161917 
L 132.163989 45.723122 
L 132.587332 61.609261 
L 133.05301 76.210798 
L 133.243514 77.852909 
L 133.264681 77.839066 
L 133.34935 77.38779 
L 133.518687 74.664286 
L 133.815027 65.24261 
L 134.53471 41.14111 
L 134.704047 39.947198 
L 134.725214 39.974487 
L 134.809883 40.476826 
L 134.97922 43.285028 
L 135.27556 52.785776 
L 135.995243 76.861892 
L 136.16458 78.059513 
L 136.185748 78.033645 
L 136.270416 77.539042 
L 136.439753 74.754191 
L 136.736093 65.298301 
L 137.476944 40.760292 
L 137.625114 39.74219 
L 137.646281 39.752059 
L 137.730949 40.181373 
L 137.900287 42.836584 
L 138.196627 52.123243 
L 138.958644 77.311914 
L 139.106814 78.264395 
L 139.127981 78.245801 
L 139.21265 77.784009 
L 139.381987 75.077603 
L 139.678327 65.748852 
L 140.440345 40.523904 
L 140.588515 39.538181 
L 140.609682 39.551145 
L 140.69435 39.98861 
L 140.863687 42.641175 
L 141.160028 51.888552 
L 141.922045 77.342371 
L 142.091382 78.464631 
L 142.112549 78.432848 
L 142.218385 77.700845 
L 142.408889 74.114386 
L 142.747564 62.427094 
L 143.382578 41.058968 
L 143.59425 39.340327 
L 143.657751 39.564374 
L 143.805921 41.393201 
L 144.059927 48.228891 
L 145.033616 78.519124 
L 145.097117 78.665996 
L 145.139452 78.573347 
L 145.245287 77.68228 
L 145.456959 73.280622 
L 145.859135 58.519644 
L 146.388313 41.148336 
L 146.599985 39.139999 
L 146.642319 39.186918 
L 146.748155 39.962668 
L 146.938659 43.587993 
L 147.277334 55.263195 
L 147.912348 76.880287 
L 148.12402 78.862911 
L 148.187521 78.731338 
L 148.314524 77.464936 
L 148.547363 72.001771 
L 149.034207 53.315802 
L 149.45755 40.665234 
L 149.669221 38.942343 
L 149.732723 39.150481 
L 149.880893 40.918962 
L 150.134899 47.612123 
L 151.150922 78.960802 
L 151.193256 79.059389 
L 151.256758 78.927011 
L 151.38376 77.668601 
L 151.616599 72.244601 
L 152.103444 53.595354 
L 152.547954 40.347302 
L 152.738458 38.746922 
L 152.759625 38.752856 
L 152.844294 39.14737 
L 153.013631 41.653829 
L 153.309971 50.58532 
L 154.156657 78.426069 
L 154.304827 79.254117 
L 154.325994 79.225037 
L 154.410663 78.740493 
L 154.58 76.07417 
L 154.87634 66.963175 
L 155.701859 39.563176 
L 155.850029 38.554907 
L 155.892363 38.596267 
L 155.998199 39.339676 
L 156.188703 42.853471 
L 156.527378 54.312988 
L 157.204726 77.453484 
L 157.416398 79.443305 
L 157.479899 79.334624 
L 157.606902 78.140501 
L 157.818574 73.491799 
L 158.241917 57.775677 
L 158.771095 40.504341 
L 159.003934 38.35986 
L 159.067435 38.531486 
L 159.194438 39.843254 
L 159.427277 45.285139 
L 159.914121 63.902767 
L 160.379799 77.952654 
L 160.59147 79.637142 
L 160.654972 79.44076 
L 160.781975 78.085465 
L 161.014813 72.58896 
L 161.501658 53.947457 
L 161.967335 39.886008 
L 162.179006 38.170622 
L 162.242508 38.354335 
L 162.369511 39.68087 
L 162.602349 45.12105 
L 163.089194 63.720055 
L 163.554871 77.960872 
L 163.766542 79.826586 
L 163.830044 79.692327 
L 163.957047 78.465865 
L 164.189885 73.192692 
L 164.634396 56.421259 
L 165.142407 40.133493 
L 165.375246 37.981872 
L 165.438747 38.137898 
L 165.56575 39.402423 
L 165.798589 44.722738 
L 166.264266 62.37386 
L 166.75111 77.822457 
L 166.983949 80.014469 
L 167.047451 79.873107 
L 167.174453 78.641191 
L 167.407292 73.383412 
L 167.851802 56.64653 
L 168.359814 40.161947 
L 168.592652 37.802848 
L 168.656154 37.893706 
L 168.783157 39.023325 
L 168.994828 43.503837 
L 169.397004 58.107497 
L 169.989684 77.921034 
L 170.222523 80.197044 
L 170.286024 80.085848 
L 170.413027 78.920698 
L 170.624699 74.398852 
L 171.026875 59.771906 
L 171.619555 39.935245 
L 171.852393 37.61676 
L 171.915895 37.712757 
L 172.042898 38.844371 
L 172.254569 43.307391 
L 172.656745 57.866282 
L 173.249425 77.880841 
L 173.482264 80.364818 
L 173.524598 80.36928 
L 173.545765 80.318902 
L 173.651601 79.546069 
L 173.842105 76.081818 
L 174.18078 64.849982 
L 174.92163 39.458673 
L 175.154469 37.427684 
L 175.21797 37.598542 
L 175.344973 38.867875 
L 175.577812 44.126886 
L 176.022322 60.804942 
L 176.5515 78.108188 
L 176.784339 80.549621 
L 176.826673 80.549792 
L 176.84784 80.497727 
L 176.953676 79.720885 
L 177.144181 76.266404 
L 177.482855 65.07556 
L 178.244872 39.116474 
L 178.456544 37.249471 
L 178.520045 37.356837 
L 178.647048 38.495106 
L 178.85872 42.928484 
L 179.260895 57.402507 
L 179.874743 78.206065 
L 180.107581 80.720735 
L 180.149916 80.738505 
L 180.171083 80.695656 
L 180.276919 79.968413 
L 180.467423 76.611036 
L 180.806097 65.560034 
L 181.589282 38.889634 
L 181.800953 37.067957 
L 181.864455 37.183826 
L 181.991458 38.331212 
L 182.203129 42.758901 
L 182.605305 57.199206 
L 183.219152 78.174727 
L 183.473158 80.916 
L 183.515492 80.903525 
L 183.536659 80.845992 
L 183.642495 80.050626 
L 183.833 76.597324 
L 184.171674 65.466559 
L 184.954858 38.769019 
L 185.16653 36.892661 
L 185.230031 36.986277 
L 185.357034 38.083019 
L 185.568706 42.417993 
L 185.949714 55.878711 
L 186.605896 78.434273 
L 186.838735 81.057965 
L 186.881069 81.103587 
L 186.923403 81.013485 
L 187.050406 79.938628 
L 187.262078 75.644967 
L 187.643086 62.238682 
L 188.320435 39.132774 
L 188.553274 36.729365 
L 188.595608 36.72385 
L 188.616775 36.771789 
L 188.722611 37.513924 
L 188.913115 40.857343 
L 189.25179 51.818641 
L 190.056141 79.342062 
L 190.267813 81.270897 
L 190.310147 81.258152 
L 190.331314 81.201297 
L 190.43715 80.417222 
L 190.627654 77.012403 
L 190.966329 65.994291 
L 191.77068 38.483076 
L 192.003519 36.534072 
L 192.06702 36.6991 
L 192.194023 37.920948 
L 192.426862 43.000213 
L 192.850205 58.544923 
L 193.442885 78.597341 
L 193.696891 81.432133 
L 193.739225 81.447048 
L 193.760392 81.404397 
L 193.866228 80.694121 
L 194.056732 77.425177 
L 194.37424 67.403835 
L 195.242093 37.972741 
L 195.453764 36.359403 
L 195.517266 36.518611 
L 195.644269 37.722391 
L 195.877107 42.753252 
L 196.30045 58.231422 
L 196.914298 78.926585 
L 197.168303 81.617527 
L 197.210638 81.610871 
L 197.231805 81.557832 
L 197.33764 80.800136 
L 197.528145 77.467382 
L 197.866819 66.589339 
L 198.713505 37.886438 
L 198.925177 36.186818 
L 198.988678 36.314675 
L 199.115681 37.450779 
L 199.327352 41.773063 
L 199.708361 55.112007 
L 200.406877 79.146863 
L 200.660883 81.792096 
L 200.703217 81.780929 
L 200.724384 81.726014 
L 200.83022 80.962754 
L 201.020724 77.634779 
L 201.359399 66.789932 
L 202.206085 37.887859 
L 202.417756 36.023801 
L 202.46009 36.039334 
L 202.481258 36.096244 
L 202.587093 36.867525 
L 202.777598 40.201847 
L 203.116272 51.040608 
L 203.984125 80.358237 
L 204.195797 81.974641 
L 204.259298 81.828363 
L 204.386301 80.665985 
L 204.61914 75.748956 
L 205.021315 61.299519 
L 205.677497 38.771725 
L 205.931503 35.883162 
L 205.973837 35.846874 
L 206.016171 35.940705 
L 206.143174 36.993872 
L 206.354846 41.160409 
L 206.735855 54.285785 
L 207.476705 79.688608 
L 207.709543 82.112025 
L 207.751878 82.139067 
L 207.773045 82.103957 
L 207.878881 81.445474 
L 208.069385 78.317938 
L 208.386892 68.564774 
L 209.339414 36.854656 
L 209.529918 35.67718 
L 209.59342 35.862744 
L 209.74159 37.405423 
L 209.974428 42.698355 
L 210.418938 59.168678 
L 211.011619 79.204207 
L 211.265624 82.245347 
L 211.307959 82.313229 
L 211.350293 82.252383 
L 211.456129 81.541093 
L 211.646633 78.339149 
L 211.96414 68.524093 
L 212.916662 36.746218 
L 213.107166 35.506741 
L 213.170668 35.667214 
L 213.297671 36.841902 
L 213.530509 41.733061 
L 213.932685 56.095464 
L 214.610034 79.454709 
L 214.86404 82.422486 
L 214.906374 82.480643 
L 214.948708 82.410986 
L 215.054544 81.681921 
L 215.245048 78.463423 
L 215.562556 68.653636 
L 216.515077 36.701319 
L 216.705582 35.340737 
L 216.726749 35.347378 
L 216.811417 35.691594 
L 216.980755 37.864975 
L 217.255928 45.104211 
L 218.462455 82.506809 
L 218.525956 82.647067 
L 218.568291 82.581976 
L 218.674126 81.868014 
L 218.864631 78.687165 
L 219.182138 68.945977 
L 220.155827 36.431521 
L 220.346331 35.173686 
L 220.409833 35.319954 
L 220.536836 36.455196 
L 220.769674 41.248007 
L 221.17185 55.468968 
L 221.870366 79.686632 
L 222.124372 82.733246 
L 222.166706 82.811329 
L 222.20904 82.763369 
L 222.314876 82.095427 
L 222.50538 79.003516 
L 222.822888 69.392181 
L 223.817744 36.220551 
L 224.008248 35.009597 
L 224.071749 35.167835 
L 224.198752 36.320778 
L 224.431591 41.12512 
L 224.833767 55.331637 
L 225.55345 80.098615 
L 225.807456 82.931223 
L 225.84979 82.97479 
L 225.892124 82.893193 
L 226.019127 81.90496 
L 226.230799 77.920674 
L 226.59064 65.972222 
L 227.416159 37.383991 
L 227.670165 34.857411 
L 227.712499 34.865572 
L 227.733666 34.916431 
L 227.839502 35.634538 
L 228.030006 38.791758 
L 228.347513 48.445521 
L 229.342369 81.796019 
L 229.532874 83.137372 
L 229.554041 83.132305 
L 229.63871 82.801882 
L 229.808047 80.688822 
L 230.08322 73.603928 
L 230.718234 48.978893 
L 231.078076 39.309966 
L 231.099243 39.284103 
L 231.12041 39.344627 
L 231.226246 40.831472 
L 231.480251 49.395938 
L 231.744841 58.951728 
M 231.744841 58.951728 
L 231.744841 58.911682 
L 235.343256 58.951728 
L 235.343256 58.951728 
" clip-path="url(#p564d908512)" style="fill: none; stroke: #ff6666; stroke-width: 0.8; stroke-linecap: square"/>
   </g>
   <g id="line2d_16">
    <path d="M 32.307965 58.951728 
L 32.561971 45.370848 
L 36.7954 45.370848 
L 37.049406 58.951728 
M 37.049406 58.951728 
L 37.811424 98.939812 
L 37.811424 98.939812 
L 38.573441 58.951728 
M 231.744841 58.951728 
L 232.485691 18.712125 
L 234.602406 18.712125 
L 235.343256 58.951728 
" clip-path="url(#p564d908512)" style="fill: none; stroke: #669966; stroke-width: 0.8; stroke-linecap: square"/>
   </g>
   <g id="line2d_17">
    <path d="M 32.563029 58.951728 
L 32.673098 58.883372 
L 32.819152 58.772928 
L 32.929221 58.665807 
L 33.035056 58.556508 
L 33.145126 58.445743 
L 33.4965 58.55637 
L 33.606569 58.896143 
L 33.659487 58.78622 
L 33.769557 58.14217 
L 33.78649 58.041269 
L 33.896559 57.167182 
L 33.911376 57.05706 
L 34.021446 56.008577 
L 34.034146 55.904172 
L 34.144215 54.772321 
L 34.156915 54.665147 
L 34.266985 53.564158 
L 34.279685 53.465755 
L 34.389754 52.519996 
L 34.406688 52.411347 
L 34.516757 51.746454 
L 34.544274 51.639047 
L 34.654343 51.378491 
L 34.770763 51.487612 
L 34.880832 51.950543 
L 34.901999 52.061084 
L 35.012068 52.870697 
L 35.026885 52.977149 
L 35.136954 54.010497 
L 35.149655 54.114467 
L 35.259724 55.245122 
L 35.272424 55.352369 
L 35.382493 56.458324 
L 35.395194 56.557957 
L 35.505263 57.535681 
L 35.52008 57.635824 
L 35.630149 58.410352 
L 35.651316 58.521145 
L 35.738101 58.947339 
L 35.761385 58.855529 
L 35.795253 58.744678 
L 35.905322 58.476765 
L 36.354065 58.585744 
L 36.464135 58.701972 
L 36.589021 58.811991 
L 36.69909 58.893157 
L 36.794342 58.949905 
L 36.794342 58.951728 
" clip-path="url(#p564d908512)" style="fill: none; stroke: #cc66cc; stroke-width: 0.8; stroke-linecap: square"/>
   </g>
   <g id="legend_1">
    <g id="line2d_18">
     <path d="M 39.463937 17.150176 
L 43.463937 17.150176 
L 47.463937 17.150176 
" style="fill: none; stroke: #6699cc; stroke-width: 0.8; stroke-linecap: square"/>
    </g>
    <g id="text_15">
     <!-- $G_{x}$ -->
     <g transform="translate(51.463937 19.950176) scale(0.08 -0.08)">
      <defs>
       <path id="ArialMT-78" d="M 47 0 
L 1259 1725 
L 138 3319 
L 841 3319 
L 1350 2541 
Q 1494 2319 1581 2169 
Q 1719 2375 1834 2534 
L 2394 3319 
L 3066 3319 
L 1919 1756 
L 3153 0 
L 2463 0 
L 1781 1031 
L 1600 1309 
L 728 0 
L 47 0 
z
" transform="scale(0.015625)"/>
      </defs>
      <use xlink:href="#ArialMT-47" transform="translate(0 0.203125)"/>
      <use xlink:href="#ArialMT-78" transform="translate(79.525547 -29.665625) scale(0.7)"/>
     </g>
    </g>
    <g id="line2d_19">
     <path d="M 69.063937 17.150176 
L 73.063937 17.150176 
L 77.063937 17.150176 
" style="fill: none; stroke: #ff6666; stroke-width: 0.8; stroke-linecap: square"/>
    </g>
    <g id="text_16">
     <!-- $G_{y}$ -->
     <g transform="translate(81.063937 19.950176) scale(0.08 -0.08)">
      <defs>
       <path id="ArialMT-79" d="M 397 -1278 
L 334 -750 
Q 519 -800 656 -800 
Q 844 -800 956 -737 
Q 1069 -675 1141 -563 
Q 1194 -478 1313 -144 
Q 1328 -97 1363 -6 
L 103 3319 
L 709 3319 
L 1400 1397 
Q 1534 1031 1641 628 
Q 1738 1016 1872 1384 
L 2581 3319 
L 3144 3319 
L 1881 -56 
Q 1678 -603 1566 -809 
Q 1416 -1088 1222 -1217 
Q 1028 -1347 759 -1347 
Q 597 -1347 397 -1278 
z
" transform="scale(0.015625)"/>
      </defs>
      <use xlink:href="#ArialMT-47" transform="translate(0 0.203125)"/>
      <use xlink:href="#ArialMT-79" transform="translate(79.525547 -29.665625) scale(0.7)"/>
     </g>
    </g>
    <g id="line2d_20">
     <path d="M 98.663937 17.150176 
L 102.663937 17.150176 
L 106.663937 17.150176 
" style="fill: none; stroke: #669966; stroke-width: 0.8; stroke-linecap: square"/>
    </g>
    <g id="text_17">
     <!-- $G_{z}$ -->
     <g transform="translate(110.663937 19.950176) scale(0.08 -0.08)">
      <defs>
       <path id="ArialMT-7a" d="M 125 0 
L 125 456 
L 2238 2881 
Q 1878 2863 1603 2863 
L 250 2863 
L 250 3319 
L 2963 3319 
L 2963 2947 
L 1166 841 
L 819 456 
Q 1197 484 1528 484 
L 3063 484 
L 3063 0 
L 125 0 
z
" transform="scale(0.015625)"/>
      </defs>
      <use xlink:href="#ArialMT-47" transform="translate(0 0.203125)"/>
      <use xlink:href="#ArialMT-7a" transform="translate(79.525547 -29.665625) scale(0.7)"/>
     </g>
    </g>
    <g id="line2d_21">
     <path d="M 128.263937 17.150176 
L 132.263937 17.150176 
L 136.263937 17.150176 
" style="fill: none; stroke: #cc66cc; stroke-width: 0.8; stroke-linecap: square"/>
    </g>
    <g id="text_18">
     <!-- $|B_{1}|$ -->
     <g transform="translate(140.263937 19.950176) scale(0.08 -0.08)">
      <defs>
       <path id="ArialMT-7c" d="M 588 -1347 
L 588 4659 
L 1078 4659 
L 1078 -1347 
L 588 -1347 
z
" transform="scale(0.015625)"/>
       <path id="ArialMT-42" d="M 469 0 
L 469 4581 
L 2188 4581 
Q 2713 4581 3030 4442 
Q 3347 4303 3526 4014 
Q 3706 3725 3706 3409 
Q 3706 3116 3547 2856 
Q 3388 2597 3066 2438 
Q 3481 2316 3704 2022 
Q 3928 1728 3928 1328 
Q 3928 1006 3792 729 
Q 3656 453 3456 303 
Q 3256 153 2954 76 
Q 2653 0 2216 0 
L 469 0 
z
M 1075 2656 
L 2066 2656 
Q 2469 2656 2644 2709 
Q 2875 2778 2992 2937 
Q 3109 3097 3109 3338 
Q 3109 3566 3000 3739 
Q 2891 3913 2687 3977 
Q 2484 4041 1991 4041 
L 1075 4041 
L 1075 2656 
z
M 1075 541 
L 2216 541 
Q 2509 541 2628 563 
Q 2838 600 2978 687 
Q 3119 775 3209 942 
Q 3300 1109 3300 1328 
Q 3300 1584 3169 1773 
Q 3038 1963 2805 2039 
Q 2572 2116 2134 2116 
L 1075 2116 
L 1075 541 
z
" transform="scale(0.015625)"/>
       <path id="ArialMT-31" d="M 2384 0 
L 1822 0 
L 1822 3584 
Q 1619 3391 1289 3197 
Q 959 3003 697 2906 
L 697 3450 
Q 1169 3672 1522 3987 
Q 1875 4303 2022 4600 
L 2384 4600 
L 2384 0 
z
" transform="scale(0.015625)"/>
      </defs>
      <use xlink:href="#ArialMT-7c" transform="translate(0 0.203125)"/>
      <use xlink:href="#ArialMT-42" transform="translate(25.976562 0.203125)"/>
      <use xlink:href="#ArialMT-31" transform="translate(94.418125 -29.665625) scale(0.7)"/>
      <use xlink:href="#ArialMT-7c" transform="translate(138.326914 0.203125)"/>
     </g>
    </g>
    <g id="PathCollection_2">
     <g>
      <use xlink:href="#m62d82c5ce8" x="165.463937" y="17.150176" style="fill: #555555; stroke: #555555; stroke-width: 0.5"/>
     </g>
    </g>
    <g id="text_19">
     <!-- $Trigger$ -->
     <g transform="translate(173.463937 19.950176) scale(0.08 -0.08)">
      <defs>
       <path id="ArialMT-72" d="M 416 0 
L 416 3319 
L 922 3319 
L 922 2816 
Q 1116 3169 1280 3281 
Q 1444 3394 1641 3394 
Q 1925 3394 2219 3213 
L 2025 2691 
Q 1819 2813 1613 2813 
Q 1428 2813 1281 2702 
Q 1134 2591 1072 2394 
Q 978 2094 978 1738 
L 978 0 
L 416 0 
z
" transform="scale(0.015625)"/>
       <path id="ArialMT-67" d="M 319 -275 
L 866 -356 
Q 900 -609 1056 -725 
Q 1266 -881 1628 -881 
Q 2019 -881 2231 -725 
Q 2444 -569 2519 -288 
Q 2563 -116 2559 434 
Q 2191 0 1641 0 
Q 956 0 581 494 
Q 206 988 206 1678 
Q 206 2153 378 2554 
Q 550 2956 876 3175 
Q 1203 3394 1644 3394 
Q 2231 3394 2613 2919 
L 2613 3319 
L 3131 3319 
L 3131 450 
Q 3131 -325 2973 -648 
Q 2816 -972 2473 -1159 
Q 2131 -1347 1631 -1347 
Q 1038 -1347 672 -1080 
Q 306 -813 319 -275 
z
M 784 1719 
Q 784 1066 1043 766 
Q 1303 466 1694 466 
Q 2081 466 2343 764 
Q 2606 1063 2606 1700 
Q 2606 2309 2336 2618 
Q 2066 2928 1684 2928 
Q 1309 2928 1046 2623 
Q 784 2319 784 1719 
z
" transform="scale(0.015625)"/>
      </defs>
      <use xlink:href="#ArialMT-54" transform="translate(0 0.421875)"/>
      <use xlink:href="#ArialMT-72" transform="translate(61.083984 0.421875)"/>
      <use xlink:href="#ArialMT-69" transform="translate(94.384766 0.421875)"/>
      <use xlink:href="#ArialMT-67" transform="translate(116.601562 0.421875)"/>
      <use xlink:href="#ArialMT-67" transform="translate(172.216797 0.421875)"/>
      <use xlink:href="#ArialMT-65" transform="translate(227.832031 0.421875)"/>
      <use xlink:href="#ArialMT-72" transform="translate(283.447266 0.421875)"/>
     </g>
    </g>
   </g>
  </g>
  <g id="axes_2">
   <g id="patch_3">
    <path d="M 275.03125 102.319687 
L 482.299971 102.319687 
L 482.299971 15.583768 
L 275.03125 15.583768 
z
" style="fill: #ffffff"/>
   </g>
   <g id="PathCollection_3">
    <g clip-path="url(#p732cfaf6e1)">
     <use xlink:href="#m62d82c5ce8" x="318.124989" y="93.646096" style="fill: #555555; stroke: #555555; stroke-width: 0.5"/>
     <use xlink:href="#m62d82c5ce8" x="361.230831" y="93.646096" style="fill: #555555; stroke: #555555; stroke-width: 0.5"/>
     <use xlink:href="#m62d82c5ce8" x="363.772521" y="93.646096" style="fill: #555555; stroke: #555555; stroke-width: 0.5"/>
     <use xlink:href="#m62d82c5ce8" x="366.31421" y="93.646096" style="fill: #555555; stroke: #555555; stroke-width: 0.5"/>
     <use xlink:href="#m62d82c5ce8" x="368.8559" y="93.646096" style="fill: #555555; stroke: #555555; stroke-width: 0.5"/>
     <use xlink:href="#m62d82c5ce8" x="371.397589" y="93.646096" style="fill: #555555; stroke: #555555; stroke-width: 0.5"/>
     <use xlink:href="#m62d82c5ce8" x="373.939279" y="93.646096" style="fill: #555555; stroke: #555555; stroke-width: 0.5"/>
     <use xlink:href="#m62d82c5ce8" x="376.420452" y="93.646096" style="fill: #555555; stroke: #555555; stroke-width: 0.5"/>
     <use xlink:href="#m62d82c5ce8" x="378.901625" y="93.646096" style="fill: #555555; stroke: #555555; stroke-width: 0.5"/>
     <use xlink:href="#m62d82c5ce8" x="381.382798" y="93.646096" style="fill: #555555; stroke: #555555; stroke-width: 0.5"/>
     <use xlink:href="#m62d82c5ce8" x="383.863971" y="93.646096" style="fill: #555555; stroke: #555555; stroke-width: 0.5"/>
     <use xlink:href="#m62d82c5ce8" x="386.345144" y="93.646096" style="fill: #555555; stroke: #555555; stroke-width: 0.5"/>
     <use xlink:href="#m62d82c5ce8" x="388.826317" y="93.646096" style="fill: #555555; stroke: #555555; stroke-width: 0.5"/>
     <use xlink:href="#m62d82c5ce8" x="391.30749" y="93.646096" style="fill: #555555; stroke: #555555; stroke-width: 0.5"/>
     <use xlink:href="#m62d82c5ce8" x="393.788663" y="93.646096" style="fill: #555555; stroke: #555555; stroke-width: 0.5"/>
     <use xlink:href="#m62d82c5ce8" x="396.269836" y="93.646096" style="fill: #555555; stroke: #555555; stroke-width: 0.5"/>
     <use xlink:href="#m62d82c5ce8" x="398.751009" y="93.646096" style="fill: #555555; stroke: #555555; stroke-width: 0.5"/>
     <use xlink:href="#m62d82c5ce8" x="401.232182" y="93.646096" style="fill: #555555; stroke: #555555; stroke-width: 0.5"/>
     <use xlink:href="#m62d82c5ce8" x="403.713355" y="93.646096" style="fill: #555555; stroke: #555555; stroke-width: 0.5"/>
     <use xlink:href="#m62d82c5ce8" x="406.194528" y="93.646096" style="fill: #555555; stroke: #555555; stroke-width: 0.5"/>
     <use xlink:href="#m62d82c5ce8" x="408.675701" y="93.646096" style="fill: #555555; stroke: #555555; stroke-width: 0.5"/>
     <use xlink:href="#m62d82c5ce8" x="411.156874" y="93.646096" style="fill: #555555; stroke: #555555; stroke-width: 0.5"/>
     <use xlink:href="#m62d82c5ce8" x="413.638047" y="93.646096" style="fill: #555555; stroke: #555555; stroke-width: 0.5"/>
     <use xlink:href="#m62d82c5ce8" x="416.11922" y="93.646096" style="fill: #555555; stroke: #555555; stroke-width: 0.5"/>
     <use xlink:href="#m62d82c5ce8" x="418.600393" y="93.646096" style="fill: #555555; stroke: #555555; stroke-width: 0.5"/>
     <use xlink:href="#m62d82c5ce8" x="421.081566" y="93.646096" style="fill: #555555; stroke: #555555; stroke-width: 0.5"/>
     <use xlink:href="#m62d82c5ce8" x="423.562739" y="93.646096" style="fill: #555555; stroke: #555555; stroke-width: 0.5"/>
     <use xlink:href="#m62d82c5ce8" x="426.043912" y="93.646096" style="fill: #555555; stroke: #555555; stroke-width: 0.5"/>
     <use xlink:href="#m62d82c5ce8" x="428.525085" y="93.646096" style="fill: #555555; stroke: #555555; stroke-width: 0.5"/>
     <use xlink:href="#m62d82c5ce8" x="431.006258" y="93.646096" style="fill: #555555; stroke: #555555; stroke-width: 0.5"/>
     <use xlink:href="#m62d82c5ce8" x="433.487431" y="93.646096" style="fill: #555555; stroke: #555555; stroke-width: 0.5"/>
     <use xlink:href="#m62d82c5ce8" x="435.968604" y="93.646096" style="fill: #555555; stroke: #555555; stroke-width: 0.5"/>
     <use xlink:href="#m62d82c5ce8" x="438.449777" y="93.646096" style="fill: #555555; stroke: #555555; stroke-width: 0.5"/>
     <use xlink:href="#m62d82c5ce8" x="440.93095" y="93.646096" style="fill: #555555; stroke: #555555; stroke-width: 0.5"/>
     <use xlink:href="#m62d82c5ce8" x="443.412123" y="93.646096" style="fill: #555555; stroke: #555555; stroke-width: 0.5"/>
     <use xlink:href="#m62d82c5ce8" x="446.619493" y="93.646096" style="fill: #555555; stroke: #555555; stroke-width: 0.5"/>
    </g>
   </g>
   <g id="matplotlib.axis_3">
    <g id="xtick_6">
     <g id="line2d_22">
      <g>
       <use xlink:href="#m7618751b4c" x="281.082891" y="102.319687" style="stroke: #000000; stroke-width: 0.8"/>
      </g>
     </g>
     <g id="text_20">
      <!-- 0 -->
      <g transform="translate(279.41461 111.614375) scale(0.06 -0.06)">
       <use xlink:href="#ArialMT-30"/>
      </g>
     </g>
    </g>
    <g id="xtick_7">
     <g id="line2d_23">
      <g>
       <use xlink:href="#m7618751b4c" x="311.341099" y="102.319687" style="stroke: #000000; stroke-width: 0.8"/>
      </g>
     </g>
     <g id="text_21">
      <!-- 5 -->
      <g transform="translate(309.672818 111.614375) scale(0.06 -0.06)">
       <defs>
        <path id="ArialMT-35" d="M 266 1200 
L 856 1250 
Q 922 819 1161 601 
Q 1400 384 1738 384 
Q 2144 384 2425 690 
Q 2706 997 2706 1503 
Q 2706 1984 2436 2262 
Q 2166 2541 1728 2541 
Q 1456 2541 1237 2417 
Q 1019 2294 894 2097 
L 366 2166 
L 809 4519 
L 3088 4519 
L 3088 3981 
L 1259 3981 
L 1013 2750 
Q 1425 3038 1878 3038 
Q 2478 3038 2890 2622 
Q 3303 2206 3303 1553 
Q 3303 931 2941 478 
Q 2500 -78 1738 -78 
Q 1113 -78 717 272 
Q 322 622 266 1200 
z
" transform="scale(0.015625)"/>
       </defs>
       <use xlink:href="#ArialMT-35"/>
      </g>
     </g>
    </g>
    <g id="xtick_8">
     <g id="line2d_24">
      <g>
       <use xlink:href="#m7618751b4c" x="341.599306" y="102.319687" style="stroke: #000000; stroke-width: 0.8"/>
      </g>
     </g>
     <g id="text_22">
      <!-- 10 -->
      <g transform="translate(338.262744 111.614375) scale(0.06 -0.06)">
       <use xlink:href="#ArialMT-31"/>
       <use xlink:href="#ArialMT-30" x="55.615234"/>
      </g>
     </g>
    </g>
    <g id="xtick_9">
     <g id="line2d_25">
      <g>
       <use xlink:href="#m7618751b4c" x="371.857514" y="102.319687" style="stroke: #000000; stroke-width: 0.8"/>
      </g>
     </g>
     <g id="text_23">
      <!-- 15 -->
      <g transform="translate(368.520951 111.614375) scale(0.06 -0.06)">
       <use xlink:href="#ArialMT-31"/>
       <use xlink:href="#ArialMT-35" x="55.615234"/>
      </g>
     </g>
    </g>
    <g id="xtick_10">
     <g id="line2d_26">
      <g>
       <use xlink:href="#m7618751b4c" x="402.115721" y="102.319687" style="stroke: #000000; stroke-width: 0.8"/>
      </g>
     </g>
     <g id="text_24">
      <!-- 20 -->
      <g transform="translate(398.779159 111.614375) scale(0.06 -0.06)">
       <use xlink:href="#ArialMT-32"/>
       <use xlink:href="#ArialMT-30" x="55.615234"/>
      </g>
     </g>
    </g>
    <g id="xtick_11">
     <g id="line2d_27">
      <g>
       <use xlink:href="#m7618751b4c" x="432.373929" y="102.319687" style="stroke: #000000; stroke-width: 0.8"/>
      </g>
     </g>
     <g id="text_25">
      <!-- 25 -->
      <g transform="translate(429.037366 111.614375) scale(0.06 -0.06)">
       <use xlink:href="#ArialMT-32"/>
       <use xlink:href="#ArialMT-35" x="55.615234"/>
      </g>
     </g>
    </g>
    <g id="xtick_12">
     <g id="line2d_28">
      <g>
       <use xlink:href="#m7618751b4c" x="462.632136" y="102.319687" style="stroke: #000000; stroke-width: 0.8"/>
      </g>
     </g>
     <g id="text_26">
      <!-- 30 -->
      <g transform="translate(459.295574 111.614375) scale(0.06 -0.06)">
       <defs>
        <path id="ArialMT-33" d="M 269 1209 
L 831 1284 
Q 928 806 1161 595 
Q 1394 384 1728 384 
Q 2125 384 2398 659 
Q 2672 934 2672 1341 
Q 2672 1728 2419 1979 
Q 2166 2231 1775 2231 
Q 1616 2231 1378 2169 
L 1441 2663 
Q 1497 2656 1531 2656 
Q 1891 2656 2178 2843 
Q 2466 3031 2466 3422 
Q 2466 3731 2256 3934 
Q 2047 4138 1716 4138 
Q 1388 4138 1169 3931 
Q 950 3725 888 3313 
L 325 3413 
Q 428 3978 793 4289 
Q 1159 4600 1703 4600 
Q 2078 4600 2393 4439 
Q 2709 4278 2876 4000 
Q 3044 3722 3044 3409 
Q 3044 3113 2884 2869 
Q 2725 2625 2413 2481 
Q 2819 2388 3044 2092 
Q 3269 1797 3269 1353 
Q 3269 753 2831 336 
Q 2394 -81 1725 -81 
Q 1122 -81 723 278 
Q 325 638 269 1209 
z
" transform="scale(0.015625)"/>
       </defs>
       <use xlink:href="#ArialMT-33"/>
       <use xlink:href="#ArialMT-30" x="55.615234"/>
      </g>
     </g>
    </g>
    <g id="text_27">
     <!-- Time [ms] -->
     <g transform="translate(361.261861 122.533125) scale(0.08 -0.08)">
      <use xlink:href="#ArialMT-54"/>
      <use xlink:href="#ArialMT-69" x="57.333984"/>
      <use xlink:href="#ArialMT-6d" x="79.550781"/>
      <use xlink:href="#ArialMT-65" x="162.851562"/>
      <use xlink:href="#ArialMT-20" x="218.466797"/>
      <use xlink:href="#ArialMT-5b" x="246.25"/>
      <use xlink:href="#ArialMT-6d" x="274.033203"/>
      <use xlink:href="#ArialMT-73" x="357.333984"/>
      <use xlink:href="#ArialMT-5d" x="407.333984"/>
     </g>
    </g>
   </g>
   <g id="matplotlib.axis_4">
    <g id="ytick_8">
     <g id="line2d_29">
      <g>
       <use xlink:href="#mdc1bc0dcff" x="275.03125" y="93.646096" style="stroke: #000000; stroke-width: 0.8"/>
      </g>
     </g>
     <g id="text_28">
      <!-- −60 -->
      <g transform="translate(259.85375 95.793439) scale(0.06 -0.06)">
       <use xlink:href="#ArialMT-2212"/>
       <use xlink:href="#ArialMT-36" x="58.398438"/>
       <use xlink:href="#ArialMT-30" x="114.013672"/>
      </g>
     </g>
    </g>
    <g id="ytick_9">
     <g id="line2d_30">
      <g>
       <use xlink:href="#mdc1bc0dcff" x="275.03125" y="82.081306" style="stroke: #000000; stroke-width: 0.8"/>
      </g>
     </g>
     <g id="text_29">
      <!-- −40 -->
      <g transform="translate(259.85375 84.22865) scale(0.06 -0.06)">
       <use xlink:href="#ArialMT-2212"/>
       <use xlink:href="#ArialMT-34" x="58.398438"/>
       <use xlink:href="#ArialMT-30" x="114.013672"/>
      </g>
     </g>
    </g>
    <g id="ytick_10">
     <g id="line2d_31">
      <g>
       <use xlink:href="#mdc1bc0dcff" x="275.03125" y="70.516517" style="stroke: #000000; stroke-width: 0.8"/>
      </g>
     </g>
     <g id="text_30">
      <!-- −20 -->
      <g transform="translate(259.85375 72.663861) scale(0.06 -0.06)">
       <use xlink:href="#ArialMT-2212"/>
       <use xlink:href="#ArialMT-32" x="58.398438"/>
       <use xlink:href="#ArialMT-30" x="114.013672"/>
      </g>
     </g>
    </g>
    <g id="ytick_11">
     <g id="line2d_32">
      <g>
       <use xlink:href="#mdc1bc0dcff" x="275.03125" y="58.951728" style="stroke: #000000; stroke-width: 0.8"/>
      </g>
     </g>
     <g id="text_31">
      <!-- 0 -->
      <g transform="translate(266.694688 61.099071) scale(0.06 -0.06)">
       <use xlink:href="#ArialMT-30"/>
      </g>
     </g>
    </g>
    <g id="ytick_12">
     <g id="line2d_33">
      <g>
       <use xlink:href="#mdc1bc0dcff" x="275.03125" y="47.386938" style="stroke: #000000; stroke-width: 0.8"/>
      </g>
     </g>
     <g id="text_32">
      <!-- 20 -->
      <g transform="translate(263.358125 49.534282) scale(0.06 -0.06)">
       <use xlink:href="#ArialMT-32"/>
       <use xlink:href="#ArialMT-30" x="55.615234"/>
      </g>
     </g>
    </g>
    <g id="ytick_13">
     <g id="line2d_34">
      <g>
       <use xlink:href="#mdc1bc0dcff" x="275.03125" y="35.822149" style="stroke: #000000; stroke-width: 0.8"/>
      </g>
     </g>
     <g id="text_33">
      <!-- 40 -->
      <g transform="translate(263.358125 37.969493) scale(0.06 -0.06)">
       <use xlink:href="#ArialMT-34"/>
       <use xlink:href="#ArialMT-30" x="55.615234"/>
      </g>
     </g>
    </g>
    <g id="ytick_14">
     <g id="line2d_35">
      <g>
       <use xlink:href="#mdc1bc0dcff" x="275.03125" y="24.25736" style="stroke: #000000; stroke-width: 0.8"/>
      </g>
     </g>
     <g id="text_34">
      <!-- 60 -->
      <g transform="translate(263.358125 26.404703) scale(0.06 -0.06)">
       <use xlink:href="#ArialMT-36"/>
       <use xlink:href="#ArialMT-30" x="55.615234"/>
      </g>
     </g>
    </g>
    <g id="text_35">
     <!-- Amplitude [mT/m, mG] -->
     <g transform="translate(254.26375 98.955478) rotate(-90) scale(0.08 -0.08)">
      <use xlink:href="#ArialMT-41"/>
      <use xlink:href="#ArialMT-6d" x="66.699219"/>
      <use xlink:href="#ArialMT-70" x="150"/>
      <use xlink:href="#ArialMT-6c" x="205.615234"/>
      <use xlink:href="#ArialMT-69" x="227.832031"/>
      <use xlink:href="#ArialMT-74" x="250.048828"/>
      <use xlink:href="#ArialMT-75" x="277.832031"/>
      <use xlink:href="#ArialMT-64" x="333.447266"/>
      <use xlink:href="#ArialMT-65" x="389.0625"/>
      <use xlink:href="#ArialMT-20" x="444.677734"/>
      <use xlink:href="#ArialMT-5b" x="472.460938"/>
      <use xlink:href="#ArialMT-6d" x="500.244141"/>
      <use xlink:href="#ArialMT-54" x="583.544922"/>
      <use xlink:href="#ArialMT-2f" x="644.628906"/>
      <use xlink:href="#ArialMT-6d" x="672.412109"/>
      <use xlink:href="#ArialMT-2c" x="755.712891"/>
      <use xlink:href="#ArialMT-20" x="783.496094"/>
      <use xlink:href="#ArialMT-6d" x="811.279297"/>
      <use xlink:href="#ArialMT-47" x="894.580078"/>
      <use xlink:href="#ArialMT-5d" x="972.363281"/>
     </g>
    </g>
   </g>
   <g id="line2d_36">
    <path d="M 275.03125 58.951728 
L 482.299971 58.951728 
" clip-path="url(#p732cfaf6e1)" style="fill: none; stroke: #555555; stroke-width: 0.8; stroke-linecap: square"/>
   </g>
   <g id="line2d_37">
    <path d="M 318.118937 58.951728 
L 318.330745 55.785425 
L 318.391261 55.45904 
L 318.451778 55.514868 
L 318.633327 57.148278 
L 319.541073 67.22421 
L 319.662106 67.443897 
L 319.722622 67.418266 
L 319.843655 67.106251 
L 320.085721 65.540249 
L 320.509336 60.621333 
L 321.538115 47.706663 
L 321.901213 45.729021 
L 322.082763 45.490199 
L 322.203795 45.61261 
L 322.385345 46.206389 
L 322.687927 48.205609 
L 323.111542 52.719433 
L 324.927034 74.632411 
L 325.290133 76.053954 
L 325.471682 76.178561 
L 325.653231 75.910495 
L 325.895297 74.960166 
L 326.258395 72.364916 
L 326.803043 66.361358 
L 328.860601 41.014707 
L 329.284216 38.977488 
L 329.526282 38.610515 
L 329.707831 38.723883 
L 329.949897 39.386064 
L 330.252479 40.999631 
L 330.676094 44.575923 
L 331.341774 52.552317 
L 333.278299 77.380149 
L 333.762431 80.670332 
L 334.125529 81.848837 
L 334.307078 82.000889 
L 334.488628 81.859172 
L 334.730693 81.218873 
L 335.033275 79.718911 
L 335.45689 76.420899 
L 336.062054 69.728404 
L 337.211866 53.768404 
L 338.180129 41.528615 
L 338.785293 36.300519 
L 339.208908 34.185319 
L 339.51149 33.534857 
L 339.693039 33.498214 
L 339.874589 33.726878 
L 340.116654 34.438635 
L 340.479753 36.34496 
L 340.963884 40.313044 
L 341.629565 47.904732 
L 343.021442 67.31766 
L 343.989705 79.023976 
L 344.594869 83.940255 
L 345.018484 85.937647 
L 345.321066 86.57098 
L 345.502615 86.625751 
L 345.684164 86.436244 
L 345.92623 85.807738 
L 346.289329 84.084544 
L 346.77346 80.437312 
L 347.43914 73.3175 
L 348.467919 59.367854 
L 349.920313 40.056351 
L 350.585994 33.757402 
L 351.130642 30.516111 
L 351.49374 29.437068 
L 351.735806 29.219495 
L 351.917355 29.321899 
L 352.159421 29.810264 
L 352.462003 30.974559 
L 352.885618 33.587991 
L 353.430266 38.461497 
L 354.156462 47.080629 
L 356.879701 81.636079 
L 357.484865 86.178549 
L 357.968997 88.401071 
L 358.332095 89.194055 
L 358.574161 89.30119 
L 358.75571 89.161726 
L 358.997776 88.687453 
L 359.360874 87.377714 
L 359.845005 84.586893 
L 360.45017 79.630286 
L 361.297399 70.623538 
L 364.32322 36.407459 
L 364.988901 31.883456 
L 365.533548 29.580955 
L 365.896647 28.791347 
L 366.199229 28.596785 
L 366.441295 28.743262 
L 366.743877 29.297791 
L 367.106975 30.491017 
L 367.591107 32.924549 
L 368.196271 37.174739 
L 369.043501 44.915096 
L 370.495895 60.748351 
L 372.008805 76.390567 
L 372.856035 83.054638 
L 373.521715 86.72518 
L 374.066363 88.562082 
L 374.429461 89.173979 
L 374.732044 89.304657 
L 374.974109 89.162023 
L 375.276691 88.679202 
L 375.700306 87.451199 
L 376.184438 85.301675 
L 376.850118 81.178217 
L 377.697348 74.33557 
L 379.028709 61.393122 
L 381.025751 42.18795 
L 381.933497 35.488729 
L 382.659694 31.623559 
L 383.204342 29.726417 
L 383.627957 28.880304 
L 383.991055 28.602272 
L 384.233121 28.646512 
L 384.535703 28.95769 
L 384.898801 29.699221 
L 385.382933 31.28904 
L 385.988097 34.175061 
L 386.714294 38.793497 
L 387.682556 46.472656 
L 389.558565 63.660145 
L 391.010959 76.048766 
L 391.979222 82.5497 
L 392.705419 86.117057 
L 393.310583 88.107663 
L 393.794714 89.01764 
L 394.157813 89.293041 
L 394.460395 89.255342 
L 394.762977 88.97671 
L 395.126075 88.329847 
L 395.610207 86.954363 
L 396.215371 84.459913 
L 396.941568 80.449688 
L 397.90983 73.703204 
L 399.362224 61.734689 
L 401.661848 42.884584 
L 402.690627 36.244616 
L 403.477341 32.419184 
L 404.143021 30.169655 
L 404.687669 29.05187 
L 405.111284 28.64582 
L 405.413866 28.60579 
L 405.716448 28.773191 
L 406.079546 29.244484 
L 406.563678 30.320277 
L 407.108326 32.11423 
L 407.774006 35.081146 
L 408.621236 39.92786 
L 409.771048 47.965087 
L 414.188746 80.504567 
L 415.096492 84.883587 
L 415.822689 87.363338 
L 416.427853 88.673523 
L 416.911985 89.207935 
L 417.275083 89.305582 
L 417.638182 89.143997 
L 418.00128 88.726121 
L 418.485412 87.779358 
L 419.090576 85.995801 
L 419.816773 83.040587 
L 420.664002 78.608793 
L 421.813814 71.270329 
L 423.75034 57.108742 
L 425.686865 43.486657 
L 426.836677 36.888834 
L 427.744423 32.882938 
L 428.47062 30.576961 
L 429.075784 29.315727 
L 429.559915 28.755082 
L 429.98353 28.595832 
L 430.346629 28.705393 
L 430.770244 29.117449 
L 431.254375 29.955526 
L 431.859539 31.533065 
L 432.585736 34.152742 
L 433.432966 38.102064 
L 434.522261 44.331683 
L 436.095688 54.806308 
L 439.060993 74.68154 
L 440.210804 80.867047 
L 441.118551 84.697084 
L 441.905264 87.13462 
L 442.570945 88.502837 
L 443.115592 89.129266 
L 443.539207 89.304922 
L 443.902306 89.23821 
L 444.325921 88.908827 
L 444.749536 88.312824 
L 444.931085 86.142573 
L 446.928127 59.225966 
L 446.988643 59.225966 
L 447.018901 58.951728 
M 447.018901 58.951728 
L 447.018901 59.225966 
L 476.24833 58.951728 
L 476.24833 58.951728 
" clip-path="url(#p732cfaf6e1)" style="fill: none; stroke: #6699cc; stroke-width: 0.8; stroke-linecap: square"/>
   </g>
   <g id="line2d_38">
    <path d="M 318.118937 58.951728 
L 318.209712 58.788212 
L 318.330745 57.872561 
L 318.75436 53.533316 
L 318.875393 53.262695 
L 318.935909 53.307779 
L 319.056942 53.742813 
L 319.299007 55.788982 
L 319.964688 64.769477 
L 320.388303 68.969281 
L 320.630369 70.012239 
L 320.751401 70.122073 
L 320.872434 69.959874 
L 321.053984 69.229289 
L 321.356566 66.860306 
L 321.840697 60.950266 
L 322.990509 46.382731 
L 323.353607 44.096924 
L 323.595673 43.519008 
L 323.716706 43.523818 
L 323.898255 43.894135 
L 324.140321 45.038175 
L 324.503419 48.000989 
L 325.048067 54.537392 
L 326.560977 73.953438 
L 326.984592 76.814059 
L 327.287174 77.71988 
L 327.468724 77.78533 
L 327.650273 77.492491 
L 327.892338 76.559543 
L 328.255437 74.07849 
L 328.739568 69.075701 
L 329.647314 56.715138 
L 330.676094 43.554484 
L 331.220741 39.118353 
L 331.58384 37.569351 
L 331.825905 37.21802 
L 332.007455 37.318068 
L 332.24952 37.930714 
L 332.552102 39.43811 
L 332.975717 42.809896 
L 333.580881 49.670844 
L 336.001538 79.87081 
L 336.425153 82.28209 
L 336.727735 83.112833 
L 336.909284 83.241462 
L 337.090833 83.091416 
L 337.332899 82.462899 
L 337.695998 80.635684 
L 338.180129 76.697391 
L 338.84581 69.055056 
L 341.448015 36.373382 
L 341.932147 33.502327 
L 342.295245 32.482415 
L 342.537311 32.364811 
L 342.71886 32.57319 
L 342.960926 33.241461 
L 343.324024 35.051889 
L 343.808156 38.852462 
L 344.473836 46.201251 
L 345.623648 62.078085 
L 346.833976 77.800545 
L 347.499657 83.860952 
L 347.983788 86.566327 
L 348.346887 87.541019 
L 348.588952 87.670083 
L 348.770502 87.492161 
L 349.012567 86.892303 
L 349.375666 85.237545 
L 349.859797 81.717642 
L 350.464961 75.511206 
L 351.372707 63.626873 
L 353.248716 38.589182 
L 353.914397 32.543002 
L 354.398528 29.851791 
L 354.761627 28.81378 
L 355.003692 28.597798 
L 355.185242 28.684673 
L 355.427307 29.127167 
L 355.729889 30.190017 
L 356.153504 32.574468 
L 356.698152 37.00815 
L 357.484865 45.530738 
L 359.239841 68.110466 
L 360.26862 79.526002 
L 360.994817 85.281535 
L 361.539465 88.003085 
L 361.96308 89.091881 
L 362.205146 89.301043 
L 362.386695 89.26107 
L 362.628761 88.948244 
L 362.931343 88.149213 
L 363.354958 86.302689 
L 363.899605 82.786603 
L 364.625802 76.425883 
L 365.715098 64.514145 
L 367.833172 40.99854 
L 368.680402 34.196473 
L 369.285566 30.876668 
L 369.769698 29.26064 
L 370.132796 28.681503 
L 370.374862 28.599639 
L 370.616927 28.759785 
L 370.919509 29.295073 
L 371.343124 30.650064 
L 371.827256 33.01221 
L 372.492936 37.518654 
L 373.340166 44.929994 
L 374.79256 59.986857 
L 376.365987 75.646673 
L 377.273733 82.627724 
L 377.939414 86.298088 
L 378.484061 88.253325 
L 378.907676 89.084284 
L 379.210258 89.301448 
L 379.452324 89.249379 
L 379.754906 88.904908 
L 380.118004 88.090391 
L 380.602136 86.351797 
L 381.2073 83.209885 
L 381.994013 77.74328 
L 383.022792 68.860964 
L 386.411712 38.271768 
L 387.258941 33.164295 
L 387.924622 30.419795 
L 388.408753 29.191087 
L 388.832368 28.665221 
L 389.13495 28.60613 
L 389.437532 28.809444 
L 389.800631 29.394468 
L 390.224246 30.533548 
L 390.768893 32.68246 
L 391.434574 36.258725 
L 392.281804 42.077198 
L 393.492132 52.087554 
L 396.39692 76.731799 
L 397.365183 82.849807 
L 398.09138 86.215542 
L 398.696544 88.110234 
L 399.180675 88.995291 
L 399.543774 89.282976 
L 399.846356 89.275604 
L 400.148938 89.045064 
L 400.512036 88.478289 
L 400.996168 87.244556 
L 401.601332 84.975517 
L 402.327529 81.288253 
L 403.235275 75.444672 
L 404.50612 65.67791 
L 407.592457 41.388727 
L 408.621236 35.296569 
L 409.407949 31.846899 
L 410.07363 29.862721 
L 410.557761 28.991156 
L 410.981376 28.633153 
L 411.344475 28.628406 
L 411.707573 28.900776 
L 412.131188 29.562952 
L 412.615319 30.760108 
L 413.220483 32.882257 
L 413.94668 36.265339 
L 414.854427 41.583953 
L 416.125271 50.497698 
L 419.877289 77.787309 
L 420.906068 83.229046 
L 421.692782 86.312758 
L 422.358462 88.102152 
L 422.90311 88.975552 
L 423.326725 89.278838 
L 423.689823 89.27567 
L 424.052922 89.031011 
L 424.476537 88.444867 
L 425.021184 87.228926 
L 425.626348 85.297853 
L 426.413062 81.952226 
L 427.381325 76.724975 
L 428.652169 68.492546 
L 433.009351 39.066191 
L 433.977614 34.417127 
L 434.824844 31.384644 
L 435.490524 29.755083 
L 436.035172 28.941207 
L 436.458787 28.638454 
L 436.821885 28.610212 
L 437.184984 28.794592 
L 437.608599 29.275227 
L 438.09273 30.166843 
L 438.697894 31.774675 
L 439.424091 34.379858 
L 440.331837 38.557191 
L 441.481649 45.034074 
L 443.176109 56.07501 
L 444.931085 67.24531 
L 445.17315 67.44324 
L 445.3547 67.282873 
L 445.596765 66.709142 
L 445.959864 65.217258 
L 446.565028 61.608076 
L 447.018901 58.951728 
M 447.018901 58.951728 
L 447.018901 59.106213 
L 476.24833 58.951728 
L 476.24833 58.951728 
" clip-path="url(#p732cfaf6e1)" style="fill: none; stroke: #ff6666; stroke-width: 0.8; stroke-linecap: square"/>
   </g>
   <g id="line2d_39">
    <path d="M 281.082891 58.951728 
L 281.809088 45.370848 
L 293.912371 45.370848 
L 294.638568 58.951728 
M 294.638568 58.951728 
L 296.817159 98.939812 
L 296.817159 98.939812 
L 298.99575 58.951728 
M 447.018901 58.951728 
L 449.136976 18.53245 
L 474.130255 18.53245 
L 476.24833 58.951728 
" clip-path="url(#p732cfaf6e1)" style="fill: none; stroke: #669966; stroke-width: 0.8; stroke-linecap: square"/>
   </g>
   <g id="line2d_40">
    <path d="M 281.812114 58.951728 
L 281.921044 58.928812 
L 282.38702 58.818735 
L 282.49595 58.78572 
L 282.834842 58.676592 
L 282.943771 58.635067 
L 283.246353 58.525444 
L 283.355283 58.484902 
L 283.809156 58.374096 
L 283.918086 58.367034 
L 284.359855 58.476765 
L 284.468785 58.551797 
L 284.601921 58.661618 
L 284.710851 58.787059 
L 284.801625 58.896143 
L 284.831883 58.947339 
L 284.910555 58.835884 
L 284.977123 58.734642 
L 285.086052 58.521145 
L 285.146569 58.410352 
L 285.255498 58.15629 
L 285.303911 58.055903 
L 285.412841 57.765596 
L 285.455202 57.668674 
L 285.564132 57.346047 
L 285.606494 57.239443 
L 285.715423 56.888158 
L 285.751733 56.792492 
L 285.860662 56.418179 
L 285.896972 56.31712 
L 286.005902 55.925108 
L 286.042212 55.820171 
L 286.151141 55.416601 
L 286.187451 55.309496 
L 286.296381 54.901187 
L 286.33269 54.793782 
L 286.44162 54.388061 
L 286.47793 54.282334 
L 286.586859 53.886846 
L 286.623169 53.784833 
L 286.732099 53.407337 
L 286.768409 53.311075 
L 286.877338 52.959228 
L 286.9197 52.85321 
L 287.028629 52.53587 
L 287.077042 52.426599 
L 287.185972 52.152923 
L 287.240437 52.048377 
L 287.349366 51.827417 
L 287.421986 51.718005 
L 287.530915 51.562786 
L 287.651948 51.452152 
L 287.760878 51.387663 
L 288.130028 51.493186 
L 288.238958 51.622819 
L 288.317629 51.727371 
L 288.426558 51.927161 
L 288.487075 52.035776 
L 288.596004 52.292654 
L 288.644418 52.396185 
L 288.753347 52.699266 
L 288.795709 52.801201 
L 288.904638 53.141515 
L 288.940948 53.235105 
L 289.049878 53.603867 
L 289.086187 53.703961 
L 289.195117 54.09361 
L 289.231427 54.198184 
L 289.340356 54.600975 
L 289.376666 54.707986 
L 289.485596 55.116205 
L 289.521906 55.223649 
L 289.630835 55.629826 
L 289.667145 55.735786 
L 289.776074 56.132892 
L 289.812384 56.235594 
L 289.921314 56.617215 
L 289.957624 56.715066 
L 290.066553 57.075555 
L 290.108915 57.185335 
L 290.217844 57.518761 
L 290.260206 57.619299 
L 290.369135 57.921591 
L 290.417548 58.026562 
L 290.526478 58.293394 
L 290.580943 58.39766 
L 290.689872 58.625732 
L 290.75644 58.734642 
L 290.86537 58.920484 
L 290.992454 58.816759 
L 291.101384 58.685915 
L 291.228468 58.575303 
L 291.337398 58.494376 
L 291.621825 58.384357 
L 291.730755 58.36911 
L 292.354074 58.478754 
L 292.463003 58.518891 
L 292.765585 58.628395 
L 292.874515 58.670135 
L 293.213407 58.780279 
L 293.322336 58.813687 
L 293.782261 58.923715 
L 293.891191 58.947466 
L 293.909346 58.949905 
L 293.909346 58.951728 
" clip-path="url(#p732cfaf6e1)" style="fill: none; stroke: #cc66cc; stroke-width: 0.8; stroke-linecap: square"/>
   </g>
   <g id="legend_2">
    <g id="line2d_41">
     <path d="M 284.303937 17.150176 
L 288.303937 17.150176 
L 292.303937 17.150176 
" style="fill: none; stroke: #6699cc; stroke-width: 0.8; stroke-linecap: square"/>
    </g>
    <g id="text_36">
     <!-- $G_{x}$ -->
     <g transform="translate(296.303937 19.950176) scale(0.08 -0.08)">
      <use xlink:href="#ArialMT-47" transform="translate(0 0.203125)"/>
      <use xlink:href="#ArialMT-78" transform="translate(79.525547 -29.665625) scale(0.7)"/>
     </g>
    </g>
    <g id="line2d_42">
     <path d="M 313.903937 17.150176 
L 317.903937 17.150176 
L 321.903937 17.150176 
" style="fill: none; stroke: #ff6666; stroke-width: 0.8; stroke-linecap: square"/>
    </g>
    <g id="text_37">
     <!-- $G_{y}$ -->
     <g transform="translate(325.903937 19.950176) scale(0.08 -0.08)">
      <use xlink:href="#ArialMT-47" transform="translate(0 0.203125)"/>
      <use xlink:href="#ArialMT-79" transform="translate(79.525547 -29.665625) scale(0.7)"/>
     </g>
    </g>
    <g id="line2d_43">
     <path d="M 343.503937 17.150176 
L 347.503937 17.150176 
L 351.503937 17.150176 
" style="fill: none; stroke: #669966; stroke-width: 0.8; stroke-linecap: square"/>
    </g>
    <g id="text_38">
     <!-- $G_{z}$ -->
     <g transform="translate(355.503937 19.950176) scale(0.08 -0.08)">
      <use xlink:href="#ArialMT-47" transform="translate(0 0.203125)"/>
      <use xlink:href="#ArialMT-7a" transform="translate(79.525547 -29.665625) scale(0.7)"/>
     </g>
    </g>
    <g id="line2d_44">
     <path d="M 373.103937 17.150176 
L 377.103937 17.150176 
L 381.103937 17.150176 
" style="fill: none; stroke: #cc66cc; stroke-width: 0.8; stroke-linecap: square"/>
    </g>
    <g id="text_39">
     <!-- $|B_{1}|$ -->
     <g transform="translate(385.103937 19.950176) scale(0.08 -0.08)">
      <use xlink:href="#ArialMT-7c" transform="translate(0 0.203125)"/>
      <use xlink:href="#ArialMT-42" transform="translate(25.976562 0.203125)"/>
      <use xlink:href="#ArialMT-31" transform="translate(94.418125 -29.665625) scale(0.7)"/>
      <use xlink:href="#ArialMT-7c" transform="translate(138.326914 0.203125)"/>
     </g>
    </g>
    <g id="PathCollection_4">
     <g>
      <use xlink:href="#m62d82c5ce8" x="410.303937" y="17.150176" style="fill: #555555; stroke: #555555; stroke-width: 0.5"/>
     </g>
    </g>
    <g id="text_40">
     <!-- $Trigger$ -->
     <g transform="translate(418.303937 19.950176) scale(0.08 -0.08)">
      <use xlink:href="#ArialMT-54" transform="translate(0 0.421875)"/>
      <use xlink:href="#ArialMT-72" transform="translate(61.083984 0.421875)"/>
      <use xlink:href="#ArialMT-69" transform="translate(94.384766 0.421875)"/>
      <use xlink:href="#ArialMT-67" transform="translate(116.601562 0.421875)"/>
      <use xlink:href="#ArialMT-67" transform="translate(172.216797 0.421875)"/>
      <use xlink:href="#ArialMT-65" transform="translate(227.832031 0.421875)"/>
      <use xlink:href="#ArialMT-72" transform="translate(283.447266 0.421875)"/>
     </g>
    </g>
   </g>
  </g>
  <g id="text_41">
   <!-- (a) -->
   <g transform="translate(3.7875 10.879687) scale(0.1 -0.1)">
    <defs>
     <path id="ArialMT-28" d="M 1497 -1347 
Q 1031 -759 709 28 
Q 388 816 388 1659 
Q 388 2403 628 3084 
Q 909 3875 1497 4659 
L 1900 4659 
Q 1522 4009 1400 3731 
Q 1209 3300 1100 2831 
Q 966 2247 966 1656 
Q 966 153 1900 -1347 
L 1497 -1347 
z
" transform="scale(0.015625)"/>
     <path id="ArialMT-61" d="M 2588 409 
Q 2275 144 1986 34 
Q 1697 -75 1366 -75 
Q 819 -75 525 192 
Q 231 459 231 875 
Q 231 1119 342 1320 
Q 453 1522 633 1644 
Q 813 1766 1038 1828 
Q 1203 1872 1538 1913 
Q 2219 1994 2541 2106 
Q 2544 2222 2544 2253 
Q 2544 2597 2384 2738 
Q 2169 2928 1744 2928 
Q 1347 2928 1158 2789 
Q 969 2650 878 2297 
L 328 2372 
Q 403 2725 575 2942 
Q 747 3159 1072 3276 
Q 1397 3394 1825 3394 
Q 2250 3394 2515 3294 
Q 2781 3194 2906 3042 
Q 3031 2891 3081 2659 
Q 3109 2516 3109 2141 
L 3109 1391 
Q 3109 606 3145 398 
Q 3181 191 3288 0 
L 2700 0 
Q 2613 175 2588 409 
z
M 2541 1666 
Q 2234 1541 1622 1453 
Q 1275 1403 1131 1340 
Q 988 1278 909 1158 
Q 831 1038 831 891 
Q 831 666 1001 516 
Q 1172 366 1500 366 
Q 1825 366 2078 508 
Q 2331 650 2450 897 
Q 2541 1088 2541 1459 
L 2541 1666 
z
" transform="scale(0.015625)"/>
     <path id="ArialMT-29" d="M 791 -1347 
L 388 -1347 
Q 1322 153 1322 1656 
Q 1322 2244 1188 2822 
Q 1081 3291 891 3722 
Q 769 4003 388 4659 
L 791 4659 
Q 1378 3875 1659 3084 
Q 1900 2403 1900 1659 
Q 1900 816 1576 28 
Q 1253 -759 791 -1347 
z
" transform="scale(0.015625)"/>
    </defs>
    <use xlink:href="#ArialMT-28"/>
    <use xlink:href="#ArialMT-61" x="33.300781"/>
    <use xlink:href="#ArialMT-29" x="88.916016"/>
   </g>
  </g>
  <g id="text_42">
   <!-- (b) -->
   <g transform="translate(244.6275 10.879687) scale(0.1 -0.1)">
    <defs>
     <path id="ArialMT-62" d="M 941 0 
L 419 0 
L 419 4581 
L 981 4581 
L 981 2947 
Q 1338 3394 1891 3394 
Q 2197 3394 2470 3270 
Q 2744 3147 2920 2923 
Q 3097 2700 3197 2384 
Q 3297 2069 3297 1709 
Q 3297 856 2875 390 
Q 2453 -75 1863 -75 
Q 1275 -75 941 416 
L 941 0 
z
M 934 1684 
Q 934 1088 1097 822 
Q 1363 388 1816 388 
Q 2184 388 2453 708 
Q 2722 1028 2722 1663 
Q 2722 2313 2464 2622 
Q 2206 2931 1841 2931 
Q 1472 2931 1203 2611 
Q 934 2291 934 1684 
z
" transform="scale(0.015625)"/>
    </defs>
    <use xlink:href="#ArialMT-28"/>
    <use xlink:href="#ArialMT-62" x="33.300781"/>
    <use xlink:href="#ArialMT-29" x="88.916016"/>
   </g>
  </g>
 </g>
 <defs>
  <clipPath id="p564d908512">
   <rect x="30.19125" y="15.583768" width="207.268721" height="86.73592"/>
  </clipPath>
  <clipPath id="p732cfaf6e1">
   <rect x="275.03125" y="15.583768" width="207.268721" height="86.73592"/>
  </clipPath>
 </defs>
</svg>
