<?xml version="1.0" encoding="utf-8" standalone="no"?>
<!DOCTYPE svg PUBLIC "-//W3C//DTD SVG 1.1//EN"
  "http://www.w3.org/Graphics/SVG/1.1/DTD/svg11.dtd">
<svg xmlns:xlink="http://www.w3.org/1999/xlink" width="488.894531pt" height="124.471875pt" viewBox="0 0 488.894531 124.471875" xmlns="http://www.w3.org/2000/svg" version="1.1">
 <metadata>
  <rdf:RDF xmlns:dc="http://purl.org/dc/elements/1.1/" xmlns:cc="http://creativecommons.org/ns#" xmlns:rdf="http://www.w3.org/1999/02/22-rdf-syntax-ns#">
   <cc:Work>
    <dc:type rdf:resource="http://purl.org/dc/dcmitype/StillImage"/>
    <dc:date>2024-12-19T15:52:17.072737</dc:date>
    <dc:format>image/svg+xml</dc:format>
    <dc:creator>
     <cc:Agent>
      <dc:title>Matplotlib v3.8.4, https://matplotlib.org/</dc:title>
     </cc:Agent>
    </dc:creator>
   </cc:Work>
  </rdf:RDF>
 </metadata>
 <defs>
  <style type="text/css">*{stroke-linejoin: round; stroke-linecap: butt}</style>
 </defs>
 <g id="figure_1">
  <g id="patch_1">
   <path d="M 0 124.471875 
L 488.894531 124.471875 
L 488.894531 -0 
L 0 -0 
z
" style="fill: #ffffff"/>
  </g>
  <g id="axes_1">
   <g id="patch_2">
    <path d="M 29.264531 99.982969 
L 240.454531 99.982969 
L 240.454531 13.027049 
L 29.264531 13.027049 
z
" style="fill: #ffffff"/>
   </g>
   <g id="PathCollection_1">
    <defs>
     <path id="mc646ee4815" d="M -1.286088 -1.685594 
Q -0.767532 -2.160651 -0.497379 -2.5075 
Q -0.227226 -2.855494 -0.094439 -3.162278 
L 0.0704 -3.162278 
Q 0.237529 -2.80856 0.504247 -2.475448 
Q 0.770966 -2.143481 1.286088 -1.68216 
L 1.286088 -1.406283 
Q 0.567207 -1.74283 0.180293 -2.111428 
L 0.180293 3.162278 
L -0.180293 3.162278 
L -0.180293 -2.111428 
Q -0.523708 -1.838986 -0.69427 -1.731383 
Q -0.863688 -1.624924 -1.286088 -1.413152 
L -1.286088 -1.685594 
z
" style="stroke: #555555; stroke-width: 0.5"/>
    </defs>
    <g clip-path="url(#p818d7c93e3)">
     <use xlink:href="#mc646ee4815" x="43.544443" y="91.287377" style="fill: #555555; stroke: #555555; stroke-width: 0.5"/>
     <use xlink:href="#mc646ee4815" x="91.06435" y="91.287377" style="fill: #555555; stroke: #555555; stroke-width: 0.5"/>
     <use xlink:href="#mc646ee4815" x="138.577787" y="91.287377" style="fill: #555555; stroke: #555555; stroke-width: 0.5"/>
     <use xlink:href="#mc646ee4815" x="186.091223" y="91.287377" style="fill: #555555; stroke: #555555; stroke-width: 0.5"/>
    </g>
   </g>
   <g id="matplotlib.axis_1">
    <g id="xtick_1">
     <g id="line2d_1">
      <defs>
       <path id="m90a2f6d415" d="M 0 0 
L 0 1.5 
" style="stroke: #000000; stroke-width: 0.8"/>
      </defs>
      <g>
       <use xlink:href="#m90a2f6d415" x="31.421292" y="99.982969" style="stroke: #000000; stroke-width: 0.8"/>
      </g>
     </g>
     <g id="text_1">
      <!-- 0 -->
      <g transform="translate(29.753011 109.277656) scale(0.06 -0.06)">
       <defs>
        <path id="ArialMT-30" d="M 266 2259 
Q 266 3072 433 3567 
Q 600 4063 929 4331 
Q 1259 4600 1759 4600 
Q 2128 4600 2406 4451 
Q 2684 4303 2865 4023 
Q 3047 3744 3150 3342 
Q 3253 2941 3253 2259 
Q 3253 1453 3087 958 
Q 2922 463 2592 192 
Q 2263 -78 1759 -78 
Q 1097 -78 719 397 
Q 266 969 266 2259 
z
M 844 2259 
Q 844 1131 1108 757 
Q 1372 384 1759 384 
Q 2147 384 2411 759 
Q 2675 1134 2675 2259 
Q 2675 3391 2411 3762 
Q 2147 4134 1753 4134 
Q 1366 4134 1134 3806 
Q 844 3388 844 2259 
z
" transform="scale(0.015625)"/>
       </defs>
       <use xlink:href="#ArialMT-30"/>
      </g>
     </g>
    </g>
    <g id="xtick_2">
     <g id="line2d_2">
      <g>
       <use xlink:href="#m90a2f6d415" x="74.556504" y="99.982969" style="stroke: #000000; stroke-width: 0.8"/>
      </g>
     </g>
     <g id="text_2">
      <!-- 20 -->
      <g transform="translate(71.219942 109.277656) scale(0.06 -0.06)">
       <defs>
        <path id="ArialMT-32" d="M 3222 541 
L 3222 0 
L 194 0 
Q 188 203 259 391 
Q 375 700 629 1000 
Q 884 1300 1366 1694 
Q 2113 2306 2375 2664 
Q 2638 3022 2638 3341 
Q 2638 3675 2398 3904 
Q 2159 4134 1775 4134 
Q 1369 4134 1125 3890 
Q 881 3647 878 3216 
L 300 3275 
Q 359 3922 746 4261 
Q 1134 4600 1788 4600 
Q 2447 4600 2831 4234 
Q 3216 3869 3216 3328 
Q 3216 3053 3103 2787 
Q 2991 2522 2730 2228 
Q 2469 1934 1863 1422 
Q 1356 997 1212 845 
Q 1069 694 975 541 
L 3222 541 
z
" transform="scale(0.015625)"/>
       </defs>
       <use xlink:href="#ArialMT-32"/>
       <use xlink:href="#ArialMT-30" x="55.615234"/>
      </g>
     </g>
    </g>
    <g id="xtick_3">
     <g id="line2d_3">
      <g>
       <use xlink:href="#m90a2f6d415" x="117.691717" y="99.982969" style="stroke: #000000; stroke-width: 0.8"/>
      </g>
     </g>
     <g id="text_3">
      <!-- 40 -->
      <g transform="translate(114.355154 109.277656) scale(0.06 -0.06)">
       <defs>
        <path id="ArialMT-34" d="M 2069 0 
L 2069 1097 
L 81 1097 
L 81 1613 
L 2172 4581 
L 2631 4581 
L 2631 1613 
L 3250 1613 
L 3250 1097 
L 2631 1097 
L 2631 0 
L 2069 0 
z
M 2069 1613 
L 2069 3678 
L 634 1613 
L 2069 1613 
z
" transform="scale(0.015625)"/>
       </defs>
       <use xlink:href="#ArialMT-34"/>
       <use xlink:href="#ArialMT-30" x="55.615234"/>
      </g>
     </g>
    </g>
    <g id="xtick_4">
     <g id="line2d_4">
      <g>
       <use xlink:href="#m90a2f6d415" x="160.826929" y="99.982969" style="stroke: #000000; stroke-width: 0.8"/>
      </g>
     </g>
     <g id="text_4">
      <!-- 60 -->
      <g transform="translate(157.490367 109.277656) scale(0.06 -0.06)">
       <defs>
        <path id="ArialMT-36" d="M 3184 3459 
L 2625 3416 
Q 2550 3747 2413 3897 
Q 2184 4138 1850 4138 
Q 1581 4138 1378 3988 
Q 1113 3794 959 3422 
Q 806 3050 800 2363 
Q 1003 2672 1297 2822 
Q 1591 2972 1913 2972 
Q 2475 2972 2870 2558 
Q 3266 2144 3266 1488 
Q 3266 1056 3080 686 
Q 2894 316 2569 119 
Q 2244 -78 1831 -78 
Q 1128 -78 684 439 
Q 241 956 241 2144 
Q 241 3472 731 4075 
Q 1159 4600 1884 4600 
Q 2425 4600 2770 4297 
Q 3116 3994 3184 3459 
z
M 888 1484 
Q 888 1194 1011 928 
Q 1134 663 1356 523 
Q 1578 384 1822 384 
Q 2178 384 2434 671 
Q 2691 959 2691 1453 
Q 2691 1928 2437 2201 
Q 2184 2475 1800 2475 
Q 1419 2475 1153 2201 
Q 888 1928 888 1484 
z
" transform="scale(0.015625)"/>
       </defs>
       <use xlink:href="#ArialMT-36"/>
       <use xlink:href="#ArialMT-30" x="55.615234"/>
      </g>
     </g>
    </g>
    <g id="xtick_5">
     <g id="line2d_5">
      <g>
       <use xlink:href="#m90a2f6d415" x="203.962142" y="99.982969" style="stroke: #000000; stroke-width: 0.8"/>
      </g>
     </g>
     <g id="text_5">
      <!-- 80 -->
      <g transform="translate(200.625579 109.277656) scale(0.06 -0.06)">
       <defs>
        <path id="ArialMT-38" d="M 1131 2484 
Q 781 2613 612 2850 
Q 444 3088 444 3419 
Q 444 3919 803 4259 
Q 1163 4600 1759 4600 
Q 2359 4600 2725 4251 
Q 3091 3903 3091 3403 
Q 3091 3084 2923 2848 
Q 2756 2613 2416 2484 
Q 2838 2347 3058 2040 
Q 3278 1734 3278 1309 
Q 3278 722 2862 322 
Q 2447 -78 1769 -78 
Q 1091 -78 675 323 
Q 259 725 259 1325 
Q 259 1772 486 2073 
Q 713 2375 1131 2484 
z
M 1019 3438 
Q 1019 3113 1228 2906 
Q 1438 2700 1772 2700 
Q 2097 2700 2305 2904 
Q 2513 3109 2513 3406 
Q 2513 3716 2298 3927 
Q 2084 4138 1766 4138 
Q 1444 4138 1231 3931 
Q 1019 3725 1019 3438 
z
M 838 1322 
Q 838 1081 952 856 
Q 1066 631 1291 507 
Q 1516 384 1775 384 
Q 2178 384 2440 643 
Q 2703 903 2703 1303 
Q 2703 1709 2433 1975 
Q 2163 2241 1756 2241 
Q 1359 2241 1098 1978 
Q 838 1716 838 1322 
z
" transform="scale(0.015625)"/>
       </defs>
       <use xlink:href="#ArialMT-38"/>
       <use xlink:href="#ArialMT-30" x="55.615234"/>
      </g>
     </g>
    </g>
    <g id="text_6">
     <!-- Time [ms] -->
     <g transform="translate(119.63125 119.480625) scale(0.07 -0.07)">
      <defs>
       <path id="ArialMT-54" d="M 1659 0 
L 1659 4041 
L 150 4041 
L 150 4581 
L 3781 4581 
L 3781 4041 
L 2266 4041 
L 2266 0 
L 1659 0 
z
" transform="scale(0.015625)"/>
       <path id="ArialMT-69" d="M 425 3934 
L 425 4581 
L 988 4581 
L 988 3934 
L 425 3934 
z
M 425 0 
L 425 3319 
L 988 3319 
L 988 0 
L 425 0 
z
" transform="scale(0.015625)"/>
       <path id="ArialMT-6d" d="M 422 0 
L 422 3319 
L 925 3319 
L 925 2853 
Q 1081 3097 1340 3245 
Q 1600 3394 1931 3394 
Q 2300 3394 2536 3241 
Q 2772 3088 2869 2813 
Q 3263 3394 3894 3394 
Q 4388 3394 4653 3120 
Q 4919 2847 4919 2278 
L 4919 0 
L 4359 0 
L 4359 2091 
Q 4359 2428 4304 2576 
Q 4250 2725 4106 2815 
Q 3963 2906 3769 2906 
Q 3419 2906 3187 2673 
Q 2956 2441 2956 1928 
L 2956 0 
L 2394 0 
L 2394 2156 
Q 2394 2531 2256 2718 
Q 2119 2906 1806 2906 
Q 1569 2906 1367 2781 
Q 1166 2656 1075 2415 
Q 984 2175 984 1722 
L 984 0 
L 422 0 
z
" transform="scale(0.015625)"/>
       <path id="ArialMT-65" d="M 2694 1069 
L 3275 997 
Q 3138 488 2766 206 
Q 2394 -75 1816 -75 
Q 1088 -75 661 373 
Q 234 822 234 1631 
Q 234 2469 665 2931 
Q 1097 3394 1784 3394 
Q 2450 3394 2872 2941 
Q 3294 2488 3294 1666 
Q 3294 1616 3291 1516 
L 816 1516 
Q 847 969 1125 678 
Q 1403 388 1819 388 
Q 2128 388 2347 550 
Q 2566 713 2694 1069 
z
M 847 1978 
L 2700 1978 
Q 2663 2397 2488 2606 
Q 2219 2931 1791 2931 
Q 1403 2931 1139 2672 
Q 875 2413 847 1978 
z
" transform="scale(0.015625)"/>
       <path id="ArialMT-20" transform="scale(0.015625)"/>
       <path id="ArialMT-5b" d="M 434 -1272 
L 434 4581 
L 1675 4581 
L 1675 4116 
L 997 4116 
L 997 -806 
L 1675 -806 
L 1675 -1272 
L 434 -1272 
z
" transform="scale(0.015625)"/>
       <path id="ArialMT-73" d="M 197 991 
L 753 1078 
Q 800 744 1014 566 
Q 1228 388 1613 388 
Q 2000 388 2187 545 
Q 2375 703 2375 916 
Q 2375 1106 2209 1216 
Q 2094 1291 1634 1406 
Q 1016 1563 777 1677 
Q 538 1791 414 1992 
Q 291 2194 291 2438 
Q 291 2659 392 2848 
Q 494 3038 669 3163 
Q 800 3259 1026 3326 
Q 1253 3394 1513 3394 
Q 1903 3394 2198 3281 
Q 2494 3169 2634 2976 
Q 2775 2784 2828 2463 
L 2278 2388 
Q 2241 2644 2061 2787 
Q 1881 2931 1553 2931 
Q 1166 2931 1000 2803 
Q 834 2675 834 2503 
Q 834 2394 903 2306 
Q 972 2216 1119 2156 
Q 1203 2125 1616 2013 
Q 2213 1853 2448 1751 
Q 2684 1650 2818 1456 
Q 2953 1263 2953 975 
Q 2953 694 2789 445 
Q 2625 197 2315 61 
Q 2006 -75 1616 -75 
Q 969 -75 630 194 
Q 291 463 197 991 
z
" transform="scale(0.015625)"/>
       <path id="ArialMT-5d" d="M 1363 -1272 
L 122 -1272 
L 122 -806 
L 800 -806 
L 800 4116 
L 122 4116 
L 122 4581 
L 1363 4581 
L 1363 -1272 
z
" transform="scale(0.015625)"/>
      </defs>
      <use xlink:href="#ArialMT-54"/>
      <use xlink:href="#ArialMT-69" x="57.333984"/>
      <use xlink:href="#ArialMT-6d" x="79.550781"/>
      <use xlink:href="#ArialMT-65" x="162.851562"/>
      <use xlink:href="#ArialMT-20" x="218.466797"/>
      <use xlink:href="#ArialMT-5b" x="246.25"/>
      <use xlink:href="#ArialMT-6d" x="274.033203"/>
      <use xlink:href="#ArialMT-73" x="357.333984"/>
      <use xlink:href="#ArialMT-5d" x="407.333984"/>
     </g>
    </g>
   </g>
   <g id="matplotlib.axis_2">
    <g id="ytick_1">
     <g id="line2d_6">
      <defs>
       <path id="mf8ca95bd8d" d="M 0 0 
L -1.5 0 
" style="stroke: #000000; stroke-width: 0.8"/>
      </defs>
      <g>
       <use xlink:href="#mf8ca95bd8d" x="29.264531" y="91.287377" style="stroke: #000000; stroke-width: 0.8"/>
      </g>
     </g>
     <g id="text_7">
      <!-- −60 -->
      <g transform="translate(14.087031 93.43472) scale(0.06 -0.06)">
       <defs>
        <path id="ArialMT-2212" d="M 3381 1997 
L 356 1997 
L 356 2522 
L 3381 2522 
L 3381 1997 
z
" transform="scale(0.015625)"/>
       </defs>
       <use xlink:href="#ArialMT-2212"/>
       <use xlink:href="#ArialMT-36" x="58.398438"/>
       <use xlink:href="#ArialMT-30" x="114.013672"/>
      </g>
     </g>
    </g>
    <g id="ytick_2">
     <g id="line2d_7">
      <g>
       <use xlink:href="#mf8ca95bd8d" x="29.264531" y="79.693254" style="stroke: #000000; stroke-width: 0.8"/>
      </g>
     </g>
     <g id="text_8">
      <!-- −40 -->
      <g transform="translate(14.087031 81.840598) scale(0.06 -0.06)">
       <use xlink:href="#ArialMT-2212"/>
       <use xlink:href="#ArialMT-34" x="58.398438"/>
       <use xlink:href="#ArialMT-30" x="114.013672"/>
      </g>
     </g>
    </g>
    <g id="ytick_3">
     <g id="line2d_8">
      <g>
       <use xlink:href="#mf8ca95bd8d" x="29.264531" y="68.099131" style="stroke: #000000; stroke-width: 0.8"/>
      </g>
     </g>
     <g id="text_9">
      <!-- −20 -->
      <g transform="translate(14.087031 70.246475) scale(0.06 -0.06)">
       <use xlink:href="#ArialMT-2212"/>
       <use xlink:href="#ArialMT-32" x="58.398438"/>
       <use xlink:href="#ArialMT-30" x="114.013672"/>
      </g>
     </g>
    </g>
    <g id="ytick_4">
     <g id="line2d_9">
      <g>
       <use xlink:href="#mf8ca95bd8d" x="29.264531" y="56.505009" style="stroke: #000000; stroke-width: 0.8"/>
      </g>
     </g>
     <g id="text_10">
      <!-- 0 -->
      <g transform="translate(20.927969 58.652352) scale(0.06 -0.06)">
       <use xlink:href="#ArialMT-30"/>
      </g>
     </g>
    </g>
    <g id="ytick_5">
     <g id="line2d_10">
      <g>
       <use xlink:href="#mf8ca95bd8d" x="29.264531" y="44.910886" style="stroke: #000000; stroke-width: 0.8"/>
      </g>
     </g>
     <g id="text_11">
      <!-- 20 -->
      <g transform="translate(17.591406 47.05823) scale(0.06 -0.06)">
       <use xlink:href="#ArialMT-32"/>
       <use xlink:href="#ArialMT-30" x="55.615234"/>
      </g>
     </g>
    </g>
    <g id="ytick_6">
     <g id="line2d_11">
      <g>
       <use xlink:href="#mf8ca95bd8d" x="29.264531" y="33.316763" style="stroke: #000000; stroke-width: 0.8"/>
      </g>
     </g>
     <g id="text_12">
      <!-- 40 -->
      <g transform="translate(17.591406 35.464107) scale(0.06 -0.06)">
       <use xlink:href="#ArialMT-34"/>
       <use xlink:href="#ArialMT-30" x="55.615234"/>
      </g>
     </g>
    </g>
    <g id="ytick_7">
     <g id="line2d_12">
      <g>
       <use xlink:href="#mf8ca95bd8d" x="29.264531" y="21.722641" style="stroke: #000000; stroke-width: 0.8"/>
      </g>
     </g>
     <g id="text_13">
      <!-- 60 -->
      <g transform="translate(17.591406 23.869984) scale(0.06 -0.06)">
       <use xlink:href="#ArialMT-36"/>
       <use xlink:href="#ArialMT-30" x="55.615234"/>
      </g>
     </g>
    </g>
    <g id="text_14">
     <!-- Amplitude [mT/m, mG] -->
     <g transform="translate(8.695781 91.50829) rotate(-90) scale(0.07 -0.07)">
      <defs>
       <path id="ArialMT-41" d="M -9 0 
L 1750 4581 
L 2403 4581 
L 4278 0 
L 3588 0 
L 3053 1388 
L 1138 1388 
L 634 0 
L -9 0 
z
M 1313 1881 
L 2866 1881 
L 2388 3150 
Q 2169 3728 2063 4100 
Q 1975 3659 1816 3225 
L 1313 1881 
z
" transform="scale(0.015625)"/>
       <path id="ArialMT-70" d="M 422 -1272 
L 422 3319 
L 934 3319 
L 934 2888 
Q 1116 3141 1344 3267 
Q 1572 3394 1897 3394 
Q 2322 3394 2647 3175 
Q 2972 2956 3137 2557 
Q 3303 2159 3303 1684 
Q 3303 1175 3120 767 
Q 2938 359 2589 142 
Q 2241 -75 1856 -75 
Q 1575 -75 1351 44 
Q 1128 163 984 344 
L 984 -1272 
L 422 -1272 
z
M 931 1641 
Q 931 1000 1190 694 
Q 1450 388 1819 388 
Q 2194 388 2461 705 
Q 2728 1022 2728 1688 
Q 2728 2322 2467 2637 
Q 2206 2953 1844 2953 
Q 1484 2953 1207 2617 
Q 931 2281 931 1641 
z
" transform="scale(0.015625)"/>
       <path id="ArialMT-6c" d="M 409 0 
L 409 4581 
L 972 4581 
L 972 0 
L 409 0 
z
" transform="scale(0.015625)"/>
       <path id="ArialMT-74" d="M 1650 503 
L 1731 6 
Q 1494 -44 1306 -44 
Q 1000 -44 831 53 
Q 663 150 594 308 
Q 525 466 525 972 
L 525 2881 
L 113 2881 
L 113 3319 
L 525 3319 
L 525 4141 
L 1084 4478 
L 1084 3319 
L 1650 3319 
L 1650 2881 
L 1084 2881 
L 1084 941 
Q 1084 700 1114 631 
Q 1144 563 1211 522 
Q 1278 481 1403 481 
Q 1497 481 1650 503 
z
" transform="scale(0.015625)"/>
       <path id="ArialMT-75" d="M 2597 0 
L 2597 488 
Q 2209 -75 1544 -75 
Q 1250 -75 995 37 
Q 741 150 617 320 
Q 494 491 444 738 
Q 409 903 409 1263 
L 409 3319 
L 972 3319 
L 972 1478 
Q 972 1038 1006 884 
Q 1059 663 1231 536 
Q 1403 409 1656 409 
Q 1909 409 2131 539 
Q 2353 669 2445 892 
Q 2538 1116 2538 1541 
L 2538 3319 
L 3100 3319 
L 3100 0 
L 2597 0 
z
" transform="scale(0.015625)"/>
       <path id="ArialMT-64" d="M 2575 0 
L 2575 419 
Q 2259 -75 1647 -75 
Q 1250 -75 917 144 
Q 584 363 401 755 
Q 219 1147 219 1656 
Q 219 2153 384 2558 
Q 550 2963 881 3178 
Q 1213 3394 1622 3394 
Q 1922 3394 2156 3267 
Q 2391 3141 2538 2938 
L 2538 4581 
L 3097 4581 
L 3097 0 
L 2575 0 
z
M 797 1656 
Q 797 1019 1065 703 
Q 1334 388 1700 388 
Q 2069 388 2326 689 
Q 2584 991 2584 1609 
Q 2584 2291 2321 2609 
Q 2059 2928 1675 2928 
Q 1300 2928 1048 2622 
Q 797 2316 797 1656 
z
" transform="scale(0.015625)"/>
       <path id="ArialMT-2f" d="M 0 -78 
L 1328 4659 
L 1778 4659 
L 453 -78 
L 0 -78 
z
" transform="scale(0.015625)"/>
       <path id="ArialMT-2c" d="M 569 0 
L 569 641 
L 1209 641 
L 1209 0 
Q 1209 -353 1084 -570 
Q 959 -788 688 -906 
L 531 -666 
Q 709 -588 793 -436 
Q 878 -284 888 0 
L 569 0 
z
" transform="scale(0.015625)"/>
       <path id="ArialMT-47" d="M 2638 1797 
L 2638 2334 
L 4578 2338 
L 4578 638 
Q 4131 281 3656 101 
Q 3181 -78 2681 -78 
Q 2006 -78 1454 211 
Q 903 500 622 1047 
Q 341 1594 341 2269 
Q 341 2938 620 3517 
Q 900 4097 1425 4378 
Q 1950 4659 2634 4659 
Q 3131 4659 3532 4498 
Q 3934 4338 4162 4050 
Q 4391 3763 4509 3300 
L 3963 3150 
Q 3859 3500 3706 3700 
Q 3553 3900 3268 4020 
Q 2984 4141 2638 4141 
Q 2222 4141 1919 4014 
Q 1616 3888 1430 3681 
Q 1244 3475 1141 3228 
Q 966 2803 966 2306 
Q 966 1694 1177 1281 
Q 1388 869 1791 669 
Q 2194 469 2647 469 
Q 3041 469 3416 620 
Q 3791 772 3984 944 
L 3984 1797 
L 2638 1797 
z
" transform="scale(0.015625)"/>
      </defs>
      <use xlink:href="#ArialMT-41"/>
      <use xlink:href="#ArialMT-6d" x="66.699219"/>
      <use xlink:href="#ArialMT-70" x="150"/>
      <use xlink:href="#ArialMT-6c" x="205.615234"/>
      <use xlink:href="#ArialMT-69" x="227.832031"/>
      <use xlink:href="#ArialMT-74" x="250.048828"/>
      <use xlink:href="#ArialMT-75" x="277.832031"/>
      <use xlink:href="#ArialMT-64" x="333.447266"/>
      <use xlink:href="#ArialMT-65" x="389.0625"/>
      <use xlink:href="#ArialMT-20" x="444.677734"/>
      <use xlink:href="#ArialMT-5b" x="472.460938"/>
      <use xlink:href="#ArialMT-6d" x="500.244141"/>
      <use xlink:href="#ArialMT-54" x="583.544922"/>
      <use xlink:href="#ArialMT-2f" x="644.628906"/>
      <use xlink:href="#ArialMT-6d" x="672.412109"/>
      <use xlink:href="#ArialMT-2c" x="755.712891"/>
      <use xlink:href="#ArialMT-20" x="783.496094"/>
      <use xlink:href="#ArialMT-6d" x="811.279297"/>
      <use xlink:href="#ArialMT-47" x="894.580078"/>
      <use xlink:href="#ArialMT-5d" x="972.363281"/>
     </g>
    </g>
   </g>
   <g id="line2d_13">
    <path d="M 29.264531 56.505009 
L 240.454531 56.505009 
" clip-path="url(#p818d7c93e3)" style="fill: none; stroke: #555555; stroke-width: 0.8; stroke-linecap: square"/>
   </g>
   <g id="line2d_14">
    <path d="M 44.620667 56.505009 
L 44.631451 55.888348 
L 44.696153 57.840803 
L 44.717721 58.039213 
L 44.739289 57.767162 
L 44.868694 54.056258 
L 44.933397 55.175752 
L 45.08437 59.640268 
L 45.127506 59.306351 
L 45.364749 52.798024 
L 45.429452 53.828307 
L 45.666696 60.716522 
L 45.731399 59.965104 
L 46.011777 51.849997 
L 46.098048 53.027465 
L 46.399994 61.557675 
L 46.464697 60.761899 
L 46.809779 51.077072 
L 46.896049 52.326264 
L 47.241131 62.292655 
L 47.305834 61.69536 
L 47.478375 56.014533 
L 47.694051 50.399547 
L 47.715618 50.403267 
L 47.780321 51.136891 
L 47.97443 57.750501 
L 48.190106 62.936763 
L 48.211673 62.897203 
L 48.297944 61.616973 
L 48.707728 49.772171 
L 48.793999 50.663465 
L 48.988107 57.235269 
L 49.246918 63.523096 
L 49.311621 62.989641 
L 49.462594 58.669119 
L 49.807676 49.214342 
L 49.872379 49.76588 
L 50.023352 54.032043 
L 50.390002 64.055889 
L 50.454704 63.480243 
L 50.605678 59.251322 
L 50.972327 48.693259 
L 51.015462 48.819197 
L 51.1233 50.72629 
L 51.597787 64.570835 
L 51.684058 63.853354 
L 51.856599 58.775975 
L 52.223248 48.2169 
L 52.244816 48.203806 
L 52.266383 48.281475 
L 52.374221 49.965094 
L 52.6546 60.14645 
L 52.891844 65.045804 
L 52.934979 64.885956 
L 53.042817 63.025414 
L 53.56044 47.741979 
L 53.668278 48.639571 
L 53.862386 54.572573 
L 54.229035 65.405268 
L 54.272171 65.48469 
L 54.293738 65.398626 
L 54.401576 63.767754 
L 54.660388 54.55484 
L 54.940766 47.37294 
L 54.962334 47.302236 
L 55.005469 47.406568 
L 55.113307 49.043425 
L 55.372119 58.216368 
L 55.674065 65.882814 
L 55.695633 65.924996 
L 55.738768 65.769275 
L 55.846606 64.043521 
L 56.105417 54.832418 
L 56.407364 46.959817 
L 56.450499 46.889826 
L 56.472066 46.972333 
L 56.579905 48.512635 
L 56.817148 56.625861 
L 57.16223 66.235898 
L 57.205365 66.329108 
L 57.226933 66.260591 
L 57.334771 64.807424 
L 57.572014 56.841856 
L 57.917096 46.709608 
L 57.981799 46.485933 
L 58.024934 46.711982 
L 58.15434 49.077776 
L 58.758233 66.72833 
L 58.844503 66.169132 
L 58.995476 62.642341 
L 59.556234 46.095512 
L 59.599369 46.184764 
L 59.707207 47.636736 
L 59.944451 55.447045 
L 60.332668 66.90931 
L 60.375803 67.102945 
L 60.418938 67.012205 
L 60.526776 65.577315 
L 60.76402 57.836981 
L 61.152237 46.034468 
L 61.21694 45.717896 
L 61.260075 45.855839 
L 61.367913 47.381568 
L 61.605157 55.186879 
L 62.014941 67.287827 
L 62.058076 67.469899 
L 62.101212 67.377017 
L 62.20905 65.975285 
L 62.424726 59.221699 
L 62.877646 45.534807 
L 62.920781 45.360809 
L 62.963916 45.457409 
L 63.071754 46.850104 
L 63.28743 53.549092 
L 63.74035 67.550436 
L 63.805053 67.827206 
L 63.848188 67.679051 
L 63.956026 66.182265 
L 64.19327 58.545784 
L 64.624622 45.32766 
L 64.689324 45.009889 
L 64.73246 45.125619 
L 64.840298 46.5302 
L 65.055974 53.161772 
L 65.530461 67.886534 
L 65.595164 68.170952 
L 65.638299 68.037651 
L 65.746137 66.607192 
L 65.983381 59.143263 
L 66.436301 45.045106 
L 66.501003 44.67702 
L 66.565706 44.881172 
L 66.695112 46.937483 
L 66.975491 56.654872 
L 67.363708 68.121726 
L 67.449978 68.496495 
L 67.493113 68.307529 
L 67.622519 66.299648 
L 67.88133 57.538762 
L 68.312682 44.649929 
L 68.377385 44.34289 
L 68.42052 44.447909 
L 68.528358 45.768699 
L 68.744034 52.135371 
L 69.283225 68.653074 
L 69.32636 68.824173 
L 69.369495 68.750447 
L 69.477333 67.517374 
L 69.693009 61.308947 
L 70.253767 44.170963 
L 70.296902 44.023371 
L 70.340037 44.117551 
L 70.447875 45.386552 
L 70.663551 51.609522 
L 71.224309 68.941263 
L 71.289012 69.140795 
L 71.332147 68.9756 
L 71.461553 67.102363 
L 71.720364 58.639076 
L 72.194851 44.084978 
L 72.281122 43.715011 
L 72.324257 43.883142 
L 72.453663 45.748837 
L 72.712474 54.166931 
L 73.186961 68.968772 
L 73.273232 69.453462 
L 73.316367 69.347204 
L 73.424205 68.08511 
L 73.639881 61.973447 
L 74.243774 43.538468 
L 74.286909 43.405499 
L 74.330044 43.502973 
L 74.437882 44.732986 
L 74.653559 50.76609 
L 75.257451 69.537631 
L 75.322154 69.753395 
L 75.36529 69.612666 
L 75.473128 68.290247 
L 75.688804 62.154645 
L 76.292697 43.345454 
L 76.357399 43.107148 
L 76.400535 43.229698 
L 76.508373 44.498498 
L 76.724049 50.526189 
L 77.349509 69.862506 
L 77.414212 70.044931 
L 77.457347 69.888145 
L 77.586753 68.125634 
L 77.823997 60.839265 
L 78.384754 43.212013 
L 78.471025 42.816647 
L 78.51416 42.94909 
L 78.621998 44.221787 
L 78.837674 50.196704 
L 79.484702 70.163962 
L 79.549405 70.331746 
L 79.59254 70.170986 
L 79.721946 68.422864 
L 79.95919 61.215361 
L 80.541515 42.912513 
L 80.627785 42.531648 
L 80.670921 42.664666 
L 80.778759 43.920205 
L 80.994435 49.813866 
L 81.663031 70.450508 
L 81.727733 70.614178 
L 81.770869 70.456106 
L 81.900274 68.739684 
L 82.137518 61.630564 
L 82.741411 42.627517 
L 82.827681 42.251874 
L 82.870816 42.381194 
L 82.978655 43.610415 
L 83.194331 49.411023 
L 83.906062 70.835274 
L 83.949197 70.891573 
L 83.970764 70.841007 
L 84.078602 69.814427 
L 84.272711 65.065981 
L 85.070712 41.977483 
L 85.135415 42.24357 
L 85.264821 44.126646 
L 85.523632 52.181656 
L 86.105957 70.642238 
L 86.213795 71.163272 
L 86.235363 71.113493 
L 86.343201 70.104671 
L 86.53731 65.427888 
L 87.356879 41.7086 
L 87.421581 41.973846 
L 87.550987 43.832066 
L 87.809798 51.79864 
L 88.413691 70.931368 
L 88.521529 71.428635 
L 88.543097 71.376808 
L 88.650935 70.371271 
L 88.845043 65.743108 
L 89.68618 41.445646 
L 89.750883 41.721052 
L 89.901856 44.043249 
L 90.182235 53.152792 
L 90.742993 70.996926 
L 90.850831 71.69498 
L 90.893966 71.628098 
L 91.001804 70.603767 
L 91.195912 65.989727 
L 92.037049 41.188225 
L 92.058617 41.190249 
L 92.12332 41.491197 
L 92.274293 43.84169 
L 92.554672 52.928683 
L 93.115429 71.066414 
L 93.244835 71.955169 
L 93.28797 71.862929 
L 93.395808 70.79113 
L 93.611484 65.453003 
L 94.452621 40.927894 
L 94.517324 41.129061 
L 94.646729 42.803275 
L 94.883973 49.570076 
L 95.595704 71.892306 
L 95.681975 72.205342 
L 95.72511 72.073768 
L 95.854515 70.55355 
L 96.091759 64.017948 
L 96.846625 40.837558 
L 96.911328 40.680026 
L 96.954463 40.813399 
L 97.083869 42.330195 
L 97.321113 48.837396 
L 98.075979 72.242071 
L 98.140682 72.457961 
L 98.183817 72.365371 
L 98.291655 71.318557 
L 98.507331 66.106323 
L 99.391603 40.429114 
L 99.456306 40.65572 
L 99.585711 42.340282 
L 99.822955 49.030293 
L 100.577821 72.465036 
L 100.642524 72.702546 
L 100.685659 72.62799 
L 100.793497 71.636972 
L 100.987606 67.22303 
L 101.505228 47.824745 
L 101.828742 40.545522 
L 101.915013 40.185217 
L 101.958148 40.282234 
L 102.065986 41.321919 
L 102.281662 46.462441 
L 103.187502 72.944878 
L 103.209069 72.928309 
L 103.29534 72.405316 
L 103.46788 69.289143 
L 103.791395 58.112931 
L 104.309017 41.301362 
L 104.481558 39.94639 
L 104.503126 39.980102 
L 104.589396 40.567422 
L 104.761937 43.784988 
L 105.107018 55.905163 
L 105.603073 71.818895 
L 105.775614 73.182879 
L 105.797182 73.151767 
L 105.883452 72.577859 
L 106.055993 69.39764 
L 106.379507 58.203034 
L 106.918697 40.891394 
L 107.069671 39.710376 
L 107.091238 39.719697 
L 107.177509 40.204487 
L 107.35005 43.211231 
L 107.673564 54.209331 
L 108.234321 72.27408 
L 108.385295 73.417787 
L 108.406862 73.404238 
L 108.493133 72.905814 
L 108.665674 69.887477 
L 108.989188 58.900149 
L 109.549945 40.715913 
L 109.722486 39.480154 
L 109.744054 39.523525 
L 109.851892 40.397674 
L 110.046 44.518362 
L 110.455785 59.703611 
L 110.887137 72.499249 
L 111.03811 73.648848 
L 111.059678 73.638555 
L 111.145948 73.158934 
L 111.318489 70.200006 
L 111.642003 59.319767 
L 112.224329 40.438892 
L 112.375302 39.248872 
L 112.396869 39.252093 
L 112.48314 39.700842 
L 112.655681 42.591272 
L 112.957627 52.525323 
L 113.583088 72.823888 
L 113.734061 73.879084 
L 113.755629 73.857312 
L 113.841899 73.338034 
L 114.01444 70.331616 
L 114.337954 59.44519 
L 114.920279 40.377422 
L 115.09282 39.017726 
L 115.114388 39.040077 
L 115.200658 39.558871 
L 115.373199 42.552586 
L 115.696713 53.403855 
L 116.279039 72.619843 
L 116.451579 74.101785 
L 116.473147 74.096367 
L 116.559417 73.64725 
L 116.731958 70.792025 
L 117.033905 60.959287 
L 117.680933 39.879493 
L 117.831906 38.794078 
L 117.853474 38.808161 
L 117.939744 39.288898 
L 118.112285 42.190329 
L 118.414232 52.051812 
L 119.06126 73.188236 
L 119.212233 74.324748 
L 119.233801 74.319176 
L 119.320071 73.874742 
L 119.492612 71.050947 
L 119.794558 61.293927 
L 120.441586 39.893673 
L 120.614127 38.572032 
L 120.635695 38.594481 
L 120.721965 39.103109 
L 120.894506 42.03306 
L 121.196453 51.884762 
L 121.843481 73.235127 
L 122.016022 74.547687 
L 122.037589 74.525216 
L 122.12386 74.019019 
L 122.296401 71.104352 
L 122.598347 61.288979 
L 123.266943 39.468284 
L 123.417916 38.355874 
L 123.439484 38.361918 
L 123.525754 38.800634 
L 123.698295 41.581091 
L 124.000242 51.229079 
L 124.690405 73.720119 
L 124.841378 74.764758 
L 124.862946 74.749811 
L 124.949216 74.2783 
L 125.121757 71.448249 
L 125.423704 61.765114 
L 126.113867 39.227048 
L 126.26484 38.13913 
L 126.286408 38.146798 
L 126.372678 38.587135 
L 126.545219 41.349564 
L 126.847166 50.937426 
L 127.537329 73.725079 
L 127.70987 74.979724 
L 127.731437 74.954203 
L 127.817708 74.445615 
L 127.990249 71.568194 
L 128.292195 61.871193 
L 128.982359 39.155345 
L 129.154899 37.924093 
L 129.176467 37.951558 
L 129.262737 38.465526 
L 129.435278 41.342811 
L 129.737225 51.020761 
L 130.427388 73.862421 
L 130.599929 75.191945 
L 130.621497 75.178071 
L 130.707767 74.720138 
L 130.880308 71.955535 
L 131.182254 62.423513 
L 131.893985 38.944825 
L 132.066526 37.712602 
L 132.088094 37.737909 
L 132.174364 38.238837 
L 132.346905 41.072758 
L 132.648852 50.66462 
L 133.360583 74.147734 
L 133.533123 75.402434 
L 133.554691 75.381008 
L 133.640961 74.897551 
L 133.813502 72.105277 
L 134.115449 62.579311 
L 134.848747 38.5925 
L 134.999721 37.507166 
L 135.042856 37.552135 
L 135.150694 38.354294 
L 135.344802 42.12087 
L 135.711452 54.965622 
L 136.293777 73.931172 
L 136.487886 75.608623 
L 136.509453 75.599932 
L 136.595724 75.17118 
L 136.768264 72.498563 
L 137.070211 63.148136 
L 137.825077 38.392994 
L 137.997618 37.301763 
L 138.019186 37.341148 
L 138.127024 38.122383 
L 138.321132 41.832668 
L 138.687781 54.586816 
L 139.270107 73.856935 
L 139.485783 75.81551 
L 139.550486 75.650023 
L 139.679891 74.282419 
L 139.917135 68.564668 
L 140.995515 37.092478 
L 141.060218 37.26185 
L 141.189624 38.631674 
L 141.426867 44.338183 
L 142.505248 76.016265 
L 142.526815 76.011385 
L 142.613086 75.606043 
L 142.785627 73.012779 
L 143.087573 63.829644 
L 143.885574 37.844657 
L 144.036548 36.890256 
L 144.058115 36.906986 
L 144.144386 37.357348 
L 144.316927 40.025511 
L 144.618873 49.280243 
L 145.416874 75.255712 
L 145.567848 76.219915 
L 145.589415 76.205386 
L 145.675686 75.76568 
L 145.848227 73.125783 
L 146.150173 63.922371 
L 146.948175 37.764265 
L 147.120715 36.694044 
L 147.142283 36.730735 
L 147.250121 37.481026 
L 147.444229 41.07659 
L 147.789311 52.750265 
L 148.436339 74.433391 
L 148.652015 76.417496 
L 148.716718 76.282691 
L 148.846124 75.005006 
L 149.0618 70.154481 
L 149.51472 53.302678 
L 149.989207 38.519337 
L 150.204883 36.495606 
L 150.248018 36.537179 
L 150.355856 37.29661 
L 150.549965 40.886398 
L 150.895046 52.520187 
L 151.563642 74.787524 
L 151.779318 76.616516 
L 151.844021 76.440929 
L 151.973427 75.093946 
L 152.21067 69.518945 
L 152.728293 49.916874 
L 153.159645 37.722405 
L 153.353754 36.296393 
L 153.418456 36.488448 
L 153.547862 37.862472 
L 153.785106 43.465569 
L 154.302728 63.076063 
L 154.73408 75.327713 
L 154.928189 76.811878 
L 154.992892 76.642811 
L 155.122297 75.317807 
L 155.359541 69.802506 
L 155.855596 51.074814 
L 156.308516 37.762077 
L 156.524192 36.105212 
L 156.588895 36.323397 
L 156.739868 38.096814 
L 156.998679 44.755767 
L 158.055492 76.89638 
L 158.120195 76.999378 
L 158.16333 76.883859 
L 158.292735 75.666822 
L 158.508411 70.972274 
L 158.939764 55.181316 
L 159.478954 37.966519 
L 159.69463 35.917091 
L 159.759333 36.007483 
L 159.888738 37.166298 
L 160.104414 41.766108 
L 160.514199 56.595018 
L 161.074957 74.918943 
L 161.3122 77.195609 
L 161.376903 77.061055 
L 161.506309 75.820827 
L 161.721985 71.115221 
L 162.153337 55.341981 
L 162.692527 37.961108 
L 162.929771 35.718703 
L 162.994474 35.859483 
L 163.123879 37.107457 
L 163.339555 41.813318 
L 163.770907 57.573403 
L 164.310098 75.042547 
L 164.547341 77.382509 
L 164.612044 77.272731 
L 164.74145 76.08927 
L 164.957126 71.486801 
L 165.36691 56.697938 
L 165.927668 38.11701 
L 166.164912 35.551094 
L 166.208047 35.543177 
L 166.229614 35.593256 
L 166.337453 36.378475 
L 166.531561 39.915512 
L 166.876643 51.330955 
L 167.609941 75.781095 
L 167.825617 77.574902 
L 167.89032 77.421306 
L 168.019726 76.161128 
L 168.256969 70.845 
L 168.709889 54.027938 
L 169.227512 37.609696 
L 169.464755 35.344031 
L 169.529458 35.46489 
L 169.658864 36.657371 
L 169.87454 41.241263 
L 170.284324 55.971841 
L 170.86665 75.248145 
L 171.103893 77.743432 
L 171.147029 77.743968 
L 171.168596 77.690943 
L 171.276434 76.898101 
L 171.470543 73.374706 
L 171.815624 62.020627 
L 172.548923 37.255436 
L 172.764599 35.17289 
L 172.807734 35.174329 
L 172.829302 35.228111 
L 172.93714 36.022416 
L 173.131248 39.539729 
L 173.47633 50.871859 
L 174.231196 76.107791 
L 174.446872 77.94491 
L 174.511575 77.816631 
L 174.640981 76.621752 
L 174.856657 72.064808 
L 175.266441 57.400299 
L 175.870334 37.420465 
L 176.107578 34.986822 
L 176.150713 34.992127 
L 176.172281 35.047394 
L 176.280119 35.844557 
L 176.474227 39.349922 
L 176.819309 50.638616 
L 177.574175 76.087738 
L 177.789851 78.11567 
L 177.832987 78.108273 
L 177.854554 78.052178 
L 177.962392 77.253129 
L 178.156501 73.75284 
L 178.501582 62.484751 
L 179.278016 36.57325 
L 179.493692 34.789959 
L 179.558395 34.926262 
L 179.687801 36.125138 
L 179.903477 40.658524 
L 180.313261 55.259727 
L 180.917154 75.522984 
L 181.154398 78.253932 
L 181.197533 78.310845 
L 181.240668 78.229157 
L 181.348506 77.424254 
L 181.542615 73.930419 
L 181.887697 62.699134 
L 182.66413 36.582686 
L 182.879806 34.618693 
L 182.922942 34.634178 
L 182.944509 34.693661 
L 183.052347 35.502979 
L 183.246456 38.996161 
L 183.591537 50.212091 
L 184.367971 76.42314 
L 184.605215 78.491597 
L 184.669918 78.3428 
L 184.799323 77.130819 
L 185.014999 72.606732 
L 185.424784 58.055526 
L 186.050245 37.117344 
L 186.287488 34.475979 
L 186.330623 34.430775 
L 186.373759 34.522458 
L 186.503164 35.608814 
L 186.71884 39.940114 
L 187.107057 53.427736 
L 187.775653 76.022264 
L 188.012897 78.627453 
L 188.056032 78.667528 
L 188.099167 78.571278 
L 188.228573 77.474716 
L 188.444249 73.137705 
L 188.832466 59.658572 
L 189.501062 36.991976 
L 189.738305 34.308021 
L 189.78144 34.251186 
L 189.824576 34.33016 
L 189.932414 35.116489 
L 190.126522 38.541508 
L 190.471604 49.622232 
L 191.291173 77.040355 
L 191.506849 78.844994 
L 191.571552 78.73407 
L 191.700957 77.610132 
L 191.916633 73.251109 
L 192.30485 59.778176 
L 192.995014 36.573992 
L 193.232257 34.102329 
L 193.275393 34.082466 
L 193.29696 34.123067 
L 193.404798 34.82738 
L 193.598907 38.102806 
L 193.922421 48.167768 
L 194.806693 77.525157 
L 195.022369 79.019564 
L 195.108639 78.684886 
L 195.259612 76.840888 
L 195.518424 70.376102 
L 196.122317 47.373939 
L 196.553669 35.558525 
L 196.769345 33.898822 
L 196.834048 34.046718 
L 196.963453 35.232421 
L 197.179129 39.655579 
L 197.567346 53.15101 
L 198.25751 76.497403 
L 198.494753 79.140571 
L 198.537889 79.198017 
L 198.581024 79.122277 
L 198.688862 78.355158 
L 198.88297 74.998067 
L 199.228052 64.0668 
L 200.069189 35.709007 
L 200.306432 33.724895 
L 200.371135 33.872567 
L 200.500541 35.051182 
L 200.716217 39.446876 
L 201.104434 52.888766 
L 201.794597 76.432217 
L 202.053408 79.335363 
L 202.096544 79.367131 
L 202.139679 79.26675 
L 202.269084 78.182414 
L 202.484761 73.933985 
L 202.872977 60.653956 
L 203.584708 36.387158 
L 203.84352 33.578341 
L 203.886655 33.561357 
L 203.908223 33.60225 
L 204.016061 34.296741 
L 204.210169 37.513002 
L 204.533683 47.430355 
L 205.46109 78.125092 
L 205.655199 79.541585 
L 205.676766 79.536525 
L 205.763037 79.189082 
L 205.91401 77.351197 
L 206.172821 70.959653 
L 206.733579 49.631661 
L 207.208066 35.599162 
L 207.44531 33.39 
L 207.510013 33.464175 
L 207.617851 34.236375 
L 207.811959 37.567287 
L 208.157041 48.399166 
L 209.041313 77.958418 
L 209.256989 79.710946 
L 209.321692 79.608319 
L 209.451097 78.533638 
L 209.666773 74.332658 
L 210.033423 62.004033 
L 210.809857 35.686234 
L 211.0471 33.245584 
L 211.090235 33.215617 
L 211.133371 33.315378 
L 211.262776 34.383767 
L 211.478452 38.56733 
L 211.845102 50.865324 
L 212.621535 77.291503 
L 212.858779 79.83241 
L 212.901914 79.882887 
L 212.94505 79.804081 
L 213.052888 79.046143 
L 213.246996 75.758631 
L 213.57051 65.822319 
L 214.519485 34.452833 
L 214.713593 33.044733 
L 214.735161 33.047804 
L 214.821431 33.381454 
L 214.972405 35.174698 
L 215.231216 41.451949 
L 215.770406 61.849416 
L 216.266461 77.25508 
L 216.525272 80.023387 
L 216.568407 80.044728 
L 216.589975 80.007257 
L 216.697813 79.341893 
L 216.891921 76.220804 
L 217.215436 66.504273 
L 218.207545 34.037862 
L 218.401654 32.877527 
L 218.466357 33.063174 
L 218.61733 34.59539 
L 218.854574 39.850306 
L 219.285926 55.409019 
L 219.932954 77.121308 
L 220.191765 80.148955 
L 220.2349 80.218758 
L 220.278036 80.161103 
L 220.385874 79.463097 
L 220.579982 76.300533 
L 220.903496 66.559682 
L 221.895606 33.963186 
L 222.089715 32.708118 
L 222.154417 32.857758 
L 222.283823 34.003182 
L 222.499499 38.254335 
L 222.887716 51.392439 
L 223.66415 77.734627 
L 223.922961 80.366949 
L 223.966096 80.370796 
L 223.987664 80.325258 
L 224.095502 79.626656 
L 224.28961 76.475603 
L 224.613124 66.772683 
L 225.605234 33.950168 
L 225.82091 32.546831 
L 225.907181 32.86262 
L 226.058154 34.601429 
L 226.316965 40.742302 
L 226.81302 59.290834 
L 227.373778 77.439274 
L 227.632589 80.471997 
L 227.675725 80.548712 
L 227.71886 80.499712 
L 227.826698 79.830594 
L 228.020806 76.740905 
L 228.34432 67.135318 
L 229.379565 33.436137 
L 229.552106 32.379551 
L 229.573674 32.387521 
L 229.659944 32.731871 
L 229.832485 34.882334 
L 230.112864 42.043056 
L 230.78146 67.528258 
L 231.212812 78.990343 
L 231.428488 80.70806 
L 231.493191 80.620639 
L 231.622597 79.611025 
L 231.838273 75.599313 
L 232.204922 63.620562 
L 233.067626 34.488798 
L 233.30487 32.237295 
L 233.348005 32.225992 
L 233.369573 32.267012 
L 233.477411 32.935449 
L 233.671519 36.006001 
L 233.951898 44.619848 
L 234.318547 55.393487 
L 234.512656 56.504668 
L 234.631278 56.505009 
M 234.631278 56.505009 
L 234.631278 56.508974 
L 238.297771 56.505009 
L 238.297771 56.505009 
" clip-path="url(#p818d7c93e3)" style="fill: none; stroke: #6699cc; stroke-width: 0.8; stroke-linecap: square"/>
   </g>
   <g id="line2d_15">
    <path d="M 44.620667 56.505009 
L 44.674586 55.560887 
L 44.717721 56.925167 
L 44.782424 58.533239 
L 44.825559 57.925379 
L 44.976532 53.688078 
L 45.019668 54.248955 
L 45.213776 59.940886 
L 45.278479 59.151007 
L 45.515723 52.545101 
L 45.580425 53.543196 
L 45.839237 60.942712 
L 45.903939 60.141133 
L 46.205886 51.649734 
L 46.270589 52.462688 
L 46.594103 61.75718 
L 46.680373 60.646112 
L 47.025455 50.898955 
L 47.090158 51.631383 
L 47.284266 58.372863 
L 47.478375 62.448307 
L 47.499942 62.329334 
L 47.60778 60.028092 
L 47.952862 50.233246 
L 47.995997 50.548832 
L 48.125403 53.938112 
L 48.448917 63.089511 
L 48.470485 63.024016 
L 48.556755 61.672833 
L 48.96654 49.630993 
L 49.05281 50.378031 
L 49.225351 55.88053 
L 49.527297 63.656924 
L 49.592 63.07621 
L 49.742973 58.723489 
L 50.088055 49.075661 
L 50.13119 49.27697 
L 50.239028 51.42131 
L 50.67038 64.189889 
L 50.735083 63.848862 
L 50.864489 60.800772 
L 51.295841 48.570392 
L 51.317409 48.656954 
L 51.425247 50.434966 
L 51.921302 64.689226 
L 52.007572 63.8703 
L 52.180113 58.698153 
L 52.546762 48.106211 
L 52.56833 48.082653 
L 52.589897 48.148641 
L 52.676168 49.278489 
L 52.891844 56.497649 
L 53.215358 65.143487 
L 53.236926 65.155003 
L 53.258493 65.079398 
L 53.366331 63.453457 
L 53.625142 54.17887 
L 53.905521 47.628566 
L 53.948657 47.743151 
L 54.056495 49.450171 
L 54.336873 59.581326 
L 54.595685 65.57749 
L 54.617252 65.604056 
L 54.63882 65.547681 
L 54.72509 64.515385 
L 54.919199 58.47343 
L 55.307416 47.239257 
L 55.328983 47.190717 
L 55.372119 47.336481 
L 55.479957 49.05351 
L 55.738768 58.277904 
L 56.040714 65.977407 
L 56.062282 66.028365 
L 56.105417 65.892731 
L 56.213255 64.226429 
L 56.472066 55.093794 
L 56.774013 46.920997 
L 56.817148 46.776034 
L 56.860283 46.940887 
L 56.968121 48.648146 
L 57.226933 57.776549 
L 57.550447 66.35383 
L 57.593582 66.423815 
L 57.61515 66.344864 
L 57.722988 64.853448 
L 57.960231 56.87087 
L 58.326881 46.486465 
L 58.370016 46.381641 
L 58.413151 46.574421 
L 58.542557 48.836583 
L 58.866071 60.712012 
L 59.124882 66.725072 
L 59.168017 66.820202 
L 59.211152 66.623297 
L 59.340558 64.378746 
L 59.664072 52.530343 
L 59.944451 46.055493 
L 59.966019 45.998857 
L 60.009154 46.101011 
L 60.116992 47.572752 
L 60.354236 55.382516 
L 60.742453 66.961449 
L 60.807155 67.194737 
L 60.850291 66.998226 
L 60.979696 64.807923 
L 61.281643 53.875244 
L 61.583589 45.858535 
L 61.648292 45.63274 
L 61.691427 45.828367 
L 61.820833 47.991534 
L 62.101212 58.014313 
L 62.446293 67.394338 
L 62.489429 67.561383 
L 62.532564 67.455648 
L 62.640402 66.0327 
L 62.856078 59.274272 
L 63.308998 45.480752 
L 63.3737 45.27803 
L 63.416836 45.478094 
L 63.546241 47.607137 
L 63.82662 57.526495 
L 64.171702 67.528039 
L 64.236405 67.908455 
L 64.301108 67.695545 
L 64.430513 65.566651 
L 64.710892 55.684297 
L 65.077541 45.209991 
L 65.142244 44.923964 
L 65.185379 45.058543 
L 65.293217 46.499643 
L 65.530461 53.998886 
L 65.983381 67.942667 
L 66.048084 68.254751 
L 66.091219 68.142281 
L 66.199057 66.768412 
L 66.414733 60.236083 
L 66.910788 44.851636 
L 66.975491 44.588413 
L 67.018626 44.729113 
L 67.126464 46.155001 
L 67.34214 52.718322 
L 67.859763 68.428335 
L 67.902898 68.58449 
L 67.946033 68.49088 
L 68.053871 67.190322 
L 68.269547 60.832834 
L 68.808737 44.41084 
L 68.851872 44.262588 
L 68.895008 44.36082 
L 69.002846 45.65882 
L 69.218522 51.975884 
L 69.757712 68.681118 
L 69.822415 68.906731 
L 69.86555 68.753267 
L 69.994956 66.888039 
L 70.253767 58.377887 
L 70.706687 44.38588 
L 70.792957 43.943811 
L 70.836092 44.082247 
L 70.94393 45.450113 
L 71.159606 51.793739 
L 71.720364 69.034155 
L 71.785067 69.216299 
L 71.828202 69.041355 
L 71.957608 67.148866 
L 72.216419 58.681543 
L 72.690906 44.046053 
L 72.777177 43.634428 
L 72.820312 43.779556 
L 72.92815 45.139699 
L 73.143826 51.406867 
L 73.726151 69.340992 
L 73.790854 69.523857 
L 73.833989 69.356318 
L 73.963395 67.5149 
L 74.222206 59.179142 
L 74.718261 43.761827 
L 74.804532 43.330061 
L 74.847667 43.457021 
L 74.955505 44.751977 
L 75.171181 50.863345 
L 75.775074 69.611975 
L 75.839777 69.827746 
L 75.882912 69.688601 
L 75.99075 68.375145 
L 76.206426 62.267555 
L 76.831887 43.167336 
L 76.875022 43.034467 
L 76.918157 43.125702 
L 77.025995 44.314571 
L 77.241671 50.209495 
L 77.888699 69.996502 
L 77.931835 70.121749 
L 77.97497 70.025276 
L 78.082808 68.833777 
L 78.298484 62.964819 
L 78.96708 42.81366 
L 79.010215 42.748102 
L 79.05335 42.90186 
L 79.182756 44.63649 
L 79.419999 51.842611 
L 80.002325 70.061504 
L 80.088595 70.404298 
L 80.13173 70.250542 
L 80.261136 68.528345 
L 80.49838 61.367771 
L 81.080705 42.905653 
L 81.166976 42.459954 
L 81.210111 42.558736 
L 81.317949 43.727779 
L 81.533625 49.477444 
L 82.223788 70.574165 
L 82.266924 70.689844 
L 82.310059 70.592651 
L 82.417897 69.43622 
L 82.633573 63.73302 
L 83.345304 42.24863 
L 83.388439 42.185853 
L 83.431574 42.333822 
L 83.56098 44.004412 
L 83.798224 51.012617 
L 84.423684 70.627891 
L 84.509955 70.961451 
L 84.55309 70.815512 
L 84.682495 69.1618 
L 84.919739 62.203388 
L 85.5452 42.341872 
L 85.63147 41.908851 
L 85.674605 42.001901 
L 85.782443 43.123421 
L 85.998119 48.694338 
L 86.752986 71.205649 
L 86.774553 71.235805 
L 86.817688 71.142326 
L 86.925526 70.027644 
L 87.141203 64.492486 
L 87.896069 41.702448 
L 87.939204 41.645587 
L 87.960772 41.69338 
L 88.06861 42.682542 
L 88.262718 47.29743 
L 89.103855 71.495496 
L 89.168557 71.195778 
L 89.319531 68.814447 
L 89.59991 59.625639 
L 90.1391 42.249841 
L 90.268505 41.377567 
L 90.311641 41.483659 
L 90.419479 42.606318 
L 90.635155 48.081968 
L 91.433156 71.745184 
L 91.454724 71.761769 
L 91.476291 71.728824 
L 91.562562 71.106495 
L 91.735103 67.669126 
L 92.101752 54.262591 
L 92.511536 42.053599 
L 92.640942 41.119756 
L 92.684077 41.198305 
L 92.791915 42.240396 
L 92.986024 46.850593 
L 93.848728 72.01895 
L 93.870296 71.99596 
L 93.956566 71.420795 
L 94.129107 68.099257 
L 94.474189 55.695457 
L 94.927108 41.818745 
L 95.056514 40.866784 
L 95.099649 40.932841 
L 95.207487 41.93123 
L 95.401596 46.4379 
L 96.285868 72.27123 
L 96.329003 72.181159 
L 96.436841 71.131036 
L 96.652517 65.882083 
L 97.515221 40.615582 
L 97.558356 40.686345 
L 97.666194 41.683344 
L 97.860303 46.150721 
L 98.766142 72.519449 
L 98.809277 72.415749 
L 98.917116 71.345057 
L 99.132792 66.104395 
L 100.017063 40.367575 
L 100.081766 40.579304 
L 100.211172 42.231223 
L 100.448416 48.866119 
L 101.203282 72.476858 
L 101.289552 72.758944 
L 101.332687 72.621665 
L 101.462093 71.122181 
L 101.699337 64.718653 
L 102.497338 40.267832 
L 102.562041 40.130799 
L 102.605176 40.269832 
L 102.734582 41.766609 
L 102.971825 48.144443 
L 103.769827 72.813422 
L 103.83453 73.004975 
L 103.877665 72.90397 
L 103.985503 71.863098 
L 104.201179 66.749429 
L 105.128586 39.887238 
L 105.193289 40.127649 
L 105.322695 41.799773 
L 105.559938 48.378334 
L 106.35794 73.039895 
L 106.422642 73.242713 
L 106.465778 73.152457 
L 106.573616 72.148602 
L 106.767724 67.789885 
L 107.220644 50.752564 
L 107.587293 40.644317 
L 107.738266 39.651945 
L 107.759834 39.688169 
L 107.846104 40.277554 
L 108.018645 43.465905 
L 108.342159 54.636222 
L 108.88135 72.137155 
L 109.05389 73.476047 
L 109.075458 73.445196 
L 109.161728 72.879989 
L 109.334269 69.747729 
L 109.657783 58.655066 
L 110.218541 40.596156 
L 110.369514 39.419854 
L 110.391082 39.426831 
L 110.477352 39.894796 
L 110.649893 42.838836 
L 110.95184 52.861102 
L 111.555733 72.551632 
L 111.706706 73.705946 
L 111.728274 73.696924 
L 111.814544 73.223785 
L 111.987085 70.28283 
L 112.289031 60.285301 
L 112.892924 40.453579 
L 113.065465 39.190331 
L 113.087033 39.226917 
L 113.173303 39.806028 
L 113.345844 42.926428 
L 113.669358 53.943107 
L 114.230116 72.413419 
L 114.402657 73.931572 
L 114.424224 73.928971 
L 114.510495 73.486903 
L 114.661468 71.118558 
L 114.941847 62.418918 
L 115.63201 39.89944 
L 115.782984 38.964386 
L 115.804551 39.001962 
L 115.912389 39.82884 
L 116.106498 43.808832 
L 116.494715 57.953006 
L 116.969202 72.733055 
L 117.141743 74.159695 
L 117.16331 74.147771 
L 117.249581 73.674246 
L 117.422122 70.780245 
L 117.724068 60.916415 
L 118.371096 39.835298 
L 118.52207 38.738875 
L 118.543637 38.750823 
L 118.629908 39.221793 
L 118.802448 42.099747 
L 119.104395 51.925746 
L 119.751423 73.169615 
L 119.923964 74.37981 
L 119.945532 74.342535 
L 120.05337 73.528893 
L 120.247478 69.61177 
L 120.614127 56.441549 
L 121.13175 39.985272 
L 121.304291 38.520717 
L 121.325858 38.524254 
L 121.412129 38.956771 
L 121.58467 41.742086 
L 121.886616 51.425988 
L 122.555212 73.405954 
L 122.727753 74.599134 
L 122.74932 74.561969 
L 122.857158 73.756348 
L 123.051267 69.878819 
L 123.417916 56.778933 
L 123.935539 40.027801 
L 124.129647 38.299808 
L 124.151215 38.312346 
L 124.237485 38.775556 
L 124.410026 41.595635 
L 124.711973 51.277606 
L 125.380568 73.455882 
L 125.553109 74.818446 
L 125.574677 74.805139 
L 125.660947 74.341308 
L 125.833488 71.530554 
L 126.135435 61.878718 
L 126.825598 39.239913 
L 126.998139 38.087696 
L 127.019706 38.126805 
L 127.127544 38.931254 
L 127.321653 42.768075 
L 127.688302 55.77737 
L 128.227492 73.295471 
L 128.421601 75.031486 
L 128.443168 75.023432 
L 128.529439 74.58508 
L 128.70198 71.841606 
L 129.003926 62.304661 
L 129.715657 38.983151 
L 129.86663 37.874448 
L 129.909766 37.919598 
L 130.017604 38.735553 
L 130.211712 42.565748 
L 130.578361 55.533055 
L 131.117552 73.276677 
L 131.333228 75.245128 
L 131.39793 75.059869 
L 131.527336 73.623598 
L 131.76458 67.720035 
L 132.778257 37.675035 
L 132.821392 37.685453 
L 132.84296 37.750751 
L 132.950798 38.670075 
L 133.144907 42.639702 
L 133.533123 56.569508 
L 134.050746 73.43516 
L 134.266422 75.454132 
L 134.331125 75.293075 
L 134.460531 73.914814 
L 134.697774 68.128502 
L 135.754587 37.452275 
L 135.81929 37.652996 
L 135.948695 39.102002 
L 136.185939 44.978416 
L 137.221184 75.647719 
L 137.264319 75.635327 
L 137.285887 75.57002 
L 137.393725 74.660112 
L 137.587833 70.739586 
L 137.954483 57.774503 
L 138.515241 39.270473 
L 138.730917 37.246748 
L 138.795619 37.394016 
L 138.925025 38.729165 
L 139.162269 44.405473 
L 140.240649 75.866661 
L 140.305352 75.693863 
L 140.434757 74.314778 
L 140.672001 68.587111 
L 141.750381 37.042221 
L 141.815084 37.197516 
L 141.94449 38.537538 
L 142.181734 44.191892 
L 142.764059 66.199442 
L 143.130708 75.214893 
L 143.281681 76.067405 
L 143.303249 76.035542 
L 143.38952 75.524202 
L 143.56206 72.739079 
L 143.864007 63.33759 
L 144.640441 37.925191 
L 144.812982 36.843866 
L 144.834549 36.880443 
L 144.942387 37.634437 
L 145.136496 41.251746 
L 145.481577 52.97323 
L 146.128605 74.466975 
L 146.344282 76.269281 
L 146.408984 76.072797 
L 146.53839 74.668609 
L 146.775634 68.959689 
L 147.357959 46.922363 
L 147.724608 37.668253 
L 147.875582 36.643029 
L 147.897149 36.647546 
L 147.98342 37.044687 
L 148.134393 39.153202 
L 148.414772 47.094273 
L 149.320611 75.931815 
L 149.428449 76.466696 
L 149.471584 76.416553 
L 149.579422 75.634436 
L 149.773531 72.003053 
L 150.118613 60.318237 
L 150.787208 38.172132 
L 151.002884 36.444872 
L 151.067587 36.653537 
L 151.196993 38.066696 
L 151.434237 43.748794 
L 151.994994 65.009668 
L 152.383211 75.381731 
L 152.555752 76.663672 
L 152.57732 76.656876 
L 152.66359 76.256177 
L 152.836131 73.725804 
L 153.11651 65.518619 
L 154.000782 36.992467 
L 154.130187 36.248955 
L 154.173323 36.298121 
L 154.281161 37.068423 
L 154.475269 40.650917 
L 154.820351 52.235403 
L 155.488947 74.765033 
L 155.704623 76.850923 
L 155.747758 76.82974 
L 155.769325 76.763524 
L 155.877164 75.882953 
L 156.071272 72.132624 
L 156.437921 59.534624 
L 157.084949 38.034426 
L 157.300626 36.056453 
L 157.365328 36.173977 
L 157.494734 37.392286 
L 157.71041 42.094276 
L 158.141762 57.898052 
L 158.659385 74.662969 
L 158.896628 77.048562 
L 158.961331 76.939605 
L 159.090737 75.742453 
L 159.306413 71.08196 
L 159.716197 56.194849 
L 160.276955 38.010832 
L 160.492631 35.876698 
L 160.535766 35.881714 
L 160.557334 35.939106 
L 160.665172 36.768758 
L 160.859281 40.409203 
L 161.204362 51.989868 
L 161.894526 75.193586 
L 162.110202 77.235735 
L 162.153337 77.213611 
L 162.174905 77.147956 
L 162.30431 76.000839 
L 162.519986 71.434476 
L 162.929771 56.655718 
L 163.490528 38.148764 
L 163.727772 35.682284 
L 163.770907 35.696397 
L 163.792475 35.757832 
L 163.900313 36.602429 
L 164.094421 40.248874 
L 164.439503 51.80471 
L 165.151234 75.562369 
L 165.36691 77.432815 
L 165.431613 77.298215 
L 165.561019 76.068642 
L 165.776695 71.40516 
L 166.186479 56.570508 
L 166.747237 38.0388 
L 166.984481 35.501673 
L 167.027616 35.498224 
L 167.049184 35.55039 
L 167.157022 36.34477 
L 167.35113 39.89225 
L 167.696212 51.31118 
L 168.42951 75.793793 
L 168.645186 77.621175 
L 168.709889 77.479454 
L 168.839295 76.244413 
L 169.054971 71.593989 
L 169.464755 56.797907 
L 170.047081 37.66757 
L 170.284324 35.302486 
L 170.349027 35.393575 
L 170.478433 36.52606 
L 170.694109 41.017936 
L 171.103893 55.658636 
L 171.707786 75.52243 
L 171.94503 77.804213 
L 172.009733 77.692734 
L 172.139139 76.524629 
L 172.354815 71.991314 
L 172.764599 57.327268 
L 173.368492 37.440292 
L 173.605736 35.115926 
L 173.670439 35.212167 
L 173.799844 36.346651 
L 174.01552 40.820992 
L 174.403737 54.549681 
L 175.029198 75.482135 
L 175.266441 77.972412 
L 175.309577 77.976886 
L 175.331144 77.92638 
L 175.438982 77.151586 
L 175.633091 73.678549 
L 175.978172 62.418223 
L 176.733039 36.962511 
L 176.948715 34.939265 
L 176.99185 34.948505 
L 177.013418 35.005633 
L 177.121256 35.810836 
L 177.315364 39.325197 
L 177.660446 50.616388 
L 178.415312 76.097323 
L 178.652556 78.175211 
L 178.717258 78.018698 
L 178.846664 76.778655 
L 179.083908 71.568222 
L 179.51526 55.774888 
L 180.076018 37.38856 
L 180.313261 34.78127 
L 180.356397 34.748875 
L 180.377964 34.784774 
L 180.485802 35.481157 
L 180.679911 38.801392 
L 181.003425 49.021393 
L 181.844561 76.89056 
L 182.03867 78.35543 
L 182.060237 78.347047 
L 182.146508 77.968725 
L 182.319049 75.608142 
L 182.599428 67.86509 
L 183.65624 34.892271 
L 183.742511 34.565731 
L 183.785646 34.60878 
L 183.893484 35.314962 
L 184.087592 38.635388 
L 184.411107 48.827068 
L 185.252243 76.903101 
L 185.467919 78.535894 
L 185.532622 78.362946 
L 185.662028 77.105855 
L 185.899271 71.911709 
L 186.330623 56.181226 
L 186.912949 37.035796 
L 187.150193 34.427012 
L 187.193328 34.387128 
L 187.236463 34.483845 
L 187.365869 35.583368 
L 187.581545 39.929338 
L 187.969762 53.424198 
L 188.638357 76.03697 
L 188.875601 78.667317 
L 188.918736 78.713055 
L 188.961871 78.622724 
L 189.091277 77.545142 
L 189.306953 73.24059 
L 189.69517 59.800301 
L 190.385333 36.635786 
L 190.622577 34.226281 
L 190.665712 34.220751 
L 190.68728 34.268812 
L 190.795118 35.012829 
L 190.989226 38.364729 
L 191.312741 48.536134 
L 192.175445 77.286073 
L 192.391121 78.891282 
L 192.455824 78.720375 
L 192.585229 77.481383 
L 192.822473 72.356974 
L 193.253825 56.733313 
L 193.857718 36.754518 
L 194.094962 34.088215 
L 194.138097 34.030492 
L 194.181232 34.107248 
L 194.28907 34.882412 
L 194.483179 38.270681 
L 194.82826 49.273423 
L 195.669397 77.338838 
L 195.885073 79.066661 
L 195.949776 78.938447 
L 196.079181 77.789391 
L 196.294858 73.415616 
L 196.683074 59.962168 
L 197.373238 36.57825 
L 197.610482 33.915701 
L 197.653617 33.85538 
L 197.696752 33.9285 
L 197.80459 34.690271 
L 197.998698 38.042126 
L 198.34378 48.974229 
L 199.184917 77.294824 
L 199.400593 79.228299 
L 199.443728 79.221626 
L 199.465296 79.168452 
L 199.573134 78.408835 
L 199.767242 75.067627 
L 200.090756 64.97468 
L 200.975028 35.386289 
L 201.190704 33.682358 
L 201.255407 33.810538 
L 201.384813 34.949525 
L 201.600489 39.282771 
L 201.988706 52.655549 
L 202.700437 76.751368 
L 202.93768 79.35943 
L 202.980815 79.414209 
L 203.023951 79.337061 
L 203.131789 78.571864 
L 203.325897 75.235448 
L 203.670979 64.363094 
L 204.533683 35.387713 
L 204.749359 33.518927 
L 204.792494 33.534499 
L 204.814062 33.591553 
L 204.9219 34.364791 
L 205.116008 37.707571 
L 205.46109 48.573823 
L 206.323794 77.630571 
L 206.53947 79.56975 
L 206.582606 79.570137 
L 206.604173 79.52123 
L 206.712011 78.789919 
L 206.90612 75.523082 
L 207.229634 65.566723 
L 208.157041 34.813095 
L 208.372717 33.341551 
L 208.43742 33.531432 
L 208.588393 35.094639 
L 208.825637 40.442076 
L 209.278556 57.01121 
L 209.882449 76.890573 
L 210.141261 79.724051 
L 210.184396 79.751161 
L 210.205964 79.715963 
L 210.313802 79.055809 
L 210.50791 75.92034 
L 210.831424 66.142438 
L 211.801966 34.35189 
L 211.996075 33.171427 
L 212.060778 33.357462 
L 212.190183 34.590134 
L 212.427427 39.599591 
L 212.837211 54.118392 
L 213.505807 76.808858 
L 213.764619 79.857711 
L 213.807754 79.925765 
L 213.850889 79.864765 
L 213.958727 79.151671 
L 214.152835 75.941605 
L 214.47635 66.101654 
L 215.446892 34.243177 
L 215.641 33.000556 
L 215.705703 33.161435 
L 215.835109 34.339103 
L 216.072352 39.242668 
L 216.482137 53.6415 
L 217.1723 77.059995 
L 217.431112 80.035299 
L 217.474247 80.093604 
L 217.517382 80.023771 
L 217.62522 79.292855 
L 217.819329 76.066194 
L 218.142843 66.231526 
L 219.113385 34.198164 
L 219.307493 32.83413 
L 219.329061 32.840789 
L 219.415331 33.185878 
L 219.587872 35.364771 
L 219.868251 42.622369 
L 221.097605 80.119836 
L 221.162307 80.26045 
L 221.205443 80.195193 
L 221.313281 79.479421 
L 221.507389 76.290504 
L 221.830903 66.524608 
L 222.823013 33.927681 
L 223.017122 32.666655 
L 223.081824 32.813295 
L 223.21123 33.951417 
L 223.426906 38.187995 
L 223.815123 51.304282 
L 224.591557 77.708969 
L 224.850368 80.401774 
L 224.893503 80.416883 
L 224.915071 80.377047 
L 225.022909 79.707411 
L 225.217017 76.607657 
L 225.540532 66.971943 
L 226.554209 33.716176 
L 226.748318 32.502151 
L 226.81302 32.66079 
L 226.942426 33.816658 
L 227.17967 38.633185 
L 227.589454 52.875736 
L 228.301185 77.279112 
L 228.559996 80.476472 
L 228.624699 80.589004 
L 228.667834 80.5072 
L 228.79724 79.516461 
L 229.012916 75.522068 
L 229.379565 63.54331 
L 230.220702 34.882567 
L 230.457946 32.392391 
L 230.501081 32.33803 
L 230.544216 32.408748 
L 230.652054 33.128676 
L 230.846163 36.293905 
L 231.169677 45.972154 
L 232.183354 79.407244 
L 232.377463 80.751999 
L 232.39903 80.746918 
L 232.485301 80.415658 
L 232.636274 78.664433 
L 232.895085 72.538691 
L 233.39114 54.032645 
L 233.908763 37.129309 
L 233.973466 36.787499 
L 234.016601 36.993088 
L 234.146006 39.402187 
L 234.491088 52.098423 
L 234.631278 56.505009 
M 234.631278 56.505009 
L 234.631278 56.464861 
L 238.297771 56.505009 
L 238.297771 56.505009 
" clip-path="url(#p818d7c93e3)" style="fill: none; stroke: #ff6666; stroke-width: 0.8; stroke-linecap: square"/>
   </g>
   <g id="line2d_16">
    <path d="M 31.421292 56.505009 
L 31.680103 42.889682 
L 35.993624 42.889682 
L 36.252436 56.505009 
M 36.252436 56.505009 
L 37.028869 96.59452 
L 37.028869 96.59452 
L 37.805303 56.505009 
M 234.631278 56.505009 
L 235.386144 16.163341 
L 237.542904 16.163341 
L 238.297771 56.505009 
" clip-path="url(#p818d7c93e3)" style="fill: none; stroke: #669966; stroke-width: 0.8; stroke-linecap: square"/>
   </g>
   <g id="line2d_17">
    <path d="M 31.681182 56.505009 
L 31.791176 56.437896 
L 31.939993 56.327608 
L 32.049988 56.222702 
L 32.157826 56.113282 
L 32.26782 56.003326 
L 32.63447 56.113297 
L 32.744465 56.449284 
L 32.798384 56.339081 
L 32.908378 55.707554 
L 32.925632 55.606912 
L 33.035627 54.752277 
L 33.050725 54.642563 
L 33.160719 53.616848 
L 33.17366 53.512609 
L 33.283655 52.401107 
L 33.296595 52.293493 
L 33.40659 51.203655 
L 33.419531 51.103774 
L 33.529525 50.153738 
L 33.544623 50.056963 
L 33.654617 49.362628 
L 33.680499 49.252939 
L 33.790493 48.934224 
L 33.93931 49.045072 
L 34.049305 49.522043 
L 34.068716 49.622678 
L 34.17871 50.426159 
L 34.193808 50.533313 
L 34.303802 51.551246 
L 34.316743 51.655478 
L 34.426738 52.767474 
L 34.439678 52.875035 
L 34.549673 53.965034 
L 34.562614 54.06534 
L 34.672609 55.034287 
L 34.687706 55.135867 
L 34.797701 55.910907 
L 34.817111 56.012392 
L 34.916322 56.50061 
L 34.927106 56.457651 
L 34.959458 56.347257 
L 35.069452 56.057813 
L 35.160036 55.947492 
L 35.239837 55.9188 
L 35.270031 55.922408 
L 35.440415 56.032881 
L 35.55041 56.147132 
L 35.660405 56.256705 
L 35.7704 56.356311 
L 35.93 56.466524 
L 35.992546 56.505009 
L 35.992546 56.505009 
" clip-path="url(#p818d7c93e3)" style="fill: none; stroke: #cc66cc; stroke-width: 0.8; stroke-linecap: square"/>
   </g>
   <g id="legend_1">
    <g id="line2d_18">
     <path d="M 37.676431 13.291457 
L 41.176431 13.291457 
L 44.676431 13.291457 
" style="fill: none; stroke: #6699cc; stroke-width: 0.8; stroke-linecap: square"/>
    </g>
    <g id="text_15">
     <!-- $G_{x}$ -->
     <g transform="translate(48.176431 15.741457) scale(0.07 -0.07)">
      <defs>
       <path id="ArialMT-78" d="M 47 0 
L 1259 1725 
L 138 3319 
L 841 3319 
L 1350 2541 
Q 1494 2319 1581 2169 
Q 1719 2375 1834 2534 
L 2394 3319 
L 3066 3319 
L 1919 1756 
L 3153 0 
L 2463 0 
L 1781 1031 
L 1600 1309 
L 728 0 
L 47 0 
z
" transform="scale(0.015625)"/>
      </defs>
      <use xlink:href="#ArialMT-47" transform="translate(0 0.203125)"/>
      <use xlink:href="#ArialMT-78" transform="translate(79.525547 -29.665625) scale(0.7)"/>
     </g>
    </g>
    <g id="line2d_19">
     <path d="M 63.576431 13.291457 
L 67.076431 13.291457 
L 70.576431 13.291457 
" style="fill: none; stroke: #ff6666; stroke-width: 0.8; stroke-linecap: square"/>
    </g>
    <g id="text_16">
     <!-- $G_{y}$ -->
     <g transform="translate(74.076431 15.741457) scale(0.07 -0.07)">
      <defs>
       <path id="ArialMT-79" d="M 397 -1278 
L 334 -750 
Q 519 -800 656 -800 
Q 844 -800 956 -737 
Q 1069 -675 1141 -563 
Q 1194 -478 1313 -144 
Q 1328 -97 1363 -6 
L 103 3319 
L 709 3319 
L 1400 1397 
Q 1534 1031 1641 628 
Q 1738 1016 1872 1384 
L 2581 3319 
L 3144 3319 
L 1881 -56 
Q 1678 -603 1566 -809 
Q 1416 -1088 1222 -1217 
Q 1028 -1347 759 -1347 
Q 597 -1347 397 -1278 
z
" transform="scale(0.015625)"/>
      </defs>
      <use xlink:href="#ArialMT-47" transform="translate(0 0.203125)"/>
      <use xlink:href="#ArialMT-79" transform="translate(79.525547 -29.665625) scale(0.7)"/>
     </g>
    </g>
    <g id="line2d_20">
     <path d="M 89.476431 13.291457 
L 92.976431 13.291457 
L 96.476431 13.291457 
" style="fill: none; stroke: #669966; stroke-width: 0.8; stroke-linecap: square"/>
    </g>
    <g id="text_17">
     <!-- $G_{z}$ -->
     <g transform="translate(99.976431 15.741457) scale(0.07 -0.07)">
      <defs>
       <path id="ArialMT-7a" d="M 125 0 
L 125 456 
L 2238 2881 
Q 1878 2863 1603 2863 
L 250 2863 
L 250 3319 
L 2963 3319 
L 2963 2947 
L 1166 841 
L 819 456 
Q 1197 484 1528 484 
L 3063 484 
L 3063 0 
L 125 0 
z
" transform="scale(0.015625)"/>
      </defs>
      <use xlink:href="#ArialMT-47" transform="translate(0 0.203125)"/>
      <use xlink:href="#ArialMT-7a" transform="translate(79.525547 -29.665625) scale(0.7)"/>
     </g>
    </g>
    <g id="line2d_21">
     <path d="M 115.376431 13.291457 
L 118.876431 13.291457 
L 122.376431 13.291457 
" style="fill: none; stroke: #cc66cc; stroke-width: 0.8; stroke-linecap: square"/>
    </g>
    <g id="text_18">
     <!-- $|B_{1}|$ -->
     <g transform="translate(125.876431 15.741457) scale(0.07 -0.07)">
      <defs>
       <path id="ArialMT-7c" d="M 588 -1347 
L 588 4659 
L 1078 4659 
L 1078 -1347 
L 588 -1347 
z
" transform="scale(0.015625)"/>
       <path id="ArialMT-42" d="M 469 0 
L 469 4581 
L 2188 4581 
Q 2713 4581 3030 4442 
Q 3347 4303 3526 4014 
Q 3706 3725 3706 3409 
Q 3706 3116 3547 2856 
Q 3388 2597 3066 2438 
Q 3481 2316 3704 2022 
Q 3928 1728 3928 1328 
Q 3928 1006 3792 729 
Q 3656 453 3456 303 
Q 3256 153 2954 76 
Q 2653 0 2216 0 
L 469 0 
z
M 1075 2656 
L 2066 2656 
Q 2469 2656 2644 2709 
Q 2875 2778 2992 2937 
Q 3109 3097 3109 3338 
Q 3109 3566 3000 3739 
Q 2891 3913 2687 3977 
Q 2484 4041 1991 4041 
L 1075 4041 
L 1075 2656 
z
M 1075 541 
L 2216 541 
Q 2509 541 2628 563 
Q 2838 600 2978 687 
Q 3119 775 3209 942 
Q 3300 1109 3300 1328 
Q 3300 1584 3169 1773 
Q 3038 1963 2805 2039 
Q 2572 2116 2134 2116 
L 1075 2116 
L 1075 541 
z
" transform="scale(0.015625)"/>
       <path id="ArialMT-31" d="M 2384 0 
L 1822 0 
L 1822 3584 
Q 1619 3391 1289 3197 
Q 959 3003 697 2906 
L 697 3450 
Q 1169 3672 1522 3987 
Q 1875 4303 2022 4600 
L 2384 4600 
L 2384 0 
z
" transform="scale(0.015625)"/>
      </defs>
      <use xlink:href="#ArialMT-7c" transform="translate(0 0.203125)"/>
      <use xlink:href="#ArialMT-42" transform="translate(25.976562 0.203125)"/>
      <use xlink:href="#ArialMT-31" transform="translate(94.418125 -29.665625) scale(0.7)"/>
      <use xlink:href="#ArialMT-7c" transform="translate(138.326914 0.203125)"/>
     </g>
    </g>
    <g id="PathCollection_2">
     <g>
      <use xlink:href="#mc646ee4815" x="147.926431" y="13.291457" style="fill: #555555; stroke: #555555; stroke-width: 0.5"/>
     </g>
    </g>
    <g id="text_19">
     <!-- $Trigger$ -->
     <g transform="translate(154.926431 15.741457) scale(0.07 -0.07)">
      <defs>
       <path id="ArialMT-72" d="M 416 0 
L 416 3319 
L 922 3319 
L 922 2816 
Q 1116 3169 1280 3281 
Q 1444 3394 1641 3394 
Q 1925 3394 2219 3213 
L 2025 2691 
Q 1819 2813 1613 2813 
Q 1428 2813 1281 2702 
Q 1134 2591 1072 2394 
Q 978 2094 978 1738 
L 978 0 
L 416 0 
z
" transform="scale(0.015625)"/>
       <path id="ArialMT-67" d="M 319 -275 
L 866 -356 
Q 900 -609 1056 -725 
Q 1266 -881 1628 -881 
Q 2019 -881 2231 -725 
Q 2444 -569 2519 -288 
Q 2563 -116 2559 434 
Q 2191 0 1641 0 
Q 956 0 581 494 
Q 206 988 206 1678 
Q 206 2153 378 2554 
Q 550 2956 876 3175 
Q 1203 3394 1644 3394 
Q 2231 3394 2613 2919 
L 2613 3319 
L 3131 3319 
L 3131 450 
Q 3131 -325 2973 -648 
Q 2816 -972 2473 -1159 
Q 2131 -1347 1631 -1347 
Q 1038 -1347 672 -1080 
Q 306 -813 319 -275 
z
M 784 1719 
Q 784 1066 1043 766 
Q 1303 466 1694 466 
Q 2081 466 2343 764 
Q 2606 1063 2606 1700 
Q 2606 2309 2336 2618 
Q 2066 2928 1684 2928 
Q 1309 2928 1046 2623 
Q 784 2319 784 1719 
z
" transform="scale(0.015625)"/>
      </defs>
      <use xlink:href="#ArialMT-54" transform="translate(0 0.421875)"/>
      <use xlink:href="#ArialMT-72" transform="translate(61.083984 0.421875)"/>
      <use xlink:href="#ArialMT-69" transform="translate(94.384766 0.421875)"/>
      <use xlink:href="#ArialMT-67" transform="translate(116.601562 0.421875)"/>
      <use xlink:href="#ArialMT-67" transform="translate(172.216797 0.421875)"/>
      <use xlink:href="#ArialMT-65" transform="translate(227.832031 0.421875)"/>
      <use xlink:href="#ArialMT-72" transform="translate(283.447266 0.421875)"/>
     </g>
    </g>
   </g>
  </g>
  <g id="axes_2">
   <g id="patch_3">
    <path d="M 274.104531 99.982969 
L 485.294531 99.982969 
L 485.294531 13.027049 
L 274.104531 13.027049 
z
" style="fill: #ffffff"/>
   </g>
   <g id="PathCollection_3">
    <g clip-path="url(#p055442615d)">
     <use xlink:href="#mc646ee4815" x="314.930487" y="91.287377" style="fill: #555555; stroke: #555555; stroke-width: 0.5"/>
     <use xlink:href="#mc646ee4815" x="358.851841" y="91.287377" style="fill: #555555; stroke: #555555; stroke-width: 0.5"/>
     <use xlink:href="#mc646ee4815" x="361.441616" y="91.287377" style="fill: #555555; stroke: #555555; stroke-width: 0.5"/>
     <use xlink:href="#mc646ee4815" x="364.031391" y="91.287377" style="fill: #555555; stroke: #555555; stroke-width: 0.5"/>
     <use xlink:href="#mc646ee4815" x="366.621167" y="91.287377" style="fill: #555555; stroke: #555555; stroke-width: 0.5"/>
     <use xlink:href="#mc646ee4815" x="369.210942" y="91.287377" style="fill: #555555; stroke: #555555; stroke-width: 0.5"/>
     <use xlink:href="#mc646ee4815" x="371.800717" y="91.287377" style="fill: #555555; stroke: #555555; stroke-width: 0.5"/>
     <use xlink:href="#mc646ee4815" x="374.328831" y="91.287377" style="fill: #555555; stroke: #555555; stroke-width: 0.5"/>
     <use xlink:href="#mc646ee4815" x="376.856945" y="91.287377" style="fill: #555555; stroke: #555555; stroke-width: 0.5"/>
     <use xlink:href="#mc646ee4815" x="379.385059" y="91.287377" style="fill: #555555; stroke: #555555; stroke-width: 0.5"/>
     <use xlink:href="#mc646ee4815" x="381.913172" y="91.287377" style="fill: #555555; stroke: #555555; stroke-width: 0.5"/>
     <use xlink:href="#mc646ee4815" x="384.441286" y="91.287377" style="fill: #555555; stroke: #555555; stroke-width: 0.5"/>
     <use xlink:href="#mc646ee4815" x="386.9694" y="91.287377" style="fill: #555555; stroke: #555555; stroke-width: 0.5"/>
     <use xlink:href="#mc646ee4815" x="389.497514" y="91.287377" style="fill: #555555; stroke: #555555; stroke-width: 0.5"/>
     <use xlink:href="#mc646ee4815" x="392.025628" y="91.287377" style="fill: #555555; stroke: #555555; stroke-width: 0.5"/>
     <use xlink:href="#mc646ee4815" x="394.553742" y="91.287377" style="fill: #555555; stroke: #555555; stroke-width: 0.5"/>
     <use xlink:href="#mc646ee4815" x="397.081856" y="91.287377" style="fill: #555555; stroke: #555555; stroke-width: 0.5"/>
     <use xlink:href="#mc646ee4815" x="399.609969" y="91.287377" style="fill: #555555; stroke: #555555; stroke-width: 0.5"/>
     <use xlink:href="#mc646ee4815" x="402.138083" y="91.287377" style="fill: #555555; stroke: #555555; stroke-width: 0.5"/>
     <use xlink:href="#mc646ee4815" x="404.666197" y="91.287377" style="fill: #555555; stroke: #555555; stroke-width: 0.5"/>
     <use xlink:href="#mc646ee4815" x="407.194311" y="91.287377" style="fill: #555555; stroke: #555555; stroke-width: 0.5"/>
     <use xlink:href="#mc646ee4815" x="409.722425" y="91.287377" style="fill: #555555; stroke: #555555; stroke-width: 0.5"/>
     <use xlink:href="#mc646ee4815" x="412.250539" y="91.287377" style="fill: #555555; stroke: #555555; stroke-width: 0.5"/>
     <use xlink:href="#mc646ee4815" x="414.778653" y="91.287377" style="fill: #555555; stroke: #555555; stroke-width: 0.5"/>
     <use xlink:href="#mc646ee4815" x="417.306767" y="91.287377" style="fill: #555555; stroke: #555555; stroke-width: 0.5"/>
     <use xlink:href="#mc646ee4815" x="419.83488" y="91.287377" style="fill: #555555; stroke: #555555; stroke-width: 0.5"/>
     <use xlink:href="#mc646ee4815" x="422.362994" y="91.287377" style="fill: #555555; stroke: #555555; stroke-width: 0.5"/>
     <use xlink:href="#mc646ee4815" x="424.891108" y="91.287377" style="fill: #555555; stroke: #555555; stroke-width: 0.5"/>
     <use xlink:href="#mc646ee4815" x="427.419222" y="91.287377" style="fill: #555555; stroke: #555555; stroke-width: 0.5"/>
     <use xlink:href="#mc646ee4815" x="429.947336" y="91.287377" style="fill: #555555; stroke: #555555; stroke-width: 0.5"/>
     <use xlink:href="#mc646ee4815" x="432.47545" y="91.287377" style="fill: #555555; stroke: #555555; stroke-width: 0.5"/>
     <use xlink:href="#mc646ee4815" x="435.003564" y="91.287377" style="fill: #555555; stroke: #555555; stroke-width: 0.5"/>
     <use xlink:href="#mc646ee4815" x="437.531678" y="91.287377" style="fill: #555555; stroke: #555555; stroke-width: 0.5"/>
     <use xlink:href="#mc646ee4815" x="440.059791" y="91.287377" style="fill: #555555; stroke: #555555; stroke-width: 0.5"/>
     <use xlink:href="#mc646ee4815" x="442.587905" y="91.287377" style="fill: #555555; stroke: #555555; stroke-width: 0.5"/>
     <use xlink:href="#mc646ee4815" x="445.855955" y="91.287377" style="fill: #555555; stroke: #555555; stroke-width: 0.5"/>
    </g>
   </g>
   <g id="matplotlib.axis_3">
    <g id="xtick_6">
     <g id="line2d_22">
      <g>
       <use xlink:href="#m90a2f6d415" x="280.270663" y="99.982969" style="stroke: #000000; stroke-width: 0.8"/>
      </g>
     </g>
     <g id="text_20">
      <!-- 0 -->
      <g transform="translate(278.602381 109.277656) scale(0.06 -0.06)">
       <use xlink:href="#ArialMT-30"/>
      </g>
     </g>
    </g>
    <g id="xtick_7">
     <g id="line2d_23">
      <g>
       <use xlink:href="#m90a2f6d415" x="311.10132" y="99.982969" style="stroke: #000000; stroke-width: 0.8"/>
      </g>
     </g>
     <g id="text_21">
      <!-- 5 -->
      <g transform="translate(309.433038 109.277656) scale(0.06 -0.06)">
       <defs>
        <path id="ArialMT-35" d="M 266 1200 
L 856 1250 
Q 922 819 1161 601 
Q 1400 384 1738 384 
Q 2144 384 2425 690 
Q 2706 997 2706 1503 
Q 2706 1984 2436 2262 
Q 2166 2541 1728 2541 
Q 1456 2541 1237 2417 
Q 1019 2294 894 2097 
L 366 2166 
L 809 4519 
L 3088 4519 
L 3088 3981 
L 1259 3981 
L 1013 2750 
Q 1425 3038 1878 3038 
Q 2478 3038 2890 2622 
Q 3303 2206 3303 1553 
Q 3303 931 2941 478 
Q 2500 -78 1738 -78 
Q 1113 -78 717 272 
Q 322 622 266 1200 
z
" transform="scale(0.015625)"/>
       </defs>
       <use xlink:href="#ArialMT-35"/>
      </g>
     </g>
    </g>
    <g id="xtick_8">
     <g id="line2d_24">
      <g>
       <use xlink:href="#m90a2f6d415" x="341.931977" y="99.982969" style="stroke: #000000; stroke-width: 0.8"/>
      </g>
     </g>
     <g id="text_22">
      <!-- 10 -->
      <g transform="translate(338.595414 109.277656) scale(0.06 -0.06)">
       <use xlink:href="#ArialMT-31"/>
       <use xlink:href="#ArialMT-30" x="55.615234"/>
      </g>
     </g>
    </g>
    <g id="xtick_9">
     <g id="line2d_25">
      <g>
       <use xlink:href="#m90a2f6d415" x="372.762633" y="99.982969" style="stroke: #000000; stroke-width: 0.8"/>
      </g>
     </g>
     <g id="text_23">
      <!-- 15 -->
      <g transform="translate(369.426071 109.277656) scale(0.06 -0.06)">
       <use xlink:href="#ArialMT-31"/>
       <use xlink:href="#ArialMT-35" x="55.615234"/>
      </g>
     </g>
    </g>
    <g id="xtick_10">
     <g id="line2d_26">
      <g>
       <use xlink:href="#m90a2f6d415" x="403.59329" y="99.982969" style="stroke: #000000; stroke-width: 0.8"/>
      </g>
     </g>
     <g id="text_24">
      <!-- 20 -->
      <g transform="translate(400.256728 109.277656) scale(0.06 -0.06)">
       <use xlink:href="#ArialMT-32"/>
       <use xlink:href="#ArialMT-30" x="55.615234"/>
      </g>
     </g>
    </g>
    <g id="xtick_11">
     <g id="line2d_27">
      <g>
       <use xlink:href="#m90a2f6d415" x="434.423947" y="99.982969" style="stroke: #000000; stroke-width: 0.8"/>
      </g>
     </g>
     <g id="text_25">
      <!-- 25 -->
      <g transform="translate(431.087385 109.277656) scale(0.06 -0.06)">
       <use xlink:href="#ArialMT-32"/>
       <use xlink:href="#ArialMT-35" x="55.615234"/>
      </g>
     </g>
    </g>
    <g id="xtick_12">
     <g id="line2d_28">
      <g>
       <use xlink:href="#m90a2f6d415" x="465.254604" y="99.982969" style="stroke: #000000; stroke-width: 0.8"/>
      </g>
     </g>
     <g id="text_26">
      <!-- 30 -->
      <g transform="translate(461.918042 109.277656) scale(0.06 -0.06)">
       <defs>
        <path id="ArialMT-33" d="M 269 1209 
L 831 1284 
Q 928 806 1161 595 
Q 1394 384 1728 384 
Q 2125 384 2398 659 
Q 2672 934 2672 1341 
Q 2672 1728 2419 1979 
Q 2166 2231 1775 2231 
Q 1616 2231 1378 2169 
L 1441 2663 
Q 1497 2656 1531 2656 
Q 1891 2656 2178 2843 
Q 2466 3031 2466 3422 
Q 2466 3731 2256 3934 
Q 2047 4138 1716 4138 
Q 1388 4138 1169 3931 
Q 950 3725 888 3313 
L 325 3413 
Q 428 3978 793 4289 
Q 1159 4600 1703 4600 
Q 2078 4600 2393 4439 
Q 2709 4278 2876 4000 
Q 3044 3722 3044 3409 
Q 3044 3113 2884 2869 
Q 2725 2625 2413 2481 
Q 2819 2388 3044 2092 
Q 3269 1797 3269 1353 
Q 3269 753 2831 336 
Q 2394 -81 1725 -81 
Q 1122 -81 723 278 
Q 325 638 269 1209 
z
" transform="scale(0.015625)"/>
       </defs>
       <use xlink:href="#ArialMT-33"/>
       <use xlink:href="#ArialMT-30" x="55.615234"/>
      </g>
     </g>
    </g>
    <g id="text_27">
     <!-- Time [ms] -->
     <g transform="translate(364.47125 119.480625) scale(0.07 -0.07)">
      <use xlink:href="#ArialMT-54"/>
      <use xlink:href="#ArialMT-69" x="57.333984"/>
      <use xlink:href="#ArialMT-6d" x="79.550781"/>
      <use xlink:href="#ArialMT-65" x="162.851562"/>
      <use xlink:href="#ArialMT-20" x="218.466797"/>
      <use xlink:href="#ArialMT-5b" x="246.25"/>
      <use xlink:href="#ArialMT-6d" x="274.033203"/>
      <use xlink:href="#ArialMT-73" x="357.333984"/>
      <use xlink:href="#ArialMT-5d" x="407.333984"/>
     </g>
    </g>
   </g>
   <g id="matplotlib.axis_4">
    <g id="ytick_8">
     <g id="line2d_29">
      <g>
       <use xlink:href="#mf8ca95bd8d" x="274.104531" y="91.287377" style="stroke: #000000; stroke-width: 0.8"/>
      </g>
     </g>
     <g id="text_28">
      <!-- −60 -->
      <g transform="translate(258.927031 93.43472) scale(0.06 -0.06)">
       <use xlink:href="#ArialMT-2212"/>
       <use xlink:href="#ArialMT-36" x="58.398438"/>
       <use xlink:href="#ArialMT-30" x="114.013672"/>
      </g>
     </g>
    </g>
    <g id="ytick_9">
     <g id="line2d_30">
      <g>
       <use xlink:href="#mf8ca95bd8d" x="274.104531" y="79.693254" style="stroke: #000000; stroke-width: 0.8"/>
      </g>
     </g>
     <g id="text_29">
      <!-- −40 -->
      <g transform="translate(258.927031 81.840598) scale(0.06 -0.06)">
       <use xlink:href="#ArialMT-2212"/>
       <use xlink:href="#ArialMT-34" x="58.398438"/>
       <use xlink:href="#ArialMT-30" x="114.013672"/>
      </g>
     </g>
    </g>
    <g id="ytick_10">
     <g id="line2d_31">
      <g>
       <use xlink:href="#mf8ca95bd8d" x="274.104531" y="68.099131" style="stroke: #000000; stroke-width: 0.8"/>
      </g>
     </g>
     <g id="text_30">
      <!-- −20 -->
      <g transform="translate(258.927031 70.246475) scale(0.06 -0.06)">
       <use xlink:href="#ArialMT-2212"/>
       <use xlink:href="#ArialMT-32" x="58.398438"/>
       <use xlink:href="#ArialMT-30" x="114.013672"/>
      </g>
     </g>
    </g>
    <g id="ytick_11">
     <g id="line2d_32">
      <g>
       <use xlink:href="#mf8ca95bd8d" x="274.104531" y="56.505009" style="stroke: #000000; stroke-width: 0.8"/>
      </g>
     </g>
     <g id="text_31">
      <!-- 0 -->
      <g transform="translate(265.767969 58.652352) scale(0.06 -0.06)">
       <use xlink:href="#ArialMT-30"/>
      </g>
     </g>
    </g>
    <g id="ytick_12">
     <g id="line2d_33">
      <g>
       <use xlink:href="#mf8ca95bd8d" x="274.104531" y="44.910886" style="stroke: #000000; stroke-width: 0.8"/>
      </g>
     </g>
     <g id="text_32">
      <!-- 20 -->
      <g transform="translate(262.431406 47.05823) scale(0.06 -0.06)">
       <use xlink:href="#ArialMT-32"/>
       <use xlink:href="#ArialMT-30" x="55.615234"/>
      </g>
     </g>
    </g>
    <g id="ytick_13">
     <g id="line2d_34">
      <g>
       <use xlink:href="#mf8ca95bd8d" x="274.104531" y="33.316763" style="stroke: #000000; stroke-width: 0.8"/>
      </g>
     </g>
     <g id="text_33">
      <!-- 40 -->
      <g transform="translate(262.431406 35.464107) scale(0.06 -0.06)">
       <use xlink:href="#ArialMT-34"/>
       <use xlink:href="#ArialMT-30" x="55.615234"/>
      </g>
     </g>
    </g>
    <g id="ytick_14">
     <g id="line2d_35">
      <g>
       <use xlink:href="#mf8ca95bd8d" x="274.104531" y="21.722641" style="stroke: #000000; stroke-width: 0.8"/>
      </g>
     </g>
     <g id="text_34">
      <!-- 60 -->
      <g transform="translate(262.431406 23.869984) scale(0.06 -0.06)">
       <use xlink:href="#ArialMT-36"/>
       <use xlink:href="#ArialMT-30" x="55.615234"/>
      </g>
     </g>
    </g>
    <g id="text_35">
     <!-- Amplitude [mT/m, mG] -->
     <g transform="translate(253.535781 91.50829) rotate(-90) scale(0.07 -0.07)">
      <use xlink:href="#ArialMT-41"/>
      <use xlink:href="#ArialMT-6d" x="66.699219"/>
      <use xlink:href="#ArialMT-70" x="150"/>
      <use xlink:href="#ArialMT-6c" x="205.615234"/>
      <use xlink:href="#ArialMT-69" x="227.832031"/>
      <use xlink:href="#ArialMT-74" x="250.048828"/>
      <use xlink:href="#ArialMT-75" x="277.832031"/>
      <use xlink:href="#ArialMT-64" x="333.447266"/>
      <use xlink:href="#ArialMT-65" x="389.0625"/>
      <use xlink:href="#ArialMT-20" x="444.677734"/>
      <use xlink:href="#ArialMT-5b" x="472.460938"/>
      <use xlink:href="#ArialMT-6d" x="500.244141"/>
      <use xlink:href="#ArialMT-54" x="583.544922"/>
      <use xlink:href="#ArialMT-2f" x="644.628906"/>
      <use xlink:href="#ArialMT-6d" x="672.412109"/>
      <use xlink:href="#ArialMT-2c" x="755.712891"/>
      <use xlink:href="#ArialMT-20" x="783.496094"/>
      <use xlink:href="#ArialMT-6d" x="811.279297"/>
      <use xlink:href="#ArialMT-47" x="894.580078"/>
      <use xlink:href="#ArialMT-5d" x="972.363281"/>
     </g>
    </g>
   </g>
   <g id="line2d_36">
    <path d="M 274.104531 56.505009 
L 485.294531 56.505009 
" clip-path="url(#p055442615d)" style="fill: none; stroke: #555555; stroke-width: 0.8; stroke-linecap: square"/>
   </g>
   <g id="line2d_37">
    <path d="M 318.007387 56.505009 
L 318.223201 53.330675 
L 318.284863 53.003462 
L 318.346524 53.059432 
L 318.531508 54.696985 
L 319.456428 64.798474 
L 319.57975 65.018718 
L 319.641412 64.993022 
L 319.764734 64.680215 
L 320.011379 63.110242 
L 320.443009 58.178849 
L 321.491251 45.231422 
L 321.861219 43.248763 
L 322.046203 43.009336 
L 322.169525 43.132058 
L 322.354509 43.727342 
L 322.662816 45.731633 
L 323.094445 50.256906 
L 324.944285 72.225465 
L 325.252591 73.521074 
L 325.437575 73.777867 
L 325.560898 73.729393 
L 325.745882 73.331162 
L 326.054188 71.83529 
L 326.485817 68.189054 
L 327.102431 60.701939 
L 328.643963 40.991831 
L 329.137254 37.434938 
L 329.44556 36.33256 
L 329.692206 36.11305 
L 329.87719 36.337473 
L 330.123835 37.144944 
L 330.493803 39.384074 
L 330.987093 44.032787 
L 331.727029 53.444423 
L 333.206901 72.670501 
L 333.761852 77.26264 
L 334.193482 79.19518 
L 334.440127 79.594583 
L 334.625111 79.550532 
L 334.810095 79.213532 
L 335.118401 78.017132 
L 335.550031 75.095889 
L 336.104982 69.525196 
L 336.968241 58.235325 
L 338.386451 39.686462 
L 339.003064 34.209153 
L 339.434693 31.89388 
L 339.743 31.095172 
L 339.927984 30.969552 
L 340.112968 31.110351 
L 340.359613 31.708246 
L 340.66792 33.095394 
L 341.099549 36.150075 
L 341.716162 42.426167 
L 342.641082 54.572486 
L 344.182614 74.734415 
L 344.860889 80.756486 
L 345.354179 83.351695 
L 345.662486 84.121518 
L 345.909131 84.249226 
L 346.094115 84.059238 
L 346.34076 83.429138 
L 346.710728 81.701573 
L 347.204019 78.04509 
L 347.820632 71.639436 
L 348.807213 58.656966 
L 350.410407 37.561706 
L 351.088682 31.24678 
L 351.581972 28.264023 
L 351.95194 27.03328 
L 352.198585 26.713857 
L 352.383569 26.740487 
L 352.630214 27.129732 
L 352.938521 28.175067 
L 353.37015 30.635506 
L 353.925102 35.344222 
L 354.665038 43.813355 
L 357.56312 79.784666 
L 358.179733 84.150766 
L 358.673023 86.214288 
L 358.98133 86.824044 
L 359.227975 86.93145 
L 359.412959 86.791632 
L 359.659604 86.316157 
L 360.029572 85.003096 
L 360.522863 82.205196 
L 361.139476 77.236017 
L 362.002734 68.206424 
L 365.0858 33.903559 
L 365.764074 29.36808 
L 366.319026 27.059739 
L 366.688994 26.268128 
L 366.997301 26.073073 
L 367.243946 26.219921 
L 367.552252 26.775857 
L 367.92222 27.97211 
L 368.415511 30.411814 
L 369.032124 34.672785 
L 369.895382 42.432775 
L 371.375254 58.306189 
L 372.855125 73.437731 
L 373.718384 80.261577 
L 374.396658 84.077637 
L 374.95161 86.040026 
L 375.383239 86.803917 
L 375.691546 86.934927 
L 375.938191 86.791931 
L 376.246498 86.307885 
L 376.616466 85.291132 
L 377.109756 83.232648 
L 377.726369 79.631513 
L 378.527966 73.522646 
L 379.699531 62.637822 
L 382.227645 38.699233 
L 383.152565 32.236554 
L 383.830839 28.852209 
L 384.385791 27.050141 
L 384.81742 26.282034 
L 385.125727 26.078573 
L 385.372372 26.122926 
L 385.680679 26.434893 
L 386.050647 27.178305 
L 386.543937 28.772157 
L 387.16055 31.665498 
L 387.900486 36.295648 
L 388.887067 43.994285 
L 390.736906 60.666845 
L 392.278439 73.645413 
L 393.26502 80.162836 
L 394.004956 83.739242 
L 394.621569 85.734896 
L 395.11486 86.647181 
L 395.484828 86.923281 
L 395.793134 86.885487 
L 396.101441 86.606147 
L 396.471409 85.957644 
L 396.964699 84.578671 
L 397.581312 82.077895 
L 398.321248 78.057497 
L 399.307829 71.293901 
L 400.787701 59.295029 
L 403.069169 40.837412 
L 404.117412 34.083768 
L 404.919009 30.156673 
L 405.597283 27.815317 
L 406.152235 26.620818 
L 406.583864 26.155322 
L 406.953832 26.082101 
L 407.262139 26.249926 
L 407.632106 26.722414 
L 408.125397 27.800937 
L 408.680349 29.59944 
L 409.358623 32.573881 
L 410.221882 37.432888 
L 411.331785 45.035128 
L 413.551593 62.239153 
L 415.154787 73.711778 
L 416.203029 79.723488 
L 417.066287 83.438023 
L 417.744562 85.456819 
L 418.299514 86.479428 
L 418.731143 86.872382 
L 419.101111 86.92685 
L 419.471079 86.721768 
L 419.902708 86.158999 
L 420.395998 85.100491 
L 421.012612 83.183526 
L 421.752547 80.0813 
L 422.677467 75.140208 
L 423.910693 67.162086 
L 428.596953 35.326135 
L 429.521873 31.077249 
L 430.32347 28.384546 
L 430.940083 26.997202 
L 431.433374 26.334413 
L 431.865003 26.086047 
L 432.234971 26.120137 
L 432.604939 26.380734 
L 433.036568 26.966773 
L 433.59152 28.154066 
L 434.269794 30.234944 
L 435.071391 33.511102 
L 436.057972 38.58411 
L 437.35286 46.543539 
L 442.03912 76.66458 
L 443.025701 81.151321 
L 443.888959 84.10005 
L 444.567233 85.70827 
L 445.122185 86.535552 
L 445.615476 86.893274 
L 445.985444 86.926827 
L 446.355412 86.759857 
L 446.787041 86.314403 
L 447.033686 85.940578 
L 447.21867 83.764822 
L 449.253493 56.779943 
L 449.315155 56.779943 
L 449.345985 56.505009 
M 449.345985 56.505009 
L 449.345985 56.779943 
L 479.1284 56.505009 
L 479.1284 56.505009 
" clip-path="url(#p055442615d)" style="fill: none; stroke: #6699cc; stroke-width: 0.8; stroke-linecap: square"/>
   </g>
   <g id="line2d_38">
    <path d="M 318.007387 56.505009 
L 318.099879 56.341079 
L 318.223201 55.423105 
L 318.654831 51.072854 
L 318.778153 50.801547 
L 318.839814 50.846744 
L 318.963137 51.282882 
L 319.209782 53.334242 
L 319.826395 61.545939 
L 320.319686 66.547972 
L 320.566331 67.593574 
L 320.689654 67.703687 
L 320.812977 67.541077 
L 320.99796 66.808639 
L 321.306267 64.433647 
L 321.799558 58.508617 
L 322.971122 43.904132 
L 323.34109 41.612527 
L 323.587736 41.033145 
L 323.711058 41.037967 
L 323.896042 41.409224 
L 324.142687 42.556165 
L 324.512655 45.526495 
L 325.067607 52.079477 
L 326.60914 71.54477 
L 327.040769 74.412647 
L 327.349076 75.320765 
L 327.53406 75.386382 
L 327.719044 75.0928 
L 327.965689 74.157485 
L 328.335657 71.67014 
L 328.828947 66.654661 
L 329.692206 55.131319 
L 330.740448 41.700725 
L 331.2954 36.995498 
L 331.665368 35.242843 
L 331.912013 34.752168 
L 332.096997 34.74841 
L 332.281981 35.055702 
L 332.528626 35.938635 
L 332.898594 38.22092 
L 333.391885 42.826506 
L 334.13182 52.102611 
L 335.796676 73.735625 
L 336.351628 78.310977 
L 336.783257 80.319598 
L 337.091563 80.84445 
L 337.276547 80.787012 
L 337.461531 80.451616 
L 337.769838 79.289203 
L 338.201467 76.470033 
L 338.756419 71.082519 
L 339.619677 60.020372 
L 341.284533 38.299746 
L 341.901146 32.994924 
L 342.332775 30.751079 
L 342.641082 29.968559 
L 342.887727 29.850656 
L 343.072711 30.059563 
L 343.319356 30.729529 
L 343.689324 32.54455 
L 344.182614 36.354763 
L 344.860889 43.722192 
L 346.032454 59.639296 
L 347.26568 75.401636 
L 347.943955 81.477414 
L 348.437245 84.189651 
L 348.807213 85.166815 
L 349.053858 85.296206 
L 349.238842 85.117833 
L 349.485487 84.516454 
L 349.855455 82.857499 
L 350.348746 79.328667 
L 350.965359 73.106489 
L 351.890279 61.192013 
L 353.801779 36.090815 
L 354.480054 30.029299 
L 354.973344 27.331263 
L 355.343312 26.290618 
L 355.589958 26.074088 
L 355.774941 26.161184 
L 356.021587 26.604801 
L 356.329893 27.670346 
L 356.761522 30.060845 
L 357.316474 34.505773 
L 358.118071 43.049978 
L 359.844588 64.929572 
L 360.892831 76.552285 
L 361.632766 82.509986 
L 362.187718 85.399452 
L 362.619347 86.622047 
L 362.927654 86.931304 
L 363.112638 86.891229 
L 363.359283 86.577609 
L 363.66759 85.776552 
L 364.099219 83.925344 
L 364.654171 80.40034 
L 365.394106 74.023487 
L 366.442349 62.788253 
L 368.662156 38.506285 
L 369.463753 32.094981 
L 370.080366 28.627865 
L 370.573657 26.888623 
L 370.943625 26.216644 
L 371.251931 26.075934 
L 371.498577 26.236486 
L 371.806883 26.773132 
L 372.176851 27.895396 
L 372.670141 30.158694 
L 373.286755 34.098058 
L 374.088352 40.727957 
L 375.321578 53.011289 
L 377.356401 73.2423 
L 378.281321 80.241058 
L 378.959595 83.920732 
L 379.514547 85.880928 
L 379.946177 86.713995 
L 380.254483 86.931709 
L 380.501128 86.879508 
L 380.809435 86.534164 
L 381.179403 85.717581 
L 381.672693 83.974577 
L 382.289306 80.824696 
L 383.029242 75.813826 
L 384.077485 67.001777 
L 387.653841 35.352351 
L 388.455438 30.652168 
L 389.133712 27.900707 
L 389.627003 26.668882 
L 390.058632 26.141682 
L 390.366939 26.082442 
L 390.675245 26.286272 
L 391.045213 26.872779 
L 391.476842 28.014749 
L 392.031794 30.169111 
L 392.710068 33.754447 
L 393.573327 39.587678 
L 394.806553 49.623425 
L 397.766296 74.330178 
L 398.752877 80.463704 
L 399.492813 83.837976 
L 400.109426 85.737474 
L 400.602717 86.624775 
L 400.972685 86.91319 
L 401.280991 86.9058 
L 401.589298 86.674675 
L 401.959266 86.106462 
L 402.452556 84.8696 
L 403.069169 82.594806 
L 403.809105 78.89819 
L 404.734025 73.039787 
L 406.028912 63.248251 
L 409.173639 38.897461 
L 410.16022 33.10224 
L 410.961817 29.556089 
L 411.640092 27.485811 
L 412.195044 26.468444 
L 412.626673 26.109533 
L 412.996641 26.104774 
L 413.366609 26.377835 
L 413.798238 27.04169 
L 414.291528 28.241883 
L 414.908141 30.369415 
L 415.648077 33.761078 
L 416.572997 39.093182 
L 417.867885 48.029536 
L 421.690886 75.388365 
L 422.677467 80.565107 
L 423.479064 83.734034 
L 424.157339 85.598794 
L 424.71229 86.534519 
L 425.14392 86.885906 
L 425.513887 86.92327 
L 425.883855 86.718162 
L 426.315485 86.176514 
L 426.808775 85.168824 
L 427.425388 83.352115 
L 428.165324 80.41617 
L 429.090244 75.734433 
L 430.261809 68.54882 
L 432.296632 54.358133 
L 434.269794 41.141199 
L 435.441359 34.684802 
L 436.366279 30.704001 
L 437.167876 28.194486 
L 437.784489 26.909506 
L 438.277779 26.301946 
L 438.709409 26.08164 
L 439.079377 26.124551 
L 439.449344 26.380003 
L 439.880974 26.942796 
L 440.435925 28.074205 
L 441.1142 30.050599 
L 441.915797 33.160208 
L 442.902378 37.982911 
L 444.197266 45.584222 
L 446.663718 61.827372 
L 447.21867 64.819627 
L 447.465315 65.018059 
L 447.650299 64.857285 
L 447.896944 64.282099 
L 448.266912 62.786432 
L 448.883525 59.168095 
L 449.345985 56.505009 
M 449.345985 56.505009 
L 449.345985 56.659886 
L 479.1284 56.505009 
L 479.1284 56.505009 
" clip-path="url(#p055442615d)" style="fill: none; stroke: #ff6666; stroke-width: 0.8; stroke-linecap: square"/>
   </g>
   <g id="line2d_39">
    <path d="M 280.270663 56.505009 
L 281.010598 42.889682 
L 293.342861 42.889682 
L 294.082797 56.505009 
M 294.082797 56.505009 
L 296.302604 96.59452 
L 296.302604 96.59452 
L 298.522412 56.505009 
M 449.345985 56.505009 
L 451.504131 15.983211 
L 476.970254 15.983211 
L 479.1284 56.505009 
" clip-path="url(#p055442615d)" style="fill: none; stroke: #669966; stroke-width: 0.8; stroke-linecap: square"/>
   </g>
   <g id="line2d_40">
    <path d="M 281.013681 56.505009 
L 281.124672 56.482036 
L 281.599464 56.371679 
L 281.710454 56.33858 
L 282.055758 56.229176 
L 282.166748 56.187545 
L 282.475055 56.077644 
L 282.586045 56.036999 
L 283.048505 55.925912 
L 283.159495 55.918832 
L 283.609623 56.028842 
L 283.720613 56.104064 
L 283.856268 56.214163 
L 283.967258 56.339922 
L 284.05975 56.449284 
L 284.090581 56.50061 
L 284.170741 56.388872 
L 284.238568 56.287373 
L 284.349559 56.073334 
L 284.41122 55.96226 
L 284.52221 55.707554 
L 284.571539 55.606912 
L 284.68253 55.315868 
L 284.725693 55.218701 
L 284.836683 54.895255 
L 284.879846 54.788382 
L 284.990836 54.436205 
L 285.027833 54.340297 
L 285.138823 53.965034 
L 285.17582 53.863719 
L 285.286811 53.470713 
L 285.323807 53.365509 
L 285.434798 52.960916 
L 285.471794 52.853539 
L 285.582785 52.444195 
L 285.619782 52.336517 
L 285.730772 51.929766 
L 285.767769 51.823772 
L 285.878759 51.42728 
L 285.915756 51.325009 
L 286.026746 50.946556 
L 286.063743 50.850049 
L 286.174733 50.497309 
L 286.217896 50.391023 
L 286.328887 50.072878 
L 286.378216 49.96333 
L 286.489206 49.68896 
L 286.544701 49.584149 
L 286.655692 49.362628 
L 286.729685 49.252939 
L 286.840676 49.097326 
L 286.963998 48.986411 
L 287.074989 48.921758 
L 287.451123 49.027549 
L 287.562113 49.157511 
L 287.642273 49.262328 
L 287.753263 49.462625 
L 287.814924 49.571515 
L 287.925915 49.829045 
L 287.975244 49.932839 
L 288.086234 50.236689 
L 288.129397 50.338881 
L 288.240387 50.680059 
L 288.277384 50.773887 
L 288.388375 51.143584 
L 288.425371 51.243931 
L 288.536362 51.634569 
L 288.573359 51.739408 
L 288.684349 52.143221 
L 288.721346 52.250504 
L 288.832336 52.659758 
L 288.869333 52.767474 
L 288.980323 53.174681 
L 289.01732 53.28091 
L 289.12831 53.679023 
L 289.165307 53.781986 
L 289.276298 54.164574 
L 289.313294 54.262674 
L 289.424285 54.624077 
L 289.467448 54.734136 
L 289.578438 55.068407 
L 289.621601 55.169201 
L 289.732591 55.472259 
L 289.78192 55.577497 
L 289.892911 55.845006 
L 289.948406 55.949536 
L 290.059396 56.178186 
L 290.127224 56.287373 
L 290.238214 56.473686 
L 290.367703 56.369698 
L 290.478693 56.238522 
L 290.608182 56.12763 
L 290.719172 56.046498 
L 291.00898 55.936199 
L 291.119971 55.920914 
L 291.755082 56.030836 
L 291.866073 56.071075 
L 292.174379 56.180856 
L 292.28537 56.222702 
L 292.630673 56.333126 
L 292.741663 56.366618 
L 293.210289 56.476925 
L 293.32128 56.500737 
L 293.339778 56.503182 
L 293.339778 56.505009 
" clip-path="url(#p055442615d)" style="fill: none; stroke: #cc66cc; stroke-width: 0.8; stroke-linecap: square"/>
   </g>
   <g id="legend_2">
    <g id="line2d_41">
     <path d="M 282.516431 13.291457 
L 286.016431 13.291457 
L 289.516431 13.291457 
" style="fill: none; stroke: #6699cc; stroke-width: 0.8; stroke-linecap: square"/>
    </g>
    <g id="text_36">
     <!-- $G_{x}$ -->
     <g transform="translate(293.016431 15.741457) scale(0.07 -0.07)">
      <use xlink:href="#ArialMT-47" transform="translate(0 0.203125)"/>
      <use xlink:href="#ArialMT-78" transform="translate(79.525547 -29.665625) scale(0.7)"/>
     </g>
    </g>
    <g id="line2d_42">
     <path d="M 308.416431 13.291457 
L 311.916431 13.291457 
L 315.416431 13.291457 
" style="fill: none; stroke: #ff6666; stroke-width: 0.8; stroke-linecap: square"/>
    </g>
    <g id="text_37">
     <!-- $G_{y}$ -->
     <g transform="translate(318.916431 15.741457) scale(0.07 -0.07)">
      <use xlink:href="#ArialMT-47" transform="translate(0 0.203125)"/>
      <use xlink:href="#ArialMT-79" transform="translate(79.525547 -29.665625) scale(0.7)"/>
     </g>
    </g>
    <g id="line2d_43">
     <path d="M 334.316431 13.291457 
L 337.816431 13.291457 
L 341.316431 13.291457 
" style="fill: none; stroke: #669966; stroke-width: 0.8; stroke-linecap: square"/>
    </g>
    <g id="text_38">
     <!-- $G_{z}$ -->
     <g transform="translate(344.816431 15.741457) scale(0.07 -0.07)">
      <use xlink:href="#ArialMT-47" transform="translate(0 0.203125)"/>
      <use xlink:href="#ArialMT-7a" transform="translate(79.525547 -29.665625) scale(0.7)"/>
     </g>
    </g>
    <g id="line2d_44">
     <path d="M 360.216431 13.291457 
L 363.716431 13.291457 
L 367.216431 13.291457 
" style="fill: none; stroke: #cc66cc; stroke-width: 0.8; stroke-linecap: square"/>
    </g>
    <g id="text_39">
     <!-- $|B_{1}|$ -->
     <g transform="translate(370.716431 15.741457) scale(0.07 -0.07)">
      <use xlink:href="#ArialMT-7c" transform="translate(0 0.203125)"/>
      <use xlink:href="#ArialMT-42" transform="translate(25.976562 0.203125)"/>
      <use xlink:href="#ArialMT-31" transform="translate(94.418125 -29.665625) scale(0.7)"/>
      <use xlink:href="#ArialMT-7c" transform="translate(138.326914 0.203125)"/>
     </g>
    </g>
    <g id="PathCollection_4">
     <g>
      <use xlink:href="#mc646ee4815" x="392.766431" y="13.291457" style="fill: #555555; stroke: #555555; stroke-width: 0.5"/>
     </g>
    </g>
    <g id="text_40">
     <!-- $Trigger$ -->
     <g transform="translate(399.766431 15.741457) scale(0.07 -0.07)">
      <use xlink:href="#ArialMT-54" transform="translate(0 0.421875)"/>
      <use xlink:href="#ArialMT-72" transform="translate(61.083984 0.421875)"/>
      <use xlink:href="#ArialMT-69" transform="translate(94.384766 0.421875)"/>
      <use xlink:href="#ArialMT-67" transform="translate(116.601562 0.421875)"/>
      <use xlink:href="#ArialMT-67" transform="translate(172.216797 0.421875)"/>
      <use xlink:href="#ArialMT-65" transform="translate(227.832031 0.421875)"/>
      <use xlink:href="#ArialMT-72" transform="translate(283.447266 0.421875)"/>
     </g>
    </g>
   </g>
  </g>
  <g id="text_41">
   <!-- (a) -->
   <g transform="translate(3.614531 10.151719) scale(0.09 -0.09)">
    <defs>
     <path id="ArialMT-28" d="M 1497 -1347 
Q 1031 -759 709 28 
Q 388 816 388 1659 
Q 388 2403 628 3084 
Q 909 3875 1497 4659 
L 1900 4659 
Q 1522 4009 1400 3731 
Q 1209 3300 1100 2831 
Q 966 2247 966 1656 
Q 966 153 1900 -1347 
L 1497 -1347 
z
" transform="scale(0.015625)"/>
     <path id="ArialMT-61" d="M 2588 409 
Q 2275 144 1986 34 
Q 1697 -75 1366 -75 
Q 819 -75 525 192 
Q 231 459 231 875 
Q 231 1119 342 1320 
Q 453 1522 633 1644 
Q 813 1766 1038 1828 
Q 1203 1872 1538 1913 
Q 2219 1994 2541 2106 
Q 2544 2222 2544 2253 
Q 2544 2597 2384 2738 
Q 2169 2928 1744 2928 
Q 1347 2928 1158 2789 
Q 969 2650 878 2297 
L 328 2372 
Q 403 2725 575 2942 
Q 747 3159 1072 3276 
Q 1397 3394 1825 3394 
Q 2250 3394 2515 3294 
Q 2781 3194 2906 3042 
Q 3031 2891 3081 2659 
Q 3109 2516 3109 2141 
L 3109 1391 
Q 3109 606 3145 398 
Q 3181 191 3288 0 
L 2700 0 
Q 2613 175 2588 409 
z
M 2541 1666 
Q 2234 1541 1622 1453 
Q 1275 1403 1131 1340 
Q 988 1278 909 1158 
Q 831 1038 831 891 
Q 831 666 1001 516 
Q 1172 366 1500 366 
Q 1825 366 2078 508 
Q 2331 650 2450 897 
Q 2541 1088 2541 1459 
L 2541 1666 
z
" transform="scale(0.015625)"/>
     <path id="ArialMT-29" d="M 791 -1347 
L 388 -1347 
Q 1322 153 1322 1656 
Q 1322 2244 1188 2822 
Q 1081 3291 891 3722 
Q 769 4003 388 4659 
L 791 4659 
Q 1378 3875 1659 3084 
Q 1900 2403 1900 1659 
Q 1900 816 1576 28 
Q 1253 -759 791 -1347 
z
" transform="scale(0.015625)"/>
    </defs>
    <use xlink:href="#ArialMT-28"/>
    <use xlink:href="#ArialMT-61" x="33.300781"/>
    <use xlink:href="#ArialMT-29" x="88.916016"/>
   </g>
  </g>
  <g id="text_42">
   <!-- (b) -->
   <g transform="translate(244.454531 10.151719) scale(0.09 -0.09)">
    <defs>
     <path id="ArialMT-62" d="M 941 0 
L 419 0 
L 419 4581 
L 981 4581 
L 981 2947 
Q 1338 3394 1891 3394 
Q 2197 3394 2470 3270 
Q 2744 3147 2920 2923 
Q 3097 2700 3197 2384 
Q 3297 2069 3297 1709 
Q 3297 856 2875 390 
Q 2453 -75 1863 -75 
Q 1275 -75 941 416 
L 941 0 
z
M 934 1684 
Q 934 1088 1097 822 
Q 1363 388 1816 388 
Q 2184 388 2453 708 
Q 2722 1028 2722 1663 
Q 2722 2313 2464 2622 
Q 2206 2931 1841 2931 
Q 1472 2931 1203 2611 
Q 934 2291 934 1684 
z
" transform="scale(0.015625)"/>
    </defs>
    <use xlink:href="#ArialMT-28"/>
    <use xlink:href="#ArialMT-62" x="33.300781"/>
    <use xlink:href="#ArialMT-29" x="88.916016"/>
   </g>
  </g>
 </g>
 <defs>
  <clipPath id="p818d7c93e3">
   <rect x="29.264531" y="13.027049" width="211.19" height="86.95592"/>
  </clipPath>
  <clipPath id="p055442615d">
   <rect x="274.104531" y="13.027049" width="211.19" height="86.95592"/>
  </clipPath>
 </defs>
</svg>
