<?xml version="1.0" encoding="utf-8" standalone="no"?>
<!DOCTYPE svg PUBLIC "-//W3C//DTD SVG 1.1//EN"
  "http://www.w3.org/Graphics/SVG/1.1/DTD/svg11.dtd">
<svg xmlns:xlink="http://www.w3.org/1999/xlink" width="569.091143pt" height="141.48pt" viewBox="0 0 569.091143 141.48" xmlns="http://www.w3.org/2000/svg" version="1.1">
 <metadata>
  <rdf:RDF xmlns:dc="http://purl.org/dc/elements/1.1/" xmlns:cc="http://creativecommons.org/ns#" xmlns:rdf="http://www.w3.org/1999/02/22-rdf-syntax-ns#">
   <cc:Work>
    <dc:type rdf:resource="http://purl.org/dc/dcmitype/StillImage"/>
    <dc:date>2025-03-26T16:24:22.718100</dc:date>
    <dc:format>image/svg+xml</dc:format>
    <dc:creator>
     <cc:Agent>
      <dc:title>Matplotlib v3.8.4, https://matplotlib.org/</dc:title>
     </cc:Agent>
    </dc:creator>
   </cc:Work>
  </rdf:RDF>
 </metadata>
 <defs>
  <style type="text/css">*{stroke-linejoin: round; stroke-linecap: butt}</style>
 </defs>
 <g id="figure_1">
  <g id="patch_1">
   <path d="M 0 141.48 
L 569.091143 141.48 
L 569.091143 0 
L 0 0 
L 0 141.48 
z
" style="fill: none"/>
  </g>
  <g id="axes_1">
   <g id="line2d_1">
    <path d="M 66.641456 72.789171 
L 67.003043 72.649806 
L 67.243028 72.331629 
L 67.300726 71.876697 
L 67.141142 71.382501 
L 66.766791 70.940979 
L 66.210223 70.62959 
L 65.529568 70.505369 
L 64.794987 70.599133 
L 64.075842 70.918546 
L 63.436308 71.451721 
L 62.932908 72.167099 
L 62.607514 73.021799 
L 62.489075 73.966054 
L 62.593141 74.946222 
L 62.92286 75.907791 
L 63.468862 76.799824 
L 64.210285 77.576053 
L 65.118035 78.197283 
L 66.155885 78.631528 
L 67.282505 78.85585 
L 68.45451 78.857727 
L 69.62717 78.632065 
L 70.721048 78.198932 
L 71.770564 77.540715 
L 72.699899 76.688339 
L 73.476154 75.666931 
L 74.071032 74.506773 
L 74.464086 73.242855 
L 74.639936 71.911343 
L 74.590786 70.551634 
L 74.315224 69.201512 
L 73.835861 67.941606 
L 73.157758 66.759145 
L 72.262858 65.650419 
L 71.192316 64.687255 
L 69.971178 63.896228 
L 68.629745 63.29829 
L 67.246628 62.919959 
L 65.759121 62.745791 
L 64.248095 62.797942 
L 62.747758 63.07818 
L 61.292177 63.584232 
L 59.958143 64.278783 
L 58.683586 65.19577 
L 57.54331 66.297098 
L 56.563084 67.561494 
L 55.764486 68.964045 
L 55.165484 70.477582 
L 54.779384 72.072597 
L 54.615593 73.718167 
L 54.678033 75.382986 
L 54.955294 76.980187 
L 55.4437 78.537172 
L 56.135826 80.025972 
L 57.020916 81.421252 
L 58.124479 82.740039 
L 59.400734 83.907849 
L 60.779039 84.872947 
L 62.277278 85.660166 
L 63.872157 86.255586 
L 65.59766 86.658518 
L 67.371105 86.836779 
L 69.163648 86.786933 
L 70.945833 86.508046 
L 72.631027 86.021329 
L 74.254153 85.328174 
L 75.790347 84.438876 
L 77.2166 83.365039 
L 78.511492 82.121049 
L 79.655922 80.724188 
L 80.632651 79.193596 
L 81.451039 77.492259 
L 82.061087 75.694719 
L 82.453021 73.827825 
L 82.617828 71.982161 
L 82.564883 70.057488 
L 82.295728 68.20773 
L 81.793522 66.331963 
L 81.070055 64.521272 
L 80.13555 62.800944 
L 79.042096 61.246259 
L 77.775536 59.819507 
L 76.350352 58.539047 
L 74.728733 57.386497 
L 72.978225 56.424495 
L 71.121655 55.666884 
L 69.247998 55.138678 
L 67.319989 54.819013 
L 65.361014 54.711472 
L 63.326144 54.825305 
L 61.37568 55.154369 
L 59.465222 55.696017 
L 57.616259 56.444101 
L 55.851508 57.389996 
L 54.135918 58.566363 
L 52.604533 59.881862 
L 51.170475 61.411281 
L 49.907058 63.094686 
L 48.829571 64.912563 
L 47.952005 66.843434 
L 47.303825 68.796609 
L 46.860326 70.81302 
L 46.626888 72.871058 
L 46.608796 75.020598 
L 46.80873 77.09499 
L 47.222751 79.143705 
L 47.846849 81.144382 
L 48.675055 83.076167 
L 49.697667 84.918793 
L 50.906033 86.652367 
L 52.287853 88.259316 
L 53.885684 89.769907 
L 55.637503 91.109082 
L 57.524286 92.262092 
L 59.458046 93.18759 
L 61.480683 93.917176 
L 63.572608 94.443002 
L 65.712973 94.759071 
L 67.955644 94.86204 
L 70.204216 94.736149 
L 72.361182 94.395757 
L 74.480898 93.841948 
L 76.542643 93.080788 
L 78.526498 92.118924 
L 80.476331 90.922536 
L 82.302825 89.532002 
L 83.986587 87.961178 
L 85.510785 86.225057 
L 86.85893 84.340473 
L 88.018856 82.325989 
L 88.948068 80.273669 
L 89.679596 78.136081 
L 90.22197 75.85644 
L 90.539539 73.528996 
L 90.629147 71.175754 
L 90.49094 68.819176 
L 90.13802 66.559951 
L 89.572409 64.339412 
L 88.769551 62.103238 
L 87.787952 60.020884 
L 86.570677 57.969072 
L 85.208354 56.102017 
L 83.674828 54.366496 
L 81.982703 52.777217 
L 80.146651 51.348503 
L 78.11168 50.053403 
L 75.958517 48.955393 
L 73.781691 48.091482 
L 71.529559 47.429523 
L 69.221332 46.975259 
L 66.875072 46.733155 
L 64.429793 46.707688 
L 61.986128 46.91157 
L 59.647555 47.327309 
L 57.34973 47.955597 
L 55.112645 48.789767 
L 52.881403 49.863541 
L 50.753935 51.142215 
L 48.813412 52.563656 
L 47.003227 54.156153 
L 45.282901 55.969554 
L 43.732623 57.938132 
L 42.365324 60.044991 
L 41.193709 62.271914 
L 40.226912 64.601369 
L 39.474909 67.01407 
L 38.943543 69.48977 
L 38.644486 71.923648 
L 38.559374 74.463311 
L 38.70205 77.005284 
L 39.058691 79.444246 
L 39.628521 81.846857 
L 40.43737 84.2743 
L 41.462274 86.623776 
L 42.651366 88.801695 
L 44.026586 90.872803 
L 45.634276 92.885816 
L 47.419185 94.750913 
L 49.366953 96.452082 
L 51.461798 97.976976 
L 53.611396 99.271122 
L 55.867625 100.378541 
L 58.298109 101.318657 
L 60.807093 102.042463 
L 63.375707 102.543164 
L 65.8955 102.811595 
L 68.52208 102.86477 
L 71.060783 102.698182 
L 73.581745 102.316253 
L 76.066678 101.720725 
L 78.579509 100.885222 
L 80.936191 99.871496 
L 83.203532 98.661399 
L 85.36685 97.263889 
L 87.478319 95.629688 
L 89.445198 93.816399 
L 91.252737 91.837149 
L 92.887718 89.706403 
L 94.336867 87.440841 
L 95.587839 85.058105 
L 96.601018 82.661891 
L 97.439884 80.104701 
L 98.059039 77.486394 
L 98.456833 74.824697 
L 98.630443 72.140404 
L 98.579512 69.451179 
L 98.305377 66.776311 
L 97.809757 64.134542 
L 97.095503 61.543752 
L 96.1695 59.021917 
L 95.038512 56.585459 
L 93.711816 54.250815 
L 92.198183 52.032933 
L 90.508269 49.947081 
L 88.654019 48.005811 
L 86.578852 46.165773 
L 84.431058 44.556702 
L 82.08312 43.081939 
L 79.620034 41.807204 
L 77.059181 40.740787 
L 74.418204 39.890441 
L 71.716958 39.260157 
L 68.972851 38.853154 
L 66.203432 38.671938 
L 63.428221 38.716326 
L 60.665375 38.985585 
L 57.93334 39.479093 
L 55.249142 40.192279 
L 52.630571 41.119487 
L 50.094319 42.253835 
L 47.656102 43.58749 
L 45.332113 45.11152 
L 43.135467 46.815596 
L 41.080318 48.688873 
L 39.17878 50.718289 
L 37.443153 52.890936 
L 35.882106 55.193177 
L 34.506655 57.610823 
L 33.573462 59.552327 
L 33.573462 59.552327 
" clip-path="url(#pd150b7e756)" style="fill: none; stroke: #1f77b4; stroke-width: 3; stroke-linecap: square"/>
   </g>
   <g id="line2d_2">
    <path d="M 33.573462 59.552327 
L 32.544431 62.137606 
L 31.718748 64.794772 
L 31.084918 67.59569 
L 30.685189 70.349082 
L 30.496644 73.214264 
L 30.534116 76.08534 
L 30.787045 78.854205 
L 31.270759 81.683124 
L 31.976043 84.464329 
L 32.866743 87.096891 
L 33.992651 89.735412 
L 35.27658 92.199104 
L 36.794425 94.632291 
L 37.306863 95.36744 
L 37.306863 95.36744 
" clip-path="url(#pd150b7e756)" style="fill: none; stroke: #ff7f0e; stroke-width: 3; stroke-linecap: square"/>
   </g>
   <g id="line2d_3">
    <path d="M 37.306863 95.36744 
L 39.064932 97.633194 
L 40.993734 99.755226 
L 43.080151 101.721406 
L 45.312364 103.5209 
L 47.676725 105.14217 
L 50.159436 106.57699 
L 52.744478 107.817488 
L 55.41639 108.857049 
L 58.161125 109.690327 
L 61.049062 110.328328 
L 63.888975 110.728794 
L 66.751518 110.915619 
L 69.710281 110.882869 
L 69.88904 110.873477 
L 69.88904 110.873477 
" clip-path="url(#pd150b7e756)" style="fill: none; stroke: #2ca02c; stroke-width: 3; stroke-linecap: square"/>
   </g>
   <g id="line2d_4">
    <path d="M 69.88904 110.873477 
L 72.835426 110.597508 
L 75.66394 110.111293 
L 78.534339 109.389579 
L 81.341531 108.449598 
L 83.987899 107.335127 
L 86.623071 105.983809 
L 89.146577 104.435751 
L 91.547286 102.700261 
L 93.809407 100.787248 
L 95.921961 98.710032 
L 97.871036 96.478325 
L 99.649219 94.106036 
L 100.920522 92.147384 
L 100.920522 92.147384 
" clip-path="url(#pd150b7e756)" style="fill: none; stroke: #d62728; stroke-width: 3; stroke-linecap: square"/>
   </g>
   <g id="line2d_5">
    <path d="M 100.920522 92.147384 
L 102.364796 89.558296 
L 103.61168 86.868488 
L 104.655218 84.093338 
L 105.48951 81.248441 
L 106.110651 78.349496 
L 106.516229 75.412904 
L 106.704477 72.453903 
L 106.671222 69.40038 
L 106.41765 66.447816 
L 105.946476 63.522138 
L 105.238711 60.552797 
L 104.338336 57.730683 
L 103.624962 55.889021 
L 103.624962 55.889021 
" clip-path="url(#pd150b7e756)" style="fill: none; stroke: #9467bd; stroke-width: 3; stroke-linecap: square"/>
   </g>
   <g id="line2d_6">
    <path d="M 103.624962 55.889021 
L 102.38951 53.196512 
L 100.914733 50.524751 
L 99.297148 48.043656 
L 97.503533 45.687428 
L 95.481998 43.402158 
L 93.297124 41.273397 
L 90.960126 39.312149 
L 88.484524 37.530175 
L 85.883597 35.934908 
L 83.253078 34.574798 
L 80.448989 33.372313 
L 77.478577 32.353488 
L 76.18593 31.987492 
L 76.18593 31.987492 
" clip-path="url(#pd150b7e756)" style="fill: none; stroke: #e377c2; stroke-width: 3; stroke-linecap: square"/>
   </g>
   <g id="line2d_7">
    <path d="M 76.18593 31.987492 
L 73.210753 31.310071 
L 70.193793 30.850743 
L 67.15204 30.611423 
L 64.099856 30.592848 
L 61.054567 30.793261 
L 58.031771 31.214393 
L 55.045756 31.852681 
L 52.114511 32.703734 
L 49.168308 33.795885 
L 46.389205 35.062709 
L 43.706654 36.523823 
L 41.062286 38.222565 
L 41.062286 38.222565 
" clip-path="url(#pd150b7e756)" style="fill: none; stroke: #bcbd22; stroke-width: 3; stroke-linecap: square"/>
   </g>
   <g id="line2d_8">
    <path d="M 41.062286 38.222565 
L 38.547415 40.111481 
L 36.177017 42.177803 
L 34.023317 44.345415 
L 31.970867 46.729658 
L 30.096477 49.256071 
L 28.408449 51.911458 
L 26.916669 54.681303 
L 25.660508 57.467363 
L 24.574595 60.419388 
L 23.700965 63.44211 
L 23.047493 66.519523 
L 22.693647 68.919534 
L 22.693647 68.919534 
" clip-path="url(#pd150b7e756)" style="fill: none; stroke: #17becf; stroke-width: 3; stroke-linecap: square"/>
   </g>
   <g id="line2d_9">
    <path d="M 22.693647 68.919534 
L 22.432764 72.054061 
L 22.394214 75.198221 
L 22.578368 78.336616 
L 22.985881 81.452693 
L 23.613309 84.531314 
L 24.457183 87.557503 
L 25.545917 90.599123 
L 26.812418 93.472111 
L 28.278221 96.248415 
L 29.93412 98.915267 
L 31.773004 101.458592 
L 33.134849 103.12447 
L 33.134849 103.12447 
" clip-path="url(#pd150b7e756)" style="fill: none; stroke: #1f77b4; stroke-width: 3; stroke-linecap: square"/>
   </g>
   <g id="line2d_10">
    <path d="M 33.134849 103.12447 
L 35.258964 105.434564 
L 37.539556 107.590373 
L 39.963157 109.581928 
L 42.519223 111.401285 
L 45.272905 113.082638 
L 48.057726 114.52703 
L 51.019654 115.808065 
L 54.062741 116.877273 
L 57.088128 117.707786 
L 60.251429 118.344756 
L 63.452464 118.758185 
L 65.240192 118.890282 
L 65.240192 118.890282 
" clip-path="url(#pd150b7e756)" style="fill: none; stroke: #ff7f0e; stroke-width: 3; stroke-linecap: square"/>
   </g>
   <g id="line2d_11">
    <path d="M 65.240192 118.890282 
L 68.46827 118.952898 
L 71.692857 118.791848 
L 74.898502 118.404661 
L 77.982336 117.814605 
L 81.105526 116.991546 
L 84.165331 115.954329 
L 87.14581 114.708143 
L 90.035784 113.258296 
L 92.817943 111.613922 
L 95.409299 109.83395 
L 97.946519 107.828808 
L 99.02732 106.882607 
L 99.02732 106.882607 
" clip-path="url(#pd150b7e756)" style="fill: none; stroke: #2ca02c; stroke-width: 3; stroke-linecap: square"/>
   </g>
   <g id="line2d_12">
    <path d="M 99.02732 106.882607 
L 101.353151 104.634638 
L 103.520762 102.232947 
L 105.519151 99.689388 
L 107.339641 97.01495 
L 108.975202 94.223738 
L 110.416662 91.32809 
L 111.659423 88.341694 
L 112.696519 85.278123 
L 113.52575 82.152282 
L 114.155134 78.890224 
L 114.551949 75.680467 
L 114.639362 74.51805 
L 114.639362 74.51805 
" clip-path="url(#pd150b7e756)" style="fill: none; stroke: #d62728; stroke-width: 3; stroke-linecap: square"/>
   </g>
   <g id="line2d_13">
    <path d="M 114.639362 74.51805 
L 114.740559 71.286876 
L 114.620017 67.967403 
L 114.283251 64.754386 
L 113.713713 61.483836 
L 112.921131 58.260562 
L 111.940766 55.183682 
L 110.721536 52.096709 
L 109.337814 49.180145 
L 107.670315 46.20788 
L 105.851784 43.433159 
L 103.850315 40.787169 
L 103.50901 40.371681 
L 103.50901 40.371681 
" clip-path="url(#pd150b7e756)" style="fill: none; stroke: #9467bd; stroke-width: 3; stroke-linecap: square"/>
   </g>
   <g id="line2d_14">
    <path d="M 103.50901 40.371681 
L 101.304468 37.891628 
L 98.938622 35.565595 
L 96.42019 33.404789 
L 93.762613 31.417852 
L 91.053015 29.660109 
L 88.155473 28.041601 
L 85.154962 26.62077 
L 82.065033 25.403704 
L 78.900218 24.396207 
L 75.675701 23.600563 
L 72.403674 23.021021 
L 72.048123 22.971468 
L 72.048123 22.971468 
" clip-path="url(#pd150b7e756)" style="fill: none; stroke: #e377c2; stroke-width: 3; stroke-linecap: square"/>
   </g>
   <g id="line2d_15">
    <path d="M 72.048123 22.971468 
L 68.740873 22.63544 
L 65.417864 22.519252 
L 62.094591 22.621326 
L 58.785004 22.943893 
L 55.415019 23.502844 
L 52.176907 24.265086 
L 48.996482 25.238121 
L 45.885414 26.418955 
L 42.858117 27.799702 
L 39.928319 29.3761 
L 37.032511 31.189933 
L 36.958105 31.240226 
L 36.958105 31.240226 
" clip-path="url(#pd150b7e756)" style="fill: none; stroke: #bcbd22; stroke-width: 3; stroke-linecap: square"/>
   </g>
   <g id="line2d_16">
    <path d="M 36.958105 31.240226 
L 34.193909 33.249431 
L 31.637246 35.378569 
L 29.161332 37.732473 
L 26.847059 40.245991 
L 24.704636 42.907641 
L 22.792584 45.629723 
L 21.015448 48.547381 
L 19.473784 51.494138 
L 18.090597 54.61724 
L 16.915468 57.823558 
L 16.068159 60.666932 
L 16.068159 60.666932 
" clip-path="url(#pd150b7e756)" style="fill: none; stroke: #17becf; stroke-width: 3; stroke-linecap: square"/>
   </g>
   <g id="line2d_17">
    <path d="M 16.068159 60.666932 
L 15.294996 63.993569 
L 14.741206 67.363498 
L 14.40906 70.761876 
L 14.29884 74.174934 
L 14.410035 77.587301 
L 14.744104 80.984122 
L 15.300052 84.352096 
L 16.073403 87.675754 
L 17.091532 91.026968 
L 18.259964 94.137385 
L 19.350326 96.59968 
L 19.350326 96.59968 
" clip-path="url(#pd150b7e756)" style="fill: none; stroke: #1f77b4; stroke-width: 3; stroke-linecap: square"/>
   </g>
   <g id="line2d_18">
    <path d="M 19.350326 96.59968 
L 20.909338 99.634518 
L 22.661946 102.561592 
L 24.599317 105.368818 
L 26.713876 108.045363 
L 28.995767 110.579615 
L 31.436272 112.961774 
L 34.023363 115.182931 
L 36.748599 117.233312 
L 39.674429 119.151317 
L 42.800087 120.916156 
L 44.974004 121.986997 
L 44.974004 121.986997 
" clip-path="url(#pd150b7e756)" style="fill: none; stroke: #ff7f0e; stroke-width: 3; stroke-linecap: square"/>
   </g>
   <g id="line2d_19">
    <path d="M 44.974004 121.986997 
L 48.110859 123.324689 
L 51.325315 124.460735 
L 54.692478 125.411875 
L 58.114912 126.143062 
L 61.576584 126.650442 
L 65.064326 126.934267 
L 68.563274 126.992414 
L 72.059211 126.826112 
L 75.537609 126.435457 
L 79.072306 125.803477 
L 80.909734 125.378467 
L 80.909734 125.378467 
" clip-path="url(#pd150b7e756)" style="fill: none; stroke: #2ca02c; stroke-width: 3; stroke-linecap: square"/>
   </g>
   <g id="line2d_20">
    <path d="M 80.909734 125.378467 
L 84.27786 124.421305 
L 87.577935 123.250068 
L 90.796489 121.870758 
L 93.921724 120.288659 
L 96.940767 118.510651 
L 99.766732 116.597144 
L 102.53988 114.454743 
L 105.172511 112.141828 
L 107.651924 109.666034 
L 109.970324 107.03854 
L 111.14937 105.564744 
L 111.14937 105.564744 
" clip-path="url(#pd150b7e756)" style="fill: none; stroke: #d62728; stroke-width: 3; stroke-linecap: square"/>
   </g>
   <g id="line2d_21">
    <path d="M 111.14937 105.564744 
L 113.202142 102.723535 
L 115.071618 99.759054 
L 116.750336 96.683189 
L 118.233042 93.507675 
L 119.513126 90.245722 
L 120.611084 86.823615 
L 121.467378 83.426171 
L 122.124268 79.89368 
L 122.553259 76.326399 
L 122.751081 72.829509 
L 122.768178 71.302899 
L 122.768178 71.302899 
" clip-path="url(#pd150b7e756)" style="fill: none; stroke: #9467bd; stroke-width: 3; stroke-linecap: square"/>
   </g>
   <g id="line2d_22">
    <path d="M 122.768178 71.302899 
L 122.655397 67.802299 
L 122.313863 64.226775 
L 121.761198 60.76948 
L 120.995667 57.353452 
L 119.992306 53.906194 
L 118.805567 50.612607 
L 117.380417 47.317976 
L 115.749976 44.120044 
L 113.920922 41.030174 
L 111.89907 38.064112 
L 111.150798 37.056477 
L 111.150798 37.056477 
" clip-path="url(#pd150b7e756)" style="fill: none; stroke: #e377c2; stroke-width: 3; stroke-linecap: square"/>
   </g>
   <g id="line2d_23">
    <path d="M 111.150798 37.056477 
L 108.885101 34.270822 
L 106.448174 31.634022 
L 103.850923 29.154571 
L 101.103073 26.842952 
L 98.214912 24.708658 
L 95.198942 22.757988 
L 92.0662 21.000077 
L 88.830545 19.440178 
L 85.503111 18.085749 
L 82.010692 16.91352 
L 81.235511 16.687156 
L 81.235511 16.687156 
" clip-path="url(#pd150b7e756)" style="fill: none; stroke: #bcbd22; stroke-width: 3; stroke-linecap: square"/>
   </g>
   <g id="line2d_24">
    <path d="M 81.235511 16.687156 
L 77.749843 15.809701 
L 74.305464 15.163763 
L 70.73934 14.718459 
L 67.150667 14.494264 
L 63.556118 14.491192 
L 60.056601 14.700395 
L 56.487652 15.133676 
L 52.865089 15.805576 
L 49.378051 16.678627 
L 45.864407 17.79435 
L 45.020228 18.099515 
L 45.020228 18.099515 
" clip-path="url(#pd150b7e756)" style="fill: none; stroke: #17becf; stroke-width: 3; stroke-linecap: square"/>
   </g>
   <g id="line2d_25">
    <path d="M 45.020228 18.099515 
L 41.68724 19.450131 
L 38.443096 21.001523 
L 35.22262 22.793473 
L 32.193496 24.732497 
L 29.28742 26.851224 
L 26.516252 29.142226 
L 23.887535 31.59724 
L 21.412309 34.207096 
L 19.043739 37.032242 
L 16.90724 39.922654 
L 16.500086 40.517244 
L 16.500086 40.517244 
" clip-path="url(#pd150b7e756)" style="fill: none; stroke: #1f77b4; stroke-width: 3; stroke-linecap: square"/>
   </g>
   <g id="line2d_26">
    <path d="M 16.500086 40.517244 
L 14.576748 43.556639 
L 12.79899 46.785896 
L 11.223177 50.118146 
L 9.856124 53.540995 
L 8.701788 57.0414 
L 7.764555 60.605292 
L 7.047645 64.2206 
L 6.5633 67.782106 
L 6.287188 71.455692 
L 6.237303 75.138565 
L 6.240529 75.317889 
L 6.240529 75.317889 
" clip-path="url(#pd150b7e756)" style="fill: none; stroke: #ff7f0e; stroke-width: 3; stroke-linecap: square"/>
   </g>
   <g id="line2d_27">
    <path d="M 6.240529 75.317889 
L 6.424962 78.99675 
L 6.833946 82.655746 
L 7.465747 86.282386 
L 8.294277 89.776741 
L 9.356137 93.300279 
L 10.629715 96.752169 
L 12.11013 100.120042 
L 13.791905 103.391944 
L 15.620354 106.480789 
L 17.679034 109.528069 
L 17.783982 109.673249 
L 17.783982 109.673249 
" clip-path="url(#pd150b7e756)" style="fill: none; stroke: #2ca02c; stroke-width: 3; stroke-linecap: square"/>
   </g>
   <g id="line2d_28">
    <path d="M 17.783982 109.673249 
L 20.03079 112.585287 
L 22.449454 115.356168 
L 25.030106 117.976505 
L 27.763241 120.437735 
L 30.639002 122.730096 
L 33.647749 124.84689 
L 36.854187 126.824749 
L 40.09684 128.562781 
L 43.354783 130.06937 
L 46.778527 131.414289 
L 46.778527 131.414289 
" clip-path="url(#pd150b7e756)" style="fill: none; stroke: #d62728; stroke-width: 3; stroke-linecap: square"/>
   </g>
   <g id="line2d_29">
    <path d="M 46.778527 131.414289 
L 50.278441 132.55251 
L 53.839912 133.480626 
L 57.450881 134.195855 
L 61.098047 134.696043 
L 64.85879 134.982714 
L 68.630012 135.042789 
L 72.309297 134.881965 
L 76.062479 134.491374 
L 79.697563 133.891694 
L 83.030918 133.146368 
L 83.030918 133.146368 
" clip-path="url(#pd150b7e756)" style="fill: none; stroke: #9467bd; stroke-width: 3; stroke-linecap: square"/>
   </g>
   <g id="line2d_30">
    <path d="M 83.030918 133.146368 
L 86.574364 132.138019 
L 90.052505 130.922816 
L 93.53565 129.469187 
L 96.925679 127.808342 
L 100.210177 125.948016 
L 103.378155 123.894482 
L 106.417849 121.656112 
L 109.252707 119.298789 
L 112.007914 116.7166 
L 114.183188 114.443816 
L 114.183188 114.443816 
" clip-path="url(#pd150b7e756)" style="fill: none; stroke: #e377c2; stroke-width: 3; stroke-linecap: square"/>
   </g>
   <g id="line2d_31">
    <path d="M 114.183188 114.443816 
L 116.640901 111.57662 
L 118.923996 108.569196 
L 121.02482 105.431141 
L 122.936204 102.174591 
L 124.651741 98.810286 
L 126.13164 95.434042 
L 127.443747 91.892656 
L 128.520187 88.367594 
L 129.448688 84.521906 
L 129.975102 81.691933 
L 129.975102 81.691933 
" clip-path="url(#pd150b7e756)" style="fill: none; stroke: #bcbd22; stroke-width: 3; stroke-linecap: square"/>
   </g>
   <g id="line2d_32">
    <path d="M 129.975102 81.691933 
L 130.471259 77.947688 
L 130.747382 74.181494 
L 130.800997 70.316219 
L 130.63054 66.544966 
L 130.249705 62.879527 
L 129.626041 59.066177 
L 128.796117 55.385273 
L 127.753706 51.757893 
L 126.468743 48.115923 
L 125.444406 45.623891 
L 125.444406 45.623891 
" clip-path="url(#pd150b7e756)" style="fill: none; stroke: #17becf; stroke-width: 3; stroke-linecap: square"/>
   </g>
   <g id="line2d_33">
    <path d="M 125.444406 45.623891 
L 123.797072 42.130217 
L 121.990374 38.819617 
L 119.993894 35.619636 
L 117.815629 32.541003 
L 115.404369 29.525976 
L 112.880304 26.724385 
L 110.133774 24.011855 
L 107.231756 21.467371 
L 104.183788 19.098482 
L 102.201025 17.706654 
L 102.201025 17.706654 
" clip-path="url(#pd150b7e756)" style="fill: none; stroke: #1f77b4; stroke-width: 3; stroke-linecap: square"/>
   </g>
   <g id="line2d_34">
    <path d="M 102.201025 17.706654 
L 98.940192 15.640411 
L 95.64346 13.811622 
L 92.165597 12.137991 
L 88.59534 10.671655 
L 85.030077 9.443487 
L 81.401313 8.421643 
L 77.630301 7.590912 
L 73.817505 6.982427 
L 69.975003 6.59654 
L 67.644979 6.472529 
L 67.644979 6.472529 
" clip-path="url(#pd150b7e756)" style="fill: none; stroke: #ff7f0e; stroke-width: 3; stroke-linecap: square"/>
   </g>
   <g id="line2d_35">
    <path d="M 67.644979 6.472529 
L 63.782275 6.447734 
L 59.925024 6.646204 
L 56.085586 7.070152 
L 52.275908 7.717192 
L 48.511766 8.583113 
L 44.863918 9.647074 
L 42.095296 10.607936 
L 42.095296 10.607936 
" clip-path="url(#pd150b7e756)" style="fill: none; stroke: #2ca02c; stroke-width: 3; stroke-linecap: square"/>
   </g>
   <g id="text_1">
    <!-- Data Stitching -->
    <g transform="translate(164.445831 87.55875) scale(0.65 -0.65)">
     <defs>
      <path id="ArialMT-44" d="M 494 0 
L 494 4581 
L 2072 4581 
Q 2606 4581 2888 4516 
Q 3281 4425 3559 4188 
Q 3922 3881 4101 3404 
Q 4281 2928 4281 2316 
Q 4281 1794 4159 1391 
Q 4038 988 3847 723 
Q 3656 459 3429 307 
Q 3203 156 2883 78 
Q 2563 0 2147 0 
L 494 0 
z
M 1100 541 
L 2078 541 
Q 2531 541 2789 625 
Q 3047 709 3200 863 
Q 3416 1078 3536 1442 
Q 3656 1806 3656 2325 
Q 3656 3044 3420 3430 
Q 3184 3816 2847 3947 
Q 2603 4041 2063 4041 
L 1100 4041 
L 1100 541 
z
" transform="scale(0.015625)"/>
      <path id="ArialMT-61" d="M 2588 409 
Q 2275 144 1986 34 
Q 1697 -75 1366 -75 
Q 819 -75 525 192 
Q 231 459 231 875 
Q 231 1119 342 1320 
Q 453 1522 633 1644 
Q 813 1766 1038 1828 
Q 1203 1872 1538 1913 
Q 2219 1994 2541 2106 
Q 2544 2222 2544 2253 
Q 2544 2597 2384 2738 
Q 2169 2928 1744 2928 
Q 1347 2928 1158 2789 
Q 969 2650 878 2297 
L 328 2372 
Q 403 2725 575 2942 
Q 747 3159 1072 3276 
Q 1397 3394 1825 3394 
Q 2250 3394 2515 3294 
Q 2781 3194 2906 3042 
Q 3031 2891 3081 2659 
Q 3109 2516 3109 2141 
L 3109 1391 
Q 3109 606 3145 398 
Q 3181 191 3288 0 
L 2700 0 
Q 2613 175 2588 409 
z
M 2541 1666 
Q 2234 1541 1622 1453 
Q 1275 1403 1131 1340 
Q 988 1278 909 1158 
Q 831 1038 831 891 
Q 831 666 1001 516 
Q 1172 366 1500 366 
Q 1825 366 2078 508 
Q 2331 650 2450 897 
Q 2541 1088 2541 1459 
L 2541 1666 
z
" transform="scale(0.015625)"/>
      <path id="ArialMT-74" d="M 1650 503 
L 1731 6 
Q 1494 -44 1306 -44 
Q 1000 -44 831 53 
Q 663 150 594 308 
Q 525 466 525 972 
L 525 2881 
L 113 2881 
L 113 3319 
L 525 3319 
L 525 4141 
L 1084 4478 
L 1084 3319 
L 1650 3319 
L 1650 2881 
L 1084 2881 
L 1084 941 
Q 1084 700 1114 631 
Q 1144 563 1211 522 
Q 1278 481 1403 481 
Q 1497 481 1650 503 
z
" transform="scale(0.015625)"/>
      <path id="ArialMT-20" transform="scale(0.015625)"/>
      <path id="ArialMT-53" d="M 288 1472 
L 859 1522 
Q 900 1178 1048 958 
Q 1197 738 1509 602 
Q 1822 466 2213 466 
Q 2559 466 2825 569 
Q 3091 672 3220 851 
Q 3350 1031 3350 1244 
Q 3350 1459 3225 1620 
Q 3100 1781 2813 1891 
Q 2628 1963 1997 2114 
Q 1366 2266 1113 2400 
Q 784 2572 623 2826 
Q 463 3081 463 3397 
Q 463 3744 659 4045 
Q 856 4347 1234 4503 
Q 1613 4659 2075 4659 
Q 2584 4659 2973 4495 
Q 3363 4331 3572 4012 
Q 3781 3694 3797 3291 
L 3216 3247 
Q 3169 3681 2898 3903 
Q 2628 4125 2100 4125 
Q 1550 4125 1298 3923 
Q 1047 3722 1047 3438 
Q 1047 3191 1225 3031 
Q 1400 2872 2139 2705 
Q 2878 2538 3153 2413 
Q 3553 2228 3743 1945 
Q 3934 1663 3934 1294 
Q 3934 928 3725 604 
Q 3516 281 3123 101 
Q 2731 -78 2241 -78 
Q 1619 -78 1198 103 
Q 778 284 539 648 
Q 300 1013 288 1472 
z
" transform="scale(0.015625)"/>
      <path id="ArialMT-69" d="M 425 3934 
L 425 4581 
L 988 4581 
L 988 3934 
L 425 3934 
z
M 425 0 
L 425 3319 
L 988 3319 
L 988 0 
L 425 0 
z
" transform="scale(0.015625)"/>
      <path id="ArialMT-63" d="M 2588 1216 
L 3141 1144 
Q 3050 572 2676 248 
Q 2303 -75 1759 -75 
Q 1078 -75 664 370 
Q 250 816 250 1647 
Q 250 2184 428 2587 
Q 606 2991 970 3192 
Q 1334 3394 1763 3394 
Q 2303 3394 2647 3120 
Q 2991 2847 3088 2344 
L 2541 2259 
Q 2463 2594 2264 2762 
Q 2066 2931 1784 2931 
Q 1359 2931 1093 2626 
Q 828 2322 828 1663 
Q 828 994 1084 691 
Q 1341 388 1753 388 
Q 2084 388 2306 591 
Q 2528 794 2588 1216 
z
" transform="scale(0.015625)"/>
      <path id="ArialMT-68" d="M 422 0 
L 422 4581 
L 984 4581 
L 984 2938 
Q 1378 3394 1978 3394 
Q 2347 3394 2619 3248 
Q 2891 3103 3008 2847 
Q 3125 2591 3125 2103 
L 3125 0 
L 2563 0 
L 2563 2103 
Q 2563 2525 2380 2717 
Q 2197 2909 1863 2909 
Q 1613 2909 1392 2779 
Q 1172 2650 1078 2428 
Q 984 2206 984 1816 
L 984 0 
L 422 0 
z
" transform="scale(0.015625)"/>
      <path id="ArialMT-6e" d="M 422 0 
L 422 3319 
L 928 3319 
L 928 2847 
Q 1294 3394 1984 3394 
Q 2284 3394 2536 3286 
Q 2788 3178 2913 3003 
Q 3038 2828 3088 2588 
Q 3119 2431 3119 2041 
L 3119 0 
L 2556 0 
L 2556 2019 
Q 2556 2363 2490 2533 
Q 2425 2703 2258 2804 
Q 2091 2906 1866 2906 
Q 1506 2906 1245 2678 
Q 984 2450 984 1813 
L 984 0 
L 422 0 
z
" transform="scale(0.015625)"/>
      <path id="ArialMT-67" d="M 319 -275 
L 866 -356 
Q 900 -609 1056 -725 
Q 1266 -881 1628 -881 
Q 2019 -881 2231 -725 
Q 2444 -569 2519 -288 
Q 2563 -116 2559 434 
Q 2191 0 1641 0 
Q 956 0 581 494 
Q 206 988 206 1678 
Q 206 2153 378 2554 
Q 550 2956 876 3175 
Q 1203 3394 1644 3394 
Q 2231 3394 2613 2919 
L 2613 3319 
L 3131 3319 
L 3131 450 
Q 3131 -325 2973 -648 
Q 2816 -972 2473 -1159 
Q 2131 -1347 1631 -1347 
Q 1038 -1347 672 -1080 
Q 306 -813 319 -275 
z
M 784 1719 
Q 784 1066 1043 766 
Q 1303 466 1694 466 
Q 2081 466 2343 764 
Q 2606 1063 2606 1700 
Q 2606 2309 2336 2618 
Q 2066 2928 1684 2928 
Q 1309 2928 1046 2623 
Q 784 2319 784 1719 
z
" transform="scale(0.015625)"/>
     </defs>
     <use xlink:href="#ArialMT-44"/>
     <use xlink:href="#ArialMT-61" x="72.216797"/>
     <use xlink:href="#ArialMT-74" x="127.832031"/>
     <use xlink:href="#ArialMT-61" x="155.615234"/>
     <use xlink:href="#ArialMT-20" x="211.230469"/>
     <use xlink:href="#ArialMT-53" x="239.013672"/>
     <use xlink:href="#ArialMT-74" x="305.712891"/>
     <use xlink:href="#ArialMT-69" x="333.496094"/>
     <use xlink:href="#ArialMT-74" x="355.712891"/>
     <use xlink:href="#ArialMT-63" x="383.496094"/>
     <use xlink:href="#ArialMT-68" x="433.496094"/>
     <use xlink:href="#ArialMT-69" x="489.111328"/>
     <use xlink:href="#ArialMT-6e" x="511.328125"/>
     <use xlink:href="#ArialMT-67" x="566.943359"/>
    </g>
   </g>
  </g>
 </g>
 <defs>
  <clipPath id="pd150b7e756">
   <rect x="0" y="0" width="137.038192" height="141.48"/>
  </clipPath>
 </defs>
</svg>
