<?xml version="1.0" encoding="utf-8" standalone="no"?>
<!DOCTYPE svg PUBLIC "-//W3C//DTD SVG 1.1//EN"
  "http://www.w3.org/Graphics/SVG/1.1/DTD/svg11.dtd">
<svg xmlns:xlink="http://www.w3.org/1999/xlink" width="254.626562pt" height="84.3967pt" viewBox="0 0 254.626562 84.3967" xmlns="http://www.w3.org/2000/svg" version="1.1">
 <metadata>
  <rdf:RDF xmlns:dc="http://purl.org/dc/elements/1.1/" xmlns:cc="http://creativecommons.org/ns#" xmlns:rdf="http://www.w3.org/1999/02/22-rdf-syntax-ns#">
   <cc:Work>
    <dc:type rdf:resource="http://purl.org/dc/dcmitype/StillImage"/>
    <dc:date>2024-10-31T13:31:27.523472</dc:date>
    <dc:format>image/svg+xml</dc:format>
    <dc:creator>
     <cc:Agent>
      <dc:title>Matplotlib v3.8.4, https://matplotlib.org/</dc:title>
     </cc:Agent>
    </dc:creator>
   </cc:Work>
  </rdf:RDF>
 </metadata>
 <defs>
  <style type="text/css">*{stroke-linejoin: round; stroke-linecap: butt}</style>
 </defs>
 <g id="figure_1">
  <g id="patch_1">
   <path d="M 0 84.3967 
L 254.626562 84.3967 
L 254.626562 0 
L 0 0 
L 0 84.3967 
z
" style="fill: none"/>
  </g>
  <g id="axes_1">
   <g id="patch_2">
    <path d="M 20.716563 66.313888 
L 254.626563 66.313888 
L 254.626563 3.755808 
L 20.716563 3.755808 
L 20.716563 66.313888 
z
" style="fill: none"/>
   </g>
   <g id="PathCollection_1">
    <defs>
     <path id="m20c0484829" d="M 0.927647 1.936492 
L -0.927647 1.936492 
L -0.927647 1.699204 
L -0.158686 1.699204 
L -0.158686 -1.048887 
Q -0.158686 -1.086704 -0.194279 -1.128971 
Q -0.229873 -1.17198 -0.263241 -1.17198 
Q -0.315148 -1.17198 -0.381885 -1.105984 
Q -0.614724 -0.863505 -0.837181 -0.716684 
L -0.927647 -0.811599 
Q -0.249152 -1.400369 -0.025953 -1.936492 
L 0.021504 -1.936492 
Q 0.254343 -1.39073 0.927647 -0.80715 
L 0.837923 -0.712234 
Q 0.648093 -0.844967 0.381885 -1.100793 
Q 0.31589 -1.167531 0.249152 -1.167531 
Q 0.154237 -1.167531 0.154237 -1.044437 
L 0.154237 1.699204 
L 0.927647 1.699204 
L 0.927647 1.936492 
z
" style="stroke: #000000; stroke-width: 0.1"/>
    </defs>
    <g clip-path="url(#p0e50651365)">
     <use xlink:href="#m20c0484829" x="67.042773" y="59.611237" style="stroke: #000000; stroke-width: 0.1"/>
     <use xlink:href="#m20c0484829" x="112.631038" y="59.611237" style="stroke: #000000; stroke-width: 0.1"/>
     <use xlink:href="#m20c0484829" x="158.210002" y="59.611237" style="stroke: #000000; stroke-width: 0.1"/>
     <use xlink:href="#m20c0484829" x="203.788965" y="59.611237" style="stroke: #000000; stroke-width: 0.1"/>
    </g>
   </g>
   <g id="PathCollection_2">
    <defs>
     <path id="m3fdf134759" d="M 0.927647 0.175371 
L 0.837923 0.270286 
Q 0.648093 0.137553 0.381885 -0.119015 
Q 0.31589 -0.18501 0.249152 -0.18501 
Q 0.154237 -0.18501 0.154237 -0.061917 
L 0.154237 1.936492 
L -0.158686 1.936492 
L -0.158686 -0.066366 
Q -0.158686 -0.104184 -0.194279 -0.147193 
Q -0.229873 -0.190201 -0.263241 -0.190201 
Q -0.315148 -0.190201 -0.381885 -0.123464 
Q -0.614724 0.118273 -0.837181 0.265837 
L -0.927647 0.170921 
Q -0.401165 -0.285116 -0.158686 -0.688506 
L -0.158686 -1.048887 
Q -0.158686 -1.086704 -0.194279 -1.128971 
Q -0.229873 -1.17198 -0.263241 -1.17198 
Q -0.315148 -1.17198 -0.381885 -1.105984 
Q -0.614724 -0.863505 -0.837181 -0.716684 
L -0.927647 -0.811599 
Q -0.249152 -1.400369 -0.025953 -1.936492 
L 0.021504 -1.936492 
Q 0.254343 -1.39073 0.927647 -0.80715 
L 0.837923 -0.712234 
Q 0.648093 -0.844967 0.381885 -1.100793 
Q 0.31589 -1.167531 0.249152 -1.167531 
Q 0.154237 -1.167531 0.154237 -1.044437 
L 0.154237 -0.692955 
Q 0.405614 -0.279926 0.927647 0.175371 
z
" style="stroke: #000000; stroke-width: 0.1"/>
    </defs>
    <g clip-path="url(#p0e50651365)">
     <use xlink:href="#m3fdf134759" x="67.042773" y="52.908585" style="stroke: #000000; stroke-width: 0.1"/>
    </g>
   </g>
   <g id="matplotlib.axis_1">
    <g id="xtick_1">
     <g id="line2d_1">
      <defs>
       <path id="m1aa57fb2d3" d="M 0 0 
L 0 1.5 
" style="stroke: #000000; stroke-width: 0.5"/>
      </defs>
      <g>
       <use xlink:href="#m1aa57fb2d3" x="20.716563" y="66.313888" style="stroke: #000000; stroke-width: 0.5"/>
      </g>
     </g>
     <g id="text_1">
      <!-- 0 -->
      <g transform="translate(19.716563 74.091388) scale(0.04 -0.04)">
       <defs>
        <path id="TimesNewRomanPSMT-30" d="M 231 2094 
Q 231 2819 450 3342 
Q 669 3866 1031 4122 
Q 1313 4325 1613 4325 
Q 2100 4325 2488 3828 
Q 2972 3213 2972 2159 
Q 2972 1422 2759 906 
Q 2547 391 2217 158 
Q 1888 -75 1581 -75 
Q 975 -75 572 641 
Q 231 1244 231 2094 
z
M 844 2016 
Q 844 1141 1059 588 
Q 1238 122 1591 122 
Q 1759 122 1940 273 
Q 2122 425 2216 781 
Q 2359 1319 2359 2297 
Q 2359 3022 2209 3506 
Q 2097 3866 1919 4016 
Q 1791 4119 1609 4119 
Q 1397 4119 1231 3928 
Q 1006 3669 925 3112 
Q 844 2556 844 2016 
z
" transform="scale(0.015625)"/>
       </defs>
       <use xlink:href="#TimesNewRomanPSMT-30"/>
      </g>
     </g>
    </g>
    <g id="xtick_2">
     <g id="line2d_2">
      <g>
       <use xlink:href="#m1aa57fb2d3" x="51.72266" y="66.313888" style="stroke: #000000; stroke-width: 0.5"/>
      </g>
     </g>
     <g id="text_2">
      <!-- 10 -->
      <g transform="translate(49.72266 74.091388) scale(0.04 -0.04)">
       <defs>
        <path id="TimesNewRomanPSMT-31" d="M 750 3822 
L 1781 4325 
L 1884 4325 
L 1884 747 
Q 1884 391 1914 303 
Q 1944 216 2037 169 
Q 2131 122 2419 116 
L 2419 0 
L 825 0 
L 825 116 
Q 1125 122 1212 167 
Q 1300 213 1334 289 
Q 1369 366 1369 747 
L 1369 3034 
Q 1369 3497 1338 3628 
Q 1316 3728 1258 3775 
Q 1200 3822 1119 3822 
Q 1003 3822 797 3725 
L 750 3822 
z
" transform="scale(0.015625)"/>
       </defs>
       <use xlink:href="#TimesNewRomanPSMT-31"/>
       <use xlink:href="#TimesNewRomanPSMT-30" x="50"/>
      </g>
     </g>
    </g>
    <g id="xtick_3">
     <g id="line2d_3">
      <g>
       <use xlink:href="#m1aa57fb2d3" x="82.728758" y="66.313888" style="stroke: #000000; stroke-width: 0.5"/>
      </g>
     </g>
     <g id="text_3">
      <!-- 20 -->
      <g transform="translate(80.728758 74.091388) scale(0.04 -0.04)">
       <defs>
        <path id="TimesNewRomanPSMT-32" d="M 2934 816 
L 2638 0 
L 138 0 
L 138 116 
Q 1241 1122 1691 1759 
Q 2141 2397 2141 2925 
Q 2141 3328 1894 3587 
Q 1647 3847 1303 3847 
Q 991 3847 742 3664 
Q 494 3481 375 3128 
L 259 3128 
Q 338 3706 661 4015 
Q 984 4325 1469 4325 
Q 1984 4325 2329 3994 
Q 2675 3663 2675 3213 
Q 2675 2891 2525 2569 
Q 2294 2063 1775 1497 
Q 997 647 803 472 
L 1909 472 
Q 2247 472 2383 497 
Q 2519 522 2628 598 
Q 2738 675 2819 816 
L 2934 816 
z
" transform="scale(0.015625)"/>
       </defs>
       <use xlink:href="#TimesNewRomanPSMT-32"/>
       <use xlink:href="#TimesNewRomanPSMT-30" x="50"/>
      </g>
     </g>
    </g>
    <g id="xtick_4">
     <g id="line2d_4">
      <g>
       <use xlink:href="#m1aa57fb2d3" x="113.734855" y="66.313888" style="stroke: #000000; stroke-width: 0.5"/>
      </g>
     </g>
     <g id="text_4">
      <!-- 30 -->
      <g transform="translate(111.734855 74.091388) scale(0.04 -0.04)">
       <defs>
        <path id="TimesNewRomanPSMT-33" d="M 325 3431 
Q 506 3859 782 4092 
Q 1059 4325 1472 4325 
Q 1981 4325 2253 3994 
Q 2459 3747 2459 3466 
Q 2459 3003 1878 2509 
Q 2269 2356 2469 2072 
Q 2669 1788 2669 1403 
Q 2669 853 2319 450 
Q 1863 -75 997 -75 
Q 569 -75 414 31 
Q 259 138 259 259 
Q 259 350 332 419 
Q 406 488 509 488 
Q 588 488 669 463 
Q 722 447 909 348 
Q 1097 250 1169 231 
Q 1284 197 1416 197 
Q 1734 197 1970 444 
Q 2206 691 2206 1028 
Q 2206 1275 2097 1509 
Q 2016 1684 1919 1775 
Q 1784 1900 1550 2001 
Q 1316 2103 1072 2103 
L 972 2103 
L 972 2197 
Q 1219 2228 1467 2375 
Q 1716 2522 1828 2728 
Q 1941 2934 1941 3181 
Q 1941 3503 1739 3701 
Q 1538 3900 1238 3900 
Q 753 3900 428 3381 
L 325 3431 
z
" transform="scale(0.015625)"/>
       </defs>
       <use xlink:href="#TimesNewRomanPSMT-33"/>
       <use xlink:href="#TimesNewRomanPSMT-30" x="50"/>
      </g>
     </g>
    </g>
    <g id="xtick_5">
     <g id="line2d_5">
      <g>
       <use xlink:href="#m1aa57fb2d3" x="144.740953" y="66.313888" style="stroke: #000000; stroke-width: 0.5"/>
      </g>
     </g>
     <g id="text_5">
      <!-- 40 -->
      <g transform="translate(142.740953 74.091388) scale(0.04 -0.04)">
       <defs>
        <path id="TimesNewRomanPSMT-34" d="M 2978 1563 
L 2978 1119 
L 2409 1119 
L 2409 0 
L 1894 0 
L 1894 1119 
L 100 1119 
L 100 1519 
L 2066 4325 
L 2409 4325 
L 2409 1563 
L 2978 1563 
z
M 1894 1563 
L 1894 3666 
L 406 1563 
L 1894 1563 
z
" transform="scale(0.015625)"/>
       </defs>
       <use xlink:href="#TimesNewRomanPSMT-34"/>
       <use xlink:href="#TimesNewRomanPSMT-30" x="50"/>
      </g>
     </g>
    </g>
    <g id="xtick_6">
     <g id="line2d_6">
      <g>
       <use xlink:href="#m1aa57fb2d3" x="175.74705" y="66.313888" style="stroke: #000000; stroke-width: 0.5"/>
      </g>
     </g>
     <g id="text_6">
      <!-- 50 -->
      <g transform="translate(173.74705 74.091388) scale(0.04 -0.04)">
       <defs>
        <path id="TimesNewRomanPSMT-35" d="M 2778 4238 
L 2534 3706 
L 1259 3706 
L 981 3138 
Q 1809 3016 2294 2522 
Q 2709 2097 2709 1522 
Q 2709 1188 2573 903 
Q 2438 619 2231 419 
Q 2025 219 1772 97 
Q 1413 -75 1034 -75 
Q 653 -75 479 54 
Q 306 184 306 341 
Q 306 428 378 495 
Q 450 563 559 563 
Q 641 563 702 538 
Q 763 513 909 409 
Q 1144 247 1384 247 
Q 1750 247 2026 523 
Q 2303 800 2303 1197 
Q 2303 1581 2056 1914 
Q 1809 2247 1375 2428 
Q 1034 2569 447 2591 
L 1259 4238 
L 2778 4238 
z
" transform="scale(0.015625)"/>
       </defs>
       <use xlink:href="#TimesNewRomanPSMT-35"/>
       <use xlink:href="#TimesNewRomanPSMT-30" x="50"/>
      </g>
     </g>
    </g>
    <g id="xtick_7">
     <g id="line2d_7">
      <g>
       <use xlink:href="#m1aa57fb2d3" x="206.753148" y="66.313888" style="stroke: #000000; stroke-width: 0.5"/>
      </g>
     </g>
     <g id="text_7">
      <!-- 60 -->
      <g transform="translate(204.753148 74.091388) scale(0.04 -0.04)">
       <defs>
        <path id="TimesNewRomanPSMT-36" d="M 2869 4325 
L 2869 4209 
Q 2456 4169 2195 4045 
Q 1934 3922 1679 3669 
Q 1425 3416 1258 3105 
Q 1091 2794 978 2366 
Q 1428 2675 1881 2675 
Q 2316 2675 2634 2325 
Q 2953 1975 2953 1425 
Q 2953 894 2631 456 
Q 2244 -75 1606 -75 
Q 1172 -75 869 213 
Q 275 772 275 1663 
Q 275 2231 503 2743 
Q 731 3256 1154 3653 
Q 1578 4050 1965 4187 
Q 2353 4325 2688 4325 
L 2869 4325 
z
M 925 2138 
Q 869 1716 869 1456 
Q 869 1156 980 804 
Q 1091 453 1309 247 
Q 1469 100 1697 100 
Q 1969 100 2183 356 
Q 2397 613 2397 1088 
Q 2397 1622 2184 2012 
Q 1972 2403 1581 2403 
Q 1463 2403 1327 2353 
Q 1191 2303 925 2138 
z
" transform="scale(0.015625)"/>
       </defs>
       <use xlink:href="#TimesNewRomanPSMT-36"/>
       <use xlink:href="#TimesNewRomanPSMT-30" x="50"/>
      </g>
     </g>
    </g>
    <g id="xtick_8">
     <g id="line2d_8">
      <g>
       <use xlink:href="#m1aa57fb2d3" x="237.759245" y="66.313888" style="stroke: #000000; stroke-width: 0.5"/>
      </g>
     </g>
     <g id="text_8">
      <!-- 70 -->
      <g transform="translate(235.759245 74.091388) scale(0.04 -0.04)">
       <defs>
        <path id="TimesNewRomanPSMT-37" d="M 644 4238 
L 2916 4238 
L 2916 4119 
L 1503 -88 
L 1153 -88 
L 2419 3728 
L 1253 3728 
Q 900 3728 750 3644 
Q 488 3500 328 3200 
L 238 3234 
L 644 4238 
z
" transform="scale(0.015625)"/>
       </defs>
       <use xlink:href="#TimesNewRomanPSMT-37"/>
       <use xlink:href="#TimesNewRomanPSMT-30" x="50"/>
      </g>
     </g>
    </g>
    <g id="text_9">
     <!-- Time (ms) -->
     <g transform="translate(125.196719 83.113263) scale(0.06 -0.06)">
      <defs>
       <path id="TimesNewRomanPSMT-54" d="M 3703 4238 
L 3750 3244 
L 3631 3244 
Q 3597 3506 3538 3619 
Q 3441 3800 3280 3886 
Q 3119 3972 2856 3972 
L 2259 3972 
L 2259 734 
Q 2259 344 2344 247 
Q 2463 116 2709 116 
L 2856 116 
L 2856 0 
L 1059 0 
L 1059 116 
L 1209 116 
Q 1478 116 1591 278 
Q 1659 378 1659 734 
L 1659 3972 
L 1150 3972 
Q 853 3972 728 3928 
Q 566 3869 450 3700 
Q 334 3531 313 3244 
L 194 3244 
L 244 4238 
L 3703 4238 
z
" transform="scale(0.015625)"/>
       <path id="TimesNewRomanPSMT-69" d="M 928 4444 
Q 1059 4444 1151 4351 
Q 1244 4259 1244 4128 
Q 1244 3997 1151 3903 
Q 1059 3809 928 3809 
Q 797 3809 703 3903 
Q 609 3997 609 4128 
Q 609 4259 701 4351 
Q 794 4444 928 4444 
z
M 1188 2947 
L 1188 647 
Q 1188 378 1227 289 
Q 1266 200 1342 156 
Q 1419 113 1622 113 
L 1622 0 
L 231 0 
L 231 113 
Q 441 113 512 153 
Q 584 194 626 287 
Q 669 381 669 647 
L 669 1750 
Q 669 2216 641 2353 
Q 619 2453 572 2492 
Q 525 2531 444 2531 
Q 356 2531 231 2484 
L 188 2597 
L 1050 2947 
L 1188 2947 
z
" transform="scale(0.015625)"/>
       <path id="TimesNewRomanPSMT-6d" d="M 1050 2338 
Q 1363 2650 1419 2697 
Q 1559 2816 1721 2881 
Q 1884 2947 2044 2947 
Q 2313 2947 2506 2790 
Q 2700 2634 2766 2338 
Q 3088 2713 3309 2830 
Q 3531 2947 3766 2947 
Q 3994 2947 4170 2830 
Q 4347 2713 4450 2447 
Q 4519 2266 4519 1878 
L 4519 647 
Q 4519 378 4559 278 
Q 4591 209 4675 161 
Q 4759 113 4950 113 
L 4950 0 
L 3538 0 
L 3538 113 
L 3597 113 
Q 3781 113 3884 184 
Q 3956 234 3988 344 
Q 4000 397 4000 647 
L 4000 1878 
Q 4000 2228 3916 2372 
Q 3794 2572 3525 2572 
Q 3359 2572 3192 2489 
Q 3025 2406 2788 2181 
L 2781 2147 
L 2788 2013 
L 2788 647 
Q 2788 353 2820 281 
Q 2853 209 2943 161 
Q 3034 113 3253 113 
L 3253 0 
L 1806 0 
L 1806 113 
Q 2044 113 2133 169 
Q 2222 225 2256 338 
Q 2272 391 2272 647 
L 2272 1878 
Q 2272 2228 2169 2381 
Q 2031 2581 1784 2581 
Q 1616 2581 1450 2491 
Q 1191 2353 1050 2181 
L 1050 647 
Q 1050 366 1089 281 
Q 1128 197 1204 155 
Q 1281 113 1516 113 
L 1516 0 
L 100 0 
L 100 113 
Q 297 113 375 155 
Q 453 197 493 289 
Q 534 381 534 647 
L 534 1741 
Q 534 2213 506 2350 
Q 484 2453 437 2492 
Q 391 2531 309 2531 
Q 222 2531 100 2484 
L 53 2597 
L 916 2947 
L 1050 2947 
L 1050 2338 
z
" transform="scale(0.015625)"/>
       <path id="TimesNewRomanPSMT-65" d="M 681 1784 
Q 678 1147 991 784 
Q 1303 422 1725 422 
Q 2006 422 2214 576 
Q 2422 731 2563 1106 
L 2659 1044 
Q 2594 616 2278 264 
Q 1963 -88 1488 -88 
Q 972 -88 605 314 
Q 238 716 238 1394 
Q 238 2128 614 2539 
Q 991 2950 1559 2950 
Q 2041 2950 2350 2633 
Q 2659 2316 2659 1784 
L 681 1784 
z
M 681 1966 
L 2006 1966 
Q 1991 2241 1941 2353 
Q 1863 2528 1708 2628 
Q 1553 2728 1384 2728 
Q 1125 2728 920 2526 
Q 716 2325 681 1966 
z
" transform="scale(0.015625)"/>
       <path id="TimesNewRomanPSMT-20" transform="scale(0.015625)"/>
       <path id="TimesNewRomanPSMT-28" d="M 1988 -1253 
L 1988 -1369 
Q 1516 -1131 1200 -813 
Q 750 -359 506 256 
Q 263 872 263 1534 
Q 263 2503 741 3301 
Q 1219 4100 1988 4444 
L 1988 4313 
Q 1603 4100 1356 3731 
Q 1109 3363 987 2797 
Q 866 2231 866 1616 
Q 866 947 969 400 
Q 1050 -31 1165 -292 
Q 1281 -553 1476 -793 
Q 1672 -1034 1988 -1253 
z
" transform="scale(0.015625)"/>
       <path id="TimesNewRomanPSMT-73" d="M 2050 2947 
L 2050 1972 
L 1947 1972 
Q 1828 2431 1642 2597 
Q 1456 2763 1169 2763 
Q 950 2763 815 2647 
Q 681 2531 681 2391 
Q 681 2216 781 2091 
Q 878 1963 1175 1819 
L 1631 1597 
Q 2266 1288 2266 781 
Q 2266 391 1970 151 
Q 1675 -88 1309 -88 
Q 1047 -88 709 6 
Q 606 38 541 38 
Q 469 38 428 -44 
L 325 -44 
L 325 978 
L 428 978 
Q 516 541 762 319 
Q 1009 97 1316 97 
Q 1531 97 1667 223 
Q 1803 350 1803 528 
Q 1803 744 1651 891 
Q 1500 1038 1047 1263 
Q 594 1488 453 1669 
Q 313 1847 313 2119 
Q 313 2472 555 2709 
Q 797 2947 1181 2947 
Q 1350 2947 1591 2875 
Q 1750 2828 1803 2828 
Q 1853 2828 1881 2850 
Q 1909 2872 1947 2947 
L 2050 2947 
z
" transform="scale(0.015625)"/>
       <path id="TimesNewRomanPSMT-29" d="M 144 4313 
L 144 4444 
Q 619 4209 934 3891 
Q 1381 3434 1625 2820 
Q 1869 2206 1869 1541 
Q 1869 572 1392 -226 
Q 916 -1025 144 -1369 
L 144 -1253 
Q 528 -1038 776 -670 
Q 1025 -303 1145 264 
Q 1266 831 1266 1447 
Q 1266 2113 1163 2663 
Q 1084 3094 967 3353 
Q 850 3613 656 3853 
Q 463 4094 144 4313 
z
" transform="scale(0.015625)"/>
      </defs>
      <use xlink:href="#TimesNewRomanPSMT-54"/>
      <use xlink:href="#TimesNewRomanPSMT-69" x="57.583984"/>
      <use xlink:href="#TimesNewRomanPSMT-6d" x="85.367188"/>
      <use xlink:href="#TimesNewRomanPSMT-65" x="163.150391"/>
      <use xlink:href="#TimesNewRomanPSMT-20" x="207.535156"/>
      <use xlink:href="#TimesNewRomanPSMT-28" x="232.535156"/>
      <use xlink:href="#TimesNewRomanPSMT-6d" x="265.835938"/>
      <use xlink:href="#TimesNewRomanPSMT-73" x="343.619141"/>
      <use xlink:href="#TimesNewRomanPSMT-29" x="382.535156"/>
     </g>
    </g>
   </g>
   <g id="matplotlib.axis_2">
    <g id="ytick_1">
     <g id="line2d_9">
      <defs>
       <path id="mabe202b54a" d="M 0 0 
L -1.5 0 
" style="stroke: #000000; stroke-width: 0.5"/>
      </defs>
      <g>
       <use xlink:href="#mabe202b54a" x="20.716563" y="61.845454" style="stroke: #000000; stroke-width: 0.5"/>
      </g>
     </g>
     <g id="text_10">
      <!-- −60 -->
      <g transform="translate(9.460938 63.234204) scale(0.04 -0.04)">
       <defs>
        <path id="TimesNewRomanPSMT-2212" d="M 3484 2000 
L 116 2000 
L 116 2256 
L 3484 2256 
L 3484 2000 
z
" transform="scale(0.015625)"/>
       </defs>
       <use xlink:href="#TimesNewRomanPSMT-2212"/>
       <use xlink:href="#TimesNewRomanPSMT-36" x="56.396484"/>
       <use xlink:href="#TimesNewRomanPSMT-30" x="106.396484"/>
      </g>
     </g>
    </g>
    <g id="ytick_2">
     <g id="line2d_10">
      <g>
       <use xlink:href="#mabe202b54a" x="20.716563" y="52.908585" style="stroke: #000000; stroke-width: 0.5"/>
      </g>
     </g>
     <g id="text_11">
      <!-- −40 -->
      <g transform="translate(9.460938 54.297335) scale(0.04 -0.04)">
       <use xlink:href="#TimesNewRomanPSMT-2212"/>
       <use xlink:href="#TimesNewRomanPSMT-34" x="56.396484"/>
       <use xlink:href="#TimesNewRomanPSMT-30" x="106.396484"/>
      </g>
     </g>
    </g>
    <g id="ytick_3">
     <g id="line2d_11">
      <g>
       <use xlink:href="#mabe202b54a" x="20.716563" y="43.971717" style="stroke: #000000; stroke-width: 0.5"/>
      </g>
     </g>
     <g id="text_12">
      <!-- −20 -->
      <g transform="translate(9.460938 45.360467) scale(0.04 -0.04)">
       <use xlink:href="#TimesNewRomanPSMT-2212"/>
       <use xlink:href="#TimesNewRomanPSMT-32" x="56.396484"/>
       <use xlink:href="#TimesNewRomanPSMT-30" x="106.396484"/>
      </g>
     </g>
    </g>
    <g id="ytick_4">
     <g id="line2d_12">
      <g>
       <use xlink:href="#mabe202b54a" x="20.716563" y="35.034848" style="stroke: #000000; stroke-width: 0.5"/>
      </g>
     </g>
     <g id="text_13">
      <!-- 0 -->
      <g transform="translate(13.716563 36.423598) scale(0.04 -0.04)">
       <use xlink:href="#TimesNewRomanPSMT-30"/>
      </g>
     </g>
    </g>
    <g id="ytick_5">
     <g id="line2d_13">
      <g>
       <use xlink:href="#mabe202b54a" x="20.716563" y="26.097979" style="stroke: #000000; stroke-width: 0.5"/>
      </g>
     </g>
     <g id="text_14">
      <!-- 20 -->
      <g transform="translate(11.716563 27.486729) scale(0.04 -0.04)">
       <use xlink:href="#TimesNewRomanPSMT-32"/>
       <use xlink:href="#TimesNewRomanPSMT-30" x="50"/>
      </g>
     </g>
    </g>
    <g id="ytick_6">
     <g id="line2d_14">
      <g>
       <use xlink:href="#mabe202b54a" x="20.716563" y="17.161111" style="stroke: #000000; stroke-width: 0.5"/>
      </g>
     </g>
     <g id="text_15">
      <!-- 40 -->
      <g transform="translate(11.716563 18.549861) scale(0.04 -0.04)">
       <use xlink:href="#TimesNewRomanPSMT-34"/>
       <use xlink:href="#TimesNewRomanPSMT-30" x="50"/>
      </g>
     </g>
    </g>
    <g id="ytick_7">
     <g id="line2d_15">
      <g>
       <use xlink:href="#mabe202b54a" x="20.716563" y="8.224242" style="stroke: #000000; stroke-width: 0.5"/>
      </g>
     </g>
     <g id="text_16">
      <!-- 60 -->
      <g transform="translate(11.716563 9.612992) scale(0.04 -0.04)">
       <use xlink:href="#TimesNewRomanPSMT-36"/>
       <use xlink:href="#TimesNewRomanPSMT-30" x="50"/>
      </g>
     </g>
    </g>
    <g id="text_17">
     <!-- Amplitude [mT/m, μT] -->
     <g transform="translate(4.16625 62.887973) rotate(-90) scale(0.06 -0.06)">
      <defs>
       <path id="TimesNewRomanPSMT-41" d="M 2928 1419 
L 1288 1419 
L 1000 750 
Q 894 503 894 381 
Q 894 284 986 211 
Q 1078 138 1384 116 
L 1384 0 
L 50 0 
L 50 116 
Q 316 163 394 238 
Q 553 388 747 847 
L 2238 4334 
L 2347 4334 
L 3822 809 
Q 4000 384 4145 257 
Q 4291 131 4550 116 
L 4550 0 
L 2878 0 
L 2878 116 
Q 3131 128 3220 200 
Q 3309 272 3309 375 
Q 3309 513 3184 809 
L 2928 1419 
z
M 2841 1650 
L 2122 3363 
L 1384 1650 
L 2841 1650 
z
" transform="scale(0.015625)"/>
       <path id="TimesNewRomanPSMT-70" d="M -6 2578 
L 875 2934 
L 994 2934 
L 994 2266 
Q 1216 2644 1439 2795 
Q 1663 2947 1909 2947 
Q 2341 2947 2628 2609 
Q 2981 2197 2981 1534 
Q 2981 794 2556 309 
Q 2206 -88 1675 -88 
Q 1444 -88 1275 -22 
Q 1150 25 994 166 
L 994 -706 
Q 994 -1000 1030 -1079 
Q 1066 -1159 1155 -1206 
Q 1244 -1253 1478 -1253 
L 1478 -1369 
L -22 -1369 
L -22 -1253 
L 56 -1253 
Q 228 -1256 350 -1188 
Q 409 -1153 442 -1076 
Q 475 -1000 475 -688 
L 475 2019 
Q 475 2297 450 2372 
Q 425 2447 370 2484 
Q 316 2522 222 2522 
Q 147 2522 31 2478 
L -6 2578 
z
M 994 2081 
L 994 1013 
Q 994 666 1022 556 
Q 1066 375 1236 237 
Q 1406 100 1666 100 
Q 1978 100 2172 344 
Q 2425 663 2425 1241 
Q 2425 1897 2138 2250 
Q 1938 2494 1663 2494 
Q 1513 2494 1366 2419 
Q 1253 2363 994 2081 
z
" transform="scale(0.015625)"/>
       <path id="TimesNewRomanPSMT-6c" d="M 1184 4444 
L 1184 647 
Q 1184 378 1223 290 
Q 1263 203 1344 158 
Q 1425 113 1647 113 
L 1647 0 
L 244 0 
L 244 113 
Q 441 113 512 153 
Q 584 194 625 287 
Q 666 381 666 647 
L 666 3247 
Q 666 3731 644 3842 
Q 622 3953 573 3993 
Q 525 4034 450 4034 
Q 369 4034 244 3984 
L 191 4094 
L 1044 4444 
L 1184 4444 
z
" transform="scale(0.015625)"/>
       <path id="TimesNewRomanPSMT-74" d="M 1031 3803 
L 1031 2863 
L 1700 2863 
L 1700 2644 
L 1031 2644 
L 1031 788 
Q 1031 509 1111 412 
Q 1191 316 1316 316 
Q 1419 316 1516 380 
Q 1613 444 1666 569 
L 1788 569 
Q 1678 263 1478 108 
Q 1278 -47 1066 -47 
Q 922 -47 784 33 
Q 647 113 581 261 
Q 516 409 516 719 
L 516 2644 
L 63 2644 
L 63 2747 
Q 234 2816 414 2980 
Q 594 3144 734 3369 
Q 806 3488 934 3803 
L 1031 3803 
z
" transform="scale(0.015625)"/>
       <path id="TimesNewRomanPSMT-75" d="M 2709 2863 
L 2709 1128 
Q 2709 631 2732 520 
Q 2756 409 2807 365 
Q 2859 322 2928 322 
Q 3025 322 3147 375 
L 3191 266 
L 2334 -88 
L 2194 -88 
L 2194 519 
Q 1825 119 1631 15 
Q 1438 -88 1222 -88 
Q 981 -88 804 51 
Q 628 191 559 409 
Q 491 628 491 1028 
L 491 2306 
Q 491 2509 447 2587 
Q 403 2666 317 2708 
Q 231 2750 6 2747 
L 6 2863 
L 1009 2863 
L 1009 947 
Q 1009 547 1148 422 
Q 1288 297 1484 297 
Q 1619 297 1789 381 
Q 1959 466 2194 703 
L 2194 2325 
Q 2194 2569 2105 2655 
Q 2016 2741 1734 2747 
L 1734 2863 
L 2709 2863 
z
" transform="scale(0.015625)"/>
       <path id="TimesNewRomanPSMT-64" d="M 2222 322 
Q 2013 103 1813 7 
Q 1613 -88 1381 -88 
Q 913 -88 563 304 
Q 213 697 213 1313 
Q 213 1928 600 2439 
Q 988 2950 1597 2950 
Q 1975 2950 2222 2709 
L 2222 3238 
Q 2222 3728 2198 3840 
Q 2175 3953 2125 3993 
Q 2075 4034 2000 4034 
Q 1919 4034 1784 3984 
L 1744 4094 
L 2597 4444 
L 2738 4444 
L 2738 1134 
Q 2738 631 2761 520 
Q 2784 409 2836 365 
Q 2888 322 2956 322 
Q 3041 322 3181 375 
L 3216 266 
L 2366 -88 
L 2222 -88 
L 2222 322 
z
M 2222 541 
L 2222 2016 
Q 2203 2228 2109 2403 
Q 2016 2578 1861 2667 
Q 1706 2756 1559 2756 
Q 1284 2756 1069 2509 
Q 784 2184 784 1559 
Q 784 928 1059 592 
Q 1334 256 1672 256 
Q 1956 256 2222 541 
z
" transform="scale(0.015625)"/>
       <path id="TimesNewRomanPSMT-5b" d="M 1900 -1269 
L 525 -1269 
L 525 4334 
L 1900 4334 
L 1900 4088 
L 994 4088 
L 994 -1025 
L 1900 -1025 
L 1900 -1269 
z
" transform="scale(0.015625)"/>
       <path id="TimesNewRomanPSMT-2f" d="M 1794 4444 
L 259 -88 
L 9 -88 
L 1544 4444 
L 1794 4444 
z
" transform="scale(0.015625)"/>
       <path id="TimesNewRomanPSMT-2c" d="M 344 -1066 
L 344 -928 
Q 666 -822 842 -598 
Q 1019 -375 1019 -125 
Q 1019 -66 991 -25 
Q 969 3 947 3 
Q 913 3 797 -59 
Q 741 -88 678 -88 
Q 525 -88 434 3 
Q 344 94 344 253 
Q 344 406 461 515 
Q 578 625 747 625 
Q 953 625 1114 445 
Q 1275 266 1275 -31 
Q 1275 -353 1051 -629 
Q 828 -906 344 -1066 
z
" transform="scale(0.015625)"/>
       <path id="TimesNewRomanPSMT-3bc" d="M 2275 519 
Q 1709 -88 1291 -88 
Q 1022 -88 791 119 
L 791 -47 
Q 791 -334 878 -625 
Q 978 -947 978 -1050 
Q 978 -1194 887 -1287 
Q 797 -1381 663 -1381 
Q 525 -1381 444 -1272 
Q 363 -1163 363 -1009 
Q 363 -897 444 -603 
Q 538 -278 538 28 
L 538 2863 
L 1053 2863 
L 1053 1009 
Q 1053 728 1101 597 
Q 1150 466 1273 383 
Q 1397 300 1553 300 
Q 1831 300 2275 681 
L 2275 2863 
L 2794 2863 
L 2794 691 
Q 2794 416 2850 311 
Q 2906 206 3041 206 
Q 3253 206 3316 622 
L 3428 622 
Q 3369 -88 2828 -88 
Q 2594 -88 2439 70 
Q 2284 228 2275 519 
z
" transform="scale(0.015625)"/>
       <path id="TimesNewRomanPSMT-5d" d="M 234 4334 
L 1609 4334 
L 1609 -1272 
L 234 -1272 
L 234 -1025 
L 1141 -1025 
L 1141 4088 
L 234 4088 
L 234 4334 
z
" transform="scale(0.015625)"/>
      </defs>
      <use xlink:href="#TimesNewRomanPSMT-41"/>
      <use xlink:href="#TimesNewRomanPSMT-6d" x="72.216797"/>
      <use xlink:href="#TimesNewRomanPSMT-70" x="150"/>
      <use xlink:href="#TimesNewRomanPSMT-6c" x="200"/>
      <use xlink:href="#TimesNewRomanPSMT-69" x="227.783203"/>
      <use xlink:href="#TimesNewRomanPSMT-74" x="255.566406"/>
      <use xlink:href="#TimesNewRomanPSMT-75" x="283.349609"/>
      <use xlink:href="#TimesNewRomanPSMT-64" x="333.349609"/>
      <use xlink:href="#TimesNewRomanPSMT-65" x="383.349609"/>
      <use xlink:href="#TimesNewRomanPSMT-20" x="427.734375"/>
      <use xlink:href="#TimesNewRomanPSMT-5b" x="452.734375"/>
      <use xlink:href="#TimesNewRomanPSMT-6d" x="486.035156"/>
      <use xlink:href="#TimesNewRomanPSMT-54" x="563.818359"/>
      <use xlink:href="#TimesNewRomanPSMT-2f" x="624.902344"/>
      <use xlink:href="#TimesNewRomanPSMT-6d" x="652.685547"/>
      <use xlink:href="#TimesNewRomanPSMT-2c" x="730.46875"/>
      <use xlink:href="#TimesNewRomanPSMT-20" x="755.46875"/>
      <use xlink:href="#TimesNewRomanPSMT-3bc" x="780.46875"/>
      <use xlink:href="#TimesNewRomanPSMT-54" x="834.082031"/>
      <use xlink:href="#TimesNewRomanPSMT-5d" x="895.166016"/>
     </g>
    </g>
   </g>
   <g id="line2d_16">
    <path d="M 20.716563 35.034848 
L 254.626563 35.034848 
" clip-path="url(#p0e50651365)" style="fill: none; stroke: #555555; stroke-width: 0.5; stroke-linecap: square"/>
   </g>
   <g id="line2d_17">
    <path d="M 67.039672 35.034848 
L 67.055175 34.475395 
L 67.117188 35.287842 
L 67.210206 36.490985 
L 67.241212 36.330836 
L 67.489261 32.719062 
L 67.551273 33.151734 
L 67.861334 38.002385 
L 67.954352 37.457586 
L 68.326425 31.537471 
L 68.419444 31.92739 
L 68.60548 35.206965 
L 68.884535 39.013206 
L 68.946547 38.795926 
L 69.101578 36.593279 
L 69.504657 30.643112 
L 69.597675 31.188678 
L 69.814718 35.017232 
L 70.124779 39.747833 
L 70.155785 39.812953 
L 70.186791 39.784312 
L 70.279809 39.153468 
L 70.496852 35.331313 
L 70.837919 29.991674 
L 70.899931 29.914113 
L 70.930937 30.005885 
L 71.054962 31.185782 
L 71.644078 40.496848 
L 71.737096 40.204837 
L 71.892127 38.25288 
L 72.481242 29.260842 
L 72.574261 29.681795 
L 72.760297 32.308587 
L 73.318407 41.101923 
L 73.380419 41.022359 
L 73.504444 40.013624 
L 73.783498 34.857114 
L 74.155572 28.916416 
L 74.24859 28.68256 
L 74.279596 28.745255 
L 74.40362 29.673237 
L 74.651669 34.004747 
L 75.085755 41.348989 
L 75.178773 41.663152 
L 75.209779 41.633157 
L 75.302797 41.144451 
L 75.488834 38.597819 
L 76.139962 28.164494 
L 76.201974 28.197355 
L 76.325998 29.024346 
L 76.574047 33.10381 
L 77.101151 41.956727 
L 77.194169 42.169872 
L 77.225175 42.115561 
L 77.3492 41.289429 
L 77.597248 37.270921 
L 78.155358 27.870468 
L 78.248377 27.656629 
L 78.279383 27.706614 
L 78.403407 28.497268 
L 78.62045 31.798457 
L 79.271578 42.551563 
L 79.33359 42.649936 
L 79.364596 42.610822 
L 79.48862 41.879104 
L 79.705663 38.699975 
L 80.387797 27.314704 
L 80.449809 27.191648 
L 80.480816 27.215841 
L 80.573834 27.627422 
L 80.75987 29.83927 
L 81.597035 43.095496 
L 81.628041 43.088227 
L 81.721059 42.735431 
L 81.907096 40.657 
L 82.341181 31.956855 
L 82.682248 27.120784 
L 82.806273 26.757931 
L 82.837279 26.802131 
L 82.961303 27.508936 
L 83.178346 30.530827 
L 83.984505 43.498084 
L 84.046517 43.497461 
L 84.139535 43.103662 
L 84.325572 41.015653 
L 84.728651 32.987306 
L 85.13173 26.808909 
L 85.255755 26.342769 
L 85.286761 26.354378 
L 85.379779 26.696412 
L 85.565816 28.667082 
L 85.937889 35.919756 
L 86.371974 43.1742 
L 86.558011 43.922652 
L 86.651029 43.622354 
L 86.837066 41.751396 
L 87.178133 35.286024 
L 87.67423 26.725994 
L 87.860267 25.948118 
L 87.953285 26.219214 
L 88.139322 28.013214 
L 88.480389 34.373006 
L 89.007492 43.533969 
L 89.193529 44.314031 
L 89.286547 44.05749 
L 89.441578 42.709326 
L 89.751639 37.353822 
L 90.371761 26.320174 
L 90.557797 25.56874 
L 90.650816 25.827138 
L 90.836852 27.552193 
L 91.177919 33.77248 
L 91.736029 43.721483 
L 91.953072 44.681508 
L 92.04609 44.40337 
L 92.232127 42.663904 
L 92.573194 36.464692 
L 93.162309 26.059486 
L 93.348346 25.202455 
L 93.410358 25.277986 
L 93.534383 25.966724 
L 93.751425 28.721267 
L 94.805633 45.042951 
L 94.898651 44.799885 
L 95.053681 43.535672 
L 95.332736 39.049839 
L 96.107889 25.401915 
L 96.262919 24.850373 
L 96.293925 24.871394 
L 96.386944 25.196911 
L 96.57298 26.964962 
L 96.914047 33.09434 
L 97.534169 44.294944 
L 97.751212 45.389948 
L 97.813224 45.318046 
L 97.937248 44.662723 
L 98.154291 42.025807 
L 98.619383 32.683236 
L 99.053468 25.57248 
L 99.270511 24.51094 
L 99.332523 24.586567 
L 99.456547 25.241137 
L 99.67359 27.855866 
L 100.138681 37.165944 
L 100.603773 44.756796 
L 100.820816 45.724281 
L 100.913834 45.515645 
L 101.068864 44.357033 
L 101.347919 40.119956 
L 102.247096 24.568366 
L 102.37112 24.18393 
L 102.402127 24.190728 
L 102.495145 24.458118 
L 102.681181 26.055666 
L 102.991242 31.236909 
L 103.766395 45.17424 
L 103.983438 46.045557 
L 104.076456 45.81312 
L 104.262492 44.294727 
L 104.572553 39.230271 
L 105.409718 24.486302 
L 105.595755 23.865475 
L 105.688773 24.094044 
L 105.874809 25.591158 
L 106.18487 30.603921 
L 107.053041 45.802998 
L 107.208072 46.361505 
L 107.239078 46.355166 
L 107.332096 46.099413 
L 107.518133 44.565391 
L 107.828194 39.536264 
L 108.696364 24.205934 
L 108.882401 23.552412 
L 108.975419 23.750013 
L 109.13045 24.83762 
L 109.409505 28.855342 
L 110.463712 46.496968 
L 110.55673 46.670131 
L 110.587736 46.650795 
L 110.711761 46.190924 
L 110.928803 44.001647 
L 111.300877 37.224334 
L 111.983011 24.72616 
L 112.231059 23.264658 
L 112.324078 23.333653 
L 112.479108 24.197594 
L 112.727157 27.331712 
L 113.254261 37.996126 
L 113.719352 45.636484 
L 113.967401 46.964063 
L 114.029413 46.925829 
L 114.153438 46.402426 
L 114.37048 44.145911 
L 114.742553 37.351245 
L 115.455694 24.359861 
L 115.703742 22.965878 
L 115.796761 23.046218 
L 115.951791 23.910655 
L 116.19984 27.007948 
L 116.695938 36.964248 
L 117.223041 45.880098 
L 117.47109 47.249533 
L 117.564108 47.166757 
L 117.719139 46.3068 
L 117.967188 43.233381 
L 118.463285 33.309623 
L 118.990389 24.234877 
L 119.238438 22.702002 
L 119.30045 22.673595 
L 119.331456 22.713822 
L 119.45548 23.233449 
L 119.672523 25.440786 
L 120.044596 32.117377 
L 120.819748 46.208789 
L 121.067797 47.535389 
L 121.160816 47.449497 
L 121.315846 46.60047 
L 121.563895 43.575964 
L 122.028986 34.390032 
L 122.618102 24.010764 
L 122.866151 22.435169 
L 122.928163 22.3876 
L 122.959169 22.417042 
L 123.083194 22.886459 
L 123.300236 24.988123 
L 123.672309 31.508901 
L 124.478468 46.335324 
L 124.726517 47.793053 
L 124.788529 47.813483 
L 124.819535 47.771054 
L 124.943559 47.254378 
L 125.160602 45.09101 
L 125.532675 38.526134 
L 126.338834 23.665945 
L 126.586883 22.152644 
L 126.648895 22.114004 
L 126.679901 22.146782 
L 126.803925 22.621932 
L 127.020968 24.707367 
L 127.393041 31.166556 
L 128.230206 46.585077 
L 128.478255 48.057878 
L 128.540267 48.089456 
L 128.571273 48.053689 
L 128.695297 47.570303 
L 128.91234 45.4839 
L 129.284413 39.045003 
L 130.152584 23.194814 
L 130.400633 21.858032 
L 130.493651 21.909686 
L 130.617675 22.45035 
L 130.834718 24.615601 
L 131.206791 31.120358 
L 132.074962 46.973536 
L 132.323011 48.338715 
L 132.385023 48.349002 
L 132.416029 48.303637 
L 132.540053 47.789234 
L 132.757096 45.676756 
L 133.129169 39.25017 
L 134.028346 22.886855 
L 134.276395 21.591709 
L 134.369413 21.648681 
L 134.493438 22.187195 
L 134.71048 24.326835 
L 135.082553 30.763873 
L 135.98173 47.211212 
L 136.229779 48.593675 
L 136.291791 48.614853 
L 136.322797 48.575894 
L 136.446822 48.09298 
L 136.663864 46.052315 
L 137.035938 39.746461 
L 137.96612 22.715922 
L 138.214169 21.346789 
L 138.276181 21.326016 
L 138.307188 21.364714 
L 138.431212 21.84357 
L 138.648255 23.867254 
L 139.020328 30.134026 
L 139.981517 47.609051 
L 140.229566 48.865356 
L 140.322584 48.808491 
L 140.477614 48.072903 
L 140.725663 45.351042 
L 141.159748 37.287891 
L 141.934901 23.00226 
L 142.213956 21.135699 
L 142.306974 21.077073 
L 142.33798 21.121774 
L 142.462005 21.618422 
L 142.679047 23.650356 
L 143.05112 29.888596 
L 144.043316 47.889322 
L 144.291364 49.118061 
L 144.384383 49.059967 
L 144.539413 48.333585 
L 144.787462 45.649876 
L 145.190541 38.316872 
L 146.027706 22.771306 
L 146.306761 20.895319 
L 146.399779 20.823405 
L 146.430785 20.862547 
L 146.554809 21.331838 
L 146.771852 23.300773 
L 147.112919 28.818885 
L 148.229139 48.572163 
L 148.446181 49.37742 
L 148.5392 49.256186 
L 148.69423 48.438094 
L 148.942279 45.649349 
L 149.376364 37.593506 
L 150.182523 22.654499 
L 150.461578 20.685068 
L 150.554596 20.57064 
L 150.585602 20.594538 
L 150.709627 20.998453 
L 150.926669 22.843513 
L 151.267736 28.187389 
L 152.445968 48.910329 
L 152.663011 49.620783 
L 152.756029 49.466097 
L 152.911059 48.604028 
L 153.159108 45.77615 
L 153.593194 37.715559 
L 154.399352 22.644283 
L 154.678407 20.512889 
L 154.802431 20.332485 
L 154.833438 20.36362 
L 154.957462 20.791142 
L 155.174505 22.656789 
L 155.515572 27.992311 
L 156.724809 49.185926 
L 156.941852 49.859067 
L 157.03487 49.695594 
L 157.189901 48.828868 
L 157.43795 46.015763 
L 157.872035 38.00267 
L 158.7092 22.369306 
L 158.988255 20.271873 
L 159.112279 20.09528 
L 159.143285 20.126161 
L 159.267309 20.547923 
L 159.484352 22.387438 
L 159.825419 27.661473 
L 161.065663 49.411947 
L 161.282706 50.095232 
L 161.375724 49.943183 
L 161.530755 49.103951 
L 161.778803 46.349928 
L 162.212889 38.429631 
L 163.081059 22.172638 
L 163.39112 19.962924 
L 163.484139 19.859138 
L 163.515145 19.883677 
L 163.639169 20.275821 
L 163.856212 22.051036 
L 164.197279 27.218861 
L 165.499535 49.786705 
L 165.685572 50.327502 
L 165.77859 50.203126 
L 165.93362 49.417382 
L 166.181669 46.758775 
L 166.584748 39.614964 
L 167.545938 21.693941 
L 167.824992 19.762166 
L 167.918011 19.627538 
L 167.949017 19.640897 
L 168.073041 19.984439 
L 168.259078 21.344418 
L 168.569139 25.595313 
L 169.189261 38.251716 
L 169.778377 48.337646 
L 170.057431 50.375769 
L 170.181456 50.552747 
L 170.212462 50.524727 
L 170.336486 50.125332 
L 170.553529 48.3612 
L 170.894596 43.250244 
L 172.258864 19.841814 
L 172.444901 19.403743 
L 172.537919 19.571234 
L 172.723956 20.665098 
L 173.003011 24.037254 
L 173.499108 33.557239 
L 174.274261 48.02776 
L 174.584322 50.541561 
L 174.708346 50.78077 
L 174.739352 50.769392 
L 174.863377 50.439964 
L 175.049413 49.117531 
L 175.359474 44.954981 
L 175.94859 33.0423 
L 176.568712 21.939619 
L 176.878773 19.423561 
L 177.033803 19.187156 
L 177.157828 19.506215 
L 177.343864 20.808232 
L 177.653925 24.930772 
L 178.212035 36.138418 
L 178.863163 48.032116 
L 179.173224 50.684367 
L 179.328255 51.001965 
L 179.359261 50.9813 
L 179.483285 50.61896 
L 179.700328 48.944048 
L 180.041395 43.996939 
L 181.498681 19.287861 
L 181.653712 18.957412 
L 181.684718 18.974913 
L 181.808742 19.32286 
L 182.025785 20.967249 
L 182.366852 25.863293 
L 183.142005 41.81271 
L 183.638102 49.422205 
L 183.917157 51.135278 
L 184.010175 51.217981 
L 184.041181 51.190077 
L 184.165206 50.802831 
L 184.382248 49.100439 
L 184.723316 44.145809 
L 185.56048 26.986844 
L 186.025572 20.271444 
L 186.304627 18.776229 
L 186.397645 18.765947 
L 186.521669 19.136464 
L 186.738712 20.804836 
L 187.079779 25.704535 
L 187.823925 41.040372 
L 188.351029 49.421289 
L 188.630084 51.292054 
L 188.754108 51.429907 
L 188.785114 51.395981 
L 188.909139 50.988475 
L 189.126181 49.265683 
L 189.467248 44.311186 
L 190.242401 28.339407 
L 190.738498 20.57359 
L 191.017553 18.682349 
L 191.141578 18.530343 
L 191.172584 18.560287 
L 191.296608 18.950295 
L 191.513651 20.638066 
L 191.854718 25.536792 
L 192.567858 40.238127 
L 193.125968 49.404946 
L 193.436029 51.525956 
L 193.560053 51.637916 
L 193.684078 51.318654 
L 193.870114 50.052647 
L 194.180175 46.058856 
L 194.707279 35.699361 
L 195.482431 21.311951 
L 195.823498 18.546837 
L 195.978529 18.322954 
L 196.102553 18.625941 
L 196.28859 19.86382 
L 196.598651 23.807635 
L 197.125755 34.115182 
L 197.900907 48.636986 
L 198.241974 51.554492 
L 198.397005 51.860283 
L 198.428011 51.841538 
L 198.552035 51.500936 
L 198.769078 49.912858 
L 199.110145 45.175683 
L 199.761273 31.86677 
L 200.381395 20.971763 
L 200.691456 18.424095 
L 200.846486 18.104764 
L 200.877492 18.120289 
L 201.001517 18.446527 
L 201.218559 20.004924 
L 201.52862 24.170365 
L 202.08673 35.298479 
L 202.830877 48.989774 
L 203.171944 51.800099 
L 203.326974 52.065539 
L 203.35798 52.039664 
L 203.482005 51.674006 
L 203.699047 50.056097 
L 204.040114 45.304641 
L 204.691242 32.003099 
L 205.311364 20.993254 
L 205.652431 18.175489 
L 205.807462 17.900195 
L 205.838468 17.923616 
L 205.962492 18.277987 
L 206.179535 19.871586 
L 206.520602 24.580724 
L 207.140724 37.186181 
L 207.791852 48.975113 
L 208.132919 51.926116 
L 208.28795 52.273464 
L 208.318956 52.264995 
L 208.44298 51.971477 
L 208.629017 50.770016 
L 208.939078 46.928212 
L 209.466181 36.767889 
L 210.303346 20.993216 
L 210.644413 18.046111 
L 210.83045 17.701954 
L 210.954474 17.988928 
L 211.140511 19.176653 
L 211.450572 22.989236 
L 211.946669 32.447348 
L 212.845846 49.380075 
L 213.186913 52.187676 
L 213.341944 52.47587 
L 213.37295 52.456409 
L 213.496974 52.12227 
L 213.714017 50.578633 
L 214.024078 46.480805 
L 214.582188 35.460358 
L 215.35734 20.960282 
L 215.698407 17.912486 
L 215.884444 17.49331 
L 215.977462 17.628387 
L 216.132492 18.358719 
L 216.380541 20.769007 
L 216.78362 27.354011 
L 218.116883 51.367996 
L 218.364931 52.615427 
L 218.45795 52.669164 
L 218.488956 52.636184 
L 218.61298 52.251362 
L 218.830023 50.634139 
L 219.17109 45.949574 
L 219.791212 33.404798 
L 220.473346 20.88345 
L 220.814413 17.767606 
L 221.00045 17.293291 
L 221.093468 17.396776 
L 221.248498 18.070008 
L 221.496547 20.38356 
L 221.86862 26.24243 
L 223.325907 51.966593 
L 223.573956 52.871921 
L 223.666974 52.798927 
L 223.822005 52.178278 
L 224.070053 49.948607 
L 224.442127 44.195473 
L 225.961425 17.775677 
L 226.178468 17.097812 
L 226.271486 17.180999 
L 226.426517 17.815633 
L 226.674566 20.059535 
L 227.046639 25.817961 
L 228.565938 52.336346 
L 228.78298 53.065304 
L 228.875998 53.00632 
L 229.031029 52.413971 
L 229.279078 50.238879 
L 229.651151 44.569943 
L 231.201456 17.590481 
L 231.418498 16.903787 
L 231.511517 16.979128 
L 231.666547 17.595661 
L 231.914596 19.800328 
L 232.286669 25.492509 
L 233.836974 52.537047 
L 234.054017 53.259254 
L 234.147035 53.201287 
L 234.302066 52.615797 
L 234.550114 50.463246 
L 234.922188 44.841717 
L 236.503498 17.374517 
L 236.720541 16.709857 
L 236.813559 16.790867 
L 236.96859 17.411578 
L 237.216639 19.610286 
L 237.588712 25.274668 
L 239.170023 52.770606 
L 239.387066 53.454075 
L 239.480084 53.383127 
L 239.635114 52.781367 
L 239.883163 50.616702 
L 240.255236 45.002 
L 241.867553 17.126565 
L 242.084596 16.51713 
L 242.177614 16.618277 
L 242.332645 17.267024 
L 242.580694 19.495428 
L 242.952767 25.173727 
L 244.565084 53.036764 
L 244.782127 53.647229 
L 244.875145 53.54837 
L 245.030175 52.905771 
L 245.278224 50.692206 
L 245.650297 45.041012 
L 247.262614 17.017372 
L 247.479657 16.332324 
L 247.572675 16.397073 
L 247.727706 16.981392 
L 247.975755 19.10281 
L 248.316822 24.316099 
L 248.874931 33.855941 
L 249.12298 34.962038 
L 249.309017 35.041031 
L 249.355526 35.034848 
M 249.355526 35.034848 
L 249.355526 35.041031 
L 254.626563 35.034848 
L 254.626563 35.034848 
" clip-path="url(#p0e50651365)" style="fill: none; stroke: #636efa; stroke-width: 0.5; stroke-linecap: square"/>
   </g>
   <g id="line2d_18">
    <path d="M 67.039672 35.034848 
L 67.117188 34.066592 
L 67.148194 34.248564 
L 67.33423 36.95484 
L 67.396242 36.468549 
L 67.675297 32.381215 
L 67.706303 32.52213 
L 67.861334 35.058345 
L 68.109383 38.271937 
L 68.202401 37.500469 
L 68.60548 31.283253 
L 68.667492 31.527037 
L 68.822523 33.846344 
L 69.16359 39.208472 
L 69.194596 39.219359 
L 69.225602 39.12388 
L 69.349627 37.773712 
L 69.814718 30.444447 
L 69.845724 30.47291 
L 69.938742 31.124031 
L 70.155785 35.021686 
L 70.496852 39.978099 
L 70.558864 39.908203 
L 70.682889 38.74456 
L 71.272005 29.736688 
L 71.334017 29.958332 
L 71.489047 31.833256 
L 72.047157 40.6554 
L 72.078163 40.63953 
L 72.171181 40.12311 
L 72.357218 37.320627 
L 72.853316 29.179424 
L 72.915328 29.120519 
L 72.946334 29.204245 
L 73.070358 30.255166 
L 73.349413 35.488699 
L 73.721486 41.126914 
L 73.783498 41.252084 
L 73.814505 41.206615 
L 73.938529 40.328639 
L 74.186578 36.020069 
L 74.620663 28.786374 
L 74.713681 28.544085 
L 74.744688 28.601013 
L 74.868712 29.494033 
L 75.116761 33.751367 
L 75.581852 41.544799 
L 75.67487 41.79247 
L 75.705877 41.74272 
L 75.829901 40.901395 
L 76.07795 36.772316 
L 76.574047 28.314623 
L 76.667066 28.019934 
L 76.698072 28.049081 
L 76.79109 28.514017 
L 76.977127 30.951251 
L 77.690267 42.287976 
L 77.752279 42.227999 
L 77.876303 41.386913 
L 78.124352 37.376909 
L 78.682462 27.824876 
L 78.77548 27.535743 
L 78.806486 27.558541 
L 78.899505 27.981209 
L 79.085541 30.266335 
L 79.8917 42.764374 
L 79.984718 42.474288 
L 80.139748 40.907211 
L 80.480816 34.345723 
L 80.883895 27.669006 
L 81.038925 27.084859 
L 81.131944 27.405147 
L 81.31798 29.444558 
L 81.752066 38.131181 
L 82.093133 42.891714 
L 82.217157 43.197697 
L 82.248163 43.137418 
L 82.372188 42.362347 
L 82.58923 39.229888 
L 83.333377 26.780939 
L 83.395389 26.65098 
L 83.457401 26.73476 
L 83.581425 27.528572 
L 83.829474 31.232978 
L 84.542614 43.390605 
L 84.635633 43.627117 
L 84.666639 43.601771 
L 84.759657 43.215758 
L 84.945694 41.155074 
L 85.348773 33.157972 
L 85.751852 26.815892 
L 85.906883 26.241612 
L 85.937889 26.278715 
L 86.061913 26.928076 
L 86.278956 29.782453 
L 87.178133 44.021674 
L 87.240145 43.968604 
L 87.364169 43.274448 
L 87.581212 40.388964 
L 88.480389 25.877562 
L 88.542401 25.869765 
L 88.573407 25.939031 
L 88.697431 26.691764 
L 88.94548 30.184576 
L 89.782645 44.249976 
L 89.875663 44.406065 
L 89.906669 44.362482 
L 90.030694 43.71817 
L 90.247736 40.962248 
L 91.239931 25.473861 
L 91.33295 25.687486 
L 91.48798 26.944289 
L 91.767035 31.498727 
L 92.511181 44.368725 
L 92.635206 44.776848 
L 92.666212 44.764322 
L 92.75923 44.452197 
L 92.945267 42.661641 
L 93.286334 36.427929 
L 93.87545 26.00509 
L 94.061486 25.115185 
L 94.092492 25.123106 
L 94.185511 25.416735 
L 94.371547 27.154516 
L 94.712614 33.300731 
L 95.332736 44.275106 
L 95.518773 45.131174 
L 95.580785 45.064763 
L 95.704809 44.407357 
L 95.921852 41.734004 
L 96.41795 31.703965 
L 96.821029 25.541008 
L 97.007066 24.764422 
L 97.100084 24.960994 
L 97.255114 26.132249 
L 97.534169 30.455071 
L 98.371334 45.034231 
L 98.526364 45.470601 
L 98.619383 45.219153 
L 98.805419 43.611552 
L 99.11548 38.347472 
L 99.859627 25.151051 
L 100.045663 24.427795 
L 100.138681 24.633015 
L 100.293712 25.792289 
L 100.572767 30.043571 
L 101.471944 45.476197 
L 101.595968 45.806731 
L 101.626974 45.78554 
L 101.750998 45.288294 
L 101.968041 42.940987 
L 102.37112 35.20821 
L 102.92923 25.349237 
L 103.146273 24.116451 
L 103.208285 24.127138 
L 103.239291 24.19396 
L 103.394322 25.127826 
L 103.64237 28.469729 
L 104.727584 46.082823 
L 104.789596 46.123437 
L 104.820602 46.083067 
L 104.944627 45.52249 
L 105.161669 43.117113 
L 105.564748 35.384933 
L 106.153864 25.000458 
L 106.370907 23.799179 
L 106.432919 23.808979 
L 106.463925 23.873634 
L 106.618956 24.780712 
L 106.867005 28.043236 
L 108.01423 46.422016 
L 108.076242 46.420838 
L 108.107248 46.361285 
L 108.231273 45.736567 
L 108.448316 43.268764 
L 108.851395 35.529059 
L 109.440511 24.953499 
L 109.688559 23.488347 
L 109.781578 23.56799 
L 109.936608 24.46317 
L 110.184657 27.668283 
L 110.742767 39.025151 
L 111.176852 45.721641 
L 111.393895 46.742949 
L 111.455907 46.693841 
L 111.579931 46.140821 
L 111.796974 43.815238 
L 112.200053 36.25515 
L 112.851181 24.551006 
L 113.09923 23.182015 
L 113.161242 23.211781 
L 113.285267 23.721335 
L 113.502309 25.963981 
L 113.874383 32.756808 
L 114.587523 45.700063 
L 114.835572 47.036386 
L 114.897584 47.002691 
L 115.021608 46.490865 
L 115.238651 44.259888 
L 115.610724 37.502178 
L 116.323864 24.406669 
L 116.571913 22.90773 
L 116.633925 22.894552 
L 116.664931 22.943341 
L 116.788956 23.502722 
L 117.005998 25.792984 
L 117.378072 32.5867 
L 118.091212 45.723605 
L 118.339261 47.291186 
L 118.401273 47.326646 
L 118.432279 47.289632 
L 118.556303 46.780555 
L 118.773346 44.582778 
L 119.145419 37.904733 
L 119.920572 23.867581 
L 120.16862 22.599895 
L 120.261639 22.711971 
L 120.416669 23.606939 
L 120.664718 26.701676 
L 121.160816 36.616203 
L 121.687919 45.834365 
L 121.935968 47.535327 
L 122.028986 47.599942 
L 122.059992 47.550154 
L 122.184017 46.998991 
L 122.401059 44.762432 
L 122.773133 38.088578 
L 123.548285 23.845565 
L 123.796334 22.35096 
L 123.858346 22.322749 
L 123.889352 22.361575 
L 124.013377 22.865978 
L 124.230419 25.016342 
L 124.602492 31.578128 
L 125.408651 46.395062 
L 125.6567 47.859331 
L 125.718712 47.88332 
L 125.749718 47.842948 
L 125.873742 47.336161 
L 126.090785 45.194597 
L 126.462858 38.663781 
L 127.300023 23.397131 
L 127.548072 22.057667 
L 127.64109 22.116863 
L 127.765114 22.674538 
L 127.982157 24.884002 
L 128.35423 31.466771 
L 129.191395 46.75512 
L 129.439444 48.139058 
L 129.501456 48.14918 
L 129.532462 48.102968 
L 129.656486 47.580259 
L 129.873529 45.437566 
L 130.245602 38.947322 
L 131.113773 23.122353 
L 131.361822 21.791574 
L 131.45484 21.842783 
L 131.578864 22.380543 
L 131.795907 24.535539 
L 132.16798 31.019061 
L 133.036151 46.951962 
L 133.2842 48.390923 
L 133.346212 48.422068 
L 133.377218 48.387364 
L 133.501242 47.916482 
L 133.718285 45.878685 
L 134.090358 39.546002 
L 135.020541 22.708335 
L 135.26859 21.517141 
L 135.361608 21.611746 
L 135.516639 22.423286 
L 135.764688 25.284077 
L 136.198773 33.524337 
L 136.911913 46.658789 
L 137.190968 48.604289 
L 137.283986 48.677585 
L 137.314992 48.636279 
L 137.439017 48.145666 
L 137.656059 46.098017 
L 138.028133 39.794004 
L 138.989322 22.426847 
L 139.23737 21.259252 
L 139.330389 21.352848 
L 139.485419 22.150836 
L 139.733468 24.966358 
L 140.167553 33.12814 
L 140.9117 46.881774 
L 141.190755 48.846412 
L 141.283773 48.937155 
L 141.314779 48.902865 
L 141.438803 48.445772 
L 141.655846 46.472181 
L 141.996913 40.906402 
L 143.05112 21.995394 
L 143.268163 21.015279 
L 143.361181 21.070283 
L 143.516212 21.794386 
L 143.764261 24.481065 
L 144.16734 31.825799 
L 145.004505 47.314815 
L 145.283559 49.129337 
L 145.376578 49.177153 
L 145.407584 49.129712 
L 145.531608 48.626418 
L 145.748651 46.5983 
L 146.120724 40.392089 
L 147.143925 21.91701 
L 147.391974 20.759971 
L 147.484992 20.838995 
L 147.640023 21.591326 
L 147.888072 24.29354 
L 148.291151 31.618294 
L 149.159322 47.626408 
L 149.438377 49.383134 
L 149.531395 49.420261 
L 149.562401 49.37034 
L 149.717431 48.660034 
L 149.96548 46.028941 
L 150.368559 38.791273 
L 151.267736 22.245627 
L 151.546791 20.553825 
L 151.639809 20.534804 
L 151.763834 20.94007 
L 151.980877 22.782828 
L 152.321944 28.115822 
L 153.500175 48.919141 
L 153.717218 49.681278 
L 153.810236 49.550916 
L 153.965267 48.730531 
L 154.213316 45.966527 
L 154.647401 37.97822 
L 155.484566 22.412707 
L 155.76362 20.407146 
L 155.856639 20.268737 
L 155.887645 20.283357 
L 156.011669 20.644393 
L 156.228712 22.397669 
L 156.569779 27.593617 
L 157.810023 49.283526 
L 158.027066 49.916056 
L 158.120084 49.736816 
L 158.30612 48.583352 
L 158.585175 45.058208 
L 159.081273 35.313529 
L 159.763407 22.705198 
L 160.073468 20.22237 
L 160.197492 20.035223 
L 160.228498 20.063186 
L 160.352523 20.472186 
L 160.569566 22.286895 
L 160.910633 27.524114 
L 162.181883 49.59277 
L 162.367919 50.153661 
L 162.460938 50.034906 
L 162.615968 49.251783 
L 162.864017 46.582113 
L 163.267096 39.403938 
L 164.228285 21.647686 
L 164.50734 19.878404 
L 164.600358 19.80675 
L 164.631364 19.841798 
L 164.755389 20.274297 
L 164.972431 22.111295 
L 165.313498 27.34513 
L 166.615755 49.861699 
L 166.801791 50.384944 
L 166.894809 50.253208 
L 167.04984 49.457619 
L 167.297889 46.789871 
L 167.700968 39.644183 
L 168.693163 21.36369 
L 168.972218 19.642115 
L 169.065236 19.579428 
L 169.096242 19.616588 
L 169.220267 20.053146 
L 169.437309 21.881568 
L 169.778377 27.076607 
L 171.111639 50.100264 
L 171.297675 50.6124 
L 171.390694 50.480794 
L 171.545724 49.693658 
L 171.793773 47.056714 
L 172.196852 39.972899 
L 173.220053 21.125915 
L 173.499108 19.417939 
L 173.592127 19.352587 
L 173.623133 19.388028 
L 173.747157 19.813684 
L 173.9642 21.609794 
L 174.305267 26.738397 
L 175.669535 50.315364 
L 175.855572 50.836532 
L 175.94859 50.714945 
L 176.10362 49.951977 
L 176.351669 47.367677 
L 176.754748 40.368966 
L 177.808956 20.923412 
L 178.088011 19.203729 
L 178.181029 19.127188 
L 178.212035 19.158084 
L 178.336059 19.561918 
L 178.553102 21.308327 
L 178.894169 26.349715 
L 180.32045 50.672086 
L 180.506486 51.049886 
L 180.630511 50.743174 
L 180.816547 49.466995 
L 181.126608 45.397819 
L 181.684718 34.245302 
L 182.366852 21.78902 
L 182.676913 19.198912 
L 182.831944 18.904658 
L 182.86295 18.929145 
L 182.986974 19.303849 
L 183.204017 20.988932 
L 183.545084 25.928689 
L 184.351242 42.492322 
L 184.816334 49.481687 
L 185.095389 51.189633 
L 185.188407 51.272194 
L 185.219413 51.244427 
L 185.343438 50.858637 
L 185.56048 49.161911 
L 185.901547 44.220714 
L 186.707706 27.651552 
L 187.203803 20.285655 
L 187.482858 18.734557 
L 187.575877 18.703304 
L 187.606883 18.747797 
L 187.761913 19.3775 
L 188.009962 21.726284 
L 188.382035 27.785989 
L 189.622279 50.205713 
L 189.870328 51.448264 
L 189.963346 51.470114 
L 189.994352 51.422862 
L 190.149383 50.782178 
L 190.397431 48.425556 
L 190.769505 42.370496 
L 192.040755 19.596274 
L 192.288803 18.490412 
L 192.381822 18.51841 
L 192.505846 18.933227 
L 192.722889 20.658704 
L 193.063956 25.59812 
L 193.808102 40.945714 
L 194.335206 49.462798 
L 194.645267 51.578709 
L 194.769291 51.690871 
L 194.800297 51.651611 
L 194.924322 51.227306 
L 195.141364 49.492332 
L 195.482431 44.553121 
L 196.226578 29.206716 
L 196.753681 20.617111 
L 197.063742 18.417907 
L 197.187767 18.265733 
L 197.218773 18.294572 
L 197.342797 18.675959 
L 197.55984 20.334384 
L 197.900907 25.16617 
L 198.583041 39.182731 
L 199.172157 49.265156 
L 199.482218 51.668047 
L 199.637248 51.906335 
L 199.761273 51.619295 
L 199.947309 50.411359 
L 200.25737 46.525331 
L 200.784474 36.283708 
L 201.590633 21.193647 
L 201.9317 18.33876 
L 202.08673 18.054435 
L 202.117736 18.076755 
L 202.241761 18.429118 
L 202.458803 20.027906 
L 202.79987 24.760921 
L 203.450998 38.05574 
L 204.07112 49.056293 
L 204.412188 51.85433 
L 204.567218 52.116824 
L 204.660236 51.959502 
L 204.846273 50.948172 
L 205.125328 47.817889 
L 205.590419 39.380474 
L 206.582614 20.642619 
L 206.892675 18.151014 
L 207.047706 17.847356 
L 207.078712 17.864846 
L 207.202736 18.194936 
L 207.419779 19.745474 
L 207.72984 23.876078 
L 208.28795 34.950114 
L 209.032096 48.850336 
L 209.373163 51.91332 
L 209.5592 52.323038 
L 209.652218 52.178203 
L 209.807248 51.42475 
L 210.055297 48.963837 
L 210.458377 42.289701 
L 211.729627 19.162248 
L 212.008681 17.69131 
L 212.1017 17.658493 
L 212.132706 17.699172 
L 212.287736 18.286057 
L 212.535785 20.496119 
L 212.907858 26.278183 
L 214.365145 51.774497 
L 214.582188 52.52101 
L 214.675206 52.458099 
L 214.830236 51.844161 
L 215.078285 49.601131 
L 215.450358 43.793541 
L 216.907645 18.235895 
L 217.124688 17.453085 
L 217.217706 17.498018 
L 217.372736 18.079641 
L 217.620785 20.268195 
L 217.992858 26.002668 
L 219.481151 51.996414 
L 219.698194 52.72219 
L 219.791212 52.654592 
L 219.946242 52.038649 
L 220.194291 49.806119 
L 220.566364 44.033104 
L 222.054657 18.001699 
L 222.2717 17.251236 
L 222.364718 17.305992 
L 222.519748 17.898135 
L 222.767797 20.088944 
L 223.13987 25.803338 
L 224.659169 52.240643 
L 224.876212 52.922597 
L 224.96923 52.840161 
L 225.124261 52.205416 
L 225.372309 49.958169 
L 225.744383 44.190537 
L 227.263681 17.743655 
L 227.480724 17.050043 
L 227.573742 17.125382 
L 227.728773 17.74584 
L 227.976822 19.965654 
L 228.348895 25.691215 
L 229.868194 52.323142 
L 230.085236 53.106758 
L 230.178255 53.072552 
L 230.302279 52.681031 
L 230.519322 51.074954 
L 230.860389 46.450546 
L 231.449505 34.659036 
L 232.193651 20.729163 
L 232.565724 17.301849 
L 232.751761 16.852529 
L 232.844779 16.960353 
L 232.999809 17.62872 
L 233.247858 19.906826 
L 233.619931 25.67773 
L 235.170236 52.626796 
L 235.387279 53.310592 
L 235.480297 53.236925 
L 235.635328 52.626968 
L 235.883377 50.441201 
L 236.25545 44.786554 
L 237.836761 17.326709 
L 238.053803 16.662095 
L 238.146822 16.742169 
L 238.301852 17.360102 
L 238.549901 19.551705 
L 238.921974 25.202725 
L 240.534291 52.951636 
L 240.751334 53.504411 
L 240.844352 53.377855 
L 240.999383 52.686385 
L 241.247431 50.392038 
L 241.650511 44.054424 
L 243.138803 17.56572 
L 243.386852 16.499261 
L 243.47987 16.49451 
L 243.603895 16.825736 
L 243.820938 18.308466 
L 244.130998 22.23051 
L 244.658102 32.305092 
L 245.588285 50.003429 
L 245.960358 53.289479 
L 246.146395 53.694136 
L 246.239413 53.572358 
L 246.394444 52.893489 
L 246.642492 50.629143 
L 247.014566 44.924203 
L 248.40984 19.847774 
L 248.471852 19.957806 
L 248.595877 20.912027 
L 248.874931 25.50844 
L 249.355526 35.034848 
M 249.355526 35.034848 
L 249.355526 34.761442 
L 254.626563 35.034848 
L 254.626563 35.034848 
" clip-path="url(#p0e50651365)" style="fill: none; stroke: #ef553b; stroke-width: 0.5; stroke-linecap: square"/>
   </g>
   <g id="line2d_19">
    <path d="M 45.893514 35.034848 
L 46.978727 5.049641 
L 46.978727 5.049641 
L 48.063941 35.034848 
M 48.063941 35.034848 
L 48.436014 24.540015 
L 54.637233 24.540015 
L 55.009306 35.034848 
M 55.009306 35.034848 
L 56.125526 65.936254 
L 56.125526 65.936254 
L 57.241745 35.034848 
M 249.355526 35.034848 
L 250.440739 3.939077 
L 253.541349 3.939077 
L 254.626563 35.034848 
" clip-path="url(#p0e50651365)" style="fill: none; stroke: #00cc96; stroke-width: 0.5; stroke-linecap: square"/>
   </g>
   <g id="line2d_20">
    <path d="M 21.026623 35.034848 
L 30.297447 34.927175 
L 30.390465 34.894591 
L 30.700526 34.790285 
L 30.793544 34.727091 
L 30.979581 34.630748 
L 31.072599 34.538347 
L 31.22763 34.431267 
L 31.320648 34.308851 
L 31.444672 34.2068 
L 31.537691 34.057211 
L 31.630709 33.976794 
L 31.723727 33.805411 
L 31.816745 33.714847 
L 31.909764 33.525293 
L 32.002782 33.426961 
L 32.0958 33.225149 
L 32.188819 33.122571 
L 32.281837 32.916594 
L 32.374855 32.814297 
L 32.467873 32.614019 
L 32.560892 32.517258 
L 32.65391 32.333598 
L 32.746928 32.247933 
L 32.839947 32.091919 
L 32.963971 31.990512 
L 33.056989 31.879328 
L 33.274032 31.770595 
L 33.36705 31.740096 
L 33.739123 31.835001 
L 33.832142 31.931298 
L 33.956166 32.022696 
L 34.049184 32.167181 
L 34.142203 32.247933 
L 34.235221 32.423578 
L 34.328239 32.517258 
L 34.421258 32.713237 
L 34.514276 32.814297 
L 34.607294 33.01954 
L 34.700313 33.122571 
L 34.793331 33.32677 
L 34.886349 33.426961 
L 34.979367 33.621371 
L 35.072386 33.714847 
L 35.165404 33.892801 
L 35.258422 33.976794 
L 35.351441 34.133913 
L 35.475465 34.241792 
L 35.568483 34.372003 
L 35.692508 34.459456 
L 35.785526 34.562791 
L 35.971563 34.671735 
L 36.064581 34.743986 
L 36.343636 34.854077 
L 36.436654 34.894591 
L 37.118788 35.003757 
L 37.211806 35.012275 
L 45.800495 35.034848 
L 45.800495 35.034848 
M 48.437564 35.034848 
L 48.546085 35.003549 
L 48.853046 34.893351 
L 48.961567 34.842 
L 49.184811 34.732303 
L 49.293332 34.681669 
L 49.832838 34.79053 
L 49.94136 34.951611 
L 50.074686 34.846662 
L 50.183207 34.539466 
L 50.220415 34.432015 
L 50.328936 34.038234 
L 50.359942 33.930322 
L 50.468463 33.465727 
L 50.496369 33.356206 
L 50.60489 32.842234 
L 50.629695 32.739266 
L 50.738216 32.202791 
L 50.763021 32.098278 
L 50.871543 31.569508 
L 50.896348 31.469622 
L 51.004869 30.981018 
L 51.032774 30.87959 
L 51.141296 30.465054 
L 51.178503 30.354085 
L 51.287024 30.051169 
L 51.342835 29.943268 
L 51.451357 29.796126 
L 51.714909 29.905841 
L 51.82343 30.141317 
L 51.866838 30.251385 
L 51.97536 30.617443 
L 52.006366 30.721527 
L 52.114887 31.178781 
L 52.142793 31.287848 
L 52.251314 31.802007 
L 52.276119 31.90516 
L 52.38464 32.442007 
L 52.409445 32.54643 
L 52.517966 33.074376 
L 52.542771 33.174206 
L 52.651293 33.665291 
L 52.679198 33.768343 
L 52.78772 34.19879 
L 52.821826 34.307769 
L 52.930348 34.658327 
L 52.973756 34.768244 
L 53.082277 35.025614 
L 53.156692 34.915285 
L 53.265213 34.766375 
L 53.420244 34.655373 
L 53.528765 34.628924 
L 53.91014 34.739898 
L 54.018662 34.795966 
L 54.257409 34.90661 
L 54.36593 34.950382 
L 54.635683 35.033581 
L 54.635683 35.034848 
" clip-path="url(#p0e50651365)" style="fill: none; stroke: #ab63fa; stroke-width: 0.5; stroke-linecap: square"/>
   </g>
   <g id="legend_1">
    <g id="line2d_21">
     <path d="M 25.216563 3.75 
L 27.716563 3.75 
L 30.216563 3.75 
" style="fill: none; stroke: #636efa; stroke-width: 0.5; stroke-linecap: square"/>
    </g>
    <g id="text_18">
     <!-- $G_{x}$ -->
     <g transform="translate(32.716563 5.5) scale(0.05 -0.05)">
      <defs>
       <path id="TimesNewRomanPSMT-47" d="M 3928 4334 
L 4038 2997 
L 3928 2997 
Q 3763 3497 3500 3750 
Q 3122 4116 2528 4116 
Q 1719 4116 1297 3475 
Q 944 2934 944 2188 
Q 944 1581 1178 1081 
Q 1413 581 1792 348 
Q 2172 116 2572 116 
Q 2806 116 3025 175 
Q 3244 234 3447 350 
L 3447 1575 
Q 3447 1894 3398 1992 
Q 3350 2091 3248 2142 
Q 3147 2194 2891 2194 
L 2891 2313 
L 4531 2313 
L 4531 2194 
L 4453 2194 
Q 4209 2194 4119 2031 
Q 4056 1916 4056 1575 
L 4056 278 
Q 3697 84 3347 -6 
Q 2997 -97 2569 -97 
Q 1341 -97 703 691 
Q 225 1281 225 2053 
Q 225 2613 494 3125 
Q 813 3734 1369 4063 
Q 1834 4334 2469 4334 
Q 2700 4334 2889 4296 
Q 3078 4259 3425 4131 
Q 3600 4066 3659 4066 
Q 3719 4066 3761 4120 
Q 3803 4175 3813 4334 
L 3928 4334 
z
" transform="scale(0.015625)"/>
       <path id="TimesNewRomanPSMT-78" d="M 84 2863 
L 1431 2863 
L 1431 2747 
Q 1303 2747 1251 2703 
Q 1200 2659 1200 2588 
Q 1200 2513 1309 2356 
Q 1344 2306 1413 2200 
L 1616 1875 
L 1850 2200 
Q 2075 2509 2075 2591 
Q 2075 2656 2022 2701 
Q 1969 2747 1850 2747 
L 1850 2863 
L 2819 2863 
L 2819 2747 
Q 2666 2738 2553 2663 
Q 2400 2556 2134 2200 
L 1744 1678 
L 2456 653 
Q 2719 275 2831 198 
Q 2944 122 3122 113 
L 3122 0 
L 1772 0 
L 1772 113 
Q 1913 113 1991 175 
Q 2050 219 2050 291 
Q 2050 363 1850 653 
L 1431 1266 
L 972 653 
Q 759 369 759 316 
Q 759 241 829 180 
Q 900 119 1041 113 
L 1041 0 
L 106 0 
L 106 113 
Q 219 128 303 191 
Q 422 281 703 653 
L 1303 1450 
L 759 2238 
Q 528 2575 401 2661 
Q 275 2747 84 2747 
L 84 2863 
z
" transform="scale(0.015625)"/>
      </defs>
      <use xlink:href="#TimesNewRomanPSMT-47" transform="translate(0 0.28125)"/>
      <use xlink:href="#TimesNewRomanPSMT-78" transform="translate(73.719609 -25.48125) scale(0.7)"/>
     </g>
    </g>
    <g id="line2d_22">
     <path d="M 43.416562 3.75 
L 45.916562 3.75 
L 48.416562 3.75 
" style="fill: none; stroke: #ef553b; stroke-width: 0.5; stroke-linecap: square"/>
    </g>
    <g id="text_19">
     <!-- $G_{y}$ -->
     <g transform="translate(50.916562 5.5) scale(0.05 -0.05)">
      <defs>
       <path id="TimesNewRomanPSMT-79" d="M 38 2863 
L 1372 2863 
L 1372 2747 
L 1306 2747 
Q 1166 2747 1095 2686 
Q 1025 2625 1025 2534 
Q 1025 2413 1128 2197 
L 1825 753 
L 2466 2334 
Q 2519 2463 2519 2588 
Q 2519 2644 2497 2672 
Q 2472 2706 2419 2726 
Q 2366 2747 2231 2747 
L 2231 2863 
L 3163 2863 
L 3163 2747 
Q 3047 2734 2984 2696 
Q 2922 2659 2847 2556 
Q 2819 2513 2741 2316 
L 1575 -541 
Q 1406 -956 1132 -1168 
Q 859 -1381 606 -1381 
Q 422 -1381 303 -1275 
Q 184 -1169 184 -1031 
Q 184 -900 270 -820 
Q 356 -741 506 -741 
Q 609 -741 788 -809 
Q 913 -856 944 -856 
Q 1038 -856 1148 -759 
Q 1259 -663 1372 -384 
L 1575 113 
L 547 2272 
Q 500 2369 397 2513 
Q 319 2622 269 2659 
Q 197 2709 38 2747 
L 38 2863 
z
" transform="scale(0.015625)"/>
      </defs>
      <use xlink:href="#TimesNewRomanPSMT-47" transform="translate(0 0.28125)"/>
      <use xlink:href="#TimesNewRomanPSMT-79" transform="translate(73.719609 -25.48125) scale(0.7)"/>
     </g>
    </g>
    <g id="line2d_23">
     <path d="M 61.616563 3.75 
L 64.116563 3.75 
L 66.616563 3.75 
" style="fill: none; stroke: #00cc96; stroke-width: 0.5; stroke-linecap: square"/>
    </g>
    <g id="text_20">
     <!-- $G_{z}$ -->
     <g transform="translate(69.116563 5.5) scale(0.05 -0.05)">
      <defs>
       <path id="TimesNewRomanPSMT-7a" d="M 2688 878 
L 2653 0 
L 128 0 
L 128 113 
L 2028 2644 
L 1091 2644 
Q 788 2644 694 2605 
Q 600 2566 541 2456 
Q 456 2300 444 2069 
L 319 2069 
L 338 2863 
L 2738 2863 
L 2738 2747 
L 819 209 
L 1863 209 
Q 2191 209 2308 264 
Q 2425 319 2497 456 
Q 2547 556 2581 878 
L 2688 878 
z
" transform="scale(0.015625)"/>
      </defs>
      <use xlink:href="#TimesNewRomanPSMT-47" transform="translate(0 0.28125)"/>
      <use xlink:href="#TimesNewRomanPSMT-7a" transform="translate(73.719609 -25.48125) scale(0.7)"/>
     </g>
    </g>
    <g id="line2d_24">
     <path d="M 79.616563 3.75 
L 82.116563 3.75 
L 84.616563 3.75 
" style="fill: none; stroke: #ab63fa; stroke-width: 0.5; stroke-linecap: square"/>
    </g>
    <g id="text_21">
     <!-- $|B_{1}|$ -->
     <g transform="translate(87.116563 5.5) scale(0.05 -0.05)">
      <defs>
       <path id="TimesNewRomanPSMT-7c" d="M 763 4444 
L 763 -1381 
L 503 -1381 
L 503 4444 
L 763 4444 
z
" transform="scale(0.015625)"/>
       <path id="TimesNewRomanPSMT-42" d="M 2956 2163 
Q 3397 2069 3616 1863 
Q 3919 1575 3919 1159 
Q 3919 844 3719 555 
Q 3519 266 3170 133 
Q 2822 0 2106 0 
L 106 0 
L 106 116 
L 266 116 
Q 531 116 647 284 
Q 719 394 719 750 
L 719 3488 
Q 719 3881 628 3984 
Q 506 4122 266 4122 
L 106 4122 
L 106 4238 
L 1938 4238 
Q 2450 4238 2759 4163 
Q 3228 4050 3475 3764 
Q 3722 3478 3722 3106 
Q 3722 2788 3528 2536 
Q 3334 2284 2956 2163 
z
M 1319 2331 
Q 1434 2309 1582 2298 
Q 1731 2288 1909 2288 
Q 2366 2288 2595 2386 
Q 2825 2484 2947 2687 
Q 3069 2891 3069 3131 
Q 3069 3503 2766 3765 
Q 2463 4028 1881 4028 
Q 1569 4028 1319 3959 
L 1319 2331 
z
M 1319 306 
Q 1681 222 2034 222 
Q 2600 222 2897 476 
Q 3194 731 3194 1106 
Q 3194 1353 3059 1581 
Q 2925 1809 2622 1940 
Q 2319 2072 1872 2072 
Q 1678 2072 1540 2065 
Q 1403 2059 1319 2044 
L 1319 306 
z
" transform="scale(0.015625)"/>
      </defs>
      <use xlink:href="#TimesNewRomanPSMT-7c" transform="translate(0 0.5625)"/>
      <use xlink:href="#TimesNewRomanPSMT-42" transform="translate(20.019531 0.5625)"/>
      <use xlink:href="#TimesNewRomanPSMT-31" transform="translate(88.221563 -25.2) scale(0.7)"/>
      <use xlink:href="#TimesNewRomanPSMT-7c" transform="translate(127.515312 0.5625)"/>
     </g>
    </g>
    <g id="PathCollection_3">
     <g>
      <use xlink:href="#m20c0484829" x="102.016562" y="4.1875" style="stroke: #000000; stroke-width: 0.1"/>
     </g>
    </g>
    <g id="text_22">
     <!-- $Stitching \ trigger$ -->
     <g transform="translate(107.016562 5.5) scale(0.05 -0.05)">
      <defs>
       <path id="TimesNewRomanPSMT-53" d="M 2934 4334 
L 2934 2869 
L 2819 2869 
Q 2763 3291 2617 3541 
Q 2472 3791 2203 3937 
Q 1934 4084 1647 4084 
Q 1322 4084 1109 3886 
Q 897 3688 897 3434 
Q 897 3241 1031 3081 
Q 1225 2847 1953 2456 
Q 2547 2138 2764 1967 
Q 2981 1797 3098 1565 
Q 3216 1334 3216 1081 
Q 3216 600 2842 251 
Q 2469 -97 1881 -97 
Q 1697 -97 1534 -69 
Q 1438 -53 1133 45 
Q 828 144 747 144 
Q 669 144 623 97 
Q 578 50 556 -97 
L 441 -97 
L 441 1356 
L 556 1356 
Q 638 900 775 673 
Q 913 447 1195 297 
Q 1478 147 1816 147 
Q 2206 147 2432 353 
Q 2659 559 2659 841 
Q 2659 997 2573 1156 
Q 2488 1316 2306 1453 
Q 2184 1547 1640 1851 
Q 1097 2156 867 2337 
Q 638 2519 519 2737 
Q 400 2956 400 3219 
Q 400 3675 750 4004 
Q 1100 4334 1641 4334 
Q 1978 4334 2356 4169 
Q 2531 4091 2603 4091 
Q 2684 4091 2736 4139 
Q 2788 4188 2819 4334 
L 2934 4334 
z
" transform="scale(0.015625)"/>
       <path id="TimesNewRomanPSMT-63" d="M 2631 1088 
Q 2516 522 2178 217 
Q 1841 -88 1431 -88 
Q 944 -88 581 321 
Q 219 731 219 1428 
Q 219 2103 620 2525 
Q 1022 2947 1584 2947 
Q 2006 2947 2278 2723 
Q 2550 2500 2550 2259 
Q 2550 2141 2473 2067 
Q 2397 1994 2259 1994 
Q 2075 1994 1981 2113 
Q 1928 2178 1911 2362 
Q 1894 2547 1784 2644 
Q 1675 2738 1481 2738 
Q 1169 2738 978 2506 
Q 725 2200 725 1697 
Q 725 1184 976 792 
Q 1228 400 1656 400 
Q 1963 400 2206 609 
Q 2378 753 2541 1131 
L 2631 1088 
z
" transform="scale(0.015625)"/>
       <path id="TimesNewRomanPSMT-68" d="M 1041 4444 
L 1041 2350 
Q 1388 2731 1591 2839 
Q 1794 2947 1997 2947 
Q 2241 2947 2416 2812 
Q 2591 2678 2675 2391 
Q 2734 2191 2734 1659 
L 2734 647 
Q 2734 375 2778 275 
Q 2809 200 2884 156 
Q 2959 113 3159 113 
L 3159 0 
L 1753 0 
L 1753 113 
L 1819 113 
Q 2019 113 2097 173 
Q 2175 234 2206 353 
Q 2216 403 2216 647 
L 2216 1659 
Q 2216 2128 2167 2275 
Q 2119 2422 2012 2495 
Q 1906 2569 1756 2569 
Q 1603 2569 1437 2487 
Q 1272 2406 1041 2159 
L 1041 647 
Q 1041 353 1073 281 
Q 1106 209 1195 161 
Q 1284 113 1503 113 
L 1503 0 
L 84 0 
L 84 113 
Q 275 113 384 172 
Q 447 203 484 290 
Q 522 378 522 647 
L 522 3238 
Q 522 3728 498 3840 
Q 475 3953 426 3993 
Q 378 4034 297 4034 
Q 231 4034 84 3984 
L 41 4094 
L 897 4444 
L 1041 4444 
z
" transform="scale(0.015625)"/>
       <path id="TimesNewRomanPSMT-6e" d="M 1034 2341 
Q 1538 2947 1994 2947 
Q 2228 2947 2397 2830 
Q 2566 2713 2666 2444 
Q 2734 2256 2734 1869 
L 2734 647 
Q 2734 375 2778 278 
Q 2813 200 2889 156 
Q 2966 113 3172 113 
L 3172 0 
L 1756 0 
L 1756 113 
L 1816 113 
Q 2016 113 2095 173 
Q 2175 234 2206 353 
Q 2219 400 2219 647 
L 2219 1819 
Q 2219 2209 2117 2386 
Q 2016 2563 1775 2563 
Q 1403 2563 1034 2156 
L 1034 647 
Q 1034 356 1069 288 
Q 1113 197 1189 155 
Q 1266 113 1500 113 
L 1500 0 
L 84 0 
L 84 113 
L 147 113 
Q 366 113 442 223 
Q 519 334 519 647 
L 519 1709 
Q 519 2225 495 2337 
Q 472 2450 423 2490 
Q 375 2531 294 2531 
Q 206 2531 84 2484 
L 38 2597 
L 900 2947 
L 1034 2947 
L 1034 2341 
z
" transform="scale(0.015625)"/>
       <path id="TimesNewRomanPSMT-67" d="M 966 1044 
Q 703 1172 562 1401 
Q 422 1631 422 1909 
Q 422 2334 742 2640 
Q 1063 2947 1563 2947 
Q 1972 2947 2272 2747 
L 2878 2747 
Q 3013 2747 3034 2739 
Q 3056 2731 3066 2713 
Q 3084 2684 3084 2613 
Q 3084 2531 3069 2500 
Q 3059 2484 3036 2475 
Q 3013 2466 2878 2466 
L 2506 2466 
Q 2681 2241 2681 1891 
Q 2681 1491 2375 1206 
Q 2069 922 1553 922 
Q 1341 922 1119 984 
Q 981 866 932 777 
Q 884 688 884 625 
Q 884 572 936 522 
Q 988 472 1138 450 
Q 1225 438 1575 428 
Q 2219 413 2409 384 
Q 2700 344 2873 169 
Q 3047 -6 3047 -263 
Q 3047 -616 2716 -925 
Q 2228 -1381 1444 -1381 
Q 841 -1381 425 -1109 
Q 191 -953 191 -784 
Q 191 -709 225 -634 
Q 278 -519 444 -313 
Q 466 -284 763 25 
Q 600 122 533 198 
Q 466 275 466 372 
Q 466 481 555 628 
Q 644 775 966 1044 
z
M 1509 2797 
Q 1278 2797 1122 2612 
Q 966 2428 966 2047 
Q 966 1553 1178 1281 
Q 1341 1075 1591 1075 
Q 1828 1075 1981 1253 
Q 2134 1431 2134 1813 
Q 2134 2309 1919 2591 
Q 1759 2797 1509 2797 
z
M 934 0 
Q 788 -159 713 -296 
Q 638 -434 638 -550 
Q 638 -700 819 -813 
Q 1131 -1006 1722 -1006 
Q 2284 -1006 2551 -807 
Q 2819 -609 2819 -384 
Q 2819 -222 2659 -153 
Q 2497 -84 2016 -72 
Q 1313 -53 934 0 
z
" transform="scale(0.015625)"/>
       <path id="TimesNewRomanPSMT-72" d="M 1038 2947 
L 1038 2303 
Q 1397 2947 1775 2947 
Q 1947 2947 2059 2842 
Q 2172 2738 2172 2600 
Q 2172 2478 2090 2393 
Q 2009 2309 1897 2309 
Q 1788 2309 1652 2417 
Q 1516 2525 1450 2525 
Q 1394 2525 1328 2463 
Q 1188 2334 1038 2041 
L 1038 669 
Q 1038 431 1097 309 
Q 1138 225 1241 169 
Q 1344 113 1538 113 
L 1538 0 
L 72 0 
L 72 113 
Q 291 113 397 181 
Q 475 231 506 341 
Q 522 394 522 644 
L 522 1753 
Q 522 2253 501 2348 
Q 481 2444 426 2487 
Q 372 2531 291 2531 
Q 194 2531 72 2484 
L 41 2597 
L 906 2947 
L 1038 2947 
z
" transform="scale(0.015625)"/>
      </defs>
      <use xlink:href="#TimesNewRomanPSMT-53" transform="translate(0 0.5625)"/>
      <use xlink:href="#TimesNewRomanPSMT-74" transform="translate(55.615234 0.5625)"/>
      <use xlink:href="#TimesNewRomanPSMT-69" transform="translate(83.398438 0.5625)"/>
      <use xlink:href="#TimesNewRomanPSMT-74" transform="translate(111.181641 0.5625)"/>
      <use xlink:href="#TimesNewRomanPSMT-63" transform="translate(138.964844 0.5625)"/>
      <use xlink:href="#TimesNewRomanPSMT-68" transform="translate(183.349609 0.5625)"/>
      <use xlink:href="#TimesNewRomanPSMT-69" transform="translate(233.349609 0.5625)"/>
      <use xlink:href="#TimesNewRomanPSMT-6e" transform="translate(261.132812 0.5625)"/>
      <use xlink:href="#TimesNewRomanPSMT-67" transform="translate(311.132812 0.5625)"/>
      <use xlink:href="#TimesNewRomanPSMT-74" transform="translate(393.603191 0.5625)"/>
      <use xlink:href="#TimesNewRomanPSMT-72" transform="translate(421.386394 0.5625)"/>
      <use xlink:href="#TimesNewRomanPSMT-69" transform="translate(454.687175 0.5625)"/>
      <use xlink:href="#TimesNewRomanPSMT-67" transform="translate(482.470378 0.5625)"/>
      <use xlink:href="#TimesNewRomanPSMT-67" transform="translate(532.470378 0.5625)"/>
      <use xlink:href="#TimesNewRomanPSMT-65" transform="translate(582.470378 0.5625)"/>
      <use xlink:href="#TimesNewRomanPSMT-72" transform="translate(626.855144 0.5625)"/>
     </g>
    </g>
    <g id="PathCollection_4">
     <g>
      <use xlink:href="#m3fdf134759" x="147.566563" y="4.1875" style="stroke: #000000; stroke-width: 0.1"/>
     </g>
    </g>
    <g id="text_23">
     <!-- $Standard \ trigger$ -->
     <g transform="translate(152.566563 5.5) scale(0.05 -0.05)">
      <defs>
       <path id="TimesNewRomanPSMT-61" d="M 1822 413 
Q 1381 72 1269 19 
Q 1100 -59 909 -59 
Q 613 -59 420 144 
Q 228 347 228 678 
Q 228 888 322 1041 
Q 450 1253 767 1440 
Q 1084 1628 1822 1897 
L 1822 2009 
Q 1822 2438 1686 2597 
Q 1550 2756 1291 2756 
Q 1094 2756 978 2650 
Q 859 2544 859 2406 
L 866 2225 
Q 866 2081 792 2003 
Q 719 1925 600 1925 
Q 484 1925 411 2006 
Q 338 2088 338 2228 
Q 338 2497 613 2722 
Q 888 2947 1384 2947 
Q 1766 2947 2009 2819 
Q 2194 2722 2281 2516 
Q 2338 2381 2338 1966 
L 2338 994 
Q 2338 584 2353 492 
Q 2369 400 2405 369 
Q 2441 338 2488 338 
Q 2538 338 2575 359 
Q 2641 400 2828 588 
L 2828 413 
Q 2478 -56 2159 -56 
Q 2006 -56 1915 50 
Q 1825 156 1822 413 
z
M 1822 616 
L 1822 1706 
Q 1350 1519 1213 1441 
Q 966 1303 859 1153 
Q 753 1003 753 825 
Q 753 600 887 451 
Q 1022 303 1197 303 
Q 1434 303 1822 616 
z
" transform="scale(0.015625)"/>
      </defs>
      <use xlink:href="#TimesNewRomanPSMT-53" transform="translate(0 0.5625)"/>
      <use xlink:href="#TimesNewRomanPSMT-74" transform="translate(55.615234 0.5625)"/>
      <use xlink:href="#TimesNewRomanPSMT-61" transform="translate(83.398438 0.5625)"/>
      <use xlink:href="#TimesNewRomanPSMT-6e" transform="translate(127.783203 0.5625)"/>
      <use xlink:href="#TimesNewRomanPSMT-64" transform="translate(177.783203 0.5625)"/>
      <use xlink:href="#TimesNewRomanPSMT-61" transform="translate(227.783203 0.5625)"/>
      <use xlink:href="#TimesNewRomanPSMT-72" transform="translate(272.167969 0.5625)"/>
      <use xlink:href="#TimesNewRomanPSMT-64" transform="translate(305.46875 0.5625)"/>
      <use xlink:href="#TimesNewRomanPSMT-74" transform="translate(387.939128 0.5625)"/>
      <use xlink:href="#TimesNewRomanPSMT-72" transform="translate(415.722332 0.5625)"/>
      <use xlink:href="#TimesNewRomanPSMT-69" transform="translate(449.023113 0.5625)"/>
      <use xlink:href="#TimesNewRomanPSMT-67" transform="translate(476.806316 0.5625)"/>
      <use xlink:href="#TimesNewRomanPSMT-67" transform="translate(526.806316 0.5625)"/>
      <use xlink:href="#TimesNewRomanPSMT-65" transform="translate(576.806316 0.5625)"/>
      <use xlink:href="#TimesNewRomanPSMT-72" transform="translate(621.191082 0.5625)"/>
     </g>
    </g>
   </g>
  </g>
 </g>
 <defs>
  <clipPath id="p0e50651365">
   <rect x="20.716563" y="3.755808" width="233.91" height="62.55808"/>
  </clipPath>
 </defs>
</svg>
