<?xml version="1.0" encoding="utf-8" standalone="no"?>
<!DOCTYPE svg PUBLIC "-//W3C//DTD SVG 1.1//EN"
  "http://www.w3.org/Graphics/SVG/1.1/DTD/svg11.dtd">
<svg xmlns:xlink="http://www.w3.org/1999/xlink" width="255.1175pt" height="84.998638pt" viewBox="0 0 255.1175 84.998638" xmlns="http://www.w3.org/2000/svg" version="1.1">
 <metadata>
  <rdf:RDF xmlns:dc="http://purl.org/dc/elements/1.1/" xmlns:cc="http://creativecommons.org/ns#" xmlns:rdf="http://www.w3.org/1999/02/22-rdf-syntax-ns#">
   <cc:Work>
    <dc:type rdf:resource="http://purl.org/dc/dcmitype/StillImage"/>
    <dc:date>2024-11-01T11:51:06.185678</dc:date>
    <dc:format>image/svg+xml</dc:format>
    <dc:creator>
     <cc:Agent>
      <dc:title>Matplotlib v3.8.4, https://matplotlib.org/</dc:title>
     </cc:Agent>
    </dc:creator>
   </cc:Work>
  </rdf:RDF>
 </metadata>
 <defs>
  <style type="text/css">*{stroke-linejoin: round; stroke-linecap: butt}</style>
 </defs>
 <g id="figure_1">
  <g id="patch_1">
   <path d="M 0 84.998638 
L 255.1175 84.998638 
L 255.1175 0 
L 0 0 
L 0 84.998638 
z
" style="fill: none"/>
  </g>
  <g id="axes_1">
   <g id="patch_2">
    <path d="M 21.415625 66.709888 
L 255.1175 66.709888 
L 255.1175 3.791808 
L 21.415625 3.791808 
L 21.415625 66.709888 
z
" style="fill: none"/>
   </g>
   <g id="PathCollection_1">
    <defs>
     <path id="mc9d81c6c88" d="M 0.927647 1.936492 
L -0.927647 1.936492 
L -0.927647 1.699204 
L -0.158686 1.699204 
L -0.158686 -1.048887 
Q -0.158686 -1.086704 -0.194279 -1.128971 
Q -0.229873 -1.17198 -0.263241 -1.17198 
Q -0.315148 -1.17198 -0.381885 -1.105984 
Q -0.614724 -0.863505 -0.837181 -0.716684 
L -0.927647 -0.811599 
Q -0.249152 -1.400369 -0.025953 -1.936492 
L 0.021504 -1.936492 
Q 0.254343 -1.39073 0.927647 -0.80715 
L 0.837923 -0.712234 
Q 0.648093 -0.844967 0.381885 -1.100793 
Q 0.31589 -1.167531 0.249152 -1.167531 
Q 0.154237 -1.167531 0.154237 -1.044437 
L 0.154237 1.699204 
L 0.927647 1.699204 
L 0.927647 1.936492 
z
" style="stroke: #000000; stroke-width: 0.1"/>
    </defs>
    <g clip-path="url(#pce3c4bb2a5)">
     <use xlink:href="#mc9d81c6c88" x="67.700616" y="59.968665" style="stroke: #000000; stroke-width: 0.1"/>
     <use xlink:href="#mc9d81c6c88" x="113.248318" y="59.968665" style="stroke: #000000; stroke-width: 0.1"/>
     <use xlink:href="#mc9d81c6c88" x="158.786727" y="59.968665" style="stroke: #000000; stroke-width: 0.1"/>
     <use xlink:href="#mc9d81c6c88" x="204.325136" y="59.968665" style="stroke: #000000; stroke-width: 0.1"/>
    </g>
   </g>
   <g id="PathCollection_2">
    <defs>
     <path id="mcfa7635e68" d="M 0.927647 0.175371 
L 0.837923 0.270286 
Q 0.648093 0.137553 0.381885 -0.119015 
Q 0.31589 -0.18501 0.249152 -0.18501 
Q 0.154237 -0.18501 0.154237 -0.061917 
L 0.154237 1.936492 
L -0.158686 1.936492 
L -0.158686 -0.066366 
Q -0.158686 -0.104184 -0.194279 -0.147193 
Q -0.229873 -0.190201 -0.263241 -0.190201 
Q -0.315148 -0.190201 -0.381885 -0.123464 
Q -0.614724 0.118273 -0.837181 0.265837 
L -0.927647 0.170921 
Q -0.401165 -0.285116 -0.158686 -0.688506 
L -0.158686 -1.048887 
Q -0.158686 -1.086704 -0.194279 -1.128971 
Q -0.229873 -1.17198 -0.263241 -1.17198 
Q -0.315148 -1.17198 -0.381885 -1.105984 
Q -0.614724 -0.863505 -0.837181 -0.716684 
L -0.927647 -0.811599 
Q -0.249152 -1.400369 -0.025953 -1.936492 
L 0.021504 -1.936492 
Q 0.254343 -1.39073 0.927647 -0.80715 
L 0.837923 -0.712234 
Q 0.648093 -0.844967 0.381885 -1.100793 
Q 0.31589 -1.167531 0.249152 -1.167531 
Q 0.154237 -1.167531 0.154237 -1.044437 
L 0.154237 -0.692955 
Q 0.405614 -0.279926 0.927647 0.175371 
z
" style="stroke: #000000; stroke-width: 0.1"/>
    </defs>
    <g clip-path="url(#pce3c4bb2a5)">
     <use xlink:href="#mcfa7635e68" x="67.700616" y="53.227442" style="stroke: #000000; stroke-width: 0.1"/>
    </g>
   </g>
   <g id="matplotlib.axis_1">
    <g id="xtick_1">
     <g id="line2d_1">
      <defs>
       <path id="mfa76b21fd2" d="M 0 0 
L 0 1.5 
" style="stroke: #000000; stroke-width: 0.5"/>
      </defs>
      <g>
       <use xlink:href="#mfa76b21fd2" x="21.415625" y="66.709888" style="stroke: #000000; stroke-width: 0.5"/>
      </g>
     </g>
     <g id="text_1">
      <!-- 0 -->
      <g transform="translate(20.303438 74.573013) scale(0.04 -0.04)">
       <defs>
        <path id="ArialMT-30" d="M 266 2259 
Q 266 3072 433 3567 
Q 600 4063 929 4331 
Q 1259 4600 1759 4600 
Q 2128 4600 2406 4451 
Q 2684 4303 2865 4023 
Q 3047 3744 3150 3342 
Q 3253 2941 3253 2259 
Q 3253 1453 3087 958 
Q 2922 463 2592 192 
Q 2263 -78 1759 -78 
Q 1097 -78 719 397 
Q 266 969 266 2259 
z
M 844 2259 
Q 844 1131 1108 757 
Q 1372 384 1759 384 
Q 2147 384 2411 759 
Q 2675 1134 2675 2259 
Q 2675 3391 2411 3762 
Q 2147 4134 1753 4134 
Q 1366 4134 1134 3806 
Q 844 3388 844 2259 
z
" transform="scale(0.015625)"/>
       </defs>
       <use xlink:href="#ArialMT-30"/>
      </g>
     </g>
    </g>
    <g id="xtick_2">
     <g id="line2d_2">
      <g>
       <use xlink:href="#mfa76b21fd2" x="52.394134" y="66.709888" style="stroke: #000000; stroke-width: 0.5"/>
      </g>
     </g>
     <g id="text_2">
      <!-- 10 -->
      <g transform="translate(50.169759 74.573013) scale(0.04 -0.04)">
       <defs>
        <path id="ArialMT-31" d="M 2384 0 
L 1822 0 
L 1822 3584 
Q 1619 3391 1289 3197 
Q 959 3003 697 2906 
L 697 3450 
Q 1169 3672 1522 3987 
Q 1875 4303 2022 4600 
L 2384 4600 
L 2384 0 
z
" transform="scale(0.015625)"/>
       </defs>
       <use xlink:href="#ArialMT-31"/>
       <use xlink:href="#ArialMT-30" x="55.615234"/>
      </g>
     </g>
    </g>
    <g id="xtick_3">
     <g id="line2d_3">
      <g>
       <use xlink:href="#mfa76b21fd2" x="83.372644" y="66.709888" style="stroke: #000000; stroke-width: 0.5"/>
      </g>
     </g>
     <g id="text_3">
      <!-- 20 -->
      <g transform="translate(81.148269 74.573013) scale(0.04 -0.04)">
       <defs>
        <path id="ArialMT-32" d="M 3222 541 
L 3222 0 
L 194 0 
Q 188 203 259 391 
Q 375 700 629 1000 
Q 884 1300 1366 1694 
Q 2113 2306 2375 2664 
Q 2638 3022 2638 3341 
Q 2638 3675 2398 3904 
Q 2159 4134 1775 4134 
Q 1369 4134 1125 3890 
Q 881 3647 878 3216 
L 300 3275 
Q 359 3922 746 4261 
Q 1134 4600 1788 4600 
Q 2447 4600 2831 4234 
Q 3216 3869 3216 3328 
Q 3216 3053 3103 2787 
Q 2991 2522 2730 2228 
Q 2469 1934 1863 1422 
Q 1356 997 1212 845 
Q 1069 694 975 541 
L 3222 541 
z
" transform="scale(0.015625)"/>
       </defs>
       <use xlink:href="#ArialMT-32"/>
       <use xlink:href="#ArialMT-30" x="55.615234"/>
      </g>
     </g>
    </g>
    <g id="xtick_4">
     <g id="line2d_4">
      <g>
       <use xlink:href="#mfa76b21fd2" x="114.351153" y="66.709888" style="stroke: #000000; stroke-width: 0.5"/>
      </g>
     </g>
     <g id="text_4">
      <!-- 30 -->
      <g transform="translate(112.126778 74.573013) scale(0.04 -0.04)">
       <defs>
        <path id="ArialMT-33" d="M 269 1209 
L 831 1284 
Q 928 806 1161 595 
Q 1394 384 1728 384 
Q 2125 384 2398 659 
Q 2672 934 2672 1341 
Q 2672 1728 2419 1979 
Q 2166 2231 1775 2231 
Q 1616 2231 1378 2169 
L 1441 2663 
Q 1497 2656 1531 2656 
Q 1891 2656 2178 2843 
Q 2466 3031 2466 3422 
Q 2466 3731 2256 3934 
Q 2047 4138 1716 4138 
Q 1388 4138 1169 3931 
Q 950 3725 888 3313 
L 325 3413 
Q 428 3978 793 4289 
Q 1159 4600 1703 4600 
Q 2078 4600 2393 4439 
Q 2709 4278 2876 4000 
Q 3044 3722 3044 3409 
Q 3044 3113 2884 2869 
Q 2725 2625 2413 2481 
Q 2819 2388 3044 2092 
Q 3269 1797 3269 1353 
Q 3269 753 2831 336 
Q 2394 -81 1725 -81 
Q 1122 -81 723 278 
Q 325 638 269 1209 
z
" transform="scale(0.015625)"/>
       </defs>
       <use xlink:href="#ArialMT-33"/>
       <use xlink:href="#ArialMT-30" x="55.615234"/>
      </g>
     </g>
    </g>
    <g id="xtick_5">
     <g id="line2d_5">
      <g>
       <use xlink:href="#mfa76b21fd2" x="145.329663" y="66.709888" style="stroke: #000000; stroke-width: 0.5"/>
      </g>
     </g>
     <g id="text_5">
      <!-- 40 -->
      <g transform="translate(143.105288 74.573013) scale(0.04 -0.04)">
       <defs>
        <path id="ArialMT-34" d="M 2069 0 
L 2069 1097 
L 81 1097 
L 81 1613 
L 2172 4581 
L 2631 4581 
L 2631 1613 
L 3250 1613 
L 3250 1097 
L 2631 1097 
L 2631 0 
L 2069 0 
z
M 2069 1613 
L 2069 3678 
L 634 1613 
L 2069 1613 
z
" transform="scale(0.015625)"/>
       </defs>
       <use xlink:href="#ArialMT-34"/>
       <use xlink:href="#ArialMT-30" x="55.615234"/>
      </g>
     </g>
    </g>
    <g id="xtick_6">
     <g id="line2d_6">
      <g>
       <use xlink:href="#mfa76b21fd2" x="176.308172" y="66.709888" style="stroke: #000000; stroke-width: 0.5"/>
      </g>
     </g>
     <g id="text_6">
      <!-- 50 -->
      <g transform="translate(174.083797 74.573013) scale(0.04 -0.04)">
       <defs>
        <path id="ArialMT-35" d="M 266 1200 
L 856 1250 
Q 922 819 1161 601 
Q 1400 384 1738 384 
Q 2144 384 2425 690 
Q 2706 997 2706 1503 
Q 2706 1984 2436 2262 
Q 2166 2541 1728 2541 
Q 1456 2541 1237 2417 
Q 1019 2294 894 2097 
L 366 2166 
L 809 4519 
L 3088 4519 
L 3088 3981 
L 1259 3981 
L 1013 2750 
Q 1425 3038 1878 3038 
Q 2478 3038 2890 2622 
Q 3303 2206 3303 1553 
Q 3303 931 2941 478 
Q 2500 -78 1738 -78 
Q 1113 -78 717 272 
Q 322 622 266 1200 
z
" transform="scale(0.015625)"/>
       </defs>
       <use xlink:href="#ArialMT-35"/>
       <use xlink:href="#ArialMT-30" x="55.615234"/>
      </g>
     </g>
    </g>
    <g id="xtick_7">
     <g id="line2d_7">
      <g>
       <use xlink:href="#mfa76b21fd2" x="207.286681" y="66.709888" style="stroke: #000000; stroke-width: 0.5"/>
      </g>
     </g>
     <g id="text_7">
      <!-- 60 -->
      <g transform="translate(205.062306 74.573013) scale(0.04 -0.04)">
       <defs>
        <path id="ArialMT-36" d="M 3184 3459 
L 2625 3416 
Q 2550 3747 2413 3897 
Q 2184 4138 1850 4138 
Q 1581 4138 1378 3988 
Q 1113 3794 959 3422 
Q 806 3050 800 2363 
Q 1003 2672 1297 2822 
Q 1591 2972 1913 2972 
Q 2475 2972 2870 2558 
Q 3266 2144 3266 1488 
Q 3266 1056 3080 686 
Q 2894 316 2569 119 
Q 2244 -78 1831 -78 
Q 1128 -78 684 439 
Q 241 956 241 2144 
Q 241 3472 731 4075 
Q 1159 4600 1884 4600 
Q 2425 4600 2770 4297 
Q 3116 3994 3184 3459 
z
M 888 1484 
Q 888 1194 1011 928 
Q 1134 663 1356 523 
Q 1578 384 1822 384 
Q 2178 384 2434 671 
Q 2691 959 2691 1453 
Q 2691 1928 2437 2201 
Q 2184 2475 1800 2475 
Q 1419 2475 1153 2201 
Q 888 1928 888 1484 
z
" transform="scale(0.015625)"/>
       </defs>
       <use xlink:href="#ArialMT-36"/>
       <use xlink:href="#ArialMT-30" x="55.615234"/>
      </g>
     </g>
    </g>
    <g id="xtick_8">
     <g id="line2d_8">
      <g>
       <use xlink:href="#mfa76b21fd2" x="238.265191" y="66.709888" style="stroke: #000000; stroke-width: 0.5"/>
      </g>
     </g>
     <g id="text_8">
      <!-- 70 -->
      <g transform="translate(236.040816 74.573013) scale(0.04 -0.04)">
       <defs>
        <path id="ArialMT-37" d="M 303 3981 
L 303 4522 
L 3269 4522 
L 3269 4084 
Q 2831 3619 2401 2847 
Q 1972 2075 1738 1259 
Q 1569 684 1522 0 
L 944 0 
Q 953 541 1156 1306 
Q 1359 2072 1739 2783 
Q 2119 3494 2547 3981 
L 303 3981 
z
" transform="scale(0.015625)"/>
       </defs>
       <use xlink:href="#ArialMT-37"/>
       <use xlink:href="#ArialMT-30" x="55.615234"/>
      </g>
     </g>
    </g>
    <g id="text_9">
     <!-- Time (ms) -->
     <g transform="translate(124.882812 83.735826) scale(0.06 -0.06)">
      <defs>
       <path id="ArialMT-54" d="M 1659 0 
L 1659 4041 
L 150 4041 
L 150 4581 
L 3781 4581 
L 3781 4041 
L 2266 4041 
L 2266 0 
L 1659 0 
z
" transform="scale(0.015625)"/>
       <path id="ArialMT-69" d="M 425 3934 
L 425 4581 
L 988 4581 
L 988 3934 
L 425 3934 
z
M 425 0 
L 425 3319 
L 988 3319 
L 988 0 
L 425 0 
z
" transform="scale(0.015625)"/>
       <path id="ArialMT-6d" d="M 422 0 
L 422 3319 
L 925 3319 
L 925 2853 
Q 1081 3097 1340 3245 
Q 1600 3394 1931 3394 
Q 2300 3394 2536 3241 
Q 2772 3088 2869 2813 
Q 3263 3394 3894 3394 
Q 4388 3394 4653 3120 
Q 4919 2847 4919 2278 
L 4919 0 
L 4359 0 
L 4359 2091 
Q 4359 2428 4304 2576 
Q 4250 2725 4106 2815 
Q 3963 2906 3769 2906 
Q 3419 2906 3187 2673 
Q 2956 2441 2956 1928 
L 2956 0 
L 2394 0 
L 2394 2156 
Q 2394 2531 2256 2718 
Q 2119 2906 1806 2906 
Q 1569 2906 1367 2781 
Q 1166 2656 1075 2415 
Q 984 2175 984 1722 
L 984 0 
L 422 0 
z
" transform="scale(0.015625)"/>
       <path id="ArialMT-65" d="M 2694 1069 
L 3275 997 
Q 3138 488 2766 206 
Q 2394 -75 1816 -75 
Q 1088 -75 661 373 
Q 234 822 234 1631 
Q 234 2469 665 2931 
Q 1097 3394 1784 3394 
Q 2450 3394 2872 2941 
Q 3294 2488 3294 1666 
Q 3294 1616 3291 1516 
L 816 1516 
Q 847 969 1125 678 
Q 1403 388 1819 388 
Q 2128 388 2347 550 
Q 2566 713 2694 1069 
z
M 847 1978 
L 2700 1978 
Q 2663 2397 2488 2606 
Q 2219 2931 1791 2931 
Q 1403 2931 1139 2672 
Q 875 2413 847 1978 
z
" transform="scale(0.015625)"/>
       <path id="ArialMT-20" transform="scale(0.015625)"/>
       <path id="ArialMT-28" d="M 1497 -1347 
Q 1031 -759 709 28 
Q 388 816 388 1659 
Q 388 2403 628 3084 
Q 909 3875 1497 4659 
L 1900 4659 
Q 1522 4009 1400 3731 
Q 1209 3300 1100 2831 
Q 966 2247 966 1656 
Q 966 153 1900 -1347 
L 1497 -1347 
z
" transform="scale(0.015625)"/>
       <path id="ArialMT-73" d="M 197 991 
L 753 1078 
Q 800 744 1014 566 
Q 1228 388 1613 388 
Q 2000 388 2187 545 
Q 2375 703 2375 916 
Q 2375 1106 2209 1216 
Q 2094 1291 1634 1406 
Q 1016 1563 777 1677 
Q 538 1791 414 1992 
Q 291 2194 291 2438 
Q 291 2659 392 2848 
Q 494 3038 669 3163 
Q 800 3259 1026 3326 
Q 1253 3394 1513 3394 
Q 1903 3394 2198 3281 
Q 2494 3169 2634 2976 
Q 2775 2784 2828 2463 
L 2278 2388 
Q 2241 2644 2061 2787 
Q 1881 2931 1553 2931 
Q 1166 2931 1000 2803 
Q 834 2675 834 2503 
Q 834 2394 903 2306 
Q 972 2216 1119 2156 
Q 1203 2125 1616 2013 
Q 2213 1853 2448 1751 
Q 2684 1650 2818 1456 
Q 2953 1263 2953 975 
Q 2953 694 2789 445 
Q 2625 197 2315 61 
Q 2006 -75 1616 -75 
Q 969 -75 630 194 
Q 291 463 197 991 
z
" transform="scale(0.015625)"/>
       <path id="ArialMT-29" d="M 791 -1347 
L 388 -1347 
Q 1322 153 1322 1656 
Q 1322 2244 1188 2822 
Q 1081 3291 891 3722 
Q 769 4003 388 4659 
L 791 4659 
Q 1378 3875 1659 3084 
Q 1900 2403 1900 1659 
Q 1900 816 1576 28 
Q 1253 -759 791 -1347 
z
" transform="scale(0.015625)"/>
      </defs>
      <use xlink:href="#ArialMT-54"/>
      <use xlink:href="#ArialMT-69" x="57.333984"/>
      <use xlink:href="#ArialMT-6d" x="79.550781"/>
      <use xlink:href="#ArialMT-65" x="162.851562"/>
      <use xlink:href="#ArialMT-20" x="218.466797"/>
      <use xlink:href="#ArialMT-28" x="246.25"/>
      <use xlink:href="#ArialMT-6d" x="279.550781"/>
      <use xlink:href="#ArialMT-73" x="362.851562"/>
      <use xlink:href="#ArialMT-29" x="412.851562"/>
     </g>
    </g>
   </g>
   <g id="matplotlib.axis_2">
    <g id="ytick_1">
     <g id="line2d_9">
      <defs>
       <path id="mc7a6e909a0" d="M 0 0 
L -1.5 0 
" style="stroke: #000000; stroke-width: 0.5"/>
      </defs>
      <g>
       <use xlink:href="#mc7a6e909a0" x="21.415625" y="62.215739" style="stroke: #000000; stroke-width: 0.5"/>
      </g>
     </g>
     <g id="text_10">
      <!-- −60 -->
      <g transform="translate(9.630625 63.647302) scale(0.04 -0.04)">
       <defs>
        <path id="ArialMT-2212" d="M 3381 1997 
L 356 1997 
L 356 2522 
L 3381 2522 
L 3381 1997 
z
" transform="scale(0.015625)"/>
       </defs>
       <use xlink:href="#ArialMT-2212"/>
       <use xlink:href="#ArialMT-36" x="58.398438"/>
       <use xlink:href="#ArialMT-30" x="114.013672"/>
      </g>
     </g>
    </g>
    <g id="ytick_2">
     <g id="line2d_10">
      <g>
       <use xlink:href="#mc7a6e909a0" x="21.415625" y="53.227442" style="stroke: #000000; stroke-width: 0.5"/>
      </g>
     </g>
     <g id="text_11">
      <!-- −40 -->
      <g transform="translate(9.630625 54.659005) scale(0.04 -0.04)">
       <use xlink:href="#ArialMT-2212"/>
       <use xlink:href="#ArialMT-34" x="58.398438"/>
       <use xlink:href="#ArialMT-30" x="114.013672"/>
      </g>
     </g>
    </g>
    <g id="ytick_3">
     <g id="line2d_11">
      <g>
       <use xlink:href="#mc7a6e909a0" x="21.415625" y="44.239145" style="stroke: #000000; stroke-width: 0.5"/>
      </g>
     </g>
     <g id="text_12">
      <!-- −20 -->
      <g transform="translate(9.630625 45.670708) scale(0.04 -0.04)">
       <use xlink:href="#ArialMT-2212"/>
       <use xlink:href="#ArialMT-32" x="58.398438"/>
       <use xlink:href="#ArialMT-30" x="114.013672"/>
      </g>
     </g>
    </g>
    <g id="ytick_4">
     <g id="line2d_12">
      <g>
       <use xlink:href="#mc7a6e909a0" x="21.415625" y="35.250848" style="stroke: #000000; stroke-width: 0.5"/>
      </g>
     </g>
     <g id="text_13">
      <!-- 0 -->
      <g transform="translate(14.19125 36.682411) scale(0.04 -0.04)">
       <use xlink:href="#ArialMT-30"/>
      </g>
     </g>
    </g>
    <g id="ytick_5">
     <g id="line2d_13">
      <g>
       <use xlink:href="#mc7a6e909a0" x="21.415625" y="26.262551" style="stroke: #000000; stroke-width: 0.5"/>
      </g>
     </g>
     <g id="text_14">
      <!-- 20 -->
      <g transform="translate(11.966875 27.694113) scale(0.04 -0.04)">
       <use xlink:href="#ArialMT-32"/>
       <use xlink:href="#ArialMT-30" x="55.615234"/>
      </g>
     </g>
    </g>
    <g id="ytick_6">
     <g id="line2d_14">
      <g>
       <use xlink:href="#mc7a6e909a0" x="21.415625" y="17.274254" style="stroke: #000000; stroke-width: 0.5"/>
      </g>
     </g>
     <g id="text_15">
      <!-- 40 -->
      <g transform="translate(11.966875 18.705816) scale(0.04 -0.04)">
       <use xlink:href="#ArialMT-34"/>
       <use xlink:href="#ArialMT-30" x="55.615234"/>
      </g>
     </g>
    </g>
    <g id="ytick_7">
     <g id="line2d_15">
      <g>
       <use xlink:href="#mc7a6e909a0" x="21.415625" y="8.285957" style="stroke: #000000; stroke-width: 0.5"/>
      </g>
     </g>
     <g id="text_16">
      <!-- 60 -->
      <g transform="translate(11.966875 9.717519) scale(0.04 -0.04)">
       <use xlink:href="#ArialMT-36"/>
       <use xlink:href="#ArialMT-30" x="55.615234"/>
      </g>
     </g>
    </g>
    <g id="text_17">
     <!-- Amplitude (mT/m, μT) -->
     <g transform="translate(4.367813 64.313348) rotate(-90) scale(0.06 -0.06)">
      <defs>
       <path id="ArialMT-41" d="M -9 0 
L 1750 4581 
L 2403 4581 
L 4278 0 
L 3588 0 
L 3053 1388 
L 1138 1388 
L 634 0 
L -9 0 
z
M 1313 1881 
L 2866 1881 
L 2388 3150 
Q 2169 3728 2063 4100 
Q 1975 3659 1816 3225 
L 1313 1881 
z
" transform="scale(0.015625)"/>
       <path id="ArialMT-70" d="M 422 -1272 
L 422 3319 
L 934 3319 
L 934 2888 
Q 1116 3141 1344 3267 
Q 1572 3394 1897 3394 
Q 2322 3394 2647 3175 
Q 2972 2956 3137 2557 
Q 3303 2159 3303 1684 
Q 3303 1175 3120 767 
Q 2938 359 2589 142 
Q 2241 -75 1856 -75 
Q 1575 -75 1351 44 
Q 1128 163 984 344 
L 984 -1272 
L 422 -1272 
z
M 931 1641 
Q 931 1000 1190 694 
Q 1450 388 1819 388 
Q 2194 388 2461 705 
Q 2728 1022 2728 1688 
Q 2728 2322 2467 2637 
Q 2206 2953 1844 2953 
Q 1484 2953 1207 2617 
Q 931 2281 931 1641 
z
" transform="scale(0.015625)"/>
       <path id="ArialMT-6c" d="M 409 0 
L 409 4581 
L 972 4581 
L 972 0 
L 409 0 
z
" transform="scale(0.015625)"/>
       <path id="ArialMT-74" d="M 1650 503 
L 1731 6 
Q 1494 -44 1306 -44 
Q 1000 -44 831 53 
Q 663 150 594 308 
Q 525 466 525 972 
L 525 2881 
L 113 2881 
L 113 3319 
L 525 3319 
L 525 4141 
L 1084 4478 
L 1084 3319 
L 1650 3319 
L 1650 2881 
L 1084 2881 
L 1084 941 
Q 1084 700 1114 631 
Q 1144 563 1211 522 
Q 1278 481 1403 481 
Q 1497 481 1650 503 
z
" transform="scale(0.015625)"/>
       <path id="ArialMT-75" d="M 2597 0 
L 2597 488 
Q 2209 -75 1544 -75 
Q 1250 -75 995 37 
Q 741 150 617 320 
Q 494 491 444 738 
Q 409 903 409 1263 
L 409 3319 
L 972 3319 
L 972 1478 
Q 972 1038 1006 884 
Q 1059 663 1231 536 
Q 1403 409 1656 409 
Q 1909 409 2131 539 
Q 2353 669 2445 892 
Q 2538 1116 2538 1541 
L 2538 3319 
L 3100 3319 
L 3100 0 
L 2597 0 
z
" transform="scale(0.015625)"/>
       <path id="ArialMT-64" d="M 2575 0 
L 2575 419 
Q 2259 -75 1647 -75 
Q 1250 -75 917 144 
Q 584 363 401 755 
Q 219 1147 219 1656 
Q 219 2153 384 2558 
Q 550 2963 881 3178 
Q 1213 3394 1622 3394 
Q 1922 3394 2156 3267 
Q 2391 3141 2538 2938 
L 2538 4581 
L 3097 4581 
L 3097 0 
L 2575 0 
z
M 797 1656 
Q 797 1019 1065 703 
Q 1334 388 1700 388 
Q 2069 388 2326 689 
Q 2584 991 2584 1609 
Q 2584 2291 2321 2609 
Q 2059 2928 1675 2928 
Q 1300 2928 1048 2622 
Q 797 2316 797 1656 
z
" transform="scale(0.015625)"/>
       <path id="ArialMT-2f" d="M 0 -78 
L 1328 4659 
L 1778 4659 
L 453 -78 
L 0 -78 
z
" transform="scale(0.015625)"/>
       <path id="ArialMT-2c" d="M 569 0 
L 569 641 
L 1209 641 
L 1209 0 
Q 1209 -353 1084 -570 
Q 959 -788 688 -906 
L 531 -666 
Q 709 -588 793 -436 
Q 878 -284 888 0 
L 569 0 
z
" transform="scale(0.015625)"/>
       <path id="ArialMT-3bc" d="M 3181 3319 
L 3181 0 
L 2678 0 
L 2678 394 
Q 2516 144 2356 50 
Q 2138 -78 1847 -78 
Q 1588 -78 1388 25 
Q 1238 103 1056 334 
L 1056 -1272 
L 500 -1272 
L 500 3319 
L 1056 3319 
L 1056 1913 
Q 1056 1147 1137 920 
Q 1219 694 1401 562 
Q 1584 431 1822 431 
Q 2072 431 2269 568 
Q 2466 706 2547 923 
Q 2628 1141 2628 1903 
L 2628 3319 
L 3181 3319 
z
" transform="scale(0.015625)"/>
      </defs>
      <use xlink:href="#ArialMT-41"/>
      <use xlink:href="#ArialMT-6d" x="66.699219"/>
      <use xlink:href="#ArialMT-70" x="150"/>
      <use xlink:href="#ArialMT-6c" x="205.615234"/>
      <use xlink:href="#ArialMT-69" x="227.832031"/>
      <use xlink:href="#ArialMT-74" x="250.048828"/>
      <use xlink:href="#ArialMT-75" x="277.832031"/>
      <use xlink:href="#ArialMT-64" x="333.447266"/>
      <use xlink:href="#ArialMT-65" x="389.0625"/>
      <use xlink:href="#ArialMT-20" x="444.677734"/>
      <use xlink:href="#ArialMT-28" x="472.460938"/>
      <use xlink:href="#ArialMT-6d" x="505.761719"/>
      <use xlink:href="#ArialMT-54" x="589.0625"/>
      <use xlink:href="#ArialMT-2f" x="650.146484"/>
      <use xlink:href="#ArialMT-6d" x="677.929688"/>
      <use xlink:href="#ArialMT-2c" x="761.230469"/>
      <use xlink:href="#ArialMT-20" x="789.013672"/>
      <use xlink:href="#ArialMT-3bc" x="816.796875"/>
      <use xlink:href="#ArialMT-54" x="874.414062"/>
      <use xlink:href="#ArialMT-29" x="935.498047"/>
     </g>
    </g>
   </g>
   <g id="line2d_16">
    <path d="M 21.415625 35.250848 
L 255.1175 35.250848 
" clip-path="url(#pce3c4bb2a5)" style="fill: none; stroke: #555555; stroke-width: 0.5; stroke-linecap: square"/>
   </g>
   <g id="line2d_17">
    <path d="M 67.697518 35.250848 
L 67.713007 34.688176 
L 67.774964 35.505298 
L 67.8679 36.715365 
L 67.898878 36.554294 
L 68.146706 32.921736 
L 68.208663 33.356897 
L 68.518449 38.235463 
L 68.611384 37.687528 
L 68.983126 31.733345 
L 69.076062 32.125508 
L 69.261933 35.423955 
L 69.540739 39.2521 
L 69.602696 39.03357 
L 69.757589 36.818247 
L 70.16031 30.833839 
L 70.253245 31.382545 
L 70.470095 35.23313 
L 70.77988 39.990954 
L 70.810858 40.056449 
L 70.841837 40.027643 
L 70.934772 39.393169 
L 71.151622 35.549019 
L 71.492385 30.178652 
L 71.554342 30.100645 
L 71.585321 30.192946 
L 71.709235 31.379632 
L 72.297827 40.74428 
L 72.390762 40.450588 
L 72.545655 38.487399 
L 73.134246 29.443615 
L 73.227182 29.86699 
L 73.413053 32.508899 
L 73.970666 41.352837 
L 74.032623 41.272815 
L 74.156537 40.258275 
L 74.435344 35.072091 
L 74.807086 29.097206 
L 74.900021 28.862005 
L 74.931 28.92506 
L 75.054914 29.858383 
L 75.302742 34.214819 
L 75.736441 41.601325 
L 75.829377 41.917296 
L 75.860355 41.887128 
L 75.953291 41.39561 
L 76.139162 38.834323 
L 76.789711 28.340957 
L 76.851668 28.374007 
L 76.975582 29.205758 
L 77.22341 33.308698 
L 77.750044 42.21256 
L 77.84298 42.426932 
L 77.873958 42.372308 
L 77.997872 41.541422 
L 78.245701 37.499788 
L 78.803314 28.045239 
L 78.896249 27.83017 
L 78.927228 27.880443 
L 79.051142 28.675646 
L 79.267991 31.995833 
L 79.91854 42.810819 
L 79.980497 42.909758 
L 80.011476 42.870419 
L 80.13539 42.13449 
L 80.352239 38.937067 
L 81.033766 27.486277 
L 81.095723 27.362514 
L 81.126702 27.386846 
L 81.219637 27.800795 
L 81.405508 30.025371 
L 82.241928 43.357882 
L 82.272907 43.350572 
L 82.365842 42.995745 
L 82.551713 40.905353 
L 82.985412 32.155142 
L 83.326176 27.291242 
L 83.45009 26.9263 
L 83.481069 26.970754 
L 83.604983 27.681627 
L 83.821832 30.720907 
L 84.627273 43.762787 
L 84.68923 43.762161 
L 84.782166 43.366095 
L 84.968037 41.26607 
L 85.370758 33.191524 
L 85.773478 26.977571 
L 85.897392 26.508749 
L 85.928371 26.520425 
L 86.021306 26.864427 
L 86.207177 28.846437 
L 86.57892 36.140848 
L 87.012619 43.43704 
L 87.19849 44.189799 
L 87.291425 43.887772 
L 87.477296 42.006048 
L 87.81806 35.503469 
L 88.313716 26.894179 
L 88.499587 26.111827 
L 88.592523 26.384483 
L 88.778394 28.188807 
L 89.119157 34.585197 
L 89.645792 43.798878 
L 89.831663 44.58343 
L 89.924599 44.325413 
L 90.079491 42.969489 
L 90.389276 37.583167 
L 91.008846 26.486024 
L 91.194717 25.730266 
L 91.287653 25.99015 
L 91.473524 27.725133 
L 91.814288 33.981215 
L 92.371901 43.987472 
L 92.58875 44.953021 
L 92.681686 44.673283 
L 92.867557 42.923806 
L 93.208321 36.688921 
L 93.796912 26.223836 
L 93.982783 25.361873 
L 94.04474 25.437839 
L 94.168654 26.13054 
L 94.385504 28.900934 
L 95.438773 45.316544 
L 95.531709 45.07208 
L 95.686601 43.800591 
L 95.965408 39.288944 
L 96.739871 25.562481 
L 96.894763 25.007765 
L 96.925742 25.028907 
L 97.018677 25.356297 
L 97.204548 27.134522 
L 97.545312 33.299173 
L 98.164882 44.564233 
L 98.381732 45.665538 
L 98.443689 45.593222 
L 98.567603 44.934128 
L 98.784452 42.282037 
L 99.24913 32.885703 
L 99.682829 25.734027 
L 99.899679 24.666378 
L 99.961636 24.742441 
L 100.08555 25.400778 
L 100.302399 28.030553 
L 100.767077 37.394208 
L 101.231754 45.028742 
L 101.448604 46.001795 
L 101.54154 45.791958 
L 101.696432 44.626679 
L 101.975239 40.365219 
L 102.873615 24.724135 
L 102.99753 24.337487 
L 103.028508 24.344324 
L 103.121444 24.613253 
L 103.307315 26.219994 
L 103.6171 31.431054 
L 104.391562 45.448588 
L 104.608412 46.324919 
L 104.701348 46.091146 
L 104.887219 44.564014 
L 105.197004 39.470414 
L 106.033423 24.641599 
L 106.219295 24.017199 
L 106.31223 24.247084 
L 106.498101 25.752813 
L 106.807886 30.794423 
L 107.675284 46.080965 
L 107.830177 46.642686 
L 107.861156 46.63631 
L 107.954091 46.379086 
L 108.139962 44.836236 
L 108.449747 39.778168 
L 109.317145 24.359618 
L 109.503017 23.702335 
L 109.595952 23.901073 
L 109.750845 24.994939 
L 110.029651 29.035781 
L 111.08292 46.778928 
L 111.175856 46.953088 
L 111.206835 46.933641 
L 111.330749 46.471124 
L 111.547598 44.269248 
L 111.91934 37.452934 
L 112.600867 24.882838 
L 112.848696 23.412924 
L 112.941631 23.482317 
L 113.096524 24.351229 
L 113.344352 27.503384 
L 113.870986 38.229167 
L 114.335664 45.913493 
L 114.583492 47.248711 
L 114.645449 47.210258 
L 114.769363 46.683842 
L 114.986213 44.414342 
L 115.357955 37.580575 
L 116.070461 24.514431 
L 116.318289 23.112425 
L 116.411224 23.193228 
L 116.566117 24.062639 
L 116.813945 27.177756 
L 117.309601 37.191351 
L 117.836236 46.158508 
L 118.084064 47.535825 
L 118.176999 47.452572 
L 118.331892 46.587666 
L 118.57972 43.496561 
L 119.075376 33.515695 
L 119.602011 24.388727 
L 119.849839 22.84703 
L 119.911796 22.81846 
L 119.942774 22.858919 
L 120.066688 23.381536 
L 120.283538 25.601576 
L 120.65528 32.316588 
L 121.429743 46.489091 
L 121.677571 47.823325 
L 121.770506 47.736939 
L 121.925399 46.883026 
L 122.173227 43.841115 
L 122.637905 34.602321 
L 123.226496 24.163324 
L 123.474324 22.578662 
L 123.536281 22.530819 
L 123.56726 22.560431 
L 123.691174 23.032549 
L 123.908023 25.146307 
L 124.279766 31.704611 
L 125.085207 46.616355 
L 125.333035 48.082472 
L 125.394992 48.10302 
L 125.42597 48.060346 
L 125.549884 47.540697 
L 125.766734 45.36488 
L 126.138476 38.762226 
L 126.943917 23.81652 
L 127.191745 22.294512 
L 127.253702 22.255649 
L 127.284681 22.288615 
L 127.408595 22.7665 
L 127.625445 24.863936 
L 127.997187 31.360295 
L 128.833606 46.867545 
L 129.081434 48.348821 
L 129.143391 48.38058 
L 129.17437 48.344608 
L 129.298284 47.85844 
L 129.515134 45.76003 
L 129.886876 39.28408 
L 130.754274 23.342678 
L 131.002102 21.998204 
L 131.095038 22.050155 
L 131.218952 22.593931 
L 131.435801 24.771642 
L 131.807543 31.313832 
L 132.674942 47.258239 
L 132.92277 48.631274 
L 132.984727 48.64162 
L 133.015705 48.595994 
L 133.139619 48.078631 
L 133.356469 45.953997 
L 133.728211 39.490428 
L 134.626588 23.032947 
L 134.874416 21.730348 
L 134.967351 21.787649 
L 135.091265 22.329261 
L 135.308115 24.481214 
L 135.679857 30.955295 
L 136.578234 47.497283 
L 136.826062 48.887701 
L 136.888019 48.909002 
L 136.918997 48.869818 
L 137.042911 48.384125 
L 137.259761 46.331717 
L 137.631503 39.989575 
L 138.560858 22.861031 
L 138.808686 21.484019 
L 138.870643 21.463127 
L 138.901622 21.502047 
L 139.025536 21.983659 
L 139.242386 24.018989 
L 139.614128 30.321824 
L 140.574461 47.897411 
L 140.82229 49.160946 
L 140.915225 49.103753 
L 141.070118 48.363933 
L 141.317946 45.626408 
L 141.751645 37.516856 
L 142.526108 23.149017 
L 142.804914 21.271714 
L 142.89785 21.212751 
L 142.928828 21.257709 
L 143.052742 21.757215 
L 143.269592 23.800842 
L 143.641334 30.074981 
L 144.632646 48.179295 
L 144.880474 49.415105 
L 144.97341 49.356677 
L 145.128302 48.626115 
L 145.37613 45.926962 
L 145.778851 38.551759 
L 146.615271 22.916733 
L 146.894077 21.029951 
L 146.987013 20.957623 
L 147.017991 20.99699 
L 147.141905 21.468982 
L 147.358755 23.449247 
L 147.699519 28.999115 
L 148.814745 48.866066 
L 149.031595 49.675956 
L 149.12453 49.554025 
L 149.279423 48.731225 
L 149.527251 45.926432 
L 149.96095 37.82423 
L 150.766391 22.799254 
L 151.045198 20.81849 
L 151.138133 20.703404 
L 151.169112 20.727439 
L 151.293026 21.133678 
L 151.509875 22.989356 
L 151.850639 28.363984 
L 153.027822 49.206178 
L 153.244672 49.92072 
L 153.337607 49.765144 
L 153.4925 48.898114 
L 153.740328 46.053963 
L 154.174027 37.946986 
L 154.979468 22.788979 
L 155.258275 20.64532 
L 155.382189 20.463878 
L 155.413167 20.495192 
L 155.537081 20.925175 
L 155.753931 22.801558 
L 156.094695 28.167783 
L 157.302857 49.48336 
L 157.519706 50.160375 
L 157.612642 49.995961 
L 157.767534 49.124248 
L 158.015362 46.294954 
L 158.449061 38.235749 
L 159.285481 22.51242 
L 159.564288 20.402918 
L 159.688202 20.225308 
L 159.71918 20.256367 
L 159.843094 20.680555 
L 160.059944 22.530657 
L 160.400707 27.835041 
L 161.639848 49.710682 
L 161.856697 50.397899 
L 161.949633 50.244975 
L 162.104525 49.400914 
L 162.352354 46.631043 
L 162.786053 38.665167 
L 163.653451 22.31462 
L 163.963236 20.09219 
L 164.056172 19.987808 
L 164.08715 20.012487 
L 164.211064 20.406888 
L 164.427914 22.192319 
L 164.768677 27.389883 
L 166.069775 50.087597 
L 166.255646 50.631506 
L 166.348581 50.506415 
L 166.503474 49.716148 
L 166.751302 47.042242 
L 167.154023 39.857321 
L 168.114356 21.833168 
L 168.393163 19.890277 
L 168.486098 19.754875 
L 168.517077 19.76831 
L 168.640991 20.113829 
L 168.826862 21.481634 
L 169.136647 25.756992 
L 169.756217 38.486228 
L 170.344809 48.630199 
L 170.623616 50.68005 
L 170.74753 50.858047 
L 170.778508 50.829866 
L 170.902422 50.428172 
L 171.119272 48.653888 
L 171.460035 43.513521 
L 172.82309 19.970383 
L 173.008961 19.529792 
L 173.101896 19.698247 
L 173.287767 20.798405 
L 173.566574 24.189966 
L 174.06223 33.764736 
L 174.836693 48.31853 
L 175.146478 50.846797 
L 175.270392 51.087382 
L 175.301371 51.075939 
L 175.425285 50.744615 
L 175.611156 49.414572 
L 175.920941 45.228068 
L 176.509532 33.246833 
L 177.129103 22.080261 
L 177.438888 19.549724 
L 177.562802 19.302654 
L 177.59378 19.311958 
L 177.717694 19.632853 
L 177.903565 20.942363 
L 178.21335 25.088627 
L 178.770964 36.360768 
L 179.421512 48.322911 
L 179.731297 50.990424 
L 179.88619 51.30985 
L 179.917168 51.289066 
L 180.041082 50.924641 
L 180.257932 49.240091 
L 180.598696 44.264513 
L 182.054686 19.413242 
L 182.209578 19.080892 
L 182.240557 19.098494 
L 182.364471 19.448443 
L 182.58132 21.102295 
L 182.922084 26.026514 
L 183.696547 42.067714 
L 184.192203 49.720999 
L 184.471009 51.443931 
L 184.563945 51.52711 
L 184.594923 51.499045 
L 184.718837 51.109571 
L 184.935687 49.397381 
L 185.276451 44.414239 
L 186.11287 27.15653 
L 186.577548 20.402486 
L 186.856355 18.898666 
L 186.94929 18.888325 
L 187.073204 19.260974 
L 187.290054 20.938947 
L 187.630817 25.866842 
L 188.374301 41.290931 
L 188.900936 49.720078 
L 189.179743 51.601608 
L 189.303657 51.740255 
L 189.334635 51.706134 
L 189.458549 51.296283 
L 189.675399 49.563577 
L 190.016162 44.580568 
L 190.790625 28.516877 
L 191.286281 20.706371 
L 191.565088 18.804246 
L 191.689002 18.651365 
L 191.71998 18.681482 
L 191.843895 19.073734 
L 192.060744 20.771218 
L 192.401508 25.698134 
L 193.114013 40.48407 
L 193.671627 49.703641 
L 193.981412 51.836857 
L 194.105326 51.949461 
L 194.22924 51.628361 
L 194.415111 50.355069 
L 194.724896 46.338296 
L 195.251531 35.919185 
L 196.025993 21.44898 
L 196.366757 18.667954 
L 196.521649 18.442783 
L 196.645563 18.747513 
L 196.831435 19.992516 
L 197.14122 23.959026 
L 197.667854 34.325889 
L 198.442317 48.931262 
L 198.783081 51.865557 
L 198.937973 52.173108 
L 198.968952 52.154255 
L 199.092866 51.811692 
L 199.309715 50.214476 
L 199.650479 45.45004 
L 200.301028 32.064539 
L 200.920598 21.106835 
L 201.230383 18.544506 
L 201.385275 18.223338 
L 201.416254 18.238952 
L 201.540168 18.567067 
L 201.757018 20.134432 
L 202.066803 24.323844 
L 202.624416 35.515997 
L 203.3679 49.286079 
L 203.708664 52.112577 
L 203.863556 52.379545 
L 203.894535 52.353521 
L 204.018449 51.985759 
L 204.235298 50.358539 
L 204.576062 45.57974 
L 205.226611 32.201653 
L 205.846181 21.128449 
L 206.186944 18.294469 
L 206.341837 18.017591 
L 206.372815 18.041146 
L 206.496729 18.397557 
L 206.713579 20.000327 
L 207.054343 24.736564 
L 207.673913 37.414561 
L 208.324462 49.271335 
L 208.665225 52.23932 
L 208.820118 52.588666 
L 208.851096 52.580148 
L 208.97501 52.284941 
L 209.160881 51.076567 
L 209.470666 47.212654 
L 209.997301 36.993862 
L 210.833721 21.128411 
L 211.174484 18.164347 
L 211.360355 17.818209 
L 211.484269 18.106834 
L 211.670141 19.301395 
L 211.979926 23.135917 
L 212.475582 32.648457 
L 213.373959 49.678626 
L 213.714722 52.502384 
L 213.869615 52.792237 
L 213.900593 52.772665 
L 214.024507 52.436602 
L 214.241357 50.884082 
L 214.551142 46.762673 
L 215.108755 35.678806 
L 215.883218 21.095287 
L 216.223981 18.029953 
L 216.409852 17.608364 
L 216.502788 17.744218 
L 216.657681 18.478754 
L 216.905509 20.902912 
L 217.308229 27.52581 
L 218.640305 51.677988 
L 218.888133 52.932598 
L 218.981069 52.986644 
L 219.012047 52.953474 
L 219.135961 52.566437 
L 219.352811 50.939907 
L 219.693574 46.228384 
L 220.313145 33.611417 
L 220.994672 21.018014 
L 221.335435 17.884239 
L 221.521307 17.407195 
L 221.614242 17.511275 
L 221.769135 18.188381 
L 222.016963 20.515247 
L 222.388705 26.407833 
L 223.844695 52.28003 
L 224.092523 53.190567 
L 224.185458 53.117153 
L 224.340351 52.492933 
L 224.588179 50.250431 
L 224.959921 44.464189 
L 226.477868 17.892356 
L 226.694718 17.21059 
L 226.787653 17.294256 
L 226.942546 17.932542 
L 227.190374 20.189357 
L 227.562116 25.980921 
L 229.080063 52.65191 
L 229.296912 53.385063 
L 229.389848 53.325739 
L 229.54474 52.729982 
L 229.792569 50.542373 
L 230.164311 44.840814 
L 231.713236 17.706094 
L 231.930086 17.015449 
L 232.023021 17.091224 
L 232.177914 17.711305 
L 232.425742 19.928659 
L 232.797484 25.653596 
L 234.346409 52.853766 
L 234.563259 53.580129 
L 234.656195 53.521828 
L 234.811087 52.932969 
L 235.058915 50.768031 
L 235.430657 45.114152 
L 237.010561 17.488888 
L 237.227411 16.820403 
L 237.320346 16.901879 
L 237.475239 17.526163 
L 237.723067 19.737523 
L 238.094809 25.434501 
L 239.674713 53.088669 
L 239.891563 53.776071 
L 239.984498 53.704715 
L 240.139391 53.099492 
L 240.387219 50.92237 
L 240.758961 45.275357 
L 242.369843 17.239509 
L 242.586693 16.626567 
L 242.679628 16.728296 
L 242.834521 17.380776 
L 243.082349 19.622004 
L 243.454091 25.332979 
L 245.064974 53.356359 
L 245.281823 53.970337 
L 245.374759 53.870909 
L 245.529651 53.224612 
L 245.777479 50.998309 
L 246.149222 45.314594 
L 247.760104 17.129688 
L 247.976954 16.440697 
L 248.069889 16.505819 
L 248.224782 17.093501 
L 248.47261 19.227126 
L 248.813373 24.470416 
L 249.370987 34.065156 
L 249.618815 35.177619 
L 249.804686 35.257066 
L 249.851153 35.250848 
M 249.851153 35.250848 
L 249.851153 35.257066 
L 255.1175 35.250848 
L 255.1175 35.250848 
" clip-path="url(#pce3c4bb2a5)" style="fill: none; stroke: #636efa; stroke-width: 0.5; stroke-linecap: square"/>
   </g>
   <g id="line2d_18">
    <path d="M 67.697518 35.250848 
L 67.774964 34.27702 
L 67.805943 34.460039 
L 67.991814 37.181889 
L 68.053771 36.692799 
L 68.332578 32.581944 
L 68.363556 32.72367 
L 68.518449 35.27448 
L 68.766277 38.506565 
L 68.859212 37.730658 
L 69.261933 31.477664 
L 69.32389 31.722851 
L 69.478782 34.055504 
L 69.819546 39.44849 
L 69.850524 39.45944 
L 69.881503 39.363411 
L 70.005417 38.005473 
L 70.470095 30.634031 
L 70.501073 30.662657 
L 70.594009 31.317525 
L 70.810858 35.23761 
L 71.151622 40.222545 
L 71.213579 40.152248 
L 71.337493 38.981908 
L 71.926085 29.922199 
L 71.988042 30.145118 
L 72.142934 32.030832 
L 72.700547 40.903744 
L 72.731526 40.887783 
L 72.824461 40.368391 
L 73.010332 37.549781 
L 73.505989 29.361728 
L 73.567946 29.302484 
L 73.598924 29.386691 
L 73.722838 30.443661 
L 74.001645 35.707311 
L 74.373387 41.377972 
L 74.435344 41.503862 
L 74.466322 41.458131 
L 74.590236 40.575103 
L 74.838064 36.241739 
L 75.271764 28.966416 
L 75.364699 28.722733 
L 75.395678 28.779989 
L 75.519592 29.678147 
L 75.76742 33.959981 
L 76.232097 41.798261 
L 76.325033 42.047357 
L 76.356011 41.997322 
L 76.479925 41.151155 
L 76.727754 36.998315 
L 77.22341 28.491951 
L 77.316345 28.195565 
L 77.347324 28.22488 
L 77.440259 28.692492 
L 77.62613 31.143751 
L 78.338636 42.545715 
L 78.400593 42.485393 
L 78.524507 41.639467 
L 78.772335 37.606387 
L 79.329948 27.999385 
L 79.422884 27.708588 
L 79.453862 27.731518 
L 79.546798 28.156618 
L 79.732669 30.454894 
L 80.53811 43.024855 
L 80.631046 42.733099 
L 80.785938 41.157004 
L 81.126702 34.557757 
L 81.529423 27.842618 
L 81.684315 27.255109 
L 81.777251 27.57724 
L 81.963122 29.628388 
L 82.396821 38.364999 
L 82.737584 43.152927 
L 82.861498 43.460671 
L 82.892477 43.400046 
L 83.016391 42.620515 
L 83.264219 38.879268 
L 83.945746 27.094662 
L 84.038682 26.818734 
L 84.06966 26.834017 
L 84.162596 27.199809 
L 84.348467 29.262153 
L 84.751187 37.324036 
L 85.153908 43.472126 
L 85.277822 43.892563 
L 85.308801 43.867071 
L 85.401736 43.478836 
L 85.587607 41.406294 
L 85.990328 33.363171 
L 86.393048 26.984595 
L 86.547941 26.40701 
L 86.57892 26.444327 
L 86.702834 27.097424 
L 86.919683 29.968227 
L 87.81806 44.28939 
L 87.880017 44.236015 
L 88.003931 43.537864 
L 88.220781 40.635775 
L 89.119157 26.040865 
L 89.181114 26.033023 
L 89.212093 26.102687 
L 89.336007 26.859753 
L 89.583835 30.372665 
L 90.420255 44.519006 
L 90.51319 44.675994 
L 90.544169 44.632159 
L 90.668083 43.98414 
L 90.884932 41.212358 
L 91.876245 25.634841 
L 91.96918 25.849695 
L 92.124073 27.113731 
L 92.402879 31.694378 
L 93.146364 44.638438 
L 93.270278 45.048909 
L 93.301256 45.036312 
L 93.394192 44.722391 
L 93.580063 42.92153 
L 93.920826 36.651946 
L 94.509418 26.169127 
L 94.695289 25.274101 
L 94.726268 25.282067 
L 94.819203 25.577386 
L 95.005074 27.325167 
L 95.345838 33.506751 
L 95.965408 44.54428 
L 96.151279 45.405275 
L 96.213236 45.338482 
L 96.33715 44.677292 
L 96.554 41.988555 
L 97.049656 31.900797 
L 97.452376 25.702374 
L 97.638247 24.92132 
L 97.731183 25.119023 
L 97.886075 26.297017 
L 98.164882 30.644716 
L 99.001302 45.307774 
L 99.156194 45.746656 
L 99.24913 45.49376 
L 99.435001 43.876908 
L 99.744786 38.582535 
L 100.48827 25.310173 
L 100.674141 24.582755 
L 100.767077 24.789156 
L 100.921969 25.955102 
L 101.200776 30.230848 
L 102.099153 45.752284 
L 102.223067 46.08472 
L 102.254045 46.063407 
L 102.377959 45.563299 
L 102.594809 43.202484 
L 102.99753 35.425207 
L 103.555143 25.5095 
L 103.771992 24.269619 
L 103.833949 24.280368 
L 103.864928 24.347574 
L 104.01982 25.286814 
L 104.267648 28.647949 
L 105.351896 46.3624 
L 105.413853 46.403248 
L 105.444832 46.362646 
L 105.568746 45.798843 
L 105.785595 43.379624 
L 106.188316 35.602947 
L 106.776908 25.158713 
L 106.993757 23.950521 
L 107.055714 23.960378 
L 107.086693 24.025405 
L 107.241585 24.937703 
L 107.489413 28.219001 
L 108.635618 46.703545 
L 108.697575 46.70236 
L 108.728554 46.642465 
L 108.852468 46.014152 
L 109.069317 43.532147 
L 109.472038 35.747903 
L 110.06063 25.111485 
L 110.308458 23.637901 
L 110.401393 23.718002 
L 110.556286 24.618334 
L 110.804114 27.841891 
L 111.361727 39.264113 
L 111.795426 45.99914 
L 112.012276 47.026325 
L 112.074233 46.976934 
L 112.198147 46.420732 
L 112.414996 44.081766 
L 112.817717 36.478172 
L 113.468266 24.706675 
L 113.716094 23.329806 
L 113.778051 23.359744 
L 113.901965 23.87223 
L 114.118814 26.127782 
L 114.490557 32.959699 
L 115.203062 45.977437 
L 115.45089 47.32145 
L 115.512847 47.287561 
L 115.636761 46.772791 
L 115.853611 44.528975 
L 116.225353 37.732376 
L 116.937859 24.561508 
L 117.185687 23.053943 
L 117.247644 23.040689 
L 117.278622 23.089759 
L 117.402536 23.652358 
L 117.619386 25.9558 
L 117.991128 32.788612 
L 118.703634 46.001115 
L 118.951462 47.577717 
L 119.013419 47.613381 
L 119.044397 47.576154 
L 119.168311 47.064148 
L 119.385161 44.853723 
L 119.756903 38.137248 
L 120.531366 24.019318 
L 120.779194 22.744337 
L 120.872129 22.857057 
L 121.027022 23.757175 
L 121.27485 26.869722 
L 121.770506 36.841304 
L 122.297141 46.112512 
L 122.544969 47.823263 
L 122.637905 47.88825 
L 122.668883 47.838175 
L 122.792797 47.283841 
L 123.009647 45.034411 
L 123.381389 38.322151 
L 124.155851 23.997175 
L 124.40368 22.493968 
L 124.465637 22.465595 
L 124.496615 22.504645 
L 124.620529 23.01195 
L 124.837379 25.174689 
L 125.209121 31.774236 
L 126.014562 46.676436 
L 126.26239 48.149132 
L 126.324347 48.173258 
L 126.355326 48.132655 
L 126.47924 47.62295 
L 126.696089 45.469063 
L 127.067831 38.900664 
L 127.904251 23.54616 
L 128.152079 22.198988 
L 128.245015 22.258524 
L 128.368929 22.819409 
L 128.585778 25.041588 
L 128.95752 31.662238 
L 129.79394 47.038566 
L 130.041768 48.430468 
L 130.103725 48.440649 
L 130.134704 48.39417 
L 130.258618 47.868454 
L 130.475467 45.71343 
L 130.847209 39.185837 
L 131.714608 23.269801 
L 131.962436 21.931363 
L 132.055371 21.982867 
L 132.179285 22.523722 
L 132.396135 24.691119 
L 132.767877 31.211951 
L 133.635275 47.236541 
L 133.883103 48.683782 
L 133.94506 48.715107 
L 133.976039 48.680203 
L 134.099953 48.206611 
L 134.316803 46.157087 
L 134.688545 39.787962 
L 135.6179 22.8534 
L 135.865728 21.655352 
L 135.958664 21.750501 
L 136.113556 22.566711 
L 136.361384 25.443964 
L 136.795083 33.731645 
L 137.507589 46.941681 
L 137.786396 48.898377 
L 137.879331 48.972094 
L 137.91031 48.93055 
L 138.034224 48.437115 
L 138.251073 46.377682 
L 138.622815 40.037391 
L 139.583149 22.570293 
L 139.830977 21.395978 
L 139.923913 21.490113 
L 140.078805 22.292693 
L 140.326633 25.124418 
L 140.760333 33.333168 
L 141.503817 47.165949 
L 141.782623 49.141893 
L 141.875559 49.233158 
L 141.906537 49.198671 
L 142.030451 48.738947 
L 142.247301 46.753999 
L 142.588065 41.156191 
L 143.641334 22.136357 
L 143.858183 21.150601 
L 143.951119 21.205922 
L 144.106012 21.934192 
L 144.35384 24.636332 
L 144.75656 32.023332 
L 145.59298 47.601482 
L 145.871787 49.426446 
L 145.964722 49.474537 
L 145.995701 49.426823 
L 146.119615 48.920633 
L 146.336464 46.880844 
L 146.708206 40.638918 
L 147.730497 22.057521 
L 147.978325 20.893824 
L 148.071261 20.973303 
L 148.226153 21.729964 
L 148.473981 24.447728 
L 148.876702 31.814633 
L 149.7441 47.914868 
L 150.022907 49.681704 
L 150.115842 49.719044 
L 150.146821 49.668836 
L 150.301713 48.954443 
L 150.549541 46.308208 
L 150.952262 39.02889 
L 151.850639 22.388029 
L 152.129445 20.686492 
L 152.222381 20.667361 
L 152.346295 21.07496 
L 152.563145 22.928321 
L 152.903908 28.292006 
L 154.081092 49.21504 
L 154.297941 49.981564 
L 154.390877 49.850451 
L 154.545769 49.025345 
L 154.793597 46.245435 
L 155.227296 38.211158 
L 156.063716 22.556071 
L 156.342523 20.538969 
L 156.435458 20.399764 
L 156.466437 20.414468 
L 156.590351 20.777581 
L 156.8072 22.540947 
L 157.147964 27.766795 
L 158.387104 49.581523 
L 158.603954 50.217693 
L 158.696889 50.037421 
L 158.882761 48.877319 
L 159.161567 45.331889 
L 159.657223 35.531133 
L 160.33875 22.850245 
L 160.648536 20.35313 
L 160.77245 20.164905 
L 160.803428 20.193029 
L 160.927342 20.604383 
L 161.144192 22.429535 
L 161.484955 27.696892 
L 162.755074 49.892546 
L 162.940945 50.456664 
L 163.033881 50.337226 
L 163.188773 49.549597 
L 163.436601 46.864563 
L 163.839322 39.64508 
L 164.799656 21.786648 
L 165.078462 20.007183 
L 165.171398 19.935117 
L 165.202376 19.970367 
L 165.32629 20.405356 
L 165.54314 22.252925 
L 165.883904 27.516878 
L 167.185001 50.163022 
L 167.370872 50.689279 
L 167.463808 50.556784 
L 167.6187 49.756617 
L 167.866528 47.073517 
L 168.269249 39.886708 
L 169.260561 21.501017 
L 169.539368 19.769535 
L 169.632303 19.706487 
L 169.663282 19.743861 
L 169.787196 20.182932 
L 170.004045 22.021876 
L 170.344809 27.24681 
L 171.676885 50.40296 
L 171.862756 50.918044 
L 171.955691 50.78568 
L 172.110584 49.994015 
L 172.358412 47.341895 
L 172.761133 40.217316 
L 173.783424 21.261873 
L 174.06223 19.544069 
L 174.155166 19.478341 
L 174.186144 19.513986 
L 174.310058 19.942092 
L 174.526908 21.748537 
L 174.867671 26.906654 
L 176.230726 50.619298 
L 176.416597 51.143465 
L 176.509532 51.021179 
L 176.664425 50.25382 
L 176.912253 47.654648 
L 177.314974 40.615662 
L 178.368243 21.058205 
L 178.64705 19.328627 
L 178.739985 19.251645 
L 178.770964 19.282719 
L 178.894878 19.688877 
L 179.111727 21.445336 
L 179.452491 26.515735 
L 180.877502 50.978073 
L 181.063373 51.358047 
L 181.156309 51.168594 
L 181.34218 50.045989 
L 181.620986 46.663539 
L 182.085664 37.815387 
L 182.922084 21.928795 
L 183.231869 19.323782 
L 183.386761 19.027834 
L 183.41774 19.052463 
L 183.541654 19.429322 
L 183.758504 21.124103 
L 184.099267 26.092286 
L 184.904708 42.751237 
L 185.369386 49.780824 
L 185.648193 51.498598 
L 185.741128 51.581634 
L 185.772107 51.553708 
L 185.896021 51.165698 
L 186.11287 49.459207 
L 186.453634 44.489575 
L 187.259075 27.825064 
L 187.754731 20.416779 
L 188.033538 18.856755 
L 188.126473 18.825321 
L 188.157452 18.87007 
L 188.312344 19.503398 
L 188.560173 21.865698 
L 188.931915 27.960275 
L 190.171055 50.509016 
L 190.418883 51.758718 
L 190.511819 51.780693 
L 190.542797 51.733169 
L 190.69769 51.088798 
L 190.945518 48.718615 
L 191.31726 42.62871 
L 192.587379 19.72343 
L 192.835207 18.611204 
L 192.928142 18.639364 
L 193.052056 19.056568 
L 193.268906 20.791974 
L 193.60967 25.759815 
L 194.353154 41.195729 
L 194.879788 49.761825 
L 195.189574 51.889913 
L 195.313488 52.00272 
L 195.437402 51.68319 
L 195.623273 50.414568 
L 195.933058 46.40966 
L 196.459692 36.006027 
L 197.234155 21.484905 
L 197.574919 18.643507 
L 197.729811 18.385233 
L 197.822747 18.552755 
L 198.008618 19.600595 
L 198.287424 22.816654 
L 198.752102 31.411003 
L 199.712436 49.563046 
L 200.022221 51.979765 
L 200.177114 52.219425 
L 200.301028 51.930732 
L 200.486899 50.715845 
L 200.796684 46.807455 
L 201.323318 36.506895 
L 202.12876 21.329996 
L 202.469523 18.45868 
L 202.624416 18.172718 
L 202.655394 18.195167 
L 202.779308 18.549557 
L 202.996158 20.157546 
L 203.336922 24.917798 
L 203.98747 38.289124 
L 204.60704 49.352982 
L 204.947804 52.167121 
L 205.102697 52.431125 
L 205.195632 52.272898 
L 205.381503 51.255747 
L 205.66031 48.107451 
L 206.124987 39.621482 
L 207.1163 20.775797 
L 207.426085 18.269853 
L 207.580977 17.964448 
L 207.611956 17.982039 
L 207.73587 18.314028 
L 207.952719 19.873489 
L 208.262505 24.027863 
L 208.820118 35.165627 
L 209.563602 49.145839 
L 209.904366 52.22645 
L 210.090237 52.638526 
L 210.183172 52.492857 
L 210.338065 51.735069 
L 210.585893 49.259993 
L 210.988613 42.54745 
L 212.258732 19.286907 
L 212.537539 17.807504 
L 212.630474 17.774498 
L 212.661453 17.815412 
L 212.816345 18.405674 
L 213.064173 20.628454 
L 213.435916 26.443791 
L 214.891906 52.086828 
L 215.108755 52.837637 
L 215.201691 52.774364 
L 215.356583 52.156892 
L 215.604411 49.900955 
L 215.976153 44.059945 
L 217.432143 18.355222 
L 217.648993 17.567908 
L 217.741928 17.613099 
L 217.896821 18.19807 
L 218.144649 20.399218 
L 218.516391 26.166691 
L 220.00336 52.310022 
L 220.220209 53.039974 
L 220.313145 52.971988 
L 220.468037 52.3525 
L 220.715865 50.107123 
L 221.087607 44.300886 
L 222.574576 18.119679 
L 222.791425 17.364897 
L 222.884361 17.419969 
L 223.039254 18.015519 
L 223.287082 20.218935 
L 223.658824 25.966214 
L 225.176771 52.555656 
L 225.39362 53.241535 
L 225.486556 53.158625 
L 225.641448 52.520226 
L 225.889276 50.260048 
L 226.261018 44.459224 
L 227.778965 17.86015 
L 227.995815 17.162546 
L 228.088751 17.238319 
L 228.243643 17.862348 
L 228.491471 20.094936 
L 228.863213 25.853446 
L 230.38116 52.63863 
L 230.59801 53.426755 
L 230.690945 53.392353 
L 230.814859 52.998578 
L 231.031709 51.383259 
L 231.372473 46.732239 
L 231.961064 34.872874 
L 232.704548 20.862839 
L 233.076291 17.415801 
L 233.262162 16.963896 
L 233.355097 17.072341 
L 233.50999 17.744554 
L 233.757818 20.035769 
L 234.12956 25.839883 
L 235.678485 52.944032 
L 235.895335 53.631762 
L 235.98827 53.557672 
L 236.143163 52.944204 
L 236.390991 50.745859 
L 236.762733 45.058672 
L 238.342637 17.440805 
L 238.559487 16.772366 
L 238.652422 16.852901 
L 238.807315 17.47439 
L 239.055143 19.678605 
L 239.426885 25.362144 
L 241.037767 53.270741 
L 241.254617 53.826697 
L 241.347553 53.699413 
L 241.502445 53.003964 
L 241.750273 50.696413 
L 242.152994 44.322329 
L 243.639962 17.681191 
L 243.88779 16.608595 
L 243.980726 16.603817 
L 244.10464 16.936948 
L 244.321489 18.428212 
L 244.631275 22.372825 
L 245.157909 32.505383 
L 246.087265 50.305568 
L 246.459007 53.610529 
L 246.644878 54.017514 
L 246.737813 53.895035 
L 246.892706 53.212259 
L 247.140534 50.934883 
L 247.512276 45.197113 
L 248.906309 19.976377 
L 248.968266 20.087043 
L 249.09218 21.046755 
L 249.370987 25.669619 
L 249.851153 35.250848 
M 249.851153 35.250848 
L 249.851153 34.975868 
L 255.1175 35.250848 
L 255.1175 35.250848 
" clip-path="url(#pce3c4bb2a5)" style="fill: none; stroke: #ef553b; stroke-width: 0.5; stroke-linecap: square"/>
   </g>
   <g id="line2d_19">
    <path d="M 46.570175 35.250848 
L 47.654422 5.093086 
L 47.654422 5.093086 
L 48.73867 35.250848 
M 48.73867 35.250848 
L 49.110412 24.695621 
L 55.306114 24.695621 
L 55.677856 35.250848 
M 55.677856 35.250848 
L 56.793083 66.330081 
L 56.793083 66.330081 
L 57.908309 35.250848 
M 249.851153 35.250848 
L 250.935401 3.976132 
L 254.033252 3.976132 
L 255.1175 35.250848 
" clip-path="url(#pce3c4bb2a5)" style="fill: none; stroke: #00cc96; stroke-width: 0.5; stroke-linecap: square"/>
   </g>
   <g id="line2d_20">
    <path d="M 21.72541 35.250848 
L 30.987984 35.142555 
L 31.08092 35.109783 
L 31.390705 35.004877 
L 31.483641 34.94132 
L 31.669512 34.844423 
L 31.762447 34.75149 
L 31.91734 34.643794 
L 32.010275 34.520673 
L 32.134189 34.418035 
L 32.227125 34.267585 
L 32.32006 34.186706 
L 32.412996 34.014336 
L 32.505931 33.923251 
L 32.598867 33.732606 
L 32.691802 33.633709 
L 32.784738 33.430735 
L 32.877673 33.327566 
L 32.970609 33.120404 
L 33.063545 33.017519 
L 33.15648 32.816088 
L 33.249416 32.71877 
L 33.342351 32.534054 
L 33.435287 32.447896 
L 33.528222 32.290984 
L 33.652136 32.188993 
L 33.745072 32.077169 
L 33.961921 31.96781 
L 34.054857 31.937136 
L 34.426599 32.032587 
L 34.519534 32.129438 
L 34.643449 32.221363 
L 34.736384 32.366679 
L 34.82932 32.447896 
L 34.922255 32.624551 
L 35.015191 32.71877 
L 35.108126 32.915877 
L 35.201062 33.017519 
L 35.293997 33.223943 
L 35.386933 33.327566 
L 35.479868 33.53294 
L 35.572804 33.633709 
L 35.665739 33.829237 
L 35.758675 33.923251 
L 35.85161 34.102229 
L 35.944546 34.186706 
L 36.037481 34.344728 
L 36.161395 34.453228 
L 36.254331 34.584188 
L 36.378245 34.672144 
L 36.471181 34.776074 
L 36.657052 34.885645 
L 36.749987 34.958312 
L 37.028794 35.069037 
L 37.121729 35.109783 
L 37.803256 35.219578 
L 37.896192 35.228145 
L 46.477239 35.250848 
L 46.477239 35.250848 
M 49.111961 35.250848 
L 49.220386 35.219369 
L 49.527073 35.108537 
L 49.635498 35.056891 
L 49.858543 34.946562 
L 49.966968 34.895636 
L 50.505994 35.005124 
L 50.614419 35.167132 
L 50.747627 35.061579 
L 50.856051 34.752616 
L 50.893226 34.644546 
L 51.00165 34.248499 
L 51.032629 34.139966 
L 51.141054 33.672697 
L 51.168934 33.562546 
L 51.277359 33.045616 
L 51.302142 32.942055 
L 51.410567 32.402494 
L 51.43535 32.297379 
L 51.543774 31.765567 
L 51.568557 31.665106 
L 51.676982 31.17369 
L 51.704863 31.071677 
L 51.813287 30.654757 
L 51.847364 30.552959 
L 51.955789 30.245609 
L 52.01155 30.135686 
L 52.119975 29.984536 
L 52.38639 30.092325 
L 52.494815 30.329157 
L 52.538184 30.439858 
L 52.646609 30.808022 
L 52.677588 30.912705 
L 52.786013 31.372591 
L 52.813893 31.482286 
L 52.922318 31.999403 
L 52.947101 32.103149 
L 53.055526 32.643087 
L 53.080308 32.74811 
L 53.188733 33.279095 
L 53.213516 33.379499 
L 53.321941 33.87341 
L 53.349821 33.977055 
L 53.458246 34.409978 
L 53.492323 34.519585 
L 53.600747 34.87216 
L 53.644117 34.98271 
L 53.752542 35.241561 
L 53.82689 35.130597 
L 53.935315 34.98083 
L 54.08711 34.870533 
L 54.195535 34.842802 
L 54.57657 34.952666 
L 54.684995 35.009019 
L 54.920432 35.119243 
L 55.028857 35.163612 
L 55.304565 35.249573 
L 55.304565 35.250848 
" clip-path="url(#pce3c4bb2a5)" style="fill: none; stroke: #ab63fa; stroke-width: 0.5; stroke-linecap: square"/>
   </g>
   <g id="legend_1">
    <g id="line2d_21">
     <path d="M 25.915625 3.9 
L 28.415625 3.9 
L 30.915625 3.9 
" style="fill: none; stroke: #636efa; stroke-width: 0.5; stroke-linecap: square"/>
    </g>
    <g id="text_18">
     <!-- $G_{x}$ -->
     <g transform="translate(33.415625 5.65) scale(0.05 -0.05)">
      <defs>
       <path id="ArialMT-47" d="M 2638 1797 
L 2638 2334 
L 4578 2338 
L 4578 638 
Q 4131 281 3656 101 
Q 3181 -78 2681 -78 
Q 2006 -78 1454 211 
Q 903 500 622 1047 
Q 341 1594 341 2269 
Q 341 2938 620 3517 
Q 900 4097 1425 4378 
Q 1950 4659 2634 4659 
Q 3131 4659 3532 4498 
Q 3934 4338 4162 4050 
Q 4391 3763 4509 3300 
L 3963 3150 
Q 3859 3500 3706 3700 
Q 3553 3900 3268 4020 
Q 2984 4141 2638 4141 
Q 2222 4141 1919 4014 
Q 1616 3888 1430 3681 
Q 1244 3475 1141 3228 
Q 966 2803 966 2306 
Q 966 1694 1177 1281 
Q 1388 869 1791 669 
Q 2194 469 2647 469 
Q 3041 469 3416 620 
Q 3791 772 3984 944 
L 3984 1797 
L 2638 1797 
z
" transform="scale(0.015625)"/>
       <path id="ArialMT-78" d="M 47 0 
L 1259 1725 
L 138 3319 
L 841 3319 
L 1350 2541 
Q 1494 2319 1581 2169 
Q 1719 2375 1834 2534 
L 2394 3319 
L 3066 3319 
L 1919 1756 
L 3153 0 
L 2463 0 
L 1781 1031 
L 1600 1309 
L 728 0 
L 47 0 
z
" transform="scale(0.015625)"/>
      </defs>
      <use xlink:href="#ArialMT-47" transform="translate(0 0.203125)"/>
      <use xlink:href="#ArialMT-78" transform="translate(79.525547 -29.665625) scale(0.7)"/>
     </g>
    </g>
    <g id="line2d_22">
     <path d="M 44.415625 3.9 
L 46.915625 3.9 
L 49.415625 3.9 
" style="fill: none; stroke: #ef553b; stroke-width: 0.5; stroke-linecap: square"/>
    </g>
    <g id="text_19">
     <!-- $G_{y}$ -->
     <g transform="translate(51.915625 5.65) scale(0.05 -0.05)">
      <defs>
       <path id="ArialMT-79" d="M 397 -1278 
L 334 -750 
Q 519 -800 656 -800 
Q 844 -800 956 -737 
Q 1069 -675 1141 -563 
Q 1194 -478 1313 -144 
Q 1328 -97 1363 -6 
L 103 3319 
L 709 3319 
L 1400 1397 
Q 1534 1031 1641 628 
Q 1738 1016 1872 1384 
L 2581 3319 
L 3144 3319 
L 1881 -56 
Q 1678 -603 1566 -809 
Q 1416 -1088 1222 -1217 
Q 1028 -1347 759 -1347 
Q 597 -1347 397 -1278 
z
" transform="scale(0.015625)"/>
      </defs>
      <use xlink:href="#ArialMT-47" transform="translate(0 0.203125)"/>
      <use xlink:href="#ArialMT-79" transform="translate(79.525547 -29.665625) scale(0.7)"/>
     </g>
    </g>
    <g id="line2d_23">
     <path d="M 62.915625 3.9 
L 65.415625 3.9 
L 67.915625 3.9 
" style="fill: none; stroke: #00cc96; stroke-width: 0.5; stroke-linecap: square"/>
    </g>
    <g id="text_20">
     <!-- $G_{z}$ -->
     <g transform="translate(70.415625 5.65) scale(0.05 -0.05)">
      <defs>
       <path id="ArialMT-7a" d="M 125 0 
L 125 456 
L 2238 2881 
Q 1878 2863 1603 2863 
L 250 2863 
L 250 3319 
L 2963 3319 
L 2963 2947 
L 1166 841 
L 819 456 
Q 1197 484 1528 484 
L 3063 484 
L 3063 0 
L 125 0 
z
" transform="scale(0.015625)"/>
      </defs>
      <use xlink:href="#ArialMT-47" transform="translate(0 0.203125)"/>
      <use xlink:href="#ArialMT-7a" transform="translate(79.525547 -29.665625) scale(0.7)"/>
     </g>
    </g>
    <g id="line2d_24">
     <path d="M 81.415625 3.9 
L 83.915625 3.9 
L 86.415625 3.9 
" style="fill: none; stroke: #ab63fa; stroke-width: 0.5; stroke-linecap: square"/>
    </g>
    <g id="text_21">
     <!-- $|B_{1}|$ -->
     <g transform="translate(88.915625 5.65) scale(0.05 -0.05)">
      <defs>
       <path id="ArialMT-7c" d="M 588 -1347 
L 588 4659 
L 1078 4659 
L 1078 -1347 
L 588 -1347 
z
" transform="scale(0.015625)"/>
       <path id="ArialMT-42" d="M 469 0 
L 469 4581 
L 2188 4581 
Q 2713 4581 3030 4442 
Q 3347 4303 3526 4014 
Q 3706 3725 3706 3409 
Q 3706 3116 3547 2856 
Q 3388 2597 3066 2438 
Q 3481 2316 3704 2022 
Q 3928 1728 3928 1328 
Q 3928 1006 3792 729 
Q 3656 453 3456 303 
Q 3256 153 2954 76 
Q 2653 0 2216 0 
L 469 0 
z
M 1075 2656 
L 2066 2656 
Q 2469 2656 2644 2709 
Q 2875 2778 2992 2937 
Q 3109 3097 3109 3338 
Q 3109 3566 3000 3739 
Q 2891 3913 2687 3977 
Q 2484 4041 1991 4041 
L 1075 4041 
L 1075 2656 
z
M 1075 541 
L 2216 541 
Q 2509 541 2628 563 
Q 2838 600 2978 687 
Q 3119 775 3209 942 
Q 3300 1109 3300 1328 
Q 3300 1584 3169 1773 
Q 3038 1963 2805 2039 
Q 2572 2116 2134 2116 
L 1075 2116 
L 1075 541 
z
" transform="scale(0.015625)"/>
      </defs>
      <use xlink:href="#ArialMT-7c" transform="translate(0 0.203125)"/>
      <use xlink:href="#ArialMT-42" transform="translate(25.976562 0.203125)"/>
      <use xlink:href="#ArialMT-31" transform="translate(94.418125 -29.665625) scale(0.7)"/>
      <use xlink:href="#ArialMT-7c" transform="translate(138.326914 0.203125)"/>
     </g>
    </g>
    <g id="PathCollection_3">
     <g>
      <use xlink:href="#mc9d81c6c88" x="104.665625" y="4.3375" style="stroke: #000000; stroke-width: 0.1"/>
     </g>
    </g>
    <g id="text_22">
     <!-- $Stitching \ trigger$ -->
     <g transform="translate(109.665625 5.65) scale(0.05 -0.05)">
      <defs>
       <path id="ArialMT-53" d="M 288 1472 
L 859 1522 
Q 900 1178 1048 958 
Q 1197 738 1509 602 
Q 1822 466 2213 466 
Q 2559 466 2825 569 
Q 3091 672 3220 851 
Q 3350 1031 3350 1244 
Q 3350 1459 3225 1620 
Q 3100 1781 2813 1891 
Q 2628 1963 1997 2114 
Q 1366 2266 1113 2400 
Q 784 2572 623 2826 
Q 463 3081 463 3397 
Q 463 3744 659 4045 
Q 856 4347 1234 4503 
Q 1613 4659 2075 4659 
Q 2584 4659 2973 4495 
Q 3363 4331 3572 4012 
Q 3781 3694 3797 3291 
L 3216 3247 
Q 3169 3681 2898 3903 
Q 2628 4125 2100 4125 
Q 1550 4125 1298 3923 
Q 1047 3722 1047 3438 
Q 1047 3191 1225 3031 
Q 1400 2872 2139 2705 
Q 2878 2538 3153 2413 
Q 3553 2228 3743 1945 
Q 3934 1663 3934 1294 
Q 3934 928 3725 604 
Q 3516 281 3123 101 
Q 2731 -78 2241 -78 
Q 1619 -78 1198 103 
Q 778 284 539 648 
Q 300 1013 288 1472 
z
" transform="scale(0.015625)"/>
       <path id="ArialMT-63" d="M 2588 1216 
L 3141 1144 
Q 3050 572 2676 248 
Q 2303 -75 1759 -75 
Q 1078 -75 664 370 
Q 250 816 250 1647 
Q 250 2184 428 2587 
Q 606 2991 970 3192 
Q 1334 3394 1763 3394 
Q 2303 3394 2647 3120 
Q 2991 2847 3088 2344 
L 2541 2259 
Q 2463 2594 2264 2762 
Q 2066 2931 1784 2931 
Q 1359 2931 1093 2626 
Q 828 2322 828 1663 
Q 828 994 1084 691 
Q 1341 388 1753 388 
Q 2084 388 2306 591 
Q 2528 794 2588 1216 
z
" transform="scale(0.015625)"/>
       <path id="ArialMT-68" d="M 422 0 
L 422 4581 
L 984 4581 
L 984 2938 
Q 1378 3394 1978 3394 
Q 2347 3394 2619 3248 
Q 2891 3103 3008 2847 
Q 3125 2591 3125 2103 
L 3125 0 
L 2563 0 
L 2563 2103 
Q 2563 2525 2380 2717 
Q 2197 2909 1863 2909 
Q 1613 2909 1392 2779 
Q 1172 2650 1078 2428 
Q 984 2206 984 1816 
L 984 0 
L 422 0 
z
" transform="scale(0.015625)"/>
       <path id="ArialMT-6e" d="M 422 0 
L 422 3319 
L 928 3319 
L 928 2847 
Q 1294 3394 1984 3394 
Q 2284 3394 2536 3286 
Q 2788 3178 2913 3003 
Q 3038 2828 3088 2588 
Q 3119 2431 3119 2041 
L 3119 0 
L 2556 0 
L 2556 2019 
Q 2556 2363 2490 2533 
Q 2425 2703 2258 2804 
Q 2091 2906 1866 2906 
Q 1506 2906 1245 2678 
Q 984 2450 984 1813 
L 984 0 
L 422 0 
z
" transform="scale(0.015625)"/>
       <path id="ArialMT-67" d="M 319 -275 
L 866 -356 
Q 900 -609 1056 -725 
Q 1266 -881 1628 -881 
Q 2019 -881 2231 -725 
Q 2444 -569 2519 -288 
Q 2563 -116 2559 434 
Q 2191 0 1641 0 
Q 956 0 581 494 
Q 206 988 206 1678 
Q 206 2153 378 2554 
Q 550 2956 876 3175 
Q 1203 3394 1644 3394 
Q 2231 3394 2613 2919 
L 2613 3319 
L 3131 3319 
L 3131 450 
Q 3131 -325 2973 -648 
Q 2816 -972 2473 -1159 
Q 2131 -1347 1631 -1347 
Q 1038 -1347 672 -1080 
Q 306 -813 319 -275 
z
M 784 1719 
Q 784 1066 1043 766 
Q 1303 466 1694 466 
Q 2081 466 2343 764 
Q 2606 1063 2606 1700 
Q 2606 2309 2336 2618 
Q 2066 2928 1684 2928 
Q 1309 2928 1046 2623 
Q 784 2319 784 1719 
z
" transform="scale(0.015625)"/>
       <path id="ArialMT-72" d="M 416 0 
L 416 3319 
L 922 3319 
L 922 2816 
Q 1116 3169 1280 3281 
Q 1444 3394 1641 3394 
Q 1925 3394 2219 3213 
L 2025 2691 
Q 1819 2813 1613 2813 
Q 1428 2813 1281 2702 
Q 1134 2591 1072 2394 
Q 978 2094 978 1738 
L 978 0 
L 416 0 
z
" transform="scale(0.015625)"/>
      </defs>
      <use xlink:href="#ArialMT-53" transform="translate(0 0.203125)"/>
      <use xlink:href="#ArialMT-74" transform="translate(66.699219 0.203125)"/>
      <use xlink:href="#ArialMT-69" transform="translate(94.482422 0.203125)"/>
      <use xlink:href="#ArialMT-74" transform="translate(116.699219 0.203125)"/>
      <use xlink:href="#ArialMT-63" transform="translate(144.482422 0.203125)"/>
      <use xlink:href="#ArialMT-68" transform="translate(194.482422 0.203125)"/>
      <use xlink:href="#ArialMT-69" transform="translate(250.097656 0.203125)"/>
      <use xlink:href="#ArialMT-6e" transform="translate(272.314453 0.203125)"/>
      <use xlink:href="#ArialMT-67" transform="translate(327.929688 0.203125)"/>
      <use xlink:href="#ArialMT-74" transform="translate(416.0153 0.203125)"/>
      <use xlink:href="#ArialMT-72" transform="translate(443.798503 0.203125)"/>
      <use xlink:href="#ArialMT-69" transform="translate(477.099285 0.203125)"/>
      <use xlink:href="#ArialMT-67" transform="translate(499.316082 0.203125)"/>
      <use xlink:href="#ArialMT-67" transform="translate(554.931316 0.203125)"/>
      <use xlink:href="#ArialMT-65" transform="translate(610.54655 0.203125)"/>
      <use xlink:href="#ArialMT-72" transform="translate(666.161785 0.203125)"/>
     </g>
    </g>
    <g id="PathCollection_4">
     <g>
      <use xlink:href="#mcfa7635e68" x="152.165625" y="4.3375" style="stroke: #000000; stroke-width: 0.1"/>
     </g>
    </g>
    <g id="text_23">
     <!-- $Standard \ trigger$ -->
     <g transform="translate(157.165625 5.65) scale(0.05 -0.05)">
      <defs>
       <path id="ArialMT-61" d="M 2588 409 
Q 2275 144 1986 34 
Q 1697 -75 1366 -75 
Q 819 -75 525 192 
Q 231 459 231 875 
Q 231 1119 342 1320 
Q 453 1522 633 1644 
Q 813 1766 1038 1828 
Q 1203 1872 1538 1913 
Q 2219 1994 2541 2106 
Q 2544 2222 2544 2253 
Q 2544 2597 2384 2738 
Q 2169 2928 1744 2928 
Q 1347 2928 1158 2789 
Q 969 2650 878 2297 
L 328 2372 
Q 403 2725 575 2942 
Q 747 3159 1072 3276 
Q 1397 3394 1825 3394 
Q 2250 3394 2515 3294 
Q 2781 3194 2906 3042 
Q 3031 2891 3081 2659 
Q 3109 2516 3109 2141 
L 3109 1391 
Q 3109 606 3145 398 
Q 3181 191 3288 0 
L 2700 0 
Q 2613 175 2588 409 
z
M 2541 1666 
Q 2234 1541 1622 1453 
Q 1275 1403 1131 1340 
Q 988 1278 909 1158 
Q 831 1038 831 891 
Q 831 666 1001 516 
Q 1172 366 1500 366 
Q 1825 366 2078 508 
Q 2331 650 2450 897 
Q 2541 1088 2541 1459 
L 2541 1666 
z
" transform="scale(0.015625)"/>
      </defs>
      <use xlink:href="#ArialMT-53" transform="translate(0 0.203125)"/>
      <use xlink:href="#ArialMT-74" transform="translate(66.699219 0.203125)"/>
      <use xlink:href="#ArialMT-61" transform="translate(94.482422 0.203125)"/>
      <use xlink:href="#ArialMT-6e" transform="translate(150.097656 0.203125)"/>
      <use xlink:href="#ArialMT-64" transform="translate(205.712891 0.203125)"/>
      <use xlink:href="#ArialMT-61" transform="translate(261.328125 0.203125)"/>
      <use xlink:href="#ArialMT-72" transform="translate(316.943359 0.203125)"/>
      <use xlink:href="#ArialMT-64" transform="translate(350.244141 0.203125)"/>
      <use xlink:href="#ArialMT-74" transform="translate(438.329753 0.203125)"/>
      <use xlink:href="#ArialMT-72" transform="translate(466.112957 0.203125)"/>
      <use xlink:href="#ArialMT-69" transform="translate(499.413738 0.203125)"/>
      <use xlink:href="#ArialMT-67" transform="translate(521.630535 0.203125)"/>
      <use xlink:href="#ArialMT-67" transform="translate(577.245769 0.203125)"/>
      <use xlink:href="#ArialMT-65" transform="translate(632.861003 0.203125)"/>
      <use xlink:href="#ArialMT-72" transform="translate(688.476238 0.203125)"/>
     </g>
    </g>
   </g>
  </g>
 </g>
 <defs>
  <clipPath id="pce3c4bb2a5">
   <rect x="21.415625" y="3.791808" width="233.701875" height="62.91808"/>
  </clipPath>
 </defs>
</svg>
