<?xml version="1.0" encoding="utf-8" standalone="no"?>
<!DOCTYPE svg PUBLIC "-//W3C//DTD SVG 1.1//EN"
  "http://www.w3.org/Graphics/SVG/1.1/DTD/svg11.dtd">
<svg xmlns:xlink="http://www.w3.org/1999/xlink" width="254.626562pt" height="84.3967pt" viewBox="0 0 254.626562 84.3967" xmlns="http://www.w3.org/2000/svg" version="1.1">
 <metadata>
  <rdf:RDF xmlns:dc="http://purl.org/dc/elements/1.1/" xmlns:cc="http://creativecommons.org/ns#" xmlns:rdf="http://www.w3.org/1999/02/22-rdf-syntax-ns#">
   <cc:Work>
    <dc:type rdf:resource="http://purl.org/dc/dcmitype/StillImage"/>
    <dc:date>2024-10-31T13:31:37.178165</dc:date>
    <dc:format>image/svg+xml</dc:format>
    <dc:creator>
     <cc:Agent>
      <dc:title>Matplotlib v3.8.4, https://matplotlib.org/</dc:title>
     </cc:Agent>
    </dc:creator>
   </cc:Work>
  </rdf:RDF>
 </metadata>
 <defs>
  <style type="text/css">*{stroke-linejoin: round; stroke-linecap: butt}</style>
 </defs>
 <g id="figure_1">
  <g id="patch_1">
   <path d="M 0 84.3967 
L 254.626562 84.3967 
L 254.626562 0 
L 0 0 
L 0 84.3967 
z
" style="fill: none"/>
  </g>
  <g id="axes_1">
   <g id="patch_2">
    <path d="M 20.716563 66.313888 
L 254.626563 66.313888 
L 254.626563 3.755808 
L 20.716563 3.755808 
L 20.716563 66.313888 
z
" style="fill: none"/>
   </g>
   <g id="PathCollection_1">
    <defs>
     <path id="m9e22940e9e" d="M 0.927647 1.936492 
L -0.927647 1.936492 
L -0.927647 1.699204 
L -0.158686 1.699204 
L -0.158686 -1.048887 
Q -0.158686 -1.086704 -0.194279 -1.128971 
Q -0.229873 -1.17198 -0.263241 -1.17198 
Q -0.315148 -1.17198 -0.381885 -1.105984 
Q -0.614724 -0.863505 -0.837181 -0.716684 
L -0.927647 -0.811599 
Q -0.249152 -1.400369 -0.025953 -1.936492 
L 0.021504 -1.936492 
Q 0.254343 -1.39073 0.927647 -0.80715 
L 0.837923 -0.712234 
Q 0.648093 -0.844967 0.381885 -1.100793 
Q 0.31589 -1.167531 0.249152 -1.167531 
Q 0.154237 -1.167531 0.154237 -1.044437 
L 0.154237 1.699204 
L 0.927647 1.699204 
L 0.927647 1.936492 
z
" style="stroke: #000000; stroke-width: 0.1"/>
    </defs>
    <g clip-path="url(#p79def4c643)">
     <use xlink:href="#m9e22940e9e" x="96.444608" y="59.611237" style="stroke: #000000; stroke-width: 0.1"/>
     <use xlink:href="#m9e22940e9e" x="133.86514" y="59.611237" style="stroke: #000000; stroke-width: 0.1"/>
     <use xlink:href="#m9e22940e9e" x="171.270466" y="59.611237" style="stroke: #000000; stroke-width: 0.1"/>
     <use xlink:href="#m9e22940e9e" x="208.675792" y="59.611237" style="stroke: #000000; stroke-width: 0.1"/>
    </g>
   </g>
   <g id="PathCollection_2">
    <defs>
     <path id="m5a3ed36931" d="M 0.927647 0.175371 
L 0.837923 0.270286 
Q 0.648093 0.137553 0.381885 -0.119015 
Q 0.31589 -0.18501 0.249152 -0.18501 
Q 0.154237 -0.18501 0.154237 -0.061917 
L 0.154237 1.936492 
L -0.158686 1.936492 
L -0.158686 -0.066366 
Q -0.158686 -0.104184 -0.194279 -0.147193 
Q -0.229873 -0.190201 -0.263241 -0.190201 
Q -0.315148 -0.190201 -0.381885 -0.123464 
Q -0.614724 0.118273 -0.837181 0.265837 
L -0.927647 0.170921 
Q -0.401165 -0.285116 -0.158686 -0.688506 
L -0.158686 -1.048887 
Q -0.158686 -1.086704 -0.194279 -1.128971 
Q -0.229873 -1.17198 -0.263241 -1.17198 
Q -0.315148 -1.17198 -0.381885 -1.105984 
Q -0.614724 -0.863505 -0.837181 -0.716684 
L -0.927647 -0.811599 
Q -0.249152 -1.400369 -0.025953 -1.936492 
L 0.021504 -1.936492 
Q 0.254343 -1.39073 0.927647 -0.80715 
L 0.837923 -0.712234 
Q 0.648093 -0.844967 0.381885 -1.100793 
Q 0.31589 -1.167531 0.249152 -1.167531 
Q 0.154237 -1.167531 0.154237 -1.044437 
L 0.154237 -0.692955 
Q 0.405614 -0.279926 0.927647 0.175371 
z
" style="stroke: #000000; stroke-width: 0.1"/>
    </defs>
    <g clip-path="url(#p79def4c643)">
     <use xlink:href="#m5a3ed36931" x="96.444608" y="52.908585" style="stroke: #000000; stroke-width: 0.1"/>
    </g>
   </g>
   <g id="matplotlib.axis_1">
    <g id="xtick_1">
     <g id="line2d_1">
      <defs>
       <path id="m91cf608b03" d="M 0 0 
L 0 1.5 
" style="stroke: #000000; stroke-width: 0.5"/>
      </defs>
      <g>
       <use xlink:href="#m91cf608b03" x="20.716563" y="66.313888" style="stroke: #000000; stroke-width: 0.5"/>
      </g>
     </g>
     <g id="text_1">
      <!-- 0 -->
      <g transform="translate(19.716563 74.091388) scale(0.04 -0.04)">
       <defs>
        <path id="TimesNewRomanPSMT-30" d="M 231 2094 
Q 231 2819 450 3342 
Q 669 3866 1031 4122 
Q 1313 4325 1613 4325 
Q 2100 4325 2488 3828 
Q 2972 3213 2972 2159 
Q 2972 1422 2759 906 
Q 2547 391 2217 158 
Q 1888 -75 1581 -75 
Q 975 -75 572 641 
Q 231 1244 231 2094 
z
M 844 2016 
Q 844 1141 1059 588 
Q 1238 122 1591 122 
Q 1759 122 1940 273 
Q 2122 425 2216 781 
Q 2359 1319 2359 2297 
Q 2359 3022 2209 3506 
Q 2097 3866 1919 4016 
Q 1791 4119 1609 4119 
Q 1397 4119 1231 3928 
Q 1006 3669 925 3112 
Q 844 2556 844 2016 
z
" transform="scale(0.015625)"/>
       </defs>
       <use xlink:href="#TimesNewRomanPSMT-30"/>
      </g>
     </g>
    </g>
    <g id="xtick_2">
     <g id="line2d_2">
      <g>
       <use xlink:href="#m91cf608b03" x="71.401286" y="66.313888" style="stroke: #000000; stroke-width: 0.5"/>
      </g>
     </g>
     <g id="text_2">
      <!-- 10 -->
      <g transform="translate(69.401286 74.091388) scale(0.04 -0.04)">
       <defs>
        <path id="TimesNewRomanPSMT-31" d="M 750 3822 
L 1781 4325 
L 1884 4325 
L 1884 747 
Q 1884 391 1914 303 
Q 1944 216 2037 169 
Q 2131 122 2419 116 
L 2419 0 
L 825 0 
L 825 116 
Q 1125 122 1212 167 
Q 1300 213 1334 289 
Q 1369 366 1369 747 
L 1369 3034 
Q 1369 3497 1338 3628 
Q 1316 3728 1258 3775 
Q 1200 3822 1119 3822 
Q 1003 3822 797 3725 
L 750 3822 
z
" transform="scale(0.015625)"/>
       </defs>
       <use xlink:href="#TimesNewRomanPSMT-31"/>
       <use xlink:href="#TimesNewRomanPSMT-30" x="50"/>
      </g>
     </g>
    </g>
    <g id="xtick_3">
     <g id="line2d_3">
      <g>
       <use xlink:href="#m91cf608b03" x="122.08601" y="66.313888" style="stroke: #000000; stroke-width: 0.5"/>
      </g>
     </g>
     <g id="text_3">
      <!-- 20 -->
      <g transform="translate(120.08601 74.091388) scale(0.04 -0.04)">
       <defs>
        <path id="TimesNewRomanPSMT-32" d="M 2934 816 
L 2638 0 
L 138 0 
L 138 116 
Q 1241 1122 1691 1759 
Q 2141 2397 2141 2925 
Q 2141 3328 1894 3587 
Q 1647 3847 1303 3847 
Q 991 3847 742 3664 
Q 494 3481 375 3128 
L 259 3128 
Q 338 3706 661 4015 
Q 984 4325 1469 4325 
Q 1984 4325 2329 3994 
Q 2675 3663 2675 3213 
Q 2675 2891 2525 2569 
Q 2294 2063 1775 1497 
Q 997 647 803 472 
L 1909 472 
Q 2247 472 2383 497 
Q 2519 522 2628 598 
Q 2738 675 2819 816 
L 2934 816 
z
" transform="scale(0.015625)"/>
       </defs>
       <use xlink:href="#TimesNewRomanPSMT-32"/>
       <use xlink:href="#TimesNewRomanPSMT-30" x="50"/>
      </g>
     </g>
    </g>
    <g id="xtick_4">
     <g id="line2d_4">
      <g>
       <use xlink:href="#m91cf608b03" x="172.770734" y="66.313888" style="stroke: #000000; stroke-width: 0.5"/>
      </g>
     </g>
     <g id="text_4">
      <!-- 30 -->
      <g transform="translate(170.770734 74.091388) scale(0.04 -0.04)">
       <defs>
        <path id="TimesNewRomanPSMT-33" d="M 325 3431 
Q 506 3859 782 4092 
Q 1059 4325 1472 4325 
Q 1981 4325 2253 3994 
Q 2459 3747 2459 3466 
Q 2459 3003 1878 2509 
Q 2269 2356 2469 2072 
Q 2669 1788 2669 1403 
Q 2669 853 2319 450 
Q 1863 -75 997 -75 
Q 569 -75 414 31 
Q 259 138 259 259 
Q 259 350 332 419 
Q 406 488 509 488 
Q 588 488 669 463 
Q 722 447 909 348 
Q 1097 250 1169 231 
Q 1284 197 1416 197 
Q 1734 197 1970 444 
Q 2206 691 2206 1028 
Q 2206 1275 2097 1509 
Q 2016 1684 1919 1775 
Q 1784 1900 1550 2001 
Q 1316 2103 1072 2103 
L 972 2103 
L 972 2197 
Q 1219 2228 1467 2375 
Q 1716 2522 1828 2728 
Q 1941 2934 1941 3181 
Q 1941 3503 1739 3701 
Q 1538 3900 1238 3900 
Q 753 3900 428 3381 
L 325 3431 
z
" transform="scale(0.015625)"/>
       </defs>
       <use xlink:href="#TimesNewRomanPSMT-33"/>
       <use xlink:href="#TimesNewRomanPSMT-30" x="50"/>
      </g>
     </g>
    </g>
    <g id="xtick_5">
     <g id="line2d_5">
      <g>
       <use xlink:href="#m91cf608b03" x="223.455457" y="66.313888" style="stroke: #000000; stroke-width: 0.5"/>
      </g>
     </g>
     <g id="text_5">
      <!-- 40 -->
      <g transform="translate(221.455457 74.091388) scale(0.04 -0.04)">
       <defs>
        <path id="TimesNewRomanPSMT-34" d="M 2978 1563 
L 2978 1119 
L 2409 1119 
L 2409 0 
L 1894 0 
L 1894 1119 
L 100 1119 
L 100 1519 
L 2066 4325 
L 2409 4325 
L 2409 1563 
L 2978 1563 
z
M 1894 1563 
L 1894 3666 
L 406 1563 
L 1894 1563 
z
" transform="scale(0.015625)"/>
       </defs>
       <use xlink:href="#TimesNewRomanPSMT-34"/>
       <use xlink:href="#TimesNewRomanPSMT-30" x="50"/>
      </g>
     </g>
    </g>
    <g id="text_6">
     <!-- Time (ms) -->
     <g transform="translate(125.196719 83.113263) scale(0.06 -0.06)">
      <defs>
       <path id="TimesNewRomanPSMT-54" d="M 3703 4238 
L 3750 3244 
L 3631 3244 
Q 3597 3506 3538 3619 
Q 3441 3800 3280 3886 
Q 3119 3972 2856 3972 
L 2259 3972 
L 2259 734 
Q 2259 344 2344 247 
Q 2463 116 2709 116 
L 2856 116 
L 2856 0 
L 1059 0 
L 1059 116 
L 1209 116 
Q 1478 116 1591 278 
Q 1659 378 1659 734 
L 1659 3972 
L 1150 3972 
Q 853 3972 728 3928 
Q 566 3869 450 3700 
Q 334 3531 313 3244 
L 194 3244 
L 244 4238 
L 3703 4238 
z
" transform="scale(0.015625)"/>
       <path id="TimesNewRomanPSMT-69" d="M 928 4444 
Q 1059 4444 1151 4351 
Q 1244 4259 1244 4128 
Q 1244 3997 1151 3903 
Q 1059 3809 928 3809 
Q 797 3809 703 3903 
Q 609 3997 609 4128 
Q 609 4259 701 4351 
Q 794 4444 928 4444 
z
M 1188 2947 
L 1188 647 
Q 1188 378 1227 289 
Q 1266 200 1342 156 
Q 1419 113 1622 113 
L 1622 0 
L 231 0 
L 231 113 
Q 441 113 512 153 
Q 584 194 626 287 
Q 669 381 669 647 
L 669 1750 
Q 669 2216 641 2353 
Q 619 2453 572 2492 
Q 525 2531 444 2531 
Q 356 2531 231 2484 
L 188 2597 
L 1050 2947 
L 1188 2947 
z
" transform="scale(0.015625)"/>
       <path id="TimesNewRomanPSMT-6d" d="M 1050 2338 
Q 1363 2650 1419 2697 
Q 1559 2816 1721 2881 
Q 1884 2947 2044 2947 
Q 2313 2947 2506 2790 
Q 2700 2634 2766 2338 
Q 3088 2713 3309 2830 
Q 3531 2947 3766 2947 
Q 3994 2947 4170 2830 
Q 4347 2713 4450 2447 
Q 4519 2266 4519 1878 
L 4519 647 
Q 4519 378 4559 278 
Q 4591 209 4675 161 
Q 4759 113 4950 113 
L 4950 0 
L 3538 0 
L 3538 113 
L 3597 113 
Q 3781 113 3884 184 
Q 3956 234 3988 344 
Q 4000 397 4000 647 
L 4000 1878 
Q 4000 2228 3916 2372 
Q 3794 2572 3525 2572 
Q 3359 2572 3192 2489 
Q 3025 2406 2788 2181 
L 2781 2147 
L 2788 2013 
L 2788 647 
Q 2788 353 2820 281 
Q 2853 209 2943 161 
Q 3034 113 3253 113 
L 3253 0 
L 1806 0 
L 1806 113 
Q 2044 113 2133 169 
Q 2222 225 2256 338 
Q 2272 391 2272 647 
L 2272 1878 
Q 2272 2228 2169 2381 
Q 2031 2581 1784 2581 
Q 1616 2581 1450 2491 
Q 1191 2353 1050 2181 
L 1050 647 
Q 1050 366 1089 281 
Q 1128 197 1204 155 
Q 1281 113 1516 113 
L 1516 0 
L 100 0 
L 100 113 
Q 297 113 375 155 
Q 453 197 493 289 
Q 534 381 534 647 
L 534 1741 
Q 534 2213 506 2350 
Q 484 2453 437 2492 
Q 391 2531 309 2531 
Q 222 2531 100 2484 
L 53 2597 
L 916 2947 
L 1050 2947 
L 1050 2338 
z
" transform="scale(0.015625)"/>
       <path id="TimesNewRomanPSMT-65" d="M 681 1784 
Q 678 1147 991 784 
Q 1303 422 1725 422 
Q 2006 422 2214 576 
Q 2422 731 2563 1106 
L 2659 1044 
Q 2594 616 2278 264 
Q 1963 -88 1488 -88 
Q 972 -88 605 314 
Q 238 716 238 1394 
Q 238 2128 614 2539 
Q 991 2950 1559 2950 
Q 2041 2950 2350 2633 
Q 2659 2316 2659 1784 
L 681 1784 
z
M 681 1966 
L 2006 1966 
Q 1991 2241 1941 2353 
Q 1863 2528 1708 2628 
Q 1553 2728 1384 2728 
Q 1125 2728 920 2526 
Q 716 2325 681 1966 
z
" transform="scale(0.015625)"/>
       <path id="TimesNewRomanPSMT-20" transform="scale(0.015625)"/>
       <path id="TimesNewRomanPSMT-28" d="M 1988 -1253 
L 1988 -1369 
Q 1516 -1131 1200 -813 
Q 750 -359 506 256 
Q 263 872 263 1534 
Q 263 2503 741 3301 
Q 1219 4100 1988 4444 
L 1988 4313 
Q 1603 4100 1356 3731 
Q 1109 3363 987 2797 
Q 866 2231 866 1616 
Q 866 947 969 400 
Q 1050 -31 1165 -292 
Q 1281 -553 1476 -793 
Q 1672 -1034 1988 -1253 
z
" transform="scale(0.015625)"/>
       <path id="TimesNewRomanPSMT-73" d="M 2050 2947 
L 2050 1972 
L 1947 1972 
Q 1828 2431 1642 2597 
Q 1456 2763 1169 2763 
Q 950 2763 815 2647 
Q 681 2531 681 2391 
Q 681 2216 781 2091 
Q 878 1963 1175 1819 
L 1631 1597 
Q 2266 1288 2266 781 
Q 2266 391 1970 151 
Q 1675 -88 1309 -88 
Q 1047 -88 709 6 
Q 606 38 541 38 
Q 469 38 428 -44 
L 325 -44 
L 325 978 
L 428 978 
Q 516 541 762 319 
Q 1009 97 1316 97 
Q 1531 97 1667 223 
Q 1803 350 1803 528 
Q 1803 744 1651 891 
Q 1500 1038 1047 1263 
Q 594 1488 453 1669 
Q 313 1847 313 2119 
Q 313 2472 555 2709 
Q 797 2947 1181 2947 
Q 1350 2947 1591 2875 
Q 1750 2828 1803 2828 
Q 1853 2828 1881 2850 
Q 1909 2872 1947 2947 
L 2050 2947 
z
" transform="scale(0.015625)"/>
       <path id="TimesNewRomanPSMT-29" d="M 144 4313 
L 144 4444 
Q 619 4209 934 3891 
Q 1381 3434 1625 2820 
Q 1869 2206 1869 1541 
Q 1869 572 1392 -226 
Q 916 -1025 144 -1369 
L 144 -1253 
Q 528 -1038 776 -670 
Q 1025 -303 1145 264 
Q 1266 831 1266 1447 
Q 1266 2113 1163 2663 
Q 1084 3094 967 3353 
Q 850 3613 656 3853 
Q 463 4094 144 4313 
z
" transform="scale(0.015625)"/>
      </defs>
      <use xlink:href="#TimesNewRomanPSMT-54"/>
      <use xlink:href="#TimesNewRomanPSMT-69" x="57.583984"/>
      <use xlink:href="#TimesNewRomanPSMT-6d" x="85.367188"/>
      <use xlink:href="#TimesNewRomanPSMT-65" x="163.150391"/>
      <use xlink:href="#TimesNewRomanPSMT-20" x="207.535156"/>
      <use xlink:href="#TimesNewRomanPSMT-28" x="232.535156"/>
      <use xlink:href="#TimesNewRomanPSMT-6d" x="265.835938"/>
      <use xlink:href="#TimesNewRomanPSMT-73" x="343.619141"/>
      <use xlink:href="#TimesNewRomanPSMT-29" x="382.535156"/>
     </g>
    </g>
   </g>
   <g id="matplotlib.axis_2">
    <g id="ytick_1">
     <g id="line2d_6">
      <defs>
       <path id="m5bed82379c" d="M 0 0 
L -1.5 0 
" style="stroke: #000000; stroke-width: 0.5"/>
      </defs>
      <g>
       <use xlink:href="#m5bed82379c" x="20.716563" y="61.845454" style="stroke: #000000; stroke-width: 0.5"/>
      </g>
     </g>
     <g id="text_7">
      <!-- −60 -->
      <g transform="translate(9.460938 63.234204) scale(0.04 -0.04)">
       <defs>
        <path id="TimesNewRomanPSMT-2212" d="M 3484 2000 
L 116 2000 
L 116 2256 
L 3484 2256 
L 3484 2000 
z
" transform="scale(0.015625)"/>
        <path id="TimesNewRomanPSMT-36" d="M 2869 4325 
L 2869 4209 
Q 2456 4169 2195 4045 
Q 1934 3922 1679 3669 
Q 1425 3416 1258 3105 
Q 1091 2794 978 2366 
Q 1428 2675 1881 2675 
Q 2316 2675 2634 2325 
Q 2953 1975 2953 1425 
Q 2953 894 2631 456 
Q 2244 -75 1606 -75 
Q 1172 -75 869 213 
Q 275 772 275 1663 
Q 275 2231 503 2743 
Q 731 3256 1154 3653 
Q 1578 4050 1965 4187 
Q 2353 4325 2688 4325 
L 2869 4325 
z
M 925 2138 
Q 869 1716 869 1456 
Q 869 1156 980 804 
Q 1091 453 1309 247 
Q 1469 100 1697 100 
Q 1969 100 2183 356 
Q 2397 613 2397 1088 
Q 2397 1622 2184 2012 
Q 1972 2403 1581 2403 
Q 1463 2403 1327 2353 
Q 1191 2303 925 2138 
z
" transform="scale(0.015625)"/>
       </defs>
       <use xlink:href="#TimesNewRomanPSMT-2212"/>
       <use xlink:href="#TimesNewRomanPSMT-36" x="56.396484"/>
       <use xlink:href="#TimesNewRomanPSMT-30" x="106.396484"/>
      </g>
     </g>
    </g>
    <g id="ytick_2">
     <g id="line2d_7">
      <g>
       <use xlink:href="#m5bed82379c" x="20.716563" y="52.908585" style="stroke: #000000; stroke-width: 0.5"/>
      </g>
     </g>
     <g id="text_8">
      <!-- −40 -->
      <g transform="translate(9.460938 54.297335) scale(0.04 -0.04)">
       <use xlink:href="#TimesNewRomanPSMT-2212"/>
       <use xlink:href="#TimesNewRomanPSMT-34" x="56.396484"/>
       <use xlink:href="#TimesNewRomanPSMT-30" x="106.396484"/>
      </g>
     </g>
    </g>
    <g id="ytick_3">
     <g id="line2d_8">
      <g>
       <use xlink:href="#m5bed82379c" x="20.716563" y="43.971717" style="stroke: #000000; stroke-width: 0.5"/>
      </g>
     </g>
     <g id="text_9">
      <!-- −20 -->
      <g transform="translate(9.460938 45.360467) scale(0.04 -0.04)">
       <use xlink:href="#TimesNewRomanPSMT-2212"/>
       <use xlink:href="#TimesNewRomanPSMT-32" x="56.396484"/>
       <use xlink:href="#TimesNewRomanPSMT-30" x="106.396484"/>
      </g>
     </g>
    </g>
    <g id="ytick_4">
     <g id="line2d_9">
      <g>
       <use xlink:href="#m5bed82379c" x="20.716563" y="35.034848" style="stroke: #000000; stroke-width: 0.5"/>
      </g>
     </g>
     <g id="text_10">
      <!-- 0 -->
      <g transform="translate(13.716563 36.423598) scale(0.04 -0.04)">
       <use xlink:href="#TimesNewRomanPSMT-30"/>
      </g>
     </g>
    </g>
    <g id="ytick_5">
     <g id="line2d_10">
      <g>
       <use xlink:href="#m5bed82379c" x="20.716563" y="26.097979" style="stroke: #000000; stroke-width: 0.5"/>
      </g>
     </g>
     <g id="text_11">
      <!-- 20 -->
      <g transform="translate(11.716563 27.486729) scale(0.04 -0.04)">
       <use xlink:href="#TimesNewRomanPSMT-32"/>
       <use xlink:href="#TimesNewRomanPSMT-30" x="50"/>
      </g>
     </g>
    </g>
    <g id="ytick_6">
     <g id="line2d_11">
      <g>
       <use xlink:href="#m5bed82379c" x="20.716563" y="17.161111" style="stroke: #000000; stroke-width: 0.5"/>
      </g>
     </g>
     <g id="text_12">
      <!-- 40 -->
      <g transform="translate(11.716563 18.549861) scale(0.04 -0.04)">
       <use xlink:href="#TimesNewRomanPSMT-34"/>
       <use xlink:href="#TimesNewRomanPSMT-30" x="50"/>
      </g>
     </g>
    </g>
    <g id="ytick_7">
     <g id="line2d_12">
      <g>
       <use xlink:href="#m5bed82379c" x="20.716563" y="8.224242" style="stroke: #000000; stroke-width: 0.5"/>
      </g>
     </g>
     <g id="text_13">
      <!-- 60 -->
      <g transform="translate(11.716563 9.612992) scale(0.04 -0.04)">
       <use xlink:href="#TimesNewRomanPSMT-36"/>
       <use xlink:href="#TimesNewRomanPSMT-30" x="50"/>
      </g>
     </g>
    </g>
    <g id="text_14">
     <!-- Amplitude [mT/m, μT] -->
     <g transform="translate(4.16625 62.887973) rotate(-90) scale(0.06 -0.06)">
      <defs>
       <path id="TimesNewRomanPSMT-41" d="M 2928 1419 
L 1288 1419 
L 1000 750 
Q 894 503 894 381 
Q 894 284 986 211 
Q 1078 138 1384 116 
L 1384 0 
L 50 0 
L 50 116 
Q 316 163 394 238 
Q 553 388 747 847 
L 2238 4334 
L 2347 4334 
L 3822 809 
Q 4000 384 4145 257 
Q 4291 131 4550 116 
L 4550 0 
L 2878 0 
L 2878 116 
Q 3131 128 3220 200 
Q 3309 272 3309 375 
Q 3309 513 3184 809 
L 2928 1419 
z
M 2841 1650 
L 2122 3363 
L 1384 1650 
L 2841 1650 
z
" transform="scale(0.015625)"/>
       <path id="TimesNewRomanPSMT-70" d="M -6 2578 
L 875 2934 
L 994 2934 
L 994 2266 
Q 1216 2644 1439 2795 
Q 1663 2947 1909 2947 
Q 2341 2947 2628 2609 
Q 2981 2197 2981 1534 
Q 2981 794 2556 309 
Q 2206 -88 1675 -88 
Q 1444 -88 1275 -22 
Q 1150 25 994 166 
L 994 -706 
Q 994 -1000 1030 -1079 
Q 1066 -1159 1155 -1206 
Q 1244 -1253 1478 -1253 
L 1478 -1369 
L -22 -1369 
L -22 -1253 
L 56 -1253 
Q 228 -1256 350 -1188 
Q 409 -1153 442 -1076 
Q 475 -1000 475 -688 
L 475 2019 
Q 475 2297 450 2372 
Q 425 2447 370 2484 
Q 316 2522 222 2522 
Q 147 2522 31 2478 
L -6 2578 
z
M 994 2081 
L 994 1013 
Q 994 666 1022 556 
Q 1066 375 1236 237 
Q 1406 100 1666 100 
Q 1978 100 2172 344 
Q 2425 663 2425 1241 
Q 2425 1897 2138 2250 
Q 1938 2494 1663 2494 
Q 1513 2494 1366 2419 
Q 1253 2363 994 2081 
z
" transform="scale(0.015625)"/>
       <path id="TimesNewRomanPSMT-6c" d="M 1184 4444 
L 1184 647 
Q 1184 378 1223 290 
Q 1263 203 1344 158 
Q 1425 113 1647 113 
L 1647 0 
L 244 0 
L 244 113 
Q 441 113 512 153 
Q 584 194 625 287 
Q 666 381 666 647 
L 666 3247 
Q 666 3731 644 3842 
Q 622 3953 573 3993 
Q 525 4034 450 4034 
Q 369 4034 244 3984 
L 191 4094 
L 1044 4444 
L 1184 4444 
z
" transform="scale(0.015625)"/>
       <path id="TimesNewRomanPSMT-74" d="M 1031 3803 
L 1031 2863 
L 1700 2863 
L 1700 2644 
L 1031 2644 
L 1031 788 
Q 1031 509 1111 412 
Q 1191 316 1316 316 
Q 1419 316 1516 380 
Q 1613 444 1666 569 
L 1788 569 
Q 1678 263 1478 108 
Q 1278 -47 1066 -47 
Q 922 -47 784 33 
Q 647 113 581 261 
Q 516 409 516 719 
L 516 2644 
L 63 2644 
L 63 2747 
Q 234 2816 414 2980 
Q 594 3144 734 3369 
Q 806 3488 934 3803 
L 1031 3803 
z
" transform="scale(0.015625)"/>
       <path id="TimesNewRomanPSMT-75" d="M 2709 2863 
L 2709 1128 
Q 2709 631 2732 520 
Q 2756 409 2807 365 
Q 2859 322 2928 322 
Q 3025 322 3147 375 
L 3191 266 
L 2334 -88 
L 2194 -88 
L 2194 519 
Q 1825 119 1631 15 
Q 1438 -88 1222 -88 
Q 981 -88 804 51 
Q 628 191 559 409 
Q 491 628 491 1028 
L 491 2306 
Q 491 2509 447 2587 
Q 403 2666 317 2708 
Q 231 2750 6 2747 
L 6 2863 
L 1009 2863 
L 1009 947 
Q 1009 547 1148 422 
Q 1288 297 1484 297 
Q 1619 297 1789 381 
Q 1959 466 2194 703 
L 2194 2325 
Q 2194 2569 2105 2655 
Q 2016 2741 1734 2747 
L 1734 2863 
L 2709 2863 
z
" transform="scale(0.015625)"/>
       <path id="TimesNewRomanPSMT-64" d="M 2222 322 
Q 2013 103 1813 7 
Q 1613 -88 1381 -88 
Q 913 -88 563 304 
Q 213 697 213 1313 
Q 213 1928 600 2439 
Q 988 2950 1597 2950 
Q 1975 2950 2222 2709 
L 2222 3238 
Q 2222 3728 2198 3840 
Q 2175 3953 2125 3993 
Q 2075 4034 2000 4034 
Q 1919 4034 1784 3984 
L 1744 4094 
L 2597 4444 
L 2738 4444 
L 2738 1134 
Q 2738 631 2761 520 
Q 2784 409 2836 365 
Q 2888 322 2956 322 
Q 3041 322 3181 375 
L 3216 266 
L 2366 -88 
L 2222 -88 
L 2222 322 
z
M 2222 541 
L 2222 2016 
Q 2203 2228 2109 2403 
Q 2016 2578 1861 2667 
Q 1706 2756 1559 2756 
Q 1284 2756 1069 2509 
Q 784 2184 784 1559 
Q 784 928 1059 592 
Q 1334 256 1672 256 
Q 1956 256 2222 541 
z
" transform="scale(0.015625)"/>
       <path id="TimesNewRomanPSMT-5b" d="M 1900 -1269 
L 525 -1269 
L 525 4334 
L 1900 4334 
L 1900 4088 
L 994 4088 
L 994 -1025 
L 1900 -1025 
L 1900 -1269 
z
" transform="scale(0.015625)"/>
       <path id="TimesNewRomanPSMT-2f" d="M 1794 4444 
L 259 -88 
L 9 -88 
L 1544 4444 
L 1794 4444 
z
" transform="scale(0.015625)"/>
       <path id="TimesNewRomanPSMT-2c" d="M 344 -1066 
L 344 -928 
Q 666 -822 842 -598 
Q 1019 -375 1019 -125 
Q 1019 -66 991 -25 
Q 969 3 947 3 
Q 913 3 797 -59 
Q 741 -88 678 -88 
Q 525 -88 434 3 
Q 344 94 344 253 
Q 344 406 461 515 
Q 578 625 747 625 
Q 953 625 1114 445 
Q 1275 266 1275 -31 
Q 1275 -353 1051 -629 
Q 828 -906 344 -1066 
z
" transform="scale(0.015625)"/>
       <path id="TimesNewRomanPSMT-3bc" d="M 2275 519 
Q 1709 -88 1291 -88 
Q 1022 -88 791 119 
L 791 -47 
Q 791 -334 878 -625 
Q 978 -947 978 -1050 
Q 978 -1194 887 -1287 
Q 797 -1381 663 -1381 
Q 525 -1381 444 -1272 
Q 363 -1163 363 -1009 
Q 363 -897 444 -603 
Q 538 -278 538 28 
L 538 2863 
L 1053 2863 
L 1053 1009 
Q 1053 728 1101 597 
Q 1150 466 1273 383 
Q 1397 300 1553 300 
Q 1831 300 2275 681 
L 2275 2863 
L 2794 2863 
L 2794 691 
Q 2794 416 2850 311 
Q 2906 206 3041 206 
Q 3253 206 3316 622 
L 3428 622 
Q 3369 -88 2828 -88 
Q 2594 -88 2439 70 
Q 2284 228 2275 519 
z
" transform="scale(0.015625)"/>
       <path id="TimesNewRomanPSMT-5d" d="M 234 4334 
L 1609 4334 
L 1609 -1272 
L 234 -1272 
L 234 -1025 
L 1141 -1025 
L 1141 4088 
L 234 4088 
L 234 4334 
z
" transform="scale(0.015625)"/>
      </defs>
      <use xlink:href="#TimesNewRomanPSMT-41"/>
      <use xlink:href="#TimesNewRomanPSMT-6d" x="72.216797"/>
      <use xlink:href="#TimesNewRomanPSMT-70" x="150"/>
      <use xlink:href="#TimesNewRomanPSMT-6c" x="200"/>
      <use xlink:href="#TimesNewRomanPSMT-69" x="227.783203"/>
      <use xlink:href="#TimesNewRomanPSMT-74" x="255.566406"/>
      <use xlink:href="#TimesNewRomanPSMT-75" x="283.349609"/>
      <use xlink:href="#TimesNewRomanPSMT-64" x="333.349609"/>
      <use xlink:href="#TimesNewRomanPSMT-65" x="383.349609"/>
      <use xlink:href="#TimesNewRomanPSMT-20" x="427.734375"/>
      <use xlink:href="#TimesNewRomanPSMT-5b" x="452.734375"/>
      <use xlink:href="#TimesNewRomanPSMT-6d" x="486.035156"/>
      <use xlink:href="#TimesNewRomanPSMT-54" x="563.818359"/>
      <use xlink:href="#TimesNewRomanPSMT-2f" x="624.902344"/>
      <use xlink:href="#TimesNewRomanPSMT-6d" x="652.685547"/>
      <use xlink:href="#TimesNewRomanPSMT-2c" x="730.46875"/>
      <use xlink:href="#TimesNewRomanPSMT-20" x="755.46875"/>
      <use xlink:href="#TimesNewRomanPSMT-3bc" x="780.46875"/>
      <use xlink:href="#TimesNewRomanPSMT-54" x="834.082031"/>
      <use xlink:href="#TimesNewRomanPSMT-5d" x="895.166016"/>
     </g>
    </g>
   </g>
   <g id="line2d_13">
    <path d="M 20.716563 35.034848 
L 254.626563 35.034848 
" clip-path="url(#p79def4c643)" style="fill: none; stroke: #555555; stroke-width: 0.5; stroke-linecap: square"/>
   </g>
   <g id="line2d_14">
    <path d="M 96.43954 35.034848 
L 96.515567 34.217483 
L 96.819675 37.08964 
L 96.921045 36.821453 
L 97.174468 33.928166 
L 97.427892 31.805907 
L 97.478577 31.750871 
L 97.529261 31.832598 
L 97.681315 32.815264 
L 98.390902 39.226779 
L 98.492271 38.904936 
L 98.69501 37.189218 
L 99.404596 30.109256 
L 99.505966 30.113862 
L 99.65802 30.776447 
L 99.911443 33.27858 
L 100.570345 40.348782 
L 100.722399 40.663141 
L 100.823768 40.476487 
L 101.026507 39.219114 
L 101.431985 34.421556 
L 101.888148 29.566405 
L 102.090886 28.826386 
L 102.192256 28.883238 
L 102.34431 29.494695 
L 102.597734 31.714977 
L 103.560743 41.658865 
L 103.662113 41.797297 
L 103.712798 41.76706 
L 103.864852 41.285871 
L 104.118275 39.318879 
L 104.777177 31.178191 
L 105.13197 28.243642 
L 105.334709 27.771589 
L 105.436078 27.903969 
L 105.638817 28.878834 
L 105.942925 31.808888 
L 106.905935 42.28804 
L 107.108674 42.766784 
L 107.210044 42.660003 
L 107.362098 42.075679 
L 107.615521 40.091652 
L 108.173053 33.206574 
L 108.679901 27.951557 
L 108.933324 26.911926 
L 109.034694 26.871887 
L 109.186748 27.220614 
L 109.440171 28.818366 
L 109.845649 33.326536 
L 110.656605 42.488984 
L 110.910028 43.555422 
L 111.011398 43.625346 
L 111.062083 43.582007 
L 111.214137 43.143604 
L 111.46756 41.458927 
L 111.873038 36.931281 
L 112.683994 27.557088 
L 112.988102 26.131155 
L 113.140156 26.072197 
L 113.29221 26.458804 
L 113.545634 28.02833 
L 113.951112 32.386993 
L 114.914122 43.274551 
L 115.167545 44.319634 
L 115.319599 44.384566 
L 115.471654 44.021649 
L 115.725077 42.522368 
L 116.130555 38.291333 
L 117.194934 26.330122 
L 117.448358 25.363181 
L 117.600412 25.325903 
L 117.752466 25.700104 
L 118.00589 27.185162 
L 118.411367 31.349433 
L 119.526431 43.975451 
L 119.83054 45.096679 
L 119.982594 45.067364 
L 120.134648 44.642178 
L 120.388072 43.108159 
L 120.793549 38.937314 
L 121.959298 25.758716 
L 122.263406 24.637692 
L 122.415461 24.647645 
L 122.567515 25.041184 
L 122.820938 26.502069 
L 123.226416 30.547345 
L 124.493534 44.758873 
L 124.797643 45.779756 
L 124.949697 45.735427 
L 125.101751 45.319844 
L 125.355175 43.848531 
L 125.760652 39.832444 
L 127.12914 24.76018 
L 127.382564 23.980499 
L 127.534618 23.992867 
L 127.686672 24.366586 
L 127.940096 25.752634 
L 128.345573 29.629868 
L 129.81543 45.707073 
L 130.068854 46.415886 
L 130.220908 46.373111 
L 130.423647 45.771931 
L 130.727755 43.785867 
L 131.183918 38.910451 
L 132.400351 24.953594 
L 132.70446 23.535192 
L 132.907198 23.3329 
L 133.059253 23.58238 
L 133.312676 24.736931 
L 133.667469 27.720886 
L 134.326371 35.835979 
L 135.086642 44.479443 
L 135.441435 46.59288 
L 135.694858 47.042037 
L 135.846912 46.864696 
L 136.049651 46.116438 
L 136.35376 43.984883 
L 136.860607 38.398218 
L 138.026356 24.840581 
L 138.381149 23.012311 
L 138.583888 22.738361 
L 138.735942 22.91525 
L 138.938681 23.651224 
L 139.242789 25.744843 
L 139.749636 31.257039 
L 140.96607 45.442301 
L 141.320863 47.302365 
L 141.523602 47.613729 
L 141.675656 47.473521 
L 141.878395 46.795716 
L 142.182503 44.800098 
L 142.638665 40.049304 
L 144.057838 23.823953 
L 144.412631 22.316103 
L 144.564685 22.179443 
L 144.716739 22.356534 
L 144.919478 23.071602 
L 145.223586 25.097711 
L 145.679749 29.851224 
L 147.149606 46.581057 
L 147.504399 48.036531 
L 147.656453 48.160163 
L 147.808507 47.976515 
L 148.011246 47.262621 
L 148.315354 45.256257 
L 148.771517 40.551185 
L 150.292059 23.242557 
L 150.646852 21.779982 
L 150.849591 21.664494 
L 151.001645 21.928756 
L 151.255068 23.01753 
L 151.609862 25.771779 
L 152.167393 32.189882 
L 153.333142 45.89626 
L 153.73862 48.235943 
L 153.992044 48.685984 
L 154.144098 48.5628 
L 154.346837 47.944751 
L 154.650945 46.10187 
L 155.107107 41.62803 
L 156.881073 22.110114 
L 157.185181 21.182367 
L 157.337235 21.148983 
L 157.489289 21.405213 
L 157.742713 22.458043 
L 158.097506 25.128125 
L 158.655038 31.413847 
L 159.922156 46.345616 
L 160.327634 48.693654 
L 160.581058 49.1867 
L 160.733112 49.103576 
L 160.935851 48.553567 
L 161.239959 46.834958 
L 161.696122 42.553097 
L 162.608447 30.958436 
L 163.318033 23.410536 
L 163.72351 21.111845 
L 163.976934 20.635579 
L 164.128988 20.722404 
L 164.331727 21.269863 
L 164.635836 22.970526 
L 165.091998 27.207199 
L 165.953638 38.123428 
L 166.713909 46.504165 
L 167.119387 49.006029 
L 167.372811 49.639082 
L 167.524865 49.653838 
L 167.676919 49.393631 
L 167.930343 48.365019 
L 168.285136 45.779239 
L 168.842668 39.653501 
L 170.26184 22.96466 
L 170.667318 20.66828 
L 170.920741 20.16172 
L 171.072795 20.218158 
L 171.275534 20.712175 
L 171.579643 22.311595 
L 171.98512 25.846565 
L 172.694707 34.506356 
L 173.657716 45.964204 
L 174.113879 49.165805 
L 174.417987 50.082215 
L 174.570041 50.144484 
L 174.722096 49.939978 
L 174.975519 49.018697 
L 175.330312 46.598198 
L 175.837159 41.309502 
L 177.56044 21.61744 
L 177.915233 19.995169 
L 178.117972 19.690302 
L 178.270026 19.768097 
L 178.472765 20.277569 
L 178.776873 21.873835 
L 179.182351 25.368221 
L 179.841253 33.286251 
L 180.956317 46.579067 
L 181.412479 49.675339 
L 181.716587 50.548762 
L 181.868642 50.600688 
L 182.020696 50.393696 
L 182.274119 49.485038 
L 182.628912 47.111039 
L 183.13576 41.91255 
L 184.96041 21.123531 
L 185.315203 19.539158 
L 185.517942 19.239114 
L 185.669996 19.311791 
L 185.872735 19.803147 
L 186.176843 21.351319 
L 186.582321 24.758185 
L 187.241222 32.561328 
L 188.457656 47.066892 
L 188.913818 50.115615 
L 189.217927 50.98751 
L 189.369981 51.049402 
L 189.522035 50.859488 
L 189.775458 49.993646 
L 190.130252 47.701855 
L 190.637099 42.629914 
L 192.613803 20.39741 
L 192.968596 18.999196 
L 193.171335 18.794371 
L 193.323389 18.930637 
L 193.526128 19.494651 
L 193.830236 21.123821 
L 194.286399 25.109916 
L 194.995985 33.733827 
L 196.111049 47.037762 
L 196.567211 50.276565 
L 196.87132 51.3249 
L 197.074059 51.487201 
L 197.226113 51.322833 
L 197.428852 50.72709 
L 197.73296 49.063289 
L 198.189123 45.052417 
L 198.898709 36.427848 
L 200.013773 23.060685 
L 200.52062 19.476334 
L 200.824728 18.497932 
L 201.027467 18.376878 
L 201.179521 18.568472 
L 201.432945 19.416248 
L 201.787738 21.646094 
L 202.294585 26.594175 
L 203.30828 39.529471 
L 204.068551 47.888178 
L 204.524713 50.903998 
L 204.828821 51.812361 
L 205.03156 51.892043 
L 205.183615 51.673046 
L 205.437038 50.787414 
L 205.791831 48.521664 
L 206.298678 43.552802 
L 207.312373 30.614047 
L 208.072644 22.192042 
L 208.528806 19.086826 
L 208.832915 18.097134 
L 209.035654 17.955249 
L 209.187708 18.124416 
L 209.441131 18.923242 
L 209.795924 21.066799 
L 210.302772 25.884296 
L 211.215097 37.428853 
L 212.076737 47.418308 
L 212.583584 51.062047 
L 212.938377 52.214159 
L 213.141116 52.30942 
L 213.29317 52.108646 
L 213.546594 51.264606 
L 213.901387 49.074687 
L 214.408234 44.223393 
L 215.320559 32.671246 
L 216.232884 22.177555 
L 216.739732 18.674551 
L 217.04384 17.694365 
L 217.246579 17.546863 
L 217.398633 17.705439 
L 217.652057 18.475281 
L 218.00685 20.559185 
L 218.513697 25.27553 
L 219.375337 36.068324 
L 220.338347 47.460815 
L 220.845194 51.239013 
L 221.199987 52.533996 
L 221.402726 52.72671 
L 221.55478 52.605058 
L 221.757519 52.091093 
L 222.061628 50.594125 
L 222.467105 47.374476 
L 223.075322 40.560443 
L 224.747918 20.773447 
L 225.20408 18.002438 
L 225.508189 17.211268 
L 225.660243 17.151382 
L 225.812297 17.317133 
L 226.065721 18.087609 
L 226.420514 20.151201 
L 226.927361 24.811579 
L 227.738317 34.869839 
L 228.802696 47.618979 
L 229.309543 51.470566 
L 229.664336 52.856558 
L 229.91776 53.118222 
L 230.069814 52.977742 
L 230.272553 52.446667 
L 230.576661 50.940635 
L 231.032824 47.24929 
L 231.691725 39.685633 
L 233.262951 20.949487 
L 233.719114 17.933409 
L 234.073907 16.855154 
L 234.276646 16.772681 
L 234.4287 16.96835 
L 234.682124 17.777102 
L 235.036917 19.870221 
L 235.543764 24.532921 
L 236.35472 34.56462 
L 237.469784 47.935991 
L 237.976631 51.789229 
L 238.331424 53.205409 
L 238.584847 53.504972 
L 238.736902 53.39346 
L 238.939641 52.907421 
L 239.243749 51.47961 
L 239.649227 48.386818 
L 240.257443 41.76329 
L 242.132778 19.746086 
L 242.588941 17.139069 
L 242.893049 16.423011 
L 243.045103 16.387459 
L 243.197157 16.568194 
L 243.450581 17.343003 
L 243.805374 19.373692 
L 244.261536 23.528803 
L 245.173862 33.49519 
L 245.47797 34.695138 
L 245.731393 35.012049 
L 246.010159 35.034848 
M 246.010159 35.034848 
L 246.010159 35.04142 
L 254.626563 35.034848 
L 254.626563 35.034848 
" clip-path="url(#p79def4c643)" style="fill: none; stroke: #636efa; stroke-width: 0.5; stroke-linecap: square"/>
   </g>
   <g id="line2d_15">
    <path d="M 96.43954 35.034848 
L 96.616936 33.660801 
L 96.718306 34.08258 
L 97.123784 37.758243 
L 97.225153 37.410671 
L 97.478577 34.636003 
L 97.83337 31.33941 
L 97.884054 31.263586 
L 97.934739 31.307091 
L 98.086793 32.107311 
L 98.441586 36.318545 
L 98.796379 39.485391 
L 98.897749 39.635455 
L 98.948434 39.564466 
L 99.100488 38.799275 
L 99.404596 35.460754 
L 99.911443 30.105988 
L 100.063497 29.725719 
L 100.164867 29.892137 
L 100.367606 31.161334 
L 100.773084 36.020708 
L 101.229246 40.542574 
L 101.431985 40.952504 
L 101.533354 40.70763 
L 101.736093 39.388638 
L 102.141571 34.590473 
L 102.648418 29.229448 
L 102.851157 28.546091 
L 102.952527 28.613982 
L 103.104581 29.219846 
L 103.358005 31.391431 
L 104.371699 41.898983 
L 104.523753 42.031297 
L 104.675807 41.5942 
L 104.929231 39.724394 
L 105.436078 33.498929 
L 105.942925 28.338801 
L 106.196349 27.535001 
L 106.297719 27.627327 
L 106.449773 28.203486 
L 106.703196 30.202977 
L 107.260728 37.116762 
L 107.767576 42.16152 
L 108.020999 42.984922 
L 108.122369 42.924336 
L 108.274423 42.41803 
L 108.527846 40.568346 
L 108.984009 35.142174 
L 109.64291 27.849817 
L 109.896334 26.732501 
L 109.997703 26.649976 
L 110.048388 26.688948 
L 110.200442 27.122024 
L 110.453866 28.820116 
L 110.910028 34.049547 
L 111.619615 42.223759 
L 111.923723 43.723449 
L 112.075777 43.807183 
L 112.227831 43.435041 
L 112.481255 41.868011 
L 112.886733 37.48311 
L 113.799058 27.088936 
L 114.103166 25.883447 
L 114.204535 25.864008 
L 114.35659 26.198832 
L 114.610013 27.672896 
L 115.015491 31.904755 
L 116.029185 43.419926 
L 116.333294 44.565644 
L 116.434663 44.579317 
L 116.586717 44.250034 
L 116.840141 42.817655 
L 117.245619 38.685298 
L 118.360683 26.147269 
L 118.614106 25.186959 
L 118.766161 25.143947 
L 118.918215 25.505245 
L 119.171638 26.956349 
L 119.577116 31.05878 
L 120.742865 44.206218 
L 121.046973 45.276741 
L 121.148343 45.289897 
L 121.300397 44.98365 
L 121.55382 43.64361 
L 121.908613 40.299681 
L 123.327786 24.971349 
L 123.581209 24.427333 
L 123.682579 24.504318 
L 123.885318 25.157301 
L 124.189426 27.285041 
L 124.645589 32.391944 
L 125.659283 44.133541 
L 126.014076 45.832245 
L 126.16613 45.965457 
L 126.318184 45.730243 
L 126.520923 44.859995 
L 126.825032 42.483172 
L 127.382564 35.869557 
L 128.244204 25.950188 
L 128.598997 24.039237 
L 128.801736 23.787078 
L 128.95379 24.015548 
L 129.156529 24.862146 
L 129.460637 27.181853 
L 129.967484 33.042535 
L 130.930494 44.298106 
L 131.285287 46.276815 
L 131.488026 46.594367 
L 131.64008 46.426003 
L 131.842819 45.670042 
L 132.146928 43.493003 
L 132.653775 37.80621 
L 133.718154 25.375043 
L 134.072947 23.468544 
L 134.275686 23.174996 
L 134.42774 23.351161 
L 134.630479 24.104074 
L 134.934587 26.253141 
L 135.441435 31.875499 
L 136.556499 44.928174 
L 136.911292 46.858588 
L 137.114031 47.186722 
L 137.266085 47.046076 
L 137.468824 46.350945 
L 137.772932 44.300734 
L 138.229094 39.447676 
L 139.546897 24.315374 
L 139.90169 22.744333 
L 140.104429 22.619061 
L 140.256483 22.902645 
L 140.509907 24.069466 
L 140.8647 26.997733 
L 141.472917 34.328157 
L 142.385242 44.949855 
L 142.79072 47.342558 
L 143.044143 47.752844 
L 143.196197 47.576919 
L 143.398936 46.858315 
L 143.703045 44.817996 
L 144.159207 40.035458 
L 145.578379 23.767482 
L 145.933172 22.208302 
L 146.135911 22.05686 
L 146.287966 22.305051 
L 146.541389 23.387574 
L 146.896182 26.168092 
L 147.453714 32.651305 
L 148.518093 45.267597 
L 148.923571 47.761589 
L 149.176995 48.288175 
L 149.329049 48.199775 
L 149.531788 47.613751 
L 149.835896 45.789215 
L 150.292059 41.294943 
L 151.964655 22.669069 
L 152.268763 21.608032 
L 152.420817 21.518089 
L 152.572871 21.726341 
L 152.77561 22.458546 
L 153.079719 24.46417 
L 153.535881 29.129244 
L 155.157792 47.399553 
L 155.461901 48.627391 
L 155.664639 48.809244 
L 155.816694 48.604289 
L 156.019432 47.884612 
L 156.323541 45.911651 
L 156.779703 41.306846 
L 158.452299 22.448538 
L 158.756408 21.207238 
L 158.959146 21.004338 
L 159.111201 21.187433 
L 159.31394 21.871037 
L 159.618048 23.78005 
L 160.07421 28.290093 
L 161.848176 48.073379 
L 162.152284 49.179503 
L 162.355023 49.299301 
L 162.507077 49.059916 
L 162.760501 48.04982 
L 163.115294 45.460012 
L 163.672826 39.292258 
L 165.041313 23.229207 
L 165.446791 20.969952 
L 165.700215 20.512468 
L 165.852269 20.607544 
L 166.055008 21.162209 
L 166.359116 22.865894 
L 166.815279 27.094245 
L 167.676919 38.000531 
L 168.43719 46.450958 
L 168.842668 49.034268 
L 169.146776 49.781484 
L 169.29883 49.74763 
L 169.501569 49.279874 
L 169.805677 47.710593 
L 170.211155 44.198508 
L 170.920741 35.546519 
L 171.883751 24.113307 
L 172.339914 20.957695 
L 172.644022 20.08656 
L 172.796076 20.050633 
L 172.94813 20.283377 
L 173.201554 21.254355 
L 173.556347 23.744405 
L 174.063194 29.113476 
L 175.73579 48.271096 
L 176.090583 49.935423 
L 176.344007 50.269036 
L 176.496061 50.116376 
L 176.6988 49.506252 
L 177.002908 47.764075 
L 177.459071 43.556217 
L 178.270026 33.364951 
L 179.131667 23.461548 
L 179.587829 20.429425 
L 179.891937 19.613857 
L 180.043992 19.594399 
L 180.196046 19.835507 
L 180.449469 20.802989 
L 180.804262 23.257648 
L 181.31111 28.548783 
L 183.085075 48.790778 
L 183.439868 50.403846 
L 183.693292 50.723811 
L 183.845346 50.57314 
L 184.048085 49.977168 
L 184.352193 48.277382 
L 184.808356 44.159568 
L 185.568626 34.727303 
L 186.531636 23.398196 
L 186.987799 20.206355 
L 187.291907 19.233839 
L 187.494646 19.142245 
L 187.6467 19.36916 
L 187.900124 20.298327 
L 188.254917 22.676494 
L 188.761764 27.848806 
L 190.687784 49.534657 
L 191.042577 50.953611 
L 191.245315 51.166795 
L 191.39737 51.034855 
L 191.600109 50.473956 
L 191.904217 48.844124 
L 192.360379 44.84822 
L 193.069966 36.207906 
L 194.134345 23.425725 
L 194.641192 19.798038 
L 194.9453 18.813523 
L 195.148039 18.698729 
L 195.300093 18.900495 
L 195.553517 19.774776 
L 195.90831 22.057152 
L 196.415157 27.089798 
L 198.493231 50.210399 
L 198.848024 51.460069 
L 199.050763 51.588147 
L 199.202817 51.40001 
L 199.456241 50.554518 
L 199.811034 48.321347 
L 200.317881 43.360384 
L 201.38226 29.777219 
L 202.091846 22.120865 
L 202.548009 19.178876 
L 202.852117 18.333107 
L 203.004171 18.267749 
L 203.156226 18.443004 
L 203.409649 19.261083 
L 203.764442 21.447039 
L 204.271289 26.338201 
L 205.234299 38.594763 
L 206.045255 47.716116 
L 206.501417 50.853883 
L 206.805526 51.861382 
L 207.008265 52.012333 
L 207.160319 51.848294 
L 207.413742 51.054699 
L 207.768535 48.911979 
L 208.275383 44.086466 
L 209.187708 32.532084 
L 210.049348 22.591588 
L 210.556195 19.01704 
L 210.860304 18.008329 
L 211.063042 17.850249 
L 211.215097 18.005649 
L 211.417836 18.573898 
L 211.721944 20.167785 
L 212.178106 24.03547 
L 212.887693 32.484086 
L 214.154811 47.711257 
L 214.661658 51.258673 
L 214.965766 52.2626 
L 215.168505 52.423463 
L 215.320559 52.273338 
L 215.523298 51.716137 
L 215.827406 50.146116 
L 216.283569 46.323519 
L 216.94247 38.589005 
L 218.310958 22.105188 
L 218.817805 18.595178 
L 219.121914 17.603502 
L 219.324652 17.445194 
L 219.476707 17.594151 
L 219.679445 18.145804 
L 219.983554 19.69996 
L 220.439716 23.487747 
L 221.098618 31.17632 
L 222.51779 48.242207 
L 223.024637 51.702399 
L 223.328746 52.672995 
L 223.531484 52.822494 
L 223.683539 52.669921 
L 223.936962 51.918182 
L 224.291755 49.873581 
L 224.747918 45.768156 
L 225.508189 36.508805 
L 226.673937 22.443629 
L 227.180785 18.629545 
L 227.535578 17.281807 
L 227.738317 17.048635 
L 227.890371 17.13552 
L 228.09311 17.598165 
L 228.397218 19.010775 
L 228.802696 22.115015 
L 229.410912 28.790376 
L 231.184878 49.715913 
L 231.64104 52.409843 
L 231.945149 53.161894 
L 232.097203 53.207263 
L 232.249257 53.030664 
L 232.502681 52.250366 
L 232.857474 50.189097 
L 233.364321 45.55502 
L 234.175276 35.536352 
L 235.29034 22.17 
L 235.797188 18.334764 
L 236.151981 16.940359 
L 236.405404 16.660795 
L 236.557458 16.785848 
L 236.760197 17.291362 
L 237.064306 18.75037 
L 237.469784 21.88491 
L 238.078 28.558606 
L 239.90265 50.065687 
L 240.358813 52.758503 
L 240.662921 53.531947 
L 240.86566 53.567744 
L 241.068399 53.217831 
L 241.321823 52.250157 
L 241.676616 49.96733 
L 242.183463 45.112466 
L 243.095788 33.630518 
L 244.109482 21.711514 
L 244.413591 19.950383 
L 244.51496 19.893623 
L 244.667014 20.298732 
L 244.920438 22.075785 
L 245.427285 27.948595 
L 246.010159 35.034848 
M 246.010159 35.034848 
L 246.010159 34.629295 
L 254.626563 35.034848 
L 254.626563 35.034848 
" clip-path="url(#p79def4c643)" style="fill: none; stroke: #ef553b; stroke-width: 0.5; stroke-linecap: square"/>
   </g>
   <g id="line2d_16">
    <path d="M 61.872558 35.034848 
L 63.646523 5.049641 
L 63.646523 5.049641 
L 65.420489 35.034848 
M 65.420489 35.034848 
L 66.028706 24.540015 
L 76.16565 24.540015 
L 76.773867 35.034848 
M 76.773867 35.034848 
L 78.598517 65.936254 
L 78.598517 65.936254 
L 80.423167 35.034848 
M 246.010159 35.034848 
L 247.784125 3.939077 
L 252.852597 3.939077 
L 254.626563 35.034848 
" clip-path="url(#p79def4c643)" style="fill: none; stroke: #00cc96; stroke-width: 0.5; stroke-linecap: square"/>
   </g>
   <g id="line2d_17">
    <path d="M 21.22341 35.034848 
L 36.378142 34.927175 
L 36.479512 34.90343 
L 36.986359 34.804324 
L 37.087728 34.760137 
L 37.442521 34.651662 
L 37.543891 34.586329 
L 37.797314 34.486692 
L 37.898684 34.402119 
L 38.101423 34.308851 
L 38.202792 34.2068 
L 38.405531 34.096033 
L 38.506901 33.976794 
L 38.658955 33.892801 
L 38.760324 33.76051 
L 38.912378 33.668454 
L 39.013748 33.525293 
L 39.165802 33.426961 
L 39.267171 33.276109 
L 39.419226 33.173949 
L 39.520595 33.01954 
L 39.672649 32.916594 
L 39.774019 32.763575 
L 39.926073 32.663359 
L 40.027442 32.517258 
L 40.179496 32.423578 
L 40.280866 32.290189 
L 40.43292 32.206906 
L 40.534289 32.091919 
L 40.737028 31.990512 
L 40.838398 31.904381 
L 41.142506 31.798661 
L 41.243876 31.759735 
L 42.054831 31.856186 
L 42.156201 31.931298 
L 42.35894 32.022696 
L 42.460309 32.128829 
L 42.612363 32.206906 
L 42.713733 32.333598 
L 42.865787 32.423578 
L 42.967156 32.565292 
L 43.11921 32.663359 
L 43.22058 32.814297 
L 43.372634 32.916594 
L 43.474003 33.071079 
L 43.626058 33.173949 
L 43.727427 33.32677 
L 43.879481 33.426961 
L 43.980851 33.573636 
L 44.132905 33.668454 
L 44.234274 33.805411 
L 44.386328 33.892801 
L 44.487698 34.017459 
L 44.639752 34.096033 
L 44.741122 34.2068 
L 44.94386 34.308851 
L 45.04523 34.402119 
L 45.298654 34.512985 
L 45.400023 34.586329 
L 45.704131 34.690985 
L 45.805501 34.743986 
L 46.261663 34.854077 
L 46.363033 34.885256 
L 47.376727 34.995593 
L 47.478097 35.003757 
L 61.720504 35.034848 
L 61.720504 35.034848 
M 66.03124 35.034848 
L 66.137678 35.016256 
L 66.664799 34.905305 
L 66.771237 34.875429 
L 67.146304 34.764656 
L 67.252742 34.730795 
L 68.377942 34.841432 
L 68.48438 34.946269 
L 68.712462 34.839061 
L 68.8189 34.658327 
L 68.88479 34.548924 
L 68.991228 34.328978 
L 69.046981 34.220973 
L 69.153419 33.966688 
L 69.204103 33.856434 
L 69.310541 33.573148 
L 69.356158 33.465727 
L 69.462596 33.160018 
L 69.503143 33.060021 
L 69.609581 32.739266 
L 69.650129 32.635648 
L 69.756567 32.307462 
L 69.797115 32.202791 
L 69.903553 31.875616 
L 69.9441 31.772675 
L 70.050538 31.45546 
L 70.091086 31.357139 
L 70.197524 31.058996 
L 70.24314 30.955381 
L 70.349578 30.686325 
L 70.400263 30.583785 
L 70.506701 30.354085 
L 70.567523 30.251385 
L 70.67396 30.072645 
L 70.760124 29.966511 
L 70.866562 29.855525 
L 71.444368 29.966511 
L 71.550806 30.117727 
L 71.621765 30.224874 
L 71.728203 30.433999 
L 71.783956 30.539746 
L 71.890394 30.793391 
L 71.93601 30.892102 
L 72.042448 31.178781 
L 72.088064 31.287848 
L 72.194502 31.598273 
L 72.23505 31.699655 
L 72.341488 32.023812 
L 72.382036 32.128113 
L 72.488474 32.456941 
L 72.529021 32.561321 
L 72.635459 32.886128 
L 72.676007 32.987917 
L 72.782445 33.300712 
L 72.828061 33.411218 
L 72.934499 33.704225 
L 72.980115 33.80634 
L 73.086553 34.073402 
L 73.137238 34.176415 
L 73.243676 34.411811 
L 73.304498 34.520395 
L 73.410936 34.718631 
L 73.481894 34.823698 
L 73.588332 34.980959 
L 73.791071 34.872192 
L 73.897509 34.7834 
L 74.115453 34.673798 
L 74.221891 34.643901 
L 75.02271 34.753759 
L 75.129148 34.788144 
L 75.514352 34.898711 
L 75.620789 34.92683 
L 76.163116 35.033581 
L 76.163116 35.034848 
" clip-path="url(#p79def4c643)" style="fill: none; stroke: #ab63fa; stroke-width: 0.5; stroke-linecap: square"/>
   </g>
   <g id="legend_1">
    <g id="line2d_18">
     <path d="M 25.216563 3.75 
L 27.716563 3.75 
L 30.216563 3.75 
" style="fill: none; stroke: #636efa; stroke-width: 0.5; stroke-linecap: square"/>
    </g>
    <g id="text_15">
     <!-- $G_{x}$ -->
     <g transform="translate(32.716563 5.5) scale(0.05 -0.05)">
      <defs>
       <path id="TimesNewRomanPSMT-47" d="M 3928 4334 
L 4038 2997 
L 3928 2997 
Q 3763 3497 3500 3750 
Q 3122 4116 2528 4116 
Q 1719 4116 1297 3475 
Q 944 2934 944 2188 
Q 944 1581 1178 1081 
Q 1413 581 1792 348 
Q 2172 116 2572 116 
Q 2806 116 3025 175 
Q 3244 234 3447 350 
L 3447 1575 
Q 3447 1894 3398 1992 
Q 3350 2091 3248 2142 
Q 3147 2194 2891 2194 
L 2891 2313 
L 4531 2313 
L 4531 2194 
L 4453 2194 
Q 4209 2194 4119 2031 
Q 4056 1916 4056 1575 
L 4056 278 
Q 3697 84 3347 -6 
Q 2997 -97 2569 -97 
Q 1341 -97 703 691 
Q 225 1281 225 2053 
Q 225 2613 494 3125 
Q 813 3734 1369 4063 
Q 1834 4334 2469 4334 
Q 2700 4334 2889 4296 
Q 3078 4259 3425 4131 
Q 3600 4066 3659 4066 
Q 3719 4066 3761 4120 
Q 3803 4175 3813 4334 
L 3928 4334 
z
" transform="scale(0.015625)"/>
       <path id="TimesNewRomanPSMT-78" d="M 84 2863 
L 1431 2863 
L 1431 2747 
Q 1303 2747 1251 2703 
Q 1200 2659 1200 2588 
Q 1200 2513 1309 2356 
Q 1344 2306 1413 2200 
L 1616 1875 
L 1850 2200 
Q 2075 2509 2075 2591 
Q 2075 2656 2022 2701 
Q 1969 2747 1850 2747 
L 1850 2863 
L 2819 2863 
L 2819 2747 
Q 2666 2738 2553 2663 
Q 2400 2556 2134 2200 
L 1744 1678 
L 2456 653 
Q 2719 275 2831 198 
Q 2944 122 3122 113 
L 3122 0 
L 1772 0 
L 1772 113 
Q 1913 113 1991 175 
Q 2050 219 2050 291 
Q 2050 363 1850 653 
L 1431 1266 
L 972 653 
Q 759 369 759 316 
Q 759 241 829 180 
Q 900 119 1041 113 
L 1041 0 
L 106 0 
L 106 113 
Q 219 128 303 191 
Q 422 281 703 653 
L 1303 1450 
L 759 2238 
Q 528 2575 401 2661 
Q 275 2747 84 2747 
L 84 2863 
z
" transform="scale(0.015625)"/>
      </defs>
      <use xlink:href="#TimesNewRomanPSMT-47" transform="translate(0 0.28125)"/>
      <use xlink:href="#TimesNewRomanPSMT-78" transform="translate(73.719609 -25.48125) scale(0.7)"/>
     </g>
    </g>
    <g id="line2d_19">
     <path d="M 43.416562 3.75 
L 45.916562 3.75 
L 48.416562 3.75 
" style="fill: none; stroke: #ef553b; stroke-width: 0.5; stroke-linecap: square"/>
    </g>
    <g id="text_16">
     <!-- $G_{y}$ -->
     <g transform="translate(50.916562 5.5) scale(0.05 -0.05)">
      <defs>
       <path id="TimesNewRomanPSMT-79" d="M 38 2863 
L 1372 2863 
L 1372 2747 
L 1306 2747 
Q 1166 2747 1095 2686 
Q 1025 2625 1025 2534 
Q 1025 2413 1128 2197 
L 1825 753 
L 2466 2334 
Q 2519 2463 2519 2588 
Q 2519 2644 2497 2672 
Q 2472 2706 2419 2726 
Q 2366 2747 2231 2747 
L 2231 2863 
L 3163 2863 
L 3163 2747 
Q 3047 2734 2984 2696 
Q 2922 2659 2847 2556 
Q 2819 2513 2741 2316 
L 1575 -541 
Q 1406 -956 1132 -1168 
Q 859 -1381 606 -1381 
Q 422 -1381 303 -1275 
Q 184 -1169 184 -1031 
Q 184 -900 270 -820 
Q 356 -741 506 -741 
Q 609 -741 788 -809 
Q 913 -856 944 -856 
Q 1038 -856 1148 -759 
Q 1259 -663 1372 -384 
L 1575 113 
L 547 2272 
Q 500 2369 397 2513 
Q 319 2622 269 2659 
Q 197 2709 38 2747 
L 38 2863 
z
" transform="scale(0.015625)"/>
      </defs>
      <use xlink:href="#TimesNewRomanPSMT-47" transform="translate(0 0.28125)"/>
      <use xlink:href="#TimesNewRomanPSMT-79" transform="translate(73.719609 -25.48125) scale(0.7)"/>
     </g>
    </g>
    <g id="line2d_20">
     <path d="M 61.616563 3.75 
L 64.116563 3.75 
L 66.616563 3.75 
" style="fill: none; stroke: #00cc96; stroke-width: 0.5; stroke-linecap: square"/>
    </g>
    <g id="text_17">
     <!-- $G_{z}$ -->
     <g transform="translate(69.116563 5.5) scale(0.05 -0.05)">
      <defs>
       <path id="TimesNewRomanPSMT-7a" d="M 2688 878 
L 2653 0 
L 128 0 
L 128 113 
L 2028 2644 
L 1091 2644 
Q 788 2644 694 2605 
Q 600 2566 541 2456 
Q 456 2300 444 2069 
L 319 2069 
L 338 2863 
L 2738 2863 
L 2738 2747 
L 819 209 
L 1863 209 
Q 2191 209 2308 264 
Q 2425 319 2497 456 
Q 2547 556 2581 878 
L 2688 878 
z
" transform="scale(0.015625)"/>
      </defs>
      <use xlink:href="#TimesNewRomanPSMT-47" transform="translate(0 0.28125)"/>
      <use xlink:href="#TimesNewRomanPSMT-7a" transform="translate(73.719609 -25.48125) scale(0.7)"/>
     </g>
    </g>
    <g id="line2d_21">
     <path d="M 79.616563 3.75 
L 82.116563 3.75 
L 84.616563 3.75 
" style="fill: none; stroke: #ab63fa; stroke-width: 0.5; stroke-linecap: square"/>
    </g>
    <g id="text_18">
     <!-- $|B_{1}|$ -->
     <g transform="translate(87.116563 5.5) scale(0.05 -0.05)">
      <defs>
       <path id="TimesNewRomanPSMT-7c" d="M 763 4444 
L 763 -1381 
L 503 -1381 
L 503 4444 
L 763 4444 
z
" transform="scale(0.015625)"/>
       <path id="TimesNewRomanPSMT-42" d="M 2956 2163 
Q 3397 2069 3616 1863 
Q 3919 1575 3919 1159 
Q 3919 844 3719 555 
Q 3519 266 3170 133 
Q 2822 0 2106 0 
L 106 0 
L 106 116 
L 266 116 
Q 531 116 647 284 
Q 719 394 719 750 
L 719 3488 
Q 719 3881 628 3984 
Q 506 4122 266 4122 
L 106 4122 
L 106 4238 
L 1938 4238 
Q 2450 4238 2759 4163 
Q 3228 4050 3475 3764 
Q 3722 3478 3722 3106 
Q 3722 2788 3528 2536 
Q 3334 2284 2956 2163 
z
M 1319 2331 
Q 1434 2309 1582 2298 
Q 1731 2288 1909 2288 
Q 2366 2288 2595 2386 
Q 2825 2484 2947 2687 
Q 3069 2891 3069 3131 
Q 3069 3503 2766 3765 
Q 2463 4028 1881 4028 
Q 1569 4028 1319 3959 
L 1319 2331 
z
M 1319 306 
Q 1681 222 2034 222 
Q 2600 222 2897 476 
Q 3194 731 3194 1106 
Q 3194 1353 3059 1581 
Q 2925 1809 2622 1940 
Q 2319 2072 1872 2072 
Q 1678 2072 1540 2065 
Q 1403 2059 1319 2044 
L 1319 306 
z
" transform="scale(0.015625)"/>
      </defs>
      <use xlink:href="#TimesNewRomanPSMT-7c" transform="translate(0 0.5625)"/>
      <use xlink:href="#TimesNewRomanPSMT-42" transform="translate(20.019531 0.5625)"/>
      <use xlink:href="#TimesNewRomanPSMT-31" transform="translate(88.221563 -25.2) scale(0.7)"/>
      <use xlink:href="#TimesNewRomanPSMT-7c" transform="translate(127.515312 0.5625)"/>
     </g>
    </g>
    <g id="PathCollection_3">
     <g>
      <use xlink:href="#m9e22940e9e" x="102.016562" y="4.1875" style="stroke: #000000; stroke-width: 0.1"/>
     </g>
    </g>
    <g id="text_19">
     <!-- $Stitching \ trigger$ -->
     <g transform="translate(107.016562 5.5) scale(0.05 -0.05)">
      <defs>
       <path id="TimesNewRomanPSMT-53" d="M 2934 4334 
L 2934 2869 
L 2819 2869 
Q 2763 3291 2617 3541 
Q 2472 3791 2203 3937 
Q 1934 4084 1647 4084 
Q 1322 4084 1109 3886 
Q 897 3688 897 3434 
Q 897 3241 1031 3081 
Q 1225 2847 1953 2456 
Q 2547 2138 2764 1967 
Q 2981 1797 3098 1565 
Q 3216 1334 3216 1081 
Q 3216 600 2842 251 
Q 2469 -97 1881 -97 
Q 1697 -97 1534 -69 
Q 1438 -53 1133 45 
Q 828 144 747 144 
Q 669 144 623 97 
Q 578 50 556 -97 
L 441 -97 
L 441 1356 
L 556 1356 
Q 638 900 775 673 
Q 913 447 1195 297 
Q 1478 147 1816 147 
Q 2206 147 2432 353 
Q 2659 559 2659 841 
Q 2659 997 2573 1156 
Q 2488 1316 2306 1453 
Q 2184 1547 1640 1851 
Q 1097 2156 867 2337 
Q 638 2519 519 2737 
Q 400 2956 400 3219 
Q 400 3675 750 4004 
Q 1100 4334 1641 4334 
Q 1978 4334 2356 4169 
Q 2531 4091 2603 4091 
Q 2684 4091 2736 4139 
Q 2788 4188 2819 4334 
L 2934 4334 
z
" transform="scale(0.015625)"/>
       <path id="TimesNewRomanPSMT-63" d="M 2631 1088 
Q 2516 522 2178 217 
Q 1841 -88 1431 -88 
Q 944 -88 581 321 
Q 219 731 219 1428 
Q 219 2103 620 2525 
Q 1022 2947 1584 2947 
Q 2006 2947 2278 2723 
Q 2550 2500 2550 2259 
Q 2550 2141 2473 2067 
Q 2397 1994 2259 1994 
Q 2075 1994 1981 2113 
Q 1928 2178 1911 2362 
Q 1894 2547 1784 2644 
Q 1675 2738 1481 2738 
Q 1169 2738 978 2506 
Q 725 2200 725 1697 
Q 725 1184 976 792 
Q 1228 400 1656 400 
Q 1963 400 2206 609 
Q 2378 753 2541 1131 
L 2631 1088 
z
" transform="scale(0.015625)"/>
       <path id="TimesNewRomanPSMT-68" d="M 1041 4444 
L 1041 2350 
Q 1388 2731 1591 2839 
Q 1794 2947 1997 2947 
Q 2241 2947 2416 2812 
Q 2591 2678 2675 2391 
Q 2734 2191 2734 1659 
L 2734 647 
Q 2734 375 2778 275 
Q 2809 200 2884 156 
Q 2959 113 3159 113 
L 3159 0 
L 1753 0 
L 1753 113 
L 1819 113 
Q 2019 113 2097 173 
Q 2175 234 2206 353 
Q 2216 403 2216 647 
L 2216 1659 
Q 2216 2128 2167 2275 
Q 2119 2422 2012 2495 
Q 1906 2569 1756 2569 
Q 1603 2569 1437 2487 
Q 1272 2406 1041 2159 
L 1041 647 
Q 1041 353 1073 281 
Q 1106 209 1195 161 
Q 1284 113 1503 113 
L 1503 0 
L 84 0 
L 84 113 
Q 275 113 384 172 
Q 447 203 484 290 
Q 522 378 522 647 
L 522 3238 
Q 522 3728 498 3840 
Q 475 3953 426 3993 
Q 378 4034 297 4034 
Q 231 4034 84 3984 
L 41 4094 
L 897 4444 
L 1041 4444 
z
" transform="scale(0.015625)"/>
       <path id="TimesNewRomanPSMT-6e" d="M 1034 2341 
Q 1538 2947 1994 2947 
Q 2228 2947 2397 2830 
Q 2566 2713 2666 2444 
Q 2734 2256 2734 1869 
L 2734 647 
Q 2734 375 2778 278 
Q 2813 200 2889 156 
Q 2966 113 3172 113 
L 3172 0 
L 1756 0 
L 1756 113 
L 1816 113 
Q 2016 113 2095 173 
Q 2175 234 2206 353 
Q 2219 400 2219 647 
L 2219 1819 
Q 2219 2209 2117 2386 
Q 2016 2563 1775 2563 
Q 1403 2563 1034 2156 
L 1034 647 
Q 1034 356 1069 288 
Q 1113 197 1189 155 
Q 1266 113 1500 113 
L 1500 0 
L 84 0 
L 84 113 
L 147 113 
Q 366 113 442 223 
Q 519 334 519 647 
L 519 1709 
Q 519 2225 495 2337 
Q 472 2450 423 2490 
Q 375 2531 294 2531 
Q 206 2531 84 2484 
L 38 2597 
L 900 2947 
L 1034 2947 
L 1034 2341 
z
" transform="scale(0.015625)"/>
       <path id="TimesNewRomanPSMT-67" d="M 966 1044 
Q 703 1172 562 1401 
Q 422 1631 422 1909 
Q 422 2334 742 2640 
Q 1063 2947 1563 2947 
Q 1972 2947 2272 2747 
L 2878 2747 
Q 3013 2747 3034 2739 
Q 3056 2731 3066 2713 
Q 3084 2684 3084 2613 
Q 3084 2531 3069 2500 
Q 3059 2484 3036 2475 
Q 3013 2466 2878 2466 
L 2506 2466 
Q 2681 2241 2681 1891 
Q 2681 1491 2375 1206 
Q 2069 922 1553 922 
Q 1341 922 1119 984 
Q 981 866 932 777 
Q 884 688 884 625 
Q 884 572 936 522 
Q 988 472 1138 450 
Q 1225 438 1575 428 
Q 2219 413 2409 384 
Q 2700 344 2873 169 
Q 3047 -6 3047 -263 
Q 3047 -616 2716 -925 
Q 2228 -1381 1444 -1381 
Q 841 -1381 425 -1109 
Q 191 -953 191 -784 
Q 191 -709 225 -634 
Q 278 -519 444 -313 
Q 466 -284 763 25 
Q 600 122 533 198 
Q 466 275 466 372 
Q 466 481 555 628 
Q 644 775 966 1044 
z
M 1509 2797 
Q 1278 2797 1122 2612 
Q 966 2428 966 2047 
Q 966 1553 1178 1281 
Q 1341 1075 1591 1075 
Q 1828 1075 1981 1253 
Q 2134 1431 2134 1813 
Q 2134 2309 1919 2591 
Q 1759 2797 1509 2797 
z
M 934 0 
Q 788 -159 713 -296 
Q 638 -434 638 -550 
Q 638 -700 819 -813 
Q 1131 -1006 1722 -1006 
Q 2284 -1006 2551 -807 
Q 2819 -609 2819 -384 
Q 2819 -222 2659 -153 
Q 2497 -84 2016 -72 
Q 1313 -53 934 0 
z
" transform="scale(0.015625)"/>
       <path id="TimesNewRomanPSMT-72" d="M 1038 2947 
L 1038 2303 
Q 1397 2947 1775 2947 
Q 1947 2947 2059 2842 
Q 2172 2738 2172 2600 
Q 2172 2478 2090 2393 
Q 2009 2309 1897 2309 
Q 1788 2309 1652 2417 
Q 1516 2525 1450 2525 
Q 1394 2525 1328 2463 
Q 1188 2334 1038 2041 
L 1038 669 
Q 1038 431 1097 309 
Q 1138 225 1241 169 
Q 1344 113 1538 113 
L 1538 0 
L 72 0 
L 72 113 
Q 291 113 397 181 
Q 475 231 506 341 
Q 522 394 522 644 
L 522 1753 
Q 522 2253 501 2348 
Q 481 2444 426 2487 
Q 372 2531 291 2531 
Q 194 2531 72 2484 
L 41 2597 
L 906 2947 
L 1038 2947 
z
" transform="scale(0.015625)"/>
      </defs>
      <use xlink:href="#TimesNewRomanPSMT-53" transform="translate(0 0.5625)"/>
      <use xlink:href="#TimesNewRomanPSMT-74" transform="translate(55.615234 0.5625)"/>
      <use xlink:href="#TimesNewRomanPSMT-69" transform="translate(83.398438 0.5625)"/>
      <use xlink:href="#TimesNewRomanPSMT-74" transform="translate(111.181641 0.5625)"/>
      <use xlink:href="#TimesNewRomanPSMT-63" transform="translate(138.964844 0.5625)"/>
      <use xlink:href="#TimesNewRomanPSMT-68" transform="translate(183.349609 0.5625)"/>
      <use xlink:href="#TimesNewRomanPSMT-69" transform="translate(233.349609 0.5625)"/>
      <use xlink:href="#TimesNewRomanPSMT-6e" transform="translate(261.132812 0.5625)"/>
      <use xlink:href="#TimesNewRomanPSMT-67" transform="translate(311.132812 0.5625)"/>
      <use xlink:href="#TimesNewRomanPSMT-74" transform="translate(393.603191 0.5625)"/>
      <use xlink:href="#TimesNewRomanPSMT-72" transform="translate(421.386394 0.5625)"/>
      <use xlink:href="#TimesNewRomanPSMT-69" transform="translate(454.687175 0.5625)"/>
      <use xlink:href="#TimesNewRomanPSMT-67" transform="translate(482.470378 0.5625)"/>
      <use xlink:href="#TimesNewRomanPSMT-67" transform="translate(532.470378 0.5625)"/>
      <use xlink:href="#TimesNewRomanPSMT-65" transform="translate(582.470378 0.5625)"/>
      <use xlink:href="#TimesNewRomanPSMT-72" transform="translate(626.855144 0.5625)"/>
     </g>
    </g>
    <g id="PathCollection_4">
     <g>
      <use xlink:href="#m5a3ed36931" x="147.566563" y="4.1875" style="stroke: #000000; stroke-width: 0.1"/>
     </g>
    </g>
    <g id="text_20">
     <!-- $Standard \ trigger$ -->
     <g transform="translate(152.566563 5.5) scale(0.05 -0.05)">
      <defs>
       <path id="TimesNewRomanPSMT-61" d="M 1822 413 
Q 1381 72 1269 19 
Q 1100 -59 909 -59 
Q 613 -59 420 144 
Q 228 347 228 678 
Q 228 888 322 1041 
Q 450 1253 767 1440 
Q 1084 1628 1822 1897 
L 1822 2009 
Q 1822 2438 1686 2597 
Q 1550 2756 1291 2756 
Q 1094 2756 978 2650 
Q 859 2544 859 2406 
L 866 2225 
Q 866 2081 792 2003 
Q 719 1925 600 1925 
Q 484 1925 411 2006 
Q 338 2088 338 2228 
Q 338 2497 613 2722 
Q 888 2947 1384 2947 
Q 1766 2947 2009 2819 
Q 2194 2722 2281 2516 
Q 2338 2381 2338 1966 
L 2338 994 
Q 2338 584 2353 492 
Q 2369 400 2405 369 
Q 2441 338 2488 338 
Q 2538 338 2575 359 
Q 2641 400 2828 588 
L 2828 413 
Q 2478 -56 2159 -56 
Q 2006 -56 1915 50 
Q 1825 156 1822 413 
z
M 1822 616 
L 1822 1706 
Q 1350 1519 1213 1441 
Q 966 1303 859 1153 
Q 753 1003 753 825 
Q 753 600 887 451 
Q 1022 303 1197 303 
Q 1434 303 1822 616 
z
" transform="scale(0.015625)"/>
      </defs>
      <use xlink:href="#TimesNewRomanPSMT-53" transform="translate(0 0.5625)"/>
      <use xlink:href="#TimesNewRomanPSMT-74" transform="translate(55.615234 0.5625)"/>
      <use xlink:href="#TimesNewRomanPSMT-61" transform="translate(83.398438 0.5625)"/>
      <use xlink:href="#TimesNewRomanPSMT-6e" transform="translate(127.783203 0.5625)"/>
      <use xlink:href="#TimesNewRomanPSMT-64" transform="translate(177.783203 0.5625)"/>
      <use xlink:href="#TimesNewRomanPSMT-61" transform="translate(227.783203 0.5625)"/>
      <use xlink:href="#TimesNewRomanPSMT-72" transform="translate(272.167969 0.5625)"/>
      <use xlink:href="#TimesNewRomanPSMT-64" transform="translate(305.46875 0.5625)"/>
      <use xlink:href="#TimesNewRomanPSMT-74" transform="translate(387.939128 0.5625)"/>
      <use xlink:href="#TimesNewRomanPSMT-72" transform="translate(415.722332 0.5625)"/>
      <use xlink:href="#TimesNewRomanPSMT-69" transform="translate(449.023113 0.5625)"/>
      <use xlink:href="#TimesNewRomanPSMT-67" transform="translate(476.806316 0.5625)"/>
      <use xlink:href="#TimesNewRomanPSMT-67" transform="translate(526.806316 0.5625)"/>
      <use xlink:href="#TimesNewRomanPSMT-65" transform="translate(576.806316 0.5625)"/>
      <use xlink:href="#TimesNewRomanPSMT-72" transform="translate(621.191082 0.5625)"/>
     </g>
    </g>
   </g>
  </g>
 </g>
 <defs>
  <clipPath id="p79def4c643">
   <rect x="20.716563" y="3.755808" width="233.91" height="62.55808"/>
  </clipPath>
 </defs>
</svg>
