<?xml version="1.0" encoding="utf-8" standalone="no"?>
<!DOCTYPE svg PUBLIC "-//W3C//DTD SVG 1.1//EN"
  "http://www.w3.org/Graphics/SVG/1.1/DTD/svg11.dtd">
<svg xmlns:xlink="http://www.w3.org/1999/xlink" width="255.1175pt" height="84.998638pt" viewBox="0 0 255.1175 84.998638" xmlns="http://www.w3.org/2000/svg" version="1.1">
 <metadata>
  <rdf:RDF xmlns:dc="http://purl.org/dc/elements/1.1/" xmlns:cc="http://creativecommons.org/ns#" xmlns:rdf="http://www.w3.org/1999/02/22-rdf-syntax-ns#">
   <cc:Work>
    <dc:type rdf:resource="http://purl.org/dc/dcmitype/StillImage"/>
    <dc:date>2024-11-01T11:51:40.100271</dc:date>
    <dc:format>image/svg+xml</dc:format>
    <dc:creator>
     <cc:Agent>
      <dc:title>Matplotlib v3.8.4, https://matplotlib.org/</dc:title>
     </cc:Agent>
    </dc:creator>
   </cc:Work>
  </rdf:RDF>
 </metadata>
 <defs>
  <style type="text/css">*{stroke-linejoin: round; stroke-linecap: butt}</style>
 </defs>
 <g id="figure_1">
  <g id="patch_1">
   <path d="M 0 84.998638 
L 255.1175 84.998638 
L 255.1175 0 
L 0 0 
L 0 84.998638 
z
" style="fill: none"/>
  </g>
  <g id="axes_1">
   <g id="patch_2">
    <path d="M 21.415625 66.709888 
L 255.1175 66.709888 
L 255.1175 3.791808 
L 21.415625 3.791808 
L 21.415625 66.709888 
z
" style="fill: none"/>
   </g>
   <g id="PathCollection_1">
    <defs>
     <path id="mec26473b19" d="M 0.927647 1.936492 
L -0.927647 1.936492 
L -0.927647 1.699204 
L -0.158686 1.699204 
L -0.158686 -1.048887 
Q -0.158686 -1.086704 -0.194279 -1.128971 
Q -0.229873 -1.17198 -0.263241 -1.17198 
Q -0.315148 -1.17198 -0.381885 -1.105984 
Q -0.614724 -0.863505 -0.837181 -0.716684 
L -0.927647 -0.811599 
Q -0.249152 -1.400369 -0.025953 -1.936492 
L 0.021504 -1.936492 
Q 0.254343 -1.39073 0.927647 -0.80715 
L 0.837923 -0.712234 
Q 0.648093 -0.844967 0.381885 -1.100793 
Q 0.31589 -1.167531 0.249152 -1.167531 
Q 0.154237 -1.167531 0.154237 -1.044437 
L 0.154237 1.699204 
L 0.927647 1.699204 
L 0.927647 1.936492 
z
" style="stroke: #000000; stroke-width: 0.1"/>
    </defs>
    <g clip-path="url(#p7d20e94bf5)">
     <use xlink:href="#mec26473b19" x="97.076291" y="59.968665" style="stroke: #000000; stroke-width: 0.1"/>
     <use xlink:href="#mec26473b19" x="134.463527" y="59.968665" style="stroke: #000000; stroke-width: 0.1"/>
     <use xlink:href="#mec26473b19" x="171.835571" y="59.968665" style="stroke: #000000; stroke-width: 0.1"/>
     <use xlink:href="#mec26473b19" x="209.207615" y="59.968665" style="stroke: #000000; stroke-width: 0.1"/>
    </g>
   </g>
   <g id="PathCollection_2">
    <defs>
     <path id="m39b8b54df9" d="M 0.927647 0.175371 
L 0.837923 0.270286 
Q 0.648093 0.137553 0.381885 -0.119015 
Q 0.31589 -0.18501 0.249152 -0.18501 
Q 0.154237 -0.18501 0.154237 -0.061917 
L 0.154237 1.936492 
L -0.158686 1.936492 
L -0.158686 -0.066366 
Q -0.158686 -0.104184 -0.194279 -0.147193 
Q -0.229873 -0.190201 -0.263241 -0.190201 
Q -0.315148 -0.190201 -0.381885 -0.123464 
Q -0.614724 0.118273 -0.837181 0.265837 
L -0.927647 0.170921 
Q -0.401165 -0.285116 -0.158686 -0.688506 
L -0.158686 -1.048887 
Q -0.158686 -1.086704 -0.194279 -1.128971 
Q -0.229873 -1.17198 -0.263241 -1.17198 
Q -0.315148 -1.17198 -0.381885 -1.105984 
Q -0.614724 -0.863505 -0.837181 -0.716684 
L -0.927647 -0.811599 
Q -0.249152 -1.400369 -0.025953 -1.936492 
L 0.021504 -1.936492 
Q 0.254343 -1.39073 0.927647 -0.80715 
L 0.837923 -0.712234 
Q 0.648093 -0.844967 0.381885 -1.100793 
Q 0.31589 -1.167531 0.249152 -1.167531 
Q 0.154237 -1.167531 0.154237 -1.044437 
L 0.154237 -0.692955 
Q 0.405614 -0.279926 0.927647 0.175371 
z
" style="stroke: #000000; stroke-width: 0.1"/>
    </defs>
    <g clip-path="url(#p7d20e94bf5)">
     <use xlink:href="#m39b8b54df9" x="97.076291" y="53.227442" style="stroke: #000000; stroke-width: 0.1"/>
    </g>
   </g>
   <g id="matplotlib.axis_1">
    <g id="xtick_1">
     <g id="line2d_1">
      <defs>
       <path id="m4d4c63b7c0" d="M 0 0 
L 0 1.5 
" style="stroke: #000000; stroke-width: 0.5"/>
      </defs>
      <g>
       <use xlink:href="#m4d4c63b7c0" x="21.415625" y="66.709888" style="stroke: #000000; stroke-width: 0.5"/>
      </g>
     </g>
     <g id="text_1">
      <!-- 0 -->
      <g transform="translate(20.303438 74.573013) scale(0.04 -0.04)">
       <defs>
        <path id="ArialMT-30" d="M 266 2259 
Q 266 3072 433 3567 
Q 600 4063 929 4331 
Q 1259 4600 1759 4600 
Q 2128 4600 2406 4451 
Q 2684 4303 2865 4023 
Q 3047 3744 3150 3342 
Q 3253 2941 3253 2259 
Q 3253 1453 3087 958 
Q 2922 463 2592 192 
Q 2263 -78 1759 -78 
Q 1097 -78 719 397 
Q 266 969 266 2259 
z
M 844 2259 
Q 844 1131 1108 757 
Q 1372 384 1759 384 
Q 2147 384 2411 759 
Q 2675 1134 2675 2259 
Q 2675 3391 2411 3762 
Q 2147 4134 1753 4134 
Q 1366 4134 1134 3806 
Q 844 3388 844 2259 
z
" transform="scale(0.015625)"/>
       </defs>
       <use xlink:href="#ArialMT-30"/>
      </g>
     </g>
    </g>
    <g id="xtick_2">
     <g id="line2d_2">
      <g>
       <use xlink:href="#m4d4c63b7c0" x="72.055251" y="66.709888" style="stroke: #000000; stroke-width: 0.5"/>
      </g>
     </g>
     <g id="text_2">
      <!-- 10 -->
      <g transform="translate(69.830876 74.573013) scale(0.04 -0.04)">
       <defs>
        <path id="ArialMT-31" d="M 2384 0 
L 1822 0 
L 1822 3584 
Q 1619 3391 1289 3197 
Q 959 3003 697 2906 
L 697 3450 
Q 1169 3672 1522 3987 
Q 1875 4303 2022 4600 
L 2384 4600 
L 2384 0 
z
" transform="scale(0.015625)"/>
       </defs>
       <use xlink:href="#ArialMT-31"/>
       <use xlink:href="#ArialMT-30" x="55.615234"/>
      </g>
     </g>
    </g>
    <g id="xtick_3">
     <g id="line2d_3">
      <g>
       <use xlink:href="#m4d4c63b7c0" x="122.694877" y="66.709888" style="stroke: #000000; stroke-width: 0.5"/>
      </g>
     </g>
     <g id="text_3">
      <!-- 20 -->
      <g transform="translate(120.470502 74.573013) scale(0.04 -0.04)">
       <defs>
        <path id="ArialMT-32" d="M 3222 541 
L 3222 0 
L 194 0 
Q 188 203 259 391 
Q 375 700 629 1000 
Q 884 1300 1366 1694 
Q 2113 2306 2375 2664 
Q 2638 3022 2638 3341 
Q 2638 3675 2398 3904 
Q 2159 4134 1775 4134 
Q 1369 4134 1125 3890 
Q 881 3647 878 3216 
L 300 3275 
Q 359 3922 746 4261 
Q 1134 4600 1788 4600 
Q 2447 4600 2831 4234 
Q 3216 3869 3216 3328 
Q 3216 3053 3103 2787 
Q 2991 2522 2730 2228 
Q 2469 1934 1863 1422 
Q 1356 997 1212 845 
Q 1069 694 975 541 
L 3222 541 
z
" transform="scale(0.015625)"/>
       </defs>
       <use xlink:href="#ArialMT-32"/>
       <use xlink:href="#ArialMT-30" x="55.615234"/>
      </g>
     </g>
    </g>
    <g id="xtick_4">
     <g id="line2d_4">
      <g>
       <use xlink:href="#m4d4c63b7c0" x="173.334504" y="66.709888" style="stroke: #000000; stroke-width: 0.5"/>
      </g>
     </g>
     <g id="text_4">
      <!-- 30 -->
      <g transform="translate(171.110129 74.573013) scale(0.04 -0.04)">
       <defs>
        <path id="ArialMT-33" d="M 269 1209 
L 831 1284 
Q 928 806 1161 595 
Q 1394 384 1728 384 
Q 2125 384 2398 659 
Q 2672 934 2672 1341 
Q 2672 1728 2419 1979 
Q 2166 2231 1775 2231 
Q 1616 2231 1378 2169 
L 1441 2663 
Q 1497 2656 1531 2656 
Q 1891 2656 2178 2843 
Q 2466 3031 2466 3422 
Q 2466 3731 2256 3934 
Q 2047 4138 1716 4138 
Q 1388 4138 1169 3931 
Q 950 3725 888 3313 
L 325 3413 
Q 428 3978 793 4289 
Q 1159 4600 1703 4600 
Q 2078 4600 2393 4439 
Q 2709 4278 2876 4000 
Q 3044 3722 3044 3409 
Q 3044 3113 2884 2869 
Q 2725 2625 2413 2481 
Q 2819 2388 3044 2092 
Q 3269 1797 3269 1353 
Q 3269 753 2831 336 
Q 2394 -81 1725 -81 
Q 1122 -81 723 278 
Q 325 638 269 1209 
z
" transform="scale(0.015625)"/>
       </defs>
       <use xlink:href="#ArialMT-33"/>
       <use xlink:href="#ArialMT-30" x="55.615234"/>
      </g>
     </g>
    </g>
    <g id="xtick_5">
     <g id="line2d_5">
      <g>
       <use xlink:href="#m4d4c63b7c0" x="223.97413" y="66.709888" style="stroke: #000000; stroke-width: 0.5"/>
      </g>
     </g>
     <g id="text_5">
      <!-- 40 -->
      <g transform="translate(221.749755 74.573013) scale(0.04 -0.04)">
       <defs>
        <path id="ArialMT-34" d="M 2069 0 
L 2069 1097 
L 81 1097 
L 81 1613 
L 2172 4581 
L 2631 4581 
L 2631 1613 
L 3250 1613 
L 3250 1097 
L 2631 1097 
L 2631 0 
L 2069 0 
z
M 2069 1613 
L 2069 3678 
L 634 1613 
L 2069 1613 
z
" transform="scale(0.015625)"/>
       </defs>
       <use xlink:href="#ArialMT-34"/>
       <use xlink:href="#ArialMT-30" x="55.615234"/>
      </g>
     </g>
    </g>
    <g id="text_6">
     <!-- Time (ms) -->
     <g transform="translate(124.882812 83.735826) scale(0.06 -0.06)">
      <defs>
       <path id="ArialMT-54" d="M 1659 0 
L 1659 4041 
L 150 4041 
L 150 4581 
L 3781 4581 
L 3781 4041 
L 2266 4041 
L 2266 0 
L 1659 0 
z
" transform="scale(0.015625)"/>
       <path id="ArialMT-69" d="M 425 3934 
L 425 4581 
L 988 4581 
L 988 3934 
L 425 3934 
z
M 425 0 
L 425 3319 
L 988 3319 
L 988 0 
L 425 0 
z
" transform="scale(0.015625)"/>
       <path id="ArialMT-6d" d="M 422 0 
L 422 3319 
L 925 3319 
L 925 2853 
Q 1081 3097 1340 3245 
Q 1600 3394 1931 3394 
Q 2300 3394 2536 3241 
Q 2772 3088 2869 2813 
Q 3263 3394 3894 3394 
Q 4388 3394 4653 3120 
Q 4919 2847 4919 2278 
L 4919 0 
L 4359 0 
L 4359 2091 
Q 4359 2428 4304 2576 
Q 4250 2725 4106 2815 
Q 3963 2906 3769 2906 
Q 3419 2906 3187 2673 
Q 2956 2441 2956 1928 
L 2956 0 
L 2394 0 
L 2394 2156 
Q 2394 2531 2256 2718 
Q 2119 2906 1806 2906 
Q 1569 2906 1367 2781 
Q 1166 2656 1075 2415 
Q 984 2175 984 1722 
L 984 0 
L 422 0 
z
" transform="scale(0.015625)"/>
       <path id="ArialMT-65" d="M 2694 1069 
L 3275 997 
Q 3138 488 2766 206 
Q 2394 -75 1816 -75 
Q 1088 -75 661 373 
Q 234 822 234 1631 
Q 234 2469 665 2931 
Q 1097 3394 1784 3394 
Q 2450 3394 2872 2941 
Q 3294 2488 3294 1666 
Q 3294 1616 3291 1516 
L 816 1516 
Q 847 969 1125 678 
Q 1403 388 1819 388 
Q 2128 388 2347 550 
Q 2566 713 2694 1069 
z
M 847 1978 
L 2700 1978 
Q 2663 2397 2488 2606 
Q 2219 2931 1791 2931 
Q 1403 2931 1139 2672 
Q 875 2413 847 1978 
z
" transform="scale(0.015625)"/>
       <path id="ArialMT-20" transform="scale(0.015625)"/>
       <path id="ArialMT-28" d="M 1497 -1347 
Q 1031 -759 709 28 
Q 388 816 388 1659 
Q 388 2403 628 3084 
Q 909 3875 1497 4659 
L 1900 4659 
Q 1522 4009 1400 3731 
Q 1209 3300 1100 2831 
Q 966 2247 966 1656 
Q 966 153 1900 -1347 
L 1497 -1347 
z
" transform="scale(0.015625)"/>
       <path id="ArialMT-73" d="M 197 991 
L 753 1078 
Q 800 744 1014 566 
Q 1228 388 1613 388 
Q 2000 388 2187 545 
Q 2375 703 2375 916 
Q 2375 1106 2209 1216 
Q 2094 1291 1634 1406 
Q 1016 1563 777 1677 
Q 538 1791 414 1992 
Q 291 2194 291 2438 
Q 291 2659 392 2848 
Q 494 3038 669 3163 
Q 800 3259 1026 3326 
Q 1253 3394 1513 3394 
Q 1903 3394 2198 3281 
Q 2494 3169 2634 2976 
Q 2775 2784 2828 2463 
L 2278 2388 
Q 2241 2644 2061 2787 
Q 1881 2931 1553 2931 
Q 1166 2931 1000 2803 
Q 834 2675 834 2503 
Q 834 2394 903 2306 
Q 972 2216 1119 2156 
Q 1203 2125 1616 2013 
Q 2213 1853 2448 1751 
Q 2684 1650 2818 1456 
Q 2953 1263 2953 975 
Q 2953 694 2789 445 
Q 2625 197 2315 61 
Q 2006 -75 1616 -75 
Q 969 -75 630 194 
Q 291 463 197 991 
z
" transform="scale(0.015625)"/>
       <path id="ArialMT-29" d="M 791 -1347 
L 388 -1347 
Q 1322 153 1322 1656 
Q 1322 2244 1188 2822 
Q 1081 3291 891 3722 
Q 769 4003 388 4659 
L 791 4659 
Q 1378 3875 1659 3084 
Q 1900 2403 1900 1659 
Q 1900 816 1576 28 
Q 1253 -759 791 -1347 
z
" transform="scale(0.015625)"/>
      </defs>
      <use xlink:href="#ArialMT-54"/>
      <use xlink:href="#ArialMT-69" x="57.333984"/>
      <use xlink:href="#ArialMT-6d" x="79.550781"/>
      <use xlink:href="#ArialMT-65" x="162.851562"/>
      <use xlink:href="#ArialMT-20" x="218.466797"/>
      <use xlink:href="#ArialMT-28" x="246.25"/>
      <use xlink:href="#ArialMT-6d" x="279.550781"/>
      <use xlink:href="#ArialMT-73" x="362.851562"/>
      <use xlink:href="#ArialMT-29" x="412.851562"/>
     </g>
    </g>
   </g>
   <g id="matplotlib.axis_2">
    <g id="ytick_1">
     <g id="line2d_6">
      <defs>
       <path id="me6f435b986" d="M 0 0 
L -1.5 0 
" style="stroke: #000000; stroke-width: 0.5"/>
      </defs>
      <g>
       <use xlink:href="#me6f435b986" x="21.415625" y="62.215739" style="stroke: #000000; stroke-width: 0.5"/>
      </g>
     </g>
     <g id="text_7">
      <!-- −60 -->
      <g transform="translate(9.630625 63.647302) scale(0.04 -0.04)">
       <defs>
        <path id="ArialMT-2212" d="M 3381 1997 
L 356 1997 
L 356 2522 
L 3381 2522 
L 3381 1997 
z
" transform="scale(0.015625)"/>
        <path id="ArialMT-36" d="M 3184 3459 
L 2625 3416 
Q 2550 3747 2413 3897 
Q 2184 4138 1850 4138 
Q 1581 4138 1378 3988 
Q 1113 3794 959 3422 
Q 806 3050 800 2363 
Q 1003 2672 1297 2822 
Q 1591 2972 1913 2972 
Q 2475 2972 2870 2558 
Q 3266 2144 3266 1488 
Q 3266 1056 3080 686 
Q 2894 316 2569 119 
Q 2244 -78 1831 -78 
Q 1128 -78 684 439 
Q 241 956 241 2144 
Q 241 3472 731 4075 
Q 1159 4600 1884 4600 
Q 2425 4600 2770 4297 
Q 3116 3994 3184 3459 
z
M 888 1484 
Q 888 1194 1011 928 
Q 1134 663 1356 523 
Q 1578 384 1822 384 
Q 2178 384 2434 671 
Q 2691 959 2691 1453 
Q 2691 1928 2437 2201 
Q 2184 2475 1800 2475 
Q 1419 2475 1153 2201 
Q 888 1928 888 1484 
z
" transform="scale(0.015625)"/>
       </defs>
       <use xlink:href="#ArialMT-2212"/>
       <use xlink:href="#ArialMT-36" x="58.398438"/>
       <use xlink:href="#ArialMT-30" x="114.013672"/>
      </g>
     </g>
    </g>
    <g id="ytick_2">
     <g id="line2d_7">
      <g>
       <use xlink:href="#me6f435b986" x="21.415625" y="53.227442" style="stroke: #000000; stroke-width: 0.5"/>
      </g>
     </g>
     <g id="text_8">
      <!-- −40 -->
      <g transform="translate(9.630625 54.659005) scale(0.04 -0.04)">
       <use xlink:href="#ArialMT-2212"/>
       <use xlink:href="#ArialMT-34" x="58.398438"/>
       <use xlink:href="#ArialMT-30" x="114.013672"/>
      </g>
     </g>
    </g>
    <g id="ytick_3">
     <g id="line2d_8">
      <g>
       <use xlink:href="#me6f435b986" x="21.415625" y="44.239145" style="stroke: #000000; stroke-width: 0.5"/>
      </g>
     </g>
     <g id="text_9">
      <!-- −20 -->
      <g transform="translate(9.630625 45.670708) scale(0.04 -0.04)">
       <use xlink:href="#ArialMT-2212"/>
       <use xlink:href="#ArialMT-32" x="58.398438"/>
       <use xlink:href="#ArialMT-30" x="114.013672"/>
      </g>
     </g>
    </g>
    <g id="ytick_4">
     <g id="line2d_9">
      <g>
       <use xlink:href="#me6f435b986" x="21.415625" y="35.250848" style="stroke: #000000; stroke-width: 0.5"/>
      </g>
     </g>
     <g id="text_10">
      <!-- 0 -->
      <g transform="translate(14.19125 36.682411) scale(0.04 -0.04)">
       <use xlink:href="#ArialMT-30"/>
      </g>
     </g>
    </g>
    <g id="ytick_5">
     <g id="line2d_10">
      <g>
       <use xlink:href="#me6f435b986" x="21.415625" y="26.262551" style="stroke: #000000; stroke-width: 0.5"/>
      </g>
     </g>
     <g id="text_11">
      <!-- 20 -->
      <g transform="translate(11.966875 27.694113) scale(0.04 -0.04)">
       <use xlink:href="#ArialMT-32"/>
       <use xlink:href="#ArialMT-30" x="55.615234"/>
      </g>
     </g>
    </g>
    <g id="ytick_6">
     <g id="line2d_11">
      <g>
       <use xlink:href="#me6f435b986" x="21.415625" y="17.274254" style="stroke: #000000; stroke-width: 0.5"/>
      </g>
     </g>
     <g id="text_12">
      <!-- 40 -->
      <g transform="translate(11.966875 18.705816) scale(0.04 -0.04)">
       <use xlink:href="#ArialMT-34"/>
       <use xlink:href="#ArialMT-30" x="55.615234"/>
      </g>
     </g>
    </g>
    <g id="ytick_7">
     <g id="line2d_12">
      <g>
       <use xlink:href="#me6f435b986" x="21.415625" y="8.285957" style="stroke: #000000; stroke-width: 0.5"/>
      </g>
     </g>
     <g id="text_13">
      <!-- 60 -->
      <g transform="translate(11.966875 9.717519) scale(0.04 -0.04)">
       <use xlink:href="#ArialMT-36"/>
       <use xlink:href="#ArialMT-30" x="55.615234"/>
      </g>
     </g>
    </g>
    <g id="text_14">
     <!-- Amplitude (mT/m, μT) -->
     <g transform="translate(4.367813 64.313348) rotate(-90) scale(0.06 -0.06)">
      <defs>
       <path id="ArialMT-41" d="M -9 0 
L 1750 4581 
L 2403 4581 
L 4278 0 
L 3588 0 
L 3053 1388 
L 1138 1388 
L 634 0 
L -9 0 
z
M 1313 1881 
L 2866 1881 
L 2388 3150 
Q 2169 3728 2063 4100 
Q 1975 3659 1816 3225 
L 1313 1881 
z
" transform="scale(0.015625)"/>
       <path id="ArialMT-70" d="M 422 -1272 
L 422 3319 
L 934 3319 
L 934 2888 
Q 1116 3141 1344 3267 
Q 1572 3394 1897 3394 
Q 2322 3394 2647 3175 
Q 2972 2956 3137 2557 
Q 3303 2159 3303 1684 
Q 3303 1175 3120 767 
Q 2938 359 2589 142 
Q 2241 -75 1856 -75 
Q 1575 -75 1351 44 
Q 1128 163 984 344 
L 984 -1272 
L 422 -1272 
z
M 931 1641 
Q 931 1000 1190 694 
Q 1450 388 1819 388 
Q 2194 388 2461 705 
Q 2728 1022 2728 1688 
Q 2728 2322 2467 2637 
Q 2206 2953 1844 2953 
Q 1484 2953 1207 2617 
Q 931 2281 931 1641 
z
" transform="scale(0.015625)"/>
       <path id="ArialMT-6c" d="M 409 0 
L 409 4581 
L 972 4581 
L 972 0 
L 409 0 
z
" transform="scale(0.015625)"/>
       <path id="ArialMT-74" d="M 1650 503 
L 1731 6 
Q 1494 -44 1306 -44 
Q 1000 -44 831 53 
Q 663 150 594 308 
Q 525 466 525 972 
L 525 2881 
L 113 2881 
L 113 3319 
L 525 3319 
L 525 4141 
L 1084 4478 
L 1084 3319 
L 1650 3319 
L 1650 2881 
L 1084 2881 
L 1084 941 
Q 1084 700 1114 631 
Q 1144 563 1211 522 
Q 1278 481 1403 481 
Q 1497 481 1650 503 
z
" transform="scale(0.015625)"/>
       <path id="ArialMT-75" d="M 2597 0 
L 2597 488 
Q 2209 -75 1544 -75 
Q 1250 -75 995 37 
Q 741 150 617 320 
Q 494 491 444 738 
Q 409 903 409 1263 
L 409 3319 
L 972 3319 
L 972 1478 
Q 972 1038 1006 884 
Q 1059 663 1231 536 
Q 1403 409 1656 409 
Q 1909 409 2131 539 
Q 2353 669 2445 892 
Q 2538 1116 2538 1541 
L 2538 3319 
L 3100 3319 
L 3100 0 
L 2597 0 
z
" transform="scale(0.015625)"/>
       <path id="ArialMT-64" d="M 2575 0 
L 2575 419 
Q 2259 -75 1647 -75 
Q 1250 -75 917 144 
Q 584 363 401 755 
Q 219 1147 219 1656 
Q 219 2153 384 2558 
Q 550 2963 881 3178 
Q 1213 3394 1622 3394 
Q 1922 3394 2156 3267 
Q 2391 3141 2538 2938 
L 2538 4581 
L 3097 4581 
L 3097 0 
L 2575 0 
z
M 797 1656 
Q 797 1019 1065 703 
Q 1334 388 1700 388 
Q 2069 388 2326 689 
Q 2584 991 2584 1609 
Q 2584 2291 2321 2609 
Q 2059 2928 1675 2928 
Q 1300 2928 1048 2622 
Q 797 2316 797 1656 
z
" transform="scale(0.015625)"/>
       <path id="ArialMT-2f" d="M 0 -78 
L 1328 4659 
L 1778 4659 
L 453 -78 
L 0 -78 
z
" transform="scale(0.015625)"/>
       <path id="ArialMT-2c" d="M 569 0 
L 569 641 
L 1209 641 
L 1209 0 
Q 1209 -353 1084 -570 
Q 959 -788 688 -906 
L 531 -666 
Q 709 -588 793 -436 
Q 878 -284 888 0 
L 569 0 
z
" transform="scale(0.015625)"/>
       <path id="ArialMT-3bc" d="M 3181 3319 
L 3181 0 
L 2678 0 
L 2678 394 
Q 2516 144 2356 50 
Q 2138 -78 1847 -78 
Q 1588 -78 1388 25 
Q 1238 103 1056 334 
L 1056 -1272 
L 500 -1272 
L 500 3319 
L 1056 3319 
L 1056 1913 
Q 1056 1147 1137 920 
Q 1219 694 1401 562 
Q 1584 431 1822 431 
Q 2072 431 2269 568 
Q 2466 706 2547 923 
Q 2628 1141 2628 1903 
L 2628 3319 
L 3181 3319 
z
" transform="scale(0.015625)"/>
      </defs>
      <use xlink:href="#ArialMT-41"/>
      <use xlink:href="#ArialMT-6d" x="66.699219"/>
      <use xlink:href="#ArialMT-70" x="150"/>
      <use xlink:href="#ArialMT-6c" x="205.615234"/>
      <use xlink:href="#ArialMT-69" x="227.832031"/>
      <use xlink:href="#ArialMT-74" x="250.048828"/>
      <use xlink:href="#ArialMT-75" x="277.832031"/>
      <use xlink:href="#ArialMT-64" x="333.447266"/>
      <use xlink:href="#ArialMT-65" x="389.0625"/>
      <use xlink:href="#ArialMT-20" x="444.677734"/>
      <use xlink:href="#ArialMT-28" x="472.460938"/>
      <use xlink:href="#ArialMT-6d" x="505.761719"/>
      <use xlink:href="#ArialMT-54" x="589.0625"/>
      <use xlink:href="#ArialMT-2f" x="650.146484"/>
      <use xlink:href="#ArialMT-6d" x="677.929688"/>
      <use xlink:href="#ArialMT-2c" x="761.230469"/>
      <use xlink:href="#ArialMT-20" x="789.013672"/>
      <use xlink:href="#ArialMT-3bc" x="816.796875"/>
      <use xlink:href="#ArialMT-54" x="874.414062"/>
      <use xlink:href="#ArialMT-29" x="935.498047"/>
     </g>
    </g>
   </g>
   <g id="line2d_13">
    <path d="M 21.415625 35.250848 
L 255.1175 35.250848 
" clip-path="url(#p7d20e94bf5)" style="fill: none; stroke: #555555; stroke-width: 0.5; stroke-linecap: square"/>
   </g>
   <g id="line2d_14">
    <path d="M 97.071227 35.250848 
L 97.147186 34.428779 
L 97.451024 37.317465 
L 97.552303 37.047734 
L 97.805501 34.137798 
L 98.058699 32.003326 
L 98.109339 31.947973 
L 98.159979 32.030171 
L 98.311897 33.018491 
L 99.020852 39.466902 
L 99.122131 39.143207 
L 99.32469 37.417616 
L 100.033645 30.296911 
L 100.134924 30.301544 
L 100.286843 30.967941 
L 100.540041 33.484473 
L 101.198356 40.595362 
L 101.350275 40.91153 
L 101.451554 40.723802 
L 101.654113 39.459193 
L 102.05923 34.634027 
L 102.514986 29.750936 
L 102.717545 29.006659 
L 102.818824 29.063838 
L 102.970743 29.678813 
L 103.223941 31.911873 
L 104.186094 41.912984 
L 104.287373 42.052213 
L 104.338013 42.021802 
L 104.489932 41.537843 
L 104.74313 39.559532 
L 105.401445 31.371997 
L 105.755922 28.420561 
L 105.958481 27.945791 
L 106.05976 28.078933 
L 106.262319 29.059408 
L 106.566156 32.006324 
L 107.528309 42.545779 
L 107.730868 43.027278 
L 107.832147 42.919883 
L 107.984066 42.332197 
L 108.237264 40.336752 
L 108.7943 33.412053 
L 109.300696 28.126795 
L 109.553894 27.081182 
L 109.655174 27.040912 
L 109.807093 27.391646 
L 110.060291 28.998593 
L 110.465408 33.532706 
L 111.275642 42.74788 
L 111.52884 43.820455 
L 111.630119 43.890781 
L 111.680759 43.847193 
L 111.832678 43.406267 
L 112.085876 41.711896 
L 112.490993 37.158195 
L 113.301227 27.730056 
L 113.605065 26.295917 
L 113.756983 26.23662 
L 113.908902 26.625452 
L 114.1621 28.20401 
L 114.567217 32.587756 
L 115.52937 43.537968 
L 115.782568 44.589065 
L 115.934487 44.654371 
L 116.086406 44.289365 
L 116.339604 42.781456 
L 116.744721 38.526073 
L 117.808154 26.496029 
L 118.061352 25.523524 
L 118.213271 25.486031 
L 118.365189 25.862386 
L 118.618388 27.35599 
L 119.023505 31.544225 
L 120.137576 44.242902 
L 120.441414 45.370581 
L 120.593333 45.341098 
L 120.745252 44.913465 
L 120.99845 43.370618 
L 121.403567 39.175771 
L 122.568278 25.921335 
L 122.872116 24.79386 
L 123.024035 24.80387 
L 123.175954 25.199674 
L 123.429152 26.668966 
L 123.834269 30.737521 
L 125.10026 45.030832 
L 125.404097 46.057589 
L 125.556016 46.013005 
L 125.707935 45.595031 
L 125.961133 44.115251 
L 126.36625 40.076053 
L 127.73352 24.917053 
L 127.986718 24.132885 
L 128.138637 24.145324 
L 128.290556 24.521194 
L 128.543754 25.915218 
L 128.948871 29.814764 
L 130.41742 45.984488 
L 130.670619 46.69738 
L 130.822537 46.654359 
L 131.025096 46.049719 
L 131.328934 44.052226 
L 131.78469 39.148754 
L 133.000041 25.11158 
L 133.303879 23.685016 
L 133.506438 23.481559 
L 133.658357 23.732475 
L 133.911555 24.89367 
L 134.266032 27.894797 
L 134.924347 36.05659 
L 135.683942 44.749793 
L 136.038419 46.875393 
L 136.291617 47.327134 
L 136.443536 47.148773 
L 136.646094 46.396208 
L 136.949932 44.252387 
L 137.456328 38.633573 
L 138.62104 24.997917 
L 138.975517 23.159125 
L 139.178076 22.883599 
L 139.329995 23.061506 
L 139.532553 23.801715 
L 139.836391 25.907382 
L 140.342787 31.451299 
L 141.558138 45.718192 
L 141.912616 47.58896 
L 142.115174 47.902116 
L 142.267093 47.761102 
L 142.469651 47.079396 
L 142.773489 45.072293 
L 143.229246 40.294161 
L 144.647155 23.975438 
L 145.001633 22.458911 
L 145.153552 22.321464 
L 145.305471 22.499574 
L 145.508029 23.218758 
L 145.811867 25.256526 
L 146.267623 30.037394 
L 147.736173 46.863502 
L 148.09065 48.327352 
L 148.242569 48.451695 
L 148.394488 48.266989 
L 148.597046 47.548987 
L 148.900884 45.531078 
L 149.356641 40.798929 
L 150.875829 23.390697 
L 151.230307 21.919705 
L 151.432865 21.803552 
L 151.584784 22.069335 
L 151.837982 23.164374 
L 152.19246 25.934474 
L 152.749496 32.38951 
L 153.914207 46.174763 
L 154.319324 48.52791 
L 154.572522 48.980542 
L 154.724441 48.856649 
L 154.927 48.235043 
L 155.230837 46.381557 
L 155.686594 41.881972 
L 157.458981 22.251737 
L 157.762819 21.318651 
L 157.914737 21.285075 
L 158.066656 21.542779 
L 158.319854 22.601668 
L 158.674332 25.287116 
L 159.231368 31.60901 
L 160.497358 46.626705 
L 160.902475 48.988255 
L 161.155674 49.484139 
L 161.307592 49.400537 
L 161.510151 48.847362 
L 161.813989 47.118863 
L 162.269745 42.812362 
L 163.181259 31.150977 
L 163.890213 23.559642 
L 164.29533 21.247723 
L 164.548529 20.768716 
L 164.700447 20.856041 
L 164.903006 21.40665 
L 165.206844 23.1171 
L 165.6626 27.378154 
L 166.523474 38.357202 
L 167.283068 46.786167 
L 167.688185 49.302428 
L 167.941383 49.939124 
L 168.093302 49.953966 
L 168.245221 49.692261 
L 168.498419 48.65773 
L 168.852897 46.057069 
L 169.409933 39.89608 
L 170.827842 23.111201 
L 171.232959 20.801605 
L 171.486157 20.29213 
L 171.638076 20.348893 
L 171.840635 20.845753 
L 172.144472 22.454377 
L 172.549589 26.00969 
L 173.258544 34.719315 
L 174.220697 46.243098 
L 174.676454 49.463123 
L 174.980292 50.384807 
L 175.13221 50.447434 
L 175.284129 50.241752 
L 175.537327 49.31517 
L 175.891805 46.880741 
L 176.398201 41.561611 
L 178.119948 21.756227 
L 178.474426 20.124621 
L 178.676984 19.818 
L 178.828903 19.896242 
L 179.031462 20.408646 
L 179.335299 22.014098 
L 179.740416 25.528592 
L 180.398732 33.492188 
L 181.512803 46.8615 
L 181.96856 49.97559 
L 182.272398 50.854039 
L 182.424317 50.906263 
L 182.576235 50.698081 
L 182.829434 49.784194 
L 183.183911 47.396533 
L 183.690307 42.168129 
L 185.513334 21.259476 
L 185.867811 19.665985 
L 186.07037 19.364215 
L 186.222289 19.43731 
L 186.424847 19.931494 
L 186.728685 21.488575 
L 187.133802 24.915047 
L 187.792117 32.763094 
L 189.007468 47.352132 
L 189.463225 50.418399 
L 189.767062 51.295312 
L 189.918981 51.35756 
L 190.0709 51.166553 
L 190.324098 50.295729 
L 190.678576 47.99075 
L 191.184972 42.889621 
L 193.159917 20.529177 
L 193.514395 19.122916 
L 193.716953 18.916913 
L 193.868872 19.053963 
L 194.071431 19.621223 
L 194.375268 21.259768 
L 194.831025 25.268801 
L 195.53998 33.94234 
L 196.654052 47.322834 
L 197.109808 50.580276 
L 197.413646 51.634644 
L 197.616204 51.797878 
L 197.768123 51.632564 
L 197.970682 51.033394 
L 198.27452 49.360018 
L 198.730276 45.326064 
L 199.439231 36.651864 
L 200.553303 23.207778 
L 201.059699 19.6028 
L 201.363537 18.618768 
L 201.566095 18.497017 
L 201.718014 18.689713 
L 201.971212 19.542368 
L 202.32569 21.785047 
L 202.832086 26.761602 
L 203.844878 39.771336 
L 204.604473 48.178144 
L 205.060229 51.211319 
L 205.364067 52.124909 
L 205.566626 52.20505 
L 205.718545 51.984793 
L 205.971743 51.094065 
L 206.32622 48.815276 
L 206.832616 43.81782 
L 207.845409 30.804607 
L 208.605003 22.334136 
L 209.06076 19.211051 
L 209.364598 18.215663 
L 209.567156 18.072962 
L 209.719075 18.243102 
L 209.972273 19.046525 
L 210.326751 21.202418 
L 210.833147 26.047638 
L 211.74466 37.65863 
L 212.605534 47.705571 
L 213.11193 51.370278 
L 213.466407 52.52902 
L 213.668966 52.624829 
L 213.820885 52.4229 
L 214.074083 51.574002 
L 214.42856 49.371481 
L 214.934957 44.49227 
L 215.84647 32.873645 
L 216.757983 22.319565 
L 217.264379 18.796403 
L 217.568217 17.810577 
L 217.770776 17.662226 
L 217.922695 17.821715 
L 218.175893 18.595987 
L 218.53037 20.691883 
L 219.036766 25.435369 
L 219.89764 36.290271 
L 220.859793 47.748322 
L 221.366189 51.548262 
L 221.720667 52.850697 
L 221.923225 53.04452 
L 222.075144 52.922168 
L 222.277702 52.405246 
L 222.58154 50.899664 
L 222.986657 47.661486 
L 223.594333 40.808241 
L 225.26544 20.907377 
L 225.721197 18.120423 
L 226.025035 17.324699 
L 226.176954 17.264469 
L 226.328872 17.431173 
L 226.582071 18.206083 
L 226.936548 20.281551 
L 227.442944 24.968748 
L 228.253178 35.084889 
L 229.31661 47.907396 
L 229.823007 51.781148 
L 230.177484 53.175116 
L 230.430682 53.438286 
L 230.582601 53.296997 
L 230.78516 52.762866 
L 231.088997 51.248167 
L 231.544754 47.53558 
L 232.203069 39.928397 
L 233.772898 21.084431 
L 234.228654 18.050996 
L 234.583132 16.966536 
L 234.78569 16.883588 
L 234.937609 17.080383 
L 235.190807 17.89379 
L 235.545284 19.998954 
L 236.051681 24.688486 
L 236.861915 34.777914 
L 237.975987 48.226233 
L 238.482383 52.101645 
L 238.83686 53.525975 
L 239.090058 53.827261 
L 239.241977 53.715107 
L 239.444536 53.226271 
L 239.748373 51.790244 
L 240.15349 48.679654 
L 240.761166 42.018009 
L 242.634832 19.874105 
L 243.090589 17.252085 
L 243.394427 16.531906 
L 243.546345 16.49615 
L 243.698264 16.677925 
L 243.951462 17.457193 
L 244.30594 19.499567 
L 244.761696 23.67859 
L 245.67321 33.70233 
L 245.977047 34.909183 
L 246.230246 35.227917 
L 246.508764 35.250848 
M 246.508764 35.250848 
L 246.508764 35.257458 
L 255.1175 35.250848 
L 255.1175 35.250848 
" clip-path="url(#p7d20e94bf5)" style="fill: none; stroke: #636efa; stroke-width: 0.5; stroke-linecap: square"/>
   </g>
   <g id="line2d_15">
    <path d="M 97.071227 35.250848 
L 97.248465 33.868894 
L 97.349745 34.2931 
L 97.754862 37.989915 
L 97.856141 37.640343 
L 98.109339 34.849708 
L 98.463816 31.534144 
L 98.514456 31.457883 
L 98.565096 31.501639 
L 98.717014 32.306464 
L 99.071492 36.541932 
L 99.425969 39.727003 
L 99.527248 39.87793 
L 99.577888 39.806533 
L 99.729807 39.036938 
L 100.033645 35.679205 
L 100.540041 30.293624 
L 100.69196 29.911167 
L 100.793239 30.078543 
L 100.995798 31.355043 
L 101.400915 36.242381 
L 101.856671 40.79027 
L 102.05923 41.202558 
L 102.160509 40.956275 
L 102.363068 39.629693 
L 102.768185 34.803915 
L 103.274581 29.41204 
L 103.477139 28.72475 
L 103.578419 28.793033 
L 103.730337 29.402383 
L 103.983536 31.586464 
L 104.996328 42.154483 
L 105.148247 42.287559 
L 105.300166 41.847947 
L 105.553364 39.967381 
L 106.05976 33.70609 
L 106.566156 28.516268 
L 106.819355 27.707842 
L 106.920634 27.800699 
L 107.072553 28.380174 
L 107.325751 30.391171 
L 107.882787 37.344743 
L 108.389183 42.418532 
L 108.642381 43.246672 
L 108.74366 43.185738 
L 108.895579 42.676517 
L 109.148777 40.816189 
L 109.604534 35.358792 
L 110.262849 28.024469 
L 110.516047 26.900724 
L 110.617327 26.817724 
L 110.667966 26.85692 
L 110.819885 27.292489 
L 111.073083 29.000352 
L 111.52884 34.259877 
L 112.288434 42.848981 
L 112.541632 43.989449 
L 112.693551 44.073665 
L 112.84547 43.699381 
L 113.098668 42.123334 
L 113.503785 37.713198 
L 114.415299 27.25921 
L 114.719136 26.046784 
L 114.820416 26.027233 
L 114.972334 26.363984 
L 115.225533 27.84653 
L 115.63065 32.102742 
L 116.643442 43.684179 
L 116.94728 44.83649 
L 117.048559 44.850242 
L 117.200478 44.519064 
L 117.453676 43.078442 
L 117.858793 38.922305 
L 118.972865 26.312124 
L 119.226063 25.346288 
L 119.377982 25.303029 
L 119.529901 25.666405 
L 119.783099 27.12586 
L 120.188216 31.251899 
L 121.352927 44.474996 
L 121.656765 45.551679 
L 121.758044 45.564912 
L 121.909963 45.256902 
L 122.163161 43.909151 
L 122.517639 40.545979 
L 123.935548 25.129437 
L 124.188746 24.58229 
L 124.290026 24.659718 
L 124.492584 25.316459 
L 124.796422 27.456443 
L 125.252179 32.592735 
L 126.264971 44.401901 
L 126.619448 46.11038 
L 126.771367 46.244359 
L 126.923286 46.007791 
L 127.125845 45.132535 
L 127.429682 42.742034 
L 127.986718 36.090361 
L 128.847592 26.113909 
L 129.202069 24.191961 
L 129.404628 23.938351 
L 129.556547 24.168136 
L 129.759105 25.019606 
L 130.062943 27.352662 
L 130.569339 33.24707 
L 131.531492 44.567413 
L 131.88597 46.557508 
L 132.088528 46.876888 
L 132.240447 46.707555 
L 132.443005 45.947244 
L 132.746843 43.757677 
L 133.25324 38.038158 
L 134.316672 25.535454 
L 134.671149 23.617983 
L 134.873708 23.322747 
L 135.025626 23.499925 
L 135.228185 24.257171 
L 135.532023 26.418605 
L 136.038419 32.073318 
L 137.152491 45.201107 
L 137.506968 47.142629 
L 137.709527 47.472652 
L 137.861445 47.331197 
L 138.064004 46.632065 
L 138.367842 44.570056 
L 138.823598 39.68907 
L 140.140229 24.469687 
L 140.494706 22.889605 
L 140.697265 22.763613 
L 140.849183 23.048828 
L 141.102382 24.222364 
L 141.456859 27.167482 
L 142.064534 34.54009 
L 142.976048 45.222912 
L 143.381165 47.629385 
L 143.634363 48.042031 
L 143.786282 47.865094 
L 143.98884 47.142355 
L 144.292678 45.090295 
L 144.748435 40.280235 
L 146.166344 23.918643 
L 146.520822 22.35049 
L 146.72338 22.198177 
L 146.875299 22.447795 
L 147.128497 23.536548 
L 147.482974 26.333067 
L 148.04001 32.853588 
L 149.103443 45.542483 
L 149.50856 48.050827 
L 149.761758 48.580443 
L 149.913677 48.491535 
L 150.116235 47.902139 
L 150.420073 46.067102 
L 150.875829 41.546967 
L 152.546937 22.813909 
L 152.850775 21.746766 
L 153.002694 21.656305 
L 153.154613 21.865755 
L 153.357171 22.602174 
L 153.661009 24.619339 
L 154.116766 29.311259 
L 155.737234 47.686707 
L 156.041071 48.921612 
L 156.24363 49.10451 
L 156.395549 48.898377 
L 156.598107 48.174558 
L 156.901945 46.190243 
L 157.357702 41.558939 
L 159.028809 22.592108 
L 159.332647 21.343665 
L 159.535206 21.139598 
L 159.687124 21.323746 
L 159.889683 22.011284 
L 160.193521 23.931283 
L 160.649277 28.467279 
L 162.421664 48.364411 
L 162.725502 49.476901 
L 162.92806 49.597388 
L 163.079979 49.356625 
L 163.333177 48.340716 
L 163.687655 45.736005 
L 164.244691 39.532758 
L 165.611961 23.377269 
L 166.017078 21.105014 
L 166.270276 20.644897 
L 166.422195 20.74052 
L 166.624753 21.298377 
L 166.928591 23.011866 
L 167.384348 27.264549 
L 168.245221 38.233597 
L 169.004816 46.732654 
L 169.409933 49.33083 
L 169.71377 50.082346 
L 169.865689 50.048297 
L 170.068248 49.577849 
L 170.372086 47.999538 
L 170.777203 44.467241 
L 171.486157 35.765464 
L 172.44831 24.266457 
L 172.904067 21.092686 
L 173.207905 20.216537 
L 173.359823 20.180404 
L 173.511742 20.414487 
L 173.76494 21.391053 
L 174.119418 23.895432 
L 174.625814 29.2954 
L 176.296922 48.563266 
L 176.651399 50.237171 
L 176.904597 50.572703 
L 177.056516 50.419165 
L 177.259075 49.80553 
L 177.562912 48.053327 
L 178.018669 43.821255 
L 178.828903 33.571341 
L 179.689777 23.610948 
L 180.145533 20.561376 
L 180.449371 19.741114 
L 180.60129 19.721545 
L 180.753209 19.964041 
L 181.006407 20.93709 
L 181.360884 23.405875 
L 181.867281 28.727458 
L 183.639668 49.085938 
L 183.994145 50.708289 
L 184.247343 51.030096 
L 184.399262 50.878557 
L 184.60182 50.279156 
L 184.905658 48.569588 
L 185.361415 44.428078 
L 186.121009 34.941533 
L 187.083162 23.547231 
L 187.538919 20.337022 
L 187.842757 19.35891 
L 188.045315 19.266788 
L 188.197234 19.495009 
L 188.450432 20.429523 
L 188.804909 22.821376 
L 189.311306 28.023453 
L 191.235612 49.834098 
L 191.590089 51.261218 
L 191.792647 51.475629 
L 191.944566 51.342929 
L 192.147125 50.778803 
L 192.450963 49.139592 
L 192.906719 45.120693 
L 193.615674 36.430656 
L 194.679106 23.574918 
L 195.185502 19.926355 
L 195.48934 18.936175 
L 195.691899 18.82072 
L 195.843818 19.023647 
L 196.097016 19.90296 
L 196.451493 22.198469 
L 196.957889 27.260077 
L 199.034114 50.513729 
L 199.388591 51.770591 
L 199.59115 51.899405 
L 199.743069 51.710186 
L 199.996267 50.859828 
L 200.350744 48.613806 
L 200.857141 43.624295 
L 201.920573 29.962964 
L 202.629527 22.262549 
L 203.085284 19.30363 
L 203.389122 18.452994 
L 203.541041 18.38726 
L 203.69296 18.563524 
L 203.946158 19.386311 
L 204.300635 21.584846 
L 204.807031 26.504155 
L 205.769184 38.831249 
L 206.579418 48.005092 
L 207.035175 51.160916 
L 207.339013 52.174213 
L 207.541571 52.326033 
L 207.69349 52.161049 
L 207.946688 51.362888 
L 208.301166 49.207837 
L 208.807562 44.354555 
L 209.719075 32.733682 
L 210.579949 22.735981 
L 211.086345 19.140863 
L 211.390183 18.126347 
L 211.592741 17.967357 
L 211.74466 18.123652 
L 211.947219 18.695171 
L 212.251056 20.29823 
L 212.706813 24.188172 
L 213.415768 32.685407 
L 214.681758 48.000206 
L 215.188155 51.568035 
L 215.491992 52.57774 
L 215.694551 52.739529 
L 215.84647 52.58854 
L 216.049028 52.028132 
L 216.352866 50.449076 
L 216.808623 46.604481 
L 217.466938 38.825457 
L 218.834208 22.246783 
L 219.340604 18.716573 
L 219.644442 17.71919 
L 219.847 17.559972 
L 219.998919 17.709786 
L 220.201478 18.264613 
L 220.505315 19.827713 
L 220.961072 23.637297 
L 221.619387 31.370115 
L 223.037297 48.534211 
L 223.543693 52.014315 
L 223.847531 52.990496 
L 224.050089 53.140855 
L 224.202008 52.987405 
L 224.455206 52.23134 
L 224.809684 50.174973 
L 225.26544 46.045922 
L 226.025035 36.733288 
L 227.189746 22.587171 
L 227.696142 18.751138 
L 228.05062 17.395645 
L 228.253178 17.16113 
L 228.405097 17.248515 
L 228.607656 17.713823 
L 228.911493 19.134562 
L 229.31661 22.256666 
L 229.924286 28.970442 
L 231.696673 50.016397 
L 232.15243 52.72583 
L 232.456267 53.482209 
L 232.608186 53.527839 
L 232.760105 53.350224 
L 233.013303 52.565435 
L 233.367781 50.492305 
L 233.874177 45.83156 
L 234.684411 35.755238 
L 235.798483 22.311967 
L 236.304879 18.454661 
L 236.659356 17.052232 
L 236.912554 16.771059 
L 237.064473 16.896832 
L 237.267032 17.405254 
L 237.57087 18.872659 
L 237.975987 22.025237 
L 238.583662 28.737338 
L 240.406689 50.368184 
L 240.862445 53.076497 
L 241.166283 53.854391 
L 241.368841 53.890394 
L 241.5714 53.538468 
L 241.824598 52.565225 
L 242.179076 50.269261 
L 242.685472 45.386459 
L 243.596985 33.838436 
L 244.609778 21.850843 
L 244.913615 20.079577 
L 245.014895 20.022491 
L 245.166813 20.429931 
L 245.420012 22.21721 
L 245.926408 28.123816 
L 246.508764 35.250848 
M 246.508764 35.250848 
L 246.508764 34.842961 
L 255.1175 35.250848 
L 255.1175 35.250848 
" clip-path="url(#p7d20e94bf5)" style="fill: none; stroke: #ef553b; stroke-width: 0.5; stroke-linecap: square"/>
   </g>
   <g id="line2d_16">
    <path d="M 62.535001 35.250848 
L 64.307388 5.093086 
L 64.307388 5.093086 
L 66.079775 35.250848 
M 66.079775 35.250848 
L 66.687451 24.695621 
L 76.815376 24.695621 
L 77.423052 35.250848 
M 77.423052 35.250848 
L 79.246078 66.330081 
L 79.246078 66.330081 
L 81.069105 35.250848 
M 246.508764 35.250848 
L 248.28115 3.976132 
L 253.345113 3.976132 
L 255.1175 35.250848 
" clip-path="url(#p7d20e94bf5)" style="fill: none; stroke: #00cc96; stroke-width: 0.5; stroke-linecap: square"/>
   </g>
   <g id="line2d_17">
    <path d="M 21.922021 35.250848 
L 37.06327 35.142555 
L 37.164549 35.118674 
L 37.670945 35.018998 
L 37.772224 34.974556 
L 38.126702 34.865457 
L 38.227981 34.799748 
L 38.481179 34.699537 
L 38.582458 34.614478 
L 38.785017 34.520673 
L 38.886296 34.418035 
L 39.038215 34.344728 
L 39.139494 34.227604 
L 39.291413 34.144906 
L 39.392692 34.014336 
L 39.544611 33.923251 
L 39.64589 33.781228 
L 39.797809 33.683417 
L 39.899089 33.53294 
L 40.051007 33.430735 
L 40.152287 33.275778 
L 40.304206 33.172128 
L 40.405485 33.017519 
L 40.557404 32.915877 
L 40.658683 32.767081 
L 40.810602 32.671234 
L 40.911881 32.534054 
L 41.0638 32.447896 
L 41.165079 32.328106 
L 41.367638 32.221363 
L 41.468917 32.129438 
L 41.722115 32.032587 
L 41.823394 31.980869 
L 42.785547 32.077169 
L 42.886827 32.158332 
L 43.089385 32.255381 
L 43.190664 32.366679 
L 43.342583 32.447896 
L 43.443862 32.578798 
L 43.595781 32.671234 
L 43.697061 32.816088 
L 43.848979 32.915877 
L 43.950259 33.068844 
L 44.102178 33.172128 
L 44.203457 33.327566 
L 44.355376 33.430735 
L 44.456655 33.583532 
L 44.608574 33.683417 
L 44.709853 33.829237 
L 44.861772 33.923251 
L 44.963051 34.058697 
L 45.11497 34.144906 
L 45.216249 34.267585 
L 45.368168 34.344728 
L 45.469447 34.453228 
L 45.672006 34.552921 
L 45.773285 34.643794 
L 46.026483 34.75149 
L 46.127763 34.822525 
L 46.4316 34.923558 
L 46.53288 34.974556 
L 46.988636 35.080042 
L 47.089915 35.109783 
L 48.203987 35.219578 
L 48.305267 35.226229 
L 62.383083 35.250848 
L 62.383083 35.250848 
M 66.689983 35.250848 
L 66.796326 35.232149 
L 67.317914 35.121872 
L 67.424257 35.091925 
L 67.793927 34.982245 
L 67.90027 34.948083 
L 69.034598 35.056319 
L 69.140941 35.16176 
L 69.368819 35.053934 
L 69.475162 34.87216 
L 69.540994 34.762128 
L 69.647337 34.540916 
L 69.703041 34.43229 
L 69.809384 34.176542 
L 69.860023 34.065652 
L 69.966367 33.780737 
L 70.011942 33.672697 
L 70.118286 33.365229 
L 70.158797 33.264657 
L 70.26514 32.942055 
L 70.305652 32.837841 
L 70.411995 32.507767 
L 70.452507 32.402494 
L 70.55885 32.073435 
L 70.599362 31.969902 
L 70.705705 31.650862 
L 70.746217 31.551975 
L 70.85256 31.252116 
L 70.898136 31.147905 
L 71.004479 30.877301 
L 71.055119 30.774171 
L 71.161462 30.543149 
L 71.222229 30.439858 
L 71.328573 30.26009 
L 71.41466 30.153344 
L 71.521003 30.04172 
L 72.093231 30.147374 
L 72.199574 30.297678 
L 72.27047 30.404454 
L 72.376813 30.613242 
L 72.432516 30.718958 
L 72.53886 30.972804 
L 72.584435 31.071677 
L 72.690779 31.359046 
L 72.736354 31.468449 
L 72.842697 31.78002 
L 72.883209 31.881832 
L 72.989552 32.207531 
L 73.030064 32.312379 
L 73.136407 32.643087 
L 73.176919 32.74811 
L 73.283262 33.075065 
L 73.323774 33.177571 
L 73.430117 33.492706 
L 73.470629 33.590272 
L 73.576972 33.8865 
L 73.622548 33.989834 
L 73.728891 34.260335 
L 73.77953 34.36478 
L 73.885874 34.603702 
L 73.946641 34.714044 
L 74.052984 34.915749 
L 74.12388 35.022816 
L 74.230223 35.183339 
L 74.458101 35.073704 
L 74.564445 34.987542 
L 74.797387 34.877794 
L 74.90373 34.852333 
L 75.653197 34.96192 
L 75.75954 34.996422 
L 76.139337 35.107178 
L 76.24568 35.135986 
L 76.797652 35.247012 
L 76.812844 35.250848 
L 76.812844 35.250848 
" clip-path="url(#p7d20e94bf5)" style="fill: none; stroke: #ab63fa; stroke-width: 0.5; stroke-linecap: square"/>
   </g>
   <g id="legend_1">
    <g id="line2d_18">
     <path d="M 25.915625 3.9 
L 28.415625 3.9 
L 30.915625 3.9 
" style="fill: none; stroke: #636efa; stroke-width: 0.5; stroke-linecap: square"/>
    </g>
    <g id="text_15">
     <!-- $G_{x}$ -->
     <g transform="translate(33.415625 5.65) scale(0.05 -0.05)">
      <defs>
       <path id="ArialMT-47" d="M 2638 1797 
L 2638 2334 
L 4578 2338 
L 4578 638 
Q 4131 281 3656 101 
Q 3181 -78 2681 -78 
Q 2006 -78 1454 211 
Q 903 500 622 1047 
Q 341 1594 341 2269 
Q 341 2938 620 3517 
Q 900 4097 1425 4378 
Q 1950 4659 2634 4659 
Q 3131 4659 3532 4498 
Q 3934 4338 4162 4050 
Q 4391 3763 4509 3300 
L 3963 3150 
Q 3859 3500 3706 3700 
Q 3553 3900 3268 4020 
Q 2984 4141 2638 4141 
Q 2222 4141 1919 4014 
Q 1616 3888 1430 3681 
Q 1244 3475 1141 3228 
Q 966 2803 966 2306 
Q 966 1694 1177 1281 
Q 1388 869 1791 669 
Q 2194 469 2647 469 
Q 3041 469 3416 620 
Q 3791 772 3984 944 
L 3984 1797 
L 2638 1797 
z
" transform="scale(0.015625)"/>
       <path id="ArialMT-78" d="M 47 0 
L 1259 1725 
L 138 3319 
L 841 3319 
L 1350 2541 
Q 1494 2319 1581 2169 
Q 1719 2375 1834 2534 
L 2394 3319 
L 3066 3319 
L 1919 1756 
L 3153 0 
L 2463 0 
L 1781 1031 
L 1600 1309 
L 728 0 
L 47 0 
z
" transform="scale(0.015625)"/>
      </defs>
      <use xlink:href="#ArialMT-47" transform="translate(0 0.203125)"/>
      <use xlink:href="#ArialMT-78" transform="translate(79.525547 -29.665625) scale(0.7)"/>
     </g>
    </g>
    <g id="line2d_19">
     <path d="M 44.415625 3.9 
L 46.915625 3.9 
L 49.415625 3.9 
" style="fill: none; stroke: #ef553b; stroke-width: 0.5; stroke-linecap: square"/>
    </g>
    <g id="text_16">
     <!-- $G_{y}$ -->
     <g transform="translate(51.915625 5.65) scale(0.05 -0.05)">
      <defs>
       <path id="ArialMT-79" d="M 397 -1278 
L 334 -750 
Q 519 -800 656 -800 
Q 844 -800 956 -737 
Q 1069 -675 1141 -563 
Q 1194 -478 1313 -144 
Q 1328 -97 1363 -6 
L 103 3319 
L 709 3319 
L 1400 1397 
Q 1534 1031 1641 628 
Q 1738 1016 1872 1384 
L 2581 3319 
L 3144 3319 
L 1881 -56 
Q 1678 -603 1566 -809 
Q 1416 -1088 1222 -1217 
Q 1028 -1347 759 -1347 
Q 597 -1347 397 -1278 
z
" transform="scale(0.015625)"/>
      </defs>
      <use xlink:href="#ArialMT-47" transform="translate(0 0.203125)"/>
      <use xlink:href="#ArialMT-79" transform="translate(79.525547 -29.665625) scale(0.7)"/>
     </g>
    </g>
    <g id="line2d_20">
     <path d="M 62.915625 3.9 
L 65.415625 3.9 
L 67.915625 3.9 
" style="fill: none; stroke: #00cc96; stroke-width: 0.5; stroke-linecap: square"/>
    </g>
    <g id="text_17">
     <!-- $G_{z}$ -->
     <g transform="translate(70.415625 5.65) scale(0.05 -0.05)">
      <defs>
       <path id="ArialMT-7a" d="M 125 0 
L 125 456 
L 2238 2881 
Q 1878 2863 1603 2863 
L 250 2863 
L 250 3319 
L 2963 3319 
L 2963 2947 
L 1166 841 
L 819 456 
Q 1197 484 1528 484 
L 3063 484 
L 3063 0 
L 125 0 
z
" transform="scale(0.015625)"/>
      </defs>
      <use xlink:href="#ArialMT-47" transform="translate(0 0.203125)"/>
      <use xlink:href="#ArialMT-7a" transform="translate(79.525547 -29.665625) scale(0.7)"/>
     </g>
    </g>
    <g id="line2d_21">
     <path d="M 81.415625 3.9 
L 83.915625 3.9 
L 86.415625 3.9 
" style="fill: none; stroke: #ab63fa; stroke-width: 0.5; stroke-linecap: square"/>
    </g>
    <g id="text_18">
     <!-- $|B_{1}|$ -->
     <g transform="translate(88.915625 5.65) scale(0.05 -0.05)">
      <defs>
       <path id="ArialMT-7c" d="M 588 -1347 
L 588 4659 
L 1078 4659 
L 1078 -1347 
L 588 -1347 
z
" transform="scale(0.015625)"/>
       <path id="ArialMT-42" d="M 469 0 
L 469 4581 
L 2188 4581 
Q 2713 4581 3030 4442 
Q 3347 4303 3526 4014 
Q 3706 3725 3706 3409 
Q 3706 3116 3547 2856 
Q 3388 2597 3066 2438 
Q 3481 2316 3704 2022 
Q 3928 1728 3928 1328 
Q 3928 1006 3792 729 
Q 3656 453 3456 303 
Q 3256 153 2954 76 
Q 2653 0 2216 0 
L 469 0 
z
M 1075 2656 
L 2066 2656 
Q 2469 2656 2644 2709 
Q 2875 2778 2992 2937 
Q 3109 3097 3109 3338 
Q 3109 3566 3000 3739 
Q 2891 3913 2687 3977 
Q 2484 4041 1991 4041 
L 1075 4041 
L 1075 2656 
z
M 1075 541 
L 2216 541 
Q 2509 541 2628 563 
Q 2838 600 2978 687 
Q 3119 775 3209 942 
Q 3300 1109 3300 1328 
Q 3300 1584 3169 1773 
Q 3038 1963 2805 2039 
Q 2572 2116 2134 2116 
L 1075 2116 
L 1075 541 
z
" transform="scale(0.015625)"/>
      </defs>
      <use xlink:href="#ArialMT-7c" transform="translate(0 0.203125)"/>
      <use xlink:href="#ArialMT-42" transform="translate(25.976562 0.203125)"/>
      <use xlink:href="#ArialMT-31" transform="translate(94.418125 -29.665625) scale(0.7)"/>
      <use xlink:href="#ArialMT-7c" transform="translate(138.326914 0.203125)"/>
     </g>
    </g>
    <g id="PathCollection_3">
     <g>
      <use xlink:href="#mec26473b19" x="104.665625" y="4.3375" style="stroke: #000000; stroke-width: 0.1"/>
     </g>
    </g>
    <g id="text_19">
     <!-- $Stitching \ trigger$ -->
     <g transform="translate(109.665625 5.65) scale(0.05 -0.05)">
      <defs>
       <path id="ArialMT-53" d="M 288 1472 
L 859 1522 
Q 900 1178 1048 958 
Q 1197 738 1509 602 
Q 1822 466 2213 466 
Q 2559 466 2825 569 
Q 3091 672 3220 851 
Q 3350 1031 3350 1244 
Q 3350 1459 3225 1620 
Q 3100 1781 2813 1891 
Q 2628 1963 1997 2114 
Q 1366 2266 1113 2400 
Q 784 2572 623 2826 
Q 463 3081 463 3397 
Q 463 3744 659 4045 
Q 856 4347 1234 4503 
Q 1613 4659 2075 4659 
Q 2584 4659 2973 4495 
Q 3363 4331 3572 4012 
Q 3781 3694 3797 3291 
L 3216 3247 
Q 3169 3681 2898 3903 
Q 2628 4125 2100 4125 
Q 1550 4125 1298 3923 
Q 1047 3722 1047 3438 
Q 1047 3191 1225 3031 
Q 1400 2872 2139 2705 
Q 2878 2538 3153 2413 
Q 3553 2228 3743 1945 
Q 3934 1663 3934 1294 
Q 3934 928 3725 604 
Q 3516 281 3123 101 
Q 2731 -78 2241 -78 
Q 1619 -78 1198 103 
Q 778 284 539 648 
Q 300 1013 288 1472 
z
" transform="scale(0.015625)"/>
       <path id="ArialMT-63" d="M 2588 1216 
L 3141 1144 
Q 3050 572 2676 248 
Q 2303 -75 1759 -75 
Q 1078 -75 664 370 
Q 250 816 250 1647 
Q 250 2184 428 2587 
Q 606 2991 970 3192 
Q 1334 3394 1763 3394 
Q 2303 3394 2647 3120 
Q 2991 2847 3088 2344 
L 2541 2259 
Q 2463 2594 2264 2762 
Q 2066 2931 1784 2931 
Q 1359 2931 1093 2626 
Q 828 2322 828 1663 
Q 828 994 1084 691 
Q 1341 388 1753 388 
Q 2084 388 2306 591 
Q 2528 794 2588 1216 
z
" transform="scale(0.015625)"/>
       <path id="ArialMT-68" d="M 422 0 
L 422 4581 
L 984 4581 
L 984 2938 
Q 1378 3394 1978 3394 
Q 2347 3394 2619 3248 
Q 2891 3103 3008 2847 
Q 3125 2591 3125 2103 
L 3125 0 
L 2563 0 
L 2563 2103 
Q 2563 2525 2380 2717 
Q 2197 2909 1863 2909 
Q 1613 2909 1392 2779 
Q 1172 2650 1078 2428 
Q 984 2206 984 1816 
L 984 0 
L 422 0 
z
" transform="scale(0.015625)"/>
       <path id="ArialMT-6e" d="M 422 0 
L 422 3319 
L 928 3319 
L 928 2847 
Q 1294 3394 1984 3394 
Q 2284 3394 2536 3286 
Q 2788 3178 2913 3003 
Q 3038 2828 3088 2588 
Q 3119 2431 3119 2041 
L 3119 0 
L 2556 0 
L 2556 2019 
Q 2556 2363 2490 2533 
Q 2425 2703 2258 2804 
Q 2091 2906 1866 2906 
Q 1506 2906 1245 2678 
Q 984 2450 984 1813 
L 984 0 
L 422 0 
z
" transform="scale(0.015625)"/>
       <path id="ArialMT-67" d="M 319 -275 
L 866 -356 
Q 900 -609 1056 -725 
Q 1266 -881 1628 -881 
Q 2019 -881 2231 -725 
Q 2444 -569 2519 -288 
Q 2563 -116 2559 434 
Q 2191 0 1641 0 
Q 956 0 581 494 
Q 206 988 206 1678 
Q 206 2153 378 2554 
Q 550 2956 876 3175 
Q 1203 3394 1644 3394 
Q 2231 3394 2613 2919 
L 2613 3319 
L 3131 3319 
L 3131 450 
Q 3131 -325 2973 -648 
Q 2816 -972 2473 -1159 
Q 2131 -1347 1631 -1347 
Q 1038 -1347 672 -1080 
Q 306 -813 319 -275 
z
M 784 1719 
Q 784 1066 1043 766 
Q 1303 466 1694 466 
Q 2081 466 2343 764 
Q 2606 1063 2606 1700 
Q 2606 2309 2336 2618 
Q 2066 2928 1684 2928 
Q 1309 2928 1046 2623 
Q 784 2319 784 1719 
z
" transform="scale(0.015625)"/>
       <path id="ArialMT-72" d="M 416 0 
L 416 3319 
L 922 3319 
L 922 2816 
Q 1116 3169 1280 3281 
Q 1444 3394 1641 3394 
Q 1925 3394 2219 3213 
L 2025 2691 
Q 1819 2813 1613 2813 
Q 1428 2813 1281 2702 
Q 1134 2591 1072 2394 
Q 978 2094 978 1738 
L 978 0 
L 416 0 
z
" transform="scale(0.015625)"/>
      </defs>
      <use xlink:href="#ArialMT-53" transform="translate(0 0.203125)"/>
      <use xlink:href="#ArialMT-74" transform="translate(66.699219 0.203125)"/>
      <use xlink:href="#ArialMT-69" transform="translate(94.482422 0.203125)"/>
      <use xlink:href="#ArialMT-74" transform="translate(116.699219 0.203125)"/>
      <use xlink:href="#ArialMT-63" transform="translate(144.482422 0.203125)"/>
      <use xlink:href="#ArialMT-68" transform="translate(194.482422 0.203125)"/>
      <use xlink:href="#ArialMT-69" transform="translate(250.097656 0.203125)"/>
      <use xlink:href="#ArialMT-6e" transform="translate(272.314453 0.203125)"/>
      <use xlink:href="#ArialMT-67" transform="translate(327.929688 0.203125)"/>
      <use xlink:href="#ArialMT-74" transform="translate(416.0153 0.203125)"/>
      <use xlink:href="#ArialMT-72" transform="translate(443.798503 0.203125)"/>
      <use xlink:href="#ArialMT-69" transform="translate(477.099285 0.203125)"/>
      <use xlink:href="#ArialMT-67" transform="translate(499.316082 0.203125)"/>
      <use xlink:href="#ArialMT-67" transform="translate(554.931316 0.203125)"/>
      <use xlink:href="#ArialMT-65" transform="translate(610.54655 0.203125)"/>
      <use xlink:href="#ArialMT-72" transform="translate(666.161785 0.203125)"/>
     </g>
    </g>
    <g id="PathCollection_4">
     <g>
      <use xlink:href="#m39b8b54df9" x="152.165625" y="4.3375" style="stroke: #000000; stroke-width: 0.1"/>
     </g>
    </g>
    <g id="text_20">
     <!-- $Standard \ trigger$ -->
     <g transform="translate(157.165625 5.65) scale(0.05 -0.05)">
      <defs>
       <path id="ArialMT-61" d="M 2588 409 
Q 2275 144 1986 34 
Q 1697 -75 1366 -75 
Q 819 -75 525 192 
Q 231 459 231 875 
Q 231 1119 342 1320 
Q 453 1522 633 1644 
Q 813 1766 1038 1828 
Q 1203 1872 1538 1913 
Q 2219 1994 2541 2106 
Q 2544 2222 2544 2253 
Q 2544 2597 2384 2738 
Q 2169 2928 1744 2928 
Q 1347 2928 1158 2789 
Q 969 2650 878 2297 
L 328 2372 
Q 403 2725 575 2942 
Q 747 3159 1072 3276 
Q 1397 3394 1825 3394 
Q 2250 3394 2515 3294 
Q 2781 3194 2906 3042 
Q 3031 2891 3081 2659 
Q 3109 2516 3109 2141 
L 3109 1391 
Q 3109 606 3145 398 
Q 3181 191 3288 0 
L 2700 0 
Q 2613 175 2588 409 
z
M 2541 1666 
Q 2234 1541 1622 1453 
Q 1275 1403 1131 1340 
Q 988 1278 909 1158 
Q 831 1038 831 891 
Q 831 666 1001 516 
Q 1172 366 1500 366 
Q 1825 366 2078 508 
Q 2331 650 2450 897 
Q 2541 1088 2541 1459 
L 2541 1666 
z
" transform="scale(0.015625)"/>
      </defs>
      <use xlink:href="#ArialMT-53" transform="translate(0 0.203125)"/>
      <use xlink:href="#ArialMT-74" transform="translate(66.699219 0.203125)"/>
      <use xlink:href="#ArialMT-61" transform="translate(94.482422 0.203125)"/>
      <use xlink:href="#ArialMT-6e" transform="translate(150.097656 0.203125)"/>
      <use xlink:href="#ArialMT-64" transform="translate(205.712891 0.203125)"/>
      <use xlink:href="#ArialMT-61" transform="translate(261.328125 0.203125)"/>
      <use xlink:href="#ArialMT-72" transform="translate(316.943359 0.203125)"/>
      <use xlink:href="#ArialMT-64" transform="translate(350.244141 0.203125)"/>
      <use xlink:href="#ArialMT-74" transform="translate(438.329753 0.203125)"/>
      <use xlink:href="#ArialMT-72" transform="translate(466.112957 0.203125)"/>
      <use xlink:href="#ArialMT-69" transform="translate(499.413738 0.203125)"/>
      <use xlink:href="#ArialMT-67" transform="translate(521.630535 0.203125)"/>
      <use xlink:href="#ArialMT-67" transform="translate(577.245769 0.203125)"/>
      <use xlink:href="#ArialMT-65" transform="translate(632.861003 0.203125)"/>
      <use xlink:href="#ArialMT-72" transform="translate(688.476238 0.203125)"/>
     </g>
    </g>
   </g>
  </g>
 </g>
 <defs>
  <clipPath id="p7d20e94bf5">
   <rect x="21.415625" y="3.791808" width="233.701875" height="62.91808"/>
  </clipPath>
 </defs>
</svg>
